<?xml version="1.0" encoding="UTF-8"?>
<svg xmlns="http://www.w3.org/2000/svg" xmlns:xlink="http://www.w3.org/1999/xlink" viewBox="0 0 150 150">
  <defs>
    <style>
      .cls-1, .cls-2 {
        fill: none;
      }

      .cls-3 {
        fill: url(#linear-gradient);
      }

      .cls-4 {
        fill: #fff;
      }

      .cls-2 {
        stroke: #fff;
        stroke-linecap: round;
        stroke-miterlimit: 10;
        stroke-width: 2.4px;
      }

      .cls-5 {
        fill: url(#linear-gradient-8);
      }

      .cls-6 {
        fill: url(#linear-gradient-3);
      }

      .cls-7 {
        fill: url(#linear-gradient-4);
      }

      .cls-8 {
        fill: url(#linear-gradient-2);
      }

      .cls-9 {
        fill: url(#linear-gradient-6);
      }

      .cls-10 {
        fill: url(#linear-gradient-7);
      }

      .cls-11 {
        fill: url(#linear-gradient-5);
      }

      .cls-12 {
        fill: url(#Degradado_sin_nombre_15);
      }

      .cls-13 {
        opacity: .46;
      }

      .cls-14 {
        filter: url(#drop-shadow-28);
      }
    </style>
    <linearGradient id="linear-gradient" x1="7.86" y1="107.77" x2="128.08" y2="107.77" gradientUnits="userSpaceOnUse">
      <stop offset="0" stop-color="#0093ef"/>
      <stop offset=".29" stop-color="#00a3ef"/>
      <stop offset=".69" stop-color="#00b3ef"/>
      <stop offset="1" stop-color="#00b9ef"/>
    </linearGradient>
    <linearGradient id="linear-gradient-2" x1="37.63" y1="39.51" x2="98.31" y2="39.51" xlink:href="#linear-gradient"/>
    <linearGradient id="linear-gradient-3" x1="60.38" y1="30.53" x2="75.55" y2="30.53" xlink:href="#linear-gradient"/>
    <linearGradient id="linear-gradient-4" x1="87.2" y1="79.96" x2="121.23" y2="79.96" xlink:href="#linear-gradient"/>
    <linearGradient id="linear-gradient-5" x1="14.7" y1="79.96" x2="48.87" y2="79.96" xlink:href="#linear-gradient"/>
    <linearGradient id="linear-gradient-6" x1="14.7" y1="58.74" x2="48.95" y2="58.74" xlink:href="#linear-gradient"/>
    <linearGradient id="linear-gradient-7" x1="52.17" y1="58.74" x2="83.77" y2="58.74" xlink:href="#linear-gradient"/>
    <linearGradient id="linear-gradient-8" x1="87.2" y1="58.74" x2="121.23" y2="58.74" xlink:href="#linear-gradient"/>
    <filter id="drop-shadow-28" filterUnits="userSpaceOnUse">
      <feOffset dx="0" dy="0"/>
      <feGaussianBlur result="blur" stdDeviation="4.88"/>
      <feFlood flood-color="#00e1ff" flood-opacity=".75"/>
      <feComposite in2="blur" operator="in"/>
      <feComposite in="SourceGraphic"/>
    </filter>
    <linearGradient id="Degradado_sin_nombre_15" data-name="Degradado sin nombre 15" x1="84.28" y1="40.78" x2="139.95" y2="40.78" gradientUnits="userSpaceOnUse">
      <stop offset="0" stop-color="#fff" stop-opacity=".9"/>
      <stop offset=".03" stop-color="#fff" stop-opacity=".79"/>
      <stop offset=".07" stop-color="#fff" stop-opacity=".69"/>
      <stop offset=".11" stop-color="#fff" stop-opacity=".6"/>
      <stop offset=".15" stop-color="#fff" stop-opacity=".55"/>
      <stop offset=".2" stop-color="#fff" stop-opacity=".51"/>
      <stop offset=".28" stop-color="#fff" stop-opacity=".5"/>
      <stop offset=".46" stop-color="#fdfdfd" stop-opacity=".48"/>
      <stop offset=".67" stop-color="#f9f9f9" stop-opacity=".43"/>
      <stop offset=".89" stop-color="#f3f3f3" stop-opacity=".35"/>
      <stop offset="1" stop-color="#efefef" stop-opacity=".3"/>
    </linearGradient>
  </defs>
  <g id="Layer_2" data-name="Layer 2">
    <rect class="cls-4" width="150" height="150"/>
  </g>
  <g id="Layer_1" data-name="Layer 1">
    <g>
      <g>
        <polygon class="cls-3" points="67.97 72.85 7.86 96.64 30.82 142.69 105.12 142.69 128.08 96.64 67.97 72.85"/>
        <g>
          <rect class="cls-8" x="37.63" y="33.73" width="60.68" height="11.54"/>
          <rect class="cls-6" x="60.38" y="26.04" width="15.17" height="8.97"/>
        </g>
        <g>
          <polygon class="cls-7" points="121.23 70.87 87.24 70.87 87.2 77.51 116.2 89.06 121.23 89.06 121.23 70.87"/>
          <polygon class="cls-11" points="14.7 70.87 48.83 70.87 48.87 77.51 19.76 89.06 14.7 89.06 14.7 70.87"/>
        </g>
        <g>
          <rect class="cls-9" x="14.7" y="50.41" width="34.25" height="16.67"/>
          <rect class="cls-10" x="52.17" y="50.41" width="31.6" height="16.67"/>
          <rect class="cls-5" x="87.2" y="50.41" width="34.04" height="16.67"/>
        </g>
      </g>
      <g class="cls-14">
        <polyline class="cls-2" points="99.95 40.78 108.06 49.01 124.28 32.55"/>
        <path class="cls-12" d="m139.95,21.96v12.59c0,17.78-11.21,33.56-27.84,39.18h0s0,0,0,0c-16.62-5.62-27.84-21.41-27.84-39.18v-12.59l27.84-14.12,27.84,14.12Z"/>
        <path class="cls-4" d="m86.33,21.96c8.97-4.96,18.49-9.84,27.63-14.53,0,0,.21-.11.21-.11l.21.11c9.15,4.69,18.66,9.56,27.63,14.53-9.3-4.31-18.86-9.1-28.04-13.71,0,0,.41,0,.41,0-9.19,4.61-18.74,9.4-28.04,13.71h0Z"/>
        <g class="cls-13">
          <path class="cls-4" d="m113.11,7.83l27.84,14.12v12.59c0,17.78-11.21,33.56-27.84,39.18-16.62-5.62-27.84-21.41-27.84-39.18v-12.59l27.84-14.12m0-1.37c-.21,0-.43.05-.62.15l-27.84,14.12c-.46.23-.75.71-.75,1.22v12.59c0,18.4,11.56,34.66,28.77,40.48.14.05.29.07.44.07s.3-.02.44-.07c17.21-5.82,28.77-22.09,28.77-40.48v-12.59c0-.52-.29-.99-.75-1.22l-27.84-14.12c-.19-.1-.41-.15-.62-.15h0Z"/>
        </g>
        <path class="cls-1" d="m140.94,21.96v12.59c0,17.78-11.21,33.56-27.84,39.18h0s0,0,0,0c-16.62-5.62-27.84-21.41-27.84-39.18v-12.59l27.84-14.12,27.84,14.12Z"/>
      </g>
      <rect class="cls-4" x="66.53" y="87.28" width="2.87" height="36.45" rx=".93" ry=".93"/>
      <g>
        <ellipse class="cls-4" cx="52.16" cy="98.22" rx="5.03" ry="5.1"/>
        <ellipse class="cls-4" cx="83.78" cy="98.22" rx="5.03" ry="5.1"/>
      </g>
    </g>
  </g>
</svg>