<svg width="54" height="54" viewBox="0 0 54 54" fill="none" xmlns="http://www.w3.org/2000/svg">
<path fill-rule="evenodd" clip-rule="evenodd" d="M53.6693 26.9987C53.6693 41.7262 41.7301 53.6654 27.0026 53.6654C12.275 53.6654 0.335938 41.7262 0.335938 26.9987C0.335938 12.2711 12.275 0.332031 27.0026 0.332031C41.7301 0.332031 53.6693 12.2711 53.6693 26.9987ZM26.7919 48.2686C26.9197 48.3267 26.981 48.3318 26.9981 48.332H27.0071C27.0242 48.3318 27.0855 48.3267 27.2133 48.2686C27.3741 48.1955 27.6509 48.0315 28.0207 47.6835C28.7895 46.9611 29.7237 45.6678 30.6242 43.6662C32.1807 40.2075 33.3263 35.3243 33.6042 29.6654H20.401C20.6789 35.3243 21.8245 40.2075 23.381 43.6662C24.2815 45.6678 25.2157 46.9611 25.9845 47.6835C26.3543 48.0315 26.6311 48.1955 26.7919 48.2686ZM20.401 24.332H33.6042C33.3263 18.673 32.1807 13.7898 30.6242 10.3311C29.7237 8.32971 28.7895 7.03638 28.0207 6.31379C27.6509 5.96598 27.3741 5.80184 27.2133 5.72875C27.0853 5.67048 27.0239 5.66568 27.0071 5.66536H26.9981C26.9813 5.66568 26.9199 5.67048 26.7919 5.72875C26.6311 5.80184 26.3543 5.96598 25.9845 6.31379C25.2157 7.03638 24.2815 8.32971 23.381 10.3311C21.8245 13.7898 20.6789 18.673 20.401 24.332ZM35.0615 7.24C37.2042 11.5584 38.6415 17.5741 38.9434 24.332H48.1709C47.2026 16.5669 42.061 10.0978 35.0615 7.24ZM38.9434 29.6654C38.6415 36.4232 37.2042 42.439 35.0615 46.7574C42.061 43.8995 47.2026 37.4304 48.1709 29.6654H38.9434ZM18.9438 46.7574C16.8011 42.439 15.3638 36.4232 15.0619 29.6654H5.83431C6.80263 37.4304 11.9442 43.8995 18.9438 46.7574ZM15.0619 24.332C15.3638 17.5741 16.8011 11.5584 18.9438 7.24C11.9442 10.0978 6.80263 16.5669 5.83431 24.332H15.0619Z" fill="black"/>
</svg>
