<svg width="64" height="64" viewBox="0 0 64 64" fill="none" xmlns="http://www.w3.org/2000/svg">
<path fill-rule="evenodd" clip-rule="evenodd" d="M32.0013 36.0007C37.156 36.0007 41.3346 31.822 41.3346 26.6673C41.3346 21.5127 37.156 17.334 32.0013 17.334C26.8466 17.334 22.668 21.5127 22.668 26.6673C22.668 31.822 26.8466 36.0007 32.0013 36.0007ZM32.0013 30.6673C34.2104 30.6673 36.0013 28.8764 36.0013 26.6673C36.0013 24.4582 34.2104 22.6673 32.0013 22.6673C29.7922 22.6673 28.0013 24.4582 28.0013 26.6673C28.0013 28.8764 29.7922 30.6673 32.0013 30.6673Z" fill="black"/>
<path fill-rule="evenodd" clip-rule="evenodd" d="M45.8952 54.7647C53.5542 50.0791 58.6654 41.6369 58.6654 32.0006C58.6654 17.2731 46.7262 5.33398 31.9987 5.33398C17.2711 5.33398 5.33203 17.2731 5.33203 32.0006C5.33203 38.618 7.7424 44.6726 11.7331 49.334C12.7383 50.5081 13.8438 51.5937 15.0362 52.578C19.6458 56.382 25.5554 58.6673 31.9987 58.6673C37.0902 58.6673 41.8483 57.2404 45.8952 54.7647ZM48.4022 45.6412C51.4806 41.9433 53.332 37.1881 53.332 32.0006C53.332 20.2186 43.7808 10.6673 31.9987 10.6673C20.2166 10.6673 10.6654 20.2186 10.6654 32.0006C10.6654 37.1881 12.5169 41.9433 15.5953 45.6412C20.1192 42.1068 25.8129 40.0006 31.9987 40.0006C38.1843 40.0006 43.8782 42.1068 48.4022 45.6412ZM44.4387 49.3334C40.935 46.8134 36.6411 45.334 31.9987 45.334C27.3563 45.334 23.0624 46.8134 19.5587 49.3334C22.8523 51.7014 26.8483 53.154 31.1742 53.3182C31.4478 53.3287 31.7224 53.334 31.9987 53.334C32.3208 53.334 32.6414 53.3268 32.96 53.3126C37.2334 53.1233 41.1798 51.6766 44.4387 49.3334Z" fill="black"/>
</svg>
