<svg width="987" height="661" viewBox="0 0 987 661" fill="none" xmlns="http://www.w3.org/2000/svg">
<path d="M305.491 220.52C302.121 220.848 298.658 221.175 295.242 221.503C288.175 222.719 281.155 223.936 274.135 225.152C274.181 225.807 274.275 226.462 274.415 227.117C281.342 226.462 288.268 225.807 295.195 225.152C297.769 225.059 300.343 224.965 302.917 224.871C303.853 224.591 304.742 224.357 305.678 224.076L305.865 223.515C317.519 222.719 329.125 221.971 340.825 221.129C354.07 219.865 367.361 218.555 380.652 217.339C392.587 216.169 404.567 214.906 416.548 213.877C425.113 213.082 433.771 212.801 442.382 212.052C454.784 210.976 467.187 209.526 479.542 208.497C492.412 207.467 505.329 206.672 518.199 205.783C538.745 204.052 559.337 202.508 579.882 200.45C595.654 198.812 611.098 199.421 628.133 204.052C622.611 205.222 618.539 206.298 614.421 206.906C598.134 209.432 581.801 211.772 565.467 214.158C550.585 216.403 535.703 218.696 520.82 220.942C487.685 226.228 454.597 231.468 421.416 236.708C404.474 239.375 387.486 241.995 370.591 244.568C363.243 245.55 355.942 246.533 348.594 247.609C341.2 248.825 333.759 250.042 326.364 251.305C321.45 251.726 316.583 252.147 311.715 252.568C311.809 253.504 311.856 254.393 311.996 255.328C316.817 254.814 321.637 254.299 326.457 253.784C327.3 253.784 328.142 253.784 328.985 253.738C329.453 253.738 329.921 253.738 330.389 253.691C336.473 253.27 342.557 252.849 348.641 252.428C356.878 251.539 365.208 250.603 373.492 249.714C395.254 247.702 417.063 245.55 438.919 243.679C452.21 242.509 465.595 241.995 478.887 240.872C495.36 239.422 511.834 237.363 528.308 236.006C543.144 234.743 558.026 234.135 572.862 233.012C581.614 232.404 590.365 231.375 599.117 230.579C618.586 228.848 638.055 226.93 657.524 225.48C673.904 224.216 690.285 222.766 706.665 222.813C717.944 222.86 729.223 225.339 740.595 227.912C728.755 229.597 716.914 231.375 705.027 233.012C691.876 234.837 678.678 236.568 665.527 238.439C651.534 240.451 637.54 242.65 623.547 244.755C620.645 245.176 617.65 245.41 614.655 245.784C590.365 249.34 566.17 252.989 541.833 256.358C518.948 259.586 496.109 262.58 473.177 265.668C462.928 267.025 452.725 268.381 442.523 269.785C424.317 272.077 406.112 274.37 387.86 276.709C382.103 277.364 376.44 278.113 370.731 278.861C361.605 280.218 352.526 281.575 343.399 282.931C347.144 283.914 350.794 284.195 354.444 283.867C359.452 283.446 364.413 282.604 369.421 281.949C373.305 281.809 377.096 281.668 380.933 281.528C381.869 281.481 382.852 281.481 383.788 281.434C385.098 281.294 386.409 281.06 387.766 280.92C389.03 280.826 390.34 280.639 391.557 280.545C392.025 280.405 392.493 280.265 392.961 280.124C401.994 279.656 411.026 279.329 420.058 278.627C427.125 278.066 434.099 276.896 441.072 276.007C456.095 274.791 471.071 273.574 486.141 272.405C493.255 271.843 500.321 271.422 507.435 270.954C527.653 269.598 547.871 268.522 568.088 266.931C591.489 265.06 614.795 262.674 638.196 260.709C652.797 259.492 667.446 258.744 682.094 257.855C689.629 257.387 697.117 256.966 704.699 256.498C715.744 255.609 726.836 254.767 737.881 253.831C751.359 252.662 764.838 251.118 778.269 250.322C788.098 249.761 797.926 249.948 807.801 250.135C809.766 250.182 811.732 251.445 813.697 252.147C813.697 252.755 813.651 253.41 813.651 254.065C777.755 259.071 741.812 264.124 705.916 269.177C705.541 269.13 705.12 269.083 704.746 269.083C701.61 269.504 698.521 269.972 695.433 270.44C695.011 270.487 694.59 270.533 694.216 270.58C692.016 271.001 689.817 271.422 687.617 271.843C666.744 274.931 645.918 278.206 624.998 281.154C607.073 283.586 589.102 285.505 571.177 287.937C549.181 290.978 527.278 294.394 505.376 297.528C490.447 299.634 475.517 301.552 460.588 303.517C448.888 305.014 437.188 306.511 425.534 308.008C419.029 308.663 412.43 309.412 405.878 310.113C398.905 311.189 391.838 312.312 384.865 313.388C384.958 314.23 385.145 315.119 385.239 316.008C391.604 315.073 398.015 314.137 404.38 313.201C408.733 313.108 413.085 312.92 417.484 312.827C418.42 312.827 419.357 312.78 420.293 312.78C422.024 312.593 423.803 312.312 425.581 312.125C426.377 312.032 427.079 311.938 427.874 311.844C428.81 311.657 429.699 311.47 430.635 311.283C441.072 310.768 451.555 310.254 461.992 309.739C474.628 308.57 487.217 307.213 499.9 306.277C510.009 305.528 520.211 305.341 530.32 304.733C548.385 303.564 566.45 302.207 584.562 301.084C600.896 300.055 617.323 299.4 633.703 298.277C654.388 296.78 674.934 294.815 695.62 293.271C699.878 292.897 704.278 293.224 708.63 293.224C732.031 291.867 755.384 290.557 778.784 289.201C793.807 288.312 808.83 287.516 823.9 286.487C828.954 286.16 834.009 285.177 839.11 284.522C844.679 284.241 850.295 284.007 855.911 283.727C856.099 284.382 856.286 285.083 856.473 285.738C852.682 291.212 846.13 289.668 840.374 290.323C824.508 292.709 808.643 295.142 792.731 297.528C773.449 300.382 754.167 303.33 734.885 306.183C729.176 307.026 723.466 307.727 717.756 308.523C693.888 312.078 669.973 315.587 646.105 319.236C625.092 322.465 604.078 326.02 583.018 329.155C568.837 331.354 554.563 333.085 540.383 335.003C530.788 336.313 521.241 337.67 511.694 338.98C504.346 339.869 496.905 340.757 489.557 341.646L466.859 345.389C466.952 346.325 467.14 347.261 467.233 348.196C474.628 347.261 482.069 346.325 489.464 345.389C497.747 344.875 506.031 344.36 514.315 343.752C523.02 342.863 531.678 341.974 540.429 341.085C551.1 340.29 561.77 339.541 572.441 338.652C581.614 337.904 590.833 337.015 599.959 336.126C601.457 335.985 602.861 335.518 604.359 335.19C620.037 334.208 635.622 333.272 651.3 332.149C660.894 331.541 670.441 330.605 680.082 329.81C683.451 329.295 686.821 328.5 690.191 328.266C709.707 326.535 729.223 324.897 748.738 323.26C756.694 322.652 764.65 322.277 772.653 321.763C773.964 321.576 775.227 321.295 776.538 321.014C777.427 320.967 778.316 320.874 779.206 320.827C791.842 319.564 804.478 318.254 817.114 317.038C817.535 316.991 818.003 316.991 818.471 316.991C819.735 316.944 820.998 316.944 822.215 316.897C827.176 316.242 832.09 315.54 837.051 314.885C837.191 315.634 837.331 316.336 837.472 317.084C831.154 322.044 823.291 321.248 815.803 321.81C803.588 323.494 791.374 325.085 779.206 326.769C750.236 331.213 721.266 335.705 692.25 340.056C689.115 340.57 685.885 340.851 682.703 341.225C663.655 344.079 644.607 346.98 625.606 349.834C621.581 350.442 617.557 351.05 613.532 351.612C594.437 354.419 575.249 357.179 556.154 360.033C552.738 360.407 549.321 360.501 545.999 361.109C534.579 363.121 523.207 365.366 511.788 367.518H490.493C490.54 368.548 490.587 369.67 490.587 370.7C498.543 370.045 506.452 369.343 514.315 368.688C528.682 367.799 543.003 366.91 557.418 366.021C575.249 364.477 593.127 362.84 611.005 361.39C615.685 361.015 620.458 361.296 625.185 361.249C647.79 359.892 670.394 358.536 692.999 357.085C711.485 355.869 729.971 354.653 748.411 353.155C767.037 351.705 785.664 350.021 804.337 348.524C805.835 348.43 807.473 349.272 809.017 349.693C809.158 350.489 809.298 351.331 809.438 352.079C804.571 353.343 799.798 354.98 794.884 355.729C776.678 358.489 758.379 361.015 740.127 363.542C723.981 365.787 707.835 367.986 691.689 370.185C673.015 372.711 654.295 375.191 635.621 377.717C614.327 380.852 592.986 383.987 571.645 387.074C569.96 387.262 568.182 387.215 566.544 387.355C554.329 389.133 542.161 390.864 529.946 392.642C524.704 393.016 519.51 393.437 514.361 393.811C505.376 395.121 496.39 396.478 487.498 397.788C487.545 398.443 487.638 399.145 487.779 399.753C496.671 399.005 505.516 398.303 514.408 397.554C519.135 396.993 523.862 396.478 528.542 395.917C530.227 395.73 531.818 395.542 533.503 395.355C534.065 395.262 534.72 395.168 535.281 395.075C545.718 394.56 556.154 393.999 566.591 393.437L607.635 390.303C615.497 389.694 623.453 389.039 631.363 388.478C649.989 387.168 668.663 385.858 687.383 384.688C691.876 384.408 696.415 384.735 700.955 384.782C726.836 382.63 752.669 380.525 779.346 378.326C775.602 384.127 770.875 388.15 764.931 389.18C752.857 391.191 740.595 392.268 728.38 393.718C727.959 394.045 727.491 394.326 727.07 394.607C724.87 394.747 722.717 394.934 720.564 395.028C719.675 395.355 718.833 395.636 717.944 395.917C716.633 396.104 715.323 396.291 714.012 396.478C703.248 398.162 692.578 399.847 681.814 401.484C658.46 404.853 635.107 408.315 611.706 411.59C594.25 413.976 576.793 416.081 559.384 418.467C540.851 421.04 522.364 423.847 503.878 426.514C496.484 427.356 489.042 428.198 481.648 429.087C470.79 430.444 459.932 431.801 449.075 433.157C448.186 433.485 447.296 433.766 446.407 434.14C438.591 435.029 430.729 435.871 422.913 436.76C420.152 436.9 417.344 437.041 413.834 437.181C414.864 438.491 415.098 439.052 415.332 439.052C417.953 439.146 420.48 439.193 423.101 439.24C430.823 438.491 438.592 437.789 446.314 437.087C447.203 436.994 448.045 436.9 448.934 436.76C449.356 436.76 449.824 436.713 450.245 436.713C460.728 436.198 471.165 435.731 481.648 435.216C488.996 434.327 496.437 433.391 503.831 432.502C514.736 431.473 525.64 430.35 536.545 429.415C545.577 428.666 554.657 428.198 563.689 427.637C589.804 425.859 615.825 424.128 641.94 422.303C665.574 420.619 689.302 418.935 712.983 417.063C716.774 416.736 720.564 415.707 724.355 415.145C725.806 414.958 727.397 415.099 728.848 415.099C729.035 415.754 729.269 416.455 729.457 417.11C721.033 422.397 712.842 427.871 704.278 432.83C649.147 464.55 590.366 487.007 528.261 500.2C502.287 505.721 475.798 509.604 449.402 512.083C424.458 514.469 399.185 515.358 374.147 514.657C342.416 513.674 310.967 508.575 280.312 500.434C243.387 490.75 208.754 475.732 177.585 453.322C176.743 452.714 175.947 452.012 173.701 450.281C182.219 449.064 189.238 448.035 196.352 447.099C215.072 444.667 233.886 442.234 252.653 439.707C272.216 437.041 291.919 434.795 311.341 431.286C350.185 424.409 389.545 419.262 426.33 403.87C431.291 401.858 435.971 398.817 440.183 395.402C447.016 389.835 447.905 381.975 441.025 376.408C434.286 371.027 426.283 365.974 418.046 364.01C398.905 359.378 379.389 356.243 359.826 353.249C328.985 348.57 298.003 344.781 267.208 340.102C233.184 334.863 199.815 327.283 168.272 312.827C149.271 304.125 132.423 292.522 118.57 276.709C114.545 272.171 113.141 268.428 115.574 261.785C134.248 210.181 167.664 169.431 208.52 134.249C267.629 83.4878 335.864 49.3349 410.23 27.3928C436.813 19.5329 464.145 13.7784 491.523 9.09991C515.438 4.93607 539.774 2.87754 563.97 1.24007C582.082 0.0236624 600.474 -0.116692 618.539 1.24007C653.125 3.86002 687.71 7.50923 720.752 19.2522C729.924 22.4804 739.238 25.2875 748.411 28.4688C750.47 29.1238 752.201 30.6677 754.448 32.0245C709.941 43.1593 666.276 53.6858 622.845 64.961C564.298 80.166 505.61 95.2308 449.168 117.407C438.124 121.758 427.827 127.933 417.157 133.36C416.221 133.828 415.332 134.577 414.489 135.232C406.252 142.016 406.346 145.478 415.8 150.296C423.007 153.992 430.636 156.987 439.34 160.823C436.439 162.227 434.66 163.583 432.695 163.911C415.238 166.718 397.781 169.057 380.325 172.005C359.686 175.513 339.094 179.35 318.455 183.046C312.277 184.122 306.146 185.058 300.015 186.134C285.648 188.426 271.373 190.672 257.006 192.964C249.003 193.993 241 195.07 232.997 196.099C239.877 200.73 246.476 199.093 252.981 196.894C262.481 196.38 272.029 196.052 281.482 195.257C287.707 194.742 293.838 193.526 300.015 192.637C314.991 191.42 329.968 190.204 344.944 189.034C351.355 188.52 357.861 188.099 364.272 187.631C386.83 185.853 409.341 184.075 431.852 182.344C433.584 182.25 435.316 182.391 437 182.438C455.627 180.66 474.253 178.742 492.974 177.291C504.58 176.356 516.093 176.777 526.764 184.075C508.98 186.929 491.944 189.689 474.862 192.496C474.441 191.935 474.066 191.28 473.645 190.672C473.177 191.467 472.756 192.169 472.335 192.964C463.162 194.508 454.036 196.146 444.816 197.689C420.246 201.713 395.582 205.69 370.965 209.76" fill="#D9AA5B"/>
<path d="M866.859 658.379V645.607C862.507 648.04 859.09 650.051 855.627 651.829C844.207 657.677 832.601 663.198 819.544 657.022C809.809 652.438 808.593 642.893 808.171 633.911C807.516 619.595 808.171 605.232 807.937 590.915C807.89 585.816 807.095 580.67 806.674 575.57C806.206 569.675 809.809 567.57 814.864 567.102C817.859 566.821 820.948 567.055 823.99 567.055C834.754 567.055 834.567 567.055 834.146 577.863C833.584 593.348 832.648 608.881 833.163 624.367C833.397 630.963 834.894 638.683 842.804 641.63C850.338 644.437 857.546 642.566 864.051 638.589C865.596 637.654 866.531 634.706 866.578 632.648C866.765 614.635 866.953 596.576 866.578 578.564C866.344 567.055 865.97 567.055 877.717 567.055C879.027 567.055 880.337 567.055 881.648 567.055C892.178 567.055 894.331 570.19 892.085 580.482C891.289 584.038 892.365 588.015 892.365 591.758C892.365 604.811 892.365 617.817 892.365 630.87C892.365 637.186 892.506 643.502 892.786 649.818C893.067 655.759 890.353 658.473 884.456 658.379C878.84 658.286 873.177 658.379 866.765 658.379H866.859Z" fill="#010101"/>
<path d="M749.022 565.652C719.163 565.372 697.073 585.489 698.337 612.25C696.652 638.637 717.665 661.842 746.12 659.924C769.708 658.427 791.704 642.707 793.716 619.361C796.945 582.074 772.562 565.793 749.022 565.605V565.652ZM755.761 646.543C753.093 649.163 750.753 650.146 747.009 647.806C735.075 640.18 729.412 629.233 726.979 615.572C724.545 601.957 727.353 589.98 734.841 578.799C737.883 574.261 740.785 573.699 745.512 576.881C760.113 586.799 766.01 600.554 764.887 618.566C765.964 628.671 763.858 638.543 755.808 646.59L755.761 646.543Z" fill="#010101"/>
<path d="M668.941 617.536C670.719 616.46 671.842 615.571 673.106 614.87C683.261 609.443 686.818 600.319 685.134 589.699C683.589 579.921 676.99 571.406 664.916 569.863C649.612 567.991 634.121 567.71 618.724 567.055C611.329 566.728 609.644 568.553 609.738 576.132C609.925 587.5 610.908 598.869 610.814 610.331C610.768 624.32 609.831 638.355 609.878 652.344C609.878 654.356 613.248 657.818 615.448 658.146C621.391 658.941 627.569 658.333 633.653 658.52C637.537 658.613 638.567 656.742 638.193 653.233C637.304 645.186 636.274 637.139 635.853 629.139C635.712 626.8 637.35 624.414 638.193 621.981C640.86 623.291 644.277 623.946 645.962 626.098C654.432 636.765 662.248 647.806 670.672 658.52C671.655 659.783 675.68 660.344 676.85 659.409C682.653 654.777 687.988 649.49 693.651 644.297C685.414 635.361 677.505 626.846 668.894 617.583L668.941 617.536ZM659.112 602.284C657.662 608.32 645.4 616.507 638.941 615.15C637.584 614.87 635.946 612.343 635.853 610.706C635.432 605.559 635.712 600.319 635.712 595.126C635.712 589.933 635.899 585.161 635.665 580.202C635.385 575.196 638.005 574.026 642.077 574.962C655.602 578.05 662.342 588.998 659.112 602.238V602.284Z" fill="#010101"/>
<path d="M237.727 603.126C237.727 617.442 237.727 631.759 237.727 646.075C237.727 654.543 233.983 658.426 224.436 659.408C224.436 647.01 224.436 634.659 224.436 622.308C224.436 615.805 224.623 609.255 224.342 602.752C223.968 594.658 227.384 585.722 218.445 579.36C224.904 574.775 230.333 570.424 236.276 566.915C237.868 565.979 242.033 566.728 243.25 568.178C252.095 578.611 260.332 589.512 269.13 599.992C275.261 607.29 281.907 614.121 288.318 621.139C288.833 620.858 289.348 620.577 289.863 620.296C289.863 605.84 289.816 591.383 289.909 576.927C289.909 574.681 290.003 571.5 291.407 570.424C294.075 568.272 297.679 567.289 300.908 565.839C301.563 568.599 302.78 571.313 302.826 574.073C302.967 593.629 302.827 613.185 303.014 632.741C303.014 635.455 304.886 638.075 305.588 640.835C306.056 642.706 306.992 645.654 306.103 646.543C301.142 651.549 295.666 656.087 290.331 660.765C289.91 661.093 289.067 660.952 288.786 660.952C280.362 651.034 272.079 641.35 263.842 631.572C255.605 621.793 247.368 611.969 239.178 602.191C238.71 602.471 238.195 602.752 237.727 603.033V603.126Z" fill="#010101"/>
<path d="M193.732 578.612C177.679 577.208 161.767 574.495 152.781 591.852C148.663 599.759 149.038 608.273 150.863 615.806C154.747 631.993 166.634 642.426 189.707 640.976C184.512 634.052 180.019 628.017 175.339 621.747C180.815 616.648 186.618 611.268 192.843 605.513C197.101 609.256 202.577 613.654 207.444 618.66C208.568 619.829 208.521 623.572 207.538 625.116C201.22 634.894 194.34 644.298 187.882 653.935C185.167 658.006 181.938 659.69 176.884 659.783C162.703 660.064 149.552 658.052 138.18 648.555C130.645 642.239 126.339 634.239 124.42 625.069C121.191 609.349 123.718 594.706 134.342 581.98C141.783 573.091 151.331 568.226 162.703 567.149C168.085 566.635 173.608 567.383 178.99 566.962C186.665 566.354 189.567 567.851 193.826 578.612H193.732Z" fill="#020202"/>
<path d="M985.876 593.723C985.081 582.261 976.376 570.752 966.22 569.816C950.401 568.366 934.536 567.617 918.671 567.43C916.658 567.383 913.055 571.921 912.727 574.682C912.119 579.922 913.616 585.255 913.663 590.635C913.803 605.84 913.803 620.999 913.616 636.204C913.569 641.303 912.54 646.45 912.54 651.549C912.493 655.9 914.506 658.66 919.607 658.427C926.533 658.146 933.46 658.38 941.696 658.38C940.667 649.35 939.637 641.116 938.701 632.929C938.233 628.952 938.093 625.584 943.943 625.724C948.576 625.864 953.35 625.303 957.936 624.367C970.573 621.794 987.28 612.624 985.97 593.723H985.876ZM939.356 617.771V575.571C951.525 574.635 961.68 584.366 962.008 595.22C962.336 609.256 953.303 618.285 939.356 617.771Z" fill="#010101"/>
<path d="M581.471 604.203C588.023 610.565 593.592 616.039 598.834 621.139C591.252 632.788 583.905 644.391 576.23 655.759C575.06 657.537 572.579 659.409 570.614 659.502C556.059 660.064 541.878 659.689 529.429 649.865C521.801 643.829 517.448 636.344 515.108 627.361C510.428 609.302 513.143 592.647 526.668 579.173C534.624 571.219 544.686 566.775 556.34 567.056C561.534 567.196 566.776 567.056 571.971 567.056C578.663 567.102 582.267 571.032 582.173 578.986C578.85 578.565 575.528 578.424 572.345 577.676C553.017 573.278 536.636 591.103 539.959 610.893C542.58 626.472 550.255 635.829 564.857 640.367C565.044 640.414 565.185 640.788 565.325 640.788C569.444 640.554 573.562 640.274 577.727 639.993C576.183 636.765 574.779 633.396 572.954 630.309C572.018 628.671 570.286 627.501 568.929 626.098C566.308 623.384 566.214 620.531 568.835 617.77C573.047 613.232 577.259 608.741 581.518 604.203H581.471Z" fill="#010101"/>
<path d="M368.44 594.144C373.401 600.132 378.268 606.027 383.463 612.343C378.549 616.46 373.588 620.952 368.206 624.882C367.223 625.583 364.228 624.648 362.918 623.572C359.876 621.139 357.395 618.051 354.54 615.431C353.136 614.168 351.311 613.326 349.486 612.156V647.947C359.455 647.947 368.721 647.853 377.941 647.947C384.071 647.993 386.599 651.175 386.131 658.286C366.849 658.286 347.567 658.333 328.238 658.286C323.231 658.286 322.622 654.309 322.669 650.66C322.903 641.631 323.886 632.601 323.793 623.618C323.699 608.32 322.903 592.974 322.623 577.676C322.482 569.442 325.056 567.009 333.246 567.009C348.222 567.056 363.245 567.056 378.221 567.149C380 567.149 381.778 567.57 384.165 567.898C382.246 574.682 379.204 578.097 372.278 577.629C365.164 577.161 357.957 577.535 350.001 577.535C350.001 582.12 350.001 586.612 350.001 591.056C350.001 593.863 350.001 596.717 350.001 599.524C350.001 601.863 349.86 604.203 349.767 606.542C352.06 605.513 354.587 604.858 356.599 603.407C360.578 600.6 364.275 597.419 368.487 594.097L368.44 594.144Z" fill="#010101"/>
<path d="M438.075 658.38C429.697 658.38 422.537 658.38 415.423 658.38C411.585 658.38 409.667 656.649 409.994 652.485C410.556 644.719 411.071 636.952 411.164 629.186C411.352 612.578 411.211 595.969 411.211 578.846C406.718 578.846 403.957 578.846 401.196 578.846C393.677 578.846 388.872 575.134 386.781 567.711H460.305C461.054 574.588 457.544 578.752 450.664 578.846C437.466 578.986 437.607 578.986 437.373 592.46C437.232 602.566 436.109 612.718 436.249 622.823C436.39 634.426 437.42 646.029 438.122 658.427L438.075 658.38Z" fill="#010101"/>
<path d="M75.4667 575.523C70.1782 576.225 65.9191 576.038 62.3155 577.488C55.0614 580.342 53.0492 587.22 52.5812 594.097C51.7388 606.776 51.7387 619.548 51.0835 632.227C50.5687 642.332 44.4847 649.256 36.4818 654.356C29.0873 659.081 20.6165 660.391 11.9584 659.596C6.66994 659.128 2.31748 656.742 0.539062 650.426C3.7215 650.426 6.76354 650.894 9.61837 650.332C18.8849 648.414 23.6116 641.864 23.7988 632.133C24.0328 619.641 23.8923 607.103 25.2027 594.705C26.3727 583.711 31.6146 573.933 42.0511 569.207C51.5984 564.856 62.0348 565.652 71.7693 569.816C73.4073 570.517 74.1094 573.371 75.4198 575.477L75.4667 575.523Z" fill="#010101"/>
<path d="M79.2578 658.38C79.913 644.953 80.9426 632.321 80.9894 619.642C81.083 604.952 80.3342 590.308 79.8194 575.618C79.6322 569.77 81.9722 567.056 88.0095 567.009C107.198 566.775 107.198 566.635 107.198 585.77C107.198 607.057 107.198 628.344 107.198 649.631C107.198 657.819 106.589 658.38 98.1651 658.38C92.315 658.38 86.465 658.38 79.2109 658.38H79.2578Z" fill="black"/>
<path d="M305.914 223.562C305.773 222.532 305.633 221.55 305.492 220.521L305.914 223.562Z" fill="#FAF5E9"/>
<path d="M475.238 192.403C474.396 192.543 473.553 192.73 472.711 192.871C473.132 192.075 473.553 191.373 474.021 190.578C474.443 191.186 474.817 191.841 475.238 192.403Z" fill="#D9AA5B"/>
<path d="M695.717 270.533L695.108 270.72H694.547C694.921 270.627 695.343 270.58 695.764 270.533H695.717Z" fill="#D9AA5B"/>
<path d="M706.147 269.27H705.585L705.023 269.177C705.398 269.177 705.819 269.224 706.193 269.27H706.147Z" fill="#D9AA5B"/>
<path d="M257.384 192.871C256.026 194.181 254.716 195.491 253.359 196.801C246.807 199 240.255 200.637 233.328 196.006C241.331 194.976 249.334 193.947 257.337 192.871H257.384Z" fill="#D9AA5B"/>
<path d="M514.457 393.624V397.367C505.565 398.115 496.72 398.817 487.828 399.566C487.734 398.957 487.64 398.256 487.547 397.601C496.486 396.291 505.471 394.934 514.41 393.624H514.457Z" fill="#D9AA5B"/>
<path d="M489.698 341.646C489.651 342.91 489.605 344.173 489.605 345.389C482.21 346.325 474.769 347.261 467.374 348.196C467.281 347.261 467.094 346.325 467 345.389L489.698 341.646Z" fill="#D9AA5B"/>
<path d="M446.549 434C446.549 434.982 446.502 435.965 446.502 436.994C438.78 437.649 431.011 438.398 423.289 439.146C423.242 438.304 423.148 437.462 423.102 436.62C430.917 435.731 438.78 434.889 446.595 434H446.549Z" fill="#D9AA5B"/>
<path d="M369.607 282.043C364.599 282.698 359.638 283.54 354.631 283.961C351.027 284.242 347.33 284.008 343.586 283.025C352.712 281.669 361.791 280.312 370.917 278.955C370.496 279.984 370.028 281.014 369.607 282.09V282.043Z" fill="#D9AA5B"/>
<path d="M425.818 308.101V312.172C424.04 312.359 422.261 312.64 420.529 312.827C419.593 312.827 418.657 312.874 417.721 312.874C413.322 312.967 408.97 313.154 404.617 313.248C405.132 312.219 405.6 311.236 406.115 310.16C412.714 309.505 419.266 308.756 425.771 308.055L425.818 308.101Z" fill="#D9AA5B"/>
<path d="M514.408 368.641C506.545 369.296 498.589 369.998 490.68 370.653C490.68 369.624 490.633 368.501 490.586 367.472H511.88C512.723 367.846 513.612 368.267 514.454 368.641H514.408Z" fill="#D9AA5B"/>
<path d="M406.115 310.207C405.6 311.236 405.132 312.219 404.617 313.295C398.252 314.231 391.841 315.166 385.476 316.102C385.382 315.213 385.195 314.324 385.102 313.482C392.075 312.406 399.142 311.283 406.115 310.207Z" fill="#D9AA5B"/>
<path d="M295.193 225.199C288.267 225.854 281.34 226.509 274.414 227.164C274.32 226.509 274.226 225.854 274.133 225.199C281.153 223.983 288.173 222.766 295.24 221.55C295.24 222.766 295.24 223.983 295.24 225.199H295.193Z" fill="#D9AA5B"/>
<path d="M369.609 282.043C370.031 281.013 370.498 279.984 370.92 278.908C376.629 278.206 382.339 277.504 388.049 276.756C388.049 278.159 388.049 279.563 388.002 280.92C386.692 281.107 385.381 281.294 384.071 281.434C383.135 281.434 382.152 281.481 381.216 281.528C377.378 281.668 373.494 281.809 369.656 281.996L369.609 282.043Z" fill="#D9AA5B"/>
<path d="M326.461 251.398C326.461 252.241 326.461 253.036 326.554 253.878C321.734 254.393 316.914 254.907 312.046 255.422C311.953 254.533 311.906 253.597 311.812 252.708C316.68 252.287 321.594 251.866 326.461 251.445V251.398Z" fill="#D9AA5B"/>
<path d="M295.195 225.199C295.195 223.983 295.195 222.766 295.195 221.55C298.612 221.222 302.028 220.895 305.445 220.567C305.585 221.597 305.726 222.579 305.866 223.608L305.679 224.17C304.743 224.404 303.854 224.684 302.918 224.918C300.343 225.012 297.769 225.105 295.195 225.199Z" fill="#D9AA5B"/>
<path d="M423.243 439.146C420.622 439.099 418.095 439.052 415.474 438.958C415.193 438.958 415.006 438.397 413.977 437.087C417.487 436.947 420.295 436.806 423.056 436.666C423.103 437.508 423.196 438.35 423.243 439.192V439.146Z" fill="#D9AA5B"/>
<path d="M381.117 281.575C382.053 281.575 383.036 281.528 383.972 281.481C383.036 281.481 382.053 281.528 381.117 281.575Z" fill="#ECCF9C"/>
<path d="M329.031 253.784C329.499 253.784 329.967 253.784 330.435 253.737C329.967 253.737 329.499 253.737 329.031 253.784Z" fill="#ECCF9C"/>
</svg>
