<svg width="2359" height="270" viewBox="0 0 2359 270" fill="none" xmlns="http://www.w3.org/2000/svg">
<path d="M2278.29 269.48C2278.81 267.328 2277.87 266.58 2275.72 266.533C2257.37 265.925 2243.66 257.035 2232.52 243.14C2201.02 203.888 2168.03 165.852 2135.69 127.348C2123.85 113.266 2112.06 99.1367 2100.17 85.1012C2097.55 82.0134 2094.79 78.9724 2091.04 77.101C2083.13 73.1243 2074.76 77.8496 2074.29 86.5983C2074.1 89.5458 2074.2 92.54 2074.2 95.4874C2074.2 147.886 2074.29 200.285 2074.29 252.731C2074.29 257.035 2072.09 259.188 2067.69 259.188C2047.14 259.188 2026.55 259.188 2006.01 259.188C2000.48 259.188 2000.39 259.094 2000.39 253.48C2000.39 190.695 2000.63 127.909 2000.2 65.1241C2000.11 48.3284 2006.52 34.7608 2017.29 22.7371C2034.79 3.13422 2057.25 -1.82497 2082.53 1.26283C2104.29 3.92956 2120.57 15.3918 2134.33 31.439C2159.37 60.5392 2184.6 89.5458 2209.73 118.646C2224.85 136.143 2239.92 153.735 2255.03 171.232C2257.42 173.992 2259.95 176.612 2262.57 179.185C2266.69 183.209 2271.79 183.536 2277.03 182.367C2280.82 181.525 2282.6 178.624 2282.93 174.975C2283.21 171.887 2283.21 168.799 2283.21 165.665C2283.21 114.622 2283.21 63.5334 2283.21 12.4912C2283.21 8.06223 2285.5 5.84774 2290.09 5.84774C2311.05 5.84774 2332.02 5.84774 2352.99 5.84774C2358.18 5.84774 2358.56 6.22202 2358.56 11.3683C2358.56 75.37 2358.56 139.372 2358.56 203.373C2358.56 217.923 2352.19 230.181 2343.63 241.503C2333.94 254.275 2321.26 262.603 2305.44 266.112C2299.07 267.515 2292.47 267.188 2285.97 267.749C2289.81 269.246 2294.11 267.796 2297.9 269.621H2278.29V269.48Z" fill="#373435"/>
<path d="M0 67.37C1.91882 71.9081 1.17001 76.6802 1.17001 81.3119C1.26361 116.447 1.17001 151.629 1.02961 186.765C1.02961 189.011 1.26361 191.397 0 193.455V67.3232V67.37Z" fill="#373435"/>
<path d="M528.234 259.188C500.575 259.188 472.916 259.983 445.304 259C411.42 257.737 384.416 243.047 366.071 214.321C359.144 203.467 356.102 191.35 356.055 178.577C355.962 146.67 356.149 114.716 355.962 82.8089C355.868 60.399 364.76 42.1529 381.187 27.0882C400.282 9.54386 423.261 1.35652 448.907 1.16938C502.307 0.7951 555.659 0.654746 609.059 1.16938C640.602 1.49687 666.951 13.7077 686.607 38.6908C696.576 51.3695 701.068 66.1067 701.209 82.0135C701.443 112.611 700.928 143.161 701.396 173.759C701.864 202.531 689.321 224.193 666.436 240.848C649.401 253.199 630.119 259.094 609.152 259.234C582.195 259.422 555.238 259.281 528.281 259.281L528.234 259.188Z" fill="#373435"/>
<path d="M1206.38 159.77C1206.38 191.303 1206.38 222.836 1206.38 254.369C1206.38 259.936 1206.38 259.983 1200.67 259.983C1179.14 259.983 1157.61 259.936 1136.13 260.03C1132.57 260.03 1131.5 259.047 1131.5 255.445C1131.64 205.853 1131.59 156.261 1131.59 106.716C1131.59 104.704 1131.68 102.693 1131.03 100.728C1129.67 96.5638 1127.14 93.5695 1122.7 92.7742C1118.06 91.8853 1114.32 93.6631 1111.93 97.6866C1108.94 102.646 1106.13 107.745 1103.32 112.845C1076.79 160.659 1050.3 208.473 1023.81 256.334C1022.4 258.86 1020.58 260.077 1017.63 260.03C997.318 259.983 977.054 259.983 956.742 260.03C953.232 260.03 950.986 258.626 949.254 255.539C919.77 203.467 890.192 151.489 860.708 99.4176C858.415 95.3941 856.496 91.2771 851.441 89.8735C846.012 88.3296 842.034 90.2478 840.303 95.628C839.32 98.7626 839.367 101.991 839.367 105.219C839.367 154.67 839.367 204.122 839.367 253.574C839.367 259.983 839.273 260.077 832.674 260.077C812.129 260.077 791.537 260.077 770.991 260.077C765.703 260.077 765.516 259.843 765.516 254.556C765.516 192.847 765.516 131.138 765.609 69.4286C765.609 60.2587 766.124 50.9018 770.57 42.6209C784.236 17.0763 805.343 1.497 834.874 0.0934554C858.227 -1.02938 876.714 9.77791 891.362 27.5561C904.092 43.0419 913.592 60.4459 923.28 77.7562C942.889 112.751 962.546 147.7 982.155 182.695C984.261 186.484 984.729 186.531 987.022 182.554C1000.41 159.536 1013.65 136.471 1027.04 113.5C1041.36 88.891 1055.07 63.8612 1070.28 39.767C1078.89 26.1058 1089.47 14.2225 1104.68 7.29832C1146.71 -11.7899 1191.59 10.854 1204.13 51.8375C1205.91 57.6856 1206.28 63.7208 1206.28 69.8028C1206.28 99.8387 1206.28 129.875 1206.28 159.957L1206.38 159.77Z" fill="#373435"/>
<path d="M1415.1 260.029C1367.18 260.029 1319.21 260.029 1271.29 260.029C1266.92 260.029 1264.73 257.94 1264.73 253.76C1264.73 236.777 1264.73 219.795 1264.73 202.812C1264.73 198.632 1266.84 196.542 1271.05 196.542C1347.57 196.542 1424.14 196.542 1500.66 196.542C1505.34 196.542 1509.83 196.075 1514.13 193.969C1520.31 190.975 1523.35 186.109 1523.45 179.466C1523.54 172.963 1520.69 167.77 1515.12 164.167C1508.99 160.237 1502.01 159.816 1495.09 159.77C1437.33 159.723 1379.58 159.723 1321.88 159.77C1302.55 159.77 1288.37 151.021 1278.49 134.927C1275.83 130.576 1274.56 125.804 1274.56 120.704C1274.56 95.113 1274.56 69.5217 1274.56 43.9304C1274.56 38.363 1276.01 33.2167 1279.1 28.6318C1288.79 14.0817 1301.8 5.66044 1320.1 5.70723C1406.31 5.84758 1492.51 5.754 1578.72 5.754C1585.41 5.754 1585.5 5.75401 1585.5 12.491C1585.5 28.3979 1585.5 44.3047 1585.5 60.1647C1585.5 66.0128 1585.5 66.0128 1579.75 66.0128C1548.16 66.0128 1516.57 66.0128 1484.98 66.0128C1447.4 66.0128 1409.82 66.0128 1372.24 66.0128C1370.18 66.0128 1368.12 66.0129 1366.1 66.2936C1356.18 67.6503 1349.4 74.4809 1349.54 82.9022C1349.68 90.762 1358.01 99.2301 1366.9 100.213C1371.49 100.727 1376.07 101.101 1380.75 101.101C1436.87 101.101 1492.98 101.101 1549.09 101.101C1555.27 101.101 1561.36 101.663 1567.3 103.02C1585.5 107.183 1597.3 120.798 1598.66 139.699C1600.34 163.372 1599.03 187.092 1599.36 210.812C1599.45 215.397 1599.36 219.935 1598.84 224.52C1596.04 247.444 1582.6 259.655 1559.02 259.796C1523.59 260.029 1488.21 259.936 1452.78 259.936C1440.24 259.936 1427.74 259.936 1415.2 259.936L1415.1 260.029Z" fill="#373435"/>
<path d="M178.025 5.05256C212.892 5.05256 247.758 5.05256 282.578 5.05256C289.878 5.05256 290.019 5.23969 290.019 12.6317C290.066 27.6964 290.066 42.8079 290.112 57.8726C290.112 62.707 287.726 65.1243 282.952 65.1243C228.476 65.1243 174 65.3114 119.571 65.0307C100.009 64.9371 88.0747 75.5573 79.0422 90.9495C77.3106 93.8501 76.9362 97.3122 76.9362 100.728C76.9362 120.658 76.8894 140.588 76.983 160.518C77.0766 178.016 92.3336 195.888 112.317 195.794C166.232 195.607 220.146 195.794 274.06 195.888C278.553 195.888 283.046 196.215 287.538 196.169C289.972 196.169 291.095 197.011 291.095 199.397C291.095 218.532 291.095 237.667 291.095 256.802C291.095 259.001 290.206 260.077 287.96 259.983C287.024 259.983 286.041 259.983 285.105 259.983C221.503 259.983 157.948 259.983 94.346 259.983C78.2466 259.983 62.4749 258.112 47.8731 250.954C25.6429 240.099 10.6199 222.976 3.64665 199.21C3.17864 197.666 3.03824 196.028 2.99144 194.437C2.80424 160.378 2.57024 126.272 2.52344 92.2127C2.52344 84.961 2.71064 77.7094 2.61704 70.4109C2.47664 62.6447 5.19107 55.5334 9.21591 49.0303C20.2608 31.0649 35.3774 17.4973 54.7528 8.65499C61.0708 5.75433 67.8101 4.95898 74.643 4.95898C109.088 4.95898 143.533 4.95898 177.978 4.95898L178.025 5.05256Z" fill="#373435"/>
<path d="M1756.65 208.801C1756.65 193.83 1756.51 178.905 1756.75 163.934C1756.79 160.004 1755.62 156.963 1753.1 154.063C1734.7 132.963 1716.36 111.769 1698.01 90.6225C1679.24 68.9611 1660.48 47.253 1641.71 25.5448C1636.84 19.9307 1631.84 14.4101 1626.92 8.79588C1626.22 8.00054 1625.05 7.29877 1625.42 6.12915C1625.94 4.67882 1627.44 5.00631 1628.61 5.00631C1652.71 5.00631 1676.81 5.09988 1700.91 5.09988C1705.45 5.09988 1708.63 6.87771 1711.58 10.4801C1727.78 30.083 1744.3 49.4051 1760.63 68.8676C1771.25 81.4995 1781.88 94.1314 1792.27 106.95C1794.65 109.898 1795.96 109.383 1798.12 106.95C1810.66 92.4003 1823.3 77.9438 1835.93 63.4873C1851.61 45.5687 1867.29 27.6502 1882.97 9.73158C1884.32 8.18768 1885.82 7.43912 1887.88 7.34555C1911 6.45663 1934.12 5.66129 1957.29 5.84843C1959.63 5.84843 1962.95 4.25775 1964.07 6.59699C1964.96 8.51517 1961.64 9.96551 1960.19 11.6498C1925.93 50.9022 1891.62 90.0611 1857.32 129.314C1849.83 137.875 1842.44 146.484 1834.86 154.952C1832.89 157.151 1832.28 159.49 1832.28 162.297C1832.28 186.391 1832.24 210.532 1832.09 234.626C1832.09 242.018 1831.77 249.41 1831.77 256.802C1831.77 259.75 1830.04 260.03 1827.79 260.03C1816.6 260.03 1805.47 260.03 1794.28 260.03C1783.66 260.03 1773.03 260.03 1762.41 260.03C1756.7 260.03 1756.65 260.03 1756.65 254.463C1756.65 239.258 1756.65 224.006 1756.65 208.801Z" fill="#373435"/>
<path d="M631.476 170.578C631.476 172.449 631.476 174.367 631.476 176.239C631.429 189.713 622.35 198.742 608.684 198.789C574.801 198.836 540.917 198.789 507.034 198.789C488.126 198.789 469.219 198.789 450.311 198.789C442.917 198.789 436.412 196.496 430.983 191.537C427.66 188.496 425.648 184.8 425.367 180.215C425.086 179.56 425.086 178.905 425.086 178.25C425.086 149.103 425.086 120.003 425.086 90.8564C425.086 90.2014 425.086 89.4996 425.367 88.8914C425.648 84.4937 424.805 79.9555 426.958 75.7917C431.03 68.0254 438.143 64.2826 446.287 62.3176C449.141 61.6159 452.23 61.4755 455.179 61.4755C504.834 61.4287 554.489 61.4287 604.098 61.4755C613.785 61.4755 622.256 64.189 628.247 72.4232C631.757 77.1952 631.897 82.8562 632.038 88.2364C632.365 103.02 632.084 117.804 632.038 132.635C631.382 143.723 631.944 154.811 631.71 165.899C631.71 167.49 632.084 169.127 631.382 170.624L631.476 170.578Z" fill="#FFCC28"/>
</svg>
