<svg width="2227" height="467" viewBox="0 0 2227 467" fill="none" xmlns="http://www.w3.org/2000/svg">
<path d="M0.999942 466.02C0.999942 446.183 0.90625 426.393 0.90625 406.556C0.90625 349.292 0.90625 292.027 0.90625 234.762C0.90625 234.341 0.906296 233.874 0.953096 233.453C1.4211 233.125 1.88881 232.844 2.40361 232.517C5.30524 229.85 8.20733 227.23 11.0622 224.563C65.2571 174.644 119.405 124.678 173.647 74.7584C199.481 50.9917 225.361 27.3186 251.195 3.55193C252.131 2.70981 252.88 1.63375 253.723 0.651269C256.905 0.651269 260.134 0.604492 263.316 0.604492C342.596 0.604492 421.923 0.604492 501.203 0.604492C503.076 0.604492 504.994 0.65127 506.866 0.698055C506.866 1.02555 506.819 1.35305 506.772 1.68054C496.008 11.5054 485.244 21.3302 474.48 31.155C464.792 39.9973 455.152 48.8864 445.511 57.7755C424.919 76.7234 404.326 95.6712 383.781 114.619C375.403 122.339 367.073 130.011 358.696 137.731C337.167 157.568 315.64 177.404 294.111 197.288C277.404 212.68 260.695 228.119 243.988 243.511C223.302 262.553 202.57 281.547 181.884 300.589C165.363 315.794 148.936 331.046 132.415 346.251C112.385 364.731 92.3075 383.117 72.2301 401.55C58.2836 414.369 44.4304 427.282 30.4839 440.101C20.9366 448.85 11.2962 457.552 1.70206 466.254C1.46806 466.16 1.18705 466.113 0.90625 466.067L0.999942 466.02Z" fill="#43C7F4"/>
<path d="M508.503 101.566C513.885 101.66 519.268 101.8 524.697 101.8C576.739 101.894 628.828 101.52 680.87 102.175C707.967 102.502 733.614 109.707 756.874 123.976C773.488 134.175 786.779 147.603 794.735 165.802C798.807 175.159 801.802 184.797 803.253 194.902C804.937 206.598 805.452 218.341 804.001 230.131C800.679 257.079 791.553 281.594 774.704 303.162C750.649 333.947 719.292 352.894 681.571 361.784C675.253 363.281 668.888 364.684 662.43 365.339C655.644 366.041 648.764 365.994 641.885 366.041C630.372 366.135 618.859 366.088 607.299 366.041C553.338 365.901 499.377 365.76 445.416 365.62C444.293 365.62 443.17 365.48 441.766 365.433C441.953 364.17 442.046 363.187 442.28 362.251C455.291 310.273 468.302 258.342 481.312 206.364C489.222 174.738 497.224 143.111 505.134 111.485C505.929 108.397 506.678 105.262 507.427 102.175C507.754 101.987 508.129 101.754 508.456 101.566H508.503ZM604.304 165.428C592.135 212.961 580.015 260.12 567.94 307.326C568.736 307.513 569.157 307.7 569.578 307.7C584.461 307.7 599.343 308.075 614.179 307.466C635.239 306.624 652.415 297.454 665.987 281.314C676.657 268.635 682.648 253.804 686.86 238.085C688.311 232.657 688.498 226.903 689.528 221.336C691.353 211.464 689.715 201.92 686.532 192.656C682.976 182.223 675.955 174.644 665.846 170.2C657.89 166.691 649.513 165.241 640.855 165.241C629.763 165.241 618.719 165.241 607.627 165.241C606.644 165.241 605.614 165.334 604.304 165.428Z" fill="#019FE4"/>
<path d="M2159.44 366.041C2157.38 366.041 2155.36 366.088 2153.3 366.088C2113.62 366.088 2073.98 366.088 2034.29 366.135C2030.55 366.135 2030.55 366.135 2029.24 362.205C2023.67 345.502 2018.19 328.753 2012.58 312.051C2009.21 301.946 2005.51 291.934 2002.19 281.781C1996.52 264.611 1991 247.395 1985.43 230.178C1983.89 225.453 1982.53 220.727 1980.99 216.002C1980.42 214.271 1979.63 212.587 1978.65 210.06C1977.94 212.166 1977.38 213.522 1977.05 214.879C1969.66 244.541 1962.26 274.202 1954.87 303.864C1950 323.373 1945.04 342.836 1940.27 362.345C1939.47 365.526 1939.57 365.994 1935.63 365.994C1911.3 365.994 1886.92 366.041 1862.58 366.088C1861.32 366.088 1860.1 365.947 1858.51 365.854C1880.6 277.571 1902.55 189.709 1924.54 101.566C1967.83 101.566 2011.12 101.566 2054.04 101.566C2071.5 153.544 2088.63 204.68 2105.8 255.816C2106.08 255.816 2106.41 255.722 2106.69 255.722C2119.51 204.446 2132.38 153.17 2145.25 101.707H2226.03C2225.89 102.876 2225.85 103.906 2225.61 104.841C2209.75 168.235 2193.83 231.628 2177.97 295.022C2172.07 318.461 2166.17 341.9 2160.28 365.339C2160 365.526 2159.72 365.76 2159.44 365.947V366.041Z" fill="#019FE4"/>
<path d="M1695.88 103.11C1662.89 131.368 1629.94 159.626 1596.94 187.884C1582.2 200.516 1567.46 213.101 1552.76 225.686C1552.11 226.248 1551.59 226.95 1550.7 227.838C1583.65 273.407 1616.6 318.975 1649.5 364.497L1648.42 365.994C1610.38 365.994 1572.37 365.994 1534.32 366.041C1529.22 366.041 1524.12 365.854 1519.02 366.134C1516.17 366.275 1514.53 365.292 1512.98 362.906C1502.22 346.298 1491.31 329.736 1480.46 313.174C1473.11 301.946 1465.76 290.764 1458.41 279.582C1457.67 278.413 1456.64 277.43 1455.33 275.84C1453.13 284.542 1451.11 292.589 1449.1 300.589C1444.37 319.49 1439.69 338.438 1434.92 357.339C1434.22 360.099 1433.33 362.813 1432.53 365.573C1432.16 365.713 1431.79 365.9 1431.46 366.041C1394.91 366.041 1358.36 366.041 1321.38 366.041C1321.52 364.544 1321.52 363.561 1321.76 362.672C1335.42 308.028 1349.18 253.43 1362.85 198.832C1370.15 169.732 1377.36 140.632 1384.61 111.531C1385.22 109.145 1385.69 106.713 1386.2 104.28C1386.48 102.923 1386.86 101.707 1388.54 101.566C1388.92 101.566 1389.34 101.566 1389.71 101.566C1392.89 101.613 1396.12 101.707 1399.31 101.707C1430.15 101.707 1460.99 101.753 1491.88 101.753C1493.89 101.753 1495.95 101.566 1497.96 101.473C1498.24 101.707 1498.52 101.894 1498.8 102.128C1496.51 111.438 1494.31 120.701 1491.97 129.965C1487.67 147.041 1483.27 164.071 1478.87 181.1C1478.4 182.878 1477.79 184.609 1477.23 186.481C1478.87 187.229 1479.76 186.013 1480.64 185.217C1489.16 177.919 1497.63 170.574 1506.1 163.275C1521.08 150.363 1536.1 137.403 1551.08 124.491C1558.71 117.941 1566.34 111.438 1573.82 104.701C1576.16 102.596 1578.5 101.707 1581.64 101.707C1611.08 101.753 1640.47 101.707 1669.91 101.707C1678.19 101.707 1686.52 101.707 1694.8 101.707C1695.18 102.128 1695.51 102.549 1695.88 103.017V103.11Z" fill="#019FE4"/>
<path d="M1112.98 365.246C1109.28 366.275 1015.4 366.93 1001.83 366.088C1000.75 366.041 999.63 365.62 999.208 365.527C996.494 350.743 993.92 336.473 991.253 321.876C989.381 321.876 987.93 321.876 986.526 321.876C953.999 321.876 921.473 321.923 888.994 321.83C885.53 321.83 883.471 322.765 881.739 325.947C874.86 338.485 867.606 350.789 860.679 363.234C859.509 365.293 858.339 366.182 855.952 366.182C832.458 366.135 809.012 366.182 785.518 366.182C784.535 366.182 783.552 365.994 781.961 365.854C832.225 277.524 882.254 189.662 932.331 101.707H1064.59C1067.02 114.62 1069.46 127.392 1071.84 140.117C1073.01 146.48 1074.14 152.843 1075.31 159.159C1077.6 171.697 1079.94 184.189 1082.28 196.727C1084.57 209.265 1086.96 221.85 1089.16 234.389C1090 239.208 1090.52 244.12 1091.27 248.939C1091.78 252.073 1092.44 255.161 1093.09 258.249C1094.73 266.296 1096.46 274.296 1098 282.343C1099.78 291.607 1101.47 300.87 1103.11 310.133C1104.51 318.227 1105.68 326.368 1107.04 334.461C1107.65 337.97 1108.63 341.432 1109.28 344.988C1109.8 347.561 1109.99 350.134 1110.5 352.708C1111.16 355.936 1111.95 359.164 1112.65 362.392C1112.84 363.375 1112.93 364.357 1113.07 365.293L1112.98 365.246ZM978.289 251.699C977.353 246.038 976.464 240.33 975.434 234.669C972.626 219.137 969.771 203.558 966.823 188.025C966.355 185.405 965.513 182.879 964.623 179.651C950.256 204.961 936.262 229.617 921.801 255.068C924.047 255.068 925.592 255.068 927.136 255.068C933.829 255.068 940.521 254.974 947.26 254.974C956.714 254.974 966.214 255.021 975.668 255.068C976.838 255.068 978.429 255.816 978.757 253.711C978.616 253.056 978.476 252.401 978.289 251.793V251.699Z" fill="#019FE4"/>
<path d="M1332.05 102.128C1330.74 107.93 1329.53 113.778 1328.08 119.532C1308.61 197.382 1289.09 275.232 1269.57 353.082C1268.55 357.246 1267.33 361.363 1266.21 365.527C1265.83 365.714 1265.5 365.901 1265.13 366.041C1226.94 365.995 1188.8 365.901 1150.61 365.807C1150.37 365.807 1150.14 365.48 1149.67 365.106C1171.53 277.524 1193.43 189.756 1215.43 101.754H1331.82V102.035L1332.05 102.081V102.128Z" fill="#019FE4"/>
<path d="M1865.95 102.128C1864.08 110.035 1862.3 117.988 1860.34 125.895C1844.05 191.206 1827.72 256.518 1811.39 321.783C1807.88 335.725 1804.37 349.713 1800.86 363.655C1800.67 364.31 1800.34 364.965 1800.06 365.62C1799.68 365.761 1799.31 365.901 1798.94 366.041H1683.76C1683.76 364.591 1683.53 363.421 1683.76 362.392C1687.41 348.169 1691.29 334.04 1694.85 319.771C1704.35 281.922 1713.71 244.073 1723.12 206.224C1731.5 172.633 1739.87 139.041 1748.25 105.45C1748.53 104.327 1748.91 103.251 1749.28 101.847C1751.34 101.847 1753.35 101.847 1755.36 101.847C1791.07 101.847 1826.78 101.847 1862.49 101.847C1863.52 101.847 1864.5 101.754 1865.53 101.707V102.035L1865.86 102.128H1865.95Z" fill="#019FE4"/>
<path d="M253.723 0.651711C252.88 1.63419 252.131 2.71025 251.195 3.55237C225.361 27.3191 199.434 50.9922 173.647 74.7589C119.452 124.678 65.2571 174.644 11.0621 224.564C8.1605 227.231 5.30521 229.851 2.40359 232.517C1.93558 232.517 1.51476 232.47 1.04676 232.424C0.999959 230.693 0.859375 228.915 0.859375 227.184C0.859375 153.123 0.859375 79.1098 0.859375 5.04949C0.859375 3.87987 0.953113 2.71025 0.999914 1.54062C1.28072 1.21313 1.51435 0.838856 1.79516 0.511362C3.10557 0.417793 4.41635 0.324219 5.67996 0.324219C86.3172 0.324219 167.001 0.324219 247.638 0.324219C249.697 0.324219 251.71 0.511364 253.769 0.604934L253.723 0.651711Z" fill="#221E1F"/>
<path d="M1695.88 103.111C1695.51 102.69 1695.18 102.269 1694.8 101.801C1695.37 101.801 1695.93 101.801 1696.49 101.848C1696.3 102.269 1696.07 102.69 1695.88 103.111Z" fill="#87D3EF"/>
<path d="M1648.42 366.041C1648.8 365.526 1649.12 365.059 1649.5 364.544C1649.64 364.965 1649.78 365.433 1649.92 365.854C1649.41 365.901 1648.94 365.994 1648.42 366.041Z" fill="#6CC0EA"/>
<path d="M1.04682 232.424C1.51482 232.424 1.93564 232.471 2.40364 232.517C1.93564 232.845 1.46793 233.126 0.953125 233.453C0.953125 233.126 1.00002 232.798 1.04682 232.471V232.424Z" fill="#40474A"/>
<path d="M1331.82 101.801C1331.82 101.801 1332.15 101.707 1332.29 101.66C1332.19 101.801 1332.15 101.988 1332.05 102.128L1331.77 102.081V101.801H1331.82Z" fill="#85D2EE"/>
<path d="M1865.62 101.707C1865.62 101.707 1865.95 101.66 1866.14 101.613C1866.09 101.8 1866.05 101.941 1865.95 102.128L1865.62 102.034V101.707Z" fill="#85D2EE"/>
<path d="M1265.17 366.088C1265.55 365.901 1265.87 365.714 1266.25 365.573C1265.87 365.76 1265.55 365.948 1265.17 366.088Z" fill="#6BC0EA"/>
<path d="M1431.41 366.041C1431.78 365.901 1432.15 365.714 1432.48 365.573C1432.11 365.714 1431.73 365.901 1431.41 366.041Z" fill="#6BC0EA"/>
<path d="M978.757 253.617C978.617 252.962 978.476 252.307 978.289 251.699C978.429 252.354 978.57 253.009 978.757 253.617Z" fill="#89CFED"/>
</svg>
