<svg width="2035" height="275" viewBox="0 0 2035 275" fill="none" xmlns="http://www.w3.org/2000/svg">
<path d="M1400.39 274.736C1399.18 270.76 1399.46 266.689 1399.46 262.572C1399.46 178.313 1399.46 94.0065 1399.46 9.74707C1399.46 4.46039 1399.69 4.17969 1404.84 4.17969C1445.51 4.17969 1486.18 4.22647 1526.85 4.17969C1539.86 4.17969 1552.87 4.22647 1565.69 6.00429C1582.12 8.24996 1598.08 12.7413 1612.17 21.9111C1647.64 44.9761 1656.53 86.2403 1640.53 122.592C1634.3 136.721 1623.35 146.499 1610.29 154.219C1604.82 157.447 1599.3 160.675 1592.98 161.891C1589.23 162.593 1589.61 164.231 1591.43 166.757C1603.04 183.272 1614.51 199.881 1626.11 216.396C1638.28 233.706 1650.54 250.97 1662.76 268.233C1663.79 269.73 1664.96 270.9 1662.24 272.023C1661.12 272.491 1661.87 273.754 1662.15 274.689H1583.34C1583.48 273.707 1583.95 272.584 1582.96 271.929C1578 268.607 1576.08 263.087 1573.13 258.362C1556.24 231.507 1538.6 205.12 1522.31 177.892C1520.86 175.506 1518.99 174.804 1516.37 174.804C1504.52 174.897 1492.64 174.897 1480.8 174.944C1476.99 174.944 1475.09 176.925 1475.09 180.886C1475.09 206.43 1475.09 231.975 1475.04 257.519C1475.04 263.368 1476.4 269.496 1472.37 274.736H1400.35H1400.39ZM1475.18 90.5445C1475.18 100.556 1475.23 110.568 1475.18 120.58C1475.18 123.387 1475.98 124.697 1479.02 124.651C1500.59 124.23 1522.17 125.586 1543.74 123.808C1557.32 122.686 1568.17 113.282 1571.4 99.6207C1575.05 84.4624 1569.72 70.0527 1557.97 62.9414C1549.87 58.029 1540.75 57.608 1531.81 57.4208C1514.45 56.9997 1497.13 57.374 1479.77 57.2337C1476.26 57.2337 1475.09 58.3097 1475.18 61.8186C1475.37 71.4095 1475.23 81.0004 1475.23 90.5912L1475.18 90.5445Z" fill="black"/>
<path d="M1139.44 274.736C1137.1 269.964 1137.61 264.865 1137.61 259.812C1137.61 177.096 1137.61 94.3807 1137.61 11.6652C1137.61 10.6827 1137.66 9.70022 1137.61 8.71774C1137.52 5.34923 1138.92 4.13281 1142.48 4.13281C1167.61 4.27317 1192.74 4.22638 1217.87 4.22638C1264.49 4.22638 1311.05 4.22638 1357.67 4.22638C1364.97 4.22638 1365.06 4.31997 1365.06 11.478C1365.06 25.3264 1364.92 39.1279 1365.11 52.9762C1365.15 57.14 1363.66 58.2161 1359.73 58.2161C1313.11 58.1225 1266.55 58.1693 1219.93 58.1693C1216.19 58.1693 1214.32 60.0095 1214.32 63.6899C1214.32 78.0996 1214.46 92.5093 1214.22 106.872C1214.18 110.849 1215.49 111.831 1219.33 111.831C1262.8 111.738 1306.28 111.831 1349.8 111.691C1353.74 111.691 1355.19 112.533 1355.09 116.791C1354.81 130.779 1355 144.721 1355 158.71C1355 163.669 1354.81 163.903 1349.2 163.903C1306.28 163.903 1263.36 163.903 1220.45 163.856C1214.36 163.856 1214.36 163.856 1214.36 169.798C1214.36 184.208 1214.5 198.617 1214.18 212.98C1214.08 217.284 1215.86 217.846 1219.42 217.799C1250.77 217.706 1282.13 217.706 1313.44 217.706C1329.12 217.706 1344.8 217.752 1360.47 217.659C1363.56 217.659 1364.59 218.361 1364.55 221.682C1364.31 236.232 1364.22 250.736 1364.41 265.286C1364.45 268.935 1363.38 271.836 1361.5 274.689H1139.48L1139.44 274.736Z" fill="black"/>
<path d="M163.272 0.296322C158.265 2.26128 152.882 0.296326 147.781 2.40164C150.308 2.72914 152.789 3.05664 155.316 3.29057C177.266 5.44267 197.437 12.1797 215.081 25.7473C232.444 39.0809 241.757 57.0463 245.407 78.3334C245.969 81.7019 244.658 82.4972 241.523 82.3569C221.773 81.468 202.023 81.6551 182.274 82.2633C179.091 82.3569 176.845 81.7019 175.722 78.3802C169.17 59.292 153.492 54.286 135.707 52.9292C128.266 52.3678 120.731 52.7421 113.29 52.8357C105.193 52.9292 97.705 55.4556 90.919 59.6663C78.704 67.2454 79.0322 83.2926 91.4811 90.3571C96.5356 93.2578 101.964 95.2695 107.627 96.5795C125.084 100.509 142.681 103.831 160.184 107.667C184.052 112.907 207.452 119.832 227.951 134.148C245.314 146.312 253.692 163.014 255.236 183.786C256.125 195.389 254.534 206.43 250.415 217.331C244.519 233.004 233.661 244.279 219.995 253.168C205.066 262.853 188.405 267.905 170.948 270.666C165.285 271.555 159.575 272.303 153.819 273.192C154.755 273.66 155.691 274.128 156.627 274.596H93.9137C94.0541 271.601 92.1825 270.993 89.6553 270.479C77.0659 268.046 64.804 264.724 53.1975 258.782C26.6616 245.308 9.39234 224.817 2.98068 195.529C2.60627 193.752 2.41912 191.88 0.6875 190.711V185.611C22.1221 185.564 43.6035 185.564 65.0382 185.377C68.7354 185.377 70.7943 186.687 71.7303 190.336C72.8067 194.453 74.6796 198.243 77.3473 201.611C84.4142 210.641 93.7736 216.208 104.725 219.015C120.029 222.945 135.707 222.992 151.385 222.29C160.371 221.869 168.889 219.53 176.517 214.43C180.589 211.67 183.115 208.021 184.098 203.202C186.392 191.599 182.274 182.57 171.884 176.909C163.881 172.558 155.27 169.845 146.378 168.067C130.653 164.839 114.834 161.985 99.109 158.71C80.9505 154.92 63.588 148.838 47.0207 140.277C4.01102 118.101 4.19754 67.0583 25.2578 39.7359C37.5195 23.8291 54.0397 14.2382 72.9003 8.34332C84.8344 4.60053 97.0964 2.12094 110.575 1.84023C106.831 0.389901 103.509 1.60631 100.701 0.015625H163.413L163.272 0.296322Z" fill="black"/>
<path d="M1780.05 274.736C1779.62 272.303 1778.08 271.555 1775.79 271.602C1772.98 271.695 1770.12 271.461 1767.32 271.602C1764.09 271.789 1762.73 270.572 1762.82 267.204C1763.01 261.543 1762.82 255.929 1762.82 250.268C1762.82 214.431 1762.82 178.547 1762.82 142.71C1762.82 137.329 1762.64 131.996 1762.31 126.662C1761.89 119.738 1764.13 114.218 1769.47 109.492C1793.71 87.8777 1816.22 64.4853 1838.83 41.1865C1849.82 29.8645 1861.38 19.0105 1872.62 7.92246C1875.05 5.53643 1877.72 4.27325 1881.28 4.27325C1929.57 4.36682 1977.87 4.36682 2026.17 4.27325C2028.84 4.27325 2031.79 5.86393 2034.31 3.66504V159.552C2031.32 160.207 2030.48 163.108 2028.7 165.026C2015.78 178.827 2001.79 191.506 1988.21 204.653C1969.07 223.179 1950.31 242.08 1931.26 260.654C1926.58 265.192 1922.79 270.806 1916.05 273.333C1917.17 273.894 1918.11 274.315 1919.09 274.783H1780.14L1780.05 274.736ZM1920.68 255.18C1921.29 254.712 1921.76 254.432 1922.13 254.057C1937.72 238.525 1953.25 222.945 1968.93 207.413C1971.97 204.372 1972.96 200.723 1973 196.652C1973 154.593 1973 112.533 1973.1 70.4737C1973.1 66.7777 1971.83 65.5614 1968.18 65.6081C1925.13 65.6549 1882.07 65.6081 1839.01 65.6081C1835.41 65.6081 1832.42 66.5438 1829.84 69.117C1822.35 76.6026 1814.77 83.9946 1807.28 91.4333C1800.17 98.4979 1793.06 105.516 1785.94 112.58C1785.19 113.329 1783.93 114.03 1784.35 115.294C1784.73 116.463 1785.99 116.183 1786.97 116.183C1790.9 116.229 1794.88 116.183 1798.81 116.183C1837.66 116.183 1876.45 116.183 1915.3 116.183C1917.83 116.183 1920.31 115.668 1920.31 119.832C1920.07 163.716 1920.03 207.6 1919.93 251.484C1919.93 252.56 1919.65 253.73 1920.77 255.133L1920.68 255.18ZM1841.35 163.014C1832.88 163.014 1824.41 163.342 1815.94 162.921C1811.5 162.687 1810.04 164.652 1810 168.441C1809.95 185.518 1809.95 202.594 1810 219.671C1810 223.039 1811.5 224.677 1815.19 224.677C1832.56 224.536 1849.92 224.677 1867.28 224.63C1872.29 224.63 1872.94 223.975 1872.94 219.016C1872.94 202.36 1872.94 185.705 1872.94 169.049C1872.94 163.716 1872.2 163.061 1866.72 163.061C1858.25 163.061 1849.78 163.061 1841.31 163.061L1841.35 163.014Z" fill="#0245B9"/>
<path d="M553.023 274.736C560.558 245.168 573.849 217.659 584.192 189.073C593.365 163.622 603.241 138.405 612.881 113.095C625.798 79.0823 638.809 45.1165 651.773 11.1039C654.394 4.22657 654.346 4.22656 661.788 4.22656C686.92 4.22656 712.052 4.22656 737.184 4.22656C745.327 4.22656 745.186 4.32013 747.947 11.6653C755.809 32.3442 763.859 52.9764 771.675 73.702C783.796 105.75 795.777 137.844 807.945 169.892C820.207 202.173 832.516 234.455 845.152 266.596C846.462 269.871 845.527 272.07 844.544 274.736H773.36C773.22 273.426 772.938 272.116 771.394 271.836C769.382 271.461 768.68 270.058 768.071 268.42C761.66 251.531 756.231 234.314 750.896 217.097C749.586 212.84 747.76 211.437 743.595 211.437C713.549 211.437 683.456 211.437 653.41 211.296C650.275 211.296 648.309 212.325 647.42 215.413C642.74 232.256 635.626 248.35 631.133 265.286C630.384 268.046 629.401 270.713 626.313 271.789C624.815 272.304 624.395 273.333 625.003 274.783H552.977L553.023 274.736ZM698.9 56.2981C696.841 59.1519 696.701 61.6315 695.999 63.8772C685.563 95.6441 675.501 127.505 664.456 159.038C662.864 163.576 663.286 164.324 668.106 164.277C673.301 164.231 678.542 163.81 683.737 163.763C698.853 163.763 713.924 163.482 729.041 164.231C733.814 164.465 734.469 163.529 733.205 159.646C724.313 132.277 715.374 104.954 706.389 77.632C704.095 70.7078 701.568 63.8772 698.9 56.2981Z" fill="black"/>
<path d="M393.717 274.736C393.67 271.929 392.126 271.04 389.411 270.666C363.765 266.876 340.411 257.566 320.334 240.864C299.32 223.366 286.356 200.863 279.991 174.382C277.324 163.388 275.031 152.253 275.031 140.978C275.031 116.79 279.851 93.6319 291.645 72.2512C311.114 36.9287 341.488 16.4369 380.473 8.62388C415.152 1.65294 449.363 3.00969 481.889 18.5423C507.489 30.7531 525.32 50.4495 535.616 76.8829C536.505 79.1754 536.88 80.9532 533.557 81.9825C519.33 86.4738 505.149 91.2926 490.968 96.0179C487.365 97.2343 483.761 98.4975 480.204 99.8075C477.489 100.837 475.571 100.229 474.401 97.4682C462.607 69.7248 430.315 60.3679 406.119 63.83C388.756 66.3096 373.686 73.2805 361.798 86.3802C351.128 98.2168 345.372 112.299 344.015 128.066C343.126 138.592 343.406 149.072 345.606 159.598C352.345 191.693 381.642 216.536 419.41 214.477C444.308 213.12 460.408 199.085 472.482 178.921C474.588 175.412 476.367 171.669 477.35 167.692C478.145 164.511 479.97 163.528 483.153 163.575C502.201 163.669 521.295 163.622 540.343 163.622C542.262 163.622 544.04 163.388 543.431 166.476C540.81 179.95 537.301 193.096 531.778 205.728C523.026 225.705 509.455 241.425 491.296 253.402C475.103 264.069 456.991 268.981 438.13 271.601C436.024 271.882 434.434 272.163 435.276 274.829H393.763L393.717 274.736Z" fill="black"/>
<path d="M881.798 274.736C880.628 270.619 880.816 266.362 880.816 262.151C880.816 178.032 880.816 93.9129 880.816 9.79379C880.816 4.55389 881.003 4.27318 886.291 4.27318C908.615 4.27318 930.892 4.27317 953.216 4.13281C957.1 4.13281 956.773 6.23815 956.773 8.71774C956.773 32.7184 956.773 56.719 956.773 80.7196C956.773 124.463 956.773 168.207 956.773 211.998C956.773 217.893 956.773 217.846 962.623 217.846C1006.66 217.846 1050.75 217.799 1094.79 217.846C1103.59 217.846 1103.49 217.939 1102.98 226.501C1102.18 240.022 1101.95 253.589 1103.16 267.063C1103.49 270.385 1100.64 271.976 1100.5 274.783H881.892L881.798 274.736Z" fill="black"/>
</svg>
