<svg width="1834" height="636" viewBox="0 0 1834 636" fill="none" xmlns="http://www.w3.org/2000/svg">
<path d="M881.468 244.013V281.02H842.155V385.35H797.508V281.02H758.289V244.013H881.468Z" fill="#004767"/>
<path d="M961.123 312.927C959.719 312.365 958.315 311.944 956.817 311.664C954.851 311.383 952.886 311.243 950.873 311.289C942.683 310.588 934.587 313.441 928.69 319.149C923.495 325.933 920.968 334.448 921.623 343.009V385.35H881.094V279.195H919.938V296.178H920.359C922.559 290.002 926.771 284.762 932.34 281.3C937.956 278.025 944.368 276.388 950.873 276.528C954.337 276.435 957.8 276.903 961.123 277.979V312.927Z" fill="#004767"/>
<path d="M1006.33 337.863C1005.96 342.589 1007.13 347.361 1009.7 351.337C1012.18 354.332 1015.93 355.922 1019.81 355.642C1023.79 355.922 1027.63 354.332 1030.25 351.337C1032.87 347.361 1034.13 342.589 1033.71 337.863V279.148H1074.24V385.303H1035.12V371.829H1034.74C1031.23 377.022 1026.41 381.186 1020.8 383.993C1014.57 386.847 1007.79 388.204 1000.95 388.017C994.728 388.11 988.55 386.566 983.028 383.619C977.692 380.718 973.34 376.414 970.345 371.127C967.209 365.466 965.618 359.104 965.759 352.601V279.148H1006.29V337.863H1006.33Z" fill="#004767"/>
<path d="M1198.59 341.372H1123.15C1123.01 346.986 1125.02 352.46 1128.76 356.671C1132.55 360.367 1137.7 362.285 1142.99 362.004C1146.59 362.098 1150.15 361.443 1153.52 360.179C1156.23 359.15 1158.39 357.092 1159.51 354.425H1196.34C1193.39 364.811 1186.56 373.7 1177.2 379.174C1166.16 385.396 1153.57 388.437 1140.88 387.97C1130.82 388.157 1120.81 385.958 1111.77 381.513C1103.35 377.349 1096.33 370.753 1091.7 362.565C1086.64 353.396 1084.11 343.009 1084.44 332.53C1084.35 322.705 1086.78 313.02 1091.51 304.412C1096.19 295.944 1103.07 288.879 1111.45 284.014C1120.48 278.867 1130.73 276.247 1141.12 276.481C1157.08 275.265 1172.8 281.113 1184.17 292.388C1193.77 303.055 1198.59 319.196 1198.59 340.857V341.278V341.372ZM1157.97 311.196C1156.56 308.576 1154.41 306.377 1151.84 304.88C1149.03 303.242 1145.8 302.447 1142.52 302.541C1137.7 302.307 1132.97 303.897 1129.32 307.032C1125.72 310.541 1123.52 315.266 1123.1 320.319H1159.88C1160.07 317.184 1159.42 314.003 1157.97 311.243" fill="#004767"/>
<path d="M1312.27 250.142C1319.8 254.071 1326.12 260.013 1330.47 267.312C1334.97 274.938 1337.26 283.639 1337.17 292.482C1337.45 302.166 1335.11 311.71 1330.38 320.178C1325.84 327.804 1319.01 333.793 1310.82 337.348C1301.04 341.466 1290.46 343.477 1279.84 343.197H1256.11V385.303H1211.46V244.013H1286.58C1295.51 243.919 1304.31 246.025 1312.22 250.142M1290.41 307.547C1293.55 304.272 1295.19 299.874 1294.91 295.382C1295.19 291.219 1293.69 287.102 1290.83 284.014C1286.67 280.926 1281.47 279.476 1276.33 280.037H1256.06V311.944H1273.66C1279.6 312.599 1285.59 311.055 1290.41 307.547Z" fill="#004767"/>
<path d="M1444.95 361.255C1440.55 369.583 1433.76 376.414 1425.53 380.905C1406.38 390.309 1383.97 390.309 1364.87 380.905C1356.59 376.414 1349.76 369.583 1345.31 361.255C1340.68 352.226 1338.34 342.214 1338.57 332.062C1338.38 321.956 1340.68 311.944 1345.31 302.961C1349.76 294.634 1356.54 287.85 1364.87 283.405C1374.23 278.587 1384.72 276.201 1395.25 276.434C1405.78 276.107 1416.21 278.54 1425.53 283.499C1433.81 287.99 1440.55 294.821 1444.95 303.102C1449.58 312.038 1451.87 322.003 1451.69 332.062C1451.92 342.214 1449.58 352.226 1444.95 361.255ZM1407.18 352.179C1410.27 345.957 1411.67 339.033 1411.16 332.108C1411.67 325.231 1410.27 318.307 1407.09 312.178C1402.45 305.581 1393.33 303.944 1386.68 308.576C1385.32 309.511 1384.15 310.681 1383.22 311.991C1379.99 318.167 1378.58 325.091 1379.15 332.015C1378.68 338.892 1380.08 345.816 1383.22 351.945C1385.75 356.109 1390.38 358.589 1395.25 358.401C1400.11 358.682 1404.7 356.249 1407.23 352.086" fill="#004767"/>
<path d="M1494.88 279.148L1509.81 344.788H1510.23L1522.91 279.148H1560.59L1573.88 344.788H1574.67L1588.62 279.148H1630.74L1597.93 385.303H1556.42L1541.91 320.085H1541.54L1526.38 385.303H1485.05L1452.95 279.148H1494.93H1494.88Z" fill="#004767"/>
<path d="M1744.99 341.372H1669.5C1669.36 346.986 1671.37 352.46 1675.11 356.671C1678.9 360.367 1684.05 362.285 1689.34 362.004C1692.94 362.098 1696.5 361.443 1699.87 360.179C1702.59 359.15 1704.74 357.092 1705.86 354.425H1742.69C1739.75 364.811 1732.87 373.7 1723.55 379.174C1712.51 385.396 1699.92 388.437 1687.24 387.97C1677.13 388.157 1667.11 385.958 1658.03 381.513C1649.61 377.303 1642.63 370.706 1637.95 362.565C1632.9 353.396 1630.37 343.009 1630.7 332.53C1630.61 322.705 1633.04 313.02 1637.77 304.412C1642.45 295.944 1649.33 288.926 1657.7 284.061C1666.74 278.914 1677.03 276.294 1687.47 276.481C1703.47 275.265 1719.2 281.066 1730.53 292.388C1740.12 303.055 1744.94 319.196 1744.94 340.857V341.278L1744.99 341.372ZM1704.36 311.196C1702.96 308.576 1700.81 306.377 1698.23 304.88C1695.43 303.242 1692.2 302.447 1688.92 302.541C1684.1 302.307 1679.37 303.897 1675.72 307.032C1672.12 310.541 1669.92 315.266 1669.5 320.319H1706.28C1706.47 317.184 1705.81 314.003 1704.36 311.243" fill="#004767"/>
<path d="M1833.62 312.927C1832.22 312.365 1830.81 311.991 1829.32 311.664C1827.35 311.383 1825.39 311.243 1823.37 311.289C1815.18 310.541 1807.09 313.441 1801.19 319.149C1796 325.98 1793.47 334.448 1794.12 343.009V385.35H1753.59V279.195H1792.49V296.178H1792.86C1795.01 290.002 1799.27 284.762 1804.84 281.3C1810.46 278.025 1816.87 276.388 1823.37 276.528C1826.84 276.435 1830.3 276.903 1833.62 277.979V312.927Z" fill="#004767"/>
<path d="M317.807 0.404297C493.262 0.404297 635.488 142.583 635.488 317.98C635.488 493.376 493.262 635.555 317.807 635.555C142.352 635.555 0.125 493.376 0.125 317.98C0.125 142.583 142.352 0.404297 317.807 0.404297Z" fill="#004767"/>
<path d="M343.828 269.932C341.768 263.476 344.951 256.505 351.175 253.791L366.339 246.586C371.112 243.779 377.196 245.37 380.004 250.142L380.379 250.891L392.266 279.149L354.779 295.477L343.828 269.979V269.932Z" fill="white"/>
<path d="M329.132 306.611C320.38 310.166 320.24 315.78 320.427 317.839C322.158 327.523 328.336 335.851 337.135 340.296L333.858 342.728L332.548 343.711L331.893 344.085C329.693 345.629 326.604 345.115 325.013 342.962L324.92 342.822L312.658 321.956H312.751L295.856 292.856C293.47 287.663 295.435 281.534 300.349 278.68L320.708 265.3C324.592 262.165 330.255 262.773 333.391 266.656C333.765 267.124 334.046 267.592 334.326 268.06L347.899 298.33L328.991 306.564L329.132 306.611Z" fill="white"/>
<path d="M315.937 354.144L300.305 366.917C297.263 369.864 292.443 369.817 289.495 366.776L289.354 366.636L257.67 325.372C254.534 320.225 255.892 313.582 260.759 310.073L275.875 297.488C279.807 293.464 286.312 293.371 290.337 297.348C290.711 297.722 291.086 298.143 291.413 298.564L318.604 343.477C320.43 347.22 319.306 351.711 315.937 354.191" fill="white"/>
<path d="M230.99 344.18L245.03 332.53C247.838 329.723 252.378 329.723 255.186 332.53L255.373 332.717L284.062 370.707C286.215 374.169 285.419 378.66 282.19 381.186L273.625 388.812C270.864 391.666 266.371 391.9 263.329 389.374L229.399 355.174C226.825 351.852 227.34 347.08 230.616 344.413L230.99 344.133" fill="white"/>
<path d="M469.864 311.991C472.297 352.787 458.538 392.928 431.628 423.713C428.913 426.801 424.14 427.128 421.051 424.415L420.63 424.04C417.775 421.14 417.681 416.508 420.349 413.467C471.314 355.126 465.277 266.516 406.917 215.614C382.253 194.093 350.803 181.835 318.043 181.04C275.501 181.134 235.393 200.783 209.326 234.375C168.188 287.569 170.2 362.331 214.193 413.233C216.907 416.321 216.767 420.953 213.865 423.853C210.963 426.801 206.19 426.801 203.288 423.9L202.961 423.526C153.586 366.542 151.761 282.516 198.608 223.427C202.212 218.889 206.096 214.491 210.215 210.374C240.448 179.87 282.241 163.683 325.157 165.882C403.594 170.654 465.933 233.626 469.864 312.084" fill="white"/>
<path d="M205.862 471.949H205.815C127.05 414.965 107.16 291.5 163.882 212.901C263.473 61.1314 506.228 136.408 504.168 320.179C504.168 378.8 477.258 434.193 431.206 470.498C430.832 470.826 430.411 471.153 429.989 471.434C429.568 471.715 429.147 472.042 428.773 472.37L428.211 472.744C426.292 473.961 423.906 474.241 421.753 473.539C420.396 473.072 419.225 472.229 418.336 471.153C417.728 470.405 417.26 469.563 416.979 468.627C416.651 467.645 416.558 466.615 416.605 465.539C416.745 463.715 417.541 462.03 418.804 460.767L418.945 460.627C418.945 460.627 419.366 460.253 419.6 460.065C420.676 459.27 421.706 458.475 422.829 457.726C548.582 359.899 482.359 146.28 317.575 146.093C151.574 146.28 85.4444 362.94 215.129 459.831L215.316 459.972H215.409L218.358 462.171C219.575 463.294 220.557 464.697 221.166 466.241C221.821 468.112 221.587 470.218 220.511 471.902C218.966 475.037 215.362 476.534 212.086 475.411C211.338 475.224 210.589 474.99 209.84 474.616" fill="white"/>
<path d="M434.857 346.566L408.461 290.283C405.747 285.09 399.335 283.079 394.141 285.792L393.953 285.886L330.866 313.302C328.199 314.612 326.795 317.559 327.497 320.46C331.241 335.899 348.978 342.215 365.639 335.992L374.765 332.577L381.785 354.659C341.35 356.344 307.372 385.678 299.837 425.445L297.497 438.778H292.911L281.258 504.277H353.33L358.853 442.474L431.815 361.396C435.653 357.513 436.823 351.712 434.81 346.659" fill="white"/>
<path d="M247.419 442.1L233.145 504.277H272.364L284.064 438.778H286.264C286.264 437.141 285.421 390.029 314.11 368.04L313.127 366.823L290.944 384.087L271.381 398.45C268.48 400.555 264.408 400.228 261.927 397.608L232.724 367.572L230.805 378.286C228.98 388.157 229.916 398.309 233.566 407.62L247.466 442.1H247.419Z" fill="white"/>
</svg>
