<svg width="1424" height="619" viewBox="0 0 1424 619" fill="none" xmlns="http://www.w3.org/2000/svg">
<path d="M1018.81 615.097C911.173 615.097 803.438 613.086 695.844 615.565C521.465 619.542 347.087 617.577 172.708 618.746C111.025 619.168 69.5608 587.962 37.9237 538.089C-29.2818 432.122 0.201923 283.487 77.0951 191.601C128.154 130.594 194.424 95.2244 267.012 69.3524C384.715 27.3864 506.536 8.76609 631.259 2.73085C742.878 -2.6494 853.421 4.36832 962.654 24.5326C1063.46 43.1529 1161.28 74.0309 1248.7 129.611C1317.03 173.028 1375.53 226.737 1403.42 305.943C1422 358.623 1428.97 412.425 1419.43 468.52C1412.69 508.1 1409.04 547.914 1392.98 585.576C1384.33 605.834 1372.49 615.051 1349.88 614.863C1239.53 614.115 1129.12 614.536 1018.77 614.536V615.144L1018.81 615.097ZM1110.82 516.662C1140.96 474.603 1188.04 468.614 1232.65 457.432C1235.97 456.59 1239.24 455.561 1242.61 455.187C1259.74 453.269 1265.69 443.584 1263.72 427.022C1262.69 418.227 1262.65 409.338 1259.28 400.963C1250.99 380.378 1227.78 370.974 1202.09 378.179C1178.92 384.682 1191.79 400.823 1193.38 413.314C1196.47 437.502 1179.11 456.497 1154.91 453.924C1140.4 452.38 1128.51 446.017 1123.27 431.654C1116.91 414.297 1119.95 397.875 1132.07 383.887C1160.85 350.576 1199.6 345.71 1240.23 347.348C1305.47 349.968 1334.16 379.816 1335.23 444.613C1335.84 480.685 1332.89 516.849 1337.39 552.78C1338.42 560.874 1336.22 573.459 1348.06 574.207C1359.71 574.956 1359.43 562.698 1361.53 554.511C1375.76 499.632 1368.79 445.128 1358.91 390.577C1351.47 349.453 1335.14 312.774 1308.79 280.258C1247.39 204.42 1167.17 158.244 1074.46 132.325C863.297 73.2824 649.792 69.9606 435.025 108.465C343.624 124.839 257.558 155.998 179.869 207.929C175.236 211.017 166.812 213.356 169.901 220.982C172.194 226.737 179.635 224.397 184.783 224.444C233.175 224.538 281.567 224.444 329.911 224.351C351.206 224.304 372.126 227.298 392.484 233.006C450.985 249.38 478.176 318.482 445.182 367.138C429.644 390.062 407.928 404.612 380.362 409.946C376.525 410.694 371.33 410.18 369.926 414.858C368.148 420.753 373.435 423.139 377.367 425.525C404.698 442.181 417.943 468.801 428.146 497.433C433.387 512.171 437.833 527.235 442.887 542.019C444.338 546.277 445.04 552.359 451.405 551.797C456.179 551.376 457.256 546.511 457.864 542.534C463.387 505.668 489.923 488.451 521.232 477.363C544.913 468.988 569.67 463.561 593.913 456.871C601.12 454.859 608.609 453.596 612.165 445.549C625.644 414.999 601.542 377.103 568.875 377.664C545.662 378.085 537.987 387.817 543.416 410.227C547.3 426.274 544.304 440.496 530.638 450.321C516.27 460.614 500.78 459.07 486.552 449.666C472.325 440.309 468.816 426.087 472.092 410.086C475.134 395.396 484.118 384.448 495.538 375.185C534.055 344.026 603.039 338.318 648.67 362.6C653.35 365.079 658.263 371.769 663.037 368.728C687.467 353.289 715.22 362.927 740.82 357.126C759.072 353.009 769.976 359.138 770.959 379.161C771.193 384.401 771.099 390.951 777.698 392.635C783.267 394.086 785.608 388.285 789.118 385.384C791.739 383.185 794.219 380.846 796.606 378.46C830.442 344.962 904.013 338.739 928.676 390.671C934.152 402.226 941.219 398.53 947.303 390.811C956.757 378.834 968.551 369.617 981.702 362.319C1035.01 332.657 1091.87 360.026 1102.54 419.911C1106.75 443.631 1105.11 467.444 1106.1 491.211C1106.43 498.977 1103.71 507.445 1110.78 516.522L1110.82 516.662ZM184.455 422.437H183.66C183.66 378.881 184.081 335.371 183.426 291.814C183.238 278.059 184.596 262.574 165.408 257.474C136.251 249.755 125.768 252.188 111.634 270.855C67.876 328.727 56.7374 394.507 68.2503 464.076C74.3344 500.849 85.0985 537.154 110.371 566.769C121.977 580.336 151.133 586.792 170.696 579.588C189.182 572.757 184.035 556.242 184.222 542.815C184.784 502.673 184.408 462.532 184.408 422.391L184.455 422.437ZM871.393 509.972C870.035 483.117 873.452 457.807 866.9 433.011C859.74 405.969 832.128 392.214 809.944 406.063C792.628 416.87 779.664 432.356 779.149 453.924C778.354 487.234 778.822 520.592 779.149 553.903C779.29 565.926 783.923 575.283 797.635 576.547C808.54 577.529 815.372 582.301 816.215 594.091C816.589 599.237 819.539 603.261 825.389 603.027C831.285 602.793 833.531 598.302 833.952 593.296C834.982 581.225 842.424 577.061 853.235 576.827C867.602 576.5 871.58 567.798 871.393 555.166C871.159 539.493 871.346 523.867 871.346 509.972H871.393ZM1035.05 504.779C1033.74 478.252 1036.79 452.988 1029.72 428.192C1024.43 409.665 1012.64 401.337 993.917 401.197C966.492 401.057 946.181 420.285 943.56 454.953C941.079 488.123 942.717 521.621 943.232 554.979C943.419 567.003 948.567 576.172 962.747 576.266C973.231 576.359 978.472 581.506 980.204 592.173C981.655 600.875 991.764 604.384 994.431 597.132C1000.28 581.085 1011.14 576.593 1025.79 573.272C1033.74 571.447 1034.96 562.184 1035.05 554.417C1035.19 537.388 1035.05 520.358 1035.05 504.826V504.779ZM268.041 481.807C267.76 481.807 267.48 481.807 267.199 481.807C268.416 506.229 270.194 530.651 270.709 555.119C271.084 573.131 279.273 581.132 297.057 580.944C305.622 580.851 318.632 578.044 321.253 586.98C329.911 616.173 352.704 603.261 370.113 605.46C379.567 606.629 383.077 601.764 376.478 593.342C362.484 575.424 359.536 553.575 354.575 532.475C348.913 508.662 344.841 484.521 336.089 461.503C328.18 440.637 312.736 430.438 291.723 427.443C277.027 425.338 267.76 430.672 267.994 447.14C268.135 458.696 267.994 470.251 267.994 481.854L268.041 481.807ZM267.199 329.289C267.199 329.289 267.152 329.289 267.106 329.289C267.106 345.617 267.012 361.991 267.152 378.319C267.246 385.29 268.369 391.84 275.95 395.255C297.759 405.033 351.487 388.285 362.064 366.249C376.151 337.008 377.087 306.458 359.583 278.2C343.765 252.702 316.199 256.164 291.348 255.837C276.278 255.603 267.34 264.398 267.199 280.258C267.059 296.586 267.199 312.961 267.199 329.289ZM1264.05 507.305C1261.66 499.632 1270.18 485.269 1254.17 481.948C1231.76 477.269 1193.24 500.1 1186.45 522.136C1181.59 537.949 1178.73 555.774 1194.69 566.862C1210.09 577.576 1227.36 574.862 1242.15 563.634C1260.07 550.02 1264.05 530.23 1264.05 507.305ZM613.943 507.726C610.48 502.72 620.402 488.731 604.817 485.503C586.518 481.714 550.575 499.726 541.262 516.381C530.217 536.218 533.868 562.839 548.844 571.915C566.582 582.629 591.667 573.506 604.022 551.985C611.323 539.259 615.16 525.738 613.896 507.726H613.943ZM707.638 504.124C707.638 504.124 707.311 504.124 707.171 504.124C707.171 491.258 707.685 478.345 707.03 465.479C706.094 446.532 704.783 427.631 702.724 408.776C701.881 400.823 696.968 393.945 687.982 395.255C678.013 396.706 681.242 405.174 681.757 411.63C682.693 423.092 684.566 434.508 684.8 445.97C685.408 482.556 683.958 519.188 688.497 555.634C689.34 562.558 686.858 573.318 696.967 573.599C708.153 573.88 707.216 562.652 707.451 554.979C708.012 538.043 707.638 521.107 707.638 504.171V504.124Z" fill="#029C59"/>
</svg>
