<svg width="630" height="573" viewBox="0 0 630 573" fill="none" xmlns="http://www.w3.org/2000/svg">
<path d="M297.639 215.778V446.521C297.639 451.246 297.686 455.972 296.61 460.556C296.422 461.352 296.282 462.147 296.002 462.896C295.44 465.516 294.457 467.855 291.883 469.118C278.778 471.878 265.675 471.644 252.524 469.258C251.213 468.51 249.903 467.715 248.639 466.919C248.311 466.217 248.125 465.469 247.891 464.72C246.814 461.071 246.861 457.281 246.861 453.539C246.861 373.256 246.861 293.02 246.861 212.737C246.861 208.761 246.767 204.737 247.937 200.901C248.125 200.339 248.218 199.825 248.452 199.263C250.043 197.158 252.009 195.52 254.864 195.52C266.424 195.474 278.03 195.474 289.589 195.52C292.397 195.567 294.317 197.298 295.955 199.45C296.236 200.246 296.422 201.088 296.61 201.93C297.733 206.468 297.639 211.147 297.639 215.778Z" fill="#7960BD"/>
<path d="M248.639 466.919C248.171 466.217 247.984 465.468 247.891 464.72C248.125 465.468 248.311 466.217 248.639 466.919Z" fill="#7960BD"/>
<path d="M296.608 460.556C296.514 461.351 296.374 462.146 296 462.895C296.281 462.146 296.421 461.351 296.608 460.556Z" fill="#7960BD"/>
<path d="M296.608 201.93C296.421 201.088 296.234 200.246 295.953 199.45C296.374 200.246 296.514 201.088 296.608 201.93Z" fill="#7960BD"/>
<path d="M383.568 455.41C383.568 459.293 384.176 463.316 381.555 466.732C380.947 467.433 380.339 468.182 379.73 468.884C366.018 472.018 352.352 471.784 338.639 469.071C337.984 468.369 337.329 467.714 336.627 467.012C335.13 462.661 334.615 458.263 334.475 453.819C334.475 456.813 334.475 459.807 334.475 462.802C334.194 461.913 334.006 461.024 333.819 460.182C332.742 455.644 332.789 451.012 332.789 446.38V215.965C332.789 211.24 332.742 206.561 333.819 201.929C334.006 201.134 334.147 200.339 334.428 199.497C335.13 198.701 335.878 197.906 336.58 197.157C344.677 196.081 352.82 194.725 360.917 194.725C367.983 194.725 375.003 195.754 381.977 198.888C384.176 202.818 383.568 207.169 383.568 211.333C383.615 292.692 383.615 374.051 383.568 455.41Z" fill="#7960BD"/>
<path d="M339.568 119.214C345.652 123.659 352.859 125.764 361.658 128.431C354.404 133.904 348.788 138.77 344.435 144.805C342.329 147.706 338.304 151.168 342.844 154.864C347.149 158.326 349.817 154.537 352.344 151.496C365.402 135.916 381.876 129.554 402.281 130.723C424.371 132.033 445.338 148.174 450.205 169.695C453.528 184.385 453.012 198.608 444.916 211.895C442.623 215.684 440.704 220.69 445.244 223.123C449.83 225.603 452.498 220.69 454.651 217.135C457.225 212.971 459.143 208.526 459.986 203.614C460.36 201.415 461.249 198.889 463.683 198.374C466.351 197.813 467.708 200.292 468.738 202.21C471.967 208.292 477.958 211.193 483.012 215.217C485.82 217.462 488.113 215.45 489.798 213.673C491.53 211.848 491.202 209.415 489.283 207.591C487.177 205.579 484.837 203.754 482.778 201.742C470.61 189.906 462.045 175.356 464.198 158.56C469.768 114.629 508.658 94.4181 547.924 113.693C552.276 115.846 556.067 117.296 558.501 112.337C560.888 107.471 556.442 105.553 553.026 103.682C546.38 100.032 539.032 98.0205 530.842 95.5877C538.19 89.3654 544.555 83.9383 549.703 77.2013C551.902 74.3007 552.651 71.1661 549.89 68.4525C546.661 65.2244 543.947 67.5636 541.653 70.09C540.577 71.2596 539.828 72.7568 538.798 74.0199C523.354 93.0146 493.167 99.003 470.656 87.5875C449.034 76.5931 436.493 49.2708 442.109 25.9719C443.513 20.1706 446.18 15.0711 448.801 9.87796C450.298 6.88373 451.375 3.14094 448.052 1.1292C444.168 -1.25683 440.938 1.64383 439.3 4.87198C436.632 10.0183 434.808 15.6325 432.514 20.966C430.783 25.0362 429.192 27.5158 425.635 21.9017C422.359 16.6618 417.725 12.3576 412.296 9.22297C409.067 7.39836 405.089 6.74337 402.655 10.3458C400.409 13.6675 404.013 15.4454 405.885 17.4571C407.898 19.6092 410.003 21.6209 412.109 23.6327C441.967 52.8732 429.472 103.401 389.411 115.097C374.154 119.542 359.318 118.466 345.371 110.091C341.768 107.939 337.603 105.319 334.514 110.699C331.332 116.173 336.854 117.202 339.615 119.261L339.568 119.214ZM433.731 88.9911C436.212 84.3594 433.73 75.9381 440.049 75.5171C443.418 75.3299 447.396 82.0201 450.719 85.9033C459.33 95.962 472.107 98.7691 483.948 104.945C470.657 115.752 460.688 127.401 456.522 143.028C455.118 148.314 452.872 148.782 449.596 144.805C438.972 131.94 425.868 123.191 407.288 119.542C419.176 110.559 427.46 100.781 433.731 88.9911Z" fill="#7960BD"/>
<path d="M297.825 571.764C295.906 572.419 293.799 572.419 292.629 570.501C291.459 568.582 290.665 566.383 289.822 564.325C285.142 553.237 278.824 550.196 267.358 553.05C263.099 554.126 262.116 557.541 260.806 560.722C259.542 563.717 259.027 566.992 257.717 569.939C256.593 572.419 254.066 572.512 251.773 571.857C247.982 570.688 250.369 568.255 251.024 566.383C256.5 550.43 262.069 534.523 267.592 518.569C268.809 515.061 269.932 511.973 274.659 511.926C279.292 511.832 280.696 514.873 281.913 518.335C287.342 533.541 292.818 548.746 298.246 563.997C298.668 565.167 299.136 566.383 299.416 567.179C299.323 569.237 299.884 571.109 297.825 571.764Z" fill="#7960BD"/>
<path d="M454.936 568.956C454.795 569.985 454.514 571.061 453.766 572.044C454.28 571.015 454.655 569.985 454.936 568.956Z" fill="#7960BD"/>
<path d="M450.347 510.335C448.897 511.317 447.913 512.44 447.211 513.61C447.398 512.066 448.101 510.803 450.347 510.335Z" fill="#7960BD"/>
<path d="M157.89 513.142V515.247C157.703 514.452 157.468 513.657 157.281 512.861C157.468 512.955 157.656 513.048 157.89 513.142Z" fill="#7960BD"/>
<path d="M118.811 569.144C118.67 570.126 118.39 571.109 117.734 572.044C118.202 571.062 118.53 570.079 118.811 569.144Z" fill="#7960BD"/>
<path d="M111.795 511.926C111.561 512.721 111.328 513.516 111.141 514.312C111.187 513.61 111.186 512.908 111.233 512.207C111.42 512.066 111.608 512.019 111.795 511.926Z" fill="#7960BD"/>
<path d="M158.083 568.863C157.989 570.033 157.616 571.156 156.586 572.185C157.241 571.109 157.708 569.986 158.083 568.863Z" fill="#7960BD"/>
<path d="M190.139 511.785C189.858 513.657 189.578 515.528 189.297 517.399C189.39 515.575 189.436 513.703 189.577 511.832C189.764 511.785 189.952 511.785 190.139 511.785Z" fill="#7960BD"/>
<path d="M190.514 572.325C189.25 568.676 188.922 564.933 188.922 561.19C189.343 564.886 189.811 568.629 190.514 572.325Z" fill="#7960BD"/>
<path d="M362.362 569.424C362.362 571.998 360.068 572.232 358.149 572.232C350.38 572.325 342.612 572.185 334.89 572.232C330.022 572.278 328.946 569.424 328.993 565.307C329.04 549.822 329.133 534.336 328.899 518.803C328.852 513.142 331.474 511.318 336.622 511.926C340.693 521.002 338.072 530.499 338.54 539.81C339.008 548.558 338.681 557.354 338.728 566.15C345.139 566.29 351.597 566.383 358.056 566.571C360.021 566.664 362.362 566.758 362.362 569.378V569.424Z" fill="#7960BD"/>
<path d="M334.468 462.802C334.047 461.959 333.859 461.071 333.812 460.182C334 461.024 334.188 461.913 334.468 462.802Z" fill="#7960BD"/>
<path d="M336.621 467.013C335.919 465.609 335.218 464.206 334.516 462.802C334.516 459.808 334.516 456.814 334.516 453.819C334.656 458.264 335.171 462.662 336.668 467.013H336.621Z" fill="#7960BD"/>
<path d="M334.422 199.497C334.141 200.339 334 201.135 333.812 201.93C333.906 201.135 334.047 200.292 334.422 199.497Z" fill="#7960BD"/>
<path d="M157.287 512.861C157.007 512.721 156.773 512.627 156.539 512.487V512.019C156.539 511.411 156.633 510.849 156.633 510.241C156.914 511.13 157.053 511.972 157.287 512.861Z" fill="#7960BD"/>
<path d="M190.422 510.008C190.422 510.569 190.422 511.177 190.422 511.739C190.328 511.739 190.234 511.739 190.141 511.739C190.234 511.131 190.328 510.569 190.422 509.961V510.008Z" fill="#7960BD"/>
<path d="M112.358 511.645C112.358 511.645 111.984 511.832 111.797 511.926C111.984 511.364 112.078 510.803 112.265 510.288C112.265 510.709 112.264 511.177 112.358 511.645Z" fill="#7960BD"/>
<path d="M420.447 511.926C421.055 516.183 418.856 517.634 414.971 517.634H413.38C410.104 517.634 406.828 517.727 403.506 517.774C403.412 532.184 403.318 546.594 403.084 561.05C403.084 564.793 404.02 568.816 401.119 572.091C399.293 572.138 397.467 572.185 395.689 572.232C391.337 562.547 394.004 552.301 393.49 542.336C393.068 534.242 393.255 526.055 393.208 517.961C389.371 517.821 385.533 517.587 381.649 517.634C377.764 517.634 375.472 516.277 376.127 511.926C390.916 508.698 405.658 508.745 420.447 511.926Z" fill="#7960BD"/>
<path d="M223.039 569.19C222.617 575.366 213.398 571.623 208.063 572.184C202.259 572.839 196.363 572.325 190.513 572.371C189.811 568.629 189.342 564.886 188.921 561.19C187.236 546.593 187.377 531.996 189.296 517.399C189.576 515.528 189.857 513.656 190.138 511.785C190.231 511.785 190.325 511.785 190.419 511.785V511.972C190.419 511.972 190.652 511.832 190.746 511.738C191.588 511.177 191.542 510.615 190.419 510.054C196.69 510.522 203.008 509.68 209.28 509.68C213.96 509.68 218.593 510.148 223.132 511.972C221.026 521.657 213.164 517.306 207.969 517.399C200.528 517.54 197.72 519.598 197.72 527.411C197.72 535.224 200.34 537.751 207.875 537.47C211.994 537.33 219.529 534.99 219.716 539.903C219.95 545.751 212.368 543.318 208.577 542.99C198.328 542.102 198 547.763 197.766 555.482C197.485 563.81 199.685 567.319 208.624 566.851C213.631 566.57 223.366 564.231 223.039 569.237V569.19Z" fill="#7960BD"/>
<path d="M190.749 511.691C190.749 511.691 190.562 511.879 190.422 511.925V511.738C190.422 511.738 190.655 511.738 190.749 511.691Z" fill="#7960BD"/>
<path d="M156.532 512.02C156.532 512.02 156.204 512.207 156.016 512.253C154.051 511.365 152.835 510.943 151.992 511.037C153.162 510.382 154.66 510.055 156.625 510.242C155.97 510.522 155.642 510.803 155.642 511.084C155.642 511.365 155.923 511.692 156.532 512.02Z" fill="#7960BD"/>
<path d="M113.288 511.271C113.288 511.271 112.96 511.785 112.352 512.113V511.645C112.679 511.504 113.008 511.364 113.288 511.271Z" fill="#7960BD"/>
<path d="M158.784 555.248C158.972 559.739 159.532 564.418 158.082 568.863C157.707 569.985 157.24 571.108 156.585 572.184C150.08 573.026 149.377 569.096 149.19 563.95C148.441 543.271 148.348 543.271 127.054 543.178C124.807 543.178 122.561 543.178 120.315 543.131V543.224C118.489 551.739 121.391 560.675 118.817 569.143C118.536 570.079 118.208 571.061 117.74 572.044C115.962 572.091 114.183 572.137 112.358 572.184C108.473 564.933 109.971 557.026 110.205 549.447C110.579 537.751 108.381 525.914 111.142 514.311C111.329 513.516 111.563 512.721 111.797 511.925C111.984 511.832 112.17 511.738 112.358 511.645V512.113C112.966 511.785 113.248 511.504 113.294 511.27C113.388 510.896 113.061 510.569 112.265 510.288C117.881 509.68 119.846 512.674 119.752 517.773C119.752 523.622 119.752 529.47 119.752 535.271L119.893 535.131C129.581 535.131 139.315 535.131 149.003 535.084L149.19 535.271C149.19 529.283 149.284 523.294 149.19 517.306C149.19 514.545 149.798 512.627 151.202 511.504C151.436 511.27 151.765 511.177 152.045 511.036C152.888 510.943 154.104 511.364 156.07 512.253C156.21 512.346 156.398 512.44 156.585 512.487C156.819 512.627 157.052 512.721 157.333 512.861C157.52 513.656 157.755 514.452 157.942 515.247C160.563 528.44 158.176 541.914 158.831 555.248H158.784Z" fill="#7960BD"/>
<path d="M492.651 572.278C486.24 573.12 485.351 569.471 485.211 564.138C484.556 543.131 484.415 543.131 463.168 543.178C460.921 543.178 458.674 543.225 456.428 543.225C454.696 551.693 457.411 560.535 454.931 568.956C454.65 569.986 454.276 571.015 453.761 572.044C451.983 572.091 450.203 572.091 448.378 572.138C443.698 557.354 446.928 542.149 446.319 527.177C446.132 522.733 444.775 517.68 447.208 513.61C447.91 512.44 448.894 511.317 450.345 510.335C455.352 511.692 453.48 515.856 453.901 519.037C454.323 522.031 453.808 525.119 453.808 528.16C453.808 530.78 454.182 533.306 455.773 535.692C465.554 535.505 475.289 535.271 485.07 535.037C485.117 529.938 485.445 524.791 485.211 519.692C484.93 513.984 487.082 511.224 492.979 511.972C496.723 517.961 495.086 524.651 494.852 530.92C494.243 544.722 497.378 558.71 492.651 572.278Z" fill="#7960BD"/>
<path d="M209.606 448.813C209.606 390.239 209.606 331.664 209.606 273.09C209.606 269.206 209.935 265.277 208.063 261.627C206.659 260.271 205.207 258.914 203.756 257.557C190.792 255.124 177.783 255.077 164.819 257.604C163.743 258.259 161.776 258.914 161.729 259.616C161.355 270.61 156.255 267.522 149.702 264.434C126.302 253.393 101.498 250.352 76.7401 257.276C30.0801 270.283 5.13576 306.166 1.06412 351.688C-2.53952 391.642 11.3132 425.608 44.1203 450.451C61.9981 463.972 82.8241 470.709 104.727 470.1C120.639 469.679 136.925 466.264 151.059 457.141C155.926 454.007 161.028 452.042 161.075 461.352C161.075 463.691 162.713 464.673 164.725 465.282C178.438 467.761 192.104 468.042 205.816 465.048C206.612 463.785 207.407 462.568 208.203 461.305C209.935 457.281 209.606 453.024 209.606 448.813ZM149.234 398.52C136.598 416.906 114.695 425.936 92.044 421.351C72.8558 417.468 55.3527 399.034 51.4215 378.636C50.2983 372.882 48.753 367.221 49.4082 361.139C51.3271 337.138 58.4414 316.506 82.8244 305.418C114.836 290.868 155.272 313.465 158.922 348.46C160.794 366.191 159.858 383.128 149.234 398.52Z" fill="#7960BD"/>
<path d="M522.187 254.095C459.006 253.907 413.141 301.768 413.329 361.091C413.516 423.783 459.708 469.398 520.923 469.819C578.862 470.24 629.594 428.368 629.828 361.746C630.67 301.16 584.01 254.235 522.234 254.048L522.187 254.095ZM522.046 422.192C487.227 421.537 461.674 396.087 461.768 360.951C461.814 326.658 488.022 300.412 522.14 300.926C556.772 301.441 583.683 328.763 580.968 362.027C584.244 395.244 552.326 422.754 522.046 422.192Z" fill="#7960BD"/>
</svg>
