<svg width="1583" height="420" viewBox="0 0 1583 420" fill="none" xmlns="http://www.w3.org/2000/svg">
<path d="M159.591 387.358C147.235 399.054 133.664 406.914 119.296 412.809C82.1833 428.061 28.5489 417.955 9.40748 365.79C3.60422 349.93 1.07741 333.602 0.468999 316.713C-0.935015 280.548 4.9155 245.6 18.4876 212.149C30.375 182.814 47.1287 156.334 74.9282 140.006C110.075 119.327 146.814 117.175 183.272 138.088C186.922 140.147 190.151 143.001 193.287 145.808C196.235 148.428 197.546 148.1 198.107 144.17C201.43 121.854 204.754 99.4908 208.123 77.1744C211.727 53.5948 215.47 30.0153 218.933 6.38896C219.589 1.99119 221.508 0.400503 225.767 0.447288C246.921 0.540858 268.074 0.587643 289.181 0.447288C293.955 0.447288 295.78 1.80404 294.89 6.95037C289.789 36.9862 284.922 67.0689 280.008 97.1047C272.427 143.843 264.892 190.581 257.264 237.319C249.355 285.881 241.445 334.397 233.536 382.96C231.898 393.112 230.072 403.218 228.668 413.417C228.107 417.534 226.329 419.125 222.257 419.078C201.291 418.984 180.323 418.984 159.403 419.125C154.817 419.125 153.694 417.44 154.676 413.043C156.502 404.902 157.859 396.668 159.591 387.358ZM85.0378 307.122C85.4122 318.163 85.8332 328.69 89.4836 338.655C92.9936 348.246 99.2654 355.123 109.842 356.667C119.904 358.164 129.17 355.731 137.501 349.836C144.147 345.111 150.137 339.59 154.957 333.134C162.633 322.935 171.524 313.251 173.209 299.73C176.906 270.583 181.821 241.623 186.969 212.71C187.859 207.704 186.501 203.4 183.413 199.33C171.853 184.031 144.802 179.773 127.158 190.721C112.322 199.938 104.367 214.394 98.189 229.927C88.2673 254.863 86.2078 281.25 84.9909 307.169L85.0378 307.122Z" fill="black"/>
<path d="M942.327 346.702C968.629 346.702 994.884 346.702 1021.19 346.702C1028.07 346.702 1028.21 347.029 1027.04 354C1023.85 373.556 1020.58 393.112 1017.72 412.715C1016.93 418.002 1014.49 420.154 1009.39 419.967C973.028 418.61 936.617 419.358 900.206 418.75C878.21 418.376 857.244 412.668 838.43 400.878C813.251 385.112 798.181 361.72 793.501 333.041C784.141 275.261 795.748 221.786 832.674 175.422C857.525 144.217 890.706 127.889 930.627 124.801C950.657 123.257 970.361 124.053 989.596 129.573C1013 136.31 1032.79 148.474 1043.74 171.352C1056.33 197.645 1051.56 243.167 1019.08 266.372C999.797 280.174 978.317 288.922 955.806 295.519C931.049 302.771 905.776 307.262 880.129 309.976C872.641 310.771 872.407 311.426 873.765 319.099C876.432 334.397 885.418 342.912 900.488 346C914.341 348.807 928.334 347.403 942.28 346.702H942.327ZM966.336 207.47C966.243 191.095 958.801 181.177 946.96 179.867C928.521 177.855 912.749 183.142 901.095 198.113C888.272 214.535 881.346 233.576 876.947 253.693C876.058 257.67 878.537 257.53 881.018 257.389C891.501 256.922 901.845 255.705 912.094 253.506C929.597 249.81 945.228 242.746 957.069 228.804C962.965 221.833 966.149 213.786 966.289 207.423L966.336 207.47Z" fill="black"/>
<path d="M420.08 346.702C448.395 346.702 476.71 346.702 505.024 346.702C512.091 346.702 512.185 346.936 511.061 353.906C507.832 373.65 504.462 393.393 501.467 413.183C500.812 417.627 498.847 419.031 494.634 419.125C458.036 420.013 421.486 418.984 384.888 418.703C363.781 418.516 343.328 413.51 324.842 402.516C297.558 386.282 281.88 361.579 277.106 331.075C268.307 274.98 280.054 223.049 314.92 177.668C339.724 145.387 373.328 128.217 414.091 124.942C437.678 123.023 460.845 124.287 483.028 132.801C508.488 142.533 527.488 159.141 532.823 187.165C539.75 223.47 523.838 256.267 491.171 274.419C461.734 290.794 429.815 299.823 396.821 305.437C385.589 307.356 374.357 309.274 362.984 310.116C358.444 310.443 355.543 312.128 357.368 317.461C357.836 318.818 357.65 320.362 357.884 321.812C361.113 340.105 369.63 347.169 389.66 347.731C399.769 348.012 409.879 347.778 419.988 347.778C419.988 347.403 419.988 347.029 419.988 346.655L420.08 346.702ZM424.387 179.493C408.007 179.493 395.324 185.902 385.683 198.3C372.953 214.628 366.166 233.482 361.72 253.459C361.018 256.547 362.002 257.67 364.951 257.436C369.911 257.109 374.872 256.875 379.786 256.267C395.604 254.395 411.001 251.12 424.948 242.98C435.852 236.617 444.745 228.336 448.91 215.938C454.807 198.487 448.068 177.762 424.434 179.446L424.387 179.493Z" fill="black"/>
<path d="M637.427 345.578C639.907 346.514 642.434 345.672 644.961 345.672C679.359 345.766 713.758 345.719 748.109 345.766C755.691 345.766 756.018 346.187 754.895 353.625C751.947 373.602 748.905 393.58 746.05 413.557C745.489 417.627 743.522 419.124 739.451 419.124C689.983 418.937 640.515 419.264 591.047 418.563C571.203 418.282 551.36 418.282 531.47 418.142C526.649 418.142 525.386 416.364 526.182 411.826C529.505 392.831 532.687 373.836 535.776 354.795C536.572 349.883 538.397 345.766 541.673 342.023C580.471 298.045 619.221 254.067 658.018 210.09C661.06 206.627 664.43 203.493 667.566 200.171C668.408 199.282 669.859 198.393 669.157 196.99C668.502 195.586 666.864 196.194 665.647 196.148C663.073 196.054 660.499 196.148 657.925 196.148C628.113 196.148 598.348 196.148 568.536 196.148C560.955 196.148 560.861 195.82 562.124 188.194C565.26 169.153 568.348 150.158 571.156 131.07C571.905 125.83 574.198 123.959 579.44 123.959C647.862 124.006 716.285 123.959 784.661 123.818C789.809 123.818 791.353 125.175 790.464 130.555C787.469 148.848 784.988 167.235 782.321 185.574C781.759 189.364 779.934 192.405 777.266 195.118C744.786 228.429 713.945 263.237 681.419 296.501C667.051 311.238 653.338 326.631 639.392 341.742C638.456 342.771 636.959 343.52 637.38 345.485L637.427 345.578Z" fill="black"/>
<path d="M1394 341.883C1400.41 323.31 1406.77 304.736 1413.19 286.163C1431.3 233.904 1449.41 181.645 1467.47 129.387C1468.78 125.597 1470.7 123.772 1475.01 123.819C1495.98 124.053 1516.94 123.96 1537.91 124.1C1545.02 124.1 1545.44 124.895 1542.96 131.352C1510.16 217.155 1477.3 302.958 1444.49 388.808C1441.36 397.043 1438.04 405.23 1435.13 413.558C1433.78 417.441 1431.58 419.125 1427.46 419.125C1398.58 419.031 1369.71 419.031 1340.83 419.125C1336.15 419.125 1334.47 417.16 1333.77 412.762C1323.98 353.346 1314.06 293.929 1304.14 234.559C1298.29 199.611 1292.39 164.662 1286.4 129.761C1285.75 125.878 1286.96 124.147 1290.8 124.147C1314.34 124.147 1337.88 124.147 1361.42 124.147C1365.21 124.147 1366.9 126.065 1367.37 129.854C1373.12 178.324 1379.07 226.793 1384.87 275.308C1387.3 295.894 1389.55 316.526 1391.89 337.111C1392.08 338.702 1392.45 340.293 1392.73 341.883C1393.15 341.883 1393.58 341.883 1394 341.883Z" fill="black"/>
<path d="M1161.59 187.025C1170.06 170.463 1178.86 155.866 1191.68 144.17C1205.86 131.211 1222.05 123.117 1241.85 123.819C1249.39 124.099 1256.92 123.912 1264.46 124.053C1270.73 124.146 1271.29 124.801 1270.31 130.696C1266.94 150.767 1263.47 170.884 1260.24 190.955C1259.4 196.148 1256.64 197.598 1251.82 197.13C1236.42 195.633 1221.07 196.288 1205.67 198.066C1183.96 200.592 1171.04 212.897 1162.06 232.125C1151.81 254.114 1146.89 277.179 1143.29 300.852C1137.53 338.421 1130.98 375.802 1125.04 413.323C1124.24 418.469 1122.09 420.294 1117.13 419.92C1096.58 418.235 1075.99 418.937 1055.4 419.078C1051.23 419.078 1050.02 417.721 1050.72 413.417C1060.45 353.813 1070.05 294.209 1079.64 234.605C1085.26 199.61 1090.83 164.662 1096.26 129.667C1096.91 125.456 1098.88 124.006 1102.76 124.006C1123.91 124.006 1145.02 124.006 1166.18 123.819C1171.65 123.772 1171.6 126.672 1170.9 130.556C1168.19 145.527 1165.47 160.545 1162.85 175.516C1162.29 178.838 1162.1 182.253 1161.59 187.025Z" fill="black"/>
<path d="M1546.24 418.236C1526.44 418.797 1509.92 402.984 1509.31 382.913C1508.7 363.544 1525.65 346.234 1545.54 345.86C1564.59 345.485 1581.71 362.281 1582.28 381.931C1582.84 401.206 1566.5 417.674 1546.29 418.236H1546.24Z" fill="black"/>
</svg>
