<svg width="2050" height="666" viewBox="0 0 2050 666" fill="none" xmlns="http://www.w3.org/2000/svg">
<path d="M552.402 166.004C552.402 174.893 552.776 183.829 552.308 192.718C551.419 209.514 550.39 226.31 548.845 243.059C547.301 259.574 545.756 276.089 543.042 292.417C538.97 316.698 534.571 340.979 528.955 364.98C524.135 385.659 518.472 406.244 511.358 426.174C498.535 462.105 479.721 495.088 457.865 526.294C425.667 572.19 386.588 610.928 337.635 638.765C319.944 648.823 300.896 656.449 282.176 664.59C278.713 666.087 273.612 665.759 269.914 664.403C234.44 651.63 202.054 633.197 172.663 609.571C106.44 556.283 62.261 487.603 33.3383 408.583C26.6458 390.244 21.2169 371.249 16.8645 352.208C12.2312 332.09 9.18904 311.552 6.19381 291.06C4.27499 277.726 3.29209 264.252 2.59008 250.778C1.46687 228.321 0.39055 205.818 0.34375 183.361C0.34375 170.87 2.40322 158.425 3.52643 145.933C4.04124 140.179 4.74272 134.377 4.74272 128.576C4.74272 124.038 6.66177 122.026 10.827 120.763C29.5472 115.289 48.1737 109.535 66.8939 103.967C126.424 86.2358 182.07 60.1767 234.065 26.2577C246.467 18.1639 258.916 10.1637 271.272 2.02317C275.016 -0.456428 278.292 -0.0353646 281.989 2.35066C306.279 17.8364 330.24 33.9304 355.185 48.3401C383.78 64.8552 413.405 79.5456 445.042 89.7447C469.799 97.6981 494.323 106.447 518.986 114.587C526.287 117.02 533.963 118.471 541.31 120.716C543.229 121.324 546.084 123.009 546.318 124.553C548.378 138.261 549.922 152.062 551.654 165.817C551.934 165.817 552.168 165.817 552.449 165.864L552.402 166.004ZM497.411 178.215C497.037 178.215 496.663 178.121 496.288 178.121C496.288 173.63 496.288 169.139 496.288 164.694C496.288 155.945 495.774 155.29 487.724 152.577C461.984 144.015 435.776 136.483 410.597 126.518C386.635 117.067 363.188 105.885 340.349 93.8618C319.242 82.7738 299.212 69.674 278.76 57.3228C275.25 55.2175 272.302 55.2175 269.025 57.3228C263.129 61.0656 257.325 64.9488 251.288 68.4576C221.382 85.7212 192.272 104.669 160.027 117.488C136.252 126.985 112.103 135.687 88.0478 144.389C78.2197 147.945 68.0638 150.659 58.0017 153.653C53.462 155.01 51.2156 157.583 51.59 162.589C52.1985 171.104 52.2453 179.665 52.8538 188.18C54.3046 208.625 55.4279 229.163 57.6743 249.562C59.9208 269.913 62.6821 290.218 66.5197 310.335C70.1233 329.517 75.2246 348.418 79.9514 367.366C88.3287 401.238 100.637 433.707 116.222 464.912C128.203 488.913 142.383 511.557 159.465 532.469C174.816 551.277 191.711 568.494 211.507 582.249C226.437 592.635 243.004 600.682 259.151 609.243C267.996 613.969 276.748 615.934 287.278 611.115C315.452 598.249 341.472 582.482 364.171 561.336C380.317 546.271 394.685 529.616 406.619 511.229C417.664 494.199 427.445 476.187 436.431 457.941C455.245 419.671 468.255 379.249 476.913 337.47C480.797 318.756 484.027 299.902 486.928 281.001C489.081 267.059 490.298 252.977 491.702 238.941C493.714 218.73 495.586 198.473 497.505 178.262L497.411 178.215Z" fill="#D3A42E"/>
<path d="M497.408 178.168C495.489 198.379 493.664 218.637 491.605 238.848C490.201 252.883 488.984 266.966 486.831 280.908C483.929 299.809 480.701 318.663 476.816 337.377C468.158 379.109 455.194 419.531 436.334 457.848C427.348 476.094 417.567 494.106 406.522 511.136C394.588 529.522 380.22 546.224 364.073 561.242C341.375 582.436 315.354 598.155 287.181 611.021C276.604 615.84 267.899 613.828 259.053 609.15C242.907 600.588 226.34 592.541 211.41 582.155C191.614 568.4 174.719 551.137 159.368 532.376C142.286 511.51 128.105 488.866 116.125 464.819C100.587 433.613 88.2782 401.145 79.8542 367.272C75.1741 348.325 70.0729 329.423 66.4224 310.242C62.6316 290.124 59.8235 269.82 57.5771 249.468C55.3307 229.07 54.2073 208.578 52.7565 188.087C52.1481 179.572 52.1486 171.01 51.4934 162.495C51.119 157.489 53.3654 154.916 57.905 153.559C67.9671 150.565 78.1224 147.852 87.9506 144.296C112.053 135.594 136.155 126.892 159.93 117.395C192.175 104.529 221.238 85.6278 251.191 68.3642C257.228 64.8553 263.031 60.9722 268.928 57.2294C272.204 55.1241 275.152 55.0773 278.663 57.2294C299.068 69.6274 319.145 82.7271 340.252 93.7683C363.091 105.745 386.491 116.927 410.5 126.424C435.725 136.389 461.887 143.875 487.627 152.483C495.676 155.15 496.191 155.852 496.191 164.601C496.191 169.092 496.191 173.583 496.191 178.028C496.565 178.028 496.94 178.121 497.314 178.121L497.408 178.168ZM95.8133 349.073C95.9537 350.243 96.0004 351.412 96.328 352.535C107.373 391.928 120.337 430.525 139.712 466.784C156.046 497.381 175.608 525.499 201.021 549.312C220.49 567.605 242.766 581.734 266.822 593.149C271.642 595.442 276.51 595.395 281.377 592.775C287.695 589.36 294.294 586.412 300.612 582.997C320.549 572.096 338.848 558.669 354.433 542.294C376.101 519.557 393.885 493.919 408.393 465.848C422.948 437.73 434.228 408.443 443.447 378.314C451.497 351.927 457.768 325.119 461.325 297.703C463.291 282.545 466.332 267.574 468.064 252.416C470.076 234.778 471.153 217 472.651 199.268C472.744 191.876 472.51 184.437 473.025 177.092C473.399 171.899 471.481 169.7 466.567 168.016C438.767 158.519 410.78 149.536 383.543 138.635C347.132 124.085 312.921 105.043 280.02 83.6628C274.778 80.2475 270.8 80.3879 265.371 83.9903C232.985 105.418 199.149 124.412 163.066 138.775C135.64 149.676 107.42 158.659 79.48 168.297C75.0339 169.84 73.3023 171.852 73.6299 176.671C74.3787 188.274 74.0977 199.97 75.1273 211.572C77.1397 234.497 78.9652 257.515 82.4284 280.253C85.9384 303.364 91.2736 326.242 95.8133 349.213V349.073Z" fill="#C2931E"/>
<path d="M472.611 199.267C471.113 216.999 470.037 234.73 468.025 252.415C466.293 267.573 463.251 282.591 461.285 297.703C457.775 325.119 451.504 351.973 443.408 378.313C434.188 408.442 422.909 437.776 408.354 465.847C393.799 493.871 376.015 519.556 354.393 542.294C338.808 558.668 320.509 572.096 300.572 582.997C294.254 586.459 287.656 589.359 281.337 592.775C276.47 595.395 271.603 595.441 266.783 593.149C242.727 581.733 220.45 567.604 200.981 549.311C175.615 525.451 156.006 497.38 139.672 466.783C120.297 430.525 107.333 391.927 96.2882 352.535C95.9606 351.412 95.9606 350.242 95.7734 349.072C98.1603 348.417 100.734 348.184 102.887 347.108C108.55 344.347 113.979 341.072 119.642 338.312C126.989 334.663 134.477 331.294 141.919 327.785C179.546 358.383 223.211 372.184 271.556 373.588C271.556 388.372 271.556 402.173 271.556 415.975C271.556 430.01 271.556 429.917 257.75 430.946C256.159 431.086 254.661 432.911 253.117 433.987C254.614 435.25 256.065 437.636 257.609 437.636C270.292 437.917 282.928 437.87 295.611 437.636C296.828 437.636 297.998 435.671 299.168 434.642C297.998 433.379 297.015 431.273 295.658 430.946C293.084 430.338 290.229 430.665 287.515 430.806C282.788 431.039 280.869 428.934 280.869 424.209C281.009 408.817 280.869 393.424 280.916 378.032C280.916 376.722 281.197 375.412 281.291 374.383C295.237 372.465 308.903 371.342 322.241 368.535C358.137 360.956 390.242 345.33 417.48 320.44C419.212 318.849 419.633 315.902 420.663 313.563C419.961 312.955 419.305 312.393 418.603 311.785C415.842 313.235 412.94 314.405 410.366 316.089C398.245 324.136 386.545 332.885 374.049 340.37C348.168 355.903 319.339 362.546 289.714 365.026C266.735 366.944 243.991 363.623 221.62 357.868C196.207 351.318 173.181 339.856 152.168 324.277C152.823 323.2 153.244 321.657 154.227 321.095C162.277 316.37 170.42 311.738 178.61 307.247C179.686 306.639 181.231 306.919 182.542 306.826C186.52 311.832 189.936 317.493 194.569 321.75C214.459 339.949 238.983 346.874 265.051 348.745C288.404 350.429 311.43 347.996 333.005 338.265C347.326 331.809 360.29 323.294 368.48 309.165C368.667 308.931 368.901 308.744 369.088 308.51C368.808 308.416 368.526 308.323 368.199 308.183C367.029 308.089 365.859 307.902 364.689 307.902C335.064 307.902 305.439 307.855 275.768 308.089C270.386 308.089 268.561 306.545 268.795 301.071C269.216 291.34 269.31 281.562 268.842 271.831C268.561 266.029 270.667 264.532 276.189 264.579C304.644 264.813 333.098 264.673 361.6 264.673C363.799 264.673 366.046 264.439 369.837 264.252C367.216 260.228 365.859 256.813 363.378 254.661C357.154 249.14 350.415 244.134 343.91 238.941C346.39 236.508 348.59 233.561 351.491 231.83C354.019 230.333 357.435 230.333 360.384 229.397C382.239 222.286 403.814 214.426 425.904 208.25C441.068 204.04 456.839 202.168 472.377 199.221L472.611 199.267Z" fill="#9C0B0D"/>
<path d="M142.008 327.786C134.567 331.295 127.079 334.663 119.731 338.313C114.068 341.12 108.639 344.348 102.977 347.108C100.824 348.184 98.2496 348.465 95.8628 349.073C91.3231 326.102 85.9879 303.271 82.4779 280.112C79.0147 257.375 77.236 234.357 75.1768 211.432C74.1471 199.83 74.4282 188.18 73.6794 176.531C73.3518 171.712 75.0834 169.7 79.5295 168.156C107.469 158.565 135.69 149.583 163.115 138.635C199.198 124.272 233.035 105.278 265.421 83.8501C270.85 80.2476 274.781 80.1073 280.069 83.5226C312.923 104.903 347.181 123.945 383.592 138.495C410.83 149.396 438.817 158.378 466.616 167.876C471.53 169.56 473.449 171.759 473.075 176.952C472.56 184.344 472.794 191.736 472.7 199.128C457.209 202.075 441.391 203.9 426.227 208.157C404.137 214.333 382.516 222.24 360.707 229.304C357.758 230.24 354.342 230.24 351.814 231.737C348.913 233.468 346.713 236.415 344.233 238.848C338.008 236.088 331.971 232.813 325.559 230.661C305.295 223.83 284.562 221.164 263.081 223.503C240.242 225.936 218.854 231.643 200.368 245.913C185.158 257.656 171.632 278.99 181.46 301.68C182.162 303.271 182.35 305.049 182.724 306.733C181.414 306.873 179.869 306.593 178.793 307.154C170.603 311.645 162.46 316.277 154.41 321.002C153.427 321.564 153.053 323.108 152.351 324.184C148.139 320.815 144.114 317.119 139.574 314.265C137.562 313.002 134.426 313.47 131.852 313.189C132.648 315.716 132.882 318.663 134.379 320.675C136.439 323.388 139.434 325.353 142.055 327.646L142.008 327.786Z" fill="#860104"/>
<path d="M182.675 306.873C182.254 305.188 182.067 303.411 181.411 301.82C171.583 279.129 185.109 257.795 200.319 246.052C218.805 231.783 240.193 226.122 263.032 223.642C284.513 221.35 305.246 224.017 325.51 230.8C331.922 232.953 337.959 236.228 344.184 238.988C350.689 244.181 357.428 249.187 363.653 254.708C366.086 256.86 367.444 260.275 370.111 264.298C366.274 264.486 364.074 264.719 361.874 264.719C333.42 264.719 304.918 264.86 276.463 264.626C270.941 264.626 268.882 266.029 269.116 271.878C269.537 281.609 269.49 291.387 269.069 301.118C268.835 306.592 270.66 308.183 276.042 308.136C305.667 307.902 335.292 307.949 364.963 307.949C366.133 307.949 367.303 308.136 368.473 308.229C368.52 308.557 368.613 308.884 368.754 309.212C360.564 323.341 347.6 331.856 333.279 338.312C311.704 348.043 288.678 350.476 265.325 348.792C239.21 346.92 214.687 339.996 194.844 321.797C190.164 317.54 186.794 311.879 182.816 306.873H182.675Z" fill="#010000"/>
<path d="M142.007 327.786C139.387 325.493 136.391 323.528 134.332 320.815C132.834 318.803 132.6 315.856 131.805 313.329C134.426 313.657 137.514 313.142 139.527 314.405C144.067 317.259 148.091 320.955 152.303 324.324C173.317 339.903 196.39 351.365 221.756 357.915C244.079 363.716 266.871 367.038 289.85 365.073C319.475 362.594 348.304 355.903 374.185 340.418C386.68 332.932 398.38 324.183 410.502 316.136C413.076 314.452 415.977 313.236 418.739 311.832C419.441 312.44 420.096 313.002 420.798 313.61C419.768 315.949 419.347 318.897 417.616 320.487C390.378 345.377 358.319 361.003 322.377 368.582C309.039 371.389 295.326 372.512 281.426 374.43C281.333 375.459 281.051 376.769 281.051 378.079C281.051 393.472 281.098 408.864 281.005 424.256C281.005 428.981 282.924 431.087 287.651 430.853C290.365 430.712 293.22 430.385 295.794 430.993C297.198 431.32 298.134 433.379 299.304 434.689C298.134 435.718 296.964 437.683 295.747 437.683C283.064 437.917 270.428 437.964 257.745 437.683C256.201 437.683 254.75 435.297 253.252 434.034C254.797 433.005 256.247 431.133 257.885 430.993C271.692 429.964 271.691 430.057 271.691 416.022C271.691 402.22 271.691 388.419 271.691 373.635C223.346 372.231 179.682 358.43 142.054 327.832L142.007 327.786Z" fill="#050101"/>
<path d="M368.616 309.165C368.476 308.838 368.43 308.51 368.336 308.183C368.617 308.276 368.897 308.37 369.225 308.51C369.038 308.744 368.804 308.931 368.616 309.165Z" fill="#830A0B"/>
<path d="M984.414 287.223C984.414 291.902 984.648 295.972 984.367 299.996C983.993 304.627 986.192 305.703 990.311 305.423C995.459 305.048 998.266 302.007 1000.42 297.703C1008.19 282.171 1014.41 265.983 1021.34 250.123C1027.89 235.152 1034.3 220.087 1040.9 205.116C1042.03 202.543 1042.68 198.707 1045.96 198.613C1049.33 198.519 1049.98 202.403 1051.1 205.023C1062.06 230.614 1072.96 256.252 1083.96 281.89C1085.97 286.522 1088.26 291.06 1090.46 295.645C1093.13 301.259 1096.78 305.423 1103.71 305.376C1105.35 305.376 1107.92 305.703 1107.83 307.715C1107.73 310.008 1105.16 309.493 1103.57 309.54C1093.83 309.633 1084.05 309.587 1074.32 309.68C1070.95 309.68 1069.4 308.323 1070.71 305.048C1071.79 302.382 1070.9 300.136 1069.92 297.75C1067.39 291.621 1064.72 285.586 1062.38 279.364C1061.12 275.995 1059.15 274.451 1055.41 274.498C1046.42 274.685 1037.49 274.592 1028.5 274.498C1025.55 274.498 1023.07 275.059 1021.85 278.1C1019.33 284.229 1016.66 290.311 1014.37 296.487C1012.78 300.697 1013.38 304.16 1018.81 305.095C1020.4 305.376 1022.84 306.031 1022.42 308.136C1021.99 310.335 1019.51 309.446 1017.88 309.493C1013.57 309.633 1009.31 309.774 1005.01 309.54C991.949 308.838 978.985 310.569 965.927 310.803C954.227 310.99 942.574 308.37 930.921 309.587C917.863 310.943 904.9 309.212 891.889 309.587C882.248 309.914 874.479 306.358 867.927 299.481C859.691 290.826 853.232 280.814 846.118 271.27C841.906 265.656 834.84 263.223 828.194 265.188C826.415 265.702 825.526 266.778 825.526 268.509C825.666 278.241 824.778 287.972 826.041 297.703C826.696 302.756 829.364 305.423 834.559 305.329C835.541 305.329 836.524 305.469 837.46 305.703C838.583 306.031 840.081 306.452 840.035 307.715C840.035 309.633 838.162 309.399 836.899 309.399C823.654 309.399 810.41 309.399 797.118 309.353C795.714 309.353 793.562 309.399 793.702 307.201C793.796 305.61 795.621 305.329 796.978 305.376C804.325 305.61 805.729 300.604 805.776 294.99C805.917 267.714 805.823 240.439 805.87 213.163C805.87 207.362 802.079 205.631 797.353 204.601C795.714 204.227 793.093 204.134 793.327 202.028C793.608 199.315 796.416 200.157 798.148 200.391C810.597 202.075 823.046 200.999 835.494 201.139C842.561 201.233 849.535 201.888 856.368 203.479C874.152 207.502 881.687 224.812 872.607 240.626C869.378 246.24 865.353 251.293 860.346 255.41C857.351 257.889 856.976 260.088 859.644 263.223C869.519 274.779 879.019 286.568 889.737 297.423C897.365 305.142 906.351 306.031 916.132 305.236C918.566 305.048 919.876 303.551 920.672 301.306C921.701 298.311 921.935 295.224 921.935 292.089C921.935 267.153 922.029 242.216 921.935 217.28C921.935 207.268 921.139 206.473 911.124 204.04C909.814 203.713 907.895 203.666 908.035 202.028C908.176 199.923 910.329 200.204 911.779 200.297C917.63 200.531 923.433 201.186 929.236 201.233C944.82 201.373 960.452 201.467 976.036 201.139C981.091 201.046 982.355 202.777 981.091 207.315C980.015 211.292 979.687 215.362 979.781 219.479C979.781 220.555 980.015 222.052 978.611 222.473C977.113 222.894 976.411 221.491 976.177 220.508C973.931 209.748 965.553 210.262 957.457 210.216C947.441 210.216 942.434 215.206 942.434 225.187C942.434 230.427 942.715 235.713 942.34 240.953C942.013 245.725 944.025 247.222 948.471 246.848C957.878 246.006 967.612 248.86 976.598 243.947C978.564 242.871 979.453 244.135 979.266 246.193C978.611 252.556 978.002 258.965 977.3 265.328C977.16 266.638 976.832 268.322 975.101 268.229C973.697 268.182 973.697 266.638 973.416 265.515C971.637 258.217 969.391 256.158 961.996 255.831C957.129 255.597 952.262 255.831 947.395 255.737C943.978 255.644 942.387 257 942.434 260.556C942.528 271.083 942.34 281.609 942.527 292.136C942.668 298.031 946.084 301.212 952.917 301.68C958.346 302.054 963.822 301.914 969.251 301.68C975.101 301.399 979.078 298.545 980.67 292.604C981.138 290.919 981.091 288.627 984.367 287.27L984.414 287.223ZM825.433 232.813C825.433 238.848 825.433 244.836 825.433 250.872C825.433 253.024 825.48 255.035 827.82 256.345C832.874 259.153 846.165 257.234 850.284 253.024C857.678 245.351 859.597 231.269 854.683 220.789C850.845 212.648 842.047 208.438 830.581 208.952C826.93 209.14 825.245 210.403 825.339 214.146C825.479 220.368 825.339 226.59 825.339 232.813H825.433ZM1042.17 228.228C1036.03 240.251 1032.43 251.714 1027.8 262.755C1026.67 265.422 1029.01 265.515 1030.79 265.562C1035.66 265.609 1040.53 265.562 1045.4 265.562C1059.06 265.562 1056.67 265.562 1052.51 254.942C1049.23 246.474 1045.96 238.053 1042.17 228.228Z" fill="black"/>
<path d="M1415.02 470.432C1412.36 470.011 1411.66 468.888 1411.51 467.812C1410.2 459.344 1403.84 458.221 1397.19 458.268C1376.27 458.409 1380.35 455.18 1379.97 474.69C1379.88 480.351 1379.88 486.012 1380.06 491.626C1380.35 499.579 1382.4 502.012 1390.08 503.509C1396.26 504.726 1402.58 504.492 1408.71 503.883C1414.09 503.322 1416.85 499.018 1418.77 494.293C1419.38 492.749 1419.56 490.222 1421.86 490.877C1424.2 491.532 1422.93 493.778 1422.7 495.415C1422.19 499.065 1421.44 502.714 1421.11 506.363C1420.64 511.603 1417.74 512.96 1412.87 513.147C1399.58 513.568 1386.38 511.65 1373.14 512.024C1358.96 512.398 1344.78 512.585 1330.6 512.024C1320.82 511.65 1312.81 508.562 1306.26 501.357C1298.49 492.842 1291.99 483.345 1285.29 473.988C1280.89 467.906 1274.2 465.613 1266.95 467.625C1264.84 468.187 1264.05 469.543 1264.09 471.462C1264.28 481.006 1263.39 490.55 1264.8 500.047C1265.54 505.1 1268.26 507.673 1273.36 507.813C1273.92 507.813 1274.53 507.813 1275.09 508.001C1276.54 508.422 1278.6 508.515 1278.37 510.527C1278.13 512.539 1276.21 512.351 1274.62 512.305C1264.89 512.164 1255.15 511.977 1245.37 511.93C1242.47 511.93 1239.57 512.445 1236.62 512.539C1235.08 512.585 1233.2 512.351 1233.11 510.293C1233.06 508.562 1234.84 508.141 1236.06 508.094C1243.13 507.954 1244.39 502.854 1244.44 497.661C1244.67 470.198 1244.58 442.689 1244.58 415.226C1244.58 408.863 1239.71 407.554 1234.89 406.103C1233.2 405.589 1230.12 405.869 1230.87 403.109C1231.43 401.144 1234 402.407 1235.59 402.641C1248.79 404.606 1262.08 403.203 1275.28 403.436C1283.33 403.577 1291.24 404.325 1298.87 407.039C1313.94 412.419 1320.02 429.262 1311.69 442.876C1308.23 448.537 1304.25 453.917 1298.73 457.8C1295.54 460.046 1295.54 462.151 1297.88 465.005C1307.76 477.076 1317.59 489.193 1328.77 500.094C1334.71 505.895 1341.64 508.515 1349.97 507.954C1356.85 507.486 1358.91 505.661 1359.14 498.644C1359.38 492.234 1359.24 485.778 1359.29 479.368C1359.29 459.11 1359.29 438.806 1359.29 418.548C1359.29 409.846 1358.49 408.957 1349.93 406.431C1348.15 405.916 1345.29 405.495 1345.81 403.203C1346.42 400.536 1349.08 402.22 1350.81 402.407C1371.83 404.7 1392.89 403.39 1413.9 403.062C1418.49 402.969 1419.38 403.951 1418.72 408.115C1417.97 412.7 1417.79 417.425 1417.27 422.057C1417.13 423.226 1416.57 424.396 1415.07 424.302C1413.95 424.209 1413.43 423.226 1413.34 422.197C1412.87 414.665 1407.16 413.261 1401.41 412.653C1395.79 412.092 1390.13 412.466 1384.46 412.513C1381.38 412.513 1379.88 414.103 1379.88 417.238C1379.88 426.221 1379.92 435.157 1379.83 444.139C1379.78 448.022 1381.7 449.426 1385.26 449.098C1394.99 448.209 1405.15 451.531 1414.46 445.87C1416.29 444.747 1416.8 446.572 1416.66 448.069C1415.91 455.368 1414.51 462.619 1414.93 470.292L1415.02 470.432ZM1275.84 459.672C1283.52 459.859 1287.87 458.409 1290.91 454.058C1297.7 444.28 1298.3 433.706 1293.44 423.086C1288.99 413.355 1279.91 411.858 1270.41 411.343C1265.54 411.062 1263.86 412.934 1263.95 417.753C1264.19 429.028 1264.33 440.303 1263.91 451.531C1263.67 457.566 1266.43 459.531 1271.72 459.672C1273.08 459.672 1274.44 459.672 1275.79 459.672H1275.84Z" fill="black"/>
<path d="M755.235 245.678C762.068 245.678 768.901 245.678 775.687 245.678C777.184 245.678 779.337 245.538 779.524 247.456C779.711 249.421 777.559 249.421 776.108 249.889C768.058 252.509 766.982 253.913 766.935 262.427C766.841 273.937 766.748 285.446 766.935 296.908C767.029 301.914 765.297 304.814 760.289 306.312C732.583 314.639 705.486 314.125 678.856 301.867C652.929 289.937 643.896 262.615 646.143 239.924C647.547 225.935 652.18 213.116 661.681 202.215C674.972 187.01 692.569 181.864 711.663 180.227C727.903 178.823 743.862 181.958 759.915 184.11C764.033 184.671 766.046 186.496 765.812 191.034C765.437 198.239 765.671 205.444 765.484 212.648C765.484 214.239 765.25 216.625 763.05 216.625C761.272 216.625 760.944 214.426 760.71 213.023C758.979 202.824 752.239 197.163 743.16 193.654C728.511 187.993 713.489 187.197 698.466 191.689C685.877 195.478 676.938 203.853 673.147 216.438C666.173 239.456 668.326 261.632 682.46 281.656C692.475 295.832 706.937 302.288 724.066 302.896C728.699 303.083 733.426 302.896 738.059 302.382C742.833 301.914 745.173 299.107 745.079 294.054C744.892 282.732 745.079 271.457 744.985 260.135C744.892 253.398 742.177 250.684 735.485 249.983C735.11 249.983 734.689 249.983 734.315 249.936C732.349 249.608 729.026 250.497 729.214 247.69C729.354 245.304 732.63 245.772 734.689 245.725C741.522 245.632 748.355 245.725 755.141 245.725L755.235 245.678Z" fill="black"/>
<path d="M1365.19 245.772C1372.21 245.772 1379.23 245.725 1386.25 245.772C1387.65 245.772 1389.85 245.538 1389.8 247.737C1389.8 249.281 1387.88 249.421 1386.62 249.749C1377.54 252.182 1376.56 253.351 1376.51 262.474C1376.46 273.983 1376.32 285.446 1376.56 296.955C1376.65 302.054 1374.69 305.095 1369.91 306.499C1340.99 314.827 1312.49 315.014 1285.48 300.089C1259.7 285.867 1248.84 253.679 1259.32 223.783C1267.98 199.128 1286.19 185.934 1311.36 181.49C1331.3 177.934 1350.91 181.583 1370.57 184.391C1372.95 184.718 1375.34 185.467 1375.29 188.554C1375.29 196.929 1375.2 205.303 1374.97 213.678C1374.97 215.081 1374.54 217.093 1372.49 217.046C1371.13 217.046 1370.71 215.502 1370.57 214.426C1368.41 199.081 1356.85 194.122 1344.17 190.894C1333.5 188.227 1322.55 187.899 1311.79 190.66C1295.41 194.87 1284.78 205.023 1281.27 221.772C1277.53 239.784 1278.7 257.375 1287.36 274.03C1297.09 292.744 1312.91 301.633 1333.55 302.85C1337.43 303.084 1341.36 302.943 1345.25 302.85C1352.55 302.709 1354.75 300.604 1354.84 293.446C1354.98 282.358 1354.98 271.223 1354.84 260.135C1354.75 253.258 1351.85 250.498 1344.87 249.843C1342.86 249.655 1339.21 251.012 1339.4 247.69C1339.59 245.07 1343.19 245.679 1345.44 245.679C1352.08 245.585 1358.68 245.679 1365.33 245.679L1365.19 245.772Z" fill="black"/>
<path d="M1838.38 514.411C1832.06 513.849 1826.02 513.522 1820.03 512.773C1810.11 511.51 1800.24 511.557 1790.32 512.493C1788.35 512.68 1785.96 513.101 1785.45 510.668C1784.98 508.329 1787.41 507.955 1789.05 507.908C1795.84 507.721 1796.91 502.902 1796.91 497.802C1797.05 470.527 1796.96 443.251 1797.01 416.022C1797.01 410.923 1794.39 408.116 1789.61 406.946C1788.3 406.619 1786.95 406.385 1785.64 405.964C1784.33 405.543 1782.73 404.981 1783.15 403.297C1783.53 401.753 1785.12 402.361 1786.15 402.548C1802.06 404.841 1818.07 403.25 1833.98 403.531C1844.32 403.718 1854.57 404.513 1864.63 406.993C1887.94 412.841 1900.72 427.438 1903.76 451.532C1906.43 472.866 1894.73 495.65 1876.29 505.709C1864.26 512.259 1851.16 513.382 1838.24 514.458L1838.38 514.411ZM1817.65 455.649C1817.65 467.533 1817.55 479.369 1817.65 491.252C1817.74 499.44 1819.94 503.463 1825.32 504.726C1838.61 507.814 1851.67 507.346 1863.93 500.797C1872.97 495.978 1878.91 488.492 1880.97 478.293C1882.98 468.094 1883.31 457.801 1881.16 447.602C1879.19 438.198 1874.98 430.058 1867.58 423.695C1856.77 414.432 1843.81 411.718 1830.14 411.391C1817.83 411.11 1817.65 411.484 1817.65 423.508C1817.65 434.222 1817.65 444.889 1817.65 455.602V455.649Z" fill="black"/>
<path d="M1853.03 198.847C1863.65 198.847 1873.95 200.765 1883.78 204.882C1915.37 218.122 1921.87 256.486 1906.57 282.779C1887.01 316.417 1832.25 322.639 1806 293.82C1791.81 278.241 1787.6 259.527 1793.92 239.409C1800.75 217.654 1816.2 204.788 1838.48 200.157C1843.3 199.127 1848.12 198.753 1852.98 198.893L1853.03 198.847ZM1891.87 258.825C1891.87 242.59 1887.8 228.181 1874.98 216.999C1857.34 201.607 1827.76 205.724 1817.84 225.233C1808.43 243.667 1811.89 273.422 1825.28 289.282C1840.21 307.013 1870.25 308.042 1883.36 290.966C1890.56 281.562 1891.73 270.287 1891.83 258.825H1891.87Z" fill="black"/>
<path d="M940.656 402.221C944.915 401.472 948.284 403.765 951.888 403.624C959.282 403.391 966.677 404.233 974.025 402.548C975.616 402.174 978.003 401.519 978.518 403.812C978.986 405.777 976.739 406.057 975.288 406.432C971.638 407.414 969.953 409.94 969.017 413.402C968.221 416.256 967.941 419.157 968.034 422.058C969.017 450.129 966.49 478.153 966.771 506.224C966.771 508.843 967.379 512.259 964.337 513.428C961.716 514.411 959.657 511.931 957.832 510.247C932.138 486.667 907.053 462.386 883.653 436.467C883.045 435.766 882.296 435.204 881.547 434.502C879.488 436.514 880.143 438.807 880.424 440.772C882.062 451.439 881.266 462.152 881.594 472.866C881.828 481.615 882.249 490.364 882.764 499.112C883.092 504.399 885.104 508.189 891.375 507.767C892.311 507.721 893.341 507.955 894.23 508.235C895.306 508.61 896.664 509.077 896.57 510.481C896.476 512.493 894.791 512.118 893.434 512.072C886.788 512.072 880.19 511.885 873.544 511.978C869.051 511.978 864.605 512.306 860.112 512.493C858.568 512.54 856.696 512.961 856.369 510.855C856.088 509.171 857.679 508.656 858.942 508.189C869.051 504.352 869.332 504.352 869.098 493.498C868.396 465.614 870.923 437.777 870.549 409.94C870.549 407.274 870.034 403.578 872.514 402.455C875.229 401.192 877.335 404.373 879.207 406.244C902.935 430.245 927.412 453.45 950.437 478.106C951.982 479.743 953.526 482.971 955.632 482.176C958.3 481.147 957.13 477.591 956.802 475.299C954.743 460.515 956.1 445.731 955.632 430.9C955.445 425.473 954.93 420.046 954.556 414.572C954.275 410.783 952.075 408.724 948.659 407.414C945.898 406.338 942.575 406.057 940.656 402.268V402.221Z" fill="black"/>
<path d="M2049.96 201.14C2048.28 202.169 2047.81 202.637 2047.3 202.73C2037.42 204.368 2036.07 211.573 2036.3 219.666C2037.19 247.316 2034.94 274.966 2035.13 302.616C2035.13 302.99 2035.13 303.411 2035.13 303.785C2035.04 306.499 2035.32 309.914 2032.84 311.271C2029.89 312.909 2027.97 309.587 2026.1 307.903C2001.9 285.82 1979.02 262.428 1956.27 238.895C1954.12 236.696 1952.43 233.983 1949.53 232.439C1947.89 234.17 1948.5 236.228 1948.69 238.006C1950.84 256.626 1948.69 275.387 1950.7 294.007C1951.64 302.335 1952.34 303.832 1960.67 305.47C1962.31 305.797 1964.74 305.704 1964.41 308.09C1964.18 309.961 1961.89 309.493 1960.44 309.54C1949.91 309.634 1939.38 309.634 1928.84 309.634C1927.35 309.634 1925.15 309.774 1924.96 307.903C1924.73 305.376 1927.21 305.563 1928.8 305.563C1935.3 305.563 1937.13 301.587 1937.27 296.066C1937.36 292.931 1937.41 289.844 1937.46 286.709C1937.78 259.855 1938.06 232.953 1938.44 206.099C1938.44 203.947 1937.32 200.999 1940.36 200.017C1942.89 199.175 1944.8 200.952 1946.49 202.637C1969.75 226.169 1993.85 248.954 2016.41 273.235C2018.66 275.668 2020.71 280.721 2023.9 279.223C2026.66 277.913 2024.83 272.861 2024.46 269.445C2023.34 258.778 2024.08 248.018 2023.94 237.351C2023.85 229.772 2023.99 222.193 2022.91 214.614C2022.12 209.233 2020.76 205.163 2014.4 204.929C2012.9 204.882 2011.07 204.181 2011.07 202.262C2011.07 200.391 2012.81 200.297 2014.12 200.485C2024.79 202.122 2035.46 201.233 2046.13 200.297C2046.83 200.251 2047.58 200.625 2049.96 201.233V201.14Z" fill="black"/>
<path d="M703.003 480.445C707.543 472.398 709.836 464.351 712.972 456.678C720.647 437.73 728.229 418.736 735.53 399.647C738.618 391.6 737.963 390.945 729.586 388.84C728.275 388.513 726.637 388.372 726.637 386.594C726.637 384.395 728.463 384.302 730.007 384.395C740.912 385.144 751.77 385.284 762.674 384.068C764.265 383.881 766.605 383.507 766.98 385.846C767.261 387.811 765.201 388.466 763.797 388.606C755.982 389.308 752.706 394.829 749.898 401.098C734.547 435.625 719.15 470.105 703.706 504.586C702.208 507.907 701.412 512.96 697.621 513.1C693.503 513.241 692.894 507.954 691.584 504.773C677.31 470.854 663.13 436.888 649.277 402.829C646.001 394.828 641.274 389.682 632.335 389.074C630.51 388.934 627.795 389.121 628.356 386.22C628.824 383.881 631.352 384.115 633.271 384.302C644.55 385.425 655.875 384.77 667.154 384.817C670.43 384.817 673.753 384.255 677.029 384.208C678.339 384.208 679.884 384.863 679.884 386.548C679.884 387.998 678.48 388.185 677.404 388.606C669.073 391.741 668.745 392.021 671.928 400.63C679.744 421.636 687.793 442.502 695.796 463.415C697.902 468.936 699.166 474.831 703.003 480.445Z" fill="black"/>
<path d="M1145.74 401.893C1144.33 405.402 1141.76 405.87 1139.42 406.759C1135.49 408.209 1133.2 411.11 1133.24 415.133C1133.52 437.309 1131.65 459.532 1134.23 481.661C1135.4 491.954 1140.73 500.001 1150.37 503.51C1161.09 507.44 1172.04 506.551 1181.4 499.205C1188.61 493.591 1190.43 485.03 1190.67 476.655C1191.14 456.584 1190.81 436.514 1190.81 416.443C1190.81 411.297 1188.56 407.928 1183.37 406.759C1182.06 406.478 1180.75 406.01 1179.58 405.402C1178.73 404.981 1177.94 404.186 1178.27 403.063C1178.64 401.799 1179.72 401.987 1180.7 402.174C1191.56 404.139 1202.37 404.139 1213.27 402.595C1214.54 402.408 1216.36 402.08 1216.69 403.858C1217.02 405.636 1215.24 406.01 1213.97 406.244C1207.14 407.46 1205.5 411.999 1205.55 418.174C1205.69 433.379 1205.55 448.584 1205.55 463.743C1205.55 470.199 1204.8 476.562 1203.26 482.831C1198.58 501.919 1185.61 512.913 1165.96 514.13C1157.39 514.691 1148.87 514.364 1140.5 511.884C1126.93 507.861 1118.64 498.831 1114.94 485.451C1113.31 479.462 1112.46 473.24 1112.46 466.971C1112.46 450.596 1112.28 434.221 1112.56 417.893C1112.65 411.531 1109.98 408.022 1104.09 406.478C1102.78 406.15 1101.47 405.683 1100.25 405.121C1099.36 404.747 1098.47 403.998 1098.66 402.922C1098.94 401.238 1100.34 401.659 1101.47 401.893C1115.97 404.84 1130.48 403.811 1145.69 401.846L1145.74 401.893Z" fill="black"/>
<path d="M834.514 470.432C832.033 469.965 831.332 468.842 831.191 467.766C829.974 459.625 823.984 458.455 817.432 458.222C813.173 458.034 808.867 458.268 804.561 458.128C801.145 458.034 799.554 459.438 799.601 462.947C799.695 472.865 799.601 482.83 799.835 492.749C799.975 498.69 802.83 502.48 809.242 503.416C815.653 504.398 822.112 504.398 828.476 503.79C833.859 503.275 836.62 498.971 838.539 494.199C839.147 492.655 839.288 490.129 841.628 490.831C843.921 491.532 842.657 493.778 842.47 495.369C841.955 499.205 841.206 503.041 840.785 506.925C840.27 511.556 837.603 512.913 833.203 513.053C818.742 513.615 804.421 511.743 789.96 511.79C784.25 511.79 778.681 512.305 773.159 513.428C770.912 513.895 768.011 514.691 767.355 511.509C766.747 508.562 769.602 508.141 771.614 507.86C777.277 507.158 779.102 503.556 779.102 498.503C779.102 471.041 779.102 443.531 779.149 416.068C779.149 410.688 776.481 407.787 771.427 406.665C770.304 406.431 769.087 406.337 768.011 405.963C766.747 405.495 765.156 404.84 765.577 403.203C765.998 401.378 767.636 401.893 768.993 402.08C788.79 405.074 808.68 402.875 828.57 403.39C838.866 403.67 838.866 403.39 838.118 413.916C838.024 415.086 838.071 416.256 837.79 417.425C837.275 419.764 838.258 423.554 835.403 424.022C832.081 424.536 833.484 420.56 832.548 418.688C830.348 414.197 826.09 413.074 821.831 412.7C816.028 412.232 810.131 412.513 804.281 412.513C801.192 412.513 799.695 414.15 799.741 417.285C799.741 426.455 799.741 435.624 799.741 444.747C799.741 447.601 801.098 449.286 804 449.052C813.968 448.303 824.311 451.485 833.812 446.104C836.058 444.841 836.761 446.245 836.527 448.069C835.637 455.368 834.654 462.666 834.608 470.292L834.514 470.432Z" fill="black"/>
<path d="M1509.94 308.277C1505.31 310.335 1501.19 309.353 1497.21 309.493C1490.19 309.68 1483.17 309.587 1476.19 309.493C1474.14 309.493 1470.91 309.633 1471.98 306.452C1473.62 301.68 1471.23 298.124 1469.74 294.194C1467.72 288.908 1465.43 283.761 1463.37 278.521C1462.25 275.621 1460.38 274.311 1457.15 274.358C1447.6 274.498 1438.05 274.451 1428.51 274.358C1426.12 274.358 1424.34 275.059 1423.4 277.352C1420.83 283.668 1418.02 289.89 1415.73 296.3C1414.18 300.744 1414.09 304.955 1420.6 305.563C1421.81 305.657 1423.5 306.218 1423.12 308.09C1422.8 309.493 1421.34 309.446 1420.22 309.446C1410.3 309.446 1400.38 309.446 1390.41 309.446C1389.01 309.446 1387.32 309.119 1387.23 307.528C1387.09 305.844 1388.77 305.329 1390.13 305.376C1397.24 305.516 1400.42 300.931 1402.91 295.27C1412.97 272.065 1423.08 248.86 1433.19 225.655C1436.23 218.684 1439.13 211.666 1442.36 204.789C1443.53 202.262 1444.42 198.473 1447.79 198.707C1450.64 198.894 1451.48 202.403 1452.51 204.882C1459.25 220.649 1465.85 236.415 1472.59 252.182C1478.44 265.796 1484.38 279.317 1490.28 292.884C1493.32 299.809 1497.25 305.61 1505.96 305.61C1506.66 305.61 1507.46 306.078 1508.11 306.499C1508.58 306.78 1508.96 307.247 1509.94 308.23V308.277ZM1442.4 229.678C1438.15 240.158 1433.84 250.731 1429.63 261.305C1428.36 264.439 1430.05 265.562 1433.04 265.562C1439.64 265.562 1446.29 265.469 1452.89 265.562C1457.01 265.656 1457.47 263.831 1456.12 260.509C1452.51 251.48 1449.1 242.404 1445.49 233.374C1444.98 232.064 1444.89 230.24 1442.4 229.678Z" fill="black"/>
<path d="M1765.51 268.136C1762.84 267.434 1762.47 265.75 1762.19 264.346C1760.93 257.609 1756.34 255.691 1750.21 255.738C1745.72 255.784 1741.22 255.831 1736.78 255.738C1732.94 255.691 1730.93 257.328 1730.97 261.305C1731.02 271.457 1730.93 281.563 1731.11 291.715C1731.21 296.721 1733.55 300.043 1738.98 300.979C1745.76 302.195 1752.59 302.055 1759.33 301.4C1763.87 300.979 1767.24 298.312 1768.88 293.82C1769.49 292.183 1770.29 290.592 1771.17 289.142C1771.5 288.581 1772.49 288.066 1773.09 288.113C1774.45 288.206 1774.22 289.423 1774.17 290.405C1774.17 290.967 1774.03 291.575 1773.94 292.136C1770.61 313.002 1774.97 310.803 1752.13 310.663C1742.21 310.616 1732.28 309.868 1722.36 309.353C1716.28 309.026 1710.33 310.242 1704.3 310.663C1701.82 310.85 1698.4 310.944 1698.17 307.856C1697.98 305.283 1701.25 305.517 1703.31 305.376C1707.34 305.142 1709.35 302.943 1709.87 299.201C1710.19 296.721 1710.38 294.148 1710.43 291.622C1710.43 266.685 1710.47 241.702 1710.43 216.766C1710.43 207.269 1709.68 206.473 1700.32 204.415C1698.82 204.087 1696.76 204.087 1696.95 202.029C1697.14 199.97 1699.24 200.204 1700.74 200.344C1722.55 202.169 1744.4 200.859 1766.21 201.233C1768.69 201.233 1770.47 201.842 1770.05 204.929C1769.4 209.748 1768.88 214.567 1768.27 219.433C1768.13 220.602 1767.81 222.053 1766.54 222.24C1764.62 222.52 1764.53 220.696 1764.39 219.479C1763.64 212.836 1758.91 210.777 1753.39 210.356C1747.59 209.935 1741.69 210.356 1735.84 210.216C1732.38 210.169 1730.88 211.62 1730.88 215.082C1730.97 224.064 1731.02 233 1730.88 241.983C1730.83 246.006 1732.99 247.129 1736.4 246.849C1745.95 246.006 1755.92 249.141 1765.09 243.995C1767.34 242.731 1767.71 244.93 1767.57 246.521C1766.92 253.632 1766.17 260.79 1765.42 268.229L1765.51 268.136Z" fill="black"/>
<path d="M1650.25 513.1C1636.44 513.1 1622.64 511.229 1608.83 511.884C1602.98 512.165 1597.18 512.445 1591.33 512.633C1589.64 512.679 1587.39 512.96 1587.35 510.434C1587.35 508.515 1589.17 507.814 1590.72 507.954C1597.64 508.422 1599.33 504.071 1599.84 498.457C1600.08 495.743 1600.55 493.03 1600.55 490.316C1600.55 461.122 1600.55 431.882 1600.45 402.688C1600.41 391.881 1599.66 391.273 1588.99 388.887C1587.39 388.512 1584.96 388.466 1585.2 386.173C1585.43 384.021 1587.72 383.927 1589.45 384.068C1599.56 384.863 1609.67 385.097 1619.83 384.863C1624.27 384.77 1628.77 384.255 1633.21 384.255C1635.08 384.255 1637.8 384.582 1637.85 386.828C1637.89 389.495 1635.04 388.887 1633.26 389.027C1624.7 389.729 1622.21 391.974 1622.17 400.536C1621.98 428.56 1622.03 456.631 1621.98 484.702C1621.98 485.684 1622.03 486.667 1622.12 487.603C1623.2 499.673 1626.47 502.808 1638.64 503.042C1642.95 503.135 1647.21 503.182 1651.51 503.042C1662.18 502.808 1664.8 500.936 1668.83 490.878C1669.48 489.24 1669.76 486.339 1672.15 487.041C1674.16 487.649 1672.76 490.129 1672.57 491.72C1672.1 496.539 1671.73 501.404 1670.89 506.176C1670.09 510.714 1667.61 513.475 1662.46 513.1C1658.39 512.82 1654.27 513.054 1650.2 513.054L1650.25 513.1Z" fill="black"/>
<path d="M1668.03 423.835C1667.89 416.958 1669.01 410.548 1670.98 404.279C1671.87 401.472 1674.3 402.174 1676.4 402.361C1705.94 404.747 1735.51 403.531 1765.09 402.969C1768.09 402.922 1769.49 403.718 1769.58 406.712C1769.73 411.578 1769.12 416.443 1770.43 421.262C1770.75 422.385 1770.52 423.788 1769.07 424.022C1767.67 424.256 1766.92 423.133 1766.54 422.057C1763.69 413.823 1756.85 412.747 1749.6 412.513C1744.55 412.373 1739.49 412.513 1734.39 412.513C1731.21 412.513 1729.76 413.917 1729.76 417.098C1729.8 443.578 1729.62 470.059 1730.04 496.539C1730.18 505.428 1732.38 506.925 1741.22 507.814C1743.1 508.001 1745.81 507.814 1745.86 510.247C1745.9 512.82 1743.19 512.773 1741.36 512.68C1727.93 511.791 1714.55 511.463 1701.12 512.68C1699.43 512.82 1697.18 512.68 1697.04 510.387C1696.9 508.609 1698.96 508.796 1700.18 508.422C1707.99 506.083 1709.12 504.773 1709.17 496.024C1709.26 475.766 1709.17 455.509 1709.17 435.251C1709.17 429.215 1709.07 423.18 1709.17 417.145C1709.21 413.964 1708 412.513 1704.72 412.56C1697.89 412.654 1691.1 412.654 1684.27 412.56C1676.36 412.513 1672.19 417.8 1668.03 423.882V423.835Z" fill="black"/>
<path d="M1091.35 221.444C1090.69 214.847 1092.24 208.812 1093.78 202.823C1094.58 199.782 1097.15 199.876 1099.49 200.11C1126.36 202.683 1153.27 200.531 1180.13 201.326C1184.3 201.466 1189.35 198.238 1192.39 201.654C1194.97 204.554 1192.3 209.513 1192.86 213.537C1193 214.519 1193 215.502 1192.91 216.438C1192.77 218.683 1193.66 221.958 1190.8 222.379C1188.32 222.753 1189.12 219.479 1188.41 217.841C1186.87 214.052 1183.78 212.274 1179.99 211.291C1172.32 209.373 1164.45 210.449 1156.68 210.215C1153.83 210.122 1153.08 211.853 1153.08 214.332C1153.08 241.046 1152.94 267.714 1153.27 294.428C1153.36 303.036 1155.19 304.206 1164.22 305.329C1166.09 305.563 1168.85 305.516 1168.85 307.808C1168.85 310.148 1166.14 309.399 1164.55 309.399C1151.68 309.493 1138.81 309.493 1125.94 309.446C1124.06 309.446 1121.21 309.867 1121.11 307.434C1120.97 304.814 1123.92 305.375 1125.7 305.142C1129.3 304.674 1131.41 302.709 1131.74 299.153C1132.11 295.504 1132.49 291.808 1132.49 288.112C1132.53 264.532 1132.35 240.953 1132.58 217.373C1132.63 211.572 1130.43 209.747 1125 210.075C1119.95 210.356 1114.84 210.215 1109.79 210.122C1102.63 210.028 1096.59 211.665 1094.02 219.385C1093.74 220.274 1093.22 221.163 1091.26 221.397L1091.35 221.444Z" fill="black"/>
<path d="M1052.32 456.911C1052.32 468.187 1052.32 479.509 1052.32 490.784C1052.32 492.936 1052.32 495.088 1052.56 497.193C1053.59 505.521 1055.13 506.971 1063.42 507.767C1065.29 507.954 1068 507.673 1067.86 510.246C1067.72 512.819 1065.1 512.351 1063.18 512.258C1050.92 511.79 1038.66 511.229 1026.44 512.585C1025.51 512.679 1024.48 512.632 1023.54 512.492C1022.04 512.211 1020.08 512.118 1020.13 510.059C1020.17 508.468 1022 508.094 1023.26 508.047C1030.42 507.673 1031.69 502.807 1031.69 497.1C1031.73 470.807 1031.69 444.513 1031.78 418.22C1031.78 413.916 1030.19 412.279 1025.93 412.419C1020.27 412.606 1014.65 412.513 1008.99 412.419C1002.25 412.279 996.866 414.571 993.169 420.466C992.42 421.683 991.718 423.788 989.799 422.759C988.395 422.01 989.425 420.279 989.706 419.016C990.688 414.852 991.812 410.735 992.701 406.524C993.45 403.015 995.415 401.284 998.925 402.22C1006.6 404.279 1014.42 403.436 1022.18 403.436C1042.45 403.53 1062.71 403.53 1082.98 403.436C1092.2 403.436 1092.2 403.296 1092.15 412.98C1092.15 413.776 1092.25 414.571 1092.15 415.32C1091.73 418.08 1093.65 422.431 1090.98 423.32C1088.13 424.256 1088.17 419.484 1086.63 417.472C1084.01 414.103 1080.36 412.747 1076.43 412.559C1070.02 412.232 1063.56 412.466 1057.15 412.466C1053.21 412.466 1052.32 414.805 1052.37 418.22C1052.47 431.086 1052.37 443.952 1052.37 456.771H1052.32V456.911Z" fill="black"/>
<path d="M1508.35 427.39C1505.07 426.408 1505.07 423.975 1504.32 422.104C1498.85 408.583 1482.19 404.326 1470.72 413.495C1463.89 418.969 1463.28 428.139 1469.41 434.502C1475.02 440.35 1482.33 443.812 1489.21 447.882C1499.5 454.058 1508.3 461.403 1511.15 473.848C1515.18 491.158 1504.84 508.235 1487.57 512.492C1475.54 515.486 1463.61 514.41 1451.67 511.697C1446.85 510.621 1444.14 507.954 1444.7 502.62C1445.26 497.006 1445.54 491.392 1446.06 485.778C1446.2 484.328 1446.06 482.129 1448.11 482.222C1449.99 482.316 1449.85 484.468 1450.13 485.965C1453.26 503.182 1468.85 511.322 1484.85 504.071C1496.27 498.924 1498.94 484.187 1490.05 475.298C1485.74 470.994 1480.45 468 1475.26 464.865C1469.92 461.637 1464.64 458.315 1459.95 454.151C1441.23 437.402 1446.62 411.905 1470.39 403.905C1481.3 400.209 1492.29 401.004 1503.29 402.828C1505.73 403.203 1508.07 404.279 1508.35 406.992C1509.05 413.683 1509 420.373 1508.35 427.297V427.39Z" fill="black"/>
<path d="M1550.89 309.539C1539.99 309.539 1529.08 309.539 1518.18 309.539C1516.35 309.539 1513.45 310.101 1513.26 307.715C1513.03 305.048 1515.93 305.422 1517.71 305.422C1522.62 305.422 1524.64 302.522 1525.29 298.217C1525.62 295.925 1525.71 293.539 1525.71 291.247C1525.71 266.497 1525.71 241.795 1525.81 217.046C1525.81 210.59 1524.64 205.35 1516.96 204.367C1515.6 204.18 1513.92 203.525 1514.15 201.934C1514.43 199.829 1516.54 200.157 1517.94 200.297C1530.77 201.841 1543.54 201.607 1556.41 200.718C1557.4 200.671 1558.47 200.718 1558.89 201.747C1559.46 203.244 1558.24 203.759 1557.21 204.32C1557.02 204.414 1556.83 204.508 1556.65 204.554C1545.56 204.975 1546.07 212.555 1546.16 220.601C1546.45 241.842 1546.21 263.035 1546.26 284.276C1546.26 298.545 1547.29 299.668 1561.19 301.399C1567.65 302.194 1574.01 301.118 1580.38 300.557C1585.52 300.089 1587.02 295.785 1588.52 291.668C1589.13 289.983 1589.5 287.036 1591.84 287.691C1593.95 288.299 1593.06 291.106 1592.78 292.884C1590.11 310.522 1591.94 309.914 1574.29 309.727C1566.52 309.633 1558.71 309.727 1550.94 309.727V309.586L1550.89 309.539Z" fill="black"/>
<path d="M1604.99 200.157C1621.19 201.327 1636.4 202.169 1652.17 199.689C1651.18 203.947 1648.61 203.807 1646.5 204.181C1641.08 205.257 1638.45 208.391 1638.45 213.959C1638.5 238.521 1638.41 263.036 1638.6 287.598C1638.69 298.359 1640.51 300.136 1651 301.025C1655.44 301.4 1659.94 301.587 1664.38 301.493C1672.1 301.306 1679.26 300.043 1681.75 290.967C1682.17 289.423 1683.15 287.037 1685.11 287.598C1687.36 288.253 1686.19 290.592 1685.82 292.136C1681.42 311.458 1686.05 309.681 1664.76 309.727C1647.63 309.727 1630.45 309.681 1613.32 309.634C1611.97 309.634 1610.61 309.634 1609.25 309.493C1608.08 309.353 1606.72 308.979 1606.58 307.669C1606.44 306.218 1607.75 305.61 1608.92 305.61C1617.07 305.891 1617.86 300.324 1617.86 294.288C1617.91 267.808 1617.86 241.328 1617.96 214.848C1617.96 209.421 1615.94 205.912 1610.56 204.508C1608.74 204.04 1606.72 203.76 1604.9 200.251L1604.99 200.157Z" fill="black"/>
<path d="M1942.66 500.983C1942.7 506.504 1937.32 511.837 1931.8 511.79C1926.84 511.744 1922.16 506.551 1922.25 501.124C1922.34 495.93 1927.17 490.737 1932.08 490.503C1937.09 490.269 1942.61 495.743 1942.66 500.936V500.983Z" fill="black"/>
</svg>
