<svg width="2069" height="454" viewBox="0 0 2069 454" fill="none" xmlns="http://www.w3.org/2000/svg">
<mask id="mask0_7953_118454" style="mask-type:luminance" maskUnits="userSpaceOnUse" x="0" y="0" width="2069" height="454">
<path d="M2068.96 0.685547H0.09375V453.563H2068.96V0.685547Z" fill="white"/>
</mask>
<g mask="url(#mask0_7953_118454)">
<path d="M0.09375 318.354C0.09375 308.202 4.11923 298.517 11.2797 291.312C18.4402 284.154 28.1748 280.131 38.3305 280.131H139.887V419.877H38.3305C28.1748 419.877 18.4402 415.854 11.2797 408.696C4.11923 401.537 0.09375 391.806 0.09375 381.654V318.354Z" fill="#F6CCE1"/>
<path d="M139.938 176.831C140.078 171.918 141.154 167.099 143.12 162.608C145.085 158.117 147.94 154.093 151.497 150.678C155.054 147.309 159.219 144.643 163.805 142.865C168.392 141.087 173.259 140.245 178.173 140.385H279.73V419.878H139.938V176.784V176.831Z" fill="#EA9CC3"/>
<path d="M279.727 37.6454C279.82 32.6862 280.851 27.8206 282.816 23.3293C284.782 18.7911 287.636 14.7208 291.192 11.2588C294.749 7.84348 298.915 5.12996 303.548 3.30535C308.135 1.48074 313.049 0.59183 318.01 0.6854H381.33C386.291 0.59183 391.159 1.48074 395.792 3.30535C400.378 5.12996 404.591 7.79669 408.148 11.2588C411.705 14.6741 414.559 18.7911 416.524 23.3293C418.49 27.8674 419.567 32.733 419.614 37.6454V382.917C419.52 387.877 418.49 392.742 416.524 397.233C414.559 401.725 411.705 405.842 408.148 409.304C404.591 412.719 400.425 415.433 395.792 417.257C391.206 419.082 386.291 419.971 381.33 419.877H279.773V37.6454H279.727Z" fill="#D43385"/>
<path d="M491.924 157.788C491.924 201.579 517.384 229.416 565.963 239.943L611.312 250.095C634.806 255.194 644.586 266.563 644.586 285.745C644.586 309.652 623.62 324.108 590.205 324.108C556.789 324.108 538.537 309.652 538.115 285.324H487.992C489.162 336.6 529.083 369.162 590.205 369.162C651.326 369.162 695.084 334.729 695.084 281.488C695.084 238.867 671.17 213.837 622.264 203.217L577.241 193.438C553.42 188.011 542.281 176.69 542.281 156.291C542.281 132.478 562.264 117.6 593.153 117.6C621.093 117.6 638.924 132.057 640.141 156.712H690.264C688.673 105.062 651.888 72.874 593.949 72.874C533.483 72.9208 491.971 107.729 491.971 157.835L491.924 157.788Z" fill="#D43385"/>
<path d="M729.102 453.563H776.838V338.145C789.006 357.701 814.045 369.116 842.967 369.116C900.485 369.116 933.433 325.326 933.433 265.02C933.433 204.714 897.443 164.9 842.967 164.9C813.624 164.9 788.164 177.766 776.417 199.849L773.328 170.515H729.055V453.609L729.102 453.563ZM777.259 267.359C777.259 232.411 798.788 208.27 831.642 208.27C864.496 208.27 885.275 232.926 885.275 267.359C885.275 301.793 865.292 326.027 831.642 326.027C797.993 326.027 777.259 302.12 777.259 267.359Z" fill="#D43385"/>
<path d="M1054.04 369.069C1104.58 369.069 1139.82 343.618 1148.06 301.372H1103.79C1098.27 319.758 1081.09 329.957 1054.84 329.957C1023.1 329.957 1005.04 312.694 1001.58 278.681H1147.22V263.803C1147.22 203.591 1110.43 164.854 1052.5 164.854C994.556 164.854 956.18 206.773 956.18 267.359C956.18 327.945 996.521 369.069 1054.04 369.069ZM1052.92 203.966C1081.42 203.966 1099.9 221.557 1099.9 248.13H1002.79C1007.47 219.217 1024.74 203.966 1052.92 203.966Z" fill="#D43385"/>
<path d="M1229.31 363.969V259.873C1229.31 228.574 1247.32 208.222 1276.71 208.222C1301.38 208.222 1317.38 223.895 1317.38 256.364V363.969H1365.12V245.182C1365.12 195.076 1340.08 164.993 1291.6 164.993C1279.52 164.479 1267.5 167.052 1256.68 172.432C1245.87 177.812 1236.61 185.906 1229.73 195.871L1225.8 170.841H1181.52V363.969H1229.26H1229.31Z" fill="#D43385"/>
<path d="M1487.69 369.116C1517.04 369.116 1542.07 356.203 1553.82 334.167L1556.96 364.016H1601V72.9209H1553.59V195.31C1541.51 176.175 1517.6 164.853 1490.69 164.853C1432.33 164.853 1397.09 207.895 1397.09 268.107C1397.09 328.319 1431.67 369.069 1487.69 369.069V369.116ZM1498.27 325.325C1464.99 325.325 1444.59 300.997 1444.59 266.657C1444.59 232.317 1464.99 207.568 1498.27 207.568C1531.54 207.568 1553.07 231.802 1553.07 266.657C1553.07 301.512 1531.54 325.325 1498.27 325.325Z" fill="#D43385"/>
<path d="M1627.53 170.748V210.655H1655.47V364.016H1702.88V210.655H1779.77V364.016H1827.51V72.9209H1779.77V170.748H1702.88V147.402C1702.88 128.174 1707.56 115.682 1729.09 115.682H1745.94V74.8858C1737.79 73.4823 1729.51 72.8273 1721.27 72.9209C1682.1 72.9209 1655.47 94.7694 1655.47 147.262V170.748H1627.53Z" fill="#D43385"/>
<path d="M1862.33 266.938C1862.33 327.243 1905.76 368.648 1965.66 368.648C2025.57 368.648 2069 327.197 2069 266.938C2069 206.679 2025.57 165.228 1965.66 165.228C1905.76 165.228 1862.33 206.726 1862.33 266.938ZM1910.07 266.938C1910.07 231.989 1932.81 207.895 1965.99 207.895C1999.17 207.895 2021.54 231.709 2021.54 266.938C2021.54 302.167 1998.8 326.027 1965.99 326.027C1933.19 326.027 1910.07 302.12 1910.07 266.938Z" fill="#D43385"/>
</g>
</svg>
