<svg width="112" height="110" viewBox="0 0 112 110" fill="none" xmlns="http://www.w3.org/2000/svg">
<path d="M100.486 109.981H7.94344C7.76702 109.937 7.59693 109.88 7.41421 109.855C3.02901 109.25 0.00472543 105.836 0.00472543 101.413C-0.00157514 70.429 -0.00157514 39.4387 0.00472543 8.45475C0.00472543 4.46678 2.66358 1.15292 6.55104 0.270905C7.61583 0.0252004 8.71216 0 9.80216 0C33.3726 0 56.9431 0 80.5135 0C80.8412 0 81.1688 -1.17349e-08 81.4965 0.0126002C86.9717 0.252005 90.2858 3.71077 90.2921 9.18557C90.2921 11.9513 90.2921 14.7108 90.2921 17.4765C90.2921 26.7881 90.2921 36.0997 90.2921 45.4112C90.2921 46.7784 90.3362 46.8036 91.7097 46.8288C92.7997 46.8477 93.9085 46.7784 94.9733 46.9611C102.162 48.1707 107.083 54.0172 107.102 61.3127C107.108 64.4754 107.108 67.638 107.102 70.807C107.102 71.4496 107.178 71.9725 107.971 72.0418C109.818 72.2056 111.034 73.2451 111.827 74.858V99.9576C110.876 104.248 108.488 107.373 104.386 109.105C103.133 109.635 101.797 109.779 100.48 110L100.486 109.981ZM73.2363 106.629C72.8898 106.201 72.7197 105.974 72.537 105.76C70.6972 103.599 69.7144 101.066 69.6829 98.2629C69.6136 90.9548 69.6388 83.6466 69.664 76.3322C69.6703 74.0327 70.9934 72.5017 73.2742 72.1111C74.1752 71.9536 74.4713 71.5693 74.4587 70.6684C74.4146 67.6884 74.4209 64.7022 74.4461 61.7222C74.5091 54.1873 78.825 48.7818 86.14 47.0871C86.8016 46.9359 87.0914 46.6398 87.0725 45.9908C87.0662 45.7703 87.0725 45.5561 87.0725 45.3356C87.0725 33.4095 87.0725 21.4771 87.0725 9.55097C87.0725 8.59966 87.0095 7.65464 86.6945 6.75372C85.9258 4.56758 83.9914 3.35166 81.2759 3.35166C57.2014 3.35166 33.1206 3.35166 9.04604 3.35166C8.79402 3.35166 8.53572 3.35166 8.2837 3.36426C5.56184 3.52806 3.58981 5.4307 3.36929 8.13345C3.29368 9.04066 3.25585 9.94788 3.25585 10.8551C3.25585 40.2766 3.25585 69.6982 3.25585 99.1134C3.25585 100.096 3.30623 101.079 3.39444 102.056C3.58976 104.179 5.04519 105.867 7.09918 106.415C7.77334 106.598 8.45381 106.636 9.15318 106.636C30.0648 106.636 50.9764 106.636 71.8943 106.636H73.2426L73.2363 106.629ZM90.8654 75.3557C85.4469 75.3557 80.0347 75.3557 74.6162 75.3557C73.2616 75.3557 73.0032 75.6077 72.9969 76.9433C72.9906 83.9553 72.9528 90.9737 73.0158 97.9857C73.0599 102.906 76.7899 106.592 81.6791 106.623C87.7466 106.661 93.8204 106.661 99.8878 106.623C104.626 106.592 108.312 103.139 108.539 98.4204C108.872 91.4147 108.608 84.3963 108.671 77.3843C108.683 75.6014 108.431 75.3557 106.674 75.3557C101.406 75.3557 96.1327 75.3557 90.8654 75.3557ZM90.6638 71.9977C94.5512 71.9977 98.445 71.9788 102.332 72.0103C103.341 72.0229 103.775 71.7079 103.756 70.6369C103.706 67.3293 103.782 64.0218 103.712 60.7142C103.611 55.7371 100.228 51.5601 95.3577 50.4387C92.7871 49.8465 90.1598 49.9662 87.545 50.2182C82.2084 50.7348 77.9429 55.315 77.8547 60.689C77.8043 63.9966 77.8673 67.3041 77.8169 70.6117C77.798 71.6575 78.1698 72.0166 79.2094 72.0103C83.0275 71.9725 86.8456 71.9914 90.6575 71.9914L90.6638 71.9977Z" fill="#0E2B72"/>
<path d="M45.1614 17.0919C34.3622 17.0919 23.5629 17.0919 12.7637 17.0919C12.3668 17.0919 11.9636 17.1045 11.5666 17.0856C10.4577 17.0352 9.87177 16.506 9.83396 15.5358C9.79616 14.5529 10.3129 13.9607 11.3966 13.8095C11.9006 13.7402 12.4109 13.7402 12.9213 13.7402C34.4125 13.7402 55.9039 13.7402 77.3888 13.7402C77.9685 13.7402 78.5544 13.7591 79.1278 13.8473C80.0666 13.9859 80.5202 14.5844 80.4824 15.5232C80.4445 16.4745 79.909 16.9848 78.9828 17.0667C78.5859 17.1045 78.1827 17.0856 77.7858 17.0856C66.911 17.0856 56.0425 17.0856 45.1677 17.0856L45.1614 17.0919Z" fill="#0E2B72"/>
<path d="M45.1609 26.9887C56.0357 26.9887 66.9105 26.9887 77.779 26.9887C78.283 26.9887 78.8059 26.9761 79.2974 27.0895C80.1039 27.2785 80.5134 27.8455 80.4819 28.6897C80.4567 29.4772 80.0661 30.0128 79.2848 30.1703C78.7556 30.2774 78.2011 30.3152 77.6592 30.3152C55.9853 30.3215 34.3113 30.3215 12.6373 30.3152C12.0955 30.3152 11.541 30.2774 11.0118 30.164C10.2368 30.0065 9.84617 29.4709 9.82727 28.6834C9.80207 27.8392 10.2115 27.2722 11.018 27.0895C11.5032 26.9761 12.0261 26.995 12.5365 26.995C23.4113 26.995 34.2861 26.995 45.1546 26.995L45.1609 26.9887Z" fill="#0E2B72"/>
<path d="M45.1601 43.4716C34.3231 43.4716 23.4861 43.4716 12.6491 43.4716C12.1073 43.4716 11.5528 43.459 11.0235 43.3456C10.2044 43.1692 9.81387 42.5959 9.82647 41.758C9.84537 40.9642 10.2423 40.4413 11.011 40.2712C11.4646 40.1704 11.9435 40.1389 12.416 40.1389C34.2349 40.1389 56.06 40.1389 77.8789 40.1389C78.3893 40.1389 78.8997 40.1263 79.3911 40.2964C80.0968 40.5295 80.4622 41.0146 80.4811 41.758C80.5 42.5392 80.1598 43.0747 79.4037 43.3393C78.8367 43.5346 78.2507 43.4905 77.671 43.4905C66.8341 43.4905 55.9971 43.4905 45.1601 43.4905V43.4716Z" fill="#0E2B72"/>
<path d="M31.3698 91.0554C31.3824 97.009 26.5184 101.942 20.6084 101.967C14.6922 101.992 9.63908 96.9334 9.69579 91.0491C9.75249 85.1144 14.6733 80.2507 20.6084 80.2696C26.4869 80.2885 31.3572 85.1648 31.3698 91.0617V91.0554ZM20.5517 98.5777C24.7227 98.5777 28.0683 95.3017 28.125 91.1436C28.1817 87.0737 24.7731 83.6339 20.6462 83.615C16.4248 83.5961 13.0414 86.9288 13.0477 91.1058C13.0477 95.245 16.3933 98.5777 20.5517 98.5777Z" fill="#FFB400"/>
<path d="M37.7327 66.4861C46.1692 66.4861 54.6057 66.4861 63.0422 66.4861C63.4769 66.4861 63.9242 66.4609 64.3463 66.5428C65.1591 66.694 65.6065 67.2169 65.638 68.0611C65.6632 68.8801 65.3229 69.4597 64.5165 69.718C63.9494 69.8944 63.3635 69.8566 62.7838 69.8566C46.0936 69.8566 29.3971 69.8566 12.7068 69.8566C12.165 69.8566 11.6105 69.844 11.0813 69.7369C10.2118 69.5605 9.80221 68.962 9.83372 68.0737C9.86522 67.1728 10.3693 66.6625 11.2262 66.5302C11.6546 66.4609 12.0956 66.4924 12.5304 66.4924C20.9291 66.4924 29.334 66.4924 37.7327 66.4924V66.4861Z" fill="#0E2B72"/>
<path d="M37.8575 53.3689C46.4389 53.3689 55.014 53.3689 63.5953 53.3689C65.0634 53.3689 65.7249 53.9548 65.6367 55.1329C65.5737 55.9708 65.1264 56.4748 64.2821 56.5819C63.9608 56.6197 63.6269 56.6134 63.2992 56.6134C46.2877 56.6134 29.2761 56.6134 12.2582 56.6134C11.9306 56.6134 11.603 56.6197 11.2753 56.5882C10.3302 56.4937 9.83253 55.9519 9.82623 55.0069C9.81993 54.0682 10.2925 53.4949 11.2439 53.4004C11.6786 53.3563 12.1133 53.3689 12.5544 53.3689C20.9908 53.3689 29.421 53.3689 37.8575 53.3689Z" fill="#0E2B72"/>
<path d="M92.4722 85.4498C92.4722 85.6703 92.4974 85.8908 92.4722 86.105C92.3084 87.3147 92.6738 88.0329 93.8961 88.6377C96.6243 89.9733 97.6135 93.4321 96.3344 96.3742C95.0806 99.2723 91.8863 100.677 88.8053 99.6818C85.9637 98.762 84.1996 95.6623 84.7981 92.6572C85.1951 90.6726 86.2787 89.1921 88.1374 88.3668C88.8493 88.0518 89.1329 87.636 89.0951 86.8799C89.051 85.9034 89.0636 84.9206 89.1014 83.9378C89.1518 82.7471 89.7945 82.0415 90.7774 82.0352C91.7603 82.0352 92.4029 82.7471 92.4596 83.9189C92.4848 84.4292 92.4596 84.9332 92.4596 85.4435H92.4659L92.4722 85.4498ZM93.4992 93.9046C93.4992 92.2351 92.3525 91.0758 90.7206 91.0884C89.1581 91.101 88.0618 92.2602 88.0618 93.8983C88.0618 95.6497 89.0888 96.6766 90.8277 96.6577C92.4911 96.6388 93.5055 95.593 93.4992 93.9046Z" fill="#FFB400"/>
</svg>
