<svg width="135" height="110" viewBox="0 0 135 110" fill="none" xmlns="http://www.w3.org/2000/svg">
<path d="M0 90.5738C0.782421 89.6806 1.76563 89.4383 2.92887 89.4452C9.47906 89.4798 16.0223 89.4591 22.5725 89.4591C24.2827 89.4591 24.2897 89.4591 24.2897 87.7074C24.2897 62.3186 24.2897 36.923 24.2897 11.5342C24.2897 8.57786 24.8228 8.05859 27.821 8.05859C31.1376 8.05859 34.4542 8.05859 37.7709 8.05859C38.7333 8.05859 39.6057 8.25245 40.1389 9.15252C41.0113 10.6203 39.9173 12.2889 37.9924 12.3304C35.3751 12.3858 32.7509 12.3997 30.1336 12.3304C28.9426 12.2958 28.548 12.6766 28.548 13.8882C28.5757 38.5846 28.5757 63.2741 28.548 87.9705C28.548 89.1129 28.9011 89.466 30.0505 89.4591C54.7141 89.4314 79.3777 89.4244 104.034 89.4591C105.336 89.4591 105.537 88.9398 105.537 87.832C105.509 78.4506 105.523 69.0691 105.523 59.6946C105.523 59.0438 105.468 58.3791 105.724 57.756C106.112 56.8144 106.818 56.2467 107.85 56.3505C108.854 56.4474 109.546 57.0429 109.733 58.0676C109.823 58.5799 109.802 59.113 109.802 59.6323C109.802 69.0137 109.83 78.3952 109.781 87.7697C109.774 89.0644 110.1 89.5006 111.457 89.4867C118.007 89.4175 124.55 89.4521 131.101 89.4591C133.586 89.4591 134.189 90.0683 134.189 92.54C134.189 94.811 134.203 97.075 134.189 99.3459C134.175 101.049 133.42 101.804 131.696 101.852C130.346 101.887 128.989 101.921 127.639 101.852C126.475 101.79 125.956 102.129 126.053 103.389C126.157 104.781 126.094 106.179 126.067 107.578C126.032 109.129 125.277 109.974 123.733 109.974C115.791 110.008 107.843 110.008 99.9006 109.974C98.3358 109.974 97.5465 109.122 97.4634 107.481C97.3872 106.089 97.3872 104.691 97.4426 103.292C97.4911 102.212 97.0756 101.838 95.9955 101.852C92.021 101.894 88.0536 101.866 84.0791 101.866C74.9116 101.866 65.7441 101.866 56.5767 101.866C56.0989 101.866 55.6142 101.887 55.1365 101.838C53.8278 101.7 52.9138 100.765 52.9554 99.6575C52.9969 98.5566 53.8486 97.7327 55.1295 97.6081C55.6488 97.5596 56.175 97.5804 56.7013 97.5804C80.444 97.5804 104.194 97.5804 127.936 97.5596C128.622 97.5596 129.619 97.9889 129.951 97.1511C130.311 96.2442 130.152 95.171 130 94.1809C129.944 93.8209 129.584 93.7655 129.273 93.7586C128.836 93.7378 128.4 93.7378 127.964 93.7378C87.3681 93.7378 46.7722 93.7378 6.1832 93.7378C5.837 93.7378 5.48386 93.7586 5.13766 93.7378C4.38986 93.7032 4.01597 93.9871 4.02289 94.7971C4.05751 98.1204 3.7459 97.5666 6.67478 97.5666C19.4636 97.5873 32.2524 97.5735 45.0411 97.5735C45.5189 97.5735 46.0036 97.5527 46.4814 97.6012C47.7623 97.7327 48.5517 98.5636 48.5378 99.7129C48.524 100.869 47.7485 101.693 46.4675 101.825C45.8166 101.887 45.1588 101.859 44.508 101.859C42.4585 101.859 40.402 101.935 38.3525 101.831C36.9884 101.762 36.5799 102.282 36.6699 103.569C36.7599 104.829 36.7253 106.103 36.6699 107.363C36.5799 109.177 35.7629 109.967 33.928 109.974C26.1592 109.987 18.3903 109.994 10.6215 109.974C8.83511 109.974 8.08041 109.177 8.05271 107.405C8.03194 105.923 8.02501 104.435 8.05271 102.953C8.06656 102.171 7.7619 101.845 6.97256 101.859C5.53235 101.88 4.0921 101.845 2.65189 101.859C1.52327 101.873 0.588518 101.555 0.0138194 100.509V90.5599L0 90.5738ZM22.2678 105.702C25.2313 105.702 28.2018 105.681 31.1653 105.716C32.0377 105.723 32.4947 105.453 32.4047 104.518C32.3701 104.172 32.3632 103.819 32.4047 103.472C32.5778 102.205 32.0446 101.825 30.7914 101.838C25.3837 101.894 19.969 101.859 14.5613 101.866C11.8886 101.866 12.2002 101.582 12.131 104.366C12.1033 105.404 12.4703 105.736 13.495 105.716C16.417 105.667 19.3389 105.695 22.2678 105.695V105.702ZM111.838 101.866C109.179 101.866 106.513 101.866 103.854 101.866C102.414 101.866 101.696 102.568 101.701 103.971C101.701 105.695 101.701 105.702 103.439 105.702C108.805 105.702 114.171 105.709 119.537 105.702C122.203 105.702 121.898 106.02 121.968 103.216C121.995 102.185 121.628 101.838 120.611 101.852C117.689 101.901 114.767 101.866 111.838 101.866Z" fill="#0E2B72"/>
<path d="M116.553 0C117.619 0.671587 117.972 1.63396 117.965 2.88021C117.931 10.5446 117.952 18.2159 117.945 25.8803C117.945 27.9228 117.245 28.6013 115.175 28.6151C112.862 28.6221 110.557 28.629 108.244 28.6151C106.437 28.6013 105.703 27.9366 105.592 26.1226C105.509 24.731 105.516 23.3324 105.564 21.9408C105.606 20.8953 105.274 20.4245 104.152 20.4869C102.802 20.563 101.451 20.5145 100.101 20.5007C98.2802 20.4799 97.4978 19.7183 97.4355 17.8697C97.3939 16.5196 97.3732 15.1695 97.4355 13.8195C97.4839 12.7671 97.1308 12.3101 96.023 12.3724C94.6312 12.4486 93.2325 12.414 91.8408 12.3793C90.2136 12.3447 89.3828 11.6178 89.3343 9.99764C89.2581 7.47054 89.3066 4.94343 89.3274 2.41633C89.3343 1.30163 89.9921 0.567733 90.8922 0.0138468H116.56L116.553 0ZM103.591 4.24415C101.105 4.24415 98.6195 4.2303 96.1268 4.24415C93.3364 4.27184 93.6134 3.81489 93.558 6.86126C93.5372 7.87903 93.9942 8.1352 94.9013 8.11443C96.3415 8.07981 97.7817 8.06596 99.2219 8.12827C100.918 8.20443 101.659 9.00757 101.687 10.69C101.708 12.1301 101.728 13.5702 101.687 15.0103C101.659 15.9173 102.026 16.2635 102.919 16.2427C104.36 16.215 105.8 16.1942 107.24 16.2635C109.137 16.3535 109.802 17.0943 109.823 18.9706C109.837 20.2791 109.892 21.5946 109.809 22.8963C109.733 24.0802 110.231 24.4887 111.339 24.3641C111.644 24.3294 111.948 24.3364 112.253 24.3641C113.333 24.461 113.707 23.9763 113.707 22.9101C113.679 17.1497 113.672 11.3962 113.707 5.63579C113.714 4.53494 113.292 4.20261 112.232 4.22338C109.352 4.27185 106.471 4.23723 103.591 4.23723V4.24415Z" fill="#FFB400"/>
<path d="M65.2409 8.05893C70.9601 8.05893 76.6725 8.05893 82.3918 8.05893C84.7529 8.05893 85.4384 8.75129 85.4522 11.0915C85.4522 11.5692 85.4522 12.0538 85.4522 12.5316C85.4522 14.9779 86.6547 16.2011 89.0597 16.2011C89.669 16.2011 90.2852 16.1872 90.8946 16.208C92.7918 16.2772 93.5534 17.0596 93.5742 18.9774C93.588 20.376 93.6088 21.7676 93.5742 23.1662C93.5534 24.0039 93.8858 24.357 94.7236 24.3363C96.1223 24.3086 97.514 24.3086 98.9127 24.3363C100.928 24.3778 101.682 25.1394 101.703 27.1195C101.717 28.4696 101.752 29.8266 101.696 31.1767C101.655 32.1599 102.063 32.4991 103.005 32.4645C104.355 32.423 105.712 32.423 107.062 32.4715C109.091 32.5476 109.811 33.2954 109.818 35.3032C109.832 39.9281 109.818 44.5531 109.818 49.1711C109.818 49.4757 109.825 49.7873 109.763 50.085C109.534 51.1236 108.953 51.8367 107.824 51.8852C106.661 51.9336 105.92 51.3382 105.664 50.2027C105.407 49.088 105.553 47.9456 105.546 46.8102C105.525 43.8884 105.504 40.9667 105.553 38.0449C105.567 37.0064 105.186 36.6533 104.175 36.7018C102.866 36.7641 101.558 36.7225 100.249 36.7156C98.2618 36.6948 97.4932 35.954 97.4448 33.9462C97.4101 32.5545 97.4101 31.156 97.4448 29.7574C97.4586 28.9335 97.1401 28.5666 96.2885 28.5943C94.8482 28.6289 93.408 28.615 91.9678 28.5943C90.2091 28.5666 89.399 27.8119 89.3298 26.0602C89.2744 24.6201 89.2744 23.18 89.3228 21.7399C89.3574 20.7637 88.9558 20.4314 88.0072 20.466C86.6155 20.5144 85.2168 20.4937 83.8182 20.466C82.0733 20.4383 81.2632 19.6559 81.2009 17.9043C81.1524 16.4642 81.1593 15.024 81.194 13.5839C81.2147 12.7185 80.9239 12.3377 79.9961 12.3169C77.3441 12.2408 77.3442 12.2062 77.3442 14.8648C77.3442 21.9338 77.3442 28.9958 77.3442 36.0648C77.3442 39.0281 75.8209 39.8935 73.2243 38.4119C71.5556 37.4564 69.8661 36.5564 68.2321 35.5455C67.4289 35.047 66.7988 34.9986 65.9748 35.5109C64.2715 36.5702 62.5058 37.5326 60.7541 38.5088C58.386 39.8381 56.8142 38.945 56.8073 36.231C56.7935 28.8158 56.7658 21.4007 56.8281 13.9855C56.842 12.6285 56.3988 12.2615 55.104 12.31C52.6667 12.4 50.2156 12.3377 47.7714 12.3377C47.2452 12.3377 46.7259 12.3308 46.2273 12.1161C45.3826 11.7561 44.8702 11.1122 44.8633 10.2122C44.8633 9.25671 45.3757 8.5782 46.2966 8.23202C46.8436 8.02431 47.4113 8.05201 47.9791 8.05201C53.74 8.05201 59.5008 8.05201 65.2616 8.05201L65.2409 8.05893ZM73.0304 22.9862C73.0304 19.8913 73.0235 16.7896 73.0304 13.6947C73.0304 12.9193 72.9612 12.3308 71.9364 12.3377C68.6613 12.3654 65.3932 12.3585 62.1181 12.3377C61.4257 12.3377 61.0657 12.5939 61.0657 13.3278C61.0657 19.6975 61.0657 26.0671 61.0657 32.4299C61.0657 33.2607 61.3842 33.3023 62.0142 32.9353C63.1775 32.2499 64.3823 31.6268 65.5316 30.9206C66.5772 30.2767 67.5604 30.2975 68.5991 30.9344C69.6792 31.5922 70.8148 32.1599 71.8811 32.8315C72.802 33.4061 73.0582 33.1638 73.0443 32.1391C73.0097 29.0858 73.0304 26.0325 73.0304 22.9792V22.9862Z" fill="#0E2B72"/>
<path d="M40.5438 76.048C40.5438 73.8255 40.4814 71.5961 40.5715 69.3806C40.6199 68.1412 40.1491 67.7604 38.9789 67.8505C38.0234 67.9197 37.054 67.9197 36.1054 67.802C34.1182 67.5458 33.5158 66.1542 34.7206 64.5479C35.3645 63.6825 36.1885 62.9416 36.9571 62.1662C39.5398 59.5699 42.1294 56.9735 44.7328 54.398C46.2215 52.9232 47.2948 52.9094 48.7696 54.3703C51.9616 57.5343 55.1259 60.7192 58.3041 63.8971C58.5187 64.1117 58.7264 64.3402 58.9065 64.5825C60.0559 66.175 59.4465 67.6012 57.4662 67.8089C56.4761 67.9128 55.4582 67.9197 54.4612 67.8435C53.3256 67.7605 52.9309 68.162 52.9517 69.3252C53.0071 73.687 52.9794 78.0489 52.9725 82.4038C52.9725 84.7717 52.3078 85.4225 49.9328 85.4225C47.6617 85.4225 45.3975 85.4363 43.1264 85.4225C41.3608 85.4086 40.5922 84.6401 40.5645 82.8538C40.5368 80.5898 40.5576 78.3189 40.5576 76.0549L40.5438 76.048ZM51.9962 63.3363C50.9368 62.3878 50.1475 61.6539 49.3304 60.9477C48.4511 60.1861 47.821 58.7113 46.7408 58.7321C45.6745 58.7529 44.989 60.1584 44.1651 60.9823C43.3965 61.7439 42.4687 62.3947 41.9355 63.4401C44.4074 63.9317 44.8367 64.4648 44.8367 66.9158C44.8367 71.1807 44.8782 75.4525 44.809 79.7175C44.7882 80.9914 45.2037 81.4968 46.45 81.3099C46.5331 81.296 46.6231 81.3099 46.7131 81.3099C48.0195 81.3099 48.6726 80.6775 48.6726 79.4128C48.6726 75.2725 48.6726 71.1392 48.6726 66.9989C48.6726 64.4441 49.0465 63.9733 51.9962 63.3294V63.3363Z" fill="#FFB400"/>
<path d="M87.8803 85.4297C84.0443 85.4297 80.2084 85.4297 76.3655 85.4297C74.1844 85.4297 73.5266 84.7858 73.5197 82.6534C73.5128 80.3893 73.5059 78.1184 73.5197 75.8544C73.5266 73.9158 74.2121 73.1542 76.1785 73.085C78.3112 73.0157 80.4507 73.0573 82.5902 73.0573C87.9079 73.0573 93.2326 73.0504 98.5502 73.0573C101.555 73.0573 102.172 73.6873 102.179 76.6437C102.179 78.6515 102.199 80.6524 102.172 82.6603C102.137 84.6958 101.396 85.4228 99.395 85.4228C95.5591 85.4297 91.7231 85.4228 87.8803 85.4228V85.4297ZM87.7902 81.3102C90.3245 81.3102 92.8518 81.324 95.386 81.3102C98.1625 81.2894 97.8302 81.6771 97.9202 78.79C97.9548 77.6545 97.6017 77.2737 96.4384 77.2876C91.0722 77.343 85.6992 77.2945 80.333 77.3153C77.6534 77.3222 77.8195 76.8514 77.778 79.9601C77.7642 80.9779 78.1242 81.3448 79.149 81.324C82.0294 81.2756 84.9098 81.3033 87.7902 81.3102Z" fill="#0E2B72"/>
<path d="M87.7387 69.1868C83.8127 69.1868 79.8937 69.1937 75.9677 69.1868C74.6106 69.1868 73.7451 68.5221 73.5651 67.4421C73.392 66.4105 73.9806 65.4204 75.0399 65.1434C75.6216 64.9911 76.2447 64.9357 76.8471 64.9357C84.1728 64.9219 91.4915 64.9288 98.8172 64.9357C99.2119 64.9357 99.6066 64.9357 99.9874 64.998C101.331 65.1919 102.182 66.0989 102.106 67.2136C102.023 68.3906 101.151 69.1591 99.7658 69.1868C97.8063 69.2214 95.8399 69.2007 93.8803 69.2007C91.8308 69.2007 89.7813 69.2007 87.7318 69.2007L87.7387 69.1868Z" fill="#0E2B72"/>
</svg>
