<svg width="114" height="110" viewBox="0 0 114 110" fill="none" xmlns="http://www.w3.org/2000/svg">
<path d="M0.00645757 100.258C0.00645757 72.1457 0.00645757 44.0267 0.00645757 15.9141C0.0967754 15.6367 0.193573 15.3593 0.277439 15.0755C1.95477 9.55363 6.24489 6.35404 11.9994 6.34113C13.8767 6.34113 15.7541 6.30243 17.6314 6.35404C18.6184 6.37984 19.0636 6.05085 19.0055 5.03162C18.9539 4.15431 19.0055 3.2641 19.0055 2.38034C19.0055 1.34177 19.3732 0.516064 20.328 0.0129016H21.4312C22.3344 0.503162 22.7085 1.28371 22.715 2.27713C22.715 3.27055 22.7472 4.25753 22.7407 5.25095C22.7407 5.96054 23.0117 6.34113 23.7794 6.33468C29.7984 6.32178 35.8239 6.32178 41.8429 6.33468C42.5719 6.33468 42.8107 5.96699 42.7978 5.30256C42.7849 4.34784 42.8172 3.39312 42.7978 2.4384C42.772 1.34177 43.1655 0.509613 44.1719 0.00645064H45.2751C46.1782 0.561219 46.5331 1.36757 46.475 2.4255C46.4234 3.41247 46.475 4.40589 46.4621 5.39932C46.4556 6.0444 46.7524 6.34113 47.3976 6.32823C47.9846 6.31533 48.5717 6.32823 49.1587 6.32823C54.5585 6.32823 59.9517 6.30888 65.3514 6.34113C66.3062 6.34113 66.6868 6.02504 66.6288 5.06388C66.5707 4.18657 66.661 3.30281 66.6094 2.41905C66.5449 1.36112 66.8998 0.554769 67.8029 0H68.9061C69.906 0.503162 70.306 1.33531 70.2802 2.43195C70.2608 3.38667 70.2931 4.34139 70.2802 5.2961C70.2738 5.96054 70.5124 6.32823 71.2414 6.32823C77.2605 6.32178 83.286 6.32178 89.305 6.32823C90.0727 6.32823 90.3436 5.95409 90.3436 5.23805C90.3436 4.24463 90.3695 3.25765 90.3695 2.26423C90.3695 1.26436 90.7501 0.48381 91.6533 0H92.7564C93.7048 0.503162 94.0789 1.32886 94.0725 2.36744C94.0725 3.06413 94.079 3.76727 94.079 4.46395C94.079 5.70251 94.681 6.32178 95.8853 6.32178C97.7239 6.32178 99.5625 6.31533 101.408 6.32178C108.027 6.36049 113.143 11.476 113.149 18.1138C113.162 44.7943 113.149 71.4684 113.149 98.1489C113.149 98.8069 113.136 99.4778 113.013 100.123C111.917 106.083 107.181 109.993 100.969 109.993C71.3446 110.005 41.7204 109.999 12.0897 109.993C10.2317 109.993 8.4254 109.67 6.73517 108.87C3.04504 107.122 0.896727 104.167 0 100.232L0.00645757 100.258ZM56.5325 106.361C71.364 106.361 86.1955 106.361 101.027 106.361C105.22 106.361 108.439 103.871 109.349 99.9874C109.562 99.0778 109.51 98.1553 109.51 97.2393C109.51 71.1846 109.51 45.1362 109.51 19.0815C109.51 18.5267 109.51 17.9784 109.485 17.4236C109.323 13.5725 105.898 10.1471 102.027 10.031C99.7818 9.96648 97.5368 10.031 95.2918 9.99229C94.3628 9.97293 94.0661 10.3922 94.079 11.2631C94.1048 13.179 94.0919 15.0884 94.079 17.0043C94.079 17.443 94.0789 17.8881 94.0208 18.3267C93.8725 19.5266 93.2274 20.1716 92.221 20.1781C91.2081 20.1845 90.5501 19.5395 90.4081 18.3525C90.3501 17.8816 90.3436 17.3978 90.3436 16.9204C90.3372 15.082 90.3049 13.237 90.3501 11.3986C90.3759 10.3471 89.9824 9.97938 88.9309 9.98584C83.1505 10.0181 77.3765 10.0181 71.5962 9.98584C70.5769 9.98584 70.235 10.3471 70.2608 11.347C70.306 13.5918 70.2995 15.8367 70.2544 18.0816C70.2221 19.4427 69.4609 20.2168 68.3448 20.1781C67.2675 20.1394 66.6352 19.3782 66.6223 18.0429C66.6094 15.8367 66.6223 13.6241 66.6158 11.4179C66.6158 10.0568 66.5578 10.0052 65.1643 9.99874C59.4936 9.99874 53.8294 9.99874 48.1588 9.99874C47.0319 9.99874 46.4664 10.575 46.4621 11.7276C46.4621 13.9337 46.4814 16.1463 46.4427 18.3525C46.4234 19.3846 45.7718 20.0684 44.8622 20.1652C43.8945 20.2684 43.1009 19.6749 42.8945 18.6364C42.8106 18.2106 42.8107 17.759 42.8043 17.3204C42.7978 15.2626 42.7849 13.1983 42.8043 11.1405C42.8107 10.3664 42.5397 9.99229 41.7139 9.99874C35.753 10.0116 29.792 10.0116 23.8246 9.99874C22.9988 9.99874 22.7278 10.3987 22.7278 11.1599C22.7407 13.108 22.7343 15.0626 22.7278 17.0108C22.7278 17.5268 22.7085 18.0429 22.6311 18.5525C22.4698 19.5911 21.8054 20.1974 20.8699 20.1781C19.8248 20.1523 19.2442 19.5653 19.0958 18.5654C19.0184 18.0558 19.0055 17.5397 18.999 17.0237C18.9861 15.0755 18.9732 13.1209 18.999 11.1728C19.0119 10.3277 18.6571 9.98584 17.8056 9.99874C15.8573 10.031 13.9025 10.0826 11.9542 9.99229C7.34157 9.77941 3.52238 13.695 3.53528 18.4041C3.6127 44.8976 3.57404 71.391 3.58049 97.8909C3.58049 98.5875 3.59339 99.2971 3.74177 99.9745C4.59979 103.864 7.84476 106.367 12.0316 106.367C26.8631 106.374 41.6946 106.367 56.526 106.367L56.5325 106.361Z" fill="#0E2B72"/>
<path d="M56.6165 32.1782C69.0481 32.1782 81.4797 32.1782 93.9113 32.1782C94.3887 32.1782 94.879 32.1459 95.3435 32.2298C96.2338 32.3975 96.7885 32.9394 96.8466 33.8747C96.9047 34.8037 96.4466 35.4423 95.5693 35.6939C95.1177 35.8229 94.6274 35.8358 94.15 35.8358C69.0675 35.8358 43.9785 35.8358 18.8959 35.8358C18.4959 35.8358 18.0766 35.8358 17.6895 35.7519C16.7089 35.5326 16.1477 34.7779 16.238 33.836C16.3348 32.8491 16.9412 32.3265 17.8831 32.204C18.3153 32.1459 18.7669 32.1717 19.2056 32.1717C31.6759 32.1717 44.1462 32.1717 56.6165 32.1717V32.1782Z" fill="#0E2B72"/>
<path d="M66.848 88.7772C65.2674 88.7127 63.3191 88.874 61.3709 88.674C57.7904 88.2998 55.1777 86.0033 54.6551 82.4425C54.3068 80.0815 54.2938 77.6689 54.7003 75.3015C55.2938 71.7922 58.2807 69.328 61.8418 69.2829C63.532 69.2635 65.2287 69.2893 66.9189 69.27C69.3253 69.2442 70.8801 67.8121 71.0091 65.4124C71.0865 63.9481 71.0801 62.4708 71.0091 61.0001C70.8994 58.5488 69.3382 57.0973 66.8738 57.0715C65.2933 57.0522 63.7127 57.0522 62.1257 57.0715C59.9323 57.1038 58.4614 58.4326 58.1711 60.6001C57.9775 62.0386 57.2356 62.7353 56.0615 62.5676C54.9648 62.4128 54.3648 61.4 54.5584 60.0389C55.0616 56.4716 57.5324 53.9171 61.1515 53.4913C63.4095 53.2268 65.719 53.2268 67.9834 53.4913C71.6929 53.93 74.0928 56.3877 74.5702 60.1227C74.8283 62.1677 74.8347 64.2448 74.5573 66.2833C74.0219 70.2828 71.08 72.8437 67.0222 72.9276C65.3707 72.9598 63.7127 72.9276 62.0547 72.9405C59.7839 72.9663 58.2356 74.4758 58.1775 76.7271C58.1388 78.2366 58.1388 79.7461 58.1775 81.2491C58.2356 83.4811 59.7 84.9712 61.945 85.0035C65.0739 85.0486 68.1963 85.0164 71.3252 85.0293C71.8736 85.0293 72.4348 85.0486 72.9702 85.1389C73.996 85.3067 74.6347 86.0033 74.5831 86.9194C74.5314 87.9386 73.9509 88.5385 72.9445 88.6869C72.5445 88.7449 72.1381 88.7707 71.7381 88.7707C70.2285 88.7836 68.7189 88.7707 66.848 88.7707V88.7772Z" fill="#FFB400"/>
<path d="M48.4375 71.1204C48.4375 76.0488 48.4375 80.9772 48.4375 85.8992C48.4375 86.3765 48.4504 86.8668 48.3278 87.3183C48.0891 88.1892 47.4892 88.6795 46.5473 88.6601C45.6505 88.6408 45.0958 88.1376 44.8829 87.3119C44.7603 86.8216 44.7732 86.2927 44.7732 85.7831C44.7732 76.739 44.7732 67.695 44.7732 58.651C44.7732 57.0641 44.7732 57.0641 43.1668 57.0577C42.212 57.0577 41.2508 57.0835 40.296 57.0383C39.2445 56.9867 38.5219 56.2707 38.4767 55.3224C38.4316 54.3999 39.1154 53.5033 40.1476 53.4646C42.3475 53.3807 44.5602 53.3678 46.7601 53.4775C47.9214 53.5355 48.4311 54.3677 48.4311 55.7933C48.4375 60.9023 48.4311 66.0178 48.4311 71.1268L48.4375 71.1204Z" fill="#FFB400"/>
</svg>
