<svg width="84" height="83" viewBox="0 0 84 83" fill="none" xmlns="http://www.w3.org/2000/svg">
<path d="M83.0082 22.1246C82.9242 22.2135 82.8353 22.2975 82.7612 22.3913C82.3511 22.9248 81.9756 23.0829 81.4667 22.9199C80.9281 22.747 80.6021 22.3123 80.5922 21.6998C80.5823 20.3809 80.5922 19.0571 80.5922 17.7382C80.5922 17.3677 80.5526 17.0071 80.4983 16.6416C80.2661 15.1696 78.7245 13.7173 76.9557 13.7322C71.7778 13.7865 66.5998 13.7569 61.4218 13.7569C60.8141 13.7569 60.8091 13.7569 60.8091 14.3694C60.8091 16.1526 60.8091 17.9308 60.7894 19.7141C60.7894 20.1092 60.8981 20.2673 61.3131 20.2574C62.1876 20.2327 63.0621 20.2426 63.9416 20.2525C65.3349 20.2673 66.4565 21.3935 66.4417 22.7865C66.4318 23.7349 66.5207 24.6883 66.2984 25.6317C65.661 28.309 63.5117 30.0725 60.7548 30.0774C52.6271 30.0873 44.4995 30.0774 36.3718 30.0774C32.0832 30.0774 27.7995 30.0774 23.5109 30.0774C21.6087 30.0774 20.1116 29.2772 18.9406 27.8052C18.5602 27.331 18.2884 26.7975 18.1155 26.2195C17.7202 24.9007 17.6955 23.5472 17.9031 22.2086C18.076 21.1021 19.1383 20.2624 20.2648 20.2525C21.1541 20.2426 22.0484 20.2377 22.9378 20.2525C23.3083 20.2624 23.4565 20.1537 23.4516 19.7585C23.4318 17.916 23.4318 16.0735 23.4467 14.2261C23.4467 13.8705 23.338 13.742 22.9723 13.742C17.3497 13.742 11.727 13.7667 6.09944 13.7173C4.34051 13.7025 2.52723 15.1498 2.46794 17.3085C2.44323 18.1383 2.46301 18.9682 2.46301 19.798C2.46301 30.5664 2.46301 41.3348 2.46301 52.1032C2.46301 52.7947 2.46301 52.7898 3.14484 52.7898C28.0812 52.7898 53.0175 52.7898 77.9587 52.7898C78.6356 52.7898 79.3125 52.7651 79.9844 52.7997C80.4439 52.8244 80.5971 52.6762 80.5922 52.202C80.5724 49.421 80.5872 46.64 80.5922 43.8589C80.5922 38.5439 80.5922 33.2289 80.5922 27.9138C80.5922 27.8052 80.5922 27.6965 80.5922 27.5928C80.607 26.8864 80.8738 26.4764 81.4222 26.3035C81.9756 26.1257 82.4005 26.3085 82.8254 26.8963C82.8797 26.9704 82.9489 27.0296 83.0082 27.0988V60.466C82.86 60.6586 82.8402 60.8957 82.7958 61.118C82.3264 63.6619 79.7621 65.6723 77.3856 65.7662C76.6939 65.7909 76.0071 65.8304 75.3154 65.8304C67.2668 65.8304 59.2132 65.8304 51.1647 65.8156C50.7299 65.8156 50.5767 65.9193 50.5816 66.3787C50.6063 68.2854 50.6014 70.1872 50.5816 72.0939C50.5816 72.5088 50.715 72.6125 51.1103 72.6076C53.892 72.5928 56.6737 72.5928 59.4553 72.6076C60.5571 72.6125 61.5749 72.899 62.4495 73.6202C63.1758 74.2228 63.6551 74.9885 63.8329 75.8974C64.0503 77.0038 64.0503 78.14 63.8971 79.2464C63.5908 81.4841 61.8714 82.8771 59.5048 82.882C55.2161 82.8968 50.9324 82.8869 46.6438 82.8869C39.0695 82.8869 31.4953 82.8869 23.921 82.8869C23.1799 82.8869 22.4387 82.8622 21.747 82.5708C20.1956 81.9138 19.3013 80.7283 19.1383 79.0637C19.0543 78.1795 19.0493 77.2755 19.1432 76.3963C19.3853 74.1487 21.1245 72.6323 23.4565 72.6076C26.253 72.5829 29.0495 72.5977 31.8461 72.5977C32.2512 72.5977 32.4538 72.3968 32.4538 71.9951C32.4538 70.1081 32.4389 68.2162 32.4637 66.3293C32.4686 65.8996 32.3451 65.8106 31.9202 65.8106C26.8805 65.8354 21.8409 65.8354 16.8013 65.8354C15.9366 65.8354 15.403 65.376 15.3981 64.6498C15.3882 63.8595 15.9119 63.3853 16.821 63.3853C21.6581 63.3754 26.4951 63.3705 31.3322 63.3655C35.2355 63.3655 39.1338 63.3705 43.037 63.3705C53.4473 63.3705 63.8625 63.3705 74.2728 63.3655C75.3005 63.3655 76.3332 63.4643 77.3559 63.326C79.2483 63.0741 80.523 61.6712 80.5773 59.7744C80.6169 58.4061 80.5823 57.0428 80.5922 55.6745C80.5922 55.3584 80.4785 55.2201 80.1574 55.2398C79.8955 55.2547 79.6336 55.2398 79.3718 55.2398C54.0056 55.2398 28.6395 55.2398 3.27329 55.2398C2.72651 55.2398 2.45311 55.5165 2.45311 56.0697C2.45311 57.3145 2.43336 58.5593 2.46301 59.8041C2.49759 61.4094 3.55493 62.7678 5.08658 63.2223C5.5609 63.3606 6.05497 63.3902 6.54411 63.3853C7.66568 63.3754 8.78231 63.3408 9.90388 63.331C10.2399 63.331 10.5808 63.3557 10.9118 63.3902C11.6085 63.4693 12.1223 64.0077 12.1124 64.6251C12.1025 65.3167 11.6233 65.8205 10.8525 65.8205C9.14792 65.8255 7.44335 65.8946 5.73877 65.7662C3.48082 65.5982 1.85033 64.4671 0.753472 62.5307C0.249509 61.6465 0.0914024 60.6586 0.0123493 59.6559C-0.00741394 59.4286 0.00247312 59.1965 0.00247312 58.9643C0.00247312 45.3063 0.00247312 31.6531 0.00247312 17.9951C0.00247312 16.4193 0.308801 14.9325 1.31179 13.6729C2.60628 12.0477 4.30098 11.2228 6.39095 11.2278C11.7666 11.2278 17.1471 11.2278 22.5227 11.2278C23.5405 11.2278 23.422 11.3463 23.4318 10.3139C23.4417 8.9506 23.333 7.57245 23.7036 6.23875C24.5633 3.11196 26.5594 1.1213 29.7067 0.301317C29.8697 0.256861 30.0427 0.26674 30.2106 0.242042C30.3687 0.217343 30.5417 0.286498 30.7097 0.167947C30.517 0.108672 30.349 0.0543359 30.181 0C31.2235 0 32.271 0 33.3135 0C33.0615 0.167947 32.7502 0.0592755 32.3599 0.202525C32.7354 0.242042 32.9923 0.251921 33.2394 0.301317C35.0477 0.632272 36.856 0.968167 38.6644 1.309C40.2059 1.60044 41.7425 1.82766 43.3236 1.65971C44.6378 1.52141 45.9175 1.20527 47.2169 0.997805C48.7486 0.755763 50.2506 0.321076 51.8909 0.207464C51.6587 0.118551 51.5204 0.064215 51.3821 0.0049395C52.3653 0.0049395 53.3485 0.0049395 54.3317 0.0049395C54.1242 0.167947 53.8525 0.0592756 53.5955 0.177827C53.6647 0.202525 53.6993 0.222283 53.7388 0.222283C57.0837 0.469264 59.8852 3.14654 60.5572 6.40176C60.8437 7.79473 60.7993 9.2124 60.8042 10.6251C60.8042 11.0269 61.0117 11.2278 61.4267 11.2278C66.5256 11.2278 71.6295 11.2278 76.7284 11.2278C78.5417 11.2278 80.0931 11.8897 81.3333 13.2086C82.109 14.0335 82.6821 14.9868 82.8353 16.2119C82.9143 16.039 82.9588 15.9451 83.0033 15.8513V22.1197L83.0082 22.1246ZM42.1427 20.2475C42.1427 20.2475 42.1427 20.213 42.1427 20.1932C42.8344 20.1932 43.5261 20.1932 44.2129 20.1932C48.7288 20.208 53.2398 20.2228 57.7557 20.2574C58.2004 20.2574 58.2943 20.1043 58.2943 19.6992C58.2844 15.7821 58.2893 11.8699 58.2943 7.9528C58.2943 7.29583 58.2103 6.66356 57.9484 6.06586C56.728 3.29473 54.5442 2.20801 51.5204 2.67234C49.3859 2.99835 47.2614 3.43798 45.1418 3.86773C43.452 4.20856 41.7524 4.28266 40.0626 4.03568C38.442 3.79857 36.8412 3.41822 35.2256 3.12184C33.8718 2.87486 32.5328 2.53403 31.1296 2.58836C28.264 2.70198 25.9862 4.9742 25.9665 7.84413C25.9418 11.7613 25.9517 15.6734 25.9467 19.5906C25.9467 20.2426 25.9517 20.2525 26.6236 20.2525C31.7966 20.2525 36.9697 20.2525 42.1477 20.2525L42.1427 20.2475ZM42.123 22.6926C35.2552 22.6926 28.3875 22.6926 21.5197 22.6926C21.2282 22.6926 20.9367 22.6976 20.6452 22.6926C20.3685 22.6877 20.2549 22.8161 20.2598 23.0829C20.2697 23.5126 20.2351 23.9473 20.2697 24.3721C20.3389 25.2217 20.4723 26.0368 21.1492 26.674C21.8952 27.3754 22.7698 27.6224 23.7579 27.6224C36.0013 27.6224 48.2446 27.6224 60.4929 27.6224C60.6016 27.6224 60.7103 27.6224 60.8141 27.6224C62.4594 27.5483 63.6501 26.595 63.9465 25.0884C64.0503 24.5598 63.991 24.0165 63.9861 23.478C63.9861 22.6482 64.0849 22.6976 63.1807 22.6976C56.1598 22.6976 49.1389 22.6976 42.118 22.6976L42.123 22.6926ZM41.619 80.3677C47.6715 80.3677 53.724 80.348 59.7765 80.3776C60.8437 80.3826 61.5898 79.4984 61.5305 78.6191C61.491 78.0214 61.5305 77.4237 61.5157 76.8211C61.4959 75.8332 60.8042 75.1268 59.8111 75.0626C59.5344 75.0428 59.2577 75.0527 58.981 75.0527C47.4442 75.0527 35.9074 75.0527 24.3706 75.0527C24.0198 75.0527 23.664 75.0379 23.3132 75.0626C22.1867 75.1367 21.5346 75.8183 21.5247 76.9297C21.5148 77.5423 21.5197 78.1597 21.5395 78.7722C21.5691 79.6416 22.2263 80.2936 23.0959 80.343C23.4022 80.3628 23.7085 80.3628 24.0149 80.3628C29.8845 80.3628 35.7493 80.3628 41.619 80.3628V80.3677ZM41.5696 72.6026C43.5953 72.6026 45.626 72.5928 47.6517 72.6076C48.0371 72.6076 48.1557 72.4742 48.1507 72.0988C48.1359 70.1822 48.1261 68.2607 48.1458 66.3392C48.1458 65.9243 48.0025 65.8205 47.6122 65.8255C43.5558 65.8354 39.5043 65.8403 35.4479 65.8255C35.023 65.8255 34.8945 65.9588 34.8995 66.3787C34.9143 68.2508 34.8995 70.1229 34.8995 72C34.8995 72.5878 34.9094 72.5977 35.4874 72.5977C37.5132 72.5977 39.5438 72.5977 41.5696 72.5977V72.6026Z" fill="#0E2B72"/>
<path d="M65.67 39.5465C64.7213 39.5367 64.7114 39.5317 64.494 40.4752C63.6195 44.3083 61.3122 46.8967 57.6164 48.1711C55.2498 48.9862 52.8683 48.8034 50.5461 47.8797C48.1251 46.9214 46.1192 45.4445 44.716 43.2117C43.8365 41.8138 43.3473 40.2974 43.3473 38.6426C43.3473 38.1832 43.1596 37.951 42.7594 37.8473C41.9244 37.63 41.0894 37.6448 40.2544 37.8473C39.8888 37.9362 39.7109 38.1783 39.6961 38.5833C39.533 42.5004 37.4727 45.2074 34.1871 47.0943C32.6258 47.9933 30.9212 48.5367 29.1227 48.6552C27.0624 48.7886 25.1305 48.2897 23.3568 47.2277C20.9061 45.7557 19.335 43.6267 18.6433 40.8506C18.5642 40.5246 18.4753 40.1986 18.411 39.8627C18.3517 39.5614 18.2035 39.4626 17.8922 39.5021C17.3586 39.5663 16.8201 39.591 16.2865 39.5021C15.6639 39.3984 15.2637 38.8994 15.2736 38.2672C15.2835 37.6645 15.6936 37.2101 16.3013 37.0915C16.8843 36.9779 17.4673 37.0915 18.0454 37.1162C18.327 37.1261 18.4703 37.0224 18.5346 36.7507C19.246 33.7573 21.4299 32.4928 24.2165 31.9741C25.8816 31.6629 27.5664 31.5443 29.2561 31.6036C31.5042 31.6777 33.7276 31.8802 35.8324 32.7793C37.1219 33.3325 38.199 34.1376 38.9303 35.3528C39.0884 35.6146 39.2563 35.6591 39.538 35.5553C40.872 35.0614 42.2109 35.0712 43.545 35.5652C43.7772 35.6492 43.9452 35.664 44.0835 35.417C44.9976 33.8018 46.4946 32.9768 48.1795 32.4137C49.6024 31.9395 51.0847 31.7963 52.5669 31.6728C54.8001 31.4851 57.0186 31.6184 59.2074 32.0581C61.0404 32.4285 62.6808 33.1942 63.7332 34.8638C64.079 35.417 64.3261 36.0147 64.4644 36.647C64.5484 37.0323 64.7411 37.1508 65.1067 37.1113C65.6255 37.057 66.1443 37.0372 66.668 37.1113C67.2708 37.1903 67.7105 37.63 67.755 38.2375C67.7994 38.8303 67.4091 39.3391 66.8113 39.4823C66.4308 39.5712 66.0455 39.5465 65.665 39.5465H65.67ZM54.8545 34.1278C53.5847 34.1376 52.6163 34.108 51.6529 34.2167C50.2744 34.3797 48.9107 34.5822 47.6656 35.2491C46.8207 35.6986 46.1587 36.3358 45.9314 37.2941C45.6992 38.2771 45.6844 39.2798 46.0006 40.2529C46.6972 42.4115 48.1548 43.9379 50.1113 45.0147C51.9543 46.0273 53.9207 46.5361 56.0107 46.0965C58.9159 45.4889 60.8823 43.7403 61.8754 40.9346C62.246 39.8923 62.3448 38.8056 62.2262 37.709C62.0484 36.0345 61.0009 34.9576 59.1283 34.5081C57.6263 34.1525 56.0946 34.0734 54.8545 34.1228V34.1278ZM28.599 34.1278C28.0012 34.1278 27.3984 34.1031 26.8005 34.1327C25.6197 34.192 24.4388 34.2957 23.3123 34.6909C21.8844 35.1898 20.9901 36.1481 20.8073 37.6892C20.3725 41.3791 22.8182 44.9949 26.43 45.9532C29.187 46.6843 31.6623 45.9681 33.9203 44.3726C35.7731 43.0636 37.0626 41.3643 37.2207 38.9933C37.3097 37.6596 37.0972 36.4445 35.9312 35.5899C35.4322 35.2194 34.8738 34.9675 34.2859 34.7798C32.4331 34.192 30.5259 34.0734 28.599 34.1228V34.1278Z" fill="#FFB400"/>
</svg>
