<svg width="87" height="87" viewBox="0 0 87 87" fill="none" xmlns="http://www.w3.org/2000/svg">
<path d="M86.4152 84.2723C86.4152 85.1113 86.7419 86.2765 86.3219 86.7012C85.907 87.1207 84.7351 86.7944 83.8951 86.7944C56.3037 86.7944 28.7123 86.7944 1.11566 86.7944C-0.170316 85.5774 -0.27402 85.0543 0.503787 83.4851C1.54605 81.3825 2.61424 79.2903 3.65132 77.1825C4.06096 76.3435 4.71432 75.924 5.62695 75.836C7.15664 75.6858 7.15664 75.6754 7.15664 74.0804C7.15664 60.8329 7.15664 47.5906 7.15664 34.3432C7.15664 32.976 7.1359 31.6088 7.15664 30.2415C7.1722 29.5165 6.85588 29.2317 6.14549 29.242C4.84914 29.2627 3.5476 29.2576 2.25126 29.242C0.825278 29.2213 -0.0302918 28.4807 0.000820477 27.3155C0.0319328 26.1865 0.856391 25.5081 2.25126 25.5029C4.49653 25.4926 6.7418 25.5029 8.98707 25.5029C10.1624 25.5029 10.7501 24.9332 10.7501 23.7939C10.7501 21.0595 10.7708 18.3251 10.7449 15.5958C10.7294 14.27 11.2842 13.4621 12.5339 12.9546C22.3343 8.94619 32.1242 4.91188 41.909 0.862038C42.8165 0.489162 43.6306 0.478804 44.538 0.85168C54.3229 4.90153 64.1128 8.93584 73.9132 12.9391C75.2096 13.4673 75.7333 14.3218 75.7126 15.6839C75.6763 18.5581 75.7281 21.4324 75.6918 24.3014C75.6815 25.2181 76.0185 25.534 76.926 25.5185C79.3112 25.477 81.6965 25.534 84.0818 25.4926C85.093 25.4718 85.8552 25.7929 86.3997 26.6371V28.1079C85.8604 28.9572 85.093 29.299 84.087 29.2627C82.8633 29.2161 81.6343 29.2835 80.4053 29.2472C79.5912 29.2213 79.2905 29.5476 79.2956 30.3607C79.3112 45.1359 79.3112 59.9059 79.2956 74.6811C79.2956 75.4631 79.5342 75.8774 80.3743 75.8308C81.6499 75.7583 82.438 76.3849 82.9876 77.5295C84.0766 79.803 85.2537 82.0299 86.3997 84.2775L86.4152 84.2723ZM43.2365 29.4233C35.4118 29.4233 27.5819 29.4233 19.7571 29.4233C18.243 29.4233 18.2326 29.4337 18.2326 30.9562C18.2326 45.4 18.2326 59.8386 18.2326 74.2823C18.2326 75.7946 18.2585 75.8153 19.7623 75.8153C35.417 75.8153 51.0716 75.8153 66.7211 75.8153C68.2249 75.8153 68.2456 75.7894 68.2456 74.2772C68.2456 59.8334 68.2456 45.3948 68.2456 30.951C68.2456 29.4337 68.2353 29.4233 66.716 29.4233C58.8912 29.4233 51.0613 29.4233 43.2365 29.4233ZM43.1328 25.5029C52.2228 25.5029 61.318 25.5029 70.408 25.5029C71.7873 25.5029 71.8184 25.4718 71.8184 24.0787C71.8184 21.8001 71.7976 19.5214 71.8339 17.2427C71.8443 16.4918 71.5539 16.1033 70.8746 15.8289C61.9817 12.183 53.0939 8.52153 44.2062 4.84974C43.5425 4.57526 42.9461 4.58562 42.2824 4.85492C33.3999 8.52671 24.5121 12.1881 15.614 15.8289C14.8725 16.1344 14.634 16.5798 14.6443 17.3463C14.6806 19.5524 14.6547 21.7638 14.6599 23.97C14.6599 24.9885 15.1646 25.4995 16.174 25.5029C25.1603 25.5029 34.1466 25.5029 43.1328 25.5029ZM43.2002 82.9931C55.3029 82.9931 67.4056 82.9931 79.5083 82.9931C79.892 82.9931 80.2809 82.9931 80.6646 82.9672C80.9861 82.9465 81.1676 82.8119 81.1209 82.4286C80.9239 80.8698 79.6327 79.7097 78.0615 79.7097C55.0125 79.7097 31.9687 79.7305 8.91965 79.6683C7.17736 79.6683 6.19215 80.1396 5.62695 81.7761C5.23286 82.9103 5.18619 82.9724 6.36845 82.9983C6.72106 83.0035 7.0685 82.9983 7.4211 82.9983C19.3475 82.9983 31.2739 82.9983 43.2002 82.9983V82.9931ZM14.3332 52.7229C14.3332 45.4311 14.3332 38.1444 14.328 30.8526C14.328 30.4176 14.5147 29.8065 14.0273 29.6046C13.208 29.2627 12.2798 29.3094 11.4553 29.5631C10.8331 29.7547 11.0664 30.4694 11.0664 30.9666C11.056 39.9052 11.056 48.8439 11.056 57.7774C11.056 63.3136 11.056 68.8549 11.0612 74.3911C11.0612 74.8002 10.9057 75.3388 11.2946 75.577C12.0879 76.0587 13.0109 75.8826 13.851 75.722C14.5406 75.5926 14.328 74.8727 14.328 74.3807C14.3384 67.1614 14.3384 59.9421 14.3384 52.7229H14.3332ZM72.1502 52.6193C72.1502 59.8748 72.1502 67.1304 72.1554 74.3859C72.1554 74.8261 71.9739 75.4268 72.451 75.6392C73.2651 76.0017 74.1932 75.9447 75.0229 75.691C75.6503 75.4994 75.4222 74.7899 75.4222 74.2927C75.4326 67.2132 75.4326 60.1338 75.4326 53.0543C75.4326 45.6952 75.4326 38.3361 75.4274 30.9718C75.4274 30.5316 75.6141 29.9464 75.1992 29.6822C74.4163 29.1851 73.4829 29.387 72.648 29.5269C71.948 29.6408 72.1657 30.3658 72.1657 30.8578C72.1554 38.1134 72.1554 45.3689 72.1554 52.6245L72.1502 52.6193Z" fill="#0E2B72"/>
<path d="M52.1663 39.8586H44.9223C46.1979 40.8685 47.1157 42.3134 47.3802 44.3331H52.1663V46.5238H47.4268C46.9861 50.9983 43.4341 53.8466 37.8131 54.0227C41.2355 57.5754 44.9689 62.0447 48.6557 66.5607H44.44C41.0177 62.4383 37.8131 58.6267 33.6855 54.2402V51.5213H36.102C40.8414 51.5213 43.3874 49.5482 43.6985 46.5238H33.6907V44.3331H43.5689C42.9518 41.7903 40.6288 40.5163 36.8072 40.5163H33.6907V37.668H52.1714V39.8586H52.1663Z" fill="#FFB400"/>
</svg>
