<svg width="74" height="17" viewBox="0 0 74 17" fill="none" xmlns="http://www.w3.org/2000/svg">
<g clip-path="url(#clip0_6544_23191)">
<path d="M2.04179 0H0V16.3299H2.04179V0Z" fill="#050F28"/>
<path d="M4.71401 0H4.40039V16.3299H4.71401V0Z" fill="#050F28"/>
<path d="M8.6414 0H6.59961V16.3299H8.6414V0Z" fill="#050F28"/>
<path d="M11.6275 0H10.998V16.3299H11.6275V0Z" fill="#050F28"/>
<path d="M16.4965 0H13.5117V16.3299H16.4965V0Z" fill="#050F28"/>
<path d="M20.5808 0H18.5391V16.3299H20.5808V0Z" fill="#050F28"/>
<path d="M23.8816 0H21.8398V16.3299H23.8816V0Z" fill="#050F28"/>
<path d="M26.2363 0H25.4512V16.3299H26.2363V0Z" fill="#050F28"/>
<path d="M32.9923 0H27.4941V16.3299H32.9923V0Z" fill="#050F28"/>
<path d="M36.4486 0H34.5625V16.3299H36.4486V0Z" fill="#050F28"/>
<path d="M39.5926 0H37.5508V16.3299H39.5926V0Z" fill="#050F28"/>
<path d="M42.2609 0H41.9473V16.3299H42.2609V0Z" fill="#050F28"/>
<path d="M46.1902 0H44.1484V16.3299H46.1902V0Z" fill="#050F28"/>
<path d="M49.1763 0H48.5469V16.3299H49.1763V0Z" fill="#050F28"/>
<path d="M54.0454 0H51.0605V16.3299H54.0454V0Z" fill="#050F28"/>
<path d="M58.1297 0H56.0879V16.3299H58.1297V0Z" fill="#050F28"/>
<path d="M61.4285 0H59.3867V16.3299H61.4285V0Z" fill="#050F28"/>
<path d="M63.7871 0H63.002V16.3299H63.7871V0Z" fill="#050F28"/>
<path d="M70.5411 0H65.043V16.3299H70.5411V0Z" fill="#050F28"/>
<path d="M73.9994 0H72.1133V16.3299H73.9994V0Z" fill="#050F28"/>
</g>
<defs>
<clipPath id="clip0_6544_23191">
<rect width="74" height="16.3299" fill="white"/>
</clipPath>
</defs>
</svg>
