<svg width="32" height="32" viewBox="0 0 32 32" fill="none" xmlns="http://www.w3.org/2000/svg">
<path d="M32 15.751V16.5006C31.7879 17.5198 31.1426 18.2576 30.4196 18.9471C29.9605 19.3853 29.5172 19.8402 29.0522 20.2726C28.3935 20.8861 28.1113 21.639 28.1163 22.5322C28.1213 23.4679 28.1122 24.4052 28.0612 25.3393C27.9652 27.0946 26.8582 28.1856 25.1018 28.2474C24.0841 28.2833 23.0631 28.2557 22.0438 28.254C21.3124 28.2524 20.6796 28.4911 20.1545 29.0061C19.672 29.4794 19.1819 29.946 18.7053 30.4259C18.0023 31.1329 17.2602 31.7731 16.2509 31.9994H15.5012C14.5052 31.7915 13.7739 31.1713 13.0977 30.4618C12.6452 29.9869 12.1744 29.5295 11.7269 29.0495C11.1125 28.3901 10.3578 28.1113 9.46449 28.1163C8.52781 28.1222 7.58945 28.1113 6.65528 28.0604C4.91381 27.9644 3.81851 26.8559 3.75423 25.1214C3.72 24.1965 3.72918 23.2684 3.7584 22.3427C3.78846 21.3903 3.4946 20.589 2.79835 19.9321C2.46525 19.6174 2.14717 19.2868 1.83328 18.9538C1.44091 18.5381 1.031 18.1333 0.677868 17.685C0.126878 16.9856 -0.134425 16.1892 0.0684396 15.2886C0.204517 14.6826 0.51758 14.1659 0.941675 13.7269C1.59952 13.0458 2.27073 12.3763 2.95696 11.7228C3.61064 11.1009 3.88947 10.3488 3.88446 9.45737C3.88029 8.52083 3.88947 7.58263 3.9404 6.64776C4.03557 4.91074 5.14673 3.81478 6.88485 3.75301C7.90335 3.71712 8.92519 3.74466 9.94535 3.74633C10.6758 3.74717 11.3128 3.51762 11.8396 3.00178C12.1894 2.65955 12.5408 2.31899 12.8965 1.98344C13.3506 1.5544 13.7864 1.10283 14.2706 0.712186C14.9802 0.138745 15.7925 -0.140046 16.7175 0.0694649C17.3236 0.206356 17.8395 0.521874 18.2787 0.945068C18.9532 1.5953 19.6144 2.25973 20.2597 2.93917C20.8883 3.60026 21.643 3.8924 22.5488 3.88573C23.4855 3.87821 24.423 3.8899 25.358 3.94082C27.092 4.03597 28.1856 5.15114 28.2466 6.89066C28.2808 7.86809 28.2591 8.84803 28.2474 9.82631C28.2382 10.636 28.4812 11.3371 29.0639 11.9139C29.523 12.368 29.9638 12.8396 30.4221 13.2937C31.1301 13.9965 31.7721 14.7394 31.9975 15.7502L32 15.751ZM6.12683 16.0106C6.13267 21.442 10.5548 25.866 15.987 25.8751C21.4277 25.8843 25.8706 21.4495 25.874 16.0056C25.8773 10.5617 21.4427 6.12607 15.9971 6.1269C10.5531 6.12774 6.12098 10.5659 6.12683 16.0106Z" fill="#FFB400"/>
<path d="M11.3703 19.8163C11.4413 19.3706 11.5281 18.7212 11.6542 18.0793C11.7468 17.6085 11.6608 17.2263 11.2918 16.9016C10.9955 16.6403 10.7158 16.359 10.4428 16.0735C10.2066 15.8256 9.96195 15.5785 9.77077 15.2973C9.14047 14.3674 9.47357 13.2831 10.5388 12.9209C11.0931 12.7322 11.6917 12.6287 12.2769 12.5853C13.0659 12.526 13.6068 12.2105 13.8756 11.4476C13.975 11.1646 14.1211 10.8959 14.2663 10.6329C14.4166 10.3608 14.5669 10.082 14.7606 9.84164C15.4602 8.97271 16.5454 8.97355 17.245 9.84498C17.4446 10.0937 17.5982 10.3825 17.7509 10.6655C17.988 11.1037 18.2109 11.5511 18.4322 11.9977C18.5624 12.2606 18.7594 12.4083 19.0558 12.4509C19.6727 12.5402 20.2888 12.6387 20.9024 12.7514C21.5979 12.88 22.2131 13.1554 22.4644 13.8808C22.7115 14.5969 22.4001 15.1871 21.9276 15.6979C21.4827 16.1787 21.0118 16.6353 20.5451 17.096C20.3515 17.288 20.2746 17.5084 20.3164 17.7738C20.4091 18.3589 20.5167 18.9424 20.5885 19.5309C20.6269 19.8481 20.652 20.1811 20.5994 20.4933C20.4341 21.4832 19.5717 22.0149 18.5975 21.7053C18.1074 21.5492 17.6491 21.2888 17.1841 21.06C15.8459 20.4015 16.1598 20.3981 14.8157 21.0642C14.425 21.2579 14.0468 21.4857 13.6394 21.6352C12.3421 22.1134 11.3578 21.4039 11.3711 19.8172L11.3703 19.8163Z" fill="#FFB400"/>
</svg>
