<svg width="33" height="31" viewBox="0 0 33 31" fill="none" xmlns="http://www.w3.org/2000/svg">
<path d="M25.3908 30.0559C25.3908 29.903 25.3908 29.787 25.3908 29.6709C25.3908 26.4595 25.4106 23.2481 25.3783 20.0367C25.369 19.0901 25.3804 18.124 25.0649 17.2072C24.8159 16.4854 24.4493 15.8489 23.7276 15.4536C22.4684 14.7627 21.2322 14.8674 20.0272 15.5378C19.2159 15.9895 18.7587 16.7585 18.4775 17.6004C18.3046 18.1178 18.3431 18.6815 18.3462 19.2348C18.3639 22.7019 18.3556 26.17 18.3535 29.6371C18.3535 29.7623 18.3848 29.8927 18.3077 30.0344H11.6953V10.2443H18.34V13.0892C19.1201 12.1005 19.9907 11.3469 20.9937 10.7402C21.5759 10.388 22.2039 10.1427 22.8579 9.96299C23.7817 9.70941 24.7118 9.74842 25.6575 9.87367C26.0314 9.92295 26.3896 10.0533 26.7812 10.0595C26.9687 10.0626 27.2301 10.2422 27.4592 10.3367C28.3768 10.7155 29.1891 11.2371 29.8692 11.9609C30.4358 12.5635 30.8274 13.2678 31.1805 14.0029C31.5408 14.7534 31.6939 15.5614 31.8793 16.3591C31.9751 16.7749 32.0032 17.2103 32.0188 17.6384C32.1365 20.8241 32.0532 24.0119 32.0761 27.1987C32.0824 28.0519 32.0761 28.9061 32.0772 29.7592C32.0772 29.9112 32.099 30.0601 31.8595 30.059C29.7182 30.0549 27.5769 30.0559 25.3929 30.0559H25.3908Z" fill="#FFB400"/>
<path d="M1.30859 30.0348V10.2601C1.36379 10.1985 1.44399 10.2252 1.51689 10.2252C3.56133 10.2241 5.6068 10.2282 7.65124 10.219C7.90952 10.218 7.98139 10.2888 7.98139 10.5434C7.9741 16.9427 7.97514 23.3429 7.97826 29.7422C7.97826 29.9331 7.97306 30.0625 7.7106 30.0615C5.61201 30.0522 3.51238 30.0563 1.41378 30.0553C1.38358 30.0553 1.35338 30.044 1.30859 30.0348Z" fill="#FFB400"/>
<path d="M4.42014 7.53469C3.42449 7.55419 2.4507 7.1733 1.68625 6.33348C1.22695 5.82734 1.00303 5.21236 0.899926 4.53784C0.809317 3.94237 0.902009 3.38181 1.11031 2.83562C1.48732 1.85104 2.20074 1.20835 3.22556 0.90856C4.55137 0.521505 5.82719 0.598505 6.99574 1.38185C7.7102 1.86131 8.14137 2.55123 8.30488 3.38181C8.49547 4.35098 8.36112 5.26575 7.74144 6.084C7.17071 6.83655 6.40417 7.25851 5.49079 7.46487C5.18251 7.53469 4.87527 7.51415 4.42014 7.53366V7.53469Z" fill="#FFB400"/>
</svg>
