<svg width="35" height="29" viewBox="0 0 35 29" fill="none" xmlns="http://www.w3.org/2000/svg">
<path d="M10.1739 22.0686C6.93079 21.7709 4.83435 20.1222 3.6587 17.1738C4.69001 17.4317 5.66982 17.3619 6.69523 17.0828C3.27773 16.0009 1.43617 13.7397 1.24837 10.2021C2.02266 10.5351 2.77602 10.8691 3.60397 10.9362C3.83202 10.9548 4.06597 11.1125 4.3187 10.9783C0.502517 8.13268 0.900662 3.79987 2.24588 1.70804C2.4868 1.97065 2.73417 2.21569 2.95309 2.48362C3.67694 3.37053 4.54943 4.10137 5.44767 4.79758C6.70059 5.76919 8.04527 6.60602 9.49834 7.25216C10.9788 7.91055 12.5161 8.39796 14.1167 8.68827C14.8035 8.81291 15.492 8.91306 16.1863 8.96046C16.5812 8.98763 16.6172 8.84807 16.6134 8.46134C16.6086 7.91428 16.4433 7.38427 16.6091 6.80471C16.7004 6.48724 16.6569 6.07548 16.7492 5.71911C17.1473 4.18553 17.9731 2.93001 19.2094 1.91845C19.9574 1.3064 20.8052 0.922341 21.7158 0.666655C22.6495 0.404577 23.6046 0.429613 24.5699 0.508449C25.122 0.553194 25.6844 0.65174 26.1501 0.856289C26.7806 1.13328 27.4395 1.43531 27.9632 1.92484C28.1682 2.11661 28.3877 2.29292 28.5927 2.48469C28.861 2.73664 29.1287 2.53849 29.3793 2.4735C30.6918 2.13419 31.9431 1.6372 33.1284 0.92607C32.9465 1.73308 32.2259 3.34124 30.2587 4.71768C31.553 4.62979 32.7721 4.22761 34.0696 3.71518C33.738 4.26064 33.4047 4.65695 33.0704 5.05007C32.3734 5.86986 31.5852 6.59271 30.6945 7.20262C30.5743 7.28519 30.5834 7.40185 30.5941 7.51637C30.636 7.95477 30.6209 8.3905 30.6102 8.83156C30.57 10.5308 30.2824 12.1853 29.7989 13.8052C29.4142 15.0932 28.891 16.3317 28.283 17.5355C27.6359 18.8172 26.8123 19.9811 25.9065 21.0864C24.4368 22.8799 22.6618 24.316 20.6561 25.4948C19.1386 26.3865 17.5138 26.9991 15.8279 27.4455C14.8046 27.7166 13.7508 27.8833 12.684 27.975C11.4504 28.081 10.2131 28.0964 8.99019 28.0117C7.28922 27.8935 5.62474 27.5281 4.00855 26.9421C2.80822 26.5069 1.65134 26.003 0.559395 25.3457C0.423103 25.2636 0.324372 25.1752 0.181641 24.9755C2.02534 25.0623 3.78748 24.9882 5.49811 24.4646C7.17761 23.9506 8.73639 23.2043 10.1728 22.0697L10.1739 22.0686Z" fill="#FFB400"/>
</svg>
