<svg width="88" height="70" viewBox="0 0 88 70" fill="none" xmlns="http://www.w3.org/2000/svg">
<path d="M82.5832 69.367H4.73247C4.80512 69.304 4.91653 69.3331 5.00372 69.2846C3.03227 68.8631 1.57426 67.7924 0.653923 66.0095C0.155004 65.0405 0 64.0037 0 62.933C0 44.0817 0 25.2352 0 6.38384C0 6.2288 0 6.06892 0.00484387 5.91389C0.077502 4.33447 0.639391 2.96337 1.74864 1.83452C2.99351 0.570012 4.52418 0.00316392 6.29219 0.00316392C14.7593 0.00800878 23.2264 0.00316392 31.6886 0.00316392C32.7785 0.00316392 33.8732 -0.00652568 34.9631 0.00800889C36.7456 0.0322332 38.2327 0.749271 39.4485 2.03316C39.991 2.60485 40.3204 3.3122 40.6643 4.00986C40.9598 4.61062 40.7854 4.52341 41.4781 4.52341C54.6873 4.52341 67.8966 4.52341 81.1058 4.52341C81.5079 4.52341 81.9099 4.52342 82.3023 4.59124C84.172 4.911 85.6252 5.86059 86.6182 7.48362C87.0105 8.12314 87.2624 8.8208 87.4029 9.58144C87.4368 9.51846 87.4562 9.4797 87.4755 9.44094V64.183C87.4029 64.246 87.398 64.3332 87.3835 64.4204C87.1268 65.8496 86.4099 67.0269 85.3249 67.9668C84.6128 68.5869 83.7603 68.9745 82.8448 69.2071C82.7479 69.2313 82.5881 69.1926 82.5687 69.367H82.5832ZM43.7111 66.3341C54.8956 66.3341 66.0801 66.3341 77.2646 66.3341C78.6451 66.3341 80.0305 66.3486 81.411 66.3292C82.4428 66.3147 83.2953 65.9029 83.9104 65.0502C84.3173 64.4834 84.4481 63.8341 84.4481 63.1559C84.4481 47.2744 84.4481 31.3881 84.4481 15.5067C84.4481 15.4583 84.4481 15.4098 84.4481 15.3662C84.4626 15.1869 84.3948 15.0997 84.2059 15.1143C84.1187 15.1191 84.0315 15.1143 83.9492 15.1143C70.6043 15.1143 57.2594 15.1143 43.9194 15.1143C43.1589 15.1143 42.6358 14.809 42.3016 14.1259C41.4151 12.3333 40.5142 10.5456 39.6181 8.75297C38.9641 7.44971 38.3151 6.1416 37.6611 4.83833C37.0653 3.65619 36.1159 3.05058 34.7742 3.05058C25.2608 3.05058 15.7523 3.05058 6.23891 3.05058C5.95312 3.05058 5.67218 3.06996 5.39608 3.12325C4.03979 3.38972 3.05164 4.63 3.05164 6.06408C3.05164 25.1722 3.05164 44.2851 3.05164 63.3933C3.05164 64.0328 3.25024 64.619 3.63775 65.1229C4.25777 65.9271 5.08122 66.3292 6.09844 66.3292C18.6344 66.3292 31.1703 66.3292 43.7014 66.3292L43.7111 66.3341ZM64.5592 12.0669C71.0451 12.0669 77.5311 12.0669 84.017 12.0669C84.1042 12.0669 84.1914 12.0669 84.2737 12.0669C84.3755 12.0669 84.4433 12.0184 84.4433 11.9118C84.4287 11.2287 84.5208 10.5456 84.3658 9.87214C84.0558 8.51558 82.8448 7.58536 81.4013 7.58536C68.5215 7.58536 55.6464 7.58536 42.7666 7.58536C42.7181 7.58536 42.6745 7.58536 42.6261 7.58536C42.4856 7.58536 42.4614 7.64835 42.5244 7.76462C42.568 7.84699 42.6067 7.93419 42.6503 8.01656C43.3042 9.2423 43.9146 10.4874 44.5201 11.7374C44.6412 11.9845 44.7719 12.0765 45.0529 12.0765C51.5534 12.0669 58.0587 12.0717 64.5592 12.0717V12.0669Z" fill="#0E2B72"/>
<path d="M28.696 14.9883C32.0867 15.0271 35.2933 15.8168 38.2481 17.4834C42.3508 19.7992 45.2523 23.1858 46.9816 27.5704C47.5968 29.1256 47.9455 30.7486 48.1635 32.4007C48.304 33.4666 48.3476 34.5324 48.2798 35.5935C48.149 37.5895 47.7518 39.5372 47.0446 41.417C46.7249 42.2697 46.3422 43.0981 45.9159 43.9024C45.7948 44.1349 45.8094 44.2803 46.0031 44.4741C46.6667 45.1185 47.3158 45.7822 47.9601 46.4459C48.0908 46.5816 48.1683 46.5768 48.2991 46.4459C49.946 44.7842 51.6123 43.1418 53.2544 41.4751C54.2232 40.4916 55.3615 39.9248 56.7565 39.9635C57.8319 39.9926 58.82 40.3317 59.6241 41.0585C60.7043 42.0323 61.6973 43.0933 62.7242 44.1204C65.4125 46.8045 68.096 49.4982 70.7795 52.1871C71.3366 52.7443 71.884 53.3063 72.4362 53.8634C72.659 54.0911 72.6638 54.0863 72.8818 53.8683C73.497 53.2481 74.1121 52.6328 74.7176 52.0078C75.173 51.5427 75.7155 51.3828 76.3306 51.5815C76.9458 51.7801 77.2655 52.2501 77.3624 52.8702C77.5077 53.8101 77.5513 54.7597 77.6433 55.6996C77.7547 56.8527 77.8565 58.0106 77.963 59.1637C78.0647 60.2877 78.1616 61.4117 78.2633 62.5357C78.3166 63.1074 78.3747 63.6742 78.428 64.2459C78.4619 64.6384 78.4958 65.0308 78.3118 65.399C78.0308 65.9659 77.5707 66.2759 76.941 66.2759C76.132 66.2759 75.3328 66.15 74.5287 66.0773C73.6762 65.9998 72.8237 65.932 71.976 65.8544C70.7892 65.743 69.6025 65.6122 68.4157 65.5104C67.6165 65.4426 66.8221 65.3699 66.0277 65.2924C65.6208 65.2537 65.2139 65.2488 64.8119 65.1519C63.7414 64.9 63.2958 63.5822 64.0127 62.744C64.3178 62.3855 64.6714 62.0754 65.0056 61.7411C65.3544 61.3923 65.6983 61.0338 66.0568 60.6947C66.2069 60.5493 66.2021 60.4621 66.0568 60.3168C64.1144 58.3837 62.172 56.4506 60.2344 54.5126C59.1349 53.4128 58.045 52.3082 56.9454 51.2036C56.6693 50.9274 56.6693 50.9323 56.3981 51.2036C54.7705 52.8315 53.143 54.4545 51.5203 56.0872C50.7404 56.8721 49.8249 57.3759 48.7254 57.5261C47.3691 57.7102 46.1824 57.3033 45.1361 56.4457C44.7631 56.1405 44.4628 55.7626 44.1237 55.4283C42.6754 53.9894 41.2319 52.5456 39.7933 51.097C39.6237 50.9226 39.5027 50.9274 39.3137 51.0534C37.4828 52.2501 35.5016 53.0979 33.38 53.6309C31.5103 54.1008 29.6115 54.3334 27.6884 54.2122C23.2175 53.9312 19.2698 52.3421 15.8452 49.4498C13.9318 47.8364 12.4545 45.8791 11.2822 43.6892C10.2214 41.7125 9.59172 39.5953 9.23328 37.3861C9.02015 36.0683 8.97655 34.7408 9.06374 33.4181C9.31078 29.6537 10.5605 26.2429 12.7402 23.1616C13.7962 21.6742 15.0459 20.3806 16.4652 19.2518C18.054 17.9873 19.8171 17.0086 21.7111 16.2722C23.0868 15.7392 24.5157 15.4098 25.9689 15.1869C26.8698 15.0464 27.7756 14.9689 28.6911 14.9883H28.696ZM28.6814 18.0454C19.449 18.0648 12.1251 25.4532 12.1105 34.5615C12.096 43.6844 19.3618 51.2084 28.8074 51.16C38.0011 51.1115 45.2281 43.665 45.2426 34.6536C45.2572 25.4677 37.8993 18.0842 28.6814 18.0454ZM75.2117 62.7925C75.2117 62.7634 75.2117 62.7343 75.2117 62.7004C75.0858 61.3245 74.9598 59.9534 74.8339 58.5775C74.7757 57.9282 74.7128 57.2839 74.6546 56.6347C74.6498 56.5814 74.6643 56.5135 74.5965 56.4942C74.5336 56.4748 74.4996 56.5329 74.4609 56.5717C74.2332 56.7994 74.0104 57.032 73.7779 57.2548C73.5648 57.4535 73.3371 57.6376 73.0465 57.7102C72.3587 57.8846 71.8355 57.594 71.385 57.1192C70.1402 55.8014 68.8275 54.5465 67.5535 53.2578C65.6208 51.3053 63.6687 49.3722 61.7167 47.4343C60.404 46.1262 59.1058 44.8035 57.7737 43.5148C57.1828 42.9431 56.1317 42.8365 55.4826 43.5633C55.347 43.7134 55.1968 43.8539 55.0515 43.9993C53.1672 45.9372 51.249 47.8364 49.326 49.7308C48.614 50.4333 47.6452 50.4914 46.9041 49.7065C46.037 48.7763 45.107 47.9042 44.2157 46.9983C44.0607 46.8384 43.9687 46.8432 43.8282 47.0079C43.3051 47.6329 42.7529 48.2385 42.1619 48.8005C42.0263 48.9314 42.0118 49.0234 42.1522 49.1688C43.7604 50.7724 45.3686 52.3712 46.9574 53.9942C47.6258 54.6774 48.7205 54.6338 49.3115 53.9942C49.7378 53.534 50.2028 53.1076 50.6484 52.6667C52.2905 51.0243 53.9326 49.3771 55.5795 47.7347C56.2382 47.0758 57.1004 47.0758 57.7544 47.7153C58.108 48.0641 58.4616 48.4081 58.8103 48.7569C60.9998 50.942 63.1892 53.127 65.3786 55.312C66.7398 56.6734 68.1057 58.0252 69.4475 59.4059C70.145 60.123 70.082 61.0338 69.3506 61.7121C69.1375 61.9107 68.9292 62.1142 68.7209 62.3177C68.687 62.3516 68.6386 62.3807 68.6531 62.434C68.6676 62.4921 68.7257 62.4873 68.7693 62.4921C68.9098 62.5066 69.0503 62.526 69.1908 62.5357C70.2322 62.5842 71.2688 62.7198 72.3102 62.8022C73.187 62.8748 74.0589 62.9669 74.9356 63.0541C75.1245 63.0735 75.2553 63.0347 75.2117 62.7973V62.7925Z" fill="#0E2B72"/>
<path d="M29.0287 24.8672C30.5546 24.8672 32.0804 24.8672 33.6014 24.8672C33.7951 24.8672 33.9889 24.8672 34.1826 24.872C35.1369 24.9205 35.7133 25.3904 35.6891 26.0929C35.6649 26.8245 35.1223 27.2218 34.1293 27.2266C33.5481 27.2266 32.9668 27.2412 32.3856 27.2266C31.9302 27.2121 31.9835 27.3429 32.0949 27.7305C32.4388 28.9611 33.0782 29.5764 34.4539 29.3632C35.1562 29.2566 35.6842 29.8719 35.6891 30.5066C35.6891 31.0928 35.1805 31.7469 34.5265 31.6548C33.1218 31.461 32.5696 32.1442 31.9835 33.3118C31.0438 35.177 29.3339 36.0588 27.222 36.0927C27.004 36.0927 26.786 36.083 26.5681 36.0976C26.4276 36.1073 26.2338 36.0976 26.166 36.1848C26.0255 36.364 26.2387 36.4852 26.3356 36.6063C27.6095 38.2196 28.8883 39.8329 30.1671 41.4414C30.6805 42.0858 31.194 42.7253 31.7026 43.3745C32.3613 44.2175 32.371 44.8425 31.7558 45.3367C31.1746 45.8067 30.5158 45.6371 29.8522 44.8038C27.905 42.362 25.9674 39.9153 24.0299 37.4687C23.8022 37.1828 23.56 36.9115 23.3711 36.6014C22.63 35.3708 23.4292 33.8835 24.863 33.8108C25.8512 33.7623 26.8442 33.8786 27.8323 33.6848C28.6558 33.5249 29.3145 33.1083 29.8086 32.4445C29.9346 32.275 30.1283 32.086 30.0314 31.8632C29.9249 31.6161 29.6488 31.7081 29.4453 31.7033C27.7984 31.6936 26.1563 31.7033 24.5094 31.7033C24.2914 31.7033 24.0735 31.7033 23.8555 31.7033C22.9303 31.6791 22.3248 31.1897 22.3442 30.4872C22.3636 29.7605 22.9255 29.3341 23.8942 29.3293C25.7834 29.3245 27.6676 29.3293 29.5567 29.3293C29.7456 29.3293 29.9878 29.4117 30.1041 29.2372C30.2494 29.0192 30.0411 28.8254 29.9297 28.6559C29.3097 27.7063 28.4039 27.2605 27.2946 27.2412C26.1563 27.2169 25.018 27.2412 23.8846 27.2315C22.9012 27.2266 22.3539 26.81 22.3442 26.0784C22.3345 25.3711 22.9061 24.8963 23.87 24.8817C25.5896 24.8623 27.3043 24.8769 29.0239 24.8769L29.0287 24.8672Z" fill="#FFB400"/>
</svg>
