<svg width="78" height="78" viewBox="0 0 78 78" fill="none" xmlns="http://www.w3.org/2000/svg">
<path d="M13.89 0H17.9692C22.2717 0.635201 25.6661 2.82367 28.6138 5.94508C31.6558 9.16079 34.8666 12.2127 37.9731 15.3689C38.5041 15.9098 38.8068 15.9296 39.3477 15.3788C42.8463 11.8306 46.3796 8.32212 49.903 4.79874C50.9947 3.70699 52.1956 2.76412 53.5355 1.99493C55.3468 0.947839 57.3169 0.382113 59.3565 0.00496262H63.4357C65.7135 0.382113 67.8772 1.08183 69.8522 2.31749C78.5912 7.7961 80.0254 19.8252 72.7851 27.1896C69.2022 30.832 65.5745 34.4299 61.942 38.0227C61.4209 38.5388 61.4358 38.8316 61.947 39.3427C65.6143 42.9703 69.3361 46.5533 72.8793 50.3C77.425 55.1037 78.621 60.8056 76.3928 67.0038C72.4923 77.8468 58.5725 80.9583 50.2801 72.9042C46.5781 69.3113 42.9654 65.6291 39.3328 61.9618C38.8217 61.4457 38.5289 61.4358 38.0128 61.9618C34.3654 65.649 30.7278 69.3411 27.0159 72.9588C19.7408 80.0403 7.65715 78.5019 2.31253 69.8721C1.08679 67.892 0.382113 65.7383 0 63.4556V59.3764C0.640163 55.0739 2.8336 51.6845 5.95005 48.7318C9.16576 45.6898 12.2177 42.479 15.3739 39.3725C15.9247 38.8316 15.9098 38.5289 15.3689 37.9929C11.8406 34.5142 8.34198 31.0008 4.84838 27.4873C4.28265 26.9166 3.7467 26.3162 3.24548 25.6859C1.44906 23.423 0.481363 20.8078 0 17.9841C0 16.6244 0 15.2647 0 13.9049C0.0397 13.7064 0.0794104 13.5129 0.11911 13.3144C0.977624 8.67446 3.35962 5.04191 7.30481 2.44652C9.31462 1.12649 11.5478 0.411888 13.9 0.00992477L13.89 0ZM15.2994 3.15119C14.4062 3.17104 13.5377 3.30999 12.6842 3.5333C7.59265 4.84341 3.11646 9.44365 3.12142 15.9892C3.12142 19.6019 4.53574 22.6737 7.10136 25.2393C16.3316 34.4497 25.547 43.675 34.7673 52.8954C40.6082 58.7362 46.4342 64.5821 52.285 70.408C56.1756 74.2788 61.818 75.3656 66.706 73.0679C71.5891 70.7753 74.1001 66.7804 74.2143 61.4358C74.2937 57.8082 72.8347 54.6967 70.2393 52.1113C61.5946 43.4914 52.9698 34.8517 44.335 26.2169C37.9284 19.8103 31.5169 13.3988 25.1103 6.99217C22.3958 4.28264 19.1156 3.03209 15.2994 3.15119ZM74.254 15.7411C74.2043 15.2349 74.1895 14.5749 74.0704 13.9347C73.1523 9.00199 70.3882 5.50838 65.644 3.85587C60.8453 2.18847 56.389 3.11645 52.6869 6.60509C48.8212 10.2426 45.1489 14.0886 41.3823 17.8352C41.0201 18.1925 41.0598 18.4357 41.4022 18.7632C42.2706 19.6019 43.1143 20.4654 43.9678 21.3239C48.7914 26.1474 53.6149 30.971 58.4385 35.7995C58.766 36.127 59.0191 36.4794 59.5302 35.9633C63.2868 32.1719 67.103 28.4401 70.8199 24.6091C73.1523 22.2122 74.1646 19.2148 74.2589 15.746L74.254 15.7411ZM15.7311 74.254C19.3439 74.1547 22.3759 73.0332 24.8423 70.6016C28.5543 66.9442 32.2166 63.2372 35.9137 59.565C36.3206 59.158 36.2809 58.9049 35.8938 58.5228C30.1869 52.8358 24.49 47.1388 18.8079 41.432C18.4109 41.03 18.1578 41.0449 17.7658 41.4369C14.0935 45.134 10.3667 48.7765 6.73412 52.5132C4.00971 55.3171 2.82368 58.7263 3.1909 62.6467C3.80129 69.1922 9.32455 74.2341 15.7311 74.249V74.254Z" fill="#0E2B72"/>
<path d="M59.5498 48.2958C59.5647 48.8417 59.3067 49.2586 58.9395 49.6258C55.8429 52.7224 52.7562 55.824 49.6496 58.9106C48.7167 59.8386 47.888 59.8039 46.9054 58.8213C43.2183 55.1441 39.5361 51.4569 35.8539 47.7748C30.8566 42.7775 25.8544 37.7753 20.8572 32.7731C19.5868 31.5027 19.5868 30.8377 20.8721 29.5574C23.79 26.6395 26.708 23.7215 29.6259 20.8035C30.807 19.6225 31.5266 19.6175 32.6828 20.7738C41.3672 29.4532 50.0467 38.1376 58.7311 46.822C59.1479 47.2339 59.5449 47.6557 59.5498 48.2958ZM55.5699 48.3306C55.5501 48.0626 55.3119 47.9286 55.1431 47.7549C52.2996 44.9064 49.4512 42.058 46.6077 39.2144C41.6451 34.2519 36.6777 29.2894 31.7201 24.322C31.4224 24.0193 31.1941 23.7364 30.7524 24.188C28.5789 26.3913 26.3854 28.5748 24.187 30.7534C23.8545 31.0809 23.8744 31.3042 24.2019 31.6168C25.0555 32.4357 25.8793 33.2842 26.7179 34.118C33.7101 41.1101 40.7022 48.1023 47.6944 55.0945C48.0021 55.4021 48.2453 55.8388 48.7763 55.2979C50.93 53.1095 53.1085 50.9508 55.2771 48.7772C55.4012 48.6531 55.5451 48.544 55.5699 48.3306Z" fill="#0E2B72"/>
<path d="M19.8454 12.957C19.8354 13.8304 19.1208 14.535 18.2623 14.5202C17.4088 14.5053 16.7041 13.7659 16.719 12.9024C16.7289 12.0439 17.4683 11.3243 18.3219 11.3442C19.2003 11.364 19.8602 12.0588 19.8503 12.957H19.8454Z" fill="#FFB400"/>
<path d="M19.8445 23.6868C19.8296 24.5602 19.115 25.2648 18.2565 25.245C17.4029 25.2251 16.6982 24.4857 16.7131 23.6222C16.728 22.7637 17.4674 22.0442 18.316 22.069C19.1944 22.0938 19.8544 22.7885 19.8395 23.6868H19.8445Z" fill="#FFB400"/>
<path d="M62.7455 55.838C62.7455 56.7164 62.0458 57.426 61.1873 57.426C60.3387 57.426 59.6191 56.6965 59.6191 55.833C59.6191 54.9745 60.3437 54.25 61.1972 54.25C62.0756 54.25 62.7505 54.9448 62.7505 55.838H62.7455Z" fill="#FFB400"/>
<path d="M62.7466 66.5726C62.7416 67.451 62.0369 68.1557 61.1784 68.1507C60.3249 68.1457 59.6152 67.4113 59.6152 66.5478C59.6152 65.6893 60.3497 64.9648 61.2032 64.9747C62.0816 64.9846 62.7515 65.6794 62.7466 66.5726Z" fill="#FFB400"/>
<path d="M12.9367 19.8501C12.0484 19.8501 11.3487 19.1752 11.3438 18.3018C11.3388 17.4482 12.0633 16.7237 12.9218 16.7188C13.7853 16.7188 14.5148 17.4284 14.5198 18.2819C14.5198 19.1454 13.8201 19.8451 12.9417 19.8501H12.9367Z" fill="#FFB400"/>
<path d="M23.6764 19.8502C22.7881 19.8601 22.0835 19.1902 22.0686 18.3168C22.0537 17.4682 22.7732 16.7288 23.6318 16.7189C24.4952 16.7089 25.2297 17.4186 25.2446 18.2672C25.2595 19.1257 24.5548 19.8353 23.6764 19.8452V19.8502Z" fill="#FFB400"/>
<path d="M55.8222 62.7505C54.9389 62.7505 54.2392 62.0558 54.2442 61.1873C54.2442 60.3288 54.9737 59.6142 55.8371 59.6192C56.7006 59.6241 57.4251 60.3487 57.4202 61.1972C57.4152 62.0607 56.7056 62.7505 55.8272 62.7505H55.8222Z" fill="#FFB400"/>
<path d="M66.5617 62.7505C65.6734 62.7505 64.9737 62.0706 64.9688 61.2022C64.9688 60.3486 65.6833 59.6241 66.5468 59.6191C67.4103 59.6191 68.1398 60.3337 68.1447 61.1873C68.1447 62.0508 67.4401 62.7505 66.5617 62.7505Z" fill="#FFB400"/>
<path d="M53.7142 19.8494C52.8309 19.8643 52.1114 19.1894 52.0866 18.326C52.0617 17.4823 52.7813 16.738 53.6448 16.7231C54.5033 16.7032 55.2427 17.4079 55.2675 18.2614C55.2923 19.12 54.5877 19.8346 53.7093 19.8494H53.7142Z" fill="#FFB400"/>
<path d="M64.4174 19.8491C63.5391 19.8491 62.8245 19.1643 62.8146 18.3058C62.8046 17.4572 63.5341 16.7277 64.3926 16.7228C65.2511 16.7128 65.9856 17.4324 65.9955 18.2859C66.0054 19.1445 65.3008 19.8491 64.4174 19.8541V19.8491Z" fill="#FFB400"/>
<path d="M60.6117 12.9568C60.6018 13.8203 59.8723 14.5349 59.0237 14.52C58.1603 14.5051 57.4804 13.7905 57.4903 12.9072C57.5003 12.0338 58.2099 11.3291 59.0684 11.344C59.9269 11.3589 60.6217 12.0834 60.6117 12.9568Z" fill="#FFB400"/>
<path d="M57.4903 23.6454C57.4952 22.767 58.1999 22.0673 59.0584 22.0723C59.912 22.0822 60.6166 22.8018 60.6117 23.6702C60.6117 24.5337 59.8822 25.2533 59.0336 25.2433C58.1701 25.2334 57.4853 24.5188 57.4903 23.6404V23.6454Z" fill="#FFB400"/>
<path d="M10.8139 62.7509C9.93054 62.7658 9.21098 62.0909 9.18617 61.2274C9.16135 60.3838 9.88589 59.6394 10.7444 59.6195C11.6029 59.5997 12.3423 60.3044 12.3671 61.1629C12.3919 62.0164 11.6873 62.736 10.8089 62.7509H10.8139Z" fill="#FFB400"/>
<path d="M21.4922 62.7506C20.6138 62.7456 19.9091 62.0409 19.9141 61.1775C19.9191 60.3289 20.6585 59.6093 21.517 59.6192C22.3705 59.6242 23.1 60.3587 23.0951 61.2072C23.0951 62.0707 22.3805 62.7555 21.4922 62.7506Z" fill="#FFB400"/>
<path d="M14.5901 55.8632C14.5752 54.9799 15.2451 54.2653 16.1136 54.2504C16.9671 54.2306 17.6966 54.9402 17.7115 55.8086C17.7264 56.6721 17.0316 57.4066 16.1731 57.4264C15.3146 57.4463 14.6 56.7416 14.5901 55.8682V55.8632Z" fill="#FFB400"/>
<path d="M14.5899 66.5527C14.5899 65.6743 15.2896 64.9697 16.153 64.9746C17.0116 64.9746 17.7162 65.6992 17.7113 66.5676C17.7113 67.4311 16.9868 68.1506 16.1382 68.1457C15.2747 68.1407 14.5849 67.4311 14.5899 66.5477V66.5527Z" fill="#FFB400"/>
</svg>
