<svg width="78" height="79" viewBox="0 0 78 79" fill="none" xmlns="http://www.w3.org/2000/svg">
<path d="M0.662113 0.909895C25.9245 0.909895 51.182 0.909895 76.4444 0.890137C77.0817 0.890137 77.1608 1.05314 77.1608 1.63602C77.141 26.8874 77.141 52.1437 77.1608 77.3951C77.1608 77.978 77.0817 78.141 76.4444 78.141C51.2363 78.1212 26.0233 78.1212 0.815247 78.1212C0.103769 77.7606 0 77.1333 0 76.4072C0.00988164 51.7979 0.00988164 27.1887 0 2.57949C0 1.90276 0.158159 1.34952 0.672004 0.904956L0.662113 0.909895ZM38.6026 19.8138C27.0115 19.8138 15.4203 19.8138 3.82913 19.8138C3.04848 19.8138 2.65816 20.2024 2.65816 20.9796C2.65816 38.7721 2.65816 56.5647 2.65816 74.3572C2.65816 75.1344 3.05014 75.523 3.83408 75.523C27.0164 75.523 50.1987 75.523 73.381 75.523C74.1617 75.523 74.552 75.1327 74.552 74.3523C74.552 56.5597 74.552 38.7672 74.552 20.9747C74.552 20.2008 74.16 19.8138 73.3761 19.8138C61.7849 19.8138 50.1938 19.8138 38.6026 19.8138ZM38.6076 17.1465C50.2481 17.1465 61.8887 17.1465 73.5293 17.1465C74.5175 17.1465 74.5471 17.1168 74.5471 16.1289C74.5471 12.2612 74.5471 8.38849 74.5471 4.52076C74.5471 3.54766 74.5125 3.51308 73.5145 3.51308C50.2333 3.51308 26.9522 3.51308 3.67105 3.51308C2.68783 3.51308 2.65322 3.54766 2.65322 4.53558C2.65322 8.35391 2.65322 12.1772 2.65322 15.9955C2.65322 16.7628 3.04684 17.1481 3.83408 17.1514C15.4252 17.1514 27.0164 17.1514 38.6026 17.1514L38.6076 17.1465Z" fill="#0E2B72"/>
<path d="M38.5739 55.1866C30.5698 55.1866 22.5657 55.1866 14.5616 55.1866C13.6327 55.1866 12.7038 55.1767 11.7947 54.9594C8.63749 54.2086 6.41415 51.3831 6.32521 48.1328C6.23134 44.7986 7.48138 42.2794 10.5397 40.7827C11.5773 40.2788 12.694 40.1208 13.8303 40.1158C30.3376 40.1109 46.8498 40.1059 63.3571 40.1158C67.0924 40.1158 70.0321 42.4226 70.7139 45.7914C71.4946 49.674 69.8592 53.1268 66.5686 54.584C65.3384 55.1273 64.0389 55.1866 62.7346 55.1866C54.681 55.1965 46.6275 55.1866 38.5739 55.1866ZM42.6353 52.4649C49.4832 52.4649 56.3312 52.4649 63.1792 52.4649C63.7523 52.4649 64.3304 52.4945 64.8986 52.3365C67.2455 51.6943 68.5103 49.5801 68.1991 46.7991C67.9421 44.4726 66.0943 42.8474 63.5794 42.8474C49.4586 42.8326 35.3377 42.8425 21.2168 42.8277C20.4955 42.8277 20.2534 43.0895 20.2632 43.8008C20.2929 46.315 20.2731 48.8244 20.2731 51.3386C20.2731 52.4599 20.283 52.4698 21.4145 52.4698C28.4897 52.4698 35.56 52.4698 42.6353 52.4698V52.4649ZM17.6199 47.708C17.6199 46.3743 17.5952 45.0456 17.6298 43.7119C17.6496 43.0499 17.3877 42.8178 16.7454 42.8326C15.5695 42.8622 14.3887 42.8326 13.2078 42.8524C11.775 42.8771 10.6731 43.5538 9.82823 44.68C8.96853 45.8211 8.89442 47.1548 9.02288 48.4984C9.23039 50.6866 11.0635 52.3858 13.2572 52.4451C14.4331 52.4797 15.614 52.4402 16.7948 52.4649C17.4075 52.4797 17.6496 52.2475 17.6348 51.6202C17.6051 50.3161 17.6249 49.0071 17.6249 47.6981L17.6199 47.708Z" fill="#FFB400"/>
<path d="M52.3819 9.00098C56.7693 9.00098 61.1617 9.00098 65.5492 9.00098C66.814 9.00098 67.4514 9.43072 67.4761 10.2952C67.5057 11.1892 66.8437 11.6634 65.5442 11.6634C56.715 11.6634 47.8858 11.6634 39.0565 11.6634C37.7867 11.6634 37.1543 11.2337 37.1296 10.3693C37.1049 9.47024 37.762 9.00098 39.0565 9.00098C43.4983 9.00098 47.9351 9.00098 52.3769 9.00098H52.3819Z" fill="#FFB400"/>
<path d="M24.7685 11.6684C23.8149 11.6684 22.8614 11.6832 21.9078 11.6684C20.9888 11.6536 20.3811 11.1201 20.3712 10.3544C20.3613 9.59867 20.9789 9.02567 21.8831 9.0158C23.8149 8.99604 25.7468 8.99604 27.6786 9.0158C28.6026 9.02567 29.1708 9.57397 29.1559 10.3693C29.1411 11.13 28.5828 11.6486 27.6984 11.6684C26.7201 11.6881 25.7418 11.6684 24.7635 11.6733L24.7685 11.6684Z" fill="#0E2B72"/>
<path d="M12.4659 9.00602C13.4442 9.00602 14.4225 8.9912 15.4007 9.00602C16.3148 9.02578 16.8978 9.57901 16.883 10.3595C16.8632 11.1103 16.295 11.6438 15.4205 11.6537C13.464 11.6734 11.5123 11.6734 9.55577 11.6537C8.66148 11.6438 8.13775 11.1251 8.13281 10.3397C8.13281 9.55432 8.65159 9.03072 9.54093 9.01096C10.5192 8.98626 11.4975 9.00602 12.4758 9.00602H12.4659Z" fill="#0E2B72"/>
</svg>
