<svg width="42" height="44" viewBox="0 0 42 44" fill="none" xmlns="http://www.w3.org/2000/svg">
<path d="M38 42V15.4L25 8.4V0H4V42H0V44H42V42H38ZM36 16.6V42H25V10.67L36 16.59V16.6ZM14.94 42V38H12.94V42H10V34H18V42H14.94ZM8 32V42H6V2H23V42H20V32H8Z" fill="#FFB400"/>
<path d="M13 7.93994H9V9.93994H13V7.93994Z" fill="#FFB400"/>
<path d="M20 7.93994H16V9.93994H20V7.93994Z" fill="#FFB400"/>
<path d="M13 14H9V16H13V14Z" fill="#FFB400"/>
<path d="M20 14H16V16H20V14Z" fill="#FFB400"/>
<path d="M13 20.0601H9V22.0601H13V20.0601Z" fill="#FFB400"/>
<path d="M20 20.0601H16V22.0601H20V20.0601Z" fill="#FFB400"/>
<path d="M13 26.1201H9V28.1201H13V26.1201Z" fill="#FFB400"/>
<path d="M20 26.1201H16V28.1201H20V26.1201Z" fill="#FFB400"/>
<path d="M32 18H29V20H32V18Z" fill="#FFB400"/>
<path d="M32 24H29V26H32V24Z" fill="#FFB400"/>
<path d="M32 30H29V32H32V30Z" fill="#FFB400"/>
<path d="M32 36H29V38H32V36Z" fill="#FFB400"/>
</svg>
