<svg width="105" height="90" viewBox="0 0 105 90" fill="none" xmlns="http://www.w3.org/2000/svg">
<path d="M86.5131 0C87.8801 0.727521 88.1186 1.16169 87.9092 2.7282C87.4263 6.36581 86.9435 10.0034 86.4142 13.6352C86.2746 14.5915 86.4491 15.2838 87.1762 15.9879C92.493 21.1274 97.7691 26.3022 103.057 31.477C103.447 31.8584 103.877 32.2163 104.028 32.7854C104.366 34.0351 103.522 35.1968 102.173 35.1264C100.323 35.0384 98.473 34.8037 96.629 34.6101C91.5274 34.0585 86.4025 33.6126 81.3242 32.8734C79.2417 32.5742 77.834 33.1785 76.3564 34.522C73.6806 36.9569 70.8477 39.2216 68.0787 41.5567C67.7064 41.8677 67.4039 42.2021 67.2411 42.6773C66.5314 44.7249 65.8275 46.7726 65.048 48.7908C64.699 49.7061 65.0189 49.8645 65.845 49.8469C67.7064 49.8117 69.5621 49.8469 71.4235 49.8352C72.4939 49.8352 73.2908 50.2576 73.8667 51.2022C75.449 53.8014 77.037 56.4005 78.7123 58.9409C79.4802 60.1026 79.614 61.3288 79.5209 62.6196C79.4046 64.3152 79.8176 65.7409 80.7542 67.2429C86.356 76.2372 80.5273 88.0711 70.0333 89.2035C62.5234 90.0131 55.7872 84.985 54.3446 77.4223C54.1817 76.5775 53.8559 76.2958 53.0648 76.3369C52.3377 76.3721 51.6047 76.3604 50.8776 76.3369C49.3186 76.2782 48.6147 75.5624 48.5973 74.0018C48.5798 72.2769 48.5624 70.5461 48.6031 68.8211C48.6206 68.0056 48.3239 67.6653 47.5211 67.7299C47.0849 67.7651 46.6428 67.7592 46.2065 67.7299C45.5317 67.6829 45.1361 67.9528 44.8744 68.5982C43.8331 71.1621 42.0938 73.1511 39.7902 74.6296C39.3016 74.9405 39.1154 75.2984 39.0805 75.8734C38.6326 82.8025 33.1646 88.4759 26.2597 89.2035C18.9651 89.9721 12.3627 85.2725 10.7455 78.0501C10.4779 76.8649 10.0184 76.5423 8.87242 76.5892C6.69101 76.6831 4.49797 76.6244 2.31074 76.6127C0.780851 76.6009 0.0653496 75.9497 0.0595325 74.4184C0.0362642 68.7566 -0.0800776 63.089 0.094435 57.4331C0.292216 50.8971 5.50433 45.517 11.9438 44.9538C12.7815 44.8834 12.9851 44.5607 12.9676 43.7979C12.9327 42.2549 12.9676 40.7118 12.956 39.1688C12.9327 36.7809 11.4727 35.2437 9.09347 35.1557C7.93005 35.1088 6.76082 35.1616 5.59158 35.1381C4.36418 35.1088 3.57305 34.346 3.5905 33.2724C3.61377 32.2339 4.38163 31.4946 5.54504 31.477C7.04004 31.4477 8.53503 31.4183 10.03 31.4946C13.6599 31.6706 16.6266 34.9738 16.7429 38.94C16.7895 40.5945 16.7778 42.249 16.7429 43.9035C16.7255 44.6721 17.0222 44.9479 17.7726 44.9244C19.0814 44.8834 20.4019 44.8716 21.7107 44.9244C22.6007 44.9655 22.8334 44.5841 22.8276 43.751C22.8043 38.9341 22.816 34.1172 22.816 29.3003C22.816 26.9124 23.3395 26.3844 25.6954 26.3844C29.8546 26.3844 34.008 26.4078 38.1673 26.3726C39.3598 26.3609 40.0753 26.842 40.4941 27.9568C42.1811 32.4627 43.8913 36.951 45.6015 41.4511C45.8284 42.0437 45.8924 42.6539 45.8924 43.2875C45.8807 47.6233 45.9273 51.965 45.8575 56.3007C45.84 57.4624 46.381 57.4976 47.2536 57.5152C48.1785 57.5328 48.6846 57.3686 48.6089 56.2597C48.5159 54.9044 48.574 53.5432 48.5915 52.182C48.6089 50.6155 49.307 49.8 50.8543 49.8704C52.0817 49.9232 52.582 49.4186 52.9485 48.3332C54.1235 44.854 55.3975 41.41 56.59 37.9426C56.9332 36.9334 57.4742 36.1414 58.2886 35.4491C62.1278 32.1693 65.9148 28.831 69.7599 25.563C70.487 24.9469 70.6266 24.3368 70.423 23.4567C69.9344 21.3445 69.5388 19.2148 69.0618 17.1026C68.8524 16.1873 69.0444 15.4305 69.7133 14.7968C74.7567 10.0621 79.7943 5.32733 84.8436 0.592578C85.0821 0.369628 85.3671 0.193614 85.6289 0C85.9197 0 86.2106 0 86.5014 0H86.5131ZM3.85227 64.5323C3.85227 66.9965 3.86972 69.4607 3.84064 71.919C3.83482 72.67 4.09077 72.9809 4.85863 72.9516C6.13257 72.9105 7.41233 72.9398 8.68627 72.9398C9.80315 72.9398 10.4896 72.4079 10.7455 71.344C12.2987 64.8608 18.2205 60.1613 24.788 60.2024C30.7505 60.2376 36.1022 64.0336 38.2487 69.754C38.6443 70.8101 38.8304 70.857 39.5924 70.0063C40.9769 68.4691 41.8495 66.709 42.088 64.6086C42.2567 63.1359 42.1578 61.6691 42.245 60.2082C42.3032 59.2343 41.9658 58.9468 41.006 58.9585C35.7939 58.9996 30.576 58.982 25.3639 58.9761C23.4617 58.9761 22.8334 58.3425 22.8218 56.3829C22.8102 54.1417 22.8043 51.9004 22.8218 49.6533C22.8276 48.9317 22.6182 48.5796 21.8271 48.5914C18.9476 48.6266 16.0623 48.5327 13.1887 48.6207C7.709 48.785 3.86972 52.8215 3.84646 58.3484C3.83482 60.4077 3.84646 62.4671 3.84646 64.5264L3.85227 64.5323ZM83.5405 6.98772C83.1275 7.36322 82.8541 7.60377 82.5982 7.84432C80.0968 10.2029 77.7002 12.6847 75.0592 14.8672C73.3374 16.2871 72.8778 17.6365 73.413 19.8426C74.5473 24.5245 74.431 24.5362 77.9678 27.945C78.7123 28.6667 79.5209 28.9424 80.4866 29.0422C84.4305 29.4587 88.3687 29.8988 92.3069 30.3212C93.767 30.4796 95.2271 30.6204 96.7511 30.773C96.5824 30.2391 96.2218 30.0278 95.9426 29.7521C91.7601 25.6627 87.5718 21.5792 83.3718 17.5074C82.6331 16.7917 82.2957 16.0348 82.4586 14.967C82.8599 12.3796 83.1682 9.7746 83.5347 6.97599L83.5405 6.98772ZM61.773 53.6664V53.6781C59.0041 53.6781 56.2293 53.7016 53.4604 53.6664C52.6402 53.6547 52.3784 53.9656 52.3784 54.7577C52.3959 60.308 52.3784 65.8583 52.39 71.4085C52.39 72.4118 52.9485 72.7932 53.8676 72.4939C54.4435 72.3003 54.4027 71.7606 54.5075 71.3205C56.2933 64.1392 62.9422 59.5042 70.202 60.3666C71.8889 60.5661 73.4712 61.0707 74.9952 61.81C75.1872 61.9038 75.3966 62.1033 75.5944 61.9449C75.8213 61.763 75.7456 61.4638 75.6409 61.2291C75.5246 60.9592 75.3675 60.7128 75.2105 60.4605C73.9889 58.5009 72.7324 56.5589 71.5573 54.5699C71.1443 53.8776 70.6499 53.6371 69.8704 53.6488C67.1713 53.684 64.4721 53.6605 61.7788 53.6605L61.773 53.6664ZM24.8054 64.0395C19.0174 64.0101 14.3056 68.7155 14.0845 74.3538C13.8635 80.0977 18.4124 85.4896 24.6076 85.5307C30.448 85.5717 35.3983 80.8428 35.41 75.052C35.4216 68.2931 30.2153 64.0688 24.8054 64.0395ZM57.893 74.7528C57.8057 80.5671 62.4827 85.4779 68.3754 85.4779C74.3844 85.4779 79.0381 80.9602 79.1661 74.7763C79.2824 69.0676 74.4426 64.1275 68.8466 64.0453C62.7386 63.9514 57.9803 68.6041 57.8872 74.7528H57.893ZM34.4792 55.2975C36.7363 55.2975 38.9933 55.2799 41.2445 55.3092C41.9193 55.3151 42.2509 55.1273 42.2392 54.3822C42.2043 52.7687 42.2043 51.1553 42.2392 49.5418C42.2567 48.7967 41.9251 48.609 41.2503 48.609C36.7014 48.6266 32.1524 48.6324 27.6034 48.609C26.8239 48.609 26.5854 48.9082 26.6029 49.6533C26.6378 51.1201 26.6611 52.5927 26.5971 54.0536C26.5564 54.9924 26.8298 55.3561 27.8187 55.3268C30.035 55.2623 32.2571 55.3033 34.4792 55.3033V55.2975ZM58.562 49.8411C60.9993 49.8 60.5689 50.1813 61.4472 47.7876C62.2849 45.517 63.0818 43.2347 63.8846 40.9524C64.1231 40.2835 64.4489 39.6968 65.0073 39.2333C67.8402 36.8689 70.6499 34.4751 73.477 32.1048C75.2977 30.5735 75.2745 30.6146 73.6399 28.919C72.936 28.1856 72.4532 28.1269 71.6679 28.8251C68.1369 31.9523 64.5594 35.0207 60.9935 38.0951C60.534 38.4882 60.2257 38.9458 60.0221 39.5208C59.0681 42.2549 58.0792 44.9772 57.1135 47.7113C56.6094 49.1311 57.0922 49.8411 58.562 49.8411ZM34.3513 44.9186C36.649 44.9186 38.9468 44.8951 41.2387 44.9303C42.0007 44.942 42.2974 44.6721 42.245 43.9035C42.1403 42.2842 41.3376 40.8996 40.7733 39.4387C40.6337 39.0749 40.2381 39.1101 39.9066 39.1101C35.7881 39.1101 31.6696 39.116 27.5511 39.0984C26.8239 39.0984 26.5971 39.4035 26.6145 40.0958C26.6436 41.3455 26.6553 42.5952 26.6145 43.8449C26.5854 44.6545 26.8763 44.9479 27.6849 44.9362C29.907 44.8951 32.1291 44.9244 34.3571 44.9244L34.3513 44.9186ZM33.0191 35.2789C34.7643 35.2789 36.5152 35.2672 38.2603 35.2848C38.9409 35.2906 39.2202 35.097 38.9293 34.3812C38.4523 33.1902 37.9928 31.9933 37.5565 30.7847C37.3645 30.2508 37.0213 30.0748 36.4803 30.0748C33.4961 30.0924 30.5062 30.0924 27.522 30.0748C26.8705 30.0748 26.5971 30.3153 26.6145 30.9783C26.6436 32.0403 26.6669 33.1081 26.6087 34.17C26.5622 35.0736 26.9636 35.3082 27.7779 35.2848C29.5231 35.2437 31.274 35.273 33.0191 35.273V35.2789ZM47.3524 61.2232C46.3926 61.0648 45.7935 61.2056 45.8575 62.4201C45.9098 63.3647 45.8982 64.0101 47.1605 63.9573C48.1785 63.9162 48.702 63.7696 48.6206 62.5727C48.5566 61.6457 48.5333 60.9123 47.3466 61.2174L47.3524 61.2232Z" fill="#0E2B72"/>
<path d="M32.1074 74.7418C32.1074 78.931 28.844 82.2752 24.7255 82.2928C20.7466 82.3104 17.3378 78.8781 17.3204 74.8298C17.3029 70.7405 20.6885 67.2965 24.7488 67.273C28.7684 67.2554 32.1016 70.629 32.1074 74.7418ZM24.7721 71.1042C22.7419 71.0866 21.1597 72.6532 21.1306 74.7066C21.1015 76.8423 22.6488 78.4675 24.7139 78.4733C26.7441 78.4792 28.4077 76.8129 28.431 74.7594C28.4485 72.8233 26.7499 71.1218 24.7779 71.1042H24.7721Z" fill="#FFB400"/>
<path d="M75.8672 74.9403C75.8265 78.971 72.47 82.327 68.5086 82.2976C64.4017 82.2683 61.0511 78.8067 61.0743 74.6176C61.0918 70.6866 64.5471 67.2603 68.4853 67.2661C72.6329 67.272 75.9079 70.6808 75.8672 74.9403ZM64.8962 74.7702C64.8671 76.8471 66.3679 78.443 68.3864 78.484C70.434 78.5251 72.1559 76.8999 72.1908 74.8992C72.2257 72.8751 70.5736 71.1443 68.5667 71.1032C66.5075 71.0621 64.9311 72.6345 64.902 74.7702H64.8962Z" fill="#FFB400"/>
</svg>
