<svg width="101" height="100" viewBox="0 0 101 100" fill="none" xmlns="http://www.w3.org/2000/svg">
<path d="M49.6965 60.8924C50.2098 60.4124 50.6898 59.959 51.1765 59.5057C51.7631 58.959 52.5498 58.959 53.0965 59.4857C53.6631 60.0324 53.6831 60.839 53.0965 61.439C52.0831 62.4657 51.0431 63.4657 49.9965 64.459C49.7031 64.739 49.5698 65.0124 49.6031 65.439C49.6565 66.119 49.6298 66.799 49.6098 67.479C49.5965 67.8724 49.7565 68.099 50.1031 68.2724C53.7031 70.0924 58.3298 69.019 60.7965 65.8324C62.1365 64.099 62.8098 62.1524 62.8965 59.9924C62.9365 59.039 63.4698 58.399 64.2565 58.4257C65.1231 58.4524 65.7098 59.1257 65.6565 60.0724C65.5765 61.619 65.2965 63.1257 64.6965 64.5657C64.3431 65.4057 63.9431 66.219 63.3765 66.939C63.1898 67.179 63.2098 67.2924 63.5231 67.3457C65.5765 67.659 67.5631 67.6057 69.3698 66.3924C69.9231 66.019 70.4765 66.119 71.0098 66.4524C72.1698 67.159 73.4231 67.559 74.7831 67.579C78.2965 67.6324 80.8098 65.979 82.3298 62.899C83.6965 60.139 83.5298 57.3524 82.0298 54.6524C81.6098 53.8924 81.5898 53.339 82.0031 52.8457C82.6765 52.0457 83.7431 52.1524 84.3165 53.1057C85.1631 54.5124 85.6965 56.0324 85.8831 57.6657C86.2631 61.0324 85.3898 64.0524 83.1831 66.6057C80.3565 69.8724 76.1098 71.1457 71.9498 69.8657C71.3631 69.6857 71.4965 70.0724 71.4898 70.3457C71.4831 74.1857 71.4898 78.0257 71.4831 81.8724C71.4831 82.2124 71.4698 82.5524 71.4231 82.8924C71.3298 83.5924 70.7231 84.0857 70.0365 84.0524C69.2631 84.0124 68.7365 83.479 68.7365 82.7057C68.7365 78.619 68.7365 74.539 68.7365 70.4524C68.7365 69.7724 68.7365 69.779 68.1098 69.939C66.5298 70.3324 64.9431 70.3857 63.3431 70.0924C62.6831 69.9724 62.2031 69.6724 62.1098 68.9257C62.0631 68.5457 61.8498 68.759 61.7165 68.8857C61.2631 69.3057 60.7765 69.6857 60.2565 70.019C57.0765 72.0524 53.7031 72.4924 50.1298 71.2524C49.6631 71.0924 49.6298 71.1124 49.6231 71.659C49.6231 75.179 49.6231 78.6924 49.6165 82.2124C49.6165 82.439 49.6165 82.6724 49.5765 82.8924C49.4365 83.619 48.8098 84.119 48.1231 84.0657C47.3765 84.0057 46.8565 83.459 46.8565 82.6657C46.8498 79.199 46.8565 75.7257 46.8565 72.259C46.8565 70.9057 46.8565 70.939 45.5298 71.159C42.2565 71.7057 39.2631 71.019 36.5631 69.059C33.8098 67.0657 32.1298 64.3657 31.5965 61.0524C30.7765 55.979 32.3831 51.759 36.4365 48.5324C36.7831 48.2524 36.9231 47.979 36.9631 47.5324C37.4031 43.019 39.6098 39.6857 43.7165 37.6857C44.1898 37.4524 44.2698 37.2324 44.1565 36.7524C43.6298 34.5924 42.4698 32.9257 40.3965 32.0257C36.9565 30.539 33.0165 32.4524 31.9565 36.0924C31.8298 36.5257 31.7631 36.979 31.6698 37.419C31.5898 37.7724 31.7231 37.9857 32.0565 38.1524C34.2031 39.239 35.7431 40.919 36.7698 43.079C36.9365 43.4257 37.0898 43.779 37.0165 44.199C36.9098 44.819 36.5298 45.1657 35.9431 45.3124C35.4231 45.4457 34.8565 45.2257 34.5498 44.7457C34.3431 44.419 34.1965 44.0524 34.0098 43.7124C32.8765 41.719 31.2298 40.3724 28.9565 39.9457C24.8165 39.1657 20.8298 42.1324 20.2631 46.3324C19.9698 48.4857 20.3965 50.4524 21.6031 52.2524C22.1565 53.079 22.0498 53.7924 21.2431 54.359C18.5631 56.259 17.4365 58.899 17.8631 62.0857C18.5165 66.9924 23.1698 69.9524 27.7698 68.279C28.0898 68.1657 28.3898 68.0124 28.6431 67.7657C29.2365 67.1857 30.2231 67.079 30.9098 67.5457C32.2698 68.4724 33.7765 68.8657 35.4098 68.799C36.1631 68.7724 36.8165 69.279 36.8898 69.9257C36.9898 70.7524 36.5831 71.359 35.7431 71.5124C34.5498 71.7324 33.3898 71.459 32.2431 71.1724C32.0231 71.119 31.8098 71.0324 31.5965 70.959C31.0698 70.779 31.0565 70.7924 31.0565 71.359C31.0565 74.419 31.0565 77.4857 31.0565 80.5457C31.0565 81.1924 31.0565 81.839 31.0565 82.4924C31.0498 83.399 30.4765 84.039 29.6765 84.0457C28.8831 84.0457 28.3031 83.419 28.2898 82.499C28.2765 81.6857 28.2831 80.879 28.2831 80.0657C28.2831 77.2124 28.2831 74.359 28.2898 71.5057C28.2898 71.1524 28.2431 71.0124 27.8298 71.1257C23.3231 72.339 18.7165 70.359 16.4165 66.2924C14.0898 62.1657 14.6765 56.6257 18.3098 53.2057C18.6498 52.8857 18.6498 52.6457 18.4565 52.2457C15.8765 47.019 18.1565 40.4324 23.4031 37.9857C24.9898 37.2457 26.6765 36.859 28.4565 37.1124C28.7898 37.159 28.9365 37.059 28.9965 36.6924C29.4365 34.0457 30.6965 31.8724 32.9165 30.3324C37.6231 27.0657 44.0898 29.0457 46.2831 34.3924C46.5298 34.9924 46.7498 35.6057 46.8365 36.2524C46.8831 36.599 47.0431 36.7724 47.4165 36.7324C47.6698 36.7057 47.9365 36.719 48.1965 36.7324C48.9898 36.7457 49.5698 37.2657 49.6031 37.9924C49.6365 38.7257 49.0365 39.359 48.2365 39.419C47.1365 39.499 46.0365 39.6057 45.0165 40.079C42.0698 41.439 40.3565 43.739 39.7965 46.9257C39.6898 47.539 39.6965 48.1524 39.6965 48.7657C39.6965 49.339 39.4765 49.7924 38.9765 50.1124C35.7231 52.1657 34.0698 55.1257 34.1498 58.9724C34.2298 62.699 35.8898 65.579 39.1165 67.4457C41.3898 68.759 43.8498 68.879 46.3565 68.119C46.7031 68.0124 46.8498 67.8057 46.8498 67.4457C46.8431 65.4057 46.8431 63.359 46.8498 61.319C46.8498 61.0324 46.7298 60.8257 46.5298 60.639C45.6165 59.7657 44.6965 58.899 43.7898 58.019C43.3365 57.579 43.0165 57.0924 43.2631 56.419C43.6165 55.439 44.7365 55.1524 45.5098 55.8524C45.8565 56.1657 46.1765 56.5124 46.5165 56.839C46.6831 56.999 46.7831 56.9857 46.8165 56.7257C46.8831 56.159 46.8431 55.5924 46.8498 55.0257C46.8631 54.039 47.3365 53.479 48.1898 53.4657C49.0365 53.4457 49.6031 54.0457 49.6098 55.0257C49.6231 56.7924 49.6098 58.559 49.6098 60.3257C49.6098 60.499 49.5565 60.679 49.6965 60.899V60.8924Z" fill="#0E2B72"/>
<path d="M75.3607 35.8525C75.2541 36.8525 75.0407 37.7459 74.7274 38.6125C74.0741 40.4192 73.0274 41.9192 71.3207 42.8859C70.8807 43.1325 70.4141 43.3192 69.9207 43.4325C68.9074 43.6792 68.0274 42.8592 68.2007 41.8259C68.7407 38.6725 69.0541 35.4992 68.9274 32.2992C68.8007 29.0192 68.0607 25.8859 66.3541 23.0325C65.7207 21.9659 64.8874 21.0592 64.0341 20.1725C63.9474 20.0792 63.8474 19.9525 63.7141 19.9859C63.5674 20.0125 63.6207 20.1725 63.6074 20.2792C62.9741 25.1925 60.8541 29.4992 58.1141 33.5325C56.8074 35.4592 55.7007 37.4659 55.2474 39.7592C54.4874 43.5859 55.0474 47.1725 57.4007 50.3792C58.1341 51.3792 59.0341 52.2192 60.1341 52.8259C60.3341 52.9325 60.5341 53.0459 60.7141 53.1792C61.3007 53.6125 61.4607 54.3459 61.1007 54.9459C60.7341 55.5592 59.9741 55.8192 59.3341 55.5059C57.3541 54.5459 55.8007 53.0859 54.6541 51.2392C51.6074 46.3325 51.4607 41.2059 53.6007 35.9325C54.3541 34.0659 55.5741 32.4792 56.6274 30.7859C58.3341 28.0325 59.7741 25.1592 60.5074 21.9725C60.8274 20.5725 60.9941 19.1659 60.7874 17.7325C60.7007 17.1325 60.8341 16.6059 61.3474 16.2259C61.8741 15.8259 62.4141 15.9325 62.9474 16.1925C65.6141 17.4859 67.5207 19.5525 68.9607 22.0859C70.5741 24.9259 71.3474 28.0125 71.6074 31.2525C71.7941 33.6192 71.6941 35.9792 71.4274 38.3325C71.4007 38.5525 71.4007 38.7792 71.3874 39.0459C71.5941 39.0059 71.6207 38.8525 71.6807 38.7392C72.3407 37.3925 72.6874 35.9725 72.7207 34.4792C72.7407 33.4925 72.7674 32.5059 72.6407 31.5192C72.6207 31.3725 72.6274 31.2259 72.6207 31.0792C72.6207 30.4192 72.9607 29.8859 73.5007 29.6992C74.1341 29.4792 74.7207 29.6459 75.1074 30.2525C75.9607 31.6125 76.9341 32.8925 77.7007 34.3059C79.0074 36.7192 79.7941 39.2725 79.8874 42.0392C80.0407 46.5792 78.6607 50.5125 75.3941 53.7325C74.6474 54.4659 73.7741 55.0325 72.8407 55.4925C72.1074 55.8592 71.3207 55.5992 70.9674 54.9192C70.6007 54.2192 70.8341 53.4725 71.5874 53.0725C73.8407 51.8925 75.3007 50.0059 76.2141 47.6992C77.7807 43.7259 77.3941 39.8325 75.5141 36.0459C75.4941 36.0059 75.4541 35.9792 75.3474 35.8659L75.3607 35.8525Z" fill="#FFB200"/>
</svg>
