<svg width="74" height="78" viewBox="0 0 74 78" fill="none" xmlns="http://www.w3.org/2000/svg">
<path d="M68.5387 0.111328C71.1974 0.824743 72.9964 2.42882 73.6345 5.16284C73.7985 5.86739 73.8339 6.61626 73.8339 7.3474C73.8428 28.4175 73.8339 49.4877 73.8472 70.5578C73.8472 73.3051 72.9787 75.565 70.5327 77.0317C69.6509 77.559 68.6849 77.8692 67.6525 77.8736C62.7472 77.8825 57.8375 77.8825 52.9322 77.878C52.0371 77.878 51.4921 77.3995 51.5009 76.6728C51.5098 75.946 52.0504 75.5029 52.9676 75.5029C57.5184 75.4985 62.0737 75.5029 66.6245 75.5029C69.7263 75.5029 71.3702 73.8678 71.3702 70.7882C71.3702 49.5674 71.3702 28.3422 71.3702 7.12141C71.3702 4.09493 69.713 2.44654 66.6643 2.44211C47.1628 2.44211 27.6658 2.44211 8.16427 2.44211C5.12007 2.44211 3.47168 4.09493 3.47168 7.13027C3.47168 28.3511 3.47168 49.5763 3.47168 70.7971C3.47168 73.8413 5.11564 75.4985 8.15541 75.4985C20.9792 75.4985 33.8029 75.4985 46.6222 75.4985C46.9501 75.4985 47.2869 75.4719 47.6059 75.534C48.1997 75.6492 48.5276 76.0435 48.5409 76.6506C48.5542 77.2931 48.2352 77.7141 47.6015 77.8426C47.3091 77.9046 46.9989 77.878 46.6931 77.878C33.794 77.878 20.895 77.878 7.99588 77.878C4.01228 77.878 1.57515 75.7112 1.07 71.7409C1.0567 71.6434 1.01682 71.5459 0.990234 71.4484C0.999097 49.7978 0.999097 28.1428 0.999097 6.48775C1.06113 6.06679 1.09215 5.63697 1.18964 5.22045C1.84102 2.46427 3.6312 0.838037 6.31205 0.111328H68.5387Z" fill="#0E2B72"/>
<path d="M6.58722 38.9725C6.58722 29.1575 6.58722 19.3469 6.58279 9.53193C6.58279 8.18486 6.97273 7.04606 8.1204 6.24845C8.81609 5.76989 9.6004 5.66797 10.429 5.66797C27.4225 5.67683 44.416 5.6724 61.4139 5.6724C62.5261 5.6724 63.6383 5.66354 64.7505 5.6724C66.6958 5.69012 68.1005 7.01061 68.2467 8.95145C68.2644 9.17744 68.26 9.40786 68.26 9.63385C68.26 29.1841 68.26 48.7343 68.26 68.289C68.26 69.2727 68.1226 70.2032 67.4712 70.992C66.8243 71.7763 65.9957 72.2017 64.9809 72.2549C64.7284 72.2682 64.4758 72.2593 64.2232 72.2593C46.3435 72.2593 28.4638 72.2327 10.5841 72.2903C8.07166 72.2992 6.54734 70.673 6.56063 68.258C6.61381 58.4961 6.58279 48.7343 6.58279 38.9681L6.58722 38.9725ZM9.0731 38.9282C9.0731 48.6679 9.0731 58.4031 9.0731 68.1428C9.0731 69.6272 9.31238 69.8753 10.7702 69.8753C28.548 69.8753 46.3302 69.8753 64.108 69.8753C65.526 69.8753 65.7741 69.6183 65.7741 68.1871C65.7741 48.7122 65.7741 29.2328 65.7741 9.75792C65.7741 8.32223 65.5304 8.06522 64.1124 8.06522C46.3081 8.06522 28.5037 8.06522 10.6993 8.06522C9.33453 8.06522 9.0731 8.33552 9.0731 9.71361C9.0731 19.4533 9.0731 29.1885 9.0731 38.9282Z" fill="#0E2B72"/>
<path d="M23.9219 35.747C22.5394 34.5372 21.1879 33.363 20.0934 31.9273C19.6016 31.2848 19.1363 30.6201 18.7065 29.9377C18.2545 29.2287 18.3918 28.5375 18.9945 28.1475C19.5927 27.762 20.2928 27.9304 20.7448 28.6482C22.4552 31.3778 24.7328 33.4605 27.6219 34.8873C28.7962 35.4678 29.9837 35.8134 31.3264 35.7647C33.6749 35.6849 36.0323 35.7381 38.3852 35.747C38.8505 35.747 39.2803 35.6672 39.7145 35.4988C45.3687 33.2788 48.6522 29.0072 50.2474 23.2954C50.4778 22.4712 50.624 21.6204 50.8234 20.783C50.9785 20.1316 50.7969 19.8746 50.079 19.879C47.119 19.91 44.159 19.8923 41.199 19.8923C33.7635 19.8923 26.3236 19.8923 18.8881 19.8923C17.7892 19.8923 17.7316 19.9455 17.9576 21.0001C18.157 21.9129 18.3874 22.8213 18.6045 23.7297C18.8084 24.5937 18.4982 25.2318 17.7892 25.4357C17.1334 25.6218 16.513 25.2318 16.2693 24.4209C15.2236 20.9469 14.8957 17.3843 15.0729 13.7729C15.1261 12.7183 15.906 11.9472 16.9562 11.801C17.2309 11.7656 17.51 11.7744 17.7892 11.7744C28.8449 11.7744 39.8962 11.7744 50.9519 11.7744C52.813 11.7744 53.4378 12.3017 53.6771 14.1584C53.7436 14.6813 54.0936 14.668 54.426 14.7167C56.0832 14.9604 57.6164 15.5143 58.9457 16.5468C62.8053 19.5511 63.3769 25.2097 60.2352 29.1578C58.5292 31.2981 56.2383 32.5344 53.6904 33.3541C51.3685 34.0986 48.9934 34.5816 46.5474 34.6126C45.7409 34.6214 45.3332 35.2329 44.7306 35.6184C44.9965 35.8311 45.2579 35.7425 45.4972 35.7425C47.6729 35.7514 49.8486 35.7425 52.0243 35.7514C53.4644 35.7602 54.262 36.4559 54.3772 37.8783C54.6608 41.4188 52.3389 43.5103 49.7555 43.5635C49.2415 43.5724 49.0909 43.8028 49.1174 44.2636C49.1485 44.8485 49.082 45.429 48.9136 45.9873C48.4395 47.5648 47.0392 48.5796 45.3067 48.5796C38.0706 48.584 30.8389 48.584 23.6029 48.5796C21.2898 48.5796 19.7566 47.0996 19.6459 44.7865C19.5927 43.6699 19.5883 43.7009 18.5469 43.5413C15.1084 43.014 13.8676 39.7837 14.5279 37.1295C14.745 36.261 15.5914 35.7558 16.6637 35.7514C18.8128 35.7381 20.9619 35.7514 23.1155 35.747C23.3902 35.747 23.6693 35.747 23.9441 35.747H23.9219ZM34.375 17.5083C37.7648 17.5083 41.1547 17.5083 44.5445 17.5083C46.5164 17.5083 48.4927 17.5083 50.4645 17.5083C50.7924 17.5083 51.1602 17.5482 51.1912 17.0652C51.2267 16.4847 51.302 15.9043 51.271 15.3282C51.2134 14.2647 51.1868 14.2647 50.1056 14.2647C39.9361 14.2647 29.7666 14.2647 19.6016 14.2647C17.3328 14.2647 17.3771 14.2647 17.4879 16.5556C17.5278 17.3976 17.8557 17.5305 18.5912 17.5305C23.851 17.5039 29.1152 17.5172 34.375 17.5172V17.5083ZM34.375 41.1042C39.3556 41.1042 44.3318 41.1042 49.3124 41.1042C50.7481 41.1042 51.6166 40.4573 51.8781 39.2387C52.0509 38.4322 51.9046 38.2373 51.0716 38.2373C39.9228 38.2373 28.7785 38.2373 17.6297 38.2373C16.8144 38.2373 16.6681 38.4411 16.8498 39.2609C17.1201 40.4528 17.9709 41.0998 19.3578 41.1042C24.3606 41.1131 29.3678 41.1042 34.3706 41.1042H34.375ZM34.4016 43.5724C32.7089 43.5724 31.0118 43.5724 29.3191 43.5724C27.17 43.5724 25.0208 43.5724 22.8717 43.5724C22.5616 43.5724 22.2115 43.4837 22.114 43.9756C21.8304 45.398 22.4419 46.1956 23.8953 46.1956C30.8744 46.2045 37.8535 46.1956 44.8325 46.2C45.1915 46.2 45.5415 46.1646 45.8694 46.0184C46.5385 45.717 46.831 44.9327 46.6094 43.9756C46.4499 43.2799 45.865 43.5857 45.4795 43.5857C41.7883 43.5591 38.0972 43.5724 34.406 43.5724H34.4016ZM48.6921 31.9495C49.9239 31.8475 50.9475 31.595 51.9667 31.3202C54.2399 30.7043 56.3934 29.8225 57.9886 28.0057C59.6946 26.0605 60.2928 23.7961 59.4553 21.3058C58.6666 18.9618 56.8897 17.69 54.5102 17.2114C54.1468 17.1405 53.6549 17.0253 53.6948 17.6324C53.7258 18.1243 53.0612 18.8909 54.169 19.0548C55.0065 19.1789 55.773 19.4935 56.4244 20.0607C58.5602 21.9173 58.4184 25.3072 56.1364 27.2613C54.5722 28.6039 52.689 29.2376 50.7393 29.7206C50.4424 29.7915 50.1366 29.8358 49.9461 30.1105C49.565 30.6689 49.1839 31.2316 48.6965 31.9539L48.6921 31.9495ZM51.6343 26.8536C52.8839 26.5789 54.2399 25.8034 54.8824 25.028C56.03 23.6455 55.4939 21.811 53.8544 21.4654C53.4378 21.3767 53.1675 21.4432 53.0833 21.9129C52.7687 23.5746 52.2591 25.1787 51.6343 26.8536Z" fill="#0E2B72"/>
<path d="M40.2061 64.3364C40.1529 64.908 39.8959 65.2802 39.3686 65.422C38.8236 65.5682 38.407 65.3378 38.1589 64.8814C37.9196 64.4427 37.7512 63.9642 37.5961 63.4856C37.4632 63.0824 37.2505 62.8962 36.803 62.9051C35.6154 62.9317 34.4234 62.9273 33.2359 62.9051C32.8327 62.9007 32.6022 63.0336 32.4782 63.428C32.3408 63.8622 32.1724 64.2921 31.9819 64.7042C31.6806 65.36 31.1178 65.6081 30.5373 65.3733C29.9568 65.1384 29.6998 64.5712 29.9524 63.8933C30.9361 61.2612 31.9464 58.6335 32.9434 56.0058C33.2049 55.3234 33.4619 54.6366 33.7189 53.9542C33.9493 53.3427 34.3525 52.9395 35.0349 52.9395C35.6863 52.9395 36.1073 53.3072 36.3288 53.8921C37.5917 57.2244 38.8457 60.5655 40.0997 63.9021C40.1573 64.0483 40.1795 64.2079 40.2061 64.3319V64.3364ZM35.0349 56.7414C34.5342 58.0486 34.1044 59.1741 33.6701 60.2952C33.5505 60.6009 33.5948 60.7693 33.9759 60.7604C34.6583 60.7471 35.3407 60.7471 36.0231 60.7604C36.4042 60.7693 36.5238 60.6452 36.382 60.2774C35.9522 59.1564 35.5268 58.0308 35.0349 56.7369V56.7414Z" fill="#FFB400"/>
<path d="M23.528 52.7935C24.8131 52.7669 25.8765 53.0727 26.8603 53.6576C27.618 54.1051 27.8395 54.7166 27.485 55.3015C27.1261 55.8953 26.5235 55.9928 25.7525 55.5674C24.3301 54.7787 22.8899 54.7609 21.5207 55.6206C20.1825 56.4625 19.5223 57.7254 19.6109 59.3339C19.7438 61.833 22.3538 63.6941 24.6846 62.963C25.2252 62.7946 25.6505 62.4667 26.0538 62.0768C26.5855 61.5672 27.197 61.5362 27.649 61.9571C28.1098 62.3869 28.1231 63.0693 27.6224 63.6099C26.1823 65.1608 24.3744 65.6217 22.3626 65.1786C18.9861 64.4386 17.187 61.4697 17.3997 58.7357C17.6789 55.1996 20.2933 52.7935 23.528 52.7891V52.7935Z" fill="#FFB400"/>
<path d="M50.9707 59.0895C50.9707 57.4633 50.9619 55.8415 50.9707 54.2153C50.9752 53.2714 51.343 52.8638 52.2912 52.8416C53.5718 52.8106 54.8524 52.8106 56.133 52.8416C56.9484 52.8638 57.4579 53.3246 57.4624 53.9494C57.4668 54.6229 56.9439 55.0572 56.102 55.0705C55.3 55.0794 54.5024 55.0838 53.7003 55.0705C53.2927 55.0616 53.1154 55.2167 53.1287 55.6332C53.1464 56.2492 53.1464 56.8695 53.1287 57.4855C53.1198 57.8665 53.2838 58.0172 53.6604 58.0128C54.4137 57.9995 55.1715 57.9995 55.9248 58.0128C56.6781 58.0305 57.0946 58.4071 57.1079 59.0585C57.1256 59.7365 56.6958 60.1486 55.9159 60.1663C55.1848 60.184 54.4536 60.1885 53.7225 60.1663C53.2749 60.153 53.1066 60.3303 53.1243 60.7734C53.1464 61.345 53.1509 61.9166 53.1243 62.4882C53.0977 62.9845 53.3237 63.1219 53.7801 63.1086C54.5555 63.0864 55.3354 63.0953 56.1109 63.1086C56.9085 63.1219 57.4314 63.5429 57.4579 64.1809C57.489 64.8057 56.9572 65.3242 56.1862 65.3375C54.8613 65.3641 53.5319 65.3685 52.207 65.333C51.343 65.3109 50.9752 64.8944 50.9707 64.0258C50.9619 62.3775 50.9707 60.7335 50.9707 59.0851V59.0895Z" fill="#FFB400"/>
<path d="M42.6353 59.0365C42.6353 57.4811 42.6264 55.9214 42.6353 54.366C42.6441 53.2538 43.0695 52.8329 44.1817 52.8196C45.325 52.8107 46.4726 52.8151 47.6159 52.8196C48.0368 52.8196 48.4445 52.8905 48.737 53.2317C49.0161 53.5551 49.087 53.9362 48.9408 54.3262C48.7635 54.8092 48.3692 55.0396 47.8729 55.0529C47.093 55.075 46.3176 55.0839 45.5377 55.0529C45.0237 55.0351 44.842 55.239 44.8686 55.7397C44.8996 56.2626 44.8907 56.7943 44.8686 57.3172C44.8553 57.7381 45.0414 57.8888 45.4446 57.8755C46.0871 57.8578 46.7252 57.8622 47.3677 57.8755C48.1698 57.8932 48.6926 58.3275 48.6926 58.9656C48.6926 59.5948 48.1698 60.0734 47.3899 60.1044C46.774 60.131 46.1536 60.1354 45.5377 60.1088C45.0237 60.0867 44.8553 60.3038 44.8641 60.8001C44.8907 61.8547 44.8774 62.9049 44.8641 63.9595C44.8553 64.8014 44.4033 65.3243 43.7253 65.3066C43.1005 65.2933 42.6397 64.7615 42.6264 63.9683C42.6087 62.32 42.622 60.6716 42.622 59.0232L42.6353 59.0365Z" fill="#FFB400"/>
</svg>
