<svg width="14" height="15" viewBox="0 0 14 15" fill="none" xmlns="http://www.w3.org/2000/svg">
<path fill-rule="evenodd" clip-rule="evenodd" d="M6.40923 4.75927L5.24962 6.23368C5.65317 6.80974 6.11223 7.35881 6.62676 7.87341C7.14136 8.38794 7.69043 8.84701 8.26649 9.25054L9.74089 8.09094L13.6668 9.30248V12.2954C13.6643 12.8467 13.4221 13.3695 13.0033 13.728C12.6571 14.0243 12.2155 14.1919 11.7608 14.1635C8.8947 13.9845 6.07996 12.8001 3.89002 10.6101C1.70011 8.42021 0.515669 5.6055 0.336609 2.7394C0.308202 2.28466 0.475875 1.84305 0.772142 1.49689C1.1306 1.07808 1.6535 0.835884 2.20476 0.833344H5.19772L6.40923 4.75927ZM10.0157 9.57114L12.3335 10.2863V12.2915C12.3321 12.4545 12.2602 12.609 12.1363 12.7151C12.0218 12.813 11.9132 12.8371 11.8439 12.8328C9.2895 12.6732 6.7843 11.6188 4.83283 9.66734C2.88137 7.71588 1.82694 5.21065 1.66735 2.65626C1.66302 2.587 1.68714 2.47835 1.78512 2.36388C1.89118 2.23995 2.0457 2.16805 2.20874 2.16668H4.2138L4.92906 4.48446L3.5895 6.18761L4.15754 6.99861C4.60538 7.63794 5.11434 8.24654 5.68396 8.81621C6.25363 9.38581 6.86223 9.89481 7.50156 10.3426L8.31256 10.9107L10.0157 9.57114Z" fill="#0E2E7D"/>
</svg>
