<svg width="86" height="86" viewBox="0 0 86 86" fill="none" xmlns="http://www.w3.org/2000/svg">
<path d="M85.9926 44.134V64.6076C85.9544 64.8274 85.9018 65.0424 85.8731 65.267C85.1613 71.0196 82.5481 75.6925 77.9332 79.2282C74.1638 82.1141 69.8881 84.0396 65.5311 85.8122C64.7429 86.1323 63.945 86.0081 63.1615 85.7023C59.827 84.3836 56.6166 82.8069 53.5782 80.9005C52.8854 80.4657 52.2023 80.265 51.3806 80.265C35.921 80.2793 20.4615 80.2793 4.99712 80.2746C4.46684 80.2746 3.93655 80.3032 3.41104 80.179C1.28511 79.6678 0.0191095 77.9716 0.0191095 75.6017C0.0191095 52.0559 0.0382189 28.5149 0 4.96908C0 2.4941 0.955473 0.850477 3.2725 0H50.7547C51.1799 0.229342 51.5 0.582911 51.8392 0.917369C55.298 4.37184 58.7377 7.84542 62.2204 11.276C62.9322 11.9784 63.2284 12.7333 63.2237 13.7271C63.1998 21.1855 63.2093 28.6439 63.2093 36.1023C63.2093 36.3555 63.2141 36.604 63.2093 36.8572C63.2045 37.2586 63.3431 37.4114 63.7731 37.2824C64.5374 37.0531 65.2493 37.206 65.9372 37.6073C71.35 40.7943 77.2213 42.371 83.4797 42.5382C84.674 42.5717 85.5101 43.0303 85.983 44.1293L85.9926 44.134ZM3.01452 40.0967C3.01452 40.2639 3.01452 40.4311 3.01452 40.5984C3.01452 52.118 3.01452 63.6377 3.01452 75.1574C3.01452 76.7436 3.41104 77.188 4.87291 77.188C19.1572 77.1928 33.4463 77.188 47.7307 77.188C47.9695 77.188 48.3039 77.2979 48.4234 77.0447C48.5524 76.7771 48.2275 76.6146 48.0699 76.4426C44.8499 72.8592 43.1922 68.5781 43.0488 63.8431C42.853 57.4741 42.9772 51.0955 42.9915 44.7217C42.9915 43.5511 43.8849 42.6815 45.0553 42.5764C45.7528 42.5143 46.4503 42.4665 47.1478 42.4283C51.3758 42.1942 55.4174 41.1717 59.3253 39.5663C59.9034 39.3274 60.1184 38.9834 60.1184 38.3623C60.104 30.7271 60.0993 23.0967 60.1184 15.4615C60.1184 14.6779 59.8317 14.4342 59.0817 14.4486C57.1803 14.482 55.2789 14.482 53.3775 14.4486C50.4824 14.4008 48.6909 12.5708 48.6861 9.68493C48.6861 7.86931 48.6861 6.0489 48.6861 4.23328C48.6861 3.36687 48.253 2.93367 47.3867 2.93367C33.3795 2.93367 19.3722 2.93367 5.36976 2.93367C5.06401 2.93367 4.75348 2.93367 4.44773 2.96234C3.60691 3.05312 3.12917 3.53091 3.04318 4.36706C3.00496 4.72541 3.01452 5.09331 3.01452 5.45643C3.01452 17.0048 3.01452 28.5531 3.01452 40.0967ZM45.9678 55.6442C45.9917 58.143 45.92 60.9668 46.0968 63.7906C46.4073 68.7119 48.2371 72.8783 52.0733 76.0795C55.642 79.0562 59.8222 80.9291 64.0454 82.7304C64.3702 82.869 64.6903 82.8881 65.0199 82.7448C69.1571 80.9578 73.2561 79.1135 76.7914 76.2324C80.5607 73.1602 82.5576 69.1371 82.8873 64.3496C83.2981 58.3485 83.0019 52.333 83.0736 46.3271C83.0784 45.7538 82.83 45.5531 82.2662 45.5292C76.2467 45.2616 70.5951 43.6658 65.3161 40.7704C64.719 40.4407 64.2794 40.4693 63.7014 40.7847C58.4463 43.6562 52.8186 45.2569 46.8325 45.5197C46.092 45.5531 45.9583 45.8876 45.963 46.5182C45.9821 49.4519 45.9726 52.3904 45.9726 55.6442H45.9678ZM57.6724 11.3142L57.8061 11.0992C55.9429 9.27403 54.0893 7.44884 52.2214 5.62844C51.9109 5.32743 51.7819 5.53766 51.7819 5.85778C51.7819 7.30551 51.7819 8.75323 51.8201 10.201C51.8344 10.7982 52.2357 11.2664 52.7994 11.2903C54.4237 11.3572 56.0528 11.3142 57.6771 11.3142H57.6724Z" fill="#0E2B72"/>
<path d="M31.545 32.8342C38.9547 32.8342 46.3644 32.8342 53.7741 32.8342C55.2598 32.8342 56.0194 33.3693 55.9956 34.3918C55.9764 35.3856 55.2264 35.9255 53.8075 35.9255C38.9881 35.9255 24.1688 35.9255 9.34459 35.9255C9.23471 35.9255 9.12005 35.9255 9.01017 35.9207C7.87316 35.8634 7.17567 35.2805 7.16611 34.3774C7.15656 33.4314 7.86838 32.8342 9.06272 32.8342C16.5584 32.8294 24.0493 32.8342 31.545 32.8342Z" fill="#0E2B72"/>
<path d="M31.5255 24.9513C38.9352 24.9513 46.3449 24.9513 53.7546 24.9513C55.2403 24.9513 55.9999 25.4865 55.976 26.509C55.9569 27.5028 55.2069 28.0427 53.788 28.0427C38.9686 28.0427 24.1492 28.0427 9.32506 28.0427C9.21518 28.0427 9.10052 28.0427 8.99064 28.0379C7.85363 27.9806 7.15613 27.3977 7.14658 26.4946C7.13702 25.5486 7.84885 24.9513 9.04319 24.9513C16.5389 24.9466 24.0298 24.9513 31.5255 24.9513Z" fill="#0E2B72"/>
<path d="M25.6218 16.3517C31.2352 16.3517 36.8486 16.3517 42.4667 16.3517C43.5942 16.3517 44.1675 16.8869 44.1484 17.9094C44.1341 18.9032 43.5655 19.4431 42.4906 19.4431C31.2638 19.4431 20.0322 19.4431 8.80544 19.4431C8.71944 19.4431 8.63823 19.4431 8.55224 19.4383C7.69231 19.381 7.16202 18.798 7.15247 17.895C7.14291 16.949 7.68276 16.3517 8.59046 16.3517C14.2707 16.347 19.9463 16.3517 25.6265 16.3517H25.6218Z" fill="#0E2B72"/>
<path d="M23.7484 50.2259C19.0236 50.2259 14.3035 50.2259 9.57872 50.2259C9.27297 50.2259 8.96244 50.2402 8.65669 50.2068C7.80154 50.1208 7.2187 49.5426 7.17093 48.7638C7.12315 47.9994 7.65822 47.3448 8.49903 47.1871C8.82389 47.125 9.16786 47.125 9.50228 47.125C18.9758 47.125 28.4493 47.125 37.9228 47.125C38.3098 47.125 38.7111 47.1393 39.0837 47.2301C39.8433 47.4165 40.2781 48.028 40.2303 48.7686C40.1777 49.5474 39.7191 49.9966 38.9977 50.159C38.649 50.2355 38.2764 50.2211 37.9133 50.2211C33.1885 50.2211 28.4684 50.2211 23.7436 50.2211L23.7484 50.2259Z" fill="#0E2B72"/>
<path d="M23.7536 54.3156C28.4784 54.3156 33.1984 54.3156 37.9232 54.3156C38.229 54.3156 38.5395 54.3012 38.8453 54.3347C39.6526 54.4302 40.202 54.9988 40.2355 55.7585C40.2737 56.5277 39.8103 57.1346 38.9981 57.3161C38.6733 57.3878 38.3341 57.4069 37.9997 57.4069C28.4688 57.4069 18.938 57.4117 9.41193 57.4069C9.05362 57.4069 8.68099 57.383 8.33224 57.297C7.58697 57.1107 7.12357 56.4704 7.17134 55.7633C7.21434 55.0466 7.74463 54.4637 8.49467 54.3538C8.82431 54.306 9.1635 54.3203 9.49792 54.3203C14.2466 54.3203 19.0001 54.3203 23.7488 54.3203L23.7536 54.3156Z" fill="#0E2B72"/>
<path d="M23.7534 40.0347C28.4782 40.0347 33.203 40.0347 37.9278 40.0347C38.2336 40.0347 38.5441 40.0252 38.8498 40.0538C39.6954 40.1351 40.2496 40.7419 40.2353 41.5541C40.2257 42.3568 39.6524 42.9445 38.8068 43.0162C38.5823 43.0353 38.3578 43.0257 38.138 43.0257C28.5212 43.0257 18.8996 43.0257 9.28272 43.0257C9.05818 43.0257 8.83364 43.0353 8.61389 43.0162C7.78262 42.9493 7.19023 42.3377 7.1759 41.5493C7.16634 40.761 7.7444 40.1303 8.57567 40.0538C8.88142 40.0252 9.19195 40.0347 9.4977 40.0347C14.2512 40.0347 19.0047 40.0347 23.7581 40.0347H23.7534Z" fill="#0E2B72"/>
<path d="M23.6335 64.5025C18.8514 64.5025 14.0692 64.5025 9.28709 64.5025C8.98134 64.5025 8.66603 64.5168 8.36506 64.4642C7.64845 64.3352 7.12294 63.6759 7.1755 62.9544C7.23282 62.2043 7.62934 61.6978 8.38895 61.5545C8.71381 61.4923 9.05778 61.5162 9.39219 61.5162C18.9278 61.5162 28.4634 61.5162 37.9943 61.5162C38.3 61.5162 38.6106 61.5067 38.9163 61.5401C39.7046 61.6357 40.2349 62.2473 40.2301 63.0213C40.2253 63.7953 39.6855 64.3973 38.8924 64.4834C38.5867 64.5168 38.2761 64.5025 37.9704 64.5025C33.1882 64.5025 28.4061 64.5025 23.624 64.5025H23.6335Z" fill="#0E2B72"/>
<path d="M16.5386 71.7074C14.1117 71.7074 11.68 71.7074 9.25311 71.7074C8.89003 71.7074 8.52695 71.7218 8.17821 71.588C7.53804 71.3348 7.18451 70.8522 7.17974 70.1785C7.17496 69.5 7.52848 69.0175 8.16865 68.7642C8.54128 68.6161 8.93303 68.6113 9.32477 68.6113C14.126 68.6113 18.9321 68.6113 23.7333 68.6113C25.1856 68.6113 25.9787 69.1942 25.95 70.2024C25.9213 71.1867 25.1665 71.7074 23.7476 71.7074C21.3446 71.7074 18.9464 71.7074 16.5434 71.7074H16.5386Z" fill="#0E2B72"/>
<path d="M66.0612 67.2255C66.0612 68.678 66.0994 70.1353 66.0516 71.583C65.9752 74.0198 64.2315 75.8163 61.8428 75.9835C59.6786 76.1317 57.6769 74.4785 57.2995 72.2185C57.1419 71.2916 57.4619 70.5414 58.1642 70.2309C58.833 69.9346 59.4207 70.0923 59.9127 70.6131C60.1946 70.9094 60.2615 71.3011 60.3475 71.6882C60.529 72.5147 61.1023 72.9925 61.7855 72.9065C62.4925 72.8205 62.9464 72.2711 62.9511 71.4063C62.9655 68.5252 62.9511 65.6488 62.9655 62.7677C62.9655 62.1227 62.7457 61.9602 62.1581 62.2326C61.6803 62.4571 61.2217 62.739 60.6771 62.7964C59.9557 62.8776 59.3012 62.7247 58.6754 62.3425C57.5957 61.6783 56.4826 61.5207 55.2405 61.965C53.234 62.6817 51.5714 61.4538 51.5332 59.3228C51.4281 53.4841 55.5271 48.6058 61.5609 47.4543C66.0803 46.5895 70.1888 47.5069 73.6859 50.5648C76.3946 52.9299 77.6654 55.9687 77.4791 59.5808C77.3835 61.4108 75.7401 62.653 74.0155 62.0367C72.5871 61.5302 71.3593 61.707 70.1124 62.4619C69.2334 62.997 68.3113 62.9206 67.3893 62.4906C66.0707 61.8694 66.066 61.8838 66.066 63.365C66.066 64.6502 66.066 65.9355 66.066 67.2208H66.0612V67.2255ZM64.7092 50.2112C61.9288 50.2686 59.5879 50.9805 57.6005 52.6432C55.9332 54.0384 54.8535 55.7871 54.6624 58.0089C54.6098 58.6109 54.7818 58.8737 55.4793 58.7447C56.9173 58.4866 58.3219 58.6825 59.6309 59.3706C60.056 59.5951 60.4191 59.6572 60.8921 59.4422C63.2855 58.3481 65.7077 58.3481 68.1107 59.4231C68.5645 59.6286 68.9324 59.6286 69.3719 59.3945C70.7 58.6825 72.1284 58.4866 73.5999 58.7542C74.2448 58.8737 74.412 58.6252 74.3834 58.0566C74.3069 56.671 73.8101 55.4335 73.0027 54.3346C70.9007 51.4678 67.9483 50.3354 64.7188 50.2112H64.7092Z" fill="#FFB400"/>
</svg>
