<svg width="73" height="77" viewBox="0 0 73 77" fill="none" xmlns="http://www.w3.org/2000/svg">
<path d="M56.094 0C58.4247 0.509582 60.5517 1.43126 62.2311 3.186C65.2265 6.31439 66.2944 10.0188 65.0803 14.1885C63.8706 18.3494 61.0258 20.9416 56.8162 22.0051C55.6907 22.2887 55.6819 22.2665 55.6819 23.4319C55.6819 26.8173 55.6951 30.2072 55.6686 33.5926C55.6641 34.2661 55.8502 34.4965 56.5504 34.4921C60.2371 34.4611 63.9238 34.4744 67.6061 34.4788C70.154 34.4788 71.6783 36.0253 71.6827 38.5865C71.6827 40.0798 71.6872 41.5731 71.6827 43.0708C71.6739 44.9895 70.6636 46.403 68.8069 46.8373C67.8188 47.0677 68.0979 47.7191 68.0448 48.3173C67.9916 48.9066 68.1245 49.2655 68.8114 49.4295C70.6015 49.8549 71.6739 51.2773 71.6827 53.1206C71.6916 54.738 71.6916 56.3598 71.6827 57.9772C71.6739 59.7851 70.6237 61.1898 68.8601 61.6329C68.2264 61.7924 68.0138 62.0494 68.0315 62.6875C68.0669 63.9016 68.0315 63.9016 69.188 64.3182C70.6724 64.8499 71.6606 66.2103 71.6783 67.7966C71.696 69.4893 71.696 71.182 71.6783 72.8791C71.6562 74.9662 70.0609 76.5659 67.9694 76.5659C61.2208 76.5792 54.4721 76.5703 47.7235 76.5703C32.2056 76.5703 16.6922 76.5703 1.17427 76.5703C0.391429 76.5703 0 76.1774 0 75.3916C0 74.5187 0 73.6502 0 72.7772C0.0088623 70.7788 0.819775 69.1658 2.36625 67.9163C3.00433 67.4022 3.65129 66.8838 4.33811 66.4407C4.79452 66.1438 4.93631 65.8026 4.94074 65.2753C5.02494 57.7822 7.83871 51.4545 13.2979 46.3764C14.4677 45.2864 14.8311 44.2539 14.8266 42.7385C14.7735 30.3622 14.8355 17.9816 14.7646 5.60541C14.7469 2.72959 16.2357 0.713415 18.7305 0.00443125C19.4793 0.00443125 20.2238 0.00443125 20.9726 0.00443125C21.0613 0.0487428 21.1499 0.0974853 21.2429 0.128503C23.3965 0.912817 24.6106 2.41498 24.7967 4.72804C24.9075 6.14601 24.8543 7.56398 24.841 8.98194C24.8366 9.64219 25.067 9.83272 25.714 9.82829C31.2884 9.80614 36.8628 9.81057 42.4371 9.82829C43.0132 9.82829 43.2658 9.65991 43.3721 9.0617C43.7488 6.92589 44.7192 5.07367 46.1948 3.48288C47.9539 1.58635 50.1562 0.518445 52.6554 0.00886229H56.094V0ZM24.8543 28.8468C24.8543 33.8761 24.8676 38.9055 24.8366 43.9349C24.8322 44.728 25.0316 45.2819 25.6785 45.7827C26.7198 46.5936 27.6238 47.564 28.4746 48.5743C30.9649 51.5299 32.7462 54.8665 33.7477 58.6064C33.8186 58.8767 33.823 59.2002 34.2838 59.1736C35.077 59.1293 35.8746 59.1381 36.6722 59.1426C36.9957 59.1426 37.1242 59.0318 37.0755 58.6995C36.8362 57.0378 36.9824 55.3672 36.9647 53.7011C36.9425 51.264 37.8465 50.0499 40.1861 49.3231C40.5362 49.2124 40.6868 49.0528 40.6736 48.6984C40.6647 48.4236 40.647 48.1489 40.678 47.8786C40.7578 47.2405 40.5007 46.9791 39.8671 46.824C38.2231 46.4163 37.235 45.3085 37.0489 43.6335C36.8406 41.7503 36.8539 39.8493 37.0267 37.9661C37.2305 35.7594 38.7859 34.4744 41.0325 34.4744C44.7413 34.4655 48.4547 34.4611 52.1635 34.4832C52.8193 34.4876 53.0808 34.337 53.0719 33.6147C53.0365 30.0787 53.0453 26.5426 53.0675 23.0065C53.0675 22.4394 52.9301 22.2178 52.323 22.0849C47.5728 21.0258 44.5685 18.1145 43.4297 13.3732C43.2525 12.6332 43.0043 12.4161 42.2688 12.4205C36.814 12.4471 31.3637 12.4338 25.909 12.4338C25.2088 12.4338 24.8573 12.7986 24.8543 13.5283C24.8543 18.633 24.8543 23.7377 24.8543 28.8424V28.8468ZM19.887 73.9426C22.4748 73.9426 25.0626 73.9426 27.6504 73.9426C30.5882 73.9426 33.5261 73.9426 36.4595 73.9426C36.8362 73.9426 37.1419 73.9692 37.0666 73.402C36.8229 71.5941 36.9469 69.7729 36.9735 67.9606C37.0001 66.1659 38.0326 64.6771 39.6278 64.3093C40.5805 64.0877 40.771 63.6269 40.6691 62.816C40.6558 62.6919 40.6558 62.5679 40.6691 62.4438C40.7223 61.9165 40.4697 61.7525 39.9646 61.7614C38.2984 61.7835 36.6279 61.7747 34.9618 61.7658C34.3104 61.7658 33.823 62.045 33.4419 62.559C32.8171 63.3965 32.1923 64.234 31.5587 65.067C30.9162 65.9134 30.0698 66.4806 29.0196 66.6401C28.3594 66.7376 27.677 66.68 27.0079 66.6977C25.0094 66.7553 23.6269 65.8602 22.878 64.008C22.6255 63.3788 22.1868 63.0597 21.5088 63.0597C20.5384 63.0597 19.568 63.0641 18.5976 63.0508C18.0392 63.042 17.6005 63.2547 17.2106 63.6535C16.2003 64.6859 15.1723 65.6962 14.1531 66.7198C13.4618 67.4111 12.6377 67.8143 11.6495 67.9207C10.4044 68.0536 9.16362 67.9739 7.91847 67.9827C7.03667 67.9916 6.25681 68.2397 5.56112 68.7715C5.06483 69.1481 4.55966 69.5115 4.07223 69.9014C3.09738 70.6769 2.5878 71.6739 2.60995 72.9412C2.62768 73.9338 2.60995 73.9382 3.60253 73.9382C9.02626 73.9382 14.4544 73.9382 19.8782 73.9382L19.887 73.9426ZM54.3082 44.3425C58.7128 44.3425 63.1173 44.3425 67.5219 44.3425C68.6961 44.3425 69.0551 43.9925 69.0595 42.8492C69.0684 41.4313 69.0684 40.0133 69.0595 38.5953C69.0551 37.492 68.6828 37.1109 67.5795 37.1109C58.7482 37.1065 49.9125 37.1065 41.0812 37.1109C40.0488 37.1109 39.6765 37.4831 39.6677 38.4978C39.6544 39.9158 39.6588 41.3338 39.6677 42.7517C39.6721 44.0235 39.9912 44.3425 41.254 44.347C45.6099 44.347 49.9612 44.347 54.3171 44.347L54.3082 44.3425ZM54.3392 59.1426C58.7704 59.1426 63.2059 59.1426 67.6371 59.1426C68.6651 59.1426 69.0462 58.7615 69.0551 57.7556C69.0684 56.2845 69.0639 54.8178 69.0551 53.3466C69.0462 52.3097 68.6474 51.9065 67.5928 51.9065C58.7527 51.9021 49.9125 51.9021 41.0723 51.9065C40.0576 51.9065 39.6721 52.3009 39.6588 53.3112C39.6455 54.7291 39.6499 56.1515 39.6588 57.5695C39.6632 58.8368 39.9734 59.1426 41.2629 59.1426C45.6187 59.1426 49.979 59.1426 54.3348 59.1426H54.3392ZM54.2949 73.9426C58.7039 73.9426 63.1085 73.9426 67.5174 73.9426C68.7271 73.9426 69.0551 73.6059 69.0595 72.3829C69.0639 70.9649 69.0684 69.5425 69.0595 68.1245C69.0506 67.1541 68.6208 66.7243 67.6415 66.7065C66.7464 66.6933 65.8469 66.7065 64.9518 66.7065C57.0599 66.7065 49.1681 66.7065 41.2717 66.7065C40.0222 66.7065 39.6677 67.061 39.6632 68.2973C39.6544 69.64 39.6588 70.987 39.6632 72.3297C39.6632 73.6457 39.9646 73.9426 41.2983 73.9426C45.632 73.9426 49.9612 73.9426 54.2949 73.9426ZM19.8028 46.9702C19.0318 46.9702 18.2564 47.0101 17.4898 46.9569C16.7852 46.9082 16.2668 47.1696 15.7483 47.6171C13.6967 49.394 11.9863 51.4501 10.6436 53.8075C8.78255 57.0599 7.76782 60.5694 7.57728 64.3093C7.52854 65.2797 7.56399 65.2841 8.49454 65.2886C9.3143 65.2886 10.1385 65.2664 10.9583 65.2974C11.6008 65.3196 12.1015 65.1158 12.5535 64.6461C13.5372 63.6225 14.5564 62.6343 15.5578 61.6329C16.2092 60.9771 16.9802 60.5694 17.9063 60.4409C18.9742 60.2902 20.0421 60.3789 21.11 60.3656C23.0996 60.3434 24.5663 61.1632 25.3373 63.0597C25.6253 63.7598 26.1261 64.1188 26.8971 64.0789C27.2693 64.0611 27.646 64.0567 28.0182 64.0789C28.6784 64.1232 29.1747 63.8617 29.5647 63.3477C30.1318 62.5944 30.6946 61.8323 31.2795 61.0878C31.5232 60.7777 31.5099 60.4763 31.4257 60.113C30.318 55.3672 27.9251 51.3792 24.3758 48.0558C23.525 47.2582 22.6388 46.793 21.4512 46.9569C20.915 47.0322 20.3567 46.9702 19.8117 46.9702H19.8028ZM45.8181 11.1C45.8181 15.8148 49.6688 19.692 54.3481 19.6787C59.0362 19.6654 62.9223 15.7838 62.9223 11.1178C62.9223 6.41188 59.0805 2.57893 54.3658 2.57893C49.62 2.57893 45.8225 6.36756 45.8181 11.1045V11.1ZM17.4233 20.4719C17.4233 25.5988 17.4233 30.7256 17.4233 35.8524C17.4233 36.5496 17.7616 36.8997 18.438 36.9026C19.311 36.9026 20.1795 36.9026 21.0524 36.9026C21.785 36.9026 22.1513 36.5275 22.1513 35.7771C22.1513 26.2191 22.1513 16.6611 22.1513 7.10313C22.1513 6.33211 22.1691 5.56109 22.138 4.79007C22.0893 3.54492 21.11 2.60552 19.8649 2.5745C18.438 2.53905 17.4277 3.55821 17.4233 5.08696C17.4144 10.2138 17.4233 15.3406 17.4233 20.4675V20.4719ZM54.3747 61.7702C50.9361 61.7702 47.5019 61.7791 44.0678 61.7614C43.4918 61.7614 43.2215 61.9253 43.2968 62.5235C43.3189 62.6964 43.2968 62.8736 43.2968 63.0464C43.2968 63.7318 43.6365 64.0759 44.3159 64.0789C50.8652 64.0789 57.4144 64.0789 63.9637 64.0789C65.4526 64.0789 65.3152 64.2561 65.3595 62.652C65.3772 61.9652 65.1512 61.757 64.46 61.7614C61.0967 61.7924 57.7379 61.7747 54.3747 61.7747V61.7702ZM54.3702 46.9702C53.9227 46.9702 53.4752 46.9702 53.0276 46.9702C50.041 46.9702 47.05 46.9835 44.0634 46.9613C43.4785 46.9613 43.2259 47.143 43.2968 47.7324C43.3189 47.9052 43.2968 48.0824 43.2968 48.2552C43.2968 48.9376 43.638 49.2788 44.3204 49.2788C50.8696 49.2788 57.4189 49.2788 63.9681 49.2788C65.426 49.2788 65.3019 49.4561 65.3595 47.9229C65.3861 47.1563 65.1246 46.9525 64.3802 46.9613C61.0436 46.9968 57.7069 46.9791 54.3702 46.9791V46.9702ZM17.4277 41.9896C17.4277 42.5612 17.441 43.1328 17.4277 43.7044C17.4144 44.1298 17.5562 44.3514 18.0215 44.3425C19.1913 44.3248 20.3612 44.3292 21.531 44.3425C21.9741 44.347 22.1646 44.1786 22.1602 43.731C22.1469 42.5612 22.1469 41.3914 22.1602 40.2216C22.1602 39.7696 21.9519 39.6012 21.5221 39.6056C20.3523 39.6145 19.1825 39.6145 18.0126 39.6056C17.605 39.6056 17.4233 39.7829 17.4322 40.1905C17.4455 40.7887 17.4322 41.3825 17.4322 41.9807L17.4277 41.9896Z" fill="#0E2B72"/>
<path d="M72.7818 24.6778C72.2102 24.6911 71.6385 24.731 71.0669 24.7133C70.5751 24.7 70.3801 24.9082 70.42 25.3824C70.42 25.4311 70.42 25.4799 70.42 25.533C70.389 27.2922 70.1054 27.5093 68.3019 27.2169C67.9297 27.1548 67.8145 26.9732 67.7923 26.6187C67.7568 26.0293 68.0493 25.3026 67.6505 24.8861C67.2473 24.4607 66.5117 24.7576 65.9268 24.7266C65.497 24.7044 65.3153 24.5493 65.2754 24.1062C65.1115 22.1388 65.1026 22.121 67.0656 22.1033C67.6062 22.0989 67.8676 21.9394 67.7967 21.3766C67.7967 21.35 67.7967 21.3279 67.7967 21.3013C67.8233 19.4889 68.0272 19.3294 69.8794 19.5864C70.2427 19.6396 70.4156 19.8036 70.4156 20.1625C70.4156 20.1891 70.4156 20.2112 70.4156 20.2378C70.4865 20.8183 70.1541 21.5583 70.5972 21.9527C71.0226 22.3337 71.7449 22.0413 72.3342 22.0945C72.4805 22.1077 72.6311 22.1255 72.7773 22.1388V24.6778H72.7818ZM69.0685 22.285C68.2915 22.285 67.9031 22.6336 67.9031 23.3307C67.9031 24.1224 68.2679 24.5183 68.9976 24.5183C69.807 24.5183 70.2117 24.1594 70.2117 23.4415C70.2117 22.6735 69.8306 22.2879 69.0685 22.285Z" fill="#0E2B72"/>
<path d="M42.0862 25.9493C42.0862 26.1709 42.0774 26.3968 42.0862 26.6184C42.1084 27.0659 41.8868 27.2565 41.4526 27.2343C41.4038 27.2343 41.3551 27.2343 41.3019 27.2343C39.72 27.2831 39.6978 27.2831 39.6668 28.9182C39.6535 29.5385 39.4054 29.7424 38.8116 29.7379C36.6315 29.7291 36.955 29.8354 36.9638 27.9921C36.9638 27.4027 36.7511 27.221 36.1751 27.221C34.3627 27.221 34.571 27.5091 34.5089 25.5416C34.4868 24.7529 34.7881 24.5756 35.506 24.5934C37.0613 24.6244 36.9461 24.8105 36.9505 23.1754C36.9549 22.1385 36.9904 22.0986 38.0539 22.0986C39.7333 22.0986 39.689 21.9568 39.6358 23.6495C39.6136 24.3984 39.8441 24.7263 40.6062 24.6067C40.655 24.5978 40.7037 24.6067 40.7569 24.6067C41.6402 24.6067 42.0803 25.0527 42.0774 25.9449L42.0862 25.9493ZM38.333 27.0349C39.0863 27.0349 39.463 26.676 39.463 25.9582C39.463 25.1871 39.0848 24.8016 38.3286 24.8016C37.5723 24.8016 37.1824 25.1768 37.1588 25.9271C37.1352 26.6775 37.5266 27.0482 38.333 27.0394V27.0349Z" fill="#0E2B72"/>
<path d="M11.0742 61.3534C11.1806 58.0654 11.8187 54.9371 13.8614 52.2473C15.2085 50.4749 15.7004 50.5325 16.6664 52.5176C16.7816 52.7525 16.786 52.9209 16.5954 53.1114C14.2469 55.5131 13.7905 58.5529 13.7063 61.7123C13.6709 63.0549 13.6975 63.0549 12.3637 63.0505C11.5041 63.0505 11.0742 62.6325 11.0742 61.7965C11.0742 61.6458 11.0742 61.4996 11.0742 61.3489V61.3534Z" fill="#0E2B72"/>
<path d="M27.1845 61.7712C27.1091 61.7712 27.0338 61.7712 26.9629 61.7712C25.8906 61.7712 25.9172 61.7712 25.8551 60.721C25.7355 58.6472 25.35 56.6355 24.2998 54.7966C23.963 54.2117 23.5731 53.6711 23.0901 53.1969C22.9306 53.0418 22.7312 52.8735 22.8907 52.6253C23.254 52.0626 23.5997 51.4821 24.0251 50.9681C24.3175 50.618 24.5568 51.0035 24.7562 51.1852C26.1874 52.4968 27.0692 54.1496 27.6674 55.9664C28.1416 57.411 28.4163 58.8998 28.4784 60.4197C28.536 61.7623 28.5138 61.7623 27.1845 61.7623V61.7712Z" fill="#0E2B72"/>
<path d="M18.4478 53.7286C18.4478 52.5366 18.4611 51.3402 18.4434 50.1482C18.4345 49.5323 18.6339 49.2487 19.303 49.2664C21.399 49.3196 21.1287 49.0227 21.142 51.0876C21.1553 53.1259 21.1242 55.1643 21.1553 57.2026C21.1641 57.8717 20.9381 58.142 20.2557 58.1331C18.1953 58.1021 18.4655 58.2882 18.4434 56.3385C18.4345 55.47 18.4434 54.5971 18.4434 53.7286H18.4478Z" fill="#0E2B72"/>
<path d="M60.126 8.21907C60.1083 8.48494 59.9488 8.61788 59.8114 8.75524C57.3167 11.2544 54.8131 13.7491 52.3227 16.2528C52.0037 16.5718 51.7688 16.5674 51.4542 16.2483C50.5902 15.3577 49.7084 14.4759 48.8177 13.6118C48.5075 13.3105 48.5253 13.0712 48.8354 12.8097C48.893 12.761 48.9418 12.7034 48.9949 12.6502C50.2091 11.4139 50.2268 11.3962 51.4808 12.5838C51.8663 12.9471 52.0524 12.7699 52.3227 12.4996C54.1129 10.7005 55.9076 8.91033 57.7022 7.11572C58.1719 6.64601 58.6371 6.63863 59.098 7.09356C59.3638 7.355 59.6297 7.61644 59.8867 7.89117C59.9842 7.99752 60.0595 8.12602 60.1216 8.21907H60.126Z" fill="#FFB400"/>
</svg>
