<svg width="100" height="100" viewBox="0 0 100 100" fill="none" xmlns="http://www.w3.org/2000/svg">
<path d="M45.9481 9.3138C47.2281 10.2471 48.5015 11.2005 49.7948 12.1205C59.2415 18.8471 68.7015 25.5671 78.1481 32.2871C79.8148 33.4738 80.1548 35.3205 78.9548 37.0338C76.4615 40.6071 73.9281 44.1471 71.4081 47.7005C69.9881 49.7005 68.5681 51.7005 67.1415 53.7005C65.7681 55.6205 64.0215 55.9271 62.1015 54.5871C58.1548 51.8271 54.2215 49.0538 50.2815 46.2938C49.3348 45.6338 49.3281 45.6338 48.6748 46.5538C47.6881 47.9471 46.7215 49.3538 45.7015 50.7271C45.3681 51.1805 45.4415 51.4071 45.8881 51.6938C46.5948 52.1538 47.2615 52.6671 47.9548 53.1471C49.0481 53.9005 49.6615 54.9538 49.8815 56.2471C50.3548 59.0205 50.8148 61.8005 51.2815 64.5738C51.4681 65.6738 52.9881 66.7538 54.0681 66.5338C54.6015 66.4271 55.0815 66.5805 55.5015 66.8805C58.8615 69.2605 62.2081 71.6471 65.5615 74.0338C66.1681 74.4671 66.0415 74.9338 65.6748 75.4605C63.6348 78.3205 61.6081 81.1938 59.5748 84.0538C58.0815 86.1538 56.5881 88.2471 55.1015 90.3471C54.3815 91.3605 54.1015 91.4271 53.1215 90.7271C49.9281 88.4538 46.7348 86.1671 43.5415 83.8938C43.0015 83.5071 42.6281 83.0338 42.6015 82.3538C42.5881 81.9805 42.3815 81.7605 42.1015 81.5271C41.2215 80.7938 40.3015 80.4338 39.0815 80.5005C36.7748 80.6271 34.6881 79.7938 32.7948 78.5005C31.4415 77.5738 30.1081 76.6271 28.7881 75.6605C28.3348 75.3271 28.0415 75.3471 27.7415 75.8405C27.4415 76.3338 27.1015 76.8005 26.7548 77.2671C26.3281 77.8405 25.8948 77.9271 25.3281 77.5338C23.8081 76.4671 22.3081 75.3871 20.7948 74.3138C20.2548 73.9338 20.2015 73.4671 20.5615 72.9471C20.9281 72.4071 21.2948 71.8738 21.6815 71.3538C21.9281 71.0205 21.9481 70.7671 21.6548 70.4071C20.1748 68.6005 20.6015 66.1805 22.6215 64.9605C22.9881 64.7405 23.0748 64.5938 22.8481 64.1871C21.8681 62.3938 22.4415 60.3471 24.2215 59.3338C24.6881 59.0671 24.7281 58.8538 24.5281 58.3805C23.9681 57.0538 24.1415 55.7605 25.0415 54.6405C25.9415 53.5205 27.1615 53.1005 28.5881 53.4005C28.9615 53.4805 29.1481 53.4405 29.2615 53.0205C30.0081 50.2338 32.7015 49.2138 35.0681 50.8071C35.8948 51.3605 35.9015 51.3671 36.5015 50.5338C38.5415 47.6738 40.5748 44.8071 42.6015 41.9405C43.1615 41.1471 43.1615 41.1338 42.3481 40.5538C38.5015 37.8205 34.6548 35.0938 30.8148 32.3605C30.2481 31.9538 29.6481 31.5738 29.2881 30.9538C28.5415 29.6471 28.6481 28.3871 29.5148 27.1671C31.7081 24.0938 33.8948 21.0071 36.0881 17.9338C37.7615 15.5805 39.4948 13.2671 41.0948 10.8671C41.9615 9.5738 43.0481 8.8538 44.5881 8.80713L45.9415 9.3138H45.9481ZM77.8615 35.7805C78.2281 34.8071 78.0948 34.2538 77.3681 33.6938C76.5481 33.0605 75.6948 32.4805 74.8481 31.8805C65.1215 24.9605 55.4015 18.0471 45.6748 11.1338C44.2015 10.0871 43.5081 10.2338 42.4548 11.7271C39.5748 15.7938 36.6881 19.8471 33.8015 23.9071C32.8681 25.2205 31.9281 26.5338 31.0081 27.8538C30.0681 29.2005 30.2215 29.9805 31.5748 30.9271C31.9681 31.2071 32.3681 31.4738 32.7548 31.7538C42.7881 38.9005 52.8215 46.0471 62.8615 53.1871C64.2281 54.1605 64.9748 54.0071 65.9348 52.6605C69.5015 47.6405 73.0815 42.6271 76.6481 37.6071C77.1081 36.9605 77.6148 36.3471 77.8548 35.7871L77.8615 35.7805ZM35.9148 78.3205C36.9215 78.7738 37.9948 78.8871 39.0815 78.9405C39.8615 78.9738 40.3681 78.6805 40.8215 78.0405C43.6415 74.0538 46.4881 70.0871 49.3415 66.1205C49.6148 65.7405 49.7215 65.3871 49.6415 64.9138C49.1415 62.0005 48.6548 59.0805 48.1815 56.1538C48.0815 55.5205 47.7748 55.0071 47.2881 54.6405C46.4815 54.0338 45.6348 53.4805 44.8081 52.9005C44.5081 52.6871 44.2748 52.7471 44.0681 53.0338C43.5281 53.8005 42.9881 54.5671 42.4415 55.3271C42.1948 55.6671 42.2415 55.9405 42.5948 56.1738C43.0548 56.4805 43.5081 56.8005 43.9548 57.1205C44.3681 57.4205 44.6148 57.8071 44.2948 58.2871C43.9548 58.8005 43.4948 58.7138 43.0415 58.4005C42.1748 57.7938 41.3015 57.2005 40.4348 56.5871C38.4348 55.1671 36.4415 53.7338 34.4281 52.3271C33.1815 51.4538 31.9815 51.5338 31.2948 52.5071C30.6015 53.4871 30.9481 54.7138 32.1681 55.5938C32.9681 56.1671 33.7815 56.7338 34.5815 57.3071C35.4415 57.9271 36.3015 58.5405 37.1548 59.1738C37.5615 59.4738 37.7881 59.8871 37.4481 60.3538C37.1148 60.8071 36.6748 60.7671 36.2415 60.4471C36.0681 60.3205 35.8881 60.1938 35.7148 60.0671C33.5148 58.5071 31.3215 56.9405 29.1215 55.3871C28.4015 54.8805 27.6281 54.8605 26.8748 55.2938C26.1281 55.7338 25.8081 56.4805 25.9481 57.3205C26.0548 57.9405 26.4481 58.3271 26.9415 58.6738C29.7748 60.6738 32.6015 62.6738 35.4215 64.6805C36.0415 65.1205 36.1948 65.5938 35.8548 65.9938C35.4215 66.4938 34.9615 66.3205 34.5081 65.9938C33.6615 65.3938 32.8148 64.8005 31.9748 64.2005C30.3815 63.0738 28.8081 61.9271 27.1948 60.8338C25.9081 59.9605 24.4081 60.4938 24.0281 61.9138C23.8015 62.7605 24.1481 63.5671 25.0281 64.1938C26.8148 65.4605 28.6081 66.7138 30.3948 67.9805C30.8281 68.2871 31.2281 68.6405 30.8681 69.2271C30.5948 69.6871 30.0681 69.7138 29.4815 69.3071C28.4948 68.6205 27.5215 67.9071 26.5348 67.2205C26.0015 66.8471 25.5148 66.4138 24.8881 66.1938C23.8748 65.8405 22.8615 66.3005 22.4681 67.2938C22.0681 68.3005 22.3615 69.1338 23.4215 69.8938C26.8148 72.3071 30.2081 74.7138 33.6081 77.1138C34.3148 77.6138 35.0615 78.0605 35.9015 78.3005L35.9148 78.3205ZM44.3881 81.8138C44.1481 82.3271 44.3815 82.5471 44.6481 82.7338C47.5481 84.8005 50.4481 86.8671 53.3415 88.9405C53.7215 89.2138 53.9548 89.1605 54.2215 88.7805C57.3348 84.3538 60.4548 79.9271 63.5948 75.5138C63.9548 75.0071 63.8415 74.7538 63.3748 74.4271C60.6615 72.5205 57.9615 70.5805 55.2548 68.6605C54.2148 67.9205 54.2081 67.9338 53.4748 68.9738C50.7881 72.7605 48.1015 76.5471 45.4148 80.3405C45.0415 80.8671 44.6748 81.4071 44.3948 81.8138H44.3881ZM44.8815 42.3605C44.5348 42.1338 44.3548 42.3405 44.1681 42.6005C43.5148 43.5271 42.8615 44.4405 42.2015 45.3605C40.7015 47.4538 39.2081 49.5471 37.7015 51.6405C37.4481 51.9938 37.2281 52.3205 37.7281 52.6671C38.5748 53.2538 39.4148 53.8671 40.2481 54.4805C40.5881 54.7271 40.8215 54.7071 41.0748 54.3405C41.8015 53.2938 42.5615 52.2738 43.3081 51.2338C44.7415 49.2405 46.1748 47.2471 47.5948 45.2538C47.7748 45.0005 48.1015 44.7071 47.6815 44.3938C46.7548 43.7071 45.8148 43.0338 44.8748 42.3605H44.8815ZM42.9948 80.2005C43.3548 80.4271 43.5148 80.1671 43.6881 79.9205C44.8615 78.2805 46.0415 76.6405 47.2215 75.0005C48.7748 72.8338 50.3281 70.6671 51.8748 68.4871C52.0148 68.2871 52.2815 68.1005 52.1215 67.7871C51.7481 67.0471 50.7815 66.9471 50.3015 67.6071C47.6281 71.3338 44.9615 75.0738 42.2748 78.8005C41.9481 79.2538 41.9348 79.5538 42.4481 79.8271C42.6348 79.9271 42.8081 80.0671 42.9881 80.1871L42.9948 80.2005ZM25.3215 75.5338C25.6681 75.7671 25.8948 75.7271 26.0815 75.4605C26.2615 75.2071 26.4415 74.9538 26.6281 74.7005C26.8281 74.4338 26.7948 74.2405 26.5148 74.0405C25.6348 73.4205 24.7548 72.7871 23.8881 72.1471C23.5748 71.9205 23.3281 71.9138 23.1015 72.2471C22.9548 72.4671 22.7948 72.6805 22.6415 72.8871C22.4281 73.1671 22.4415 73.4205 22.7281 73.6338C23.6148 74.2871 24.5081 74.9338 25.3215 75.5271V75.5338Z" fill="#0E2B72" stroke="#0E2B72" stroke-width="2.2" stroke-miterlimit="10"/>
<path d="M56.8135 22.3472C57.1402 22.5805 57.5468 22.8805 57.9602 23.1672C59.4135 24.1938 60.8602 25.2272 62.3202 26.2405C62.7802 26.5605 63.0335 26.9538 63.1202 27.5338C63.4202 29.5272 63.7602 31.5205 64.1202 33.5072C64.2335 34.1205 64.1202 34.6205 63.7602 35.1272C62.5468 36.8005 61.3668 38.5005 60.1802 40.1938C59.8602 40.6538 59.4668 40.9138 58.8868 41.0005C56.8668 41.3072 54.8535 41.6538 52.8402 42.0138C52.2535 42.1205 51.7868 42.0138 51.2935 41.6605C49.6468 40.4538 47.9735 39.2805 46.2935 38.1205C45.8068 37.7872 45.5002 37.3872 45.4068 36.7938C45.0868 34.7538 44.7468 32.7138 44.3935 30.6738C44.3002 30.1205 44.3935 29.6538 44.7335 29.1872C45.9802 27.4738 47.2002 25.7472 48.4135 24.0138C48.6802 23.6338 49.0002 23.3805 49.4535 23.3072C51.6135 22.9538 53.7735 22.6072 55.9335 22.2605C56.1935 22.2205 56.4602 22.1938 56.8135 22.3405V22.3472ZM62.4602 34.2538C62.5868 33.9805 62.5402 33.7338 62.5002 33.5005C62.2002 31.6738 61.8935 29.8472 61.5868 28.0272C61.5468 27.7805 61.4668 27.5605 61.2535 27.4072C59.6402 26.2738 58.0335 25.1338 56.4202 24.0005C56.1135 23.7872 55.7668 23.7805 55.4668 23.9538C55.1602 24.1338 55.3535 24.4405 55.3935 24.6805C56.1802 29.3738 56.9802 34.0672 57.7868 38.7538C57.8335 39.0338 57.7468 39.4538 58.1802 39.5072C58.5535 39.5538 58.8668 39.3872 59.0935 39.0472C59.5802 38.3338 60.0935 37.6338 60.5935 36.9272C61.2268 36.0205 61.8602 35.1138 62.4668 34.2472L62.4602 34.2538ZM52.1868 40.4072C52.8002 40.6472 53.1935 40.3672 53.1002 39.7672C52.8268 38.0605 52.5268 36.3538 52.2335 34.6472C51.7068 31.5672 51.1868 28.4805 50.6535 25.4005C50.5402 24.7472 50.1068 24.6072 49.5935 25.0472C49.4668 25.1538 49.3735 25.3005 49.2802 25.4405C48.2535 26.8938 47.2335 28.3538 46.1935 29.8005C45.9668 30.1138 45.8935 30.4205 45.9602 30.8072C46.2802 32.6072 46.5802 34.4072 46.8668 36.2138C46.9268 36.6072 47.1202 36.8605 47.4335 37.0805C48.8535 38.0738 50.2602 39.0805 51.6802 40.0738C51.8535 40.2005 52.0402 40.3138 52.1868 40.4138V40.4072ZM56.3202 39.6072C56.2935 39.4072 56.2668 39.2138 56.2335 39.0272C55.4402 34.3538 54.6468 29.6805 53.8668 25.0072C53.7802 24.4938 53.6868 24.1672 53.0135 24.3005C52.4002 24.4205 52.1602 24.5805 52.2868 25.2738C52.7402 27.7338 53.1202 30.2072 53.5335 32.6738C53.9068 34.9272 54.2802 37.1872 54.6602 39.4405C54.7068 39.7138 54.7202 40.0738 55.1402 40.0205C55.5468 39.9672 56.0135 40.0205 56.3202 39.6138V39.6072Z" fill="#FFB200" stroke="#FFB200" stroke-miterlimit="10"/>
</svg>
