<svg width="65" height="77" viewBox="0 0 65 77" fill="none" xmlns="http://www.w3.org/2000/svg">
<path d="M64.3299 72.5404C63.7825 74.5727 62.6082 75.997 60.498 76.4763C60.1227 76.5606 59.721 76.5694 59.3325 76.5694C41.2321 76.5694 23.1272 76.5739 5.02678 76.5694C2.11747 76.5694 0.0204767 74.4839 0.0116472 71.5597C-0.00159699 67.2289 -0.00601173 62.9026 0.0116472 58.5718C0.0248914 55.7142 2.08656 53.6197 4.90758 53.6064C5.46825 53.6064 5.71107 53.4201 5.88766 52.8832C6.71322 50.3805 7.92727 48.0953 9.79911 46.2095C10.916 45.0868 12.2184 44.3414 13.7812 43.9953C17.0481 43.2631 20.2974 42.4511 23.5687 41.7234C24.2177 41.5769 24.3987 41.2974 24.3678 40.6717C24.3236 39.6911 24.509 38.6705 24.3059 37.7298C24.0896 36.727 22.955 36.3942 22.284 35.6975C20.7786 34.1311 19.4365 32.4538 18.5005 30.4748C18.2886 30.0266 17.9929 29.8314 17.494 29.7693C14.333 29.3877 12.1036 26.4457 12.6201 23.384C12.9292 21.5514 14.205 20.1892 16.1519 19.7987C16.898 19.6478 17.0746 19.3372 17.0658 18.6317C17.0349 16.2 16.9466 13.7595 17.4719 11.3589C18.324 7.44525 20.5931 5.37747 24.5576 4.91155C24.9108 4.87162 25.1403 4.703 25.3566 4.45895C26.7385 2.91921 28.4867 2.28467 30.5219 2.23143C32.9412 2.1693 35.281 2.72397 37.6429 3.07895C41.2762 3.6203 44.7197 3.33188 47.7438 0.966797H48.7724C51.2402 3.20319 52.6618 5.9765 53.015 9.30004C53.0768 9.8902 53.0591 10.4404 52.5426 10.8353C52.1806 11.1105 51.7656 11.1326 51.3594 10.9463C50.8253 10.7022 50.684 10.2141 50.6398 9.67277C50.4765 7.63605 49.7834 5.80789 48.5473 4.17496C48.2117 3.73123 47.9513 3.68686 47.4612 3.96197C44.8919 5.42184 42.1194 5.88332 39.188 5.63927C36.676 5.43072 34.217 4.84499 31.7095 4.61869C29.6919 4.43232 27.9084 4.80949 26.659 6.59329C26.3544 7.02814 25.9217 7.18345 25.3964 7.22338C22.0059 7.45412 20.1561 8.86518 19.5998 12.9253C19.3305 14.9088 19.4895 16.9011 19.4409 18.8935C19.4276 19.4393 19.6263 19.5857 20.1517 19.4437C21.3701 19.1109 22.2575 18.3299 23.0257 17.3804C23.551 16.7281 23.9528 15.9959 24.381 15.2771C24.8578 14.4784 25.4935 14.3009 26.2263 14.8156C29.5418 17.1541 33.3429 18.1214 37.25 18.7692C39.7355 19.1819 42.2519 19.3106 44.755 19.5591C46.1501 19.6966 47.0992 19.0754 47.9557 18.1436C48.7283 17.3049 49.311 16.342 49.7481 15.2904C49.8496 15.0419 49.9423 14.7845 50.0615 14.5405C50.3794 13.8882 50.9666 13.622 51.5626 13.8438C52.1806 14.0746 52.472 14.7135 52.2248 15.4235C51.6729 17.0209 50.865 18.4719 49.726 19.7232C49.4435 20.0339 49.4302 20.1847 49.8011 20.451C52.185 22.1904 52.5294 25.3852 50.6045 27.7192C49.6245 28.9084 48.3663 29.6095 46.8432 29.7915C46.3708 29.8492 46.0927 30.04 45.8896 30.4615C44.6093 33.0928 42.7948 35.2848 40.4904 37.0686C40.146 37.3349 40.0003 37.6322 40.0092 38.0715C40.0312 39.0033 40.0401 39.9396 40.0092 40.8758C39.9915 41.395 40.199 41.5947 40.6979 41.71C43.9383 42.4511 47.161 43.2764 50.4103 43.9686C52.5691 44.4301 54.1937 45.6149 55.5314 47.2966C56.8735 48.9872 57.8315 50.8864 58.5069 52.9364C58.6217 53.2869 58.6835 53.6375 59.2 53.6286C61.9857 53.5754 63.5927 55.0663 64.3344 57.6577V72.5626L64.3299 72.5404ZM32.1862 74.2576C41.0157 74.2576 49.8496 74.2576 58.6791 74.2576C58.9484 74.2576 59.2177 74.2709 59.487 74.2487C60.9836 74.1289 61.9504 73.1394 61.9548 71.6662C61.9681 67.2644 61.9681 62.8626 61.9548 58.4564C61.9548 57.1563 61.2132 56.2999 59.9506 55.9981C59.5621 55.905 59.1736 55.9138 58.7851 55.9138C51.0284 55.9138 43.2761 55.9138 35.5194 55.9138C35.2501 55.9138 34.9764 55.9271 34.7115 55.8961C34.0978 55.8206 33.674 55.3325 33.6828 54.7468C33.6873 54.1611 34.1199 53.6863 34.7335 53.6197C34.9984 53.5887 35.2722 53.602 35.5415 53.602C42.1724 53.602 48.7989 53.602 55.4299 53.602C56.2378 53.602 56.2422 53.5842 55.9596 52.8299C55.3945 51.3212 54.6175 49.9368 53.6154 48.6766C52.6397 47.4475 51.4566 46.5822 49.8717 46.276C48.2647 45.9654 46.6754 45.5527 45.0905 45.1445C44.5828 45.0114 44.2959 45.1356 43.9824 45.5439C42.5521 47.4164 41.0952 49.2712 39.6383 51.1216C38.8966 52.0623 38.4728 52.1466 37.4398 51.5919C35.9079 50.771 34.3715 49.9545 32.8573 49.1026C32.4026 48.8452 32.0406 48.8142 31.5682 49.0804C30.076 49.9235 28.5573 50.7222 27.0475 51.5342C25.8688 52.1688 25.4935 52.0978 24.6768 51.055C23.2376 49.2179 21.7939 47.3898 20.3812 45.535C20.0854 45.1489 19.8117 45.0247 19.3349 45.1445C17.5823 45.5838 15.8164 45.992 14.0549 46.3958C13.0925 46.6177 12.289 47.1014 11.5915 47.7803C10.1567 49.1736 9.19869 50.8775 8.45702 52.719C8.09942 53.602 8.10825 53.6109 9.03535 53.6109C15.7148 53.6109 22.3943 53.6109 29.0694 53.6109C29.3387 53.6109 29.608 53.5976 29.8773 53.6242C30.5042 53.6907 30.906 54.1433 30.906 54.7557C30.906 55.3503 30.4866 55.834 29.8818 55.905C29.6169 55.936 29.3431 55.9227 29.0739 55.9227C21.2951 55.9227 13.5163 55.9227 5.73755 55.9227C5.44618 55.9227 5.15039 55.9094 4.85902 55.936C3.41982 56.0603 2.43091 57.0187 2.4265 58.3943C2.40884 62.8715 2.40884 67.3487 2.4265 71.8215C2.43091 72.993 3.1726 73.8494 4.3116 74.1511C4.72217 74.262 5.13273 74.2665 5.54772 74.2665C14.4258 74.2665 23.3082 74.2665 32.1862 74.2665V74.2576ZM19.4895 24.1117C19.4277 25.0702 19.4277 26.0331 19.7014 26.9649C21.0744 31.6951 24.1117 34.9787 28.4735 37.0864C30.8618 38.2401 33.2767 38.2534 35.7092 37.184C38.6671 35.8883 40.9627 33.8205 42.786 31.1759C44.4989 28.6866 45.1391 25.9266 44.9316 22.927C44.8654 21.9552 44.8742 21.8798 43.903 21.8354C41.4837 21.7245 39.0777 21.4715 36.6937 21.0722C33.2061 20.4909 29.7935 19.6434 26.6899 17.864C26.063 17.5046 25.7496 17.5534 25.3478 18.1702C24.3368 19.7232 23.0212 20.9302 21.2377 21.5869C20.6594 21.7999 19.7985 21.5736 19.538 22.217C19.3173 22.7672 19.4939 23.4728 19.4939 24.1117H19.4895ZM37.7091 40.6096C37.7091 40.2812 37.7091 40.1348 37.7091 39.9884C37.7091 38.919 37.7091 38.9279 36.7246 39.3272C34.8925 40.0682 33.0295 40.5785 31.0119 40.2812C29.7405 40.0949 28.522 39.7443 27.3742 39.1941C26.7252 38.8835 26.6193 39.1054 26.6546 39.7C26.6855 40.2147 26.6855 40.7338 26.6546 41.2486C26.6281 41.6967 26.8223 41.9807 27.1667 42.2292C28.6544 43.3075 30.1378 44.3946 31.5991 45.5039C32.0229 45.8234 32.354 45.819 32.7734 45.5039C34.0184 44.5499 35.2589 43.5826 36.5613 42.7173C37.4177 42.1449 37.996 41.537 37.7091 40.614V40.6096ZM24.9637 43.8266C24.4295 43.9509 23.7673 44.1151 23.1007 44.2526C22.571 44.3635 22.6151 44.5765 22.9065 44.9404C23.913 46.2006 24.9108 47.4741 25.8864 48.7609C26.1646 49.1248 26.4073 49.1913 26.8047 48.965C27.6744 48.4725 28.5618 48.0066 29.4491 47.5451C29.8111 47.3543 29.9656 47.2167 29.5286 46.9017C28.2174 45.9654 26.9283 44.9981 25.6304 44.0396C25.4714 43.9243 25.3125 43.8045 24.9681 43.8311L24.9637 43.8266ZM41.6956 44.6076C41.6956 44.3281 41.4969 44.3103 41.3468 44.2704C40.7332 44.1151 40.1151 43.9819 39.497 43.8355C39.2101 43.7689 38.9761 43.8577 38.751 44.0308C37.4575 44.9892 36.1595 45.9521 34.8572 46.8972C34.5437 47.1235 34.4333 47.2789 34.8616 47.5007C35.7931 47.9844 36.7202 48.4725 37.634 48.9916C38.0269 49.2135 38.2433 49.0804 38.4861 48.7609C39.4661 47.4785 40.4683 46.2139 41.4616 44.9404C41.5499 44.825 41.6338 44.7052 41.7 44.612L41.6956 44.6076ZM14.907 24.2537C14.8981 25.4651 15.7413 26.743 16.823 27.1468C17.0393 27.2267 17.3571 27.4042 17.2644 26.9161C16.9863 25.5095 17.0614 24.0851 17.0525 22.6652C17.0525 22.146 16.8141 22.0262 16.3506 22.1682C15.4809 22.4389 14.9158 23.2509 14.907 24.2493V24.2537ZM47.3244 24.2005C47.3641 24.9459 47.2891 25.8955 47.1169 26.8362C47.033 27.3021 47.2272 27.3021 47.5407 27.1513C48.6576 26.6099 49.3375 25.7358 49.4523 24.48C49.5538 23.3663 48.9667 22.4744 48.0263 22.1771C47.5716 22.0306 47.3111 22.1371 47.3199 22.6607C47.3244 23.1 47.3199 23.5438 47.3199 24.2005H47.3244Z" fill="#0E2B72"/>
<path d="M46.5118 65.5426C46.5118 64.207 46.5118 62.9157 46.5118 61.6245C46.5118 61.3272 46.4986 61.0343 46.5251 60.7415C46.5825 60.0581 47.024 59.6499 47.6729 59.6543C48.3175 59.6588 48.7987 60.0714 48.8031 60.7592C48.8252 63.5636 48.8208 66.368 48.8075 69.1723C48.8075 69.8113 48.4455 70.2417 47.8451 70.4148C47.2491 70.5834 46.79 70.3127 46.4545 69.8379C45.3993 68.3292 44.3575 66.8117 43.3112 65.2986C43.2008 65.1388 43.086 64.9791 42.9712 64.8149C42.7152 64.948 42.8256 65.1699 42.8256 65.3341C42.8123 66.6386 42.8255 67.9432 42.8123 69.2433C42.799 70.0864 42.362 70.5479 41.638 70.5301C40.9449 70.5168 40.5211 70.0687 40.5167 69.2611C40.5034 66.5055 40.5166 63.75 40.5078 60.9988C40.5078 60.3909 40.7241 59.9206 41.3069 59.7253C41.9205 59.5212 42.3929 59.7786 42.7549 60.3066C43.8365 61.8863 44.927 63.4615 46.0218 65.0323C46.141 65.2054 46.2117 65.4273 46.5207 65.5515L46.5118 65.5426Z" fill="#FFB400"/>
<path d="M10.5946 70.2285C8.449 70.2285 6.51535 68.8929 5.76926 66.9006C5.01875 64.9038 5.58826 62.5564 7.15549 61.1764C8.83751 59.7033 11.1023 59.4148 13.0227 60.4398C13.1728 60.5197 13.3229 60.604 13.4597 60.7061C14.0336 61.1321 14.1837 61.771 13.8526 62.3213C13.5392 62.836 12.9256 63.0268 12.3119 62.7251C11.7115 62.4278 11.1111 62.1881 10.4268 62.2414C9.29663 62.3301 8.47107 62.8848 8.05167 63.9276C7.62785 64.9792 7.73382 66.0175 8.50198 66.8917C9.23924 67.7259 10.1707 68.0498 11.2788 67.7703C11.6762 67.6682 11.9587 67.402 12.2589 67.1535C12.8946 66.621 13.548 66.6299 14.0116 67.1535C14.453 67.6505 14.4221 68.3116 13.8791 68.8707C12.9829 69.7981 11.8925 70.2685 10.5946 70.2197V70.2285Z" fill="#FFB400"/>
<path d="M31.2731 65.0277C31.2731 63.8208 31.2599 62.6183 31.2731 61.4113C31.2863 60.3597 31.7057 59.9515 32.7564 59.9426C33.7365 59.9381 34.7122 59.9293 35.6922 59.9426C36.4781 59.9559 36.9593 60.3907 36.9813 61.0608C37.0034 61.7574 36.5001 62.2189 35.6878 62.25C35.4671 62.2588 35.2464 62.25 35.0256 62.25C34.125 62.25 33.6747 62.5221 33.6747 63.0664C33.6747 63.6107 34.1132 63.8947 34.9903 63.9184C35.1845 63.9184 35.3832 63.9095 35.5775 63.9228C36.2618 63.9672 36.7606 64.4731 36.7474 65.0943C36.7341 65.6978 36.2617 66.1814 35.6083 66.2213C35.1713 66.248 34.7254 66.2568 34.2883 66.2302C33.6394 66.1903 33.6659 66.6207 33.6747 67.0556C33.6835 67.4682 33.5952 67.9341 34.2619 67.9075C34.774 67.8853 35.2905 67.8898 35.8026 67.912C36.5178 67.9475 36.9858 68.4178 36.9813 69.0612C36.9813 69.7091 36.5134 70.1883 35.7938 70.206C34.7431 70.2327 33.6924 70.2238 32.6372 70.2149C31.7322 70.206 31.2908 69.7756 31.2731 68.8527C31.251 67.5747 31.2687 66.2968 31.2643 65.0144L31.2731 65.0277Z" fill="#FFB400"/>
<path d="M54.3261 65.823C54.3261 64.9133 54.2996 64.0037 54.3349 63.0985C54.3614 62.4861 54.1981 62.1622 53.5226 62.2199C53.2931 62.2376 53.0326 62.1622 52.8207 62.0602C52.3572 61.8383 52.1144 61.4345 52.1673 60.9242C52.2335 60.3163 52.6265 59.8859 53.218 59.8681C54.7764 59.8193 56.3437 59.8104 57.9021 59.8681C58.529 59.8948 58.913 60.374 58.913 61.0263C58.913 61.6785 58.5201 62.0602 57.8976 62.1977C57.7343 62.2332 57.5577 62.2421 57.3855 62.2288C56.8602 62.1844 56.7145 62.4462 56.7189 62.9343C56.7366 64.727 56.7233 66.5196 56.7233 68.3123C56.7233 68.5342 56.7321 68.756 56.7145 68.9735C56.6527 69.7411 56.198 70.2159 55.5314 70.2115C54.8559 70.2115 54.3658 69.75 54.3349 68.9823C54.2952 67.9263 54.3261 66.8702 54.3261 65.8141C54.3261 65.8141 54.3217 65.8141 54.3173 65.8141L54.3261 65.823Z" fill="#FFB400"/>
<path d="M17.459 65.0201C17.459 63.7688 17.4502 62.5175 17.459 61.2617C17.4678 60.392 17.9225 59.8418 18.6112 59.8418C19.3044 59.8418 19.7591 60.3831 19.7635 61.2573C19.7723 63.1742 19.7944 65.0867 19.7547 67.0036C19.7414 67.6914 19.9092 68.0242 20.6465 67.9177C20.9334 67.8777 21.2336 67.8955 21.525 67.9265C22.1607 67.9931 22.5536 68.4235 22.5669 69.0403C22.5801 69.6571 22.196 70.1718 21.578 70.1984C20.5537 70.2473 19.5251 70.2473 18.5009 70.2029C17.8431 70.1763 17.4723 69.6793 17.4678 68.9249C17.4546 67.6248 17.4678 66.3202 17.4634 65.0201H17.459Z" fill="#FFB400"/>
<path d="M25.6875 65.0156C25.6875 63.7865 25.6787 62.5618 25.6875 61.3327C25.6964 60.4674 26.1467 59.9127 26.831 59.895C27.5241 59.8772 28.0538 60.3964 28.0627 61.2617C28.0936 63.8131 28.0936 66.369 28.0627 68.9249C28.0538 69.7901 27.5241 70.3093 26.831 70.2916C26.1467 70.2738 25.6964 69.7191 25.6875 68.8539C25.6743 67.5759 25.6875 66.298 25.6875 65.0245V65.0156Z" fill="#FFB400"/>
<path d="M32.1367 33.9223C31.4171 33.9756 30.7064 33.8025 30.0442 33.4741C29.3555 33.1325 29.1038 32.5157 29.3643 31.8989C29.6248 31.2866 30.2561 31.0203 30.9536 31.3176C31.7968 31.6726 32.5959 31.6593 33.4347 31.3087C34.0925 31.0292 34.715 31.2866 34.9798 31.859C35.2536 32.4491 35.0505 33.057 34.4236 33.4209C33.7305 33.8247 32.9667 33.9622 32.1367 33.9223Z" fill="#0E2B72"/>
<path d="M25.1224 25.1454C25.1224 24.9235 25.0959 24.7017 25.1268 24.4842C25.2195 23.8364 25.6301 23.4548 26.257 23.4237C26.8618 23.3927 27.268 23.7565 27.4269 24.3467C27.5682 24.8747 27.5417 25.4249 27.4622 25.9574C27.3607 26.6319 26.8751 27.0357 26.2614 27.0179C25.6566 27.0002 25.2019 26.5564 25.1224 25.8864C25.0959 25.6424 25.118 25.3939 25.118 25.1498C25.118 25.1498 25.118 25.1498 25.1224 25.1498V25.1454Z" fill="#0E2B72"/>
<path d="M39.2801 25.1821C39.2581 25.4749 39.2801 25.7767 39.2095 26.0606C39.0682 26.6464 38.7018 27.0102 38.0705 27.0147C37.4436 27.0147 37.0684 26.6641 36.9227 26.074C36.8035 25.5947 36.8344 25.0933 36.8829 24.6096C36.9536 23.913 37.4701 23.416 38.0617 23.416C38.693 23.416 39.1962 23.9396 39.2536 24.6673C39.2669 24.836 39.2536 25.009 39.2536 25.1821C39.2625 25.1821 39.2669 25.1821 39.2757 25.1821H39.2801Z" fill="#0E2B72"/>
</svg>
