<svg width="22" height="22" viewBox="0 0 22 22" fill="none" xmlns="http://www.w3.org/2000/svg">
<path d="M11.5 6.25C11.5 5.83579 11.1642 5.5 10.75 5.5C10.3358 5.5 10 5.83579 10 6.25V11.75C10 12.0191 10.1442 12.2677 10.3779 12.4012L13.8779 14.4012C14.2375 14.6067 14.6957 14.4817 14.9012 14.1221C15.1067 13.7625 14.9817 13.3043 14.6221 13.0988L11.5 11.3148V6.25Z" fill="#A3A3A3"/>
<path fill-rule="evenodd" clip-rule="evenodd" d="M11 0C4.92487 0 0 4.92487 0 11C0 17.0751 4.92487 22 11 22C17.0751 22 22 17.0751 22 11C22 4.92487 17.0751 0 11 0ZM1.5 11C1.5 5.75329 5.75329 1.5 11 1.5C16.2467 1.5 20.5 5.75329 20.5 11C20.5 16.2467 16.2467 20.5 11 20.5C5.75329 20.5 1.5 16.2467 1.5 11Z" fill="#A3A3A3"/>
</svg>
