<svg width="88" height="85" viewBox="0 0 88 85" fill="none" xmlns="http://www.w3.org/2000/svg">
<path d="M26.4708 84.2629H23.5975C23.516 84.2321 23.4396 84.191 23.3581 84.1807C18.3757 83.3226 14.9726 80.512 13.1742 75.754C12.9603 75.1887 12.6087 74.9986 12.0483 74.9216C5.65988 74.048 0.723332 68.3548 0.702954 61.8395C0.692765 57.5491 0.692765 53.2535 0.702954 48.963C0.713143 43.1465 4.14172 38.1983 9.5877 36.2458C10.464 35.9324 10.7492 35.5162 10.734 34.6067C10.6932 31.9142 11.6917 29.6739 13.8467 28.0246C14.3001 27.6803 14.3816 27.3977 14.0658 26.9096C13.3372 25.7843 13.057 24.5203 13.0621 23.1792C13.0723 19.7417 13.057 16.299 13.0621 12.8615C13.0774 8.91019 15.7979 6.00193 19.7104 5.96596C26.7561 5.9043 33.8017 5.9043 40.8474 5.96596C44.3676 5.99679 46.92 8.39637 47.3683 11.8955C47.4651 12.6509 47.4549 13.4267 47.4702 14.1923C47.4804 14.7216 47.6994 14.9785 48.2343 14.9785C51.9839 14.9785 55.7334 14.9785 59.4778 14.9785C60.0739 14.9785 60.298 14.6907 60.2216 14.1255C60.1248 13.4473 60.1758 12.769 60.2216 12.0856C60.7616 4.54266 68.0671 -1.01695 75.4082 0.539949C80.9561 1.71661 84.8024 5.84264 85.6226 11.7362C86.2594 16.2887 84.1452 21.7045 78.9794 24.5203C78.3528 24.8645 78.0879 25.2448 78.0981 25.9744C78.1338 28.9854 78.1338 32.0016 78.0981 35.0126C78.0879 35.7422 78.3121 36.1276 79.01 36.3999C81.6031 37.4173 83.6612 39.1335 85.2202 41.4611C86.3257 43.1157 86.9319 44.9654 87.3547 46.8923V63.6071C87.0898 64.6193 86.9064 65.6624 86.4836 66.6284C84.2929 71.6433 80.4721 74.4283 75.0872 75.0397C74.4504 75.1117 74.2161 75.3429 74.211 75.9903C74.2059 77.8761 73.5334 79.5409 72.3821 81.0155C70.976 82.8242 69.0809 83.8005 66.8852 84.2475H64.5162C64.4347 84.2167 64.3583 84.1756 64.2768 84.1602C60.0076 83.4151 57.1191 79.6025 57.1802 75.831C57.1904 75.1219 56.7523 75.086 56.2275 75.086C50.1753 75.086 44.1231 75.1014 38.0709 75.0757C37.3831 75.0757 37.0775 75.348 36.8584 75.9698C36.084 78.1278 34.79 79.9211 33.0426 81.3855C31.1271 82.9938 28.8957 83.857 26.4606 84.2527L26.4708 84.2629ZM44.0874 39.0924C37.3526 39.0924 30.6126 39.1027 23.8777 39.0821C23.0829 39.0821 22.7875 39.3185 22.7926 40.156C22.8181 46.0959 22.8181 52.0408 22.7926 57.9807C22.7926 58.7822 23.0626 59.0803 23.842 58.9415C25.3194 58.6795 26.7612 58.9261 28.1927 59.2652C32.2988 60.2467 36.9755 63.977 37.6327 70.477C37.7142 71.2734 38.0454 71.4532 38.7637 71.4532C44.9382 71.4327 51.1076 71.4327 57.2821 71.4532C57.9342 71.4532 58.3672 71.2631 58.7595 70.6979C60.0942 68.7659 61.9486 67.5687 64.2513 67.1987C65.1327 67.06 65.3466 66.7055 65.3415 65.8731C65.3161 57.3435 65.3263 48.8191 65.3263 40.2896C65.3263 39.1181 65.3059 39.0975 64.1342 39.0975C57.4553 39.0975 50.7714 39.0975 44.0925 39.0975L44.0874 39.0924ZM71.8981 69.6959C71.9592 69.66 72.0255 69.624 72.0866 69.588C72.0866 69.2797 72.0866 68.9714 72.0866 68.6631C72.0866 66.7877 72.0662 64.9122 72.1019 63.0367C72.1223 61.9371 72.8304 61.2127 73.8034 61.1767C74.7969 61.1407 75.5101 61.783 75.6629 62.8775C75.7088 63.2114 75.7037 63.5557 75.7037 63.9C75.7037 66.0015 75.7037 68.1031 75.7088 70.2098C75.7088 71.2631 75.8514 71.3607 76.855 71.0679C81.0478 69.8604 83.8447 66.0375 83.8956 61.3206C83.9415 57.287 83.9364 53.2535 83.8956 49.2148C83.8498 44.6777 81.3127 41.0141 77.3492 39.6165C75.7903 39.0667 75.7088 39.1284 75.7088 40.8189C75.7088 42.7508 75.7088 44.6828 75.7088 46.6148C75.7088 46.9283 75.7139 47.2417 75.6782 47.55C75.5458 48.6958 74.8325 49.3741 73.8136 49.3484C72.8151 49.3176 72.1121 48.5725 72.0968 47.4113C72.0713 45.2532 72.0917 43.0951 72.0815 40.9319C72.0764 38.9588 72.2904 39.0873 70.2679 39.0873C68.9484 39.0873 68.9433 39.0924 68.9433 40.4129C68.9433 48.5365 68.9433 56.6653 68.9433 64.7889C68.9433 65.5288 68.9433 66.2687 68.9484 67.0035C68.9484 67.3221 68.9739 67.6458 69.2999 67.8153C70.2526 68.3035 71.1237 68.9252 71.893 69.6857L71.8981 69.6959ZM40.9798 35.4288C46.925 35.4288 52.8652 35.4288 58.8104 35.4288C61.4595 35.4288 64.1087 35.4083 66.7527 35.4391C67.4863 35.4494 67.7665 35.1668 67.741 34.4371C67.7054 33.4454 67.7359 32.4486 67.7359 31.4569C67.7359 30.5355 67.2859 30.0747 66.3859 30.0747C54.0216 30.0747 41.6523 30.0747 29.288 30.0747C25.6557 30.0747 22.0182 30.0593 18.3859 30.085C16.1749 30.1004 14.4173 31.8731 14.351 34.0774C14.3103 35.3826 14.3511 35.4288 15.6298 35.4288C24.0815 35.4288 32.5281 35.4288 40.9798 35.4288ZM82.1023 13.2161C82.1125 8.03669 78.093 3.96204 72.9629 3.9569C67.8684 3.95176 63.747 8.07779 63.747 13.1801C63.747 18.2927 67.8684 22.4547 72.9272 22.4598C78.0369 22.465 82.0921 18.3749 82.1023 13.2161ZM12.4151 55.3499C12.4151 50.3503 12.4151 45.3508 12.4151 40.3513C12.4151 39.2517 12.2725 39.1541 11.2179 39.4675C7.06085 40.6955 4.28948 44.4876 4.22835 49.1634C4.1774 53.2226 4.1774 57.287 4.22835 61.3514C4.28439 66.0015 6.99973 69.7525 11.1313 71.0267C12.2776 71.3813 12.4151 71.2888 12.4151 70.0916C12.4151 65.1794 12.4151 60.2621 12.4151 55.3499ZM34.0564 71.5611C34.0564 66.4948 30.0573 62.4767 25.0341 62.4818C20.0874 62.4869 16.0526 66.5513 16.0475 71.5406C16.0424 76.5915 20.0416 80.6404 25.0545 80.6456C30.098 80.6456 34.0615 76.6532 34.0564 71.5663V71.5611ZM55.9881 26.4163C58.6678 26.4163 61.3424 26.4214 64.0221 26.4111C64.3379 26.4111 64.7761 26.5858 64.9493 26.221C65.0919 25.9127 64.7302 25.6712 64.5519 25.4297C63.0847 23.4155 61.5869 21.4167 60.1401 19.3871C59.7529 18.8425 59.3199 18.6267 58.6576 18.6318C55.4175 18.6575 52.1774 18.6421 48.9374 18.6421C47.4752 18.6421 47.4956 18.6421 47.4702 20.163C47.4396 21.946 47.6994 23.7598 47.0932 25.4914C46.8181 26.2724 47.0779 26.4266 47.7911 26.4214C50.5268 26.4009 53.2575 26.4111 55.9932 26.4111L55.9881 26.4163ZM30.2814 19.5927C34.1685 19.5927 38.0607 19.5927 41.9478 19.5927C44.0671 19.5927 43.8327 19.7519 43.8378 17.6555C43.8378 16.4326 43.8378 16.4326 42.6049 16.4326C34.627 16.4326 26.6542 16.4275 18.6762 16.4326C16.5111 16.4326 16.6894 16.15 16.6894 18.4417C16.6894 19.531 16.7505 19.5927 17.8509 19.5927C21.9927 19.5927 26.1345 19.5927 30.2814 19.5927ZM30.256 23.2511C26.0632 23.2511 21.8654 23.2511 17.6726 23.2511C16.725 23.2511 16.5213 23.5594 16.8422 24.4637C17.2803 25.7072 18.3043 26.406 19.8021 26.4111C25.0086 26.4214 30.2152 26.4163 35.4268 26.4163C37.2863 26.4163 39.1407 26.4214 41.0002 26.4009C42.2585 26.3855 43.1246 25.7226 43.6187 24.5819C44.067 23.5491 43.8582 23.2511 42.7578 23.2511C38.5905 23.2511 34.4232 23.2511 30.2611 23.2511H30.256ZM30.256 12.769C34.4538 12.769 38.6516 12.769 42.8444 12.769C43.8327 12.769 43.9957 12.5121 43.6646 11.5872C43.2468 10.4157 42.2229 9.62441 40.9645 9.61927C33.8119 9.60386 26.6542 9.60386 19.5015 9.61927C18.3247 9.61927 17.4739 10.2564 16.9543 11.2995C16.4296 12.358 16.6792 12.769 17.8305 12.769C21.9723 12.769 26.1091 12.769 30.2509 12.769H30.256ZM16.0424 62.6719C16.8626 61.9115 17.4994 61.2897 18.2687 60.8889C19.0023 60.5036 19.1959 59.9692 19.1959 59.1728C19.1704 53.1199 19.1857 47.067 19.1806 41.0141C19.1806 38.9074 19.3538 39.0975 17.2651 39.0924C16.0628 39.0924 16.0475 39.1078 16.0475 40.341C16.0475 47.4164 16.0475 54.4918 16.0475 61.5723C16.0475 61.8549 16.0475 62.1324 16.0475 62.6719H16.0424ZM65.7338 80.6405C68.4746 80.6353 70.7315 78.3745 70.706 75.6615C70.6805 72.9022 68.4594 70.6722 65.7338 70.6671C62.9624 70.6619 60.6954 72.9382 60.7209 75.7077C60.7463 78.4464 62.9828 80.6456 65.7338 80.6405ZM71.353 30.8301C71.353 31.6522 71.3428 32.4794 71.353 33.3016C71.3785 35.696 71.0168 35.3877 73.4672 35.4391C74.2365 35.4545 74.5218 35.1822 74.5116 34.4011C74.481 32.4435 74.5116 30.4807 74.5014 28.5178C74.481 26.0206 74.8376 26.3238 72.1987 26.2981C71.5823 26.293 71.3377 26.5396 71.3479 27.1613C71.3734 28.3842 71.353 29.6071 71.353 30.8249V30.8301Z" fill="#0E2B72"/>
<path d="M44.0311 45.9365C38.957 45.9365 33.888 45.9365 28.8139 45.9365C27.525 45.9365 26.7761 45.2788 26.7506 44.1895C26.7302 43.316 27.2091 42.6583 28.0395 42.4168C28.5082 42.2832 28.9871 42.2884 29.466 42.2884C39.1862 42.2884 48.9116 42.2884 58.6318 42.2935C59.1056 42.2935 59.5946 42.314 60.0582 42.4219C60.9345 42.6223 61.4185 43.3366 61.3726 44.246C61.3319 45.0836 60.7664 45.7464 59.9258 45.8903C59.5946 45.9468 59.2533 45.9314 58.912 45.9314C53.95 45.9314 48.9931 45.9314 44.0311 45.9314V45.9365Z" fill="#FFB400"/>
<path d="M44.0937 49.2354C49.1627 49.2354 54.2368 49.2354 59.3058 49.2354C60.6456 49.2354 61.3894 49.9085 61.369 51.0543C61.3537 51.9073 60.8239 52.6009 59.9833 52.7448C59.4331 52.8373 58.8625 52.8578 58.3021 52.8578C48.806 52.863 39.3151 52.863 29.819 52.8578C29.3146 52.8578 28.8052 52.8373 28.3008 52.7705C27.2769 52.6317 26.6859 51.897 26.7419 50.895C26.7929 49.965 27.4653 49.2662 28.4537 49.2456C30.3386 49.2097 32.2287 49.2302 34.1136 49.2302C37.4403 49.2302 40.7619 49.2302 44.0886 49.2302L44.0937 49.2354Z" fill="#0E2B72"/>
<path d="M73.8695 57.0251C72.8914 57.0251 72.0865 56.2081 72.1018 55.237C72.1171 54.2915 72.8914 53.5156 73.839 53.5002C74.8324 53.4848 75.6424 54.2658 75.6526 55.2472C75.6628 56.2286 74.863 57.0251 73.8695 57.0251Z" fill="#0E2B72"/>
<path d="M77.4223 9.86067C77.3968 10.4413 77.1981 10.8421 76.9077 11.1966C76.1028 12.178 75.308 13.1749 74.4827 14.1408C73.6574 15.1068 72.6436 15.2559 71.8183 14.5725C71.0134 13.9096 70.9625 12.8152 71.7317 11.8543C72.5774 10.7958 73.4333 9.74249 74.3299 8.73025C74.8648 8.12393 75.5628 7.96464 76.3269 8.29349C77.0503 8.60693 77.3611 9.20297 77.4172 9.86067H77.4223Z" fill="#FFB400"/>
<path d="M25.087 76.7971C22.285 76.8177 19.9059 74.4386 19.8753 71.5972C19.8447 68.7917 22.2137 66.3818 25.036 66.3407C27.8125 66.3048 30.2273 68.7197 30.2374 71.5509C30.2476 74.4027 27.9144 76.7817 25.087 76.7971ZM26.5949 71.6126C26.6153 70.7185 25.9632 70.0095 25.1022 69.994C24.2413 69.9786 23.5229 70.662 23.4924 71.5201C23.4669 72.3936 24.1394 73.1027 25.0054 73.1232C25.9122 73.1438 26.5694 72.5118 26.5898 71.6126H26.5949Z" fill="#FFB400"/>
<path d="M63.9571 75.6512C63.9622 74.6647 64.7569 73.8631 65.7197 73.8734C66.6877 73.8837 67.4569 74.6904 67.4519 75.6821C67.4468 76.6686 66.6469 77.4702 65.6892 77.4599C64.7263 77.4496 63.952 76.6378 63.9571 75.6512Z" fill="#FFB400"/>
</svg>
