<svg width="91" height="99" viewBox="0 0 91 99" fill="none" xmlns="http://www.w3.org/2000/svg">
<path d="M5.83243 99C5.94896 98.9126 6.09462 98.9476 6.30438 98.9009C5.92565 98.8077 5.61683 98.7611 5.31385 98.6795C2.69188 97.957 0.466124 95.3992 0.104875 92.6956C0.0349554 92.1712 0 91.6468 0 91.1166C0 63.4519 0 35.7813 0 8.11662C0 6.61336 0.192277 5.15671 0.973042 3.84572C2.31899 1.57335 4.29421 0.285666 6.94531 0.0526014C7.60954 -0.00566467 8.26795 0.000161844 8.93219 0.000161844C27.8745 0.000161844 46.8226 0.000161844 65.7649 0.000161844C67.1749 0.000161844 68.5442 0.186613 69.8085 0.862499C72.18 2.1327 73.4968 4.13122 73.8289 6.78233C73.8639 7.07366 73.8464 7.37664 73.8464 7.6738C73.8464 27.9853 73.8464 48.3027 73.8464 68.6143C73.8464 68.7366 73.8464 68.8648 73.858 68.9872C73.858 69.0629 73.893 69.1503 73.8114 69.1969C73.724 69.2435 73.6774 69.1561 73.625 69.1037C73.2055 68.6783 72.7918 68.253 72.3723 67.8335C71.3118 66.773 70.2572 65.7068 69.1909 64.6522C68.9928 64.4541 68.9054 64.256 68.9054 63.9704C68.9112 47.9182 68.9054 31.86 68.9113 15.8077C68.9113 15.0386 68.8646 15.161 68.2703 15.161C47.3528 15.161 26.4411 15.161 5.52362 15.161C4.91183 15.161 4.97592 15.1319 4.97592 15.7029C4.97592 40.734 4.97592 65.7709 4.97592 90.802C4.97592 91.1982 4.94096 91.5944 5.01087 91.9848C5.22646 93.2083 6.12959 93.9891 7.37066 94.0299C7.796 94.0416 8.21551 94.0299 8.64086 94.0299C27.7113 94.0299 46.7818 94.0299 65.8465 94.0299C66.2776 94.0299 66.7088 94.0124 67.1341 93.9192C67.4662 93.8435 67.7809 93.7153 68.0256 93.4764C68.1538 93.354 68.247 93.3598 68.3694 93.4764C69.4182 94.5368 70.467 95.5914 71.5157 96.646C71.6731 96.8034 71.5973 96.8908 71.4575 97.0131C70.3796 97.9803 69.1443 98.6154 67.6644 98.8951C67.7634 98.9417 67.8217 98.9709 67.8799 99H5.8266H5.83243ZM36.8882 10.1618C47.1722 10.1618 57.4561 10.1618 67.7343 10.1618C68.0198 10.1618 68.3111 10.1559 68.5966 10.1618C68.7947 10.1618 68.8996 10.0918 68.8996 9.87626C68.8996 8.93235 68.9579 7.98844 68.8355 7.05618C68.7248 6.22298 68.282 5.5937 67.5129 5.2208C67.07 5.00522 66.5864 4.98774 66.1028 4.98774C47.2188 4.98774 28.3348 4.98774 9.45074 4.98774C8.79816 4.98774 8.14559 4.98191 7.49301 4.98774C5.96062 5.01687 4.99922 5.97243 4.97592 7.50483C4.96426 8.25646 4.97592 9.00226 4.97592 9.7539C4.97592 10.1501 4.97592 10.1501 5.37795 10.1501C15.8833 10.1501 26.3829 10.1501 36.8882 10.1501V10.1618Z" fill="#0E2B72"/>
<path d="M80.8032 99.0006C80.8673 98.9715 80.9314 98.9365 81.0363 98.8899C80.9547 98.8666 80.9081 98.8549 80.8615 98.8491C80.2847 98.7617 79.7894 98.517 79.3757 98.0917C77.0567 95.7377 74.7086 93.4071 72.3954 91.0473C69.4413 88.0349 66.4348 85.0692 63.4574 82.0801C61.9134 80.5244 60.381 78.9571 58.8369 77.4072C58.3999 76.9702 58.0853 76.4691 57.893 75.8806C56.9549 73.0256 56.0052 70.1706 55.0613 67.3155C54.834 66.6338 54.5486 65.9638 54.432 65.2529C54.2106 63.9011 55.3468 62.5319 56.7219 62.4678C57.3162 62.4387 57.8581 62.6309 58.4058 62.8116C61.389 63.8254 64.3606 64.8684 67.3613 65.8181C68.1945 66.0803 68.9111 66.4823 69.5288 67.1174C74.5804 72.2914 79.7253 77.3606 84.8061 82.4997C86.4609 84.1719 88.1156 85.85 89.7762 87.5222C90.3356 88.0874 90.6735 88.7341 90.6327 89.5557C90.6036 90.0975 90.3938 90.5579 90.0733 90.9774C89.9452 91.1463 89.7995 91.2978 89.648 91.4493C87.5271 93.5819 85.4004 95.7086 83.2795 97.8469C82.7144 98.4179 82.1026 98.8666 81.2635 98.9132C81.3393 98.9423 81.4208 98.9715 81.4966 98.9948C81.2635 98.9948 81.0363 98.9948 80.8032 98.9948V99.0006ZM60.9986 68.9295C60.818 68.9062 60.7888 68.9586 60.8704 69.18C61.3598 70.5435 61.8318 71.9185 62.2338 73.3111C62.397 73.8821 62.6825 74.3366 63.1078 74.7328C64.3722 75.8981 65.5492 77.1567 66.7669 78.3686C69.185 80.7692 71.5797 83.1989 73.9861 85.6169C74.1687 85.7995 74.3493 85.8014 74.528 85.6227C75.5127 84.638 76.4915 83.6475 77.4879 82.6686C77.6918 82.4705 77.6743 82.3482 77.4821 82.1617C76.2527 80.9498 75.0232 79.7262 73.8055 78.5026C71.2651 75.9447 68.7305 73.3868 66.2017 70.8231C66.0503 70.6717 65.8813 70.5609 65.6715 70.491C64.1683 69.9899 62.665 69.483 61.1676 68.9761C61.1151 68.9586 61.0569 68.9411 61.0044 68.9237L60.9986 68.9295ZM81.2111 85.9898C81.1703 86.0189 81.112 86.0481 81.0654 86.0947C80.0283 87.1318 78.9911 88.1748 77.9482 89.2177C77.8083 89.3576 77.8142 89.4566 77.9482 89.6023C78.9504 90.6744 80.0166 91.694 81.0421 92.7428C81.1761 92.8768 81.2577 92.9118 81.4092 92.7545C82.4347 91.7173 83.466 90.6802 84.5031 89.6547C84.6663 89.4916 84.6604 89.3867 84.5031 89.2294C83.4718 88.1981 82.4463 87.1609 81.415 86.1238C81.3626 86.0714 81.316 86.0014 81.2111 85.9956V85.9898Z" fill="#FFB400"/>
<path d="M54.1758 37.075C54.1758 37.7393 54.1758 38.4035 54.1758 39.0619C54.1642 40.3671 53.2144 41.4683 52.0025 41.5674C50.5925 41.6839 49.4446 40.7866 49.2291 39.4115C49.1883 39.161 49.1824 38.9163 49.1824 38.6657C49.1824 37.4188 49.1766 36.1661 49.1824 34.9192C49.1824 34.6628 49.095 34.5871 48.8503 34.5929C47.4869 34.5987 46.1235 34.6046 44.7542 34.5929C43.5248 34.5813 42.5576 33.7947 42.2896 32.606C41.9808 31.2368 43.0004 29.8151 44.393 29.6578C45.267 29.5587 46.141 29.6286 47.0149 29.6112C47.6209 29.5995 48.2269 29.5937 48.8328 29.6112C49.1183 29.6228 49.1883 29.5179 49.1824 29.2441C49.1708 27.9098 49.165 26.5697 49.1824 25.2354C49.1941 24.3031 49.5553 23.5398 50.3536 23.0155C51.8044 22.0657 53.7913 22.9106 54.1059 24.6178C54.1467 24.845 54.17 25.0722 54.17 25.3053C54.17 26.6221 54.1758 27.9389 54.17 29.2557C54.17 29.5354 54.2516 29.617 54.5313 29.6112C55.8656 29.5995 57.2057 29.5937 58.54 29.6053C59.9267 29.617 60.9289 30.5026 61.1037 31.8486C61.2668 33.0722 60.4103 34.2724 59.1984 34.523C58.9828 34.5696 58.7614 34.5871 58.54 34.5871C57.2057 34.5871 55.8656 34.5871 54.5313 34.5871C54.2574 34.5871 54.1584 34.6628 54.1642 34.9425C54.1817 35.6534 54.1642 36.3642 54.1642 37.075H54.1758Z" fill="#0E2B72"/>
<path d="M31.5742 27.1568C31.5975 27.856 31.3062 28.4212 30.8401 28.9165C29.8903 29.9361 28.9115 30.9266 27.8976 31.888C27.7228 32.0512 27.7112 32.1502 27.886 32.325C28.8415 33.2689 29.7913 34.2245 30.741 35.1801C31.4286 35.8676 31.7432 36.6833 31.5043 37.6447C31.0673 39.4043 28.9406 40.0977 27.5597 38.9324C26.8081 38.2973 26.1788 37.5398 25.4738 36.8581C25.1125 36.5085 24.7571 36.1589 24.4192 35.7919C24.2618 35.6229 24.1628 35.6287 24.0055 35.7919C23.1373 36.6775 22.2575 37.5515 21.3835 38.4313C21.0805 38.7401 20.7717 39.0431 20.3813 39.247C19.3908 39.7598 18.0856 39.4917 17.3631 38.6294C16.6406 37.7612 16.6232 36.4619 17.3282 35.5297C17.6428 35.116 18.0332 34.7722 18.4003 34.3993C19.0995 33.6884 19.8103 32.9776 20.5211 32.2842C20.6785 32.1327 20.6726 32.0395 20.5211 31.8939C19.5306 30.9092 18.5459 29.9245 17.5729 28.9281C16.9261 28.2639 16.6465 27.4773 16.8737 26.5567C17.299 24.7971 19.5423 24.0687 20.8941 25.2807C21.669 25.974 22.3798 26.7257 23.0907 27.4831C23.3995 27.8094 23.7316 28.124 24.0404 28.4445C24.2036 28.6135 24.3026 28.4969 24.4192 28.3862C25.3689 27.4307 26.3186 26.4809 27.2684 25.5312C27.7811 25.0185 28.3638 24.6747 29.1271 24.6863C30.5021 24.7155 31.5626 25.7759 31.5684 27.1568H31.5742Z" fill="#0E2B72"/>
<path d="M31.5744 61.7918C31.5977 62.4677 31.3297 63.0329 30.8694 63.5049C29.5001 64.9091 28.1192 66.3016 26.7441 67.6942C24.9262 69.5354 23.1083 71.3708 21.2904 73.2062C20.7136 73.7888 20.0435 74.1792 19.1987 74.1559C18.1557 74.1209 17.4157 73.5965 16.9904 72.6585C16.5884 71.7728 16.7923 70.6891 17.4682 70.0074C20.7136 66.727 23.9415 63.4349 27.2277 60.1954C27.7172 59.7117 28.2591 59.333 28.9816 59.2981C30.4207 59.2281 31.5686 60.3352 31.5744 61.786V61.7918Z" fill="#0E2B72"/>
<path d="M48.017 59.2975C49.0716 59.2975 50.1321 59.2975 51.1867 59.2975C52.6025 59.2975 53.6688 60.3405 53.7271 61.6806C53.7853 63.0324 52.6666 64.2734 51.2449 64.2851C49.0774 64.3084 46.9041 64.3084 44.7308 64.2851C43.2217 64.2734 42.1846 62.9916 42.2487 61.634C42.3128 60.3754 43.4256 59.3092 44.7891 59.2975C45.867 59.2917 46.9391 59.2975 48.017 59.2975Z" fill="#0E2B72"/>
<path d="M47.9878 69.2207C49.0832 69.2207 50.1786 69.2207 51.274 69.2207C52.6608 69.2207 53.7212 70.2986 53.7212 71.7028C53.7212 73.0488 52.6083 74.1617 51.2624 74.1617C49.0891 74.1617 46.9216 74.1617 44.7483 74.1558C43.5771 74.1558 42.6099 73.4042 42.3244 72.3088C42.0447 71.2251 42.5225 70.1005 43.5188 69.5237C43.8626 69.3256 44.2413 69.2207 44.6434 69.2207C45.2027 69.2207 45.7563 69.2207 46.3156 69.2207C46.875 69.2207 47.4285 69.2207 47.9878 69.2207Z" fill="#0E2B72"/>
<path d="M19.8281 58.1445C21.5528 58.1445 22.922 59.5371 22.922 61.2734C22.922 62.9865 21.5062 64.414 19.8164 64.414C18.0976 64.414 16.6468 62.9748 16.6526 61.256C16.6526 59.508 18.0452 58.1387 19.8281 58.1445Z" fill="#0E2B72"/>
<path d="M32.7279 71.9996C32.7279 73.6427 31.2538 75.0818 29.5757 75.076C27.9268 75.076 26.441 73.6019 26.4818 71.9355C26.5226 70.2516 27.7054 68.7891 29.6281 68.7658C31.3703 68.7483 32.7337 70.1875 32.7279 71.9937V71.9996Z" fill="#0E2B72"/>
</svg>
