<svg width="77" height="78" viewBox="0 0 77 78" fill="none" xmlns="http://www.w3.org/2000/svg">
<path d="M76.8362 24.02C76.2976 25.187 75.3793 25.5908 74.1167 25.5908C60.7047 25.5686 47.2928 25.5819 33.8808 25.5642C33.1303 25.5642 32.6932 25.7505 32.3047 26.4649C27.06 36.1205 14.0101 38.3569 5.87369 31.0265C-1.24728 24.6102 -1.98454 14.1648 4.16077 6.79441C4.2579 6.67904 4.35057 6.56367 4.45653 6.45274C5.0481 5.83596 5.71033 5.75165 6.24452 6.21756C6.79195 6.69679 6.84049 7.37126 6.28424 8.0191C5.04811 9.45679 4.00184 11.0187 3.38819 12.8203C1.42364 18.6021 2.46551 23.7804 6.53149 28.333C6.57563 28.3819 6.64627 28.4085 6.75664 28.4795C7.08333 26.0656 8.02805 23.9845 9.69682 22.2495C10.2575 21.6682 10.8668 21.1535 11.5555 20.7408C11.9219 20.5234 12.0146 20.3237 11.8424 19.9022C11.0875 18.0163 11.114 16.0595 11.5731 14.1337C12.2 11.4891 14.765 9.58991 17.3873 9.70084C20.2481 9.82065 22.6453 11.8884 23.0647 14.6839C23.334 16.481 23.3781 18.287 22.632 20.0131C22.5128 20.2882 22.5349 20.4702 22.8042 20.6432C25.5899 22.4137 27.1572 24.9918 27.7267 28.2177C27.7355 28.2576 27.7796 28.2931 27.8458 28.3819C28.2255 28.1378 28.4992 27.7828 28.7685 27.4367C32.2209 22.9462 33.0817 17.972 31.0465 12.696C28.9848 7.35351 24.9542 4.23409 19.3254 3.32001C16.3719 2.84078 13.5112 3.34663 10.8005 4.6512C10.5974 4.74882 10.3988 4.85975 10.1913 4.93962C9.51581 5.20586 8.89776 4.98843 8.59755 4.39383C8.29735 3.7948 8.48722 3.15139 9.13177 2.80085C11.3347 1.59834 13.6966 0.866184 16.2041 0.79075C23.5017 0.564448 28.9407 3.69274 32.5255 10.078C32.7462 10.4685 33.0199 10.5794 33.4349 10.575C34.7814 10.5617 36.1323 10.5705 37.4788 10.5705C49.7165 10.5705 61.9541 10.5794 74.1918 10.5572C75.4367 10.5572 76.3109 10.9921 76.8362 12.1236V24.0244V24.02ZM54.2018 23.1237C60.6694 23.1237 67.1414 23.1148 73.609 23.137C74.3242 23.137 74.5582 22.924 74.5493 22.1918C74.514 19.4052 74.5184 16.6186 74.5493 13.832C74.5538 13.2063 74.3419 13.0022 73.7282 13.0022C60.7136 13.0155 47.6989 13.0111 34.6843 13.0111C33.8322 13.0111 33.7969 13.0643 34.0044 13.9429C34.6445 16.6496 34.6622 19.3608 34.0264 22.0676C33.7836 23.0926 33.8013 23.1148 34.8697 23.1148C41.3152 23.1148 47.7607 23.1148 54.2018 23.1148V23.1237ZM25.3868 29.6554C25.3559 26.7223 23.7843 24.0067 21.4091 22.6089C21.0206 22.3826 20.7249 22.3604 20.3187 22.6001C18.2923 23.7848 16.2351 23.7893 14.2087 22.6089C13.7673 22.3516 13.4494 22.3915 13.0521 22.6444C10.5798 24.233 9.29068 26.496 9.10968 29.4379C9.06112 30.25 9.31275 30.7203 10.0368 31.0975C14.8753 33.6001 19.6874 33.6045 24.5127 31.0664C25.1617 30.7247 25.559 30.3165 25.3824 29.6554H25.3868ZM13.8158 16.5565H13.776C13.776 16.9336 13.7672 17.3108 13.776 17.6835C13.8378 19.5649 15.3389 21.0026 17.2372 21.0071C19.1356 21.0159 20.6719 19.5827 20.7381 17.7235C20.7646 16.9736 20.7646 16.2192 20.7381 15.4649C20.6675 13.7122 19.2592 12.27 17.5418 12.1591C15.7362 12.0437 14.1292 13.2374 13.829 14.9768C13.7407 15.4871 13.8158 16.0284 13.8158 16.552V16.5565Z" fill="#0E2B72"/>
<path d="M57.6539 77.9557C55.1949 77.5475 52.8551 76.8065 50.7184 75.4797C48.0872 73.8512 45.9991 71.6991 44.551 68.9524C44.2464 68.3756 43.8932 68.1981 43.2663 68.1981C29.8279 68.2159 16.3894 68.1892 2.95094 68.238C1.1409 68.2425 -0.0422464 67.3905 0.0283894 65.2651C0.129928 62.1279 0.0504351 58.9907 0.0548498 55.8491C0.0548498 54.052 0.884819 53.2 2.6463 53.2C11.3875 53.2 20.1331 53.2 28.8743 53.2C29.0509 53.2 29.2274 53.1956 29.3996 53.2134C30.0574 53.2888 30.4812 53.6615 30.5254 54.3182C30.5651 54.9705 30.2075 55.4231 29.5541 55.5563C29.1656 55.6361 28.7595 55.645 28.3622 55.645C20.0933 55.6494 11.8246 55.645 3.55576 55.645C2.7876 55.645 2.40347 56.0296 2.40347 56.7987C2.40347 59.4833 2.42558 62.1723 2.39026 64.8568C2.38143 65.549 2.59772 65.7709 3.28642 65.7665C16.2746 65.7532 29.2672 65.7576 42.2553 65.7532C43.0897 65.7532 43.1383 65.6822 42.9529 64.8968C42.2818 62.0879 42.2642 59.2747 42.9749 56.4792C43.1515 55.7914 42.9264 55.6361 42.3039 55.6406C40.0568 55.6583 37.8097 55.6494 35.5582 55.6406C35.1609 55.6406 34.7547 55.6184 34.3662 55.5474C33.7437 55.432 33.3906 54.9972 33.4082 54.3804C33.4259 53.7281 33.8099 53.311 34.4721 53.2178C34.7194 53.1823 34.971 53.1956 35.2183 53.1956C37.8892 53.1956 40.5645 53.1734 43.2354 53.2089C43.8976 53.2178 44.2508 53.0137 44.5731 52.4146C47.7737 46.4909 54.1972 42.7014 61.3667 43.4646C69.3354 44.3077 75.2688 50.0052 76.7124 57.9302C76.7477 58.1254 76.8007 58.3207 76.8448 58.5159V62.8867C76.8051 63.0553 76.7565 63.2239 76.7256 63.397C75.7367 68.846 72.8716 72.9815 68.1169 75.7859C66.1347 76.9573 63.9626 77.5741 61.7111 77.9513H57.6628L57.6539 77.9557ZM70.1918 71.1578C75.9928 65.62 75.8648 55.5607 69.9887 49.9919C63.6668 43.9927 54.0692 44.4586 48.383 51.0879C43.0191 57.34 44.1625 66.4143 49.1379 71.0779C50.2681 66.7604 50.4623 66.4498 54.1795 63.2638C54.44 63.042 54.387 62.8556 54.2811 62.6116C53.5615 60.9076 53.6012 59.1283 53.8661 57.3534C54.2855 54.5179 56.7224 52.4235 59.592 52.3437C62.2982 52.2682 64.9162 54.3138 65.4327 57.0383C65.7859 58.8975 65.8301 60.7834 65.0751 62.5894C64.9339 62.9266 64.9648 63.1218 65.2915 63.3304C68.1169 65.1452 69.6929 67.7633 70.1874 71.1622L70.1918 71.1578ZM67.8388 72.3914C67.6754 69.2764 66.4569 67.0178 64.0686 65.3982C63.5565 65.0521 63.1326 65.0166 62.5631 65.3361C60.6515 66.4054 58.6914 66.4054 56.7842 65.3272C56.2059 65.0033 55.7821 65.0609 55.2788 65.407C52.8948 67.0622 51.6499 69.3252 51.5351 72.2449C51.5086 72.9505 51.7514 73.3498 52.3518 73.6649C57.2478 76.2696 62.1305 76.2651 67.0221 73.6604C67.6666 73.3143 67.9491 72.8661 67.8344 72.3914H67.8388ZM63.1635 59.2348C63.1635 58.8576 63.1768 58.4804 63.1635 58.1077C63.0796 56.2396 61.5433 54.7886 59.6627 54.7975C57.7864 54.8063 56.2677 56.2707 56.2015 58.1476C56.1795 58.8265 56.1839 59.501 56.1971 60.1799C56.228 62.0613 57.5038 63.4546 59.3669 63.6543C61.093 63.8407 62.6691 62.7003 63.0929 60.9609C63.2298 60.3929 63.1459 59.8116 63.1635 59.2348Z" fill="#0E2B72"/>
<path d="M43.6681 46.6586C42.198 46.6897 40.9309 46.1661 39.8361 45.2076C39.09 44.5598 38.9752 43.8232 39.4873 43.2463C39.995 42.6739 40.6042 42.7094 41.3901 43.3617C42.2377 44.0672 43.178 44.4488 44.2949 44.187C44.8689 44.0539 45.3368 43.7433 45.4296 43.131C45.5267 42.4875 45.019 42.1947 44.5378 41.9773C43.6946 41.6001 42.8292 41.2762 41.9772 40.9212C40.2378 40.1935 39.4917 38.951 39.7831 37.287C40.0436 35.7961 41.4519 34.6424 43.1118 34.5182C44.4362 34.4205 45.6326 34.7667 46.7363 35.4811C47.5221 35.9869 47.7561 36.688 47.3676 37.3137C46.9703 37.9615 46.2948 38.0458 45.4781 37.5488C44.6658 37.0563 43.827 36.7013 42.8601 37.0385C42.454 37.1805 42.1582 37.4645 42.145 37.9127C42.1273 38.3342 42.4717 38.4984 42.8072 38.6315C43.6636 38.9776 44.529 39.3104 45.3766 39.6787C46.52 40.1802 47.4338 40.9301 47.7782 42.1991C48.3477 44.2713 46.648 46.4722 44.3479 46.6542C44.1228 46.6719 43.8976 46.6542 43.6725 46.6542L43.6681 46.6586Z" fill="#FFB400"/>
<path d="M22.5035 61.8883C18.7334 61.8883 14.9632 61.8883 11.193 61.8883C10.9193 61.8883 10.6367 61.906 10.3718 61.8528C9.78469 61.733 9.44917 61.3336 9.43592 60.7435C9.42268 60.1178 9.75821 59.6962 10.3807 59.5631C10.6456 59.5054 10.9281 59.5276 11.2018 59.5276C18.6936 59.5276 26.1855 59.5276 33.6773 59.5276C34.8737 59.5276 35.4211 59.8871 35.4432 60.6769C35.4697 61.4978 34.8913 61.8927 33.6684 61.8927C29.9468 61.8927 26.2252 61.8927 22.5035 61.8927V61.8883Z" fill="#0E2B72"/>
<path d="M33.8893 42.2979C34.6443 40.0926 35.3374 38.0603 36.0349 36.0236C36.132 35.7396 36.2159 35.4423 36.3572 35.1849C36.6794 34.6036 37.1827 34.3995 37.8141 34.6036C38.4145 34.7989 38.7455 35.4112 38.5513 36.0502C38.2113 37.1506 37.8229 38.2378 37.452 39.3249C36.7633 41.3394 36.0702 43.3495 35.3859 45.3685C35.1431 46.0829 34.7944 46.6509 33.9467 46.6686C33.1918 46.6864 32.7504 46.3136 32.4193 45.3818C31.3597 42.4088 30.3046 39.4358 29.2406 36.4628C29.0773 36.0014 28.9448 35.5488 29.2274 35.0917C29.4702 34.6924 29.8322 34.5149 30.2957 34.5238C30.8388 34.5371 31.1875 34.8388 31.373 35.318C31.7394 36.2765 32.0793 37.2438 32.428 38.2111C32.8916 39.5068 33.3552 40.8025 33.8938 42.2979H33.8893Z" fill="#FFB400"/>
<path d="M54.5729 16.889C58.2946 16.889 62.0162 16.889 65.7378 16.889C66.0116 16.889 66.2941 16.8668 66.559 16.9245C67.1814 17.0531 67.517 17.4747 67.5082 18.1003C67.4993 18.6905 67.1594 19.0899 66.5766 19.2185C66.3383 19.2718 66.0778 19.254 65.8305 19.254C58.2902 19.254 50.7454 19.254 43.205 19.254C43.0063 19.254 42.8033 19.2629 42.6046 19.2407C41.938 19.1697 41.4568 18.6683 41.5053 18.0427C41.5539 17.3815 41.9203 16.9821 42.5869 16.9067C42.8341 16.8801 43.0858 16.8934 43.3375 16.8934C47.0812 16.8934 50.8292 16.8934 54.5729 16.8934V16.889Z" fill="#0E2B72"/>
</svg>
