<svg width="88" height="83" viewBox="0 0 88 83" fill="none" xmlns="http://www.w3.org/2000/svg">
<path d="M66.0167 82.5365H22.0519C21.4212 82.1367 21.0417 81.6176 21.2929 80.8544C21.5388 80.1016 22.1695 79.8627 22.9017 79.8472C24.2164 79.8264 25.5366 79.8004 26.8513 79.8472C27.621 79.8731 27.9737 79.5772 28.1714 78.8711C28.925 76.161 29.7268 73.4664 30.5071 70.7667C30.8384 69.6245 30.8171 69.5881 29.6038 69.5881C23.2491 69.5881 16.8943 69.5881 10.5396 69.5881C7.62141 69.5881 4.70327 69.5881 1.77977 69.5881C0.411545 69.5881 0.0106892 69.1832 0 67.8333C0 67.7502 0 67.6672 0 67.5841C0 45.955 0 24.326 0 2.69688C0 2.53074 0 2.3646 0 2.19847C0.0320677 1.17568 0.470334 0.765526 1.5446 0.739567C1.88666 0.729183 2.23405 0.739567 2.57611 0.739567C25.8733 0.739567 49.1704 0.739567 72.4676 0.739567C77.0747 0.739567 81.6817 0.744759 86.2941 0.734375C86.9943 0.734375 87.6036 0.838211 87.9938 1.47161V68.8665C87.5983 69.4168 87.0584 69.6297 86.369 69.6037C85.5138 69.5726 84.6534 69.5985 83.7929 69.5985C75.295 69.5985 66.7916 69.5985 58.2937 69.5985C57.321 69.5985 57.2461 69.6816 57.492 70.5331C58.3097 73.3678 59.1489 76.1973 59.9506 79.0372C60.1269 79.6654 60.4904 79.8679 61.1317 79.8523C62.4786 79.8264 63.82 79.8368 65.1669 79.8575C65.8991 79.8679 66.5297 80.1067 66.7756 80.8596C67.0214 81.6227 66.6474 82.1419 66.0167 82.5417V82.5365ZM44.0236 53.1197C57.305 53.1197 70.5864 53.1197 83.8677 53.1197C85.2199 53.1197 85.2199 53.1197 85.2199 51.8425C85.2199 36.1633 85.2199 20.484 85.2199 4.79956C85.2199 3.49642 85.2199 3.49642 83.8837 3.49642C57.321 3.49642 30.7583 3.49642 4.20086 3.49642C2.84867 3.49642 2.84869 3.49642 2.84869 4.78399C2.84869 20.4632 2.84869 36.1425 2.84869 51.827C2.84869 53.1197 2.84869 53.1197 4.18484 53.1197C17.4662 53.1197 30.7476 53.1197 44.0289 53.1197H44.0236ZM44.1305 55.8921C30.7957 55.8921 17.4662 55.8921 4.13138 55.8921C2.84867 55.8921 2.84334 55.8921 2.84334 57.1538C2.84334 59.9054 2.84334 62.6571 2.84334 65.4087C2.84334 66.3536 3.33505 66.8261 4.31846 66.8261C16.563 66.8261 28.8075 66.8261 41.0573 66.8261C55.3328 66.8261 69.6136 66.8261 83.8891 66.8261C85.2145 66.8261 85.2199 66.8261 85.2199 65.5178C85.2199 62.7401 85.2199 59.9573 85.2199 57.1797C85.2199 56.3248 84.7709 55.8973 83.873 55.8973C70.6237 55.8973 57.3798 55.8973 44.1305 55.8973V55.8921ZM43.9702 79.8368C48.0641 79.8368 52.1528 79.8264 56.2467 79.8472C57.0057 79.8472 57.2034 79.6291 56.9896 78.9178C56.1452 76.0935 55.3168 73.2587 54.5204 70.4188C54.3441 69.7958 54.0287 69.5778 53.3713 69.5778C47.1609 69.5933 40.9558 69.5985 34.7453 69.5778C34.0506 69.5778 33.7245 69.801 33.5428 70.4552C32.7678 73.2432 31.9394 76.0156 31.1377 78.7984C30.8545 79.7797 30.8972 79.8316 31.9608 79.8316C35.9639 79.8316 39.9724 79.8316 43.9755 79.8316L43.9702 79.8368Z" fill="#0E2B72"/>
<path d="M25.4344 32.046C25.4344 30.1821 25.4237 28.3235 25.4344 26.4596C25.4451 25.2188 25.9315 24.7567 27.2142 24.7515C29.1917 24.7359 29.0741 24.9228 29.0207 23.0123C28.8229 15.4738 34.9906 9.35781 42.425 8.57384C49.8594 7.78469 56.6844 11.9122 58.9345 18.5058C59.5117 20.1983 59.6293 21.9324 59.5545 23.6924C59.5224 24.4815 59.8003 24.7827 60.6394 24.7671C62.2161 24.7359 62.6276 25.1669 62.6276 26.6777C62.6329 30.2652 62.6329 33.8476 62.6276 37.4351C62.6276 38.9044 62.1252 39.382 60.6234 39.3924C58.7207 39.4028 58.8543 39.2211 58.8543 41.0901C58.849 44.2675 57.0799 45.9964 53.825 46.0224C53.4242 46.0224 53.018 46.0587 52.6225 46.0172C51.4467 45.9029 50.6022 46.1677 49.7845 47.1853C48.2773 49.0596 45.418 48.9869 43.7344 47.2424C42.0669 45.5188 42.286 42.8086 44.1994 41.3342C46.1021 39.8701 48.9133 40.2802 50.1961 42.305C50.6397 43.0059 51.1314 43.2551 51.9277 43.2032C52.7561 43.1513 53.5899 43.2084 54.4183 43.1721C55.391 43.1253 55.9255 42.5802 55.995 41.6405C56.011 41.4172 56.0057 41.194 56.0057 40.9759C56.0057 39.9964 55.5193 39.4668 54.5466 39.3872C53.6487 39.3145 53.1249 38.868 53.018 37.9854C52.9432 37.3832 52.9646 36.7654 52.9646 36.1527C52.9646 33.0688 52.9592 29.9849 52.9646 26.8957C52.9646 25.1461 53.3868 24.7515 55.1933 24.7515C55.4498 24.7515 55.7063 24.7411 55.9682 24.7515C56.5187 24.7671 56.7005 24.4919 56.7379 23.9831C57.2136 17.5297 52.6439 12.1562 45.9685 11.3463C39.8061 10.5986 34.0714 14.0512 32.3451 19.5338C31.8747 21.0238 31.8747 22.545 31.8961 24.0714C31.9014 24.5802 32.174 24.7567 32.655 24.7515C33.1147 24.7463 33.569 24.7411 34.0286 24.7567C35.0334 24.7931 35.6373 25.2707 35.6427 26.2208C35.6747 30.0835 35.6747 33.9462 35.6427 37.8089C35.632 38.8109 34.9799 39.3716 33.9163 39.382C31.6288 39.4028 29.336 39.4028 27.0485 39.382C25.9956 39.3716 25.4558 38.8057 25.4451 37.7207C25.4238 35.8308 25.4398 33.941 25.4344 32.0512V32.046ZM28.2885 32.072C28.2885 33.318 28.2992 34.5692 28.2831 35.8153C28.2724 36.376 28.5076 36.6252 29.0955 36.6148C30.0682 36.594 31.0356 36.5992 32.0083 36.6148C32.5963 36.6252 32.8154 36.3656 32.8154 35.8101C32.7993 33.3128 32.7993 30.8155 32.8154 28.3183C32.8154 27.7576 32.5856 27.5032 32.003 27.5136C31.0623 27.5291 30.1163 27.5343 29.1757 27.5136C28.5022 27.4928 28.2671 27.7835 28.2831 28.4169C28.3099 29.637 28.2938 30.8571 28.2938 32.0772L28.2885 32.072ZM59.7736 32.155C59.7736 30.8779 59.7629 29.6007 59.7789 28.3287C59.7843 27.7732 59.5652 27.5032 58.9773 27.5136C58.2076 27.5291 57.4327 27.5239 56.6631 27.5136C56.1286 27.5136 55.8721 27.7628 55.8721 28.2768C55.8721 30.8 55.8721 33.3284 55.8721 35.8516C55.8721 36.3604 56.1126 36.62 56.6577 36.6096C57.4273 36.5992 58.2023 36.594 58.9719 36.6096C59.5598 36.6252 59.795 36.376 59.7843 35.8101C59.7683 34.59 59.7789 33.3699 59.7789 32.1498L59.7736 32.155ZM46.7915 43.2292C46.0593 43.2188 45.4714 43.7691 45.4767 44.4596C45.4767 45.1294 46.1074 45.7368 46.7915 45.7264C47.4329 45.716 48.0475 45.1294 48.0743 44.5063C48.101 43.8262 47.5184 43.2395 46.7969 43.2292H46.7915Z" fill="#FFB400"/>
</svg>
