<svg width="89" height="88" viewBox="0 0 89 88" fill="none" xmlns="http://www.w3.org/2000/svg">
<path d="M0.0410156 20.2912C0.698192 18.3197 1.94683 16.9649 4.03463 16.5251C4.91424 16.3431 5.81406 16.4392 6.69872 16.4493C7.25479 16.4594 7.66932 16.2926 8.0889 15.9185C13.9175 10.7521 19.7614 5.60588 25.5951 0.444518C26.2876 -0.167161 26.9751 -0.081223 27.7385 0.302972C34.29 3.58885 40.8416 6.86462 47.3982 10.1404C50.7396 11.8137 54.0811 13.4819 57.4226 15.1552C57.731 15.3068 58.0495 15.4585 58.3174 15.6657C58.9139 16.1258 59.0757 16.7475 58.7724 17.43C58.464 18.1276 57.8574 18.3804 57.1345 18.2237C56.7503 18.1428 56.3863 17.9406 56.0274 17.7586C48.2879 13.8914 40.5534 10.0241 32.8139 6.1569C32.5409 6.02041 32.2983 5.79798 31.8736 5.83336C32.1011 6.14679 32.2882 6.42482 32.4853 6.69275C34.6287 9.53883 36.7772 12.3849 38.9155 15.231C39.1228 15.504 39.3402 15.7769 39.507 16.0752C39.9063 16.7829 39.7395 17.5463 39.1228 17.9911C38.5212 18.4259 37.7073 18.3399 37.1664 17.7738C36.9693 17.5665 36.8075 17.3289 36.6306 17.0964C34.0373 13.6538 31.4439 10.2112 28.8456 6.76858C28.6939 6.56637 28.5271 6.37427 28.3502 6.1569C28.0671 6.46526 28.1884 6.79385 28.1884 7.08705C28.1783 10.105 28.1833 13.123 28.1783 16.1409C28.1783 16.4543 28.1934 16.7829 28.1227 17.0862C27.9508 17.8091 27.4857 18.2338 26.7224 18.254C25.9944 18.2742 25.5395 17.8951 25.3019 17.2278C25.1704 16.8638 25.1856 16.4897 25.1856 16.1207C25.1856 12.7287 25.1856 9.33662 25.1856 5.94458C25.1856 5.63621 25.1856 5.3329 25.1856 4.76166C20.7218 8.69461 16.4452 12.4607 12.1685 16.2269C12.3252 16.5554 12.588 16.424 12.7852 16.424C14.049 16.4392 15.3128 16.424 16.5816 16.4341C18.8363 16.4645 20.7471 17.8294 21.3436 19.9829C21.5661 20.7816 21.9452 20.9231 22.6732 20.9231C39.9771 20.908 57.2811 20.9434 74.585 20.8878C78.5635 20.8726 82.0364 22.0151 85.0645 24.5679C85.6812 25.0886 86.3131 25.584 86.9349 26.0896C88.2543 27.1663 88.7042 28.5616 88.2442 30.1742C87.7741 31.8272 86.6366 32.7877 84.8926 32.9444C84.3214 32.995 83.7451 33.0354 83.1738 33.0354C63.1097 33.0354 43.0507 33.0455 22.9866 33.0202C22.0312 33.0202 21.5408 33.2174 21.2122 34.2234C20.6056 36.0635 19.18 37.211 17.254 37.3677C13.2149 37.6913 9.15555 37.5295 5.10633 37.4638C2.49785 37.4233 0.829627 36.023 0.0410156 33.5561V20.2761V20.2912ZM53.333 30.068C63.4232 30.068 73.5083 30.068 83.5985 30.068C83.8866 30.068 84.1748 30.068 84.4629 30.063C84.9027 30.0528 85.2262 29.8709 85.4082 29.4462C85.6054 28.9862 85.3931 28.6576 85.0746 28.3846C84.5539 27.9347 83.9827 27.5353 83.4721 27.0753C80.8383 24.6943 77.7193 23.7793 74.211 23.7844C57.1951 23.8147 40.1844 23.7996 23.1686 23.7996C22.9108 23.7996 22.6479 23.8198 22.3951 23.7996C21.8289 23.749 21.6368 24.0068 21.6469 24.5578C21.6672 25.9379 21.652 27.318 21.652 28.698C21.652 29.6147 22.0969 30.0731 22.9866 30.0731C33.1021 30.0731 43.2175 30.0731 53.338 30.0731L53.333 30.068ZM10.8137 19.4217C8.94828 19.4217 7.08292 19.4066 5.21755 19.4217C3.70099 19.4369 2.87699 20.2508 2.87193 21.7724C2.85171 25.215 2.85171 28.6627 2.87193 32.1053C2.88204 33.6976 3.75153 34.5368 5.34898 34.5368C8.9685 34.5469 12.583 34.5469 16.2025 34.5368C17.8303 34.5368 18.6341 33.6976 18.6341 32.0901C18.6341 28.6475 18.6341 25.1998 18.6341 21.7573C18.6341 20.18 17.9213 19.4369 16.3289 19.4167C14.4938 19.3965 12.6538 19.4167 10.8187 19.4167L10.8137 19.4217Z" fill="#0E2B72"/>
<path d="M0.0416459 85.3129C0.582553 84.7114 1.26501 84.5597 2.05867 84.5597C9.38872 84.5799 16.7188 84.5698 24.0438 84.5698C25.1862 84.5698 25.1913 84.5698 25.1913 83.4324C25.1913 68.287 25.1913 53.1416 25.1913 37.9912C25.1913 37.5615 25.1458 37.1267 25.2873 36.7071C25.5199 35.9994 25.9951 35.5899 26.7533 35.6102C27.4813 35.6304 27.9261 36.0601 28.098 36.7375C28.189 37.0913 28.184 37.4755 28.184 37.8496C28.189 40.5794 28.184 43.3042 28.184 46.2918C28.6592 45.756 28.9877 45.397 29.3062 45.0229C30.2768 43.8855 31.2272 42.7329 32.2079 41.6056C32.5972 41.1608 32.6427 40.8069 32.2079 40.3469C31.5406 39.6341 30.9289 38.8708 30.3122 38.1125C29.6803 37.3289 29.741 36.4544 30.4386 35.9034C31.0857 35.3928 31.94 35.5192 32.5769 36.2421C33.0875 36.8234 33.6234 37.3946 34.0733 38.0215C34.5485 38.6787 34.8568 38.5472 35.2714 37.9659C35.6859 37.3845 36.1762 36.8537 36.6565 36.3179C37.3945 35.4939 38.2438 35.3726 38.9162 35.964C39.5531 36.5302 39.5683 37.3845 38.9162 38.1934C38.2843 38.9769 37.622 39.7352 36.975 40.5036C36.793 40.721 36.5655 40.9434 36.8284 41.2518C38.1579 42.829 39.4874 44.4062 40.822 45.9935C41.1961 45.6801 41.0596 45.3414 41.0646 45.0533C41.0747 42.7228 41.0697 40.3974 41.0747 38.067C41.0747 37.7788 41.0697 37.4907 41.0949 37.2076C41.1961 36.1915 41.8077 35.5647 42.652 35.595C43.5063 35.6253 44.0472 36.2673 44.0522 37.3289C44.0624 41.6966 44.0624 46.0643 44.0624 50.4371C44.0624 61.417 44.0624 72.3969 44.0573 83.3768C44.0573 84.1654 44.4499 84.5614 45.2352 84.5647C57.9945 84.5647 70.7589 84.5647 83.5182 84.5647C83.7457 84.5647 83.9782 84.5647 84.2057 84.5647C85.333 84.5749 85.9397 84.9237 86.1115 85.6668C86.3036 86.511 85.9447 87.062 84.8781 87.5473C56.852 87.5473 28.826 87.5473 0.799926 87.5625C0.147805 87.5625 -0.0645149 87.4108 0.0163683 86.7688C0.0770308 86.2886 0.0264809 85.7932 0.0264809 85.3079L0.0416459 85.3129ZM34.8821 43.4154C34.4069 43.4306 34.321 43.6783 34.1794 43.8451C32.673 45.6144 31.207 47.4242 29.655 49.153C29.1141 49.7597 29.2405 50.1236 29.7005 50.6544C31.207 52.3884 32.6932 54.1375 34.144 55.9169C34.5737 56.4477 34.8113 56.3415 35.1854 55.8967C36.7273 54.0414 38.2792 52.1963 39.8514 50.3714C40.2002 49.9669 40.1041 49.6889 39.8008 49.335C38.2388 47.5 36.6868 45.6548 35.1349 43.8097C35.0085 43.658 34.9175 43.471 34.8821 43.4154ZM34.5889 61.2097C34.4524 61.3513 34.2906 61.513 34.144 61.6849C32.6224 63.4795 31.1261 65.2943 29.5792 67.0636C29.1697 67.5287 29.1596 67.827 29.564 68.2921C31.1059 70.0664 32.6224 71.8661 34.1188 73.6809C34.508 74.1561 34.7658 74.2016 35.1753 73.7112C36.7121 71.856 38.264 70.0159 39.8413 68.196C40.2305 67.7461 40.0738 67.4529 39.7654 67.0889C38.2034 65.2539 36.6514 63.4087 35.0944 61.5737C34.968 61.4271 34.872 61.2299 34.5889 61.2148V61.2097ZM29.928 84.4839H39.3964C38.1427 82.9976 36.975 81.6176 35.8173 80.2324C35.059 79.3225 34.2873 79.3259 33.502 80.2426C33.4262 80.3285 33.3504 80.4144 33.2745 80.5004C32.1927 81.7894 31.1109 83.0735 29.928 84.4839ZM28.2598 53.4854V64.0608C29.741 62.3117 31.0857 60.7244 32.4303 59.132C32.6679 58.8489 32.5517 58.5962 32.3545 58.3636C31.0301 56.7864 29.7056 55.2142 28.2598 53.4904V53.4854ZM28.2295 81.5872C28.2901 81.6176 28.3508 81.6479 28.4114 81.6833C29.4831 80.4195 30.5498 79.1607 31.6266 77.902C32.3714 77.0291 32.3629 76.1478 31.6013 75.2581C31.4547 75.0862 31.3131 74.9043 31.1665 74.7273C30.2263 73.6253 29.291 72.5283 28.2345 71.2898V81.5923L28.2295 81.5872ZM41.004 81.7945V71.3707C39.5329 73.1046 38.2034 74.6768 36.8688 76.2439C36.6615 76.4865 36.6969 76.714 36.889 76.9364C38.2185 78.5036 39.5481 80.0757 41.004 81.7945ZM41.0141 64.0103V53.8038C40.8877 53.8342 40.8119 53.8342 40.7815 53.8645C39.4773 55.3912 38.1781 56.9229 36.8739 58.4496C36.702 58.6518 36.6767 58.854 36.8536 59.0663C38.1983 60.6637 39.5379 62.2612 41.0141 64.0103Z" fill="#0E2B72"/>
<path d="M72.0938 66.7185C69.1012 66.7287 66.5736 64.287 66.4826 61.2943C66.4573 60.4349 67.0235 59.7424 67.8171 59.6615C68.631 59.5806 69.2832 60.1721 69.4146 61.1174C69.6471 62.7401 70.5874 63.6905 71.9928 63.7158C73.2515 63.736 74.1968 63.0889 74.5658 61.9565C74.9551 60.7484 74.5203 59.5351 73.3678 58.8324C72.5488 58.332 71.6187 57.8669 71.2951 56.962C70.8452 55.6982 70.0465 55.3646 68.8029 55.2786C67.5088 55.1876 66.4219 54.4748 65.603 53.4335C64.7082 52.291 64.1016 50.9817 63.5859 49.6421C63.1563 48.5249 63.4747 47.4582 64.4706 46.8415C65.0873 46.4623 65.0722 46.0478 64.9559 45.4867C64.415 42.9035 63.8943 40.3152 63.3585 37.727C63.2068 37.0041 63.2472 36.3418 63.8994 35.8666C64.8042 35.2145 65.9467 35.7352 66.2146 36.9737C66.6797 39.107 67.0841 41.2504 67.5239 43.3837C67.6806 44.142 67.8677 44.8952 67.9991 45.6586C68.08 46.1186 68.3126 46.2905 68.7574 46.2854C70.9716 46.2804 73.1807 46.2703 75.3949 46.2905C75.9864 46.2955 76.1077 45.9265 76.1936 45.4816C76.7194 42.8934 77.24 40.3051 77.7658 37.7168C77.8366 37.3781 77.8871 37.0344 77.9882 36.7058C78.2258 35.9071 78.9538 35.4521 79.7019 35.6088C80.445 35.7605 80.9809 36.4682 80.8343 37.2922C80.5461 38.9604 80.1822 40.6135 79.8485 42.2766C79.616 43.4292 79.3936 44.5869 79.1408 45.7344C79.0397 46.1894 79.1459 46.4623 79.5553 46.7353C80.6776 47.4886 81.0112 48.5603 80.5108 49.8089C80.0659 50.9311 79.5402 52.0231 78.8678 53.0291C77.9528 54.3889 76.6435 55.1522 75.0056 55.3494C74.6821 55.3898 74.1816 55.2382 74.1058 55.6224C74.035 55.9863 74.5406 56.0925 74.8237 56.2593C77.0934 57.6293 78.1348 60.1417 77.4473 62.6137C76.775 65.0251 74.581 66.7034 72.0888 66.7135L72.0938 66.7185ZM72.0484 52.4831C72.5084 52.4831 72.9684 52.4427 73.4234 52.4932C75.2635 52.6904 76.4211 51.8714 77.0884 50.183C77.4271 49.3236 77.4726 49.3236 76.5677 49.3236C74.7023 49.3185 72.837 49.3236 70.9766 49.3236C69.7735 49.3236 68.5653 49.3135 67.3622 49.3337C67.1549 49.3337 66.7909 49.182 66.8415 49.6623C66.9932 51.0676 68.4642 52.4427 69.8999 52.4831C70.6177 52.5033 71.3356 52.4831 72.0484 52.4831Z" fill="#FFB400"/>
</svg>
