<svg width="100" height="100" viewBox="0 0 100 100" fill="none" xmlns="http://www.w3.org/2000/svg">
<path d="M24.6229 20.8607C23.9829 20.9874 23.3763 21.2607 22.8429 21.674C21.7829 22.494 21.1562 23.7607 21.1562 25.1007V81.9207C21.1562 82.714 21.8096 83.3607 22.5963 83.3607C23.3829 83.3607 24.0363 82.7074 24.0363 81.9207V25.1007C24.0363 24.654 24.2429 24.234 24.5963 23.9607C24.9496 23.6874 25.4096 23.594 25.8429 23.7074C31.6296 25.2274 42.7896 28.1674 47.4696 29.4007C48.1096 29.5674 48.5429 30.134 48.5429 30.8007V74.7674C48.5429 75.5607 49.1963 76.2074 49.9829 76.2074C50.7696 76.2074 51.4229 75.554 51.4229 74.7674V30.794C51.4229 28.834 50.0896 27.1074 48.1963 26.6074C43.5163 25.374 32.3563 22.4407 26.5696 20.914C25.9229 20.7407 25.2496 20.7274 24.6096 20.8607H24.6229Z" fill="#0E2B72"/>
<path d="M49.9986 45.8739C49.2053 45.8739 48.5586 46.5272 48.5586 47.3139C48.5586 48.1005 49.2119 48.7539 49.9986 48.7539H74.5119C75.3253 48.7539 75.9519 49.3805 75.9519 50.1939V74.7605C75.9519 75.5539 76.6053 76.2005 77.3919 76.2005C78.1786 76.2005 78.8319 75.5472 78.8319 74.7605V50.1939C78.8319 47.8205 76.8786 45.8672 74.5053 45.8672H49.9919L49.9986 45.8739Z" fill="#0E2B72"/>
<path d="M65.858 51.6406C65.0646 51.6406 64.418 52.294 64.418 53.0806C64.418 53.8673 65.0713 54.5206 65.858 54.5206H70.1846V60.2873C70.1846 61.0806 70.838 61.7273 71.6246 61.7273C72.4113 61.7273 73.0646 61.074 73.0646 60.2873V53.0806C73.0646 52.2873 72.4113 51.6406 71.6246 51.6406H65.858Z" fill="#0E2B72"/>
<path d="M26.9205 45.875C26.1271 45.875 25.4805 46.5283 25.4805 47.315V53.0817C25.4805 53.875 26.1338 54.5217 26.9205 54.5217H31.9671C32.7605 54.5217 33.4071 53.8683 33.4071 53.0817C33.4071 52.295 32.7538 51.6417 31.9671 51.6417H28.3605V47.315C28.3605 46.5217 27.7071 45.875 26.9205 45.875Z" fill="#0E2B72"/>
<path d="M26.9205 59.5732C26.1271 59.5732 25.4805 60.2266 25.4805 61.0132V66.0599C25.4805 66.8532 26.1338 67.4999 26.9205 67.4999H31.9671C32.7605 67.4999 33.4071 66.8466 33.4071 66.0599C33.4071 65.2732 32.7538 64.6199 31.9671 64.6199H28.3605V61.0132C28.3605 60.2199 27.7071 59.5732 26.9205 59.5732Z" fill="#0E2B72"/>
<path d="M52.9453 16.6341C52.8453 16.6341 52.752 16.6474 52.6586 16.6741C52.6586 16.6741 49.8386 17.4941 47.0253 19.5541C44.2186 21.6074 41.3053 25.0208 41.292 30.0274C41.2853 30.1141 41.0653 32.4141 41.9186 34.8408C42.352 36.0741 43.0853 37.3674 44.312 38.3474C45.5386 39.3274 47.232 39.9608 49.4053 39.9608C53.6253 39.9608 56.592 38.2208 57.892 35.3874C59.192 32.5608 58.8986 28.9074 57.4653 24.9874C57.3186 24.5808 56.9253 24.3074 56.492 24.3074C55.9253 24.3074 55.4586 24.7741 55.452 25.3341C55.452 25.3341 55.432 26.2674 55.0786 27.1008C54.9053 27.5208 54.6586 27.8741 54.3586 28.1074C54.052 28.3408 53.6853 28.4874 53.0186 28.4408C52.4786 28.4008 52.0653 28.1474 51.6853 27.5874C51.3053 27.0274 51.0253 26.1674 50.9653 25.1408C50.852 23.0941 51.632 20.4674 53.6853 18.3941C53.8786 18.2008 53.9853 17.9408 53.9853 17.6674C53.9853 17.1008 53.5186 16.6274 52.9453 16.6274V16.6341ZM49.9653 20.2474C49.1786 21.9341 48.8053 23.6808 48.892 25.2608C48.9653 26.5874 49.312 27.8008 49.9653 28.7674C50.6186 29.7274 51.652 30.4408 52.872 30.5208C53.9653 30.5941 54.9186 30.2941 55.6053 29.7741C55.912 29.5408 56.012 29.2274 56.2253 28.9408C56.5986 31.1274 56.6453 33.1274 56.0053 34.5341C55.052 36.6141 53.0986 37.8941 49.4053 37.8941C47.6186 37.8941 46.452 37.4141 45.6053 36.7408C44.7586 36.0674 44.212 35.1408 43.872 34.1608C43.1786 32.2074 43.352 30.1741 43.352 30.1741C43.352 30.1408 43.352 30.1074 43.352 30.0741C43.352 25.8341 45.7453 23.0608 48.2386 21.2341C48.8653 20.7741 49.372 20.5741 49.9586 20.2474H49.9653Z" fill="#FFB200"/>
</svg>
