<svg width="29" height="45" viewBox="0 0 29 45" fill="none" xmlns="http://www.w3.org/2000/svg">
<path d="M27.2778 21.7373V14.7113C27.2778 14.384 27.098 14.0816 26.8096 13.9257L23.5243 12.1563V6.53959C23.5243 2.93385 20.6064 0 17.0188 0H11.9831C8.39699 0 5.47758 2.93385 5.47758 6.53959V12.1563L2.19227 13.9257C1.9039 14.08 1.72405 14.3824 1.72405 14.7113V21.7373C0.706985 22.2175 0 23.2557 0 24.4592V26.6915C0 28.3486 1.3411 29.6955 2.98763 29.6955H10.6032C10.9428 31.1983 12.1211 32.383 13.6141 32.7244V35.5289L6.82953 42.3507H6.35976C5.86983 42.3507 5.47448 42.7497 5.47448 43.2408C5.47448 43.7318 5.87138 44.1309 6.35976 44.1309H8.40629C8.89622 44.1309 9.29158 43.7318 9.29158 43.2408C9.29158 43.0054 9.2001 42.7934 9.05281 42.6344L13.6141 38.0481V40.0295H13.4761C12.9862 40.0295 12.5908 40.4285 12.5908 40.9196C12.5908 41.4106 12.9877 41.8097 13.4761 41.8097H15.5227C16.0126 41.8097 16.4079 41.4106 16.4079 40.9196C16.4079 40.4285 16.011 40.0295 15.5227 40.0295H15.3847V38.0481L19.946 42.6344C19.7987 42.7934 19.7072 43.007 19.7072 43.2408C19.7072 43.7334 20.1041 44.1309 20.5925 44.1309H22.639C23.1289 44.1309 23.5243 43.7318 23.5243 43.2408C23.5243 42.7497 23.1274 42.3507 22.639 42.3507H22.1692L15.3847 35.5289V32.7244C16.8793 32.383 18.0576 31.1983 18.3971 29.6955H26.0111C27.6592 29.6955 28.9988 28.3486 28.9988 26.6915V24.4592C28.9988 23.2572 28.2918 22.2175 27.2747 21.7373H27.2778ZM25.5057 15.2445V21.4552H23.5258V14.1782L25.5057 15.2445ZM11.9846 1.78182H17.0203C19.6297 1.78182 21.7537 3.91596 21.7537 6.54115V21.4567H7.25124V6.53959C7.25124 3.91596 9.3753 1.78026 11.9846 1.78026V1.78182ZM5.47913 14.1782V21.4552H3.49926V15.2445L5.47913 14.1782ZM14.5025 31.0424C13.5893 31.0424 12.8032 30.4874 12.4606 29.6955H16.5444C16.2017 30.4874 15.4157 31.0424 14.5025 31.0424ZM27.2298 26.6915C27.2298 27.3649 26.684 27.9137 26.0142 27.9137H2.99073C2.32096 27.9137 1.77521 27.3649 1.77521 26.6915V24.4592C1.77521 23.7842 2.32096 23.237 2.99073 23.237H26.0158C26.6871 23.237 27.2313 23.7857 27.2313 24.4592V26.6915H27.2298Z" fill="#FFB400"/>
<path d="M10.7986 6.48339H18.208C18.6979 6.48339 19.0932 6.08431 19.0932 5.59326C19.0932 5.1022 18.6963 4.70312 18.208 4.70312H10.7986C10.3087 4.70312 9.9133 5.1022 9.9133 5.59326C9.9133 6.08431 10.3102 6.48339 10.7986 6.48339Z" fill="#FFB400"/>
<path d="M10.7986 10.9529H18.208C18.6979 10.9529 19.0932 10.5538 19.0932 10.0627C19.0932 9.57169 18.6963 9.17261 18.208 9.17261H10.7986C10.3087 9.17261 9.9133 9.57169 9.9133 10.0627C9.9133 10.5538 10.3102 10.9529 10.7986 10.9529Z" fill="#FFB400"/>
<path d="M10.7986 15.4238H18.208C18.6979 15.4238 19.0932 15.0247 19.0932 14.5337C19.0932 14.0426 18.6963 13.6436 18.208 13.6436H10.7986C10.3087 13.6436 9.9133 14.0426 9.9133 14.5337C9.9133 15.0247 10.3102 15.4238 10.7986 15.4238Z" fill="#FFB400"/>
</svg>
