<svg width="76" height="100" viewBox="0 0 76 100" fill="none" xmlns="http://www.w3.org/2000/svg">
<path d="M0 43.608V1.19278C0.0285818 1.26127 0.0629108 1.32975 0.102925 1.42107C0.285849 0.633489 0.794586 0.17692 1.58345 0.045657C1.80067 0.0114144 2.0179 0 2.23512 0C20.2874 0 38.3397 0 56.3863 0C56.4949 0 56.6035 0 56.7121 0C57.2037 0.0285355 57.6553 0.154092 58.0211 0.490811C58.467 0.896015 58.9129 1.30122 59.3474 1.72354C63.5603 5.79842 67.7733 9.87899 71.9863 13.9596C73.0609 14.9983 74.147 16.0312 75.1931 17.1042C75.6161 17.5379 75.7991 18.0459 75.7991 18.6337C75.7991 26.7891 75.7991 34.9503 75.7991 43.1057C75.7991 43.8134 75.5304 44.3613 74.9302 44.7665C73.2782 45.8851 71.5861 46.9523 69.8998 48.0139C69.2367 48.4305 68.5564 48.4305 67.8819 48.0196C67.7161 47.9225 67.5503 47.8255 67.3903 47.7228C64.595 45.9193 61.7997 44.1102 59.0044 42.3067C58.5071 41.9872 58.6557 41.9529 58.1126 42.3067C56.855 43.1172 55.6031 43.939 54.3456 44.7551C53.3966 45.3715 52.4306 45.965 51.4874 46.5871C50.7214 47.0893 49.9611 47.5972 49.1722 48.0595C48.6177 48.3848 48.0518 48.4076 47.463 48.1394C47.2172 48.031 46.9943 47.8883 46.7714 47.7456C43.9075 45.8965 41.0378 44.0474 38.1739 42.1926C37.9853 42.0671 37.8481 42.0728 37.6594 42.1926C35.39 43.665 33.1207 45.1318 30.8456 46.5985C30.1139 47.0722 29.3765 47.5402 28.6333 48.0024C28.2103 48.265 27.753 48.3962 27.2442 48.2992C26.8898 48.2307 26.5868 48.0538 26.2953 47.8598C23.3742 45.9707 20.4532 44.0874 17.5321 42.1926C17.3263 42.0556 17.1777 42.0556 16.9719 42.1926C15.3999 43.2256 13.8222 44.2472 12.2445 45.2687C10.8554 46.1648 9.45493 47.0494 8.06013 47.9454C7.33416 48.4133 6.60813 48.4476 5.87072 47.991C5.53917 47.7856 5.20763 47.5744 4.87608 47.3632C3.5899 46.53 2.30944 45.6968 1.02897 44.8578C0.59453 44.5725 0.234407 44.23 0.108647 43.7107C0.0972145 43.6536 0.0800292 43.5966 0 43.5966V43.608ZM29.2736 3.36148C20.8362 3.36148 12.3988 3.36148 3.96147 3.36148C3.88716 3.36148 3.81283 3.36148 3.73281 3.36148C3.5556 3.35578 3.49843 3.42997 3.50986 3.60118C3.52701 4.00639 3.53847 4.41159 3.53847 4.8225C3.53847 17.0985 3.53847 29.3687 3.53847 41.6447C3.53847 41.8502 3.53847 42.0499 3.53847 42.2554C3.53847 42.3924 3.59559 42.4837 3.70992 42.5579C4.716 43.2085 5.72209 43.8591 6.72245 44.5154C6.86536 44.6067 6.97974 44.6238 7.13409 44.5211C9.36919 43.0715 11.6043 41.6276 13.8394 40.1837C14.6511 39.6587 15.4571 39.1336 16.2859 38.6314C16.9433 38.2319 17.6236 38.2547 18.2867 38.6428C18.4467 38.7341 18.6011 38.8311 18.7554 38.9281C21.6365 40.7887 24.5118 42.6492 27.3929 44.5097C27.5415 44.6067 27.6558 44.6124 27.7987 44.5097C29.102 43.6593 30.4054 42.809 31.7145 41.97C33.4008 40.8857 35.0928 39.807 36.7792 38.7227C37.5623 38.2205 38.3225 38.2376 39.1 38.7512C40.1918 39.4646 41.3065 40.1552 42.404 40.8629C44.2733 42.0671 46.1369 43.2713 48.0061 44.4754C48.1547 44.5725 48.2747 44.6295 48.4577 44.5097C50.064 43.4596 51.6817 42.4152 53.2994 41.3765C54.6828 40.4862 56.0661 39.5902 57.4552 38.6999C58.1641 38.249 58.8786 38.2205 59.6103 38.6599C59.7818 38.7626 59.959 38.8597 60.1248 38.9681C62.9544 40.7944 65.7897 42.6206 68.6193 44.4526C68.8308 44.5896 68.9794 44.6067 69.1967 44.4583C70.1056 43.8534 71.0202 43.2598 71.9463 42.6891C72.2207 42.5179 72.3178 42.3353 72.3178 42.0157C72.3063 34.8419 72.3121 27.668 72.3121 20.4942C72.3121 20.42 72.3121 20.3458 72.3121 20.2773C72.3235 20.1061 72.2378 20.0433 72.0663 20.049C71.8548 20.0548 71.649 20.049 71.4375 20.049C66.7501 20.049 62.057 20.049 57.3695 20.049C57.1409 20.049 56.9179 20.0319 56.695 19.9977C55.8604 19.8835 55.2716 19.3128 55.1744 18.531C55.1344 18.2342 55.1172 17.9317 55.1172 17.6292C55.1172 13.075 55.1172 8.5207 55.1172 3.96644C55.1172 3.56694 54.9115 3.36719 54.4999 3.36719C46.0968 3.36719 37.6937 3.36719 29.2907 3.36719L29.2736 3.36148ZM58.6042 11.2087C58.6042 12.9152 58.6042 14.6273 58.6042 16.3337C58.6042 16.6419 58.6157 16.6533 58.9244 16.6533C62.4114 16.6533 65.8983 16.6533 69.3853 16.6533C69.4939 16.6533 69.654 16.7161 69.7054 16.5963C69.7454 16.4992 69.5911 16.4307 69.5225 16.3566C66.1041 13.0293 62.68 9.70778 59.2559 6.38625C59.0958 6.23216 58.9358 6.07236 58.7757 5.91827C58.7414 5.88402 58.7072 5.83837 58.65 5.86119C58.5928 5.88402 58.6042 5.94109 58.6042 5.99246C58.6042 6.03241 58.6042 6.07236 58.6042 6.11231C58.6042 7.81302 58.6042 9.51374 58.6042 11.2145V11.2087Z" fill="#0E2B72"/>
<path d="M74.6272 99.976H1.16044C1.20617 99.9189 1.19477 99.8733 1.12618 99.839C0.577406 99.5708 0.211531 99.1656 0.0972034 98.5663C0.0800543 98.4693 0.0342982 98.5321 0 98.5606V52.881C0.131476 53.0294 0.131488 52.881 0.154353 52.8125C0.388724 52.1733 0.857491 51.7909 1.53774 51.6711C2.0465 51.5798 2.49811 51.7681 2.9154 52.0363C4.14442 52.8296 5.37342 53.6229 6.60815 54.4219C6.94542 54.6388 6.94539 54.6388 7.28837 54.4219C10.1523 52.5728 13.0276 50.7351 15.8801 48.8632C16.8633 48.2183 17.7322 48.2411 18.7097 48.886C21.5793 50.7751 24.4775 52.6242 27.3586 54.4904C27.5472 54.6102 27.673 54.5988 27.8502 54.4904C30.7255 52.6242 33.6066 50.7694 36.4819 48.9031C37.6366 48.1555 38.1453 48.1441 39.3058 48.886C41.7066 50.4269 44.1076 51.9736 46.5084 53.5202C47.0115 53.8455 47.5088 54.1765 48.0061 54.5075C48.1433 54.5988 48.269 54.6445 48.4405 54.536C50.3212 53.309 52.2076 52.0877 54.094 50.8721C55.1744 50.1701 56.272 49.4853 57.3409 48.7719C58.1412 48.2354 58.9244 48.2069 59.7247 48.7433C59.7704 48.7776 59.8275 48.8004 59.8732 48.8346C61.2966 49.7478 62.7143 50.6609 64.1377 51.5741C65.6297 52.5328 67.1159 53.4916 68.6021 54.4619C68.8251 54.6045 68.9794 54.6159 69.2024 54.4619C69.8884 53.9939 70.5915 53.5487 71.2946 53.1036C71.9405 52.6926 72.5579 52.2361 73.2381 51.8822C74.027 51.4713 74.8616 51.6482 75.4332 52.316C75.7591 52.6984 75.8105 53.1492 75.8105 53.6229C75.8105 68.2559 75.8105 82.8889 75.8105 97.5219C75.8105 97.7274 75.8105 97.9271 75.8105 98.1326C75.7933 98.8916 75.4961 99.4909 74.7701 99.839C74.7015 99.8733 74.6272 99.9018 74.6387 99.9988L74.6272 99.976ZM37.9167 96.6373H39.906C50.5727 96.6373 61.2337 96.6373 71.9005 96.6373C72.2892 96.6373 72.3007 96.6316 72.3007 96.312C72.3007 87.74 72.3007 79.1679 72.3007 70.5901C72.3007 65.9845 72.3063 61.3846 72.3121 56.7789C72.3121 56.7047 72.335 56.6191 72.2721 56.5735C72.1863 56.5164 72.1177 56.602 72.0491 56.642C71.3632 57.0814 70.6772 57.5209 69.9912 57.966C69.2881 58.4226 68.5908 58.4283 67.8648 57.9945C66.7215 57.3097 65.6182 56.5678 64.4978 55.8487C62.6 54.6274 60.7136 53.3946 58.8272 52.1676C58.6614 52.0592 58.5357 52.0306 58.3527 52.1505C57.2152 52.8981 56.0605 53.6286 54.9229 54.382C53.0765 55.5976 51.2015 56.7789 49.3323 57.966C49.0065 58.1715 48.6577 58.3141 48.2519 58.3199C47.7031 58.3199 47.2744 58.0573 46.8457 57.7834C43.9703 55.9343 41.095 54.0795 38.2253 52.219C37.991 52.0649 37.8252 52.0763 37.5966 52.2247C36.2132 53.1321 34.8242 54.0338 33.4294 54.9298C31.8345 55.9571 30.2396 56.9787 28.6391 58.0003C27.9531 58.4397 27.25 58.4283 26.5583 58.0003C26.0553 57.6864 25.5522 57.3839 25.0549 57.0643C22.5511 55.4378 20.0188 53.8512 17.5378 52.1847C17.3835 52.082 17.2578 52.0192 17.0691 52.1448C14.6168 53.7428 12.1588 55.335 9.69501 56.9216C9.03763 57.3439 8.40883 57.8119 7.7 58.1543C7.20268 58.394 6.69963 58.3883 6.19659 58.1543C5.90506 58.0231 5.63635 57.8576 5.3734 57.6864C4.83034 57.3268 4.2873 56.973 3.74425 56.6191C3.6928 56.5849 3.6356 56.5164 3.56701 56.5564C3.4927 56.5963 3.53275 56.6762 3.53275 56.7333C3.53275 57.1157 3.54991 57.498 3.54991 57.8804C3.54991 70.4303 3.54991 82.9802 3.54991 95.5302C3.54991 95.7984 3.55561 96.0666 3.53275 96.3349C3.50988 96.5574 3.58419 96.6602 3.81856 96.6373C3.90431 96.6316 3.98431 96.6373 4.07005 96.6373C15.3542 96.6373 26.644 96.6373 37.9282 96.6373H37.9167Z" fill="#0E2B72"/>
<path d="M27.581 26.6562C32.034 26.6562 36.4871 26.6562 40.9401 26.6562C41.226 26.6562 41.3689 26.7932 41.3689 27.0672C41.3689 27.9632 41.3631 28.8535 41.3689 29.7495C41.3689 29.9721 41.2946 30.052 41.066 30.0463C40.3171 30.0349 39.5682 30.0463 38.8251 30.0463C30.6564 30.0463 22.4935 30.0463 14.3248 30.0463C13.9742 30.0463 13.7988 29.8789 13.7988 29.544C13.7988 28.7051 13.7988 27.8662 13.7988 27.0329C13.7988 26.662 13.7989 26.6562 14.199 26.6562C18.6578 26.6562 23.1222 26.6562 27.581 26.6562Z" fill="#0E2B72"/>
<path d="M53.4142 26.6562C56.1524 26.6562 58.8905 26.6562 61.6286 26.6562C62.0288 26.6562 62.0345 26.6563 62.0345 27.0557C62.0345 27.9403 62.0345 28.8307 62.0402 29.7153C62.0402 29.955 61.9659 30.0634 61.7087 30.052C61.4972 30.0406 61.2914 30.052 61.0799 30.052C55.838 30.052 50.5961 30.052 45.3542 30.052C45.3141 30.052 45.2684 30.052 45.2283 30.052C44.912 30.052 44.7539 29.8998 44.7539 29.5954C44.7539 28.7336 44.7539 27.8719 44.7539 27.0101C44.7539 26.6562 44.7539 26.6562 45.1198 26.6562C47.8865 26.6562 50.6475 26.6562 53.4142 26.6562Z" fill="#0E2B72"/>
<path d="M20.7271 20.05C18.5663 20.05 16.4112 20.05 14.2504 20.05C13.7989 20.05 13.7988 20.05 13.7988 19.5992C13.7988 18.7317 13.7988 17.8585 13.7988 16.991C13.7988 16.6771 13.8274 16.6543 14.1418 16.6543C18.5148 16.6543 22.8936 16.6543 27.2666 16.6543C27.6153 16.6543 27.6382 16.6771 27.6382 17.0196C27.6382 17.9042 27.6382 18.7945 27.6382 19.6791C27.6382 20.0272 27.6096 20.0557 27.2552 20.0557C25.0772 20.0557 22.905 20.0557 20.7271 20.0557V20.05Z" fill="#FFB400"/>
<path d="M32.7496 20.0499C32.2694 20.0499 31.7892 20.0442 31.3148 20.0499C31.1033 20.0499 31.0004 19.9871 31.0061 19.7759C31.0061 18.8171 31.0061 17.8583 31.0061 16.8996C31.0061 16.7283 31.069 16.6484 31.2576 16.6484C32.2466 16.6484 33.2412 16.6541 34.2301 16.6484C34.4302 16.6484 34.5159 16.7055 34.5159 16.9167C34.5102 17.8698 34.5102 18.8171 34.5159 19.7702C34.5159 19.9871 34.4245 20.0556 34.213 20.0499C33.7271 20.0442 33.2412 20.0499 32.7496 20.0499Z" fill="#0E2B72"/>
<path d="M31.0337 84.9388C36.5786 84.9388 42.1292 84.9388 47.674 84.9388C48.3257 84.9388 48.2686 84.8817 48.2686 85.5209C48.2686 86.3371 48.2686 87.1475 48.2686 87.9636C48.2686 88.3231 48.2628 88.3345 47.8913 88.3345C40.2256 88.3345 32.56 88.3288 24.9 88.3288C21.3959 88.3288 17.8918 88.3288 14.3876 88.3345C14.2847 88.3345 14.1875 88.3345 14.0846 88.3345C13.8789 88.3459 13.7988 88.2603 13.7988 88.0606C13.8045 87.4328 13.7988 86.8107 13.7988 86.183C13.7988 85.8576 13.7988 85.5323 13.7988 85.207C13.7988 85.0187 13.8732 84.9445 14.0676 84.9502C14.5706 84.9502 15.0736 84.9502 15.5823 84.9502C20.7328 84.9502 25.8833 84.9502 31.0394 84.9502L31.0337 84.9388Z" fill="#0E2B72"/>
<path d="M31.0355 78.3238C25.4335 78.3238 19.8257 78.3238 14.2236 78.3238C13.9378 78.3238 13.7949 78.1868 13.7949 77.9129C13.7949 77.0568 13.7949 76.2065 13.7949 75.3504C13.7949 74.968 13.795 74.968 14.1837 74.968C16.796 74.968 19.4084 74.968 22.0208 74.968C30.5839 74.968 39.1413 74.968 47.7045 74.968C47.8074 74.968 47.9045 74.9737 48.0074 74.968C48.1789 74.9566 48.2589 75.0251 48.2589 75.1906C48.2589 76.1665 48.2589 77.1424 48.2589 78.1183C48.2589 78.2553 48.1903 78.3295 48.0417 78.3238C47.9845 78.3238 47.9217 78.3238 47.8645 78.3238C42.2511 78.3238 36.6375 78.3238 31.0298 78.3238H31.0355Z" fill="#FFB400"/>
<path d="M45.6565 64.9705C50.9156 64.9705 56.1747 64.9705 61.4395 64.9705C61.5081 64.9705 61.5766 64.9705 61.6395 64.9705C62.0282 64.9705 62.0339 64.982 62.0339 65.3529C62.0339 66.2375 62.0339 67.1278 62.0339 68.0124C62.0339 68.3434 62.011 68.3663 61.6795 68.3663C50.9899 68.3663 40.3003 68.3663 29.6107 68.3663C29.2849 68.3663 29.2734 68.3549 29.2734 68.0353C29.2734 67.1335 29.2734 66.2318 29.2734 65.3244C29.2734 64.982 29.2849 64.9648 29.645 64.9648C31.8973 64.9648 34.1495 64.9648 36.4017 64.9648C39.4886 64.9648 42.5697 64.9648 45.6565 64.9648V64.9705Z" fill="#0E2B72"/>
<path d="M19.8143 68.3645C17.9336 68.3645 16.0529 68.3645 14.1665 68.3645C13.8007 68.3645 13.7949 68.3645 13.7949 68.0163C13.7949 67.1032 13.7949 66.1958 13.7949 65.2826C13.7949 64.9916 13.8178 64.9688 14.1265 64.9688C17.9336 64.9688 21.735 64.9688 25.5421 64.9688C25.8679 64.9688 25.8793 64.9859 25.8793 65.3055C25.8793 66.1901 25.8793 67.0804 25.8793 67.965C25.8793 68.3645 25.8793 68.3645 25.4563 68.3645C23.5756 68.3645 21.695 68.3645 19.8086 68.3645H19.8143Z" fill="#0E2B72"/>
<path d="M56.8547 78.3245C55.2312 78.3245 53.6135 78.3245 51.9901 78.3245C51.7385 78.3245 51.6528 78.256 51.6585 78.0106C51.6756 77.1089 51.6642 76.2072 51.6699 75.3055C51.6699 74.9802 51.6814 74.9688 52.0015 74.9688C55.237 74.9688 58.4667 74.9688 61.7022 74.9688C62.0166 74.9688 62.0337 74.9859 62.0337 75.3112C62.0337 76.2243 62.0337 77.1317 62.0394 78.0449C62.0394 78.2675 61.9765 78.3359 61.7422 78.3359C60.113 78.3245 58.4839 78.3359 56.8547 78.3359V78.3245Z" fill="#0E2B72"/>
</svg>
