<svg width="100" height="98" viewBox="0 0 100 98" fill="none" xmlns="http://www.w3.org/2000/svg">
<path d="M0.5 74.9884C0.873499 72.8133 1.26897 70.6437 1.60951 68.4632C3.26279 57.7635 4.87214 47.0584 6.54739 36.3587C7.11313 32.7556 10.1341 30.4926 13.7812 30.7892C17.1097 31.0583 19.6693 33.8816 19.6418 37.4353C19.5814 45.4271 19.4715 53.4134 19.3287 61.4051C19.3123 62.2949 19.5704 62.6849 20.4053 62.998C25.7332 64.9753 31.028 67.0571 36.3614 69.0234C39.5911 70.2153 41.7552 72.3574 42.9361 75.5981C44.2873 79.3111 45.7538 82.9802 47.1599 86.6767C47.7861 88.319 47.451 89.088 45.8252 89.6867C39.0033 92.2133 32.176 94.7179 25.3597 97.2555C24.4918 97.5796 23.7393 97.5302 22.9319 97.0798C17.7633 94.2126 12.5563 91.4114 7.40424 88.5113C3.78459 86.479 1.60402 83.3372 0.741676 79.2782C0.675764 78.9596 0.582389 78.641 0.505493 78.3224C0.505493 77.2129 0.505493 76.1034 0.505493 74.9939L0.5 74.9884ZM43.4084 86.7811C42.0627 83.2768 40.7445 79.8769 39.4537 76.4659C38.7122 74.5051 37.3885 73.1978 35.4222 72.4783C33.4119 71.7478 31.418 70.9568 29.4187 70.1988C25.5189 68.7158 21.6356 67.1944 17.7139 65.7718C14.0668 64.448 10.59 67.3207 11.1612 71.1601C11.4688 73.2308 12.8035 74.4611 14.7094 75.1807C19.7187 77.0701 24.7225 78.9706 29.7208 80.882C30.8962 81.3324 31.3631 82.2332 31.0061 83.2109C30.6381 84.216 29.6878 84.6609 28.5454 84.2325C23.1571 82.1947 17.7524 80.2064 12.419 78.0423C9.13991 76.7131 7.11862 73.077 7.47564 69.7265C7.89308 65.8267 10.4526 62.8772 14.1217 62.0807C14.6545 61.9654 15.1873 61.883 15.6926 61.7951C15.7366 61.6578 15.775 61.5919 15.775 61.5205C15.8849 53.4957 16.0057 45.471 16.0936 37.4463C16.1101 35.6722 14.9291 34.4143 13.3033 34.3155C11.5841 34.2111 10.3263 35.2657 10.0407 37.1002C8.12377 49.4751 6.19037 61.8555 4.30639 74.2359C3.52095 79.41 5.26211 83.2713 9.25525 85.4684C14.0448 88.1103 18.8289 90.7523 23.6405 93.3448C24.0799 93.581 24.7884 93.6249 25.2608 93.4546C29.9185 91.7849 34.5543 90.0547 39.1901 88.3355C40.5688 87.8247 41.9419 87.3194 43.4029 86.7811H43.4084Z" fill="#0E2B72"/>
<path d="M99.9668 78.3175C99.7636 79.0975 99.5823 79.8884 99.3461 80.6574C98.2751 84.1397 96.1439 86.7927 92.9637 88.5613C87.894 91.379 82.7913 94.1418 77.7271 96.965C76.7714 97.4978 75.9146 97.5637 74.8929 97.1792C68.1864 94.6581 61.4689 92.1809 54.7515 89.6928C52.9773 89.0336 52.6588 88.3526 53.3453 86.5565C54.7954 82.7611 56.2674 78.9766 57.7065 75.1757C58.805 72.2701 60.8043 70.2928 63.7044 69.1943C69.1257 67.14 74.5304 65.0418 79.9681 63.0315C80.9019 62.6855 81.16 62.2516 81.1381 61.2849C80.9953 53.4414 80.9074 45.6034 80.814 37.7599C80.7755 34.5193 82.4728 32.0037 85.2795 31.0644C89.1793 29.7627 93.2658 32.2014 93.9194 36.3538C95.3805 45.5869 96.7701 54.831 98.1817 64.0751C98.72 67.5794 99.2473 71.0892 99.7855 74.5935C99.8075 74.7308 99.9009 74.8517 99.9613 74.9835C99.9613 76.093 99.9613 77.2025 99.9613 78.312L99.9668 78.3175ZM84.7412 61.7847C84.9005 61.8286 85.0049 61.8671 85.1092 61.8781C89.4429 62.3889 92.3815 65.1956 92.9362 69.3645C93.458 73.2643 91.239 76.818 87.2623 78.3834C84.5819 79.438 81.8796 80.4377 79.1882 81.4648C76.8044 82.3711 74.4371 83.3048 72.0423 84.1782C70.4988 84.7439 69.0103 83.6948 69.4772 82.3217C69.6859 81.701 70.3945 81.0584 71.0261 80.8057C75.9365 78.8668 80.8854 77.0158 85.8288 75.1538C87.3228 74.5935 88.5037 73.6872 89.0529 72.1603C89.7505 70.2214 89.4484 68.4033 87.9819 66.9258C86.4549 65.3879 84.6094 65.0363 82.5716 65.8108C76.7714 68.0188 70.9877 70.2543 65.171 72.4184C63.0838 73.1984 61.7051 74.5551 60.9362 76.6368C59.7992 79.7182 58.5908 82.7775 57.4154 85.8479C57.3 86.1445 57.2286 86.4521 57.1243 86.7927C63.3419 89.0886 69.4662 91.3625 75.607 93.5925C75.9475 93.7134 76.4748 93.5541 76.8263 93.3618C81.6599 90.7309 86.4934 88.0834 91.3049 85.4085C94.985 83.3598 96.9459 79.2293 96.3032 75.0933C95.2157 68.0793 94.1501 61.0652 93.0735 54.0511C92.2002 48.3882 91.3269 42.7253 90.4371 37.0679C90.1515 35.2553 88.8552 34.2062 87.136 34.327C85.4113 34.4534 84.3567 35.7661 84.3842 37.8313C84.4776 45.5265 84.5819 53.2217 84.6863 60.9169C84.6863 61.2025 84.7302 61.4936 84.7577 61.7737L84.7412 61.7847Z" fill="#0E2B72"/>
<path d="M50.4564 0.832641C57.2673 3.57346 64.0782 6.31429 70.889 9.04962C72.7071 9.78014 74.5087 10.5436 76.3432 11.2247C77.3429 11.5982 77.8647 12.2024 78.0844 13.2789C82.1379 33.4918 70.175 55.1987 50.9178 62.4819C50.5223 62.6302 49.9566 62.6412 49.5721 62.4764C32.7702 55.0998 23.4656 42.291 21.7739 24.0006C21.4389 20.3699 21.7904 16.7668 22.4166 13.1801C22.5923 12.1804 23.1196 11.6312 24.0204 11.2686C32.5999 7.86321 41.1739 4.43581 49.7479 1.0139C49.8468 0.975449 49.9237 0.89306 50.0115 0.827148C50.1598 0.827148 50.3081 0.827148 50.4564 0.827148V0.832641ZM25.1464 20.8917C25.2233 22.1715 25.2453 23.0943 25.3331 24.017C26.8656 40.083 34.9123 51.6285 49.4348 58.6426C49.8797 58.8568 50.5992 58.8458 51.0551 58.6426C57.7232 55.6711 63.1938 51.1781 67.4232 45.2406C73.7562 36.348 76.4805 26.5052 74.8822 15.5968C74.7833 14.9377 74.7064 14.372 73.91 14.0589C66.2532 11.038 58.6185 7.95658 50.9618 4.93014C50.5388 4.76537 49.9346 4.76537 49.5117 4.93014C41.9209 7.92912 34.3575 10.983 26.7667 13.982C26.0032 14.2841 25.6627 14.707 25.6078 15.498C25.465 17.4149 25.2837 19.3263 25.1464 20.8972V20.8917Z" fill="#0E2B72"/>
<path d="M35.5313 32.0253C35.5203 23.5777 41.7984 17.2502 50.2021 17.2337C58.6168 17.2172 64.9004 23.4953 64.9388 31.9539C64.9718 39.9787 58.3257 46.5698 50.2131 46.5643C42.1554 46.5588 35.5422 40.0006 35.5313 32.0198V32.0253ZM39.085 31.7342C39.0685 38.1002 43.8361 42.9172 50.1966 42.9557C56.5186 42.9941 61.3411 38.1881 61.3851 31.8111C61.4235 25.7143 56.3648 20.6776 50.2186 20.694C44.0943 20.716 39.107 25.6649 39.0905 31.7342H39.085Z" fill="#FFB400"/>
<path d="M48.9836 33.4861C50.6918 31.1627 52.2462 28.9601 53.9105 26.851C54.3169 26.3401 55.0859 25.8403 55.7011 25.8238C57.1127 25.7744 57.7828 27.4332 56.904 28.68C55.5198 30.6409 54.0808 32.5578 52.6582 34.4912C52.0265 35.3535 51.4113 36.2324 50.7467 37.0727C49.8624 38.1877 48.8408 38.2646 47.8137 37.2705C46.4625 35.9632 45.1333 34.6285 43.8205 33.2773C42.9527 32.3875 42.9252 31.3824 43.6832 30.6299C44.4137 29.9049 45.4628 29.9488 46.3307 30.7947C47.204 31.6405 48.0334 32.5248 48.9836 33.4915V33.4861Z" fill="#FFB400"/>
</svg>
