<svg width="90" height="90" viewBox="0 0 90 90" fill="none" xmlns="http://www.w3.org/2000/svg">
<path d="M0.738281 21.6208C1.40056 19.6168 2.65889 18.2398 4.76291 17.7928C5.64934 17.6078 6.55615 17.7054 7.44768 17.7157C8.00807 17.726 8.42582 17.5564 8.84866 17.1762C14.7226 11.9249 20.6118 6.69409 26.4908 1.44792C27.1887 0.826186 27.8816 0.913536 28.6508 1.30404C35.2533 4.64392 41.8557 7.97352 48.4632 11.3031C51.8307 13.0039 55.1981 14.6995 58.5656 16.4003C58.8763 16.5544 59.1973 16.7086 59.4673 16.9193C60.0684 17.3868 60.2314 18.0188 59.9258 18.7125C59.615 19.4216 59.0037 19.6785 58.2752 19.5192C57.888 19.437 57.5212 19.2315 57.1595 19.0465C49.3599 15.1157 41.5653 11.1849 33.7657 7.25416C33.4906 7.11543 33.2461 6.88935 32.8181 6.92531C33.0474 7.24389 33.2359 7.52649 33.4346 7.79882C35.5946 10.6917 37.7597 13.5845 39.9147 16.4774C40.1236 16.7548 40.3427 17.0323 40.5108 17.3355C40.9132 18.0548 40.7451 18.8307 40.1236 19.2829C39.5174 19.7247 38.6971 19.6374 38.152 19.0619C37.9534 18.8512 37.7903 18.6097 37.612 18.3734C34.9986 14.8742 32.3851 11.3751 29.7665 7.87589C29.6137 7.67036 29.4456 7.47511 29.2673 7.25416C28.982 7.5676 29.1043 7.90158 29.1043 8.1996C29.0941 11.2672 29.0992 14.3347 29.0941 17.4022C29.0941 17.7208 29.1094 18.0548 29.038 18.3631C28.8648 19.0979 28.3961 19.5295 27.6269 19.55C26.8933 19.5706 26.4348 19.1852 26.1953 18.507C26.0629 18.137 26.0781 17.7568 26.0781 17.3817C26.0781 13.9339 26.0781 10.4861 26.0781 7.03835C26.0781 6.72492 26.0781 6.41662 26.0781 5.836C21.5797 9.83357 17.2698 13.6616 12.9599 17.4896C13.1178 17.8236 13.3827 17.69 13.5814 17.69C14.855 17.7054 16.1286 17.69 17.4074 17.7003C19.6795 17.7311 21.6052 19.1184 22.2064 21.3073C22.4305 22.1192 22.8126 22.2631 23.5462 22.2631C40.9846 22.2476 58.4229 22.2836 75.8613 22.2271C79.8706 22.2117 83.3705 23.3729 86.4221 25.9677C87.0436 26.497 87.6804 27.0005 88.3071 27.5144C89.6367 28.6088 90.0901 30.027 89.6265 31.6661C89.1527 33.3463 88.0065 34.3226 86.2489 34.4819C85.6732 34.5332 85.0924 34.5743 84.5168 34.5743C64.2968 34.5743 44.082 34.5846 23.8621 34.5589C22.8992 34.5589 22.405 34.7593 22.0739 35.7818C21.4626 37.6522 20.0259 38.8186 18.0849 38.9778C14.0145 39.3067 9.9236 39.1423 5.84293 39.0755C3.21419 39.0344 1.53302 37.6111 0.738281 35.1036V21.6054V21.6208ZM54.4441 31.5582C64.6127 31.5582 74.7761 31.5582 84.9447 31.5582C85.2351 31.5582 85.5255 31.5582 85.8159 31.553C86.2591 31.5428 86.5851 31.3578 86.7685 30.9262C86.9672 30.4586 86.7533 30.1246 86.4323 29.8471C85.9076 29.3898 85.3319 28.9839 84.8173 28.5163C82.1631 26.0962 79.0198 25.1662 75.4843 25.1713C58.3363 25.2021 41.1934 25.1867 24.0455 25.1867C23.7856 25.1867 23.5207 25.2073 23.266 25.1867C22.6954 25.1353 22.5018 25.3974 22.512 25.9575C22.5324 27.3602 22.5171 28.763 22.5171 30.1657C22.5171 31.0975 22.9654 31.5633 23.8621 31.5633C34.0561 31.5633 44.2501 31.5633 54.4492 31.5633L54.4441 31.5582ZM11.5946 20.737C9.71473 20.737 7.83487 20.7216 5.95501 20.737C4.42667 20.7524 3.59628 21.5797 3.59119 23.1263C3.57081 26.6254 3.57081 30.1297 3.59119 33.6289C3.60137 35.2475 4.47762 36.1004 6.08747 36.1004C9.73511 36.1107 13.3776 36.1107 17.0253 36.1004C18.6657 36.1004 19.4757 35.2475 19.4757 33.6135C19.4757 30.1143 19.4757 26.61 19.4757 23.1109C19.4757 21.5077 18.7574 20.7524 17.1526 20.7318C15.3033 20.7113 13.449 20.7318 11.5997 20.7318L11.5946 20.737Z" fill="#0E2B72"/>
<path d="M0.737289 87.7041C1.2824 87.0927 1.97014 86.9385 2.76998 86.9385C10.157 86.9591 17.5439 86.9488 24.9258 86.9488C26.0772 86.9488 26.0823 86.9488 26.0823 85.7927C26.0823 70.3984 26.0823 55.0042 26.0823 39.6048C26.0823 39.168 26.0364 38.7261 26.1791 38.2996C26.4134 37.5803 26.8923 37.1641 27.6564 37.1846C28.39 37.2052 28.8384 37.642 29.0116 38.3305C29.1033 38.6902 29.0982 39.0807 29.0982 39.4609C29.1033 42.2356 29.0982 45.0051 29.0982 48.0418C29.5771 47.4972 29.9082 47.1323 30.2292 46.7521C31.2073 45.596 32.1651 44.4245 33.1534 43.2786C33.5457 42.8265 33.5915 42.4668 33.1534 41.9992C32.4809 41.2747 31.8645 40.4988 31.243 39.7281C30.6061 38.9317 30.6673 38.0427 31.3703 37.4827C32.0224 36.9637 32.8834 37.0922 33.5253 37.8269C34.0398 38.4178 34.5798 38.9985 35.0332 39.6356C35.5121 40.3036 35.8229 40.17 36.2406 39.5791C36.6584 38.9882 37.1525 38.4487 37.6365 37.904C38.3803 37.0665 39.2361 36.9431 39.9137 37.5443C40.5556 38.1198 40.5709 38.9882 39.9137 39.8103C39.2769 40.6067 38.6095 41.3775 37.9575 42.1585C37.7741 42.3794 37.5448 42.6055 37.8097 42.919C39.1496 44.5221 40.4894 46.1252 41.8343 47.7387C42.2113 47.4201 42.0738 47.0758 42.0789 46.7829C42.089 44.4142 42.084 42.0506 42.0891 39.6818C42.0891 39.389 42.084 39.0961 42.1095 38.8083C42.2113 37.7755 42.8278 37.1384 43.6785 37.1692C44.5395 37.2001 45.0846 37.8526 45.0897 38.9317C45.0999 43.3711 45.0999 47.8106 45.0999 52.2552C45.0999 63.4155 45.0999 74.5759 45.0948 85.7362C45.0948 86.5377 45.4905 86.9402 46.2818 86.9437C59.1402 86.9437 72.0038 86.9437 84.8622 86.9437C85.0915 86.9437 85.3258 86.9437 85.555 86.9437C86.6911 86.9539 87.3025 87.3085 87.4757 88.0638C87.6693 88.9219 87.3075 89.482 86.2326 89.9753C57.9889 89.9753 29.7452 89.9752 1.50146 89.9907C0.844273 89.9907 0.630296 89.8365 0.711808 89.184C0.772941 88.6958 0.722006 88.1923 0.722006 87.699L0.737289 87.7041ZM35.8483 45.1181C35.3695 45.1336 35.2828 45.3853 35.1402 45.5549C33.622 47.3533 32.1447 49.1928 30.5807 50.9501C30.0356 51.5667 30.1629 51.9366 30.6265 52.4761C32.1447 54.2386 33.6425 56.0164 35.1046 57.8251C35.5376 58.3646 35.777 58.2567 36.154 57.8045C37.7078 55.9188 39.2718 54.0433 40.8562 52.1884C41.2077 51.7773 41.1109 51.4947 40.8052 51.1351C39.2311 49.2699 37.6671 47.3944 36.1031 45.5189C35.9757 45.3648 35.884 45.1747 35.8483 45.1181ZM35.5528 63.2048C35.4153 63.3487 35.2523 63.5131 35.1046 63.6878C33.5711 65.5119 32.0632 67.3566 30.5042 69.155C30.0916 69.6277 30.0814 69.9309 30.489 70.4036C32.0428 72.2071 33.5711 74.0363 35.0791 75.881C35.4713 76.364 35.7312 76.4102 36.1438 75.9118C37.6925 74.0261 39.2565 72.1557 40.846 70.3059C41.2383 69.8486 41.0804 69.5506 40.7696 69.1807C39.1954 67.3155 37.6314 65.44 36.0623 63.5748C35.9349 63.4258 35.8381 63.2254 35.5528 63.21V63.2048ZM30.8558 86.8615H40.3977C39.1343 85.3508 37.9575 83.9481 36.7908 82.5402C36.0267 81.6153 35.2489 81.6187 34.4576 82.5504C34.3811 82.6378 34.3047 82.7251 34.2283 82.8125C33.1381 84.1228 32.0479 85.4279 30.8558 86.8615ZM29.1746 55.3536V66.1028C30.6673 64.325 32.0224 62.7116 33.3775 61.093C33.617 60.8053 33.4998 60.5484 33.3011 60.312C31.9664 58.7089 30.6316 57.1109 29.1746 55.3587V55.3536ZM29.144 83.9172C29.2052 83.9481 29.2663 83.9789 29.3274 84.0149C30.4075 82.7303 31.4824 81.4509 32.5675 80.1714C33.3181 79.2842 33.3096 78.3884 32.542 77.4841C32.3943 77.3094 32.2517 77.1244 32.1039 76.9446C31.1563 75.8244 30.2139 74.7094 29.1491 73.4506V83.9224L29.144 83.9172ZM42.0177 84.1279V73.5328C40.5352 75.2952 39.1954 76.8932 37.8505 78.4861C37.6416 78.7327 37.6773 78.9639 37.8709 79.19C39.2107 80.7829 40.5505 82.3809 42.0177 84.1279ZM42.0279 66.0515V55.6773C41.9006 55.7081 41.8241 55.7081 41.7936 55.7389C40.4792 57.2907 39.1699 58.8476 37.8556 60.3994C37.6823 60.6049 37.6569 60.8104 37.8352 61.0262C39.1903 62.6499 40.5403 64.2736 42.0279 66.0515Z" fill="#0E2B72"/>
<path d="M73.3497 68.8106C70.3338 68.8209 67.7866 66.3391 67.6949 63.2972C67.6694 62.4237 68.24 61.7198 69.0398 61.6375C69.8601 61.5553 70.5172 62.1565 70.6497 63.1174C70.884 64.7668 71.8316 65.7327 73.2479 65.7584C74.5164 65.779 75.469 65.1213 75.8409 63.9703C76.2332 62.7423 75.7951 61.5091 74.6336 60.7949C73.8083 60.2862 72.8709 59.8135 72.5448 58.8937C72.0914 57.6091 71.2865 57.27 70.0333 57.1827C68.7291 57.0902 67.6338 56.3657 66.8085 55.3072C65.9067 54.1459 65.2954 52.8151 64.7758 51.4535C64.3428 50.3179 64.6637 49.2338 65.6673 48.6069C66.2888 48.2215 66.2735 47.8002 66.1564 47.2298C65.6113 44.6042 65.0865 41.9734 64.5465 39.3426C64.3937 38.6078 64.4345 37.9347 65.0916 37.4517C66.0035 36.7889 67.1549 37.3181 67.4249 38.577C67.8936 40.7453 68.3011 42.924 68.7444 45.0923C68.9023 45.8631 69.0908 46.6287 69.2232 47.4045C69.3048 47.8721 69.5391 48.0468 69.9874 48.0417C72.2188 48.0365 74.4451 48.0263 76.6764 48.0468C77.2725 48.052 77.3948 47.6769 77.4814 47.2247C78.0112 44.5939 78.5359 41.9631 79.0658 39.3323C79.1371 38.988 79.188 38.6386 79.2899 38.3047C79.5293 37.4928 80.263 37.0304 81.0169 37.1897C81.7658 37.3438 82.3058 38.0632 82.1581 38.9007C81.8677 40.5963 81.5009 42.2765 81.1647 43.967C80.9303 45.1386 80.7062 46.3152 80.4514 47.4816C80.3495 47.9441 80.4565 48.2215 80.8692 48.499C82.0002 49.2646 82.3364 50.3539 81.832 51.6231C81.3837 52.7638 80.8539 53.8736 80.1763 54.8961C79.2542 56.2783 77.9348 57.0542 76.2842 57.2546C75.9581 57.2957 75.4538 57.1416 75.3774 57.5321C75.306 57.902 75.8155 58.0099 76.1008 58.1795C78.3882 59.572 79.4376 62.1257 78.7448 64.6383C78.0672 67.0893 75.8562 68.7952 73.3447 68.8054L73.3497 68.8106ZM73.3039 54.3412C73.7675 54.3412 74.2311 54.3001 74.6896 54.3515C76.544 54.5519 77.7106 53.7195 78.3831 52.0033C78.7244 51.1298 78.7703 51.1298 77.8584 51.1298C75.9785 51.1246 74.0987 51.1298 72.2239 51.1298C71.0114 51.1298 69.7938 51.1195 68.5813 51.1401C68.3725 51.1401 68.0057 50.9859 68.0566 51.474C68.2095 52.9025 69.6919 54.3001 71.1388 54.3412C71.8622 54.3618 72.5856 54.3412 73.3039 54.3412Z" fill="#FFB400"/>
</svg>
