<svg width="103" height="99" viewBox="0 0 103 99" fill="none" xmlns="http://www.w3.org/2000/svg">
<path d="M91.4305 0.205807C91.458 0.749578 91.502 1.29335 91.502 1.83712C91.502 15.9642 91.5129 30.0857 91.4855 44.2128C91.4855 45.163 91.7326 45.8606 92.4357 46.5087C93.688 47.6731 94.836 48.9474 96.0883 50.1119C96.7035 50.6886 96.6815 51.139 96.2091 51.7761C95.0611 53.325 93.9846 54.9289 92.8421 56.4833C92.4027 57.0765 92.3039 57.5873 92.6664 58.2739C93.1223 59.1417 93.5342 60.048 93.8143 60.9818C94.056 61.7837 94.5338 62.0638 95.2918 62.1737C97.1593 62.4483 99.0214 62.7943 100.894 63.069C101.658 63.1843 102.031 63.4754 102.015 64.3323C101.971 67.0237 101.965 69.7206 102.015 72.4119C102.031 73.2798 101.63 73.5489 100.878 73.6588C99.0104 73.9389 97.1484 74.2794 95.2754 74.5541C94.5119 74.6639 94.0395 74.9605 93.8088 75.757C93.5562 76.6248 93.2046 77.4871 92.7542 78.2671C92.2764 79.102 92.4247 79.7116 92.9739 80.4367C94.1164 81.9472 95.16 83.529 96.2805 85.0505C96.7089 85.6327 96.6705 86.0392 96.1542 86.5445C94.2263 88.4285 92.3203 90.3289 90.4418 92.2623C89.9036 92.8171 89.4971 92.872 88.8655 92.3941C87.2671 91.1858 85.6083 90.0598 84.0045 88.8624C83.4717 88.4614 83.0378 88.3955 82.4226 88.7141C81.5218 89.1809 80.5771 89.5984 79.6049 89.8895C78.803 90.1312 78.5173 90.62 78.402 91.367C78.1164 93.2345 77.7703 95.0965 77.5067 96.9695C77.3913 97.8044 77.0453 98.1559 76.1665 98.1449C73.5465 98.101 70.9211 98.09 68.3011 98.1449C67.3399 98.1669 67.0323 97.7385 66.9059 96.8981C66.6313 95.0306 66.2853 93.1686 66.0106 91.2956C65.9008 90.5596 65.5822 90.1202 64.8517 89.9005C64.1212 89.6808 63.3522 89.4611 62.7315 89.0436C61.5396 88.2362 60.6498 88.5822 59.6447 89.4006C58.321 90.4772 56.8654 91.3945 55.4977 92.4216C54.921 92.8555 54.5146 92.8116 54.0037 92.2953C52.1198 90.3673 50.2193 88.4614 48.2859 86.5829C47.7311 86.0447 47.6762 85.6272 48.1431 85.0011C49.2526 83.5125 50.2633 81.9526 51.3892 80.4751C51.966 79.7226 52.1252 79.08 51.6199 78.2122C51.1695 77.4322 50.818 76.5699 50.5654 75.702C50.3456 74.944 49.8897 74.6584 49.1757 74.5541C47.3082 74.2684 45.4462 73.9224 43.5732 73.6588C42.6834 73.5379 42.3593 73.1589 42.3758 72.2417C42.4088 69.9293 42.7219 70.1819 40.2722 70.1819C27.4908 70.1764 14.7149 70.1819 1.93357 70.1764C1.4612 70.1764 0.988832 70.127 0.521958 70.105C0.521958 47.1074 0.527463 24.1097 0.5 1.11209C0.5 0.304675 0.692237 0.172852 1.45571 0.172852C31.44 0.194822 61.4243 0.194822 91.4141 0.194822L91.4305 0.205807ZM46.0614 24.7524C32.522 24.7524 18.9772 24.7634 5.43787 24.7304C4.38329 24.7304 4.0867 25.0325 4.0867 26.0816C4.11966 39.1486 4.11966 52.2155 4.0867 65.2825C4.0867 66.3096 4.41077 66.5623 5.39395 66.5623C17.2965 66.5348 29.199 66.5293 41.1016 66.5623C42.1726 66.5623 42.5735 66.2327 42.4252 65.1946C42.3978 65.0189 42.4472 64.8266 42.4197 64.6508C42.2495 63.5688 42.7877 63.1843 43.7984 63.0525C45.6384 62.8108 47.4565 62.4593 49.291 62.1792C49.9721 62.0748 50.3896 61.7837 50.6203 61.0971C50.9553 60.0975 51.3618 59.1198 51.8396 58.1805C52.1472 57.5708 52.0978 57.1314 51.6968 56.5986C50.4994 54.9948 49.368 53.3415 48.1706 51.7377C47.7202 51.1335 47.6982 50.7106 48.2749 50.1558C50.2083 48.2828 52.1143 46.3769 53.9873 44.4435C54.542 43.8722 54.9704 43.8942 55.5691 44.3391C57.0027 45.3992 58.5132 46.3604 59.9138 47.4589C60.7542 48.118 61.4792 48.3267 62.4569 47.739C63.1984 47.2941 64.0333 46.9701 64.8682 46.7394C65.6426 46.5252 65.8843 46.0363 65.9941 45.3333C66.2852 43.4658 66.6203 41.6038 66.8894 39.7363C67.0048 38.9179 67.3289 38.5499 68.2187 38.5663C70.8387 38.6158 73.4586 38.6213 76.0786 38.5663C77.0014 38.5444 77.3749 38.8739 77.4957 39.7637C77.7539 41.6367 78.0889 43.4987 78.3965 45.3607C78.4844 45.899 78.5832 46.4043 79.2314 46.6405C80.5606 47.1239 81.8843 48.1235 83.1751 48.0741C84.5318 48.0192 85.5479 46.5197 86.7892 45.7782C87.6626 45.2619 87.8658 44.5698 87.8603 43.6031C87.8219 37.8139 87.8438 32.0301 87.8438 26.2409C87.8438 25.2522 87.344 24.756 86.3444 24.7524C72.9094 24.7524 59.4799 24.7524 46.0449 24.7524H46.0614ZM45.9845 21.1053C59.5239 21.1053 73.0632 21.0998 86.6025 21.1217C87.5198 21.1217 87.8877 20.9185 87.8768 19.9189C87.8328 14.9316 87.8383 9.94974 87.8768 4.96243C87.8823 4.07811 87.6351 3.76503 86.7123 3.76503C59.5622 3.787 32.4122 3.787 5.25664 3.76503C4.32289 3.76503 4.09217 4.09459 4.09767 4.96792C4.13062 9.84538 4.11416 14.7228 4.11416 19.6003C4.11416 20.6036 4.60667 21.1053 5.59168 21.1053C19.0596 21.1053 32.522 21.1053 45.9899 21.1053H45.9845ZM61.1497 84.1167C61.3144 84.1936 61.5232 84.265 61.7044 84.3749C63.7971 85.6712 66.0271 86.6214 68.4438 87.1157C68.9546 87.2201 69.1359 87.5606 69.2128 88.0385C69.4105 89.3347 69.6193 90.6255 69.8665 91.9108C70.4487 94.9757 69.7841 94.4154 72.8929 94.5308C73.92 94.5692 74.2057 94.1298 74.332 93.229C74.5682 91.4988 74.9142 89.7851 75.1778 88.0604C75.2602 87.5222 75.4964 87.2091 76.0402 87.0992C78.391 86.6324 80.5606 85.7096 82.5709 84.4353C83.1367 84.0728 83.5926 84.0563 84.1473 84.4847C85.0646 85.1988 86.0422 85.8414 86.987 86.5225C89.3708 88.2472 89.3598 88.2362 91.425 86.0831C91.8645 85.6272 91.9249 85.3086 91.5349 84.7868C90.4254 83.2983 89.3872 81.7549 88.2942 80.2609C87.9207 79.7446 87.8988 79.3162 88.2448 78.7779C89.5246 76.7621 90.4528 74.598 90.9307 72.2527C91.0515 71.654 91.3866 71.4178 91.9688 71.3354C93.2266 71.1596 94.4844 70.9344 95.7367 70.7037C98.8401 70.127 98.2469 70.7422 98.3677 67.6828C98.4062 66.6666 97.9887 66.3591 97.0769 66.2327C95.3467 65.9965 93.6331 65.6505 91.9084 65.3869C91.3646 65.3045 91.0515 65.0683 90.9417 64.5245C90.4638 62.1407 89.5081 59.9492 88.2173 57.8949C87.8987 57.3896 87.9208 56.9776 88.2723 56.5053C88.9863 55.5386 89.6619 54.5444 90.3594 53.5667C92.0786 51.1829 92.0677 51.1994 89.9146 49.1287C89.4532 48.6893 89.1346 48.6398 88.6183 49.0243C87.1298 50.1338 85.5918 51.1774 84.0978 52.2814C83.587 52.6604 83.1586 52.6934 82.6203 52.3419C80.621 51.0291 78.4404 50.1338 76.0951 49.656C75.5019 49.5351 75.2493 49.222 75.1614 48.6343C74.9801 47.3765 74.7604 46.1187 74.5242 44.8719C73.9365 41.7301 74.6121 42.3178 71.4319 42.208C70.4597 42.175 70.185 42.6144 70.0642 43.4548C69.8225 45.1465 69.471 46.8218 69.2403 48.5135C69.1359 49.266 68.7844 49.5516 68.0704 49.6889C66.7796 49.9306 65.5712 50.4524 64.3408 50.9083C63.0995 51.3697 62.0889 52.8307 60.7706 52.4462C59.5458 52.0947 58.5242 51.0126 57.4256 50.2272C55.0144 48.5025 55.0364 48.5135 52.9821 50.6117C52.4988 51.106 52.4768 51.4466 52.8887 51.9958C53.9818 53.4514 54.9924 54.9673 56.0854 56.4229C56.4974 56.9776 56.5084 57.4225 56.1404 57.9938C54.8606 59.9656 53.9598 62.1078 53.4874 64.4147C53.3556 65.0573 53.0095 65.31 52.3834 65.3979C51.1585 65.5681 49.9447 65.7878 48.7253 66.0185C45.5671 66.6117 46.1328 65.9196 46.0284 69.0834C45.9955 70.0336 46.3799 70.3577 47.2423 70.484C48.967 70.7312 50.6807 71.0662 52.4109 71.3299C52.9876 71.4178 53.3391 71.643 53.4545 72.2417C53.9159 74.5925 54.8606 76.7511 56.1404 78.7669C56.5139 79.3546 56.4644 79.805 56.0525 80.3378C55.3439 81.2606 54.7013 82.2328 54.0202 83.1775C52.334 85.5229 52.3505 85.5009 54.4102 87.5386C54.943 88.0659 55.3164 88.0714 55.8877 87.6375C57.2828 86.5884 58.7164 85.5888 60.1445 84.5781C60.4356 84.3694 60.7103 84.1112 61.1497 84.1003V84.1167Z" fill="#0E2B72"/>
<path d="M21.5029 35.2322C19.5036 35.2322 17.5043 35.2047 15.505 35.2431C14.6976 35.2596 14.4229 34.9575 14.4339 34.1611C14.4943 31.0962 14.0879 31.618 16.9385 31.5905C20.3934 31.5576 23.8483 31.618 27.3032 31.5631C28.3138 31.5466 28.6269 31.8816 28.5994 32.8703C28.517 35.5947 28.885 35.1937 26.3035 35.2267C24.7051 35.2431 23.1013 35.2267 21.5029 35.2267V35.2322Z" fill="#0E2B72"/>
<path d="M21.4212 42.2243C19.4603 42.2243 17.4939 42.2024 15.5331 42.2353C14.7531 42.2518 14.4236 41.9991 14.44 41.1807C14.5005 38.0829 14.0995 38.6102 16.9227 38.5882C20.4105 38.5553 23.9038 38.6047 27.3971 38.5663C28.276 38.5553 28.6275 38.8134 28.6056 39.7362C28.5287 42.6747 28.9406 42.1804 26.1174 42.2243C24.552 42.2463 22.9921 42.2243 21.4267 42.2243H21.4212Z" fill="#0E2B72"/>
<path d="M21.6321 45.5693C23.593 45.5693 25.5594 45.5967 27.5202 45.5583C28.3222 45.5418 28.6078 45.8329 28.5968 46.6348C28.5364 49.7052 28.9373 49.1834 26.0976 49.2109C22.6427 49.2438 19.1879 49.1889 15.733 49.2383C14.7333 49.2548 14.4038 48.9362 14.4313 47.9366C14.5191 45.1848 14.1237 45.6077 16.8315 45.5748C18.4299 45.5528 20.0337 45.5748 21.6321 45.5748V45.5693Z" fill="#0E2B72"/>
<path d="M18.0924 12.4107C18.1033 14.4649 16.5764 16.0028 14.5276 16.0028C12.5558 16.0028 10.9849 14.4704 10.9574 12.515C10.9299 10.4388 12.4185 8.88988 14.4672 8.86791C16.4995 8.84594 18.0869 10.3949 18.0924 12.4107Z" fill="#0E2B72"/>
<path d="M25.0136 8.87305C27.0349 8.87305 28.5893 10.4494 28.5783 12.4762C28.5673 14.4755 27.0568 15.9915 25.0575 16.008C23.0307 16.0245 21.4489 14.47 21.4434 12.4542C21.4434 10.389 22.9538 8.87305 25.0136 8.87305Z" fill="#0E2B72"/>
<path d="M39.065 12.4214C39.0705 14.4757 37.538 16.0081 35.4893 16.0081C33.5174 16.0081 31.952 14.4647 31.9301 12.5093C31.9026 10.4386 33.3966 8.89515 35.4454 8.87318C37.4776 8.8567 39.0595 10.4056 39.065 12.4214Z" fill="#0E2B72"/>
<path d="M84.516 68.4571C84.5105 75.257 79.0454 80.6782 72.1961 80.6727C65.3028 80.6727 59.8926 75.235 59.8926 68.3253C59.8926 61.454 65.3578 56.0382 72.2675 56.0547C79.1388 56.0712 84.5215 61.5199 84.516 68.4571ZM63.5507 68.3363C63.5122 72.9281 67.4285 76.9212 72.0643 77.0146C76.7879 77.108 80.869 73.0599 80.858 68.2813C80.847 63.695 76.8648 59.7403 72.2345 59.7128C67.5932 59.6854 63.5891 63.662 63.5507 68.3363Z" fill="#FFB400"/>
</svg>
