<svg width="90" height="90" viewBox="0 0 90 90" fill="none" xmlns="http://www.w3.org/2000/svg">
<path d="M48.0287 89.7652C47.1579 89.4347 46.3186 89.0571 45.6839 88.3384C44.3148 86.7962 44.063 84.7923 45.1016 82.8514C46.8222 79.6358 48.59 76.4465 50.3368 73.2466C50.9191 72.1765 50.9138 72.187 49.8804 71.6152C46.156 69.5589 42.4211 67.5288 38.7281 65.4148C37.658 64.8011 36.7872 64.7381 35.6804 65.3676C30.4662 68.3209 25.2048 71.1851 19.9801 74.1069C18.5533 74.9042 17.1212 75.3449 15.5108 74.7206C13.423 73.9128 12.2742 71.8198 12.6414 69.5484C13.722 62.9021 14.7816 56.2506 15.8832 49.6044C16.0301 48.7231 15.7731 48.1093 15.1803 47.5113C11.7759 44.0439 8.38192 40.5556 4.98797 37.0724C3.7972 35.8502 2.61168 34.6227 1.42616 33.39C0.109492 32.0209 -0.341636 30.4052 0.266862 28.5954C0.87536 26.7804 2.23923 25.7785 4.10145 25.49C10.2704 24.5353 16.4445 23.5911 22.6187 22.6836C23.6783 22.5262 24.3025 22.0541 24.7537 21.0731C27.4499 15.2137 30.1829 9.3648 32.9422 3.53161C34.3113 0.636001 37.6895 -0.140358 40.0658 1.81103C40.711 2.34084 41.1149 3.03852 41.4611 3.77816C44.1784 9.56938 46.9061 15.3501 49.5919 21.1571C50.0483 22.1485 50.7145 22.5419 51.7689 22.6941C57.2296 23.4861 62.6851 24.3517 68.1406 25.191C68.9694 25.3169 69.8035 25.4166 70.6218 25.6002C74.0158 26.3608 75.3901 30.08 73.3129 32.8654C73.1083 33.1434 72.867 33.4005 72.6257 33.647C68.1668 38.2317 63.7185 42.8269 59.2335 47.3907C58.5148 48.1198 58.2263 48.828 58.4414 49.8614C58.8296 51.7551 59.0761 53.6802 59.3803 55.5949C59.4118 55.7838 59.3856 56.0041 59.6741 56.1614C60.676 54.3412 61.6622 52.5157 62.6746 50.7059C63.9283 48.466 66.3099 47.6058 68.6022 48.55C69.6356 48.9749 70.3753 49.7302 70.9051 50.6954C76.3081 60.5678 81.7164 70.4454 87.1142 80.323C87.7804 81.54 88.4991 82.736 89.0236 84.0265V86.2821C88.4729 88.0499 87.3031 89.1934 85.551 89.7547H48.034L48.0287 89.7652ZM15.7626 70.0258C15.7259 71.5208 16.6701 72.1712 17.8294 71.6572C18.1441 71.5155 18.4484 71.3372 18.7526 71.1693C23.8147 68.3629 28.9187 65.6299 33.9179 62.7185C36.2259 61.3756 38.2403 61.4543 40.4959 62.7867C44.2099 64.9794 48.0287 66.9833 51.7951 69.0868C52.2305 69.3333 52.4823 69.3596 52.7498 68.8612C54.077 66.3905 55.4356 63.9303 56.7837 61.4701C56.9883 61.0976 57.0355 60.7199 56.9621 60.3003C56.406 56.9955 55.9077 53.675 55.2992 50.3807C54.9268 48.3506 55.4566 46.735 56.9149 45.2662C61.3947 40.7392 65.8115 36.1544 70.2494 31.5855C70.4697 31.3599 70.7005 31.1291 70.8684 30.8616C71.4297 29.975 71.0048 28.9416 69.9871 28.6899C69.6251 28.6007 69.2475 28.5535 68.875 28.4958C62.9894 27.5935 57.109 26.6493 51.2128 25.8152C48.9729 25.4952 47.5514 24.3779 46.6491 22.3321C45.1593 18.9749 43.5541 15.6649 41.9962 12.3391C40.8316 9.85265 39.6514 7.3662 38.4868 4.8745C38.2141 4.29223 37.8049 3.967 37.1439 3.96176C36.4725 3.95651 36.0686 4.30797 35.801 4.8745C35.6647 5.16302 35.5335 5.45153 35.3971 5.74004C32.7271 11.4526 30.0518 17.1704 27.3817 22.8829C26.6526 24.4356 25.4723 25.4166 23.7675 25.6841C19.9119 26.2926 16.0511 26.8696 12.1955 27.4624C9.62514 27.8558 7.04952 28.2335 4.48438 28.6689C3.15723 28.8944 2.7638 30.1114 3.63458 31.1396C3.80244 31.3389 3.99653 31.5173 4.17489 31.7009C8.63896 36.2856 13.0873 40.8808 17.5671 45.4445C18.8313 46.7297 19.3087 48.2195 19.0306 49.9558C18.333 54.3255 17.6091 58.6899 16.9009 63.0543C16.5075 65.4515 16.1193 67.8488 15.7626 70.0258ZM66.7348 86.7437C72.4368 86.7437 78.1389 86.7542 83.8409 86.7437C85.7661 86.7437 86.4113 85.6474 85.4986 83.974C81.281 76.2524 77.0583 68.5307 72.8407 60.8144C71.3143 58.0237 69.7878 55.2277 68.2455 52.4423C67.7262 51.5033 67.1597 51.2253 66.3623 51.4403C65.7643 51.603 65.5125 52.1013 65.245 52.5839C60.6288 61.0137 56.0179 69.4382 51.4017 77.868C50.2319 80.003 49.0569 82.1275 47.9081 84.273C47.2576 85.4952 47.8241 86.5549 49.188 86.728C49.5027 86.7699 49.8227 86.7542 50.1427 86.7542C55.6716 86.7542 61.2006 86.7542 66.7295 86.7542L66.7348 86.7437Z" fill="#0E2B72"/>
<path d="M28.1797 49.3C28.3423 47.8312 29.2288 46.4201 30.3776 45.1664C35.0201 40.1148 43.6911 41.9456 45.9101 48.4292C46.5658 50.3439 45.5901 52.2009 43.6702 52.6992C43.3292 52.7884 42.9882 52.8199 42.642 52.7359C39.0907 51.8547 35.5446 51.9386 31.9828 52.7097C29.9947 53.1398 28.1745 51.6029 28.1797 49.3ZM31.4897 49.4154C31.6156 49.5308 31.7625 49.4784 31.8989 49.4521C35.3663 48.6968 38.8284 48.6863 42.2853 49.5098C42.4532 49.5518 42.642 49.6357 42.7732 49.4889C42.9463 49.3 42.7732 49.1059 42.6945 48.9328C41.6663 46.4831 38.8284 45.0563 35.9328 45.5336C33.9185 45.8641 31.8412 47.6791 31.4845 49.4154H31.4897Z" fill="#FFB400"/>
<path d="M31.1797 28.9155C33.6976 28.9103 35.7224 30.8984 35.7434 33.4058C35.7644 35.887 33.7396 37.9538 31.2479 37.9958C28.8139 38.0378 26.6212 35.8346 26.6527 33.3849C26.6894 30.9509 28.7405 28.9208 31.1797 28.9155ZM31.1692 34.8064C31.9351 34.8327 32.5278 34.2504 32.5436 33.4635C32.5593 32.6924 32.0505 32.1469 31.2951 32.1154C30.4925 32.0839 29.8788 32.6295 29.8525 33.3849C29.8316 34.135 30.4348 34.7854 31.1692 34.8064Z" fill="#FFB400"/>
<path d="M47.5727 33.4794C47.5622 35.9658 45.4691 38.0483 43.0299 38.0011C40.5802 37.9539 38.5711 35.9186 38.5606 33.4794C38.5501 30.8932 40.5382 28.8999 43.1191 28.9156C45.6527 28.9261 47.5831 30.909 47.5727 33.4846V33.4794ZM43.0771 34.8065C43.8063 34.8065 44.4777 34.1298 44.4567 33.4164C44.4357 32.6768 43.864 32.126 43.1138 32.1102C42.327 32.0945 41.6923 32.682 41.687 33.4217C41.687 34.1351 42.3585 34.8065 43.0771 34.8065Z" fill="#FFB400"/>
<path d="M68.3874 69.0608C68.3874 71.2849 68.3874 73.5091 68.3874 75.7333C68.3874 75.9955 68.3979 76.2578 68.3612 76.5096C68.2405 77.3647 67.5901 77.9732 66.8032 77.9836C66.0216 77.9941 65.3449 77.3856 65.219 76.5411C65.1823 76.284 65.1928 76.0218 65.1928 75.7647C65.1928 71.2587 65.1928 66.7527 65.1928 62.2466C65.1928 62.1575 65.1928 62.0735 65.1928 61.9843C65.219 60.7831 65.8642 60.0172 66.819 60.033C67.7474 60.0539 68.3769 60.8041 68.3822 61.9529C68.3979 64.3239 68.3822 66.6897 68.3822 69.0608H68.3874Z" fill="#FFB400"/>
<path d="M66.8552 80.8107C67.6945 80.8421 68.3869 81.5713 68.3607 82.4001C68.3345 83.2132 67.5896 83.9161 66.766 83.9056C65.9057 83.8951 65.1556 83.103 65.2185 82.269C65.2815 81.4244 66.0054 80.7792 66.8552 80.8107Z" fill="#FFB400"/>
</svg>
