<svg width="90" height="90" viewBox="0 0 90 90" fill="none" xmlns="http://www.w3.org/2000/svg">
<path d="M47.1148 0C46.9812 0.038972 46.8532 0.0779441 46.714 0.122483C46.7696 0.295074 46.9088 0.256101 47.0146 0.256101C49.1915 0.311776 51.3461 0.617984 53.4784 1.01884C56.0561 1.5032 58.5503 2.26594 60.9944 3.20127C64.0843 4.38156 67.0239 5.85136 69.7408 7.72758C72.5802 9.69288 75.2749 11.8419 77.6076 14.4085C80.3468 17.4205 82.7129 20.6941 84.6114 24.3074C86.8774 28.6054 88.3305 33.1707 89.1712 37.9364C89.4328 39.4341 89.5999 40.9428 89.65 42.4683C89.6778 43.2756 89.7669 44.0829 89.7613 44.8846C89.7502 45.9646 89.6889 47.0447 89.6277 48.1248C89.5219 50.0344 89.2324 51.9274 88.8538 53.8036C87.9185 58.4468 86.3485 62.8673 84.0157 66.9984C83.7095 67.5384 83.42 68.0785 82.841 68.3958C81.9836 68.8635 80.9369 68.8022 80.2299 68.2121C79.4282 67.5328 79.1665 66.5864 79.5395 65.6121C79.7845 64.9663 80.1798 64.3928 80.5082 63.786C82.0504 60.8853 83.1917 57.84 83.9601 54.6443C84.4834 52.4674 84.823 50.2683 84.9845 48.0357C85.3241 43.2255 84.9065 38.4987 83.5369 33.8666C82.6573 30.8936 81.4491 28.0598 79.9515 25.3429C77.8915 21.596 75.2192 18.328 72.0903 15.444C68.2766 11.9254 63.9563 9.20295 59.0848 7.37684C56.34 6.34686 53.5174 5.61753 50.6112 5.22781C48.0947 4.8882 45.5727 4.71004 43.045 4.82696C39.9663 4.97171 36.9265 5.42824 33.9534 6.28005C30.0507 7.40467 26.3985 9.05263 22.9968 11.2685C22.4901 11.5969 21.9779 11.9199 21.5103 12.304C21.5938 12.4488 21.7163 12.3987 21.8109 12.3987C22.3955 12.4042 22.9745 12.3987 23.5591 12.3987C24.8396 12.4154 25.864 13.4565 25.8584 14.737C25.8584 15.9729 24.834 17.0029 23.5758 17.0085C20.7586 17.014 17.9415 17.014 15.1244 16.9918C13.56 16.9806 12.5578 15.9952 12.5968 14.4308C12.6636 11.686 12.6191 8.94128 12.6581 6.19654C12.6748 4.88263 13.4653 3.94174 14.6623 3.75801C15.9707 3.55758 17.1454 4.54302 17.2623 5.89033C17.357 6.99825 17.279 8.1006 17.2623 9.20295C17.2623 9.33657 17.1844 9.52029 17.3458 9.5871C17.4739 9.63721 17.5796 9.49246 17.6799 9.41451C20.1574 7.53272 22.7685 5.8625 25.5856 4.53745C29.1599 2.85609 32.8901 1.64796 36.7761 0.913058C38.5911 0.573445 40.4172 0.378585 42.2545 0.267236C42.4215 0.256101 42.6164 0.283939 42.5551 0.00556755C44.075 0.00556755 45.6005 0.00556755 47.1204 0.00556755L47.1148 0Z" fill="#0E2B72"/>
<path d="M70.3067 73.1728C71.7097 73.1728 73.1126 73.1672 74.5156 73.1728C75.7906 73.1839 76.737 73.8743 76.9876 74.971C77.1212 75.5445 77.0989 76.1346 77.0599 76.7137C77.0043 77.5599 77.021 78.4006 77.021 79.2413C77.0154 80.8447 77.021 82.4481 77.0154 84.0571C77.0043 85.332 76.158 86.2618 74.8942 86.4121C73.7529 86.5513 72.567 85.6327 72.4167 84.4746C72.2942 83.517 72.3722 82.5539 72.3833 81.5907C72.3833 81.4014 72.4112 81.2121 72.4056 81.0228C72.4 80.8781 72.4947 80.6665 72.3332 80.5997C72.1885 80.5385 72.066 80.7166 71.9435 80.8057C71.5649 81.0785 71.1975 81.3569 70.8244 81.6297C68.7589 83.105 66.6043 84.4301 64.3161 85.5213C60.6528 87.2639 56.8335 88.5444 52.825 89.2571C50.5089 89.6691 48.1762 89.9307 45.8211 89.9864C43.6777 90.0365 41.5453 89.953 39.4242 89.6802C34.6417 89.0678 30.0598 87.7372 25.7005 85.6716C21.4024 83.634 17.5442 80.956 14.059 77.7214C10.8187 74.7094 8.20206 71.2186 5.92498 67.4439C3.34726 63.1681 1.77168 58.5193 0.775115 53.6589C0.285182 51.2594 0.00680463 48.832 0.0123721 46.3712C0.0123721 45.2577 -0.0154651 44.1387 0.0123721 43.0252C0.0569114 41.0821 0.324154 39.1725 0.635929 37.2573C1.30402 33.1207 2.63463 29.1957 4.46075 25.4321C4.93398 24.4634 5.47402 23.5225 6.03076 22.5927C6.58751 21.663 7.53396 21.2677 8.49156 21.4904C9.49926 21.7298 10.1841 22.5148 10.2898 23.5837C10.3511 24.1739 10.134 24.7028 9.83888 25.2038C8.54724 27.4141 7.495 29.7413 6.65989 32.1631C5.7858 34.6963 5.17338 37.2963 4.86717 39.9575C4.61107 42.1789 4.47746 44.4115 4.5721 46.644C4.82264 52.5288 6.22005 58.124 8.92581 63.3685C9.7999 65.061 10.7575 66.6979 11.871 68.2512C14.1703 71.458 16.8872 74.264 19.9605 76.7359C23.2731 79.4027 26.9309 81.4404 30.9116 82.8935C33.3111 83.7676 35.7664 84.4802 38.3051 84.8421C41.0499 85.2318 43.8057 85.4601 46.5783 85.3432C48.4156 85.2652 50.2417 85.0314 52.0566 84.714C56.0374 84.0237 59.7898 82.6708 63.3697 80.8335C64.923 80.0374 66.4262 79.1355 67.8403 78.1111C67.9294 78.0443 68.102 77.9997 68.0519 77.8661C68.0073 77.7492 67.8459 77.7826 67.7289 77.777C67.1945 77.777 66.66 77.777 66.1255 77.7715C64.845 77.7548 63.854 76.7749 63.854 75.5167C63.854 74.1805 64.8005 73.1783 66.1033 73.1672C67.5063 73.1561 68.9092 73.1672 70.3122 73.1672C70.3122 73.1672 70.3122 73.1783 70.3122 73.1839L70.3067 73.1728Z" fill="#0E2B72"/>
<path d="M21.2003 34.5681C21.2003 33.0816 21.2003 31.5951 21.2003 30.1086C21.2003 28.7446 21.7626 27.9874 23.0765 27.6088C25.5317 26.9018 27.987 26.217 30.4422 25.5099C34.9184 24.2294 39.3946 22.9489 43.8708 21.6573C44.4944 21.4791 45.0957 21.4513 45.7248 21.635C51.1808 23.1994 56.6425 24.7583 62.1041 26.3172C63.5795 26.7403 65.0549 27.1523 66.5247 27.5754C67.8776 27.9651 68.451 28.739 68.451 30.1587C68.451 32.7476 68.4454 35.342 68.451 37.9308C68.4677 41.8503 67.7105 45.625 66.3688 49.2939C65.1662 52.5899 63.3735 55.5462 61.1577 58.2464C57.4776 62.7337 52.8789 65.935 47.434 67.9281C46.855 68.1397 46.2648 68.3234 45.6747 68.5127C45.1291 68.6853 44.5779 68.6964 44.0267 68.5294C40.5526 67.4994 37.3235 65.9461 34.4006 63.8249C30.6872 61.1303 27.703 57.762 25.4037 53.7813C23.4217 50.3406 22.1857 46.6494 21.5622 42.7411C21.2058 40.5141 21.1669 38.2704 21.1947 36.0268C21.1947 35.5368 21.1947 35.0525 21.1947 34.5625L21.2003 34.5681ZM63.7855 35.7261C63.7855 35.7261 63.7855 35.7261 63.7911 35.7261C63.7911 34.6071 63.7911 33.4936 63.7911 32.3745C63.7911 31.8364 63.5294 31.493 63.0061 31.3446C59.454 30.3313 55.902 29.3236 52.3444 28.3103C49.9449 27.6255 47.5453 26.9407 45.1513 26.2559C44.9119 26.1891 44.6892 26.2058 44.4554 26.2726C43.6593 26.5065 42.8575 26.7292 42.0558 26.9574C38.0584 28.0988 34.061 29.2401 30.0636 30.3814C28.7942 30.7433 27.5304 31.1163 26.2555 31.4559C25.8769 31.5561 25.76 31.751 25.8045 32.1184C25.8435 32.4859 25.8546 32.8533 25.8546 33.2208C25.8602 35.136 25.8491 37.0512 25.8658 38.9608C25.8825 40.4473 26.0272 41.9282 26.3279 43.3813C27.4247 48.7038 29.8743 53.3136 33.6824 57.183C36.6666 60.2172 40.1908 62.4108 44.2271 63.7748C44.6169 63.9084 44.9787 63.9474 45.3629 63.7748C45.6969 63.6245 46.0532 63.5187 46.3984 63.3962C50.2121 62.0099 53.4635 59.7607 56.2695 56.8545C58.4742 54.5663 60.2112 51.9607 61.4806 49.0323C62.9058 45.7419 63.741 42.3347 63.7744 38.7437C63.7855 37.736 63.7744 36.7227 63.7744 35.715L63.7855 35.7261Z" fill="#0E2B72"/>
<path d="M33.3849 45.0628C33.4295 44.1052 33.8637 43.3815 34.749 42.9862C35.6899 42.5631 36.5806 42.7189 37.3155 43.4371C38.6684 44.7566 39.9935 46.1039 41.3241 47.4457C41.8864 48.0136 41.8085 47.9301 42.2761 47.4624C45.5553 44.1832 48.829 40.904 52.097 37.6192C52.5313 37.1794 52.9934 36.7952 53.6281 36.7117C54.6135 36.5836 55.3707 36.9678 55.9163 37.7695C56.4174 38.5044 56.3895 39.5288 55.894 40.2581C55.7214 40.5142 55.5043 40.7369 55.2872 40.9541C51.4234 44.8179 47.554 48.6817 43.6902 52.551C42.9609 53.2803 42.1425 53.6812 41.0903 53.375C40.7061 53.2581 40.3832 53.041 40.0993 52.757C38.0839 50.7416 36.0684 48.7206 34.0586 46.6941C33.6188 46.2487 33.3404 45.7198 33.3738 45.0573L33.3849 45.0628Z" fill="#FFB400"/>
</svg>
