<svg width="96" height="110" viewBox="0 0 96 110" fill="none" xmlns="http://www.w3.org/2000/svg">
<path d="M95.8084 75.1829C95.3648 78.7051 94.7914 82.1912 93.6608 85.5331C89.5603 97.6444 82.2088 105.975 70.9029 109.732C69.7994 110.098 68.7608 110.086 67.6681 109.714C59.3374 106.841 52.6999 101.491 48.1289 93.1665C47.5879 92.1808 46.9983 91.8863 46.0138 91.8863C32.2249 91.9163 18.4415 91.9043 4.65263 91.9043C1.39069 91.9043 0.00583885 90.3776 0.00583885 86.7833C0.00583885 85.479 -0.0103844 84.1687 0.0112536 82.8644C0.0599393 80.0755 1.46101 77.8997 3.83578 77.0702C4.64721 76.7877 4.93933 76.373 4.91769 75.4353C4.88523 74.0108 4.8203 72.5803 5.00422 71.1558C5.33961 68.5412 6.63249 66.8042 8.89367 66.0709C9.75919 65.7884 9.92149 65.2955 9.92149 64.4059C9.89985 52.2706 9.89984 40.1413 9.91066 28.0059C9.92148 14.2778 18.1439 3.17624 30.2612 0.50154C43.4767 -2.41359 56.8328 7.7022 59.2346 22.4521C59.5375 24.3034 59.6944 26.1667 59.689 28.054C59.6728 35.2426 59.7053 42.4313 59.662 49.6259C59.6566 50.816 59.9865 51.1526 61.0414 51.1466C68.8744 51.1045 76.7019 51.1226 84.5349 51.1226C86.9097 51.1226 87.3587 51.5613 87.6616 54.1279C88.0565 57.4697 90.2528 59.874 93.2605 60.1985C94.3911 60.3187 95.3594 60.6433 95.8029 61.9536V75.1949L95.8084 75.1829ZM13.7244 45.0279C13.7244 51.3991 13.7244 57.7763 13.7244 64.1475C13.7244 65.7824 13.7298 65.7884 15.1903 65.7884C23.6076 65.7884 32.0302 65.8004 40.4474 65.7884C43.1575 65.7884 42.7627 66.1791 42.7897 63.2038C42.8113 61.0881 43.3415 60.4269 45.2186 60.2106C48.5021 59.8319 50.6984 57.3195 50.9689 53.635C51.0933 51.9039 51.7965 51.1707 53.3761 51.1226C53.7818 51.1106 54.1875 51.0805 54.5879 51.1226C55.5453 51.2368 55.8699 50.804 55.8645 49.7281C55.832 42.3712 55.8537 35.0203 55.8374 27.6633C55.832 24.1832 55.145 20.8593 53.8792 17.6858C48.4048 3.95762 32.8416 0.747974 22.7799 8.30927C16.5157 13.0156 13.838 19.8916 13.7298 28.1081C13.654 33.746 13.7136 39.3839 13.7136 45.0218L13.7244 45.0279ZM69.3774 55.3781C64.8551 55.3781 60.3328 55.3901 55.8104 55.366C55.0693 55.366 54.6095 55.5103 54.3498 56.4239C53.2625 60.2887 50.9581 62.8432 47.4527 64.0213C46.9496 64.1896 46.6196 64.448 46.625 65.1152C46.6575 69.6351 46.1815 74.1731 47.1065 78.657C49.768 91.6158 56.1728 100.968 67.7925 105.368C68.8149 105.753 69.7561 105.777 70.7894 105.392C82.1493 101.119 88.538 92.0185 91.3347 79.3963C92.3787 74.684 91.9135 69.8876 92.0109 65.1212C92.0271 64.2557 91.4807 64.1715 90.9614 63.9852C87.6237 62.759 85.3517 60.3127 84.2969 56.5862C84.021 55.6065 83.5991 55.354 82.7335 55.36C78.2869 55.4021 73.8349 55.3781 69.3883 55.3781H69.3774ZM24.6462 87.6488H28.725C33.7234 87.6488 38.7217 87.6488 43.7201 87.6488C45.5702 87.6488 45.5594 87.6488 44.9481 85.6593C44.6289 84.6195 44.2611 83.5737 44.0988 82.4978C43.8986 81.1634 43.2982 80.8689 42.146 80.8749C30.2396 80.923 18.3279 80.905 6.42151 80.905C6.16186 80.905 5.90762 80.899 5.64796 80.911C4.46868 80.9771 3.88986 81.5842 3.852 82.8824C3.81954 83.9403 3.90609 85.0102 3.81954 86.068C3.72217 87.2942 4.10624 87.6909 5.23683 87.6789C11.7066 87.6248 18.1764 87.6548 24.6408 87.6548L24.6462 87.6488ZM25.7443 76.6615C31.1106 76.6615 36.4714 76.6495 41.8376 76.6735C42.741 76.6735 43.1521 76.397 42.9412 75.3211C42.7085 74.113 42.8005 72.8808 42.7897 71.6547C42.7681 70.0318 42.7789 70.0258 41.3129 70.0258C32.3115 70.0258 23.31 70.0258 14.3086 70.0258C13.0211 70.0258 11.7337 70.0018 10.4516 70.0499C9.33725 70.0919 8.78008 70.7351 8.7368 71.9793C8.69894 73.0371 8.78549 74.107 8.70976 75.1649C8.6178 76.373 9.06138 76.6976 10.1 76.6855C15.3148 76.6375 20.535 76.6615 25.7497 76.6615H25.7443Z" fill="#0E2B72"/>
<path d="M34.8323 51.7114C30.9536 52.072 29.3416 50.1727 29.558 45.8691C29.6824 43.3447 29.5526 40.8082 29.5959 38.2777C29.6121 37.304 29.2875 36.9434 28.4382 37.0275C27.8918 37.0816 27.3347 37.0456 26.7829 37.0336C24.6732 37.0035 23.2883 35.6992 23.0557 33.3972C22.9097 31.9787 22.8934 30.5361 23.0882 29.1236C23.3965 26.9178 24.711 25.6615 26.7072 25.6014C27.3293 25.5834 27.9568 25.5594 28.5789 25.6014C29.3632 25.6615 29.6283 25.2588 29.5904 24.4354C29.558 23.7442 29.5634 23.047 29.5904 22.3557C29.6986 19.9335 31.1646 18.3287 33.3392 18.2625C34.2588 18.2325 35.1785 18.2385 36.0927 18.2625C38.4025 18.3166 39.782 19.7652 39.9875 22.3197C39.9984 22.4399 39.9983 22.5661 40.0038 22.6863C40.0687 24.5897 40.9847 25.5594 42.7518 25.5954C44.9156 25.6375 46.2518 26.9658 46.506 29.352C46.6629 30.8186 46.652 32.2852 46.4573 33.7458C46.2031 35.6451 44.8723 36.9494 43.1305 37.0215C42.4326 37.0516 41.7348 37.0696 41.037 37.0215C40.2688 36.9734 39.9929 37.3281 40.0038 38.1695C40.0308 40.7421 40.0146 43.3146 40.0092 45.8871C40.0092 50.5333 38.9651 51.7114 34.8323 51.7114ZM33.4096 40.8563C33.4096 42.7316 33.4041 44.6129 33.4096 46.4882C33.4096 46.8789 33.3176 47.3237 33.7395 47.5641C34.8431 48.2012 36.2279 47.2635 36.2225 45.8751C36.2063 42.3649 36.1738 38.8548 36.1792 35.3446C36.1792 33.7097 36.8825 32.9584 38.3484 32.9343C39.4844 32.9103 40.6258 32.8863 41.7618 32.9404C42.6166 32.9824 42.8925 32.5617 42.7951 31.6962C42.7031 30.8968 43.1359 29.7668 41.7456 29.8209C40.6096 29.8689 39.4682 29.8689 38.3322 29.7968C36.8771 29.7067 36.2117 28.9012 36.1738 27.2964C36.1522 26.4009 36.1684 25.4993 36.1684 24.6037C36.1684 22.1995 36.1684 22.2235 34.0208 22.4699C33.4041 22.5421 33.1932 22.8065 33.2419 23.4797C33.323 24.6578 33.3771 25.8419 33.3879 27.0259C33.4042 28.9614 32.6901 29.7668 30.9212 29.8149C29.8555 29.8449 28.7898 29.8569 27.7241 29.8149C26.6963 29.7788 26.7342 30.5241 26.7721 31.2935C26.8153 32.0568 26.5503 33.0305 27.7783 32.9584C28.8764 32.8923 29.9799 32.9163 31.0835 32.9223C32.6685 32.9283 33.3555 33.6676 33.3879 35.4528C33.415 37.2499 33.3933 39.0471 33.3933 40.8382L33.4096 40.8563Z" fill="#FFB400"/>
<path d="M77.3131 74.106C77.2699 74.8933 76.9345 75.4223 76.5179 75.8971C73.9538 78.7581 71.3951 81.6252 68.8094 84.4622C67.7599 85.6162 66.797 85.6282 65.7205 84.4922C64.4439 83.1459 63.1997 81.7574 61.9826 80.3449C61.1116 79.3352 61.1116 78.0128 61.9014 77.1834C62.6912 76.3599 63.7082 76.42 64.6495 77.3998C65.3202 78.097 65.9856 78.8062 66.5915 79.5636C67.0838 80.1826 67.4191 80.1105 67.9168 79.5515C69.9183 77.2795 71.9361 75.0196 73.9917 72.8017C75.1223 71.5815 76.7073 71.9542 77.1995 73.4869C77.2699 73.7153 77.2969 73.9617 77.3239 74.112L77.3131 74.106Z" fill="#0E2B72"/>
</svg>
