<svg width="98" height="100" viewBox="0 0 98 100" fill="none" xmlns="http://www.w3.org/2000/svg">
<path d="M62.1575 0.833079C63.2379 1.54481 63.5051 2.51158 63.416 3.79864C62.8283 12.6834 64.3184 21.1293 69.044 28.8279C69.3467 29.3202 69.6436 29.8184 69.6792 30.4115C69.7386 31.402 69.1212 32.2561 68.1297 32.5883C67.1917 32.8967 66.2478 32.5349 65.5889 31.5325C64.0928 29.249 62.8639 26.8291 61.9081 24.2728C59.8659 18.7984 58.8211 13.1401 58.8389 7.29206C58.8389 6.21853 58.7439 6.15922 57.7881 6.7286C53.7927 9.10105 50.8837 12.4996 48.6634 16.509C46.0038 21.3013 44.2466 26.3665 44.3593 31.9358C44.4247 35.0556 45.1845 38.0745 45.8079 41.1053C46.3066 43.5193 46.6568 45.9392 45.517 48.2464C44.2881 50.7434 42.4596 52.588 39.5447 52.9794C37.6569 53.2345 36.0183 52.4931 34.5104 51.4848C31.8627 49.7114 30.0757 47.1788 28.5441 44.4505C27.428 42.4695 26.5316 40.3817 25.7717 38.2406C25.6707 37.95 25.5817 37.2798 25.077 37.9559C22.3402 41.6569 19.455 45.263 17.6562 49.569C15.7209 54.2072 15.3291 59.0292 15.8752 63.9698C16.4926 69.545 18.1431 74.7822 21.0936 79.5745C24.3231 84.8354 28.7281 88.8152 34.267 91.5554C34.5104 91.674 34.7419 91.8816 35.1397 91.7867C34.7835 91.1639 34.4154 90.5767 34.0948 89.9658C31.2393 84.5211 31.4649 78.928 33.4656 73.3291C35.1338 68.6731 38.2386 64.8891 41.4029 61.1881C43.3798 58.8809 45.4576 56.6626 47.4761 54.391C48.1885 53.5844 49.0315 53.1218 50.106 53.448C51.1034 53.7505 51.5368 54.5393 51.6733 55.5417C52.0711 58.5072 53.9767 60.6128 55.8349 62.7302C57.9662 65.156 60.323 67.3802 62.3118 69.9365C64.3956 72.6173 66.0578 75.5236 66.6337 78.9221C67.2273 82.4511 66.7465 85.8615 65.2505 89.1177C65.1495 89.3371 64.9536 89.5329 65.0308 89.9006C65.7551 89.5803 66.3487 89.1058 66.9365 88.6432C73.3955 83.5424 78.1093 77.1843 80.2227 69.1832C81.6712 63.7207 81.1132 58.2047 79.4985 52.8133C78.4892 49.4504 77.0051 46.3129 75.046 43.3947C74.7966 43.0211 74.5651 42.6356 74.3692 42.2382C73.8467 41.1646 74.1198 40.0852 75.0519 39.4565C76.0196 38.8041 77.1831 38.9701 77.9549 39.9428C78.4536 40.5656 78.881 41.2477 79.2966 41.9298C82.9239 47.8194 84.9067 54.1834 85.3045 61.1169C85.7794 69.3908 82.9714 76.5497 78.2696 83.1213C75.0519 87.623 71.1574 91.419 66.3784 94.2659C61.1838 97.356 55.5678 98.9989 49.5243 99.159C40.6311 99.3904 32.6819 96.7332 25.7242 91.2173C20.0606 86.7274 16.1543 80.9565 13.744 74.1713C12.1055 69.5569 11.2031 64.7942 11.215 59.8892C11.2328 53.3353 13.2215 47.3805 16.8073 41.9298C18.3211 39.6285 20.025 37.4696 21.6397 35.2395C22.5837 33.9406 23.4089 32.5883 23.9313 31.0521C24.3587 29.8006 25.1424 29.2194 26.1397 29.2609C27.1965 29.3083 27.9682 29.9667 28.2888 31.2597C29.0724 34.3972 29.9689 37.4992 31.364 40.4292C32.6107 43.0389 34.0355 45.5418 36.3211 47.4101C37.3184 48.2286 38.4168 49.0293 39.8 48.3828C41.2248 47.7185 42.0737 45.8206 41.86 44.1539C41.5632 41.8349 41.0051 39.5692 40.548 37.2798C39.3725 31.3368 40.0315 25.5777 42.2103 19.9609C43.8547 15.7202 46.0216 11.7938 49.0434 8.36559C52.1601 4.83658 55.8943 2.23875 60.418 0.827148H62.1456L62.1575 0.833079ZM36.4992 81.3657C36.4992 82.0656 36.422 82.7833 36.5111 83.4713C37.176 88.6847 41.0111 93.0144 46.1463 94.3904C51.1509 95.7309 56.5651 93.8863 59.7828 89.7404C63.3507 85.1379 63.4042 79.272 59.9431 74.112C58.4945 71.9471 56.6839 70.0907 54.9266 68.1927C52.6469 65.7313 50.2604 63.347 48.6812 60.334C48.4438 59.8832 48.2657 59.99 47.9926 60.2984C45.327 63.2818 42.6733 66.271 40.4115 69.5806C37.9834 73.1333 36.3211 76.9589 36.4992 81.3716V81.3657Z" fill="#0E2B72"/>
<path d="M0.5 12.731C2.0376 11.0821 3.08838 11.0465 4.69128 12.6242C6.23481 14.1485 7.77241 15.6787 9.29219 17.2267C9.62465 17.5648 9.92742 17.9503 10.1471 18.3655C10.5745 19.1781 10.3549 20.1745 9.67215 20.8151C8.97756 21.4675 8.02173 21.592 7.19654 21.1294C7.00063 21.0227 6.80473 20.904 6.65037 20.7439C4.59629 18.6502 2.39973 16.6989 0.5 14.451V12.725V12.731Z" fill="#FFB400"/>
<path d="M86.0657 20.9751C86.0419 20.2515 86.3684 19.6821 86.8552 19.1899C88.933 17.114 90.9931 15.0262 93.0887 12.9681C94.1989 11.8768 95.4515 11.8234 96.3954 12.7546C97.2859 13.6324 97.2147 14.9966 96.158 16.0701C94.1217 18.14 92.0617 20.1863 89.9957 22.2266C89.2715 22.9383 88.4225 23.3476 87.3955 22.9027C86.5584 22.5409 86.1191 21.8826 86.0657 20.9692V20.9751Z" fill="#FFB400"/>
<path d="M19.0931 22.9621C18.0364 22.9621 17.4011 22.5884 16.9974 21.8648C16.5938 21.1412 16.5641 20.3642 17.0449 19.694C17.888 18.5256 18.909 17.5114 20.0667 16.6573C20.8919 16.0464 22.097 16.2184 22.7857 16.9183C23.51 17.6537 23.6524 18.7688 23.0053 19.6288C22.1623 20.7497 21.1412 21.7165 20.043 22.5943C19.7105 22.8612 19.3128 22.9739 19.0931 22.968V22.9621Z" fill="#FFB400"/>
<path d="M74.5899 18.5375C74.5899 17.7012 74.9758 17.0843 75.7001 16.6632C76.4778 16.2184 77.2674 16.2659 77.9442 16.7878C79.0543 17.6419 80.0635 18.6264 80.8947 19.7593C81.4646 20.5422 81.3518 21.6157 80.7403 22.3274C80.1229 23.0451 79.0306 23.3476 78.2291 22.8494C76.8399 21.9834 75.7298 20.7913 74.7858 19.4568C74.5959 19.1899 74.584 18.8577 74.584 18.5315L74.5899 18.5375Z" fill="#FFB400"/>
<path d="M86.0645 30.0973C86.0941 28.3951 87.8039 27.3037 89.1515 28.1222C90.5229 28.9585 91.6508 30.127 92.5117 31.4852C93.0281 32.3037 92.7966 33.1755 92.1555 33.8695C91.4965 34.5753 90.5882 34.8185 89.7867 34.3499C88.3144 33.4899 87.1449 32.2444 86.2247 30.7972C86.0822 30.5718 86.1001 30.2456 86.0704 30.0914L86.0645 30.0973Z" fill="#FFB400"/>
<path d="M11.8985 29.9253C11.8807 31.3013 8.74014 34.4448 7.38658 34.4448C5.74213 34.4448 4.66168 32.6002 5.55812 31.2123C6.35957 29.9727 7.45188 28.9644 8.64515 28.0925C9.31006 27.6003 10.0937 27.6181 10.8239 28.0332C11.5541 28.4425 11.9222 29.0771 11.9044 29.9253H11.8985Z" fill="#FFB400"/>
<path d="M71.9533 38.1633C70.7363 38.1633 69.6973 37.1254 69.6914 35.9095C69.6914 34.7707 70.6828 33.7921 71.8405 33.7862C73.0397 33.7802 74.1083 34.8478 74.1023 36.04C74.0964 37.1847 73.105 38.1574 71.9473 38.1574L71.9533 38.1633Z" fill="#0E2B72"/>
<path d="M16.119 25.0439C16.119 26.2479 15.2107 27.1554 13.9937 27.1732C12.747 27.191 11.7793 26.2479 11.7793 25.0143C11.7793 23.8399 12.7291 22.885 13.9165 22.8613C15.1276 22.8375 16.1249 23.8162 16.119 25.038V25.0439Z" fill="#0E2B72"/>
<path d="M57.9852 82.1903C57.8843 86.4904 54.0017 90.2981 49.7036 90.3159C48.3856 90.3159 47.4061 89.5034 47.323 88.3171C47.2339 87.1131 48.0591 86.1879 49.3771 85.9921C52.1792 85.5829 53.2537 84.5094 53.6693 81.704C53.877 80.3279 54.8032 79.5391 56.0914 79.6577C57.3144 79.7645 58.0208 80.7135 57.9852 82.1962V82.1903Z" fill="#FFB400"/>
</svg>
