<svg width="85" height="100" viewBox="0 0 85 100" fill="none" xmlns="http://www.w3.org/2000/svg">
<path d="M43.6004 0.00554369C45.9934 0.776116 47.6568 2.28954 48.1987 4.90616C48.8855 8.22129 46.809 11.5253 43.5896 12.2682C40.3971 13.011 37.1294 10.8933 36.3889 7.59485C35.6216 4.19657 37.3386 1.34712 40.9605 0H43.6057L43.6004 0.00554369ZM45.2583 6.13132C45.253 4.41832 43.9062 3.01577 42.2751 3.01577C40.6278 3.01577 39.3025 4.40169 39.2971 6.13132C39.2864 7.9053 40.6493 9.33002 42.3233 9.29122C43.9813 9.25241 45.2637 7.87204 45.2583 6.13686V6.13132Z" fill="#FFB400"/>
<path d="M0 26.7305C1.16971 23.3876 3.21398 21.7467 6.13289 21.8021C9.06253 21.8576 11.7078 24.3467 11.9547 27.2848C12.239 30.6942 10.2269 33.5825 7.14701 34.1867C4.21737 34.7577 1.39505 33.1445 0.321925 30.2784C0.219978 30.0068 0.112684 29.7352 0.00537088 29.4635V26.7305H0ZM5.96659 24.9898C4.27641 24.9898 2.97793 26.287 2.94573 28.0277C2.91354 29.6742 4.30326 31.1433 5.91832 31.1599C7.59776 31.1765 9.01428 29.7407 8.99282 28.0332C8.97136 26.3258 7.64067 24.9898 5.96659 24.9898Z" fill="#FFB400"/>
<path d="M0 70.4267C0.558027 68.7525 1.4058 67.3166 2.95647 66.4186C5.91831 64.6945 9.63669 65.7644 11.2625 68.8356C12.9097 71.9401 11.74 75.8151 8.6709 77.4172C5.65004 78.9917 1.98527 77.6944 0.515081 74.5123C0.311186 74.0744 0.166335 73.6087 0 73.1541C0 72.245 0 71.3358 0 70.4211V70.4267ZM5.88072 74.8949C7.61382 74.9281 8.97672 73.5921 8.99282 71.8458C9.00892 70.1772 7.65138 68.7525 6.00949 68.7303C4.3837 68.7026 2.98866 70.0885 2.9511 71.7682C2.90818 73.4812 4.20664 74.8671 5.88072 74.8949Z" fill="#FFB400"/>
<path d="M66.4962 50.0061C66.4962 53.7093 66.4641 57.418 66.507 61.1212C66.5338 63.3165 65.6807 64.902 63.8295 65.9996C57.5034 69.7471 51.1881 73.5279 44.8835 77.3087C43.145 78.351 41.4495 78.362 39.7056 77.3198C33.3956 73.539 27.0856 69.7527 20.7595 66.0107C18.903 64.9131 18.0499 63.3442 18.0606 61.1489C18.0875 53.7093 18.0928 46.2641 18.0606 38.8245C18.0499 36.5959 18.8816 34.9993 20.781 33.8795C27.091 30.1597 33.3688 26.39 39.6466 22.6203C41.4173 21.5559 43.1342 21.5448 44.9103 22.6092C51.2471 26.4066 57.5893 30.1985 63.9369 33.9682C65.6914 35.0104 66.5123 36.5349 66.507 38.6083C66.4909 42.4112 66.507 46.2142 66.507 50.0172L66.4962 50.0061ZM34.0771 43.1652C34.3507 43.3703 34.4956 43.4978 34.6512 43.592C36.9691 44.9724 39.2925 46.3362 41.5943 47.7332C42.0933 48.0381 42.4689 48.0325 42.9679 47.7332C46.0854 45.8428 49.2243 43.9856 52.3578 42.1174C54.1821 41.0308 55.9957 39.9221 57.8362 38.8633C58.6249 38.4087 59.4673 38.6581 59.8965 39.3733C60.3258 40.0884 60.1326 40.9588 59.3975 41.5076C59.0648 41.7515 58.7054 41.9566 58.3512 42.1673C53.7743 44.8948 49.2028 47.6334 44.6206 50.3442C44.0733 50.6713 43.805 51.0372 43.8104 51.7246C43.8318 58.9092 43.8318 66.0939 43.8104 73.2729C43.8104 74.1045 43.9713 74.2375 44.6903 73.8051C50.4799 70.3237 56.2747 66.8478 62.0911 63.4163C63.0622 62.8453 63.4378 62.1412 63.4325 60.9881C63.3949 53.6095 63.3949 46.2308 63.4325 38.8522C63.4325 37.7434 63.0837 37.0394 62.1393 36.4961C59.5853 35.027 57.0581 33.5025 54.547 31.9558C53.9246 31.5678 53.447 31.5678 52.8246 31.9447C49.9271 33.7132 47.0029 35.4373 44.0893 37.1724C40.8002 39.1404 37.5111 41.1085 34.0824 43.1541L34.0771 43.1652ZM40.7305 62.4683C40.7305 58.8926 40.7197 55.3225 40.7412 51.7468C40.7412 51.1314 40.5856 50.7157 40.0383 50.3997C37.7901 49.0914 35.5526 47.7775 33.3366 46.4138C32.5479 45.9259 32.4888 46.2364 32.5049 46.9737C32.5371 48.4649 32.5317 49.9617 32.5049 51.4585C32.4835 52.4176 31.8986 53.0551 31.0884 53.1105C30.2996 53.166 29.6665 52.5839 29.5109 51.6304C29.4519 51.2479 29.4465 50.8543 29.4412 50.4662C29.4358 48.6811 29.409 46.8905 29.4519 45.1055C29.468 44.3571 29.1836 43.9247 28.5612 43.5643C26.4203 42.3281 24.3062 41.0475 22.1814 39.778C21.1834 39.1848 21.1405 39.207 21.1405 40.4266C21.1405 47.3118 21.1566 54.2026 21.119 61.0879C21.1137 62.2133 21.5268 62.873 22.4551 63.4163C28.2661 66.8478 34.061 70.3181 39.8451 73.794C40.5105 74.1932 40.7465 74.1821 40.7358 73.2896C40.7036 69.6862 40.7251 66.0772 40.7251 62.4683H40.7305ZM50.3886 29.5776C50.2545 29.4778 50.115 29.3503 49.954 29.2561C47.7219 27.92 45.4898 26.584 43.2523 25.2591C42.5279 24.8322 41.8251 24.932 41.1114 25.3588C35.2039 28.8957 29.2963 32.4215 23.378 35.9307C22.7663 36.2965 22.7233 36.4795 23.3672 36.8565C25.6691 38.198 27.9549 39.5673 30.2299 40.9532C30.7611 41.2803 31.1903 41.2637 31.7108 40.9422C33.3312 39.9443 34.9731 38.9852 36.6096 38.0095C41.0202 35.3763 45.4308 32.743 49.8413 30.1042C50.0452 29.9823 50.3296 29.9324 50.3886 29.5665V29.5776Z" fill="#0E2B72"/>
<path d="M42.3288 87.5196C45.6448 87.5307 48.3437 90.2969 48.3544 93.7063C48.3705 97.1877 45.6179 99.9707 42.1839 99.9485C38.8894 99.9263 36.1905 97.1101 36.2012 93.7063C36.2173 90.2637 38.9377 87.5085 42.3234 87.5196H42.3288ZM39.3026 93.6897C39.2865 95.4193 40.5635 96.8108 42.2214 96.8718C43.8311 96.9272 45.237 95.5191 45.2638 93.8172C45.296 92.0321 43.9867 90.6074 42.2966 90.5963C40.6493 90.5852 39.3133 91.9601 39.3026 93.6897Z" fill="#FFB400"/>
<path d="M72.5704 71.8576C72.549 68.4039 75.2694 65.5544 78.6014 65.5489C81.8798 65.5378 84.6109 68.354 84.627 71.7633C84.6431 75.2559 81.9764 78.0776 78.6497 78.0942C75.2962 78.1109 72.5973 75.3446 72.5704 71.8631V71.8576ZM78.5692 74.8955C80.2755 74.9066 81.5793 73.6149 81.6008 71.8908C81.6223 70.1889 80.297 68.7587 78.6712 68.7309C76.9864 68.6977 75.5698 70.1169 75.5752 71.8243C75.5752 73.5318 76.9005 74.8844 78.5692 74.8955Z" fill="#FFB400"/>
<path d="M72.5695 27.952C72.6339 24.4207 75.3811 21.7209 78.8098 21.7985C82.1043 21.8761 84.6797 24.7588 84.6207 28.2957C84.5617 31.6053 81.7126 34.427 78.5254 34.3383C75.1504 34.2441 72.5051 31.4057 72.5695 27.952ZM81.5891 28.0462C81.6052 26.3222 80.3068 24.9917 78.6112 24.9861C76.9318 24.9806 75.6011 26.3 75.5635 28.0019C75.526 29.7038 76.9318 31.1563 78.6059 31.1563C80.237 31.1563 81.573 29.7592 81.5837 28.0462H81.5891Z" fill="#FFB400"/>
<path d="M4.08936 49.8926C4.08936 46.3502 4.10008 42.8023 4.08398 39.2599C4.08398 38.323 4.43272 37.6799 5.32878 37.4582C6.07461 37.2752 6.85263 37.8019 7.0136 38.639C7.12092 39.21 7.14774 39.8031 7.14774 40.3852C7.15848 46.7549 7.15311 53.1302 7.14774 59.4999C7.14774 59.9212 7.13703 60.348 7.0941 60.7638C6.97069 61.867 6.35904 62.5101 5.51663 62.4546C4.6474 62.3992 4.10009 61.7173 4.09473 60.6197C4.08399 57.6593 4.09473 54.7046 4.09473 51.7442C4.09473 51.1289 4.09473 50.508 4.09473 49.8926H4.08936Z" fill="#0E2B72"/>
<path d="M80.4747 49.9923C80.4747 53.4072 80.4747 56.8221 80.4747 60.2314C80.4747 60.5585 80.4962 60.8911 80.4318 61.2016C80.2762 61.9611 79.7772 62.3935 79.0475 62.4434C78.2963 62.4933 77.7543 62.072 77.5773 61.3346C77.4324 60.747 77.4217 60.1095 77.4164 59.4997C77.4056 53.13 77.411 46.7547 77.4164 40.385C77.4164 39.9305 77.4325 39.4759 77.4861 39.0213C77.6149 37.9846 78.2319 37.3748 79.0475 37.4247C79.8899 37.4802 80.4425 38.1399 80.4747 39.1599C80.4908 39.681 80.4747 40.2021 80.4747 40.7177C80.4747 43.8055 80.4747 46.8933 80.4747 49.9812V49.9923Z" fill="#0E2B72"/>
<path d="M71.0142 22.3845C71.0411 23.6374 69.8069 24.347 68.6533 23.6928C67.108 22.8169 65.6003 21.88 64.0764 20.9653C59.8 18.4152 55.5236 15.8651 51.2526 13.315C51.0916 13.2153 50.9253 13.121 50.7643 13.0157C49.9917 12.478 49.7448 11.6686 50.1311 10.9202C50.5389 10.1274 51.3814 9.83361 52.2399 10.3159C53.871 11.2306 55.4646 12.2119 57.0689 13.1709C61.2917 15.6877 65.5091 18.2046 69.7318 20.7214C70.3703 21.1039 70.982 21.5031 71.0089 22.3845H71.0142Z" fill="#0E2B72"/>
<path d="M15.0671 23.9773C14.391 23.9274 13.8652 23.617 13.6345 22.924C13.3877 22.1867 13.6076 21.5547 14.2193 21.1334C14.9222 20.6456 15.6734 20.2298 16.4085 19.7918C21.4736 16.765 26.5335 13.7437 31.5986 10.7168C31.8454 10.5727 32.0869 10.4175 32.3445 10.2955C33.1976 9.89636 33.9756 10.1181 34.3995 10.861C34.8126 11.5816 34.6248 12.4742 33.8522 12.9786C32.7898 13.6716 31.6845 14.298 30.5953 14.9522C25.8574 17.7795 21.1195 20.6012 16.3817 23.4285C15.9739 23.6724 15.5768 23.9385 15.0724 23.9773H15.0671Z" fill="#0E2B72"/>
<path d="M15.0017 75.9102C15.4256 75.9157 15.7851 76.1153 16.1446 76.3259C21.8912 79.7519 27.6378 83.1779 33.3844 86.5984C33.4917 86.6649 33.6044 86.7259 33.7063 86.798C34.5755 87.3911 34.8385 88.267 34.3824 89.0376C33.9156 89.8248 33.0839 90.0244 32.1503 89.4922C30.8035 88.7216 29.4782 87.9067 28.1421 87.1139C23.7852 84.514 19.4283 81.914 15.0714 79.314C14.7173 79.1033 14.3524 78.8982 14.0466 78.6266C13.5529 78.1831 13.3974 77.5954 13.6281 76.9468C13.8588 76.2982 14.3471 75.9878 14.9963 75.9102H15.0017Z" fill="#0E2B72"/>
<path d="M51.3918 89.7987C50.7586 89.7766 50.2489 89.4162 50.0396 88.7344C49.8035 87.9638 50.0557 87.3152 50.7371 86.8994C52.497 85.8295 54.2677 84.7651 56.033 83.7118C60.1162 81.2725 64.2049 78.8389 68.2935 76.4107C68.6155 76.2167 68.9642 76.0061 69.3237 75.9562C70.0534 75.8508 70.6168 76.1945 70.9012 76.9097C71.1856 77.6304 70.9924 78.2845 70.3914 78.7225C69.7529 79.1881 69.0554 79.5762 68.374 79.9864C63.1746 83.0909 57.9754 86.1953 52.7707 89.2943C52.3629 89.5382 51.9605 89.7987 51.3864 89.8043L51.3918 89.7987Z" fill="#0E2B72"/>
</svg>
