<svg width="20" height="24" viewBox="0 0 20 24" fill="none" xmlns="http://www.w3.org/2000/svg">
<path d="M1.16312 10.8364C0.811644 10.4849 0.811644 9.91508 1.16312 9.5636C1.51459 9.21213 2.08444 9.21213 2.43591 9.5636L8.39951 15.5272V0.9C8.39951 0.402944 8.80246 0 9.29951 0C9.79657 0 10.1995 0.402944 10.1995 0.9V15.5272L16.1631 9.5636C16.5146 9.21213 17.0844 9.21213 17.4359 9.5636C17.7874 9.91508 17.7874 10.4849 17.4359 10.8364L9.93591 18.3364C9.58444 18.6879 9.01459 18.6879 8.66312 18.3364L1.16312 10.8364Z" fill="#191308"/>
<path d="M0.899512 22.2C0.402455 22.2 -0.000488281 22.6029 -0.000488281 23.1C-0.000488281 23.5971 0.402455 24 0.899512 24H18.2995C18.7966 24 19.1995 23.5971 19.1995 23.1C19.1995 22.6029 18.7966 22.2 18.2995 22.2H0.899512Z" fill="#191308"/>
</svg>
