<svg width="92" height="92" viewBox="0 0 92 92" fill="none" xmlns="http://www.w3.org/2000/svg">
<path d="M91.5533 49.2056C91.1579 52.2046 90.8008 55.2145 89.8671 58.1091C84.1053 75.9877 72.0929 87.1267 53.5938 90.4827C33.694 94.0969 14.1512 83.8421 5.19269 65.7274C1.66092 58.587 0.106501 51.0017 0.58436 43.0593C1.89161 21.2591 18.1937 4.12755 38.4835 0.755071C39.8292 0.529873 41.1804 0.365094 42.5316 0.172852C44.8989 0.172852 47.2662 0.172852 49.6281 0.172852C50.9738 0.365094 52.3359 0.485932 53.6707 0.755071C72.038 4.47358 84.0669 15.2941 89.8506 33.0957C90.8008 36.0233 91.1579 39.0662 91.5588 42.1036V49.2001L91.5533 49.2056ZM46.1128 4.18797C23.1481 4.1605 4.64891 22.6103 4.60497 45.5859C4.56103 68.5451 22.9943 87.0553 45.9755 87.1267C68.9621 87.1981 87.5327 68.677 87.5437 45.6683C87.5492 22.6926 69.094 4.21543 46.1128 4.18797Z" fill="#0E2B72"/>
<path d="M64.0338 47.7005C58.3435 47.7005 52.6531 47.7005 46.9627 47.7005C44.7163 47.7005 44.0352 47.0304 44.0352 44.8059C44.0352 33.3867 44.0352 21.9675 44.0352 10.5538C44.0352 8.31835 44.7163 7.62628 46.9682 7.68669C64.1876 8.1261 78.8639 20.0231 82.9614 36.6384C83.6425 39.4066 84.016 42.2244 84.0545 45.075C84.0765 46.937 83.313 47.7005 81.4345 47.706C75.6343 47.717 69.8341 47.706 64.0283 47.706L64.0338 47.7005ZM64.0448 43.614C68.9607 43.614 73.8766 43.614 78.7925 43.614C79.4901 43.614 80.0174 43.5975 79.913 42.6198C79.0891 34.7379 76.0407 27.8721 70.5371 22.1598C64.7753 16.1893 57.7448 12.7619 49.4729 11.8886C48.1766 11.7512 48.1217 11.7457 48.1217 13.0145C48.1217 22.7695 48.1382 32.5299 48.0997 42.2848C48.0997 43.3998 48.5062 43.636 49.5223 43.6305C54.3613 43.5865 59.2058 43.614 64.0448 43.6085V43.614Z" fill="#0E2B72"/>
<path d="M32.9481 19.1499C32.8602 20.2814 32.4978 20.9735 31.6299 21.2756C30.7841 21.5667 29.9656 21.4294 29.4329 20.7043C28.5431 19.4905 27.7796 18.1777 27.1754 16.7991C26.8074 15.9697 27.093 15.1897 27.7741 14.6185C28.4607 14.0363 29.3285 13.8715 30.0151 14.4537C31.542 15.75 32.2066 17.6065 32.9536 19.1554L32.9481 19.1499Z" fill="#FFB400"/>
<path d="M16.6955 26.5812C16.9427 26.6636 17.2777 26.724 17.5633 26.8833C18.6563 27.493 19.7549 28.0971 20.8095 28.7672C21.864 29.4428 22.1222 30.5578 21.5455 31.5355C21.0127 32.4363 19.8647 32.7659 18.8376 32.2221C17.7006 31.6234 16.5692 30.9863 15.4981 30.2777C14.7017 29.7504 14.3282 28.9485 14.6742 27.9708C14.9928 27.0645 15.6958 26.6691 16.6955 26.5757V26.5812Z" fill="#FFB400"/>
<path d="M16.8319 64.7223C15.7279 64.6344 15.0523 64.2664 14.7063 63.4261C14.3493 62.5637 14.569 61.7728 15.2555 61.2345C16.4749 60.2843 17.8316 59.5208 19.2542 58.9276C20.0781 58.5816 20.869 58.8837 21.4128 59.5977C21.9181 60.2678 22.0829 61.1192 21.5446 61.7618C20.2538 63.2887 18.3918 63.9534 16.8319 64.7223Z" fill="#FFB400"/>
<path d="M72.4224 58.7847C72.6476 58.8561 73.0211 58.9165 73.3342 59.0868C74.3997 59.669 75.4708 60.2512 76.4924 60.9048C77.6239 61.6244 77.904 62.7668 77.2834 63.75C76.6956 64.6838 75.5642 64.9584 74.4711 64.3597C73.3397 63.7445 72.2192 63.1019 71.1481 62.3933C70.3627 61.8715 70.1374 61.0586 70.445 60.1468C70.7361 59.2735 71.4062 58.889 72.4279 58.7847H72.4224Z" fill="#FFB400"/>
<path d="M29.1012 77.1798C27.6621 77.1963 26.602 75.7572 27.1952 74.4774C27.8104 73.1482 28.5849 71.8794 29.3978 70.66C29.9525 69.8252 30.9961 69.6823 31.8695 70.1382C32.7043 70.5776 33.1877 71.5883 32.8032 72.4891C32.2045 73.9117 31.4246 75.2519 30.4963 76.4932C30.1558 76.9491 29.6175 77.1413 29.1012 77.1743V77.1798Z" fill="#FFB400"/>
<path d="M63.096 77.1793C62.3874 77.1519 61.7558 76.7948 61.3493 76.1247C60.7012 75.0592 60.0585 73.9771 59.4873 72.8676C58.9545 71.835 59.2951 70.698 60.2123 70.1762C61.1626 69.6325 62.2775 69.8631 62.9147 70.8518C63.6287 71.9613 64.3208 73.1038 64.8976 74.2902C65.5402 75.6084 64.5845 77.1299 63.1015 77.1738L63.096 77.1793Z" fill="#FFB400"/>
<path d="M13.8109 47.6731C13.1847 47.6731 12.553 47.7281 11.9323 47.6621C10.7295 47.5303 10.0319 46.7229 10.0594 45.6024C10.0813 44.5368 10.7789 43.7349 11.9378 43.6635C13.2616 43.5811 14.5963 43.5811 15.9145 43.6745C17.0515 43.7569 17.7491 44.6082 17.7491 45.6628C17.7491 46.7174 17.046 47.5248 15.9145 47.6567C15.2224 47.7336 14.5139 47.6731 13.8164 47.6731C13.8164 47.6731 13.8164 47.6731 13.8164 47.6786L13.8109 47.6731Z" fill="#FFB400"/>
<path d="M48.0853 77.8606C48.0853 78.5252 48.1512 79.1953 48.0688 79.8489C47.9315 81.0024 47.1516 81.6725 46.0805 81.678C45.0039 81.678 44.1746 81.0079 44.0922 79.8599C43.9988 78.5033 43.9988 77.1301 44.1031 75.7734C44.191 74.6474 45.0698 73.9663 46.1299 73.9883C47.1351 74.0103 47.926 74.6804 48.0633 75.7679C48.1512 76.4545 48.0798 77.163 48.0798 77.8661C48.0798 77.8661 48.0853 77.8661 48.0908 77.8661L48.0853 77.8606Z" fill="#FFB400"/>
</svg>
