<svg width="92" height="93" viewBox="0 0 92 93" fill="none" xmlns="http://www.w3.org/2000/svg">
<path d="M0.513142 50.2004C0.513142 46.3117 0.480192 42.4229 0.51864 38.5286C0.573566 33.1019 4.09435 28.889 9.41121 27.796C10.1692 27.6422 10.9327 27.6367 11.6961 27.6367C16.689 27.6367 21.6817 27.6257 26.6745 27.6367C33.2163 27.6532 37.874 32.3329 37.8795 38.8966C37.885 46.8005 37.8795 54.6989 37.8795 62.6028C37.8795 64.2671 37.4731 64.679 35.8418 64.6845C34.4301 64.6845 33.024 64.7285 31.6179 64.668C30.8599 64.6351 30.7226 64.9097 30.7226 65.6018C30.7446 73.6869 30.7391 81.7721 30.7391 89.8627C30.7391 91.7247 30.3931 92.0818 28.5695 92.0818C22.231 92.0818 15.887 92.0818 9.54853 92.0818C7.88975 92.0818 7.49977 91.6918 7.49977 90.0275C7.49977 81.9424 7.4833 73.8572 7.52175 65.7666C7.52175 64.8603 7.26909 64.6131 6.39026 64.668C5.13794 64.7449 3.88012 64.69 2.62231 64.6845C0.870161 64.6845 0.507652 64.333 0.507652 62.6083C0.507652 58.4723 0.507652 54.3364 0.507652 50.2059L0.513142 50.2004ZM10.1857 70.3914C10.1857 76.3673 10.2022 82.3378 10.1692 88.3138C10.1692 89.0938 10.3944 89.297 11.1469 89.275C12.954 89.2201 14.761 89.2201 16.5681 89.275C17.3865 89.3025 17.6611 89.0938 17.6502 88.2259C17.6062 83.8154 17.6282 79.4048 17.6282 74.9942C17.6282 74.412 17.6117 73.8297 17.6556 73.2475C17.7106 72.4511 18.1884 72.0337 18.9739 72.0062C19.7593 71.9787 20.2427 72.4017 20.4184 73.1487C20.4898 73.4398 20.4514 73.7583 20.4514 74.0659C20.4514 78.8445 20.4679 83.6231 20.4349 88.4017C20.4349 89.0883 20.6162 89.2915 21.3083 89.275C23.1153 89.2256 24.9224 89.2036 26.7295 89.2805C27.6687 89.3245 27.9049 89.0498 27.8994 88.1161C27.8665 76.4442 27.8774 64.7724 27.8774 53.1006C27.8774 52.7325 27.8665 52.3645 27.9159 52.002C28.0203 51.2331 28.6409 50.6728 29.355 50.7387C30.1184 50.8046 30.5853 51.244 30.7116 52.0075C30.7556 52.2767 30.7336 52.5568 30.7336 52.8314C30.7336 55.5887 30.7501 58.346 30.7226 61.1033C30.7171 61.691 30.8599 61.9272 31.4806 61.8888C32.3375 61.8393 33.1998 61.8229 34.0512 61.8888C34.8256 61.9492 35.0179 61.6746 35.0124 60.9221C34.9849 53.5674 34.9959 46.2183 34.9904 38.8637C34.9904 38.254 34.9794 37.6333 34.8696 37.0346C34.1226 33.025 30.8764 30.3556 26.6361 30.3281C21.5829 30.2952 16.5297 30.3171 11.471 30.3281C10.4878 30.3281 9.52106 30.4544 8.58182 30.7785C5.11597 31.9704 3.07272 34.9584 3.06173 38.9241C3.04525 46.2458 3.06173 53.5674 3.06173 60.8891C3.06173 61.0429 3.07272 61.1967 3.06173 61.3505C3.04525 61.735 3.20453 61.8943 3.6055 61.8888C4.67656 61.8723 5.74761 61.8723 6.82417 61.8888C7.21964 61.8888 7.38992 61.7405 7.36245 61.3505C7.34598 61.1088 7.36245 60.8616 7.36245 60.6145C7.36245 57.7968 7.35146 54.979 7.37343 52.1613C7.37893 51.288 7.93918 50.7552 8.73561 50.7442C9.51007 50.7332 10.0978 51.2935 10.1692 52.1229C10.1967 52.425 10.1802 52.7325 10.1802 53.0401C10.1802 58.8294 10.1802 64.6186 10.1802 70.4078L10.1857 70.3914Z" fill="#0E2B72"/>
<path d="M31.1498 12.8011C31.1498 19.3867 25.7451 24.7695 19.1539 24.7585C12.5957 24.7476 7.19645 19.3044 7.21293 12.7297C7.22941 6.17697 12.5408 0.832641 19.044 0.827148C25.6791 0.827148 31.1608 6.24288 31.1553 12.8011H31.1498ZM9.94277 12.8121C9.95375 17.8104 14.1117 21.9518 19.088 21.9134C24.0918 21.8749 28.1893 17.7445 28.1728 12.7462C28.1563 7.7204 24.0423 3.62839 19.0331 3.65036C14.0403 3.67233 9.93178 7.81378 9.94277 12.8121Z" fill="#0E2B72"/>
<path d="M53.2918 54.9954C47.7113 54.8636 43.4655 50.3871 43.6028 44.7846C43.7347 39.5172 48.3045 35.2 53.5884 35.3428C59.0811 35.4911 63.4093 40.0006 63.2555 45.4053C63.1017 50.7716 58.5868 55.1218 53.2864 54.9954H53.2918ZM60.5366 45.1966C60.5476 41.2694 57.3674 38.0452 53.4566 38.0232C49.6118 37.9957 46.4535 41.187 46.4206 45.1252C46.3931 49.0414 49.5294 52.2766 53.3852 52.2986C57.285 52.3205 60.5201 49.1018 60.5366 45.1911V45.1966Z" fill="#0E2B72"/>
<path d="M53.435 62.0152C58.8452 62.0261 63.2613 66.4312 63.2668 71.825C63.2668 77.2407 58.7409 81.7447 53.3636 81.6788C47.9314 81.6129 43.5867 77.2188 43.5977 71.7975C43.6087 66.3818 48.0138 62.0042 53.435 62.0152ZM60.537 71.8634C60.5479 67.9417 57.3622 64.723 53.446 64.7011C49.6011 64.6791 46.4429 67.8758 46.4209 71.814C46.3989 75.7412 49.5407 78.9654 53.391 78.9764C57.2963 78.9929 60.5205 75.7797 60.5315 71.8634H60.537Z" fill="#0E2B72"/>
<path d="M63.9744 12.6417C63.9415 13.1086 63.7218 13.4656 63.4087 13.7787C59.5968 17.5906 55.7849 21.408 51.962 25.2144C51.2096 25.9614 50.4735 25.9559 49.7156 25.2089C47.6668 23.1821 45.6345 21.1443 43.6077 19.1011C42.8717 18.3596 42.8333 17.5247 43.4539 16.926C44.0966 16.3053 44.8436 16.3602 45.629 17.1347C47.178 18.6617 48.7379 20.1831 50.2319 21.7595C50.7537 22.3143 51.0228 22.2154 51.5007 21.7265C54.7084 18.4804 57.949 15.2672 61.1677 12.0266C61.7115 11.4828 62.2882 11.1807 63.0571 11.4169C63.6613 11.6036 63.9195 12.065 63.9744 12.6472V12.6417Z" fill="#FFB400"/>
<path d="M80.1734 75.9882C77.1085 75.9882 74.0492 75.9882 70.9843 75.9882C70.6492 75.9882 70.3087 75.9772 69.9791 75.9277C69.276 75.8234 68.8971 75.3675 68.8366 74.6864C68.7817 74.0493 69.0728 73.5659 69.655 73.2748C69.9077 73.143 70.1768 73.121 70.457 73.121C76.9822 73.121 83.5075 73.1155 90.0272 73.1265C91.3125 73.1265 92.0101 74.1756 91.4608 75.2082C91.0873 75.9113 90.4282 75.9936 89.7306 75.9936C86.5449 75.9936 83.3592 75.9936 80.1734 75.9936V75.9882Z" fill="#0E2B72"/>
<path d="M80.2149 17.2171C76.9687 17.2171 73.7226 17.228 70.4764 17.2171C69.1472 17.2116 68.4222 16.124 69.0209 15.0969C69.3285 14.5641 69.8283 14.3719 70.416 14.3664C76.9687 14.3664 83.5269 14.3554 90.0796 14.3719C91.1232 14.3719 91.634 14.8937 91.6231 15.789C91.6121 16.6458 91.0298 17.2061 90.0522 17.2116C86.7731 17.228 83.4994 17.2171 80.2203 17.2171H80.2149Z" fill="#0E2B72"/>
<path d="M80.2067 43.8781C76.9276 43.8781 73.654 43.8891 70.3749 43.8727C69.4191 43.8727 68.8644 43.3563 68.8259 42.5379C68.7875 41.7086 69.3972 41.1044 70.3364 41.0494C70.611 41.033 70.8857 41.0439 71.1658 41.0439C75.6972 41.0439 80.2287 41.0439 84.7656 41.0439C86.4793 41.0439 88.1985 41.033 89.9122 41.0439C91.0986 41.0549 91.6478 41.5218 91.6259 42.472C91.6094 43.3783 90.9942 43.8781 89.8572 43.8836C86.644 43.8891 83.4254 43.8836 80.2122 43.8836L80.2067 43.8781Z" fill="#0E2B72"/>
<path d="M80.2877 46.6084C83.5668 46.6084 86.8404 46.6084 90.1195 46.6084C90.8445 46.6084 91.3938 46.872 91.575 47.6026C91.7453 48.2891 91.5421 48.8714 90.8939 49.2504C90.6138 49.4151 90.3117 49.4206 90.0041 49.4206C83.4844 49.4206 76.9591 49.4206 70.4394 49.4206C69.4177 49.4206 68.841 48.9153 68.8245 48.0694C68.8081 47.2016 69.4342 46.6194 70.4613 46.6194C73.7404 46.6084 77.0141 46.6194 80.2932 46.6194L80.2877 46.6084Z" fill="#0E2B72"/>
<path d="M80.2926 67.5679C83.4783 67.5679 86.664 67.5679 89.8498 67.5679C91.0636 67.5679 91.6074 68.0018 91.6184 68.9355C91.6294 69.8913 91.0307 70.3911 89.8113 70.3911C83.4124 70.3911 77.0135 70.3911 70.6091 70.3911C69.4282 70.3911 68.835 69.9187 68.8185 69.0234C68.8075 68.1061 69.4666 67.5734 70.642 67.5679C73.8552 67.5679 77.0739 67.5679 80.2871 67.5679H80.2926Z" fill="#0E2B72"/>
<path d="M80.1891 22.7538C76.943 22.7538 73.7023 22.7538 70.4562 22.7538C69.8245 22.7538 69.3137 22.578 69.0006 21.9958C68.726 21.4904 68.7699 20.9906 69.0995 20.5237C69.4071 20.0898 69.8465 19.936 70.3738 19.936C76.9539 19.936 83.5341 19.936 90.1143 19.9415C91.103 19.9415 91.6028 20.4194 91.6193 21.2817C91.6357 22.1606 91.0755 22.7373 90.1033 22.7428C86.7967 22.7592 83.4902 22.7483 80.1891 22.7483V22.7538Z" fill="#0E2B72"/>
</svg>
