<svg width="115" height="109" viewBox="0 0 115 109" fill="none" xmlns="http://www.w3.org/2000/svg">
<path d="M0.522187 90.8993C1.20094 87.5154 2.37082 84.3293 4.5616 81.5232C6.74133 78.7223 9.45635 76.5358 12.7563 75C13.4958 74.6564 13.7551 74.4586 12.977 73.7974C8.72793 70.1792 7.33731 64.39 9.42324 59.3297C11.4926 54.3111 16.6191 51.0052 22.3416 50.9948C28.169 50.9844 33.2955 54.2434 35.398 59.2933C37.528 64.4056 36.1429 70.075 31.8055 73.8442C31.2096 74.3649 31.193 74.6095 31.938 74.9427C33.9743 75.8434 35.8229 77.02 37.4232 78.5193C38.0413 79.0972 38.3172 78.8265 38.6593 78.2694C40.9549 74.5054 44.1997 71.6941 48.344 69.8252C48.9896 69.5336 49.0172 69.3722 48.4819 68.9141C43.5651 64.692 42.3621 58.377 45.4027 52.8898C48.3219 47.6213 54.8445 44.8672 61.014 46.2937C67.2221 47.7306 71.6092 52.9575 71.6423 58.9236C71.6644 62.9167 70.0751 66.2278 66.9683 68.8985C66.4937 69.3098 66.3447 69.492 67.0621 69.8147C71.245 71.6993 74.5174 74.5314 76.8075 78.3423C77.2158 79.0191 77.5469 78.9514 78.0656 78.4672C79.6439 77.0043 81.4649 75.8538 83.4626 74.9583C84.1468 74.6512 84.2793 74.4325 83.6447 73.8651C79.4728 70.1063 78.016 65.5145 79.688 60.3293C81.3877 55.0555 85.3885 51.9579 91.1661 51.0833C99.1401 49.8755 106.827 56.1019 106.949 63.7184C107.009 67.7115 105.525 71.0642 102.473 73.7818C101.772 74.4065 101.844 74.6095 102.65 74.9948C108.008 77.5406 111.755 81.4659 113.78 86.8126C114.536 88.8065 114.983 90.8629 114.978 92.9974C114.978 97.105 114.95 101.218 115 105.325C115.011 106.497 114.613 107.371 113.565 107.98C76.217 107.98 38.8745 107.98 1.52652 108.001C0.687737 108.001 0.494595 107.824 0.500114 107.033C0.54426 101.66 0.522187 96.2824 0.522187 90.9098V90.8993ZM53.2442 103.68C57.0795 103.68 60.9147 103.649 64.7499 103.701C65.7984 103.717 66.2068 103.467 66.1571 102.415C66.0743 100.697 66.1074 98.974 66.1516 97.2508C66.1792 95.9284 67.1394 94.9653 68.3865 94.908C69.595 94.856 70.5607 95.6733 70.787 96.9644C71.0077 98.2191 70.8532 99.4894 70.8918 100.749C70.9911 104.253 70.18 103.597 74.2359 103.675C74.8761 103.685 75.0802 103.404 75.0692 102.842C74.9699 97.6464 75.2789 92.4456 74.8981 87.2551C74.1642 77.2751 63.718 70.2156 53.476 72.777C45.6179 74.7397 40.5245 80.9662 40.3865 88.921C40.3093 93.4868 40.3865 98.0525 40.3534 102.618C40.3479 103.472 40.6625 103.701 41.5233 103.691C45.4303 103.659 49.3428 103.675 53.2497 103.675L53.2442 103.68ZM20.4047 103.68C25.0953 103.68 29.7858 103.659 34.4764 103.701C35.4421 103.711 35.7677 103.462 35.7567 102.519C35.7125 97.9536 35.7346 93.3879 35.7346 88.8221C35.7346 87.5935 35.6684 86.344 36.0381 85.1571C36.3416 84.1731 36.005 83.4807 35.3207 82.7883C31.3862 78.8161 26.5742 77.0408 20.802 77.426C12.7949 77.9623 5.78667 84.5583 5.2238 92.0967C4.96444 95.5744 5.16861 99.0469 5.04721 102.519C5.0141 103.467 5.36727 103.706 6.32746 103.701C11.018 103.659 15.7086 103.685 20.3992 103.685L20.4047 103.68ZM94.9738 103.68C99.703 103.68 104.432 103.659 109.161 103.696C110.083 103.701 110.392 103.441 110.375 102.561C110.326 99.7497 110.403 96.9384 110.342 94.1323C110.298 92.2009 110.077 90.2798 109.41 88.4317C107.037 81.8772 100.106 76.7596 91.6683 77.4156C86.8839 77.7904 82.999 79.7167 79.8481 83.0798C79.4121 83.5484 79.1031 84.0377 79.2907 84.6989C79.6991 86.141 79.688 87.6143 79.688 89.0928C79.688 93.4816 79.688 97.8755 79.688 102.264C79.688 103.208 80.2049 103.68 81.2387 103.68C85.8189 103.68 90.3991 103.68 94.9793 103.68H94.9738ZM66.9628 59.0382C66.8966 54.2434 62.664 50.2868 57.6754 50.3492C52.5931 50.4117 48.3936 54.4048 48.4598 59.1111C48.5261 63.9059 52.7641 67.8625 57.7472 67.8C62.8296 67.7375 67.0235 63.7445 66.9628 59.0382ZM31.6621 64.1245C31.6455 59.3609 27.435 55.3887 22.4023 55.4043C17.3531 55.42 13.1426 59.3922 13.1591 64.1401C13.1757 68.9037 17.3862 72.8759 22.4189 72.8603C27.4682 72.8447 31.6786 68.8724 31.6621 64.1245ZM102.252 64.2807C102.241 59.7462 98.7704 55.5761 93.1693 55.4356C88.3628 55.3158 83.9427 58.6946 83.7992 63.9787C83.6723 68.5132 87.2536 72.6833 92.8547 72.8186C97.6612 72.9384 101.982 69.5544 102.258 64.2755L102.252 64.2807Z" fill="#0E2B72"/>
<path d="M45.5847 39.9522C45.9269 38.0103 46.3131 35.652 46.7877 33.3145C46.9202 32.6585 46.7325 32.2837 46.2524 31.8516C44.6301 30.4043 43.0408 28.9205 41.446 27.4472C40.3699 26.4476 39.7684 25.2971 40.2816 23.8446C40.7893 22.4077 41.9757 21.7674 43.4712 21.5539C45.6785 21.2416 47.8859 20.9344 50.0987 20.6741C50.7664 20.596 51.1748 20.3461 51.4617 19.7787C52.4054 17.9097 53.3987 16.0615 54.3423 14.1925C55.0376 12.8129 56.0916 11.8654 57.7581 11.881C59.3695 11.8967 60.4014 12.8286 61.0802 14.1717C62.0072 16.0095 62.9895 17.8264 63.9056 19.6693C64.2256 20.3045 64.6505 20.6064 65.4231 20.6897C67.6028 20.924 69.7715 21.2468 71.9402 21.5539C73.4302 21.7674 74.6332 22.3869 75.1464 23.8238C75.6651 25.2711 75.0857 26.432 74.0041 27.4316C72.4148 28.9101 70.831 30.3991 69.1976 31.8359C68.6679 32.2993 68.5189 32.721 68.6623 33.3978C69.0762 35.3552 69.4073 37.3335 69.7439 39.3066C69.904 40.2437 70.0199 41.1965 69.5067 42.0867C68.5906 43.6902 66.6537 44.2524 64.7885 43.3778C62.7191 42.4095 60.6829 41.3943 58.6521 40.3531C57.9954 40.0147 57.4546 39.9991 56.7869 40.3427C54.7617 41.3839 52.7254 42.4095 50.6561 43.3674C48.0625 44.57 45.5351 43.0602 45.5792 39.9574L45.5847 39.9522ZM46.4732 25.6719C47.9079 27.062 49.1661 28.301 50.4464 29.514C51.4948 30.5084 51.9198 31.6433 51.6218 33.0542C51.2631 34.7305 51.0037 36.4225 50.6947 38.1353C51.1086 38.203 51.3459 38.0155 51.5997 37.8906C53.051 37.1774 54.4968 36.4537 55.9481 35.7405C57.1235 35.1626 58.3045 35.1626 59.4743 35.7405C60.2359 36.1101 60.9808 36.511 61.7479 36.865C62.7026 37.3075 63.591 37.8802 64.7443 38.2186C64.485 36.7713 64.3636 35.4021 63.9828 34.1006C63.3427 31.914 63.9111 30.2064 65.7597 28.7643C66.8854 27.8845 67.8732 26.8381 69.1093 25.698C66.8358 25.37 64.8713 25.0576 62.8902 24.8181C61.7313 24.6776 60.9974 24.1309 60.5063 23.1626C59.7558 21.6737 58.9611 20.2056 58.1775 18.727C58.0672 18.5188 58.0175 18.196 57.703 18.2064C57.3995 18.2168 57.3498 18.5292 57.2394 18.7427C56.5883 19.9661 55.893 21.1739 55.3135 22.4234C54.563 24.0476 53.2717 24.8181 51.4341 24.9951C49.8228 25.1513 48.2225 25.4273 46.4621 25.6719H46.4732Z" fill="#FFB400"/>
<path d="M44.6969 17.4305C44.1174 17.4617 43.5601 17.191 43.0966 16.7589C40.5912 14.411 38.0694 12.0682 35.6082 9.67343C34.5652 8.65825 34.6149 7.32549 35.5585 6.4769C36.4966 5.63352 37.8983 5.65955 38.9578 6.6435C41.43 8.92897 43.8636 11.2509 46.3027 13.5624C47.0808 14.3016 47.3677 15.1815 46.9152 16.1602C46.5234 16.9984 45.8005 17.4513 44.6913 17.4305H44.6969Z" fill="#0E2B72"/>
<path d="M70.7045 17.4355C68.8614 17.4251 67.7687 15.7331 68.5689 14.291C68.7565 13.9579 69.0269 13.6507 69.3139 13.38C71.6205 11.1882 73.9382 9.00688 76.2559 6.82033C76.8243 6.28411 77.4368 5.86762 78.2977 5.88324C80.0746 5.91447 81.1562 7.67413 80.2512 9.12142C80.0249 9.48064 79.7214 9.79821 79.4124 10.095C77.183 12.2138 74.9426 14.3171 72.7076 16.4307C72.1172 16.9878 71.4936 17.4772 70.71 17.4303L70.7045 17.4355Z" fill="#0E2B72"/>
<path d="M60.0095 4.42516C60.0095 5.2321 60.0537 6.04425 59.9985 6.84599C59.9212 7.99653 58.8948 8.88677 57.7194 8.89197C56.544 8.89197 55.4735 8.00694 55.4293 6.8564C55.3686 5.24252 55.3686 3.62863 55.4293 2.01475C55.479 0.82256 56.4723 0 57.7084 0C58.9445 0 59.8826 0.812148 60.0095 2.00434C60.015 2.07202 60.0206 2.1449 60.0206 2.21258C60.0206 2.95184 60.0206 3.6859 60.0206 4.42516C60.0206 4.42516 60.015 4.42516 60.0095 4.42516Z" fill="#0E2B72"/>
<path d="M70.765 88.8988C70.765 90.1275 69.7055 91.127 68.4253 91.0958C67.2278 91.0698 66.1572 90.039 66.1572 88.904C66.1572 87.7691 67.2167 86.7331 68.4142 86.7019C69.6779 86.6706 70.765 87.6858 70.765 88.8936V88.8988Z" fill="#0E2B72"/>
</svg>
