<svg width="79" height="79" viewBox="0 0 79 79" fill="none" xmlns="http://www.w3.org/2000/svg">
<path d="M0.0151537 65.653C0.478741 63.2091 1.27777 60.908 2.77407 58.8814C4.26282 56.8586 6.11717 55.2794 8.37104 54.1702C8.87609 53.922 9.05323 53.7792 8.5218 53.3017C5.61967 50.6885 4.66988 46.5075 6.09456 42.8528C7.50794 39.2282 11.0093 36.8407 14.9178 36.8331C18.8979 36.8256 22.3993 39.1793 23.8353 42.8265C25.2901 46.5187 24.3441 50.6133 21.3816 53.3355C20.9746 53.7115 20.9633 53.8882 21.4721 54.1288C22.8629 54.7793 24.1255 55.6291 25.2185 56.7119C25.6406 57.1293 25.8291 56.9338 26.0628 56.5314C27.6307 53.813 29.8468 51.7826 32.6774 50.4328C33.1183 50.2223 33.1372 50.1057 32.7716 49.7748C29.4134 46.7255 28.5918 42.1647 30.6685 38.2018C32.6623 34.3967 37.1173 32.4077 41.331 33.4379C45.5711 34.4757 48.5675 38.2506 48.5901 42.5595C48.6052 45.4434 47.5197 47.8347 45.3978 49.7636C45.0736 50.0606 44.9719 50.1922 45.4618 50.4253C48.3187 51.7864 50.5538 53.8318 52.1179 56.5841C52.3968 57.0729 52.6229 57.024 52.9772 56.6743C54.0552 55.6178 55.2989 54.7868 56.6633 54.1401C57.1307 53.9183 57.2211 53.7604 56.7877 53.3505C53.9383 50.6359 52.9433 47.3196 54.0853 43.5747C55.2462 39.7659 57.9787 37.5287 61.9249 36.8971C67.3711 36.0248 72.6213 40.5216 72.7042 46.0224C72.7457 48.9063 71.7318 51.3277 69.6475 53.2904C69.1689 53.7416 69.2179 53.8882 69.7682 54.1664C73.4279 56.0051 75.987 58.84 77.3702 62.7015C77.8866 64.1416 78.1919 65.6267 78.1881 67.1683C78.1881 70.1349 78.1693 73.1052 78.2032 76.0718C78.2107 76.9178 77.9394 77.5495 77.2233 77.9894C51.7146 77.9894 26.2097 77.9894 0.701113 78.0044C0.128224 78.0044 -0.00369128 77.8766 7.77216e-05 77.3051C0.0302298 73.4248 0.0151537 69.5408 0.0151537 65.6606V65.653ZM36.0242 74.8837C38.6437 74.8837 41.2632 74.8611 43.8826 74.8987C44.5987 74.91 44.8776 74.7295 44.8437 73.97C44.7872 72.7292 44.8098 71.4847 44.8399 70.2402C44.8588 69.2851 45.5146 68.5896 46.3664 68.5482C47.1918 68.5106 47.8514 69.1009 48.0059 70.0334C48.1567 70.9395 48.0511 71.8569 48.0775 72.7668C48.1454 75.2973 47.5913 74.8235 50.3615 74.8799C50.7987 74.8874 50.9382 74.6844 50.9307 74.2783C50.8628 70.5259 51.0739 66.7697 50.8138 63.0211C50.3125 55.8133 43.1778 50.7148 36.1825 52.5647C30.8155 53.9822 27.3367 58.4791 27.2425 64.2243C27.1897 67.5217 27.2425 70.8192 27.2198 74.1167C27.2161 74.7333 27.4309 74.8987 28.0189 74.8912C30.6873 74.8686 33.3596 74.8799 36.028 74.8799L36.0242 74.8837ZM13.5949 74.8837C16.7985 74.8837 20.0022 74.8686 23.2058 74.8987C23.8654 74.9062 24.0878 74.7258 24.0803 74.0452C24.0501 70.7478 24.0652 67.4503 24.0652 64.1528C24.0652 63.2655 24.02 62.3631 24.2725 61.5058C24.4798 60.7952 24.2499 60.2951 23.7825 59.7951C21.0952 56.9262 17.8086 55.6441 13.8663 55.9223C8.39742 56.3096 3.61079 61.0734 3.22635 66.5178C3.0492 69.0295 3.18866 71.5373 3.10574 74.0452C3.08312 74.7295 3.32434 74.9025 3.98015 74.8987C7.1838 74.8686 10.3875 74.8874 13.5911 74.8874L13.5949 74.8837ZM64.5255 74.8837C67.7555 74.8837 70.9855 74.8686 74.2156 74.895C74.845 74.8987 75.0561 74.7107 75.0448 74.0753C75.0108 72.0449 75.0636 70.0146 75.0222 67.988C74.992 66.593 74.8412 65.2056 74.3852 63.8708C72.7645 59.1371 68.0306 55.4411 62.2678 55.9148C59.0001 56.1855 56.3467 57.5767 54.1946 60.0056C53.8969 60.344 53.6858 60.6975 53.814 61.175C54.0929 62.2165 54.0853 63.2805 54.0853 64.3483C54.0853 67.518 54.0853 70.6914 54.0853 73.861C54.0853 74.5428 54.4384 74.8837 55.1444 74.8837C58.2727 74.8837 61.401 74.8837 64.5292 74.8837H64.5255ZM45.394 42.6422C45.3488 39.1793 42.4579 36.3218 39.0508 36.3669C35.5795 36.412 32.7113 39.2959 32.7565 42.6949C32.8017 46.1578 35.6963 49.0153 39.0997 48.9702C42.571 48.9251 45.4354 46.0412 45.394 42.6422ZM21.2837 46.3157C21.2724 42.8754 18.3966 40.0065 14.9593 40.0178C11.5106 40.0291 8.63487 42.8979 8.64618 46.327C8.65749 49.7673 11.5332 52.6361 14.9706 52.6249C18.4192 52.6136 21.295 49.7448 21.2837 46.3157ZM69.4968 46.4285C69.4893 43.1536 67.1185 40.1419 63.293 40.0404C60.0102 39.9539 56.9912 42.3941 56.8932 46.2104C56.8065 49.4853 59.2526 52.497 63.0782 52.5948C66.361 52.6813 69.3121 50.2373 69.5005 46.4247L69.4968 46.4285Z" fill="#0E2B72"/>
<path d="M30.792 28.8596C31.0256 27.4572 31.2895 25.7539 31.6136 24.0657C31.7041 23.592 31.5759 23.3213 31.248 23.0092C30.1399 21.9639 29.0545 20.8923 27.9652 19.8283C27.2303 19.1064 26.8194 18.2754 27.1699 17.2264C27.5167 16.1887 28.327 15.7262 29.3484 15.572C30.856 15.3464 32.3636 15.1246 33.875 14.9366C34.3311 14.8802 34.61 14.6997 34.806 14.2899C35.4505 12.9401 36.1289 11.6053 36.7734 10.2555C37.2483 9.2591 37.9682 8.5748 39.1064 8.58607C40.2069 8.59735 40.9117 9.27038 41.3753 10.2404C42.0085 11.5677 42.6794 12.8799 43.3051 14.2109C43.5237 14.6696 43.8139 14.8877 44.3415 14.9479C45.8303 15.1171 47.3115 15.3502 48.7927 15.572C49.8104 15.7262 50.632 16.1736 50.9825 17.2114C51.3368 18.2566 50.9411 19.0951 50.2023 19.817C49.1169 20.8848 48.0352 21.9602 46.9195 22.9979C46.5577 23.3325 46.456 23.6371 46.5539 24.1259C46.8366 25.5396 47.0628 26.9684 47.2927 28.3934C47.402 29.0702 47.4811 29.7583 47.1306 30.4012C46.505 31.5593 45.182 31.9654 43.9081 31.3337C42.4947 30.6343 41.104 29.9011 39.717 29.1492C39.2685 28.9048 38.8991 28.8935 38.443 29.1416C37.0598 29.8936 35.6691 30.6343 34.2557 31.3262C32.4842 32.1947 30.758 31.1043 30.7882 28.8634L30.792 28.8596ZM31.3988 18.5461C32.3787 19.55 33.238 20.4449 34.1125 21.321C34.8286 22.0391 35.1188 22.8588 34.9153 23.8777C34.6703 25.0884 34.4931 26.3104 34.2821 27.5474C34.5647 27.5963 34.7268 27.4609 34.9002 27.3707C35.8914 26.8556 36.8789 26.333 37.8702 25.8179C38.673 25.4005 39.4795 25.4005 40.2786 25.8179C40.7987 26.0848 41.3075 26.3743 41.8314 26.63C42.4834 26.9496 43.0902 27.3632 43.878 27.6076C43.7008 26.5623 43.6179 25.5735 43.3578 24.6335C42.9206 23.0543 43.3088 21.821 44.5715 20.7795C45.3403 20.1441 46.015 19.3884 46.8592 18.5649C45.3064 18.3281 43.9646 18.1025 42.6116 17.9295C41.8201 17.828 41.3188 17.4332 40.9834 16.7339C40.4708 15.6585 39.928 14.5982 39.3928 13.5304C39.3175 13.38 39.2835 13.1469 39.0687 13.1544C38.8614 13.1619 38.8275 13.3875 38.7521 13.5417C38.3074 14.4253 37.8325 15.2976 37.4367 16.1999C36.9241 17.373 36.0422 17.9295 34.7871 18.0574C33.6866 18.1701 32.5935 18.3694 31.3912 18.5461H31.3988Z" fill="#FFB400"/>
<path d="M30.1845 12.5931C29.7888 12.6157 29.4081 12.4202 29.0915 12.1081C27.3804 10.4124 25.6579 8.72038 23.9769 6.99081C23.2646 6.25762 23.2985 5.29508 23.943 4.68221C24.5838 4.0731 25.5411 4.0919 26.2647 4.80253C27.9533 6.45314 29.6154 8.13007 31.2813 9.79948C31.8127 10.3334 32.0087 10.9688 31.6996 11.6757C31.432 12.281 30.9383 12.6082 30.1807 12.5931H30.1845Z" fill="#0E2B72"/>
<path d="M47.9487 12.5956C46.6898 12.588 45.9435 11.3661 46.49 10.3246C46.6182 10.0839 46.8029 9.86208 46.9989 9.66657C48.5743 8.08363 50.1573 6.50822 51.7403 4.92905C52.1285 4.54178 52.5468 4.24098 53.1348 4.25226C54.3484 4.27482 55.0872 5.54568 54.469 6.59094C54.3145 6.85038 54.1072 7.07973 53.8961 7.29405C52.3735 8.82434 50.8433 10.3434 49.3168 11.8699C48.9135 12.2722 48.4876 12.6256 47.9524 12.5918L47.9487 12.5956Z" fill="#0E2B72"/>
<path d="M40.6457 3.19985C40.6457 3.78264 40.6758 4.36919 40.6382 4.94822C40.5854 5.77917 39.8844 6.42212 39.0816 6.42588C38.2788 6.42588 37.5476 5.78669 37.5174 4.95574C37.476 3.79016 37.476 2.62458 37.5174 1.459C37.5513 0.597976 38.2298 0.00390625 39.074 0.00390625C39.9183 0.00390625 40.559 0.590456 40.6457 1.45148C40.6495 1.50036 40.6532 1.553 40.6532 1.60188C40.6532 2.13579 40.6532 2.66594 40.6532 3.19985C40.6532 3.19985 40.6495 3.19985 40.6457 3.19985Z" fill="#0E2B72"/>
<path d="M47.9909 64.2102C47.9909 65.0976 47.2672 65.8195 46.3928 65.7969C45.5749 65.7781 44.8438 65.0337 44.8438 64.214C44.8438 63.3943 45.5674 62.6461 46.3853 62.6236C47.2484 62.601 47.9909 63.3342 47.9909 64.2065V64.2102Z" fill="#0E2B72"/>
</svg>
