<svg width="87" height="100" viewBox="0 0 87 100" fill="none" xmlns="http://www.w3.org/2000/svg">
<path d="M0 30.9197C0.175507 29.9321 0.324426 28.9338 0.526525 27.9515C0.74458 26.8842 1.48383 26.3108 2.35605 26.4754C3.28145 26.6506 3.79203 27.4311 3.58461 28.5674C3.0049 31.679 2.97299 34.764 3.77075 37.8436C5.9247 46.18 13.5513 52.1217 22.0927 52.3765C31.1978 52.6526 40.1806 46.2862 41.941 35.9799C43.095 29.2259 44.3236 22.4824 45.5575 15.7443C45.7117 14.9107 45.4617 14.6664 44.6853 14.5284C34.9526 12.808 25.2199 11.0611 15.4872 9.31946C13.1205 8.89468 10.7432 8.51238 8.38181 8.0345C7.49364 7.85396 7.23303 8.18317 7.09475 8.96902C6.3289 13.3549 5.53115 17.7302 4.75466 22.1107C4.60042 22.9869 4.26005 23.6771 3.26019 23.7568C2.14864 23.8523 1.42001 22.9815 1.63275 21.7815C2.38796 17.4647 3.16445 13.1478 3.93562 8.83096C3.98348 8.57609 4.02603 8.32122 4.06858 8.06104C4.49405 5.50173 6.00447 4.43446 8.56795 4.8911C16.1254 6.23448 23.6776 7.58316 31.235 8.93716C31.8785 9.05397 32.4104 9.03804 32.9103 8.49645C35.5216 5.63447 38.835 4.25924 42.6536 3.93534C45.3394 3.70702 48.0146 3.42029 50.6897 3.1548C50.7908 2.75657 50.4504 2.60789 50.3334 2.36364C50.009 1.67868 50.0196 1.02027 50.5727 0.47867C51.1578 -0.094787 51.8811 -0.153195 52.5352 0.314067C53.1096 0.72823 53.6149 1.24859 54.1201 1.75833C54.4871 2.1247 54.7477 2.13001 55.0455 1.68399C55.3327 1.2539 55.6305 0.813187 56.0028 0.457431C56.5932 -0.105406 57.3112 -0.147885 57.9653 0.324686C58.5716 0.765398 58.8641 1.4185 58.4865 2.11939C58.0451 2.9371 58.3908 2.99551 59.1035 3.01675C64.1453 3.16011 69.1765 3.41498 74.1758 4.14242C75.1438 4.28579 76.1011 4.48756 76.9999 4.88048C77.8881 5.26279 78.2604 6.0274 77.9998 6.8451C77.7445 7.63626 76.9042 8.10883 76.0426 7.83272C73.3781 6.97785 70.6019 6.88758 67.8576 6.6274C63.321 6.19731 58.7578 6.08049 54.2052 6.22917C49.7856 6.37784 45.3713 6.66457 40.9996 7.37608C39.4945 7.62033 38.1543 8.27344 36.9097 9.14424C36.7076 9.2876 36.3673 9.39911 36.4364 9.69646C36.5056 9.97788 36.8512 9.94602 37.1012 9.99381C40.0157 10.5142 42.9302 11.0239 45.8394 11.5549C48.0731 11.9637 49.1261 13.4717 48.7538 15.6965C48.4773 17.3532 48.1901 19.0045 48.089 20.7567C48.3975 20.401 48.6953 20.0399 49.0091 19.6948C49.9239 18.6859 50.9344 18.4523 52.0619 19.1638C56.8112 22.1745 62.1456 23.2417 67.6129 23.8789C70.2615 24.1869 72.926 24.3621 75.5905 24.4524C77.1222 24.5055 77.904 25.2382 78.0902 26.7674C78.1274 27.0913 78.1487 27.4152 78.1487 27.7391C78.1008 33.0064 78.255 38.2737 78.0742 43.5357C78.0742 43.5888 78.1274 43.6419 78.1859 43.7587C79.4623 42.8614 80.2282 41.6454 80.4143 40.1428C80.9249 35.9215 81.3663 31.6896 81.8397 27.463C82.1322 24.8506 82.3875 22.2329 82.7225 19.6204C83.1108 16.5408 82.5045 13.7425 80.6058 11.2522C80.5047 11.1248 80.4037 10.9974 80.3133 10.8646C79.6963 9.96195 79.7761 9.09645 80.5313 8.53893C81.2227 8.02388 82.1322 8.16193 82.781 8.93716C84.451 10.9283 85.4296 13.2222 85.871 15.7868C86.2646 18.0859 85.7912 20.3213 85.5625 22.5727C85.1105 26.9639 84.5946 31.3498 84.1 35.7356C83.9032 37.4773 83.7968 39.2401 83.4724 40.9552C82.9352 43.78 81.3291 45.888 78.6965 47.1039C77.8987 47.4703 77.5105 47.9588 77.2871 48.7818C76.5532 51.5216 75.2448 53.9854 73.3993 56.1358C72.8675 56.7571 72.9898 57.0332 73.6706 57.3306C75.8511 58.281 78.0051 59.2686 79.6591 61.0846C81.7014 63.32 82.8661 65.9377 82.8874 68.9324C82.9512 78.1343 82.9193 87.3362 82.9086 96.538C82.9086 98.2212 82.0577 99.3522 80.526 100H69.7828C69.0595 99.5062 68.7085 98.8425 69.0063 97.9876C69.3042 97.1486 70.0168 96.9893 70.8252 96.9947C73.394 97.0106 75.9681 96.9681 78.5369 97.0159C79.4304 97.0318 79.7282 96.7451 79.7229 95.8477C79.6963 86.9114 79.7389 77.9697 79.6857 69.0333C79.6644 65.5395 77.9147 62.9908 74.8566 61.3554C73.5961 60.681 72.2559 60.1607 70.9742 59.5288C70.4689 59.2792 70.0807 59.3376 69.6339 59.6669C68.2883 60.6492 66.863 61.4934 65.2888 62.0616C64.6559 62.2899 64.475 62.6934 64.4804 63.32C64.4804 64.2917 64.4538 65.2687 64.3687 66.2404C64.0655 69.8139 61.1617 72.3891 57.5132 72.3573C54.0403 72.3254 51.1737 69.6174 50.9503 66.1395C50.8918 65.2315 50.8333 64.3235 50.8546 63.4156C50.8652 62.7094 50.6685 62.2687 49.9505 62.0191C48.4347 61.4881 47.0626 60.6651 45.7755 59.7253C45.2703 59.3536 44.8395 59.2792 44.2651 59.5766C43.1376 60.1554 41.9676 60.6492 40.8241 61.2067C37.3937 62.8793 35.628 65.6138 35.628 69.4369C35.6174 78.1821 35.628 86.922 35.628 95.6672C35.628 97.0053 35.6333 97.0053 37.0002 97.0053C46.0149 97.0053 55.0296 97.0053 64.0443 97C64.8739 97 65.6238 97.0955 65.9961 97.9557C66.3737 98.8372 65.8844 99.4425 65.2888 100H34.809C33.1922 99.315 32.421 98.0991 32.421 96.3416C32.4316 87.3043 32.3572 78.267 32.4529 69.2351C32.5061 64.4138 34.8303 60.8297 39.0956 58.5412C39.9519 58.0792 40.8507 57.6916 41.7442 57.2987C42.3292 57.0438 42.4888 56.7783 42.0101 56.2314C40.4944 54.5004 39.3562 52.5305 38.5797 50.3747C38.2766 49.5358 38.0319 49.573 37.4097 50.1092C33.9261 53.0774 29.9107 54.8721 25.3529 55.3872C24.6561 55.4668 24.4221 55.8279 24.3158 56.4438C23.9009 58.8438 23.4967 61.2439 23.0127 63.6333C22.8319 64.5253 22.9755 64.9289 23.9488 65.0457C24.9114 65.1625 25.4379 65.8846 25.3582 66.7129C25.2784 67.5572 24.6455 68.0669 23.6456 68.0776C23.4489 68.0776 23.2521 68.0882 23.0606 68.0563C22.4437 67.9661 22.1937 68.2369 22.1033 68.8422C21.9012 70.159 21.63 71.4599 21.3906 72.7714C20.7365 76.3821 20.1514 80.0033 19.4069 83.5981C18.774 86.6459 15.8701 88.4671 12.7642 87.9415C9.8816 87.453 7.71169 84.6229 8.17971 81.6547C8.95088 76.7803 9.83374 71.9272 10.7538 67.0793C10.9506 66.0492 10.674 65.7094 9.72205 65.5076C8.45627 65.2421 7.89783 64.4244 8.16907 63.4687C8.43499 62.5395 9.24339 62.1359 10.4507 62.497C11.3282 62.7572 11.5782 62.4439 11.7111 61.6315C12.0887 59.2899 12.4876 56.9536 12.961 54.6332C13.1365 53.7836 12.9503 53.3588 12.1632 52.95C7.94038 50.7517 4.75466 47.5074 2.5422 43.2915C1.14878 40.6366 0.420153 37.7905 0.0319091 34.8436C0.0319091 33.5427 0.0319091 32.2418 0.0319091 30.9409L0 30.9197ZM74.9576 36.6755C74.9576 33.6648 74.9204 31.1958 74.9789 28.7267C75.0002 27.8188 74.6598 27.4842 73.8089 27.4842C71.7879 27.4896 69.7828 27.2931 67.7778 27.0754C62.1456 26.4648 56.641 25.4081 51.6417 22.5621C51.1205 22.2647 50.8387 22.3922 50.4876 22.7904C49.6899 23.6984 48.7964 24.5161 47.738 25.1108C47.169 25.4294 46.9084 25.8648 46.802 26.4807C46.3393 29.1674 45.8074 31.8436 45.3873 34.5409C44.7704 38.5339 43.7279 42.3729 41.3134 45.6968C40.7815 46.4242 40.7549 47.0455 40.9943 47.8526C43.5737 56.5394 51.9821 61.7217 60.9224 60.1023C68.2086 58.7801 74.1333 52.2969 74.8087 45.0065C75.08 42.049 74.8459 39.0914 74.9576 36.6755ZM11.2059 82.0476C11.1953 83.5078 12.0994 84.591 13.3864 84.8512C14.5352 85.0795 15.8223 84.3149 16.2318 83.1308C16.3807 82.706 16.4552 82.2494 16.5403 81.8034C16.971 79.4086 17.3912 77.0086 17.8167 74.6086C18.8963 68.5661 19.9653 62.5235 21.0769 56.4916C21.2258 55.6898 20.9705 55.4084 20.2312 55.3872C19.2473 55.3553 18.3006 55.127 17.3486 54.9093C16.0935 54.6226 16.1095 54.6119 15.8914 55.8544C14.7479 62.2793 13.5938 68.7041 12.4451 75.129C12.0196 77.4918 11.5995 79.86 11.2059 82.0529V82.0476ZM61.284 64.8333C61.284 64.7058 61.2627 64.5731 61.284 64.4457C61.4595 63.4634 61.0287 63.1872 60.1086 63.3784C58.795 63.6492 57.4548 63.6067 56.1305 63.5111C53.801 63.3465 53.801 63.32 53.9925 65.6881C54.1892 68.12 56.2368 69.6599 58.5344 69.097C60.348 68.6563 61.2734 67.2121 61.2787 64.8333H61.284Z" fill="#0E2B72"/>
<path d="M22.0606 47.371C15.1201 47.3498 9.79639 41.2329 10.6899 34.3143C10.9026 32.6682 12.0727 32.0842 13.4714 32.9974C16.2902 34.8293 19.2951 36.1674 22.651 36.6134C25.4165 36.9798 28.1662 36.847 30.8892 36.2417C32.9846 35.7745 33.7984 36.6028 33.2931 38.6895C32.0592 43.771 27.379 47.3923 22.0553 47.371H22.0606ZM22.0713 44.1958C25.0177 44.2064 27.3312 42.9798 29.049 40.6011C29.1926 40.3993 29.4479 40.1763 29.283 39.9108C29.1235 39.6506 28.8044 39.7674 28.5597 39.794C23.7413 40.378 19.178 39.5338 14.8329 37.4046C14.5829 37.2824 14.2958 36.9851 14.0405 37.2028C13.7639 37.4417 13.9607 37.8081 14.0405 38.1161C14.9765 41.6789 18.2633 44.1639 22.0659 44.1905L22.0713 44.1958Z" fill="#FFB400"/>
<path d="M14.876 25.4929C11.4243 25.4929 9.01509 23.3265 8.78108 20.2415C8.57898 17.5601 10.6691 15.0539 13.5251 14.5601C14.0091 14.4751 14.4984 14.4592 14.9823 14.5601C17.3224 15.0326 19.3275 16.1371 20.8858 17.9371C22.8961 20.2575 22.3909 22.7849 19.6944 24.2451C18.1149 25.1 16.3917 25.3973 14.876 25.4929ZM14.7909 22.2911C15.9184 22.3177 16.982 22.0522 17.9925 21.5796C19.0296 21.0964 19.1307 20.6344 18.3648 19.8167C17.4128 18.8026 16.2322 18.1176 14.8919 17.7619C14.1846 17.5707 13.4772 17.6663 12.8709 18.1654C12.0891 18.8079 11.7807 19.7796 12.0838 20.6929C12.4455 21.7814 13.3283 22.2964 14.7909 22.2911Z" fill="#FFB400"/>
<path d="M40.4777 23.6824C40.483 27.0913 37.2654 29.7621 33.9414 29.024C31.4098 28.4612 29.2931 27.1656 27.8412 24.9727C26.6498 23.1673 26.969 21.2611 28.74 20.008C31.0163 18.3938 33.5957 17.8151 36.34 18.4151C38.7492 18.9407 40.4777 21.2346 40.483 23.6877L40.4777 23.6824ZM34.4041 21.3886C33.2181 21.4045 32.0853 21.6381 31.0322 22.2063C30.3355 22.5833 30.1972 23.0452 30.7556 23.6771C31.7555 24.8027 32.9894 25.5674 34.4413 25.9231C36.0102 26.3107 37.3824 25.0842 37.2654 23.4753C37.1643 22.0894 36.1751 21.3673 34.4041 21.3886Z" fill="#FFB400"/>
<path d="M68.8673 85.3873C67.6334 85.3873 66.3942 85.3979 65.1604 85.3873C63.8467 85.3713 63.1021 84.7979 63.0862 83.8209C63.0702 82.8386 63.8201 82.212 65.1072 82.2014C67.6441 82.1855 70.181 82.1855 72.7178 82.2014C73.9464 82.2067 74.6644 82.8014 74.6803 83.7678C74.6963 84.766 73.957 85.3713 72.6753 85.3873C71.4042 85.4032 70.1384 85.3873 68.8673 85.3873Z" fill="#0E2B72"/>
<path d="M57.6848 46.6573C59.126 46.6148 60.4503 47.029 61.6736 47.7564C62.583 48.298 62.8596 49.2007 62.4075 49.9918C61.982 50.7405 61.1258 50.9794 60.2004 50.4856C58.4825 49.567 56.8125 49.5405 55.0947 50.4963C54.1906 51.0007 53.3237 50.7511 52.8876 49.9971C52.4249 49.1847 52.6801 48.3192 53.6002 47.767C54.8501 47.013 56.2062 46.6042 57.6848 46.6626V46.6573Z" fill="#0E2B72"/>
<path d="M66.2555 38.2629C66.2715 39.3673 65.6599 40.1054 64.7079 40.1426C63.7186 40.1797 63.0698 39.4417 63.0645 38.2682C63.0645 37.1585 63.6708 36.3939 64.5962 36.3567C65.5322 36.3195 66.2449 37.1372 66.2555 38.2629Z" fill="#0E2B72"/>
<path d="M52.2112 38.2839C52.2058 39.4202 51.6102 40.137 50.6635 40.1476C49.6743 40.1582 49.0201 39.4096 49.0254 38.252C49.0254 37.1848 49.6955 36.383 50.5997 36.3617C51.557 36.3405 52.2218 37.1264 52.2165 38.2839H52.2112Z" fill="#0E2B72"/>
</svg>
