<svg width="75" height="62" viewBox="0 0 75 62" fill="none" xmlns="http://www.w3.org/2000/svg">
<path d="M49.882 61.767C49.9174 61.6826 49.8555 61.6649 49.7982 61.6383C49.3434 61.4208 49.1359 61.0481 49.1359 60.5467C49.1359 57.8311 49.1359 55.111 49.1359 52.3954C49.1359 50.9178 48.3148 49.6709 46.9551 49.1074C46.5224 48.9299 46.0589 48.8589 45.5953 48.8589C40.1652 48.8544 34.7351 48.85 29.3094 48.8589C28.4043 48.8589 27.57 49.1162 26.9033 49.7596C26.1705 50.4696 25.7555 51.326 25.7555 52.3688C25.7555 55.0666 25.7555 57.7645 25.7555 60.4668C25.7555 61.0304 25.5436 61.4342 25.0315 61.6693C24.9697 61.696 24.9255 61.7181 25.0094 61.7714H24.1309C24.1662 61.6871 24.1044 61.6693 24.047 61.6427C23.5923 61.4253 23.3848 61.0525 23.3848 60.5511C23.3848 57.8044 23.3848 55.0533 23.3848 52.3066C23.3848 49.9637 24.9608 47.7096 27.1506 46.8887C27.8525 46.6269 28.5721 46.4805 29.327 46.4805C34.7571 46.4849 40.1873 46.4805 45.6174 46.4805C46.9816 46.4805 48.2133 46.9109 49.2728 47.7673C50.4515 48.7213 51.1623 49.9726 51.4228 51.4769C51.4934 51.8718 51.4934 52.2667 51.4934 52.6661C51.4934 55.2752 51.4934 57.8799 51.4934 60.489C51.4934 61.0437 51.2727 61.443 50.7694 61.6738C50.7076 61.7004 50.6635 61.7226 50.7473 61.7758H49.8688L49.882 61.767Z" fill="#FFB400"/>
<path d="M73.2893 61.7664C73.3246 61.6821 73.2628 61.6644 73.2054 61.6378C72.7507 61.4203 72.5432 61.0476 72.5432 60.5462C72.5432 59.783 72.5432 59.0153 72.5432 58.2521C72.5432 56.8011 71.7132 55.5409 70.3755 54.9907C69.9164 54.7999 69.422 54.7333 68.9275 54.7333C63.9433 54.7333 58.959 54.7333 53.9748 54.7333C53.7099 54.7333 53.4539 54.7023 53.2199 54.5647C52.7828 54.3029 52.5533 53.7704 52.668 53.2868C52.7961 52.7454 53.2199 52.3993 53.8026 52.3638C53.8865 52.3594 53.9748 52.3594 54.0587 52.3594C58.9944 52.3594 63.93 52.3638 68.8657 52.3594C70.2696 52.3594 71.5543 52.7365 72.6403 53.6151C74.0795 54.7733 74.8521 56.3086 74.9051 58.1767C74.9271 58.9709 74.9183 59.7697 74.9051 60.5639C74.8962 61.0698 74.6667 61.4514 74.1987 61.6733C74.1458 61.6999 74.0619 61.7088 74.1634 61.7798H73.2849L73.2893 61.7664Z" fill="#0E2B72"/>
<path d="M0 57.1419C0.0220737 57.2084 0.0441442 57.275 0.0794621 57.3815C0.136854 56.9067 0.247231 56.4851 0.419406 56.0813C1.30677 53.9914 2.89166 52.7889 5.10786 52.4028C5.44338 52.3451 5.78772 52.354 6.12766 52.354C11.0766 52.354 16.0255 52.354 20.9744 52.354C21.4865 52.354 21.8927 52.5404 22.1267 53.0107C22.5152 53.7917 21.9942 54.6747 21.1245 54.728C21.023 54.7324 20.917 54.728 20.8155 54.728C15.8621 54.728 10.9044 54.728 5.95106 54.728C4.97982 54.728 4.09686 55.0119 3.40375 55.7308C2.73712 56.4274 2.35305 57.2528 2.36187 58.2379C2.36187 58.9966 2.36187 59.7554 2.36187 60.5142C2.36187 61.0467 2.13232 61.4238 1.65553 61.659C1.61579 61.6812 1.50541 61.6812 1.61578 61.7655H0.737254C0.776987 61.6679 0.693119 61.6546 0.640143 61.628C0.397332 61.4993 0.216318 61.3085 0.105949 61.0555C0.079461 60.9934 0.0706401 60.9269 0.00441905 60.8869C0.00441905 59.64 0.00441905 58.3887 0.00441905 57.1419H0Z" fill="#0E2B72"/>
<path d="M22.2504 41.7353C22.2416 42.4142 22.2725 43.0399 22.2107 43.6611C22.0871 44.9035 21.7207 46.0617 21.0894 47.1399C20.2683 48.5421 19.1292 49.5938 17.6856 50.3215C16.6879 50.8229 15.6284 51.098 14.5158 51.169C12.0524 51.3243 9.97306 50.4502 8.23365 48.7418C6.92689 47.455 6.18523 45.8576 5.9071 44.0383C5.84088 43.6123 5.83203 43.1863 5.83203 42.7559C5.83203 42.0193 5.83203 41.2871 5.83203 40.5506C5.84086 39.0108 6.26029 37.5864 7.0726 36.2908C8.47207 34.0499 10.5161 32.772 13.1031 32.4259C14.975 32.1774 16.7453 32.59 18.3478 33.6106C20.4448 34.9463 21.6854 36.8676 22.1313 39.317C22.2814 40.1379 22.2196 40.9632 22.2416 41.7353H22.2504ZM8.20277 41.8507C8.2116 42.4453 8.16303 43.0709 8.24691 43.6922C8.46764 45.3473 9.24023 46.6829 10.5735 47.6813C11.814 48.6131 13.2223 48.9149 14.7498 48.764C16.0433 48.6353 17.1514 48.094 18.0785 47.2021C19.2484 46.0839 19.84 44.6906 19.8709 43.0754C19.8886 42.0992 19.9195 41.1185 19.8488 40.1379C19.7252 38.4384 18.9791 37.0628 17.6636 36.0023C16.5069 35.0705 15.1692 34.6933 13.6903 34.7688C12.7632 34.8176 11.8979 35.0572 11.1077 35.532C9.57132 36.4505 8.62657 37.795 8.29546 39.5655C8.15861 40.3109 8.2116 41.0653 8.19835 41.8462L8.20277 41.8507Z" fill="#0E2B72"/>
<path d="M69.0606 41.7988C69.0517 42.4244 69.087 43.0501 69.0252 43.6713C68.9016 44.9049 68.544 46.0675 67.9083 47.1324C66.606 49.3244 64.6811 50.6334 62.1912 51.0727C59.7322 51.5076 57.5381 50.8464 55.6221 49.2668C53.9312 47.8734 53.0042 46.0453 52.6995 43.8887C52.673 43.6891 52.6598 43.485 52.6554 43.2853C52.651 42.3224 52.6333 41.3639 52.6554 40.401C52.6863 38.919 53.1101 37.539 53.8915 36.2877C55.2601 34.1001 57.2511 32.8266 59.7808 32.4494C61.8115 32.1477 63.7011 32.6091 65.3963 33.7628C67.2329 35.0097 68.3763 36.7491 68.8707 38.9279C69.0561 39.7488 69.0561 40.5785 69.0517 41.4083C69.0517 41.537 69.0517 41.6657 69.0517 41.7943L69.0606 41.7988ZM55.0173 41.8831C55.0393 42.3668 54.9996 42.917 55.0438 43.4672C55.1541 44.8339 55.6839 46.0098 56.6154 46.9993C57.6087 48.0509 58.8316 48.6677 60.2796 48.7831C61.1052 48.8496 61.9263 48.8008 62.7166 48.5302C65.0255 47.7403 66.6854 45.6193 66.6943 42.9392C66.6943 42.1493 66.6987 41.3595 66.6943 40.5697C66.6854 39.6644 66.5 38.7947 66.085 37.9871C64.871 35.6088 62.4693 34.4284 59.8426 34.8411C58.8316 35.0008 57.9354 35.4224 57.1496 36.0791C56.0547 36.9932 55.3704 38.1558 55.1144 39.5668C54.9819 40.3123 55.0261 41.0666 55.0173 41.8831Z" fill="#0E2B72"/>
<path d="M45.6581 35.8612C45.6493 36.5356 45.6802 37.1613 45.6184 37.7869C45.4948 39.0338 45.1328 40.2053 44.4882 41.2835C43.1859 43.4622 41.2655 44.7579 38.7932 45.1972C36.3342 45.6321 34.1445 44.9754 32.2241 43.4001C30.6833 42.1355 29.7695 40.4804 29.3766 38.528C29.2795 38.0399 29.2441 37.5473 29.2441 37.0504C29.2441 36.2871 29.2441 35.5195 29.2441 34.7563C29.2574 32.7639 29.8975 30.9934 31.1645 29.467C32.5596 27.7853 34.3785 26.8135 36.5329 26.5517C38.4003 26.321 40.1618 26.7203 41.7599 27.7409C43.8569 29.0765 45.0975 30.9979 45.5433 33.4428C45.6934 34.2637 45.6316 35.0891 45.6537 35.8612H45.6581ZM31.6104 35.9765C31.6193 36.5711 31.5707 37.1968 31.6546 37.818C31.8753 39.4731 32.6479 40.8087 33.9811 41.8071C35.2217 42.739 36.63 43.0451 38.1575 42.8898C39.4466 42.7612 40.5459 42.2287 41.473 41.3412C42.6429 40.2275 43.2477 38.8386 43.2786 37.2234C43.3007 36.2383 43.3272 35.2532 43.2565 34.2682C43.1329 32.5687 42.3868 31.1931 41.0712 30.1326C39.9146 29.2008 38.5769 28.8236 37.098 28.899C36.1709 28.9478 35.3056 29.1875 34.5153 29.6623C32.979 30.5808 32.0343 31.9253 31.7032 33.6958C31.5663 34.4412 31.6193 35.1956 31.606 35.9765H31.6104Z" fill="#FFB400"/>
<path d="M38.6589 4.07679C38.6148 4.16997 38.6324 4.24541 38.6324 4.31641C38.6324 7.95942 38.6324 11.598 38.6324 15.241C38.6324 15.8489 38.3013 16.2838 37.7274 16.4391C37.0387 16.6255 36.3102 16.0974 36.2705 15.383C36.2661 15.2898 36.2705 15.2011 36.2705 15.1079C36.2705 11.527 36.2705 7.94611 36.2705 4.36521C36.2705 4.28091 36.2705 4.1966 36.2705 4.10342C36.1778 4.09454 36.1469 4.16554 36.1027 4.20991C35.2949 5.02637 34.4914 5.84283 33.6835 6.6593C33.3524 6.99653 32.955 7.14296 32.4871 7.02315C31.6041 6.79242 31.2995 5.70084 31.9441 5.03525C32.6725 4.28534 33.4142 3.55319 34.1514 2.81216C34.9593 2.00457 35.7761 1.20586 36.5663 0.380524C37.0475 -0.125328 37.8598 -0.116454 38.341 0.376086C39.82 1.8892 41.3166 3.3757 42.8087 4.87107C42.9588 5.02194 43.109 5.1728 43.2061 5.37248C43.4356 5.85615 43.3253 6.42412 42.9235 6.7791C42.5174 7.13853 41.9258 7.17846 41.4843 6.88116C41.3651 6.80129 41.268 6.70367 41.1665 6.60605C40.3674 5.78959 39.5463 4.99531 38.7604 4.16554C38.7339 4.13891 38.7075 4.11673 38.6633 4.08567L38.6589 4.07679Z" fill="#0E2B72"/>
<path d="M23.4473 9.95148C23.4032 10.0447 23.4208 10.1201 23.4208 10.1911C23.4208 13.8341 23.4208 17.4727 23.4208 21.1157C23.4208 21.7236 23.0897 22.1585 22.5114 22.3138C21.8227 22.5002 21.0943 21.9721 21.0545 21.2533C21.0501 21.1601 21.0545 21.0713 21.0545 20.9782C21.0545 17.3973 21.0545 13.8164 21.0545 10.2355V9.9781C20.9574 9.96035 20.9309 10.0358 20.8868 10.0757C20.0833 10.8877 19.2798 11.6998 18.4807 12.5162C18.1496 12.8535 17.7567 13.0088 17.2887 12.8978C16.3925 12.6849 16.0791 11.58 16.7325 10.9055C17.4609 10.1556 18.2026 9.42344 18.9398 8.68241C19.7433 7.87482 20.5645 7.07611 21.3547 6.25077C21.8403 5.74936 22.6394 5.74492 23.1295 6.25077C24.6084 7.75945 26.105 9.25038 27.6016 10.7458C27.8885 11.0342 28.1269 11.3359 28.1137 11.7796C28.096 12.2411 27.8885 12.5872 27.4868 12.8047C27.0851 13.0221 26.6789 12.9999 26.2904 12.7603C26.1624 12.6849 26.0608 12.5784 25.9593 12.4719C25.1602 11.6554 24.3391 10.8656 23.5533 10.0314C23.5268 10.0047 23.5003 9.98698 23.4561 9.95148H23.4473Z" fill="#0E2B72"/>
<path d="M51.4799 9.9562C51.1885 10.2358 50.9148 10.4931 50.6544 10.7549C50.0495 11.3584 49.4535 11.9752 48.8487 12.5742C48.5044 12.9114 48.0894 13.0312 47.6214 12.8715C47.1667 12.7162 46.8974 12.3834 46.8179 11.9086C46.7517 11.4959 46.9062 11.1543 47.1932 10.8614C48.1688 9.88521 49.1401 8.90456 50.1158 7.92836C50.672 7.36926 51.2371 6.82347 51.7801 6.25106C52.2569 5.74965 53.0604 5.74965 53.5548 6.25106C55.0338 7.75974 56.5304 9.25067 58.027 10.746C58.3139 11.0345 58.5523 11.3406 58.5347 11.7799C58.517 12.237 58.3139 12.5786 57.921 12.7961C57.5149 13.0224 57.1043 13.0002 56.707 12.7561C56.5878 12.6807 56.4862 12.5831 56.3891 12.481C55.5856 11.669 54.7865 10.8525 53.9831 10.0405C53.9522 10.0094 53.9301 9.97395 53.8771 9.96951C53.8285 10.0316 53.855 10.1071 53.855 10.1781C53.855 13.8211 53.855 17.4597 53.855 21.1027C53.855 21.7195 53.5328 22.1543 52.9588 22.3096C52.2613 22.5049 51.5285 21.9724 51.4887 21.2491C51.4887 21.1648 51.4887 21.0761 51.4887 20.9918C51.4887 17.4109 51.4887 13.83 51.4887 10.2491C51.4887 10.1603 51.4887 10.0671 51.4887 9.95177L51.4799 9.9562Z" fill="#0E2B72"/>
</svg>
