<svg width="118" height="101" viewBox="0 0 118 101" fill="none" xmlns="http://www.w3.org/2000/svg">
<path d="M40.6851 100.001C40.7434 99.9684 40.7952 99.9295 40.8794 99.8842C40.1929 99.5798 39.7655 99.0811 39.6295 98.3558C39.5971 98.168 39.5906 97.9802 39.5906 97.7859C39.5906 94.8068 39.5647 91.8342 39.5906 88.8551C39.6424 84.2116 41.1514 80.0863 44.111 76.4984C46.9282 73.0789 50.5614 70.9806 54.8357 69.9574C56.9599 69.4458 59.123 69.3616 61.299 69.653C63.5074 69.9509 65.6252 70.5403 67.6069 71.5376C71.0135 73.2473 73.6687 75.7795 75.6375 79.0501C76.9911 81.3038 77.7617 83.7454 78.1438 86.3294C78.3122 87.4757 78.351 88.622 78.351 89.7748C78.351 92.4041 78.3446 95.0335 78.351 97.6628C78.351 98.6084 78.0661 99.3726 77.1659 99.813C77.0817 99.8583 77.0363 99.9036 77.1205 99.9878H40.6915L40.6851 100.001ZM58.9417 96.1604C63.9673 96.1604 68.9993 96.1604 74.0249 96.1604C74.4652 96.1604 74.4718 96.1604 74.4718 95.72C74.4718 93.9649 74.4782 92.2034 74.4782 90.4483C74.4782 89.1077 74.4912 87.7671 74.2774 86.433C73.6687 82.5796 71.8424 79.3868 68.8503 76.9453C64.291 73.2149 59.1166 72.4572 53.5988 74.3418C49.9267 75.5982 47.2067 78.0916 45.3221 81.4851C44.0139 83.849 43.4569 86.4071 43.4504 89.0947C43.4504 91.2967 43.4504 93.5051 43.4504 95.707C43.4504 96.1668 43.4505 96.1668 43.9168 96.1668C48.9229 96.1668 53.9291 96.1668 58.9352 96.1668L58.9417 96.1604Z" fill="#0E2B72"/>
<path d="M1.16707 99.9992C1.22536 99.8762 1.16705 99.8179 1.06343 99.7596C0.312183 99.3645 0.0272435 98.691 0.0272435 97.8944C0.0337197 95.006 -0.0763799 92.1176 0.104955 89.2356C0.292767 86.1918 1.3743 83.4329 3.18118 80.9784C5.83645 77.3647 9.44373 75.2469 13.8282 74.4762C16.5288 74.0035 19.184 74.3597 21.7551 75.2858C23.562 75.9399 25.194 76.9048 26.6576 78.1483C29.4489 80.5186 31.2364 83.5042 32.0589 87.0661C32.292 88.0699 32.4215 89.0932 32.428 90.1229C32.441 92.7523 32.4409 95.3816 32.4474 98.0175C32.4474 98.8399 32.0718 99.4228 31.3529 99.8049C31.2817 99.8438 31.068 99.8438 31.2752 99.9992H1.16707ZM16.179 96.1652C16.179 96.1652 16.179 96.1653 16.179 96.1588C20.1749 96.1588 24.1772 96.1588 28.1731 96.1588C28.484 96.1588 28.5746 96.0681 28.5681 95.7572C28.5487 94.8376 28.5681 93.918 28.5552 93.0048C28.5358 91.7161 28.6264 90.4338 28.5034 89.145C28.212 86.2048 26.975 83.7049 24.8767 81.6584C22.0401 78.8995 18.6012 77.7986 14.696 78.2454C11.3413 78.6275 8.62773 80.2272 6.51647 82.8501C4.7096 85.0908 3.92596 87.7008 3.88063 90.5503C3.85472 92.1953 3.88063 93.8403 3.88063 95.4852C3.88063 96.1653 3.88061 96.1588 4.55415 96.1588C8.42695 96.1588 12.3062 96.1588 16.179 96.1588V96.1652Z" fill="#0E2B72"/>
<path d="M86.6537 100.001C86.6861 99.9172 86.6861 99.8525 86.589 99.8071C85.5722 99.3409 85.4297 98.4471 85.4556 97.4692C85.5139 95.2738 85.4945 93.0848 85.4556 90.8893C85.4232 89.0954 85.6823 87.3403 86.2522 85.6371C87.6964 81.3174 90.4359 78.0922 94.49 76.0328C97.1518 74.6792 99.9949 74.0834 102.98 74.336C106.652 74.6469 109.852 76.0911 112.578 78.565C115.272 81.0065 116.93 84.0439 117.623 87.6123C117.772 88.383 117.869 89.1602 117.863 89.9438C117.863 92.3983 117.863 94.8463 117.863 97.3008C117.863 97.5469 117.889 97.793 117.882 98.0391C117.856 98.9393 117.494 99.4639 116.619 99.8913C116.632 99.9755 116.723 99.9496 116.762 100.001H86.6537ZM101.75 96.161C105.545 96.161 109.34 96.161 113.135 96.161C113.336 96.161 113.543 96.1416 113.737 96.1804C114.022 96.2387 114.055 96.1092 114.055 95.876C114.048 94.8787 114.055 93.8814 114.055 92.8905C114.055 91.6276 114.12 90.3583 113.977 89.1019C113.679 86.4401 112.604 84.1152 110.797 82.1399C107.3 78.3189 101.892 77.2115 97.2165 78.9859C92.5666 80.7475 89.4061 85.2809 89.3608 90.2352C89.3479 92.068 89.3673 93.9073 89.3543 95.7401C89.3543 96.0833 89.4515 96.174 89.7883 96.174C93.7776 96.161 97.7605 96.1675 101.75 96.174V96.161Z" fill="#0E2B72"/>
<path d="M58.6375 0.0129522C62.0829 0.0388573 65.062 0.336766 68.0216 0.854867C72.0175 1.56078 75.8126 2.86899 79.5105 4.51396C82.2435 5.73149 84.7887 7.27932 87.2431 8.96315C89.6523 10.6146 91.8802 12.4927 93.9137 14.5845C96.9641 17.7255 99.5869 21.1774 101.769 24.979C104.496 29.739 106.277 34.8293 107.313 40.2047C107.708 42.2641 107.935 44.3365 108.103 46.4219C108.103 46.4672 108.103 46.5125 108.103 46.5579C108.136 47.4516 107.915 47.6847 107.028 47.6847C106.445 47.6847 105.862 47.6847 105.28 47.6847C104.476 47.6847 104.269 47.5293 104.107 46.7457C103.822 45.3662 103.421 44.0256 102.741 42.7952C100.584 38.8964 97.3461 36.4096 92.9358 35.6C86.5178 34.4149 80.605 37.8149 77.9821 43.2096C77.4122 44.3754 77.0625 45.6123 76.7969 46.8752C76.6739 47.4581 76.4213 47.6718 75.819 47.6783C75.0807 47.6912 74.3425 47.6912 73.6042 47.6783C73.0278 47.6718 72.7946 47.4904 72.6521 46.9205C72.3995 45.8779 72.1729 44.8222 71.7325 43.8378C69.7314 39.3757 66.3507 36.5391 61.5518 35.6259C56.6428 34.6933 52.375 36.1376 48.8907 39.7254C47.0709 41.597 45.9246 43.8573 45.4065 46.4283C45.1734 47.5746 45.0438 47.6847 43.8716 47.6783C43.3665 47.6783 42.8613 47.6783 42.3627 47.6783C41.4689 47.6783 41.2682 47.5163 41.0868 46.6421C40.7695 45.1201 40.2838 43.6565 39.4807 42.3159C37.4148 38.877 34.4681 36.6233 30.5241 35.7231C27.817 35.1078 25.1487 35.2244 22.5777 36.2671C18.0572 38.1063 15.117 41.3639 13.9642 46.1563C13.893 46.4478 13.8347 46.7457 13.757 47.0371C13.6404 47.4645 13.4073 47.6653 12.9604 47.6718C12.1768 47.6847 11.3932 47.6912 10.6095 47.6718C10.0979 47.6588 9.82591 47.3674 9.83239 46.8558C9.84534 45.9167 9.96837 44.9841 10.0526 44.0451C10.2339 42.0828 10.5901 40.1464 11.0305 38.2294C11.7558 35.056 12.7402 31.9668 14.1002 29.0072C15.8618 25.1732 18.0572 21.6048 20.706 18.3214C22.4935 16.1 24.4688 14.06 26.5994 12.1624C28.0955 10.8283 29.6886 9.61078 31.353 8.48391C36.2814 5.14863 41.6438 2.79127 47.4271 1.3924C49.6614 0.854867 51.9216 0.453338 54.2013 0.233145C55.8268 0.077715 57.4588 0.00647626 58.657 0L58.6375 0.0129522ZM41.7927 38.8705C41.8186 38.6827 41.8446 38.5791 41.8446 38.482C41.7927 37.0054 41.7992 35.5288 41.864 34.0522C41.9352 32.4785 42.0842 30.9047 42.3108 29.344C42.5958 27.3169 43.0751 25.3287 43.5932 23.3469C44.9467 18.1983 47.2652 13.5095 50.3026 9.15744C51.4424 7.5319 52.6793 5.98407 53.9292 4.44919C53.9875 4.37795 54.1106 4.30672 54.0458 4.19662C53.994 4.10595 53.8839 4.15129 53.7998 4.15776C51.6691 4.37795 49.5772 4.77948 47.5048 5.31701C44.4221 6.11359 41.4884 7.29227 38.6388 8.69115C34.4163 10.7636 30.673 13.5224 27.3183 16.78C24.7667 19.2539 22.5323 22.0128 20.6478 25.0372C18.5883 28.3401 16.9304 31.8244 15.7258 35.5223C15.674 35.6713 15.5898 35.8267 15.6545 36.0404C19.5986 32.6145 24.1708 31.0666 29.3194 31.6171C34.4746 32.1676 38.6194 34.6415 41.7927 38.8576V38.8705ZM73.2804 38.8187C73.3775 38.6439 73.384 38.4949 73.371 38.3524C73.2869 37.2385 73.3257 36.1181 73.2868 34.9977C73.2221 33.1714 72.9759 31.3645 72.6651 29.5706C72.3283 27.5954 71.7779 25.6719 71.1497 23.7679C69.8155 19.6878 67.795 15.964 65.4182 12.415C63.6242 9.7403 61.5 7.33113 59.2657 5.01263C58.9613 4.69529 58.9548 4.69529 58.644 5.01263C56.7983 6.94903 55.095 9.00848 53.5601 11.2104C50.6199 15.4329 48.4439 19.9987 47.1227 24.9725C46.514 27.2586 46.1577 29.5836 45.9181 31.9345C45.8145 33.003 45.7562 34.0716 45.6785 35.1467C45.6267 35.8137 45.6656 36.4873 45.6656 37.1608C45.6656 37.2256 45.6461 37.3098 45.7174 37.3421C45.8145 37.3875 45.8469 37.2839 45.8922 37.232C46.3197 36.7722 46.773 36.3383 47.2393 35.9238C50.2831 33.2103 53.8839 31.8438 57.9057 31.5329C60.2112 31.3516 62.465 31.7078 64.6539 32.4331C67.5683 33.3981 70.0163 35.0819 72.0563 37.368C72.4643 37.8279 72.8464 38.3071 73.2674 38.8058L73.2804 38.8187ZM102.3 35.9951C100.526 30.3024 97.8189 25.1279 94.0497 20.5233C90.274 15.9122 85.7342 12.2207 80.5143 9.33877C75.3009 6.46331 69.7313 4.81186 63.8185 4.17719C72.2506 13.6779 77.0949 24.6033 77.2244 37.5235C80.5726 33.832 84.6527 31.8438 89.4775 31.5524C94.3218 31.2609 98.596 32.8152 102.3 35.9886V35.9951Z" fill="#0E2B72"/>
<path d="M58.6827 67.9035C54.3436 67.8517 49.6936 64.3156 49.6418 58.7266C49.59 53.3902 54.0263 49.4073 58.9288 49.4396C64.1163 49.472 68.164 53.714 68.1057 58.7525C68.0474 63.7263 64.0904 67.8581 58.6892 67.9035H58.6827ZM58.8446 64.0436C61.4999 64.1602 64.2005 61.8482 64.2652 58.6813C64.3235 55.8123 61.882 53.2606 58.8511 53.2801C55.5741 53.306 53.4563 56.0519 53.4693 58.5777C53.4823 61.6021 55.8655 64.0372 58.8446 64.0436Z" fill="#FFB400"/>
<path d="M16.1209 73.6864C12.1769 73.6151 8.27816 70.5972 8.2393 65.7141C8.20044 61.1418 12.1251 57.7353 16.1792 57.826C20.8421 57.9296 24.0284 61.4074 24.0543 65.7335C24.0867 70.6879 20.0715 73.6151 16.1145 73.6864H16.1209ZM16.1662 61.7053C13.7635 61.5757 12.0214 63.8554 12.0797 65.7529C12.151 68.201 14.0485 69.8718 16.3023 69.8265C18.2516 69.7877 20.201 68.1751 20.2334 65.8501C20.2722 63.1236 17.9796 61.5628 16.1662 61.7053Z" fill="#0E2B72"/>
<path d="M93.6934 65.7211C93.7258 61.3042 97.3525 57.7876 101.627 57.8265C106.218 57.8653 109.515 61.5762 109.534 65.7923C109.554 70.2091 105.817 73.6804 101.549 73.6804C97.5144 73.6804 93.6804 70.2933 93.6934 65.7275V65.7211ZM101.646 61.7058C99.3472 61.5827 97.4626 63.6746 97.5403 65.8247C97.618 68.0784 99.4055 69.827 101.692 69.827C103.803 69.827 105.759 68.0007 105.681 65.6822C105.61 63.422 103.881 61.6799 101.646 61.7058Z" fill="#0E2B72"/>
</svg>
