<svg width="78" height="90" viewBox="0 0 78 90" fill="none" xmlns="http://www.w3.org/2000/svg">
<path d="M0 38.5672C0.056499 38.5931 0.10672 38.645 0.156942 38.5516C0.608934 37.6897 1.47526 37.5132 2.47969 37.6015C4.35671 37.7624 6.07681 38.2764 7.55833 39.2577C9.48558 40.5297 10.6344 42.1858 11.0361 44.2003C11.1429 44.7246 11.1554 45.249 11.1554 45.7786C11.1554 49.1169 11.1554 52.4501 11.1554 55.7884C11.1554 56.0064 11.2307 56.1726 11.4191 56.3231C13.3777 57.8703 15.261 59.4798 17.182 61.0581C17.3577 61.2034 17.5398 61.3488 17.7093 61.5046C17.8474 61.6344 17.929 61.6447 18.0358 61.4682C18.4752 60.7102 19.1594 60.1391 20.0069 59.6874C21.9718 58.6387 24.6964 58.81 26.5483 60.1184C27.5966 60.8556 28.4943 61.7174 29.4674 62.5222C32.3551 64.9156 35.2491 67.309 38.1368 69.7076C38.3816 69.9101 38.6139 70.123 38.8525 70.3358C38.9341 70.4137 39.0031 70.4501 39.1099 70.3566C41.5707 68.228 44.1257 66.1824 46.6305 64.0901C48.1058 62.8544 49.5873 61.6292 51.0814 60.4091C52.18 59.5109 53.5234 59.0229 55.0677 59.0229C57.0891 59.0281 58.6585 59.7913 59.7885 61.1723C59.8575 61.2606 59.9203 61.3488 59.9831 61.4423C60.0584 61.5565 60.1463 61.5669 60.2531 61.4734C60.3975 61.354 60.5418 61.2346 60.6862 61.1204C62.626 59.5265 64.5658 57.9274 66.5182 56.3387C66.7379 56.1622 66.8258 55.9805 66.8258 55.7261C66.8195 52.2631 66.8258 48.795 66.8258 45.3321C66.8258 41.7861 69.8076 38.5204 74.3527 37.7469C74.9302 37.6482 75.5141 37.5911 76.1042 37.5963C77.1777 37.6067 78 38.2764 78 39.1642C78 47.3361 78 55.5028 78 63.6747C78 64.0693 77.8242 64.412 77.5731 64.7287C76.6126 65.9384 75.6459 67.1481 74.6728 68.3526C71.2139 72.6566 67.7486 76.9554 64.2833 81.2542C63.9506 81.6644 63.6053 82.0745 63.2663 82.4795C63.1847 82.5781 63.1471 82.6716 63.1471 82.791C63.1471 84.037 63.1471 85.2882 63.1471 86.5343C63.1471 86.7108 63.2161 86.7731 63.4296 86.7679C63.9632 86.7575 64.4905 86.7523 65.0241 86.7679C65.7586 86.7887 66.3235 87.0638 66.6563 87.6142C67.0015 88.1801 66.9387 88.7356 66.493 89.2444C66.1352 89.6545 65.6079 89.8207 65.0178 89.8674C64.9048 89.8778 64.7855 89.8674 64.6725 89.8674C47.5722 89.8674 30.4655 89.8674 13.3652 89.8674C13.1706 89.8674 12.9759 89.8674 12.7876 89.8518C11.7267 89.7272 11.0864 89.0679 11.1366 88.1541C11.1805 87.4065 11.9904 86.7991 13.0073 86.7679C13.5221 86.7523 14.0306 86.7575 14.5453 86.7679C14.7651 86.7679 14.853 86.7264 14.853 86.5291C14.8404 85.283 14.853 84.0318 14.853 82.7858C14.853 82.6664 14.8153 82.5729 14.7337 82.4743C12.6997 79.9511 10.672 77.4278 8.63807 74.9046C6.692 72.4852 4.75221 70.071 2.80614 67.6517C2.09048 66.7587 1.36227 65.8709 0.646618 64.9779C0.4269 64.6975 0.226014 64.4068 0.0188514 64.1212C0.0188514 61.7538 0.0188514 59.3811 0.0188514 57.0137C0.194626 57.1227 0.182069 56.9669 0.213458 56.9098C0.646616 56.157 1.72637 55.8247 2.64291 56.1726C3.4339 56.4737 3.74151 57.0188 3.74779 57.7042C3.75406 59.4175 3.76034 61.1308 3.74779 62.8389C3.74779 63.1504 3.84194 63.41 4.0491 63.6696C6.54761 66.7639 9.03984 69.8582 11.5384 72.9525C13.7293 75.673 15.9202 78.3987 18.1173 81.1192C18.4563 81.5398 18.6196 81.9862 18.6133 82.495C18.5945 83.8241 18.6133 85.1533 18.6007 86.4824C18.6007 86.716 18.6823 86.7783 18.9586 86.7783C24.8972 86.7731 30.8296 86.7731 36.7683 86.7783C37.0696 86.7783 37.1324 86.7004 37.1324 86.4616C37.1261 82.5106 37.1324 78.5545 37.1261 74.6035C37.1261 74.1207 37.0006 73.6534 36.7495 73.2121C36.4795 72.7293 36.0527 72.3503 35.6132 71.9816C32.9578 69.7751 30.3023 67.5738 27.6469 65.3725C26.5106 64.4327 25.3806 63.493 24.2381 62.5585C23.6291 62.0601 22.7001 61.9926 21.9907 62.356C21.275 62.7194 20.9298 63.4463 21.1746 64.1057C21.3441 64.547 21.7333 64.8689 22.1288 65.1752C22.9951 65.8501 23.8237 66.5562 24.6712 67.2467C25.9895 68.3162 27.2639 69.4221 28.6073 70.4708C29.2037 70.9381 29.7875 71.4157 30.34 71.9193C30.8924 72.4281 30.9677 73.1602 30.5848 73.7053C30.0575 74.4581 28.7078 74.9046 27.5966 74.0012C26.8559 73.3938 26.1088 72.7916 25.3555 72.1945C24.3385 71.3846 23.3529 70.5435 22.3548 69.718C17.6277 65.8034 12.8943 61.8836 8.16097 57.9741C7.66503 57.564 7.42649 57.0915 7.42649 56.5152C7.43277 52.8187 7.42649 49.1221 7.42649 45.4255C7.42649 44.2314 6.97448 43.1775 6.03283 42.2741C5.46784 41.729 4.77104 41.3396 3.98006 41.0488C3.81684 40.9865 3.74151 41.0177 3.74779 41.1683C3.74779 41.2306 3.74779 41.298 3.74779 41.3603C3.74779 42.6895 3.76034 44.0186 3.7415 45.3477C3.72895 46.007 3.32088 46.4847 2.58011 46.7443C1.85818 46.9935 1.1488 46.8585 0.577535 46.4068C0.313873 46.1991 0.226008 45.9188 0.0125676 45.6903V38.5827L0 38.5672ZM74.2334 52.1541C74.2334 48.5199 74.2334 44.8856 74.2334 41.2565C74.2334 40.9606 74.2209 40.9502 73.9007 41.0748C71.7412 41.9159 70.63 43.3332 70.5673 45.3009C70.5422 46.116 70.5673 46.9312 70.5673 47.7515C70.5673 50.6589 70.561 53.5611 70.5673 56.4685C70.5673 57.0552 70.3475 57.5432 69.839 57.9534C69.4247 58.2856 69.0229 58.6387 68.6149 58.9762C64.0761 62.735 59.5374 66.4887 54.9986 70.2476C53.7117 71.3119 52.4311 72.3762 51.1442 73.4353C50.8491 73.6794 50.5478 73.9182 50.2276 74.1362C49.2734 74.78 47.9363 74.5568 47.3839 73.6742C47.0135 73.0771 47.1516 72.3814 47.7731 71.8415C48.3443 71.343 48.9281 70.8498 49.5119 70.3618C51.3262 68.8614 53.1405 67.3713 54.9547 65.8709C55.4381 65.4711 55.9277 65.0713 56.3923 64.6508C57.0577 64.0486 57.0326 63.1867 56.3672 62.6104C55.7206 62.0497 54.6283 61.9822 53.8875 62.4651C53.7055 62.5845 53.5422 62.7194 53.379 62.8544C51.91 64.0693 50.4411 65.2894 48.9721 66.5043C46.687 68.3941 44.402 70.2839 42.1232 72.1737C41.3573 72.8071 40.8676 73.5548 40.8676 74.4737C40.8676 78.4766 40.8676 82.4743 40.8613 86.4772C40.8613 86.7108 40.9492 86.7731 41.2254 86.7731C47.1641 86.7679 53.0965 86.7679 59.0352 86.7731C59.3114 86.7731 59.3993 86.716 59.3993 86.4824C59.3867 85.0961 59.393 83.7151 59.3993 82.3289C59.3993 82.1939 59.4055 82.0589 59.4369 81.924C59.5311 81.5086 59.8387 81.1867 60.1149 80.8441C64.7604 75.076 69.4059 69.313 74.0514 63.5501C74.1895 63.3788 74.2585 63.2023 74.2523 62.9894C74.2523 59.3811 74.2523 55.7728 74.2523 52.1645L74.2334 52.1541Z" fill="#0E2B72"/>
<path d="M39.4483 0.734375C39.4986 0.801868 39.5864 0.817444 39.668 0.848595C40.4465 1.10819 40.8482 1.61179 40.8545 2.28153C40.8796 4.35826 40.8734 6.44017 40.8545 8.52209C40.8482 9.33201 39.9882 9.97579 38.9838 9.97579C37.9794 9.97579 37.1256 9.33201 37.1193 8.51689C37.1068 6.42979 37.1005 4.34268 37.1193 2.25557C37.1256 1.62217 37.5148 1.14972 38.2305 0.879746C38.3121 0.848595 38.4627 0.874554 38.4627 0.739567H39.4483V0.734375Z" fill="#0E2B72"/>
<path d="M0 50.8614C0.144386 50.9601 0.150656 50.8459 0.188322 50.7784C0.75959 49.7815 2.27879 49.5687 3.21416 50.3578C3.72893 50.7939 3.8859 51.4689 3.59713 52.0244C3.28325 52.6318 2.6178 52.9901 1.82054 52.9901C1.09861 52.9901 0.439437 52.6111 0.156942 52.04C0.100443 51.9206 0.0502213 51.8012 0 51.6765C0 51.4066 0 51.1314 0 50.8614Z" fill="#0E2B72"/>
<path d="M37.1058 45.9394C37.1058 44.0808 37.1058 42.2273 37.1058 40.3686C37.1058 40.1662 37.0305 40.0519 36.8045 39.9585C34.4504 38.9928 32.1025 38.0167 29.7484 37.0407C27.5952 36.1477 25.4419 35.2651 23.2949 34.3669C22.1587 33.8893 21.895 32.8509 22.6923 31.9943C23.4393 31.1895 24.2178 30.4056 24.9836 29.6112C28.2794 26.2002 31.5752 22.7892 34.8709 19.3782C35.731 18.4904 36.5848 17.6026 37.4448 16.72C38.2358 15.91 39.5604 15.8529 40.3828 16.5902C40.6904 16.8653 40.8096 17.208 40.8473 17.5766C40.8599 17.696 40.8536 17.8154 40.8536 17.9348C40.8536 21.4133 40.8536 24.897 40.8473 28.3756C40.8473 28.63 40.9352 28.7442 41.2428 28.8013C44.6453 29.4347 48.0101 30.1927 51.3938 30.8936C52.2475 31.0701 53.1013 31.2362 53.9551 31.4076C54.4573 31.5114 54.9407 31.6516 55.2796 31.9994C55.807 32.5394 55.8698 33.1832 55.3801 33.8322C54.721 34.7044 54.0304 35.5662 53.3336 36.4229C50.7974 39.5743 48.2612 42.7205 45.7251 45.8668C44.0113 47.9954 42.2974 50.1292 40.5774 52.2579C40.1254 52.8134 39.3532 53.0886 38.625 52.964C37.8466 52.8342 37.269 52.3565 37.1246 51.7179C37.0995 51.5933 37.0996 51.4635 37.0996 51.3337C37.0996 49.5322 37.0996 47.7306 37.0996 45.9343L37.1058 45.9394ZM40.9038 46.2925C40.9226 46.2613 40.9415 46.2458 40.954 46.225C43.0633 43.6031 45.1726 40.9761 47.2882 38.3542C48.3931 36.9836 49.5042 35.6181 50.6091 34.2475C50.8288 33.9775 50.8225 33.9619 50.4333 33.8893C49.8307 33.7698 49.228 33.6608 48.6316 33.5362C45.3233 32.8561 42.0149 32.1708 38.7129 31.4803C37.5955 31.2466 37.1058 30.7067 37.1058 29.7514C37.1058 27.2957 37.1058 24.8399 37.1058 22.3842C37.1058 22.296 37.1372 22.1973 37.0619 22.0987C36.9991 22.161 36.9489 22.2077 36.8987 22.2544C36.0323 23.163 35.166 24.0767 34.2934 24.9853C31.9644 27.4047 29.6291 29.8241 27.3001 32.2435C27.1578 32.3888 27.1892 32.5082 27.3943 32.6017C27.4884 32.6432 27.5826 32.6848 27.6768 32.7211C29.7107 33.557 31.7447 34.3929 33.7724 35.2339C35.6933 36.0283 37.6018 36.8382 39.5227 37.6274C40.4393 38.0064 40.8787 38.5827 40.8724 39.4445C40.8473 41.6354 40.8661 43.8264 40.8724 46.0225C40.8724 46.1056 40.841 46.1938 40.9163 46.2977L40.9038 46.2925Z" fill="#FFB400"/>
<path d="M57.4651 16.2632C56.6239 16.2632 56.0715 15.9881 55.7199 15.4637C55.3809 14.9549 55.4186 14.4357 55.7639 13.9321C55.8643 13.7867 55.9898 13.6518 56.1342 13.5323C57.8543 12.1046 59.5744 10.6769 61.3008 9.25949C61.8909 8.77146 62.6693 8.66243 63.4101 8.9376C64.088 9.18681 64.5589 9.79944 64.5275 10.4173C64.5024 10.9105 64.201 11.2895 63.7867 11.627C62.1357 12.9872 60.4847 14.3475 58.8399 15.7077C58.4256 16.0504 57.9611 16.2788 57.4651 16.2684V16.2632Z" fill="#0E2B72"/>
<path d="M9.2517 31.4804C8.03383 31.4804 6.81596 31.4804 5.59809 31.4804C4.87616 31.4804 4.29865 31.2364 3.94082 30.7068C3.20006 29.6321 4.09149 28.4017 5.62951 28.3809C7.18637 28.3601 8.74324 28.3757 10.3001 28.3757C11.179 28.3757 12.0578 28.3757 12.9367 28.3757C14.0416 28.3809 14.8702 29.0351 14.8702 29.9021C14.8702 30.8107 14.0729 31.47 12.9367 31.4804C11.7125 31.4856 10.4821 31.4804 9.2517 31.4804Z" fill="#0E2B72"/>
<path d="M68.6569 31.4802C67.4264 31.4802 66.2023 31.4854 64.9719 31.4802C64.0867 31.475 63.4024 31.0441 63.1576 30.3587C62.7935 29.3619 63.6912 28.3962 65.0347 28.3807C66.5727 28.3651 68.1107 28.3755 69.6424 28.3755C70.5402 28.3755 71.4379 28.3755 72.3356 28.3755C73.4405 28.3807 74.2691 29.0348 74.2691 29.9019C74.2691 30.8104 73.4718 31.4698 72.3356 31.4802C71.1114 31.4854 69.881 31.4802 68.6506 31.4802H68.6569Z" fill="#0E2B72"/>
<path d="M22.4742 14.8091C22.4428 15.3283 22.1289 15.78 21.5012 16.0655C20.8671 16.3511 20.2205 16.3407 19.599 16.0188C19.4609 15.9461 19.3291 15.8579 19.2161 15.7644C17.496 14.3471 15.7759 12.9297 14.0684 11.5019C13.2147 10.7855 13.3339 9.70039 14.307 9.11371C15.0415 8.67241 16.0333 8.73471 16.7176 9.29543C17.6781 10.0742 18.6197 10.8634 19.5739 11.6525C20.3335 12.2807 21.0868 12.9089 21.8464 13.5371C22.2482 13.8694 22.4742 14.2588 22.4742 14.8091Z" fill="#0E2B72"/>
</svg>
