<svg width="118" height="110" viewBox="0 0 118 110" fill="none" xmlns="http://www.w3.org/2000/svg">
<path d="M25.4365 0.00652352C28.0004 0.280505 29.54 1.8135 30.8056 3.95316C36.1095 12.9293 41.5113 21.8468 46.8413 30.8099C47.3762 31.7036 47.9568 32.0493 49.0137 32.0428C69.603 32.0102 90.1987 32.0167 110.788 32.0232C114.05 32.0232 116.523 33.8889 117.273 36.9158C117.397 37.4246 117.429 37.9726 117.436 38.5009C117.442 60.1194 117.449 81.7379 117.436 103.356C117.436 106.996 115.081 109.534 111.434 109.886C110.716 109.958 109.986 109.997 109.261 109.997C83.3944 109.997 57.5338 110.004 31.6668 109.997C30.6034 109.997 29.5139 109.964 28.4766 109.762C25.6191 109.195 23.5576 106.625 23.5185 103.682C23.4924 101.771 23.5315 99.8598 23.4989 97.955C23.4793 96.9308 23.8512 96.011 24.1056 95.0521C24.4448 93.7996 24.6797 92.4949 25.2147 91.3272C26.1998 89.1615 25.9193 87.224 24.5884 85.3388C23.6424 84.0015 23.4728 82.5011 23.4793 80.8833C23.525 71.1048 23.4989 61.3262 23.5054 51.5477C23.5054 51.1302 23.4793 50.6997 23.538 50.2887C23.6816 49.3232 24.2687 48.7883 25.2408 48.7622C26.2128 48.7361 26.8261 49.2645 27.0479 50.1908C27.1457 50.5888 27.1001 51.0258 27.1001 51.4433C27.1001 60.3412 27.1001 69.2456 27.1131 78.1435C27.1131 78.5023 26.9109 78.9915 27.3088 79.1872C27.622 79.3438 27.9221 78.9589 28.2091 78.7893C30.5642 77.3737 32.9063 75.9321 35.2679 74.5165C37.8905 72.9444 40.4674 73.4206 42.3854 75.8016C43.0835 76.6627 43.7881 77.5172 44.4535 78.4044C44.8906 78.9915 45.2951 79.0307 45.8822 78.6001C47.6698 77.2889 49.4834 76.0169 51.2971 74.7448C53.6978 73.0553 56.4379 73.3749 58.4081 75.5472C59.0996 76.3104 59.8433 77.0345 60.4891 77.8369C60.9654 78.4305 61.3568 78.4827 62.0288 78.1174C64.547 76.754 67.0978 75.4558 69.6487 74.1447C70.6599 73.6228 71.658 73.688 72.5648 74.3599C73.439 75.0057 73.7587 75.919 73.6217 76.9888C73.5434 77.6151 73.2107 78.1304 72.8062 78.6001C69.7008 82.2271 66.615 85.8672 63.4901 89.4746C61.7156 91.5229 58.9104 91.8687 56.6531 90.3487C55.8637 89.8138 55.0613 89.2789 54.3437 88.6526C53.6 88.0003 53.0389 88.1438 52.38 88.7766C51.3362 89.7812 50.2402 90.7336 49.1377 91.6795C46.5542 93.8974 44.1273 93.8844 41.5439 91.6795C40.7023 90.9619 39.8346 90.2704 39.0126 89.5333C38.6016 89.168 38.3015 89.1158 37.8449 89.5007C34.459 92.3579 31.0535 95.189 27.6416 98.0202C27.2501 98.3464 27.1066 98.7182 27.1131 99.214C27.1327 100.473 27.1001 101.732 27.1262 102.998C27.1653 105.189 28.2744 106.272 30.499 106.272C42.9139 106.272 55.3288 106.272 67.7502 106.272C81.8482 106.272 95.9463 106.272 110.044 106.272C112.876 106.272 113.854 105.307 113.854 102.508C113.854 81.503 113.854 60.4912 113.854 39.486C113.854 38.7162 113.828 37.9465 113.489 37.2485C112.889 36.0155 111.812 35.7285 110.534 35.7285C104.003 35.7481 97.4664 35.735 90.936 35.735C89.2137 35.735 87.4979 35.7872 85.7821 35.7155C84.6535 35.6698 84.3468 36.1134 84.3534 37.1897C84.3925 43.6479 84.3795 50.0995 84.3664 56.5576C84.3599 59.1083 83.2052 60.6347 81.0458 61.1305C80.2108 61.3197 79.454 61.1175 78.6972 60.8435C76.2965 59.9694 73.8826 59.1083 71.5014 58.182C70.7642 57.8949 70.1444 57.9276 69.4268 58.2081C67.15 59.0952 64.808 59.8258 62.5638 60.7783C59.4976 62.0829 56.5683 60.0803 56.5944 56.6164C56.6401 50.2365 56.6075 43.8566 56.6075 37.4768C56.6075 36.32 56.0442 35.7416 54.9178 35.7416C53.6195 35.7416 52.3213 35.7481 51.023 35.7416C50.3511 35.7416 49.9727 35.8851 50.325 36.6744C51.8776 40.1253 49.1898 44.4242 44.7732 44.372C32.0125 44.2219 19.2519 44.2611 6.4912 44.3589C3.33366 44.385 1.20691 43.2304 0 40.3405C0 39.349 0 38.3509 0 37.3594C0.411003 36.5831 0.789356 35.7937 1.23298 35.0436C7.41759 24.704 13.6414 14.3906 19.7803 4.0184C21.0655 1.84611 22.6117 0.267458 25.2212 0H25.4496L25.4365 0.00652352ZM25.2147 40.7254C31.4776 40.7254 37.747 40.7254 44.0099 40.7254C44.4274 40.7254 44.858 40.745 45.269 40.6798C46.7368 40.4384 47.3827 39.225 46.7695 37.8617C46.6129 37.5159 46.3976 37.1963 46.2019 36.8636C41.159 28.4419 36.1095 20.0268 31.0666 11.6116C29.7292 9.38713 28.4244 7.13657 27.0544 4.93167C26.0823 3.37258 24.6014 3.38563 23.5837 4.89905C23.4141 5.15346 23.264 5.42092 23.1009 5.68186C19.6303 11.4811 16.1531 17.2804 12.6824 23.0797C9.79883 27.8939 6.90875 32.7082 4.03174 37.529C3.32716 38.7162 3.53592 39.8382 4.52102 40.4058C5.07555 40.7254 5.68878 40.7189 6.30202 40.7189C12.6041 40.7189 18.9061 40.7189 25.2147 40.7189V40.7254ZM60.3456 46.6291C60.3456 49.8777 60.3717 53.1198 60.3326 56.3685C60.3195 57.3861 60.6588 57.5492 61.5591 57.21C64.0186 56.2641 66.5107 55.403 68.9636 54.4375C70.0335 54.02 70.9991 54.0266 72.0559 54.4441C74.4371 55.3834 76.8444 56.2445 79.2452 57.1252C80.563 57.6079 80.6217 57.5688 80.6217 56.2119C80.6217 49.832 80.6087 43.4522 80.6413 37.0723C80.6413 36.1003 80.3739 35.7155 79.3496 35.722C73.426 35.7611 67.5088 35.7546 61.5852 35.722C60.6392 35.722 60.3195 36.0482 60.3326 36.994C60.3782 40.2035 60.3522 43.413 60.3522 46.6225L60.3456 46.6291ZM28.9267 91.8034L29.129 91.9274C29.4226 91.7056 29.7292 91.4968 30.0163 91.262C32.28 89.3832 34.5307 87.498 36.7945 85.6258C38.1319 84.5168 38.7843 84.5103 40.1021 85.6193C41.4199 86.7217 42.7051 87.8633 44.0229 88.9592C45.0668 89.8268 45.6278 89.8334 46.639 88.9592C48.3156 87.511 49.9662 86.0368 51.6363 84.5821C52.804 83.5644 53.5413 83.5318 54.8004 84.4451C56.0073 85.3192 57.2011 86.1998 58.4015 87.087C59.1192 87.6154 59.9346 87.8372 60.574 87.1262C62.6551 84.8169 64.6644 82.4424 66.6999 80.094C65.1733 80.6419 63.8032 81.3595 62.4202 82.0705C60.6261 82.9903 60.1694 82.9121 58.8321 81.4835C57.8404 80.4267 56.875 79.3373 55.8833 78.287C54.7808 77.1193 54.3828 77.0867 53.052 78.0326C50.7491 79.67 48.4657 81.3269 46.1497 82.9447C44.8515 83.8514 43.9903 83.7014 42.9922 82.4685C41.8374 81.0464 40.7088 79.6047 39.5541 78.1826C38.7386 77.178 38.2232 77.0867 37.0946 77.7586C34.9352 79.0502 32.7823 80.3614 30.636 81.6792C29.7292 82.2402 28.3592 82.5468 28.0526 83.4405C27.7198 84.4124 28.7571 85.4366 29.2725 86.389C29.8466 87.4393 29.9771 88.4439 29.5726 89.5659C29.3116 90.2965 29.1355 91.0663 28.9202 91.8165L28.9267 91.8034Z" fill="#0E2B72"/>
<path d="M95.901 90.0494C98.1909 90.1733 100.487 89.8798 102.764 90.2255C105.569 90.6495 107.611 93.0371 107.553 95.7899C107.494 98.5819 105.406 100.963 102.568 101.152C98.0735 101.452 93.559 101.452 89.0641 101.146C86.3501 100.963 84.2625 98.5754 84.1581 95.816C84.0537 93.1545 86.1087 90.6691 88.8096 90.2385C91.1647 89.8667 93.5394 90.1798 95.901 90.0494ZM95.8488 93.8133C93.9764 93.8133 92.1106 93.8068 90.2383 93.8133C88.7704 93.8199 87.8571 94.5701 87.8767 95.7182C87.8962 96.8271 88.79 97.5643 90.1861 97.5643C93.9634 97.5773 97.7408 97.5773 101.518 97.5643C102.966 97.5643 103.775 96.8728 103.788 95.7117C103.801 94.4983 102.986 93.8264 101.453 93.8133C99.5805 93.8003 97.7147 93.8133 95.8423 93.8133H95.8488Z" fill="#FFB400"/>
<path d="M90.1216 81.7579C91.4199 81.7579 92.7181 81.7318 94.0163 81.7645C95.1711 81.7905 95.8626 82.469 95.8822 83.4997C95.9017 84.5565 95.158 85.3262 93.9837 85.3393C91.3481 85.3654 88.7124 85.3654 86.0833 85.3393C84.9547 85.3262 84.224 84.5956 84.1979 83.5975C84.1718 82.5538 84.9286 81.8036 86.116 81.771C87.4534 81.7384 88.7908 81.7645 90.1216 81.7645V81.7579Z" fill="#0E2B72"/>
<path d="M46.5411 5.78716C46.5411 6.39383 46.6129 7.02008 46.5216 7.6137C46.3846 8.54655 45.7843 9.13365 44.8319 9.19888C43.8663 9.26412 43.1879 8.74877 42.9921 7.82245C42.6986 6.47211 42.7247 5.08916 42.9726 3.7323C43.1487 2.79293 43.8598 2.27759 44.7927 2.30368C45.7974 2.32977 46.4106 2.96906 46.5411 3.95409C46.6194 4.55424 46.5542 5.17396 46.5542 5.78064C46.5542 5.78064 46.5476 5.78064 46.5411 5.78064V5.78716Z" fill="#0E2B72"/>
<path d="M59.0936 18.2971C59.6677 18.2971 60.2418 18.2514 60.8094 18.3036C61.801 18.395 62.4274 18.9625 62.5709 19.954C62.6948 20.8347 62.0098 21.748 61.0117 21.9111C59.733 22.1198 58.4217 22.1394 57.143 21.8915C56.1644 21.6958 55.5969 21.0304 55.6751 20.0062C55.7534 19.0016 56.3862 18.4211 57.3779 18.3102C57.9454 18.2449 58.5195 18.2971 59.0936 18.2971Z" fill="#0E2B72"/>
<path d="M55.9037 7.0332C57.5086 7.0332 58.3828 8.5662 57.5477 9.79911C56.804 10.9016 55.8189 11.8279 54.749 12.6107C54.0379 13.1326 53.2159 13.0543 52.5374 12.4672C51.885 11.9062 51.7024 11.0907 52.1134 10.3993C52.8962 9.08807 54.0249 8.05737 55.284 7.18976C55.4862 7.05277 55.7863 7.0593 55.8972 7.0332H55.9037Z" fill="#0E2B72"/>
<path d="M104.044 81.7627C104.618 81.7627 105.192 81.7301 105.759 81.7693C106.771 81.8345 107.508 82.5847 107.534 83.5175C107.553 84.4373 106.823 85.2788 105.831 85.3245C104.579 85.3832 103.313 85.3832 102.06 85.3245C101.056 85.2788 100.345 84.4699 100.358 83.524C100.371 82.5782 101.082 81.8345 102.106 81.7693C102.752 81.7301 103.404 81.7627 104.05 81.7627H104.044Z" fill="#0E2B72"/>
<path d="M23.5177 21.0316C23.5177 19.0485 23.5047 17.0588 23.5177 15.0757C23.5308 13.8037 24.2484 13.0078 25.3118 13.0078C26.3752 13.0078 27.0993 13.8102 27.1058 15.0822C27.1189 19.0876 27.1189 23.0995 27.1058 27.1048C27.1058 28.2921 26.3752 29.0879 25.364 29.1271C24.3202 29.1662 23.5373 28.3377 23.5177 27.0983C23.4916 25.0761 23.5177 23.0538 23.5112 21.0316H23.5177Z" fill="#FFB400"/>
<path d="M27.2446 34.4886C27.2054 35.5258 26.3573 36.3151 25.2874 36.3021C24.1784 36.289 23.3172 35.3823 23.3889 34.3124C23.4607 33.3078 24.4067 32.4598 25.3918 32.5185C26.3899 32.5772 27.2772 33.5231 27.2446 34.4886Z" fill="#FFB400"/>
</svg>
