<svg width="150" height="150" viewBox="0 0 150 150" fill="none" xmlns="http://www.w3.org/2000/svg">
<path d="M75.0567 122.681C59.4667 122.681 43.8767 122.681 28.2867 122.681C25.1267 122.681 22.5067 120.841 21.5567 117.871C20.9167 115.871 21.2067 113.791 21.3267 111.741C21.3767 110.931 22.0767 110.451 22.9367 110.411C23.7667 110.381 24.5967 110.361 25.4267 110.411C26.1667 110.451 26.4667 110.181 26.4467 109.421C26.4067 107.871 26.4367 106.321 26.4367 104.761C26.4367 93.5009 26.5367 82.2409 26.3867 70.9809C26.3167 66.0209 30.3967 61.7009 35.5167 61.8309C41.7567 62.0009 48.0067 61.8609 54.2467 61.8809C55.0767 61.8809 55.5567 61.7309 55.4767 60.7609C55.4267 60.2009 55.2467 59.9509 54.6767 59.8309C52.5567 59.4109 52.1267 58.6109 52.8167 56.5309C53.5067 54.4409 54.1767 52.3409 54.9067 50.2709C55.1767 49.5009 55.1067 49.1109 54.2467 48.8509C52.3167 48.2709 50.3967 47.6109 48.4967 46.9509C47.7767 46.7009 47.5667 46.8809 47.5267 47.6409C47.4667 48.7709 47.6867 49.5509 48.7767 50.2009C50.3067 51.1109 50.8967 52.7109 50.9867 54.4509C51.0467 55.6709 51.0367 56.9009 50.9867 58.1309C50.9367 59.6309 50.2467 60.2809 48.7467 60.2909C46.6567 60.3009 44.5567 60.3109 42.4667 60.2909C41.0067 60.2809 40.3367 59.6309 40.3067 58.1809C40.2767 56.9509 40.2867 55.7309 40.3067 54.5009C40.3367 52.5109 41.1967 50.9309 42.8967 49.9109C43.5867 49.4909 43.8767 49.0209 43.7667 48.2609C43.7467 48.1509 43.7667 48.0409 43.7667 47.9409C43.7667 46.3742 43.0534 45.2876 41.6267 44.6809C40.8567 44.3609 40.3667 43.8109 40.3367 42.9709C40.2967 42.0209 40.8567 41.4409 41.6967 41.0909C46.0467 39.2509 50.4067 37.4209 54.7567 35.5809C61.0367 32.9309 67.3267 30.3009 73.6067 27.6309C74.6167 27.2009 75.5167 27.1809 76.5167 27.6009C87.1167 32.0809 97.7167 36.5509 108.327 41.0109C109.197 41.3809 109.857 41.9209 109.847 42.9009C109.837 43.9409 109.157 44.4809 108.197 44.7909C104.157 46.1109 100.127 47.4909 96.0667 48.7909C95.1167 49.0909 94.9067 49.4809 95.2367 50.4309C96.0067 52.5709 96.6867 54.7409 97.3767 56.9009C97.9467 58.6709 97.3767 59.5409 95.5367 59.8809C95.0967 59.9609 94.5667 59.9109 94.3667 60.4809C94.0767 61.3309 94.4467 61.8709 95.3667 61.8709C99.2267 61.8709 103.087 61.8709 106.947 61.8709C109.437 61.8709 111.937 61.9909 114.417 61.8509C119.557 61.5609 123.707 65.9909 123.647 71.0109C123.497 83.6409 123.597 96.2709 123.597 108.901C123.597 109.894 124.087 110.391 125.067 110.391C125.717 110.391 126.367 110.371 127.017 110.401C128.097 110.461 128.757 111.101 128.777 112.191C128.807 113.631 128.847 115.081 128.757 116.521C128.557 119.671 125.527 122.561 122.347 122.651C120.577 122.701 118.807 122.671 117.047 122.671C103.047 122.671 89.0467 122.671 75.0367 122.671L75.0567 122.681ZM30.0467 90.1209C30.0467 96.5109 30.0567 102.891 30.0367 109.281C30.0367 110.111 30.2567 110.431 31.1367 110.421C34.0967 110.371 37.0567 110.371 40.0067 110.421C40.9167 110.431 41.1967 110.121 41.1667 109.241C41.0767 106.781 41.0767 104.321 41.9767 101.981C42.2567 101.251 42.1267 100.731 41.6567 100.121C40.3667 98.4609 39.9767 96.5309 40.4367 94.4909C41.5767 89.3809 47.5367 87.2909 51.7067 90.5209C52.1567 90.8709 52.5267 91.3109 53.2267 90.9909C56.0267 89.7209 58.9967 88.9409 61.8867 87.9109C63.0367 87.5009 64.1967 87.0809 65.2067 86.3509C65.9167 85.8409 66.2467 85.3809 65.2767 84.7609C64.7967 84.4609 64.4067 84.0009 64.0067 83.5909C59.4267 78.8309 56.8867 73.0609 55.7767 66.6209C55.6067 65.6609 55.2167 65.4909 54.3567 65.4909C48.2567 65.5209 42.1667 65.5009 36.0667 65.5109C32.0867 65.5109 30.0567 67.5409 30.0567 71.5109C30.0567 77.7209 30.0567 83.9209 30.0567 90.1309L30.0467 90.1209ZM119.987 90.1609C119.987 83.9509 119.987 77.7409 119.987 71.5409C119.987 67.5409 117.957 65.5109 113.997 65.5109C107.787 65.5109 101.577 65.5109 95.3767 65.5109C94.6667 65.5109 94.1967 65.5709 94.0267 66.4609C92.6867 73.6409 89.7567 79.9809 84.2267 84.9409C83.7767 85.3409 83.8567 85.6409 84.2567 85.9909C84.7767 86.4509 85.3767 86.7909 86.0167 87.0309C87.4367 87.5609 88.8567 88.0709 90.2967 88.5409C93.3267 89.5109 96.3267 90.5509 99.1267 92.0709C102.767 94.0409 105.777 96.6409 107.527 100.501C108.797 103.311 108.997 106.281 108.857 109.291C108.817 110.141 109.107 110.431 109.967 110.411C112.887 110.371 115.817 110.351 118.737 110.411C119.777 110.431 119.997 110.051 119.997 109.101C119.957 102.781 119.977 96.4709 119.977 90.1509L119.987 90.1609ZM88.5267 110.401C93.3667 110.401 98.1967 110.411 103.037 110.401C105.607 110.401 105.237 110.751 105.267 108.161C105.317 103.091 103.407 99.0609 99.0567 96.2809C95.8567 94.2309 92.2967 93.0609 88.7167 91.9309C88.2367 91.7809 87.9867 91.9709 87.7367 92.3409C87.1467 93.2109 86.4567 93.9909 85.6967 94.7209C80.0867 100.081 67.5367 100.031 62.5167 92.6009C62.1667 92.0809 61.7967 91.8909 61.1667 92.1209C59.6467 92.6809 58.1067 93.1909 56.5567 93.6909C55.7067 93.9609 55.6467 94.2609 56.2967 94.9009C61.2967 99.8009 66.2767 104.721 71.2367 109.651C71.7967 110.211 72.3867 110.411 73.1567 110.411C78.2767 110.381 83.4067 110.401 88.5267 110.401ZM75.4167 84.9309C77.3467 85.0009 79.5367 84.0509 81.3767 82.4609C87.7567 76.9609 90.3067 69.7409 90.5667 61.5309C90.5867 60.8109 90.2467 60.7109 89.6067 60.8209C86.1267 61.4309 82.6467 62.0309 79.1567 62.5609C77.2167 62.8509 75.3167 63.3709 73.2767 62.9809C68.8867 62.1409 64.4667 61.5009 60.0567 60.7609C59.3667 60.6409 59.0467 60.8409 59.0467 61.5809C59.0567 62.6609 59.1167 63.7409 59.2467 64.8209C59.9767 70.5809 62.0067 75.8009 65.8167 80.2209C68.1667 82.9509 70.9967 84.9309 75.4067 84.9209L75.4167 84.9309ZM75.0767 114.021C58.9067 114.021 42.7367 114.021 26.5667 114.021C26.2067 114.021 25.8467 114.021 25.4867 114.021C25.1667 114.021 24.9267 114.151 24.8867 114.511C24.6867 116.341 25.3167 118.261 27.4067 118.871C28.1067 119.071 28.8367 119.061 29.5567 119.061C59.8767 119.061 90.1967 119.061 120.517 119.061C120.947 119.061 121.387 119.081 121.817 119.031C123.787 118.831 124.957 117.661 125.177 115.701C125.357 114.141 125.257 114.021 123.707 114.021C107.497 114.021 91.2967 114.021 75.0867 114.021H75.0767ZM74.1367 44.2209C69.7467 44.2309 64.7267 45.1109 60.1967 47.9509C59.5767 48.3409 59.1967 48.8209 58.9767 49.5209C58.3767 51.4109 57.7267 53.2809 57.1067 55.1709C56.6767 56.4709 56.6767 56.4609 58.0667 56.6909C60.9767 57.1709 63.8867 57.7209 66.8067 58.1309C70.7967 58.6809 74.6967 59.8909 78.8667 58.9309C83.2767 57.9109 87.8067 57.3809 92.2867 56.6609C93.1267 56.5209 93.3467 56.2409 93.0367 55.3909C92.3867 53.6309 91.7667 51.8609 91.2667 50.0509C90.9367 48.8709 90.2667 48.1309 89.2467 47.5409C84.8167 45.0209 79.9967 44.2309 74.1367 44.2209ZM102.577 42.7209C101.997 42.4409 101.747 42.3109 101.487 42.2009C92.9467 38.6009 84.3967 35.0109 75.8767 31.3809C75.0867 31.0409 74.4967 31.2709 73.8267 31.5509C65.4167 35.1009 57.0167 38.6409 48.6067 42.2009C48.3067 42.3309 47.9067 42.3509 47.7367 42.8309C50.6267 43.7909 53.4567 44.7309 56.2967 45.6809C56.7967 45.8509 57.1167 45.6009 57.4667 45.3409C59.3667 43.9209 61.4767 42.9209 63.7167 42.1809C68.8767 40.4809 74.1667 40.1209 79.5267 40.7109C83.5367 41.1509 87.5167 42.0009 90.8667 44.3109C92.8067 45.6509 94.3867 45.6709 96.3867 44.8309C98.2967 44.0309 100.317 43.4809 102.577 42.7309V42.7209ZM47.2867 92.5109C45.8267 92.4609 44.7867 93.0809 44.2067 94.3409C43.6067 95.6309 43.7367 96.9209 44.7167 97.9609C47.5467 100.981 50.4367 103.961 53.2767 106.971C53.7567 107.481 53.9467 107.421 54.2067 106.781C54.9167 104.991 56.1667 103.681 57.9467 102.941C58.6867 102.631 58.5667 102.361 58.0967 101.891C55.2467 99.0809 52.4167 96.2609 49.5867 93.4409C48.9367 92.8009 48.1667 92.4709 47.2967 92.5109H47.2867ZM74.8267 94.8109C78.4867 94.8409 81.4867 93.7809 83.8767 91.2209C84.3467 90.7209 84.4467 90.3809 83.6867 90.0409C82.6567 89.5809 81.7567 88.8909 81.0667 88.0009C80.6767 87.5009 80.3267 87.4909 79.7767 87.7109C76.5567 89.0109 73.3167 89.0309 70.0867 87.7609C69.5667 87.5609 69.2067 87.6209 68.8467 88.0309C68.1667 88.7809 67.4067 89.4709 66.4967 89.9109C65.5267 90.3809 65.7567 90.8109 66.3467 91.4009C68.7567 93.8209 71.6867 94.8509 74.8367 94.8009L74.8267 94.8109ZM66.0767 110.391C65.1067 109.291 64.1167 108.001 62.9567 106.881C61.9567 105.911 60.6367 105.941 59.3967 106.431C58.1867 106.911 57.5767 107.931 57.4167 109.191C57.3267 109.871 57.4767 110.401 58.3667 110.391C61.0367 110.371 63.6967 110.391 66.0767 110.391ZM51.2867 110.391C49.1067 108.351 47.0867 106.451 45.1467 104.631C44.7867 106.121 44.7367 108.011 44.8167 109.901C44.8267 110.261 45.0967 110.381 45.4167 110.381C47.3167 110.381 49.2067 110.381 51.2867 110.381V110.391ZM45.5167 56.6909C46.65 56.6909 47.2167 56.2376 47.2167 55.3309C47.2167 53.5809 46.7867 52.9409 45.6067 52.9209C44.3667 52.9009 43.9067 53.5509 43.9067 55.3509C43.9067 56.2442 44.4434 56.6909 45.5167 56.6909Z" fill="#0E2B72"/>
<path d="M106.119 81.0981C104.499 81.0981 102.879 81.1081 101.259 81.0981C99.9491 81.0881 99.1991 80.3881 99.2191 79.2481C99.2391 78.1581 99.9691 77.4881 101.229 77.4881C104.539 77.4681 107.859 77.4781 111.169 77.4881C112.479 77.4881 113.229 78.1981 113.209 79.3281C113.189 80.4081 112.449 81.0781 111.199 81.0981C109.509 81.1181 107.809 81.0981 106.119 81.0981Z" fill="#FFA500"/>
<path d="M103.61 74.1694C102.75 74.1694 101.88 74.1994 101.02 74.1694C99.8897 74.1194 99.1897 73.3694 99.2197 72.3094C99.2497 71.2994 99.9397 70.5894 101.03 70.5694C102.76 70.5394 104.49 70.5394 106.21 70.5694C107.3 70.5894 107.99 71.3094 108.02 72.3094C108.05 73.3694 107.34 74.1194 106.21 74.1594C105.35 74.1894 104.48 74.1594 103.62 74.1594L103.61 74.1694Z" fill="#FFA500"/>
</svg>
