<svg width="87" height="100" viewBox="0 0 87 100" fill="none" xmlns="http://www.w3.org/2000/svg">
<path d="M86.3854 99.0502C85.7623 99.8064 84.9619 99.9995 83.9949 99.9995C56.8351 99.9834 29.6807 99.9834 2.52086 99.9834C0.59776 99.9834 0.0766968 99.4686 0.071325 97.5754C0.071325 95.5642 0.0605814 93.5584 0.071325 91.5473C0.0820686 90.2333 0.769645 89.4878 1.90309 89.5039C2.98283 89.52 3.64357 90.2548 3.66506 91.5097C3.68118 92.695 3.72951 93.8802 3.65431 95.0601C3.58447 96.0844 3.91216 96.417 4.9704 96.4062C10.8955 96.358 16.826 96.3848 22.751 96.3848C25.1576 96.3848 27.5642 96.3419 29.9708 96.4062C31.0021 96.433 31.4695 96.1756 31.6897 95.0708C33.6558 85.0097 35.6864 74.9646 37.7062 64.9141C37.8028 64.4207 37.8512 64.0239 37.314 63.7235C36.7929 63.4286 36.4867 63.6163 36.1 63.9756C35.0793 64.9141 34.236 64.8873 33.1831 63.8683C31.636 62.372 30.1265 60.8328 28.6009 59.3097C28.241 58.9504 27.8919 58.6232 27.3171 58.6393C22.9391 58.7359 18.5557 58.4355 14.1776 58.8217C8.98849 59.2775 4.34188 63.9434 3.83693 69.0974C3.56834 71.8594 3.75101 74.616 3.66506 77.378C3.62746 78.6651 2.77334 79.4589 1.61303 79.2926C0.775028 79.1693 0.119658 78.6598 0.12503 77.8338C0.162632 74.2245 -0.358441 70.5776 0.484931 67.0058C2.15019 59.9318 8.31703 55.0836 15.569 55.0568C18.6953 55.0461 21.8217 55.0246 24.9428 55.0729C25.8398 55.089 26.3931 54.8423 26.8283 54.0217C27.6501 52.4664 28.5633 50.9647 29.4604 49.4524C30.191 48.2188 30.8571 47.9346 32.243 48.3261C35.595 49.27 38.9416 50.23 42.2829 51.2114C42.9651 51.4099 43.599 51.4152 44.2812 51.2114C47.5151 50.2515 50.7596 49.3236 54.0042 48.3958C55.6963 47.9078 56.2872 48.1598 57.1736 49.7044C58.033 51.1954 58.9194 52.6756 59.7413 54.188C60.0958 54.8423 60.5524 55.0782 61.2883 55.0729C64.4147 55.0407 67.5411 55.0568 70.6621 55.0621C78.3223 55.0729 84.3978 59.8889 86.1544 67.3329C86.2296 67.644 86.3102 67.955 86.3854 68.2714V99.061V99.0502ZM68.9539 96.3901C73.16 96.3901 77.3608 96.358 81.5669 96.4116C82.6305 96.4277 82.8937 96.0737 82.883 95.0601C82.8346 90.11 82.8937 85.1545 82.8508 80.2043C82.8185 76.5092 83.028 72.814 82.6896 69.1242C82.2115 63.9542 77.5488 59.2722 72.3757 58.8217C67.9977 58.4355 63.6143 58.7412 59.2363 58.6393C58.6615 58.6286 58.307 58.9343 57.9525 59.3044C56.4752 60.8221 55.0087 62.3506 53.51 63.8469C52.4571 64.8981 51.5761 64.9249 50.5233 63.9112C50.1311 63.5358 49.8357 63.391 49.3146 63.6645C48.7452 63.9649 48.7076 64.351 48.8204 64.9141C50.8563 75.0021 52.8922 85.0847 54.869 95.1834C55.0678 96.2024 55.5083 96.4223 56.4483 96.417C60.6169 96.3741 64.7854 96.4009 68.9539 96.4009V96.3901ZM43.1961 96.3901C45.4576 96.3901 47.7192 96.3901 49.9861 96.3901C50.9208 96.3901 51.2968 95.9396 51.1141 95.0386C50.3406 91.2094 49.5724 87.3801 48.8043 83.5509C47.6816 77.9679 46.5535 72.3796 45.4523 66.7912C45.3072 66.0511 45.1568 65.6274 44.3081 66.1208C43.6097 66.5284 42.8469 66.4855 42.1432 66.0887C41.4449 65.6972 41.2354 65.9385 41.1065 66.6572C40.7197 68.8078 40.2631 70.9476 39.8334 73.0875C38.3561 80.4296 36.8735 87.7717 35.3963 95.1137C35.1438 96.3794 35.1492 96.3848 36.4115 96.3848C38.6731 96.3848 40.9346 96.3848 43.2015 96.3848L43.1961 96.3901ZM34.5798 59.9372C34.9343 59.8889 35.0847 59.6798 35.2512 59.4974C36.6479 57.9636 38.0285 56.4136 39.4412 54.9013C39.8817 54.4293 39.6883 54.2738 39.1995 54.1343C37.8565 53.7589 36.519 53.3728 35.176 52.992C31.9798 52.0856 31.9905 52.091 30.4918 55.0032C30.2554 55.459 30.2554 55.7647 30.6315 56.1294C31.8133 57.2771 32.9628 58.4516 34.1339 59.6101C34.2789 59.7549 34.467 59.8568 34.5851 59.9479L34.5798 59.9372ZM53.9827 52.2358C53.9129 52.2519 53.843 52.268 53.7732 52.2894C51.6352 52.9062 49.4972 53.5176 47.3646 54.1397C46.7361 54.322 46.9134 54.6599 47.2303 54.9978C48.6485 56.5209 50.0774 58.0333 51.4848 59.5618C51.8769 59.9855 52.1885 59.9372 52.5538 59.5403C53.091 58.9611 53.655 58.4087 54.2083 57.8456C55.7267 56.2903 55.8879 54.6063 54.6918 52.7936C54.6112 52.6756 54.5414 52.5522 54.4554 52.4342C54.3426 52.2787 54.1815 52.209 53.9881 52.2358H53.9827ZM43.2606 62.5168C44.5283 61.9055 45.7531 61.3316 46.9564 60.7095C47.37 60.5003 47.0799 60.2268 46.8919 60.023C45.8713 58.9182 44.8345 57.8295 43.83 56.714C43.411 56.2474 43.0887 56.2903 42.6965 56.7408C41.7081 57.8724 40.6929 58.9826 39.6991 60.1035C39.5487 60.2751 39.2264 60.5271 39.5648 60.7095C40.7627 61.337 41.9928 61.9055 43.2606 62.5168Z" fill="#0E2B72"/>
<path d="M46.2837 0.00536309C49.8076 0.686476 53.122 1.85563 56.1141 3.90969C63.5487 9.01536 67.1854 18.2345 65.273 27.2445C63.4359 35.8737 56.3397 42.8028 47.6535 44.4493C35.1695 46.8144 23.4536 38.861 21.0792 26.4079C18.7318 14.0835 27.4717 1.91999 39.945 0.13944C40.1223 0.112625 40.2888 0.0482678 40.4607 0C42.3999 0 44.3391 0 46.2837 0V0.00536309ZM62.1467 22.3802C61.9049 11.8203 53.8633 3.53964 43.1359 3.58255C32.634 3.62545 24.442 11.8685 24.4259 22.3051C24.4098 33.101 32.8005 41.2315 43.2809 41.2046C53.901 41.1832 61.9211 32.9723 62.1467 22.3748V22.3802Z" fill="#0E2B72"/>
<path d="M3.65919 84.4204C3.65919 85.4662 2.85878 86.2331 1.80591 86.2009C0.806754 86.1741 0.0761719 85.4126 0.0761719 84.4043C0.0761719 83.3531 0.8712 82.5969 1.92407 82.6237C2.9286 82.6506 3.65381 83.4121 3.65381 84.415L3.65919 84.4204Z" fill="#0E2B72"/>
<path d="M36.4156 13.7251C37.0495 13.709 37.4954 14.0576 37.909 14.4706C39.4561 16.0151 41.03 17.5383 42.5395 19.1204C43.1089 19.721 43.458 19.6728 44.0006 19.0989C45.4886 17.5436 47.0303 16.0366 48.5613 14.5242C49.5443 13.5535 50.6079 13.4569 51.3976 14.2292C52.1926 15.0069 52.1174 16.0956 51.1612 17.0663C49.6249 18.6216 48.0885 20.1823 46.5092 21.7C45.9667 22.2202 45.9667 22.5581 46.5092 23.0783C48.1369 24.6444 49.7377 26.2426 51.3062 27.8729C52.3752 28.9831 52.0207 30.5706 50.6563 30.9835C49.8398 31.2302 49.1951 30.9138 48.6257 30.3346C47.084 28.7793 45.5101 27.2615 43.9952 25.6794C43.4473 25.1056 43.0981 25.068 42.5341 25.6633C41.0515 27.224 39.5044 28.7257 37.9735 30.2381C36.9582 31.241 35.8408 31.3429 35.0565 30.5277C34.2991 29.7393 34.4066 28.6667 35.3735 27.6906C36.84 26.2104 38.285 24.7141 39.7998 23.2929C40.4928 22.6439 40.6056 22.231 39.8375 21.5177C38.2313 20.0321 36.7218 18.4393 35.1801 16.8947C34.5946 16.3047 34.3905 15.6183 34.7181 14.8353C35.0243 14.1005 35.6152 13.7466 36.4049 13.7197L36.4156 13.7251Z" fill="#FFB400"/>
</svg>
