<svg width="100" height="100" viewBox="0 0 100 100" fill="none" xmlns="http://www.w3.org/2000/svg">
<path d="M26.8408 16.3742C26.2608 16.4942 25.7008 16.7409 25.2208 17.1142C24.2542 17.8609 23.6875 19.0075 23.6875 20.2275V71.9209C23.6875 72.6409 24.2808 73.2342 25.0008 73.2342C25.7208 73.2342 26.3142 72.6409 26.3142 71.9209V20.2342C26.3142 19.8275 26.5008 19.4476 26.8275 19.1942C27.1475 18.9476 27.5675 18.8609 27.9608 18.9609C33.2275 20.3476 43.3808 23.0142 47.6408 24.1409C48.2208 24.2942 48.6208 24.8075 48.6208 25.4142V65.4142C48.6208 66.1342 49.2142 66.7276 49.9342 66.7276C50.6542 66.7276 51.2475 66.1342 51.2475 65.4142V25.4142C51.2475 23.6342 50.0342 22.0609 48.3142 21.6075C44.0542 20.4875 33.9008 17.8142 28.6342 16.4275C28.0408 16.2742 27.4342 16.2609 26.8542 16.3742H26.8408Z" fill="#0E2B72"/>
<path d="M49.9266 39.1328C49.2066 39.1328 48.6133 39.7261 48.6133 40.4461C48.6133 41.1661 49.2066 41.7595 49.9266 41.7595H72.2266C72.9666 41.7595 73.5399 42.3328 73.5399 43.0728V65.4195C73.5399 66.1395 74.1333 66.7328 74.8533 66.7328C75.5733 66.7328 76.1666 66.1395 76.1666 65.4195V43.0728C76.1666 40.9128 74.3866 39.1395 72.2333 39.1395H49.9333L49.9266 39.1328Z" fill="#0E2B72"/>
<path d="M64.3563 44.3804C63.6363 44.3804 63.043 44.9737 63.043 45.6937C63.043 46.4137 63.6363 47.007 64.3563 47.007H68.2896V52.2537C68.2896 52.9737 68.883 53.567 69.603 53.567C70.323 53.567 70.9163 52.9737 70.9163 52.2537V45.6937C70.9163 44.9737 70.323 44.3804 69.603 44.3804H64.3563Z" fill="#0E2B72"/>
<path d="M28.9344 39.1328C28.2144 39.1328 27.6211 39.7261 27.6211 40.4461V45.6928C27.6211 46.4128 28.2144 47.0061 28.9344 47.0061H33.5278C34.2478 47.0061 34.8411 46.4128 34.8411 45.6928C34.8411 44.9728 34.2478 44.3795 33.5278 44.3795H30.2478V40.4461C30.2478 39.7261 29.6544 39.1328 28.9344 39.1328Z" fill="#0E2B72"/>
<path d="M28.9344 51.5938C28.2144 51.5938 27.6211 52.1871 27.6211 52.9071V57.5004C27.6211 58.2204 28.2144 58.8138 28.9344 58.8138H33.5278C34.2478 58.8138 34.8411 58.2204 34.8411 57.5004C34.8411 56.7804 34.2478 56.1871 33.5278 56.1871H30.2478V52.9071C30.2478 52.1871 29.6544 51.5938 28.9344 51.5938Z" fill="#0E2B72"/>
<path d="M18.4834 78.4877C18.1234 78.4744 17.7701 78.6144 17.5167 78.8744C17.0101 79.381 17.0101 80.221 17.5167 80.7277L19.1234 82.3344C19.9901 83.201 21.1634 83.681 22.3834 83.681C23.6034 83.681 24.7767 83.1877 25.6367 82.321C25.9767 81.9744 26.0167 81.941 26.2834 81.6677C26.5701 81.9544 26.6234 82.001 26.9967 82.3744C28.7901 84.141 31.7167 84.121 33.4901 82.3344C33.8501 81.9744 33.8901 81.9277 34.1634 81.6544C34.4634 81.9477 34.5234 82.001 34.9167 82.3944C36.7034 84.1544 39.6034 84.1477 41.3834 82.381C41.7701 82.001 41.8234 81.9477 42.1167 81.6544L42.7967 82.3344C43.6634 83.201 44.8367 83.681 46.0567 83.681C47.2767 83.681 48.4501 83.1877 49.3101 82.321C49.6634 81.9677 49.7034 81.9277 49.9701 81.6544C50.2634 81.9477 50.3234 82.0077 50.7167 82.3944C52.5034 84.1544 55.4034 84.1477 57.1834 82.381C57.5701 82.001 57.6234 81.9477 57.9167 81.6544L58.6301 82.3677C60.4034 84.141 63.3034 84.1544 65.0967 82.401C65.4901 82.021 65.5434 81.9677 65.8434 81.6744L66.5167 82.3477C68.2967 84.1277 71.2234 84.1344 73.0101 82.361C73.3834 81.9877 73.4367 81.941 73.7234 81.6544L74.4034 82.3344C75.2701 83.201 76.4434 83.681 77.6634 83.681C78.8834 83.681 80.0567 83.1877 80.9167 82.321C81.7567 81.4744 82.4967 80.7277 82.4967 80.7277C83.0034 80.221 83.0034 79.381 82.4967 78.8744C81.9834 78.3677 81.1501 78.3677 80.6434 78.8744C80.6434 78.8744 79.8967 79.621 79.0567 80.4677C78.6901 80.841 78.1834 81.0544 77.6634 81.0544C77.1367 81.0544 76.6367 80.8477 76.2634 80.481L74.6634 78.8744C74.1567 78.3677 73.3234 78.361 72.8101 78.8744C72.8101 78.8744 72.0367 79.641 71.1701 80.501C70.3901 81.281 69.1634 81.2744 68.3834 80.501L67.0234 79.141C66.7901 78.741 66.3567 78.4944 65.8967 78.4944H65.8367C65.3767 78.4944 64.9501 78.7344 64.7167 79.1277C64.5167 79.321 64.0301 79.7944 63.2767 80.5344C62.4967 81.301 61.2767 81.2877 60.5034 80.5144L58.8634 78.8744C58.3567 78.3677 57.5234 78.3677 57.0167 78.8744C57.0167 78.8744 56.2301 79.6544 55.3567 80.521C54.5767 81.2944 53.3634 81.2944 52.5767 80.521C51.6967 79.6544 50.8967 78.8677 50.8967 78.8677C50.3834 78.361 49.5501 78.3677 49.0434 78.881C49.0434 78.881 48.3034 79.6277 47.4634 80.4744C47.0967 80.8477 46.5901 81.061 46.0634 81.061C45.5367 81.061 45.0367 80.8544 44.6634 80.4877L43.0634 78.881C42.5567 78.3744 41.7234 78.3677 41.2101 78.881C41.2101 78.881 40.4234 79.661 39.5501 80.5277C38.7701 81.301 37.5567 81.301 36.7701 80.5277C35.8901 79.661 35.0901 78.8744 35.0901 78.8744C34.5767 78.3677 33.7434 78.3744 33.2367 78.8877C33.2367 78.8877 32.4834 79.6477 31.6367 80.501C30.8567 81.2877 29.6367 81.2944 28.8501 80.521C28.0634 79.7477 27.5034 79.1944 27.3634 79.0544C27.1167 78.7077 26.7167 78.5077 26.2967 78.5077H26.2634C25.8367 78.5077 25.4367 78.721 25.1901 79.0744C25.0501 79.2144 24.5234 79.741 23.7834 80.4944C23.4167 80.8677 22.9101 81.081 22.3901 81.081C21.8634 81.081 21.3634 80.8744 20.9967 80.5077L19.3901 78.901C19.1567 78.6677 18.8367 78.5277 18.5034 78.5144L18.4834 78.4877Z" fill="#FFB200"/>
<path d="M18.4834 69.3258C18.1234 69.3125 17.7701 69.4525 17.5167 69.7125C17.0101 70.2192 17.0101 71.0592 17.5167 71.5658C17.5167 71.5658 18.2701 72.3192 19.1234 73.1658C19.9901 74.0325 21.1634 74.5125 22.3834 74.5125C23.6034 74.5125 24.7767 74.0192 25.6367 73.1525C25.9767 72.8058 26.0167 72.7725 26.2834 72.4992C26.5701 72.7858 26.6234 72.8325 26.9967 73.2058C28.7901 74.9725 31.7167 74.9592 33.4901 73.1725C33.8501 72.8125 33.8967 72.7658 34.1701 72.4858C34.4634 72.7792 34.5234 72.8392 34.9167 73.2258C36.7034 74.9858 39.6034 74.9792 41.3834 73.2125C41.7701 72.8325 41.8234 72.7792 42.1167 72.4858C42.3901 72.7592 42.4367 72.8058 42.7967 73.1592C43.6634 74.0258 44.8367 74.5058 46.0567 74.5058C47.2767 74.5058 48.4501 74.0125 49.3101 73.1458C49.6634 72.7925 49.7034 72.7525 49.9701 72.4792C50.2634 72.7725 50.3234 72.8325 50.7167 73.2192C52.5034 74.9792 55.4034 74.9725 57.1834 73.2058C57.5701 72.8258 57.6234 72.7725 57.9167 72.4792C58.2034 72.7658 58.2567 72.8192 58.6301 73.1925C60.4034 74.9592 63.3034 74.9792 65.0967 73.2258C65.4901 72.8458 65.5434 72.7925 65.8367 72.4992L66.5101 73.1725C68.2901 74.9525 71.2167 74.9592 73.0034 73.1858C73.3834 72.8125 73.4367 72.7658 73.7234 72.4792C73.9967 72.7525 74.0434 72.7992 74.4034 73.1592C75.2701 74.0192 76.4367 74.5058 77.6567 74.5058C78.8767 74.5058 80.0501 74.0125 80.9167 73.1458C81.7567 72.2992 82.4967 71.5525 82.4967 71.5525C83.0034 71.0392 83.0034 70.2058 82.4967 69.6992C81.9834 69.1925 81.1501 69.1925 80.6434 69.6992C80.6434 69.6992 79.8967 70.4458 79.0567 71.2925C78.6834 71.6658 78.1834 71.8792 77.6634 71.8792C77.1367 71.8792 76.6367 71.6725 76.2634 71.2992C75.4167 70.4525 74.6634 69.6992 74.6634 69.6992C74.1567 69.1925 73.3234 69.1925 72.8101 69.6992C72.8101 69.6992 72.0367 70.4725 71.1701 71.3258C70.3901 72.0992 69.1634 72.0992 68.3834 71.3192L67.0234 69.9592C66.7901 69.5592 66.3567 69.3125 65.8967 69.3125H65.8367C65.3767 69.3125 64.9567 69.5525 64.7167 69.9458C64.5234 70.1392 64.0301 70.6125 63.2767 71.3525C62.4901 72.1192 61.2767 72.1125 60.5034 71.3392C59.6434 70.4792 58.8634 69.6992 58.8634 69.6992C58.3567 69.1925 57.5234 69.1925 57.0167 69.6992C57.0167 69.6992 56.2301 70.4792 55.3567 71.3458C54.5767 72.1192 53.3634 72.1258 52.5767 71.3525C51.6967 70.4858 50.8967 69.6925 50.8967 69.6925C50.3834 69.1858 49.5501 69.1925 49.0434 69.7058C49.0434 69.7058 48.3034 70.4525 47.4634 71.2992C47.0901 71.6725 46.5901 71.8858 46.0634 71.8858C45.5367 71.8858 45.0367 71.6792 44.6634 71.3058C43.8167 70.4592 43.0634 69.7058 43.0634 69.7058C42.5567 69.1992 41.7234 69.1992 41.2101 69.7058C41.2101 69.7058 40.4234 70.4858 39.5501 71.3525C38.7701 72.1258 37.5567 72.1325 36.7701 71.3592C35.8901 70.4925 35.0901 69.6992 35.0901 69.6992C34.5767 69.1925 33.7434 69.1992 33.2367 69.7125C33.2367 69.7125 32.4834 70.4725 31.6367 71.3258C30.8567 72.1058 29.6367 72.1192 28.8501 71.3458C28.0634 70.5725 27.4967 70.0125 27.3567 69.8725C27.1101 69.5325 26.7167 69.3258 26.2901 69.3258H26.2567C25.8301 69.3258 25.4301 69.5392 25.1834 69.8858C25.0434 70.0258 24.5167 70.5525 23.7701 71.3058C23.3967 71.6792 22.8967 71.8858 22.3767 71.8858C21.8501 71.8858 21.3501 71.6792 20.9767 71.3058C20.1301 70.4592 19.3767 69.7058 19.3767 69.7058C19.1434 69.4658 18.8234 69.3325 18.4901 69.3192L18.4834 69.3258Z" fill="#FFB200"/>
</svg>
