<svg width="78" height="76" viewBox="0 0 78 76" fill="none" xmlns="http://www.w3.org/2000/svg">
<path d="M0.00443548 68.8689C0.00443548 49.558 0.00443548 30.2426 0.00443548 10.9317C0.0664716 10.7411 0.132904 10.5506 0.190509 10.3556C1.34261 6.56253 4.28934 4.36468 8.24193 4.35582C9.53139 4.35582 10.8209 4.32924 12.1103 4.36468C12.7883 4.38241 13.094 4.15642 13.0542 3.4563C13.0187 2.85366 13.0542 2.24216 13.0542 1.63509C13.0542 0.921679 13.3068 0.354492 13.9626 0.00886229H14.7203C15.3406 0.34563 15.5976 0.881799 15.6021 1.5642C15.6021 2.24659 15.6242 2.92456 15.6198 3.60696C15.6198 4.09438 15.8059 4.35582 16.3332 4.35139C20.4675 4.34253 24.6062 4.34253 28.7404 4.35139C29.2412 4.35139 29.4051 4.09881 29.3962 3.64241C29.3874 2.9866 29.4095 2.33079 29.3962 1.67498C29.3785 0.921679 29.6488 0.350061 30.3401 0.00443104H31.0978C31.7181 0.38551 31.9619 0.939404 31.922 1.66611C31.8865 2.34408 31.922 3.02648 31.9132 3.70887C31.9087 4.15199 32.1125 4.35582 32.5557 4.34696C32.9589 4.3381 33.3621 4.34696 33.7654 4.34696C37.4742 4.34696 41.1787 4.33367 44.8875 4.35582C45.5433 4.35582 45.8048 4.1387 45.7649 3.47845C45.7251 2.87582 45.7871 2.26875 45.7516 1.66168C45.7073 0.934973 45.951 0.381079 46.5714 0H47.3291C48.0159 0.34563 48.2907 0.917248 48.2729 1.67054C48.2596 2.32635 48.2818 2.98216 48.2729 3.63797C48.2685 4.09438 48.4325 4.34696 48.9332 4.34696C53.0674 4.34253 57.2061 4.34253 61.3404 4.34696C61.8677 4.34696 62.0538 4.08995 62.0538 3.5981C62.0538 2.9157 62.0715 2.23773 62.0715 1.55533C62.0715 0.868506 62.333 0.332336 62.9533 0H63.7111C64.3625 0.34563 64.6195 0.912817 64.615 1.62623C64.615 2.1048 64.6195 2.58779 64.6195 3.06636C64.6195 3.91714 65.0331 4.34253 65.8602 4.34253C67.1231 4.34253 68.3859 4.3381 69.6532 4.34253C74.1996 4.36911 77.7135 7.88302 77.718 12.4427C77.7268 30.7699 77.718 49.0927 77.718 67.42C77.718 67.8719 77.7091 68.3328 77.6249 68.7759C76.8716 72.8703 73.6191 75.5556 69.352 75.5556C49.0041 75.5644 28.6562 75.56 8.30397 75.5556C7.0278 75.5556 5.78706 75.334 4.6261 74.7845C2.09148 73.5837 0.61593 71.5542 0 68.8512L0.00443548 68.8689ZM38.8302 73.0608C49.0174 73.0608 59.2046 73.0608 69.3918 73.0608C72.2721 73.0608 74.4832 71.3504 75.108 68.6828C75.2542 68.0581 75.2188 67.4244 75.2188 66.7952C75.2188 48.8978 75.2188 31.0048 75.2188 13.1073C75.2188 12.7263 75.2188 12.3496 75.201 11.9685C75.0903 9.32314 72.7374 6.9702 70.0787 6.89044C68.5366 6.84613 66.9946 6.89044 65.4525 6.86385C64.8144 6.85056 64.6106 7.13859 64.6195 7.73679C64.6372 9.05284 64.6283 10.3645 64.6195 11.6805C64.6195 11.9818 64.6195 12.2876 64.5796 12.5889C64.4777 13.4131 64.0345 13.8562 63.3433 13.8606C62.6476 13.8651 62.1956 13.422 62.0982 12.6066C62.0583 12.2832 62.0538 11.9508 62.0538 11.6229C62.0494 10.36 62.0272 9.09272 62.0582 7.82984C62.076 7.10757 61.8057 6.85499 61.0834 6.85942C57.1131 6.88158 53.1472 6.88158 49.1769 6.85942C48.4768 6.85942 48.2419 7.10757 48.2596 7.79439C48.2906 9.33644 48.2863 10.8785 48.2552 12.4205C48.2331 13.3555 47.7102 13.8872 46.9436 13.8606C46.2036 13.8341 45.7694 13.3112 45.7605 12.3939C45.7516 10.8785 45.7605 9.35859 45.7561 7.84314C45.7561 6.90816 45.7162 6.87272 44.7591 6.86828C40.8641 6.86828 36.9735 6.86828 33.0786 6.86828C32.3046 6.86828 31.9161 7.26413 31.9132 8.05583C31.9132 9.57129 31.9264 11.0912 31.8999 12.6066C31.8866 13.3156 31.439 13.7853 30.8142 13.8518C30.1495 13.9227 29.6045 13.515 29.4627 12.8016C29.4051 12.5091 29.4051 12.199 29.4007 11.8976C29.3962 10.4841 29.3874 9.06614 29.4007 7.6526C29.4051 7.12086 29.219 6.86385 28.6518 6.86828C24.5574 6.87715 20.463 6.87715 16.3642 6.86828C15.797 6.86828 15.6109 7.14302 15.6109 7.66589C15.6198 9.0041 15.6154 10.3467 15.6109 11.6849C15.6109 12.0394 15.5976 12.3939 15.5445 12.744C15.4337 13.4574 14.9773 13.8739 14.3348 13.8606C13.6169 13.8429 13.2181 13.4397 13.1162 12.7529C13.063 12.4028 13.0541 12.0483 13.0497 11.6938C13.0409 10.3556 13.032 9.01296 13.0497 7.67475C13.0586 7.09427 12.8149 6.85942 12.23 6.86828C10.8918 6.89044 9.54914 6.92589 8.21094 6.86385C5.04266 6.71763 2.4194 9.40733 2.42826 12.6421C2.48144 30.8408 2.45483 49.0396 2.45926 67.2427C2.45926 67.7213 2.46812 68.2087 2.57004 68.674C3.15938 71.346 5.38829 73.0653 8.26411 73.0653C18.4513 73.0697 28.6385 73.0653 38.8257 73.0653L38.8302 73.0608Z" fill="#0E2B72"/>
<path d="M38.8837 22.1021C47.4225 22.1021 55.9613 22.1021 64.5002 22.1021C64.8281 22.1021 65.1649 22.08 65.4839 22.1376C66.0954 22.2528 66.4765 22.625 66.5163 23.2675C66.5562 23.9056 66.2416 24.3443 65.639 24.5171C65.3288 24.6057 64.992 24.6146 64.6641 24.6146C47.4358 24.6146 30.2031 24.6146 12.9748 24.6146C12.7 24.6146 12.412 24.6146 12.1461 24.557C11.4726 24.4063 11.087 23.8879 11.1491 23.2409C11.2155 22.5629 11.6321 22.204 12.279 22.1198C12.5759 22.08 12.8861 22.0977 13.1875 22.0977C21.7529 22.0977 30.3183 22.0977 38.8837 22.0977V22.1021Z" fill="#0E2B72"/>
<path d="M45.9152 60.9821C44.8296 60.9378 43.4914 61.0485 42.1532 60.9112C39.6939 60.6542 37.8993 59.0767 37.5403 56.6307C37.3011 55.0089 37.2922 53.3516 37.5713 51.7254C37.979 49.3149 40.0306 47.6222 42.4766 47.5911C43.6376 47.5778 44.803 47.5956 45.964 47.5823C47.6168 47.5646 48.6847 46.5808 48.7733 44.9324C48.8265 43.9266 48.822 42.9118 48.7733 41.9015C48.698 40.2177 47.6256 39.2207 45.9329 39.203C44.8473 39.1897 43.7617 39.1897 42.6716 39.203C41.165 39.2251 40.1547 40.1379 39.9553 41.6268C39.8224 42.615 39.3128 43.0935 38.5064 42.9783C37.7531 42.872 37.3409 42.1763 37.4739 41.2413C37.8195 38.7909 39.5166 37.0361 42.0025 36.7437C43.5534 36.562 45.1398 36.562 46.6951 36.7437C49.243 37.045 50.8914 38.7333 51.2193 41.2989C51.3965 42.7036 51.401 44.1304 51.2104 45.5307C50.8426 48.278 48.8221 50.0371 46.0349 50.0947C44.9005 50.1169 43.7617 50.0947 42.6229 50.1036C41.0631 50.1213 39.9996 51.1582 39.9597 52.7047C39.9331 53.7416 39.9331 54.7785 39.9597 55.8109C39.9996 57.3441 41.0055 58.3677 42.5476 58.3899C44.6967 58.4209 46.8413 58.3987 48.9904 58.4076C49.3671 58.4076 49.7526 58.4209 50.1204 58.4829C50.8249 58.5981 51.2636 59.0767 51.2282 59.7059C51.1927 60.406 50.7939 60.8181 50.1026 60.92C49.8279 60.9599 49.5487 60.9776 49.274 60.9776C48.2371 60.9865 47.2003 60.9776 45.9152 60.9776V60.9821Z" fill="#FFB400"/>
<path d="M33.2689 48.8532C33.2689 52.2386 33.2689 55.624 33.2689 59.0049C33.2689 59.3328 33.2777 59.6696 33.1936 59.9798C33.0296 60.578 32.6176 60.9148 31.9706 60.9015C31.3547 60.8882 30.9736 60.5425 30.8273 59.9754C30.7431 59.6386 30.752 59.2752 30.752 58.9252C30.752 52.7127 30.752 46.5002 30.752 40.2878C30.752 39.1977 30.752 39.1977 29.6486 39.1933C28.9928 39.1933 28.3326 39.211 27.6768 39.18C26.9545 39.1445 26.4582 38.6527 26.4272 38.0013C26.3962 37.3676 26.8659 36.7517 27.5749 36.7251C29.0859 36.6675 30.6058 36.6586 32.1168 36.734C32.9144 36.7738 33.2645 37.3455 33.2645 38.3248C33.2689 41.8342 33.2645 45.3481 33.2645 48.8576L33.2689 48.8532Z" fill="#FFB400"/>
</svg>
