<svg width="89" height="89" viewBox="0 0 89 89" fill="none" xmlns="http://www.w3.org/2000/svg">
<path d="M87.998 53.2018C87.4224 55.961 86.1232 58.263 83.8205 59.9278C82.1037 61.1712 80.1984 61.8546 78.074 61.8546C75.2364 61.8546 72.3937 61.8495 69.556 61.8649C68.8173 61.8649 68.1551 61.7673 67.7934 61.0274C67.4215 60.2618 67.7221 59.6298 68.1857 59.008C72.0371 53.8441 75.863 48.6647 79.7348 43.5213C80.2748 42.8019 80.3564 42.2007 80.0507 41.3581C76.2044 30.7167 72.3835 20.0599 68.583 9.40317C68.3487 8.74033 68.0939 8.64784 67.4724 8.90475C59.1532 12.3577 50.8186 15.7798 42.4942 19.2327C39.8655 20.322 38.2913 22.4544 37.2368 24.9978C36.5287 26.7089 35.9734 28.4867 35.3315 30.2286C35.1022 30.8503 35.2754 31.025 35.9122 31.025C39.1167 31.0045 42.316 31.0045 45.5204 31.025C46.0655 31.025 46.3457 30.8298 46.5036 30.3057C46.8042 29.314 47.1404 28.3377 47.4817 27.3614C48.2714 25.1314 49.6571 23.3793 51.649 22.1152C55.9946 19.356 60.3351 16.5865 64.6756 13.8221C65.0831 13.56 65.4805 13.2723 66.0001 13.2928C66.7082 13.3237 67.2075 13.6679 67.4419 14.341C67.717 15.1221 67.4113 15.7335 66.7745 16.1549C65.3378 17.1106 63.8757 18.0252 62.4187 18.9552C59.4079 20.8769 56.4226 22.85 53.3659 24.6895C51.1192 26.0409 50.3601 28.2349 49.6927 30.542C49.5908 30.8914 49.7692 31.0661 50.0596 31.1637C51.537 31.6673 52.3419 32.8388 52.887 34.1902C54.9095 39.2103 56.8912 44.2509 58.8934 49.2813C59.0462 49.6615 59.0666 50.052 59.0666 50.4477C59.0666 53.7362 59.0767 57.0298 59.0615 60.3183C59.0513 62.5175 57.7828 64.2028 55.6482 64.655C54.8025 64.8348 54.6802 65.2151 54.7006 65.9447C54.7414 67.8047 54.558 67.5684 56.2901 67.5838C61.3285 67.6301 65.6282 71.4992 66.2701 76.5655C66.9171 81.6575 63.6669 86.544 58.7762 87.844C58.4247 87.9365 58.0782 88.0341 57.7318 88.1318H9.50248C6.83807 87.5563 4.6016 86.2974 2.94081 84.0674C-1.39458 78.2611 1.47871 69.8292 8.43265 67.9229C8.83512 67.815 9.47701 67.9538 9.56361 67.368C9.67569 66.5921 9.72666 65.7854 9.52288 65.0147C9.44137 64.7012 9.06435 64.7886 8.79944 64.7886C7.71432 64.7783 6.62415 64.7886 5.53903 64.7834C2.76764 64.768 0.923413 62.9337 0.918318 60.1641C0.908129 56.8756 0.908129 53.582 0.918318 50.2935C0.923413 47.4983 2.75233 45.6485 5.50844 45.6434C11.4588 45.6383 17.4091 45.628 23.3595 45.6588C24.1695 45.6588 24.5159 45.4276 24.7044 44.6106C25.4329 41.4711 26.2429 38.347 27.0275 35.2178C27.3178 34.0514 27.7611 32.957 28.6373 32.0989C29.2843 31.4618 30.0536 31.0199 30.9706 31.0353C31.6634 31.0456 31.913 30.691 32.1117 30.1207C32.7638 28.2195 33.4312 26.3286 34.119 24.4429C35.1328 21.6631 36.7171 19.3046 39.1217 17.5371C40.3597 16.6224 41.8014 16.1394 43.1922 15.564C51.2058 12.2446 59.2296 8.93558 67.2534 5.64195C67.88 5.38504 68.2926 5.03564 68.5575 4.37794C69.7395 1.47995 72.5414 -0.0615289 75.8427 0.318703C78.502 0.621861 80.6518 2.72855 81.1969 5.64195C83.3723 17.2442 85.5323 28.8464 87.7076 40.4486C87.784 40.8648 87.9115 41.2759 88.0133 41.6869V43.5161C87.4886 44.1533 86.8161 44.3742 86.001 44.3229C85.2164 44.2766 84.4319 44.328 83.6473 44.3074C83.2143 44.2972 82.9087 44.4359 82.6489 44.7956C79.3425 49.2607 76.026 53.7156 72.7146 58.1756C72.6077 58.3144 72.4548 58.5148 72.4905 58.6432C72.5567 58.9104 72.842 58.8076 73.0356 58.8076C74.6047 58.8128 76.1789 58.859 77.7429 58.7974C81.8185 58.6329 84.4268 56.1871 84.9516 52.1382C85.1044 50.9512 84.9872 49.7643 85.0534 48.5825C85.1044 47.6679 85.6087 47.1746 86.4595 47.1129C87.1473 47.0616 87.5854 47.4521 88.0082 47.9042V53.2069L87.998 53.2018ZM33.5127 85.131C40.5838 85.131 47.6549 85.131 54.721 85.1259C55.4444 85.1259 56.1678 85.0796 56.8861 85.0025C59.5505 84.7251 61.4813 83.3275 62.5563 80.8919C63.6668 78.3742 63.4376 75.8924 61.8431 73.6161C60.3351 71.4683 58.1496 70.6616 55.6329 70.6462C52.0056 70.6205 48.3835 70.6462 44.7562 70.6359C43.5234 70.6359 42.963 70.1273 42.9732 69.0842C42.9833 68.0822 43.5386 67.5992 44.7205 67.5889C46.4425 67.5787 48.1644 67.5992 49.8863 67.5838C51.8986 67.5684 51.6286 67.8664 51.6847 65.7905C51.7051 65.066 51.5166 64.7732 50.732 64.7732C38.3423 64.7937 25.9577 64.7937 13.5679 64.7732C12.8649 64.7732 12.5388 64.9736 12.6356 65.7083C12.6611 65.919 12.6356 66.1348 12.6356 66.3455C12.6356 67.1676 13.0534 67.5804 13.8889 67.5838C21.8974 67.5838 29.9007 67.5838 37.9092 67.5838C38.2404 67.5838 38.5766 67.5684 38.9078 67.6044C39.672 67.6917 40.0999 68.1439 40.1814 68.9095C40.2986 70.0502 39.6668 70.6308 38.3066 70.6308C29.6664 70.6308 21.0262 70.6308 12.3809 70.6308C11.5963 70.6308 10.8118 70.6565 10.0323 70.785C7.16924 71.2577 5.20275 72.8814 4.34688 75.6458C3.45026 78.5283 4.09726 81.1283 6.32864 83.235C7.88245 84.6994 9.80311 85.1259 11.8511 85.1259C19.0699 85.1259 26.2938 85.1259 33.5127 85.1259V85.131ZM29.9874 61.7313C37.9908 61.7313 45.9942 61.7313 53.9976 61.7313C55.5259 61.7313 56.0201 61.2329 56.0252 59.7223C56.0252 56.8911 56.0252 54.0547 56.0252 51.2236C56.0252 50.8587 56.0354 50.4991 55.8978 50.1445C53.9263 45.2015 51.9547 40.2585 49.9933 35.3103C49.6367 34.4163 49.0559 34.036 48.0472 34.0412C42.8814 34.0874 37.7207 34.0617 32.5549 34.0617C30.6598 34.0617 30.4612 34.2107 30.0027 36.0348C29.106 39.6367 28.2145 43.2387 27.323 46.8406C26.9307 48.4181 26.6046 48.6904 25.0254 48.6904C18.6828 48.6904 12.3401 48.6904 5.99749 48.6904C4.4182 48.6904 3.94446 49.1734 3.93936 50.7662C3.93427 53.6283 3.93936 56.4954 3.93936 59.3574C3.93936 61.3254 4.3265 61.7262 6.25221 61.7262C14.1639 61.7262 22.0757 61.7262 29.9925 61.7262L29.9874 61.7313ZM71.1557 6.85458C71.1048 7.47118 71.3901 8.08777 71.6193 8.71464C73.8354 14.9011 76.0566 21.0876 78.2778 27.2741C79.852 31.657 81.4211 36.04 82.9952 40.4229C83.0768 40.649 83.1481 40.9162 83.306 41.0703C83.6219 41.3735 84.0651 41.3118 84.4166 41.1834C84.763 41.0549 84.5542 40.6952 84.5083 40.4537C83.7849 36.5024 83.0462 32.5511 82.3126 28.6049C80.9167 21.0927 79.5259 13.5857 78.1199 6.07357C77.804 4.39335 76.1891 3.191 74.5435 3.37084C72.572 3.58151 71.1557 5.00994 71.1506 6.85458H71.1557Z" fill="#0E2B72"/>
<path d="M22.668 77.9272C22.6578 75.4043 24.5631 73.4517 27.039 73.4414C29.5404 73.4312 31.4814 75.3529 31.4916 77.8501C31.5018 80.373 29.5914 82.3307 27.1155 82.3409C24.6192 82.3512 22.6731 80.4244 22.668 77.9272ZM27.0951 79.2477C27.7777 79.2374 28.4145 78.5849 28.4196 77.8912C28.4196 77.1975 27.7981 76.545 27.1053 76.5296C26.392 76.5141 25.7043 77.2078 25.7349 77.9272C25.7604 78.6157 26.4226 79.2528 27.1002 79.2426L27.0951 79.2477Z" fill="#FFB400"/>
<path d="M18.4369 77.9117C18.4318 80.4192 16.501 82.346 14.0047 82.3409C11.5237 82.3358 9.6082 80.3832 9.61329 77.8706C9.61839 75.3683 11.5543 73.4363 14.0455 73.4414C16.5316 73.4466 18.442 75.394 18.4369 77.9117ZM15.37 77.8603C15.3547 77.1667 14.7026 76.5295 14.02 76.5347C13.3373 76.5398 12.6904 77.1872 12.6802 77.8757C12.67 78.5951 13.373 79.2836 14.076 79.2477C14.7587 79.2168 15.3853 78.5437 15.3649 77.8603H15.37Z" fill="#FFB400"/>
<path d="M48.7776 77.8089C48.798 75.322 50.7593 73.4157 53.2709 73.4414C55.7366 73.4671 57.6267 75.4402 57.6012 77.9734C57.5808 80.4603 55.6195 82.3666 53.1079 82.3409C50.6422 82.3204 48.7521 80.3421 48.7776 77.8089ZM54.5343 77.9066C54.5445 77.2232 53.9128 76.5604 53.2251 76.5398C52.5475 76.5141 51.8801 77.141 51.8495 77.8346C51.8139 78.554 52.4863 79.2579 53.1996 79.2528C53.8771 79.2477 54.5292 78.59 54.5343 77.9066Z" fill="#FFB400"/>
<path d="M40.0887 82.341C37.623 82.3307 35.7075 80.3576 35.7227 77.845C35.7329 75.3478 37.679 73.4261 40.1753 73.4415C42.6512 73.4518 44.5565 75.4146 44.5412 77.9324C44.526 80.4296 42.585 82.3513 40.0887 82.341ZM40.1956 76.5347C39.513 76.4936 38.8303 77.1154 38.7947 77.8245C38.7539 78.5181 39.3704 79.2066 40.0632 79.2477C40.7408 79.2889 41.4235 78.6568 41.4642 77.958C41.505 77.2644 40.8936 76.581 40.1956 76.5347Z" fill="#FFB400"/>
<path d="M40.3155 36.862C42.1903 36.862 44.0599 36.8877 45.9296 36.8518C46.8721 36.8363 47.458 37.232 47.8146 38.1004C49.5365 42.2572 51.2737 46.4089 53.0109 50.5607C53.179 50.9614 53.2605 51.3674 53.2605 51.8041C53.2554 53.6025 53.2707 55.3958 53.2554 57.1942C53.2452 58.3914 52.7155 58.9206 51.5285 58.9258C48.7825 58.9412 46.0315 58.9155 43.2856 58.936C42.5469 58.9412 42.012 58.6586 41.6146 58.0471C40.7485 56.7266 39.8825 55.406 39.0011 54.0958C38.7158 53.6693 38.6139 53.2223 38.619 52.7187C38.6343 51.6551 38.5936 50.5863 38.6343 49.5227C38.6547 48.8753 38.4051 48.6749 37.7835 48.6852C36.0005 48.716 34.2225 48.7006 32.4395 48.6903C30.8347 48.6852 30.2285 47.9042 30.6259 46.3627C31.3085 43.7422 31.9962 41.1268 32.6891 38.5063C33.0508 37.1446 33.4329 36.862 34.8746 36.8569C36.6883 36.8569 38.4968 36.8569 40.3104 36.8569L40.3155 36.862ZM41.6554 46.3473C41.6554 48.1405 41.6554 49.9389 41.6554 51.7322C41.6554 52.1638 41.691 52.5697 41.9508 52.9448C42.501 53.7412 43.0258 54.5582 43.5607 55.3701C43.7492 55.663 43.9631 55.8839 44.3554 55.8788C46.1028 55.8685 47.8553 55.8788 49.6027 55.8788C49.888 55.8788 50.214 55.8428 50.2039 55.4831C50.1733 54.1266 50.5249 52.7239 50.0001 51.4188C48.7724 48.3461 47.4732 45.2991 46.1894 42.2521C45.1909 39.8833 45.1807 39.9244 42.6437 39.8987C41.8133 39.8936 41.6248 40.2019 41.6452 40.9675C41.691 42.7608 41.6604 44.554 41.6604 46.3524L41.6554 46.3473ZM38.6241 42.992V42.1185C38.6241 39.8885 38.6241 39.9193 36.4437 39.8987C35.7254 39.8936 35.4299 40.1608 35.2873 40.8339C35.0733 41.841 34.7778 42.8327 34.5129 43.8295C34.0341 45.6433 34.0341 45.669 35.8528 45.6279C36.7392 45.6074 37.86 46.039 38.4509 45.407C38.9961 44.8212 38.5426 43.7165 38.6241 42.992Z" fill="#0E2B72"/>
<path d="M9.72789 55.216C9.72789 55.9765 9.75336 56.7421 9.72279 57.4974C9.68204 58.4223 9.09619 58.9721 8.21485 58.967C7.3386 58.967 6.74252 58.4172 6.72214 57.4871C6.69158 55.997 6.69158 54.5018 6.72214 53.0117C6.73743 52.0817 7.32838 51.5062 8.17915 51.4856C9.08087 51.4651 9.67186 52.0508 9.73299 53.0168C9.73299 53.0785 9.73299 53.1402 9.73299 53.2018C9.73299 53.8698 9.73299 54.5429 9.73299 55.2109C9.73299 55.2109 9.73299 55.2109 9.72789 55.2109V55.216Z" fill="#FFB400"/>
<path d="M15.5326 55.2417C15.5326 55.9713 15.553 56.7061 15.5326 57.4357C15.4969 58.4171 14.911 58.9875 13.9991 58.9721C13.1229 58.9567 12.5472 58.4017 12.5268 57.4666C12.4963 55.9765 12.4963 54.4812 12.5268 52.9911C12.5472 52.0714 13.1535 51.501 14.0093 51.4908C14.8754 51.4856 15.4613 52.0457 15.5326 52.9603C15.5326 53.022 15.5326 53.0836 15.5326 53.1453C15.5326 53.8441 15.5326 54.548 15.5326 55.2468V55.2417Z" fill="#FFB400"/>
<path d="M21.3321 55.2726C21.3321 56.0022 21.3575 56.7318 21.327 57.4563C21.2862 58.3452 20.6443 58.9259 19.7986 58.9105C18.9835 58.895 18.3518 58.335 18.3314 57.4923C18.2958 55.9765 18.2958 54.4556 18.3314 52.9398C18.3518 52.0354 18.9937 51.4754 19.8547 51.4908C20.7054 51.5062 21.2913 52.0766 21.327 52.9963C21.3575 53.7568 21.3321 54.5121 21.327 55.2726H21.3321Z" fill="#FFB400"/>
<path d="M74.9254 9.18746C74.0797 9.17718 73.453 8.55032 73.4378 7.69736C73.4225 6.8033 74.0746 6.1456 74.9611 6.15588C75.8118 6.16616 76.4333 6.79303 76.4486 7.64598C76.4639 8.5349 75.8067 9.19774 74.9254 9.1926V9.18746Z" fill="black"/>
</svg>
