<svg width="150" height="150" viewBox="0 0 150 150" fill="none" xmlns="http://www.w3.org/2000/svg">
<path d="M113.32 74.9689C113.32 88.3789 113.32 101.799 113.32 115.209C113.32 119.129 111.08 122.089 107.35 123.199C106.67 123.399 105.99 123.439 105.29 123.439C89.1996 123.439 73.1096 123.449 57.0196 123.439C52.4096 123.439 48.9696 119.979 48.9496 115.359C48.9296 107.739 48.9296 100.119 48.9596 92.4989C48.9596 91.549 48.7096 91.229 47.7396 91.2589C45.7896 91.3289 43.8396 91.2789 41.8796 91.2789C41.5696 91.2789 41.2496 91.2789 40.9396 91.2389C39.6696 91.0589 38.8796 90.2189 38.9496 89.1389C39.0196 88.0189 39.8496 87.2689 41.1396 87.2489C43.3796 87.2189 45.6096 87.2089 47.8496 87.2489C48.6396 87.2589 48.9696 87.0689 48.9496 86.1989C48.8996 83.5189 48.8996 80.8489 48.9496 78.1689C48.9696 77.2489 48.6096 77.0589 47.7896 77.0589C46.1596 77.0589 44.5096 77.2089 42.8896 76.9589C41.8396 76.7989 41.2196 76.0789 41.1996 75.1189C41.1696 73.9389 41.9396 73.0989 43.1896 73.0689C44.7596 73.0289 46.3396 73.0289 47.9096 73.0689C48.6596 73.0889 48.9696 72.8789 48.9596 72.0689C48.9196 68.6689 48.9296 65.2689 48.9596 61.8689C48.9596 61.1189 48.7196 60.8789 47.9796 60.8989C46.4696 60.9389 44.9596 60.9189 43.4496 60.8989C42.0196 60.889 41.1996 60.1489 41.2096 58.9189C41.2196 57.7289 42.0396 57.009 43.4096 56.989C44.9196 56.969 46.4296 56.9489 47.9396 56.989C48.7296 57.019 48.9596 56.7389 48.9596 55.9589C48.9396 48.8789 48.9396 41.7889 48.9496 34.7089C48.9496 31.3689 50.4896 28.9489 53.4096 27.3889C54.5996 26.7489 55.8896 26.5489 57.2396 26.5589C64.8596 26.5789 72.4796 26.5589 80.0996 26.5589C88.4396 26.5589 96.7896 26.5589 105.13 26.5589C109.03 26.5589 112 28.8289 113.09 32.5589C113.34 33.419 113.32 34.2989 113.32 35.1789C113.32 48.4389 113.32 61.6889 113.32 74.9489V74.9689ZM109.41 75.0189C109.41 65.1289 109.41 55.249 109.41 45.3589C109.41 44.5123 108.973 44.0889 108.1 44.0889C103.31 44.0889 98.5296 44.0889 93.7396 44.0889C80.4796 44.0889 67.2296 44.0889 53.9696 44.0689C53.0996 44.0689 52.8396 44.3089 52.8496 45.1889C52.8996 48.7489 52.8996 52.309 52.8496 55.8589C52.8396 56.809 53.1696 57.0289 54.0496 56.9989C55.7196 56.9389 57.3896 56.969 59.0596 56.989C60.4296 56.989 61.0796 57.5189 61.3596 58.8589C61.5596 59.8089 61.7396 60.7689 61.8996 61.7289C62.1296 63.0389 62.1196 63.0389 63.4296 63.0389C76.0596 63.0389 88.6796 63.0389 101.31 63.0389C103.94 63.0389 104.63 63.9289 104.02 66.5089C103.21 69.9389 102.4 73.3689 101.59 76.799C100.63 80.8989 99.6696 85.0089 98.6996 89.1089C98.5096 89.9289 98.2296 90.7489 97.3496 91.0289C96.6496 91.2489 96.6196 91.549 96.7896 92.1889C97.4196 94.629 96.7496 96.769 94.9596 98.479C93.1296 100.239 90.8996 100.679 88.4896 99.9389C85.2296 98.9389 83.3896 95.5889 84.2096 92.1389C84.3696 91.4589 84.2696 91.2389 83.5496 91.2489C81.9496 91.2889 80.3396 91.2789 78.7296 91.2489C78.0696 91.2389 77.7996 91.3689 78.0296 92.1089C78.1996 92.6689 78.2996 93.2889 78.2596 93.8789C78.0896 96.5389 76.8796 98.599 74.3996 99.6889C71.9796 100.749 69.6196 100.469 67.5896 98.7489C65.5496 97.0189 64.7796 94.7589 65.4696 92.1289C65.6596 91.4089 65.4896 91.2589 64.7996 91.2589C61.1796 91.2789 57.5596 91.2889 53.9396 91.2589C53.0596 91.2489 52.8196 91.549 52.8296 92.409C52.8696 96.4989 52.8496 100.599 52.8496 104.689C52.8496 105.509 53.2663 105.919 54.0996 105.919C72.1096 105.919 90.1196 105.919 108.13 105.919C108.963 105.919 109.38 105.509 109.38 104.689C109.38 94.799 109.38 84.9189 109.38 75.0289L109.41 75.0189ZM81.3696 67.0889C75.5796 67.0889 69.7896 67.0989 63.9996 67.0789C63.2196 67.0789 62.8596 67.1789 63.0396 68.1089C64.1796 74.1889 65.2896 80.2889 66.3696 86.3789C66.4896 87.0489 66.7696 87.2389 67.4296 87.2389C76.3296 87.2189 85.2396 87.2189 94.1396 87.2389C94.8496 87.2389 95.1196 86.9689 95.2696 86.299C96.6696 80.269 98.0896 74.2389 99.5096 68.2089C99.7696 67.1189 99.7396 67.0889 98.6396 67.0889C92.8796 67.0889 87.1196 67.0889 81.3696 67.0889ZM81.2396 109.829H72.7396C66.5396 109.829 60.3396 109.829 54.1396 109.829C53.2929 109.829 52.8696 110.266 52.8696 111.139C52.8696 112.429 52.8396 113.719 52.8696 115.009C52.9396 117.829 54.5496 119.429 57.3796 119.509C57.5996 119.509 57.8196 119.509 58.0396 119.509C73.4296 119.509 88.8196 119.509 104.21 119.509C104.37 119.509 104.52 119.509 104.68 119.509C107.72 119.469 109.36 117.849 109.4 114.829C109.42 113.569 109.4 112.309 109.4 111.049C109.4 110.229 108.98 109.819 108.14 109.819C99.1696 109.819 90.1996 109.819 81.2296 109.819L81.2396 109.829ZM81.1396 40.1689C84.5996 40.1689 88.0596 40.1689 91.5296 40.1689C97.1296 40.1689 102.73 40.1589 108.34 40.1889C109.15 40.1889 109.47 39.9889 109.43 39.1389C109.37 37.7589 109.43 36.3689 109.4 34.9889C109.33 32.2689 107.84 30.7089 105.17 30.5089C104.86 30.4889 104.54 30.4989 104.23 30.4989C88.8396 30.4989 73.4496 30.4989 58.0596 30.4989C57.8396 30.4989 57.6196 30.4989 57.3996 30.4989C54.5696 30.5789 52.9696 32.1789 52.8896 34.9989C52.8596 36.0089 52.8896 37.0089 52.8896 38.0189C52.8896 39.4656 53.6263 40.1889 55.0996 40.1889H81.1596L81.1396 40.1689ZM52.8696 82.1889C52.8696 83.5989 52.8796 85.0189 52.8696 86.4289C52.8696 86.9789 53.0396 87.2389 53.6296 87.229C56.2996 87.209 58.9696 87.219 61.6396 87.229C62.2096 87.229 62.4596 87.0289 62.3496 86.4389C61.8196 83.5989 61.2996 80.7589 60.7896 77.9189C60.6896 77.3289 60.4396 77.0489 59.7996 77.0589C57.7896 77.0889 55.7796 77.0889 53.7696 77.0589C53.0496 77.0589 52.8596 77.3789 52.8696 78.0389C52.8996 79.4189 52.8696 80.799 52.8796 82.1889H52.8696ZM52.8696 66.9189C52.8696 68.6489 52.8996 70.3789 52.8496 72.0989C52.8296 72.8589 53.1096 73.0789 53.8396 73.0589C55.5696 73.0189 57.2996 73.0189 59.0196 73.0589C59.6596 73.0689 59.8596 72.8789 59.7396 72.2489C59.0796 68.6989 58.4496 65.1489 57.8096 61.5989C57.7296 61.1289 57.4796 60.889 56.9696 60.8989C55.8696 60.9189 54.7696 60.9289 53.6696 60.8989C53.0496 60.8789 52.8496 61.139 52.8496 61.7389C52.8696 63.4689 52.8496 65.1989 52.8496 66.9189H52.8696ZM69.2796 93.7189C69.2696 95.159 70.3096 96.2589 71.7096 96.2889C73.0696 96.3189 74.2496 95.1789 74.2796 93.8289C74.2996 92.4289 73.2196 91.3089 71.8196 91.2889C70.3696 91.269 69.2896 92.299 69.2796 93.7189ZM92.9996 93.7789C93.0096 92.3489 91.9596 91.2889 90.5196 91.2889C89.1096 91.2889 88.0096 92.3689 87.9996 93.7689C87.9996 95.1289 89.1496 96.2889 90.5096 96.2889C91.9196 96.2889 92.9896 95.2089 92.9996 93.7789Z" fill="#0E2B72"/>
<path d="M31.6998 60.8991C30.6998 60.8991 29.6898 60.9191 28.6898 60.8991C27.4798 60.8691 26.6998 60.0891 26.6798 58.9791C26.6698 57.8291 27.4698 57.0191 28.7198 56.9991C30.7298 56.9691 32.7398 56.9691 34.7398 56.9991C35.9998 57.0191 36.7998 57.8091 36.7998 58.9691C36.7998 60.1191 35.9898 60.8591 34.7098 60.9091C34.6498 60.9091 34.5798 60.9091 34.5198 60.9091C33.5798 60.9091 32.6398 60.9091 31.6998 60.9091V60.8991Z" fill="#FFA500"/>
<path d="M37.562 75.0206C37.562 76.1506 36.712 76.9806 35.572 76.9606C34.492 76.9406 33.662 76.1006 33.672 75.0306C33.672 73.9506 34.592 73.0506 35.672 73.0706C36.742 73.0906 37.562 73.9406 37.562 75.0206Z" fill="#FFA500"/>
<path d="M81.1517 112.161C82.4117 112.161 83.6617 112.141 84.9217 112.161C86.2417 112.181 87.1417 112.971 87.1817 114.081C87.2117 115.161 86.4517 116.041 85.1417 116.121C82.4717 116.271 79.8017 116.271 77.1317 116.121C75.8317 116.041 75.0617 115.161 75.1117 114.071C75.1517 112.961 76.0617 112.181 77.3817 112.161C78.6417 112.141 79.8917 112.161 81.1517 112.161Z" fill="#FFA500"/>
<path d="M81.3356 33.38C82.8156 33.38 84.2956 33.37 85.7756 33.38C87.0956 33.39 87.9756 34.2 87.9756 35.33C87.9756 36.47 87.0856 37.27 85.7756 37.28C82.7556 37.29 79.7356 37.29 76.7156 37.28C75.3956 37.28 74.5156 36.47 74.5156 35.33C74.5156 34.19 75.4056 33.39 76.7156 33.38C78.2556 33.36 79.7956 33.38 81.3356 33.38Z" fill="#FFA500"/>
<path d="M68.3653 37.2806C67.2753 37.3006 66.3553 36.3806 66.3753 35.3106C66.3953 34.2706 67.2753 33.4006 68.3253 33.3906C69.3953 33.3906 70.2653 34.2106 70.3053 35.2606C70.3453 36.3606 69.4753 37.2606 68.3753 37.2806H68.3653Z" fill="#FFA500"/>
<path d="M93.9545 37.2807C92.8445 37.2807 91.9745 36.4007 91.9845 35.3007C92.0045 34.2407 92.8545 33.4007 93.9245 33.3907C95.0145 33.3807 95.9345 34.3007 95.9045 35.3707C95.8845 36.4107 94.9945 37.2807 93.9445 37.2807H93.9545Z" fill="#FFA500"/>
</svg>
