<svg width="96" height="110" viewBox="0 0 96 110" fill="none" xmlns="http://www.w3.org/2000/svg">
<path d="M95.2674 63.2743C94.2522 67.6095 92.8966 71.8252 90.7706 75.7663C84.2614 87.7985 74.193 94.8924 60.7029 96.7256C52.0319 97.9019 43.4385 97.1854 35.3349 93.316C24.9261 88.3419 18.1661 80.197 14.3203 69.4606C13.6634 67.6334 13.1438 65.7703 12.7616 63.8714C12.4033 62.092 12.7616 61.471 14.4516 60.832C16.7209 59.9722 18.9842 59.0824 21.2714 58.2763C22.0776 57.9897 22.4239 57.5896 22.4 56.7118C22.3463 54.8547 22.3702 52.9917 22.3881 51.1286C22.3941 50.3763 22.191 50.0896 21.3789 50.3643C20.0711 50.8062 18.7931 50.6688 17.5211 50.0837C10.0146 46.6143 4.3355 41.2521 0.567324 33.8835C0.173188 33.1192 0 32.3429 0 31.483C0.0179153 24.3055 0.0059743 17.134 0.0119461 9.95644C0.0119461 7.52611 0.80022 6.91107 3.15906 7.32906C9.04721 8.38001 13.7589 6.45725 17.2405 1.5966C18.7692 -0.53516 20.9191 -0.541131 22.3702 1.63243C25.4397 6.23034 30.868 8.42181 36.374 7.28726C38.7627 6.79164 39.527 7.41266 39.533 9.85493C39.533 12.0165 39.5569 14.1841 39.5211 16.3457C39.5091 17.134 39.7838 17.4385 40.5781 17.4086C41.6769 17.3609 42.7876 17.331 43.8804 17.4146C45.0151 17.5042 45.3973 17.1399 45.3793 15.9636C45.3137 11.6762 45.3495 7.3828 45.3555 3.0954C45.3555 0.653132 45.9168 0.0977997 48.3831 0.0977997C52.2528 0.0977997 56.1285 0.0918284 59.9982 0.0977997C61.8853 0.0977997 62.5302 0.748673 62.5302 2.63561C62.5362 7.11409 62.566 11.5985 62.5123 16.077C62.5004 17.1399 62.8467 17.4325 63.8798 17.4206C67.8272 17.3668 71.7745 17.3967 75.7218 17.4027C77.6328 17.4027 78.2538 18.0177 78.2538 19.9166C78.2598 25.7625 78.2837 31.6084 78.2359 37.4543C78.224 38.559 78.5703 38.9412 79.6632 38.8636C80.7978 38.7859 81.9384 38.8277 83.079 38.8516C84.7033 38.8874 85.4498 39.5921 85.4916 41.2282C85.5394 43.1987 85.5095 45.1752 85.5095 47.1517C85.5095 50.227 85.5454 53.3022 85.4916 56.3774C85.4737 57.3567 85.7723 57.8882 86.7278 58.2285C88.9791 59.0287 91.1827 59.9542 93.4221 60.7962C94.2402 61.1067 94.9031 61.5486 95.2853 62.3547V63.2683L95.2674 63.2743ZM54.2952 93.304C57.502 93.4772 61.0552 93.1547 64.5128 92.1993C78.4211 88.3538 86.8651 79.1162 90.8423 65.4538C91.1946 64.2536 90.8303 63.8177 89.7375 63.3997C79.072 59.3093 68.3885 55.2608 57.8066 50.9674C55.0237 49.8388 52.7127 49.8627 49.9477 50.9853C39.2941 55.3026 28.539 59.381 17.8197 63.537C17.133 63.8057 16.6074 64.0088 16.8702 64.9821C19.1634 73.3539 23.3496 80.5194 30.3067 85.8578C37.2578 91.1902 45.1823 93.5787 54.3011 93.304H54.2952ZM35.7648 22.0364C35.7648 18.9612 35.7111 15.886 35.7887 12.8167C35.8186 11.6344 35.4304 11.3239 34.2898 11.3776C28.6405 11.6284 24.0184 9.47873 20.3637 5.20924C19.9695 4.74348 19.7366 4.58226 19.247 5.1555C15.5325 9.49665 10.8029 11.5866 5.08793 11.3597C4.01302 11.3179 3.73235 11.6583 3.73832 12.7032C3.78012 18.7761 3.76818 24.8489 3.74429 30.9217C3.74429 31.7219 3.97719 32.3966 4.35341 33.0714C7.64982 38.989 12.3317 43.4256 18.4348 46.3755C19.3306 46.8114 20.1069 46.8651 21.0206 46.4292C27.3327 43.4197 32.0982 38.8098 35.4364 32.6833C35.723 32.1578 35.7648 31.6084 35.7589 31.0352C35.7589 28.0376 35.7589 25.04 35.7589 22.0424L35.7648 22.0364ZM55.173 38.8516C61.1687 38.8516 67.1643 38.8337 73.1659 38.8695C74.1154 38.8695 74.5215 38.6486 74.5096 37.6036C74.4618 32.5161 74.4737 27.4285 74.5036 22.3409C74.5036 21.4632 74.2348 21.1407 73.3331 21.1407C62.4406 21.1646 51.5482 21.1646 40.6557 21.1407C39.7181 21.1407 39.5031 21.5229 39.5211 22.3708C39.5629 24.419 39.3598 26.491 39.5748 28.5153C39.945 32.0264 38.8701 35.0001 36.7681 37.7111C36.5531 37.9858 36.1112 38.2963 36.356 38.6785C36.571 39.0188 37.0607 38.8456 37.425 38.8456C43.343 38.8516 49.267 38.8456 55.185 38.8456L55.173 38.8516ZM57.2273 42.6136C49.4461 42.6136 41.6649 42.6136 33.8837 42.6136C33.2209 42.6136 32.6476 42.6733 32.134 43.2047C30.5694 44.817 28.7958 46.1904 26.8968 47.3906C26.3175 47.7549 26.0846 48.1967 26.0966 48.8834C26.1324 50.854 26.1085 52.8305 26.1085 54.807C26.1085 56.2879 26.1264 56.2998 27.476 55.7803C35.4364 52.6931 43.4027 49.6298 51.3392 46.4949C53.1068 45.7963 54.7251 45.7843 56.4987 46.4889C64.471 49.6418 72.4732 52.717 80.4694 55.8161C81.6995 56.2938 81.7354 56.2699 81.7413 54.9383C81.7413 51.2958 81.6995 47.6474 81.7652 44.0049C81.7831 42.8882 81.4189 42.6016 80.338 42.6076C72.6344 42.6494 64.9309 42.6315 57.2213 42.6315L57.2273 42.6136ZM58.7441 10.6431C58.7441 8.74426 58.7202 6.85135 58.7561 4.95845C58.768 4.21203 58.571 3.84778 57.7409 3.85973C55.2029 3.89556 52.6589 3.88958 50.1209 3.85973C49.4163 3.85376 49.0878 4.05678 49.0878 4.82708C49.1117 8.69649 49.1117 12.5599 49.0878 16.4293C49.0878 17.1817 49.3804 17.4206 50.103 17.4086C52.641 17.3848 55.185 17.3728 57.723 17.4086C58.5351 17.4206 58.774 17.0922 58.7561 16.3278C58.7202 14.4349 58.7441 12.536 58.7441 10.6431Z" fill="#0E2B72"/>
<path d="M24.19 109.988C20.595 109.236 17.7286 107.444 15.9191 104.148C15.1786 102.793 14.7964 101.336 14.5994 99.8189C14.5098 99.1382 14.7188 98.6903 15.5071 98.75C15.5847 98.75 15.6564 98.75 15.734 98.75C17.2508 98.7063 18.2043 99.4109 18.5945 100.864C19.4783 104.13 22.5358 106.357 26.0233 106.28C29.3615 106.202 32.3056 103.754 33.0162 100.47C33.2631 99.3273 33.9877 98.754 35.19 98.75C36.7068 98.75 37.6663 99.4507 38.0684 100.852C39.0537 104.297 42.2545 106.537 45.8197 106.268C49.2714 106.011 52.1139 103.324 52.5857 99.801C52.6872 99.0546 52.938 98.6963 53.7143 98.75C54.5444 98.8038 55.47 98.5888 56.1867 98.8874C56.9749 99.2218 56.6704 100.297 56.9033 101.031C57.9184 104.274 60.9879 106.429 64.4635 106.28C67.7539 106.137 70.6025 103.694 71.2952 100.416C71.5301 99.3094 72.1949 98.756 73.2897 98.756C73.4032 98.756 73.5167 98.756 73.6301 98.756C75.0634 98.756 75.9631 99.4268 76.3294 100.768C77.261 104.202 80.4917 106.513 84.027 106.274C87.5324 106.035 90.4346 103.3 90.8586 99.7473C90.9542 98.9292 91.2826 98.6485 92.0709 98.6127C94.7642 98.4873 95.0508 98.756 94.3939 101.342C93.3011 105.641 90.5959 108.412 86.3201 109.642C85.8842 109.767 85.4423 109.881 85.0063 110H82.0443C78.7599 109.325 76.0248 107.803 74.1497 104.936C73.8929 104.542 73.6958 104.477 73.4152 104.906C71.5161 107.809 68.7512 109.349 65.413 109.994H62.6779C59.5786 109.373 56.9033 108.029 55.0162 105.39C54.7534 105.02 54.5623 104.948 54.2637 105.36C52.3528 108.029 49.6655 109.409 46.5005 109.988H43.7654C40.4869 109.307 37.7399 107.791 35.8648 104.918C35.602 104.518 35.399 104.483 35.1302 104.906C33.3029 107.767 30.5798 109.254 27.361 109.988H24.1721H24.19Z" fill="#FFB400"/>
<path d="M56.213 62.0663L52.3613 62.0879L52.4955 85.9728L56.3472 85.9511L56.213 62.0663Z" fill="#FFB400"/>
<path d="M64.8288 65.8441L62.4331 68.8612L54.293 62.3981L46.2261 68.9523L43.7967 65.9623L51.2038 59.9433L54.2653 57.4539L57.3546 59.9087L64.8288 65.8441Z" fill="#FFB400"/>
</svg>
