<svg width="90" height="89" viewBox="0 0 90 89" fill="none" xmlns="http://www.w3.org/2000/svg">
<path d="M0.00968243 24.9229C0.615167 22.0693 1.88427 19.5936 4.14636 17.6799C6.33094 15.834 8.8546 14.8311 11.698 14.8262C28.5934 14.7972 45.4888 14.7875 62.3794 14.8262C68.8702 14.8408 74.15 20.2234 74.1839 26.7252C74.2082 30.7464 74.1839 34.7677 74.1888 38.7889C74.1888 39.9759 74.1888 39.9759 75.4094 39.9856C81.1301 40.0389 85.7317 35.6107 85.8867 29.918C86.0127 25.2233 82.7382 20.9695 78.0833 19.7777C75.114 19.017 73.9563 17.52 73.9514 14.4435C73.9514 12.8786 73.9272 11.3186 73.9611 9.75852C73.9757 9.10447 73.7674 8.72172 73.1861 8.3729C71.2437 7.20528 70.5268 4.87006 71.389 2.77709C72.2173 0.771317 74.4552 -0.376914 76.5817 0.112416C78.7323 0.611436 80.2146 2.55422 80.0789 4.77317C79.9821 6.3865 79.2313 7.65101 77.8072 8.44072C77.3034 8.72172 77.1193 9.04148 77.129 9.60349C77.1581 11.3379 77.1339 13.0772 77.1387 14.8117C77.1387 15.9842 77.4293 16.3572 78.5483 16.6624C84.3464 18.2564 87.7904 22.0209 88.8367 27.9364C90.0767 34.9421 84.545 42.2578 77.4729 43.033C76.5817 43.1299 75.6904 43.251 74.7943 43.159C74.3341 43.1105 74.1452 43.2752 74.1791 43.7307C74.1936 43.9632 74.1791 44.1958 74.1791 44.4235C74.1791 55.0725 74.0871 65.7215 74.213 76.3656C74.2905 82.8819 69.9891 87.9206 64.2249 88.9283C64.1716 88.938 64.1184 88.9719 64.0651 88.9961H9.89603C7.56613 88.4341 5.42998 87.5039 3.66197 85.8276C1.66145 83.9333 0.552202 81.5787 0 78.9237V24.9229H0.00968243ZM62.113 28.9781C61.9435 29.0459 61.866 29.0653 61.7981 29.104C60.8439 29.6563 60.098 29.5934 59.5506 28.9102C58.9742 28.1884 59.0759 27.4132 59.8654 26.5992C60.2869 26.1632 60.7228 25.7417 61.1539 25.3105C61.9193 24.545 62.8202 24.2495 63.8423 24.6468C64.8837 25.0537 65.2857 25.9355 65.31 26.9965C65.3342 28.0382 65.2857 29.0798 65.3293 30.1215C65.494 33.7745 67.1652 36.5554 70.2362 38.5176C70.861 38.9149 71.0015 38.755 70.9967 38.0719C70.9773 34.196 71.0209 30.3152 70.9676 26.4394C70.9046 21.8658 67.0877 18.0965 62.4957 18.0142C60.4709 17.9802 58.4462 17.9996 56.4215 17.9996C41.5508 17.9996 26.6801 17.9996 11.8094 18.0045C9.50852 18.0045 7.51285 18.8136 5.84171 20.393C3.78791 22.3309 3.09039 24.7437 3.09524 27.5246C3.13399 43.7888 3.11461 60.0481 3.11461 76.3123C3.11461 76.8065 3.11945 77.2958 3.14367 77.7851C3.25508 80.1737 4.29652 82.1116 6.03062 83.7056C7.96333 85.4788 10.3223 85.9778 12.8556 85.9778C28.6515 85.9778 44.4474 85.9778 60.2433 85.9778C61.1684 85.9778 62.0888 85.9536 63.014 85.8712C67.4655 85.4739 70.9531 81.8451 70.9676 77.3927C71.0064 65.9928 70.9821 54.5928 70.9967 43.188C70.9967 42.5727 70.769 42.2675 70.2168 42.0204C66.0268 40.1358 63.4305 36.9333 62.423 32.447C62.1711 31.323 62.1082 30.1747 62.1082 28.9732L62.113 28.9781ZM75.5741 5.9214C76.3395 5.91171 76.9062 5.31579 76.8965 4.52123C76.8868 3.72668 76.3201 3.19859 75.5015 3.22766C74.7507 3.25188 74.1985 3.80904 74.2033 4.54546C74.2082 5.29641 74.8379 5.92624 75.5741 5.9214Z" fill="#0E2B72"/>
<path d="M37.0271 47.5773C29.5869 47.5531 23.5562 41.4971 23.5998 34.0844C23.6434 26.759 29.7806 20.6981 37.1239 20.7272C44.4866 20.7562 50.5173 26.8607 50.4688 34.2298C50.4204 41.686 44.4576 47.6016 37.0222 47.5773H37.0271ZM44.5448 41.0804C47.359 38.4254 48.105 33.4934 46.337 29.7967C44.4285 25.7997 39.9867 23.3434 35.8161 23.9781C30.9528 24.7145 27.6445 28.009 26.8598 32.9071C26.3754 35.9352 27.906 39.9564 29.6014 40.9593C29.7952 39.3605 30.4927 38.0136 31.7424 37.0204C32.2704 36.6037 32.2849 36.347 31.9458 35.785C30.6089 33.5563 30.7203 31.318 32.1832 29.1814C33.5201 27.229 36.0535 26.2987 38.3785 26.8317C40.752 27.3743 42.5103 29.2444 42.9656 31.6232C43.266 33.193 42.8881 34.598 42.0938 35.9352C41.9145 36.2404 41.6917 36.502 42.118 36.8121C43.5324 37.8343 44.2638 39.2733 44.5448 41.0804ZM37.1046 38.6967C36.9011 38.6967 36.6977 38.7064 36.4991 38.6967C33.5879 38.5368 32.4351 40.1211 32.7015 43.0183C32.7354 43.4011 32.9291 43.5803 33.2488 43.7063C35.7822 44.7043 38.3155 44.7043 40.8489 43.7063C41.2412 43.5513 41.4205 43.3042 41.4447 42.8633C41.5997 40.0872 40.5147 38.5223 37.5405 38.6919C37.3952 38.7016 37.2499 38.6919 37.1094 38.6919L37.1046 38.6967ZM37.0367 35.5137C38.674 35.5233 39.9043 34.3073 39.8946 32.694C39.8849 31.1291 38.6594 29.8694 37.1143 29.8403C35.5109 29.8113 34.2515 31.037 34.2321 32.6552C34.2128 34.3024 35.3947 35.5088 37.0367 35.5137Z" fill="#FFB400"/>
<path d="M37.0365 83.1532C31.7131 83.1532 26.3945 83.1532 21.0711 83.1532C18.0921 83.1532 16.2708 81.3315 16.2611 78.3374C16.2514 76.4867 16.2466 74.6359 16.2611 72.7852C16.2853 70.1108 18.1599 68.2213 20.8434 68.139C21.478 68.1196 22.1174 68.1341 22.7519 68.1341C32.7884 68.1341 42.8249 68.1341 52.8566 68.1341C55.3899 68.1341 57.1628 69.4083 57.7295 71.6176C57.8167 71.9519 57.8603 72.3007 57.8603 72.6447C57.8748 74.6408 57.8845 76.6369 57.8603 78.6329C57.8313 81.2007 55.9082 83.1338 53.3361 83.1435C47.9013 83.1629 42.4616 83.1483 37.0268 83.1483L37.0365 83.1532ZM37.022 79.9701C42.2824 79.9701 47.5477 79.9701 52.8082 79.9701C54.3437 79.9701 54.6827 79.6213 54.6876 78.0661C54.6924 76.4188 54.6973 74.7667 54.6876 73.1195C54.6779 71.7581 54.2662 71.3317 52.9438 71.3317C42.3599 71.3317 31.7761 71.3317 21.197 71.3317C19.8795 71.3317 19.3612 71.8453 19.3515 73.1679C19.337 74.7571 19.3418 76.351 19.3515 77.9401C19.3564 79.568 19.7632 79.9701 21.415 79.9701C26.6222 79.9701 31.8245 79.9701 37.0317 79.9701H37.022Z" fill="#0E2B72"/>
<path d="M37.1182 50.3971C42.4126 50.3971 47.7021 50.3971 52.9964 50.3971C56.0093 50.3971 57.8645 52.2527 57.8742 55.2614C57.8791 57.054 57.8839 58.8466 57.8742 60.644C57.8597 63.4443 55.9318 65.4017 53.1272 65.4065C46.9658 65.421 40.8092 65.4113 34.6478 65.4113C30.1963 65.4113 25.7399 65.3532 21.2884 65.4307C18.5468 65.4792 16.0667 63.5558 16.2411 60.4211C16.338 58.6625 16.2508 56.8941 16.2605 55.1306C16.2798 52.2285 18.1399 50.3971 21.0704 50.3923C26.4229 50.3874 31.7706 50.3923 37.123 50.3923L37.1182 50.3971ZM36.9777 62.2186C42.2672 62.2186 47.5616 62.2186 52.8511 62.2186C54.2655 62.2186 54.6724 61.8213 54.6821 60.4308C54.6918 58.7545 54.6918 57.0782 54.6821 55.397C54.6772 53.9581 54.314 53.5899 52.8899 53.5899C42.3351 53.5899 31.7802 53.5899 21.2303 53.5899C19.7771 53.5899 19.3509 54.0356 19.3412 55.5278C19.3315 57.0879 19.3363 58.6528 19.3412 60.2128C19.346 61.7583 19.811 62.2186 21.3659 62.2186C26.5682 62.2186 31.7754 62.2186 36.9777 62.2186Z" fill="#0E2B72"/>
<path d="M31.1272 74.0982C31.9555 74.103 32.6773 74.8249 32.6821 75.6485C32.6869 76.5157 31.9361 77.2522 31.0691 77.2279C30.2408 77.2037 29.5384 76.4673 29.553 75.6388C29.5675 74.8297 30.3183 74.0933 31.1272 74.0982Z" fill="#0E2B72"/>
<path d="M26.7715 75.6923C26.7473 76.5111 26.011 77.2281 25.1924 77.2281C24.3399 77.2281 23.5891 76.4384 23.6327 75.5905C23.6763 74.7766 24.4561 74.0644 25.2554 74.0983C26.0788 74.1322 26.7909 74.8832 26.7715 75.6923Z" fill="#0E2B72"/>
<path d="M38.5957 75.6827C38.5957 76.5306 37.9127 77.2234 37.065 77.2331C36.1883 77.2428 35.4908 76.5209 35.5102 75.6246C35.5295 74.7961 36.2561 74.0936 37.0796 74.1081C37.9079 74.1227 38.5909 74.8349 38.5957 75.6827Z" fill="#0E2B72"/>
<path d="M43.0035 74.1079C43.8415 74.1273 44.5148 74.8298 44.5051 75.6825C44.4954 76.5933 43.7931 77.2716 42.9018 77.2328C42.0493 77.1941 41.4244 76.511 41.4438 75.6292C41.4632 74.7813 42.1655 74.0982 42.9987 74.1128L43.0035 74.1079Z" fill="#0E2B72"/>
<path d="M50.4335 75.6775C50.4287 76.5448 49.7699 77.2182 48.9125 77.2279C48.06 77.2376 47.3722 76.569 47.3576 75.7114C47.3431 74.8248 48.06 74.0884 48.9222 74.1078C49.7602 74.1272 50.4335 74.8297 50.4287 75.6775H50.4335Z" fill="#0E2B72"/>
<path d="M37.061 56.3081C40.8489 56.3081 44.6368 56.3081 48.4247 56.3081C48.8897 56.3081 49.3547 56.3081 49.7568 56.5891C50.2848 56.9525 50.4882 57.466 50.4204 58.091C50.3574 58.7015 49.9941 59.0842 49.4613 59.3313C49.0835 59.5057 48.6766 59.5057 48.2697 59.5057C40.8102 59.5057 33.3506 59.5057 25.891 59.5057C25.7457 59.5057 25.6004 59.5057 25.4551 59.5009C24.3603 59.433 23.6338 58.7984 23.6289 57.9021C23.6241 56.9622 24.3652 56.3178 25.518 56.3178C29.3641 56.3081 33.2101 56.3178 37.0562 56.3178L37.061 56.3081Z" fill="#0E2B72"/>
</svg>
