<svg width="63" height="78" viewBox="0 0 63 78" fill="none" xmlns="http://www.w3.org/2000/svg">
<path d="M7.53904 0H40.1406C42.3781 0.4639 44.4127 1.33854 46.0558 2.97186C50.5261 7.43206 55.0012 11.8874 59.4376 16.3766C61.4722 18.4352 62.4967 20.9528 62.5016 23.8618C62.5016 38.6583 62.5112 53.4499 62.5016 68.2464C62.5016 73.2768 58.4614 77.3214 53.4305 77.3263C38.6183 77.3456 23.8011 77.3408 8.98886 77.3504C6.92529 77.3504 5.09369 76.6836 3.46506 75.4368C1.5803 73.992 0.541265 72.0253 0 69.7589V7.54803C0.362454 6.19016 0.821562 4.88061 1.66246 3.72569C3.13643 1.7058 5.15651 0.57021 7.54387 0H7.53904ZM2.94313 38.8999C2.94313 48.8689 2.93346 58.8331 2.94313 68.8021C2.94313 72.523 5.36432 74.9971 9.04202 75.0019C23.9606 75.0261 38.8792 75.0309 53.8027 75.0213C57.4127 75.0213 59.8774 72.5665 59.8774 68.9616C59.8967 53.9863 59.8919 39.0062 59.8774 24.031C59.8774 21.9096 59.1235 20.0733 57.6012 18.5608C53.1454 14.1199 48.6945 9.66941 44.2484 5.21404C42.7309 3.6967 40.8945 2.95253 38.7729 2.9477C28.861 2.93803 18.9491 2.9477 9.03718 2.95736C8.10447 2.95736 7.19109 3.0975 6.34053 3.50341C3.91934 4.64866 2.93346 6.65889 2.93346 9.2345C2.92863 19.1262 2.93346 29.0131 2.93346 38.9048L2.94313 38.8999Z" fill="#0E2B72"/>
<path d="M31.4171 40.7217C28.9766 40.712 26.7342 42.3115 25.9416 44.6165C25.1249 46.9892 25.903 49.6034 27.8699 51.1111C28.1743 51.343 28.5078 51.5508 28.7881 51.8069C29.4598 52.4255 29.5565 53.3195 29.0587 54.0395C28.561 54.7595 27.6814 55.0252 26.884 54.6338C26.0479 54.2231 25.3085 53.6529 24.7045 52.9474C24.3468 52.5318 24.1004 52.5076 23.7234 52.9087C23.0033 53.6722 22.2494 54.4115 21.4955 55.1461C20.6643 55.9579 19.6011 56.0255 18.8859 55.3442C18.1078 54.6 18.132 53.5756 18.997 52.6864C19.9781 51.6716 20.9881 50.681 21.9885 49.6856C22.2688 49.4053 22.5201 49.125 22.3509 48.6756C22.1673 48.1876 21.7517 48.2745 21.3747 48.2649C20.9639 48.2552 20.5531 48.2697 20.1424 48.2552C19.0888 48.2166 18.3398 47.5062 18.3253 46.5446C18.3108 45.5636 19.0792 44.8291 20.1762 44.7953C20.6401 44.7808 21.0992 44.7905 21.5632 44.7856C21.8821 44.7856 22.1769 44.7615 22.3219 44.399C22.4669 44.0366 22.3703 43.7564 22.1093 43.4954C21.0751 42.4613 20.0409 41.4272 19.0067 40.3882C18.5524 39.934 18.2383 39.4073 18.3543 38.7404C18.4654 38.0881 18.8182 37.5952 19.4513 37.3632C20.1375 37.1168 20.7803 37.2376 21.3071 37.7402C22.1238 38.523 22.926 39.3155 23.7089 40.1321C24.081 40.5236 24.3033 40.5042 24.69 40.1128C28.474 36.2663 34.2346 36.2373 38.0524 40.0548C38.5309 40.538 38.787 40.4897 39.2026 40.0403C39.8792 39.3058 40.5993 38.6051 41.3242 37.9141C42.1989 37.0781 43.2814 37.0443 43.9918 37.803C44.6877 38.5423 44.6104 39.5378 43.7647 40.4124C42.7982 41.4079 41.8074 42.3792 40.8312 43.3601C40.5509 43.6404 40.2996 43.9206 40.4591 44.3701C40.6331 44.8629 41.0439 44.7905 41.4208 44.8001C41.9089 44.8146 42.397 44.7808 42.8851 44.8291C43.8179 44.9209 44.4606 45.6361 44.4606 46.5253C44.4606 47.4096 43.8227 48.1344 42.8948 48.2262C42.3584 48.2794 41.8171 48.2504 41.2807 48.26C40.9376 48.26 40.6041 48.2697 40.4591 48.6756C40.3286 49.0429 40.4591 49.3231 40.7153 49.5793C41.5513 50.4152 42.3825 51.2512 43.2186 52.0872C43.3443 52.2129 43.4747 52.3433 43.6004 52.469C44.6153 53.4982 44.7457 54.5227 43.958 55.3007C43.1799 56.069 42.1361 55.9434 41.1212 54.9383C40.4446 54.2714 39.7632 53.6094 39.1108 52.9184C38.7532 52.5415 38.5019 52.4786 38.1249 52.9184C37.6078 53.5224 36.9796 54.0201 36.2885 54.4309C35.2688 55.0349 34.2877 54.861 33.7271 53.9863C33.1907 53.1503 33.413 52.1742 34.3844 51.5315C35.8584 50.5602 36.7959 49.2555 37.11 47.511C37.748 43.998 35.0126 40.7217 31.4268 40.712L31.4171 40.7217Z" fill="#0E2B72"/>
<path d="M23.9805 33.2509C24.0191 31.7045 24.4637 30.25 25.4399 28.9936C25.7976 28.5297 25.7734 28.2156 25.353 27.8194C24.4782 26.9882 23.6325 26.1281 22.7916 25.2631C21.9701 24.4174 21.9169 23.3882 22.6321 22.6682C23.3522 21.9433 24.3912 21.9771 25.2273 22.7938C26.2567 23.7989 27.2764 24.8137 28.2767 25.8478C28.6392 26.2199 28.9968 26.3407 29.5091 26.1812C30.7656 25.785 32.0414 25.7898 33.3028 26.1812C33.8102 26.3407 34.1775 26.2296 34.54 25.8526C35.5065 24.8572 36.4924 23.8811 37.4782 22.9098C38.4061 21.9965 39.4355 21.9095 40.1846 22.673C40.9288 23.4317 40.8273 24.4416 39.9043 25.3791C39.131 26.1667 38.3675 26.9641 37.5556 27.7179C37.0723 28.1673 37.0095 28.5056 37.4203 29.0758C38.7927 30.9797 39.1745 33.0962 38.5124 35.3674C38.1742 36.532 37.3284 37.1264 36.3812 36.8896C35.3229 36.6286 34.8637 35.7298 35.1392 34.4686C35.5983 32.3956 34.8637 30.6656 33.1771 29.8248C31.5243 29.0033 29.5623 29.4285 28.3637 30.8637C27.4987 31.9027 27.4359 33.1011 27.6533 34.3623C27.7113 34.6909 27.7983 35.0243 27.7838 35.3481C27.7403 36.1406 27.1217 36.7833 26.3243 36.9186C25.5753 37.049 24.7972 36.6238 24.4686 35.8458C24.1254 35.034 23.9998 34.169 23.9853 33.246L23.9805 33.2509Z" fill="#FFB400"/>
</svg>
