<svg width="66" height="90" viewBox="0 0 66 90" fill="none" xmlns="http://www.w3.org/2000/svg">
<path d="M3.20182 89.1924C3.26679 89.1664 3.33718 89.1456 3.44005 89.1041C3.12061 89.0262 2.83908 88.9535 2.57379 88.8289C0.938727 88.0554 0.0616468 86.7886 0.023748 85.0441C-0.0141507 83.3101 0.00209163 81.576 0.023748 79.8419C0.0345762 78.8866 0.353996 78.0144 1.0091 77.2824C1.14987 77.1266 1.1607 77.0176 1.0091 76.8566C0.316097 76.1194 0.034571 75.2212 0.0183287 74.2555C-0.00332776 72.4903 -0.00874187 70.7303 0.0183287 68.9651C0.0291569 68.0254 0.364835 67.1739 1.0037 66.4471C1.14447 66.2861 1.14447 66.1875 1.0037 66.0265C0.337765 65.2789 0.0291569 64.3911 0.0183287 63.4202C0.00208634 61.6654 -0.00332776 59.9054 0.0183287 58.1505C0.0453992 56.0167 1.75085 54.2982 3.96521 54.1113C4.29006 54.0854 4.6149 54.0802 4.93975 54.0802C10.0073 54.0802 15.0749 54.0802 20.1425 54.0802C20.2183 54.0802 20.3375 54.1269 20.3537 54.0231C20.3699 53.9296 20.2454 53.9192 20.175 53.8829C17.9444 52.8186 15.8762 51.5154 13.9651 49.9838C11.3771 47.9071 9.28727 45.4358 7.56017 42.6738C6.54232 41.0487 5.70313 39.351 5.08592 37.5494C4.45789 35.7115 4.00311 33.8373 3.72699 31.9215C3.48877 30.2809 3.45629 28.6351 3.52667 26.9945C3.6133 24.9489 3.9598 22.9345 4.52287 20.9512C4.97224 19.3781 5.52989 17.8465 6.26621 16.3824C7.25699 14.4096 8.43725 12.5457 9.86116 10.8272C11.0848 9.35274 12.4112 7.97171 13.9217 6.76722C15.7192 5.33428 17.6358 4.07786 19.7257 3.06546C21.8643 2.03229 24.0949 1.2639 26.4175 0.729143C27.5978 0.459169 28.7834 0.251496 29.9854 0.14766C31.7558 -0.00290222 33.5262 -0.0600121 35.3074 0.0801667C37.7005 0.267072 40.0448 0.687608 42.3133 1.42485C44.728 2.20362 47.029 3.23159 49.1622 4.58666C51.3819 5.99883 53.4068 7.62386 55.161 9.53964C56.6444 11.1543 57.933 12.9091 59.005 14.8093C59.1512 15.0689 59.254 15.3389 59.2161 15.64C59.1349 16.2371 58.6964 16.6784 58.0846 16.7926C57.4944 16.9016 56.9205 16.642 56.6228 16.1073C55.7132 14.4459 54.6087 12.9195 53.3202 11.5125C52.3835 10.4949 51.3657 9.55522 50.2883 8.66742C48.4475 7.14622 46.3901 5.94172 44.1974 4.96047C42.2591 4.09343 40.2343 3.46003 38.1228 3.1018C36.8234 2.87855 35.5078 2.73837 34.1867 2.67088C32.8549 2.60339 31.523 2.6553 30.202 2.7851C27.5111 3.04988 24.9124 3.69366 22.4327 4.7476C20.8139 5.43292 19.2601 6.21688 17.8199 7.19814C15.6922 8.65703 13.7647 10.3132 12.1351 12.2913C10.343 14.4667 8.93535 16.8445 7.91208 19.4352C7.21908 21.1953 6.75348 23.0072 6.48819 24.8659C6.29328 26.2261 6.21747 27.5968 6.25537 28.9674C6.35282 32.368 7.05667 35.6441 8.51848 38.7539C9.74748 41.3706 11.3555 43.7485 13.4074 45.8563C15.7409 48.2601 18.4425 50.1707 21.5177 51.5985C23.5805 52.5538 25.7407 53.2235 27.9822 53.6285C29.2599 53.8621 30.5539 53.9815 31.8533 54.0542C33.9648 54.1684 36.0492 53.9711 38.1228 53.6285C40.3263 53.2599 42.4162 52.5382 44.441 51.6452C46.5904 50.7003 48.572 49.4906 50.3587 48.0057C52.9791 45.8356 55.161 43.3279 56.769 40.3738C57.8193 38.4424 58.6097 36.4176 59.1295 34.2942C59.4652 32.9235 59.6655 31.5321 59.7738 30.1252C59.9416 27.8979 59.8171 25.6914 59.384 23.5004C59.2161 22.6386 58.9725 21.7923 58.7505 20.9409C58.5773 20.2919 58.8534 19.7364 59.4489 19.4456C60.1582 19.103 61.0298 19.3937 61.3222 20.105C61.5875 20.7539 61.7066 21.4445 61.8745 22.1246C62.2047 23.49 62.4429 24.8711 62.5404 26.2676C62.6216 27.4047 62.6108 28.5417 62.5729 29.6839C62.535 30.8468 62.405 31.9994 62.1885 33.1416C61.7499 35.4364 61.1002 37.674 60.104 39.8183C58.9292 42.3571 57.3916 44.6778 55.5129 46.7857C54.1539 48.3069 52.6597 49.7035 50.9759 50.908C49.3191 52.0917 47.592 53.1456 45.7242 53.9867C45.6917 54.0023 45.6592 54.0231 45.6051 54.0542C45.735 54.1165 45.8487 54.0957 45.9516 54.0957C51.1112 54.0957 56.2654 54.0957 61.4251 54.0957C62.3563 54.0957 63.2388 54.2982 63.9968 54.8174C65.2312 55.6585 65.908 56.8059 65.8809 58.2907C65.8809 58.3686 65.8809 58.4517 65.8809 58.5295C65.8809 58.5451 65.8863 58.5555 65.9025 58.6126C65.9892 58.3426 65.9025 58.083 65.9946 57.8494V63.5085C65.908 63.3424 65.9405 63.1658 65.9405 62.9945C65.9405 61.655 65.9405 60.3103 65.9405 58.9708C65.9405 58.8982 65.9405 58.8203 65.9405 58.6905C65.8592 58.8255 65.8809 58.9034 65.8809 58.9812C65.8809 60.0923 65.8809 61.1981 65.8809 62.3092C65.8809 62.792 65.9242 63.28 65.8917 63.7629C65.8322 64.6247 65.4802 65.3931 64.9118 66.0577C64.7818 66.2134 64.7981 66.3069 64.9172 66.4471C65.5939 67.257 65.9567 68.1707 65.8863 69.2195C65.8863 69.2714 65.8646 69.3285 65.9242 69.3908C65.9729 69.1935 65.908 68.9962 66 68.8197V74.349C65.9188 74.2088 65.9459 74.0531 65.9459 73.9025C65.9459 72.5215 65.9459 71.1456 65.9459 69.7646C65.9459 69.6919 65.9459 69.6193 65.9459 69.5466C65.8917 69.5985 65.8809 69.6504 65.8809 69.6971C65.8809 71.1197 65.8809 72.5422 65.8809 73.9648C65.8809 74.1829 65.9242 74.3957 65.8971 74.6138C65.8051 75.4341 65.4965 76.1765 64.9551 76.8151C64.7872 77.0124 64.8035 77.137 64.9605 77.3291C65.6048 78.1027 65.9458 78.9853 65.8863 79.9925C65.8863 80.0496 65.8592 80.1171 65.9188 80.1846C65.9837 79.9873 65.908 79.79 66 79.6187V85.1479C65.9188 85.0078 65.9459 84.852 65.9459 84.7015C65.9459 83.3256 65.9459 81.9446 65.9459 80.5688C65.9459 80.4909 65.9675 80.413 65.9025 80.3403C65.8809 80.4597 65.8809 80.5792 65.8809 80.6986C65.8809 81.5448 65.8809 82.3963 65.8809 83.2426C65.8809 83.7929 65.8646 84.3432 65.8917 84.8936C65.9459 86.0409 65.5723 87.0378 64.7656 87.8736C64.143 88.5226 63.3633 88.938 62.4538 89.1301C62.4971 89.1612 62.5242 89.182 62.5566 89.2028H3.20723L3.20182 89.1924ZM32.9631 75.73C41.7123 75.73 50.4615 75.73 59.2107 75.73C60.0283 75.73 60.8458 75.7352 61.6633 75.73C62.4646 75.7196 63.1576 75.0914 63.1684 74.323C63.1901 72.5474 63.1847 70.7666 63.1684 68.991C63.163 68.2901 62.6379 67.745 61.9232 67.6048C61.7554 67.5737 61.5929 67.5685 61.4251 67.5685C59.8387 67.5685 58.247 67.5737 56.6607 67.5685C55.7294 67.5633 55.0797 66.743 55.3288 65.8967C55.4912 65.3308 56.0218 64.9362 56.639 64.931C58.1117 64.931 59.5897 64.931 61.0623 64.931C61.3168 64.931 61.5767 64.9258 61.8311 64.8895C62.5566 64.7961 63.163 64.1834 63.1684 63.4825C63.1793 61.7121 63.1847 59.9417 63.1684 58.1713C63.163 57.5691 62.8382 57.1278 62.2589 56.8734C61.9232 56.728 61.5713 56.7228 61.2139 56.7228C42.8006 56.7228 24.3872 56.7228 5.97384 56.7228C5.38371 56.7228 4.79357 56.7228 4.20344 56.7591C3.41298 56.8111 2.7741 57.4029 2.76869 58.1557C2.75244 59.8898 2.75244 61.6239 2.76869 63.3579C2.7741 64.1211 3.2722 64.7078 3.97062 64.8635C4.23049 64.9207 4.4958 64.9258 4.76109 64.9258C17.6412 64.9258 30.516 64.9258 43.3961 64.9258C46.1844 64.9258 48.9781 64.9258 51.7663 64.9258C52.3402 64.9258 52.7733 65.1699 53.0062 65.6839C53.2335 66.1823 53.1848 66.6651 52.8221 67.096C52.4972 67.475 52.0587 67.5737 51.5606 67.5737C35.9247 67.5737 20.2833 67.5737 4.64738 67.5737C4.51744 67.5737 4.38751 67.5737 4.26298 67.5737C3.45087 67.61 2.77951 68.2123 2.76869 68.9703C2.75244 70.7043 2.75244 72.4384 2.76869 74.1725C2.7741 74.9253 3.19641 75.46 3.86235 75.6677C4.12764 75.7508 4.39834 75.7352 4.66904 75.7352C14.1004 75.7352 23.5264 75.7352 32.9577 75.7352L32.9631 75.73ZM32.9686 78.4038C23.7916 78.4038 14.6093 78.4038 5.43243 78.4038C5.0372 78.4038 4.64739 78.4038 4.25216 78.4038C3.43463 78.4142 2.77411 79.0216 2.76328 79.8108C2.74704 81.5396 2.75245 83.2633 2.76328 84.9922C2.76328 85.5062 2.9636 85.9579 3.41838 86.2694C3.76489 86.5082 4.16553 86.5653 4.58241 86.5653C23.5372 86.5653 42.4974 86.5653 61.4521 86.5653C62.5241 86.5653 63.1684 85.9527 63.1739 84.9351C63.1739 83.2893 63.1576 81.6383 63.1847 79.9925C63.2009 79.0891 62.4863 78.3882 61.5063 78.3934C51.9937 78.4142 42.4811 78.4038 32.9686 78.4038Z" fill="#0E2B72"/>
<path d="M32.6436 5.72896C36.4389 5.73935 39.6711 6.41428 42.7517 7.74858C44.7008 8.58965 46.482 9.68512 48.1279 10.9935C50.1041 12.5614 51.75 14.4097 53.1035 16.4916C54.5166 18.667 55.4857 21.0136 56.0812 23.5109C56.4656 25.1256 56.6335 26.7558 56.6335 28.4068C56.6335 31.3505 56.0271 34.1801 54.8739 36.9058C53.6503 39.7976 51.8745 42.326 49.541 44.5014C46.1788 47.6476 42.1941 49.6517 37.6029 50.5498C36.022 50.8614 34.4248 51.0171 32.806 50.9963C31.014 50.9756 29.2544 50.7419 27.5164 50.337C25.1613 49.7867 22.9578 48.8988 20.8734 47.7203C18.8918 46.5989 17.1917 45.1659 15.6379 43.5565C14.7283 42.6168 13.9487 41.5836 13.2124 40.5193C12.9525 40.1403 12.8117 39.7405 12.9633 39.2836C13.1203 38.806 13.4669 38.5152 13.9704 38.401C14.4901 38.2816 14.9341 38.4374 15.2752 38.8215C15.4863 39.0604 15.6595 39.3252 15.8436 39.5796C17.587 42.056 19.8068 44.0445 22.4759 45.5761C24.4142 46.6871 26.4986 47.44 28.7075 47.8916C29.72 48.0993 30.7487 48.2135 31.7827 48.2862C32.7194 48.3537 33.656 48.3381 34.5927 48.281C36.6609 48.1564 38.6587 47.7307 40.5861 47.009C42.0804 46.4535 43.488 45.7422 44.8091 44.8752C46.7311 43.6136 48.3716 42.082 49.7684 40.2908C51.0624 38.6295 52.0748 36.8383 52.7624 34.8758C53.1739 33.7024 53.5204 32.5031 53.6828 31.2675C53.8885 29.6943 53.9643 28.1212 53.8127 26.5377C53.6611 24.9646 53.3471 23.4226 52.8003 21.9326C51.8853 19.425 50.5751 17.1354 48.7181 15.1573C45.7999 12.0526 42.2644 9.90318 38.0035 8.93231C36.7475 8.64676 35.4644 8.48062 34.1704 8.41313C31.4254 8.27295 28.7563 8.61042 26.1683 9.48783C23.2014 10.495 20.608 12.0734 18.3774 14.2124C15.4051 17.0679 13.4993 20.4633 12.6547 24.4039C12.3191 25.9614 12.1837 27.5501 12.2649 29.144C12.3515 30.8002 12.5681 32.4356 13.0879 34.0243C13.1853 34.3151 13.2611 34.6162 13.1907 34.9225C13.0716 35.478 12.6276 35.8674 12.0159 35.9557C11.534 36.0284 10.9439 35.7324 10.6786 35.2963C10.527 35.0471 10.462 34.7719 10.3862 34.4968C9.98559 33.1106 9.72028 31.7036 9.58493 30.2654C9.48206 29.1907 9.44958 28.1212 9.51996 27.0517C9.66073 24.8608 10.1047 22.7321 10.8952 20.6658C11.9834 17.8207 13.6022 15.2871 15.7245 13.0598C17.6953 10.9883 20.0125 9.34246 22.6329 8.08604C24.8365 7.03211 27.1591 6.3416 29.5846 5.97298C30.7324 5.79646 31.8911 5.68743 32.649 5.72377L32.6436 5.72896Z" fill="#0E2B72"/>
<path d="M33.1366 17.4157C35.7083 17.4157 38.28 17.4157 40.8517 17.4157C41.2957 17.4157 41.6963 17.5195 41.9941 17.8518C42.3785 18.2775 42.4489 18.7707 42.2161 19.2743C41.9778 19.7987 41.5068 20.0479 40.9329 20.0531C39.8393 20.0687 38.7402 20.0583 37.6411 20.0583C37.5816 20.0583 37.522 20.0583 37.4571 20.0583C37.3867 20.0635 37.2838 20.0219 37.2459 20.0894C37.2026 20.1725 37.3109 20.2244 37.3596 20.2815C37.6086 20.5723 37.8631 20.863 38.0688 21.1849C38.5994 22.0156 38.9514 22.9138 39.1625 23.8691C39.2058 24.0612 39.2816 24.1339 39.4928 24.1287C39.9854 24.1131 40.4781 24.1183 40.9654 24.1287C41.7505 24.1339 42.3352 24.705 42.3352 25.463C42.3352 26.195 41.7613 26.7557 40.9925 26.7661C40.4998 26.7713 40.0071 26.7765 39.5199 26.7661C39.2925 26.7557 39.2004 26.8388 39.1571 27.0465C38.908 28.2094 38.437 29.2789 37.6845 30.2187C36.1848 32.1033 34.2086 33.1936 31.7398 33.4324C30.7544 33.531 29.7582 33.4532 28.7728 33.4791C28.6916 33.4791 28.5779 33.4376 28.54 33.5155C28.5021 33.5933 28.6158 33.6453 28.67 33.6972C29.7095 34.7251 30.749 35.7427 31.7831 36.7707C33.0716 38.0583 34.3494 39.351 35.6379 40.6386C36.5475 41.5472 35.9032 42.6375 35.0099 42.8451C34.6147 42.9386 34.2465 42.8711 33.9162 42.6323C33.6076 42.409 33.3586 42.1235 33.0879 41.8587C31.9888 40.7788 30.8735 39.7145 29.8015 38.6086C28.3072 37.0718 26.7426 35.5922 25.232 34.0658C25.0209 33.8477 24.8097 33.6297 24.5986 33.4116C24.1438 32.9288 23.9651 32.3836 24.2467 31.771C24.5336 31.1324 25.0588 30.8261 25.7843 30.8261C27.5005 30.8261 29.2168 30.8261 30.9331 30.8261C32.3299 30.8261 33.5427 30.3692 34.6201 29.523C35.4647 28.8636 36.0061 28.0225 36.3201 27.0309C36.3959 26.7921 36.3742 26.7609 36.1198 26.7609C32.6493 26.7609 29.1789 26.7609 25.7085 26.7609C25.5352 26.7609 25.362 26.7609 25.1887 26.7609C24.4361 26.7453 23.8677 26.1898 23.846 25.463C23.8298 24.788 24.447 24.1598 25.1671 24.1235C25.2429 24.1235 25.3186 24.1235 25.3944 24.1235C28.9732 24.1235 32.5465 24.1235 36.1252 24.1235C36.423 24.1235 36.4338 24.1235 36.3364 23.8431C35.6 21.7404 34.0678 20.5307 31.8101 20.1362C31.3878 20.0635 30.9547 20.0531 30.5216 20.0531C28.8053 20.0531 27.0891 20.0531 25.3728 20.0531C24.8909 20.0531 24.4686 19.9129 24.1492 19.5391C23.5537 18.8434 23.8785 17.7739 24.7718 17.4987C25.01 17.426 25.2591 17.4053 25.5082 17.4053C28.0474 17.4053 30.592 17.4053 33.1312 17.4053L33.1366 17.4157Z" fill="#FFB400"/>
</svg>
