<svg width="99" height="91" viewBox="0 0 99 91" fill="none" xmlns="http://www.w3.org/2000/svg">
<path d="M98.6139 85.9295C98.126 87.2409 97.4651 88.4212 96.3425 89.3234C93.5413 91.5738 89.2976 90.9339 87.3357 87.8232C85.6413 85.1426 84.1306 82.3414 82.5097 79.6137C82.3575 79.3567 82.3576 78.659 81.812 78.9947C81.3399 79.2832 80.9989 79.6976 81.5549 80.3953C83.8473 83.2857 83.5536 86.8632 80.9097 89.1713C79.719 90.21 78.3289 90.6401 76.7499 90.6349C69.4375 90.6139 62.1197 90.6296 54.8073 90.6296C43.4504 90.6296 32.083 90.3778 20.7366 90.7188C12.9468 90.9548 2.43972 84.5761 0.383418 74.111C-0.350976 70.3866 -0.0309921 66.7933 1.34862 63.2577C3.53607 57.6658 6.63101 52.5723 9.9148 47.5889C10.8328 46.1988 11.7718 44.8192 12.7317 43.4553C13.4084 42.4953 14.3579 42.2698 15.108 42.831C15.8319 43.3714 15.9054 44.2631 15.2444 45.2231C12.1442 49.7501 9.08599 54.3033 6.57331 59.1923C5.0783 62.1036 3.59377 65.0465 3.18986 68.346C2.71775 72.1701 3.56754 75.7739 5.63958 79.0052C8.7083 83.7893 13.0622 86.7163 18.7433 87.5452C19.121 87.6029 19.5091 87.5976 19.8973 87.5976C28.3376 87.5976 36.7726 87.5976 45.2129 87.6133C45.9683 87.6133 46.325 87.6238 45.9316 86.6744C44.9874 84.3873 45.4437 82.2575 47.0384 80.4058C47.4791 79.8917 47.4266 79.6347 47.0174 79.1521C45.3546 77.185 44.9716 74.9555 46.0418 72.6055C47.1224 70.2344 49.037 68.9597 51.6703 68.9492C57.2517 68.923 62.8332 68.9388 68.4198 68.9388C69.7837 68.9388 69.8781 68.8286 69.5791 67.5172C68.6873 63.5882 66.8618 60.0578 64.8895 56.5957C60.3677 48.659 54.9804 41.3203 49.357 34.139C48.5859 33.1528 47.7781 32.1981 47.0279 31.2014C46.6398 30.6873 46.1781 30.509 45.5487 30.5142C39.4847 30.5299 33.4207 30.5352 27.3567 30.5142C26.6695 30.5142 26.2236 30.7555 25.8144 31.2801C23.8788 33.798 21.9117 36.2897 19.9655 38.7971C19.0108 40.0246 18.1558 40.3341 17.3269 39.7361C16.4981 39.1381 16.5348 38.1834 17.4686 36.9664C19.0318 34.9311 20.595 32.8957 22.1844 30.8867C22.5569 30.4198 22.5726 30.2257 21.9746 29.9372C19.9235 28.9458 18.8744 27.2094 18.9479 24.98C19.0213 22.6562 20.2803 20.9828 22.4834 20.175C23.2913 19.8812 23.0919 19.6242 22.73 19.1311C20.7891 16.4873 19.3413 13.6389 18.9583 10.3079C18.5334 6.59395 21.172 2.25578 24.7128 1.10173C26.3705 0.561424 28.0229 0.645355 29.5441 1.54237C30.7296 2.24529 31.8102 2.27151 33.0692 1.60531C35.3091 0.425037 37.6644 0.451265 39.9043 1.64203C41.0951 2.27676 42.1127 2.21906 43.2563 1.59482C45.5644 0.330615 47.82 0.545687 49.9603 2.02497C51.854 3.33638 53.1339 5.08319 53.6742 7.34408C53.905 8.31977 53.5063 9.12236 52.6985 9.35842C51.8067 9.6207 50.9937 9.19055 50.7156 8.17814C50.275 6.58346 49.3675 5.36121 48.0141 4.44847C46.9965 3.76653 45.9106 3.61965 44.8405 4.24913C42.6845 5.51858 40.5758 5.5658 38.3726 4.33306C37.0559 3.59867 35.6186 3.68784 34.3124 4.42748C32.2666 5.57629 30.2785 5.50809 28.2852 4.35405C26.9055 3.5567 25.6518 3.798 24.4558 4.74747C22.2998 6.45756 21.555 8.86532 22.368 11.74C23.1916 14.6461 24.8073 17.0905 26.9055 19.2308C27.4144 19.7501 30.0949 20.154 30.651 19.8235C31.0024 19.6137 30.8136 19.299 30.7454 19.0472C30.3677 17.5836 30.1316 16.0991 29.9113 14.6093C29.6857 13.0724 30.1316 12.1701 31.186 12.0127C32.2299 11.8606 32.8961 12.6579 33.022 14.2054C33.1584 15.8735 33.5518 17.4892 33.961 19.1101C34.1078 19.6871 34.4121 19.8812 34.9839 19.8655C35.9753 19.834 36.972 19.8393 37.9687 19.8655C38.5037 19.876 38.787 19.6767 38.9234 19.1468C39.3378 17.5626 39.705 15.9732 39.8676 14.3418C39.8991 14.0533 39.9201 13.7648 39.9778 13.4868C40.1928 12.4796 40.859 11.9131 41.6826 12.0127C42.5376 12.1176 43.0884 12.7943 43.036 13.8067C42.9468 15.5063 42.6321 17.1797 42.1914 18.8216C41.9764 19.6242 42.1022 19.8025 42.973 19.897C44.8457 20.1016 46.1624 19.4249 47.2115 17.9141C47.9459 16.8597 48.7328 15.8526 49.3256 14.7038C49.4567 14.4467 49.5773 14.1844 49.7242 13.9326C50.2488 13.0304 51.0251 12.7209 51.8015 13.0881C52.6303 13.4815 52.9083 14.3313 52.4677 15.3018C51.8697 16.6184 51.1143 17.8459 50.2645 19.0209C50.0809 19.278 49.5773 19.577 49.8763 19.8812C50.2173 20.2327 50.7524 20.3638 51.2769 20.0071C52.2946 19.3147 53.4119 18.8269 54.6079 18.5488C57.2622 17.9194 59.6962 18.5069 61.9466 19.9757C62.6705 20.4478 63.3735 20.9566 64.0764 21.4602C64.9944 22.1159 65.9648 22.6562 67.0717 22.9552C68.0736 23.228 68.5614 23.9676 68.3621 24.7807C68.1523 25.641 67.4546 26.0869 66.4317 25.94C65.3039 25.7774 64.281 25.3053 63.3367 24.681C62.2928 23.9938 61.2804 23.2542 60.2365 22.567C58.2379 21.2556 56.1449 21.0091 53.9417 22.0634C53.4434 22.3047 53.3857 22.5408 53.4958 23.1021C53.7267 24.2666 54.4033 24.681 55.4735 25.064C59.5494 26.5223 61.7998 29.6854 63.0535 33.6721C63.5256 35.1724 63.9347 36.6884 64.4069 38.1834C64.7793 39.3532 65.3458 40.4233 66.1169 41.3885C66.8461 42.296 66.7989 43.1668 66.054 43.7648C65.3668 44.3208 64.4855 44.1844 63.7721 43.3714C62.3768 41.7924 61.6476 39.8777 61.0444 37.9054C60.6877 36.7408 60.4096 35.5501 60.032 34.396C59.114 31.5686 57.535 29.2762 54.7076 28.0435C53.9155 27.6973 53.2336 27.5399 52.6985 28.5261C52.3471 29.1766 51.6861 29.6172 50.9937 29.89C50.2803 30.168 50.3484 30.4355 50.7576 30.9601C52.9451 33.7718 55.143 36.573 57.2518 39.4371C61.4221 45.0972 65.3878 50.8936 68.6873 57.115C70.5705 60.6663 72.2544 64.2963 72.8524 68.3303C72.8996 68.6397 72.9678 68.9178 73.3455 68.923C74.1481 68.9388 74.9507 68.9597 75.748 68.923C76.3355 68.8968 76.0995 68.5191 75.9526 68.2463C75.4385 67.3231 74.872 66.4261 74.3894 65.4819C72.4747 61.7207 74.6674 57.2304 78.8272 56.5275C81.3451 56.1026 83.4854 56.9472 84.9489 59.0821C85.8721 60.425 86.638 61.8833 87.4249 63.3154C87.9127 64.2019 87.6767 65.0622 86.9265 65.4976C86.1292 65.9592 85.3004 65.7127 84.7338 64.7789C83.968 63.52 83.286 62.2033 82.4834 60.9706C81.6704 59.7169 80.3589 59.2867 78.9426 59.6801C77.7991 59.9949 76.9493 61.0493 76.7971 62.3764C76.7185 63.0689 76.9073 63.7141 77.2483 64.3068C81.4186 71.5249 85.5889 78.7482 89.7697 85.961C90.4674 87.1675 91.7421 87.7707 92.9118 87.5452C94.3911 87.2566 95.3091 86.3386 95.5609 84.8699C95.6973 84.0673 95.435 83.3539 95.0416 82.6772C92.8961 78.9527 90.7454 75.2336 88.5999 71.5091C88.474 71.2888 88.3324 71.0685 88.2222 70.8377C87.8078 69.9774 88.0543 69.0909 88.8097 68.6765C89.5389 68.283 90.3677 68.5034 90.8818 69.3112C91.4693 70.2292 91.9938 71.1839 92.5394 72.1281C94.2442 75.0709 95.9543 78.0085 97.6329 80.9618C98.0106 81.628 98.2729 82.3572 98.5876 83.0549V85.94L98.6139 85.9295ZM64.3544 81.3553C60.1579 81.3553 55.9561 81.3448 51.7595 81.3605C49.8344 81.371 48.5544 82.7139 48.6121 84.5918C48.6646 86.3649 50.0337 87.5819 52.0533 87.5871C57.3095 87.6029 62.5656 87.5924 67.8218 87.5924C70.7384 87.5924 73.655 87.6081 76.5716 87.5871C78.3866 87.5766 79.7032 86.538 79.9131 85.0272C80.2068 82.9132 78.9007 81.371 76.7604 81.3605C72.6268 81.3448 68.4932 81.3553 64.3544 81.3605V81.3553ZM64.3019 78.1921V78.2026C64.9104 78.2026 65.5189 78.2026 66.1274 78.2026C69.7207 78.2026 73.3088 78.2183 76.902 78.1869C78.6331 78.1711 80.0599 76.7863 79.9131 75.349C79.7347 73.6126 78.0089 71.9812 76.2778 71.9603C74.2582 71.9393 72.2386 71.955 70.2191 71.955C64.3177 71.955 58.4163 71.955 52.5149 71.955C51.4763 71.955 50.4534 72.0547 49.6245 72.7891C48.7013 73.6022 48.3603 74.9503 48.759 76.1306C49.1839 77.3738 50.2278 78.1764 51.6022 78.1869C55.8354 78.2131 60.0687 78.1974 64.3019 78.1974V78.1921ZM36.4212 27.3616C40.3974 27.3616 44.3684 27.3721 48.3446 27.3616C49.8186 27.3616 50.7629 26.517 50.8153 25.2318C50.8678 23.9938 50.0232 23.0968 48.6174 22.908C48.3656 22.8765 48.1033 22.8765 47.8515 22.8765C40.2558 22.8765 32.66 22.8765 25.0591 22.8765C24.5397 22.8765 24.0309 22.9027 23.5431 23.0811C22.6408 23.4063 22.1162 24.0515 22.0638 25.0115C22.0113 25.9662 22.4362 26.6744 23.2808 27.1308C23.7529 27.3825 24.267 27.3773 24.781 27.3773C28.6576 27.3773 32.5394 27.3773 36.4159 27.3773L36.4212 27.3616Z" fill="#0E2B72"/>
<path d="M36.4519 45.1389C38.4714 45.1389 40.491 45.1389 42.5106 45.1389C42.7676 45.1389 43.0247 45.1389 43.2817 45.1442C44.5459 45.2071 45.3118 45.8261 45.2751 46.7599C45.2384 47.7303 44.5249 48.2549 43.2083 48.2601C42.4372 48.2654 41.6713 48.2811 40.9002 48.2601C40.2969 48.2444 40.3704 48.4175 40.512 48.9263C40.9684 50.5577 41.8129 51.3708 43.6384 51.0875C44.5721 50.9459 45.2698 51.759 45.2751 52.6035C45.2751 53.3799 44.5984 54.2454 43.7328 54.1248C41.8706 53.8677 41.1362 54.7752 40.3599 56.3175C39.1166 58.7882 36.8453 59.9527 34.0546 59.9999C33.7661 59.9999 33.4776 59.9894 33.189 60.0052C33.0054 60.0157 32.7432 60.0052 32.6592 60.1206C32.4756 60.3566 32.7537 60.5193 32.8796 60.6819C34.5687 62.8221 36.263 64.9518 37.9574 67.0868C38.6341 67.9419 39.3212 68.7864 39.9927 69.6467C40.8635 70.764 40.8792 71.5929 40.0609 72.2486C39.2898 72.8676 38.419 72.6472 37.5377 71.5404C34.9568 68.3091 32.3917 65.062 29.8266 61.8254C29.5276 61.4477 29.2023 61.0858 28.9558 60.6766C27.9748 59.0452 29.0345 57.0781 30.9334 56.9784C32.2448 56.9102 33.5615 57.0676 34.8677 56.8106C35.9587 56.5955 36.8295 56.0447 37.4905 55.1634C37.6583 54.9431 37.9154 54.6913 37.7895 54.3923C37.6479 54.0671 37.2859 54.1825 37.0131 54.1825C34.8309 54.172 32.654 54.1772 30.4718 54.1772C30.1833 54.1772 29.8948 54.1772 29.6062 54.1772C28.3788 54.1405 27.5762 53.4953 27.6024 52.5616C27.6286 51.5964 28.3683 51.0351 29.6535 51.0298C32.1557 51.0246 34.6578 51.0298 37.1548 51.0246C37.4013 51.0246 37.7266 51.1295 37.8787 50.9039C38.0728 50.6154 37.7947 50.3636 37.6426 50.1328C36.8243 48.8791 35.623 48.2863 34.1542 48.2549C32.6487 48.2234 31.138 48.2549 29.6325 48.2444C28.3316 48.2391 27.6076 47.6883 27.5919 46.7126C27.5814 45.7789 28.3368 45.1442 29.6167 45.1285C31.8934 45.1022 34.17 45.118 36.4466 45.118L36.4519 45.1389Z" fill="#FFB400"/>
</svg>
