<svg width="95" height="98" viewBox="0 0 95 98" fill="none" xmlns="http://www.w3.org/2000/svg">
<path d="M94.1874 27.6831C93.8913 29.9303 93.6759 32.1936 93.2883 34.4301C90.467 50.7344 83.8393 65.2742 72.9474 77.8242C70.7453 80.3611 68.4032 82.7584 65.9051 85.0003C65.6466 85.2309 65.3936 85.483 65.1028 85.6653C64.4244 86.0837 63.7461 86.0086 63.1969 85.4454C62.6154 84.8448 62.5508 84.1153 63.0784 83.4718C63.5145 82.9354 64.0799 82.5064 64.586 82.0344C78.186 69.2484 86.4936 53.6091 89.9717 35.3579C90.4616 32.7835 90.7685 30.1824 91.0323 27.5758C91.1077 26.8518 90.7578 26.825 90.2247 26.7713C85.4545 26.2618 81.3034 24.4705 78.0191 20.8825C75.3648 17.9863 73.798 14.5377 72.8397 10.7781C72.7051 10.2578 72.5059 9.73224 72.5059 9.20664C72.5059 7.80683 71.7198 7.32413 70.4761 6.9648C64.8229 5.33973 59.0942 4.21344 53.2203 3.80583C43.1198 3.10861 33.2293 4.16517 23.5596 7.19542C22.7412 7.45285 22.4397 7.86046 22.289 8.69177C21.2876 14.291 19.0801 19.2574 14.4983 22.9151C11.6394 25.1945 8.31203 26.353 4.71549 26.7284C3.78944 26.825 3.61177 27.1575 3.69253 27.9673C4.34938 34.591 5.71154 41.0591 7.84362 47.3716C12.4524 60.9997 19.99 72.7399 30.6289 82.4796C35.4583 86.8989 40.7616 90.6746 46.4471 93.9301C47.1148 94.3109 47.6155 94.3109 48.267 93.9301C51.7504 91.9082 55.1154 89.7146 58.3297 87.285C58.5828 87.0973 58.8304 86.8882 59.1158 86.7541C59.8211 86.4269 60.5049 86.4966 61.0056 87.1241C61.5224 87.7785 61.4578 88.481 60.9356 89.1193C60.7795 89.3124 60.5641 89.4625 60.3649 89.6127C56.7307 92.3801 52.9026 94.8472 48.9292 97.1052C47.8093 97.7434 46.894 97.722 45.758 97.0837C37.8865 92.659 30.7365 87.3172 24.4857 80.8062C16.1889 72.1767 10.0349 62.2118 5.85691 51.0186C3.51485 44.749 1.87272 38.3077 0.978974 31.6787C0.69362 29.6568 0.462107 27.6187 0.505179 25.5592C0.532099 24.374 0.962822 23.902 2.15808 23.8215C4.66704 23.6553 7.1437 23.3871 9.47498 22.352C13.5776 20.5339 16.135 17.3105 17.7879 13.2881C18.6278 11.234 19.2039 9.09937 19.3708 6.87362C19.4516 5.77951 19.9308 5.11447 21.0399 4.74977C27.673 2.57765 34.4408 1.16174 41.4023 0.700504C41.6177 0.684414 41.833 0.620055 42.0484 0.577148C45.6019 0.577148 49.1499 0.577148 52.7034 0.577148C53.6133 0.67905 54.5178 0.802406 55.4331 0.882854C61.7109 1.45136 67.8164 2.81899 73.7873 4.8034C74.6703 5.09838 75.1441 5.62398 75.241 6.56791C75.4617 8.71322 75.9463 10.7995 76.7162 12.8161C78.3745 17.155 81.0719 20.5553 85.4545 22.4485C87.6781 23.4086 90.0309 23.6767 92.4107 23.7947C93.229 23.8323 93.7997 24.1433 94.1874 24.8406V27.6831Z" fill="#0E2B72"/>
<path d="M8.86651 32.2151C8.77498 31.0245 9.38338 30.5471 10.2933 30.2468C12.9368 29.3833 15.3758 28.1229 17.5456 26.3745C21.7021 23.0171 24.2918 18.6461 25.8478 13.6099C25.9716 13.2184 26.1008 12.8269 26.187 12.4247C26.3862 11.4915 26.9407 10.9766 27.8775 10.7299C33.1001 9.34616 38.4033 8.54166 43.8035 8.25741C51.5673 7.8498 59.1642 8.75083 66.6695 10.687C67.7302 10.9605 68.274 11.5236 68.5485 12.548C69.9215 17.6646 72.3443 22.1697 76.3769 25.7202C78.6382 27.7153 81.2118 29.1741 84.0761 30.1288C85.7667 30.6919 86.0144 31.1049 85.7182 32.8533C83.3385 47.007 77.8037 59.7608 68.6939 70.9218C63.003 77.8994 56.2299 83.6595 48.5576 88.3899C47.6908 88.9209 46.9424 88.8941 46.0863 88.3631C30.3973 78.6449 19.29 65.1992 12.9099 47.908C11.1117 43.0382 9.81949 38.0289 8.94727 32.9123C8.89882 32.6335 8.87728 32.3492 8.86113 32.2098L8.86651 32.2151ZM47.3677 11.2501C46.0648 11.2233 44.7726 11.3306 43.4751 11.3896C39.2217 11.5719 35.0437 12.2691 30.8818 13.138C29.6058 13.4061 28.9651 13.9586 28.5344 15.2618C25.9124 23.2102 21.0344 29.2278 13.1091 32.4779C12.2908 32.8158 12.1239 33.1912 12.2854 34.0225C13.5291 40.3673 15.4081 46.5136 18.1001 52.4024C24.351 66.0895 33.913 76.9072 46.5924 85.0325C47.1524 85.3919 47.567 85.3919 48.1269 85.0325C52.4987 82.2061 56.6175 79.0471 60.3487 75.4162C72.1612 63.9388 79.3274 49.9997 82.407 33.9045C82.5632 33.0947 82.3424 32.7836 81.6264 32.5101C78.6059 31.3463 75.9301 29.6086 73.5934 27.3828C69.8838 23.8538 67.4556 19.5417 65.9481 14.6933C65.7381 14.0122 65.4689 13.5402 64.6828 13.3525C58.9919 11.9849 53.2202 11.293 47.3731 11.2501H47.3677Z" fill="#0E2B72"/>
<path d="M60.3219 35.8834C59.7889 37.487 59.3097 39.0799 58.6529 40.6138C57.9422 42.2764 57.07 43.8479 56.0039 45.3121C55.5086 45.9878 54.9164 46.5134 54.0011 46.2238C53.0427 45.9235 52.8543 45.1297 52.8704 44.2555C53.0212 36.216 49.8608 29.469 44.7136 23.4997C44.5467 23.3066 44.3744 23.1242 44.1914 22.9472C43.906 22.6737 43.7014 22.6791 43.6207 23.1189C42.6785 28.2032 39.8034 32.3544 37.0629 36.5699C35.5823 38.8493 34.0748 41.1126 32.9926 43.6226C32.5511 44.6524 31.7058 45.0224 30.8713 44.6577C30.0152 44.2823 29.7406 43.4456 30.1606 42.4052C31.1189 40.0507 32.4865 37.9215 33.8594 35.7976C35.5285 33.2233 37.2729 30.6972 38.6512 27.9512C40.0187 25.232 40.9071 22.4056 40.724 19.3109C40.681 18.5762 40.9556 17.938 41.6878 17.6054C42.4362 17.2675 43.0392 17.5947 43.5884 18.0774C49.6831 23.4514 53.8126 29.9838 55.444 37.9966C55.514 38.3291 55.5948 38.6616 55.6701 39.0049C56.0578 38.9888 56.047 38.6723 56.1278 38.4685C57.0969 35.9746 57.6461 33.3949 57.7914 30.7293C57.8237 30.1608 57.8345 29.5923 57.8776 29.0292C57.9422 28.1925 58.1791 27.4417 59.1482 27.27C60.1335 27.0984 60.6611 27.6615 61.038 28.4929C61.9641 30.5416 62.7124 32.6547 63.3585 34.8001C64.7853 39.5197 65.5606 44.3306 65.2914 49.2755C65.0383 53.8718 63.8269 58.1785 61.0972 61.965C58.5183 65.5476 54.8571 67.4355 50.6414 68.3365C45.3489 69.4682 40.2826 68.8568 35.6469 65.9445C31.4904 63.3326 29.3422 59.4121 28.6584 54.6334C28.3838 52.7187 28.3408 50.7933 28.6154 48.8786C28.7661 47.8274 29.4499 47.2643 30.3221 47.3662C31.2051 47.4681 31.6896 48.1439 31.6466 49.2272C31.555 51.5334 31.4581 53.8396 32.0827 56.0976C33.3479 60.651 36.3307 63.574 40.794 64.9523C45.2089 66.3092 49.5593 65.9606 53.7696 64.0567C57.7699 62.2492 59.9235 58.9133 61.1672 54.9069C62.6909 50.0156 62.4002 45.06 61.4634 40.1043C61.1942 38.6831 60.8603 37.2725 60.3004 35.8888L60.3219 35.8834Z" fill="#FFB400"/>
</svg>
