<svg width="92" height="100" viewBox="0 0 92 100" fill="none" xmlns="http://www.w3.org/2000/svg">
<path d="M5.98333 0.71902C4.97102 0.919373 4.01144 1.35171 3.16785 2.00549C1.49122 3.30251 0.5 5.30604 0.5 7.42556V97.2995C0.5 98.5543 1.5334 99.5771 2.77769 99.5771C4.02199 99.5771 5.05538 98.5437 5.05538 97.2995V7.42556C5.05538 6.71905 5.38228 6.05472 5.94115 5.62238C6.50003 5.19004 7.22763 5.04242 7.91304 5.22168C17.066 7.62591 34.7181 12.2762 42.1206 14.227C43.1329 14.4906 43.8183 15.3869 43.8183 16.4414V85.9848C43.8183 87.2397 44.8517 88.2625 46.096 88.2625C47.3403 88.2625 48.3737 87.2291 48.3737 85.9848V16.4309C48.3737 13.3307 46.2647 10.5996 43.27 9.80869C35.8675 7.85789 18.2154 3.21815 9.06243 0.803379C8.03958 0.529213 6.97455 0.508123 5.96224 0.71902H5.98333Z" fill="#0E2B72"/>
<path d="M46.1175 40.283C44.8627 40.283 43.8398 41.3164 43.8398 42.5607C43.8398 43.805 44.8732 44.8384 46.1175 44.8384H84.891C86.1775 44.8384 87.1687 45.8296 87.1687 47.1161V85.9739C87.1687 87.2288 88.2021 88.2516 89.4464 88.2516C90.6907 88.2516 91.7241 87.2182 91.7241 85.9739V47.1161C91.7241 43.3621 88.6344 40.2725 84.8805 40.2725H46.107L46.1175 40.283Z" fill="#0E2B72"/>
<path d="M71.2015 49.4043C69.9467 49.4043 68.9238 50.4377 68.9238 51.682C68.9238 52.9263 69.9572 53.9597 71.2015 53.9597H78.0451V63.081C78.0451 64.3358 79.0785 65.3587 80.3228 65.3587C81.5671 65.3587 82.6005 64.3253 82.6005 63.081V51.682C82.6005 50.4272 81.5671 49.4043 80.3228 49.4043H71.2015Z" fill="#0E2B72"/>
<path d="M9.61363 40.2852C8.35879 40.2852 7.33594 41.3186 7.33594 42.5629V51.6842C7.33594 52.939 8.36933 53.9619 9.61363 53.9619H17.5961C18.8509 53.9619 19.8738 52.9285 19.8738 51.6842C19.8738 50.4399 18.8404 49.4065 17.5961 49.4065H11.8913V42.5629C11.8913 41.308 10.8579 40.2852 9.61363 40.2852Z" fill="#FFB400"/>
<path d="M9.61363 61.9521C8.35879 61.9521 7.33594 62.9855 7.33594 64.2298V72.2123C7.33594 73.4671 8.36933 74.49 9.61363 74.49H17.5961C18.8509 74.49 19.8738 73.4566 19.8738 72.2123C19.8738 70.968 18.8404 69.9346 17.5961 69.9346H11.8913V64.2298C11.8913 62.975 10.8579 61.9521 9.61363 61.9521Z" fill="#FFB400"/>
</svg>
