<svg width="100" height="100" viewBox="0 0 100 100" fill="none" xmlns="http://www.w3.org/2000/svg">
<path d="M61.6829 25.4857C61.5296 25.4923 61.3829 25.5257 61.2362 25.579L53.6362 28.3923C53.3096 28.5123 53.0362 28.7457 52.8696 29.0457L48.3496 37.0057C48.2229 37.2257 48.1562 37.479 48.1562 37.7323C48.1562 38.2657 48.4429 38.7523 48.9029 39.0123C49.1229 39.139 49.3762 39.2057 49.6296 39.2057C50.1629 39.2057 50.6496 38.919 50.9096 38.459L55.1629 30.9657L60.8829 28.8523L61.9629 31.7657C62.2429 32.5257 63.0962 32.919 63.8562 32.6323C64.4362 32.419 64.8229 31.8657 64.8229 31.2523C64.8229 31.079 64.7896 30.9057 64.7296 30.739L63.1362 26.4457C62.9162 25.8457 62.3296 25.459 61.6896 25.4857H61.6829Z" fill="#0E2B72"/>
<path d="M20.2785 50.1929L19.6451 50.4995C19.0851 50.9662 18.9451 51.7795 19.3318 52.4062C19.3718 52.5062 19.4318 52.6529 19.5185 52.8529C19.7251 53.3129 20.0585 53.9462 20.6185 54.5595C21.7451 55.7795 24.0118 56.6529 26.7785 55.6329C27.5385 55.3529 27.9318 54.4995 27.6451 53.7395C27.3651 52.9862 26.5118 52.5929 25.7518 52.8729C23.8051 53.5929 23.2851 53.1129 22.7785 52.5662C22.5251 52.2929 22.3318 51.9462 22.1985 51.6529C22.1318 51.5062 22.0851 51.3795 22.0318 51.2529C22.0051 51.1862 21.9918 51.1329 21.9185 50.9995C21.8851 50.9329 21.8651 50.8462 21.6585 50.6329C21.6051 50.5795 21.5385 50.5129 21.4385 50.4395C21.3851 50.4062 21.2518 50.3262 21.2518 50.3262L20.9918 50.2262L20.2718 50.2062L20.2785 50.1929Z" fill="#0E2B72"/>
<path d="M55.4246 33.7074C55.2113 33.7074 54.998 33.7674 54.8046 33.8607L28.5913 46.894C28.2713 47.054 27.9046 46.974 27.6846 46.694C25.738 44.2874 23.5313 41.6007 22.278 40.0807C21.2846 38.8674 19.618 38.4207 18.1446 38.9607C16.9913 39.3874 15.3846 39.9807 14.1046 40.454C12.2113 41.154 11.2246 43.3074 11.9246 45.2007C12.8046 47.5674 14.278 51.5607 15.578 55.0607C16.3913 57.2607 18.0513 59.0474 20.178 60.0274C22.3113 61.0074 24.7446 61.1007 26.9513 60.2874L45.7113 53.3407C45.4713 56.6607 45.2646 59.5274 45.038 62.694C44.958 63.8274 45.458 64.9274 46.3646 65.6074C47.2713 66.2874 48.4713 66.4674 49.538 66.074C50.6846 65.6474 52.0046 65.1607 53.0646 64.7674C54.7313 64.1474 56.098 62.914 56.8713 61.314C58.5113 57.9474 61.6846 51.4274 61.6846 51.4274C61.8313 51.1207 61.8713 50.7674 61.7913 50.434L59.558 41.274C59.4913 40.994 59.3446 40.7474 59.1313 40.5474L56.6846 38.254L56.938 35.3007C56.938 35.2607 56.938 35.2207 56.938 35.174C56.938 34.3673 56.2713 33.7007 55.4646 33.7007C55.4513 33.7007 55.438 33.7007 55.4246 33.7007V33.7074ZM53.7713 37.6674L53.6846 38.7207C53.6446 39.1674 53.818 39.614 54.1446 39.9207L56.798 42.4007L58.798 50.614C58.518 51.194 55.778 56.8207 54.218 60.0207C53.7713 60.934 52.9913 61.6407 52.038 62.0007C50.978 62.394 49.6646 62.8807 48.5113 63.3074C48.3846 63.354 48.2446 63.334 48.138 63.254C48.0313 63.1674 47.9713 63.0407 47.978 62.9074C48.3446 57.874 49.0513 48.0407 49.0513 48.0407C49.1113 47.234 48.4913 46.5207 47.6846 46.4674C47.6513 46.4674 47.6113 46.4674 47.578 46.4674C46.8113 46.4674 46.1646 47.0674 46.1046 47.834C46.1046 47.834 45.9713 49.7074 45.938 50.114L25.918 57.5274C24.4513 58.074 22.8246 58.0074 21.4046 57.354C19.9846 56.7007 18.878 55.5074 18.3313 54.0407C17.038 50.5407 15.558 46.5474 14.678 44.1807C14.5313 43.7807 14.718 43.374 15.118 43.2273C16.4046 42.754 18.0113 42.154 19.158 41.7274C19.458 41.614 19.7846 41.7007 19.9846 41.954C21.2313 43.4674 23.438 46.1607 25.3713 48.5474C26.4513 49.8874 28.3446 50.3007 29.8846 49.534L53.7513 37.6674H53.7713Z" fill="#0E2B72"/>
<path d="M76.9254 54.4868L68.2387 54.5935C67.7387 54.6001 67.2721 54.8601 67.0121 55.2868L65.1921 58.1801L61.2321 61.5868C60.9054 61.8668 60.7188 62.2735 60.7188 62.7068C60.7188 63.2135 60.9787 63.6868 61.4054 63.9535L76.3188 73.3468C78.0321 74.4268 80.1054 74.7801 82.0854 74.3335C84.0521 73.8868 85.7721 72.6735 86.8521 70.9668C86.8521 70.9668 86.8654 70.9535 86.8654 70.9468V70.9401C86.8654 70.9401 86.8654 70.9335 86.8654 70.9268C86.9654 70.7601 87.0254 70.5801 87.0521 70.3868C88.2388 68.2001 88.6321 65.6668 87.9454 63.2601C87.2054 60.6535 85.3921 58.4868 82.9588 57.2935L77.5721 54.6535C77.3654 54.5535 77.1387 54.5001 76.9054 54.5068L76.9254 54.4868ZM76.6121 57.4401L81.6854 59.9201C83.3654 60.7401 84.6187 62.2401 85.1321 64.0401C85.6454 65.8468 85.3721 67.7801 84.3721 69.3601C83.7054 70.4135 82.6521 71.1601 81.4388 71.4401C80.2254 71.7135 78.9454 71.5001 77.8921 70.8335L64.6654 62.5068L67.2787 60.2601C67.3921 60.1668 67.4854 60.0535 67.5654 59.9268L69.0788 57.5201L76.6121 57.4268V57.4401ZM86.8187 71.0001C86.7721 71.0601 86.7254 71.1268 86.7254 71.1268C86.7254 71.1268 86.7721 71.0601 86.8121 71.0001H86.8187Z" fill="#0E2B72"/>
<path d="M83.1496 43.6473C83.1496 43.6473 83.0763 43.694 83.063 43.7073C83.0096 43.7406 83.023 43.7406 83.0096 43.7473C82.9896 43.7606 82.9763 43.774 82.9563 43.7873C82.9563 43.7873 82.9563 43.794 82.9496 43.794C82.9363 43.8073 82.9163 43.8206 82.903 43.834L82.9096 43.8206C82.9096 43.8206 82.943 43.794 82.9496 43.7873C82.9096 43.8206 82.8496 43.8606 82.7763 43.9206C82.623 44.0406 82.3963 44.2206 82.123 44.4406C81.5763 44.874 80.8363 45.4673 80.0896 46.0606C78.603 47.2406 77.103 48.434 77.103 48.434C76.7496 48.714 76.543 49.1406 76.543 49.5873C76.543 49.9206 76.6563 50.2473 76.863 50.5073C77.143 50.8606 77.5696 51.0606 78.0163 51.0606C78.3496 51.0606 78.6763 50.9473 78.9363 50.7406C78.9363 50.7406 80.4363 49.5473 81.923 48.3673C82.6696 47.774 83.403 47.1873 83.9496 46.754C84.223 46.534 84.4496 46.3606 84.603 46.2406C84.6763 46.1806 84.7296 46.134 84.7696 46.1073C84.783 46.1006 84.7963 46.0873 84.8096 46.0806C84.8363 46.0606 84.863 46.0406 84.883 46.014C84.8896 46.014 84.923 45.9806 84.923 45.9806L85.2096 45.6073L83.143 43.6406L83.1496 43.6473Z" fill="#FFB200"/>
<path d="M67.7367 30.1605C66.9767 30.1405 66.3167 30.7138 66.23 31.4671L64.7567 44.7338C64.7567 44.7871 64.75 44.8405 64.75 44.9005C64.75 45.6471 65.3167 46.2805 66.0633 46.3671C66.1167 46.3671 66.17 46.3738 66.23 46.3738C66.9767 46.3738 67.61 45.8071 67.6967 45.0605L69.17 31.7938C69.17 31.7405 69.1767 31.6871 69.1767 31.6271C69.1767 30.8805 68.61 30.2471 67.8633 30.1605C67.8233 30.1605 67.7833 30.1538 67.7367 30.1538V30.1605Z" fill="#FFB200"/>
<path d="M76.5352 34.5859C75.9086 34.5859 75.3552 34.9926 75.1486 35.5793L73.1286 41.4726C72.8686 42.2393 73.2819 43.0793 74.0486 43.3459C74.8152 43.6059 75.6552 43.1926 75.9219 42.4326L77.9352 36.5393C78.1952 35.7726 77.7819 34.9326 77.0219 34.6659C76.8686 34.6126 76.7019 34.5859 76.5352 34.5859Z" fill="#FFB200"/>
</svg>
