<svg width="80" height="105" viewBox="0 0 80 105" fill="none" xmlns="http://www.w3.org/2000/svg">
<path d="M49.1548 104.39C49.2306 104.361 49.3063 104.331 49.4112 104.291C48.8401 104.151 48.2981 103.999 47.8085 103.708C46.2465 102.781 45.4306 101.382 45.2208 99.6048C45.1742 99.2027 45.1858 99.2027 44.7895 99.2027C43.8628 99.2027 42.9361 99.2027 42.0153 99.1968C41.8346 99.1968 41.753 99.2376 41.718 99.4416C41.5782 100.31 40.8264 100.939 39.9521 100.945C35.3595 100.945 30.7669 100.945 26.1743 100.945C25.1019 100.945 24.3443 100.182 24.3384 99.1152C24.3384 98.649 24.3326 98.1827 24.3384 97.7165C24.3384 97.5416 24.2802 97.4717 24.0995 97.4775C23.9188 97.4892 23.744 97.4775 23.5633 97.4775C16.3713 97.4775 9.17937 97.4775 1.99324 97.4833C0.810119 97.4833 0.227303 96.7607 0.0641142 96.0788C0.023317 95.8981 0.00582888 95.7057 0.00582888 95.5251C0.0524543 93.1822 0.0233127 90.8392 0.0233127 88.4905C0.0291409 83.181 0.0233127 77.8715 0.0233127 72.5621C0.0233127 72.1191 -0.0291409 71.682 0.0233127 71.2391C0.122392 70.2774 0.827605 69.6014 1.79508 69.578C1.97576 69.578 2.15059 69.578 2.33126 69.578C9.54071 69.578 16.7443 69.578 23.9538 69.578C24.2063 69.578 24.3326 69.4537 24.3326 69.205C24.3326 67.6431 24.3326 66.0812 24.3326 64.5134C24.3326 63.3652 25.0611 62.6367 26.2093 62.6367C30.7669 62.6367 35.3246 62.6367 39.888 62.6367C40.9487 62.6367 41.6365 63.2778 41.7414 64.3327C41.8055 65.0088 41.7647 65.6907 41.7705 66.3667C41.7705 66.7514 41.7705 66.7456 42.0969 66.5824C43.0236 66.1161 43.9444 65.644 44.8769 65.1953C45.1159 65.0787 45.18 64.933 45.18 64.6824C45.1683 62.8407 45.1741 60.9932 45.1741 59.1515C45.1741 58.6852 45.1742 58.6794 44.7137 58.5861C41.3392 57.9217 38.1804 56.692 35.2255 54.9493C32.5329 53.3641 30.2074 51.3301 28.1442 48.9871C26.6581 47.3028 25.4283 45.4494 24.3559 43.4853C22.8056 40.6412 21.8265 37.6047 21.267 34.4167C20.9057 32.3477 20.7832 30.267 20.8823 28.1747C21.0339 24.9343 21.7158 21.8104 22.8931 18.7855C24.0354 15.854 25.6323 13.1905 27.6197 10.766C29.4905 8.47551 31.6761 6.52307 34.1473 4.89118C37.0788 2.9504 40.261 1.59244 43.6821 0.782319C45.483 0.356863 47.3131 0.106252 49.1665 0.0246572C50.8275 -0.0452808 52.471 0.0363135 54.1146 0.234471C57.5124 0.636615 60.7354 1.63906 63.7835 3.17187C66.3071 4.44241 68.5918 6.0743 70.6549 8.00925C73.2718 10.4629 75.3641 13.3071 76.9552 16.5242C78.2199 19.0828 79.0766 21.7754 79.5662 24.5846C79.9159 26.5895 80.0558 28.6118 79.98 30.6459C79.8693 33.8106 79.2107 36.8645 78.1499 39.8427C76.8561 43.4737 74.8046 46.6442 72.2751 49.5117C70.8589 51.1261 69.2095 52.4899 67.4669 53.7429C66.208 54.6463 64.8851 55.4447 63.4921 56.115C61.155 57.2456 58.713 58.0907 56.1544 58.5803C56.1486 58.5803 56.137 58.5803 56.1311 58.5803C55.6824 58.6619 55.6882 58.6619 55.6882 59.1048C55.6882 60.7542 55.694 62.4036 55.6882 64.0471C55.6882 64.2977 55.764 64.3618 56.0087 64.3618C58.1593 64.356 60.3041 64.3327 62.4547 64.3618C64.7743 64.3968 66.4295 65.4983 67.4086 67.6081C67.4902 67.7888 67.6068 67.8354 67.7816 67.8296C68.9531 67.8238 70.1245 67.8063 71.296 67.8296C73.0969 67.8587 74.5423 68.5989 75.5914 70.0734C76.215 70.9535 76.5239 71.9559 76.5297 73.04C76.5297 79.9872 76.5356 86.9402 76.5297 93.8874C76.5297 96.6499 74.5248 98.853 71.7681 99.156C71.5058 99.1852 71.2436 99.1968 70.9813 99.1968C66.0215 99.1968 61.0676 99.1968 56.1078 99.1968C55.6823 99.1968 55.6998 99.1968 55.6532 99.6339C55.4376 101.458 54.5692 102.857 52.9314 103.743C52.4768 103.988 51.9989 104.18 51.4394 104.279C51.5327 104.331 51.5735 104.361 51.6143 104.384H49.1665L49.1548 104.39ZM24.3967 29.5793C24.3093 43.7884 35.7733 55.2466 49.6152 55.6545C64.4829 56.0975 76.454 44.074 76.4831 29.6259C76.5122 15.7024 65.2639 3.62064 50.606 3.52156C35.8957 3.42248 24.2918 15.4402 24.3967 29.5793ZM3.52605 83.519C3.52605 86.8644 3.52605 90.2098 3.52605 93.561C3.52605 93.8058 3.65232 93.9282 3.90488 93.9282C4.7791 93.9282 5.65331 93.9282 6.52754 93.9282C12.3499 93.9282 18.1722 93.9282 24.0004 93.9282C24.2161 93.9282 24.3384 93.9048 24.3384 93.6309C24.3326 86.8936 24.3326 80.162 24.3384 73.4246C24.3384 73.1624 24.2569 73.0983 24.0063 73.0983C17.298 73.1041 10.5956 73.1041 3.88739 73.1041C3.65038 73.1041 3.53187 73.2265 3.53187 73.4713C3.53187 76.8166 3.53187 80.162 3.53187 83.5132L3.52605 83.519ZM27.8587 81.7881H27.8645C27.8645 86.8411 27.8645 91.8941 27.8645 96.953C27.8645 97.4425 27.8179 97.4017 28.3191 97.4017C31.4663 97.4017 34.6193 97.4017 37.7666 97.4017C38.2736 97.4017 38.2328 97.4659 38.2328 96.9355C38.2328 86.7945 38.2328 76.6476 38.2328 66.5066C38.2328 66.1744 38.2328 66.1744 37.8889 66.1744C34.631 66.1744 31.3672 66.1744 28.1093 66.1744C27.9169 66.1744 27.8528 66.221 27.8528 66.4308C27.8587 71.5538 27.8528 76.6768 27.8528 81.7997L27.8587 81.7881ZM41.7705 83.1752C41.7705 87.2432 41.7705 91.3113 41.7705 95.3794C41.7705 95.6067 41.8463 95.6708 42.0678 95.665C42.9769 95.6533 43.8861 95.6649 44.7953 95.6591C45.0518 95.6591 45.18 95.529 45.18 95.2686C45.18 91.253 45.18 87.2316 45.18 83.216C45.18 82.808 45.1916 82.4 45.2149 81.9921C45.2266 81.8056 45.2965 81.7415 45.4772 81.7415C46.8993 81.724 48.2281 81.351 49.452 80.6341C52.2787 78.9789 53.7707 76.5019 53.8756 73.2323C53.9106 72.1541 54.7324 71.3265 55.7698 71.3323C58.0544 71.3498 60.3391 71.3906 62.6179 71.3032C63.5854 71.2682 64.3372 70.4989 64.3197 69.5664C64.3022 68.6048 63.5271 67.8879 62.5771 67.8937C57.6348 67.9112 52.6925 67.9054 47.7561 67.9054C47.4588 67.9054 47.1965 67.9753 46.9284 68.1094C45.3665 68.8962 43.8104 69.6888 42.2368 70.4523C41.8929 70.6213 41.7647 70.8136 41.7647 71.1983C41.7822 75.1906 41.7763 79.1829 41.7763 83.1752H41.7705ZM52.1505 91.288C52.1505 88.6711 52.1505 86.0543 52.1505 83.4433C52.1505 83.3559 52.2029 83.2393 52.098 83.1868C52.0048 83.1402 51.929 83.2393 51.8532 83.2859C50.9674 83.8629 50.0174 84.3058 49.0091 84.638C48.776 84.7138 48.7002 84.8245 48.7002 85.0752C48.7119 89.2714 48.706 93.4677 48.7118 97.664C48.7118 98.1827 48.706 98.7014 48.7118 99.2201C48.7235 99.9253 49.2247 100.578 49.9125 100.8C50.5885 101.021 51.3404 100.776 51.7775 100.205C52.098 99.7913 52.1505 99.3076 52.1505 98.8063C52.1505 96.3002 52.1505 93.7941 52.1505 91.288ZM66.7733 81.7415C68.7433 81.7415 70.7132 81.7415 72.6831 81.7415C72.9221 81.7415 72.9862 81.6715 72.9862 81.4384C72.9745 80.5234 72.9862 79.6025 72.9862 78.6875C72.9862 78.4349 72.8638 78.3087 72.619 78.3087C68.8016 78.3087 64.9783 78.3087 61.1609 78.3087C60.9569 78.3087 60.7529 78.3261 60.5547 78.3611C59.3949 78.5651 58.7946 79.9172 59.4124 80.9197C59.7737 81.5083 60.3158 81.7415 60.9802 81.7415C62.9151 81.7415 64.8501 81.7415 66.785 81.7415H66.7733ZM66.7034 88.6828C68.6966 88.6828 70.6899 88.6828 72.6831 88.6828C72.9163 88.6828 72.9862 88.607 72.9862 88.3739C72.9745 87.4589 72.9804 86.538 72.9804 85.623C72.9804 85.2792 72.9804 85.2733 72.6307 85.2733C68.7783 85.2733 64.9258 85.2733 61.0734 85.2733C60.9743 85.2733 60.8694 85.2733 60.7703 85.2792C59.6455 85.3433 58.9112 86.3748 59.2259 87.4531C59.4357 88.1699 60.036 88.6595 60.7762 88.6653C62.7519 88.677 64.7277 88.6653 66.7034 88.6653V88.6828ZM66.8608 92.2205C64.9317 92.2205 63.0084 92.2205 61.0793 92.2205C60.5023 92.2205 59.9544 92.3546 59.5639 92.815C59.0918 93.3628 59.0277 93.9981 59.3133 94.6508C59.5989 95.3094 60.1409 95.6475 60.8403 95.6475C64.3313 95.6591 67.8166 95.6591 71.3077 95.6475C72.2693 95.6475 72.9629 94.9189 72.9804 93.9573C72.9862 93.491 72.9804 93.0248 72.9804 92.5585C72.9804 92.2263 72.9804 92.2205 72.6423 92.2205C70.7132 92.2205 68.7899 92.2205 66.8608 92.2205ZM63.6203 74.7243C63.7311 74.8176 63.8185 74.8059 63.9001 74.8059C66.8433 74.8059 69.7924 74.8059 72.7356 74.8059C72.9221 74.8059 72.992 74.7418 72.9862 74.5553C72.9745 74.0716 72.9862 73.5878 72.9804 73.1041C72.9629 72.0842 72.2518 71.379 71.2377 71.3731C70.0838 71.3731 68.9298 71.3731 67.7758 71.3731C67.5777 71.3731 67.4786 71.4372 67.397 71.6179C66.989 72.5562 66.3596 73.3256 65.5086 73.9025C64.9433 74.2872 64.3255 74.5611 63.6203 74.7243ZM48.7118 61.7333C48.7118 62.5143 48.7177 63.2953 48.7118 64.0763C48.7118 64.3036 48.7876 64.3677 49.0091 64.3677C49.9591 64.3618 50.9091 64.356 51.8591 64.3677C52.1039 64.3677 52.1563 64.2744 52.1563 64.0529C52.1505 62.526 52.1563 60.999 52.1563 59.472C52.1563 59.1281 52.1563 59.1223 51.8183 59.1398C50.8858 59.1864 49.9533 59.2156 49.0266 59.1107C48.776 59.0815 48.7177 59.1573 48.7177 59.3904C48.7293 60.1714 48.7177 60.9524 48.7177 61.7333H48.7118ZM55.6882 92.9898C55.898 92.0923 56.2943 91.2938 56.9063 90.5944C56.9762 90.5187 56.982 90.4487 56.9063 90.373C56.2768 89.6386 55.8514 88.8052 55.6824 87.8494V92.9898H55.6882ZM55.694 80.9663V86.0601C55.8572 85.1393 56.271 84.3408 56.8888 83.6531C56.9937 83.5365 56.9412 83.4549 56.8655 83.3675C56.2418 82.6798 55.8572 81.8697 55.694 80.9663Z" fill="#0E2B72"/>
<path d="M50.4429 52.2153C38.5767 52.3085 27.8295 42.6279 27.8179 29.5903C27.8004 16.9548 38.1221 6.90122 50.5827 6.97699C62.9909 7.04693 73.0678 17.1471 73.0387 29.6078C73.0095 42.4064 62.6296 52.2036 50.4429 52.2153ZM50.3846 10.5089C39.8822 10.3981 31.309 19.1928 31.3265 29.6078C31.3439 39.8187 39.5442 48.7358 50.5186 48.7009C61.1376 48.6717 69.3786 40.0052 69.5418 29.8934C69.7108 19.2686 61.0443 10.3865 50.3904 10.503L50.3846 10.5089Z" fill="#0E2B72"/>
<path d="M41.2286 41.2302C41.1528 41.2302 41.1062 41.1777 41.0595 41.1311C40.3427 40.4084 39.62 39.6857 38.9032 38.9688C38.7808 38.8464 38.8216 38.7532 38.9323 38.6483C39.2645 38.3219 39.5967 37.9955 39.9289 37.6633C46.439 31.1533 52.9432 24.6374 59.4475 18.1215C59.599 17.9699 59.6922 17.9699 59.8438 18.1215C60.5373 18.8208 61.2658 19.4853 61.9361 20.2079C62.0818 20.3653 62.0643 20.4352 61.9302 20.5693C55.6067 26.8929 49.2831 33.2164 42.9595 39.54C42.4292 40.0704 41.9105 40.6007 41.3859 41.1369C41.3451 41.1777 41.3043 41.2243 41.2402 41.236L41.2286 41.2302Z" fill="#FFB400"/>
<path d="M57.4077 31.3086C60.2402 31.3144 62.6472 33.7331 62.6181 36.5889C62.5889 39.4505 60.3684 41.776 57.3261 41.7993C54.5111 41.8226 52.1448 39.3806 52.1506 36.519C52.1506 33.6981 54.5751 31.3028 57.4135 31.3144L57.4077 31.3086ZM55.6825 36.5248C55.6825 37.4923 56.4227 38.2558 57.3727 38.2674C58.3052 38.2733 59.0804 37.5039 59.0804 36.5714C59.0804 35.6214 58.2994 34.8288 57.3669 34.8463C56.411 34.8638 55.6825 35.5923 55.6767 36.5306L55.6825 36.5248Z" fill="#FFB400"/>
<path d="M43.4839 17.418C46.3688 17.418 48.7176 19.7667 48.7117 22.6575C48.7001 25.5658 46.4504 27.8795 43.4372 27.8679C40.6922 27.8562 38.2793 25.8455 38.2618 22.6225C38.2443 19.8192 40.529 17.383 43.4897 17.4238L43.4839 17.418ZM41.7704 22.5992C41.7646 23.5492 42.5047 24.3418 43.4198 24.3535C44.4047 24.3651 45.1682 23.6308 45.1799 22.6575C45.1915 21.69 44.4572 20.9207 43.5247 20.9265C42.5397 20.9265 41.7762 21.655 41.7704 22.5992Z" fill="#FFB400"/>
</svg>
