<svg width="81" height="81" viewBox="0 0 81 81" fill="none" xmlns="http://www.w3.org/2000/svg">
<path d="M0 15.0445C0.382666 14.0028 0.813767 12.9951 1.66145 12.2248C2.90148 11.0959 4.37401 10.7083 6.01608 10.7326C7.99238 10.7665 7.99239 10.7374 7.99239 8.74133C7.99239 7.61248 7.97301 6.47878 8.00208 5.34993C8.07473 2.35581 10.4192 0.0157458 13.4175 0.0109009C27.7941 -0.00363364 42.1659 -0.00363364 56.5425 0.0109009C59.6281 0.0109009 61.9096 2.37035 61.9967 5.5728C62.0258 6.70165 61.9968 7.83534 62.0064 8.96419C62.0307 11.0184 61.74 10.7035 63.7405 10.7374C64.2637 10.7471 64.7965 10.7229 65.3148 10.8004C68.0516 11.2074 70.0279 13.3972 70.0424 16.1685C70.0763 22.2149 70.0472 28.2613 70.0666 34.3028C70.0666 34.9181 69.8535 35.1409 69.2383 35.1264C66.8455 35.0683 67.17 35.451 67.1652 33.1061C67.1506 27.6653 67.1651 22.2246 67.1603 16.7838C67.1603 14.497 66.3029 13.6395 64.0215 13.6346C62.6781 13.6314 62.0064 14.2903 62.0064 15.6113C62.0064 19.9766 62.0064 24.3369 62.0064 28.7021C62.0064 29.7341 61.9871 29.7583 60.9359 29.7486C58.887 29.7341 59.1098 30.0054 59.1049 27.9657C59.1001 20.6306 59.1049 13.3003 59.1049 5.96523C59.1049 3.8238 58.1265 2.80638 55.9903 2.80154C42.0109 2.79185 28.0315 2.80154 14.0521 2.79185C12.0806 2.79185 10.8696 3.78504 10.8745 5.98945C10.9132 21.4688 10.8939 36.9529 10.8939 52.4322C10.8939 52.7229 10.9375 53.0185 10.8793 53.2995C10.6178 54.6076 9.57149 53.8179 8.8982 53.9923C8.39928 54.1182 7.9391 53.9681 7.99723 53.2704C8.0166 53.0088 7.99723 52.7472 7.99723 52.4807C7.99723 39.918 7.99723 27.3553 7.99723 14.7877C7.99723 14.019 7.60488 13.6346 6.82017 13.6346C6.45203 13.6346 6.0839 13.6346 5.71577 13.6346C3.84603 13.654 2.86272 14.5842 2.75615 16.464C2.74162 16.7257 2.74647 16.9873 2.74647 17.2537C2.74647 29.923 2.74647 42.5923 2.74647 55.2616C2.74647 56.0756 3.16627 56.4825 4.00588 56.4825C12.6522 56.4825 21.2985 56.4825 29.9448 56.4825C31.0686 56.4825 31.0783 56.4922 31.0783 57.6308C31.0783 59.6075 31.2285 59.3798 29.3636 59.3798C20.848 59.3846 12.3373 59.3798 3.82181 59.3798C2.75131 59.3798 2.75132 59.3798 2.75132 60.4747C2.75132 61.1578 2.72224 61.841 2.87725 62.5144C3.13882 63.6529 4.04463 64.4426 5.212 64.5153C5.58013 64.5395 5.94827 64.5298 6.3164 64.5298C15.4616 64.5298 24.6069 64.5298 33.7521 64.5298C35.0696 64.5298 35.0745 64.5298 35.0696 65.804C35.0599 67.6112 35.2731 67.4222 33.4082 67.4319C32.3038 67.4368 31.1994 67.4513 30.095 67.4271C29.5767 67.4125 29.2861 67.5627 29.1311 68.1005C28.2301 71.177 27.3049 74.2438 26.3652 77.3057C26.186 77.8823 26.3313 78.0615 26.9174 78.0615C32.3329 78.0518 37.7435 78.0518 43.1589 78.0615C43.7547 78.0615 43.808 77.8338 43.6481 77.3396C43.2655 76.1381 42.9264 74.9221 42.5437 73.7205C42.3936 73.2506 42.4711 72.9744 42.9894 72.8533C43.4496 72.7467 43.9049 72.6014 44.3457 72.4366C44.9366 72.2138 45.1837 72.4366 45.3435 73.018C45.7455 74.486 46.2251 75.9346 46.6417 77.3978C46.7821 77.892 47.0292 78.0858 47.5378 78.0567C48.1142 78.0228 48.6955 78.0567 49.2719 78.0518C49.703 78.0421 49.8967 78.2408 49.8871 78.6671C49.8677 79.3745 49.8628 80.0818 49.8483 80.794H20.2038C19.9083 78.0761 19.9083 78.0518 22.3302 78.0664C22.9842 78.0664 23.2457 77.829 23.4201 77.2282C24.2678 74.3019 25.1591 71.3902 26.0358 68.4687C26.2425 67.7743 25.9906 67.4271 25.2802 67.4271C18.7894 67.4271 12.2986 67.4271 5.8078 67.4271C4.21901 67.4271 2.8046 66.9959 1.63238 65.8864C0.823456 65.1209 0.382655 64.1471 0.0193649 63.1248V15.0445H0Z" fill="#0E2B72"/>
<path d="M75.5308 80.8135C74.4797 80.4743 73.6466 79.8154 72.8764 79.0402C69.6552 75.7942 66.405 72.5772 63.1935 69.3215C62.743 68.866 62.4233 68.8224 61.8518 69.118C53.559 73.4251 43.6533 71.6664 37.3514 64.7964C28.6179 55.2762 31.1077 39.7921 42.3939 33.4647C51.8879 28.1402 63.7651 30.9744 69.5244 40.2329C74.005 47.4324 73.8888 54.8499 69.476 62.1268C69.0594 62.8148 69.1273 63.1588 69.6649 63.6917C72.8861 66.8651 76.0782 70.0627 79.2606 73.2749C80.9802 75.0045 81.2805 77.1023 80.1277 78.9288C79.5222 79.8881 78.6067 80.4259 77.5846 80.8183H75.5357L75.5308 80.8135ZM52.474 33.8862C51.7377 33.8862 50.9918 33.8038 50.27 33.9007C40.7567 35.1749 34.1884 43.5371 35.1765 53.1106C36.0242 61.3517 42.8105 68.2265 51.8491 68.5947C56.2086 68.774 60.1176 67.3932 63.4987 64.622C64.9518 63.435 66.124 61.9282 67.1461 60.4118C69.8345 56.4245 70.469 51.9333 69.4179 47.2774C67.5917 39.2058 60.3017 33.6585 52.474 33.8862ZM77.885 76.4773C77.9382 76.0074 77.5604 75.6585 77.2068 75.3049C74.2957 72.3931 71.3796 69.4765 68.4685 66.5647C67.5998 65.6959 66.6956 65.6636 65.7559 66.4678C65.039 67.0831 65.0342 67.1025 65.7269 67.7905C68.8608 70.93 71.9948 74.0646 75.1336 77.1992C75.3371 77.4027 75.5405 77.6159 75.7827 77.766C76.2671 78.0664 76.7854 78.0519 77.2795 77.7757C77.7348 77.519 77.8995 77.0878 77.8898 76.4773H77.885Z" fill="#0E2B72"/>
<path d="M17.1672 49.5788C17.5256 49.8017 17.8211 49.7242 18.1021 49.7242C21.6236 49.729 25.1451 49.7484 28.6617 49.7145C29.4416 49.7097 29.7274 49.9422 29.7031 50.7465C29.6305 52.9266 29.9453 52.6069 27.7995 52.6166C24.2538 52.6311 20.7081 52.6069 17.1575 52.6263C15.8012 52.6359 14.7017 52.2096 14.1737 50.8918C13.6505 49.5885 14.0477 48.4306 15.0698 47.5537C15.869 46.8657 16.0822 46.0857 16.0676 45.0683C16.0143 41.391 16.0386 37.709 16.0483 34.0317C16.0628 27.4718 19.686 22.1424 25.7893 19.7539C26.3512 19.5359 26.3512 19.2985 26.1526 18.8237C25.5471 17.3702 24.9658 15.9023 24.3991 14.4343C23.8324 12.9663 24.3749 12.0748 25.9249 12.0554C29.2623 12.0167 32.5998 12.0167 35.9324 12.0554C37.5308 12.0748 38.0734 12.9808 37.4824 14.4827C36.9351 15.878 36.4022 17.2782 35.8064 18.6493C35.5255 19.2985 35.603 19.5795 36.3054 19.8508C40.4856 21.469 43.3338 24.4195 44.9226 28.6103C45.1115 29.1142 45.0485 29.3516 44.5109 29.5405C42.6072 30.2043 42.6121 30.2236 41.7547 28.4407C39.5459 23.8672 34.329 21.0184 29.4997 21.75C23.968 22.5882 19.9137 26.5125 19.0902 31.7885C18.9691 32.5734 18.9497 33.3583 18.9497 34.1431C18.9497 38.0578 18.911 41.9724 18.9691 45.8871C18.9885 47.1613 18.7221 48.2126 17.6855 49.0071C17.5063 49.1477 17.3706 49.3463 17.172 49.5692L17.1672 49.5788ZM30.9383 14.9333C30.0713 14.9333 29.2042 14.943 28.3372 14.9333C27.9061 14.9236 27.6735 14.9817 27.8964 15.5001C28.3081 16.4643 28.6956 17.4429 29.0638 18.4264C29.2236 18.8528 29.49 18.9836 29.9163 18.8964C30.6186 18.7559 31.3258 18.7607 32.0331 18.8964C32.4351 18.9739 32.6724 18.8334 32.8226 18.4458C33.1907 17.4914 33.5686 16.5369 33.9706 15.597C34.2128 15.0302 33.9851 14.9139 33.462 14.9284C32.624 14.9527 31.7812 14.9333 30.9383 14.9333Z" fill="#FFB400"/>
<path d="M31.8543 32.4423C31.0938 32.4423 30.3333 32.4423 29.5728 32.4423C29.0691 32.4423 28.5072 32.4132 28.4248 33.1012C28.3376 33.8473 28.9286 33.9248 29.4517 34.0169C30.6918 34.2349 31.9318 34.4287 33.1718 34.6418C33.4528 34.6903 33.7288 34.7872 34.0098 34.8599C34.6637 35.0294 34.7558 35.3347 34.3779 35.9257C33.3026 37.6069 33.3268 37.6117 31.3796 37.2581C30.5028 37.0982 29.6212 36.9771 28.7445 36.822C26.7876 36.4732 25.5137 35.0585 25.504 33.2368C25.4943 31.3619 26.6955 29.9811 28.6815 29.6516C29.3015 29.5499 29.4953 29.2689 29.4905 28.6584C29.4711 26.6963 29.2822 26.861 31.3214 26.8562C32.3532 26.8562 32.3677 26.8804 32.3774 27.9172C32.3968 29.7388 32.1449 29.5547 34.0292 29.5257C34.7945 29.516 35.1045 29.7292 35.0755 30.5479C34.9979 32.733 35.3467 32.4035 33.196 32.4374C32.7504 32.4423 32.3047 32.4374 31.8591 32.4374L31.8543 32.4423Z" fill="#FFB400"/>
<path d="M29.867 38.988C30.6275 38.988 31.388 38.9977 32.1485 38.988C32.6377 38.9783 32.9089 39.1672 32.846 39.6808C32.7443 40.4996 33.093 41.3523 32.4585 42.1517C32.1969 42.4811 32.347 43.1691 32.381 43.6875C32.4342 44.39 32.1339 44.5983 31.4606 44.5838C29.1792 44.5402 29.4795 44.8163 29.4843 42.7088C29.4843 42.1081 29.2906 41.8804 28.6657 41.8755C26.6264 41.8707 26.8105 42.2825 26.7717 39.9133C26.7621 39.1866 27.0285 38.9298 27.7405 38.9734C28.4429 39.017 29.1549 38.9831 29.8621 38.9831L29.867 38.988Z" fill="#FFB400"/>
<path d="M52.4734 66.056C44.2146 66.056 37.6221 59.4525 37.627 51.1774C37.6318 42.9848 44.2728 36.3134 52.4347 36.3037C60.616 36.2892 67.349 43.0042 67.3635 51.1871C67.378 59.3943 60.708 66.056 52.4686 66.056H52.4734ZM64.4668 51.192C64.4668 44.5351 59.158 39.2591 52.5073 39.1961C46.559 39.138 40.4558 43.8229 40.4703 51.2162C40.4848 58.1056 45.8422 63.2508 52.5219 63.2169C59.8119 63.1781 64.5637 57.1947 64.4668 51.1968V51.192Z" fill="#0E2B72"/>
<path d="M52.5558 43.1154C52.5558 43.222 52.5413 43.3286 52.5558 43.4304C52.6866 44.2346 52.3863 44.5641 51.5386 44.69C48.6807 45.1164 46.8982 46.8266 46.0602 49.5591C46.0311 49.6608 46.0021 49.7626 45.9682 49.8595C45.8277 50.3149 46.1377 50.998 45.5855 51.2112C44.8783 51.4825 44.079 51.3808 43.3331 51.2596C42.8584 51.1821 42.9843 50.7219 43.0134 50.4118C43.1975 48.3382 43.9628 46.4972 45.3482 44.9371C46.966 43.1203 48.9811 42.0496 51.4079 41.7589C52.4977 41.6281 52.5462 41.6523 52.551 42.7133C52.551 42.8441 52.551 42.9749 52.551 43.1058L52.5558 43.1154Z" fill="#0E2B72"/>
</svg>
