<svg width="88" height="84" viewBox="0 0 88 84" fill="none" xmlns="http://www.w3.org/2000/svg">
<path d="M61.5034 0.960217H81.8456C82.9409 1.6025 83.3026 2.28075 83.0631 3.24161C82.8492 4.09456 82.1156 4.56728 80.9337 4.60839C80.5669 4.61867 80.195 4.62894 79.8231 4.61353C79.2678 4.59297 78.9774 4.80878 78.9825 5.40996C78.9927 8.70359 78.9927 12.0024 78.9825 15.296C78.9825 15.9023 79.2678 16.1027 79.8231 16.0924C80.6738 16.077 81.5297 16.1233 82.3805 16.0821C85.0143 15.9588 86.884 17.0276 87.8265 19.5762V26.1275C87.205 27.7769 86.1911 29.0666 84.403 29.416C83.4605 29.6009 83.2466 30.0171 83.2517 30.9163C83.2823 41.6039 83.272 52.2915 83.272 62.9792C83.272 68.7392 80.3784 72.7008 74.9375 74.3604C74.3618 74.5351 74.158 74.8331 74.1682 75.3984C74.1886 76.3438 74.1937 77.2944 74.1631 78.2398C74.0663 81.1738 72.0999 83.3421 69.3591 83.3832C65.3701 83.4449 61.3812 83.4346 57.3973 83.3832C55.0182 83.3524 53.1434 81.6311 52.7001 79.2675C52.5015 78.209 52.6085 77.1454 52.5881 76.0869C52.5677 74.7612 52.5473 74.7252 51.2482 74.7252C46.1792 74.7252 41.1052 74.7458 36.0362 74.7047C35.0682 74.6944 34.6505 75.013 34.3754 75.9636C33.0253 80.5777 28.532 83.7121 23.8553 83.3935C19.2754 83.0801 15.5208 79.9509 14.3236 75.424C14.1911 74.9154 14.0332 74.5762 13.4473 74.4221C8.0115 72.9782 4.86823 68.8419 4.86313 63.159C4.86313 52.384 4.85293 41.6142 4.8784 30.8393C4.8784 30.0069 4.67463 29.6215 3.80857 29.4468C1.6689 29.01 0.262825 27.1911 0.242447 25.0022C0.227164 23.6817 0.237353 22.3611 0.242447 21.0354C0.252636 18.0758 2.15796 16.1438 5.10766 16.0976C5.84635 16.0873 6.59017 16.0976 7.32887 16.0976C9.30552 16.0976 9.14247 16.2517 9.14756 14.3043C9.14756 13.9292 9.14248 13.5593 9.15776 13.1842C9.30041 9.67472 12.0565 6.9463 15.5309 6.94116C26.1274 6.92575 36.7239 6.92575 47.3204 6.94116C50.479 6.94116 53.0364 9.22256 53.5509 12.3672C53.6987 13.2561 53.6885 14.145 53.663 15.0288C53.6375 15.7944 53.8872 16.113 54.687 16.1027C57.5654 16.0667 60.4438 16.0667 63.3171 16.1027C64.1678 16.113 64.3818 15.7739 64.3716 14.9774C64.3359 12.1925 64.3614 9.4024 64.3563 6.61745C64.3563 4.34634 64.5397 4.62894 62.4102 4.59811C61.2334 4.57756 60.4845 4.08429 60.2756 3.23647C60.0311 2.27048 60.3928 1.59736 61.5034 0.955078V0.960217ZM44.0956 29.6215C32.6738 29.6215 21.2469 29.6215 9.82514 29.6215C8.54642 29.6215 8.52605 29.642 8.52095 30.9112C8.52095 38.0637 8.52095 45.2161 8.52095 52.3686C8.52095 53.6275 8.54134 53.6378 9.83533 53.6378C19.2092 53.6378 28.5779 53.6275 37.9517 53.6429C43.5403 53.6532 48.1865 58.329 48.2222 63.9606C48.2374 65.9439 48.2222 67.9273 48.2222 69.9055C48.2222 71.0308 48.2425 71.0514 49.3887 71.0514C56.7961 71.0514 64.2034 70.9589 71.6057 71.0873C76.2773 71.1644 79.7059 67.6653 79.6448 63.0254C79.5021 52.3686 79.5989 41.7118 79.5989 31.0499C79.5989 30.0942 79.1268 29.6164 78.1827 29.6164C66.8169 29.6164 55.4512 29.6164 44.0854 29.6164L44.0956 29.6215ZM44.0651 19.7971C31.39 19.7971 18.715 19.7971 6.03485 19.7971C5.69352 19.7971 5.35219 19.8074 5.01086 19.7971C4.23141 19.7868 3.83405 20.2339 3.80857 20.9584C3.76782 22.2224 3.77291 23.4864 3.80857 24.7504C3.82895 25.4903 4.2365 25.9168 5.01086 25.9117C5.38276 25.9117 5.74955 25.9168 6.12145 25.9168C31.4155 25.9168 56.7146 25.9168 82.0086 25.9168C82.3245 25.9168 82.6352 25.9168 82.9511 25.9168C83.97 25.8911 84.3215 25.5417 84.3419 24.4986C84.3622 23.5789 84.347 22.6591 84.347 21.7394C84.347 20.0181 84.133 19.7971 82.4365 19.7971C69.6443 19.7971 56.8573 19.7971 44.0651 19.7971ZM23.5547 57.2294C18.8831 57.2294 14.2115 57.2397 9.53985 57.2192C8.82153 57.2192 8.50057 57.4298 8.51075 58.1954C8.54642 60.1171 8.4751 62.044 8.54642 63.9657C8.6534 66.9819 10.1818 69.0886 12.836 70.3937C13.9873 70.9589 14.1096 70.8767 14.507 69.664C16.2289 64.387 21.5577 61.3246 26.8916 62.6709C30.8347 63.6625 33.3616 66.2574 34.5027 70.183C34.6861 70.815 34.946 71.0822 35.6133 71.0771C38.2879 71.0514 40.9676 71.0565 43.6473 71.0771C44.2841 71.0771 44.6051 70.8664 44.5949 70.1881C44.5694 67.9787 44.5796 65.7641 44.549 63.5546C44.5337 62.4653 44.1669 61.4685 43.5963 60.5539C42.1393 58.2314 39.9589 57.25 37.3098 57.2397C32.7248 57.2243 28.1397 57.2397 23.5547 57.2397V57.2294ZM31.3594 16.0976C36.4284 16.0976 41.4924 16.0976 46.5614 16.0976C47.4427 16.0976 48.324 16.0924 49.2104 16.0976C49.6689 16.0976 50.0001 15.9691 50.0001 15.4296C50.0001 14.5972 50.0459 13.7597 49.9644 12.9324C49.8472 11.73 48.8437 10.7846 47.6414 10.651C47.244 10.6048 46.8466 10.6048 46.4492 10.6048C36.4284 10.6048 26.4076 10.6048 16.3868 10.6048C15.9894 10.6048 15.587 10.6048 15.1947 10.6459C13.8752 10.7846 12.9022 11.8174 12.836 13.1636C12.8054 13.734 12.8207 14.3094 12.8207 14.8849C12.8207 16.0667 12.8461 16.0924 14.023 16.0924C19.8001 16.0924 25.5823 16.0924 31.3594 16.0924V16.0976ZM31.2168 72.8652C31.2168 69.0629 28.2009 66.0159 24.4463 66.0159C20.656 66.0159 17.6197 69.0988 17.6299 72.932C17.6401 76.6983 20.6916 79.7196 24.4717 79.7094C28.2671 79.6991 31.2168 76.7035 31.2168 72.86V72.8652ZM75.3145 10.4044C75.3145 8.77039 75.3043 7.13642 75.3196 5.50245C75.3247 4.89099 75.0954 4.60839 74.4688 4.61867C72.6195 4.63408 70.7702 4.63922 68.926 4.61867C68.2586 4.60839 68.0243 4.89613 68.0294 5.54869C68.0447 8.76011 68.0447 11.9715 68.0294 15.183C68.0294 15.8355 68.2535 16.1233 68.926 16.113C70.7447 16.0873 72.5635 16.0873 74.3822 16.113C75.0903 16.1233 75.3349 15.8355 75.3247 15.1418C75.2941 13.5644 75.3145 11.9869 75.3145 10.4095V10.4044ZM63.3374 79.7196C65.1561 79.7196 66.9799 79.7299 68.7986 79.7196C70.1283 79.7094 70.5002 79.3189 70.5104 77.9521C70.5104 77.1762 70.4901 76.4003 70.5155 75.6296C70.5359 75.0079 70.271 74.7355 69.6545 74.7407C68.7172 74.7509 67.7747 74.7407 66.8373 74.7407C63.7093 74.7407 60.5762 74.7407 57.4482 74.7407C56.3172 74.7407 56.2561 74.8126 56.251 75.9738C56.251 76.6315 56.251 77.2944 56.251 77.9521C56.2612 79.36 56.6127 79.7145 58.0391 79.7196C59.8018 79.7248 61.5696 79.7196 63.3323 79.7196H63.3374Z" fill="#0E2B72"/>
<path d="M59.5739 58.3957C59.5739 56.7618 59.5739 55.1227 59.5739 53.4887C59.5739 52.1733 59.5638 52.1682 58.2188 52.163C57.4241 52.163 56.6242 52.1887 55.8295 52.1373C54.0209 52.0191 53.2925 50.7551 54.1432 49.1571C56.7312 44.3015 59.3498 39.4664 61.9377 34.6107C62.3759 33.7886 63.0178 33.3621 63.9195 33.3621C66.9099 33.3518 69.9004 33.321 72.8857 33.3724C74.6128 33.4032 75.377 34.7494 74.5924 36.296C73.4258 38.5928 72.2082 40.8691 71.0161 43.1556C70.6086 43.9366 70.6544 44.0189 71.5358 44.0343C72.2184 44.0497 72.9061 44.0086 73.5837 44.0548C75.3362 44.173 76.0953 45.6477 75.112 47.0967C71.0823 53.0108 67.0271 58.9096 62.9719 64.8083C62.4064 65.6253 61.6219 65.9028 60.817 65.615C59.956 65.3067 59.5892 64.6233 59.5841 63.7395C59.5688 61.9617 59.5841 60.1787 59.5841 58.4009L59.5739 58.3957ZM63.354 57.661C63.6546 57.5428 63.7514 57.255 63.9093 57.029C65.6312 54.5318 67.3582 52.0294 69.0598 49.5168C69.4062 49.0081 70.1755 48.4224 69.931 47.9548C69.6355 47.3947 68.7388 47.7595 68.1071 47.7441C65.9827 47.6927 65.2135 46.4595 66.1866 44.5687C67.3736 42.277 68.5707 39.9905 69.773 37.7091C70.0023 37.2723 70.038 37.0257 69.4215 37.0359C68.0817 37.0565 66.7419 37.0514 65.4071 37.0359C64.9995 37.0359 64.6939 37.1593 64.4901 37.5344C62.651 40.9719 60.8068 44.4042 58.9575 47.8366C58.7231 48.2733 58.8148 48.4789 59.3243 48.4686C59.8388 48.4635 60.3483 48.4686 60.8628 48.4686C62.5746 48.4789 63.2267 49.1212 63.2369 50.8785C63.2521 52.8618 63.2369 54.8401 63.2471 56.8234C63.2471 57.0958 63.1553 57.3886 63.354 57.6507V57.661Z" fill="#FFB400"/>
<path d="M24.9861 41.8147C24.9861 43.5926 24.9963 45.3755 24.9861 47.1534C24.9759 48.4174 24.4002 49.1368 23.147 49.1727C20.7271 49.2395 18.3072 49.2447 15.8874 49.1727C14.5781 49.1316 14.0279 48.4071 14.0024 46.8965C13.9668 44.8001 13.9871 42.7036 13.9871 40.6072C13.9871 39.3432 13.9667 38.0792 13.9973 36.8152C14.0432 35.1658 14.7003 34.5286 16.3153 34.5235C18.4804 34.5184 20.6456 34.5132 22.8056 34.5235C24.3391 34.5338 24.981 35.1915 24.9861 36.733C24.9912 38.4286 24.9861 40.1191 24.9861 41.8147ZM21.4302 41.9689C21.4302 40.9926 21.4149 40.0163 21.4302 39.0401C21.4403 38.4543 21.1856 38.1974 20.6099 38.2128C19.8712 38.2282 19.1274 38.2231 18.3887 38.2128C17.8487 38.2128 17.6246 38.4697 17.6246 39.0092C17.6348 40.9361 17.6348 42.8578 17.6246 44.7846C17.6246 45.3344 17.864 45.5657 18.3989 45.5554C19.1682 45.54 19.9375 45.54 20.7067 45.5554C21.2162 45.5605 21.4301 45.319 21.4251 44.8206C21.4149 43.87 21.4251 42.9246 21.4251 41.974L21.4302 41.9689Z" fill="#FFB400"/>
<path d="M40.365 41.8147C40.365 43.5926 40.3751 45.3755 40.365 47.1534C40.3548 48.4174 39.7791 49.1368 38.5259 49.1727C36.106 49.2395 33.6861 49.2447 31.2662 49.1727C29.957 49.1316 29.4067 48.4071 29.3813 46.8965C29.3456 44.8001 29.366 42.7036 29.366 40.6072C29.366 39.3432 29.3457 38.0792 29.3762 36.8152C29.4221 35.1658 30.0792 34.5286 31.6942 34.5235C33.8593 34.5184 36.0245 34.5132 38.1845 34.5235C39.7179 34.5338 40.3599 35.1915 40.365 36.733C40.3701 38.4286 40.365 40.1191 40.365 41.8147ZM33.0136 41.8199C33.0136 42.7961 33.0238 43.7724 33.0136 44.7487C33.0034 45.2779 33.1971 45.5605 33.7574 45.5502C34.5267 45.5348 35.2959 45.5348 36.0652 45.5502C36.6205 45.5605 36.8192 45.2882 36.8192 44.7589C36.809 42.8629 36.809 40.9669 36.8192 39.0709C36.8192 38.5057 36.6256 38.2025 36.0296 38.2128C35.2909 38.2282 34.5471 38.2231 33.8084 38.2128C33.2174 38.2025 32.9983 38.4954 33.0136 39.0657C33.034 39.9855 33.0187 40.9052 33.0187 41.825L33.0136 41.8199Z" fill="#FFB400"/>
<path d="M26.1994 72.8857C26.1994 73.9236 25.4505 74.6584 24.4163 74.6481C23.4025 74.6378 22.6383 73.8619 22.6485 72.8548C22.6587 71.8632 23.4586 71.0667 24.4469 71.077C25.4454 71.0873 26.2045 71.8683 26.1994 72.8908V72.8857Z" fill="#FFB400"/>
</svg>
