<svg width="91" height="92" viewBox="0 0 91 92" fill="none" xmlns="http://www.w3.org/2000/svg">
<path d="M42.5656 92.0009C39.9443 91.6191 37.3387 91.1902 34.8269 90.3062C24.2482 86.5978 16.9838 79.4686 13.0285 68.9606C12.7262 68.1551 12.3614 67.8727 11.5172 67.8831C9.95907 67.904 8.40094 68.0243 6.84279 67.768C2.78848 67.0985 0.120341 63.5784 0.453858 59.326C0.750896 55.6176 4.09648 52.5996 7.9684 52.563C8.82304 52.5526 9.67766 52.5421 10.5323 52.563C11.0638 52.5735 11.3088 52.3852 11.413 51.8255C13.8883 38.2263 21.5905 29.0049 34.4882 24.1719C35.1188 23.9366 35.2543 23.7273 34.9207 23.1101C33.7847 21.0336 32.6747 18.9153 32.2995 16.5563C31.523 11.6868 33.175 7.5913 36.828 4.43208C41.0074 0.817816 45.8642 0.0489344 50.9504 2.13067C55.9531 4.18102 58.689 8.13004 59.3612 13.4965C59.6687 15.9601 58.8818 18.2301 57.9021 20.4321C57.5061 21.3213 57.0787 22.2 56.5993 23.0474C56.2554 23.6541 56.3075 23.9313 57.0266 24.1719C62.488 26.0183 67.1885 29.0834 71.1438 33.2887C72.9312 35.1873 74.4946 37.2586 75.7661 39.5391C76.1152 40.1668 76.5426 40.3864 77.2461 40.3864C79.4556 40.3969 81.66 40.2818 83.8695 40.4597C87.2464 40.7369 89.7321 42.6826 90.7692 45.8994C90.8421 46.1243 90.9203 46.344 90.9985 46.5689V49.5869C90.9307 49.7804 90.863 49.9792 90.8004 50.1727C89.7738 53.4156 87.361 55.3509 83.9737 55.7065C83.0305 55.8059 82.0925 55.7798 81.1545 55.7955C80.6855 55.8007 80.4822 55.9419 80.5083 56.4807C80.6125 58.5205 80.4718 60.5552 80.0966 62.5585C77.5535 76.2362 69.7576 85.4785 56.7452 90.2696C54.223 91.2006 51.5757 91.6086 48.9284 91.9904H42.5656V92.0009ZM29.0738 34.2772C29.0738 33.2154 29.0529 32.1484 29.079 31.0866C29.0946 30.4642 28.9331 30.3491 28.3963 30.6996C25.6656 32.4989 23.2633 34.6486 21.21 37.2063C20.9078 37.5829 20.8661 37.8915 21.1162 38.3152C22.0855 39.9732 23.034 41.6418 23.9668 43.3155C24.1961 43.7287 24.5244 43.9798 24.9308 44.1838C26.489 44.9527 28.0419 45.732 29.5949 46.5218C30.6163 47.0449 30.9029 47.6568 30.6371 48.7605C30.2515 50.3662 29.7981 51.9615 29.4646 53.5777C29.2301 54.7075 28.7611 55.5601 27.6355 55.9733C27.4114 56.057 27.1091 56.1302 27.156 56.5068C27.2394 57.1135 28.7559 58.8134 29.3812 58.9756C30.7205 59.3208 32.0598 59.6556 33.4043 59.9955C34.9311 60.3826 35.3116 60.8429 35.322 62.3859C35.3324 64.4571 35.3168 66.5232 35.3272 68.5945C35.3324 69.4679 35.0562 70.1793 34.4569 70.8331C31.5335 74.0342 28.6464 77.2718 25.723 80.4781C25.2904 80.9541 25.2279 81.247 25.7803 81.6759C26.9684 82.6017 28.1827 83.4804 29.449 84.2912C29.9753 84.6259 30.3609 84.6259 30.8664 84.2493C33.0291 82.6645 35.2073 81.1005 37.4117 79.5628C38.0735 79.1025 38.5894 78.5847 38.7145 77.7687C39.1366 75.0646 40.7781 73.6053 43.217 72.4389C45.76 71.2254 48.2301 70.3467 51.0598 70.6657C51.5549 70.7233 52.0604 70.671 52.5606 70.6762C55.974 70.6867 55.5154 70.3467 57.3237 73.2914C58.2565 74.8135 59.3196 75.823 61.1643 75.8962C61.8574 75.9224 62.5401 76.2205 63.2384 76.299C65.1144 76.5082 66.7924 77.0783 67.9493 78.6945C68.2776 79.1548 68.5746 79.0607 68.929 78.6631C71.8421 75.4202 74.0725 71.7694 75.5264 67.6425C75.7296 67.0672 75.6515 66.7219 75.0991 66.4186C74.1923 65.9269 73.3325 65.3568 72.4414 64.839C71.8525 64.499 71.4564 64.0335 71.2167 63.3901C70.7269 62.093 70.1953 60.8063 69.6846 59.5196C68.7883 57.2705 68.7779 57.1188 66.3286 57.3018C62.389 57.6 58.7307 56.988 55.4164 54.7441C54.9005 54.3937 54.3898 54.4408 53.8217 54.6343C51.4819 55.4398 49.1212 56.1825 46.7971 57.0142C45.8173 57.3646 45.0565 57.1972 44.2748 56.5539C42.0913 54.7546 39.887 52.9762 37.6566 51.2345C36.9792 50.701 36.6352 50.0681 36.5049 49.2364C36.161 46.9925 35.7701 44.7487 35.421 42.5048C35.322 41.8719 35.051 41.4535 34.4413 41.1658C33.0499 40.5224 31.7054 39.7902 30.3245 39.1259C29.4594 38.7075 29.0269 38.085 29.0685 37.0965C29.1102 36.155 29.079 35.203 29.0738 34.2615V34.2772ZM60.2524 40.3864C63.994 40.3864 67.7356 40.3864 71.4773 40.3864C71.7326 40.3864 72.061 40.4858 72.2121 40.2295C72.3736 39.9523 72.0922 39.7379 71.9515 39.5286C67.8347 33.4404 62.2795 29.2821 55.3121 26.9912C54.6555 26.7767 54.3168 26.9284 53.952 27.4985C51.9613 30.6107 49.7518 33.5659 47.438 36.4427C46.203 37.9804 45.2754 37.9804 44.0455 36.4479C41.7161 33.545 39.4909 30.5636 37.4794 27.4305C37.1563 26.9284 36.8436 26.7349 36.26 26.9702C35.223 27.3887 34.1703 27.7653 33.1124 28.1419C32.5392 28.3459 32.2839 28.7015 32.2943 29.3344C32.3203 31.4632 32.3255 33.592 32.2943 35.7208C32.2839 36.3537 32.5444 36.6833 33.0864 36.9396C34.4152 37.5724 35.7128 38.2786 37.0469 38.9062C37.8494 39.288 38.2298 39.8895 38.3653 40.7473C38.751 43.1952 39.1887 45.6379 39.5691 48.091C39.6421 48.5722 39.8505 48.8964 40.2153 49.1894C41.9454 50.565 43.6807 51.9406 45.3848 53.3528C45.8799 53.7608 46.3228 53.8131 46.9169 53.6039C49.1994 52.8088 51.5027 52.0818 53.78 51.2763C54.5617 50.9991 55.2392 51.0253 55.974 51.4228C57.2976 52.1341 58.6682 52.7565 59.9918 53.4679C60.7422 53.8706 61.4978 54.0537 62.3525 54.0432C64.6767 54.0066 67.0061 54.0432 69.3355 54.0275C70.4403 54.0171 71.1594 54.4669 71.5555 55.5392C72.16 57.1711 72.926 58.7507 73.4523 60.4087C73.8796 61.7634 74.7082 62.6055 75.9225 63.2175C76.5374 63.5313 76.7041 63.432 76.824 62.7625C77.9288 56.4388 77.1575 50.3505 74.6665 44.4558C74.4112 43.8543 74.0777 43.6241 73.4107 43.6241C65.3698 43.645 57.3289 43.6398 49.2828 43.6293C48.7513 43.6293 48.35 43.7549 47.9591 44.1576C46.6772 45.4809 44.8012 45.5071 43.5401 44.2727C42.378 43.1377 42.3415 41.1501 43.4515 39.9314C44.624 38.6447 46.5521 38.5715 47.881 39.8425C48.3344 40.2766 48.7877 40.4074 49.3766 40.4074C52.9984 40.3917 56.6254 40.4021 60.2472 40.4021L60.2524 40.3864ZM17.755 67.904C17.4841 67.904 17.3642 67.904 17.2495 67.904C16.0562 67.904 16.0458 67.9093 16.4835 68.992C17.8541 72.3604 19.7249 75.4098 22.1168 78.1506C22.6588 78.7678 22.9662 78.8148 23.5343 78.1767C26.2076 75.1483 28.9278 72.1564 31.6377 69.1541C31.9295 68.8298 32.0911 68.4951 32.0858 68.0452C32.0702 66.5964 32.0598 65.1476 32.0858 63.6987C32.0963 63.1443 31.8618 62.9037 31.3563 62.7834C30.1212 62.5009 28.8966 62.1819 27.6667 61.889C27.1039 61.7582 26.6036 61.5281 26.2701 61.0312C25.2852 59.5614 24.2795 58.0969 23.3414 56.601C22.7526 55.6595 23.0236 54.7598 23.9928 54.1949C24.5556 53.8706 25.1393 53.5882 25.723 53.311C26.1034 53.1331 26.3118 52.8507 26.4056 52.4479C26.6297 51.5012 26.859 50.5545 27.1143 49.613C27.2446 49.1318 27.1248 48.8546 26.661 48.6349C25.5927 48.138 24.5713 47.5365 23.4926 47.0762C22.4086 46.6107 21.6374 45.9151 21.1215 44.8376C20.5951 43.7496 19.9437 42.7245 19.334 41.6784C19.1777 41.4116 19.1204 40.9461 18.7764 40.9461C18.4377 40.9461 18.3595 41.4012 18.2136 41.6731C14.5918 48.2479 13.3828 55.2253 14.67 62.6422C15.0139 64.6193 14.9775 64.6245 16.9212 64.6245C17.1297 64.6245 17.3329 64.6088 17.5414 64.6245C18.3595 64.6873 19.0109 64.5199 19.6623 63.8818C20.8088 62.7572 22.7943 62.9508 23.8938 64.1172C24.9986 65.294 24.9934 67.2084 23.8782 68.3852C22.7526 69.5726 20.814 69.7347 19.6623 68.5945C19.037 67.9773 18.4012 67.8046 17.7602 67.8883L17.755 67.904ZM50.9816 74.008C48.918 73.8302 47.2556 74.1231 45.5359 74.9077C43.3264 75.9119 41.8204 77.2195 41.4556 79.6883C41.3201 80.588 40.7208 81.179 39.986 81.6916C38.0943 82.9992 36.2339 84.3487 34.3735 85.6981C34.1286 85.876 33.6857 85.9858 33.7586 86.3624C33.8107 86.6606 34.2224 86.6815 34.4934 86.7809C41.8725 89.5426 49.2724 89.5844 56.6775 86.8959C59.8876 85.7295 62.8111 84.0401 65.4584 81.8747C65.6981 81.6759 66.1827 81.5138 65.7658 81.0639C65.1665 80.4258 64.5985 79.7825 63.624 79.636C61.9981 79.3902 60.3983 78.9561 58.7672 78.7259C57.3653 78.5272 56.3388 77.9257 55.7238 76.6337C54.7181 74.5049 53.2746 73.1973 50.9816 74.0028V74.008ZM56.1512 14.5008C56.0678 7.99404 49.83 3.14538 43.514 4.53146C37.8077 5.78155 33.1802 12.3615 36.4059 19.0094C38.8083 23.9575 41.9298 28.4139 45.218 32.7761C45.5724 33.2468 45.8642 33.2887 46.2394 32.7918C49.2932 28.7695 52.248 24.6793 54.5096 20.1392C55.3903 18.3713 56.2397 16.5668 56.1459 14.5008H56.1512ZM81.1962 43.6293C80.1956 43.6293 79.367 43.6555 78.5489 43.6189C77.9235 43.5927 77.8662 43.8176 78.0747 44.3512C79.0231 46.7729 79.737 49.2678 80.081 51.8517C80.1487 52.3643 80.3832 52.5682 80.8887 52.563C81.8007 52.5421 82.7126 52.5944 83.6246 52.5473C85.9488 52.4218 87.6737 50.6853 87.8405 48.342C88.002 46.0981 86.4908 44.2047 84.1874 43.7392C83.1347 43.53 82.0769 43.6921 81.2014 43.6293H81.1962ZM9.28163 64.635C9.28163 64.635 9.28163 64.635 9.28163 64.6402C9.81317 64.6402 10.3447 64.6036 10.871 64.6507C11.5641 64.7082 11.7257 64.4624 11.5954 63.7824C11.1368 61.3398 10.8398 58.8814 10.9753 56.3865C10.9909 56.0674 10.9075 55.8373 10.5688 55.8373C9.25035 55.8478 7.90585 55.6176 6.61868 56.0256C4.58632 56.6689 3.36691 58.6931 3.66916 60.8063C3.98183 62.9926 5.70152 64.567 7.86417 64.6402C8.33318 64.6559 8.80741 64.6402 9.27641 64.6402L9.28163 64.635Z" fill="#0E2B72"/>
<path d="M53.0186 10.2793H48.094C48.9591 10.7815 49.5845 11.4981 49.7668 12.5023H53.0186V13.5902H49.7981C49.5011 15.8132 47.0831 17.2307 43.2632 17.3144C45.5927 19.077 48.1253 21.3 50.6319 23.5491H47.7657C45.4363 21.4987 43.2581 19.6053 40.4544 17.4242V16.0747H42.0959C45.3165 16.0747 47.0518 15.0966 47.2603 13.5902H40.4544V12.5023H47.1665C46.7496 11.2365 45.1654 10.6089 42.5702 10.6089H40.4492V9.19141H53.0134V10.2793H53.0186Z" fill="#FFB400"/>
</svg>
