<svg width="40" height="47" viewBox="0 0 40 47" fill="none" xmlns="http://www.w3.org/2000/svg">
<path d="M19.6381 46.9988H19.5453C19.419 46.9389 19.2914 46.879 19.165 46.8191C17.5811 45.964 15.9774 45.1423 14.4178 44.2446C13.0751 43.4724 11.7323 42.6819 10.48 41.7761C8.94942 40.6686 7.51159 39.4332 6.03433 38.2531C5.9091 38.1286 5.78271 38.003 5.65748 37.8786C5.26091 37.4741 4.85043 37.0822 4.47242 36.6628C4.01788 36.158 3.58537 35.6325 3.15054 35.1093C2.20087 33.9649 1.45876 32.6915 0.874351 31.3328C0.385022 30.1954 0.0197657 29.0015 0.016287 27.7626C-0.00922296 20.7605 5.34012e-05 13.7607 0.0116489 6.76084C0.0116489 6.52228 0.139199 6.28373 0.207612 6.04518C0.231962 6.02213 0.255153 5.99908 0.279504 5.97604C0.54504 5.8147 0.790863 5.59458 1.07843 5.50239C2.66817 4.99302 4.26602 4.5067 5.86503 4.02729C10.2528 2.70892 14.6382 1.38478 19.0363 0.105591C19.5477 -0.0430713 20.1541 -0.0200229 20.684 0.0836952C21.5432 0.253101 22.3781 0.550427 23.2211 0.801655C26.5177 1.78121 29.8143 2.76538 33.1109 3.74494C34.8803 4.27045 36.6591 4.7683 38.4181 5.32376C38.9956 5.50585 39.711 5.61417 39.8849 6.34942C39.9916 6.80117 40.002 7.28288 39.9997 7.75077C39.9789 14.3403 39.9649 20.9287 39.9012 27.5183C39.8919 28.4137 39.6971 29.3287 39.4547 30.1965C38.7752 32.6293 37.3479 34.6426 35.6433 36.4622C34.4142 37.7748 33.1317 39.0414 31.6765 40.1166C31.6406 40.1419 31.6046 40.1661 31.5675 40.1915C30.7442 40.785 29.9233 41.3808 29.0977 41.972C27.0569 43.4333 24.8874 44.6871 22.6715 45.8626C21.9421 46.2498 21.2047 46.622 20.4707 47H19.637L19.6381 46.9988Z" fill="url(#paint0_linear_7282_118027)"/>
<path d="M13 21.6667L17.122 26L26 18" stroke="white" stroke-width="2" stroke-linecap="round" stroke-linejoin="round"/>
<defs>
<linearGradient id="paint0_linear_7282_118027" x1="20" y1="0" x2="20" y2="47" gradientUnits="userSpaceOnUse">
<stop stop-color="#FFB400" stop-opacity="0.15"/>
<stop offset="1" stop-color="#FFB400"/>
</linearGradient>
</defs>
</svg>
