<svg width="19" height="19" viewBox="0 0 19 19" fill="none" xmlns="http://www.w3.org/2000/svg">
<path fill-rule="evenodd" clip-rule="evenodd" d="M9.57141 0.5C4.60085 0.5 0.571411 4.52944 0.571411 9.5C0.571411 14.4706 4.60085 18.5 9.57141 18.5C14.542 18.5 18.5714 14.4706 18.5714 9.5C18.5714 4.52944 14.542 0.5 9.57141 0.5ZM1.80926 9.09091H5.69179C5.77384 6.60623 6.59109 4.59881 7.40423 3.19684C7.72331 2.6467 8.0428 2.1879 8.31923 1.82761C4.75305 2.40517 2.00017 5.40916 1.80926 9.09091ZM5.71211 10.3182H1.84123C2.20668 13.8116 4.88607 16.6164 8.31921 17.1724C8.04279 16.8121 7.72331 16.3533 7.40423 15.8032C6.6362 14.479 5.8645 12.6146 5.71211 10.3182ZM6.94241 10.3182H12.2004C12.0507 12.3467 11.3656 14.0001 10.677 15.1874C10.2877 15.8586 9.89911 16.3774 9.61026 16.7261L9.57141 16.7726L9.53256 16.7261C9.24372 16.3774 8.85516 15.8586 8.46586 15.1874C7.77723 14.0001 7.09215 12.3467 6.94241 10.3182ZM12.223 9.09091H6.91982C7.00117 6.87501 7.73149 5.07874 8.46586 3.81258C8.85516 3.14138 9.24372 2.62257 9.53256 2.27396L9.57141 2.22738L9.61026 2.27396C9.89911 2.62257 10.2877 3.14138 10.677 3.81258C11.4113 5.07874 12.1416 6.87501 12.223 9.09091ZM13.4307 10.3182C13.2783 12.6146 12.5066 14.479 11.7386 15.8032C11.4195 16.3533 11.1 16.8121 10.8236 17.1724C14.2567 16.6164 16.9361 13.8116 17.3016 10.3182H13.4307ZM17.3336 9.09091H13.451C13.369 6.60623 12.5517 4.59881 11.7386 3.19684C11.4195 2.6467 11.1 2.1879 10.8236 1.82761C14.3898 2.40517 17.1426 5.40916 17.3336 9.09091Z" fill="black" stroke="black" stroke-width="0.25"/>
</svg>
