<svg width="111" height="100" viewBox="0 0 111 100" fill="none" xmlns="http://www.w3.org/2000/svg">
<path d="M110.175 94.671C109.632 96.1282 108.897 97.4398 107.649 98.4424C104.533 100.943 99.8135 100.232 97.6315 96.7753C95.7471 93.7966 94.0669 90.6838 92.2642 87.6527C92.095 87.3671 92.095 86.5918 91.4883 86.9649C90.9632 87.2855 90.584 87.746 91.2024 88.5212C93.7519 91.7331 93.4252 95.7085 90.4848 98.2734C89.1605 99.4275 87.6145 99.9055 85.8584 99.8997C77.7258 99.8764 69.5873 99.8939 61.4546 99.8939C48.8239 99.8939 36.1815 99.6141 23.5625 99.993C14.899 100.255 3.21337 93.167 0.926423 81.5379C0.109657 77.3993 0.465532 73.4063 1.99989 69.4775C4.43268 63.2636 7.87477 57.6036 11.5269 52.0659C12.5478 50.5212 13.5921 48.9881 14.6598 47.4726C15.4124 46.4058 16.4683 46.1552 17.3026 46.7789C18.1077 47.3793 18.1894 48.3702 17.4543 49.437C14.0063 54.4675 10.6051 59.5272 7.8106 64.9599C6.14789 68.1951 4.49686 71.4652 4.04764 75.1317C3.52258 79.3812 4.46769 83.3858 6.77214 86.9765C10.1851 92.2927 15.0273 95.5453 21.3456 96.4663C21.7656 96.5305 22.1973 96.5246 22.6291 96.5246C32.016 96.5246 41.3972 96.5246 50.7841 96.5421C51.6242 96.5421 52.021 96.5538 51.5834 95.4987C50.5333 92.9572 51.0409 90.5906 52.8144 88.5329C53.3045 87.9616 53.2461 87.676 52.7911 87.1397C50.9417 84.9538 50.5158 82.4764 51.7059 79.865C52.9077 77.2302 55.0372 75.8138 57.9659 75.8021C64.1733 75.7729 70.3807 75.7904 76.594 75.7904C78.1108 75.7904 78.2158 75.668 77.8833 74.2107C76.8915 69.8447 74.8613 65.9217 72.6676 62.0745C67.6387 53.255 61.6472 45.1001 55.3931 37.12C54.5354 36.0242 53.637 34.9633 52.8027 33.8557C52.371 33.2845 51.8576 33.0863 51.1575 33.0921C44.4134 33.1096 37.6692 33.1154 30.9251 33.0921C30.1608 33.0921 29.6649 33.3602 29.2099 33.9432C27.0571 36.7411 24.8693 39.51 22.7049 42.2963C21.6431 43.6603 20.6922 44.0042 19.7704 43.3397C18.8486 42.6752 18.8894 41.6143 19.9279 40.2619C21.6665 38.0002 23.405 35.7385 25.1727 33.506C25.5869 32.9872 25.6044 32.7715 24.9393 32.4509C22.6582 31.3492 21.4914 29.4198 21.5731 26.9424C21.6548 24.3601 23.055 22.5006 25.5052 21.6029C26.4037 21.2765 26.182 20.9908 25.7794 20.4429C23.6209 17.505 22.0107 14.3398 21.5848 10.6383C21.1122 6.51131 24.0467 1.69062 27.9847 0.408213C29.8283 -0.192187 31.666 -0.098921 33.3579 0.897859C34.6764 1.67896 35.8782 1.70811 37.2783 0.967809C39.7695 -0.343744 42.389 -0.314599 44.8801 1.00861C46.2044 1.71394 47.3362 1.64982 48.6081 0.95615C51.175 -0.448668 53.6837 -0.209674 56.064 1.43414C58.1701 2.89142 59.5936 4.83252 60.1945 7.34487C60.4512 8.42909 60.0078 9.32094 59.1093 9.58325C58.1175 9.87471 57.2133 9.39672 56.9041 8.2717C56.414 6.49965 55.4047 5.14146 53.8995 4.12719C52.7677 3.36941 51.5601 3.20619 50.3699 3.90569C47.9721 5.31633 45.6269 5.3688 43.1766 3.99895C41.7122 3.18288 40.1137 3.28197 38.661 4.10388C36.3857 5.38046 34.1746 5.30468 31.9577 4.02227C30.4233 3.13624 29.029 3.40438 27.6989 4.45945C25.3011 6.35975 24.4726 9.03532 25.3769 12.2297C26.2928 15.459 28.0897 18.1754 30.4233 20.5537C30.9892 21.1307 33.9705 21.5796 34.5889 21.2124C34.9797 20.9792 34.7697 20.6294 34.6939 20.3496C34.2738 18.7233 34.0113 17.0737 33.7663 15.4182C33.5154 13.7103 34.0113 12.7077 35.1839 12.5328C36.3449 12.3637 37.0858 13.2498 37.2258 14.9694C37.3775 16.823 37.8151 18.6184 38.2701 20.4196C38.4335 21.0608 38.7719 21.2765 39.4078 21.259C40.5104 21.224 41.6189 21.2298 42.7273 21.259C43.3224 21.2706 43.6375 21.0491 43.7891 20.4604C44.25 18.7 44.6584 16.9338 44.8393 15.1209C44.8743 14.8003 44.8976 14.4797 44.9618 14.1708C45.201 13.0516 45.9419 12.422 46.8578 12.5328C47.8088 12.6494 48.4214 13.4013 48.363 14.5264C48.2638 16.415 47.9138 18.2745 47.4238 20.099C47.1846 20.9908 47.3246 21.189 48.293 21.294C50.3758 21.5213 51.8401 20.7693 53.0069 19.0906C53.8237 17.9189 54.6988 16.7997 55.3581 15.5231C55.5039 15.2375 55.6381 14.946 55.8014 14.6662C56.3848 13.6636 57.2483 13.3197 58.1117 13.7278C59.0335 14.1649 59.3427 15.1093 58.8526 16.1876C58.1876 17.6508 57.3475 19.0148 56.4023 20.3205C56.1981 20.6061 55.6381 20.9384 55.9706 21.2765C56.3498 21.667 56.9449 21.8128 57.5283 21.4164C58.6601 20.6469 59.9028 20.1048 61.2329 19.7959C64.1849 19.0964 66.892 19.7492 69.3948 21.3814C70.1999 21.906 70.9816 22.4714 71.7634 23.031C72.7843 23.7597 73.8636 24.3601 75.0946 24.6923C76.2089 24.9955 76.7515 25.8174 76.5298 26.7209C76.2964 27.6769 75.5205 28.1723 74.3829 28.0091C73.1285 27.8284 71.9909 27.3038 70.9408 26.6101C69.7798 25.8465 68.6538 25.0246 67.4929 24.261C65.2701 22.8037 62.9423 22.5297 60.492 23.7014C59.9378 23.9695 59.8736 24.2318 59.9961 24.8556C60.2528 26.1496 61.0054 26.6101 62.1955 27.0356C66.7286 28.6561 69.2314 32.1711 70.6257 36.6012C71.1508 38.2684 71.6059 39.953 72.1309 41.6143C72.5451 42.9142 73.1752 44.1033 74.0328 45.1759C74.8437 46.1843 74.7912 47.152 73.9628 47.8165C73.1985 48.4344 72.2184 48.2828 71.425 47.3793C69.8731 45.6247 69.0622 43.4971 68.3913 41.3053C67.9946 40.0113 67.6854 38.6881 67.2653 37.4057C66.2444 34.2638 64.4883 31.7164 61.3438 30.3466C60.4628 29.9619 59.7044 29.787 59.1093 30.8829C58.7185 31.6057 57.9834 32.0953 57.2133 32.3984C56.4198 32.7074 56.4957 33.0047 56.9507 33.5876C59.3835 36.712 61.828 39.8247 64.1733 43.0074C68.8113 49.2971 73.2219 55.7383 76.8915 62.6516C78.9859 66.5979 80.8586 70.6317 81.5237 75.1143C81.5762 75.4582 81.6521 75.7671 82.0721 75.7729C82.9647 75.7904 83.8574 75.8138 84.7441 75.7729C85.3975 75.7438 85.135 75.3241 84.9716 75.021C84.3999 73.9951 83.7698 72.9983 83.2331 71.949C81.1037 67.7696 83.5423 62.7798 88.1687 61.9987C90.969 61.5266 93.3493 62.4651 94.977 64.8375C96.0038 66.3298 96.8556 67.9503 97.7307 69.5416C98.2733 70.5267 98.0107 71.4827 97.1765 71.9665C96.2897 72.4795 95.3679 72.2055 94.7378 71.1679C93.8861 69.769 93.1276 68.3058 92.235 66.936C91.3308 65.5428 89.8723 65.0648 88.2971 65.502C87.0252 65.8518 86.0801 67.0234 85.9109 68.4982C85.8234 69.2676 86.0334 69.9846 86.4127 70.6433C91.0507 78.6642 95.6888 86.6909 100.339 94.7059C101.114 96.0466 102.532 96.717 103.833 96.4663C105.478 96.1457 106.499 95.1256 106.779 93.4935C106.931 92.6016 106.639 91.8089 106.202 91.0569C103.816 86.9182 101.424 82.7854 99.0375 78.6467C98.8975 78.4019 98.74 78.1571 98.6175 77.9006C98.1566 76.9446 98.4308 75.9595 99.2709 75.499C100.082 75.0618 101.004 75.3066 101.575 76.2043C102.229 77.2244 102.812 78.2853 103.419 79.3345C105.315 82.6047 107.217 85.869 109.084 89.1508C109.504 89.8911 109.795 90.7013 110.146 91.4766V94.6826L110.175 94.671ZM72.0726 89.588C67.4053 89.588 62.7323 89.5763 58.065 89.5938C55.9239 89.6055 54.5004 91.0977 54.5646 93.1845C54.623 95.1548 56.1456 96.5071 58.3917 96.513C64.2375 96.5305 70.0832 96.5188 75.9289 96.5188C79.1726 96.5188 82.4163 96.5363 85.6601 96.513C87.6786 96.5013 89.143 95.3471 89.3764 93.6684C89.7031 91.3192 88.2504 89.6055 85.8701 89.5938C81.2729 89.5763 76.6756 89.588 72.0726 89.5938V89.588ZM72.0142 86.073V86.0847C72.691 86.0847 73.3677 86.0847 74.0445 86.0847C78.0408 86.0847 82.0313 86.1021 86.0276 86.0672C87.9528 86.0497 89.5397 84.5108 89.3764 82.9136C89.178 80.9842 87.2586 79.1713 85.3334 79.148C83.0872 79.1247 80.8411 79.1422 78.595 79.1422C72.0317 79.1422 65.4684 79.1422 58.9051 79.1422C57.75 79.1422 56.6124 79.2529 55.6906 80.069C54.6638 80.9725 54.2846 82.4706 54.728 83.7822C55.2005 85.1637 56.3615 86.0555 57.89 86.0672C62.5981 86.0963 67.3062 86.0788 72.0142 86.0788V86.073ZM41.0063 29.5888C45.4285 29.5888 49.8449 29.6005 54.2671 29.5888C55.9064 29.5888 56.9566 28.6503 57.0149 27.2222C57.0733 25.8465 56.134 24.8497 54.5705 24.6399C54.2904 24.6049 53.9987 24.6049 53.7187 24.6049C45.271 24.6049 36.8233 24.6049 28.3698 24.6049C27.7922 24.6049 27.2263 24.6341 26.6837 24.8322C25.6803 25.1936 25.0969 25.9106 25.0385 26.9774C24.9802 28.0383 25.4527 28.8252 26.392 29.3323C26.9171 29.6121 27.4888 29.6063 28.0606 29.6063C32.3719 29.6063 36.6891 29.6063 41.0005 29.6063L41.0063 29.5888Z" fill="#0E2B72"/>
<path d="M41.0413 49.3449C43.2874 49.3449 45.5335 49.3449 47.7796 49.3449C48.0655 49.3449 48.3514 49.3449 48.6372 49.3508C50.0433 49.4207 50.895 50.1085 50.8542 51.1461C50.8134 52.2245 50.0199 52.8074 48.5556 52.8133C47.698 52.8191 46.8462 52.8366 45.9886 52.8133C45.3177 52.7958 45.3994 52.9881 45.5569 53.5536C46.0644 55.3664 47.0037 56.2699 49.034 55.9551C50.0724 55.7978 50.8484 56.7013 50.8542 57.6398C50.8542 58.5025 50.1016 59.4643 49.139 59.3302C47.0679 59.0446 46.2511 60.053 45.3877 61.7668C44.005 64.5123 41.4789 65.8064 38.3752 65.8588C38.0543 65.8588 37.7334 65.8472 37.4126 65.8647C37.2084 65.8763 36.9167 65.8647 36.8233 65.9929C36.6191 66.2552 36.9283 66.4359 37.0683 66.6166C38.9469 68.9949 40.8313 71.3615 42.7157 73.734C43.4683 74.6841 44.2326 75.6226 44.9793 76.5786C45.9478 77.8202 45.9653 78.7412 45.0552 79.4698C44.1975 80.1577 43.2291 79.9128 42.249 78.6829C39.3786 75.0922 36.5258 71.4839 33.6729 67.8874C33.3404 67.4677 32.9787 67.0655 32.7045 66.6108C31.6135 64.7979 32.792 62.612 34.9039 62.5013C36.3624 62.4255 37.8268 62.6003 39.2794 62.3147C40.4929 62.0757 41.4614 61.4637 42.1965 60.4844C42.3831 60.2396 42.669 59.9598 42.529 59.6275C42.3715 59.2661 41.9689 59.3943 41.6656 59.3943C39.2386 59.3827 36.8175 59.3885 34.3905 59.3885C34.0696 59.3885 33.7488 59.3885 33.4279 59.3885C32.0627 59.3477 31.1701 58.6307 31.1993 57.5931C31.2285 56.5206 32.0511 55.8969 33.4804 55.891C36.2633 55.8852 39.0461 55.891 41.8231 55.8852C42.0973 55.8852 42.459 56.0018 42.6282 55.7511C42.844 55.4305 42.5348 55.1507 42.3657 54.8942C41.4555 53.5011 40.1195 52.8424 38.486 52.8074C36.8116 52.7724 35.1314 52.8074 33.4571 52.7958C32.0102 52.7899 31.2051 52.1779 31.1876 51.0937C31.176 50.0561 32.0161 49.3508 33.4396 49.3333C35.9715 49.3041 38.5035 49.3216 41.0355 49.3216L41.0413 49.3449Z" fill="#FFB400"/>
</svg>
