<svg width="536" height="523" viewBox="0 0 536 523" fill="none" xmlns="http://www.w3.org/2000/svg">
<g clip-path="url(#clip0_2_9)">
<path d="M263.151 632.984H261.908C260.214 632.177 258.505 631.37 256.811 630.563C235.586 619.047 214.098 607.98 193.199 595.889C175.206 585.49 157.213 574.843 140.432 562.644C119.922 547.728 100.655 531.09 80.86 515.196C79.1819 513.52 77.4883 511.828 75.8102 510.152C70.4962 504.704 64.9958 499.427 59.9304 493.777C53.8396 486.979 48.0439 479.901 42.2172 472.855C29.4917 457.443 19.5474 440.292 11.7163 421.993C5.1593 406.674 0.26486 390.594 0.218246 373.909C-0.123588 279.604 0.000715575 185.33 0.156095 91.0555C0.156095 87.8427 1.86526 84.6298 2.782 81.417C3.1083 81.1066 3.41906 80.7962 3.74535 80.4858C7.30353 78.3128 10.5976 75.3483 14.451 74.1067C35.7534 67.2464 57.1647 60.6966 78.5915 54.2399C137.387 36.4839 196.151 18.6504 255.087 1.42211C261.939 -0.580088 270.065 -0.26967 277.166 1.12721C288.679 3.40879 299.867 7.41319 311.163 10.7968C355.337 23.9896 399.511 37.2444 443.686 50.4372C467.396 57.5148 491.232 64.2198 514.803 71.7009C522.541 74.1532 532.127 75.6122 534.458 85.5145C535.888 91.5987 536.027 98.0865 535.996 104.388C535.717 193.137 535.53 281.87 534.676 370.619C534.551 382.678 531.941 395.002 528.694 406.689C519.588 439.454 500.461 466.569 477.62 491.077C461.15 508.755 443.965 525.812 424.465 540.293C423.984 540.635 423.502 540.961 423.005 541.302C411.973 549.296 400.972 557.32 389.909 565.282C362.562 584.963 333.491 601.849 303.798 617.681C294.025 622.896 284.142 627.909 274.307 633H263.135L263.151 632.984Z" fill="url(#paint0_linear_2_9)"/>
<mask id="mask0_2_9" style="mask-type:alpha" maskUnits="userSpaceOnUse" x="0" y="0" width="536" height="633">
<path d="M263.151 632.984H261.908C260.214 632.177 258.505 631.37 256.811 630.563C235.586 619.047 214.098 607.98 193.199 595.889C175.206 585.49 157.213 574.843 140.432 562.644C119.922 547.728 100.655 531.09 80.86 515.196C79.1819 513.52 77.4883 511.828 75.8102 510.152C70.4962 504.704 64.9958 499.427 59.9304 493.777C53.8396 486.979 48.0439 479.901 42.2172 472.855C29.4917 457.443 19.5474 440.292 11.7163 421.993C5.1593 406.674 0.26486 390.594 0.218246 373.909C-0.123588 279.604 0.000715575 185.33 0.156095 91.0555C0.156095 87.8427 1.86526 84.6298 2.782 81.417C3.1083 81.1066 3.41906 80.7962 3.74535 80.4858C7.30353 78.3128 10.5976 75.3483 14.451 74.1067C35.7534 67.2464 57.1647 60.6966 78.5915 54.2399C137.387 36.4839 196.151 18.6504 255.087 1.42211C261.939 -0.580088 270.065 -0.26967 277.166 1.12721C288.679 3.40879 299.867 7.41319 311.163 10.7968C355.337 23.9896 399.511 37.2444 443.686 50.4372C467.396 57.5148 491.232 64.2198 514.803 71.7009C522.541 74.1532 532.127 75.6122 534.458 85.5145C535.888 91.5987 536.027 98.0865 535.996 104.388C535.717 193.137 535.53 281.87 534.676 370.619C534.551 382.678 531.941 395.002 528.694 406.689C519.588 439.454 500.461 466.569 477.62 491.077C461.15 508.755 443.965 525.812 424.465 540.293C423.984 540.635 423.502 540.961 423.005 541.302C411.973 549.296 400.972 557.32 389.909 565.282C362.562 584.963 333.491 601.849 303.798 617.681C294.025 622.896 284.142 627.909 274.307 633H263.135L263.151 632.984Z" fill="#D9D9D9"/>
</mask>
<g mask="url(#mask0_2_9)">
<path d="M4 611C50.9426 344.796 304.794 129 571 129" stroke="white" stroke-width="8" stroke-miterlimit="10"/>
</g>
</g>
<defs>
<linearGradient id="paint0_linear_2_9" x1="268" y1="0" x2="268" y2="633" gradientUnits="userSpaceOnUse">
<stop stop-color="#FFB400" stop-opacity="0.85"/>
<stop offset="1" stop-color="#FFB400" stop-opacity="0"/>
</linearGradient>
<clipPath id="clip0_2_9">
<rect width="536" height="523" fill="white"/>
</clipPath>
</defs>
</svg>
