<svg width="99" height="101" viewBox="0 0 99 101" fill="none" xmlns="http://www.w3.org/2000/svg">
<path d="M0.0353866 59.3098C0.560288 58.3203 1.39777 58.0493 2.48296 58.0552C10.0026 58.0847 17.5223 58.0729 25.0419 58.0729C26.3335 58.0729 26.3394 58.0729 26.3394 56.7534C26.3394 49.0312 26.3394 41.309 26.3394 33.5868C26.3394 33.2275 26.3336 32.8682 26.3453 32.5089C26.4279 30.5356 27.0059 29.9819 28.9934 29.9819C42.6291 29.9819 56.2647 29.9819 69.9004 29.9819C72.059 29.9819 72.6252 30.5533 72.6311 32.827C72.6429 40.7141 72.6311 48.6012 72.6311 56.4825C72.6311 57.5467 73.1678 58.0788 74.2411 58.0788C81.6311 58.0788 89.021 58.0788 96.4109 58.0788C98.3984 58.0788 98.9823 58.6619 98.9823 60.6469C98.9823 73.1109 98.9764 85.5807 99 98.0446C99 99.0695 98.7464 99.9059 97.9561 100.56C65.6304 100.56 33.3047 100.56 0.97903 100.577C0.224115 100.577 0 100.483 0 99.6468C0.0353866 86.2051 0.0235911 72.7633 0.0235911 59.3157L0.0353866 59.3098ZM30.0609 65.2002C30.0609 75.3433 30.0609 85.4923 30.0609 95.6355C30.0609 96.9902 30.0609 96.9961 31.4292 96.9961C33.6232 96.9961 35.8113 96.9549 37.9993 97.0138C38.9489 97.0374 39.2261 96.7193 39.2202 95.7827C39.1789 91.2 39.1966 86.6174 39.2025 82.0347C39.2025 80.2264 39.8571 79.5372 41.6855 79.5254C46.8873 79.5019 52.0832 79.5019 57.2851 79.5254C59.1134 79.5313 59.7621 80.2264 59.768 82.0288C59.768 86.6763 59.7857 91.3237 59.7562 95.9712C59.7562 96.7369 59.998 97.0138 60.7706 97.002C62.9941 96.9667 65.2176 96.9902 67.441 96.9902C68.4201 96.9902 68.9096 96.5053 68.9096 95.5353C68.9096 75.3727 68.9096 55.2161 68.9096 35.0535C68.9096 34.0836 68.4201 33.5966 67.441 33.5927C55.4744 33.5927 43.502 33.5927 31.5354 33.5927C30.5564 33.5927 30.0649 34.0796 30.0609 35.0535C30.0609 45.1024 30.0609 55.1454 30.0609 65.1943V65.2002ZM3.61533 79.2839C3.61533 84.8149 3.61533 90.3459 3.60944 95.877C3.60944 96.5367 3.64482 97.0079 4.52359 97.002C11.4889 96.9785 18.4541 96.9843 25.4253 96.9961C26.1094 96.9961 26.3453 96.7075 26.3453 96.0537C26.3336 91.8009 26.3277 87.5422 26.3453 83.2893C26.3453 82.5589 26.0564 82.3174 25.3486 82.3292C23.8093 82.3646 22.2759 82.3646 20.7366 82.3292C19.3624 82.2939 18.5367 81.2866 18.8198 80.085C19.0203 79.2486 19.7398 78.7302 20.8427 78.7126C22.382 78.689 23.9155 78.689 25.4548 78.7126C26.0858 78.7185 26.3394 78.4652 26.3336 77.8408C26.3159 76.1738 26.3159 74.501 26.3336 72.834C26.3453 72.1566 26.0564 71.9092 25.3899 71.921C23.886 71.9446 22.382 71.9505 20.8781 71.921C19.5511 71.8916 18.7726 71.1906 18.7785 70.0891C18.7785 68.97 19.5393 68.3161 20.8958 68.2985C22.3997 68.2808 23.9037 68.269 25.4076 68.2985C26.0858 68.3103 26.3453 68.0452 26.3336 67.3796C26.31 65.907 26.2746 64.4285 26.3453 62.9618C26.3984 61.9487 26.0151 61.6895 25.0419 61.6954C18.3067 61.7308 11.5655 61.7367 4.83028 61.6954C3.79817 61.6895 3.57995 62.043 3.58585 63.0031C3.62713 68.434 3.60354 73.8707 3.60354 79.3016L3.61533 79.2839ZM95.3552 79.39C95.3552 73.8589 95.3434 68.3279 95.367 62.7969C95.367 62.0253 95.1841 61.6895 94.3349 61.6895C87.4345 61.719 80.5341 61.7131 73.6337 61.6954C72.9318 61.6954 72.6193 61.9134 72.6311 62.6497C72.6605 64.2224 72.6546 65.7892 72.6311 67.3619C72.6193 68.0275 72.867 68.3044 73.5511 68.2926C75.1199 68.2631 76.6887 68.269 78.2575 68.2926C79.2955 68.3103 79.9738 68.8345 80.1448 69.6768C80.3984 70.8902 79.5845 71.8562 78.1809 71.9034C76.6769 71.9505 75.173 71.9446 73.6691 71.9034C72.92 71.8857 72.6016 72.1331 72.6193 72.9106C72.6546 74.5128 72.6488 76.1208 72.6193 77.723C72.6075 78.4357 72.867 78.7185 73.5983 78.7008C75.0668 78.6654 76.5413 78.6772 78.0157 78.7008C79.4076 78.7185 80.2156 79.4312 80.192 80.5562C80.1684 81.6459 79.3722 82.3116 78.0393 82.3292C76.7005 82.3469 75.3558 82.3292 74.017 82.3292C72.637 82.3292 72.6311 82.3292 72.6311 83.6663C72.6311 87.66 72.6311 91.6536 72.6311 95.6472C72.6311 96.9608 72.6546 96.9843 73.9286 96.9843C80.6638 96.9843 87.405 96.9726 94.1402 97.002C95.078 97.002 95.3729 96.7252 95.367 95.7768C95.3257 90.3106 95.3493 84.8444 95.3493 79.3782L95.3552 79.39ZM42.8296 90.0455C42.8296 92.007 42.8473 93.9744 42.8178 95.9359C42.806 96.6545 43.0007 97.0138 43.8027 97.0079C47.595 96.9784 51.3873 96.9843 55.1796 97.0079C55.8991 97.0079 56.1586 96.7369 56.1527 96.0242C56.135 92.0659 56.1291 88.1076 56.1527 84.1493C56.1527 83.3718 55.8696 83.1362 55.1147 83.1421C51.3578 83.1715 47.595 83.1715 43.8381 83.1421C43.0714 83.1362 42.8001 83.3954 42.8119 84.1611C42.8473 86.1226 42.8237 88.0841 42.8237 90.0514L42.8296 90.0455Z" fill="#0E2B72"/>
<path d="M70.2962 0C71.4934 1.10738 71.9476 2.65064 72.6317 4.04665C73.021 4.83595 73.54 5.14814 74.348 5.2365C75.386 5.34841 76.4181 5.50156 77.4502 5.6606C78.27 5.7843 78.9364 6.12594 79.2195 6.99181C79.4908 7.83413 79.1075 8.44672 78.5472 9.00041C77.8041 9.7367 77.1022 10.526 76.306 11.1916C75.6042 11.7748 75.4685 12.4109 75.6691 13.2532C75.8991 14.2016 76.0465 15.1735 76.194 16.1454C76.3178 16.9759 76.3178 17.8006 75.5393 18.366C74.7608 18.9256 74 18.7136 73.2392 18.3071C72.2601 17.7888 71.2516 17.3117 70.2844 16.758C69.7654 16.4576 69.3408 16.4634 68.8276 16.7521C67.8073 17.3293 66.7575 17.8653 65.7136 18.4131C64.9705 18.8019 64.2038 18.9079 63.502 18.3601C62.806 17.8182 62.7117 17.0702 62.8709 16.2337C63.0773 15.1735 63.1599 14.0897 63.4253 13.0471C63.6199 12.2872 63.3722 11.816 62.8414 11.3448C62.0806 10.6733 61.367 9.95465 60.6356 9.2537C60.0282 8.67056 59.521 8.04029 59.7805 7.10962C60.0518 6.13772 60.8067 5.81964 61.6913 5.68416C62.6291 5.5369 63.5609 5.32485 64.4987 5.28951C65.5308 5.24828 66.097 4.77705 66.4508 3.84638C66.7634 3.02174 67.2058 2.25599 67.5832 1.45491C67.8486 0.883548 68.2025 0.382871 68.7215 0.00589018H70.2903L70.2962 0ZM73.3925 8.69412C71.6881 8.72946 70.4082 8.19344 69.8362 6.47935C69.5885 5.74306 69.2759 6.17306 69.1343 6.57949C68.6684 7.89303 67.7896 8.62343 66.3742 8.67644C66.1618 8.68233 65.8611 8.62343 65.7844 8.90617C65.7136 9.15356 65.9495 9.32438 66.1265 9.45986C67.2176 10.2963 67.5242 11.3801 67.1763 12.6819C67.1232 12.888 66.9522 13.159 67.1645 13.3239C67.4181 13.5183 67.6717 13.2886 67.8722 13.1531C68.9692 12.4109 70.0485 12.3638 71.1573 13.1236C71.3637 13.265 71.6291 13.4888 71.8709 13.3239C72.1245 13.1472 71.9712 12.8409 71.9063 12.5994C71.5583 11.333 71.865 10.2786 72.9148 9.45397C73.1094 9.30082 73.3335 9.13589 73.4043 8.68823L73.3925 8.69412Z" fill="#FFB400"/>
<path d="M27.7082 0C28.9054 1.06026 29.33 2.58585 30.0024 3.94652C30.4211 4.78883 30.9578 5.16581 31.8543 5.24828C32.8923 5.34252 33.9244 5.50745 34.9565 5.66649C35.7468 5.79019 36.3661 6.1495 36.6374 6.96825C36.9028 7.76344 36.5902 8.37015 36.0535 8.91206C35.1747 9.78972 34.3019 10.6733 33.4054 11.5333C33.0692 11.8572 32.9277 12.1812 33.022 12.6583C33.2462 13.7775 33.4349 14.9084 33.6 16.0335C33.7298 16.8876 33.7888 17.7534 32.969 18.3542C32.1551 18.9551 31.3707 18.69 30.5804 18.2718C29.6013 17.7534 28.5987 17.2704 27.6315 16.7285C27.1833 16.4752 26.8058 16.4517 26.3576 16.705C25.3019 17.294 24.2285 17.8477 23.1551 18.4073C22.412 18.796 21.6452 18.9197 20.9434 18.3719C20.2534 17.8359 20.1354 17.0878 20.2947 16.2514C20.5011 15.1617 20.6013 14.0484 20.8549 12.9705C21.0142 12.2872 20.8137 11.8631 20.3359 11.4272C19.5161 10.6792 18.7376 9.88396 17.9414 9.10644C17.3871 8.55864 16.9447 7.96372 17.1983 7.11551C17.4696 6.21429 18.1538 5.83142 19.0148 5.69594C20.0764 5.53101 21.1439 5.36019 22.2114 5.24828C22.931 5.1717 23.4087 4.88897 23.7036 4.19391C24.0928 3.26324 24.5764 2.36791 25.0011 1.44902C25.2665 0.877658 25.6203 0.376981 26.1334 0H27.7023H27.7082ZM31.0168 8.68823C29.0646 8.7648 27.8143 8.13453 27.2186 6.42045C26.9768 5.73128 26.676 6.22607 26.5581 6.55593C26.0863 7.9107 25.1662 8.6411 23.7154 8.68823C23.5325 8.69412 23.2789 8.65288 23.2023 8.87672C23.102 9.14178 23.3379 9.30671 23.5089 9.4363C24.7357 10.3434 24.9362 11.5391 24.5528 12.9234C24.5116 13.0765 24.4585 13.2414 24.6531 13.4064C24.7416 13.3828 24.8831 13.3769 24.9834 13.3121C26.2396 12.4521 27.4781 12.3284 28.7933 13.2414C29.3595 13.6361 29.4834 13.2238 29.3477 12.7408C28.9585 11.3624 29.2888 10.2315 30.4388 9.34794C30.5863 9.23603 30.6924 9.05932 31.0168 8.68823Z" fill="#FFB400"/>
<path d="M48.9043 0C49.9364 0.624374 50.3434 1.72586 50.6854 2.74489C51.3342 4.67102 52.6022 5.44855 54.5426 5.44266C55.156 5.44266 55.7811 5.56046 56.3827 5.68416C57.9751 6.00813 58.5354 7.6103 57.4443 8.81781C56.6127 9.7367 55.7045 10.5908 54.8021 11.4449C54.3539 11.869 54.2064 12.3167 54.3421 12.9351C54.5898 14.0838 54.7431 15.25 54.9554 16.4104C55.1029 17.1938 54.8906 17.8359 54.2654 18.3307C53.6638 18.8078 52.9915 18.8137 52.325 18.4897C51.3283 18.0008 50.3198 17.5237 49.3702 16.9523C48.5799 16.4811 47.9194 16.4517 47.1232 16.9641C46.2503 17.5296 45.2949 17.9773 44.3512 18.4308C42.7294 19.2142 41.42 18.3366 41.5793 16.54C41.6796 15.4032 41.9037 14.2781 42.116 13.1531C42.2457 12.4521 42.1219 11.8984 41.5675 11.3978C40.7418 10.6556 39.9751 9.84862 39.173 9.07699C38.595 8.51741 38.2706 7.86358 38.5124 7.05072C38.766 6.18484 39.462 5.83731 40.2759 5.70183C41.308 5.53101 42.3401 5.3543 43.3781 5.27184C44.1802 5.20705 44.7051 4.90664 45.0236 4.13501C45.4069 3.19844 45.8965 2.30901 46.327 1.39012C46.5983 0.812864 46.964 0.329858 47.5301 0.0117806H48.9043V0ZM52.1599 8.81781C50.0249 8.84137 48.8571 7.78112 48.3204 5.86087C48.1376 6.06114 48.0432 6.12004 48.0138 6.20251C47.483 7.7281 46.5452 8.65288 44.8113 8.73535C43.9089 8.77658 44.6048 9.29493 44.8113 9.45986C45.8493 10.3198 46.2975 11.333 45.867 12.6642C45.8021 12.8704 45.7431 13.1531 45.9377 13.3121C46.1501 13.4829 46.386 13.3121 46.5629 13.1825C47.7602 12.3167 48.9279 12.4463 50.1016 13.2356C50.2608 13.3416 50.4436 13.5595 50.8152 13.3357C49.9482 11.5332 50.5852 10.0842 52.1599 8.81192V8.81781Z" fill="#FFB400"/>
<path d="M43.3856 48.8019C43.3856 46.97 43.4033 45.1382 43.3738 43.3063C43.362 42.5641 43.6333 42.2283 44.3941 42.2342C47.6379 42.2519 46.9478 41.9868 46.995 44.7141C47.0363 47.135 47.0009 47.135 49.4544 47.135C51.9078 47.135 51.9432 47.135 51.9786 44.5845C52.014 42.0281 51.4301 42.2696 54.4144 42.2283C55.2991 42.2166 55.6175 42.5405 55.6057 43.4358C55.5704 46.9995 55.5704 50.569 55.6057 54.1327C55.6116 54.9809 55.3286 55.2695 54.4675 55.2695C51.9668 55.2577 51.9786 55.2931 51.9668 52.7897C51.955 50.7045 52.2499 50.8636 50.0088 50.8577C49.2892 50.8577 48.5697 50.8753 47.8502 50.8577C47.2191 50.84 46.9773 51.1168 46.995 51.7471C47.0245 52.6601 46.9891 53.579 46.995 54.492C47.0009 55.0339 46.765 55.2577 46.2283 55.2518C42.8194 55.2106 43.4327 55.7172 43.3738 52.6306C43.3502 51.3524 43.3738 50.0801 43.3738 48.8019H43.3856Z" fill="#0E2B72"/>
</svg>
