<svg width="100" height="99" viewBox="0 0 100 99" fill="none" xmlns="http://www.w3.org/2000/svg">
<path d="M0.0126998 38.0306C0.0444184 38.0877 0.0825024 38.1448 0.114221 38.1955C0.184002 38.2018 0.183999 38.1511 0.190342 38.113C0.463122 37.0409 1.26875 36.4002 2.38524 36.3939C5.51269 36.3939 8.64652 36.3939 11.774 36.3939C12.4401 36.3939 12.3575 36.4764 12.5859 35.842C12.9665 34.7826 13.4297 33.7612 13.9118 32.7526C14.0133 32.5369 13.9943 32.3847 13.823 32.2134C11.7676 30.1644 9.7122 28.109 7.66318 26.0473C7.35234 25.7364 7.04154 25.4256 6.75607 25.0957C6.07729 24.3218 6.08363 23.199 6.74972 22.4123C7.14303 21.9492 7.59344 21.5496 8.02481 21.1182C12.2688 16.8743 16.5127 12.6303 20.7566 8.38639C21.2578 7.88524 21.7336 7.36505 22.2347 6.8639C23.1609 5.93137 24.4487 5.88697 25.3876 6.81315C27.6967 9.10323 30.0185 11.3806 32.2705 13.7341C32.4291 13.8991 32.5686 13.9371 32.7716 13.8483C33.9135 13.3472 35.049 12.846 36.2226 12.4273C36.4763 12.3385 36.4764 12.1546 36.4764 11.9452C36.4764 8.81776 36.4764 5.68397 36.4764 2.55652C36.4764 2.29642 36.4827 2.04268 36.5334 1.78893C36.7047 0.856402 37.4026 0.17128 38.3414 0.0570935C38.665 0.0190312 38.9884 0 39.312 0C46.0744 0 52.8431 0 59.6055 0C60.0179 0 60.4429 -7.08965e-08 60.8426 0.0761245C61.9274 0.279123 62.6124 1.1609 62.6188 2.33449C62.6251 4.9481 62.6188 7.56171 62.6188 10.1753C62.6188 10.7716 62.6315 11.3616 62.6188 11.9579C62.6188 12.1926 62.6886 12.3322 62.9106 12.4146C64.0525 12.846 65.188 13.3028 66.2855 13.8356C66.5646 13.9689 66.7232 13.8356 66.9008 13.658C69.1211 11.4187 71.3858 9.22376 73.5617 6.94637C73.8281 6.66724 74.12 6.42618 74.4943 6.29931C75.4014 5.98847 76.2007 6.18512 76.8732 6.85755C80.4256 10.4164 83.9717 13.9752 87.5242 17.5277C89.0404 19.0438 90.5565 20.56 92.0727 22.0698C92.5294 22.5265 92.8466 23.0594 92.8529 23.7318C92.8529 24.233 92.6943 24.677 92.3772 25.064C92.079 25.4319 91.7174 25.7301 91.3812 26.0663C89.3576 28.09 87.3339 30.1136 85.3103 32.1309C85.1263 32.3149 85.0692 32.4798 85.1834 32.7209C85.7099 33.8374 86.1794 34.9792 86.6107 36.1338C86.6996 36.3685 86.8581 36.3812 87.0611 36.3812C88.4885 36.3812 89.9094 36.3812 91.3368 36.3812C93.1194 36.3812 94.902 36.3812 96.6846 36.3812C98.0104 36.3812 98.8605 37.1869 98.9873 38.5127C99.0191 38.8806 99.0317 39.2486 99.0317 39.6228C99.0317 46.2647 99.0317 52.9066 99.0317 59.5484C99.0317 59.9862 99.0254 60.4239 98.9239 60.8552C98.6955 61.8258 97.8264 62.5363 96.8305 62.5363C93.6142 62.5427 90.3916 62.549 87.169 62.5363C86.8582 62.5363 86.6932 62.6125 86.5726 62.9233C86.1413 64.0081 85.6782 65.0802 85.2025 66.1396C85.0819 66.4187 85.1263 66.5836 85.3293 66.7866C87.5242 68.9689 89.7128 71.1638 91.9014 73.3524C92.1234 73.5744 92.3391 73.8028 92.5167 74.0629C92.9925 74.7734 92.9798 75.7186 92.4596 76.3973C92.3074 76.6003 92.1235 76.7907 91.9395 76.9683C86.9724 81.9354 82.0052 86.8962 77.0381 91.8633C76.575 92.3201 76.0801 92.7134 75.395 92.7641C74.6147 92.8212 74.0121 92.4723 73.4983 91.9204C71.5444 89.846 69.4827 87.8795 67.4844 85.8495C67.2561 85.6148 67.015 85.3991 66.7993 85.158C66.6471 84.9867 66.5012 84.9804 66.2982 85.0755C65.2134 85.5957 64.1096 86.0588 62.9804 86.4648C62.7013 86.5663 62.6062 86.7059 62.6062 87.004C62.6188 90.1315 62.6061 93.2653 62.6188 96.3927C62.6188 97.3316 62.327 98.1055 61.4897 98.613C61.2486 98.7589 60.9758 98.8224 60.6967 98.8985C60.7538 98.9366 60.7982 98.9683 60.8426 99H38.0243C38.1321 98.9683 38.2399 98.9302 38.3668 98.8922C36.9965 98.5179 36.4637 97.8264 36.4637 96.4118C36.4637 93.2843 36.4637 90.1569 36.4764 87.0231C36.4764 86.6995 36.3748 86.5409 36.0703 86.4394C35.1695 86.1286 34.2942 85.748 33.4187 85.3674C32.3213 84.8979 32.6829 84.771 31.763 85.6845C29.7077 87.7209 27.6776 89.7826 25.635 91.8316C25.4764 91.9902 25.3114 92.1424 25.1338 92.282C24.3218 92.9418 23.2878 92.9354 22.4822 92.263C22.3045 92.1107 22.1332 91.9521 21.9619 91.7809C20.801 90.6263 19.6465 89.4654 18.4919 88.3045C14.7492 84.5617 11.0064 80.8189 7.2636 77.0761C7.07329 76.8858 6.88925 76.6892 6.71797 76.4798C6.09629 75.7122 6.0773 74.7163 6.67995 73.936C6.8766 73.6822 7.105 73.4475 7.33972 73.2191C9.46486 71.094 11.5836 68.9625 13.7215 66.8501C13.9815 66.59 14.0259 66.3743 13.8546 66.0571C13.3281 65.0675 12.9412 64.0144 12.5669 62.955C12.4527 62.6251 12.2942 62.511 11.9389 62.5173C8.72265 62.5363 5.49998 62.53 2.28372 62.53C1.26238 62.53 0.399666 61.8195 0.171293 60.8299C0.145918 60.7284 0.190311 60.5571 0 60.5571C0 53.0398 0 45.5225 0 38.0115L0.0126998 38.0306ZM94.6356 49.481C94.6356 46.7215 94.6356 43.9619 94.6356 41.2024C94.6356 40.7457 94.6356 40.7457 94.1725 40.7457C91.2353 40.7457 88.2918 40.7457 85.3547 40.7457C84.1557 40.7457 83.3564 40.1176 82.9885 38.9821C82.3415 37.0092 81.5992 35.0744 80.6096 33.2411C79.9943 32.0992 80.1148 31.2364 81.0282 30.323C83.109 28.2486 85.1898 26.1678 87.2642 24.0934C87.6004 23.7636 87.594 23.7636 87.2642 23.4273C83.4135 19.5513 79.5122 15.7261 75.6932 11.8247C75.2872 11.4123 75.2872 11.4123 74.8685 11.831C72.8259 13.88 70.7768 15.9291 68.7341 17.9781C68.4233 18.2889 68.0871 18.5617 67.6557 18.7013C67.034 18.9043 66.4631 18.7774 65.9112 18.4856C64.4141 17.6863 62.8725 16.9948 61.2739 16.4302C60.6839 16.2209 60.0687 16.0813 59.4977 15.8085C58.7238 15.4343 58.3431 14.8062 58.2924 13.9689C58.2734 13.7024 58.286 13.4296 58.286 13.1632C58.286 10.3783 58.286 7.59977 58.286 4.81488C58.286 4.49769 58.1972 4.38985 57.8673 4.38985C52.3293 4.40254 46.7849 4.40254 41.2468 4.38985C40.8979 4.38985 40.8154 4.49769 40.8154 4.83391C40.8281 7.80911 40.8218 10.778 40.8154 13.7532C40.8154 14.7935 40.2953 15.5484 39.3183 15.9227C38.9948 16.0496 38.665 16.1574 38.3351 16.2653C36.6286 16.8299 34.9729 17.5277 33.3933 18.3841C32.169 19.0438 31.3126 18.936 30.3357 17.9527C28.274 15.891 26.2185 13.823 24.1568 11.7612C23.8396 11.4441 23.8334 11.4377 23.5162 11.7612C19.6021 15.669 15.6944 19.583 11.7803 23.4844C11.571 23.6938 11.5329 23.808 11.774 24.0427C13.9181 26.1678 16.0496 28.3057 18.1748 30.4435C18.9106 31.1857 19.0629 32.0548 18.6251 33.0063C18.5617 33.1396 18.4983 33.2664 18.4349 33.3997C17.5087 35.2457 16.6459 37.1107 16.0623 39.1027C15.7325 40.2318 14.9585 40.7584 13.7849 40.7584C10.9048 40.7584 8.01844 40.7584 5.13839 40.7584C4.38983 40.7584 4.466 40.6759 4.466 41.4181C4.466 46.8674 4.466 52.323 4.466 57.7722C4.466 58.2163 4.46597 58.2226 4.91003 58.2226C7.92964 58.2226 10.9429 58.2163 13.9625 58.2226C14.876 58.2226 15.5358 58.6667 15.9354 59.4913C16.1257 59.891 16.2082 60.3224 16.3478 60.7347C16.925 62.4983 17.699 64.173 18.5554 65.816C19.1136 66.8881 18.9677 67.7128 18.1367 68.5755C17.5403 69.1845 16.9377 69.7872 16.3287 70.3898C14.8062 71.9123 13.2838 73.4348 11.7549 74.951C11.5773 75.1223 11.5392 75.2301 11.7295 75.4394C12.1482 75.8962 12.605 76.3085 13.0364 76.7462C16.5317 80.229 20.0208 83.718 23.5162 87.207C23.7319 87.4227 23.9475 87.4227 24.1632 87.207C25.0513 86.3189 25.9395 85.4308 26.8276 84.5427C28.0583 83.312 29.2826 82.0813 30.5132 80.8506C31.2301 80.1401 32.1944 79.9562 33.0127 80.3939C34.9222 81.4216 36.9141 82.2589 38.9822 82.925C40.3144 83.3564 40.8154 84.0732 40.8154 85.4689C40.8154 88.3616 40.8154 91.2543 40.8154 94.1534C40.8154 94.4642 40.8852 94.5848 41.2214 94.5848C46.7532 94.5784 52.2785 94.5784 57.8103 94.5784C58.2797 94.5784 58.2797 94.5784 58.2797 94.1217C58.2797 91.1972 58.2797 88.2664 58.2797 85.342C58.2797 84.0352 58.7936 83.3056 60.0496 82.9314C62.0352 82.3351 63.932 81.5421 65.7526 80.5588C66.9579 79.9054 67.7889 80.0577 68.7532 81.0219C70.8403 83.109 72.9273 85.1897 75.0081 87.2832C75.2238 87.4988 75.3379 87.4798 75.5409 87.2832C79.474 83.3437 83.4072 79.4106 87.3466 75.4839C87.5623 75.2682 87.5433 75.154 87.3403 74.9446C85.2215 72.8449 83.1154 70.7324 81.0093 68.62C80.1592 67.7699 80.0132 66.9198 80.5398 65.8351C80.8823 65.1309 81.2439 64.4331 81.5738 63.7226C82.1638 62.4348 82.6078 61.0963 83.0773 59.7641C83.4515 58.6984 84.1811 58.2226 85.3039 58.2226C88.2664 58.2226 91.2289 58.2226 94.1851 58.2226C94.6355 58.2226 94.6356 58.2226 94.6356 57.7785C94.6356 55.019 94.6356 52.2595 94.6356 49.5V49.481Z" fill="#0E2B72"/>
<path d="M26.3135 38.3349C26.3135 35.3724 26.3262 32.4099 26.3072 29.4537C26.3009 28.3119 26.7386 27.5252 27.7853 27.0114C31.2744 25.2922 34.9156 24.0362 38.6901 23.1354C40.6123 22.6786 42.5535 22.3551 44.5201 22.1585C46.9878 21.911 49.4681 21.8286 51.9422 21.9555C56.4652 22.1902 60.8805 23.0339 65.1751 24.4739C67.2622 25.1717 69.2922 26.0154 71.2714 26.9606C72.3245 27.4618 72.7876 28.2928 72.7812 29.4347C72.7749 32.6065 72.7812 35.7847 72.7812 38.9566C72.7812 41.6273 72.813 44.298 72.7686 46.9624C72.6988 51.5172 71.4935 55.7611 69.2542 59.7259C68.4422 61.166 67.4525 62.4854 66.4502 63.7922C63.5638 67.5541 60.0938 70.6942 56.2178 73.3966C54.5114 74.5829 52.7288 75.6423 50.8954 76.6129C49.9693 77.1014 49.1255 77.0823 48.193 76.5812C45.9029 75.3632 43.689 74.012 41.5893 72.4958C39.9145 71.2905 38.3793 69.9076 36.8885 68.4739C34.6936 66.3615 32.7207 64.065 30.9952 61.5466C29.0858 58.7553 27.7409 55.7294 26.9797 52.437C26.5229 50.4831 26.3135 48.5102 26.3135 46.5056C26.3135 43.7778 26.3135 41.0564 26.3135 38.3286V38.3349ZM68.4485 39.2611C68.4485 36.4255 68.4485 33.5835 68.4485 30.7478C68.4485 30.4877 68.3787 30.3418 68.1313 30.234C66.4756 29.4791 64.7628 28.8764 63.0373 28.3182C58.9202 26.9924 54.6827 26.4087 50.3753 26.2755C48.5546 26.2184 46.7403 26.339 44.9387 26.4976C42.4456 26.7196 39.9906 27.1954 37.58 27.8615C35.3724 28.4768 33.2155 29.219 31.1411 30.2023C30.7732 30.3736 30.6527 30.5575 30.6527 30.9508C30.6654 36.1654 30.659 41.3799 30.6527 46.5944C30.6527 47.5841 30.7225 48.561 30.862 49.5443C31.3251 52.8113 32.4289 55.8499 34.2179 58.6221C36.5968 62.3015 39.5973 65.4162 43.0102 68.144C44.9451 69.6856 47.0195 71.0114 49.1954 72.1913C49.4745 72.3436 49.6965 72.3563 49.9756 72.204C53.2807 70.3961 56.294 68.1948 59.0218 65.6002C61.1025 63.621 62.9676 61.4641 64.5852 59.0916C67.091 55.4185 68.366 51.3649 68.4422 46.937C68.4866 44.3805 68.4485 41.824 68.4485 39.2675V39.2611Z" fill="#0E2B72"/>
<path d="M46.8038 55.4195C46.1441 55.4703 45.6049 55.1277 45.1418 54.6392C43.429 52.8376 41.6273 51.1121 39.8828 49.3359C39.5529 48.9997 39.1977 48.6888 38.9122 48.3082C38.2144 47.382 38.3159 46.164 39.1596 45.4282C40.035 44.6606 41.3038 44.6669 42.1158 45.4726C43.6129 46.957 45.1037 48.4478 46.5818 49.9449C46.8038 50.1669 46.9244 50.1606 47.1337 49.9449C51.0922 45.9737 55.057 42.0153 59.0155 38.0441C59.542 37.5176 60.1002 37.0989 60.8868 37.1306C61.7179 37.1687 62.3523 37.5683 62.7329 38.2915C63.1262 39.0274 63.0881 39.7886 62.625 40.4928C62.4728 40.7275 62.2825 40.9368 62.0795 41.1335C58.1971 44.8763 54.4416 48.7459 50.61 52.5458C49.8678 53.2817 49.1447 54.0303 48.4088 54.7661C47.933 55.2419 47.5016 55.4195 46.7911 55.4132L46.8038 55.4195Z" fill="#FFB400"/>
</svg>
