<svg width="96" height="110" viewBox="0 0 96 110" fill="none" xmlns="http://www.w3.org/2000/svg">
<path d="M95.2674 63.2743C94.2522 67.6095 92.8966 71.8252 90.7706 75.7663C84.2614 87.7985 74.193 94.8924 60.7029 96.7256C52.0319 97.9019 43.4385 97.1854 35.3349 93.316C24.9261 88.3419 18.1661 80.197 14.3203 69.4606C13.6634 67.6334 13.1438 65.7703 12.7616 63.8714C12.4033 62.092 12.7616 61.471 14.4516 60.832C16.7209 59.9722 18.9842 59.0824 21.2714 58.2763C22.0776 57.9897 22.4239 57.5896 22.4 56.7118C22.3463 54.8547 22.3702 52.9917 22.3881 51.1286C22.3941 50.3763 22.191 50.0896 21.3789 50.3643C20.0711 50.8062 18.7931 50.6688 17.5211 50.0837C10.0146 46.6143 4.3355 41.2521 0.567324 33.8835C0.173188 33.1192 0 32.3429 0 31.483C0.0179153 24.3055 0.0059743 17.134 0.0119461 9.95644C0.0119461 7.52611 0.80022 6.91107 3.15906 7.32906C9.04721 8.38001 13.7589 6.45725 17.2405 1.5966C18.7692 -0.53516 20.9191 -0.541131 22.3702 1.63243C25.4397 6.23034 30.868 8.42181 36.374 7.28726C38.7627 6.79164 39.527 7.41266 39.533 9.85493C39.533 12.0165 39.5569 14.1841 39.5211 16.3457C39.5091 17.134 39.7838 17.4385 40.5781 17.4086C41.6769 17.3609 42.7876 17.331 43.8804 17.4146C45.0151 17.5042 45.3973 17.1399 45.3793 15.9636C45.3137 11.6762 45.3495 7.3828 45.3555 3.0954C45.3555 0.653132 45.9168 0.0977997 48.3831 0.0977997C52.2528 0.0977997 56.1285 0.0918284 59.9982 0.0977997C61.8853 0.0977997 62.5302 0.748673 62.5302 2.63561C62.5362 7.11409 62.566 11.5985 62.5123 16.077C62.5004 17.1399 62.8467 17.4325 63.8798 17.4206C67.8272 17.3668 71.7745 17.3967 75.7218 17.4027C77.6328 17.4027 78.2538 18.0177 78.2538 19.9166C78.2598 25.7625 78.2837 31.6084 78.2359 37.4543C78.224 38.559 78.5703 38.9412 79.6632 38.8636C80.7978 38.7859 81.9384 38.8277 83.079 38.8516C84.7033 38.8874 85.4498 39.5921 85.4916 41.2282C85.5394 43.1987 85.5095 45.1752 85.5095 47.1517C85.5095 50.227 85.5454 53.3022 85.4916 56.3774C85.4737 57.3567 85.7723 57.8882 86.7278 58.2285C88.9791 59.0287 91.1827 59.9542 93.4221 60.7962C94.2402 61.1067 94.9031 61.5486 95.2853 62.3547V63.2683L95.2674 63.2743ZM54.2952 93.304C57.502 93.4772 61.0552 93.1547 64.5128 92.1993C78.4211 88.3538 86.8651 79.1162 90.8423 65.4538C91.1946 64.2536 90.8303 63.8177 89.7375 63.3997C79.072 59.3093 68.3885 55.2608 57.8066 50.9674C55.0237 49.8388 52.7127 49.8627 49.9477 50.9853C39.2941 55.3026 28.539 59.381 17.8197 63.537C17.133 63.8057 16.6074 64.0088 16.8702 64.9821C19.1634 73.3539 23.3496 80.5194 30.3067 85.8578C37.2578 91.1902 45.1823 93.5787 54.3011 93.304H54.2952ZM35.7648 22.0364C35.7648 18.9612 35.7111 15.886 35.7887 12.8167C35.8186 11.6344 35.4304 11.3239 34.2898 11.3776C28.6405 11.6284 24.0184 9.47873 20.3637 5.20924C19.9695 4.74348 19.7366 4.58226 19.247 5.1555C15.5325 9.49665 10.8029 11.5866 5.08793 11.3597C4.01302 11.3179 3.73235 11.6583 3.73832 12.7032C3.78012 18.7761 3.76818 24.8489 3.74429 30.9217C3.74429 31.7219 3.97719 32.3966 4.35341 33.0714C7.64982 38.989 12.3317 43.4256 18.4348 46.3755C19.3306 46.8114 20.1069 46.8651 21.0206 46.4292C27.3327 43.4197 32.0982 38.8098 35.4364 32.6833C35.723 32.1578 35.7648 31.6084 35.7589 31.0352C35.7589 28.0376 35.7589 25.04 35.7589 22.0424L35.7648 22.0364ZM55.173 38.8516C61.1687 38.8516 67.1643 38.8337 73.1659 38.8695C74.1154 38.8695 74.5215 38.6486 74.5096 37.6036C74.4618 32.5161 74.4737 27.4285 74.5036 22.3409C74.5036 21.4632 74.2348 21.1407 73.3331 21.1407C62.4406 21.1646 51.5482 21.1646 40.6557 21.1407C39.7181 21.1407 39.5031 21.5229 39.5211 22.3708C39.5629 24.419 39.3598 26.491 39.5748 28.5153C39.945 32.0264 38.8701 35.0001 36.7681 37.7111C36.5531 37.9858 36.1112 38.2963 36.356 38.6785C36.571 39.0188 37.0607 38.8456 37.425 38.8456C43.343 38.8516 49.267 38.8456 55.185 38.8456L55.173 38.8516ZM57.2273 42.6136C49.4461 42.6136 41.6649 42.6136 33.8837 42.6136C33.2209 42.6136 32.6476 42.6733 32.134 43.2047C30.5694 44.817 28.7958 46.1904 26.8968 47.3906C26.3175 47.7549 26.0846 48.1967 26.0966 48.8834C26.1324 50.854 26.1085 52.8305 26.1085 54.807C26.1085 56.2879 26.1264 56.2998 27.476 55.7803C35.4364 52.6931 43.4027 49.6298 51.3392 46.4949C53.1068 45.7963 54.7251 45.7843 56.4987 46.4889C64.471 49.6418 72.4732 52.717 80.4694 55.8161C81.6995 56.2938 81.7354 56.2699 81.7413 54.9383C81.7413 51.2958 81.6995 47.6474 81.7652 44.0049C81.7831 42.8882 81.4189 42.6016 80.338 42.6076C72.6344 42.6494 64.9309 42.6315 57.2213 42.6315L57.2273 42.6136ZM58.7441 10.6431C58.7441 8.74426 58.7202 6.85135 58.7561 4.95845C58.768 4.21203 58.571 3.84778 57.7409 3.85973C55.2029 3.89556 52.6589 3.88958 50.1209 3.85973C49.4163 3.85376 49.0878 4.05678 49.0878 4.82708C49.1117 8.69649 49.1117 12.5599 49.0878 16.4293C49.0878 17.1817 49.3804 17.4206 50.103 17.4086C52.641 17.3848 55.185 17.3728 57.723 17.4086C58.5351 17.4206 58.774 17.0922 58.7561 16.3278C58.7202 14.4349 58.7441 12.536 58.7441 10.6431Z" fill="#0E2B72"/>
<path d="M24.1919 109.988C20.597 109.236 17.7305 107.444 15.9211 104.148C15.1806 102.793 14.7984 101.336 14.6013 99.8189C14.5118 99.1382 14.7208 98.6903 15.509 98.75C15.5867 98.75 15.6583 98.75 15.736 98.75C17.2528 98.7063 18.2063 99.4109 18.5964 100.864C19.4802 104.13 22.5378 106.357 26.0253 106.28C29.3635 106.202 32.3076 103.754 33.0182 100.47C33.265 99.3273 33.9896 98.754 35.1919 98.75C36.7087 98.75 37.6682 99.4507 38.0703 100.852C39.0557 104.297 42.2565 106.537 45.8216 106.268C49.2733 106.011 52.1159 103.324 52.5876 99.801C52.6892 99.0546 52.94 98.6963 53.7163 98.75C54.5464 98.8038 55.472 98.5888 56.1886 98.8874C56.9769 99.2218 56.6723 100.297 56.9052 101.031C57.9204 104.274 60.9899 106.429 64.4654 106.28C67.7559 106.137 70.6044 103.694 71.2971 100.416C71.532 99.3094 72.1969 98.756 73.2917 98.756C73.4052 98.756 73.5186 98.756 73.6321 98.756C75.0653 98.756 75.965 99.4268 76.3313 100.768C77.2629 104.202 80.4936 106.513 84.0289 106.274C87.5343 106.035 90.4366 103.3 90.8606 99.7473C90.9561 98.9292 91.2846 98.6485 92.0729 98.6127C94.7661 98.4873 95.0528 98.756 94.3959 101.342C93.303 105.641 90.5978 108.412 86.3221 109.642C85.8861 109.767 85.4442 109.881 85.0083 110H82.0463C78.7618 109.325 76.0268 107.803 74.1516 104.936C73.8948 104.542 73.6978 104.477 73.4171 104.906C71.5181 107.809 68.7532 109.349 65.415 109.994H62.6799C59.5806 109.373 56.9052 108.029 55.0181 105.39C54.7554 105.02 54.5643 104.948 54.2657 105.36C52.3547 108.029 49.6675 109.409 46.5024 109.988H43.7674C40.4889 109.307 37.7419 107.791 35.8667 104.918C35.604 104.518 35.4009 104.483 35.1322 104.906C33.3048 107.767 30.5817 109.254 27.3629 109.988H24.174H24.1919Z" fill="#FFB400"/>
<path d="M52.4178 81.3379H56.2695V57.4526H52.4178V81.3379Z" fill="#FFB400"/>
<path d="M43.8242 77.5114L46.2368 74.5078L54.3405 81.0165L62.4441 74.5078L64.8567 77.5114L57.4159 83.4887L54.3405 85.9608L51.265 83.4887L43.8242 77.5114Z" fill="#FFB400"/>
</svg>
