<svg width="150" height="150" viewBox="0 0 150 150" fill="none" xmlns="http://www.w3.org/2000/svg">
<path d="M36.9344 31.2908C35.9744 31.4808 35.0644 31.8908 34.2644 32.5108C32.6744 33.7408 31.7344 35.6408 31.7344 37.6508V122.881C31.7344 124.071 32.7144 125.041 33.8944 125.041C35.0744 125.041 36.0544 124.061 36.0544 122.881V37.6508C36.0544 36.9808 36.3644 36.3508 36.8944 35.9408C37.4244 35.5308 38.1144 35.3908 38.7644 35.5608C47.4444 37.8408 64.1844 42.2508 71.2044 44.1008C72.1644 44.3508 72.8144 45.2008 72.8144 46.2008V112.151C72.8144 113.341 73.7944 114.311 74.9744 114.311C76.1544 114.311 77.1344 113.331 77.1344 112.151V46.1908C77.1344 43.2508 75.1344 40.6608 72.2944 39.9108C65.2744 38.0608 48.5344 33.6608 39.8544 31.3708C38.8844 31.1108 37.8744 31.0908 36.9144 31.2908H36.9344Z" fill="#0E2B72"/>
<path d="M74.9959 68.8108C73.8059 68.8108 72.8359 69.7908 72.8359 70.9708C72.8359 72.1508 73.8159 73.1308 74.9959 73.1308H111.766C112.986 73.1308 113.926 74.0708 113.926 75.2908V112.141C113.926 113.331 114.906 114.301 116.086 114.301C117.266 114.301 118.246 113.321 118.246 112.141V75.2908C118.246 71.7308 115.316 68.8008 111.756 68.8008H74.9859L74.9959 68.8108Z" fill="#0E2B72"/>
<path d="M98.785 77.4609C97.595 77.4609 96.625 78.4409 96.625 79.6209C96.625 80.8009 97.605 81.7809 98.785 81.7809H105.275V90.4309C105.275 91.6209 106.255 92.5909 107.435 92.5909C108.615 92.5909 109.595 91.6109 109.595 90.4309V79.6209C109.595 78.4309 108.615 77.4609 107.435 77.4609H98.785Z" fill="#0E2B72"/>
<path d="M40.3787 68.8125C39.1887 68.8125 38.2188 69.7925 38.2188 70.9725V79.6225C38.2188 80.8125 39.1987 81.7825 40.3787 81.7825H47.9487C49.1388 81.7825 50.1087 80.8025 50.1087 79.6225C50.1087 78.4425 49.1287 77.4625 47.9487 77.4625H42.5387V70.9725C42.5387 69.7825 41.5587 68.8125 40.3787 68.8125Z" fill="#0E2B72"/>
<path d="M40.3787 89.3594C39.1887 89.3594 38.2188 90.3394 38.2188 91.5194V99.0894C38.2188 100.279 39.1987 101.249 40.3787 101.249H47.9487C49.1388 101.249 50.1087 100.269 50.1087 99.0894C50.1087 97.9094 49.1287 96.9294 47.9487 96.9294H42.5387V91.5194C42.5387 90.3294 41.5587 89.3594 40.3787 89.3594Z" fill="#0E2B72"/>
<path d="M79.416 24.9514C79.266 24.9514 79.126 24.9714 78.986 25.0114C78.986 25.0114 74.756 26.2414 70.536 29.3314C66.326 32.4114 61.956 37.5314 61.936 45.0414C61.926 45.1714 61.596 48.6214 62.876 52.2614C63.526 54.1114 64.626 56.0514 66.466 57.5214C68.306 58.9914 70.846 59.9414 74.106 59.9414C80.436 59.9414 84.886 57.3314 86.836 53.0814C88.786 48.8414 88.346 43.3614 86.196 37.4814C85.976 36.8714 85.386 36.4614 84.736 36.4614C83.886 36.4614 83.186 37.1614 83.176 38.0014C83.176 38.0014 83.146 39.4014 82.616 40.6514C82.356 41.2814 81.986 41.8114 81.536 42.1614C81.076 42.5114 80.526 42.7314 79.526 42.6614C78.716 42.6014 78.096 42.2214 77.526 41.3814C76.956 40.5414 76.536 39.2514 76.446 37.7114C76.276 34.6414 77.446 30.7014 80.526 27.5914C80.816 27.3014 80.976 26.9114 80.976 26.5014C80.976 25.6514 80.276 24.9414 79.416 24.9414V24.9514ZM74.946 30.3714C73.766 32.9014 73.206 35.5214 73.336 37.8914C73.446 39.8814 73.966 41.7014 74.946 43.1514C75.926 44.5914 77.476 45.6614 79.306 45.7814C80.946 45.8914 82.376 45.4414 83.406 44.6614C83.866 44.3114 84.016 43.8414 84.336 43.4114C84.896 46.6914 84.966 49.6914 84.006 51.8014C82.576 54.9214 79.646 56.8414 74.106 56.8414C71.426 56.8414 69.676 56.1214 68.406 55.1114C67.136 54.1014 66.316 52.7114 65.806 51.2414C64.766 48.3114 65.026 45.2614 65.026 45.2614C65.026 45.2114 65.026 45.1614 65.026 45.1114C65.026 38.7514 68.616 34.5914 72.356 31.8514C73.296 31.1614 74.056 30.8614 74.936 30.3714H74.946Z" fill="#FFB200"/>
</svg>
