<svg width="15" height="15" viewBox="0 0 15 15" fill="none" xmlns="http://www.w3.org/2000/svg">
<path d="M8.52279 4.61763C8.52279 4.96723 8.23938 5.25063 7.88978 5.25063C7.54018 5.25063 7.25678 4.96723 7.25678 4.61763C7.25678 4.26803 7.54018 3.98463 7.88978 3.98463C8.23938 3.98463 8.52279 4.26803 8.52279 4.61763Z" fill="currentColor"/>
<path d="M6.62378 6.99139C6.62378 6.72919 6.83633 6.51663 7.09853 6.51663H8.04803C8.31023 6.51663 8.52279 6.72919 8.52279 6.99139V9.68165H8.99754C9.25973 9.68165 9.47229 9.8942 9.47229 10.1564C9.47229 10.4186 9.25973 10.6311 8.99754 10.6311H7.09853C6.83633 10.6311 6.62378 10.4186 6.62378 10.1564C6.62378 9.8942 6.83633 9.68165 7.09853 9.68165H7.57328V7.46614H7.09853C6.83633 7.46614 6.62378 7.25358 6.62378 6.99139Z" fill="currentColor"/>
<path fill-rule="evenodd" clip-rule="evenodd" d="M7.88978 0.503113C4.04421 0.503113 0.926758 3.62056 0.926758 7.46614C0.926758 11.3117 4.04421 14.4292 7.88978 14.4292C11.7354 14.4292 14.8528 11.3117 14.8528 7.46614C14.8528 3.62056 11.7354 0.503113 7.88978 0.503113ZM1.87626 7.46614C1.87626 4.14496 4.56861 1.45262 7.88978 1.45262C11.211 1.45262 13.9033 4.14496 13.9033 7.46614C13.9033 10.7873 11.211 13.4797 7.88978 13.4797C4.56861 13.4797 1.87626 10.7873 1.87626 7.46614Z" fill="currentColor"/>
</svg>
