<svg width="85" height="88" viewBox="0 0 85 88" fill="none" xmlns="http://www.w3.org/2000/svg">
<path d="M3.72196 87.8884C2.129 86.0374 1.43921 83.7645 0.779198 81.4917C0.218435 79.5613 -0.00488174 77.5763 8.07695e-05 75.5516C0.0248933 69.1102 0.0199405 62.6739 0.0100155 56.2325C0.00505297 52.6099 1.29531 49.5282 3.82618 46.9725C8.03935 42.7246 12.2724 38.4916 16.5302 34.2883C17.2299 33.5986 17.5425 32.9137 17.5376 31.9113C17.4979 23.9514 17.5128 15.9965 17.5177 8.03669C17.5177 3.40667 20.5895 0.339844 25.2344 0.339844C36.6531 0.339844 48.0768 0.339844 59.4956 0.339844C64.1405 0.339844 67.2123 3.40171 67.2123 8.03669C67.2123 26.2937 67.2123 44.5508 67.2123 62.8029C67.2123 67.3684 64.1157 70.4452 59.5303 70.4501C54.7316 70.4551 49.9328 70.47 45.1341 70.4352C44.2756 70.4303 43.8488 70.5643 43.7694 71.5766C43.4617 75.5069 42.1119 79.0799 39.8043 82.2857C39.581 82.5983 39.5016 82.9358 39.5066 83.3129C39.5165 84.1615 39.4719 85.0151 39.5215 85.8637C39.5711 86.6825 39.3577 87.3574 38.7176 87.8834H37.2586C36.6184 87.3574 36.3703 86.6775 36.4646 85.8637C36.4695 85.8041 36.4695 85.7396 36.4646 85.6801C36.2412 83.174 36.6333 80.9359 38.2709 78.807C39.8589 76.7475 40.4445 74.1621 40.6827 71.5468C40.7571 70.738 40.5437 70.4055 39.6554 70.4303C37.2883 70.4849 34.9163 70.465 32.5491 70.4402C31.239 70.4253 30.4996 69.274 31.0753 68.2071C31.378 67.6413 31.8792 67.4081 32.5045 67.4081C33.5665 67.4081 34.6284 67.4081 35.6954 67.4081C43.5312 67.4081 51.367 67.4081 59.2028 67.4081C60.5823 67.4081 61.8577 67.1302 62.875 66.1129C63.8923 65.0956 64.1702 63.8202 64.1653 62.4406C64.1653 52.3568 64.1653 42.273 64.1653 32.1892C64.1653 24.2293 64.1653 16.2745 64.1653 8.31459C64.1653 7.10374 63.9519 5.9574 63.1579 4.98475C62.2448 3.86322 61.0141 3.39178 59.6246 3.38682C48.1116 3.37193 36.6035 3.36201 25.0905 3.38682C22.2768 3.39178 20.5548 5.27754 20.5548 8.21534C20.5448 19.0584 20.5548 29.9015 20.5548 40.7446C20.5548 41.0771 20.5697 41.4145 20.5449 41.747C20.4804 42.6402 19.8501 43.2556 19.0313 43.2556C18.2125 43.2556 17.5525 42.6402 17.5277 41.742C17.4929 40.4716 17.5177 39.1963 17.5177 37.9209C17.1555 37.8068 17.0562 38.0946 16.9073 38.2435C13.3591 41.7817 9.82585 45.3349 6.2727 48.8682C4.10904 51.017 3.06194 53.6173 3.06194 56.6494C3.05698 62.8476 3.02225 69.0408 3.07684 75.2389C3.10662 78.7127 3.87578 82.0376 5.53822 85.1243C6.23297 86.4145 6.15855 86.8115 5.18094 87.8784H3.72196V87.8884Z" fill="#0E2B72"/>
<path d="M84.6413 21.5451C84.1153 22.1803 83.4404 22.3639 82.6265 22.349C79.9319 22.3143 77.2323 22.349 74.5376 22.3242C73.2474 22.3143 72.508 21.1233 73.1035 20.0712C73.4161 19.5204 73.9074 19.2872 74.5376 19.2921C77.3861 19.2971 80.2346 19.307 83.0781 19.2872C83.7679 19.2822 84.1996 19.6593 84.6363 20.0861V21.5451H84.6413Z" fill="#0E2B72"/>
<path d="M28.2365 42.625C30.7575 42.7342 33.2238 44.347 34.5339 47.4535C35.8192 50.5005 35.2982 53.4135 33.0055 55.8054C29.7699 59.1799 26.4153 62.4403 23.0904 65.7255C22.5445 66.2614 22.3956 66.4698 23.2839 66.8073C27.7403 68.5144 30.7525 72.7821 30.7624 77.2782C30.7624 78.5039 30.2662 79.159 29.3084 79.1937C28.3755 79.2284 27.8048 78.6826 27.7105 77.5065C27.4078 73.8937 25.6907 71.2735 22.346 69.7947C21.423 69.3878 20.4404 69.1744 19.4281 69.1694C18.644 69.1694 17.9641 68.9709 17.6416 68.1819C17.3091 67.3631 17.6664 66.7279 18.2519 66.1522C22.3857 62.0433 26.5195 57.9294 30.6284 53.8006C32.6035 51.8156 32.5589 48.9969 30.5788 47.0615C28.6683 45.1956 25.9736 45.2303 23.9936 47.2153C19.9839 51.2349 16.004 55.2844 12.0141 59.3189C11.7809 59.5571 11.5526 59.8052 11.2896 60.0087C10.5998 60.5545 9.80079 60.5248 9.22514 59.959C8.6743 59.4181 8.61477 58.5497 9.09117 57.8797C9.21524 57.7061 9.3641 57.5572 9.51298 57.4033C13.6616 53.2249 17.8053 49.0415 21.9689 44.873C23.537 43.3049 25.2044 42.6399 28.2415 42.6349L28.2365 42.625Z" fill="#0E2B72"/>
<path d="M49.7482 22.9835C49.2917 25.837 48.4779 28.9236 47.8377 32.0401C47.4506 33.911 47.0288 35.7769 46.607 37.6428C46.0909 39.9255 44.4929 41.2952 42.364 41.2952C40.2153 41.2952 38.6223 39.9503 38.1161 37.6527C37.1038 33.0922 36.0914 28.5266 35.1237 23.9562C34.2404 19.7827 36.7514 15.9517 40.91 15.0485C44.7808 14.2049 48.6962 16.7457 49.5944 20.6958C49.7433 21.3459 49.7929 22.0109 49.7482 22.9835ZM46.6963 22.5667C46.597 20.6363 45.8725 19.2666 44.2845 18.4776C42.7064 17.6935 41.1432 17.8374 39.7488 18.9093C38.3642 19.9812 37.7836 21.4402 38.1558 23.1771C39.1285 27.7376 40.1408 32.2932 41.1234 36.8537C41.2772 37.5634 41.5353 38.1837 42.3541 38.1886C43.1729 38.1886 43.4359 37.5733 43.5898 36.8587C44.225 33.8961 44.8949 30.9434 45.54 27.9808C45.947 26.1198 46.334 24.249 46.6963 22.5617V22.5667Z" fill="#FFB400"/>
<path d="M42.3096 55.8758C39.0145 55.8659 36.4638 53.2754 36.4688 49.9555C36.4688 46.6555 39.0542 44.0849 42.3642 44.0899C45.7139 44.0899 48.2696 46.6852 48.2547 50.0548C48.2398 53.34 45.6345 55.8907 42.3096 55.8758ZM45.1829 49.9655C45.1978 48.4767 43.8331 47.1418 42.2997 47.1517C40.9003 47.1616 39.5554 48.5015 39.5306 49.9059C39.5008 51.4294 40.8258 52.809 42.3245 52.809C43.853 52.809 45.168 51.5038 45.1829 49.9704V49.9655Z" fill="#FFB400"/>
<path d="M11.7957 13.4906C11.8205 14.7511 10.5849 15.4508 9.39882 14.7858C8.04902 14.0315 6.73892 13.2078 5.40897 12.4138C4.39166 11.8034 3.36938 11.2079 2.36695 10.5776C1.48859 10.0218 1.23052 9.1782 1.66722 8.40901C2.12378 7.60012 3.02199 7.3917 3.9599 7.94253C6.28731 9.31219 8.59985 10.7116 10.9124 12.1011C11.4334 12.4138 11.7957 12.8405 11.7907 13.4906H11.7957Z" fill="#0E2B72"/>
<path d="M74.5968 15.0429C73.7383 15.0379 73.2271 14.6856 73.0038 14.0157C72.7656 13.311 72.9641 12.6659 73.5943 12.254C74.4578 11.6882 75.356 11.1771 76.2394 10.6412C77.7231 9.7479 79.202 8.84969 80.6957 7.97629C81.6931 7.39071 82.6063 7.57433 83.0678 8.40306C83.5144 9.20203 83.2365 10.0457 82.2837 10.6263C80.0257 11.9959 77.7529 13.3457 75.49 14.7054C75.1724 14.894 74.8498 15.0578 74.6067 15.0479L74.5968 15.0429Z" fill="#0E2B72"/>
<path d="M3.01762 34.0006C2.34272 33.9906 1.89608 33.7078 1.63803 33.1768C1.36509 32.621 1.39487 32.0503 1.79187 31.554C1.96059 31.3456 2.18391 31.1719 2.41218 31.033C4.66516 29.6683 6.92312 28.3086 9.19098 26.9637C10.2033 26.3633 11.0916 26.5022 11.5878 27.2913C12.099 28.1001 11.7913 29.0083 10.7591 29.6336C8.55577 30.9685 6.34744 32.2835 4.13912 33.6085C3.7719 33.8269 3.40467 34.0403 3.02256 34.0006H3.01762Z" fill="#0E2B72"/>
<path d="M74.5916 26.5811C74.7851 26.5662 75.1126 26.7102 75.4302 26.8987C77.7179 28.2684 80.0057 29.6281 82.2884 31.0127C83.2362 31.5883 83.5092 32.4369 83.0675 33.2309C82.606 34.0596 81.6879 34.2432 80.7004 33.6577C78.3829 32.2831 76.0754 30.8886 73.7628 29.4991C73.0532 29.0723 72.7554 28.4421 72.9837 27.6431C73.1772 26.9632 73.6834 26.6059 74.5916 26.5762V26.5811Z" fill="#0E2B72"/>
<path d="M6.00477 19.2967C7.36946 19.2967 8.72918 19.2868 10.0939 19.2967C11.1509 19.3067 11.7762 19.8674 11.796 20.7706C11.8159 21.7184 11.1807 22.3239 10.084 22.3288C7.29503 22.3388 4.51105 22.3388 1.72212 22.3288C0.665108 22.3288 0.044799 21.7581 0.0199865 20.85C0.000136442 19.8972 0.630381 19.3067 1.73206 19.2918C3.1563 19.2769 4.58053 19.2918 6.00477 19.2918V19.2967Z" fill="#0E2B72"/>
</svg>
