<svg width="110" height="110" viewBox="0 0 110 110" fill="none" xmlns="http://www.w3.org/2000/svg">
<path d="M0.0060803 54.0587C0.645839 53.2789 1.46839 52.9682 2.46154 53.0961C3.25362 53.1997 3.72279 52.9316 4.0579 52.1335C5.02668 49.8305 6.81191 48.4353 9.24908 47.9175C10.0899 47.7408 10.8698 47.4362 11.6314 47.0706C22.9338 41.6422 34.2302 36.2016 45.5448 30.8097C46.4709 30.3711 46.6293 29.969 46.3429 28.982C45.0268 24.4675 47.4397 19.758 51.8814 18.1861C52.8867 17.8327 53.1609 17.3697 53.1244 16.3766C53.033 13.964 53.3864 14.2869 50.9797 14.2564C50.1693 14.2443 49.3407 14.3052 48.5547 14.1651C46.0505 13.702 44.2774 11.5453 44.2469 8.98643C44.2226 6.81141 44.2774 4.6303 44.2226 2.45528C44.1982 1.4622 44.4236 0.639712 45.2035 0H64.7009C65.4747 0.639712 65.7063 1.4622 65.6819 2.45528C65.6271 4.52063 65.6758 6.59208 65.6636 8.65744C65.6454 12.0266 63.4092 14.2382 60.0155 14.2564C59.2782 14.2564 58.5349 14.293 57.8037 14.2503C57.0116 14.2016 56.7679 14.5428 56.7923 15.2922C56.835 16.5472 56.8106 17.8023 56.7984 19.0573C56.7862 20.6353 56.3353 21.1471 54.7634 21.3725C51.9667 21.7746 50.3521 23.2124 49.8646 25.7286C49.3589 28.3545 51.0893 31.0108 53.6971 31.614C56.4755 32.2537 59.3148 30.7001 59.8936 28.0194C60.1678 26.7582 60.6918 26.4475 61.8738 26.4963C64.0795 26.5816 64.2866 26.7034 63.592 28.8419C63.2204 29.9812 63.4946 30.4137 64.5243 30.9072C75.9912 36.3539 87.4337 41.8554 98.8763 47.3509C99.5221 47.6616 100.192 47.8139 100.875 47.9784C103.178 48.5389 104.866 49.8793 105.804 52.0482C106.151 52.8463 106.566 53.1509 107.449 53.1327C109.478 53.0778 109.978 53.6322 109.978 55.6854C109.978 72.9272 109.978 90.1628 109.978 107.405C109.978 109.458 109.466 109.982 107.449 109.982C72.4512 109.982 37.4533 109.982 2.45546 110C1.46231 110 0.639759 109.799 0 109.019V54.0709L0.0060803 54.0587ZM54.9218 106.271C71.5738 106.271 88.2258 106.259 104.878 106.296C105.999 106.296 106.31 105.997 106.31 104.87C106.273 89.3282 106.285 73.7862 106.285 58.2382C106.285 57.2796 105.794 56.7983 104.811 56.7942C90.6325 56.7942 76.4542 56.7942 62.276 56.7942C59.9728 56.7942 60.2165 57.0379 60.2043 54.7167C60.1922 53.1022 60.2044 53.0961 61.8495 53.0961C71.3727 53.0961 80.9021 53.0717 90.4254 53.1205C91.6561 53.1205 92.564 53.0047 92.9357 51.6339C93.0758 51.1282 93.4597 50.6408 93.8557 50.2753C94.5869 49.599 94.2944 49.3431 93.5572 48.9958C89.5541 47.1011 85.5693 45.1698 81.5723 43.2506C75.0529 40.1191 68.5273 36.9875 62.014 33.8438C61.3072 33.5026 60.7527 33.3991 60.0094 33.9291C56.8593 36.1529 53.0452 36.1346 49.8646 33.9047C49.2127 33.4478 48.7313 33.46 48.0672 33.7829C37.4899 38.8762 26.9125 43.9574 16.3169 49.008C15.4883 49.404 15.4578 49.6721 16.0793 50.3057C16.5301 50.7688 16.9262 51.3658 17.1394 51.9751C17.4745 52.9072 18.0351 53.1205 18.9734 53.1205C28.5393 53.0839 38.0992 53.0961 47.6651 53.1022C49.956 53.1022 49.7001 52.8646 49.7123 55.2041C49.7245 56.7942 49.7123 56.8003 48.1525 56.8003C33.8646 56.8003 19.5766 56.8003 5.28257 56.8003C4.17772 56.8003 3.62529 57.369 3.62529 58.5062C3.62529 73.902 3.62529 89.2977 3.62529 104.693C3.62529 105.749 4.1432 106.277 5.179 106.277C21.7579 106.277 38.3368 106.277 54.9157 106.277L54.9218 106.271ZM55.068 3.62503C53.0025 3.62503 50.937 3.63722 48.8715 3.61894C48.2317 3.61285 47.921 3.8139 47.9332 4.50235C47.9636 5.83052 47.9149 7.15868 47.9515 8.48685C47.988 9.85156 48.6582 10.5339 50.023 10.5461C53.3071 10.5766 56.5912 10.5766 59.8692 10.5461C61.2402 10.5339 61.9043 9.85156 61.947 8.49294C61.9835 7.20133 61.9226 5.90972 61.9713 4.61811C62.0018 3.82609 61.6727 3.59457 60.9233 3.61285C58.9675 3.6494 57.0117 3.62503 55.0558 3.62503H55.068ZM13.2217 53.023C12.3991 51.0003 8.62759 51.177 8.09751 53.023H13.2217ZM96.6097 53.023H101.88C100.601 51.0734 98.1268 51.049 96.6097 53.023Z" fill="#0E2B72"/>
<path d="M72.7548 81.5305C72.7548 84.2965 72.7182 87.0686 72.7731 89.8346C72.7974 91.0104 72.3587 91.772 71.3351 92.3386C66.3267 95.0985 61.3244 97.8767 56.3343 100.673C55.3594 101.215 54.4821 101.191 53.5194 100.649C48.5963 97.8889 43.6671 95.1351 38.7135 92.4239C37.6229 91.8268 37.1111 91.0714 37.1233 89.7919C37.172 84.2965 37.172 78.795 37.1233 73.2935C37.1111 72.0079 37.6168 71.2586 38.7074 70.6554C43.661 67.9442 48.5902 65.1965 53.5133 62.4305C54.5247 61.8639 55.4265 61.8883 56.4257 62.4549C61.3488 65.2209 66.278 67.9625 71.2316 70.6737C72.3344 71.2768 72.7974 72.075 72.767 73.3422C72.6999 76.0716 72.7487 78.8011 72.7487 81.5366L72.7548 81.5305ZM53.099 89.3959C53.099 87.4768 53.0807 85.5637 53.1112 83.6446C53.1233 82.9866 52.9344 82.5601 52.319 82.2251C48.7608 80.2816 45.2208 78.3137 41.6869 76.3153C40.974 75.9132 40.8278 76.0777 40.8339 76.8332C40.8582 80.6654 40.8521 84.4976 40.8339 88.3358C40.8339 88.9512 41.0045 89.3594 41.5772 89.6701C45.1659 91.638 48.7425 93.6241 52.3069 95.6285C52.9649 96.0002 53.1172 95.8479 53.1051 95.1472C53.0807 93.2281 53.099 91.3151 53.099 89.3959ZM56.7974 89.1888C56.7974 91.181 56.8156 93.1672 56.7852 95.1594C56.773 95.8905 56.9619 95.9819 57.5956 95.6285C61.1599 93.6241 64.7365 91.638 68.3191 89.664C68.8309 89.3837 69.0564 89.0304 69.0503 88.4394C69.032 84.5707 69.0259 80.6958 69.0503 76.8271C69.0503 76.0351 68.8675 75.9498 68.1912 76.3275C64.6573 78.3198 61.1173 80.2876 57.559 82.2312C56.9436 82.5662 56.7669 82.9988 56.7791 83.6507C56.8095 85.4906 56.7913 87.3367 56.7913 89.1827L56.7974 89.1888ZM54.9512 79.2763C55.2132 79.1544 55.4569 79.0692 55.6763 78.9473C59.1553 77.016 62.6222 75.0664 66.1196 73.1594C67.0274 72.6659 66.6131 72.4344 66.0343 72.1115C62.5857 70.1985 59.1432 68.2854 55.7007 66.3541C55.201 66.0739 54.7623 66.0373 54.2505 66.3236C50.7776 68.2672 47.3046 70.2107 43.8194 72.1298C43.1126 72.5197 43.0273 72.7451 43.8133 73.1716C47.2741 75.0603 50.7105 76.9916 54.1591 78.9046C54.415 79.0448 54.6831 79.1483 54.9512 79.2763Z" fill="#FFB400"/>
<path d="M17.8025 81.657C17.8025 87.9262 17.8025 94.2015 17.8025 100.471C17.8025 102.292 17.2298 102.871 15.4385 102.877C13.3364 102.883 11.2343 102.889 9.13225 102.877C7.68213 102.865 7.0241 102.219 7.0241 100.775C7.01801 87.9384 7.01801 75.1015 7.0241 62.2585C7.0241 60.8268 7.68822 60.1993 9.16271 60.1932C11.3013 60.1749 13.44 60.181 15.5847 60.1932C17.1749 60.2054 17.8025 60.8207 17.8086 62.4048C17.8147 68.8262 17.8086 75.2416 17.8086 81.6631L17.8025 81.657ZM10.7103 81.5474C10.7103 87.0428 10.7225 92.5382 10.6981 98.0276C10.6981 98.8683 10.9114 99.2948 11.8192 99.1791C12.1117 99.1425 12.4163 99.1364 12.7027 99.1791C13.8299 99.3496 14.1346 98.8866 14.1285 97.7717C14.0858 87.1525 14.1102 76.5332 14.098 65.914C14.098 63.6293 14.3783 63.9522 12.002 63.8609C10.9784 63.8243 10.6799 64.1533 10.692 65.1768C10.7347 70.6357 10.7103 76.0946 10.7164 81.5474H10.7103Z" fill="#0E2B72"/>
<path d="M21.1973 81.5413C21.1973 75.2355 21.1973 68.9237 21.1973 62.618C21.1973 60.7415 21.7517 60.1931 23.6466 60.1871C25.6756 60.1871 27.7045 60.1749 29.7335 60.1871C31.342 60.1931 31.9818 60.8024 31.9818 62.3743C31.9879 75.138 31.9879 87.9018 31.9818 100.666C31.9818 102.25 31.3481 102.865 29.7579 102.871C27.6558 102.883 25.5537 102.883 23.4517 102.871C21.8005 102.859 21.2034 102.256 21.2034 100.574C21.1973 94.2319 21.2034 87.8835 21.2034 81.5413H21.1973ZM28.2895 81.5839C28.2895 76.2347 28.2895 70.8916 28.2895 65.5424C28.2895 64.4376 27.7228 63.8852 26.5895 63.8852C26.5164 63.8852 26.4433 63.8852 26.3702 63.8852C25.3913 63.8852 24.8997 64.3665 24.8957 65.3291C24.8957 75.9483 24.8957 86.5676 24.8957 97.1868C24.8957 99.4166 24.6398 99.112 26.9185 99.1973C27.9665 99.2399 28.3138 98.9292 28.3016 97.8448C28.2529 92.4224 28.2773 87.0062 28.2773 81.5839H28.2895Z" fill="#0E2B72"/>
<path d="M77.9238 81.4069C77.9238 75.1377 77.9238 68.8624 77.9238 62.5933C77.9238 60.7655 78.4905 60.1928 80.2879 60.1867C82.39 60.1806 84.492 60.1745 86.5941 60.1867C88.0442 60.1989 88.7022 60.8447 88.7022 62.2825C88.7083 75.1194 88.7083 87.9563 88.7022 100.799C88.7022 102.231 88.032 102.859 86.5636 102.871C84.4616 102.889 82.3595 102.883 80.2574 102.871C78.5149 102.865 77.9238 102.28 77.9238 100.55C77.9238 94.1646 77.9238 87.7857 77.9238 81.4008V81.4069ZM81.6222 81.5348C81.6222 86.9572 81.6527 92.3795 81.5979 97.7957C81.5857 98.9472 81.9513 99.3493 83.048 99.1787C83.1942 99.1543 83.3405 99.1787 83.4928 99.1787C84.5083 99.1787 85.016 98.6791 85.016 97.6799C85.016 87.0973 85.016 76.5146 85.016 65.9319C85.016 63.629 85.2963 63.9458 82.9322 63.8666C81.933 63.83 81.5918 64.1225 81.604 65.1643C81.6527 70.6232 81.6283 76.082 81.6283 81.5348H81.6222Z" fill="#0E2B72"/>
<path d="M102.89 81.4444C102.89 87.7502 102.89 94.062 102.89 100.368C102.89 102.33 102.354 102.872 100.405 102.872C98.339 102.872 96.2735 102.884 94.208 102.872C92.7639 102.86 92.112 102.214 92.112 100.764C92.1059 87.9268 92.1059 75.09 92.112 62.247C92.112 60.864 92.7761 60.206 94.1471 60.1938C96.3222 60.1694 98.5035 60.1755 100.679 60.1938C102.269 60.206 102.89 60.8213 102.89 62.4176C102.897 68.7599 102.89 75.1082 102.89 81.4505V81.4444ZM99.192 81.5175C99.192 76.0221 99.1798 70.5267 99.2042 65.0373C99.2042 64.2027 99.0031 63.764 98.0892 63.8798C97.7967 63.9163 97.4921 63.9224 97.2057 63.8798C96.0846 63.7092 95.7678 64.1539 95.7739 65.2871C95.8165 75.9064 95.7921 86.5256 95.8043 97.1448C95.8043 99.4356 95.5241 99.1127 97.8942 99.2041C98.9117 99.2406 99.2225 98.9238 99.2103 97.8942C99.1615 92.4353 99.1859 86.9764 99.1859 81.5236L99.192 81.5175Z" fill="#0E2B72"/>
<path d="M56.8061 54.9772C56.8061 56.7928 56.8061 56.7928 54.9173 56.7867C52.8944 56.7806 53.1199 56.9268 53.1077 54.7884C53.1016 53.0825 53.1077 53.0825 55.1001 53.0886C56.2374 53.0886 56.8041 53.7181 56.8 54.9772H56.8061Z" fill="#0E2B72"/>
</svg>
