<svg width="150" height="150" viewBox="0 0 150 150" fill="none" xmlns="http://www.w3.org/2000/svg">
<path d="M75.0357 121.111C61.4757 121.111 47.9157 121.111 34.3557 121.111C30.7757 121.111 28.0857 119.111 27.2757 115.851C27.0457 114.911 27.0157 113.941 27.0157 112.981C27.0157 102.681 27.0157 92.371 27.0157 82.071C27.0057 74.251 29.5157 67.471 35.2257 62.011C39.0257 58.371 43.5457 56.111 48.7257 55.181C50.1557 54.921 50.1457 54.921 50.1657 53.491C50.2157 49.671 50.1057 45.851 50.2657 42.031C50.5557 35.381 56.6057 29.291 63.2557 29.041C70.4957 28.771 77.7457 28.951 84.9857 28.931C90.4157 28.911 94.8056 30.991 97.7757 35.671C99.1557 37.851 99.8857 40.241 99.8857 42.841C99.8857 46.461 99.9257 50.091 99.8557 53.711C99.8357 54.721 100.206 55.001 101.116 55.161C108.886 56.511 114.896 60.541 119.106 67.191C121.686 71.261 123.016 75.751 123.016 80.591C123.026 91.661 123.016 102.731 123.016 113.791C123.016 118.251 120.136 121.111 115.636 121.111C102.106 121.111 88.5857 121.111 75.0557 121.111H75.0357ZM75.0357 118.021C88.6257 118.021 102.226 118.021 115.816 118.021C118.416 118.021 119.886 116.551 119.926 113.951C119.946 112.751 119.926 111.561 119.926 110.361C119.926 109.301 119.402 108.771 118.356 108.771C96.3857 108.771 74.4157 108.771 52.4457 108.771C51.9857 108.771 51.5057 108.801 51.0557 108.721C50.3057 108.581 49.8957 108.071 49.8857 107.321C49.8757 106.561 50.2857 106.051 51.0157 105.891C51.4257 105.801 51.8757 105.831 52.3057 105.831C74.3757 105.831 96.4457 105.831 118.516 105.831C119.916 105.831 119.926 105.831 119.926 104.481C119.926 96.741 119.926 88.991 119.926 81.251C119.926 79.721 119.856 78.201 119.576 76.691C117.526 65.741 107.766 57.761 96.6757 57.841C82.2557 57.941 67.8257 57.861 53.3957 57.871C52.5357 57.871 51.6657 57.841 50.8057 57.941C38.9657 59.261 30.1057 69.091 30.0357 81.021C29.9957 88.901 30.0357 96.781 30.0057 104.651C30.0057 105.641 30.3357 105.871 31.2657 105.861C35.5557 105.821 39.8457 105.841 44.1257 105.851C45.2257 105.851 45.9057 106.411 45.9357 107.281C45.9657 108.201 45.2957 108.761 44.1157 108.791C43.8157 108.791 43.5157 108.791 43.2157 108.791C39.1557 108.791 35.1057 108.811 31.0457 108.781C30.2757 108.781 29.9657 109.001 30.0057 109.801C30.0557 110.931 30.0157 112.061 30.0157 113.191C30.0157 116.651 31.3957 118.051 34.8157 118.051C48.2157 118.051 61.6057 118.051 75.0057 118.051L75.0357 118.021ZM71.4657 54.771C77.1857 54.771 82.9057 54.751 88.6157 54.791C89.5257 54.791 89.8357 54.531 89.8257 53.611C89.7857 50.251 89.7257 46.891 89.8257 43.541C89.9157 40.761 87.9457 38.931 85.2357 38.941C78.4257 38.971 71.6057 38.941 64.7957 38.961C61.9157 38.961 60.2157 40.661 60.1757 43.561C60.1457 45.321 60.1757 47.081 60.1657 48.851C60.1657 50.051 59.6357 50.701 58.7057 50.711C57.7757 50.711 57.2357 50.061 57.2357 48.861C57.2257 46.971 57.2157 45.071 57.2357 43.181C57.2757 39.001 60.2257 36.041 64.4157 36.031C71.4957 36.011 78.5757 36.011 85.6557 36.031C89.8657 36.041 92.8557 39.061 92.8757 43.281C92.8857 46.771 92.8957 50.261 92.8757 53.751C92.8757 54.511 93.0757 54.871 93.8857 54.801C94.4757 54.751 95.0857 54.751 95.6757 54.801C96.5557 54.881 96.8257 54.521 96.8257 53.661C96.7857 50.141 96.8157 46.611 96.7957 43.091C96.7957 42.361 96.7957 41.631 96.6257 40.911C95.4257 35.481 91.0657 32.021 85.3057 32.001C78.4257 31.971 71.5457 31.981 64.6657 32.001C63.7457 32.001 62.8057 32.111 61.9057 32.321C56.6457 33.531 53.2657 37.881 53.2057 43.511C53.1757 46.871 53.2357 50.231 53.1757 53.581C53.1557 54.551 53.4557 54.821 54.4157 54.821C60.0957 54.781 65.7857 54.801 71.4657 54.801V54.771Z" fill="#0E2B72"/>
<path d="M58.6638 83.55C58.6638 82.02 58.6638 80.49 58.6638 78.96C58.6638 77.03 59.1338 76.57 61.0938 76.56C63.0238 76.56 64.9538 76.53 66.8738 76.57C67.7238 76.59 68.0638 76.34 68.0338 75.44C67.9838 73.38 68.0038 71.32 68.0238 69.26C68.0238 67.84 68.5838 67.22 69.9938 67.21C73.3138 67.18 76.6438 67.18 79.9638 67.21C81.5038 67.23 82.0438 67.82 82.0538 69.37C82.0738 71.26 82.0538 73.16 82.0538 75.05C82.0538 76.05 82.5405 76.5533 83.5138 76.56C85.4038 76.56 87.3038 76.55 89.1938 76.56C90.8438 76.57 91.3938 77.13 91.4038 78.8C91.4138 81.99 91.4138 85.18 91.4038 88.37C91.4038 90.07 90.8738 90.58 89.1938 90.58C87.1638 90.58 85.1338 90.61 83.1138 90.57C82.2738 90.55 82.0238 90.87 82.0338 91.67C82.0738 93.73 82.0538 95.79 82.0338 97.85C82.0238 99.4 81.4738 99.94 79.9038 99.95C76.6138 99.95 73.3238 99.96 70.0338 99.95C68.5538 99.95 68.0038 99.38 67.9938 97.88C67.9838 95.79 67.9638 93.69 67.9938 91.6C68.0138 90.81 67.7238 90.56 66.9438 90.57C64.8538 90.61 62.7538 90.59 60.6638 90.57C59.1738 90.57 58.6338 90.01 58.6138 88.51C58.6038 86.85 58.6138 85.19 58.6138 83.52L58.6638 83.55ZM65.9838 79.63C64.9238 79.63 63.8538 79.66 62.7938 79.62C62.0438 79.59 61.7138 79.81 61.7338 80.62C61.7738 82.58 61.7738 84.54 61.7338 86.5C61.7138 87.3 62.0238 87.54 62.7838 87.53C64.8738 87.5 66.9738 87.5 69.0638 87.53C70.5438 87.55 71.0938 88.13 71.1038 89.62C71.1138 91.68 71.1338 93.74 71.1038 95.8C71.0838 96.6 71.3338 96.93 72.1838 96.91C74.1138 96.86 76.0338 96.86 77.9638 96.91C78.8238 96.93 79.0338 96.57 79.0138 95.79C78.9738 93.76 78.9938 91.74 79.0038 89.71C79.0038 88.08 79.5338 87.54 81.1438 87.53C83.2338 87.52 85.3338 87.51 87.4238 87.53C88.0838 87.53 88.3938 87.34 88.3838 86.62C88.3538 84.59 88.3538 82.57 88.3838 80.54C88.3938 79.83 88.1138 79.62 87.4438 79.62C85.3138 79.65 83.1938 79.63 81.0638 79.62C79.5338 79.62 79.0138 79.11 79.0138 77.6C79.0038 75.47 78.9838 73.35 79.0138 71.22C79.0238 70.48 78.7638 70.23 78.0338 70.24C76.0738 70.28 74.1138 70.28 72.1538 70.24C71.3738 70.22 71.0938 70.48 71.1138 71.27C71.1538 73.3 71.1338 75.32 71.1238 77.35C71.1238 79.12 70.6338 79.62 68.8938 79.62C67.9338 79.62 66.9638 79.62 66.0038 79.62L65.9838 79.63Z" fill="#FFA500"/>
</svg>
