<svg width="87" height="76" viewBox="0 0 87 76" fill="none" xmlns="http://www.w3.org/2000/svg">
<path d="M85.2489 75.8639C57.0912 75.8639 28.9335 75.8639 0.775742 75.8787C0.143318 75.8787 0 75.7354 0 75.1032C0.0197633 50.7854 0.0148369 26.4676 0.0148369 2.14981C0.627498 1.15694 1.53167 0.885263 2.673 0.890203C29.719 0.909961 56.77 0.905021 83.816 0.905021C85.8319 0.905021 86.494 1.56693 86.494 3.57736C86.494 26.7887 86.494 50 86.5088 73.2113C86.5088 74.3523 86.2272 75.2464 85.2439 75.8688L85.2489 75.8639ZM43.1828 73.2656C56.2611 73.2656 69.3444 73.2656 82.4228 73.2656C83.3648 73.2656 83.8358 72.8112 83.8358 71.9023C83.8358 52.7316 83.8358 33.556 83.8358 14.3853C83.8358 13.4764 83.3928 13.0203 82.5067 13.017C56.3204 13.017 30.134 13.017 3.94276 13.017C3.05671 13.017 2.61371 13.4714 2.61371 14.3803C2.61371 33.551 2.61371 52.7266 2.61371 71.8973C2.61371 72.8062 3.08473 73.2623 4.02678 73.2656C17.0804 73.2656 30.1291 73.2656 43.1828 73.2656ZM43.3162 3.56254C41.1768 3.56254 39.0424 3.56254 36.903 3.56254C25.8504 3.56254 14.8027 3.56254 3.75012 3.56254C2.6335 3.56254 2.61371 3.5823 2.60877 4.69372C2.60877 6.12621 2.60877 7.5587 2.60877 8.99119C2.60877 9.89679 3.05342 10.3496 3.94276 10.3496C24.6942 10.3496 45.4456 10.3496 66.1971 10.3496C71.7357 10.3496 77.2744 10.3397 82.813 10.3644C83.5838 10.3644 83.8655 10.1273 83.8408 9.34684C83.7914 7.86001 83.8259 6.36825 83.8259 4.87648C83.8259 4.00052 83.3961 3.56254 82.5364 3.56254C69.463 3.56254 56.3846 3.56254 43.3112 3.56254H43.3162Z" fill="#0E2B72"/>
<path d="M43.1769 58.8171C31.8427 58.8171 20.5085 58.8171 9.17426 58.8171C6.11589 58.8171 5.56249 58.2738 5.56249 55.2408C5.56249 44.0229 5.56249 32.81 5.56249 21.5921C5.56249 21.2266 5.55263 20.861 5.57733 20.4955C5.68603 18.8704 6.37279 18.164 7.97856 18.0306C8.31454 18.001 8.65054 18.0059 8.99145 18.0059C26.4029 18.0059 43.8094 18.0059 61.2208 18.0059C61.7248 18.0059 62.2337 18.0257 62.7327 18.1047C63.4739 18.2233 63.879 18.6925 63.8592 19.4483C63.8345 20.2139 63.3602 20.619 62.6438 20.7277C62.2584 20.782 61.8582 20.7573 61.4629 20.7573C44.1948 20.7573 26.9266 20.7573 9.65845 20.7573C8.77898 20.7573 8.33923 21.1887 8.33923 22.0515C8.33923 32.9582 8.33923 43.8649 8.33923 54.7716C8.33923 55.6311 8.77898 56.0625 9.65845 56.0658C32.0453 56.0658 54.4321 56.0658 76.819 56.0658C77.6721 56.0658 78.1003 55.6508 78.1036 54.821C78.1036 43.8846 78.1036 32.9532 78.1036 22.0169C78.1036 21.1805 77.6803 20.7622 76.8338 20.7622C74.2744 20.7622 71.7151 20.7622 69.1558 20.7622C68.8198 20.7622 68.469 20.7622 68.1528 20.6733C67.5204 20.4856 67.1548 20.0164 67.1795 19.3544C67.2042 18.732 67.5599 18.2875 68.1725 18.1442C68.5777 18.0504 69.0075 18.0207 69.4275 18.0158C72.2141 18.0059 74.9958 18.001 77.7824 18.0158C80.1392 18.0257 80.8705 18.7518 80.8705 21.0932C80.8754 32.647 80.8754 44.2008 80.8705 55.7546C80.8705 58.0861 80.1343 58.8171 77.7676 58.8171C66.2357 58.8221 54.7039 58.8171 43.172 58.8171H43.1769Z" fill="#0E2B72"/>
<path d="M56.5914 38.4511C56.5667 45.7321 50.5092 51.7683 43.2215 51.7732C35.9041 51.7732 29.822 45.6777 29.8517 38.372C29.8813 31.0565 35.998 25.0005 43.3055 25.0548C50.5932 25.1091 56.621 31.1849 56.5914 38.456V38.4511ZM43.1869 27.8309C37.2925 27.8408 32.6136 32.5532 32.6334 38.4659C32.6482 44.3095 37.3519 48.9922 43.2166 48.9972C49.1159 48.9972 53.8196 44.2996 53.8146 38.3967C53.8146 32.4988 49.1011 27.821 43.1919 27.8309H43.1869Z" fill="#FFB400"/>
<path d="M50.4798 64.6262C41.0576 64.6262 31.6405 64.6262 22.2183 64.6262C20.7459 64.6262 20.0937 64.2261 20.069 63.3172C20.0443 62.4034 20.7261 61.9637 22.1689 61.9637C41.0082 61.9637 59.8525 61.9637 78.6918 61.9637C78.9734 61.9637 79.2551 61.9539 79.5367 61.9835C80.2976 62.0625 80.8016 62.6059 80.7917 63.3172C80.7818 64.0236 80.268 64.5472 79.5021 64.6163C79.1661 64.646 78.8252 64.6311 78.4892 64.6311C69.1511 64.6311 59.8179 64.6311 50.4798 64.6311V64.6262Z" fill="#0E2B72"/>
<path d="M24.1018 67.0317C29.5021 67.0317 34.9025 67.0317 40.2978 67.0317C40.6091 67.0317 40.9204 67.0169 41.2267 67.0515C41.9876 67.1305 42.5459 67.6689 42.5212 68.3555C42.4965 69.0866 42.1062 69.5756 41.3552 69.6843C40.8858 69.7535 40.4016 69.7782 39.9273 69.7782C29.3539 69.7831 18.7805 69.7831 8.20719 69.7782C7.70323 69.7782 7.18942 69.7633 6.70028 69.6596C6.00857 69.5164 5.63802 69.0422 5.66767 68.3259C5.69731 67.6097 6.11725 67.1898 6.80896 67.0712C7.14 67.012 7.48093 67.0367 7.81691 67.0367C13.2419 67.0367 18.6719 67.0367 24.0969 67.0367L24.1018 67.0317Z" fill="#0E2B72"/>
<path d="M11.2609 64.6263C9.91206 64.6263 8.56319 64.6362 7.21434 64.6263C6.25088 64.6164 5.67779 64.1224 5.65309 63.342C5.62838 62.522 6.22124 61.9836 7.21929 61.9786C9.91697 61.9638 12.6147 61.9638 15.3173 61.9786C16.2709 61.9836 16.844 62.5121 16.8391 63.3025C16.8391 64.0928 16.261 64.6115 15.3124 64.6263C13.9635 64.646 12.6147 64.6263 11.2658 64.6312L11.2609 64.6263Z" fill="#0E2B72"/>
<path d="M63.6631 6.99551C63.6384 7.72163 62.9912 8.30945 62.26 8.26499C61.5436 8.22548 61.0198 7.65248 61.0396 6.92142C61.0594 6.16565 61.6671 5.60254 62.4181 5.64699C63.1148 5.69145 63.6879 6.3089 63.6631 6.99057V6.99551Z" fill="#FFB400"/>
<path d="M75.1792 5.64703C75.8906 5.62727 76.4786 6.17063 76.5181 6.877C76.5576 7.6377 76.0043 8.24527 75.2533 8.26503C74.5171 8.28479 73.8896 7.68216 73.8946 6.95109C73.8946 6.25954 74.4776 5.66679 75.1792 5.64209V5.64703Z" fill="#FFB400"/>
<path d="M68.7414 5.64695C69.4726 5.62719 70.1001 6.23477 70.1001 6.96089C70.1001 7.65244 69.5221 8.2452 68.8254 8.26989C68.0892 8.29459 67.4766 7.6969 67.4766 6.95595C67.4766 6.24959 68.0447 5.66671 68.7463 5.64695H68.7414Z" fill="#FFB400"/>
<path d="M41.8083 34.4005C41.8083 33.5855 41.7885 32.7704 41.8132 31.9554C41.8379 31.1354 42.3468 30.6464 43.1374 30.6217C43.9575 30.597 44.6246 31.1058 44.6097 31.906C44.5603 34.9686 44.4763 38.0262 44.3627 41.0838C44.333 41.9137 43.8439 42.3187 43.1324 42.2743C42.3221 42.2249 42.0158 41.7112 42.0109 40.9702C42.001 38.782 42.0109 36.5888 42.0109 34.4005C41.9466 34.4005 41.8774 34.4005 41.8132 34.4005H41.8083Z" fill="#FFB400"/>
<path d="M44.7583 45.1937C44.7681 46.0285 44.0468 46.7398 43.197 46.7349C42.3768 46.7299 41.6999 46.0582 41.6801 45.2431C41.6603 44.4034 42.3768 43.697 43.2365 43.7069C44.0517 43.7168 44.7483 44.3984 44.7632 45.1987L44.7583 45.1937Z" fill="#FFB400"/>
</svg>
