<svg width="22" height="19" viewBox="0 0 22 19" fill="none" xmlns="http://www.w3.org/2000/svg">
<path fill-rule="evenodd" clip-rule="evenodd" d="M11.9557 1.175C11.9557 0.802208 11.6553 0.5 11.2848 0.5C10.9143 0.5 10.614 0.802208 10.614 1.175V2.74989H8.84794C8.53392 2.74989 8.22715 2.84492 7.96751 3.02263L6.45048 4.06094C6.41339 4.08633 6.36956 4.09991 6.3247 4.09991H2.65517C2.28466 4.09991 1.9843 4.40211 1.9843 4.77491C1.9843 5.1477 2.28466 5.44991 2.65517 5.44991H4.06718L1.05458 12.3617C0.93623 12.6332 1.01549 12.9652 1.24253 13.1539C1.31448 13.212 1.38641 13.2665 1.5187 13.3533C1.6847 13.4622 1.92327 13.6032 2.22756 13.743C2.83593 14.0225 3.71375 14.3001 4.79968 14.3001C5.88562 14.3001 6.76344 14.0225 7.37181 13.743C7.67609 13.6032 7.91467 13.4622 8.08067 13.3533C8.2141 13.2658 8.28617 13.211 8.35869 13.1524C8.58907 12.9601 8.665 12.6375 8.54479 12.3617L5.53219 5.44991H6.3247C6.63873 5.44991 6.94549 5.35488 7.20514 5.17717L8.72217 4.13885C8.75926 4.11347 8.80308 4.09989 8.84794 4.09989H10.614V17.15H6.60023C6.22972 17.15 5.92936 17.4522 5.92936 17.825C5.92936 18.1978 6.22972 18.5 6.60023 18.5H15.9694C16.34 18.5 16.6403 18.1978 16.6403 17.825C16.6403 17.4522 16.34 17.15 15.9694 17.15H11.9557V4.09989H13.7214C13.7663 4.09989 13.8101 4.11347 13.8472 4.13885L15.3643 5.17717C15.6239 5.35488 15.9307 5.44991 16.2447 5.44991H17.0373L14.0247 12.3617C13.9006 12.6463 13.9858 12.9794 14.2309 13.1685C14.2411 13.1762 14.2299 13.1677 14.2318 13.1692C14.259 13.1895 14.2863 13.2094 14.3143 13.2287C14.3608 13.2608 14.426 13.304 14.5089 13.3543C14.6747 13.4548 14.9125 13.5846 15.2155 13.7133C15.8213 13.9705 16.6928 14.225 17.7698 14.225C18.8468 14.225 19.7183 13.9705 20.3241 13.7133C20.6271 13.5846 20.8649 13.4548 21.0307 13.3543C21.1639 13.2735 21.2359 13.2229 21.3087 13.1685C21.5538 12.9794 21.639 12.6463 21.5149 12.3617L18.5023 5.44991H19.9142C20.2847 5.44991 20.5851 5.1477 20.5851 4.77491C20.5851 4.40211 20.2847 4.09991 19.9142 4.09991H16.2447C16.1998 4.09991 16.156 4.08633 16.1189 4.06094L14.6019 3.02263C14.3422 2.84492 14.0355 2.74989 13.7214 2.74989H11.9557V1.175ZM2.51243 12.3783C2.59261 12.4221 2.6836 12.4684 2.78486 12.5149C3.25643 12.7316 3.94397 12.9501 4.79968 12.9501C5.65539 12.9501 6.34294 12.7316 6.81451 12.5149C6.91577 12.4684 7.00676 12.4221 7.08694 12.3783L4.79968 7.13068L2.51243 12.3783ZM15.4919 12.3569C15.5653 12.3933 15.6472 12.4313 15.7372 12.4695C16.2113 12.6709 16.9051 12.875 17.7698 12.875C18.6345 12.875 19.3283 12.6709 19.8024 12.4695C19.8924 12.4313 19.9743 12.3933 20.0477 12.3569L17.7698 7.13068L15.4919 12.3569Z" fill="black" stroke="black" stroke-width="0.25" stroke-linecap="round"/>
</svg>
