<svg width="65" height="75" viewBox="0 0 65 75" fill="none" xmlns="http://www.w3.org/2000/svg">
<path d="M0 0.865147C0.0237491 0.899074 0.0474983 0.933002 0.0780329 0.9805C0.342666 0.217135 0.919431 0 1.65905 0C17.3165 0.00339273 32.974 0 48.6314 0C48.9741 0 49.31 0.0237491 49.6119 0.203564C50.1378 0.515695 50.3889 1.10264 50.2464 1.69297C50.1005 2.29688 49.6086 2.70062 48.9639 2.73454C48.8384 2.74133 48.7095 2.73794 48.5839 2.73794C33.4286 2.73794 18.2699 2.73794 3.11453 2.73794C3.0806 2.73794 3.04328 2.73794 3.00935 2.73794C2.82162 2.73794 2.72776 2.82954 2.72776 3.01275C2.72776 4.33931 2.72776 5.66586 2.72776 6.98903C2.72776 7.42669 2.72776 7.86096 2.75829 8.29862C2.83972 9.55054 3.99664 10.6769 5.25874 10.7041C5.62515 10.7109 5.99157 10.7041 6.35798 10.7041C23.99 10.7041 41.6187 10.7041 59.2507 10.7109C60.0208 10.7109 60.7197 10.5718 61.3101 10.0561C61.8631 9.5709 62.1617 8.96699 62.2159 8.23416C62.2533 7.69811 62.2499 7.16206 62.2533 6.6294C62.2533 5.45891 62.2533 4.28841 62.2533 3.11792C62.2533 2.69044 62.2974 2.73794 61.8631 2.73794C59.4509 2.73794 57.042 2.73794 54.6298 2.73794C54.5246 2.73794 54.4194 2.73794 54.3143 2.73454C53.9004 2.7074 53.5509 2.54794 53.2931 2.21545C52.6891 1.4453 53.0861 0.291775 54.0395 0.0610692C54.1955 0.0237491 54.355 0 54.5212 0.00339273C57.4899 0.00339273 60.4585 0.00339273 63.4238 0.00339273C63.607 0.00339273 63.7902 0.0237491 63.9666 0.0678547C64.5671 0.22392 64.9878 0.776936 64.9912 1.41138C64.9912 3.58951 65.0149 5.77104 64.9844 7.94917C64.9539 10.1477 63.9259 11.7762 62.0124 12.8449C61.2626 13.2622 60.4449 13.4352 59.5968 13.4352C55.9394 13.442 52.2786 13.4352 48.6213 13.4352C48.2786 13.4352 48.2718 13.4352 48.3939 13.7643C49.1641 15.8373 49.9376 17.9102 50.7078 19.9866C50.8639 20.4107 51.0165 20.8348 51.1624 21.2589C51.3117 21.6931 51.2405 22.1003 51.0064 22.4938C50.0869 24.0375 49.1743 25.588 48.2582 27.1351C47.064 29.1571 45.8698 31.1792 44.6789 33.1979C44.4991 33.4998 44.2752 33.7611 43.9495 33.9104C43.4202 34.1512 42.9316 34.0664 42.4906 33.7034C42.0428 33.3336 41.9376 32.8552 42.0767 32.3124C42.1649 31.9629 42.382 31.6779 42.5618 31.376C43.4473 29.8764 44.3532 28.3904 45.2251 26.884C46.2294 25.1503 47.2676 23.4404 48.2888 21.7203C48.3668 21.588 48.3668 21.4794 48.3159 21.3437C47.5933 19.4234 46.8706 17.5065 46.1514 15.5862C45.9105 14.945 45.673 14.3072 45.4457 13.6591C45.3846 13.4895 45.2964 13.4352 45.1234 13.4352C43.5797 13.4386 42.036 13.4352 40.4923 13.4352C33.6763 13.4352 26.8569 13.4352 20.0409 13.4386C19.5557 13.4386 19.6337 13.3911 19.4743 13.822C18.7143 15.878 17.9577 17.934 17.1944 19.99C17.0247 20.4446 16.8551 20.8992 16.6787 21.3539C16.6244 21.4896 16.6346 21.6117 16.7092 21.7372C17.8627 23.6202 18.9382 25.5473 20.0816 27.4336C20.9942 28.94 21.8763 30.4667 22.7652 31.9867C23.3624 33.0079 22.5854 33.9104 21.8153 34.0257C21.2928 34.1038 20.8653 33.9205 20.5498 33.51C20.1834 33.035 19.9018 32.5024 19.5964 31.9867C17.9815 29.2725 16.3767 26.5515 14.772 23.834C14.5005 23.3725 14.2461 22.9009 13.9747 22.4395C13.7202 22.0019 13.6795 21.5608 13.8593 21.0824C14.2868 19.9561 14.6905 18.8195 15.1112 17.6931C15.5998 16.3801 16.0985 15.0671 16.5905 13.7541C16.7024 13.4522 16.6956 13.442 16.3665 13.442C12.8279 13.442 9.2893 13.4386 5.75068 13.442C5.11285 13.442 4.47841 13.442 3.87111 13.2249C2.11028 12.604 0.878718 11.4403 0.271419 9.65233C0.176422 9.37073 0.132317 9.07895 0.128924 8.76004C0.0474983 8.88218 0.0746401 9.01788 0 9.11627C0 6.36477 0 3.61326 0 0.865147Z" fill="#0E2B72"/>
<path d="M9.856 74.4878C9.88993 74.4675 9.92725 74.4437 9.98492 74.4098C9.70672 74.2944 9.47262 74.1485 9.27584 73.945C8.78729 73.4293 8.69568 72.6116 9.06549 71.9874C9.44209 71.3529 10.1715 71.034 10.8535 71.2138C11.5931 71.4072 12.0986 72.0315 12.1122 72.7677C12.1257 73.4869 11.7288 74.0841 11.057 74.3725C11.0163 74.3894 10.8704 74.3792 10.9994 74.4878H9.856Z" fill="#0E2B72"/>
<path d="M53.9305 74.4869C53.9712 74.4631 54.012 74.4427 54.0561 74.419C53.2825 74.1238 52.8618 73.564 52.8618 72.8278C52.8618 72.0034 53.5166 71.2502 54.2969 71.1755C55.1587 71.0941 55.9356 71.6777 56.0985 72.5259C56.2512 73.3265 55.8712 74.0322 55.118 74.3613C55.0671 74.3851 54.9348 74.3511 54.9891 74.4902H53.9305V74.4869Z" fill="#0E2B72"/>
<path d="M32.4749 41.2783C29.6555 41.2783 26.8362 41.2952 24.0168 41.2715C22.7988 41.2613 21.9371 41.8143 21.2992 42.7982C21.0346 43.2053 20.926 43.6633 20.9091 44.1417C20.8955 44.6133 20.9159 45.0883 20.9023 45.5599C20.8989 45.7533 20.9735 45.7974 21.15 45.7974C22.6597 45.7906 24.1661 45.794 25.6759 45.794C26.1101 45.794 26.5003 45.9093 26.7989 46.2418C27.1856 46.6693 27.2738 47.1714 27.0465 47.6973C26.8124 48.2435 26.3714 48.5421 25.7743 48.5591C25.1602 48.576 24.5495 48.5658 23.9354 48.5658C22.4969 48.5658 21.0584 48.5692 19.6198 48.5658C18.8734 48.5625 18.3272 48.118 18.1915 47.4293C18.1745 47.3479 18.1711 47.263 18.1711 47.1782C18.1711 46.1841 18.161 45.1901 18.1745 44.196C18.2119 41.5904 20.0982 39.2596 22.6326 38.6726C23.0465 38.5776 23.4638 38.5234 23.8879 38.5234C24.77 38.5234 25.6487 38.5234 26.5308 38.5234C26.8362 38.5234 26.8396 38.5234 26.8396 38.2214C26.8396 34.0891 26.8396 29.9567 26.8396 25.8244C26.8396 25.0406 26.9583 24.2739 27.2569 23.5512C27.8574 22.1025 28.8922 21.061 30.3341 20.4537C32.3053 19.6292 34.1848 19.9074 35.8676 21.1593C37.2078 22.1568 37.9677 23.5444 38.0797 25.251C38.1001 25.5462 38.1068 25.8413 38.1068 26.1365C38.1068 30.1331 38.1068 34.1332 38.1068 38.1298C38.1068 38.5505 38.0627 38.5166 38.4936 38.5166C39.3113 38.5166 40.1289 38.5166 40.9466 38.5166C44.3054 38.5267 46.453 41.0679 46.7481 43.6939C46.7719 43.8907 46.7821 44.0874 46.7821 44.2842C46.7821 45.2138 46.7855 46.1468 46.7821 47.0764C46.7753 47.9585 46.1748 48.5658 45.2893 48.5658C40.6446 48.5658 36 48.5658 31.3553 48.5658C30.5309 48.5658 29.9337 48.0366 29.8863 47.2868C29.8354 46.4861 30.4325 45.8381 31.2569 45.8008C31.3621 45.7974 31.4673 45.8008 31.5724 45.8008C35.6403 45.8008 39.7082 45.8008 43.7727 45.8008C44.0509 45.8008 44.0577 45.8008 44.0509 45.5192C44.0339 44.8881 44.1188 44.2469 43.9695 43.6226C43.6065 42.1061 42.2324 41.2715 41.0721 41.2783C38.2018 41.2986 35.335 41.285 32.4647 41.285L32.4749 41.2783ZM35.3893 31.8804C35.3893 29.7939 35.3893 27.7073 35.3893 25.6208C35.3893 23.9176 34.005 22.7336 32.4851 22.7336C30.9312 22.7336 29.5741 24.0533 29.5741 25.6411C29.5775 29.8278 29.5741 34.0178 29.5775 38.2044C29.5775 38.5098 29.5843 38.5132 29.8829 38.5132C31.6165 38.5132 33.3502 38.5132 35.0839 38.5132C35.3825 38.5132 35.3859 38.5132 35.3859 38.2044C35.3859 36.0976 35.3859 33.9873 35.3859 31.8804H35.3893Z" fill="#FFB400"/>
<path d="M34.7959 53.3312C34.7959 52.4084 35.5423 51.6451 36.4448 51.6484C37.3371 51.6518 38.0869 52.4186 38.0835 53.3279C38.0835 54.2303 37.3472 54.9835 36.4583 54.9903C35.5253 54.9971 34.7959 54.2676 34.7959 53.3312Z" fill="#0E2B72"/>
<path d="M30.1748 53.3538C30.1714 54.2665 29.4453 54.9891 28.5327 54.9857C27.654 54.9857 26.8838 54.185 26.8872 53.2826C26.894 52.414 27.6743 51.6337 28.5293 51.6507C29.4657 51.6642 30.1782 52.4038 30.1748 53.3538Z" fill="#0E2B72"/>
<path d="M30.1748 69.1065C30.1714 70.0056 29.4419 70.7283 28.5429 70.7283C27.6608 70.7283 26.8838 69.931 26.8872 69.0353C26.8906 68.1498 27.6608 67.3864 28.5395 67.3966C29.4657 67.4068 30.1782 68.1532 30.1748 69.1099V69.1065Z" fill="#0E2B72"/>
<path d="M34.7993 69.1122C34.7993 68.1555 35.5423 67.3819 36.4584 67.3887C37.3337 67.3955 38.0869 68.169 38.0835 69.0579C38.0835 69.9808 37.3303 70.734 36.4176 70.7238C35.5254 70.717 34.7993 69.9909 34.7993 69.1088V69.1122Z" fill="#0E2B72"/>
<path d="M30.1714 61.2219C30.1714 62.1074 29.4182 62.8572 28.5191 62.8639C27.637 62.8707 26.8872 62.1108 26.8872 61.2083C26.8872 60.2821 27.6099 59.5425 28.5225 59.5391C29.4318 59.5357 30.1714 60.2923 30.1714 61.2253V61.2219Z" fill="#0E2B72"/>
<path d="M20.4444 53.3246C20.4444 54.2406 19.7116 54.9972 18.8261 54.9904C17.9202 54.9836 17.1568 54.2101 17.1636 53.3042C17.1704 52.3949 17.9338 51.6384 18.8261 51.6485C19.715 51.6587 20.4444 52.4153 20.4444 53.3212V53.3246Z" fill="#0E2B72"/>
<path d="M44.5262 53.3028C44.5262 52.4173 45.3031 51.637 46.1649 51.6506C47.0606 51.6641 47.807 52.4309 47.807 53.3334C47.807 54.2155 47.03 55.0128 46.1683 54.989C45.3506 54.9653 44.4957 54.3342 44.5262 53.3028Z" fill="#0E2B72"/>
<path d="M12.1085 61.6693C12.1017 62.5514 11.3247 63.3385 10.4664 63.3283C9.57408 63.3182 8.8209 62.548 8.82768 61.6489C8.83447 60.7566 9.62158 59.956 10.4799 59.9729C11.3722 59.9933 12.1152 60.7634 12.1085 61.6659V61.6693Z" fill="#0E2B72"/>
<path d="M46.1719 62.8413C47.0506 62.8413 47.8072 63.608 47.8106 64.4969C47.8106 65.3892 47.0404 66.1696 46.1617 66.1662C45.2558 66.1662 44.5298 65.4232 44.5298 64.4969C44.5298 63.5775 45.2626 62.8379 46.1719 62.8379V62.8413Z" fill="#0E2B72"/>
<path d="M38.0831 61.2322C38.0763 62.1109 37.3197 62.8641 36.4444 62.8607C35.5487 62.8573 34.7888 62.0736 34.7989 61.1644C34.8091 60.2755 35.586 59.5087 36.458 59.5257C37.3706 59.5426 38.0899 60.2992 38.0831 61.2322Z" fill="#0E2B72"/>
<path d="M20.4444 64.5003C20.4444 65.4164 19.7183 66.1662 18.8328 66.1662C17.9303 66.1662 17.1602 65.3926 17.1636 64.4902C17.1636 63.608 17.9337 62.8379 18.8057 62.8379C19.7149 62.8379 20.4444 63.5775 20.4444 64.5003Z" fill="#0E2B72"/>
<path d="M52.8623 61.642C52.8623 60.7599 53.6087 59.9863 54.4738 59.9728C55.3525 59.9626 56.1363 60.77 56.1397 61.6895C56.1397 62.5614 55.3627 63.3349 54.4806 63.3316C53.6223 63.3248 52.8623 62.5309 52.8589 61.642H52.8623Z" fill="#0E2B72"/>
</svg>
