<svg width="101" height="100" viewBox="0 0 101 100" fill="none" xmlns="http://www.w3.org/2000/svg">
<path d="M77.2027 27.4546H65.0961V28.0479C65.0961 31.1279 65.0961 34.2079 65.0961 37.2879C65.0961 41.0146 62.3627 43.7346 58.6361 43.7413C58.0294 43.7413 57.4227 43.7413 56.7827 43.7413V52.0746H60.8827V56.2346H40.0761V52.1146H44.1894V43.7413C43.5761 43.7413 42.9694 43.7413 42.3627 43.7413C38.5961 43.7413 35.8694 41.0213 35.8694 37.2679C35.8694 34.2079 35.8694 31.1413 35.8694 28.0813C35.8694 27.8946 35.8694 27.7079 35.8694 27.4813H23.8027V23.2812H77.2094V27.4546H77.2027ZM60.9161 27.4879H40.0894C40.0694 27.5479 40.0494 27.5813 40.0494 27.6146C40.0494 30.9346 40.0361 34.2546 40.0494 37.5813C40.0494 38.4879 40.6761 39.3079 41.5761 39.4613C42.4294 39.6079 43.3227 39.5613 44.2361 39.6013V35.4279H56.7694V39.5679C57.5361 39.5679 58.2494 39.5946 58.9627 39.5679C60.0161 39.5212 60.9027 38.6679 60.9161 37.6146C60.9427 34.2613 60.9227 30.9013 60.9227 27.5013L60.9161 27.4879ZM52.5361 52.0679V39.6079H48.4227V52.0679H52.5361Z" fill="#0E2B72"/>
<path d="M48.3965 76.7262V64.2395H52.5698V76.7262H48.3965Z" fill="#FFB200"/>
<path d="M38.6494 58.9324C39.616 59.899 40.576 60.859 41.4827 61.7657C38.5827 64.6657 35.6493 67.599 32.7293 70.519C31.8427 69.6124 30.876 68.6324 29.916 67.659C32.796 64.779 35.716 61.859 38.6427 58.9324H38.6494Z" fill="#FFB200"/>
<path d="M62.3533 58.9739C65.2267 61.8472 68.1533 64.7672 71.0533 67.6739C70.0933 68.6205 69.12 69.5805 68.1933 70.4939C65.3267 67.6272 62.4 64.7005 59.5 61.8005C60.3933 60.9139 61.36 59.9539 62.3467 58.9739H62.3533Z" fill="#FFB200"/>
</svg>
