<svg width="100" height="100" viewBox="0 0 100 100" fill="none" xmlns="http://www.w3.org/2000/svg">
<path d="M17 13.8651C17.0237 13.8991 17.0475 13.933 17.078 13.9805C17.3427 13.2171 17.9194 13 18.659 13C34.3165 13.0034 49.974 13 65.6314 13C65.9741 13 66.31 13.0237 66.6119 13.2036C67.1378 13.5157 67.3889 14.1026 67.2464 14.693C67.1005 15.2969 66.6086 15.7006 65.9639 15.7345C65.8384 15.7413 65.7095 15.7379 65.5839 15.7379C50.4286 15.7379 35.2699 15.7379 20.1145 15.7379C20.0806 15.7379 20.0433 15.7379 20.0094 15.7379C19.8216 15.7379 19.7278 15.8295 19.7278 16.0127C19.7278 17.3393 19.7278 18.6659 19.7278 19.989C19.7278 20.4267 19.7278 20.861 19.7583 21.2986C19.8397 22.5505 20.9966 23.6769 22.2587 23.7041C22.6252 23.7109 22.9916 23.7041 23.358 23.7041C40.99 23.7041 58.6187 23.7041 76.2507 23.7109C77.0208 23.7109 77.7197 23.5718 78.3101 23.0561C78.8631 22.5709 79.1617 21.967 79.2159 21.2342C79.2533 20.6981 79.2499 20.1621 79.2533 19.6294C79.2533 18.4589 79.2533 17.2884 79.2533 16.1179C79.2533 15.6904 79.2974 15.7379 78.8631 15.7379C76.4509 15.7379 74.042 15.7379 71.6298 15.7379C71.5246 15.7379 71.4194 15.7379 71.3143 15.7345C70.9004 15.7074 70.5509 15.5479 70.2931 15.2155C69.6891 14.4453 70.0861 13.2918 71.0395 13.0611C71.1955 13.0237 71.355 13 71.5212 13.0034C74.4899 13.0034 77.4585 13.0034 80.4238 13.0034C80.607 13.0034 80.7902 13.0237 80.9666 13.0679C81.5671 13.2239 81.9878 13.7769 81.9912 14.4114C81.9912 16.5895 82.0149 18.771 81.9844 20.9492C81.9539 23.1477 80.9259 24.7762 79.0124 25.8449C78.2626 26.2622 77.4449 26.4352 76.5968 26.4352C72.9394 26.442 69.2786 26.4352 65.6213 26.4352C65.2786 26.4352 65.2718 26.4352 65.3939 26.7643C66.1641 28.8373 66.9376 30.9102 67.7078 32.9866C67.8639 33.4107 68.0165 33.8348 68.1624 34.2589C68.3117 34.6931 68.2405 35.1003 68.0064 35.4938C67.0869 37.0375 66.1743 38.588 65.2582 40.1351C64.064 42.1571 62.8698 44.1792 61.6789 46.1979C61.4991 46.4998 61.2752 46.7611 60.9495 46.9104C60.4202 47.1512 59.9316 47.0664 59.4906 46.7034C59.0428 46.3336 58.9376 45.8552 59.0767 45.3124C59.1649 44.9629 59.382 44.6779 59.5618 44.376C60.4473 42.8764 61.3532 41.3904 62.2251 39.884C63.2294 38.1503 64.2676 36.4404 65.2888 34.7203C65.3668 34.588 65.3668 34.4794 65.3159 34.3437C64.5933 32.4234 63.8706 30.5065 63.1514 28.5862C62.9105 27.945 62.673 27.3072 62.4457 26.6591C62.3846 26.4895 62.2964 26.4352 62.1234 26.4352C60.5797 26.4386 59.036 26.4352 57.4923 26.4352C50.6763 26.4352 43.8569 26.4352 37.0409 26.4386C36.5557 26.4386 36.6337 26.3911 36.4743 26.822C35.7143 28.878 34.9577 30.934 34.1944 32.99C34.0247 33.4446 33.8551 33.8992 33.6787 34.3539C33.6244 34.4896 33.6346 34.6117 33.7092 34.7372C34.8627 36.6202 35.9382 38.5473 37.0816 40.4336C37.9942 41.94 38.8763 43.4667 39.7652 44.9867C40.3624 46.0079 39.5854 46.9104 38.8153 47.0257C38.2928 47.1038 37.8653 46.9205 37.5498 46.51C37.1834 46.035 36.9018 45.5024 36.5964 44.9867C34.9815 42.2725 33.3767 39.5515 31.772 36.834C31.5005 36.3725 31.2461 35.9009 30.9747 35.4395C30.7202 35.0019 30.6795 34.5608 30.8593 34.0824C31.2868 32.9561 31.6905 31.8195 32.1112 30.6931C32.5998 29.3801 33.0985 28.0671 33.5905 26.7541C33.7024 26.4522 33.6956 26.442 33.3665 26.442C29.8279 26.442 26.2893 26.4386 22.7507 26.442C22.1128 26.442 21.4784 26.442 20.8711 26.2249C19.1103 25.604 17.8787 24.4403 17.2714 22.6523C17.1764 22.3707 17.1323 22.079 17.1289 21.76C17.0475 21.8822 17.0746 22.0179 17 22.1163C17 19.3648 17 16.6133 17 13.8651Z" fill="#0E2B72"/>
<path d="M26.856 87.4878C26.8899 87.4675 26.9272 87.4437 26.9849 87.4098C26.7067 87.2944 26.4726 87.1485 26.2758 86.945C25.7873 86.4293 25.6957 85.6116 26.0655 84.9874C26.4421 84.3529 27.1715 84.034 27.8535 84.2138C28.5931 84.4072 29.0986 85.0315 29.1122 85.7677C29.1257 86.4869 28.7288 87.0841 28.057 87.3725C28.0163 87.3894 27.8704 87.3792 27.9994 87.4878H26.856Z" fill="#0E2B72"/>
<path d="M70.9305 87.4869C70.9712 87.4631 71.012 87.4427 71.0561 87.419C70.2825 87.1238 69.8618 86.564 69.8618 85.8278C69.8618 85.0034 70.5166 84.2502 71.2969 84.1755C72.1587 84.0941 72.9356 84.6777 73.0985 85.5259C73.2512 86.3265 72.8712 87.0322 72.118 87.3613C72.0671 87.3851 71.9348 87.3511 71.9891 87.4902H70.9305V87.4869Z" fill="#0E2B72"/>
<path d="M49.4749 54.2783C46.6555 54.2783 43.8362 54.2952 41.0168 54.2715C39.7988 54.2613 38.9371 54.8143 38.2992 55.7982C38.0346 56.2053 37.926 56.6633 37.9091 57.1417C37.8955 57.6133 37.9159 58.0883 37.9023 58.5599C37.8989 58.7533 37.9735 58.7974 38.15 58.7974C39.6597 58.7906 41.1661 58.794 42.6759 58.794C43.1101 58.794 43.5003 58.9093 43.7989 59.2418C44.1856 59.6693 44.2738 60.1714 44.0465 60.6973C43.8124 61.2435 43.3714 61.5421 42.7743 61.5591C42.1602 61.576 41.5495 61.5658 40.9354 61.5658C39.4969 61.5658 38.0584 61.5692 36.6198 61.5658C35.8734 61.5625 35.3272 61.118 35.1915 60.4293C35.1745 60.3479 35.1711 60.263 35.1711 60.1782C35.1711 59.1841 35.161 58.1901 35.1745 57.196C35.2119 54.5904 37.0982 52.2596 39.6326 51.6726C40.0465 51.5776 40.4638 51.5234 40.8879 51.5234C41.77 51.5234 42.6487 51.5234 43.5308 51.5234C43.8362 51.5234 43.8396 51.5234 43.8396 51.2214C43.8396 47.0891 43.8396 42.9567 43.8396 38.8244C43.8396 38.0406 43.9583 37.2739 44.2569 36.5512C44.8574 35.1025 45.8922 34.061 47.3341 33.4537C49.3053 32.6292 51.1848 32.9074 52.8676 34.1593C54.2078 35.1568 54.9677 36.5444 55.0797 38.251C55.1001 38.5462 55.1068 38.8413 55.1068 39.1365C55.1068 43.1331 55.1068 47.1332 55.1068 51.1298C55.1068 51.5505 55.0627 51.5166 55.4936 51.5166C56.3113 51.5166 57.1289 51.5166 57.9466 51.5166C61.3054 51.5267 63.453 54.0679 63.7481 56.6939C63.7719 56.8907 63.7821 57.0874 63.7821 57.2842C63.7821 58.2138 63.7855 59.1468 63.7821 60.0764C63.7753 60.9585 63.1748 61.5658 62.2893 61.5658C57.6446 61.5658 53 61.5658 48.3553 61.5658C47.5309 61.5658 46.9337 61.0366 46.8863 60.2868C46.8354 59.4861 47.4325 58.8381 48.2569 58.8008C48.3621 58.7974 48.4673 58.8008 48.5724 58.8008C52.6403 58.8008 56.7082 58.8008 60.7727 58.8008C61.0509 58.8008 61.0577 58.8008 61.0509 58.5192C61.0339 57.8881 61.1188 57.2469 60.9695 56.6226C60.6065 55.1061 59.2324 54.2715 58.0721 54.2783C55.2018 54.2986 52.335 54.285 49.4647 54.285L49.4749 54.2783ZM52.3893 44.8804C52.3893 42.7939 52.3893 40.7073 52.3893 38.6208C52.3893 36.9176 51.005 35.7336 49.4851 35.7336C47.9312 35.7336 46.5741 37.0533 46.5741 38.6411C46.5775 42.8278 46.5741 47.0178 46.5775 51.2044C46.5775 51.5098 46.5843 51.5132 46.8829 51.5132C48.6165 51.5132 50.3502 51.5132 52.0839 51.5132C52.3825 51.5132 52.3859 51.5132 52.3859 51.2044C52.3859 49.0976 52.3859 46.9873 52.3859 44.8804H52.3893Z" fill="#FFB400"/>
<path d="M51.7959 66.3312C51.7959 65.4084 52.5423 64.6451 53.4448 64.6484C54.3371 64.6518 55.0869 65.4186 55.0835 66.3279C55.0835 67.2303 54.3472 67.9835 53.4583 67.9903C52.5253 67.9971 51.7959 67.2676 51.7959 66.3312Z" fill="#0E2B72"/>
<path d="M47.1748 66.3538C47.1714 67.2665 46.4453 67.9891 45.5327 67.9857C44.654 67.9857 43.8838 67.185 43.8872 66.2826C43.894 65.414 44.6743 64.6337 45.5293 64.6507C46.4657 64.6642 47.1782 65.4038 47.1748 66.3538Z" fill="#0E2B72"/>
<path d="M47.1748 82.1065C47.1714 83.0056 46.4419 83.7283 45.5429 83.7283C44.6608 83.7283 43.8838 82.931 43.8872 82.0353C43.8906 81.1498 44.6608 80.3864 45.5395 80.3966C46.4657 80.4068 47.1782 81.1532 47.1748 82.1099V82.1065Z" fill="#0E2B72"/>
<path d="M51.7993 82.1122C51.7993 81.1555 52.5423 80.3819 53.4584 80.3887C54.3337 80.3955 55.0869 81.169 55.0835 82.0579C55.0835 82.9808 54.3303 83.734 53.4176 83.7238C52.5254 83.717 51.7993 82.9909 51.7993 82.1088V82.1122Z" fill="#0E2B72"/>
<path d="M47.1714 74.2219C47.1714 75.1074 46.4182 75.8572 45.5191 75.8639C44.637 75.8707 43.8872 75.1108 43.8872 74.2083C43.8872 73.2821 44.6099 72.5425 45.5225 72.5391C46.4318 72.5357 47.1714 73.2923 47.1714 74.2253V74.2219Z" fill="#0E2B72"/>
<path d="M37.4444 66.3246C37.4444 67.2406 36.7116 67.9972 35.8261 67.9904C34.9202 67.9836 34.1568 67.2101 34.1636 66.3042C34.1704 65.3949 34.9338 64.6384 35.8261 64.6485C36.715 64.6587 37.4444 65.4153 37.4444 66.3212V66.3246Z" fill="#0E2B72"/>
<path d="M61.5262 66.3028C61.5262 65.4173 62.3031 64.637 63.1649 64.6506C64.0606 64.6641 64.807 65.4309 64.807 66.3334C64.807 67.2155 64.03 68.0128 63.1683 67.989C62.3506 67.9653 61.4957 67.3342 61.5262 66.3028Z" fill="#0E2B72"/>
<path d="M29.1085 74.6693C29.1017 75.5514 28.3247 76.3385 27.4664 76.3283C26.5741 76.3182 25.8209 75.548 25.8277 74.6489C25.8345 73.7566 26.6216 72.956 27.4799 72.9729C28.3722 72.9933 29.1152 73.7634 29.1085 74.6659V74.6693Z" fill="#0E2B72"/>
<path d="M63.1719 75.8413C64.0506 75.8413 64.8072 76.608 64.8106 77.4969C64.8106 78.3892 64.0404 79.1696 63.1617 79.1662C62.2558 79.1662 61.5298 78.4232 61.5298 77.4969C61.5298 76.5775 62.2626 75.8379 63.1719 75.8379V75.8413Z" fill="#0E2B72"/>
<path d="M55.0831 74.2322C55.0763 75.1109 54.3197 75.8641 53.4444 75.8607C52.5487 75.8573 51.7888 75.0736 51.7989 74.1644C51.8091 73.2755 52.586 72.5087 53.458 72.5257C54.3706 72.5426 55.0899 73.2992 55.0831 74.2322Z" fill="#0E2B72"/>
<path d="M37.4444 77.5003C37.4444 78.4164 36.7183 79.1662 35.8328 79.1662C34.9303 79.1662 34.1602 78.3926 34.1636 77.4902C34.1636 76.608 34.9337 75.8379 35.8057 75.8379C36.7149 75.8379 37.4444 76.5775 37.4444 77.5003Z" fill="#0E2B72"/>
<path d="M69.8623 74.642C69.8623 73.7599 70.6087 72.9863 71.4738 72.9728C72.3525 72.9626 73.1363 73.77 73.1397 74.6895C73.1397 75.5614 72.3627 76.3349 71.4806 76.3316C70.6223 76.3248 69.8623 75.5309 69.8589 74.642H69.8623Z" fill="#0E2B72"/>
</svg>
