<svg width="83" height="81" viewBox="0 0 83 81" fill="none" xmlns="http://www.w3.org/2000/svg">
<path d="M61.9923 80.7785C62.0263 80.7446 62.0553 80.7058 62.0941 80.6671C61.1689 80.4345 60.8637 80.0421 60.8637 79.078C60.8637 78.046 60.8589 77.0189 60.8637 75.987C60.8637 75.7447 60.7911 75.6478 60.544 75.6672C60.3842 75.6817 60.2243 75.6575 60.0645 75.643C59.2749 75.5558 58.8438 75.0907 58.8245 74.2961C58.8148 73.8019 58.8148 73.3078 58.8245 72.8136C58.8245 72.6246 58.7615 72.552 58.5726 72.5616C58.3788 72.5713 58.1802 72.5616 57.9865 72.5616C44.0894 72.5616 30.1875 72.5616 16.2904 72.5616C16.087 72.5616 15.8835 72.5616 15.6801 72.5229C15.1085 72.4163 14.6822 71.9221 14.6677 71.3407C14.6677 71.1954 14.6677 71.05 14.6677 70.9047C14.6677 60.6239 14.6677 50.3431 14.6677 40.0624C14.6677 39.6845 14.6677 39.6699 14.2995 39.6312C12.3959 39.4277 10.5892 38.8996 8.87443 38.0517C5.70169 36.4868 3.3524 34.0886 1.71032 30.9589C0.838426 29.2971 0.383097 27.5287 0.131216 25.6828C-0.164261 23.5269 0.0537375 21.4145 0.639846 19.3409C1.29861 17.0154 2.48051 14.9757 4.08383 13.1734C4.97026 12.1802 5.93418 11.2645 7.0628 10.5523C8.93254 9.37019 10.9137 8.45451 13.1176 8.11537C13.5439 8.04755 13.975 7.99425 14.4061 7.95549C14.6338 7.93611 14.6774 7.83922 14.6774 7.63089C14.6725 5.55244 14.6725 3.474 14.6774 1.39556C14.6774 0.663985 15.0504 0.164965 15.6946 0.0293086C15.8593 -0.00460543 16.0337 0.000239227 16.2032 0.000239227C29.1509 0.000239227 42.0985 0.000239227 55.0462 0.000239227C60.2195 0.000239227 65.3928 0.000239227 70.566 0.000239227C71.2926 0.000239227 71.8157 0.426587 71.8981 1.08064C71.9271 1.31804 71.9368 1.55544 71.9368 1.79284C71.9368 16.6229 71.9368 31.453 71.9368 46.2831C71.9368 46.4382 71.932 46.5884 71.9126 46.7434C71.8884 46.9324 71.9513 47.0196 72.1499 47.0535C72.9104 47.1698 73.6419 47.3878 74.3297 47.7318C76.7274 48.9236 78.2581 50.8276 78.8781 53.4342C79.5175 56.1182 78.8684 58.5213 77.1973 60.6724C76.9309 61.0164 76.616 61.3167 76.2963 61.6074C76.18 61.714 76.1268 61.8303 76.1268 61.9853C76.1268 63.3806 76.1268 64.7808 76.1171 66.1761C76.1171 66.3941 76.1946 66.4523 76.4029 66.4523C77.1488 66.4426 77.8996 66.4426 78.6456 66.4523C80.6461 66.4668 82.1235 67.7556 82.385 69.7468C82.4383 70.1586 82.3996 70.5801 82.4093 70.9968C82.4287 72.0869 82.3705 73.1769 82.448 74.267C82.511 75.1973 81.7844 75.735 81.082 75.6963C80.4087 75.6575 80.4088 75.6866 80.4088 76.3552C80.4088 77.3241 80.4087 78.298 80.4136 79.2669C80.4136 80.1002 79.9437 80.6089 79.1154 80.6526C79.0767 80.6526 79.0282 80.638 78.9943 80.6962C79.1009 80.7543 79.2365 80.7059 79.3286 80.7785H61.9972H61.9923ZM43.2756 2.49534C37.1433 2.49534 31.0061 2.49534 24.8737 2.49534C22.3937 2.49534 19.9136 2.49534 17.4335 2.49534C17.2446 2.49534 17.1332 2.51956 17.1332 2.75212C17.1332 4.38483 17.1138 6.0224 17.0945 7.65511C17.0945 7.84406 17.1526 7.92642 17.3464 7.95065C18.1311 8.03786 18.9158 8.13475 19.6811 8.32855C21.9335 8.90024 23.9873 9.8789 25.8038 11.3517C27.8382 13.0038 29.3979 15.029 30.4345 17.4223C31.597 20.1015 32.0475 22.9116 31.6261 25.833C31.3064 28.0471 30.6573 30.1401 29.4561 32.049C28.0755 34.234 26.356 36.0605 24.1229 37.3977C22.0352 38.6477 19.7877 39.3647 17.3851 39.6409C17.2059 39.6602 17.1284 39.7135 17.1284 39.9025C17.1284 40.4209 17.1042 40.9393 17.1042 41.4625C17.1042 44.069 17.1042 46.6707 17.1042 49.2773C17.1042 54.9797 17.1042 60.6869 17.1042 66.3893C17.1042 67.5036 17.0799 68.6179 17.1235 69.7371C17.1332 69.9697 17.201 70.0714 17.4335 70.0375C17.4771 70.0326 17.5207 70.0375 17.5595 70.0375C31.195 70.0375 44.8305 70.0375 58.466 70.0375C58.5241 70.0375 58.5871 70.0375 58.6452 70.0375C58.7954 70.0472 58.8487 69.9745 58.8632 69.8243C59.0618 67.8767 60.5634 66.491 62.5155 66.4571C63.3147 66.4426 64.114 66.4474 64.9132 66.4571C65.136 66.4571 65.2038 66.3845 65.2038 66.1616C65.1942 64.8341 65.1845 63.5018 65.2038 62.1743C65.2038 61.8545 65.1118 61.6413 64.8841 61.4233C62.3556 58.9815 61.5661 55.4787 62.8013 52.3053C62.9321 51.971 62.9321 51.9662 62.5785 51.9662C49.4177 51.9662 36.2569 51.9662 23.1009 51.9662C22.7667 51.9662 22.7618 51.9662 22.7618 52.3101C22.7618 55.0378 22.7618 57.7606 22.757 60.4883C22.757 60.7208 22.8199 60.7983 23.0573 60.7935C34.1255 60.7887 45.1986 60.7886 56.2669 60.7838C56.3686 60.7838 56.4703 60.7935 56.5721 60.7838C56.79 60.7693 56.8675 60.8662 56.8675 61.089C56.8578 61.6946 56.8675 62.3002 56.8675 62.901C56.8675 63.1691 56.7303 63.3047 56.4558 63.308C44.8838 63.308 33.3118 63.308 21.7446 63.308C21.6186 63.308 21.4879 63.308 21.3619 63.2837C20.6935 63.1529 20.2914 62.6636 20.2866 61.9611C20.2866 58.9718 20.2866 55.9825 20.2866 52.9933C20.2866 52.2423 20.2818 51.4962 20.2866 50.7453C20.2963 50.1251 20.6838 49.6697 21.2844 49.5195C21.4927 49.4662 21.7059 49.4759 21.919 49.4759C36.0389 49.4759 50.1587 49.4759 64.2786 49.4759C64.5354 49.4759 64.7243 49.4081 64.9132 49.2288C66.0854 48.1 67.4901 47.412 69.0644 47.0729C69.3017 47.0244 69.3793 46.9275 69.3793 46.6853C69.3744 32.0829 69.3744 17.4853 69.3744 2.88293C69.3744 2.61808 69.2404 2.48565 68.9724 2.48565C60.4084 2.48565 51.8444 2.48565 43.2805 2.48565L43.2756 2.49534ZM29.2574 23.8321C29.3979 16.3807 23.1154 10.1502 15.496 10.3392C8.53535 10.5136 2.16565 16.3468 2.47082 24.3166C2.74692 31.5742 8.763 37.3977 16.2952 37.2233C23.4206 37.0585 29.3349 31.0219 29.2526 23.8272L29.2574 23.8321ZM70.6338 66.4523C71.5251 66.4523 72.4164 66.4426 73.3076 66.4571C73.5595 66.4571 73.608 66.3651 73.5934 66.1422C73.5111 64.524 73.5692 62.9058 73.5595 61.2925C73.5595 60.745 73.7823 60.3042 74.2376 59.9941C74.2958 59.9553 74.3442 59.9117 74.3975 59.8681C76.0347 58.5261 76.6596 56.7383 76.4755 54.6938C76.2963 52.7074 75.2743 51.1668 73.5305 50.2026C71.4621 49.0592 69.3502 49.1174 67.3836 50.44C65.2426 51.879 64.3998 53.9477 64.8115 56.4961C65.044 57.9302 65.7899 59.1026 66.9283 59.9941C67.4514 60.4059 67.679 60.8904 67.6694 61.5493C67.6451 63.0754 67.6597 64.5967 67.6597 66.1228C67.6597 66.4523 67.6597 66.4571 67.9842 66.4571C68.8658 66.4571 69.7523 66.4571 70.6338 66.4571V66.4523ZM70.629 73.2012C73.6177 73.2012 76.6063 73.2012 79.5998 73.206C79.8614 73.206 79.9292 73.1285 79.9244 72.8717C79.9099 71.9754 79.9244 71.084 79.9195 70.1877C79.9195 69.4658 79.4012 68.9425 78.6843 68.9425C73.3512 68.9425 68.0181 68.9425 62.685 68.9425C61.8519 68.9425 61.3529 69.4512 61.3481 70.2797C61.3433 71.1324 61.3481 71.9851 61.3481 72.833C61.3481 73.0752 61.4708 73.1963 61.7162 73.1963C64.6904 73.1963 67.6597 73.1963 70.6338 73.1963L70.629 73.2012ZM70.6338 78.109C71.2974 78.109 71.961 78.109 72.6198 78.109C74.2764 78.109 75.933 78.109 77.5896 78.109C77.7785 78.109 77.8899 78.0848 77.8851 77.8522C77.8706 77.1982 77.8754 76.5393 77.8851 75.8852C77.8851 75.7108 77.8124 75.6381 77.6429 75.6381C77.3862 75.6381 77.1343 75.6381 76.8776 75.6381C72.489 75.6381 68.0956 75.6381 63.7071 75.6381C63.4746 75.6381 63.368 75.706 63.3777 75.9627C63.3922 76.5587 63.3825 77.1546 63.3825 77.7505C63.3825 78.1042 63.3826 78.109 63.7313 78.109C66.0322 78.109 68.333 78.109 70.6338 78.109Z" fill="#0E2B72"/>
<path d="M48.7098 10.3633C43.7351 10.3633 38.7556 10.3633 33.7809 10.3633C33.4322 10.3633 33.4273 10.3633 33.4273 10.0047C33.4273 9.38944 33.437 8.77899 33.4225 8.16369C33.4128 7.89723 33.5145 7.81486 33.7616 7.83424C33.965 7.84878 34.1684 7.83424 34.3719 7.83424C43.7738 7.83424 53.1758 7.83424 62.5778 7.83424C63.0089 7.83424 63.4448 7.85362 63.8759 7.85847C63.997 7.85847 64.0455 7.91661 64.0455 8.02804C64.0455 8.73539 64.0455 9.44274 64.0455 10.1501C64.0455 10.2906 63.9728 10.3487 63.842 10.3536C63.7403 10.3536 63.6386 10.3536 63.5369 10.3536C58.5961 10.3536 53.6505 10.3536 48.7098 10.3536V10.3633Z" fill="#0E2B72"/>
<path d="M48.715 39.8008C43.7307 39.8008 38.7463 39.8008 33.762 39.8008C33.4374 39.8008 33.4277 39.7911 33.4277 39.4762C33.4277 38.8366 33.4326 38.1971 33.4277 37.5625C33.4277 37.3541 33.5004 37.2669 33.7087 37.2766C33.9315 37.2863 34.1495 37.2766 34.3723 37.2766C43.7743 37.2766 53.1762 37.2766 62.5782 37.2766C63.0093 37.2766 63.4452 37.296 63.8764 37.3008C64.012 37.3008 64.0556 37.3687 64.0556 37.4898C64.0556 38.1874 64.0556 38.8851 64.0556 39.5828C64.0556 39.762 63.949 39.7959 63.8085 39.7959C63.3774 39.7959 62.9415 39.8008 62.5104 39.8008C57.9135 39.8008 53.3215 39.8008 48.7247 39.8008H48.715Z" fill="#0E2B72"/>
<path d="M50.3385 17.7226C45.9112 17.7226 41.4888 17.7226 37.0615 17.7226C36.816 17.7226 36.6934 17.5999 36.6934 17.3544C36.6934 16.7343 36.6982 16.1093 36.6934 15.4891C36.6934 15.2808 36.766 15.1936 36.9743 15.1984C37.2698 15.2033 37.5701 15.1984 37.8656 15.1984C46.1728 15.1984 54.4801 15.1984 62.7873 15.1984C63.1506 15.1984 63.5187 15.2178 63.882 15.2227C64.0031 15.2227 64.0564 15.276 64.0564 15.3922C64.0564 16.1093 64.0564 16.8215 64.0564 17.5385C64.0564 17.6548 63.9886 17.7081 63.882 17.7129C63.7706 17.7178 63.6592 17.7178 63.5526 17.7178C59.1544 17.7178 54.7513 17.7178 50.3531 17.7178L50.3385 17.7226Z" fill="#0E2B72"/>
<path d="M50.3375 25.082C45.9102 25.082 41.4878 25.082 37.0605 25.082C36.815 25.082 36.6907 24.9592 36.6875 24.7138C36.6875 24.0936 36.6923 23.4686 36.6875 22.8485C36.6875 22.6402 36.7553 22.553 36.9636 22.5578C37.2688 22.5627 37.5739 22.5578 37.8791 22.5578C46.1766 22.5578 54.479 22.5578 62.7766 22.5578C63.1399 22.5578 63.508 22.5772 63.8713 22.582C63.9924 22.582 64.0457 22.6353 64.0457 22.7516C64.0457 23.4686 64.0457 24.1808 64.0457 24.8979C64.0457 25.0141 63.9779 25.0674 63.8713 25.0723C63.7599 25.0771 63.6485 25.0771 63.5419 25.0771C59.1437 25.0771 54.7406 25.0771 50.3424 25.0771L50.3375 25.082Z" fill="#0E2B72"/>
<path d="M50.3375 32.4414C45.9102 32.4414 41.4878 32.4414 37.0605 32.4414C36.815 32.4414 36.6907 32.3186 36.6875 32.0731C36.6875 31.453 36.6923 30.828 36.6875 30.2079C36.6875 29.9995 36.7553 29.9123 36.9636 29.9172C37.2252 29.922 37.4916 29.9172 37.7532 29.9172C46.1137 29.9172 54.4693 29.9172 62.8299 29.9172C63.1786 29.9172 63.5274 29.9366 63.8713 29.9414C63.9924 29.9414 64.0457 29.9947 64.0457 30.111C64.0457 30.828 64.0457 31.5402 64.0457 32.2572C64.0457 32.3735 63.9779 32.4268 63.8713 32.4317C63.7599 32.4365 63.6485 32.4365 63.5419 32.4365C59.1437 32.4365 54.7406 32.4365 50.3424 32.4365L50.3375 32.4414Z" fill="#0E2B72"/>
<path d="M74.9021 55.3186C74.9166 56.0501 74.7083 56.7284 74.4031 57.3825C74.3111 57.5811 74.2239 57.6344 74.0059 57.4891C73.4731 57.1257 72.9209 56.7963 72.3687 56.4571C72.2234 56.3699 72.1701 56.2924 72.2524 56.1131C72.7562 55.023 72.0974 53.7585 70.9155 53.555C70.6588 53.5114 70.5813 53.4097 70.5861 53.1578C70.6007 52.5473 70.5861 51.932 70.5861 51.3216C70.5861 51.0551 70.6346 51.0115 70.901 51.0309C73.3133 51.1859 74.9457 53.3564 74.9021 55.3234V55.3186Z" fill="#0E2B72"/>
</svg>
