<svg width="101" height="100" viewBox="0 0 101 100" fill="none" xmlns="http://www.w3.org/2000/svg">
<path d="M33.2093 99.9891C32.5017 99.4077 32.3112 98.6577 32.3167 97.7556C32.3493 93.8267 32.3275 89.9031 32.333 85.9741C32.333 84.3276 32.8555 83.8113 34.5048 83.8059C37.6999 83.8004 40.895 83.7787 44.0901 83.8222C44.9392 83.833 45.2658 83.632 45.2658 82.7081C45.2386 66.2912 45.244 49.8797 45.2658 33.4628C45.2658 32.6422 45.0372 32.3596 44.1881 32.3596C36.0506 32.3868 27.9132 32.3813 19.7758 32.3596C19.0409 32.3596 18.9103 32.4629 19.1226 33.2454C21.044 40.2013 23.8145 46.8963 25.736 53.8358C26.8518 57.8626 25.7142 61.721 22.9055 64.9C19.2696 69.0083 14.6593 70.4375 9.41211 68.9105C4.15952 67.3835 1.07328 63.6664 0.16973 58.2865C-0.135083 56.4878 -0.0479939 54.6456 0.583405 52.8305C2.48305 47.3799 4.26838 41.8913 6.09182 36.4136C6.3041 35.7778 6.47284 35.1365 6.59803 34.4735C7.20765 31.1586 9.8149 29.0175 13.2114 29.0121C19.7322 29.0067 26.2585 28.9958 32.7793 29.0284C33.672 29.0284 34.0258 28.7947 34.2326 27.8546C35.4519 22.3279 38.7994 18.6163 44.1663 16.8013C45.0426 16.5024 45.3529 16.122 45.2658 15.2471C45.2005 14.5841 45.2222 13.9048 45.2603 13.2364C45.3365 11.8778 45.097 10.6714 44.3677 9.4324C42.8218 6.79678 43.6165 3.4547 46.0333 1.44402C48.2921 -0.44167 51.8465 -0.485144 54.1707 1.34077C56.6201 3.2645 57.5454 6.65549 56.0213 9.28024C55.1994 10.6932 55.0198 12.0626 55.0742 13.5788C55.1069 14.4808 54.8565 15.5134 55.2158 16.2579C55.575 16.9969 56.7453 16.9263 57.5345 17.2849C62.1666 19.4043 65.0514 22.9366 66.1074 27.9035C66.2925 28.7838 66.6136 29.0501 67.4899 29.0393C72.4649 29.0012 77.4399 29.0121 82.4204 29.023C85.425 29.0284 87.9669 30.8597 88.6908 33.7453C89.1644 35.6473 89.8829 37.4406 90.5741 39.2557C92.4139 44.0868 94.2918 48.9015 96.1424 53.7272C96.5888 54.8901 97.0895 56.0096 97.7645 57.0638C99.0654 59.1017 99.7403 61.384 100.198 63.7371V68.5736C100.149 68.7692 100.089 68.9594 100.051 69.1551C98.2979 78.8444 89.442 85.1862 79.6607 83.757C68.5949 82.1375 61.7148 70.3506 65.7209 59.9114C66.3632 58.2376 67.5498 56.8356 68.1595 55.1835C70.8592 47.8908 74.0707 40.7882 76.3295 33.3323C76.5582 32.5824 76.5418 32.3705 75.6764 32.3705C69.1882 32.4031 62.7 32.4031 56.2119 32.3705C55.3464 32.3705 55.047 32.5878 55.0525 33.4954C55.0797 49.9069 55.0797 66.3184 55.0525 82.7244C55.0525 83.6537 55.3954 83.8385 56.2336 83.8276C59.4287 83.7896 62.6184 83.8059 65.8135 83.8113C67.4573 83.8113 67.9798 84.333 67.9798 85.985C67.9798 89.914 67.9635 93.8375 67.9962 97.7665C68.0016 98.6686 67.8111 99.4185 67.1035 100H33.2093V99.9891ZM96.8936 66.1064C96.6486 57.9224 90.4598 51.7926 82.3768 51.7436C74.4843 51.6947 67.92 58.2865 68.0125 66.1336C68.1105 74.2524 74.321 80.5399 82.453 80.529C90.6667 80.5127 96.6976 74.1709 96.8936 66.1064ZM50.1319 96.696C54.6007 96.696 59.064 96.6797 63.5328 96.7123C64.3602 96.7177 64.6487 96.4732 64.6323 95.6308C64.5833 93.1528 64.5888 90.6693 64.6323 88.1859C64.6432 87.387 64.3711 87.1534 63.5872 87.1534C54.6225 87.1751 45.6522 87.1751 36.6875 87.1534C35.9472 87.1534 35.6805 87.3816 35.6914 88.1315C35.7295 90.6096 35.7404 93.093 35.6859 95.5765C35.6642 96.4732 35.9581 96.7177 36.8344 96.7123C41.2651 96.6742 45.7012 96.696 50.1319 96.696ZM50.121 29.0121C54.0183 29.0121 57.9155 29.0121 61.8128 29.0121C62.2918 29.0121 62.847 29.1697 62.6891 28.2622C61.9489 24.0832 57.7141 20.1216 53.4631 19.6706C51.4165 19.4532 49.3808 19.4206 47.3342 19.6271C42.7184 20.0999 38.7776 23.5235 37.689 27.9904C37.4822 28.8491 37.7108 29.0338 38.5327 29.0284C42.3973 28.9958 46.2619 29.0121 50.1265 29.0121H50.121ZM48.6133 57.9768C48.6133 66.1934 48.6133 74.4154 48.6133 82.6321C48.6133 82.9853 48.4446 83.5124 48.8147 83.6591C49.6366 83.9798 50.551 83.92 51.3838 83.7135C51.9499 83.5722 51.6886 82.8983 51.6886 82.4636C51.6995 66.3618 51.6995 50.2601 51.6995 34.1638C51.6995 32.1857 51.9118 32.3976 49.9196 32.3868C48.6187 32.3813 48.6133 32.3868 48.6133 33.7345C48.6133 41.8207 48.6133 49.9014 48.6133 57.9876V57.9768ZM13.059 53.1892C15.6499 53.1892 18.2354 53.1674 20.8263 53.2C21.621 53.2109 21.9421 53.0805 21.6373 52.1838C20.3691 48.5048 19.1498 44.8095 17.9306 41.1088C17.7346 40.511 17.6257 40.2556 16.9454 40.7447C14.496 42.5271 11.5785 42.538 9.15628 40.7719C8.43235 40.2447 8.32349 40.5327 8.11665 41.1577C6.91373 44.8258 5.69447 48.4831 4.448 52.1349C4.17585 52.9392 4.30648 53.2055 5.19915 53.1946C7.82272 53.1511 10.4463 53.1783 13.0644 53.1783L13.059 53.1892ZM13.0481 56.553C10.1578 56.553 7.26753 56.5693 4.3718 56.5421C3.64787 56.5367 3.47369 56.7486 3.53901 57.4714C4.00711 62.6611 8.79704 66.5575 14.017 65.9434C18.6871 65.3945 22.1653 61.884 22.53 57.4007C22.5898 56.6888 22.3667 56.5367 21.719 56.5421C18.8287 56.5639 15.9384 56.553 13.0427 56.553H13.0481ZM91.2491 50.6188C89.8937 47.1028 88.6309 43.8314 87.3681 40.5545C87.194 40.098 86.9926 40.2665 86.6986 40.4675C83.5961 42.6358 81.212 42.6521 78.2129 40.4838C77.7611 40.1578 77.625 40.2447 77.4508 40.7012C76.2479 43.864 75.0286 47.0213 73.8148 50.184C73.7876 50.2601 73.8257 50.3633 73.8366 50.5155C79.5682 47.5919 85.2671 47.5756 91.2436 50.6133L91.2491 50.6188ZM53.2944 6.55767C53.3216 4.97086 51.8683 3.4547 50.2408 3.38949C48.6133 3.31885 47.0511 4.81871 47.0185 6.48159C46.9858 8.10644 48.5316 9.66608 50.17 9.65521C51.7757 9.64434 53.2671 8.17165 53.2944 6.55767ZM13.0372 32.3976C11.3825 32.3976 9.86389 33.9247 9.8911 35.5713C9.91832 37.1798 11.4152 38.6579 13.0209 38.6688C14.6593 38.6797 16.2051 37.12 16.167 35.4952C16.1343 33.8812 14.6375 32.4085 13.0372 32.4031V32.3976ZM85.5774 35.5006C85.5501 33.8921 84.0642 32.4139 82.453 32.3976C80.7983 32.3868 79.2743 33.9138 79.3015 35.5604C79.3232 37.207 80.9072 38.7286 82.5238 38.6634C84.1513 38.5981 85.6046 37.0874 85.5774 35.4952V35.5006ZM50.1755 13.0353C49.1304 13.0353 48.6078 13.5534 48.6078 14.5895C48.6078 15.6257 49.1485 16.1365 50.2299 16.122C51.9553 16.122 51.6778 16.1818 51.6941 14.2363C51.705 13.0353 51.6941 13.0353 50.1755 13.0408V13.0353Z" fill="#0E2B72"/>
<path d="M82.8379 55.7856C84.4708 55.7856 86.1037 55.7856 87.7367 55.7856C87.9435 55.7856 88.1503 55.7856 88.3572 55.791C89.3805 55.8399 89.9956 56.3453 89.9683 57.0953C89.9411 57.8778 89.3642 58.3017 88.2973 58.3071C87.6768 58.3071 87.0508 58.3234 86.4303 58.3071C85.9459 58.2908 86.0003 58.4321 86.1201 58.8451C86.4902 60.1602 87.1706 60.8177 88.6457 60.5895C89.3968 60.4754 89.9629 61.1329 89.9683 61.8122C89.9683 62.4371 89.424 63.1382 88.7219 63.0403C87.2141 62.8338 86.6263 63.562 85.9949 64.8119C84.9879 66.8063 83.1536 67.7464 80.8947 67.7845C80.6606 67.7845 80.4266 67.7736 80.1925 67.7899C80.0456 67.8008 79.8333 67.7899 79.7625 67.8823C79.6156 68.0725 79.8387 68.2029 79.9422 68.3333C81.3084 70.0614 82.68 71.7787 84.0463 73.5013C84.596 74.1915 85.1458 74.8762 85.6901 75.5663C86.3922 76.4684 86.4086 77.1368 85.7445 77.664C85.1185 78.1639 84.4164 77.9846 83.7088 77.0934C81.6241 74.4849 79.5503 71.8656 77.4764 69.2517C77.2369 68.9474 76.9702 68.6539 76.7743 68.3279C75.9796 67.0128 76.8342 65.4206 78.3746 65.3445C79.436 65.2901 80.4974 65.4151 81.5533 65.2086C82.4351 65.0347 83.1373 64.5891 83.6707 63.8827C83.8068 63.7033 84.0136 63.5023 83.9102 63.2631C83.7959 62.9969 83.5019 63.0947 83.2842 63.0947C81.5207 63.0893 79.7571 63.0947 77.999 63.0947C77.7649 63.0947 77.5309 63.0947 77.2968 63.0947C76.3062 63.0675 75.6584 62.5458 75.6802 61.7905C75.702 61.0134 76.3007 60.5569 77.3404 60.5569C79.3597 60.5514 81.3846 60.5569 83.404 60.5569C83.6054 60.5569 83.8666 60.6438 83.9918 60.4591C84.1497 60.2254 83.9211 60.0189 83.8013 59.8341C83.1373 58.8233 82.1684 58.3451 80.9818 58.318C79.7625 58.2908 78.5433 58.318 77.3295 58.3071C76.279 58.3071 75.6911 57.856 75.6802 57.0735C75.6693 56.3181 76.2844 55.8073 77.3186 55.7965C79.1584 55.7747 80.9981 55.791 82.8379 55.791V55.7856Z" fill="#FFB400"/>
</svg>
