<svg width="12" height="13" viewBox="0 0 12 13" fill="none" xmlns="http://www.w3.org/2000/svg">
<g clip-path="url(#clip0_3233_26844)">
<path d="M3.24269 11.2424C3.13486 11.5183 3.022 11.5963 2.74235 11.5966C1.98932 11.597 1.23592 11.5974 0.482892 11.5966C0.168379 11.5966 0.000159752 11.4303 0.000159752 11.119C-0.00019969 8.91014 0.000159752 6.70126 0.000159752 4.49238C0.000159752 4.1779 0.165503 4.01189 0.478938 4.01153C1.22298 4.01082 1.96739 4.01475 2.71144 4.00903C2.9138 4.0076 3.08382 4.05017 3.20172 4.24409C3.23658 4.20294 3.26534 4.17182 3.29122 4.13819C4.1449 3.02766 4.90943 1.85918 5.59022 0.636322C5.82637 0.211647 6.18366 -0.00766633 6.67358 0.000204635C6.76164 0.00163572 6.85653 0.0116533 6.93633 0.0456416C7.44566 0.262809 7.88562 0.56763 8.1419 1.07531C8.30437 1.3973 8.32665 1.74148 8.24758 2.09281C8.08439 2.81873 7.92264 3.54536 7.76125 4.27163C7.75262 4.30956 7.75011 4.34891 7.7422 4.40723C7.80582 4.40723 7.85758 4.40723 7.9097 4.40723C8.61816 4.40723 9.32626 4.40329 10.0347 4.4083C11.1684 4.41617 12.0289 5.3013 11.9994 6.4272C11.9905 6.76816 11.8977 7.09015 11.7083 7.37458C10.8988 8.58993 10.0962 9.81029 9.2666 11.012C8.82233 11.6557 8.17173 11.9769 7.38707 11.9909C6.57581 12.0052 5.76419 12.0009 4.95292 11.9923C4.33612 11.9855 3.80091 11.7601 3.34873 11.3419C3.31638 11.3119 3.28439 11.2811 3.24305 11.2424H3.24269ZM3.24988 7.64935C3.24988 8.32733 3.25168 9.00566 3.24809 9.68364C3.24737 9.79097 3.26929 9.87934 3.33902 9.96556C3.48244 10.1423 3.61436 10.3283 3.75274 10.5097C4.07265 10.9287 4.49715 11.1387 5.02625 11.1383C5.7836 11.1383 6.5413 11.138 7.29865 11.1383C7.86621 11.1387 8.31156 10.9076 8.62715 10.4378C9.4039 9.2815 10.1828 8.12662 10.9477 6.96243C11.0509 6.80537 11.1195 6.6018 11.1325 6.41504C11.177 5.76855 10.6857 5.26767 10.0297 5.26516C9.11527 5.26159 8.20085 5.26516 7.28643 5.26409C6.88349 5.26373 6.7088 5.04013 6.79651 4.64801C7.00175 3.73068 7.20483 2.81264 7.40792 1.8946C7.4719 1.60517 7.38455 1.36653 7.15415 1.18085C7.06717 1.11073 6.97623 1.04525 6.88673 0.978351C6.62146 0.780861 6.49134 0.813061 6.31557 1.09498C5.74945 2.00408 5.18944 2.91711 4.60426 3.81404C4.24087 4.37145 3.83218 4.89916 3.33902 5.35389C3.27361 5.41435 3.24809 5.47374 3.24844 5.56104C3.25132 6.25691 3.25024 6.95313 3.25024 7.64899L3.24988 7.64935ZM2.37895 10.7355V4.8777H0.869652V10.7355H2.37859H2.37895Z" fill="#575757"/>
</g>
<defs>
<clipPath id="clip0_3233_26844">
<rect width="12" height="12" fill="white" transform="translate(0 0.5)"/>
</clipPath>
</defs>
</svg>
