<svg width="97" height="74" viewBox="0 0 97 74" fill="none" xmlns="http://www.w3.org/2000/svg">
<path d="M24.4592 0.851562C24.4388 0.882392 24.3624 0.913222 24.3981 0.938913C24.6171 1.10334 24.5203 1.33456 24.5203 1.53495C24.5203 17.8027 24.5203 34.0705 24.5203 50.3383C24.5203 50.4102 24.5254 50.4873 24.5203 50.5592C24.4999 50.7545 24.5662 50.8367 24.7801 50.8315C25.473 50.8213 26.1709 50.8213 26.8638 50.8315C27.0828 50.8315 27.144 50.7545 27.144 50.5438C27.1389 49.141 27.144 47.7434 27.144 46.3407C27.144 46.0632 27.1898 45.8012 27.2764 45.5443C28.8506 40.9404 30.491 36.3622 32.0958 31.7737C32.8039 29.7441 33.5171 27.7196 34.2304 25.6951C35.8198 21.1786 37.4042 16.6569 38.9937 12.1403C39.656 10.2546 40.3183 8.36885 40.9805 6.47797C41.0264 6.33924 41.1079 6.27244 41.2505 6.27758C41.3066 6.27758 41.3626 6.27758 41.4237 6.27758C48.4235 6.27758 55.4233 6.27758 62.4231 6.27758C63.0854 6.27758 62.9937 6.22619 62.9937 6.86334C62.9937 16.9087 62.9937 26.954 62.9937 36.9993C62.9937 37.0815 62.9937 37.1637 62.9937 37.2459C62.9937 37.3744 63.0498 37.4258 63.172 37.4206C63.2535 37.4206 63.3351 37.4206 63.4166 37.4206C74.4461 37.4206 85.4756 37.4206 96.5051 37.4206C96.984 37.4206 96.9381 37.3795 96.9381 37.8625C96.9381 45.4929 96.9381 53.1232 96.9381 60.7587C96.9381 61.2365 96.9789 61.1954 96.5 61.1954C95.206 61.1954 93.9171 61.1954 92.6231 61.1954C92.4143 61.1954 92.3429 61.2365 92.3582 61.4678C92.6894 66.4981 89.4595 71.1945 84.849 72.8593C83.6773 73.2806 82.4648 73.5427 81.2268 73.5427C78.6592 73.5376 76.3412 72.736 74.3085 71.1431C72.0924 69.4064 70.6813 67.1507 70.1005 64.3811C69.8916 63.4049 69.8152 62.4081 69.9018 61.4112C69.9171 61.2519 69.8661 61.1954 69.7184 61.2006C69.6471 61.2006 69.5707 61.2006 69.4994 61.2006C65.271 61.2006 61.0425 61.2006 56.8192 61.2006C56.376 61.2006 56.3862 61.2006 56.4015 61.6373C56.4626 63.3227 56.1926 64.9566 55.5201 66.5033C54.0478 69.874 51.5515 72.0834 48.0466 73.1265C47.1346 73.3988 46.1922 73.553 45.2446 73.5427C42.5598 73.5221 40.1552 72.6486 38.0818 70.9324C35.8249 69.057 34.4851 66.642 34.0062 63.7337C33.8839 62.9835 33.9247 62.2385 33.9196 61.4934C33.9196 61.2674 33.8585 61.1954 33.6292 61.2006C31.5863 61.2108 29.5435 61.2006 27.4955 61.2006C27.1389 61.2006 27.1389 61.2006 27.1389 60.846C27.1389 59.0476 27.1389 57.2544 27.1389 55.456C27.1389 55.158 26.9945 55.0089 26.7058 55.0089C26.069 55.0089 25.4322 55.0192 24.7903 55.0089C24.5713 55.0089 24.5101 55.0809 24.5152 55.2915C24.5203 57.1465 24.5152 59.0014 24.5152 60.8563C24.5152 61.2057 24.5152 61.2057 24.1637 61.2057C16.6188 61.2057 9.0688 61.2057 1.5239 61.2057C1.13162 61.2057 1.13672 61.2057 1.13672 60.8152C1.13672 59.7464 1.13672 58.6725 1.13672 57.6038C1.13672 57.2184 1.13672 57.2184 1.51371 57.2184C7.67801 57.2184 13.8423 57.2184 20.0066 57.2184C20.2444 57.2184 20.3632 57.0968 20.3632 56.8536C20.3632 38.4123 20.3632 19.9659 20.3632 1.52468C20.3632 0.866978 20.3429 0.959466 20.9134 0.980019C20.9542 0.980019 20.9898 0.98002 21.0306 0.969743C20.8217 0.887531 20.5874 0.985158 20.3836 0.866978H24.4541L24.4592 0.851562ZM58.8315 33.8495C58.8315 28.6188 58.8315 23.3829 58.8315 18.1521C58.8315 15.6909 58.8315 13.2245 58.8315 10.7633C58.8315 10.5783 58.8214 10.4601 58.5768 10.4601C53.7778 10.4601 48.9788 10.4601 44.1799 10.4601C43.9914 10.4601 43.9048 10.5269 43.8436 10.7016C43.5278 11.5854 43.2425 12.4795 42.9266 13.3633C42.1421 15.547 41.383 17.7411 40.6188 19.93C39.8598 22.088 39.1058 24.2461 38.3518 26.4042C37.6029 28.5366 36.854 30.6741 36.1051 32.8065C35.2645 35.206 34.4189 37.6056 33.5783 40.0001C32.9211 41.8807 32.2588 43.7561 31.6016 45.6367C31.4692 46.017 31.2909 46.3766 31.2909 46.798C31.296 50.1738 31.296 53.5548 31.2909 56.9307C31.2909 57.1465 31.3571 57.2184 31.5711 57.2133C32.4779 57.203 33.3898 57.1619 34.2915 57.2287C34.913 57.2749 35.2238 57.0437 35.5193 56.5145C36.5025 54.7623 37.8933 53.4007 39.6203 52.3987C41.0722 51.556 42.621 51.0319 44.297 50.9035C45.1223 50.8418 45.9527 50.8469 46.7679 50.9754C48.1077 51.1861 49.3762 51.6331 50.5632 52.3062C51.8623 53.0461 52.9678 53.9967 53.9103 55.1631C54.3739 55.7334 54.7509 56.3603 55.1126 56.9975C55.2043 57.1619 55.3214 57.2184 55.5099 57.2184C56.4983 57.2081 57.4866 57.2184 58.48 57.2184C58.7178 57.2184 58.8366 57.0951 58.8366 56.8484C58.8366 49.1873 58.8366 41.521 58.8366 33.8598L58.8315 33.8495ZM77.895 41.6186C73.0298 41.6186 68.1646 41.6186 63.3045 41.6186C63.1211 41.6186 62.9784 41.6032 62.9784 41.8755C62.9835 46.9008 62.9835 51.926 62.9784 56.9563C62.9784 57.1413 63.0243 57.2184 63.2281 57.2184C65.7702 57.2133 68.3123 57.2184 70.8545 57.2184C70.9971 57.2184 71.099 57.1773 71.1754 57.0437C71.3028 56.8125 71.4454 56.5915 71.583 56.3654C72.8006 54.3615 74.4766 52.8663 76.5858 51.89C77.7931 51.3299 79.0617 50.96 80.4066 50.8983C81.2166 50.8572 82.0266 50.8675 82.8214 50.996C83.6416 51.1296 84.4465 51.3556 85.226 51.6691C86.9377 52.3576 88.3896 53.4109 89.6072 54.7983C90.1931 55.4662 90.677 56.2113 91.105 56.9923C91.2018 57.167 91.324 57.2287 91.5176 57.2184C91.8335 57.203 92.1544 57.1978 92.4754 57.2184C92.7199 57.2338 92.8014 57.1619 92.8014 56.905C92.7963 51.926 92.7963 46.9521 92.7963 41.9731C92.7963 41.6237 92.7963 41.6237 92.4448 41.6237C87.5949 41.6237 82.7501 41.6237 77.9001 41.6237L77.895 41.6186ZM81.1708 55.0141C77.4111 54.9833 74.013 58.1125 74.0334 62.2539C74.0538 66.1384 77.2277 69.391 81.2115 69.3755C84.9916 69.3601 88.2928 66.2361 88.2877 62.1717C88.2827 58.1022 84.8948 54.9884 81.1708 55.0141ZM52.2699 62.1768C52.2699 58.2563 49.0451 55.0295 45.1631 55.0089C41.3473 54.9935 38.0054 58.1895 38.0206 62.2231C38.0308 66.0922 41.1945 69.3807 45.1733 69.3755C49.1164 69.3653 52.3106 66.0357 52.2699 62.1768Z" fill="#0E2B72"/>
<path d="M0.765625 27.5501C0.86242 27.5449 0.959218 27.5347 1.05601 27.5347C5.95179 27.5347 10.8527 27.5347 15.7485 27.5347C16.1203 27.5347 16.1254 27.5347 16.1254 27.92C16.1254 36.1515 16.1254 44.3882 16.1356 52.6197C16.1356 52.8561 16.0592 52.9331 15.8249 52.9331C10.8068 52.9229 5.78367 52.9229 0.765625 52.9229C0.765625 44.4653 0.765625 36.0128 0.765625 27.5552V27.5501ZM4.90234 40.2365C4.90234 42.97 4.90234 45.7087 4.90234 48.4423C4.90234 48.6427 4.91762 48.7557 5.17234 48.7557C7.33749 48.7455 9.50773 48.7506 11.6729 48.7506C11.9938 48.7506 11.9938 48.7506 11.9938 48.4115C11.9938 42.9546 11.9938 37.5029 11.9938 32.0461C11.9938 31.7172 11.9938 31.7172 11.6729 31.7172C9.5332 31.7172 7.38843 31.7172 5.24876 31.7172C5.0246 31.7172 4.91082 31.8286 4.90743 32.0512C4.90743 34.7796 4.90743 37.5081 4.90743 40.2365H4.90234Z" fill="#FFB400"/>
</svg>
