<svg width="485" height="573" viewBox="0 0 485 573" fill="none" xmlns="http://www.w3.org/2000/svg">
<g clip-path="url(#clip0_32_5)">
<path d="M238.239 573.062H237.114C235.58 572.331 234.033 571.601 232.5 570.87C213.284 560.444 193.83 550.425 174.91 539.479C158.62 530.064 142.33 520.425 127.138 509.38C108.57 495.876 91.1266 480.813 73.2052 466.424C71.686 464.907 70.1527 463.375 68.6335 461.857C63.8226 456.925 58.8429 452.148 54.257 447.033C48.7428 440.878 43.4958 434.471 38.2206 428.091C26.6998 414.138 17.6969 398.611 10.6072 382.044C4.67089 368.175 0.239787 353.618 0.197586 338.512C-0.111888 253.135 0.000647834 167.785 0.141318 82.4356C0.141318 79.5269 1.68869 76.6182 2.51864 73.7095C2.81404 73.4285 3.09538 73.1475 3.39079 72.8664C6.61213 70.8992 9.59433 68.2154 13.0829 67.0912C32.3688 60.8804 51.7531 54.9506 71.1515 49.1051C124.381 33.0301 177.582 16.8848 230.938 1.28749C237.142 -0.525173 244.499 -0.244141 250.928 1.0205C261.351 3.08609 271.479 6.71141 281.706 9.77466C321.699 21.7185 361.691 33.7186 401.683 45.6625C423.15 52.07 444.728 58.1403 466.068 64.9132C473.073 67.1334 481.753 68.4542 483.863 77.4192C485.157 82.9274 485.284 88.801 485.255 94.5059C485.002 174.853 484.833 255.186 484.06 335.533C483.947 346.451 481.584 357.608 478.644 368.189C470.401 397.852 453.084 422.4 432.406 444.588C417.495 460.593 401.937 476.035 384.283 489.146C383.846 489.455 383.41 489.75 382.96 490.059C372.973 497.296 363.013 504.56 352.998 511.769C328.24 529.586 301.92 544.874 275.038 559.207C266.19 563.928 257.244 568.467 248.339 573.076H238.225L238.239 573.062Z" fill="url(#paint0_linear_32_5)"/>
<mask id="mask0_32_5" style="mask-type:alpha" maskUnits="userSpaceOnUse" x="0" y="0" width="486" height="574">
<path d="M238.239 573.062H237.114C235.58 572.331 234.033 571.601 232.5 570.87C213.284 560.444 193.83 550.425 174.91 539.479C158.62 530.064 142.33 520.425 127.138 509.38C108.57 495.876 91.1266 480.813 73.2052 466.424C71.686 464.907 70.1527 463.375 68.6335 461.857C63.8226 456.925 58.8429 452.148 54.257 447.033C48.7428 440.878 43.4958 434.471 38.2206 428.091C26.6998 414.138 17.6969 398.611 10.6072 382.044C4.67089 368.175 0.239787 353.618 0.197586 338.512C-0.111888 253.135 0.000647834 167.785 0.141318 82.4356C0.141318 79.5269 1.68869 76.6182 2.51864 73.7095C2.81404 73.4285 3.09538 73.1475 3.39079 72.8664C6.61213 70.8992 9.59433 68.2154 13.0829 67.0912C32.3688 60.8804 51.7531 54.9506 71.1515 49.1051C124.381 33.0301 177.582 16.8848 230.938 1.28749C237.142 -0.525173 244.499 -0.244141 250.928 1.0205C261.351 3.08609 271.479 6.71141 281.706 9.77466C321.699 21.7185 361.691 33.7186 401.683 45.6625C423.15 52.07 444.728 58.1403 466.068 64.9132C473.073 67.1334 481.753 68.4542 483.863 77.4192C485.157 82.9274 485.284 88.801 485.255 94.5059C485.002 174.853 484.833 255.186 484.06 335.533C483.947 346.451 481.584 357.608 478.644 368.189C470.401 397.852 453.084 422.4 432.406 444.588C417.495 460.593 401.937 476.035 384.283 489.146C383.846 489.455 383.41 489.75 382.96 490.059C372.973 497.296 363.013 504.56 352.998 511.769C328.24 529.586 301.92 544.874 275.038 559.207C266.19 563.928 257.244 568.467 248.339 573.076H238.225L238.239 573.062Z" fill="url(#paint1_linear_32_5)"/>
</mask>
<g mask="url(#mask0_32_5)">
<path d="M3.62158 553.159C46.1203 312.155 275.94 116.788 516.946 116.788" stroke="white" stroke-width="7.24267" stroke-miterlimit="10"/>
</g>
</g>
<defs>
<linearGradient id="paint0_linear_32_5" x1="242.629" y1="0" x2="242.629" y2="573.076" gradientUnits="userSpaceOnUse">
<stop stop-color="#FFB400"/>
<stop offset="1" stop-color="white" stop-opacity="0"/>
</linearGradient>
<linearGradient id="paint1_linear_32_5" x1="242.629" y1="0" x2="242.629" y2="573.076" gradientUnits="userSpaceOnUse">
<stop stop-color="#FFB400"/>
<stop offset="1" stop-color="white" stop-opacity="0"/>
</linearGradient>
<clipPath id="clip0_32_5">
<rect width="485" height="573" fill="white"/>
</clipPath>
</defs>
</svg>
