<svg width="101" height="101" viewBox="0 0 101 101" fill="none" xmlns="http://www.w3.org/2000/svg">
<path d="M7.65232 100.001C7.62495 99.7661 7.42248 99.788 7.26923 99.7552C6.3607 99.5694 5.95569 99.2252 5.90096 98.3236C5.78602 96.422 5.69297 94.5041 6.37164 92.679C7.63592 89.2967 10.0933 87.2476 13.6235 86.4881C14.023 86.4007 14.4444 86.3733 14.8604 86.3733C16.0918 86.3788 17.3233 86.3733 18.5547 86.3733C19.2389 86.3733 19.2443 86.3733 19.2389 85.7012C19.2224 84.1877 19.3921 82.6905 20.027 81.3025C21.4116 78.2481 23.7979 76.4831 27.1092 75.9585C27.651 75.8711 28.1928 75.8875 28.7401 75.8875C41.7332 75.8875 54.7263 75.9039 67.7194 75.8711C72.1198 75.8602 76.1973 79.2535 76.646 83.9144C76.7117 84.5756 76.7117 85.2313 76.7008 85.8925C76.7008 86.2586 76.7993 86.3952 77.1824 86.3843C78.4412 86.3624 79.7 86.3406 80.9534 86.3843C85.6602 86.5263 89.1521 89.7284 89.9402 94.0997C90.1919 95.4876 90.0825 96.8865 90.077 98.2853C90.077 99.0503 89.3764 99.6951 88.5828 99.777C88.446 99.7934 88.3037 99.7989 88.1505 99.859L88.5117 100.001H7.6578H7.65232ZM47.9999 96.5532C60.6975 96.5532 73.395 96.5532 86.0926 96.5532C86.2349 96.5532 86.3772 96.5477 86.5195 96.5532C86.7439 96.5641 86.8479 96.4712 86.8588 96.2362C86.9738 93.8538 86.1364 91.9304 84.0949 90.6026C83.0222 89.9032 81.8291 89.6136 80.5538 89.6136C68.1026 89.6136 55.6513 89.6136 43.2 89.6136C33.9669 89.6136 24.7339 89.6136 15.4953 89.6136C14.1599 89.6136 12.8737 89.865 11.779 90.6627C9.99482 91.9578 9.03706 93.6899 9.13557 95.9412C9.16294 96.5532 9.13557 96.5532 9.75403 96.5532C22.5008 96.5532 35.2531 96.5532 47.9999 96.5532ZM47.9725 86.3788C56.1274 86.3788 64.2823 86.3788 72.4427 86.3788C72.678 86.3788 72.9079 86.3733 73.1433 86.3788C73.3731 86.3843 73.4771 86.2804 73.4716 86.0509C73.4497 85.3024 73.5099 84.5538 73.395 83.8052C72.9955 81.2534 70.5435 79.1223 67.9548 79.1223C54.6661 79.1223 41.372 79.1223 28.0834 79.1223C25.6424 79.1223 23.2944 80.9802 22.6924 83.3516C22.479 84.1822 22.5501 85.0237 22.5391 85.8597C22.5337 86.3843 22.5391 86.3843 23.0426 86.3843C31.3562 86.3843 39.6644 86.3843 47.978 86.3843L47.9725 86.3788Z" fill="#0E2B72"/>
<path d="M100.182 43.9812C100.094 43.8392 100.111 43.6807 100.111 43.5277C100.111 41.0087 100.111 38.4843 100.111 35.9652C100.111 35.8123 100.1 35.6538 100.182 35.5117V43.9812Z" fill="black"/>
<path d="M83.3234 33.0798C88.2273 33.0798 93.1257 33.0798 98.0296 33.0798C98.2595 33.0798 98.5003 33.0743 98.7247 33.1235C99.5511 33.3038 99.9999 33.9213 99.9562 34.8939C99.8303 37.7408 99.9288 40.5876 99.9014 43.4345C99.9014 43.8607 99.9562 44.2869 99.9616 44.7131C99.9671 45.7349 99.3158 46.4234 98.2923 46.4835C98.0187 46.4999 97.7505 46.4889 97.4768 46.4889C87.7895 46.4889 78.1021 46.4889 68.4148 46.4889C67.8182 46.4889 67.8237 46.489 67.8237 47.0791C67.8237 49.4997 67.8346 51.9204 67.8182 54.341C67.8182 54.7344 67.9222 54.8656 68.3218 54.8492C69.088 54.8219 69.8542 54.8273 70.615 54.8437C71.7807 54.8656 72.4102 55.5049 72.4211 56.6688C72.4321 57.6906 72.4211 58.7124 72.4211 59.7397C72.4211 61.6303 72.4211 63.5209 72.4211 65.4115C72.4211 66.783 71.8683 67.3458 70.4946 67.3622C69.9911 67.3622 69.482 67.3185 68.9785 67.3185C55.8814 67.3185 42.7843 67.3185 29.6818 67.3131C28.9593 67.3131 28.2369 67.4333 27.509 67.324C26.7318 67.2092 26.2556 66.7776 26.1516 66.0071C26.1188 65.7667 26.0969 65.5153 26.0969 65.2749C26.0969 62.5046 26.0969 59.7342 26.0969 56.9638C26.0969 56.8491 26.0969 56.7289 26.1079 56.6141C26.2173 55.4065 26.7756 54.8765 27.9906 54.8547C28.7787 54.8383 29.5723 54.8437 30.3659 54.8547C30.656 54.8601 30.7491 54.7563 30.7491 54.4722C30.7436 50.7674 30.7436 47.0682 30.7491 43.3634C30.7491 43.0465 30.6724 42.9809 30.3714 43.0957C28.6145 43.7459 26.8084 44.2049 24.953 44.4453C23.4424 44.642 21.9155 44.642 20.4104 44.5109C16.0812 44.123 12.1734 42.5711 8.7527 39.9046C4.29213 36.4348 1.47898 31.9159 0.411724 26.3533C-0.540592 21.3973 0.165436 16.6325 2.46413 12.1737C4.74093 7.75316 8.17257 4.43092 12.6714 2.23431C15.2438 0.977537 17.953 0.26719 20.8044 0.0595501C25.3416 -0.268303 29.5614 0.764433 33.4911 2.98837C37.1471 5.0593 39.911 8.02091 41.9689 11.6655C42.3137 12.2775 42.642 12.895 42.8828 13.5507C43.0087 13.8895 43.1948 13.9878 43.5451 13.9878C48.3176 13.9769 53.0901 13.9824 57.8627 13.9769C62.066 13.9769 66.2639 13.9769 70.4672 13.9769C70.5712 13.9769 70.6752 13.9769 70.7792 13.9769C71.7698 13.9933 72.4156 14.5834 72.4211 15.567C72.443 18.6597 72.4375 21.7579 72.4211 24.8507C72.4211 25.7796 71.6987 26.4298 70.7135 26.4462C69.909 26.4626 69.1044 26.4681 68.2999 26.4462C67.9113 26.4353 67.8182 26.5774 67.8237 26.938C67.8401 28.8286 67.8401 30.7192 67.8237 32.6099C67.8237 32.9869 67.9387 33.0962 68.3108 33.0962C73.3187 33.0852 78.3211 33.0907 83.3289 33.0907L83.3234 33.0798ZM49.2371 54.8437C54.1793 54.8437 59.116 54.8437 64.0582 54.8437C64.4085 54.8437 64.5289 54.7563 64.5289 54.3847C64.518 45.2322 64.518 36.0796 64.5289 26.9271C64.5289 26.5282 64.4085 26.4298 64.0199 26.4298C57.6164 26.4408 51.2074 26.4353 44.8039 26.4189C44.3934 26.4189 44.2457 26.561 44.1636 26.9435C43.2441 31.1673 41.323 34.8666 38.2691 37.9539C37.1088 39.1287 35.7952 40.1231 34.4105 41.0138C34.0876 41.2215 33.9672 41.4619 33.9672 41.8389C33.9836 45.9808 33.9836 50.1227 33.9891 54.27C33.9891 54.8383 33.9891 54.8437 34.5747 54.8437C39.4622 54.8437 44.3551 54.8437 49.2426 54.8437H49.2371ZM41.4106 22.4847C41.4544 11.824 32.6592 3.12497 21.8662 3.37086C11.4948 3.60582 2.99504 12.2885 3.23585 22.9218C3.46025 32.8885 11.7902 41.7242 22.7638 41.4783C33.0368 41.2488 41.4708 32.812 41.4106 22.4901V22.4847ZM49.2043 64.0837C55.6078 64.0837 62.0113 64.0837 68.4203 64.0837C69.1372 64.0837 69.1318 64.0837 69.1318 63.357C69.1318 61.7887 69.1208 60.226 69.1318 58.6577C69.1318 58.1386 69.2084 58.1441 68.6008 58.1386C60.7689 58.1386 52.9369 58.1386 45.1104 58.1386C40.0423 58.1386 34.9742 58.1386 29.9007 58.1386C29.3917 58.1386 29.3863 58.1386 29.3863 58.6577C29.3863 60.2752 29.3863 61.8926 29.3863 63.51C29.3863 64.0837 29.3862 64.0837 29.9554 64.0837C36.3753 64.0837 42.7898 64.0837 49.2098 64.0837H49.2043ZM82.3219 36.3146C77.6534 36.3146 72.9903 36.3146 68.3218 36.3146C67.8073 36.3146 67.8128 36.3146 67.8128 36.8337C67.8128 38.7735 67.8128 40.7187 67.8128 42.6585C67.8128 43.2487 67.8128 43.2487 68.382 43.2487C77.6753 43.2487 86.974 43.2487 96.2673 43.2596C96.6285 43.2596 96.7325 43.1503 96.727 42.7951C96.7106 40.8007 96.7215 38.8063 96.7215 36.8173C96.7215 36.4822 96.5483 36.3146 96.2016 36.3146C91.5714 36.3146 86.9466 36.3146 82.3164 36.3146H82.3219ZM56.3959 17.2062C52.4772 17.2062 48.5639 17.2062 44.6452 17.2062C44.076 17.2062 44.065 17.2062 44.1909 17.7636C44.5576 19.3755 44.7054 21.0039 44.6397 22.6541C44.6178 23.2114 44.6233 23.2114 45.187 23.2114C51.0104 23.2114 56.8337 23.2114 62.6571 23.2114C63.7955 23.2114 64.9394 23.2988 66.0723 23.0912C66.1599 23.0748 66.2584 23.0748 66.3405 23.0967C67.1341 23.2879 67.9386 23.1841 68.7431 23.2223C69.0934 23.2387 69.192 23.0967 69.1755 22.7633C69.1099 21.2607 69.1044 19.7635 69.1153 18.2608C69.1153 18.0532 69.1099 17.8456 69.1153 17.6379C69.1263 17.3866 69.0332 17.25 68.7596 17.25C68.4202 17.25 68.0864 17.2117 67.7471 17.2117C63.9597 17.2117 60.1723 17.2117 56.385 17.2117L56.3959 17.2062Z" fill="#0E2B72"/>
<path d="M22.2428 11.12C24.1201 11.12 26.0028 11.12 27.8801 11.12C28.1209 11.12 28.3562 11.12 28.597 11.1255C29.7738 11.1856 30.4853 11.7593 30.4524 12.6281C30.4196 13.5297 29.7573 14.016 28.5314 14.0215C27.8144 14.0215 27.0975 14.0379 26.386 14.0215C25.8277 14.0051 25.8934 14.1636 26.0247 14.6444C26.4516 16.158 27.2342 16.9121 28.9309 16.6498C29.7956 16.5186 30.4469 17.2727 30.4524 18.0541C30.4524 18.7754 29.823 19.5786 29.0185 19.4693C27.2835 19.2344 26.6049 20.0704 25.8824 21.5075C24.7276 23.8024 22.615 24.8843 20.0153 24.9281C19.7471 24.9281 19.4789 24.9171 19.2107 24.9335C19.041 24.9445 18.8003 24.9335 18.7182 25.0428C18.5485 25.2614 18.8057 25.4144 18.9261 25.5619C20.4969 27.5454 22.0732 29.5289 23.6494 31.507C24.2788 32.2993 24.9191 33.0861 25.5431 33.8839C26.3531 34.9221 26.3695 35.6926 25.6088 36.2991C24.8918 36.8728 24.0817 36.6706 23.2663 35.6434C20.869 32.6435 18.4828 29.6273 16.0911 26.622C15.8119 26.2723 15.5109 25.9335 15.2811 25.5564C14.367 24.0429 15.3522 22.2123 17.12 22.1249C18.3405 22.0648 19.5665 22.2069 20.776 21.9719C21.794 21.7752 22.5986 21.2616 23.217 20.4419C23.3703 20.2343 23.6111 19.9993 23.4962 19.7261C23.3648 19.4201 23.0254 19.5349 22.7737 19.5294C20.7432 19.5185 18.7181 19.5294 16.6876 19.524C16.4194 19.524 16.1513 19.524 15.8831 19.524C14.7392 19.4912 13.9948 18.8901 14.0222 18.0268C14.0441 17.1306 14.7392 16.6061 15.9323 16.6061C18.2584 16.6006 20.5844 16.6061 22.9105 16.6006C23.1404 16.6006 23.4414 16.699 23.5837 16.4913C23.7643 16.2236 23.5071 15.9886 23.3648 15.7755C22.604 14.6116 21.4875 14.0597 20.1192 14.0324C18.7181 14.0051 17.3171 14.0324 15.9159 14.0215C14.7064 14.016 14.0332 13.5024 14.0222 12.6008C14.0113 11.732 14.7173 11.1473 15.905 11.1309C18.0231 11.1036 20.1411 11.1255 22.2592 11.1255L22.2428 11.12Z" fill="#FFB400"/>
</svg>
