<svg width="150" height="150" viewBox="0 0 150 150" fill="none" xmlns="http://www.w3.org/2000/svg">
<path d="M115.053 41.1819H96.8931V42.0719C96.8931 46.6919 96.8931 51.3119 96.8931 55.9319C96.8931 61.5219 92.7931 65.6019 87.2031 65.6119C86.2931 65.6119 85.3831 65.6119 84.4231 65.6119V78.1119H90.5731V84.3519H59.3631V78.1719H65.5331V65.6119C64.6131 65.6119 63.7031 65.6119 62.7931 65.6119C57.1431 65.6119 53.0531 61.5319 53.0531 55.9019C53.0531 51.3119 53.0531 46.7119 53.0531 42.1219C53.0531 41.8419 53.0531 41.5619 53.0531 41.2219H34.9531V34.9219H115.063V41.1819H115.053ZM90.6231 41.2319H59.3831C59.3531 41.3219 59.3231 41.3719 59.3231 41.4219C59.3231 46.4019 59.3031 51.3819 59.3231 56.3719C59.3231 57.7319 60.2631 58.9619 61.6131 59.1919C62.8931 59.4119 64.2331 59.3419 65.6031 59.4019V53.1419H84.4031V59.3519C85.5531 59.3519 86.6231 59.3919 87.6931 59.3519C89.2731 59.2819 90.6031 58.0019 90.6231 56.4219C90.6631 51.3919 90.6331 46.3519 90.6331 41.2519L90.6231 41.2319ZM78.0531 78.1019V59.4119H71.8831V78.1019H78.0531Z" fill="#0E2B72"/>
<path d="M71.8438 115.089V96.3594H78.1038V115.089H71.8438Z" fill="#FFB200"/>
<path d="M57.225 88.3984C58.675 89.8484 60.115 91.2884 61.475 92.6484C57.125 96.9984 52.725 101.398 48.345 105.778C47.015 104.418 45.565 102.948 44.125 101.488C48.445 97.1684 52.825 92.7884 57.215 88.3984H57.225Z" fill="#FFB200"/>
<path d="M92.78 88.4609C97.09 92.7709 101.48 97.1509 105.83 101.511C104.39 102.931 102.93 104.371 101.54 105.741C97.24 101.441 92.85 97.0509 88.5 92.7009C89.84 91.3709 91.29 89.9309 92.77 88.4609H92.78Z" fill="#FFB200"/>
</svg>
