<svg width="79" height="98" viewBox="0 0 79 98" fill="none" xmlns="http://www.w3.org/2000/svg">
<path d="M78.0254 96.1186C77.8155 96.1025 77.8531 96.2902 77.8101 96.3975C77.4924 97.1429 76.9109 97.4969 76.1249 97.5613C75.9364 97.5774 75.7426 97.5613 75.5488 97.5613C51.2076 97.5613 26.8717 97.5613 2.53049 97.5613C0.613778 97.5613 0.0161514 96.966 0.0161514 95.0513C0.0161514 76.2959 0.0161521 57.546 0 38.7906C0 37.5946 0.457642 36.8491 1.51291 36.3021C5.21174 34.3874 8.86212 32.3815 12.5717 30.4776C16.0283 28.7077 19.4417 26.8466 22.8983 25.0714C27.0386 22.9475 31.1251 20.7218 35.2385 18.5443C35.7608 18.2708 36.2722 17.9597 36.9076 18.0509C37.6344 18.1581 38.1243 18.555 38.3774 19.2362C38.6251 19.9066 38.4959 20.5073 38.0005 21.0329C37.5483 21.5048 36.956 21.7515 36.3961 22.0411C30.8236 24.9641 25.235 27.8549 19.6733 30.7994C14.5423 33.5132 9.40591 36.2163 4.248 38.8764C3.77959 39.1178 3.59653 39.3913 3.59653 39.9223C3.61807 47.4684 3.61268 55.0199 3.61268 62.566C3.61268 72.7991 3.61268 83.0322 3.61268 93.2599C3.61268 93.7212 3.83702 93.9518 4.28569 93.9518C21.6007 93.9518 38.9158 93.9518 56.2309 93.9518C56.6759 93.9518 56.8985 93.7355 56.8985 93.3028C56.8985 91.8869 56.8877 90.471 56.9039 89.0551C56.9039 88.6583 56.7908 88.5135 56.3762 88.5188C44.3268 88.5295 32.2719 88.5295 20.2224 88.5295C19.9102 88.5295 19.6033 88.5295 19.291 88.5295C18.2088 88.5135 17.5196 87.8538 17.4981 86.8079C17.4766 85.7031 18.1388 84.9737 19.2425 84.9415C20.1148 84.9147 20.987 84.9201 21.8592 84.9415C22.2684 84.9522 22.3922 84.8128 22.3922 84.4052C22.3761 80.3345 22.3814 76.2691 22.376 72.1984C22.3707 64.2661 28.0239 57.3958 35.8308 55.8619C43.3953 54.3709 51.0568 58.3719 54.1634 65.4192C55.1433 67.6343 55.6332 69.9458 55.6225 72.37C55.6063 76.3335 55.6225 80.3023 55.6225 84.2657C55.6225 84.9308 55.6225 84.9308 56.2901 84.9308C57.0439 84.9308 57.7976 84.9254 58.5514 84.9308C59.7628 84.9415 60.495 85.6602 60.495 86.8616C60.5004 89.0444 60.5058 91.2273 60.4896 93.4101C60.4896 93.8392 60.6296 93.9625 61.0496 93.9625C65.3245 93.9518 69.594 93.9518 73.869 93.9625C74.2728 93.9625 74.402 93.8445 74.402 93.4369C74.3912 76.1887 74.3858 58.9404 74.3804 41.6868C74.3804 41.365 74.3697 41.0325 74.4235 40.716C74.5581 39.8901 75.0965 39.3269 75.8341 39.209C76.6364 39.0749 77.3417 39.4342 77.7508 40.1851C77.8262 40.3245 77.8585 40.5015 78.0416 40.5551V96.1132L78.0254 96.1186ZM38.9373 84.9469C43.0938 84.9469 47.2449 84.9469 51.4014 84.9469C51.9936 84.9469 52.0044 84.9469 52.0044 84.3623C52.0098 81.4876 52.0259 78.6129 52.0098 75.7381C51.999 74.0916 52.0959 72.4397 51.929 70.7879C51.6437 67.9024 50.5292 65.3763 48.5425 63.2686C45.8504 60.4153 42.5231 59.0477 38.5874 59.1496C35.2439 59.2354 32.3634 60.4421 29.9622 62.7376C27.2325 65.3495 25.9834 68.605 25.9672 72.3432C25.9457 76.3496 25.9672 80.3613 25.9672 84.373C25.9672 84.9469 25.9726 84.9469 26.5648 84.9469C30.689 84.9469 34.8132 84.9469 38.9373 84.9469Z" fill="#0E2B72"/>
<path d="M59.2142 0.577148C60.1941 1.33873 61.0555 2.22367 61.917 3.11397C66.1004 7.44213 69.7992 12.135 72.4858 17.5519C73.4388 19.4719 74.1764 21.4778 74.5802 23.5909C74.9894 25.7362 74.8494 27.8762 74.3002 29.9786C72.9865 35.0254 69.8584 38.5705 65.1743 40.7909C64.0544 41.3219 62.9453 40.8177 62.6169 39.6646C62.4661 39.1337 62.5792 38.651 62.8969 38.2005C63.4837 37.3799 63.9683 36.511 64.3344 35.5671C64.9428 33.9957 64.9589 32.3759 64.7974 30.7348C64.7651 30.413 64.6305 30.3486 64.3344 30.4023C63.5376 30.5471 62.7353 30.6972 61.9277 30.7616C57.7497 31.0888 55.2946 27.962 54.6754 25.0283C54.6001 24.6689 54.5408 24.3096 54.4708 23.9556C54.277 23.9556 54.2716 24.1058 54.2286 24.2023C53.0171 26.9805 52.5111 29.8874 52.6833 32.9123C52.7749 34.4783 53.1302 35.9961 53.7225 37.4603C53.8624 37.8036 53.9755 38.1522 54.1155 38.4954C54.4062 39.2195 54.207 39.8255 53.674 40.3458C53.1141 40.8928 52.4411 40.9733 51.7465 40.6568C50.5997 40.1366 49.496 39.5198 48.5323 38.7153C45.0165 35.7816 42.9975 32.0273 42.5021 27.4793C42.1468 24.2399 43.1267 21.3383 44.828 18.6353C46.2225 16.4149 48.0477 14.5645 49.9644 12.8054C51.2997 11.5772 52.6887 10.4026 54.0455 9.20128C55.483 7.92482 56.4576 6.38556 56.7483 4.46015C56.8291 3.92919 56.8075 3.39823 56.7914 2.87263C56.7644 1.92869 57.0229 1.15638 57.9489 0.72732C57.9974 0.705867 58.0189 0.636144 58.0566 0.593238C58.4389 0.593238 58.8265 0.593238 59.2088 0.593238L59.2142 0.577148ZM68.4747 33.7918C70.1599 31.6734 70.9998 29.3511 71.1667 26.7874C71.3013 24.7655 70.8329 22.8347 70.1169 20.9576C69.0562 18.1633 67.4841 15.6586 65.7666 13.2291C64.0921 10.8585 62.1431 8.72395 60.2264 6.55719C59.9464 6.24076 59.9356 6.53574 59.8872 6.69663C59.2734 8.60596 58.2612 10.2418 56.7698 11.604C55.3161 12.9234 53.7709 14.1355 52.3118 15.4495C50.422 17.1443 48.753 19.0268 47.4716 21.2311C46.7986 22.3895 46.2333 23.6016 46.131 24.9478C45.8887 28.1819 46.6478 31.1478 48.6561 33.7489C48.8176 33.9581 48.963 34.1887 49.243 34.355C49.1299 33.218 48.9576 32.1346 49.0222 31.0459C49.173 28.3052 49.7275 25.6504 50.772 23.1029C52.005 20.0941 53.8463 17.5036 56.1614 15.235C56.7267 14.6825 57.5397 14.5967 58.2074 14.9722C58.9288 15.3798 59.2788 16.1253 59.1011 16.9137C59.0473 17.1443 58.9827 17.3695 58.9127 17.5948C58.2881 19.488 57.9435 21.4188 58.0835 23.4193C58.132 24.1487 58.2989 24.8513 58.6381 25.4949C59.198 26.5461 59.9895 27.1736 61.287 27.1253C62.6815 27.077 64.006 26.8142 65.3251 26.3905C66.5096 26.0098 67.4625 26.5139 67.7963 27.7099C68.2001 29.158 68.5178 30.6275 68.4801 32.1507C68.4693 32.6602 68.4801 33.1751 68.4801 33.7918H68.4747Z" fill="#FFB400"/>
<path d="M12.5175 70.364C13.5835 70.364 14.6442 70.3426 15.7102 70.364C17.1693 70.3962 17.9984 71.6673 17.4385 72.9813C17.1316 73.6946 16.5286 73.995 15.8071 74.0057C13.6051 74.0325 11.403 74.0432 9.20094 74.0057C8.08644 73.9842 7.36497 73.1958 7.38113 72.1768C7.40266 71.1256 8.14566 70.3962 9.27631 70.3694C10.3531 70.3426 11.4353 70.364 12.5121 70.364H12.5175Z" fill="#0E2B72"/>
<path d="M65.4429 74.0215C64.35 74.0215 63.257 74.043 62.164 74.0162C61.2811 73.9947 60.6834 73.512 60.4788 72.7183C60.2635 71.887 60.5488 71.0932 61.2218 70.6588C61.5826 70.4282 61.9971 70.3692 62.4117 70.3692C64.4953 70.3584 66.5736 70.3424 68.6572 70.3692C70.127 70.3906 70.9669 71.651 70.4232 72.9543C70.0893 73.7427 69.4163 73.9947 68.6357 74.0162C67.575 74.043 66.509 74.0215 65.4483 74.0215H65.4429Z" fill="#0E2B72"/>
<path d="M37.1814 45.8269C37.1814 44.7221 37.1653 43.6172 37.1814 42.5124C37.2084 41.1823 38.3552 40.3778 39.6043 40.8015C40.3688 41.0643 40.7564 41.6596 40.7672 42.4159C40.7995 44.7006 40.8049 46.9854 40.7672 49.2701C40.7511 50.2569 39.9596 50.8737 38.8936 50.8523C37.9191 50.8308 37.1976 50.1497 37.1814 49.1843C37.1599 48.0634 37.1814 46.9425 37.1814 45.8269Z" fill="#0E2B72"/>
<path d="M24.3674 55.9101C24.3028 56.5162 24.0444 57.1008 23.3822 57.4333C22.7307 57.7551 22.1008 57.7015 21.5085 57.2724C21.1101 56.9828 20.814 56.5913 20.4694 56.248C19.3549 55.1325 18.235 54.0169 17.1205 52.896C16.9536 52.7297 16.7867 52.5635 16.636 52.3811C15.963 51.5766 16.0006 50.6488 16.7329 49.9247C17.449 49.2222 18.3912 49.1632 19.1503 49.8818C20.4532 51.1207 21.7077 52.4133 22.9784 53.6844C23.2906 53.9955 23.5921 54.3173 23.8883 54.6498C24.179 54.9769 24.3513 55.3631 24.3674 55.9048V55.9101Z" fill="#0E2B72"/>
<path d="M53.5926 55.8189C53.5603 55.3362 53.8134 54.9232 54.1633 54.5692C55.6655 53.0622 57.1622 51.5551 58.6482 50.0373C59.725 48.9378 61.3564 49.3132 61.7548 50.697C61.9594 51.4103 61.7118 52.0056 61.2218 52.5151C60.678 53.0783 60.1127 53.62 59.5635 54.1724C58.5998 55.1324 57.6522 56.1031 56.6777 57.0471C55.8162 57.8784 54.7663 57.8623 54.018 57.0471C53.7111 56.7146 53.5926 56.3123 53.598 55.8189H53.5926Z" fill="#0E2B72"/>
</svg>
