<svg width="87" height="87" viewBox="0 0 87 87" fill="none" xmlns="http://www.w3.org/2000/svg">
<path d="M38.5573 86.0088C37.7606 85.5934 37.5521 84.8562 37.4238 84.0723C37.1457 82.3641 36.8409 80.6664 36.5789 78.9583C36.4934 78.3976 36.21 78.1432 35.6539 78.0394C33.2318 77.5825 30.9113 76.8141 28.6656 75.838C28.1202 75.5992 27.7887 75.6771 27.3877 76.0821C26.083 77.3852 24.741 78.6572 23.4043 79.9292C22.4258 80.8637 21.8376 80.9001 20.7415 80.1369C18.6509 78.6728 16.5602 77.2087 14.4696 75.7394C13.1115 74.7841 12.9885 74.2857 13.7531 72.8008C14.5338 71.2796 15.293 69.7481 16.1111 68.2476C16.4159 67.6921 16.3838 67.3131 15.9293 66.8251C14.3573 65.1429 12.9778 63.3154 11.8176 61.3425C11.4754 60.761 11.1385 60.4859 10.3739 60.6209C8.5025 60.9479 6.61506 61.1712 4.73296 61.4256C3.64219 61.5761 3.04335 61.2335 2.6958 60.2159C1.82961 57.6667 0.979452 55.1175 0.156033 52.558C-0.212901 51.4262 0.054443 50.8551 1.15055 50.2943C2.776 49.4585 4.40145 48.6174 6.05364 47.823C6.7113 47.5063 6.90913 47.0702 6.81824 46.3849C6.53485 44.1576 6.5402 41.9252 6.81824 39.6979C6.90379 39.0177 6.7113 38.6024 6.03224 38.2857C4.42818 37.5381 2.86155 36.7126 1.28422 35.913C0.0170149 35.2693 -0.228938 34.7033 0.209505 33.3639C1.01154 30.9237 1.81891 28.4836 2.64233 26.0486C3.04869 24.8441 3.65824 24.5118 4.94684 24.7039C6.70596 24.9687 8.46508 25.2023 10.2189 25.4931C10.9888 25.6177 11.47 25.41 11.855 24.7195C12.3523 23.8317 12.9458 22.9906 13.5607 22.1755C14.2076 21.3137 15.1326 21.1527 15.8705 21.6927C16.5816 22.2119 16.6832 23.0477 16.0737 23.92C15.1968 25.1816 14.3573 26.4588 13.6248 27.8034C13.181 28.6134 12.4699 28.8989 11.5449 28.7535C9.7911 28.4784 8.02664 28.2447 6.27286 27.9592C5.62589 27.8554 5.24626 27.9903 5.04308 28.6601C4.62602 30.0619 4.15015 31.4481 3.66358 32.8291C3.46575 33.3898 3.59408 33.6806 4.15015 33.9453C5.7756 34.7189 7.36897 35.5548 8.98373 36.3492C9.8927 36.7956 10.2563 37.4394 10.0959 38.4518C9.59861 41.5617 9.60396 44.682 10.128 47.7919C10.283 48.7057 9.83923 49.2768 9.06928 49.6713C7.44383 50.5072 5.81837 51.3587 4.17153 52.1478C3.56734 52.4386 3.47645 52.7553 3.68497 53.3471C4.18223 54.723 4.63137 56.1196 5.06981 57.5162C5.24091 58.0717 5.50291 58.269 6.13384 58.1599C7.85553 57.864 9.58792 57.6356 11.315 57.3864C12.657 57.1943 13.1489 57.4279 13.7799 58.5701C15.2449 61.2127 17.0575 63.601 19.1749 65.7815C20.0838 66.716 20.1694 67.1158 19.5919 68.2528C18.8059 69.8052 18.0039 71.3471 17.1751 72.8735C16.8971 73.3875 16.9185 73.7094 17.4425 74.0624C18.7043 74.9087 19.9395 75.7913 21.1692 76.6843C21.6184 77.0062 21.9552 77.0114 22.367 76.6168C23.6502 75.376 24.9548 74.1559 26.2541 72.9306C27.1578 72.0792 27.6122 71.9961 28.7137 72.5101C31.4941 73.808 34.3974 74.7374 37.4345 75.2877C38.9316 75.5577 39.2577 75.9263 39.493 77.3852C39.7443 78.9427 40.0277 80.5003 40.2576 82.063C40.3538 82.712 40.6533 82.9923 41.343 82.9768C42.8134 82.9456 44.2891 82.9508 45.7649 82.9768C46.4172 82.9872 46.6952 82.7068 46.7915 82.1046C47.0642 80.3965 47.385 78.6987 47.6577 76.9906C47.8074 76.0353 48.326 75.5265 49.3099 75.35C52.5287 74.7893 55.6192 73.8288 58.5493 72.4114C59.3459 72.0273 60.025 72.1934 60.6399 72.7853C61.9338 74.0157 63.2652 75.2098 64.5217 76.4766C65.0725 77.0322 65.4895 77.0166 66.083 76.5701C67.2005 75.729 68.3501 74.9347 69.5157 74.1611C70.0718 73.7925 70.2055 73.455 69.8686 72.8424C69.0184 71.29 68.2592 69.6909 67.4197 68.1334C66.9492 67.2612 67.0989 66.5707 67.7887 65.8802C69.9755 63.684 71.8149 61.2335 73.3066 58.5389C73.9108 57.4487 74.4027 57.2098 75.7074 57.3915C77.4344 57.6356 79.1668 57.864 80.8885 58.1599C81.4874 58.2638 81.8028 58.1599 81.9846 57.5681C82.4338 56.1144 82.915 54.6659 83.4229 53.2277C83.6154 52.6826 83.4229 52.4126 82.9417 52.1738C81.3537 51.3898 79.7764 50.5903 78.2097 49.7752C76.9746 49.1314 76.8035 48.8251 77.0013 47.496C77.4558 44.438 77.4451 41.38 76.9586 38.3324C76.8142 37.4394 77.1671 36.8372 77.9691 36.4374C79.632 35.6067 81.2842 34.7501 82.9631 33.9402C83.4817 33.6909 83.6047 33.4106 83.4176 32.8862C82.9203 31.474 82.4444 30.0619 82.006 28.6341C81.8135 28.0059 81.4446 27.8709 80.8404 27.9644C79.1133 28.2344 77.3863 28.4732 75.6593 28.7328C74.4616 28.9145 73.9108 28.686 73.328 27.6217C71.8469 24.9168 70.013 22.4663 67.8101 20.2805C67.0882 19.564 66.9652 18.8216 67.4358 17.9338C68.2645 16.3711 69.0291 14.7772 69.8793 13.2248C70.2001 12.6434 70.0771 12.3318 69.5478 11.9788C68.334 11.1689 67.1363 10.333 65.9654 9.46077C65.4253 9.05581 65.0671 9.04543 64.5752 9.54903C63.3722 10.7795 62.1049 11.9528 60.8591 13.147C59.902 14.0607 59.4422 14.1438 58.2338 13.5623C55.4374 12.2124 52.4913 11.3246 49.4222 10.7795C48.1924 10.5614 47.8876 10.2811 47.6577 9.061C47.3529 7.42039 47.0588 5.77459 46.8236 4.12359C46.7166 3.38117 46.4653 3.01774 45.6045 3.05927C44.1982 3.12677 42.7813 3.11119 41.3697 3.05927C40.664 3.03851 40.3859 3.31886 40.2843 3.95746C40.0277 5.63441 39.7443 7.31136 39.4395 8.98313C39.2043 10.2655 38.9209 10.5407 37.6323 10.7743C34.5364 11.335 31.5636 12.2384 28.7404 13.6038C27.6336 14.1386 27.1578 14.0348 26.2702 13.1885C24.9762 11.958 23.6823 10.7276 22.4151 9.47116C22.0141 9.07139 21.7039 9.02985 21.2441 9.37251C19.9929 10.2863 18.7257 11.1793 17.4425 12.0463C16.9666 12.3682 16.9131 12.6641 17.1751 13.1573C18.052 14.798 18.9022 16.4489 19.7202 18.1207C20.1961 19.0916 19.8272 20.0521 18.9236 20.3324C18.1215 20.5816 17.4264 20.3532 17.0361 19.6263C15.8117 17.3212 14.614 15.0056 13.4484 12.6745C13.0794 11.9425 13.2987 11.2519 13.9724 10.7691C16.2983 9.11292 18.6348 7.46712 20.9875 5.84727C21.8269 5.27098 22.4685 5.34367 23.2171 6.04456C24.6126 7.34251 26.0028 8.64566 27.3663 9.97995C27.7887 10.3953 28.163 10.5251 28.7404 10.2655C30.9808 9.26868 33.3174 8.54182 35.7288 8.05379C36.2849 7.93957 36.4881 7.67998 36.5683 7.17638C36.841 5.46827 37.1457 3.77055 37.4291 2.06245C37.7018 0.43741 38.1723 0.0168734 39.8566 0.0116816C42.2841 -0.00389386 44.7062 -0.00389386 47.1337 0.0116816C48.9356 0.027257 49.3687 0.432218 49.6521 2.17147C49.9248 3.84843 50.2349 5.52019 50.5022 7.19714C50.5824 7.71113 50.8177 7.94996 51.3631 8.05898C53.7692 8.55221 56.1111 9.26868 58.3514 10.2707C58.8754 10.5095 59.2444 10.4264 59.6507 10.0267C60.9714 8.73911 62.3242 7.48269 63.6662 6.21589C64.6447 5.29175 65.2008 5.22945 66.329 6.00822C68.5265 7.52942 70.7134 9.07139 72.8949 10.6185C73.8467 11.2935 74.0124 11.8905 73.4991 12.9393C72.665 14.6318 71.7988 16.314 70.9112 17.9805C70.6439 18.4841 70.6974 18.8528 71.0877 19.2629C72.6971 20.9554 74.0819 22.8193 75.2582 24.813C75.6272 25.4412 76.071 25.6125 76.7607 25.5087C78.5145 25.2335 80.279 24.9999 82.0327 24.7299C83.4336 24.517 83.995 24.8389 84.4495 26.1576C85.2997 28.6445 86.1498 31.1314 87 33.6183V35.0512C86.5188 35.5237 85.9467 35.8559 85.3371 36.1519C83.8881 36.8631 82.4605 37.6263 80.9955 38.3117C80.3699 38.6076 80.1507 38.9918 80.2309 39.6459C80.5196 41.9303 80.5142 44.2199 80.2309 46.5043C80.156 47.1273 80.3806 47.4908 80.9634 47.7711C82.53 48.5239 84.0699 49.3339 85.6205 50.1126C86.1445 50.3722 86.6311 50.6733 86.9893 51.1406V52.5736C86.8503 52.9006 86.6899 53.2277 86.5776 53.5652C85.8558 55.7146 85.1553 57.8744 84.4281 60.0186C84.0004 61.275 83.4924 61.5813 82.1664 61.4048C80.3485 61.1608 78.5198 60.9427 76.7179 60.6105C75.9587 60.4703 75.6058 60.7091 75.2582 61.301C74.0819 63.2946 72.6864 65.1429 71.0984 66.851C70.6813 67.3027 70.6332 67.6661 70.9166 68.1957C71.7667 69.7792 72.5795 71.3835 73.3922 72.9825C74.0231 74.2182 73.8948 74.7789 72.7666 75.5836C70.6172 77.1152 68.457 78.6364 66.2915 80.1472C65.2115 80.9001 64.6073 80.8377 63.6288 79.9084C62.2921 78.6364 60.95 77.3696 59.6507 76.0665C59.239 75.6563 58.8915 75.6044 58.3621 75.838C56.1806 76.8089 53.9189 77.5513 51.5609 77.9978C50.7856 78.1432 50.5022 78.5326 50.4006 79.2335C50.1654 80.8533 49.8766 82.4628 49.62 84.0826C49.4917 84.8666 49.2831 85.6038 48.4918 86.0192H38.5466L38.5573 86.0088Z" fill="#0E2B72"/>
<path d="M71.5847 43.0778C71.5847 58.1341 59.041 70.3037 43.5404 70.3244C27.8794 70.3452 15.4158 57.7551 15.4532 42.9948C15.4906 28.5148 27.6174 15.7326 43.5778 15.8001C59.2174 15.8676 71.5901 28.0008 71.5847 43.0778ZM43.5778 67.2405C56.2552 67.443 68.4942 57.4384 68.4782 43.0155C68.4621 29.3247 57.1375 18.8113 43.4869 18.8373C29.8844 18.8632 18.5544 29.3818 18.5865 43.1038C18.6186 57.4643 30.8415 67.4793 43.5778 67.2405Z" fill="#0E2B72"/>
<path d="M28.7393 43.0518C28.7393 40.6065 28.8249 38.1612 28.7126 35.721C28.6271 33.9091 30.0654 33.286 31.5839 34.1323C35.1984 36.1519 38.877 38.0729 42.5076 40.0717C43.2294 40.4663 43.8015 40.5027 44.534 40.0925C47.2716 38.5661 50.0466 37.0916 52.8163 35.612C53.3564 35.3264 53.458 35.1188 52.8538 34.7969C49.9504 33.2393 47.0524 31.6818 44.1651 30.1035C43.6251 29.8075 43.1866 29.9477 42.7054 30.2125C40.8607 31.2249 39.0107 32.2165 37.1607 33.2186C36.8666 33.3795 36.5725 33.5404 36.2624 33.6651C35.4978 33.9662 34.7332 33.7325 34.3322 33.1043C33.9044 32.4346 34.0274 31.5935 34.7385 31.1263C35.5459 30.5915 36.4228 30.145 37.2783 29.6777C38.9358 28.7744 40.6148 27.9021 42.2616 26.978C43.1545 26.4744 43.9672 26.5107 44.8602 26.9988C49.004 29.2624 53.1639 31.5053 57.3291 33.7325C58.0242 34.1064 58.3397 34.61 58.3343 35.3835C58.3183 40.4507 58.3183 45.5179 58.3343 50.58C58.3343 51.4574 57.9761 52.0389 57.2008 52.4542C52.9554 54.7282 48.7206 57.0178 44.4859 59.3074C43.8336 59.6604 43.2187 59.65 42.5717 59.297C38.337 57.0022 34.1023 54.7126 29.8568 52.4386C29.0762 52.0181 28.7287 51.4314 28.7393 50.554C28.7714 48.0515 28.7501 45.5491 28.7501 43.0466L28.7393 43.0518ZM41.9996 49.3962C41.9996 47.6102 41.9889 45.8243 42.0049 44.0383C42.0049 43.5503 41.8927 43.192 41.4168 42.9376C38.4386 41.3437 35.4657 39.7343 32.4929 38.1196C32.0063 37.8548 31.7871 37.886 31.7924 38.4986C31.8085 42.1329 31.8031 45.7672 31.7924 49.3962C31.7924 49.8323 31.9528 50.1127 32.3485 50.3256C35.332 51.9194 38.3103 53.5133 41.2724 55.1384C41.9568 55.5174 42.0103 55.2526 42.0049 54.6659C41.9836 52.9111 41.9996 51.1511 41.9943 49.3962H41.9996ZM55.2599 43.9916C55.2599 42.2056 55.2331 40.4196 55.2705 38.6336C55.2866 37.8704 55.046 37.8496 54.4418 38.1819C51.5812 39.7447 48.7153 41.2918 45.8387 42.8182C45.2505 43.1297 45.042 43.5295 45.0473 44.1733C45.0741 47.657 45.0687 51.1407 45.0473 54.6244C45.0473 55.2578 45.0954 55.5174 45.8173 55.1176C48.7527 53.5029 51.7042 51.9246 54.6664 50.3515C55.1476 50.0971 55.2652 49.7493 55.2652 49.2612C55.2492 47.5064 55.2599 45.7464 55.2599 43.9916Z" fill="#FFB400"/>
</svg>
