<svg width="100" height="100" viewBox="0 0 100 100" fill="none" xmlns="http://www.w3.org/2000/svg">
<path d="M24.46 50.0192C24.46 41.6925 24.46 33.3592 24.46 25.0325C24.46 23.6125 24.4533 22.1925 24.46 20.7792C24.4733 19.5258 25.18 18.6458 26.36 18.4058C27.0667 18.2658 27.7 18.4658 28.2467 18.9192C29.7733 20.1725 31.2933 21.4392 32.8133 22.6925C33.8867 23.5792 34.96 24.4725 36.0467 25.3525C36.72 25.8925 37.06 26.5792 37.0333 27.4392C36.9933 28.5792 36.98 29.7192 36.9 30.8525C36.8467 31.5392 37.0533 32.0525 37.5533 32.5192C38.3067 33.2192 39.02 33.9658 39.7267 34.7058C40.94 35.9792 42.1467 37.2658 43.3533 38.5525C44.0533 39.2992 44.14 40.2925 43.66 41.2792C43.4667 41.6725 43.28 42.0725 43.08 42.4725C42.94 42.7458 42.9533 42.9992 43.1133 43.2658C43.6267 44.1392 44.1333 45.0125 44.64 45.8858C44.7533 46.0858 44.9067 46.2325 45.12 46.3258C47 47.1925 48.8733 48.0658 50.7533 48.9392C51.26 49.1725 51.7733 49.3925 52.2733 49.6458C53.1267 50.0792 53.58 50.7858 53.5933 51.7458C53.6067 52.8125 53.6 53.8858 53.5933 54.9592C53.5933 55.2658 53.64 55.5592 53.74 55.8458C54.32 57.4858 54.9133 59.1325 55.4733 60.7792C55.6333 61.2592 56 61.5658 56.3067 61.9192C56.9 62.6058 57.5333 63.2525 58.1333 63.9325C58.4067 64.2392 58.72 64.4392 59.0933 64.5925C60.3667 65.1325 61.6333 65.6992 62.9067 66.2325C63.5867 66.5192 64.0467 66.9858 64.3533 67.6592C65.3933 69.9592 66.4333 72.2525 67.5867 74.4992C67.8 74.9192 68.06 75.1858 68.54 75.3258C69.5867 75.6325 70.6267 75.9858 71.62 76.4325C72.1933 76.6925 72.6667 77.0192 72.8067 77.6925C72.8667 77.9858 73.0133 78.2592 73.1133 78.5458C73.64 80.1258 72.5667 81.6192 70.9 81.6192C65.9067 81.6192 60.92 81.6192 55.9267 81.6192C46.2867 81.6192 36.64 81.6192 27 81.6192C26.5133 81.6192 26.0467 81.5592 25.6267 81.3058C24.84 80.8325 24.48 80.1125 24.4733 79.2058C24.4667 77.7192 24.4733 76.2258 24.4733 74.7392C24.4733 66.4925 24.4733 58.2458 24.4733 49.9992L24.46 50.0192ZM26.16 49.9925C26.16 57.7725 26.16 65.5592 26.16 73.3392C26.16 75.2925 26.16 77.2458 26.16 79.1992C26.16 79.7125 26.4133 79.9992 26.8867 79.9725C28.0267 79.9192 29.1667 79.9592 30.3067 79.9525C30.5467 79.9525 30.6867 79.8592 30.8067 79.6592C31.8333 77.9058 32.8667 76.1525 33.9 74.3992C34.1933 73.8992 34.6133 73.5592 35.16 73.3592C36.4667 72.8792 37.7667 72.3725 39.08 71.8992C39.4667 71.7592 39.72 71.5125 39.9333 71.1792C40.74 69.9325 41.56 68.6925 42.38 67.4458C42.4867 67.2792 42.62 67.1325 42.8133 67.0525C43.1533 66.9192 43.5533 67.0058 43.7667 67.2658C44 67.5392 44.0267 67.9725 43.8067 68.3058C42.9067 69.6858 41.9933 71.0658 41.0867 72.4458C40.78 72.9125 40.3467 73.2058 39.8267 73.3925C38.54 73.8725 37.26 74.3658 35.9733 74.8325C35.5933 74.9658 35.3467 75.1992 35.1533 75.5325C34.4 76.8325 33.6333 78.1192 32.8733 79.4125C32.7867 79.5658 32.5867 79.7392 32.68 79.8992C32.76 80.0258 33.0067 79.9458 33.18 79.9458C45.64 79.9458 58.0933 79.9458 70.5533 79.9458C70.6933 79.9458 70.8333 79.9458 70.9733 79.9392C71.4133 79.8992 71.64 79.5925 71.52 79.1592C71.44 78.8792 71.3267 78.6125 71.2333 78.3325C71.1667 78.1458 71.0467 78.0258 70.86 77.9458C69.9467 77.5592 69.02 77.2125 68.0733 76.9458C67.1533 76.6925 66.48 76.1992 66.0867 75.2992C65.7067 74.4392 65.24 73.6192 64.84 72.7658C64.16 71.3258 63.5067 69.8725 62.84 68.4258C62.72 68.1658 62.5933 67.9325 62.3067 67.8125C61.0267 67.2658 59.7467 66.7125 58.4733 66.1525C58.26 66.0592 58.1133 66.0792 57.9533 66.2592C57.06 67.2392 56.1667 68.2125 55.26 69.1858C55.0467 69.4125 54.9933 69.6658 55.06 69.9592C55.18 70.5058 55.3133 71.0458 55.4333 71.5925C55.5533 72.1258 55.6933 72.6525 55.8 73.1925C55.8867 73.6325 55.7267 73.9858 55.4067 74.1458C55.0733 74.3125 54.7 74.2658 54.4333 74.0192C54.2467 73.8392 54.1867 73.5992 54.1267 73.3658C53.8867 72.3392 53.6467 71.3058 53.4133 70.2725C53.22 69.4125 53.44 68.6725 54.0467 68.0325C54.9133 67.1192 55.7467 66.1858 56.6067 65.2725C56.78 65.0858 56.78 64.9658 56.6067 64.7858C56.04 64.1858 55.4933 63.5658 54.94 62.9525C54.52 62.4858 54.1 62.0325 53.8867 61.4125C53.2933 59.6725 52.6733 57.9458 52.0667 56.2125C51.9333 55.8325 51.8667 55.4525 51.8733 55.0525C51.8733 54.0258 51.8533 53.0058 51.88 51.9792C51.8933 51.5125 51.72 51.2525 51.3 51.0592C49.3333 50.1658 47.3733 49.2592 45.4067 48.3525C45.1044 48.2147 44.9355 48.3058 44.9 48.6258C44.8867 48.7858 44.86 48.9458 44.8467 49.1125C44.72 50.5725 44.6067 52.0325 44.4667 53.4858C44.3867 54.3458 43.96 54.9858 43.18 55.3858C42.26 55.8592 41.36 56.3725 40.4467 56.8525C40.1133 57.0258 39.92 57.2725 39.8 57.6258C39.3467 58.9925 38.8733 60.3525 38.4133 61.7125C38.3 62.0592 38.08 62.2658 37.72 62.3058C37.0133 62.3725 36.6133 61.8258 36.8533 61.1125C37.3333 59.7058 37.8267 58.2992 38.3 56.8925C38.5267 56.2258 38.9467 55.7525 39.56 55.4325C40.5067 54.9325 41.4467 54.4192 42.3867 53.9125C42.6067 53.7925 42.76 53.6392 42.7867 53.3792C42.8333 52.8925 42.88 52.4058 42.9267 51.9192C43.06 50.4258 43.1933 48.9325 43.3333 47.4458C43.36 47.1925 43.3067 46.9725 43.1733 46.7525C42.6467 45.8658 42.1267 44.9658 41.6067 44.0725C41.1867 43.3525 41.1667 42.6192 41.5 41.8658C41.68 41.4592 41.8667 41.0658 42.06 40.6658C42.3267 40.1192 42.32 39.9525 41.9067 39.5192C40.1333 37.6592 38.3533 35.8058 36.5867 33.9458C36.36 33.7125 36.2867 33.8525 36.2067 34.0592C35.7267 35.3725 35.2533 36.6792 34.7667 37.9858C34.66 38.2725 34.6467 38.5458 34.74 38.8325C34.8667 39.2192 34.9933 39.6058 35.1067 39.9925C35.52 41.4192 35.94 42.8525 36.34 44.2792C36.4467 44.6658 36.62 45.0458 36.62 45.4658C36.62 45.8858 36.36 46.1925 35.9733 46.2592C35.5467 46.3325 35.1933 46.1525 35.04 45.7658C34.9867 45.6392 34.9467 45.5058 34.9067 45.3725C34.2933 43.2725 33.68 41.1792 33.0733 39.0792C32.9333 38.5925 32.9467 38.1058 33.12 37.6392C33.74 35.9258 34.38 34.2125 35.0067 32.4992C35.0933 32.2725 35.2133 32.0392 35.2267 31.8058C35.2733 30.4792 35.26 29.1525 35.34 27.8325C35.38 27.1925 35.16 26.7858 34.6733 26.3858C32.2533 24.4258 29.86 22.4325 27.46 20.4458C27.18 20.2125 26.9133 19.9325 26.5067 20.1192C26.1 20.3058 26.1467 20.6992 26.1467 21.0592C26.1467 30.6992 26.1467 40.3458 26.1467 49.9858L26.16 49.9925Z" fill="#0E2B72" stroke="#0E2B72" stroke-width="2" stroke-miterlimit="10"/>
<path d="M54.0134 29.5542C54.0267 30.0008 53.8734 30.4008 53.68 30.7875C53.3467 31.4342 53.3534 31.5208 53.8467 32.0808C54.42 32.7208 54.9867 33.3675 55.56 34.0075C56.34 34.8808 56.4067 36.0075 55.7334 36.9542C55.5134 37.2675 55.2934 37.5808 55.0667 37.8875C54.4134 38.7808 53.2734 39.1275 52.28 38.6342C50.9267 37.9675 49.6001 37.2342 48.2734 36.5142C47.9001 36.3142 47.6267 35.9875 47.42 35.6075C46.6467 34.2008 45.88 32.7942 45.1134 31.3875C44.82 30.8542 44.8 30.2875 44.8934 29.6942C45.0467 28.7408 45.1667 27.7875 45.3134 26.8342C45.5534 25.2275 47.3 24.3742 48.72 25.1742C50.06 25.9208 51.3867 26.6942 52.72 27.4408C53.5534 27.9075 54.0067 28.5875 54.0134 29.5475V29.5542ZM46.52 30.1675C46.52 30.3342 46.5334 30.4942 46.62 30.6408C47.38 32.0275 48.14 33.4142 48.9 34.8008C48.9667 34.9275 49.0534 35.0342 49.18 35.1075C50.4134 35.7675 51.64 36.4275 52.8734 37.0742C53.2134 37.2542 53.4934 37.1742 53.74 36.8675C53.92 36.6408 54.0867 36.4008 54.2534 36.1608C54.6334 35.6142 54.6134 35.4275 54.1734 34.9475C53.5467 34.2608 52.92 33.5742 52.3134 32.8675C51.9867 32.4875 51.8334 32.0408 51.8 31.5275C51.76 30.9342 52 30.4408 52.24 29.9342C52.4734 29.4342 52.4 29.2142 51.92 28.9275C51.58 28.7208 51.2334 28.5342 50.8934 28.3408C49.9134 27.7875 48.9334 27.2208 47.9467 26.6808C47.4867 26.4275 47.08 26.6075 46.9934 27.1075C46.82 28.1275 46.6801 29.1542 46.5334 30.1742L46.52 30.1675Z" fill="#FFB200"/>
<path d="M58.1019 46.5202C58.1019 46.1802 58.1353 45.8403 58.1019 45.5069C57.9686 44.2669 58.5153 43.3536 59.4486 42.6136C59.6219 42.4736 59.7819 42.3269 59.9419 42.1736C60.7819 41.3802 61.9553 41.2936 62.9219 41.9402C64.3619 42.9069 65.7953 43.8736 67.2419 44.8269C68.2419 45.4936 68.5886 46.4002 68.2819 47.5669C68.1753 47.9602 68.0753 48.3536 67.9619 48.7469C67.7686 49.4203 67.3553 49.9136 66.7219 50.2203C65.9353 50.6003 65.1419 50.9536 64.3686 51.3536C63.4419 51.8336 62.5753 51.6203 61.6953 51.2203C61.0286 50.9203 60.3486 50.6469 59.6686 50.3736C58.6553 49.9602 58.1153 49.1869 58.1086 48.0803C58.1086 47.5536 58.1086 47.0336 58.1086 46.5069L58.1019 46.5202ZM59.7953 46.5402C59.7953 47.0536 59.8019 47.5603 59.7953 48.0736C59.7819 48.4669 59.9753 48.7003 60.3219 48.8403C61.1619 49.1803 62.0019 49.5269 62.8353 49.8736C63.0886 49.9802 63.3219 49.9803 63.5686 49.8603C64.3419 49.4869 65.1219 49.1269 65.9019 48.7602C66.1219 48.6536 66.2753 48.4936 66.3419 48.2469C66.4486 47.8536 66.5553 47.4603 66.6753 47.0736C66.7819 46.7203 66.6753 46.4602 66.3753 46.2602C64.8953 45.2736 63.4153 44.2936 61.9353 43.3069C61.6353 43.1069 61.3686 43.1336 61.1153 43.3669C60.7486 43.7069 60.3886 44.0536 60.0286 44.3936C59.8619 44.5469 59.7953 44.7269 59.7953 44.9536C59.7953 45.4736 59.7953 46.0002 59.7953 46.5202V46.5402Z" fill="#FFB200"/>
<path d="M73.0671 64.5273C72.8004 64.474 72.5338 64.5607 72.2671 64.7007C71.6471 65.0207 71.0204 65.3273 70.3938 65.634C69.3538 66.1407 68.0138 65.8007 67.4671 64.7807C66.8738 63.6673 66.3871 62.4873 65.9938 61.2873C65.7871 60.654 65.9604 59.9873 66.3671 59.474C66.9204 58.774 67.5271 58.1007 68.2204 57.534C69.0671 56.8407 70.1671 56.874 71.0538 57.554C71.8671 58.174 72.6671 58.814 73.4738 59.4473C73.8604 59.7473 74.2471 60.0407 74.6338 60.3407C75.4871 61.014 75.7671 62.0473 75.3871 63.0607C75.0404 63.9807 74.1404 64.5607 73.0738 64.5207L73.0671 64.5273ZM72.9204 62.834C72.9871 62.834 73.0338 62.834 73.0804 62.834C73.4138 62.874 73.6871 62.7807 73.8138 62.4473C73.9471 62.1007 73.7871 61.8407 73.5204 61.6273C72.3738 60.7207 71.2271 59.814 70.0738 58.914C69.7538 58.6607 69.4804 58.6607 69.2004 58.934C68.7138 59.4007 68.2538 59.894 67.7938 60.3807C67.5871 60.594 67.5804 60.8473 67.6938 61.1207C68.0604 61.974 68.4138 62.834 68.7804 63.6873C68.9738 64.1407 69.2871 64.274 69.7338 64.0673C70.1538 63.874 70.5604 63.6407 70.9804 63.4473C71.6071 63.154 72.2004 62.7473 72.9204 62.8273V62.834Z" fill="#FFB200"/>
</svg>
