<svg width="111" height="110" viewBox="0 0 111 110" fill="none" xmlns="http://www.w3.org/2000/svg">
<path d="M0 82.4283C0.934278 81.164 2.29831 81.4817 3.56269 81.4692C5.23817 81.4505 5.23813 81.4692 5.23813 79.7814C5.23813 72.8807 5.23813 65.9738 5.23813 59.0731C5.23813 57.1985 5.79251 56.6504 7.6922 56.6504C15.5588 56.6504 23.4192 56.6504 31.2858 56.6504C33.2291 56.6504 33.7523 57.1922 33.7523 59.1728C33.7523 66.1482 33.771 73.1298 33.7336 80.1053C33.7274 81.1578 34.0077 81.5004 35.0915 81.4879C40.3359 81.4381 45.574 81.463 50.8185 81.4692C52.7057 81.4692 53.2538 82.0235 53.2538 83.9168C53.2538 91.814 53.2538 99.7174 53.2538 107.615C53.2538 109.415 52.6746 109.981 50.8496 109.981C34.6804 109.981 18.5112 109.981 2.34193 110C1.37651 110 0.616623 109.738 0 109.022V82.4346V82.4283ZM30.0588 70.9313C30.0588 67.7613 30.0401 64.5849 30.0712 61.4149C30.0837 60.5928 29.7972 60.2938 28.9812 60.3374C27.9909 60.3872 26.9882 60.3872 25.9916 60.3374C25.2068 60.3 24.8393 60.5305 24.8767 61.3899C24.9327 62.7165 24.9078 64.0431 24.8829 65.3759C24.858 66.7585 24.2164 67.4187 22.8462 67.4312C20.635 67.4561 18.4177 67.4499 16.2066 67.4312C14.7616 67.4187 14.1262 66.7772 14.1075 65.3261C14.0888 64.0742 14.0453 62.8162 14.12 61.5643C14.1823 60.5554 13.7899 60.2627 12.8432 60.3312C11.9276 60.3997 10.9995 60.3935 10.0777 60.3312C9.21816 60.2751 8.9192 60.5678 8.9192 61.4585C8.95035 67.7675 8.95035 74.0765 8.9192 80.3855C8.9192 81.1952 9.16833 81.4817 9.99673 81.4754C16.3062 81.4505 22.6157 81.4505 28.9252 81.4754C29.791 81.4754 30.0775 81.2076 30.0712 80.3357C30.0276 77.203 30.0526 74.064 30.0526 70.9313H30.0588ZM24.7397 95.7252C24.7397 92.5552 24.7272 89.3789 24.7521 86.2088C24.7521 85.4739 24.5528 85.1189 23.7556 85.1562C22.6905 85.2061 21.613 85.1936 20.5479 85.1562C19.8378 85.1313 19.5513 85.3929 19.57 86.1216C19.6073 87.4855 19.5949 88.8495 19.57 90.2134C19.545 91.5836 18.8973 92.2375 17.5084 92.25C15.2972 92.2687 13.0799 92.2687 10.8687 92.25C9.43618 92.2375 8.80712 91.5836 8.78843 90.12C8.76974 88.7934 8.75729 87.4606 8.78843 86.134C8.80712 85.424 8.55795 85.1251 7.82921 85.1562C6.75791 85.1936 5.68659 85.1998 4.62151 85.1562C3.83672 85.1189 3.60626 85.4427 3.60626 86.1963C3.62495 92.5427 3.63117 98.8891 3.60626 105.235C3.60626 106.076 3.91147 106.307 4.70872 106.3C11.0182 106.276 17.3277 106.269 23.6372 106.3C24.5403 106.3 24.7646 105.977 24.7584 105.136C24.721 102.003 24.7459 98.8642 24.7459 95.7315L24.7397 95.7252ZM28.4394 95.7252C28.4394 98.8953 28.4581 102.072 28.427 105.242C28.4207 105.995 28.6512 106.288 29.436 106.288C35.8202 106.263 42.2044 106.269 48.5824 106.288C49.2863 106.288 49.5665 106.058 49.5603 105.329C49.5416 98.9078 49.5416 92.4929 49.5603 86.0718C49.5603 85.4116 49.3236 85.1375 48.6572 85.1562C47.5485 85.1874 46.4398 85.1936 45.3373 85.1562C44.6024 85.1313 44.3657 85.4365 44.3844 86.1403C44.4156 87.4668 44.4031 88.7934 44.3844 90.1262C44.3657 91.5836 43.7366 92.2375 42.2978 92.25C40.0867 92.2687 37.8694 92.2687 35.6583 92.25C34.2755 92.2375 33.6277 91.5898 33.6028 90.2072C33.5779 88.8432 33.5717 87.4793 33.6028 86.1153C33.6215 85.3867 33.3288 85.1313 32.6187 85.1562C31.6596 85.1936 30.6941 85.2185 29.7412 85.15C28.7508 85.0753 28.3771 85.3804 28.402 86.4392C28.4705 89.5346 28.427 92.6361 28.427 95.7377L28.4394 95.7252ZM17.8011 61.9567C17.8011 63.14 18.3201 63.7317 19.3582 63.7317C20.579 63.7317 21.1894 63.194 21.1894 62.1186C21.1894 60.9353 20.6704 60.3436 19.6323 60.3436C18.4115 60.3436 17.8011 60.8813 17.8011 61.9567ZM14.1699 85.1562C13.0446 85.1562 12.4819 85.7043 12.4819 86.8004C12.4819 87.963 13.0134 88.5443 14.0764 88.5443C15.2765 88.5443 15.8765 87.9962 15.8765 86.9001C15.8765 85.7375 15.3097 85.1562 14.1761 85.1562H14.1699ZM38.9905 85.1562C37.8652 85.1562 37.3026 85.7043 37.3026 86.8004C37.3026 87.963 37.8341 88.5443 38.8971 88.5443C40.0971 88.5443 40.6971 87.9962 40.6971 86.9001C40.6971 85.7375 40.1303 85.1562 38.9967 85.1562H38.9905Z" fill="#0E2B72"/>
<path d="M59.6163 0C62.7119 0.44842 65.8386 0.778507 68.8532 1.67535C90.8025 8.1899 104.381 22.6016 109.058 45.0102C111.556 56.9805 109.65 68.571 104.25 79.5635C103.777 80.5351 103.353 80.6783 102.419 80.1489C100.357 78.978 100.345 79.0279 101.347 76.8667C104.194 70.7383 105.869 64.3296 106.15 57.5597C106.791 41.8214 101.41 28.456 90.0675 17.5943C82.3566 10.2078 73.0948 5.7049 62.5063 4.27868C45.1786 1.94315 30.2239 7.01902 17.9849 19.5001C9.89404 27.7522 5.30984 37.8043 4.03922 49.32C3.79008 51.5808 3.80256 51.5808 1.56652 51.4749C1.04955 51.45 0.532592 51.4251 0.015625 51.4002C0.015625 51.0327 0.015625 50.659 0.015625 50.2916C0.24608 48.7283 0.426698 47.1526 0.706981 45.6019C2.86205 33.644 8.29952 23.4362 17.1066 15.0532C24.4625 8.04665 33.1202 3.4628 43.0297 1.21447C45.5149 0.653946 48.0375 0.373684 50.5414 0H59.6288H59.6163Z" fill="#0E2B72"/>
<path d="M73.9314 77.9188C76.6595 77.9188 79.3938 77.8876 82.1219 77.9374C83.0126 77.9561 83.3302 77.6447 83.243 76.7853C83.1496 75.851 83.3303 74.9916 84.2957 74.5494C85.23 74.1259 85.9961 74.5058 86.7311 75.0975C89.347 77.2025 91.9817 79.2889 94.5914 81.4003C96.2794 82.7642 96.2669 83.8852 94.5665 85.2554C91.9505 87.3605 89.3221 89.4469 86.7061 91.552C85.9711 92.1437 85.1926 92.5049 84.2645 92.0627C83.3676 91.6329 83.1434 90.8233 83.2493 89.9202C83.3676 88.9051 82.913 88.6871 81.9725 88.6933C76.6969 88.7307 71.4151 88.712 66.1395 88.712C64.3146 88.712 63.7478 88.1452 63.7416 86.3453C63.7353 84.2402 63.7291 82.1352 63.7416 80.0363C63.754 78.5852 64.3956 77.9437 65.8468 77.9312C68.5438 77.9125 71.2345 77.9312 73.9314 77.925V77.9188ZM76.5598 85.0125C79.2506 85.0125 81.9413 85.025 84.6383 85.0063C85.4604 85.0001 86.1891 85.1309 86.6749 85.8595C86.9303 86.2457 87.1795 86.3266 87.5657 86.009C88.475 85.2554 89.3968 84.5205 90.3311 83.798C90.7608 83.468 90.792 83.1939 90.3498 82.8514C89.4155 82.1289 88.4999 81.3878 87.5844 80.6404C87.2916 80.4038 87.0175 80.2667 86.7621 80.6716C86.1891 81.5995 85.2922 81.6307 84.333 81.6307C79.4623 81.612 74.5979 81.6058 69.7272 81.6307C67.1423 81.6431 67.5098 81.2196 67.4289 83.9164C67.404 84.8319 67.7652 85.0437 68.5998 85.0312C71.2532 84.9938 73.9127 85.0188 76.5661 85.0188L76.5598 85.0125Z" fill="#0E2B72"/>
<path d="M85.559 106.437C82.8309 106.437 80.0966 106.462 77.3685 106.425C76.5401 106.412 76.2287 106.699 76.2972 107.515C76.3844 108.486 76.2224 109.389 75.1947 109.825C74.1982 110.249 73.432 109.757 72.6784 109.153C70.1247 107.091 67.5461 105.055 64.9924 102.993C63.2422 101.579 63.2547 100.496 65.0173 99.0695C67.6022 96.9831 70.2057 94.9216 72.7905 92.8352C73.5193 92.2436 74.2853 91.845 75.2258 92.2622C76.185 92.692 76.3968 93.5452 76.2972 94.4856C76.1975 95.4385 76.6273 95.6628 77.5117 95.6565C82.7873 95.6254 88.0691 95.6378 93.3446 95.6441C95.2443 95.6441 95.7986 96.1921 95.8049 98.0606C95.8049 100.128 95.8173 102.196 95.8049 104.257C95.7924 105.777 95.1633 106.412 93.6498 106.425C90.9529 106.437 88.2622 106.425 85.5652 106.425L85.559 106.437ZM82.781 102.738C85.2164 102.738 87.6518 102.744 90.0809 102.738C92.3356 102.725 92.0241 102.999 92.1238 100.739C92.1736 99.5927 91.7937 99.3124 90.685 99.3249C85.4469 99.3809 80.2087 99.3435 74.9767 99.356C74.1234 99.356 73.3511 99.2501 72.8466 98.4716C72.5725 98.0481 72.3109 98.0792 71.9497 98.372C71.0403 99.1256 70.1185 99.8605 69.1904 100.583C68.7233 100.944 68.8229 101.212 69.234 101.53C70.1371 102.233 71.034 102.943 71.906 103.678C72.3047 104.008 72.5725 104.039 72.884 103.572C73.3324 102.887 74.0238 102.725 74.8148 102.732C77.4681 102.75 80.1277 102.738 82.781 102.738Z" fill="#FFB400"/>
<path d="M46.106 48.6668C45.6015 48.6107 45.396 48.2744 45.1406 48.0253C43.9115 46.8295 43.9011 45.6275 45.1095 44.4193C53.4058 36.1235 61.7084 27.8215 70.0048 19.5257C71.0699 18.4607 71.0824 18.4545 72.135 19.5257C73.9786 21.4003 73.9288 20.8896 72.1475 22.6709C63.7577 31.085 55.3492 39.4804 46.9407 47.8821C46.6604 48.1623 46.3551 48.4301 46.106 48.6606V48.6668Z" fill="#FFB400"/>
<path d="M60.1992 42.5326C60.1992 38.5093 63.326 35.3828 67.3496 35.3828C71.4231 35.3828 74.5497 38.528 74.5311 42.6136C74.5124 46.6182 71.3608 49.7198 67.3247 49.7136C63.3198 49.7074 60.193 46.5622 60.1992 42.5326ZM67.362 39.1134C65.5433 39.0823 63.9302 40.7265 63.9302 42.6011C63.9302 44.2952 65.5433 45.9331 67.2562 45.983C69.0936 46.0328 70.794 44.4135 70.8064 42.6011C70.8189 40.7514 69.2306 39.1383 67.3683 39.1072L67.362 39.1134Z" fill="#FFB400"/>
<path d="M42.4727 24.7753C42.4727 20.7707 45.6243 17.6442 49.6479 17.6504C53.7214 17.6566 56.8232 20.8018 56.8045 24.9061C56.7858 28.8983 53.6155 31.9936 49.5732 31.9812C45.5683 31.9687 42.4664 28.8173 42.4727 24.7753ZM49.6542 28.2506C51.3857 28.2817 53.0861 26.5939 53.0799 24.8563C53.0736 23.019 51.5414 21.4308 49.7414 21.381C47.9164 21.3312 46.2347 22.9505 46.1973 24.7753C46.1662 26.6064 47.7669 28.2194 49.6542 28.2506Z" fill="#FFB400"/>
</svg>
