<svg width="90" height="97" viewBox="0 0 90 97" fill="none" xmlns="http://www.w3.org/2000/svg">
<path d="M28.5197 0.577148H61.3172C63.4018 1.47309 64.2884 3.03191 64.221 5.31578C64.1225 8.57326 64.1951 11.8359 64.1951 15.0986C64.1951 16.6885 64.1951 16.7092 65.7559 16.8594C72.2791 17.486 78.8023 18.1179 85.3307 18.7031C87.4153 18.8895 88.9501 19.7388 89.7124 21.7534V93.6666C88.8101 95.7434 87.2545 96.5668 84.9678 96.5668C58.2475 96.5254 31.5324 96.5098 4.81211 96.5823C1.86163 96.5927 -0.0154602 94.6506 9.59518e-05 91.8074C0.0882474 74.9711 0.0415879 58.1295 0.0415879 41.2931C0.0415879 35.2028 0.0364025 29.1125 0.0415879 23.0222C0.0415879 20.8782 1.46754 19.1588 3.51577 18.9257C6.88627 18.5425 10.2672 18.2318 13.6428 17.8952C17.1845 17.543 20.7261 17.1753 24.2729 16.8542C25.284 16.761 25.6833 16.3881 25.6574 15.3006C25.5848 11.9758 25.704 8.64577 25.6055 5.32096C25.5381 3.03709 26.4248 1.48344 28.5093 0.587506L28.5197 0.577148ZM3.40171 57.6634C3.40171 68.9481 3.40171 80.2328 3.40171 91.5174C3.40171 92.9882 3.59356 93.1798 5.08176 93.1798C11.382 93.1798 17.6771 93.1798 23.9773 93.1798C25.087 93.1798 25.6418 92.6395 25.6418 91.5589C25.6418 78.7413 25.6418 65.9237 25.6418 53.1112C25.6418 49.9677 27.1559 48.4399 30.2724 48.4399C40.0053 48.4399 49.7383 48.5072 59.466 48.3985C62.3647 48.3674 64.247 50.3405 64.2262 53.1268C64.1329 66.0117 64.1847 78.8914 64.1847 91.7764C64.1847 93.1798 64.1848 93.185 65.5641 93.185C71.8643 93.185 78.1594 93.185 84.4596 93.185C86.3315 93.185 86.4248 93.0918 86.4248 91.2067C86.4248 68.9015 86.4248 46.5962 86.4248 24.291C86.4248 24.058 86.4145 23.8249 86.4248 23.5919C86.4663 22.6752 86.01 22.2972 85.113 22.2091C78.5898 21.5721 72.0665 20.9041 65.5381 20.2464C64.3507 20.1272 64.1796 20.2619 64.1796 21.4323C64.1796 25.8602 64.1796 30.2881 64.1744 34.716C64.1692 37.352 62.5099 38.9989 59.855 38.9989C49.8886 39.0041 39.9275 39.0041 29.9612 38.9989C27.2596 38.9989 25.6366 37.352 25.6314 34.628C25.6262 30.2674 25.6314 25.9068 25.6314 21.5462C25.6314 20.2412 25.4759 20.1169 24.1847 20.2515C22.3958 20.4431 20.612 20.6296 18.823 20.8057C14.2184 21.2562 9.61378 21.6912 5.00916 22.1625C3.40169 22.3282 3.39132 22.38 3.39132 24.0114C3.39132 35.2287 3.39132 46.4512 3.39132 57.6686L3.40171 57.6634ZM28.9967 19.7492C28.9967 24.5085 28.9967 29.2731 28.9967 34.0324C28.9967 35.4359 29.2093 35.6534 30.6198 35.6534C40.1505 35.6534 49.6812 35.6534 59.2172 35.6534C60.6224 35.6534 60.8402 35.4359 60.8402 34.0324C60.8402 24.5085 60.8402 14.9898 60.8402 5.46597C60.8402 4.0625 60.6224 3.84499 59.2172 3.84499C49.6864 3.84499 40.1557 3.84499 30.6198 3.84499C29.2145 3.84499 28.9967 4.0625 28.9967 5.46597C28.9967 10.2253 28.9967 14.9898 28.9967 19.7492ZM46.5959 72.4075C46.5959 78.9329 46.6115 85.453 46.5804 91.9784C46.5804 92.8847 46.85 93.2109 47.7782 93.2006C51.7087 93.1591 55.6392 93.185 59.575 93.185C60.8039 93.185 60.8402 93.1436 60.8402 91.8644C60.8402 79.052 60.8402 66.2396 60.8402 53.4271C60.8402 52.0133 60.6276 51.7958 59.2327 51.7958C55.4681 51.7958 51.7035 51.7958 47.939 51.7958C46.6271 51.7958 46.6011 51.8217 46.6011 53.1475C46.6011 59.5692 46.6011 65.9962 46.6011 72.4179L46.5959 72.4075ZM43.241 72.5629C43.241 66.0376 43.2254 59.5174 43.2565 52.9921C43.2565 52.091 42.9921 51.7595 42.0587 51.7699C38.1956 51.8113 34.3273 51.7803 30.4642 51.7906C29.256 51.7906 29.0019 52.0496 29.0019 53.2614C29.0019 66.1722 29.0019 79.0882 28.9812 91.9991C28.9812 92.9313 29.3079 93.2006 30.2049 93.1954C34.1044 93.1591 38.0037 93.1798 41.898 93.1798C43.2099 93.1798 43.2358 93.1539 43.2358 91.8334C43.2358 85.4116 43.2358 78.9847 43.2358 72.5629H43.241Z" fill="#0E2B72"/>
<path d="M32.0455 19.7283C32.0455 18.6977 32.0196 17.6619 32.0507 16.6313C32.0818 15.5075 32.6782 14.912 33.8034 14.8913C35.5353 14.8602 37.2672 14.855 38.9992 14.8913C39.7873 14.9068 40.0621 14.5961 40.0466 13.8296C40.0103 12.1672 40.0258 10.4996 40.0466 8.83721C40.0621 7.47517 40.6377 6.91068 42.0119 6.90032C43.946 6.88479 45.875 6.88479 47.8091 6.90032C49.2247 6.91068 49.7744 7.48553 49.7899 8.93043C49.8003 10.5255 49.8262 12.1258 49.7796 13.7208C49.7536 14.5702 50.0285 14.9223 50.9203 14.8964C52.5537 14.8447 54.1871 14.8705 55.8153 14.8861C57.1895 14.9016 57.7702 15.4661 57.7806 16.8281C57.7961 18.7909 57.8013 20.7537 57.7806 22.7217C57.7702 24.0215 57.1791 24.6067 55.8724 24.6223C54.2079 24.643 52.5382 24.6585 50.8737 24.6171C50.0388 24.5964 49.7536 24.9175 49.7744 25.7357C49.8158 27.3671 49.7951 28.9984 49.7796 30.6297C49.7692 32.0125 49.1988 32.6029 47.8558 32.6184C45.8905 32.6391 43.9252 32.6391 41.96 32.6184C40.6118 32.608 40.0466 32.0177 40.0362 30.6349C40.0207 29.0036 40.0051 27.3722 40.0414 25.7409C40.0621 24.933 39.7873 24.5964 38.9473 24.6223C37.3139 24.6637 35.6805 24.643 34.0471 24.6326C32.6107 24.6223 32.0507 24.063 32.03 22.6388C32.0196 21.6755 32.03 20.7071 32.03 19.7438L32.0455 19.7283ZM39.0147 18.2316C38.4806 18.2316 37.9465 18.2316 37.4176 18.2316C35.3123 18.2316 35.3383 18.2316 35.3797 20.2928C35.3953 21.0334 35.6857 21.2923 36.4013 21.2768C38.0347 21.2509 39.6681 21.2612 41.2963 21.2768C42.8467 21.2871 43.3756 21.8309 43.386 23.4001C43.3963 24.731 43.386 26.062 43.386 27.393C43.386 29.2988 43.386 29.2573 45.2994 29.2832C46.1861 29.2936 46.4661 28.9621 46.4454 28.1076C46.3987 26.5126 46.4246 24.9123 46.435 23.3172C46.4453 21.8309 46.995 21.2923 48.5091 21.2819C49.8107 21.2716 51.107 21.2819 52.4085 21.2819C54.5138 21.2819 54.4879 21.2819 54.4464 19.2208C54.4308 18.4802 54.1456 18.2212 53.4249 18.2316C51.7604 18.2575 50.0959 18.2471 48.4262 18.2316C47.0054 18.2161 46.4505 17.6516 46.435 16.2119C46.4246 14.8809 46.435 13.5499 46.435 12.219C46.435 10.1837 46.435 10.2148 44.423 10.2303C43.6349 10.2355 43.3652 10.5359 43.3808 11.3023C43.4171 12.9337 43.4015 14.565 43.386 16.1963C43.3756 17.6775 42.8208 18.2212 41.3118 18.2368C40.5444 18.2471 39.7769 18.2368 39.0147 18.2368V18.2316Z" fill="#FFB400"/>
<path d="M57.6867 67.7673C57.6608 68.3577 57.4015 68.8755 56.8622 69.2329C55.3481 70.2479 53.8444 71.2785 52.3043 72.2573C51.4228 72.8166 50.4479 72.5939 49.9294 71.8223C49.4108 71.0507 49.5768 70.0615 50.4272 69.4659C51.9465 68.3991 53.4866 67.3581 55.0681 66.3845C56.24 65.6647 57.6452 66.4311 57.6867 67.7725V67.7673Z" fill="#0E2B72"/>
<path d="M57.6923 75.7688C57.6405 76.3644 57.4071 76.8564 56.9041 77.1982C55.39 78.2132 53.8862 79.2438 52.3462 80.2278C51.4543 80.7975 50.495 80.6058 49.9609 79.8497C49.406 79.0626 49.5824 78.0475 50.4794 77.4209C51.978 76.3799 53.487 75.3545 55.0374 74.3964C56.256 73.6455 57.7079 74.4379 57.6975 75.774L57.6923 75.7688Z" fill="#0E2B72"/>
<path d="M33.7779 72.5577C32.9846 72.5421 32.4505 72.19 32.1756 71.5064C31.906 70.8227 31.9994 70.1236 32.5801 69.6834C34.3017 68.368 36.101 67.1665 37.9781 66.0841C38.7403 65.6439 39.487 65.9495 40.0004 66.6434C40.5034 67.3115 40.5397 68.1246 39.9226 68.6476C38.1699 70.134 36.2151 71.3458 34.2187 72.4852C34.0839 72.5628 33.892 72.5421 33.7779 72.5577Z" fill="#0E2B72"/>
<path d="M33.6902 80.5485C32.9435 80.4916 32.4405 80.1446 32.1813 79.5024C31.9116 78.8188 31.9998 78.1197 32.5753 77.6795C34.2917 76.364 36.1014 75.1625 37.9733 74.0802C38.7304 73.64 39.4823 73.9403 40.0008 74.6291C40.5038 75.2972 40.5453 76.1103 39.9334 76.6333C38.1859 78.1197 36.2259 79.3315 34.2347 80.4709C34.0739 80.5641 33.8457 80.533 33.6954 80.5485H33.6902Z" fill="#0E2B72"/>
</svg>
