<svg width="101" height="101" viewBox="0 0 101 101" fill="none" xmlns="http://www.w3.org/2000/svg">
<path d="M54.1479 0C56.4546 0.348921 58.7729 0.593166 61.0562 1.11655C69.9565 3.15192 77.7325 7.27501 84.3728 13.5265C91.5198 20.2549 96.2612 28.3906 98.6669 37.8928C99.1562 39.8293 99.4824 41.7949 99.7619 43.7722C99.9076 44.8131 99.7328 45.7377 98.8067 46.3833C97.9097 47.0055 97.0301 46.8136 96.1273 46.3484C87.0464 41.6786 77.1559 42.7487 69.3216 49.2328C67.9294 50.3842 66.9858 50.4017 65.6228 49.2502C60.4912 44.9294 54.5557 43.0394 47.898 43.5919C42.8945 44.0048 38.4676 45.9471 34.6233 49.1863C33.1438 50.4307 32.2642 50.4133 30.7672 49.163C23.1251 42.7894 13.0074 41.6961 4.12461 46.3018C3.19847 46.7845 2.29565 47.0404 1.35204 46.3833C0.425896 45.7377 0.256968 44.8131 0.396763 43.7722C1.77724 33.258 5.9711 24.029 13.1472 16.2016C20.5447 8.12986 29.6663 3.03561 40.3956 0.849042C42.2479 0.471044 44.141 0.284952 46.0107 0.00581549C48.7251 0.00581549 51.4394 0.00581549 54.1538 0.00581549L54.1479 0ZM55.5459 4.7337C55.7032 5.01865 55.7381 5.1117 55.7964 5.19311C64.0734 16.1609 68.2148 28.6522 69.4846 42.202C69.5778 43.1964 69.6943 43.2662 70.568 42.7661C74.7619 40.3585 79.2587 39.0501 84.1107 38.9454C87.3959 38.8756 90.5995 39.3118 93.71 40.3586C94.4788 40.6202 94.6244 40.3993 94.4031 39.6956C94.3332 39.4688 94.2983 39.2362 94.2401 39.0036C92.9411 33.7988 90.8442 28.9372 87.792 24.5175C80.0042 13.259 69.2691 6.76326 55.5459 4.7337ZM44.706 4.75696C34.4369 6.14101 25.7696 10.2292 18.4944 17.2251C12.1512 23.3254 7.98064 30.6876 5.85459 39.2129C5.7614 39.5967 5.48762 40.0969 5.73226 40.3702C6.0235 40.69 6.47785 40.3062 6.84481 40.1957C11.2018 38.8814 15.6228 38.5674 20.1137 39.3292C23.4921 39.9049 26.6724 41.0273 29.6139 42.7836C30.3362 43.2197 30.6449 43.0801 30.6799 42.2311C30.709 41.4867 30.7964 40.7482 30.8779 40.0096C31.7808 32.0077 33.9068 24.3431 37.2502 17.0157C39.2132 12.724 41.5955 8.67069 44.706 4.75696ZM64.8656 41.9054C64.8656 41.5972 64.8831 41.4286 64.8656 41.2599C64.8248 40.9226 64.7549 40.5912 64.72 40.2539C63.6948 31.4204 61.1552 23.0521 56.9497 15.2013C55.2663 12.0552 53.2451 9.14173 50.9152 6.43178C50.2686 5.6816 49.826 5.70486 49.2551 6.45504C48.7251 7.1587 48.1135 7.79839 47.5776 8.49623C43.0284 14.4395 40.0054 21.133 37.8851 28.2626C36.5687 32.6823 35.7008 37.195 35.2873 41.7891C35.2581 42.1148 35.1067 42.5626 35.3746 42.7603C35.73 43.022 36.0562 42.6091 36.3649 42.4521C45.5214 37.6893 54.6722 37.6893 63.823 42.4695C64.1142 42.6207 64.4171 42.9755 64.7316 42.801C65.1161 42.5858 64.819 42.1206 64.8714 41.9112L64.8656 41.9054Z" fill="#0E2B72"/>
<path d="M0 74.5818C0.308714 71.9881 0.716454 69.4177 1.78822 67.0102C5.71995 58.1883 12.4476 53.0941 22.1167 52.1694C34.5701 50.9773 46.1149 60.0667 47.8507 73.0116C49.5457 85.6251 40.3367 97.7676 27.7843 99.675C14.9406 101.629 2.88326 93.1095 0.460146 80.5251C0.262103 79.5016 0.151445 78.4548 0 77.4197C0 76.4718 0 75.5239 0 74.576V74.5818ZM24.0098 95.4356C34.8963 95.2263 43.4122 86.9336 43.4413 76.0356C43.4704 65.1784 34.9837 56.6472 24.0855 56.6123C13.2456 56.5774 4.59574 65.033 4.60157 76.0124C4.60157 86.8871 13.1291 95.2088 24.0098 95.4356Z" fill="#0E2B72"/>
<path d="M76.1825 56.4221C81.8442 56.4221 87.5059 56.4221 93.1676 56.4221C97.0294 56.4221 99.6972 58.7133 100.093 62.5457C100.268 64.2554 100.175 65.9942 100.111 67.7155C100.064 68.9484 99.6447 70.1056 98.905 71.1175C98.6254 71.5013 98.6138 71.8095 98.905 72.205C99.8603 73.5134 100.169 75.0254 100.169 76.6188C100.169 77.7354 100.181 78.8519 100.169 79.9685C100.146 81.4165 99.837 82.8005 98.9866 83.9985C98.6312 84.4928 98.6429 84.8592 98.9982 85.3477C99.837 86.5107 100.14 87.8657 100.169 89.2788C100.192 90.4303 100.181 91.5817 100.169 92.7332C100.146 97.1528 97.3324 99.9849 92.9172 99.9965C86.8477 100.008 80.7783 99.9965 74.7088 99.9965C69.6588 99.9965 64.6028 99.9965 59.5527 99.9965C54.8696 99.9965 52.1028 97.2168 52.097 92.5238C52.097 91.5061 52.097 90.4943 52.097 89.4766C52.1028 87.9529 52.4173 86.5107 53.326 85.2604C53.6347 84.8301 53.6406 84.5103 53.3377 84.0857C52.3999 82.7656 52.0912 81.2595 52.097 79.6661C52.1028 78.5495 52.0853 77.433 52.097 76.3164C52.1203 74.8684 52.4407 73.4902 53.2969 72.2922C53.5881 71.8851 53.6813 71.5653 53.3551 71.1175C52.3649 69.7451 52.0504 68.1633 52.097 66.5001C52.1378 64.9823 51.9805 63.4587 52.2368 61.9409C52.7727 58.7366 55.4229 56.4395 58.6848 56.4279C64.5155 56.4105 70.3461 56.4279 76.1825 56.4221ZM76.2291 60.9871C70.5325 60.9871 64.8358 60.9813 59.1391 60.9871C57.4791 60.9871 56.716 61.7431 56.6694 63.3947C56.6403 64.4066 56.6578 65.4243 56.6636 66.442C56.6694 68.7041 57.3917 69.4252 59.6576 69.431C64.7077 69.431 69.7636 69.431 74.8137 69.431C80.8132 69.431 86.8186 69.4369 92.8181 69.431C94.7985 69.431 95.5791 68.6285 95.5966 66.6397C95.6082 65.6569 95.6082 64.6741 95.5966 63.6971C95.5791 61.7141 94.8685 60.993 92.9055 60.993C87.3428 60.993 81.786 60.993 76.2233 60.993L76.2291 60.9871ZM76.1534 73.9903C70.4917 73.9903 64.83 73.9845 59.1683 73.9903C57.4616 73.9903 56.7044 74.7521 56.6694 76.4676C56.6461 77.5144 56.6578 78.567 56.6694 79.6137C56.6869 81.6433 57.4675 82.4167 59.5294 82.4225C62.5467 82.4342 65.5639 82.4225 68.5812 82.4225C76.6485 82.4225 84.7216 82.4225 92.789 82.4225C94.7461 82.4225 95.5616 81.6375 95.5966 79.7649C95.614 78.7472 95.6082 77.7354 95.5966 76.7177C95.5791 74.6823 94.8801 73.9845 92.8356 73.9845C87.2729 73.9845 81.7161 73.9845 76.1534 73.9845V73.9903ZM76.1359 86.9992C70.4392 86.9992 64.7426 86.9934 59.046 86.9992C57.5082 86.9992 56.7335 87.7552 56.6694 89.2905C56.6287 90.3372 56.652 91.3898 56.6578 92.4366C56.6636 94.6987 57.3917 95.4315 59.6401 95.4315C63.9796 95.4315 68.319 95.4315 72.6585 95.4315C79.3745 95.4315 86.0846 95.4315 92.8006 95.4315C94.7869 95.4315 95.5732 94.629 95.5907 92.6517C95.6024 91.7038 95.5965 90.7559 95.5907 89.808C95.5791 87.6796 94.9092 86.9934 92.8123 86.9876C87.2496 86.9876 81.6927 86.9876 76.1301 86.9876L76.1359 86.9992Z" fill="#0E2B72"/>
<path d="M25.1723 66.0668C26.9023 66.0668 28.6381 66.0668 30.368 66.0668C30.5894 66.0668 30.8107 66.0668 31.0262 66.0726C32.1096 66.125 32.7678 66.66 32.7387 67.4567C32.7096 68.2883 32.098 68.7361 30.968 68.7419C30.3098 68.7419 29.6457 68.7593 28.9875 68.7419C28.4691 68.7244 28.5332 68.8756 28.6555 69.3118C29.0458 70.7075 29.7739 71.4053 31.3349 71.1611C32.1329 71.039 32.7329 71.7368 32.7387 72.4579C32.7387 73.1208 32.1621 73.8652 31.4165 73.7605C29.8205 73.5396 29.1914 74.313 28.5216 75.6389C27.4556 77.7557 25.5101 78.7501 23.1103 78.7908C22.8657 78.7908 22.6152 78.7792 22.3706 78.7966C22.2133 78.8083 21.992 78.7966 21.9163 78.8955C21.759 79.099 21.9978 79.2386 22.1084 79.3724C23.5588 81.2042 25.0092 83.0302 26.4654 84.8562C27.0479 85.589 27.6362 86.3101 28.207 87.0486C28.9526 88.0023 28.9701 88.7118 28.2653 89.2759C27.6012 89.8051 26.8557 89.6132 26.1043 88.6711C23.8909 85.903 21.6949 83.1233 19.4873 80.3493C19.231 80.0295 18.9514 79.7155 18.7417 79.3665C17.8971 77.9709 18.8058 76.2844 20.4367 76.203C21.5609 76.1448 22.691 76.2786 23.8093 76.0634C24.7471 75.8773 25.4927 75.4063 26.0577 74.6561C26.2033 74.4642 26.4246 74.249 26.314 73.999C26.1916 73.7198 25.8829 73.8187 25.6499 73.8187C23.7802 73.8129 21.9104 73.8187 20.0407 73.8187C19.796 73.8187 19.5456 73.8187 19.3009 73.8187C18.2466 73.7896 17.5593 73.2372 17.5826 72.4346C17.6059 71.6089 18.2408 71.1262 19.3417 71.1204C21.4852 71.1146 23.6346 71.1204 25.7781 71.1204C25.9936 71.1204 26.2673 71.2134 26.4013 71.0157C26.5702 70.7656 26.3314 70.5505 26.2033 70.3527C25.4985 69.2769 24.4733 68.771 23.2093 68.7477C21.9162 68.7186 20.6231 68.7477 19.33 68.7361C18.2117 68.7361 17.5943 68.2592 17.5826 67.4276C17.571 66.6309 18.2233 66.0843 19.3184 66.0726C21.2697 66.0494 23.221 66.0668 25.1781 66.0668H25.1723Z" fill="#FFB400"/>
</svg>
