<svg width="84" height="84" viewBox="0 0 84 84" fill="none" xmlns="http://www.w3.org/2000/svg">
<path d="M66.2206 83.4285H17.0795C15.5343 82.6678 15.0741 81.3597 15.1468 79.7318C15.3163 75.7688 17.53 73.6128 21.4826 73.6079C22.3206 73.6079 23.1634 73.5837 24.0014 73.6128C24.6311 73.637 24.8781 73.3802 24.8684 72.7504C24.8491 71.1516 24.8685 69.5528 24.8636 67.954C24.8636 66.9075 24.82 66.8688 23.7495 66.8688C17.9514 66.8688 12.1581 66.8688 6.36001 66.8688C2.91601 66.8688 1.16737 65.6479 0 62.426V4.32651C1.08018 1.22096 3.26962 -0.00963297 6.54408 5.67379e-05C30.2403 0.058195 53.9317 0.029126 77.6279 0.0339708C80.9944 0.0339708 83.3776 2.40795 83.3776 5.76059C83.3776 24.2001 83.3776 42.6396 83.3776 61.0792C83.3776 61.5103 83.3631 61.9512 83.2759 62.3727C82.6898 65.0762 80.447 66.8639 77.5698 66.8688C71.5537 66.8881 65.5327 66.8688 59.5167 66.8784C58.5043 66.8784 58.4607 66.9221 58.4559 67.9395C58.451 69.4559 58.451 70.9772 58.4559 72.4936C58.4559 73.5692 58.4946 73.5983 59.5409 73.6079C60.7616 73.6225 61.9919 73.5207 63.198 73.6758C66.2012 74.0537 67.979 76.2726 68.1679 79.6446C68.2599 81.2967 67.8287 82.6485 66.24 83.4285H66.2206ZM41.6524 63.8601C53.5538 63.8601 65.4601 63.8601 77.3615 63.8601C79.3717 63.8601 80.3987 62.8378 80.4616 60.8175C80.4616 60.7109 80.4616 60.5995 80.4616 60.4929C80.4616 42.4555 80.4616 24.423 80.4616 6.38558C80.4616 3.92923 79.4541 2.93604 76.9837 2.93604C53.4182 2.93604 29.8576 2.93604 6.29219 2.93604C3.8315 2.93604 2.82399 3.93892 2.82399 6.39527C2.82399 24.4036 2.83366 42.4119 2.80944 60.4203C2.80944 62.3534 3.5893 63.9037 6.25828 63.8892C18.0531 63.8213 29.848 63.8601 41.6428 63.8601H41.6524ZM41.7348 66.8736C37.4286 66.8736 33.1224 66.8833 28.8114 66.8639C28.1187 66.8639 27.8377 67.0771 27.8523 67.799C27.891 69.4511 27.8813 71.1032 27.8523 72.7553C27.8426 73.3851 28.0799 73.6176 28.7145 73.6176C37.3269 73.6079 45.9441 73.6031 54.5565 73.6176C55.2541 73.6176 55.443 73.327 55.4285 72.6874C55.3994 71.1177 55.4236 69.5431 55.4188 67.9734C55.4188 66.9075 55.3897 66.8736 54.324 66.8736C50.1244 66.8736 45.9248 66.8736 41.7251 66.8736H41.7348ZM41.638 80.5894C49.0394 80.5894 56.436 80.5894 63.8374 80.5894C64.1087 80.5894 64.38 80.5894 64.6512 80.5749C64.9661 80.5555 65.121 80.3859 65.1792 80.0661C65.5182 78.2009 64.2637 76.6215 62.3552 76.6215C48.5599 76.6118 34.7596 76.6118 20.9643 76.6215C19.2447 76.6215 18.179 77.697 18.1209 79.3976C18.0822 80.5264 18.1355 80.5894 19.2786 80.5894C26.7333 80.5894 34.1881 80.5894 41.6428 80.5894H41.638Z" fill="#0E2B72"/>
<path d="M41.6814 5.57178C52.5801 5.57178 63.4788 5.57178 74.3824 5.57178C76.8092 5.57178 77.8361 6.59889 77.8361 9.03585C77.8361 22.5142 77.8361 35.9926 77.8361 49.471C77.8361 51.9225 76.7801 52.9981 74.3194 52.9981C52.5462 53.0029 30.773 52.9981 8.99977 53.0126C6.79096 53.0126 5.42982 51.8547 5.4395 49.408C5.49763 35.9587 5.46857 22.5045 5.46857 9.05523C5.46857 6.57466 6.48094 5.57178 8.98038 5.57178C19.8791 5.57178 30.7778 5.57178 41.6814 5.57178ZM41.6233 50.0088C52.2798 50.0088 62.9314 50.0088 73.588 50.0088C74.8377 50.0088 74.8522 49.9991 74.8522 48.7298C74.8522 35.794 74.8522 22.8582 74.8522 9.9273C74.8522 8.58043 74.8329 8.56105 73.4863 8.56105C52.2604 8.56105 31.0297 8.56105 9.80384 8.56105C8.49115 8.56105 8.46208 8.59012 8.46208 9.86432C8.46208 22.8243 8.46208 35.7891 8.46208 48.7491C8.46208 49.9991 8.47662 50.0088 9.74572 50.0088C20.3732 50.0088 31.0006 50.0088 41.6281 50.0088H41.6233Z" fill="#0E2B72"/>
<path d="M41.6432 59.8875C40.7519 59.8875 39.8607 59.9069 38.9694 59.8875C38.0587 59.8633 37.4242 59.2723 37.4048 58.468C37.3854 57.6977 37.9425 57.0582 38.824 56.9952C40.7131 56.8595 42.6023 56.8547 44.4914 56.9952C45.3681 57.063 45.9251 57.7074 45.8961 58.4777C45.867 59.2819 45.2325 59.8488 44.317 59.8875C44.2637 59.8875 44.2104 59.8875 44.1571 59.8875C43.3192 59.8875 42.4812 59.8875 41.6432 59.8875Z" fill="#0E2B72"/>
<path d="M64.316 27.8533C64.3015 36.3802 57.7719 43.6911 49.3436 44.5922C43.7102 45.1979 38.9244 43.4004 35.0251 39.321C34.3857 38.6525 33.9982 38.6718 33.2862 39.166C29.6629 41.6999 26.0058 44.1756 22.3584 46.6755C22.1549 46.8112 21.9563 46.9565 21.748 47.0825C20.9052 47.5912 20.0672 47.4749 19.5828 46.787C19.0742 46.0554 19.2535 45.2172 20.1205 44.6213C23.9375 41.9906 27.769 39.3743 31.5908 36.7533C32.2399 36.3075 32.3981 35.7342 32.0655 35.0333C27.1248 24.6266 33.9401 12.2577 45.3281 10.9689C54.7494 9.89823 63.1002 16.5211 64.1852 25.9105C64.2579 26.5597 64.3209 27.2041 64.3112 27.8533H64.316ZM60.9689 27.8533C60.9689 20.2178 54.8656 14.1229 47.2268 14.1181C39.5638 14.1133 33.4073 20.2517 33.4073 27.8969C33.4073 35.45 39.6268 41.7532 47.1784 41.6756C55.5534 41.5933 61.0707 34.8056 60.9641 27.8533H60.9689Z" fill="#0E2B72"/>
<path d="M11.0051 17.3154C11.0051 16.2302 10.9858 15.1449 11.0051 14.0597C11.0439 12.3397 12.221 11.1382 13.9357 11.1188C16.13 11.0898 18.3291 11.1043 20.5234 11.1188C21.5697 11.1237 22.243 11.6905 22.2866 12.5384C22.3253 13.4056 21.6423 14.0742 20.567 14.0984C18.7263 14.1372 16.8808 14.142 15.0353 14.1081C14.2651 14.0936 13.9696 14.36 13.989 15.1449C14.0277 16.7728 14.0035 18.4007 13.9987 20.0237C13.9987 20.295 14.0035 20.5663 13.9744 20.8376C13.8727 21.8114 13.2479 22.4364 12.4292 22.4073C11.6106 22.3783 11.0197 21.7097 11.0003 20.7359C10.9809 19.5973 10.9955 18.4588 10.9955 17.3202L11.0051 17.3154Z" fill="#0E2B72"/>
<path d="M26.8927 11.1094C28.5542 11.1094 29.2517 11.6375 29.1984 12.6791C29.15 13.6675 28.4283 14.1277 26.9606 14.1132C25.6721 14.0987 24.9358 13.5657 24.9068 12.6355C24.8874 11.9233 25.4105 11.2838 26.1565 11.153C26.4714 11.0997 26.8056 11.1142 26.8879 11.1094H26.8927Z" fill="#0E2B72"/>
<path d="M11.0147 27.17C11.0051 25.7408 11.5234 24.9947 12.5115 25.014C13.4851 25.0334 14.0131 25.8038 14.0034 27.2184C14.0034 27.514 13.9889 27.8192 13.9259 28.1051C13.7418 28.9238 13.1364 29.3744 12.3468 29.3066C11.6105 29.2436 11.1019 28.7107 11.0244 27.9064C11.0002 27.6642 11.0244 27.4219 11.0244 27.1748L11.0147 27.17Z" fill="#0E2B72"/>
<path d="M47.1988 18.4637C48.6374 18.4637 50.0809 18.4637 51.5195 18.4637C51.7036 18.4637 51.8876 18.4637 52.0668 18.4686C52.9678 18.5122 53.5152 18.9579 53.491 19.6216C53.4667 20.3145 52.9581 20.6875 52.0184 20.6924C51.4711 20.6924 50.9188 20.7069 50.3715 20.6924C49.9404 20.6778 49.9937 20.8038 50.0954 21.1672C50.4199 22.3299 51.0254 22.9113 52.3236 22.7078C52.9872 22.6061 53.4861 23.1875 53.491 23.7882C53.491 24.3405 53.0114 24.9607 52.3914 24.8735C51.0642 24.6894 50.5411 25.3337 49.984 26.4384C49.0976 28.2019 47.4797 29.0304 45.484 29.0643C45.2806 29.0643 45.0723 29.0546 44.8688 29.0691C44.7381 29.0788 44.554 29.0691 44.4911 29.1515C44.3603 29.321 44.5589 29.4373 44.6509 29.5488C45.857 31.0749 47.0631 32.5962 48.2741 34.1175C48.7585 34.7279 49.2477 35.3287 49.7224 35.944C50.3424 36.7385 50.357 37.3296 49.7708 37.7995C49.2186 38.2404 48.5986 38.0805 47.9738 37.2957C46.1331 34.9895 44.307 32.6737 42.4712 30.3627C42.258 30.0962 42.0255 29.8346 41.8511 29.5439C41.1488 28.3812 41.9044 26.9761 43.2607 26.9083C44.1956 26.8599 45.1353 26.9713 46.0653 26.792C46.8452 26.637 47.4652 26.2446 47.9351 25.6196C48.0562 25.4597 48.2402 25.2804 48.1482 25.0721C48.0464 24.8396 47.7897 24.9219 47.596 24.9219C46.0411 24.9171 44.4862 24.9219 42.9313 24.9219C42.7279 24.9219 42.5196 24.9219 42.3162 24.9219C41.4394 24.8977 40.8678 24.4374 40.8872 23.7688C40.9066 23.0809 41.4346 22.6788 42.3501 22.6739C44.1326 22.6691 45.92 22.6739 47.7026 22.6739C47.8818 22.6739 48.1094 22.7514 48.2208 22.5867C48.3613 22.3784 48.1627 22.1991 48.0562 22.0344C47.47 21.1381 46.6175 20.7166 45.5664 20.6972C44.4911 20.673 43.4157 20.6972 42.3404 20.6875C41.4103 20.6875 40.8969 20.2902 40.8872 19.5974C40.8775 18.9337 41.42 18.4783 42.3307 18.4686C43.9534 18.4492 45.5761 18.4637 47.2036 18.4637H47.1988Z" fill="#FFB400"/>
</svg>
