<svg width="97" height="80" viewBox="0 0 97 80" fill="none" xmlns="http://www.w3.org/2000/svg">
<path d="M22.0858 0.0878906C25.5096 0.966612 27.469 3.18957 28.2611 6.61554C28.8916 9.34585 29.7098 12.0343 30.382 14.7594C30.5905 15.6015 30.924 15.7637 31.7474 15.5387C40.325 13.2059 48.9131 10.9045 57.4959 8.59789C59.3563 8.09576 59.8514 8.3939 60.3569 10.2926C61.8629 15.9258 63.3585 21.5538 64.8698 27.187C65.1929 28.3901 65.2033 28.3953 66.3654 28.0815C72.7908 26.3554 79.211 24.6189 85.6312 22.8876C85.9595 22.7987 86.293 22.7097 86.6265 22.6313C87.9189 22.3175 88.5599 22.6836 88.9142 23.986C89.8418 27.4172 90.7486 30.8536 91.6657 34.2848C93.2291 40.1273 94.7925 45.9645 96.3506 51.8122C96.8926 53.8521 96.6112 54.3123 94.5475 54.8615C92.7132 55.348 90.8893 55.8553 89.0497 56.3208C88.4609 56.4673 88.2003 56.7236 88.1326 57.3826C87.7261 61.1329 85.8031 63.4291 82.1709 64.4124C69.7839 67.7704 57.3813 71.0917 44.989 74.4236C43.7644 74.7531 42.5294 74.7897 41.2943 74.5543C40.2781 74.3556 39.6997 73.6285 39.8247 72.823C39.9654 71.9182 40.7263 71.3794 41.7894 71.5991C42.7795 71.8031 43.7019 71.6462 44.6347 71.3951C56.9435 68.0842 69.2472 64.7785 81.556 61.4729C83.2392 61.0178 84.3961 60.0083 84.9433 58.3137C85.1778 57.5866 85.0163 57.4192 84.2763 57.618C80.8577 58.5543 77.434 59.4591 74.0102 60.3745C64.0464 63.0525 54.0826 65.7357 44.1188 68.4085C42.1541 68.9368 41.7008 68.6648 41.1849 66.7138C35.859 46.7804 30.5332 26.8471 25.2073 6.90844C24.3735 3.78061 22.2005 2.5096 19.0581 3.30987C18.636 3.41971 18.2139 3.52955 17.797 3.64985C16.6349 3.97937 16.6088 3.9846 16.958 5.17715C17.5104 7.04967 17.1717 6.91367 19.105 6.41155C19.4073 6.33309 19.7095 6.25463 20.0118 6.18664C21.2416 5.89373 21.8982 6.25986 22.2422 7.49426C22.8467 9.68583 23.4251 11.8879 24.014 14.0847C27.198 26.0102 30.382 37.9357 33.5661 49.8612C33.6443 50.1646 33.7381 50.4627 33.8006 50.7661C33.9934 51.6866 33.5713 52.4555 32.7584 52.6857C31.961 52.9106 31.1741 52.466 30.9188 51.5454C30.2466 49.1446 29.6108 46.7334 28.9646 44.3221C25.9525 33.0295 22.9352 21.7369 19.944 10.439C19.7251 9.60738 19.4021 9.42954 18.5683 9.66491C14.9204 10.6953 11.2309 11.5793 7.59868 12.6672C4.57098 13.5721 2.10087 12.5521 0.996094 9.82183V7.38965C1.66313 5.44391 3.05973 4.43965 5.02435 3.93753C9.7926 2.71359 14.5296 1.37982 19.2822 0.0878906C20.215 0.0878906 21.1478 0.0878906 22.0806 0.0878906H22.0858ZM70.1435 41.1734C70.1643 42.2927 69.6641 42.7948 68.8146 43.025C66.1152 43.7468 63.4158 44.4947 60.7112 45.2008C59.4293 45.5356 58.7727 45.1328 58.4235 43.8461C57.621 40.9014 56.808 37.9566 56.0628 34.9962C55.87 34.2325 55.6095 34.0704 54.8538 34.2796C49.2205 35.8226 43.582 37.3499 37.9279 38.8249C37.0576 39.0498 36.9638 39.3688 37.1827 40.1743C39.3505 48.2084 41.4975 56.2476 43.6081 64.2973C43.8478 65.2074 44.2074 65.2964 45.0412 65.0662C52.983 62.8956 60.9405 60.772 68.8928 58.6327C76.7252 56.5248 84.5577 54.4169 92.3901 52.3143C92.9008 52.1783 93.3333 52.126 93.1301 51.3623C90.9153 43.1505 88.7266 34.9282 86.5431 26.7058C86.3816 26.1043 86.1158 25.8899 85.4853 26.0625C79.7269 27.6264 73.9633 29.1694 68.1997 30.7124C67.6473 30.8588 67.4441 31.0837 67.6265 31.7062C68.1372 33.4741 68.5801 35.2577 69.0491 37.036C69.4296 38.4797 69.8152 39.9285 70.1487 41.1943L70.1435 41.1734ZM50.8777 21.5329C50.8308 22.5319 50.3253 23.0079 49.5228 23.2223C47.8448 23.6774 46.1668 24.1377 44.4836 24.5875C43.0088 24.9798 42.3782 24.5927 41.9718 23.0759C41.4558 21.1511 40.9243 19.2262 40.4397 17.291C40.2677 16.6058 40.0228 16.3809 39.2776 16.5953C36.9794 17.2648 34.6709 17.8872 32.3467 18.4574C31.6119 18.6404 31.492 18.9386 31.6796 19.6238C33.0762 24.7653 34.4676 29.9121 35.8017 35.0694C36.0414 35.9899 36.3749 36.1573 37.2817 35.9063C44.9265 33.8141 52.5818 31.7742 60.2318 29.7134C62.2642 29.1642 62.2694 29.1537 61.717 27.0929C60.435 22.2756 59.1322 17.4636 57.8763 12.6358C57.6835 11.8879 57.4125 11.6943 56.6569 11.914C54.3588 12.5783 52.045 13.185 49.7312 13.7865C49.1215 13.9434 48.9235 14.2207 49.1111 14.8588C49.5697 16.4436 49.9762 18.0494 50.3983 19.6447C50.5754 20.3037 50.737 20.968 50.8777 21.5224V21.5329ZM58.8144 33.6467C58.83 33.7095 58.8404 33.767 58.856 33.8298C59.5387 36.3875 60.2266 38.9399 60.8988 41.4976C61.0031 41.8952 61.2167 41.9579 61.5919 41.8533C63.1449 41.4244 64.7082 41.0164 66.2664 40.6032C66.6572 40.4986 66.8135 40.2999 66.6885 39.85C66.0058 37.3603 65.3544 34.8602 64.6874 32.3652C64.5727 31.9415 64.3591 31.7271 63.8796 31.8579C62.3267 32.292 60.7633 32.7052 59.2104 33.1236C58.9498 33.1969 58.757 33.3276 58.8091 33.6467H58.8144ZM5.71744 9.96828C5.58716 9.96828 5.61843 9.97351 5.64448 9.96828C8.4898 9.35108 11.3247 8.6345 14.0658 7.68256C14.9725 7.36873 13.9459 6.29648 13.9303 5.55898C13.9251 5.18238 13.7792 4.71687 13.1747 4.88425C10.4232 5.63744 7.66643 6.35401 4.93055 7.15428C4.18535 7.37396 3.77366 8.00162 3.96648 8.83849C4.15408 9.66491 4.73774 9.99443 5.71223 9.96828H5.71744ZM45.3799 14.9739C44.8952 15.1098 44.2386 15.2981 43.582 15.4812C43.2329 15.5806 43.1703 15.8473 43.2485 16.1403C43.6654 17.7303 43.9364 19.3884 44.5774 20.8843C45.0255 21.9356 45.9531 20.8634 46.667 20.8529C47.0683 20.8425 47.5842 20.7535 47.4018 20.0736C46.9745 18.5149 46.5628 16.9562 46.1459 15.3975C46.0625 15.0889 45.901 14.9006 45.3799 14.9739Z" fill="#0E2B72"/>
<path d="M25.7228 55.0703C32.388 55.0703 37.792 60.4682 37.7868 67.1318C37.7816 73.7327 32.3671 79.1515 25.775 79.1567C19.115 79.1567 13.685 73.7641 13.6641 67.1318C13.6433 60.4839 19.0525 55.0755 25.7228 55.0755V55.0703ZM25.6603 76.1073C30.5797 76.1439 34.6809 72.1845 34.733 67.3567C34.7851 62.2047 30.8715 58.1301 25.7906 58.036C20.9442 57.9471 16.7596 62.053 16.7283 66.9487C16.6918 72.0851 20.5794 76.0707 25.6655 76.1073H25.6603Z" fill="#0E2B72"/>
<path d="M31.6996 67.2425C31.6318 70.5586 28.9011 73.2053 25.6077 73.1477C22.3507 73.0902 19.5783 70.2187 19.6825 67.0228C19.792 63.6596 22.5435 61.0235 25.8734 61.081C29.1357 61.1385 31.7621 63.9212 31.6996 67.2477V67.2425ZM25.7379 64.1461C24.0756 64.1304 22.7571 65.4014 22.7155 67.049C22.6738 68.7227 24.0078 70.0722 25.7067 70.0827C27.3691 70.0931 28.6979 68.8221 28.7448 67.1798C28.7917 65.5269 27.442 64.1618 25.7432 64.1461H25.7379Z" fill="#FFB400"/>
</svg>
