<svg width="90" height="90" viewBox="0 0 90 90" fill="none" xmlns="http://www.w3.org/2000/svg">
<path d="M41.3288 89.9995C38.5548 89.6273 35.7907 89.2303 33.0911 88.4661C22.8931 85.5779 14.6653 79.8611 8.45225 71.2859C3.86689 64.9587 1.14744 57.8623 0.29389 50.1109C-0.778011 40.3298 1.06804 31.0698 6.06528 22.569C12.8887 10.9567 22.9626 3.64199 36.1629 0.962239C48.46 -1.52894 59.9184 0.833214 70.3496 7.86012C71.0691 8.34645 71.3818 8.29186 71.744 7.53756C72.1361 6.72371 72.6026 5.94459 73.079 5.18037C74.8853 2.26738 78.8652 2.17309 80.6369 5.10593C82.994 8.99653 85.2421 12.9517 87.4404 16.9316C88.7059 19.2193 87.6886 21.9139 85.2818 22.9561C84.6565 23.229 84.5275 23.4523 84.855 24.0726C87.6538 29.3825 89.3461 35.0298 89.8671 41.0146C89.877 41.1337 89.9316 41.2479 89.9664 41.362V48.776C89.6438 51.158 89.3758 53.5549 88.7307 55.8773C84.0808 72.6655 73.3966 83.5483 56.7176 88.5356C54.1172 89.3147 51.4275 89.6472 48.7428 89.9995H41.3288ZM3.23666 45.1732C3.36072 47.4163 3.46989 49.9124 3.94133 52.3738C6.17942 64.1002 12.2337 73.3553 22.1686 79.9306C31.3641 86.0097 41.5174 88.079 52.3754 86.1486C64.201 84.0445 73.466 77.8711 80.091 67.8816C85.644 59.5099 87.7531 50.2449 86.6812 40.2554C86.0609 34.479 84.2247 29.1046 81.3515 24.0726C81.0438 23.5367 80.6716 23.3332 80.0513 23.3382C76.915 23.363 73.7836 23.358 70.6473 23.3481C66.8461 23.3382 64.8114 19.924 66.6128 16.5644C67.4416 15.026 68.2951 13.4975 69.2032 12.0088C69.5903 11.3686 69.5754 11.0312 68.9055 10.5746C59.4569 4.16802 49.1001 1.87534 37.8601 3.79583C18.6204 7.08101 3.45501 23.755 3.23666 45.1732ZM76.9001 20.321C78.9794 20.321 81.0587 20.3458 83.138 20.311C84.6466 20.2862 85.2272 19.3086 84.5423 18.0184C84.19 17.3534 83.8029 16.7083 83.4258 16.0532C81.7187 13.0757 80.0116 10.0932 78.2946 7.11575C77.7388 6.15798 76.9497 5.85031 76.2202 6.29693C75.7885 6.55994 75.585 7.01153 75.3468 7.42838C73.3767 10.8823 71.4116 14.3412 69.4464 17.7951C68.5829 19.3185 69.1536 20.3011 70.9352 20.316C72.9251 20.3309 74.9151 20.316 76.9001 20.316V20.321Z" fill="#0E2B72"/>
<path d="M45.1004 75.4139C43.2642 75.4139 41.4232 75.4238 39.587 75.4139C38.3464 75.404 37.8402 74.8879 37.8303 73.6423C37.8204 72.2578 37.8005 70.8683 37.8402 69.4837C37.8551 68.8535 37.6914 68.5011 37.0413 68.2877C36.0984 67.9801 35.1853 67.5781 34.292 67.1464C33.7908 66.9032 33.4732 66.9876 33.106 67.3697C32.1433 68.3671 31.1607 69.3448 30.1682 70.3125C29.131 71.3198 28.3867 71.3298 27.3693 70.3224C24.8236 67.8014 22.2877 65.2656 19.7668 62.7149C18.7594 61.6975 18.7792 60.9581 19.7966 59.916C20.7642 58.9235 21.7419 57.9409 22.7393 56.9782C23.1264 56.606 23.1711 56.2785 22.9378 55.7922C22.4962 54.8691 22.1091 53.9213 21.7617 52.9586C21.5781 52.4474 21.3101 52.2539 20.7742 52.2638C19.3301 52.2936 17.881 52.2837 16.4369 52.2638C15.2013 52.2539 14.6901 51.7378 14.6852 50.4872C14.6753 46.81 14.6753 43.1378 14.6852 39.4606C14.6852 38.1753 15.2013 37.684 16.5163 37.679C17.9307 37.6691 19.3499 37.6592 20.7642 37.684C21.3002 37.6939 21.5781 37.5103 21.7567 36.9942C22.0892 36.0612 22.4565 35.1283 22.8932 34.24C23.1661 33.6892 23.1314 33.3269 22.6798 32.9001C21.6922 31.9721 20.7444 30.9995 19.8015 30.0268C18.7644 28.9599 18.7594 28.2304 19.8164 27.1635C22.2977 24.6624 24.7888 22.1662 27.2949 19.685C28.3817 18.6081 29.141 18.618 30.2377 19.6899C31.2054 20.6378 32.1681 21.5955 33.106 22.5731C33.4732 22.9553 33.7958 23.0247 34.292 22.7865C35.1853 22.3548 36.1034 21.9628 37.0413 21.6452C37.6219 21.4467 37.8502 21.1588 37.8353 20.5385C37.7956 19.1242 37.8154 17.7049 37.8253 16.2906C37.8353 15.045 38.3464 14.5289 39.587 14.5289C43.2642 14.519 46.9365 14.519 50.6137 14.5289C51.904 14.5289 52.4002 15.0401 52.4101 16.3502C52.4201 17.7347 52.435 19.1242 52.4002 20.5087C52.3853 21.1092 52.564 21.4318 53.1644 21.6303C54.0775 21.933 54.9758 22.2952 55.8293 22.7369C56.4347 23.0495 56.802 22.9304 57.2337 22.4689C58.1667 21.4864 59.1294 20.5336 60.107 19.5907C61.1045 18.628 61.8538 18.6131 62.8413 19.5907C65.4119 22.1315 67.9676 24.6872 70.5084 27.2578C71.4711 28.2304 71.4414 29.0046 70.4737 29.9921C69.501 30.9796 68.5284 31.9672 67.5259 32.9249C67.1091 33.3219 67.0595 33.6643 67.3175 34.1854C67.7542 35.0737 68.1363 35.9967 68.4589 36.9346C68.6475 37.4855 68.9353 37.684 69.5109 37.6741C70.9253 37.6443 72.3445 37.6542 73.7588 37.6691C75.0144 37.679 75.5454 38.1802 75.5503 39.401C75.5602 43.108 75.5602 46.81 75.5503 50.517C75.5503 51.7378 75.0144 52.244 73.7588 52.2539C72.3445 52.2638 70.9253 52.2787 69.5109 52.2489C68.9403 52.234 68.6524 52.4325 68.4589 52.9834C68.1214 53.9461 67.7145 54.889 67.2778 55.817C67.0644 56.2735 67.1041 56.5812 67.4614 56.9335C68.4589 57.8963 69.4365 58.8788 70.4042 59.8713C71.4612 60.9532 71.4811 61.6876 70.4439 62.7397C67.9428 65.2656 65.4268 67.7766 62.9058 70.2827C61.8439 71.3347 61.1094 71.3248 60.0375 70.2827C59.0649 69.3348 58.1021 68.382 57.1642 67.4044C56.7772 66.9975 56.4397 66.9032 55.9038 67.1662C55.0155 67.6079 54.0974 67.9999 53.1545 68.3126C52.5491 68.516 52.3804 68.8435 52.3953 69.439C52.43 70.8534 52.4151 72.2726 52.4002 73.687C52.3853 74.873 51.8643 75.404 50.6882 75.4089C48.8223 75.4238 46.9514 75.4089 45.0855 75.4089L45.1004 75.4139ZM45.1004 72.3967C46.2467 72.3967 47.3931 72.3669 48.5344 72.4066C49.2193 72.4314 49.4227 72.1635 49.4078 71.5084C49.3731 70.2132 49.4178 68.918 49.3929 67.6228C49.3731 66.665 49.8148 66.0943 50.7229 65.8462C52.5044 65.3599 54.1917 64.6502 55.8045 63.757C56.8863 63.1615 57.3826 63.2558 58.2907 64.154C59.2137 65.0621 60.1368 65.9752 61.035 66.9082C61.3575 67.2407 61.5809 67.2655 61.9183 66.9231C63.6105 65.206 65.3127 63.4989 67.0347 61.8117C67.4118 61.4445 67.382 61.2063 67.0198 60.8589C66.067 59.9408 65.1489 58.9831 64.2011 58.0551C63.5063 57.3802 63.3326 56.6457 63.8338 55.7773C64.7817 54.1248 65.5012 52.373 66.0074 50.5369C66.2456 49.6684 66.8064 49.2417 67.7244 49.2516C69.0792 49.2714 70.434 49.2417 71.7887 49.2615C72.3247 49.2714 72.548 49.0829 72.543 48.5271C72.5281 46.1798 72.5232 43.8276 72.543 41.4803C72.548 40.8848 72.3197 40.6863 71.7441 40.6962C70.4191 40.721 69.0941 40.6863 67.7691 40.7111C66.8113 40.731 66.2357 40.2893 65.9876 39.3861C65.4864 37.5798 64.7668 35.8627 63.8636 34.2201C63.3177 33.2227 63.417 32.7115 64.2308 31.8828C65.139 30.9598 66.0471 30.0318 66.9801 29.1385C67.3671 28.7713 67.4168 28.5232 67.0049 28.1212C65.3027 26.4588 63.6204 24.7715 61.953 23.0744C61.5908 22.7022 61.3526 22.7121 61.0002 23.0793C60.0822 24.0371 59.1244 24.9552 58.1964 25.898C57.5215 26.5878 56.7871 26.7714 55.9186 26.2702C54.2661 25.3174 52.5144 24.6078 50.6782 24.0966C49.8148 23.8535 49.3781 23.2977 49.388 22.3796C49.4029 21.0248 49.3781 19.6701 49.3979 18.3153C49.4078 17.7843 49.2193 17.5561 48.6684 17.561C46.3212 17.5759 43.9689 17.5809 41.6217 17.561C41.0311 17.5561 40.8227 17.7794 40.8376 18.36C40.8624 19.6254 40.8475 20.8909 40.8425 22.1563C40.8376 23.4168 40.5597 23.8336 39.3538 24.181C37.6368 24.6723 36.0041 25.3522 34.4409 26.2107C33.3492 26.8111 32.8628 26.7119 31.9547 25.8186C31.0565 24.9303 30.1483 24.047 29.2749 23.1289C28.9028 22.7419 28.6546 22.7022 28.2576 23.1091C26.5952 24.8112 24.9079 26.4935 23.2108 28.1609C22.8386 28.5282 22.8584 28.7614 23.2207 29.1137C24.1785 30.0318 25.0965 30.9896 26.0394 31.9175C26.7292 32.5924 26.9029 33.3319 26.4017 34.1953C25.4489 35.8479 24.7392 37.5996 24.2281 39.4357C23.9899 40.2992 23.4242 40.731 22.5061 40.721C21.1513 40.7012 19.7966 40.731 18.4418 40.7111C17.9058 40.7012 17.6875 40.8997 17.6925 41.4505C17.7073 43.7978 17.7123 46.15 17.6925 48.4973C17.6875 49.0928 17.9207 49.2863 18.4964 49.2764C19.8214 49.2516 21.1464 49.2863 22.4713 49.2615C23.4291 49.2417 23.9998 49.6833 24.2529 50.5915C24.7442 52.368 25.4489 54.0553 26.3421 55.6731C26.9376 56.7549 26.8433 57.2511 25.9451 58.1593C25.037 59.0823 24.1239 60.0053 23.1909 60.9035C22.8584 61.2261 22.8386 61.4544 23.181 61.7869C24.898 63.4791 26.6051 65.1812 28.2924 66.9032C28.6646 67.2804 28.8978 67.2456 29.2452 66.8834C30.1632 65.9306 31.126 65.0125 32.049 64.0647C32.7288 63.3699 33.4583 63.2061 34.3268 63.7024C35.9793 64.6552 37.736 65.3599 39.5672 65.876C40.4307 66.1191 40.8624 66.6799 40.8475 67.598C40.8277 68.9527 40.8574 70.3075 40.8376 71.6623C40.8277 72.2032 41.0262 72.4215 41.577 72.4116C42.7531 72.3868 43.9243 72.4066 45.1004 72.4066V72.3967Z" fill="#0E2B72"/>
<path d="M78.4478 11.765C78.4478 12.2761 78.4825 12.7872 78.4378 13.2934C78.3684 14.1222 77.748 14.6631 76.9342 14.6581C76.1253 14.6531 75.4951 14.1073 75.4554 13.2736C75.4107 12.2265 75.4107 11.1744 75.4554 10.1273C75.4951 9.2986 76.1402 8.76265 76.9541 8.76761C77.7629 8.77257 78.3733 9.31845 78.4329 10.1522C78.4726 10.6881 78.4428 11.229 78.4378 11.7699L78.4478 11.765Z" fill="#FFB400"/>
<path d="M76.9898 15.9937C77.8682 16.0136 78.4935 16.6934 78.4488 17.5768C78.4091 18.4105 77.7541 19.0109 76.9104 18.9911C76.037 18.9712 75.4068 18.2914 75.4515 17.4031C75.4912 16.5644 76.1412 15.9689 76.9898 15.9888V15.9937Z" fill="#FFB400"/>
<path d="M45.1991 29.0059C54.0324 29.0059 61.099 36.1271 61.099 45.0298C61.099 53.8233 53.9728 60.9545 45.1842 60.9545C36.2418 60.9545 29.1454 53.8829 29.1504 44.9702C29.1554 36.0526 36.2418 29.0059 45.1991 29.0059ZM45.1991 32.028C37.7008 32.2067 32.1924 37.8143 32.2222 45.0149C32.252 52.3346 37.8844 57.8182 45.0999 57.8926C52.2906 57.967 58.1116 52.1411 58.0421 44.8859C57.9726 37.7548 52.5039 32.2563 45.1991 32.0231V32.028Z" fill="#FFB400"/>
</svg>
