<svg width="93" height="92" viewBox="0 0 93 92" fill="none" xmlns="http://www.w3.org/2000/svg">
<path d="M69.9231 91.0893C69.9613 91.0511 69.9941 91.0074 70.0378 90.9637C68.9943 90.7014 68.6501 90.2589 68.6501 89.1717C68.6501 88.0081 68.6446 86.8498 68.6501 85.6862C68.6501 85.413 68.5681 85.3037 68.2895 85.3256C68.1092 85.342 67.9289 85.3147 67.7486 85.2983C66.858 85.1999 66.3718 84.6755 66.3499 83.7795C66.339 83.2222 66.339 82.665 66.3499 82.1077C66.3499 81.8947 66.2789 81.8127 66.0658 81.8236C65.8473 81.8346 65.6233 81.8236 65.4047 81.8236C49.7298 81.8236 34.0494 81.8236 18.3745 81.8236C18.145 81.8236 17.9155 81.8236 17.686 81.7799C17.0413 81.6597 16.5605 81.1025 16.5441 80.4469C16.5441 80.283 16.5441 80.1191 16.5441 79.9552C16.5441 68.3621 16.5441 56.7691 16.5441 45.176C16.5441 44.7499 16.5441 44.7335 16.1289 44.6898C13.9817 44.4603 11.9438 43.8648 10.0097 42.9088C6.43112 41.1441 3.78127 38.4398 1.92913 34.9106C0.945687 33.0367 0.432107 31.0426 0.148002 28.9611C-0.185275 26.5299 0.0606122 24.1479 0.721703 21.8096C1.46475 19.1873 2.79785 16.8872 4.60628 14.8549C5.60611 13.7349 6.69334 12.7024 7.96635 11.8993C10.0753 10.5662 12.3099 9.53367 14.7958 9.15124C15.2766 9.07476 15.7629 9.01466 16.2491 8.97096C16.5059 8.9491 16.5551 8.83984 16.5551 8.60492C16.5496 6.26118 16.5496 3.91743 16.5551 1.57369C16.5551 0.748738 16.9758 0.186021 17.7024 0.0330496C17.8882 -0.00519328 18.0849 0.000269762 18.2761 0.000269762C32.8802 0.000269762 47.4843 0.000269762 62.0883 0.000269762C67.9234 0.000269762 73.7585 0.000269762 79.5936 0.000269762C80.4131 0.000269762 81.0032 0.481038 81.0961 1.21858C81.1289 1.48628 81.1398 1.75398 81.1398 2.02168C81.1398 18.7447 81.1398 35.4678 81.1398 52.1909C81.1398 52.3657 81.1343 52.5351 81.1124 52.7099C81.0851 52.9229 81.1562 53.0213 81.3802 53.0595C82.2379 53.1906 83.0629 53.4365 83.8388 53.8244C86.5432 55.1684 88.2697 57.3154 88.969 60.2547C89.6902 63.2813 88.9581 65.9911 87.0732 68.4168C86.7727 68.8047 86.4176 69.1434 86.057 69.4712C85.9258 69.5914 85.8658 69.7225 85.8658 69.8973C85.8658 71.4707 85.8657 73.0496 85.8548 74.6231C85.8548 74.8689 85.9422 74.9345 86.1772 74.9345C87.0186 74.9235 87.8654 74.9235 88.7068 74.9345C90.9633 74.9508 92.6296 76.4041 92.9247 78.6495C92.9848 79.1139 92.9411 79.5892 92.952 80.059C92.9739 81.2882 92.9083 82.5175 92.9957 83.7467C93.0667 84.7957 92.2472 85.4021 91.455 85.3584C90.6955 85.3147 90.6955 85.3474 90.6955 86.1014C90.6955 87.194 90.6955 88.2921 90.701 89.3848C90.701 90.3245 90.171 90.8981 89.2368 90.9473C89.193 90.9473 89.1384 90.9309 89.1002 90.9965C89.2204 91.062 89.3733 91.0074 89.4771 91.0893H69.9286H69.9231ZM48.8119 2.81385C41.895 2.81385 34.9727 2.81385 28.0559 2.81385C25.2585 2.81385 22.4612 2.81385 19.6638 2.81385C19.4508 2.81385 19.3251 2.84117 19.3251 3.10341C19.3251 4.94453 19.3032 6.79111 19.2814 8.63223C19.2814 8.8453 19.347 8.93818 19.5655 8.96549C20.4506 9.06383 21.3357 9.1731 22.1989 9.39163C24.7395 10.0363 27.056 11.1399 29.1049 12.8007C31.3995 14.6637 33.1588 16.9473 34.328 19.6462C35.6393 22.6674 36.1474 25.8361 35.6721 29.1304C35.3115 31.6271 34.5794 33.9873 33.2244 36.1398C31.6673 38.6037 29.7277 40.6634 27.209 42.1712C24.8542 43.5808 22.3191 44.3893 19.6092 44.7007C19.407 44.7226 19.3196 44.7827 19.3196 44.9957C19.3196 45.5803 19.2923 46.1649 19.2923 46.7549C19.2923 49.6942 19.2923 52.6279 19.2923 55.5672C19.2923 61.9974 19.2923 68.4332 19.2923 74.8634C19.2923 76.12 19.265 77.3765 19.3142 78.6385C19.3251 78.9008 19.4016 79.0155 19.6638 78.9773C19.713 78.9718 19.7622 78.9773 19.8059 78.9773C35.1858 78.9773 50.5657 78.9773 65.9456 78.9773C66.0112 78.9773 66.0822 78.9773 66.1478 78.9773C66.3172 78.9882 66.3772 78.9063 66.3936 78.7369C66.6176 76.5407 68.3114 74.9782 70.5132 74.9399C71.4147 74.9235 72.3161 74.929 73.2176 74.9399C73.4689 74.9399 73.5454 74.858 73.5454 74.6067C73.5345 73.1097 73.5236 71.6073 73.5454 70.1104C73.5454 69.7498 73.4416 69.5094 73.1848 69.2636C70.3328 66.5101 69.4423 62.5602 70.8355 58.9817C70.983 58.6047 70.983 58.5993 70.5842 58.5993C55.7397 58.5993 40.8952 58.5993 26.0562 58.5993C25.6792 58.5993 25.6738 58.5993 25.6738 58.9872C25.6738 62.063 25.6737 65.1334 25.6683 68.2092C25.6683 68.4714 25.7393 68.5588 26.007 68.5534C38.4913 68.5479 50.9809 68.5479 63.4652 68.5424C63.5799 68.5424 63.6946 68.5534 63.8094 68.5424C64.0552 68.526 64.1426 68.6353 64.1426 68.8866C64.1317 69.5695 64.1426 70.2524 64.1426 70.9299C64.1426 71.2322 63.9879 71.3851 63.6783 71.3888C50.6258 71.3888 37.5734 71.3888 24.5264 71.3888C24.3843 71.3888 24.2368 71.3888 24.0948 71.3615C23.3408 71.214 22.8874 70.6622 22.8819 69.87C22.8819 66.4992 22.8819 63.1283 22.8819 59.7575C22.8819 58.9107 22.8764 58.0693 22.8819 57.2225C22.8928 56.5232 23.3299 56.0097 24.0074 55.8403C24.2423 55.7802 24.4827 55.7912 24.7231 55.7912C40.6494 55.7912 56.5756 55.7912 72.5019 55.7912C72.7915 55.7912 73.0045 55.7147 73.2176 55.5125C74.5398 54.2396 76.1242 53.4638 77.8999 53.0814C78.1676 53.0267 78.255 52.9175 78.255 52.6443C78.2496 36.178 78.2495 19.7172 78.2495 3.25091C78.2495 2.95226 78.0984 2.80293 77.7961 2.80293C68.1365 2.80293 58.4769 2.80293 48.8174 2.80293L48.8119 2.81385ZM33.0004 26.8741C33.1588 18.4716 26.0726 11.4458 17.4784 11.6589C9.62729 11.8556 2.44271 18.4333 2.78691 27.4204C3.09833 35.6044 9.88406 42.1712 18.3799 41.9746C26.4168 41.7888 33.0878 34.9816 32.9949 26.8686L33.0004 26.8741ZM79.6701 74.9345C80.6754 74.9345 81.6807 74.9235 82.686 74.9399C82.9701 74.9399 83.0247 74.8361 83.0083 74.5848C82.9154 72.7601 82.981 70.9353 82.9701 69.1161C82.9701 68.4987 83.2214 68.0016 83.7349 67.6519C83.8005 67.6082 83.8552 67.559 83.9153 67.5099C85.7619 65.9966 86.4668 63.9806 86.2591 61.6751C86.057 59.4352 84.9042 57.6978 82.9373 56.6107C80.6044 55.3213 78.2222 55.3869 76.004 56.8784C73.5891 58.5009 72.6385 60.8338 73.1029 63.7074C73.3651 65.3246 74.2065 66.6467 75.4905 67.6519C76.0805 68.1163 76.3373 68.6626 76.3264 69.4056C76.299 71.1266 76.3155 72.842 76.3155 74.563C76.3155 74.9345 76.3155 74.9399 76.6815 74.9399C77.6759 74.9399 78.6757 74.9399 79.6701 74.9399V74.9345ZM79.6646 82.5448C83.0356 82.5448 86.4066 82.5448 89.7831 82.5503C90.0781 82.5503 90.1547 82.4628 90.1492 82.1733C90.1328 81.1626 90.1492 80.1573 90.1437 79.1466C90.1437 78.3326 89.5591 77.7426 88.7505 77.7426C82.7351 77.7426 76.7198 77.7426 70.7044 77.7426C69.7646 77.7426 69.2019 78.3162 69.1964 79.2504C69.191 80.212 69.1964 81.1735 69.1964 82.1296C69.1964 82.4027 69.3348 82.5393 69.6117 82.5393C72.9663 82.5393 76.3155 82.5393 79.6701 82.5393L79.6646 82.5448ZM79.6701 88.0791C80.4186 88.0791 81.1671 88.0791 81.9101 88.0791C83.7787 88.0791 85.6472 88.0791 87.5158 88.0791C87.7288 88.0791 87.8545 88.0518 87.849 87.7895C87.8326 87.052 87.8381 86.309 87.849 85.5714C87.849 85.3748 87.7671 85.2928 87.5758 85.2928C87.2863 85.2928 87.0022 85.2928 86.7126 85.2928C81.7626 85.2928 76.8072 85.2928 71.8572 85.2928C71.5949 85.2928 71.4747 85.3693 71.4857 85.6589C71.5021 86.3308 71.4911 87.0028 71.4911 87.6748C71.4911 88.0736 71.4911 88.0791 71.8845 88.0791C74.4797 88.0791 77.0749 88.0791 79.6701 88.0791Z" fill="#0E2B72"/>
<path d="M54.9429 11.6869C49.3318 11.6869 43.7153 11.6869 38.1042 11.6869C37.7109 11.6869 37.7054 11.6869 37.7054 11.2826C37.7054 10.5888 37.7163 9.90041 37.6999 9.20658C37.689 8.9061 37.8037 8.81322 38.0824 8.83508C38.3118 8.85147 38.5413 8.83508 38.7708 8.83508C49.3755 8.83508 59.9803 8.83508 70.5851 8.83508C71.0713 8.83508 71.5631 8.85693 72.0493 8.86239C72.1859 8.86239 72.2405 8.92795 72.2405 9.05361C72.2405 9.85124 72.2405 10.6489 72.2405 11.4465C72.2405 11.605 72.1586 11.6705 72.0111 11.676C71.8963 11.676 71.7816 11.676 71.6669 11.676C66.094 11.676 60.5157 11.676 54.9429 11.676V11.6869Z" fill="#0E2B72"/>
<path d="M54.9461 44.8823C49.3241 44.8823 43.7021 44.8823 38.0801 44.8823C37.7141 44.8823 37.7031 44.8714 37.7031 44.5163C37.7031 43.7951 37.7086 43.074 37.7031 42.3583C37.7031 42.1234 37.7851 42.025 38.02 42.036C38.2713 42.0469 38.5172 42.036 38.7685 42.036C49.3733 42.036 59.9781 42.036 70.5828 42.036C71.0691 42.036 71.5608 42.0578 72.0471 42.0633C72.2 42.0633 72.2492 42.1398 72.2492 42.2764C72.2492 43.0631 72.2492 43.8498 72.2492 44.6365C72.2492 44.8386 72.129 44.8769 71.9706 44.8769C71.4843 44.8769 70.9926 44.8823 70.5063 44.8823C65.3214 44.8823 60.142 44.8823 54.957 44.8823H54.9461Z" fill="#0E2B72"/>
<path d="M56.7756 19.9853C51.7819 19.9853 46.7937 19.9853 41.8 19.9853C41.5231 19.9853 41.3848 19.8468 41.3848 19.57C41.3848 18.8707 41.3902 18.166 41.3848 17.4667C41.3848 17.2318 41.4667 17.1334 41.7016 17.1389C42.0349 17.1444 42.3737 17.1389 42.7069 17.1389C52.0769 17.1389 61.4469 17.1389 70.8169 17.1389C71.2267 17.1389 71.6419 17.1607 72.0517 17.1662C72.1883 17.1662 72.2484 17.2263 72.2484 17.3574C72.2484 18.166 72.2484 18.9691 72.2484 19.7776C72.2484 19.9088 72.1719 19.9689 72.0517 19.9743C71.9261 19.9798 71.8004 19.9798 71.6802 19.9798C66.7193 19.9798 61.7529 19.9798 56.792 19.9798L56.7756 19.9853Z" fill="#0E2B72"/>
<path d="M56.7791 28.2841C51.7854 28.2841 46.7972 28.2841 41.8035 28.2841C41.5267 28.2841 41.3865 28.1457 41.3828 27.8689C41.3828 27.1696 41.3883 26.4648 41.3828 25.7655C41.3828 25.5306 41.4593 25.4323 41.6942 25.4377C42.0384 25.4432 42.3826 25.4377 42.7268 25.4377C52.0859 25.4377 61.4504 25.4377 70.8095 25.4377C71.2193 25.4377 71.6345 25.4596 72.0443 25.465C72.1809 25.465 72.241 25.5251 72.241 25.6562C72.241 26.4648 72.241 27.2679 72.241 28.0765C72.241 28.2076 72.1645 28.2677 72.0443 28.2732C71.9186 28.2786 71.793 28.2786 71.6728 28.2786C66.7119 28.2786 61.7455 28.2786 56.7846 28.2786L56.7791 28.2841Z" fill="#0E2B72"/>
<path d="M56.7791 36.581C51.7854 36.581 46.7972 36.581 41.8035 36.581C41.5267 36.581 41.3865 36.4425 41.3828 36.1657C41.3828 35.4664 41.3883 34.7617 41.3828 34.0624C41.3828 33.8275 41.4593 33.7291 41.6942 33.7346C41.9893 33.7401 42.2898 33.7346 42.5848 33.7346C52.0149 33.7346 61.4395 33.7346 70.8696 33.7346C71.263 33.7346 71.6564 33.7564 72.0443 33.7619C72.1809 33.7619 72.241 33.822 72.241 33.9531C72.241 34.7617 72.241 35.5648 72.241 36.3733C72.241 36.5045 72.1645 36.5646 72.0443 36.57C71.9186 36.5755 71.793 36.5755 71.6728 36.5755C66.7119 36.5755 61.7455 36.5755 56.7846 36.5755L56.7791 36.581Z" fill="#0E2B72"/>
<path d="M84.4835 62.3786C84.4999 63.2035 84.265 63.9684 83.9208 64.7059C83.817 64.9299 83.7186 64.99 83.4727 64.8261C82.8718 64.4164 82.2489 64.0449 81.6261 63.6625C81.4622 63.5641 81.4021 63.4767 81.4949 63.2746C82.0631 62.0453 81.3201 60.6194 79.987 60.39C79.6974 60.3408 79.61 60.2261 79.6155 59.942C79.6319 59.2536 79.6155 58.5598 79.6155 57.8714C79.6155 57.5709 79.6701 57.5217 79.9706 57.5436C82.6915 57.7184 84.5327 60.166 84.4835 62.384V62.3786Z" fill="#0E2B72"/>
</svg>
