<svg width="76" height="81" viewBox="0 0 76 81" fill="none" xmlns="http://www.w3.org/2000/svg">
<path d="M75.6158 12.8925C75.6158 35.2999 75.6158 57.7073 75.6314 80.1147C75.6314 80.7267 75.4959 80.8627 74.8862 80.8627C50.1903 80.847 25.4945 80.847 0.793367 80.847C0.293092 80.4129 0.0742188 79.8951 0.0742188 79.2099C0.0846411 57.404 0.0846462 35.5929 0.079435 13.787C0.079435 12.9867 0.324363 12.3381 0.944496 11.7837C5.00923 8.13804 9.06354 4.4767 13.1022 0.804897C13.6181 0.339384 14.1601 0.140625 14.8532 0.140625C30.1272 0.151086 45.4013 0.151086 60.6753 0.140625C61.3684 0.140625 61.9155 0.355075 62.4262 0.810127C66.5014 4.44531 70.587 8.07004 74.6726 11.6895C75.0582 12.0347 75.4334 12.38 75.6053 12.8925H75.6158ZM37.8033 78.1795C49.0856 78.1795 60.3678 78.1795 71.6501 78.1795C72.8017 78.1795 72.8174 78.169 72.8174 77.0758C72.8174 56.5933 72.8174 36.1107 72.8174 15.6281C72.8174 14.6029 72.7913 14.5768 71.7647 14.5768C64.6931 14.5768 57.6215 14.5768 50.5499 14.5768C49.466 14.5768 49.4503 14.5925 49.4451 15.6542C49.4451 18.2276 49.4347 20.801 49.4451 23.3744C49.4451 24.1329 49.195 24.7082 48.429 24.9279C47.9026 25.0796 47.4232 24.8547 46.9594 24.6193C44.187 23.2228 41.4042 21.8419 38.6423 20.4192C38.0013 20.0897 37.4698 20.0792 36.8236 20.4088C34.0356 21.8419 31.232 23.2385 28.4284 24.6298C26.9067 25.3829 26.0051 24.8233 25.9999 23.1443C25.9947 20.6807 25.9999 18.212 25.9999 15.7484C25.9999 14.9638 25.6108 14.5715 24.8326 14.5715C17.9226 14.5715 11.0125 14.5715 4.10248 14.5715C3.23742 14.5715 2.8049 15.0004 2.8049 15.8582C2.8049 36.2048 2.8049 56.5514 2.8049 76.898C2.8049 77.7453 3.21658 78.169 4.03995 78.169C15.2961 78.169 26.5471 78.169 37.8033 78.169V78.1795ZM70.3316 11.7209C70.2691 11.632 70.2222 11.5326 70.1492 11.4646C67.059 8.71862 63.9687 5.98308 60.8785 3.23184C60.5502 2.93893 60.1854 2.86571 59.7633 2.86571C55.5318 2.87094 51.2951 2.86571 47.0636 2.87094C46.1985 2.87094 46.1464 2.94417 46.4122 3.76012C47.1991 6.15045 48.0173 8.52509 48.7677 10.9259C48.997 11.6582 49.3774 11.8674 50.1122 11.8621C56.5845 11.836 63.0568 11.8465 69.5239 11.8412C69.7792 11.8412 70.0606 11.9354 70.3264 11.7157L70.3316 11.7209ZM5.11867 11.7941C5.45219 11.8308 5.5564 11.8465 5.66063 11.8465C12.2997 11.8465 18.9335 11.8465 25.5726 11.8569C26.1719 11.8569 26.4377 11.6111 26.6149 11.0723C27.3965 8.65063 28.2095 6.2446 29.0068 3.82812C29.3038 2.92324 29.2674 2.87094 28.2929 2.87094C24.1135 2.87094 19.9289 2.87617 15.7495 2.86048C15.1919 2.86048 14.7802 3.03831 14.379 3.40968C11.862 5.70586 9.3293 7.98112 6.80708 10.2668C6.29117 10.7324 5.78049 11.2031 5.12909 11.7941H5.11867ZM37.7199 11.8517C40.2265 11.8517 42.7383 11.836 45.2449 11.8621C45.9119 11.8674 46.1308 11.6895 45.8963 11.0096C45.0573 8.55125 44.2392 6.08769 43.4418 3.61367C43.2594 3.05924 42.952 2.86048 42.3787 2.86571C39.2781 2.88663 36.1722 2.88663 33.0715 2.86571C32.4983 2.86571 32.1856 3.04877 32.0032 3.60844C31.2059 6.08246 30.3878 8.54602 29.5488 11.0043C29.3195 11.6738 29.5175 11.8674 30.1949 11.8621C32.7015 11.836 35.2133 11.8517 37.7199 11.8517ZM37.7199 14.5768C35.0518 14.5768 32.3837 14.6029 29.7155 14.5611C28.9182 14.5506 28.6837 14.8278 28.7045 15.6019C28.7515 17.1711 28.715 18.7402 28.7202 20.3094C28.7202 21.3032 28.7775 21.345 29.6426 20.9109C31.9355 19.7654 34.2337 18.6356 36.5057 17.4483C37.3552 17.0037 38.1004 16.9985 38.9498 17.4431C41.1958 18.6147 43.4731 19.734 45.74 20.869C46.6832 21.345 46.7249 21.3189 46.7301 20.2989C46.7301 18.7298 46.6988 17.1606 46.7457 15.5915C46.7718 14.8069 46.5112 14.5506 45.7243 14.5611C43.0562 14.6029 40.3881 14.5768 37.7199 14.5768Z" fill="#0E2B72"/>
<path d="M52.0342 38.9976C52.0342 41.3252 52.0446 43.658 52.0342 45.9856C52.0029 52.8061 46.8595 58.8473 40.1527 59.8987C39.3606 60.0242 39.0427 60.2909 39.0635 61.1278C39.1156 63.4554 39.1052 65.7882 39.0635 68.1157C39.0531 68.8742 39.3241 69.1148 40.0588 69.0886C41.2418 69.0415 42.4351 69.0625 43.6181 69.0834C45.4785 69.1148 46.8595 70.5532 46.849 72.4257C46.8386 74.2459 45.4577 75.6895 43.6285 75.6947C39.6889 75.7156 35.7492 75.7156 31.8095 75.6947C29.9543 75.6843 28.5734 74.2197 28.589 72.3472C28.5994 70.527 29.9856 69.1148 31.8147 69.0834C33.055 69.0625 34.2952 69.0625 35.5355 69.0834C36.114 69.0939 36.3693 68.8899 36.3641 68.2831C36.3485 65.8196 36.3381 63.356 36.3641 60.8872C36.3745 60.1968 36.0202 60.0294 35.4469 59.9248C29.6833 58.8316 25.8688 55.4737 23.9979 49.9084C23.5654 48.6217 23.3882 47.2827 23.3934 45.9123C23.4091 41.0114 23.4195 36.1052 23.383 31.2042C23.3726 30.1633 23.8155 29.5148 24.6806 29.0702C26.2231 28.2751 27.9063 27.9927 29.5948 27.8201C35.004 27.2761 40.4184 27.2761 45.8276 27.8201C47.4066 27.977 48.9804 28.2542 50.4552 28.9185C51.5495 29.4102 52.1019 30.1529 52.055 31.4448C51.9716 33.9607 52.029 36.4818 52.029 39.0029L52.0342 38.9976ZM35.5095 34.285C35.4886 34.217 35.473 34.1542 35.4521 34.0862C32.4713 34.1699 29.5427 33.8038 26.6348 33.1866C26.1502 33.082 26.1189 33.4533 26.1241 33.7985C26.197 38.2392 25.8844 42.6851 26.2752 47.1154C26.7338 52.3354 31.2415 57.456 37.9275 57.3357C44.3737 57.2154 49.2306 52.1262 49.3035 45.6456C49.3504 41.775 49.2983 37.8992 49.3244 34.0287C49.3296 33.2598 49.0846 33.1081 48.3707 33.265C45.7026 33.8508 43.0032 34.1804 40.2673 34.0914C39.7566 34.0757 39.4074 34.285 39.0635 34.6302C37.7555 35.9587 36.4319 37.2768 35.1238 38.6001C34.9883 38.7413 34.7434 38.8355 34.8216 39.1702C35.4052 39.1702 35.9941 39.1702 36.5882 39.1702C39.5012 39.1702 42.4143 39.1598 45.3274 39.1755C46.4009 39.1807 47.0471 39.9757 46.7865 40.912C46.6719 41.3252 46.3696 41.6024 46.083 41.8901C43.2794 44.7041 40.4757 47.5233 37.6669 50.3321C37.4793 50.5204 37.2813 50.7244 37.0572 50.8604C36.1661 51.4044 35.03 50.7924 34.9831 49.7567C34.9571 49.2232 35.2489 48.8414 35.6033 48.4857C37.5522 46.5348 39.496 44.5838 41.4398 42.6224C41.6274 42.4288 41.914 42.2876 41.9401 41.8901C41.0021 41.8901 40.111 41.8901 39.2251 41.8901C36.6351 41.8901 34.0451 41.8849 31.4552 41.8901C30.809 41.8901 30.2774 41.707 30.0012 41.0794C29.7198 40.4256 29.9283 39.8659 30.4181 39.3899C30.6474 39.165 30.8767 38.9296 31.106 38.6995C32.5703 37.2297 34.0399 35.7547 35.5042 34.285H35.5095ZM37.719 71.8032C35.942 71.8032 34.1598 71.8032 32.3827 71.8032C31.945 71.8032 31.4135 71.7928 31.4135 72.3838C31.4135 72.9801 31.945 72.9697 32.3827 72.9697C35.942 72.9697 39.5012 72.9697 43.0553 72.9697C43.493 72.9697 44.0246 72.9801 44.0246 72.3891C44.0246 71.7928 43.493 71.8032 43.0553 71.8032C41.2782 71.798 39.496 71.8032 37.719 71.8032ZM45.9371 30.7701C40.5018 30.0274 35.0665 30.0012 29.6312 30.7701C35.0665 31.539 40.4966 31.5076 45.9371 30.7701Z" fill="#FFB400"/>
<path d="M13.0819 74.4022C11.4403 74.4022 9.79359 74.4126 8.15206 74.4022C7.15151 74.3969 6.58869 73.8948 6.57827 73.0579C6.56784 72.2106 7.13067 71.6875 8.12079 71.6875C11.4351 71.6771 14.7494 71.6771 18.0586 71.6875C19.0591 71.6875 19.6271 72.1897 19.6323 73.0318C19.6428 73.8739 19.0747 74.3969 18.0898 74.4074C16.4222 74.4231 14.7494 74.4074 13.0819 74.4074V74.4022Z" fill="#0E2B72"/>
<path d="M11.2375 66.4783C12.2589 66.4783 13.2855 66.4626 14.3069 66.4783C15.2189 66.4992 15.7661 67.0432 15.7504 67.8696C15.7348 68.6489 15.1876 69.1824 14.3174 69.1876C12.2172 69.2086 10.1171 69.2086 8.017 69.1876C7.10504 69.1772 6.55786 68.6175 6.5787 67.7963C6.59433 67.017 7.1363 66.4939 8.01178 66.4783C9.0905 66.4573 10.164 66.4783 11.2427 66.473L11.2375 66.4783Z" fill="#0E2B72"/>
</svg>
