<svg width="79" height="90" viewBox="0 0 79 90" fill="none" xmlns="http://www.w3.org/2000/svg">
<path d="M0.0049381 42.5401C0.261861 40.4259 0.489142 38.3068 0.973342 36.2223C2.87062 28.0571 7.01596 21.2404 13.271 15.6981C19.0864 10.5461 25.8849 7.49341 33.5531 6.33754C33.8397 6.29308 34.1361 6.29802 34.4276 6.25357C34.7142 6.20911 34.9909 6.13502 35.3565 6.05598C34.8772 5.27552 34.1905 4.77662 33.6223 4.16904C33.1825 3.69978 32.7082 3.26015 32.2586 2.79583C31.2062 1.71405 31.2309 1.00768 32.3525 0H33.5827C35.8506 2.03513 37.9455 4.24808 40.0799 6.42645C40.7222 7.07849 40.6876 7.88364 40.0305 8.55543C38.0838 10.5461 36.1174 12.5121 34.1213 14.4533C33.3802 15.1745 32.5649 15.1548 31.9424 14.5176C31.3149 13.8705 31.3248 13.0801 32.0461 12.3392C33.0047 11.3513 34.0027 10.4078 35.1342 9.29144C33.7705 9.3112 32.644 9.50384 31.5422 9.7854C16.5073 13.6334 6.91715 23.0532 3.7155 38.2327C1.31426 49.6235 4.36769 59.9473 11.9914 68.809C16.0725 73.551 21.1467 76.8803 27.0312 78.9846C27.2536 79.0637 27.4759 79.1378 27.6883 79.2366C28.5036 79.6169 28.8346 80.348 28.548 81.0938C28.2318 81.9089 27.4907 82.309 26.6359 82.0324C24.6547 81.3902 22.7327 80.59 20.9046 79.5922C10.1386 73.7239 3.41904 64.803 0.760883 52.8342C0.365617 51.0609 0.217396 49.253 0 47.455V42.5351L0.0049381 42.5401Z" fill="#0E2B72"/>
<path d="M78.0697 47.4599C77.8029 49.5445 77.6448 51.6487 77.0964 53.6839C72.7732 69.7722 62.4666 79.6416 46.241 83.3513C45.1095 83.6081 43.9435 83.7217 42.6984 83.9193C43.2221 84.7442 43.9336 85.2629 44.5166 85.8902C44.9366 86.3397 45.3862 86.7547 45.8161 87.1992C46.8635 88.281 46.8388 88.9874 45.7172 90H44.487C42.2191 87.9649 40.1341 85.742 37.9947 83.5785C37.3524 82.9264 37.3821 82.1213 38.0392 81.4495C40.0057 79.444 41.9968 77.4533 44.0127 75.4923C44.7093 74.8156 45.5196 74.86 46.1224 75.4775C46.735 76.0999 46.7499 76.8606 46.0779 77.5917C45.3072 78.4314 44.4672 79.2119 43.6717 80.0318C43.4791 80.2344 43.1974 80.3776 43.1332 80.7629C46.7943 80.3628 50.2924 79.4687 53.5978 77.9325C64.1366 73.0225 71.0488 64.9758 73.9787 53.7184C78.6083 35.916 68.6772 17.343 51.3646 11.129C51.0879 11.0302 50.8162 10.9314 50.5444 10.8178C49.581 10.4275 49.1659 9.65202 49.4723 8.8271C49.7736 8.02195 50.5345 7.70581 51.5029 8.01207C54.0228 8.81722 56.4339 9.89406 58.6918 11.2574C69.4183 17.7431 75.7377 27.2124 77.7189 39.5763C77.877 40.5543 77.9511 41.5472 78.0648 42.5351V47.455L78.0697 47.4599Z" fill="#0E2B72"/>
<path d="M16.8673 64.2398C16.8673 62.5158 16.8673 60.7919 16.8673 59.063C16.8673 58.2332 17.2972 57.6503 17.8555 57.0872C23.1175 51.8314 28.3547 46.551 33.6315 41.3051C34.2343 40.7024 34.4369 40.1838 34.2392 39.3144C32.3617 31.1393 38.2413 23.2557 46.616 22.5987C54.5658 21.9763 60.9493 28.0768 61.4582 35.343C62.1203 44.7678 53.4294 51.8265 44.6891 49.7864C43.8541 49.5938 43.3155 49.7271 42.772 50.3644C42.2236 51.0065 41.5171 51.5252 40.9933 52.1871C39.9607 53.501 38.6267 54.0444 36.9913 54.1876C34.9557 54.3704 34.9606 54.4395 34.511 56.3808C34.3479 57.0921 34.1503 57.7985 34.0169 58.5197C33.839 59.478 33.2708 59.9867 32.337 60.1893C31.2204 60.4313 30.1235 60.7573 29.0069 60.9796C28.3943 61.1031 28.1274 61.4192 27.9842 62.0021C27.663 63.3111 27.2826 64.6004 26.9367 65.8995C26.7243 66.7046 26.2302 67.1443 25.3803 67.1838C23.157 67.2925 20.9386 67.4258 18.7201 67.5147C17.0897 67.5789 16.5313 66.9763 16.6252 65.3709C16.6499 64.9906 16.6252 64.6102 16.6252 64.2299C16.7043 64.2299 16.7833 64.2299 16.8673 64.2299V64.2398ZM47.5794 47.0844C53.5776 47.0746 58.217 42.6734 58.4888 36.9187C58.8149 30.023 52.9501 24.7129 46.112 25.6959C39.5753 26.6393 35.4151 33.1942 37.431 39.4675C37.8164 40.6629 37.599 41.4878 36.7146 42.3671C31.3192 47.7019 25.9732 53.0812 20.6026 58.4357C20.1678 58.8655 19.8565 59.3051 19.8269 59.9423C19.7725 61.197 19.6786 62.4516 19.5947 63.7063C19.5601 64.2052 19.8466 64.304 20.2567 64.2842C21.3091 64.2299 22.3615 64.141 23.4139 64.136C24.0364 64.136 24.2884 63.8693 24.4218 63.2963C24.6837 62.1849 25.0345 61.0982 25.2914 59.9867C25.5187 59.0136 26.0819 58.4802 27.0602 58.2925C28.1818 58.0801 29.2885 57.7886 30.4052 57.5515C30.919 57.4428 31.2105 57.2057 31.3192 56.6525C31.5514 55.4472 31.8578 54.2568 32.1295 53.0565C32.3172 52.2167 32.8212 51.7376 33.6859 51.624C34.847 51.4708 35.9982 51.2535 37.1642 51.1349C37.7373 51.0757 38.1474 50.8484 38.5328 50.4533C39.6791 49.2826 40.8649 48.1465 42.0013 46.961C42.604 46.3287 43.2464 46.1805 44.0616 46.4719C45.2523 46.9017 46.4875 47.1388 47.5893 47.0746L47.5794 47.0844Z" fill="#FFB400"/>
<path d="M50.6036 36.0396C51.1323 36.5484 51.6264 36.9929 52.0908 37.4672C52.9258 38.3217 52.9555 39.4875 52.1798 40.2729C51.3991 41.0583 50.2232 41.0385 49.3734 40.2086C48.8991 39.7443 48.4494 39.2553 47.8565 38.6378C47.3723 39.1763 46.9524 39.685 46.4879 40.1543C45.6134 41.0385 44.4375 41.078 43.642 40.2877C42.8416 39.4924 42.8811 38.3217 43.7458 37.4375C44.1954 36.9781 44.6549 36.5286 45.2379 35.9507C44.734 35.4913 44.23 35.0665 43.7655 34.6022C42.8811 33.7279 42.8367 32.5572 43.6272 31.7569C44.4177 30.9567 45.5986 30.9913 46.4731 31.8607C46.9326 32.3151 47.3674 32.7893 47.9307 33.3771C48.4198 32.8437 48.8497 32.3448 49.3141 31.8804C50.1886 31.0012 51.3596 30.9518 52.16 31.7421C52.9604 32.5325 52.9209 33.7081 52.0562 34.5923C51.6066 35.0517 51.1422 35.5012 50.5987 36.0445L50.6036 36.0396Z" fill="#FFB400"/>
</svg>
