<svg width="87" height="90" viewBox="0 0 87 90" fill="none" xmlns="http://www.w3.org/2000/svg">
<g clip-path="url(#clip0_6486_92193)">
<path d="M43.1781 89.9903C31.2809 89.9903 19.3838 89.9806 7.48666 90C5.97768 90 4.59971 89.6604 3.35274 88.8355C1.36342 87.5158 0.257157 85.6623 0.0533721 83.2751C0 82.6395 0.00485201 82.0087 0.00485201 81.378C0 58.5104 0 35.6429 0 12.7754C0 11.5866 0.160116 10.4318 0.703542 9.36924C1.99903 6.83649 4.02232 5.27899 6.91897 5.21106C13.2508 5.0655 19.5876 5.18195 25.9195 5.15284C26.9529 5.15284 27.9864 5.15284 29.0247 5.14799C29.4032 5.14799 29.4178 5.10917 29.4178 4.72101C29.4178 3.66812 29.4178 2.61038 29.4566 1.5575C29.4857 0.684134 30.2863 0 31.2179 0C32.0767 0 32.8724 0.737506 32.9015 1.61572C32.9403 2.6492 32.9403 3.68268 32.95 4.71616C32.9549 5.14799 32.95 5.14799 33.3673 5.14799C39.9757 5.14799 46.5842 5.14799 53.1926 5.15284C53.4902 5.15284 53.639 4.99919 53.639 4.6919C53.639 3.7409 53.639 2.78991 53.639 1.84377C53.639 0.781174 54.3523 0.0194081 55.3615 0.00485201C56.3804 -0.014556 57.1422 0.742358 57.1567 1.8098C57.1713 2.7802 57.1567 3.75061 57.1616 4.72586C57.1616 5.01375 57.3104 5.15769 57.608 5.15769C64.4687 5.15769 71.3343 5.15769 78.1951 5.16739C79.049 5.16739 79.903 5.15284 80.7521 5.31295C82.9015 5.72538 84.4687 6.92868 85.5798 8.78214C86.2688 9.92722 86.5648 11.1596 86.5648 12.4939C86.5599 35.8273 86.5551 59.1557 86.5648 82.4891C86.5648 83.9981 86.2834 85.4051 85.444 86.6715C84.1921 88.559 82.4309 89.6361 80.1892 89.9418C79.7574 90 79.3256 89.9951 78.8937 89.9951C66.9869 89.9951 55.0752 89.9951 43.1684 89.9951L43.1781 89.9903ZM43.343 29.4323C32.5522 29.4323 21.7661 29.4323 10.9753 29.4323C10.6421 29.4323 10.4755 29.5811 10.4755 29.8787C10.4755 45.4925 10.4755 61.1063 10.4755 76.72C10.4755 76.8559 10.4755 76.9966 10.4755 77.1325C10.5143 78.3358 11.4265 79.345 12.6152 79.5148C12.984 79.5682 13.3527 79.5682 13.7215 79.5682C33.3867 79.5682 53.0568 79.5682 72.722 79.5682C72.984 79.5682 73.2508 79.5682 73.5129 79.5682C74.886 79.5245 75.9098 78.656 76.1038 77.3362C76.1621 76.9529 76.1329 76.5551 76.1329 76.1669C76.1329 61.6206 76.1329 47.0742 76.1329 32.5279C76.1329 31.6303 76.1232 30.7327 76.1329 29.835C76.1329 29.5827 76.0602 29.476 75.7933 29.476C75.0558 29.476 74.3183 29.442 73.5759 29.442C63.4935 29.442 53.411 29.442 43.3333 29.442L43.343 29.4323ZM43.2557 25.9098C56.3658 25.9098 69.476 25.9098 82.591 25.9098C83.0374 25.9098 83.0374 25.9098 83.0374 25.4585C83.0374 21.0335 83.0374 16.6133 83.0374 12.1883C83.0374 11.4702 82.819 10.8151 82.3969 10.2377C81.6157 9.1606 80.524 8.71422 79.2188 8.71422C71.999 8.71422 64.7792 8.71422 57.5546 8.70936C57.2538 8.70936 57.1519 8.79185 57.1567 9.10238C57.1713 10.5046 57.2004 11.9117 57.147 13.3139C57.1228 13.9835 57.2829 14.4493 57.8117 14.9102C58.9374 15.9 59.1849 17.5449 58.5201 18.8501C57.836 20.1989 56.3173 20.9753 54.8569 20.7375C53.4983 20.5143 52.3629 19.4517 52.0378 18.1029C51.7079 16.7152 52.2174 15.3324 53.3819 14.5075C53.5759 14.3668 53.6487 14.2164 53.6487 13.9835C53.639 12.4212 53.6487 10.8588 53.6439 9.29646C53.6439 8.66084 53.7215 8.72392 53.0665 8.72392C46.5211 8.72392 39.9757 8.72392 33.4304 8.72392C33.3236 8.72392 33.2169 8.72877 33.115 8.72392C32.9791 8.72392 32.9452 8.787 32.9403 8.92285C32.9403 10.6016 32.9306 12.2804 32.9112 13.9544C32.9112 14.231 33.0082 14.3911 33.2217 14.556C34.2989 15.3954 34.8423 16.4629 34.6191 17.8651C34.3134 19.7817 32.3241 21.1451 30.4415 20.6938C28.8404 20.3105 27.6759 18.8792 27.6953 17.2538C27.7099 16.1184 28.2387 15.2111 29.1363 14.5269C29.3353 14.3717 29.4129 14.2115 29.4129 13.9689C29.4032 12.3435 29.3983 10.7181 29.4129 9.09267C29.4129 8.80155 29.3159 8.71422 29.0296 8.71422C21.7225 8.71907 14.4202 8.71422 7.11305 8.72392C5.672 8.72392 4.62397 9.42261 3.93498 10.6647C3.60505 11.2615 3.52256 11.9262 3.52256 12.5958C3.52256 16.8802 3.52256 21.1693 3.52256 25.4537C3.52256 25.7642 3.67783 25.9195 3.98836 25.9195C17.0791 25.9195 30.1698 25.9195 43.2606 25.9195L43.2557 25.9098ZM43.2994 86.4629C52.7996 86.4629 62.3047 86.4629 71.805 86.4629C74.3717 86.4629 76.9384 86.4774 79.5002 86.458C80.8248 86.4483 81.8438 85.8467 82.5424 84.7162C82.9791 84.0126 83.0374 83.2363 83.0374 82.4309C83.0325 65.0121 83.0325 47.5886 83.0325 30.1698C83.0325 30.0437 83.0228 29.9175 83.0325 29.7914C83.0568 29.5585 82.95 29.4857 82.722 29.4711C81.8777 29.4032 81.0335 29.4517 80.1892 29.442C79.6555 29.4372 79.6458 29.4517 79.6458 29.9903C79.6458 45.245 79.6458 60.4998 79.6458 75.7593C79.6458 76.1815 79.6652 76.6036 79.6458 77.0257C79.5827 78.3406 79.2479 79.5779 78.4425 80.6356C77.1955 82.2707 75.5167 83.0859 73.4643 83.0859C56.4677 83.0907 39.4663 83.0859 22.4697 83.0859C19.2722 83.0859 16.0699 83.1344 12.8724 83.0665C10.558 83.018 8.82581 81.8729 7.67589 79.869C7.06453 78.8016 6.91412 77.6225 6.91412 76.4144C6.91412 69.015 6.91412 61.6157 6.91412 54.2164C6.91412 46.7928 6.91412 39.3741 6.91412 31.9505C6.91412 31.2421 6.89956 30.5337 6.92382 29.8302C6.93353 29.5585 6.8656 29.4808 6.60359 29.4711C5.72538 29.4323 4.85201 29.4372 3.9738 29.4372C3.51286 29.4372 3.51286 29.4372 3.51286 29.8933C3.51286 47.4818 3.51286 65.0704 3.51286 82.6589C3.51286 82.9985 3.54197 83.3333 3.6196 83.6633C4.03202 85.3615 5.43911 86.4677 7.18583 86.4677C19.2237 86.4677 31.2567 86.4677 43.2945 86.4677L43.2994 86.4629Z" fill="#0E2B72"/>
<path d="M27.2256 46.162C27.1625 45.1674 27.8175 44.3862 28.7928 44.2843C30.5298 44.1048 32.2377 43.7991 33.9165 43.3333C36.5899 42.5861 39.0548 41.4265 41.1799 39.6021C41.5487 39.2867 41.8835 38.9325 42.1989 38.5638C42.5045 38.2047 42.8442 37.8942 43.3148 37.7681C43.9796 37.5885 44.5521 37.7681 45.013 38.2581C45.5807 38.8695 46.129 39.4954 46.7743 40.0291C48.2348 41.2275 49.8796 42.096 51.6409 42.7559C53.2566 43.3624 54.9354 43.7263 56.6288 44.0271C57.2935 44.1436 57.9631 44.2212 58.6375 44.2843C59.802 44.391 60.4764 45.211 60.3114 46.3658C59.8214 49.8253 59.0111 53.2072 57.6671 56.4386C56.4783 59.2867 54.9791 61.965 52.8684 64.2503C50.6559 66.6472 48.1086 68.5686 45.0227 69.7283C44.1688 70.0485 43.3682 70.0485 42.5094 69.7186C39.1081 68.4134 36.3425 66.2591 34.0523 63.4692C32.1795 61.1936 30.6996 58.6802 29.6516 55.9243C28.5744 53.0859 27.8078 50.1601 27.3566 47.1567C27.3032 46.8122 27.2207 46.4726 27.2207 46.1572L27.2256 46.162ZM31.0004 47.836C31.0004 47.836 31.0004 47.8991 31.015 47.9718C31.4856 50.4318 32.1261 52.8481 33.111 55.1577C34.2513 57.8263 35.6923 60.3057 37.7205 62.4066C39.3556 64.1048 41.2042 65.5022 43.4216 66.361C43.6642 66.458 43.8825 66.4483 44.1203 66.3561C45.9446 65.6623 47.5215 64.5803 48.948 63.2751C51.3304 61.0868 52.9849 58.4037 54.2804 55.4633C55.343 53.0519 55.9883 50.524 56.5269 47.9621C56.5851 47.6807 56.5269 47.5546 56.226 47.5254C55.0276 47.3944 53.8728 47.0548 52.7132 46.7394C49.4623 45.8515 46.4783 44.4541 43.9553 42.1737C43.7903 42.0233 43.6739 42.0378 43.5235 42.1737C43.2372 42.426 42.9558 42.6783 42.655 42.9112C39.9524 44.983 36.8617 46.2106 33.5914 47.0402C32.8345 47.2343 32.0727 47.3847 31.2964 47.506C31.1654 47.5255 30.9471 47.4963 30.9956 47.8408L31.0004 47.836Z" fill="#FFB400"/>
<path d="M50.2126 50.194C50.2271 50.6501 50.0525 51.0382 49.7808 51.3876C48.6891 52.7995 47.5925 54.2017 46.4765 55.5943C45.5983 56.686 44.7492 57.8068 43.8904 58.913C43.4004 59.5438 42.789 59.8446 41.9787 59.6457C41.6003 59.5535 41.3189 59.3303 41.0714 59.044C40.2174 58.0397 39.3586 57.0402 38.5095 56.0309C37.8351 55.2255 37.7526 54.4977 38.233 53.7505C38.8104 52.8529 40.0816 52.7073 40.8773 53.4545C41.3383 53.8912 41.6973 54.4201 42.1243 54.8859C42.3766 55.1624 42.3766 55.1673 42.6095 54.8713C44.1136 52.9548 45.6129 51.0334 47.1267 49.1217C47.6216 48.4958 48.364 48.2968 49.0869 48.554C49.7614 48.7966 50.2029 49.4371 50.2126 50.194Z" fill="#FFB400"/>
</g>
<defs>
<clipPath id="clip0_6486_92193">
<rect width="86.5696" height="90" fill="white"/>
</clipPath>
</defs>
</svg>
