<svg width="100" height="100" viewBox="0 0 100 100" fill="none" xmlns="http://www.w3.org/2000/svg">
<path d="M29.5955 41.6797C29.5955 38.9131 29.5888 36.1531 29.5955 33.3864C29.5955 32.9197 29.5021 32.4531 29.5621 31.9797C29.5955 31.6997 29.3888 31.6731 29.1821 31.6731C28.6688 31.6731 28.1621 31.6731 27.6488 31.6731C27.0955 31.6664 26.6155 31.2131 26.6155 30.6531C26.6021 28.5931 26.6021 26.5331 26.6155 24.4731C26.6155 23.8997 27.1688 23.3731 27.7355 23.3597C28.1488 23.3531 28.5621 23.3597 28.9821 23.3597C29.5688 23.3597 29.5955 23.3331 29.6021 22.7597C29.6021 22.1664 29.6155 21.5731 29.6021 20.9797C29.5888 20.5864 29.7821 20.4264 30.1421 20.3997C30.2821 20.3931 30.4155 20.3931 30.5555 20.3931C36.1355 20.3931 41.7221 20.3931 47.3021 20.3931C47.4155 20.3931 47.5221 20.3931 47.6355 20.3931C48.0221 20.3931 48.2221 20.5397 48.2021 20.9664C48.1755 21.5731 48.1955 22.1797 48.2021 22.7931C48.2021 23.3331 48.2288 23.3597 48.7555 23.3664C49.2555 23.3664 49.7488 23.3664 50.2488 23.3731C50.6688 23.3797 51.0021 23.6531 51.1221 24.0531C51.2888 24.5997 51.3621 25.1464 51.3488 25.7197C51.3221 26.9331 51.3288 28.1531 51.3488 29.3664C51.3555 29.9264 51.2955 30.4664 51.1421 30.9997C51.0221 31.4064 50.7421 31.6597 50.3088 31.6731C49.8221 31.6864 49.3421 31.6731 48.8555 31.6797C48.2088 31.6797 48.2021 31.6797 48.2021 32.3197C48.2021 35.4864 48.2021 38.6464 48.2021 41.8131C48.2021 42.4597 48.2021 43.1131 48.2021 43.7597C48.2021 44.6064 48.5088 45.3197 49.1888 45.8131C49.5355 46.0597 49.9355 46.2664 50.4021 46.2664C55.3621 46.2664 60.3221 46.2664 65.2821 46.2664C65.6688 46.2664 65.7821 46.1197 65.7821 45.7531C65.7821 45.1397 65.6955 44.5197 66.0221 43.9331C66.2221 43.5797 66.4621 43.3597 66.8555 43.3597C69.0688 43.3597 71.2755 43.3464 73.4888 43.3597C74.0088 43.3597 74.3821 43.7864 74.3888 44.3064C74.4021 44.8197 74.4021 45.3264 74.3888 45.8397C74.3888 46.1397 74.5088 46.2597 74.8088 46.2531C75.4021 46.2397 75.9955 46.2531 76.5888 46.2531C77.2488 46.2531 77.3021 46.2997 77.3021 46.9531C77.3021 51.2197 77.3021 55.4931 77.3021 59.7597C77.3021 61.1264 77.3021 62.4931 77.3021 63.8664C77.3021 64.3953 77.0444 64.6597 76.5288 64.6597C75.9488 64.6597 75.3688 64.6664 74.7888 64.6597C74.5088 64.6597 74.3821 64.7664 74.3888 65.0531C74.4021 65.4531 74.3888 65.8531 74.3888 66.2531C74.3888 67.2931 74.1088 67.5664 73.0621 67.5664C71.1155 67.5664 69.1621 67.5131 67.2155 67.5931C66.1888 67.6331 65.8688 66.8931 65.7755 66.1597C65.7288 65.8064 65.7555 65.4397 65.7688 65.0797C65.7755 64.7864 65.6688 64.6331 65.3555 64.6531C65.2155 64.6597 65.0821 64.6531 64.9421 64.6531C57.7555 64.6531 50.5688 64.6531 43.3821 64.6531C42.8755 64.6531 42.3555 64.6931 41.9021 64.3797C41.8221 64.3264 41.6888 64.3331 41.5821 64.3331C41.1821 64.3264 40.8155 64.2731 40.4355 64.0797C40.1021 63.9131 39.6888 63.8331 39.3155 63.7264C38.6621 63.5397 38.0555 63.2531 37.4821 62.9331C36.3221 62.2797 35.2288 61.5197 34.2688 60.5797C33.0555 59.3931 32.0221 58.0797 31.2488 56.5797C30.9221 55.9531 30.6821 55.2797 30.4221 54.6131C30.2088 54.0597 30.2821 53.4331 29.9088 52.9397C29.8888 52.9064 29.8755 52.8597 29.8755 52.8197C29.9688 51.8597 29.5955 50.9464 29.6021 49.9931C29.6088 47.2131 29.6021 44.4397 29.6021 41.6597L29.5955 41.6797ZM34.5621 57.1597C34.5955 57.1464 34.6355 57.1331 34.6688 57.1264C34.6688 56.8664 34.6555 56.6064 34.6688 56.3531C34.7088 55.8064 35.0621 55.4397 35.5888 55.3597C36.3888 55.2397 37.1888 55.3197 37.9888 55.2997C38.5488 55.2864 38.6288 55.2264 38.6288 54.6464C38.6355 53.9864 38.6288 53.3197 38.6288 52.6531C38.6421 51.9331 39.2688 51.1864 39.9355 51.1664C41.2488 51.1331 42.5621 51.1397 43.8755 51.1664C44.4355 51.1731 45.0955 51.7264 45.2288 52.2197C45.4221 52.9264 44.7821 53.6797 43.9288 53.7064C43.1688 53.7331 42.4088 53.7131 41.6488 53.7197C41.1421 53.7197 41.1155 53.7464 41.1155 54.2664C41.1155 55.0397 41.1021 55.8131 41.1155 56.5864C41.1221 56.9731 40.9755 57.2997 40.6621 57.4597C40.3288 57.6331 39.9755 57.7997 39.5621 57.7864C38.9288 57.7664 38.2888 57.7864 37.6555 57.7864C37.5221 57.7864 37.3755 57.7731 37.2755 57.8931C37.1488 58.0531 37.2021 59.7331 37.3355 59.8797C37.3555 59.8997 37.3755 59.9197 37.3955 59.9331C38.1021 60.4264 38.8688 60.8131 39.6488 61.1864C40.0288 61.3664 40.4488 61.4531 40.8288 61.6131C41.1555 61.7531 41.4621 61.8464 41.8155 61.8464C41.9088 61.8464 42.0221 61.8464 42.0955 61.8997C42.5888 62.1797 43.1288 62.1664 43.6688 62.1664C50.8288 62.1664 57.9888 62.1664 65.1488 62.1664C65.7421 62.1664 65.7488 62.1597 65.7555 61.5664C65.7555 57.5331 65.7555 53.4931 65.7555 49.4597C65.7555 49.0331 65.5399 48.8197 65.1088 48.8197C60.8088 48.8197 56.5155 48.8331 52.2155 48.8064C51.2488 48.8064 50.2888 48.9264 49.3155 48.5531C48.7755 48.3397 48.2288 48.1797 47.7421 47.8464C46.4288 46.9397 45.7288 45.6464 45.7021 44.0931C45.6421 40.1531 45.6821 36.2131 45.6821 32.2797C45.6821 31.6731 45.6821 31.6664 45.0955 31.6664C40.9355 31.6664 36.7755 31.6664 32.6155 31.6664C32.0288 31.6664 32.0155 31.6797 32.0155 32.2731C32.0155 37.9664 32.0155 43.6597 32.0155 49.3531C32.0155 49.6731 32.0288 49.9931 32.1221 50.2997C32.2821 50.8531 32.3688 51.4064 32.3288 51.9731C32.2888 52.5997 32.6155 53.1331 32.7621 53.7064C32.9421 54.4264 33.2755 55.1331 33.6688 55.7864C33.9488 56.2464 34.2621 56.6931 34.5555 57.1464L34.5621 57.1597ZM71.8888 55.4531C71.8888 52.4131 71.8888 49.3731 71.8888 46.3331C71.8888 45.8064 71.8421 45.7597 71.3221 45.7597C70.5888 45.7597 69.8555 45.7597 69.1288 45.7597C68.3621 45.7597 68.3288 45.7997 68.3221 46.5464C68.3221 52.3597 68.3221 58.1797 68.3221 63.9931C68.3221 64.1864 68.3221 64.3797 68.3088 64.5731C68.2755 65.0597 68.3488 65.1464 68.8488 65.1531C69.6488 65.1597 70.4488 65.1531 71.2555 65.1531C71.8621 65.1531 71.8821 65.1264 71.8821 64.5197C71.8821 61.4931 71.8821 58.4664 71.8821 55.4464L71.8888 55.4531ZM39.0288 29.2531C39.1421 29.2531 39.2488 29.2531 39.3621 29.2531C42.2621 29.2531 45.1621 29.2531 48.0621 29.2531C48.7221 29.2531 48.7555 29.2131 48.7555 28.5464C48.7555 27.8731 48.7555 27.1931 48.7555 26.5197C48.7555 26.0797 48.531 25.8597 48.0821 25.8597C42.8488 25.8597 37.6155 25.8597 32.3821 25.8597C31.4421 25.8597 30.5021 25.8664 29.5621 25.8597C29.2221 25.8597 29.0955 25.9797 29.1021 26.3197C29.1155 26.9664 29.1021 27.6197 29.1021 28.2664C29.1021 28.9286 29.4399 29.2597 30.1155 29.2597C33.0821 29.2597 36.0555 29.2597 39.0221 29.2597L39.0288 29.2531ZM38.8621 23.3597C39.9955 23.3597 41.1288 23.3597 42.2555 23.3597C43.2755 23.3597 44.2955 23.3597 45.3221 23.3597C45.4888 23.3597 45.6755 23.3531 45.6688 23.1131C45.6621 22.9064 45.4955 22.8931 45.3421 22.8864C45.2755 22.8864 45.2021 22.8864 45.1355 22.8864C40.9555 22.8864 36.7688 22.8864 32.5888 22.8864C32.5221 22.8864 32.4488 22.8864 32.3821 22.8864C32.2221 22.8997 32.0621 22.9131 32.0555 23.1197C32.0488 23.3264 32.2088 23.3531 32.3688 23.3664C32.4821 23.3664 32.5888 23.3664 32.7021 23.3664C34.7621 23.3664 36.8155 23.3664 38.8755 23.3664L38.8621 23.3597ZM74.3888 55.4597C74.3888 57.4931 74.3888 59.5197 74.3888 61.5531C74.3888 61.6797 74.3888 61.7997 74.3955 61.9264C74.4021 62.0464 74.4555 62.1464 74.5888 62.1531C74.7355 62.1664 74.8288 62.0864 74.8555 61.9464C74.8755 61.8397 74.8755 61.7264 74.8755 61.6197C74.8755 57.6397 74.8755 53.6664 74.8755 49.6864C74.8755 49.5331 74.8621 49.3797 74.8355 49.2331C74.8021 49.0797 74.8288 48.8531 74.5955 48.8664C74.3555 48.8731 74.4088 49.0931 74.3955 49.2531C74.3888 49.3597 74.3955 49.4731 74.3955 49.5864C74.3955 51.5464 74.3955 53.5064 74.3955 55.4731L74.3888 55.4597Z" fill="#0E2B72"/>
<path d="M34.8882 79.573C33.8348 79.7464 32.8215 79.3864 31.9348 78.7997C31.1882 78.3064 30.5882 77.633 30.1282 76.813C29.5015 75.7064 29.4348 74.5464 29.5415 73.3597C29.5882 72.8197 29.8082 72.2797 30.0148 71.7597C30.6615 70.1597 31.8615 68.913 32.7882 67.4864C33.1548 66.9264 33.5682 66.393 34.0082 65.8864C34.6748 65.1264 35.3082 65.2997 35.8948 65.9463C36.5015 66.6197 36.9548 67.4197 37.5015 68.1397C38.1615 69.013 38.8348 69.893 39.3482 70.853C39.7082 71.5264 40.0282 72.2397 40.1615 73.0264C40.2348 73.493 40.4015 73.9397 40.3948 74.4264C40.3748 75.293 40.1148 76.093 39.7282 76.853C39.3882 77.5197 38.8682 78.0664 38.2815 78.5197C37.3082 79.2664 36.2082 79.6997 34.8948 79.5664L34.8882 79.573ZM32.0148 74.2797C31.8615 74.7664 32.1348 75.233 32.3682 75.693C32.6815 76.3064 33.2148 76.813 33.8282 76.9597C34.7015 77.173 35.6415 77.2464 36.4948 76.693C37.3015 76.1664 37.9748 75.013 37.8882 74.053C37.8615 73.7797 37.6548 73.593 37.6148 73.3264C37.5082 72.633 37.1282 72.0464 36.7682 71.4664C36.3082 70.7264 35.7148 70.073 35.2682 69.3197C35.0482 68.9464 34.8482 68.933 34.6015 69.3064C33.9415 70.2997 33.1282 71.1864 32.5748 72.2464C32.2548 72.8664 31.9348 73.4797 32.0082 74.2864L32.0148 74.2797Z" fill="#FFB200"/>
<path d="M25.3357 58.2738C25.8624 58.2738 26.3824 58.2738 26.9091 58.2738C27.4291 58.2738 27.8824 58.6004 28.0691 59.1004C28.2291 59.5271 28.0491 60.1137 27.6491 60.4204C27.3624 60.6471 27.0424 60.7804 26.6624 60.7738C25.7557 60.7604 24.8424 60.7738 23.9357 60.7671C23.1891 60.7671 22.7091 60.2871 22.7091 59.5404C22.7091 59.1737 22.6624 58.8071 23.0157 58.5271C23.2157 58.3671 23.3957 58.2671 23.6424 58.2738C23.6691 58.2738 23.6957 58.2738 23.7224 58.2738C24.2624 58.2738 24.7957 58.2738 25.3357 58.2738Z" fill="#FFB200"/>
<path d="M29.0935 56.42C29.2402 57.3267 28.2335 57.8134 27.5402 57.62C27.2402 57.5334 26.9869 57.4267 26.7735 57.1934C26.1602 56.5467 25.5202 55.9267 24.9002 55.28C24.5269 54.8934 24.5335 54.4067 24.7135 53.9667C24.9069 53.48 25.3802 53.2134 25.8535 53.2134C26.2135 53.2134 26.5802 53.4467 26.8869 53.74C27.5469 54.3734 28.2069 55.0067 28.8402 55.6734C29.0669 55.9134 29.1269 56.16 29.1002 56.4267L29.0935 56.42Z" fill="#FFB200"/>
<path d="M29.0966 62.4811C29.1433 62.8078 29.0366 63.0544 28.8099 63.2678C28.0499 63.9944 27.3566 64.7811 26.5566 65.4611C26.2233 65.7478 25.3899 65.7411 25.0899 65.4611C24.5833 64.9878 24.4366 64.2278 24.8299 63.7944C25.6233 62.9211 26.4166 62.0544 27.3566 61.3344C27.7233 61.0544 28.2766 61.1678 28.7633 61.6144C29.0233 61.8544 29.1699 62.1344 29.0966 62.4811Z" fill="#FFB200"/>
</svg>
