<svg width="82" height="70" viewBox="0 0 82 70" fill="none" xmlns="http://www.w3.org/2000/svg">
<path d="M81.3781 53.3993V56.7581C81.2363 56.6739 81.3028 56.8157 81.2983 56.8467C81.161 57.959 80.9261 59.0535 80.5495 60.1125C79.5879 62.8066 77.9483 65.0089 75.684 66.7504C73.7831 68.2126 71.6429 69.1343 69.2855 69.542C69.0373 69.5863 68.7936 69.6173 68.51 69.6616C68.5898 69.7015 68.6297 69.7237 68.6695 69.7414H0.926095C0.957114 69.6262 0.864065 69.604 0.793166 69.5641C0.389932 69.347 0.146217 69.0103 0.0443007 68.5627C-1.08189e-05 68.3677 0 68.1728 0 67.9778C0 47.8515 0 27.7208 0 7.5945C0 7.49702 0 7.39953 0 7.29761C0.0354492 6.50887 0.474132 6.00372 1.24515 5.84863C1.40911 5.81761 1.57749 5.81761 1.74144 5.81761C3.95702 5.81761 6.17703 5.81761 8.3926 5.81761C8.71165 5.81761 8.71163 5.81761 8.71163 5.503C8.71163 4.21796 8.71163 2.93293 8.71163 1.64346C8.71163 0.597713 9.29654 0.0039388 10.3379 0.0039388C13.1295 0.0039388 15.9211 0.0039388 18.7127 0.0039388C19.7895 0.0039388 20.3656 0.588851 20.3656 1.66562C20.3656 2.94179 20.3656 4.22239 20.3656 5.49857C20.3656 5.80432 20.3656 5.80875 20.6625 5.80875C29.6533 5.80875 38.6396 5.80875 47.6304 5.80875C47.9273 5.80875 47.9362 5.80432 47.9362 5.503C47.9362 4.18695 47.9362 2.87089 47.9362 1.55484C47.9362 0.619869 48.5344 0.00836995 49.4649 0.0039388C52.323 -0.0049235 55.1856 0.0039388 58.0436 0.0039388C58.3494 0.0039388 58.6418 0.0792687 58.9077 0.23879C59.4084 0.540108 59.5857 1.01867 59.5857 1.56814C59.5945 2.89305 59.5901 4.21353 59.5857 5.53845C59.5857 5.74671 59.6477 5.81761 59.8604 5.81318C60.8131 5.80432 61.7658 5.81318 62.7185 5.81318C64.0877 5.81318 65.4569 5.81318 66.8262 5.81318C67.5219 5.81318 68.0625 6.22971 68.2353 6.87666C68.2973 7.10707 68.3018 7.33749 68.3018 7.57235C68.3018 18.473 68.3018 29.3736 68.3018 40.2698C68.3018 40.3584 68.3018 40.4515 68.3018 40.5401C68.2973 40.6775 68.3505 40.7484 68.4923 40.7661C68.7537 40.8015 69.0152 40.8414 69.2766 40.8902C71.5232 41.2801 73.5837 42.1132 75.427 43.4735C76.526 44.2844 77.4787 45.2371 78.3162 46.3095C79.5259 47.8648 80.3855 49.593 80.8906 51.4939C81.0812 52.2073 81.2185 52.934 81.2806 53.7139C81.316 53.5766 81.3382 53.4835 81.3604 53.3904L81.3781 53.3993ZM58.0525 66.7902C58.0481 66.7061 57.9727 66.6795 57.924 66.6396C57.2327 66.1078 56.5946 65.5185 56.023 64.8583C53.2535 61.6811 52.0128 57.9811 52.3806 53.7848C52.5313 52.0833 52.9788 50.4437 53.7587 48.9017C54.9152 46.6285 56.4573 44.701 58.5887 43.2653C60.5561 41.9404 62.6919 41.0851 65.0537 40.806C65.3683 40.7705 65.3816 40.7528 65.3816 40.4426C65.3816 33.8624 65.3816 27.2821 65.3816 20.7018C65.3816 20.4832 65.2723 20.3739 65.0537 20.3739C44.4577 20.3739 23.8573 20.3739 3.26132 20.3739C2.94228 20.3739 2.94226 20.3739 2.94226 20.6886C2.94226 35.9627 2.94226 51.2325 2.94226 66.5067C2.94226 66.8168 2.94228 66.8168 3.26576 66.8168C21.4423 66.8168 39.6189 66.8168 57.7955 66.8168C57.8841 66.8168 57.9772 66.8434 58.0614 66.7902H58.0525ZM34.1597 17.4361C35.9765 17.4361 37.7933 17.4361 39.6056 17.4361C48.0869 17.4361 56.568 17.4361 65.0493 17.4361C65.3727 17.4361 65.3728 17.4361 65.3728 17.1259C65.3728 14.4318 65.3728 11.7421 65.3728 9.04792C65.3728 8.75989 65.3683 8.75546 65.0759 8.75546C63.3522 8.75546 61.624 8.75546 59.9003 8.75546C59.599 8.75546 59.5946 8.75989 59.5946 9.06121C59.5946 10.3773 59.5946 11.6933 59.5946 13.0094C59.5946 13.9532 58.9919 14.5647 58.0481 14.5647C55.19 14.5647 52.3275 14.5647 49.4694 14.5647C48.5433 14.5647 47.9362 13.9488 47.9362 13.0227C47.9362 11.7066 47.9362 10.3906 47.9362 9.07451C47.9362 8.75989 47.9362 8.75546 47.6216 8.75546C38.6396 8.75546 29.6577 8.75546 20.6757 8.75546C20.3656 8.75546 20.3656 8.75546 20.3656 9.07894C20.3656 10.395 20.3656 11.711 20.3656 13.0271C20.3656 13.9399 19.7585 14.5603 18.8501 14.5647C15.9743 14.5691 13.0985 14.5691 10.2226 14.5647C9.30983 14.5647 8.7072 13.9443 8.7072 13.0271C8.7072 11.7199 8.7072 10.4083 8.7072 9.10109C8.7072 8.87067 8.58904 8.75546 8.35271 8.75546C6.66001 8.75546 4.96289 8.75546 3.27019 8.75546C3.04568 8.75546 2.93342 8.86919 2.93342 9.09666C2.93342 11.7598 2.93342 14.4229 2.93342 17.0816C2.93342 17.1348 2.93342 17.1879 2.93342 17.2411C2.92899 17.3741 2.99546 17.4361 3.12839 17.4317C3.21258 17.4317 3.29677 17.4317 3.37654 17.4317C13.6347 17.4317 23.8972 17.4317 34.1553 17.4317L34.1597 17.4361ZM55.2431 55.2205C55.2741 61.5172 60.2459 66.8611 66.9237 66.8035C73.2026 66.7548 78.4535 61.8008 78.4491 55.1452C78.4446 48.8973 73.4552 43.6419 66.8705 43.6242C60.3301 43.6065 55.2564 48.8441 55.2431 55.2205ZM17.4321 7.28432C17.4321 5.93725 17.4321 4.59461 17.4321 3.24754C17.4321 2.95065 17.4277 2.94622 17.1219 2.94622C15.3982 2.94622 13.6745 2.94622 11.9508 2.94622C11.6628 2.94622 11.6539 2.95065 11.6539 3.23868C11.6539 5.93725 11.6539 8.63582 11.6539 11.3344C11.6539 11.618 11.6628 11.6268 11.9508 11.6268C13.6745 11.6268 15.3982 11.6268 17.1219 11.6268C17.4233 11.6268 17.4277 11.6224 17.4277 11.3211C17.4277 9.97403 17.4277 8.63139 17.4277 7.28432H17.4321ZM50.8829 7.28432C50.8829 8.63582 50.8829 9.99175 50.8829 11.3433C50.8829 11.5604 50.9449 11.6357 51.1665 11.6313C52.9079 11.6224 54.645 11.6224 56.3864 11.6313C56.608 11.6313 56.67 11.556 56.67 11.3388C56.6656 8.64025 56.67 5.94168 56.67 3.24311C56.67 2.95509 56.6611 2.94622 56.3775 2.94622C54.645 2.94622 52.9124 2.94622 51.1842 2.94622C50.9006 2.94622 50.8962 2.95509 50.8962 3.24311C50.8962 4.59018 50.8962 5.93282 50.8962 7.27989L50.8829 7.28432Z" fill="#0E2B72"/>
<path d="M31.2975 29.0552C36.3047 29.0552 41.3163 29.0552 46.3235 29.0552C46.5362 29.0552 46.7445 29.0552 46.9527 29.1261C47.5731 29.3211 47.9586 29.8528 47.9719 30.5574C47.9808 31.0714 47.9719 31.5854 47.9719 32.0994C47.9719 34.4346 47.9719 36.7743 47.9719 39.1095C47.9719 40.1109 47.3825 40.7091 46.3811 40.7091C36.2869 40.7091 26.1928 40.7091 16.0986 40.7091C15.6688 40.7091 15.3099 40.5585 14.9687 40.3059C13.3159 39.0563 11.6586 37.8112 10.0013 36.566C9.73991 36.371 9.46963 36.1894 9.21705 35.9855C8.57896 35.4538 8.5258 34.541 9.08412 33.9295C9.21706 33.7832 9.37212 33.6636 9.53164 33.544C11.3041 32.2146 13.1032 30.9163 14.8357 29.5338C15.2567 29.197 15.722 29.0508 16.2626 29.0508C21.2698 29.0596 26.2814 29.0508 31.2886 29.0508L31.2975 29.0552ZM29.8219 31.9931C26.2903 31.9931 22.7587 31.9931 19.2226 31.9931C18.9257 31.9931 18.9168 31.9975 18.9168 32.2988C18.9168 34.0137 18.9168 35.733 18.9168 37.4478C18.9168 37.7669 18.9168 37.7669 19.2314 37.7669C26.2725 37.7669 33.3181 37.7669 40.3592 37.7669C40.6738 37.7669 40.6738 37.7669 40.6738 37.4478C40.6738 35.7462 40.6738 34.0447 40.6738 32.3431C40.6738 32.1098 40.5571 31.9916 40.3237 31.9886C36.8231 31.9886 33.3181 31.9886 29.8175 31.9886L29.8219 31.9931ZM15.9612 37.3858V32.4007C15.9081 32.4273 15.8726 32.4406 15.8416 32.4628C14.818 33.2294 13.7988 34.0004 12.7752 34.7625C12.6379 34.8645 12.6645 34.9265 12.7886 35.0151C13.6039 35.6177 14.4148 36.2248 15.2257 36.8274C15.4605 37.0003 15.6909 37.1819 15.9612 37.3813V37.3858ZM45.0385 34.9043C45.0385 34.0225 45.0385 33.1363 45.0385 32.2545C45.0385 32.0551 44.972 31.9842 44.7726 31.9931C44.4624 32.0064 44.1523 32.0019 43.8421 31.9931C43.6781 31.9931 43.6116 32.0507 43.6116 32.2191C43.6116 33.9959 43.6116 35.7684 43.6116 37.5453C43.6116 37.7137 43.6737 37.7757 43.8421 37.7713C44.1434 37.7624 44.4491 37.758 44.7505 37.7713C44.9676 37.7801 45.0429 37.7093 45.0385 37.4877C45.0296 36.6281 45.0385 35.764 45.0385 34.9043Z" fill="#0E2B72"/>
<path d="M30.5001 46.5179C26.1886 46.5179 21.8727 46.5179 17.5612 46.5179C16.9364 46.5179 16.4357 46.2964 16.1388 45.7248C15.6292 44.7455 16.2938 43.651 17.4238 43.5845C17.5213 43.5801 17.6188 43.5801 17.7207 43.5801C26.295 43.5801 34.8692 43.5801 43.4435 43.5801C43.6562 43.5801 43.8645 43.5889 44.0727 43.6554C44.7596 43.8858 45.1628 44.5461 45.0697 45.2728C44.9811 45.9463 44.3918 46.4692 43.6739 46.5135C43.5543 46.5224 43.4302 46.5179 43.3106 46.5179C39.0434 46.5179 34.7762 46.5179 30.509 46.5179H30.5001Z" fill="#FFB400"/>
<path d="M65.377 51.6005C65.377 50.3997 65.377 49.1944 65.377 47.9935C65.377 47.2801 65.7625 46.7528 66.405 46.549C67.3754 46.2432 68.3015 46.9389 68.3148 48.0068C68.3281 48.9197 68.3148 49.8369 68.3148 50.7497C68.3148 51.6581 68.3192 52.5665 68.3148 53.4705C68.3148 53.6787 68.3768 53.7496 68.5895 53.7452C69.4802 53.7363 70.3753 53.7363 71.266 53.7452C71.8775 53.754 72.3826 54.1396 72.6042 54.7333C72.7992 55.2606 72.6396 55.9032 72.2142 56.2931C71.9351 56.5501 71.5983 56.6786 71.2217 56.6786C69.755 56.683 68.2882 56.6919 66.8215 56.6786C65.9929 56.6697 65.3858 56.0361 65.3858 55.2075C65.3858 54.0066 65.3858 52.8013 65.3858 51.6005H65.377Z" fill="#FFB400"/>
<path d="M26.8702 36.3475C25.6826 36.3475 24.4951 36.3475 23.3075 36.3475C22.7359 36.3475 22.2751 36.1215 21.9826 35.6163C21.4154 34.6371 22.0712 33.485 23.2366 33.4141C23.2987 33.4141 23.3563 33.4141 23.4183 33.4141C25.7712 33.4141 28.1242 33.4141 30.4771 33.4141C31.0487 33.4141 31.5096 33.6401 31.7976 34.1452C32.3736 35.1555 31.6824 36.3342 30.5037 36.3475C29.294 36.3608 28.0843 36.3475 26.8702 36.3475Z" fill="#FFB400"/>
<path d="M37.807 34.8863C37.807 35.706 37.1556 36.3485 36.3359 36.3485C35.5028 36.3485 34.8691 35.706 34.8691 34.8597C34.8691 34.0443 35.5205 33.4062 36.3491 33.4062C37.1645 33.4062 37.807 34.0576 37.807 34.8818V34.8863Z" fill="#FFB400"/>
</svg>
