<svg width="85" height="78" viewBox="0 0 85 78" fill="none" xmlns="http://www.w3.org/2000/svg">
<path d="M84.0433 7.21679V69.8513C83.9149 70.2662 83.7963 70.691 83.6579 71.101C82.4227 74.7366 79.0926 77.1076 75.135 77.1076C53.0743 77.1175 31.0135 77.1076 8.95276 77.1076C8.78971 77.1076 8.62667 77.1076 8.45868 77.0977C3.80443 76.9149 0.00988646 73.0521 0.00494564 68.4188C-0.00493599 48.4973 0.00494082 28.5757 0 8.65917C0 6.82162 0.558327 5.16685 1.6206 3.68002C3.09297 1.61032 5.15329 0.479144 7.60887 0H76.4987C77.2843 0.217344 78.0847 0.365533 78.8357 0.706367C81.6717 2.00055 83.3121 4.24314 84.0433 7.21679ZM42.0513 16.7799C29.4967 16.7799 16.9421 16.7799 4.3825 16.7799C3.17694 16.7799 3.15224 16.7997 3.15224 17.9704C3.15224 34.5922 3.1473 51.2141 3.15224 67.8408C3.15224 71.2047 5.31139 73.3535 8.66127 73.3535C30.9197 73.3535 53.1731 73.3535 75.4315 73.3535C75.8465 73.3535 76.2615 73.3337 76.6716 73.2695C78.8159 72.9287 80.98 70.9281 80.9701 67.7569C80.9158 51.1597 80.9454 34.5675 80.9454 17.9704C80.9454 16.7849 80.9356 16.7799 79.6312 16.7799C67.1013 16.7799 54.5763 16.7799 42.0464 16.7799H42.0513ZM41.9624 14.0236C54.265 14.0236 66.5676 14.0236 78.8752 14.0236C81.2024 14.0236 80.9356 13.2827 80.9504 10.9314C80.9553 9.93359 80.9603 8.93579 80.9504 7.93798C80.901 4.80132 78.7221 2.63776 75.5649 2.63776C60.5991 2.63282 45.6383 2.63776 30.6726 2.63776C23.2466 2.63776 15.8205 2.62788 8.39448 2.6427C5.43987 2.64764 3.23626 4.83096 3.17203 7.76015C3.14238 9.05928 3.16214 10.3633 3.16214 11.6674C3.16214 13.0357 3.16214 14.0236 4.5604 14.0236C17.031 14.0236 29.5016 14.0236 41.9673 14.0236H41.9624Z" fill="#0E2B72"/>
<path d="M43.9881 24.3821C44.6501 24.3821 45.1294 24.6785 45.5543 25.1082C46.5672 26.1307 47.6245 27.1137 48.5979 28.1757C49.1463 28.7734 49.5415 28.9167 50.085 28.2004C50.4161 27.7657 50.8558 27.4051 51.2511 27.0198C52.3232 25.9677 53.4003 25.8541 54.2353 26.7086C55.0654 27.5533 54.9369 28.6104 53.8697 29.6922C53.4201 30.1466 52.9902 30.6208 52.511 31.0358C52.0515 31.4309 52.1305 31.7075 52.5357 32.1027C54.1019 33.6291 55.6435 35.185 57.185 36.7361C59.186 38.7465 59.5467 41.0039 58.2967 43.5627C57.9805 44.2097 57.6396 44.847 57.3382 45.499C56.8836 46.4672 57.0071 47.1439 57.7384 47.9194C57.7977 47.9787 57.852 48.0429 57.9162 48.0972C60.7819 50.5028 60.8955 54.3804 57.9113 56.9737C56.9725 57.7888 57.0219 57.8431 57.931 58.752C59.5961 60.4167 61.2562 62.0863 62.9262 63.746C63.5537 64.3684 63.8205 65.0797 63.4895 65.9293C62.9756 67.2333 61.4539 67.4951 60.3471 66.4282C58.7117 64.8475 57.1257 63.2273 55.5199 61.6219C54.7656 60.8678 53.9998 60.8744 53.2225 61.6417C50.6187 64.2251 47.4911 64.2202 44.8725 61.6219C43.4693 60.2339 43.2469 60.1993 41.4732 61.0835C40.905 61.37 40.3368 61.6614 39.7587 61.9232C37.4909 62.9507 35.2675 62.5901 33.474 60.8513C31.8633 59.2904 30.2773 57.6999 28.716 56.0895C28.2417 55.6005 27.9106 55.5412 27.4561 56.0895C27.0509 56.5786 26.5717 57.0034 26.1122 57.4479C25.124 58.4013 24.0568 58.4902 23.2465 57.6949C22.4313 56.8898 22.5004 55.8129 23.4441 54.8349C23.9234 54.336 24.3977 53.8272 24.9165 53.3727C25.3661 52.9776 25.3068 52.6861 24.9017 52.2959C23.7505 51.1746 22.619 50.0336 21.4975 48.8826C20.9243 48.2948 20.7613 47.5884 21.0627 46.8129C21.3295 46.1313 21.868 45.7707 22.5844 45.6817C23.2416 45.6027 23.7653 45.8843 24.2199 46.3387C25.3167 47.4353 26.4333 48.5122 27.5055 49.6384C27.9205 50.0731 28.1972 50.1521 28.632 49.6631C29.299 48.9221 30.0105 48.2207 30.7467 47.5489C31.2062 47.1241 31.1815 46.8327 30.7467 46.4029C29.0816 44.7778 27.4413 43.123 25.8009 41.4732C23.9728 39.6356 23.9777 37.6499 25.8157 35.8074C28.0094 33.6093 30.1982 31.4161 32.4018 29.2279C34.1311 27.5089 36.2408 27.5039 37.98 29.2229C39.6154 30.8431 41.2508 32.4534 42.8369 34.1181C43.3853 34.6911 43.7213 34.6516 44.2154 34.0884C44.8379 33.3821 45.5148 32.7251 46.2114 32.0879C46.6561 31.6828 46.6017 31.4013 46.1966 31.0061C45.0404 29.8898 43.914 28.7438 42.7875 27.5978C42.1847 26.9803 42.0414 26.2443 42.3872 25.454C42.6936 24.7476 43.2914 24.4364 43.998 24.3821H43.9881ZM55.2235 40.7471C55.2729 40.2086 54.9419 39.774 54.5367 39.3738C53.0298 37.8673 51.503 36.3755 50.0257 34.8393C49.5267 34.3157 49.2253 34.3058 48.7016 34.8343C44.4723 39.1022 40.2133 43.3404 35.9642 47.5884C34.3782 49.1741 32.7922 50.7597 31.2012 52.3404C30.9245 52.612 30.6973 52.8393 31.0876 53.2246C32.7675 54.8744 34.4226 56.5489 36.1025 58.1938C36.73 58.8063 37.4761 58.8656 38.2518 58.4853C39.072 58.0852 39.8822 57.6554 40.7123 57.2751C42.5404 56.4353 44.324 56.5687 46.0088 57.6554C46.4683 57.9518 46.8636 58.3568 47.2589 58.7421C48.7214 60.1746 49.3933 60.1746 50.8558 58.7174C52.2096 57.3689 53.5584 56.0155 54.9122 54.6669C56.8589 52.7207 56.8638 52.4194 54.9666 50.4386C53.1829 48.5764 52.8074 46.3634 53.8944 44.0171C54.2205 43.3157 54.5762 42.6241 54.9221 41.9326C55.1 41.5819 55.2383 41.2262 55.2235 40.752V40.7471ZM33.9829 44.1455C34.2052 44.106 34.3634 43.8985 34.5363 43.7257C36.4583 41.8091 38.3654 39.8826 40.3022 37.9809C40.7321 37.561 40.7963 37.3041 40.3269 36.8497C38.7755 35.3481 37.2587 33.8118 35.7566 32.2657C35.3416 31.836 35.06 31.7767 34.6153 32.2311C32.7032 34.1922 30.7664 36.1285 28.8148 38.055C28.3899 38.4748 28.3553 38.786 28.8 39.2207C30.3465 40.7273 31.8633 42.2635 33.3999 43.78C33.5531 43.9331 33.6964 44.1159 33.9879 44.1406L33.9829 44.1455Z" fill="#FFB400"/>
</svg>
