<svg width="150" height="150" viewBox="0 0 150 150" fill="none" xmlns="http://www.w3.org/2000/svg">
<path d="M82.9994 39C82.1894 39.02 81.5394 39.69 81.5294 40.5C81.5294 40.5 81.5594 40.5 81.3794 41.02C81.1994 41.54 80.7994 42.4 79.9294 43.58C78.1994 45.95 74.5794 49.6 67.1694 54.29C59.3894 59.21 55.4094 65.14 53.4194 69.84C51.0094 60.58 45.0694 53.13 45.0694 53.13C44.7794 52.77 44.3494 52.56 43.8894 52.56C43.0594 52.56 42.3794 53.24 42.3794 54.07C42.3794 54.17 42.3894 54.28 42.4094 54.38C44.1194 62.53 43.1094 65.09 41.5794 68.29C40.0594 71.49 37.8594 75.35 37.8594 84.19C37.8594 101.84 45.6394 113.63 45.6394 113.63C46.0994 114.32 47.0394 114.51 47.7194 114.06C48.4094 113.61 48.5994 112.66 48.1494 111.98C48.1494 111.98 40.8694 100.98 40.8694 84.2C40.8694 75.83 42.6894 72.98 44.2994 69.6C45.3894 67.31 46.2294 64.67 46.1594 60.64C48.8194 65.15 51.7594 71.27 51.4194 78.11V78.18C51.4294 79 52.1094 79.67 52.9294 79.67C53.7494 79.67 54.3794 79.05 54.4294 78.26C54.4294 78.24 54.4294 78.21 54.4294 78.19C54.4294 78.19 54.4194 75.26 56.1994 71.05C57.9794 66.84 61.5294 61.47 68.7894 56.88C76.4194 52.05 80.3294 48.18 82.3594 45.4C82.9294 44.61 83.0894 44.13 83.4094 43.52C85.4994 45.92 92.4494 54.29 95.1194 66.47C96.6694 73.56 96.2994 78.98 95.5594 82.61C94.8194 86.24 93.7894 87.96 93.7894 87.96C93.6494 88.19 93.5794 88.45 93.5794 88.72C93.5794 89.55 94.2594 90.23 95.0894 90.23C95.3994 90.23 95.6994 90.13 95.9494 89.96C95.9494 89.96 98.5594 88.13 101.229 85.26C102.919 83.44 104.619 81.16 105.779 78.58C106.549 81.1 107.409 84.5 107.739 88.33C108.419 96.14 107.029 105.27 98.6894 111.63C98.0294 112.13 97.9094 113.08 98.4094 113.74C98.9094 114.4 99.8594 114.52 100.519 114.03C109.849 106.92 111.469 96.47 110.739 88.08C110.009 79.69 106.999 73.07 106.999 73.07C106.759 72.53 106.219 72.19 105.629 72.19C104.849 72.19 104.189 72.8 104.129 73.59C103.879 77.05 101.479 80.6 99.0394 83.23C98.6794 83.61 98.6894 83.51 98.3394 83.85C98.3994 83.6 98.4694 83.5 98.5194 83.23C99.3294 79.22 99.7094 73.35 98.0694 65.84C94.7594 50.73 84.1494 39.54 84.1494 39.54C83.8594 39.23 83.4394 39.06 83.0094 39.07L82.9994 39Z" fill="#0E2B72"/>
<path d="M52.9402 76.6406C52.2102 76.6406 51.5802 77.1706 51.4502 77.8906C51.4502 77.8906 50.6602 82.5106 51.8202 90.4106C51.9302 91.1506 52.5702 91.7006 53.3102 91.7006C53.3802 91.7006 53.4602 91.7006 53.5302 91.6806C54.2702 91.5706 54.8202 90.9306 54.8202 90.1906C54.8202 90.1206 54.8202 90.0406 54.8002 89.9706C53.7002 82.4106 54.4102 78.4006 54.4102 78.4006C54.5502 77.5906 54.0002 76.8006 53.1902 76.6606C53.1102 76.6506 53.0202 76.6406 52.9402 76.6406Z" fill="#0E2B72"/>
<path d="M77.2331 87.1801C76.4631 87.2001 75.8231 87.8201 75.7731 88.5901C75.7731 88.5501 75.7831 88.4901 75.7731 88.5201C75.7431 88.5901 75.6631 88.7901 75.4231 89.1101C74.9431 89.7601 73.8431 90.9101 71.4431 92.4301C69.6131 93.5901 68.4931 94.9001 67.6331 96.1701C66.6531 93.8901 65.4031 92.2601 65.4031 92.2601C65.1131 91.9001 64.6831 91.6901 64.2231 91.6901C63.3931 91.6901 62.7131 92.3701 62.7131 93.2001C62.7131 93.3001 62.7231 93.4101 62.7431 93.5101C63.2831 96.0901 63.0231 96.5001 62.5431 97.5101C62.0631 98.5101 61.2031 100.14 61.2031 103.24C61.2031 109.42 63.9631 113.6 63.9631 113.6C64.2431 114.02 64.7131 114.28 65.2231 114.28C65.5231 114.28 65.8031 114.19 66.0531 114.03C66.7431 113.58 66.9331 112.63 66.4831 111.95C66.4831 111.95 64.2231 108.54 64.2231 103.25C64.2231 100.82 64.6431 100.1 65.1531 99.0701C65.3531 99.7901 65.7631 100.47 65.7331 101.16H65.7431L65.7231 101.23C65.7331 102.05 66.4131 102.72 67.2331 102.72C68.0531 102.72 68.6831 102.1 68.7331 101.31C68.7331 101.28 68.7231 101.26 68.7331 101.24H68.7431C68.7431 101.24 68.7331 100.49 69.2531 99.2501C69.7831 98.0101 70.8131 96.4001 73.0631 94.9801C75.4131 93.4901 76.5531 92.3201 77.3731 91.3101C78.3931 92.6801 79.6931 94.7101 80.3231 97.5401C80.8131 99.7701 80.6831 101.42 80.4631 102.51C80.2431 103.59 79.9931 103.99 79.9931 103.99C79.8531 104.22 79.7831 104.48 79.7831 104.75C79.7831 105.58 80.4631 106.26 81.2931 106.26C81.6031 106.26 81.9031 106.17 82.1531 105.99C82.1531 105.99 83.1031 105.32 84.0731 104.28C84.1531 104.19 84.2331 104.05 84.3231 103.95C84.3931 104.33 84.4731 104.29 84.5131 104.7C84.7231 107.11 84.3431 109.71 81.8831 111.58C81.2231 112.08 81.1031 113.03 81.5931 113.69C81.8731 114.06 82.3231 114.28 82.7931 114.28C83.1231 114.28 83.4431 114.17 83.7031 113.97C87.1431 111.35 87.7631 107.42 87.5031 104.43C87.2431 101.44 86.1731 99.1001 86.1731 99.1001C85.9331 98.5601 85.3931 98.2201 84.8031 98.2201C84.2631 98.2201 83.7631 98.5101 83.5031 98.9701C83.4431 98.2901 83.4331 97.6601 83.2631 96.8901C82.0831 91.5101 78.3731 87.6501 78.3731 87.6501C78.0831 87.3401 77.6631 87.1701 77.2331 87.1801Z" fill="#FFB200"/>
<path d="M68.3927 60.8281C68.0627 60.8281 67.7427 60.9281 67.4827 61.1181C61.2727 65.6281 58.3327 70.9781 57.0527 75.3281C56.4127 77.4981 56.1827 79.4181 56.1327 80.8881C56.1127 81.6181 56.1327 82.2381 56.1827 82.7281C56.2327 83.2181 56.2227 83.4681 56.4327 83.9781C56.7427 84.7381 57.6327 85.1181 58.3927 84.8081C59.1527 84.4981 59.5327 83.6081 59.2227 82.8481C59.3327 83.1281 59.2227 82.8081 59.1827 82.4581C59.1527 82.1081 59.1327 81.5981 59.1427 80.9881C59.1827 79.7581 59.3827 78.0881 59.9427 76.1881C61.0627 72.3881 63.5827 67.6681 69.2527 63.5581C69.9227 63.0681 70.0727 62.1281 69.5827 61.4581C69.3027 61.0781 68.8627 60.8481 68.3927 60.8381V60.8281Z" fill="#0E2B72"/>
<path d="M104.478 90.1914C103.658 90.1914 102.988 90.8714 102.988 91.7014C103.028 96.8114 101.618 100.271 100.238 102.471C98.8577 104.671 97.6077 105.531 97.6077 105.531C96.9277 106.001 96.7677 106.951 97.2377 107.631C97.7077 108.311 98.6577 108.471 99.3377 108.001C99.3377 108.001 101.138 106.711 102.788 104.081C104.438 101.451 106.038 97.3714 105.998 91.7014C105.998 90.8814 105.318 90.2114 104.488 90.2114H104.478V90.1914Z" fill="#0E2B72"/>
</svg>
