<svg width="100" height="99" viewBox="0 0 100 99" fill="none" xmlns="http://www.w3.org/2000/svg">
<path d="M99.3782 74.84V80.0478C99.3318 80.2972 99.2738 80.5465 99.2332 80.8017C96.3567 97.3645 77.6076 104.098 64.9187 94.4823C56.8518 88.3698 54.1957 77.2351 58.6728 68.078C59.102 67.1965 59.0498 66.634 58.3423 65.9903C57.6347 65.3408 57.0084 64.5984 56.3705 63.8735C56.0167 63.4792 55.6688 63.282 55.112 63.4734C54.045 63.8387 52.9547 63.7923 51.8876 63.4676C50.9713 63.1892 50.2464 63.4618 49.6491 64.1519C49.104 64.784 48.6052 65.4625 48.0311 66.0657C47.4859 66.634 47.4396 67.1269 47.8107 67.8519C49.8463 71.8302 50.5364 76.0695 49.8869 80.4827C48.2341 91.7798 38.4738 100.902 24.5729 98.6578C16.2103 97.3065 10.5443 92.0814 7.98106 84.0029C5.41776 75.9187 7.18075 68.4956 13.1192 62.4643C19.4057 56.0851 27.0782 54.4091 35.638 57.1463C36.4847 57.4189 36.9776 57.3435 37.4879 56.5896C38.4448 55.1804 39.4597 53.8117 40.521 52.4779C41.0661 51.7936 41.0081 51.3006 40.4862 50.6337C38.8392 48.5344 37.2154 46.4176 35.6728 44.2429C35.0232 43.3266 34.2983 43.0018 33.1848 43.0076C24.2481 43.0482 15.3172 42.9844 6.38045 43.0482C2.51231 43.0714 0.465152 40.4849 0.499948 37.2141C0.621734 26.7116 0.546342 16.1974 0.546342 5.68906C0.546342 2.49944 1.63081 1.00322 4.66965 -6.00666e-05H69.0942C73.0319 1.1888 73.4553 4.30883 73.2697 7.80581C74.8413 5.85144 76.2853 3.93187 77.6829 1.9833C78.3151 1.09601 79.0632 0.382694 80.0897 -0.00585938H81.6323C82.1716 0.208715 82.6993 0.434888 83.1575 0.800245C87.159 3.98406 89.3164 8.14797 89.5773 13.234C89.7861 17.2703 88.5508 20.889 86.1151 24.1135C79.4633 32.9342 72.8231 41.7724 66.1423 50.5757C65.5682 51.3296 65.545 51.84 66.1423 52.5707C67.2094 53.8929 68.2011 55.2789 69.1754 56.6824C69.6161 57.3203 70.0511 57.4769 70.7876 57.1927C73.0551 56.317 75.4386 55.8879 77.8569 55.9169C84.6711 56.0039 90.3196 58.6367 94.6865 63.9025C97.3194 67.0747 98.7576 70.7805 99.3724 74.8284L99.3782 74.84ZM36.8848 3.52012C30.1982 3.52012 23.5116 3.53172 16.825 3.50852C15.9957 3.50852 15.5897 3.6593 15.468 4.63359C14.7257 10.2995 10.6661 14.2604 5.00021 14.9216C4.2231 15.0143 3.97373 15.3739 3.97953 16.122C4.00273 19.5958 4.02593 23.0638 3.96793 26.5376C3.95054 27.5525 4.2811 27.9236 5.27858 28.0686C10.8807 28.9037 14.6793 32.6674 15.4448 38.2232C15.5955 39.3135 16.0131 39.4932 16.97 39.4932C27.6117 39.47 38.2477 39.4642 48.8894 39.4932C49.7651 39.4932 50.2986 39.1975 50.8032 38.5074C56.3357 30.9625 61.8914 23.4407 67.4414 15.9132C67.9092 15.2792 67.7584 14.8616 66.989 14.6606C62.1582 13.4021 58.7714 9.5572 58.2379 4.65099C58.1393 3.7231 57.7043 3.50272 56.8518 3.50852C50.2 3.53172 43.5424 3.52012 36.8906 3.52012H36.8848ZM86.0571 14.7708C86.0629 10.2009 84.6595 6.99971 81.928 4.37262C81.0001 3.47953 80.9769 3.49112 80.2114 4.535C73.1189 14.1561 66.0263 23.7771 58.9396 33.3982C52.8387 41.6738 46.7436 49.9552 40.6196 58.2076C40.0686 58.9499 40.0686 59.3559 40.8863 59.8488C42.0172 60.5331 42.9857 61.4378 43.9136 62.3773C45.3344 63.8155 45.3634 63.8329 46.6392 62.2439C48.2515 60.2374 50.258 59.466 52.7807 60.0692C53.9174 60.3417 54.7467 59.9184 55.4426 58.9905C64.7911 46.5626 74.1628 34.1521 83.5054 21.7299C85.2162 19.4566 86.0977 16.8759 86.0629 14.7708H86.0571ZM46.5929 77.4149C46.3493 66.9182 38.2592 59.1065 27.7103 59.5124C17.6601 59.8952 10.3994 68.4666 10.6371 77.9542C10.8691 87.1925 18.646 95.9379 29.6009 95.3928C38.9842 94.923 46.5523 87.1925 46.5987 77.4149H46.5929ZM95.974 77.4265C95.7478 66.9472 87.6462 59.1181 77.0972 59.5124C67.0586 59.8894 59.8269 68.426 60.0125 77.8499C60.1922 87.1693 68.0155 95.9379 78.9646 95.3928C88.3305 94.9288 95.916 87.2215 95.974 77.4265ZM8.4102 39.4758C9.24531 39.4758 10.0804 39.441 10.9155 39.4874C11.7274 39.528 12.0058 39.1975 11.9304 38.3972C11.6288 35.0626 8.19563 31.7222 4.84363 31.525C4.35649 31.496 3.99693 31.612 3.99113 32.1745C3.99113 34.0709 3.95054 35.9673 4.02593 37.8578C4.07232 38.9481 4.70445 39.4468 5.80631 39.47C6.67041 39.4932 7.54031 39.47 8.4102 39.4758ZM3.99693 7.97399C3.99693 7.97399 3.99113 7.97399 3.98533 7.97399C3.98533 8.87288 3.98533 9.77177 3.98533 10.6707C3.98533 11.1346 4.07232 11.4884 4.67545 11.471C8.02165 11.384 11.681 7.887 11.9304 4.5466C11.9884 3.78689 11.7042 3.50272 10.9503 3.51432C9.2511 3.54332 7.54611 3.51432 5.84691 3.52592C4.64645 3.53752 4.07812 4.05946 4.00273 5.27151C3.95054 6.16461 3.99113 7.0693 3.99113 7.96819L3.99693 7.97399ZM65.3072 3.53172C64.3735 3.53172 63.4398 3.53172 62.512 3.52592C61.845 3.51432 61.5957 3.77529 61.7001 4.47121C62.2394 8.11897 65.0752 10.9258 68.7172 11.4246C69.3725 11.5174 69.6161 11.3028 69.6103 10.6765C69.5987 8.81489 69.6277 6.94751 69.5929 5.08593C69.5755 4.08265 69.0246 3.57231 68.0039 3.53752C67.105 3.50852 66.2061 3.53172 65.3014 3.53172H65.3072ZM66.4439 59.0021C66.3627 58.8629 66.2641 58.6599 66.1365 58.4802C65.3246 57.3667 64.4837 56.2706 63.695 55.1398C63.3065 54.583 63.0687 54.6874 62.7149 55.1688C61.4565 56.8738 60.1806 58.5614 58.8874 60.2374C58.5336 60.6955 58.464 61.0319 58.9106 61.4726C59.5253 62.0815 60.1052 62.7311 60.6736 63.3864C61.0505 63.8213 61.3289 63.8793 61.7406 63.398C62.9759 61.9482 64.4025 60.7071 65.9799 59.64C66.1887 59.5008 66.4323 59.3791 66.4555 59.0079L66.4439 59.0021ZM43.351 43.0424C42.2898 43.0424 41.2343 43.0366 40.173 43.0424C39.9295 43.0424 39.6221 42.9496 39.4887 43.2454C39.3785 43.489 39.6047 43.6571 39.7381 43.8311C40.7761 45.2172 41.8316 46.5916 42.8639 47.9892C43.2119 48.459 43.4728 48.459 43.815 47.9892C44.8473 46.5568 45.9027 45.1418 46.9582 43.7267C47.2946 43.2744 47.2482 43.0424 46.6334 43.0424C45.5432 43.0482 44.4529 43.0424 43.3568 43.0424H43.351Z" fill="#0E2B72"/>
<path d="M50.0722 21.4683C50.0722 28.8102 44.1685 34.7603 36.8846 34.7661C29.5717 34.7777 23.5346 28.7696 23.5288 21.4799C23.5288 14.1264 29.5253 8.2053 36.9658 8.22269C44.2091 8.23429 50.0722 14.1612 50.0722 21.4683ZM36.8092 31.1996C42.2374 31.1996 46.5347 26.9255 46.5753 21.4915C46.6159 16.104 42.2722 11.7603 36.844 11.7603C31.3869 11.7603 27.1012 16.0286 27.0954 21.4567C27.0954 26.8849 31.3927 31.1996 36.8034 31.1996H36.8092Z" fill="#FFB400"/>
<path d="M43.5074 77.4331C43.5016 85.6681 36.844 92.3605 28.6322 92.3953C20.4262 92.4301 13.67 85.6565 13.6758 77.3983C13.6816 69.2271 20.4262 62.4999 28.6206 62.4883C36.7918 62.4767 43.519 69.2271 43.5132 77.4331H43.5074ZM39.9583 77.5027C39.9756 71.1409 34.9418 66.0433 28.638 66.0317C22.3458 66.0201 17.2714 71.0539 17.2366 77.3287C17.2076 83.7428 22.2356 88.8404 28.6032 88.852C34.8549 88.8578 39.9409 83.7776 39.9524 77.5027H39.9583Z" fill="#0E2B72"/>
<path d="M92.883 77.4955C92.8656 85.7073 86.1036 92.4519 77.9439 92.3939C69.6799 92.3359 63.0281 85.6145 63.0513 77.3389C63.0745 69.1909 69.9235 62.4173 78.0541 62.4869C86.2776 62.5623 92.9004 69.2605 92.883 77.4955ZM89.3338 77.4955C89.3396 71.1336 84.3058 66.0476 78.0019 66.0418C71.6749 66.036 66.6179 71.1104 66.6179 77.4491C66.6179 83.7993 71.6633 88.8563 78.0019 88.8621C84.2478 88.8621 89.3338 83.7761 89.3396 77.5013L89.3338 77.4955Z" fill="#0E2B72"/>
</svg>
