<svg width="64" height="64" viewBox="0 0 64 64" fill="none" xmlns="http://www.w3.org/2000/svg">
<path fill-rule="evenodd" clip-rule="evenodd" d="M58.6693 31.9987C58.6693 46.7262 46.7301 58.6654 32.0026 58.6654C17.275 58.6654 5.33594 46.7262 5.33594 31.9987C5.33594 17.2711 17.275 5.33203 32.0026 5.33203C46.7301 5.33203 58.6693 17.2711 58.6693 31.9987ZM31.7919 53.2686C31.9197 53.3267 31.981 53.3318 31.9981 53.332H32.0071C32.0242 53.3318 32.0855 53.3267 32.2133 53.2686C32.3741 53.1955 32.6509 53.0315 33.0207 52.6835C33.7895 51.9611 34.7237 50.6678 35.6242 48.6662C37.1807 45.2075 38.3263 40.3243 38.6042 34.6654H25.401C25.6789 40.3243 26.8245 45.2075 28.381 48.6662C29.2815 50.6678 30.2157 51.9611 30.9845 52.6835C31.3543 53.0315 31.6311 53.1955 31.7919 53.2686ZM25.401 29.332H38.6042C38.3263 23.673 37.1807 18.7898 35.6242 15.3311C34.7237 13.3297 33.7895 12.0364 33.0207 11.3138C32.6509 10.966 32.3741 10.8018 32.2133 10.7288C32.0853 10.6705 32.0239 10.6657 32.0071 10.6654H31.9981C31.9813 10.6657 31.9199 10.6705 31.7919 10.7288C31.6311 10.8018 31.3543 10.966 30.9845 11.3138C30.2157 12.0364 29.2815 13.3297 28.381 15.3311C26.8245 18.7898 25.6789 23.673 25.401 29.332ZM40.0615 12.24C42.2042 16.5584 43.6415 22.5741 43.9434 29.332H53.1709C52.2026 21.5669 47.061 15.0978 40.0615 12.24ZM43.9434 34.6654C43.6415 41.4232 42.2042 47.439 40.0615 51.7574C47.061 48.8995 52.2026 42.4304 53.1709 34.6654H43.9434ZM23.9438 51.7574C21.8011 47.439 20.3638 41.4232 20.0619 34.6654H10.8343C11.8026 42.4304 16.9442 48.8995 23.9438 51.7574ZM20.0619 29.332C20.3638 22.5741 21.8011 16.5584 23.9438 12.24C16.9442 15.0978 11.8026 21.5669 10.8343 29.332H20.0619Z" fill="black"/>
</svg>
