<svg width="37" height="36" viewBox="0 0 37 36" fill="none" xmlns="http://www.w3.org/2000/svg">
<path d="M29 4.5H8C7.17157 4.5 6.5 5.17157 6.5 6V15.2473C6.5 26.3196 15.9112 30.5274 18.0647 31.3453C18.35 31.4536 18.65 31.4536 18.9353 31.3453C21.0888 30.5274 30.5 26.3196 30.5 15.2473V6C30.5 5.17157 29.8284 4.5 29 4.5Z" stroke="#0E2B72" stroke-width="3" stroke-linecap="round" stroke-linejoin="round"/>
<path d="M20.75 22.5C20.75 23.7426 19.7426 24.75 18.5 24.75C17.2574 24.75 16.25 23.7426 16.25 22.5C16.25 21.2574 17.2574 20.25 18.5 20.25C19.7426 20.25 20.75 21.2574 20.75 22.5Z" fill="#0E2B72"/>
<path d="M18.5 16.5L18.5 10.5" stroke="#0E2B72" stroke-width="3" stroke-linecap="round" stroke-linejoin="round"/>
</svg>
