<svg width="64" height="64" viewBox="0 0 64 64" fill="none" xmlns="http://www.w3.org/2000/svg">
<path d="M45.8832 24.5525L42.112 20.7812L29.3309 33.5623L23.2166 27.4479L19.4453 31.2191L29.3309 41.1047L45.8832 24.5525Z" fill="black"/>
<path fill-rule="evenodd" clip-rule="evenodd" d="M8 13.3327L32 2.66602L56 13.3327V34.666C56 53.3327 32 61.3327 32 61.3327C32 61.3327 8 53.3327 8 34.666V13.3327ZM32 55.6172C32.4376 55.4338 32.9459 55.2121 33.5093 54.9511C35.5467 54.0079 38.2293 52.5882 40.8773 50.6756C46.3184 46.746 50.6667 41.4714 50.6667 34.666V16.7987L32 8.50239L13.3333 16.7987V34.666C13.3333 41.4714 17.6816 46.746 23.1226 50.6756C25.7707 52.5882 28.4533 54.0079 30.4907 54.9511C31.0541 55.2121 31.5624 55.4338 32 55.6172Z" fill="black"/>
</svg>
