<svg width="114" height="100" viewBox="0 0 114 100" fill="none" xmlns="http://www.w3.org/2000/svg">
<path d="M94.3047 0C95.1732 0.696011 95.3269 1.61616 95.3269 2.67787C95.3032 20.9511 95.3091 39.2244 95.3091 57.4976C95.3091 58.5868 95.8566 59.1315 96.9515 59.1315C101.702 59.1315 106.452 59.1315 111.202 59.1315C113.275 59.1315 113.842 59.68 113.842 61.7091C113.842 70.6156 113.86 79.5222 113.837 88.4229C113.819 94.0087 109.849 98.7864 104.384 99.8599C103.781 99.9779 103.155 99.9956 102.54 99.9956C79.7888 100.001 57.0431 100.001 34.2915 99.9956C30.7349 99.9956 28.4072 97.6775 28.4013 94.1444C28.3895 89.2487 28.4013 84.353 28.3835 79.4573C28.3835 78.956 28.6612 78.2954 28.0231 78.0004C27.3555 77.6878 27.0779 78.372 26.7234 78.72C24.6615 80.7255 23.7339 80.9319 21.0694 79.7346C20.4137 79.4396 20.2305 79.9351 19.941 80.2241C17.0343 83.1026 14.1158 85.9692 11.2681 88.9007C10.4765 89.7147 9.99197 89.8326 9.15895 88.9361C7.46927 87.1135 7.41614 87.1607 9.20626 85.3734C11.7999 82.784 14.3639 80.1593 17.0048 77.617C17.7964 76.8561 17.7492 76.3843 16.9693 75.6883C15.8527 74.6855 14.7716 73.6238 13.7731 72.5031C13.0346 71.6715 12.5561 71.813 11.8412 72.5444C9.01127 75.4405 6.09863 78.26 3.26871 81.162C2.56566 81.8816 2.13437 81.9288 1.40769 81.1915C-0.447418 79.2981 -0.476926 79.3335 1.36636 77.4755C3.91861 74.8979 6.44721 72.2967 9.02899 69.7486C9.63161 69.1528 9.8148 68.6987 9.3717 67.8788C8.49141 66.239 8.78088 64.6701 10.311 63.2957C11.3509 62.3638 11.4986 61.5321 11.0732 60.1932C6.68357 46.3437 13.7081 31.5034 27.1901 26.0768C28.159 25.6875 28.4131 25.1744 28.4072 24.1893C28.3717 16.9815 28.4071 9.77365 28.3717 2.55991C28.3717 1.52769 28.5785 0.660621 29.3938 0H94.287H94.3047ZM91.4453 47.3524C91.4453 33.326 91.4335 19.2937 91.4689 5.26727C91.4689 4.12298 91.2031 3.74548 89.9978 3.75138C82.6247 3.80447 75.2456 3.78087 67.8724 3.78087C56.4405 3.78087 45.0145 3.78087 33.5826 3.77498C32.8264 3.77498 32.2533 3.76908 32.2592 4.83079C32.2946 11.0359 32.2828 17.241 32.2651 23.4461C32.2651 24.2129 32.4601 24.4312 33.2813 24.3014C36.0344 23.8472 38.8111 23.8472 41.5819 24.207C57.7639 26.2833 68.7291 42.1795 65.0426 58.0756C61.8995 71.642 48.7956 81.6221 33.4762 79.3453C32.3537 79.1801 32.2592 79.5458 32.2651 80.4483C32.2946 84.6479 32.2769 88.8476 32.2769 93.0532C32.2769 95.6779 32.7495 96.1498 35.3786 96.1498C52.3699 96.1498 69.3553 96.1498 86.3467 96.1498C88.5858 96.1498 90.8249 96.138 93.064 96.1498C93.7435 96.1498 94.0507 96.0672 93.5249 95.3476C91.9711 93.2124 91.4158 90.8059 91.4217 88.1693C91.463 74.5676 91.4394 60.96 91.4394 47.3583L91.4453 47.3524ZM37.6 27.8463C37.4877 27.8522 37.1805 27.864 36.8733 27.8935C36.5661 27.923 36.2589 27.982 35.9517 28.0056C28.8976 28.5483 23.1963 31.6567 18.8303 37.1599C15.3978 41.4834 13.7908 46.4971 13.779 51.9708C13.7731 55.1029 14.3698 58.1818 15.6873 61.0661C16.2486 62.293 16.0654 63.2839 15.0788 64.1805C14.5648 64.6465 14.1098 65.1773 13.5958 65.6433C13.1705 66.0326 13.1173 66.3393 13.5604 66.7817C16.6326 69.8194 19.687 72.8688 22.7355 75.936C23.1491 76.3548 23.4563 76.4197 23.8757 75.9596C24.372 75.4169 24.9274 74.9392 25.4236 74.3965C26.298 73.4469 27.2669 73.3112 28.4544 73.8185C32.8618 75.7119 37.4464 76.1719 42.161 75.3108C54.6623 73.0281 63.3292 61.0779 61.5214 48.5792C59.8494 37.0007 50.3671 28.1 37.6 27.8345V27.8463ZM95.315 76.3312C95.315 80.1475 95.3268 83.9637 95.3091 87.78C95.3091 88.6353 95.3918 89.4728 95.5395 90.3045C96.2071 93.9674 99.9232 96.5922 103.58 95.9847C107.367 95.3594 109.949 92.1802 109.967 87.9392C110.008 80 109.967 72.0608 109.996 64.1215C109.996 63.2721 109.73 62.9772 108.868 62.9831C104.738 63.0185 100.603 63.0244 96.473 62.9831C95.5336 62.9713 95.2914 63.3134 95.2973 64.1982C95.3327 68.2445 95.315 72.2908 95.315 76.3371V76.3312Z" fill="#0E2B72"/>
<path d="M61.9821 12.8712C67.9256 12.8712 73.8749 12.8712 79.8183 12.8712C81.7325 12.8712 82.3352 13.4611 82.3352 15.3367C82.3352 24.8509 82.3352 34.3709 82.3352 43.885C82.3352 45.7076 81.7207 46.3269 79.9128 46.3328C77.4019 46.3446 74.8911 46.2974 72.3861 46.3505C71.4113 46.3682 70.9977 46.1205 71.0332 45.0647C71.1277 42.027 70.6964 42.5225 73.6091 42.4753C74.8852 42.4576 76.1554 42.4458 77.4315 42.4753C78.1523 42.493 78.4772 42.2806 78.4772 41.4961C78.4595 33.5569 78.4536 25.6236 78.4772 17.6843C78.4772 16.776 78.0046 16.7111 77.3075 16.7111C72.1321 16.7229 66.9626 16.717 61.7872 16.717C56.6886 16.717 51.5959 16.7347 46.4973 16.6993C45.5521 16.6934 45.2271 16.9706 45.2271 17.9379C45.2271 20.7161 45.7175 20.3504 42.6926 20.433C41.6882 20.4566 41.3042 20.1498 41.3633 19.1235C41.4401 17.8554 41.3751 16.5813 41.381 15.3073C41.3928 13.4375 41.9837 12.8535 43.9097 12.8535C49.9299 12.8535 55.956 12.8535 61.9762 12.8535L61.9821 12.8712Z" fill="#0E2B72"/>
<path d="M56.2511 87.0552C51.7374 87.0552 47.2177 87.0316 42.704 87.0729C41.7056 87.0847 41.3393 86.7957 41.3688 85.7634C41.4634 82.7435 41.0262 83.2035 43.9624 83.1977C52.529 83.1741 61.0956 83.1917 69.6681 83.1917C71.2041 83.1917 71.2218 83.1976 71.21 84.7076C71.1864 87.3855 71.5173 87.0316 68.8705 87.0434C64.664 87.0611 60.4575 87.0434 56.2511 87.0434V87.0552Z" fill="#0E2B72"/>
<path d="M72.9668 75.9479C70.2669 75.9479 67.567 75.9125 64.867 75.9656C63.8922 75.9833 63.5968 75.6294 63.6204 74.6915C63.6972 71.6361 63.2836 72.108 66.1726 72.0903C71.1117 72.0608 76.0508 72.1139 80.984 72.0608C82.0651 72.049 82.3782 72.4147 82.3487 73.4528C82.2601 76.3254 82.6559 75.9125 79.9087 75.9361C77.5928 75.9597 75.2768 75.9361 72.9668 75.9361V75.9479Z" fill="#0E2B72"/>
<path d="M75.7259 64.8483C73.9121 64.8483 72.0984 64.8247 70.2906 64.8601C69.5107 64.8719 69.1799 64.6182 69.1917 63.7984C69.2508 60.4186 68.8136 61.032 71.8798 60.9966C74.9638 60.9612 78.0478 61.0143 81.1376 60.973C82.0179 60.9612 82.3783 61.2208 82.3546 62.1527C82.2778 65.3379 82.7032 64.7952 79.7728 64.8424C78.4258 64.866 77.0729 64.8424 75.7259 64.8424V64.8483Z" fill="#FFB400"/>
<path d="M78.436 87.0495C77.5084 87.0495 76.5868 87.0377 75.6592 87.0495C75.0271 87.0613 74.7553 86.7959 74.7612 86.1589C74.7907 82.5019 74.3595 83.2745 77.5084 83.192C78.7786 83.1625 80.0547 83.2156 81.325 83.1802C82.0635 83.1625 82.3588 83.4515 82.347 84.1947C82.2939 87.6512 82.737 86.9669 79.594 87.0495C79.2099 87.0613 78.8259 87.0495 78.436 87.0495Z" fill="#FFB400"/>
<path d="M37.7484 72.2509C26.3165 72.2332 17.2714 63.1556 17.2891 51.7127C17.3068 40.3465 26.4406 31.3632 37.9553 31.3809C49.269 31.3986 58.2669 40.5883 58.2373 52.0961C58.2078 63.2264 49.0149 72.2627 37.7484 72.2509ZM37.713 68.3815C47.3194 68.1161 54.3558 60.9496 54.3026 51.7186C54.2435 42.3578 47.018 35.2915 37.7543 35.3092C28.4079 35.321 21.1588 42.4994 21.2238 51.9781C21.2829 61.2032 28.467 68.1338 37.7189 68.3875L37.713 68.3815Z" fill="#0E2B72"/>
<path d="M37.7696 40.6358C38.7326 40.6358 39.6956 40.6476 40.6586 40.6358C41.3203 40.624 41.5507 40.8954 41.409 41.5619C40.5818 45.3546 39.7665 49.1531 38.9749 52.9517C38.8094 53.7362 38.2895 53.7421 37.681 53.7539C37.0607 53.7657 36.6648 53.6064 36.523 52.9222C35.7373 49.159 34.9397 45.3958 34.1126 41.6445C33.9295 40.8187 34.2544 40.6122 34.987 40.6299C35.9145 40.6535 36.8362 40.6299 37.7637 40.6299L37.7696 40.6358Z" fill="#FFB400"/>
<path d="M37.7185 62.9899C36.0938 62.9722 34.9004 61.7571 34.9063 60.1233C34.9063 58.4422 36.1469 57.2508 37.8543 57.2921C39.4849 57.3274 40.637 58.5484 40.6134 60.2C40.5898 61.8043 39.3373 63.0017 37.7185 62.9899Z" fill="#FFB400"/>
</svg>
