<svg width="88" height="88" viewBox="0 0 88 88" fill="none" xmlns="http://www.w3.org/2000/svg">
<path d="M0 63.4213C0.932951 62.8556 0.957761 61.878 1.12152 60.9649C3.10653 49.7347 5.0816 38.4996 7.06164 27.2645C8.04918 21.647 9.04168 16.0294 10.0193 10.4118C10.4858 7.72713 12.5899 6.22349 15.2547 6.70981C17.2646 7.07208 19.2744 7.44426 21.2892 7.77675C22.1477 7.92067 22.6638 8.36729 22.897 9.19603C23.2295 10.3721 23.6364 11.5234 23.9292 12.7095C24.2518 14.0047 24.8671 15.1213 25.6512 16.1882C26.6635 17.5579 27.6263 18.9672 28.589 20.3716C29.2143 21.2797 29.1398 22.1234 28.4302 22.6345C27.7106 23.1506 26.867 22.962 26.2368 22.0787C24.8373 20.1135 23.4379 18.1434 22.0931 16.1386C21.4033 15.1113 21.1601 13.8707 20.9368 12.6847C20.6291 11.0768 19.8996 10.2183 18.1777 10.1637C17.0561 10.129 15.9445 9.77168 14.823 9.61288C13.5328 9.43423 13.096 9.76175 12.8727 11.0222C11.6668 17.8407 10.4659 24.6592 9.265 31.4777C7.74647 40.0827 6.22795 48.6926 4.71439 57.2976C4.42656 58.9203 4.15858 60.5431 3.85587 62.1609C3.77151 62.6224 3.88068 62.8606 4.37693 62.9052C6.21305 63.069 8.04918 63.2427 9.88531 63.4213C10.456 63.4759 10.4411 63.0442 10.5007 62.6968C10.7984 61.0493 11.0813 59.4017 11.3741 57.7492C11.5974 56.4887 12.2078 56.0322 13.4682 56.2505C15.9594 56.6723 18.4456 57.1189 20.9269 57.5755C22.0782 57.7839 22.5149 58.434 22.3213 59.5903C22.0931 60.9351 21.8847 62.2799 21.5968 63.6099C21.443 64.3195 21.6365 64.5826 22.3611 64.6322C23.9739 64.7463 25.5817 64.915 27.1896 65.0937C27.8248 65.1632 28.1225 64.9299 28.2317 64.2997C29.5368 56.8361 30.8519 49.3774 32.167 41.9138C33.0255 37.0506 33.879 32.1873 34.7425 27.329C34.9162 26.3415 35.6358 25.7708 36.4397 25.9147C37.3081 26.0735 37.7746 26.8377 37.5959 27.86C35.8988 37.5022 34.2016 47.1393 32.5044 56.7815C32.0231 59.5208 31.5615 62.2601 31.0554 64.9944C30.9561 65.5354 31.0355 65.9373 31.4772 66.2549C32.564 67.0489 33.0007 68.1109 32.7922 69.4408C32.693 70.0612 32.961 70.5128 33.4125 70.9346C34.2611 71.7286 35.0353 72.6119 35.9037 73.386C36.6431 74.0461 37.0153 74.7855 36.8962 75.778C36.8615 76.1005 36.8119 76.4479 36.9756 76.8102C37.7299 76.299 38.1914 75.7283 38.1567 74.7309C38.117 73.6292 38.1666 72.5871 37.1295 71.8576C36.8168 71.6392 36.7672 71.2323 36.7672 70.8502C36.7672 69.5451 36.7523 68.235 36.7722 66.9298C36.787 65.9969 37.1841 65.5205 38.1418 65.4014C41.4617 64.9895 44.7916 64.6123 48.1165 64.2253C48.4241 64.1905 48.7368 64.1558 49.0444 64.1111C50.4985 63.8977 50.5183 63.8928 50.2553 62.3891C48.6921 53.4765 47.119 44.5588 45.5508 35.6462C45.1092 33.1302 44.6923 30.6092 44.2308 28.0982C44.0819 27.2943 44.34 26.7236 44.9752 26.2571C47.2629 24.5699 49.5407 22.8777 51.8234 21.1854C52.146 20.9423 52.4835 20.7438 52.8954 20.7041C54.4238 20.5403 55.9622 20.5453 57.4906 20.6098C58.2251 20.6396 58.6568 21.1557 58.7064 21.9149C58.7561 22.6593 58.3243 23.2449 57.5849 23.3987C56.5775 23.6121 55.5453 23.5774 54.528 23.5526C53.8035 23.5377 53.2229 23.7461 52.6522 24.1828C51.0493 25.4085 49.4216 26.5995 47.7889 27.7806C47.3622 28.0883 47.2282 28.4307 47.3225 28.9418C49.109 39.0008 50.8806 49.0598 52.6571 59.1188C52.8656 60.29 53.0839 61.4661 53.2527 62.6422C53.3519 63.337 53.6397 63.6198 54.3742 63.5305C56.8802 63.2179 59.3863 62.94 61.8973 62.6571C62.5425 62.5827 62.7658 62.3097 62.6169 61.6299C62.3638 60.4935 62.1802 59.3471 62.0065 58.1958C61.8279 57.0098 62.2695 56.4143 63.4258 56.2058C65.912 55.7592 68.3982 55.3176 70.8844 54.8858C72.0308 54.6873 72.6759 55.1141 72.9141 56.2704C73.197 57.6599 73.46 59.0543 73.6634 60.4587C73.7527 61.0592 73.9215 61.2775 74.5765 61.1932C77.1918 60.8607 79.8169 60.5629 82.4421 60.3098C83.112 60.2453 83.0674 59.9128 82.988 59.4513C82.5066 56.712 82.0302 53.9727 81.5489 51.2334C79.8616 41.6508 78.1793 32.0633 76.4921 22.4807C75.8618 18.9027 75.2365 15.3247 74.5964 11.7517C74.4028 10.66 73.9165 10.2779 72.7999 10.4565C70.5867 10.8088 68.3883 11.2406 66.175 11.6128C65.773 11.6822 65.5944 11.9105 65.4356 12.2281C64.7855 13.5233 64.1404 14.8185 63.4754 16.1088C63.2074 16.6299 63.262 17.1559 63.3563 17.6869C63.5647 18.9176 63.8129 20.1433 63.9865 21.379C64.1304 22.4062 63.6392 23.1109 62.8005 23.2201C61.9817 23.3243 61.3366 22.828 61.153 21.8653C60.8304 20.1929 60.5575 18.5107 60.2448 16.8383C60.1555 16.3569 60.2895 15.9401 60.4929 15.5282C61.4408 13.6524 62.4085 11.7865 63.3513 9.90567C63.6292 9.34987 64.0461 9.0273 64.6515 8.91813C67.3611 8.43677 70.0607 7.90082 72.7851 7.49389C75.0083 7.1614 76.9833 8.73452 77.42 11.0719C77.8468 13.3596 78.2339 15.6522 78.6359 17.9449C80.1445 26.4953 81.6531 35.0457 83.1567 43.5961C84.045 48.6281 84.9283 53.6551 85.8067 58.6871C85.9208 59.3322 85.9953 59.9327 86.7496 60.2304C87.221 60.419 87.3451 60.945 87.3451 61.4661C87.3451 69.5897 87.3451 77.7183 87.3351 85.8419C87.3351 86.7997 86.8091 87.286 85.8464 87.3307C85.7025 87.3356 85.5635 87.3307 85.4196 87.3307C57.5799 87.3307 29.7403 87.3307 1.89568 87.3406C1.13145 87.3406 0.496248 87.1868 0.00495978 86.5863V63.4015L0 63.4213ZM12.4956 78.1947C14.0141 78.5123 15.3242 78.7505 16.6145 79.0582C17.5524 79.2815 17.994 80.1053 17.7161 80.939C17.4631 81.6883 16.7534 82.0258 15.746 81.8322C14.0439 81.5047 12.3467 81.1821 10.6545 80.805C10.1632 80.6958 9.85057 80.8149 9.52801 81.1524C8.93747 81.7677 8.34694 82.3831 7.70181 82.9389C7.11623 83.445 6.28749 83.3607 5.77636 82.8247C5.29003 82.3186 5.24538 81.5345 5.692 80.9539C5.86569 80.7305 6.07411 80.537 6.27757 80.3335C9.19056 77.4206 12.0887 74.4976 15.0265 71.6045C15.5376 71.1033 15.6468 70.8006 15.0612 70.2646C13.9496 69.2473 12.9075 68.1605 11.8604 67.0787C11.5031 66.7115 11.116 66.503 10.6049 66.4584C8.37175 66.2599 6.14358 66.0366 3.91046 65.8381C2.78893 65.7388 2.78893 65.7487 2.78893 66.9C2.78893 72.3538 2.78893 77.8076 2.78893 83.2614C2.78893 84.0852 3.21074 84.4971 4.05437 84.4971C23.6265 84.4971 43.2036 84.4971 62.7757 84.4971C63.0338 84.4971 63.2868 84.4971 63.5449 84.4921C63.7186 84.4921 63.9419 84.4574 63.9667 84.2738C64.056 83.6088 64.2893 82.8495 63.8377 82.2987C63.004 81.2814 62.1752 80.269 60.5426 80.4874C59.2573 80.6611 58.6419 80.0854 58.5923 79.1525C58.5476 78.3783 59.2325 77.4553 60.5326 77.6786C60.5624 77.6786 60.5872 77.6786 60.617 77.6786C61.1281 77.7282 61.3415 77.5049 61.3217 76.9888C61.2969 76.3635 61.3068 75.7383 61.3217 75.113C61.3465 74.185 61.8725 73.6193 62.6963 73.5994C63.5598 73.5796 64.1354 74.1552 64.1553 75.118C64.1751 76.0261 64.1999 76.9392 64.1553 77.8424C64.1106 78.7456 64.7607 79.2071 65.3463 79.5644C65.7979 79.8373 66.0361 79.1277 66.3735 78.8746C66.6216 78.691 66.8152 78.4329 67.0434 78.2195C67.7481 77.5694 68.5769 77.5198 69.1674 78.0955C69.7827 78.691 69.748 79.5544 69.0483 80.279C68.4379 80.9142 67.7928 81.5146 67.1923 82.1598C66.6266 82.7602 66.8301 83.5344 66.9591 84.1894C67.0732 84.7651 67.7382 84.4872 68.1501 84.4872C73.2615 84.507 78.3778 84.4872 83.4892 84.512C84.2534 84.512 84.5214 84.3234 84.5164 83.5145C84.4767 79.877 84.5065 76.2444 84.4966 72.6069C84.4966 70.7559 84.71 71.1231 82.8639 70.9495C80.6903 70.741 78.9138 71.1926 77.6285 73.0635C77.3704 73.4357 76.9734 73.6987 76.4722 73.6987C75.0529 73.6987 73.6287 73.7334 72.2094 73.6888C71.2268 73.659 70.6115 72.7161 70.939 71.8179C71.212 71.0686 71.8174 70.7658 72.5667 70.875C74.7899 71.1976 76.6161 70.617 77.9411 68.7014C78.2488 68.2548 78.75 68.1258 79.3008 68.1307C80.7499 68.1456 82.1989 68.1059 83.648 68.1506C84.3378 68.1704 84.5462 67.9174 84.5164 67.2573C84.4718 66.379 84.5065 65.4957 84.5065 64.6173C84.5065 62.935 84.5065 62.9747 82.8391 63.1831C79.6284 63.5851 76.4176 63.9424 73.2019 64.3146C69.3957 64.7513 65.5944 65.188 61.7882 65.6197C57.6445 66.0912 53.5008 66.5676 49.3571 67.039C46.3151 67.3864 43.2681 67.7288 40.2261 68.0712C39.9631 68.101 39.6504 68.1109 39.6504 68.4434C39.6504 69.3218 39.3378 70.2746 40.2509 70.9495C40.8166 71.3663 41.0151 71.9568 40.9903 72.6665C40.9506 73.8277 40.9754 74.9939 40.9804 76.1601C40.9804 76.5372 40.9853 76.9293 40.7124 77.2072C39.2584 78.686 37.8341 80.1946 36.3057 81.594C35.4571 82.3682 34.1569 81.7231 34.0577 80.5618C34.0229 80.1648 33.9882 79.7579 34.0577 79.3708C34.5093 76.6911 33.6607 74.5721 31.4226 72.999C30.2365 72.1653 29.7205 71.0189 29.9438 69.5401C30.0678 68.7163 29.646 68.2846 28.7925 68.2052C25.3733 67.8876 21.9591 67.5352 18.5399 67.2226C17.741 67.1482 16.942 66.905 16.0835 67.1085C16.3167 67.5749 16.6939 67.838 17.0115 68.1506C19.9046 70.9693 19.9245 70.8552 17.0413 73.6739C15.5624 75.118 14.1134 76.5918 12.5055 78.1997L12.4956 78.1947ZM17.6516 64.1856C18.3315 64.3295 18.5995 64.0665 18.6838 63.5107C18.8079 62.672 18.9071 61.8234 19.1106 60.9996C19.2644 60.3744 19.0064 60.1808 18.4754 60.0865C17.2497 59.8781 16.019 59.6697 14.7982 59.4265C14.2473 59.3173 14.0092 59.5158 13.9198 60.0319C13.7511 61.0344 13.5675 62.0368 13.3789 63.0392C13.2797 63.5752 13.4831 63.8332 14.0389 63.8729C15.2796 63.9622 16.5202 64.0813 17.6516 64.1806V64.1856ZM66.2346 62.1708C67.6538 62.0021 68.9987 61.8284 70.3485 61.6795C70.7554 61.6348 70.8844 61.4413 70.81 61.0542C70.6512 60.2205 70.4924 59.3868 70.3584 58.5481C70.2889 58.1015 70.0507 58.0023 69.6388 58.0817C68.3883 58.3099 67.1328 58.5283 65.8773 58.7367C65.3364 58.826 65.0684 59.0742 65.1924 59.6597C65.3264 60.2949 65.4257 60.9401 65.5398 61.5802C65.6142 62.012 65.8475 62.2403 66.2346 62.1708Z" fill="#0E2B72"/>
<path d="M33.2382 0.0049625C34.3895 0.853551 34.459 1.65251 33.4615 2.66983C33.0844 3.0569 32.7122 3.44894 32.3053 3.79632C31.7048 4.30249 30.9058 4.26775 30.3748 3.75662C29.819 3.22067 29.7694 2.37704 30.3203 1.76169C30.8661 1.1513 31.4716 0.585576 32.0472 0C32.4442 0 32.8412 0 33.2382 0V0.0049625Z" fill="#0E2B72"/>
<path d="M27.9082 12.4805C28.0372 10.4409 28.1266 8.6246 28.2705 6.81825C28.3697 5.57266 29.4515 4.9722 30.5433 5.59251C34.9103 8.08369 39.2723 10.5749 43.5947 13.1405C45.4953 14.267 46.1156 16.5547 45.0685 18.5C43.7535 20.9515 42.3292 23.3434 40.9199 25.7452C40.4485 26.5442 39.6743 26.7725 38.8654 26.3159C36.1211 24.7627 33.4017 23.1747 30.6773 21.5916C30.2654 21.3534 30.0322 20.9713 29.9081 20.5098C29.2729 18.1228 28.6178 15.7408 27.9926 13.3539C27.8983 13.0015 27.9181 12.6244 27.9082 12.4854V12.4805ZM30.8956 11.9098C30.7964 12.4705 30.9552 13.1901 31.1537 13.9047C31.5904 15.4877 32.0221 17.0757 32.4241 18.6687C32.5432 19.1451 32.7814 19.4726 33.2032 19.7108C34.9798 20.7182 36.7564 21.7207 38.5032 22.7777C39.0292 23.0953 39.2227 22.9117 39.4708 22.4601C40.3442 20.9018 41.2474 19.3585 42.1407 17.8152C42.895 16.51 42.7461 15.9741 41.4161 15.2098C38.6669 13.6218 35.9127 12.0438 33.1685 10.4458C30.9453 9.15559 30.9502 9.14566 30.8907 11.9098H30.8956Z" fill="#FFB400"/>
<path d="M29.3971 34.3167C27.4568 33.9792 25.3328 33.612 23.2089 33.2398C20.0825 32.689 16.9561 32.1282 13.8297 31.5873C12.4204 31.3441 11.9886 30.7933 12.2219 29.3542C12.465 27.8456 12.7429 26.337 13.0357 24.8333C13.3037 23.4587 13.8595 23.0816 15.2639 23.3247C19.9286 24.1386 24.5884 24.9673 29.2482 25.7911C29.804 25.8904 30.3747 25.9648 30.9156 26.1137C31.7791 26.3519 32.2009 26.9573 32.057 27.8406C31.7841 29.5477 31.4863 31.2499 31.1538 32.947C30.9653 33.8949 30.4343 34.3117 29.3971 34.3117V34.3167ZM15.388 28.2227C15.249 29.116 15.9835 28.9919 16.445 29.0763C19.9287 29.7115 23.4223 30.302 26.9059 30.9273C28.5237 31.2151 28.4741 31.225 28.7967 29.6122C28.9356 28.9026 28.7619 28.6495 28.0771 28.5354C24.4743 27.925 20.8715 27.2947 17.2737 26.6496C15.5319 26.337 15.7105 26.2377 15.388 28.2277V28.2227Z" fill="#0E2B72"/>
<path d="M13.0061 34.0172C14.8472 34.3397 16.9116 34.697 18.976 35.0643C22.1868 35.63 25.3975 36.1957 28.6033 36.7714C29.9183 37.0096 30.3253 37.615 30.1019 38.9251C29.8439 40.4039 29.5958 41.8877 29.3427 43.3665C29.0946 44.8057 28.4643 45.2374 27.0202 44.9794C22.023 44.096 17.0258 43.2127 12.0285 42.3393C10.4802 42.0664 10.0981 41.5701 10.3512 40.0218C10.6142 38.4288 10.8921 36.8359 11.2047 35.2528C11.3784 34.3844 11.9342 33.9874 13.0061 34.0172ZM26.0972 41.8629C26.4297 41.9026 26.6481 41.7835 26.7026 41.4312C26.7622 41.0689 26.782 40.6918 26.9011 40.3444C27.1691 39.5653 26.7771 39.3767 26.1071 39.2625C22.5887 38.6621 19.0753 38.0368 15.5568 37.4115C13.7257 37.089 13.7455 37.084 13.4825 38.9598C13.4081 39.4759 13.5222 39.6447 14.0433 39.729C16.2218 40.0814 18.3954 40.4883 20.5739 40.8754C22.415 41.2029 24.2561 41.5304 26.0972 41.8629Z" fill="#0E2B72"/>
<path d="M25.5617 55.7934C23.5916 55.451 21.4726 55.0887 19.3486 54.7166C16.2768 54.1756 13.21 53.6198 10.1382 53.0789C8.56015 52.801 8.19292 52.2998 8.4609 50.687C8.68917 49.2876 8.93234 47.8931 9.19039 46.4986C9.47325 44.9702 10.039 44.5633 11.5525 44.8263C14.5152 45.3374 17.4728 45.8634 20.4305 46.3895C22.5246 46.7617 24.6138 47.1338 26.708 47.511C28.0082 47.7492 28.4399 48.3745 28.2117 49.6598C27.9238 51.2775 27.6559 52.9003 27.3333 54.5131C27.1497 55.446 26.6336 55.8182 25.5617 55.7934ZM11.5873 49.8583C11.3987 50.4389 11.8652 50.4041 12.2126 50.4686C16.1429 51.1733 20.0732 51.8681 24.0035 52.5728C24.4848 52.6571 24.7776 52.543 24.8372 52.017C24.8719 51.7341 24.9166 51.4512 25.0009 51.1833C25.2391 50.3992 24.9414 50.1163 24.1474 49.9873C20.6835 49.4166 17.2247 48.7864 13.7708 48.171C11.7759 47.8137 11.751 47.8236 11.5922 49.8583H11.5873Z" fill="#0E2B72"/>
<path d="M76.2396 35.7788C76.2793 37.0095 75.927 37.5554 75.0188 37.7291C72.4036 38.2204 69.7784 38.6819 67.1483 39.0988C66.0814 39.2675 65.4859 38.7861 65.2923 37.7043C64.8258 35.1387 64.3842 32.5731 63.9425 30.0025C63.7936 29.139 64.1956 28.4393 65.0591 28.2706C67.7835 27.7396 70.5178 27.2483 73.2571 26.8017C74.0164 26.6776 74.6367 27.1292 74.7856 27.8736C75.3265 30.598 75.793 33.3323 76.2396 35.7788ZM72.0165 29.9628C70.3491 30.2605 68.9249 30.5087 67.5006 30.7618C67.1334 30.8263 67.0888 31.0694 67.1483 31.4019C67.3915 32.712 67.6346 34.0221 67.8381 35.3372C67.9224 35.8682 68.2053 35.9873 68.6668 35.9029C69.9521 35.6746 71.2324 35.4464 72.5177 35.223C72.9296 35.1536 73.1132 34.9303 73.0388 34.5084C72.8006 33.1686 72.5673 31.8287 72.3192 30.4888C72.2646 30.196 72.1704 29.9181 72.0115 29.9578L72.0165 29.9628Z" fill="#0E2B72"/>
<path d="M62.795 38.1312C62.8496 39.3322 62.4774 39.9177 61.6239 40.0765C59.0037 40.5728 56.3785 41.0492 53.7484 41.471C52.6467 41.6496 52.1058 41.2229 51.8924 40.0964C51.416 37.5605 50.9743 35.0148 50.5476 32.469C50.3739 31.4318 50.7659 30.8016 51.7932 30.6031C54.4382 30.092 57.0931 29.6255 59.753 29.1739C60.5023 29.0449 61.2219 29.5064 61.3658 30.2508C61.8918 32.9801 62.3633 35.7194 62.8 38.1312H62.795ZM55.1428 38.29C56.3438 38.0766 57.5943 37.8285 58.8548 37.6399C59.5347 37.5407 59.6935 37.1983 59.5744 36.578C59.3411 35.382 59.1228 34.1811 58.9292 32.9801C58.8498 32.4889 58.6613 32.3003 58.1303 32.4095C56.8549 32.6675 55.5696 32.9107 54.2794 33.0893C53.7236 33.1687 53.6392 33.402 53.7285 33.8784C53.9717 35.1587 54.2 36.444 54.4134 37.7293C54.4828 38.1412 54.6615 38.3496 55.1428 38.2851V38.29Z" fill="#0E2B72"/>
<path d="M65.1729 51.5663C65.2126 52.8268 64.8107 53.3826 63.8678 53.5563C61.3022 54.0277 58.7366 54.4843 56.166 54.916C55.109 55.0947 54.4589 54.648 54.2604 53.5811C53.7691 50.9659 53.3175 48.3407 52.8758 45.7106C52.7419 44.9116 53.1686 44.2317 54.0023 44.068C56.7267 43.5419 59.4611 43.0556 62.2004 42.609C62.9646 42.4849 63.5849 42.9167 63.7288 43.671C64.2648 46.3954 64.7313 49.1297 65.168 51.5663H65.1729ZM62.0068 50.4845C61.7438 48.9759 61.5106 47.6112 61.2575 46.2465C61.193 45.8843 60.9846 45.7403 60.5826 45.8197C59.2527 46.0828 57.9128 46.3259 56.5729 46.5443C56.1461 46.6137 55.9973 46.7527 56.0816 47.2092C56.3397 48.5392 56.5729 49.8791 56.7913 51.2189C56.8607 51.6507 57.0741 51.8095 57.486 51.735C58.7961 51.4968 60.1013 51.2586 61.4114 51.0155C61.7786 50.946 62.0664 50.7922 62.0019 50.4795L62.0068 50.4845Z" fill="#0E2B72"/>
<path d="M78.6317 49.2973C78.6317 50.4486 78.2297 51.0094 77.3811 51.1682C74.7907 51.6446 72.1953 52.111 69.5999 52.5378C68.4833 52.7214 67.868 52.2401 67.6645 51.1334C67.203 48.5976 66.7564 46.0568 66.3197 43.516C66.1559 42.5681 66.5777 41.8585 67.5206 41.6749C70.1904 41.1588 72.8702 40.6824 75.5499 40.2407C76.2993 40.1167 76.9742 40.4789 77.128 41.2382C77.6888 44.0122 78.1751 46.8061 78.6317 49.2973ZM75.4209 47.9475C75.1827 46.6473 74.9147 45.1983 74.6418 43.7492C74.5773 43.4167 74.3589 43.387 74.0612 43.4465C72.6965 43.7046 71.3318 43.9527 69.9622 44.1909C69.6446 44.2455 69.4113 44.3249 69.4858 44.7219C69.7438 46.1163 69.9969 47.5108 70.2401 48.9053C70.3095 49.3023 70.5229 49.4412 70.8951 49.3717C72.235 49.1335 73.5749 48.8904 74.9098 48.6373C75.1926 48.5827 75.4755 48.4884 75.4209 47.9475Z" fill="#0E2B72"/>
<path d="M42.3247 38.2706C42.3396 38.5982 42.1857 38.9307 41.9227 39.2036C41.4662 39.6701 41.0196 40.1514 40.5332 40.5832C39.908 41.139 39.0842 41.1191 38.5383 40.5832C37.9875 40.0423 37.9478 39.2085 38.5036 38.5882C38.975 38.0622 39.4861 37.561 40.0122 37.0896C40.4538 36.6926 40.9997 36.6628 41.5257 36.9109C42.0567 37.159 42.3346 37.6057 42.3247 38.2706Z" fill="#0E2B72"/>
<path d="M42.2699 43.6014C42.662 43.5816 42.9994 43.7255 43.2724 43.9885C43.7388 44.4401 44.2202 44.8867 44.6519 45.373C45.2028 45.9934 45.173 46.8221 44.6321 47.363C44.0912 47.9089 43.2575 47.9436 42.6421 47.3928C42.136 46.9412 41.6596 46.4499 41.208 45.9487C40.811 45.507 40.7564 44.981 40.9995 44.4451C41.2427 43.9041 41.6844 43.6411 42.2699 43.6064V43.6014Z" fill="#0E2B72"/>
<path d="M57.2772 15.0518C56.8852 15.0716 56.5477 14.9277 56.2748 14.6598C55.8083 14.2082 55.327 13.7615 54.8952 13.2752C54.3444 12.6549 54.3741 11.8311 54.92 11.2853C55.4609 10.7394 56.2946 10.7096 56.91 11.2604C57.4162 11.712 57.8926 12.2033 58.3441 12.7045C58.7411 13.1462 58.7908 13.6722 58.5476 14.2082C58.2995 14.754 57.8578 15.0121 57.2722 15.0468L57.2772 15.0518Z" fill="#0E2B72"/>
<path d="M24.5998 4.00051C24.575 4.64067 24.3318 5.09226 23.7959 5.35031C23.2649 5.60836 22.7289 5.58355 22.2873 5.19151C21.7414 4.70022 21.2104 4.18412 20.729 3.62832C20.2626 3.09237 20.2874 2.46709 20.6993 1.90633C21.1112 1.3406 21.7414 1.10737 22.3518 1.43489C23.255 1.92122 23.9398 2.69041 24.4956 3.55884C24.5799 3.69283 24.575 3.88141 24.5998 4.00051Z" fill="#0E2B72"/>
<path d="M49.7483 19.1448C49.4952 19.1448 49.2372 19.1647 48.9841 19.1448C48.2 19.0704 47.6839 18.5146 47.674 17.7504C47.664 16.9514 48.2 16.3757 49.0337 16.3212C49.5101 16.2914 49.9964 16.2914 50.4728 16.3212C51.3165 16.3658 51.8574 16.9216 51.8673 17.7156C51.8772 18.5096 51.3363 19.0853 50.5076 19.1498C50.2545 19.1696 50.0014 19.1498 49.7433 19.1498L49.7483 19.1448Z" fill="#0E2B72"/>
</svg>
