<svg width="92" height="92" viewBox="0 0 92 92" fill="none" xmlns="http://www.w3.org/2000/svg">
<path d="M57.0332 0C58.5122 0.564161 59.5186 1.72806 60.5453 2.84622C61.084 3.43071 61.023 4.11177 60.4945 4.70642C59.9506 5.31633 59.2187 5.38748 58.5783 4.85382C58.0548 4.41672 57.5974 3.89322 57.0942 3.43071C56.3217 2.71915 55.2899 2.68866 54.5987 3.3443C53.8464 4.05586 53.8007 5.05712 54.558 5.89065C55.3204 6.72927 56.1387 7.51706 56.9367 8.3201C61.0078 12.3912 65.0788 16.4623 69.15 20.5334C69.4041 20.7875 69.6531 21.0468 69.9276 21.2755C70.817 22.0175 71.737 21.9769 72.4638 21.1891C73.1448 20.447 73.1347 19.5017 72.3723 18.7139C71.1474 17.4534 69.892 16.2184 68.6468 14.9731C66.9391 13.2654 65.2212 11.5628 63.5236 9.83978C62.7206 9.02657 62.7511 8.12188 63.5744 7.53739C64.2301 7.07488 64.8756 7.1562 65.4397 7.71528C68.5452 10.8105 71.676 13.8855 74.7255 17.0366C76.3774 18.7393 76.2909 21.1281 74.6797 22.9425C73.0686 24.757 70.4359 25.2348 68.6316 23.8981C67.859 23.3237 67.427 23.4254 66.8781 24.0861C66.4003 24.6554 65.6532 25.0772 65.3788 25.7176C65.0738 26.4342 65.9937 26.8917 66.2784 27.5219C67.0763 29.2703 67.244 31.0441 66.4969 32.8077C66.1869 33.5396 66.3749 33.9259 66.873 34.424C74.3951 41.9207 81.8969 49.4428 89.4191 56.9396C90.4305 57.9459 91.2996 59.0133 91.7825 60.3652V62.8709C91.1675 64.4261 90.3492 65.8035 88.8702 66.7184C86.7152 68.05 84.3518 67.9534 82.3798 66.3677C82.0088 66.0678 81.6683 65.7324 81.3277 65.3969C73.7954 57.8697 66.258 50.3425 58.746 42.7898C58.1463 42.185 57.699 42.0122 56.8401 42.3476C54.6495 43.1913 52.5504 42.8051 50.6902 41.3718C50.1972 40.9906 49.8922 40.9855 49.5161 41.448C49.3281 41.6767 49.0943 41.8699 48.8859 42.0833C48.4691 42.5103 47.9203 42.8711 47.6661 43.3794C47.3409 44.035 48.1795 44.34 48.4184 44.8482C49.3078 46.7034 48.7843 49.0667 47.0766 50.5153C45.3841 51.9587 43.2088 52.0502 41.4858 50.7491C41.2266 50.5508 40.9775 50.3323 40.7488 50.0985C35.7272 45.082 30.721 40.0402 25.6791 35.044C22.472 31.8624 24.7236 28.1775 27.4834 27.2322C28.9878 26.7189 30.4465 26.8663 31.6917 27.9285C32.1288 28.2995 32.3677 28.3199 32.7845 27.9031C39.1834 21.4788 45.6026 15.0697 52.0168 8.65555C52.3268 8.34551 52.6063 8.09647 52.2048 7.61871C49.7906 4.742 51.8338 1.18423 54.3903 0.218549C54.558 0.157558 54.7207 0.0813205 54.8833 0.0101651C55.6 0.0101651 56.3166 0.0101651 57.0332 0.0101651V0ZM65.521 21.1484C65.4956 20.8587 65.2568 20.7011 65.0738 20.5182C61.7854 17.2247 58.4818 13.9363 55.2086 10.6276C54.7664 10.1803 54.5072 10.1956 54.065 10.6377C47.6814 17.0468 41.2876 23.4406 34.8785 29.8243C34.4211 30.2766 34.3499 30.546 34.848 31.039C38.1821 34.3325 41.4909 37.6514 44.7894 40.9754C45.196 41.387 45.4451 41.4175 45.8669 40.9957C52.2709 34.5663 58.6901 28.1572 65.1043 21.738C65.272 21.5703 65.4702 21.4229 65.5109 21.1535L65.521 21.1484ZM88.9007 61.7527C88.9464 60.8785 88.5551 60.1416 87.9147 59.5012C80.2096 51.8011 72.5045 44.1011 64.8146 36.3858C64.3521 35.9233 64.0776 35.9792 63.6659 36.4163C62.7613 37.3668 61.8159 38.2816 60.8858 39.2066C60.3436 39.7522 60.3487 40.3028 60.901 40.8585C68.4333 48.3908 75.9656 55.9282 83.503 63.4605C83.7571 63.7146 84.0062 63.9789 84.2959 64.1822C85.287 64.8734 86.3493 64.9598 87.4166 64.3804C88.4229 63.8366 88.9261 62.9725 88.8956 61.7578L88.9007 61.7527ZM44.21 48.7008C45.1299 48.7008 45.6636 48.284 45.933 47.4759C46.2278 46.5916 45.7652 45.9867 45.196 45.4175C42.5836 42.8 39.9661 40.1825 37.3486 37.565C34.9852 35.2016 32.6168 32.8433 30.2585 30.4748C29.6587 29.8751 29.0081 29.5651 28.1695 29.9513C26.8836 30.546 26.6651 31.9285 27.7629 33.0314C32.7489 38.0478 37.7603 43.0439 42.7615 48.0452C43.1783 48.4619 43.6509 48.7516 44.2049 48.7059L44.21 48.7008ZM64.0115 30.4698C64.0522 29.7735 63.8489 29.1331 63.488 28.5282C63.244 28.1216 63.0052 27.959 62.5986 28.3707C59.2797 31.7048 55.9507 35.0339 52.6165 38.3528C52.1794 38.7848 52.3217 39.0287 52.7741 39.3083C54.2378 40.2079 55.9151 40.0351 57.1959 38.7746C59.1476 36.8534 61.0688 34.8966 63.0154 32.9653C63.7117 32.2741 64.0624 31.4609 64.0166 30.4698H64.0115Z" fill="#0E2B72"/>
<path d="M27.122 91.759C19.7219 91.759 12.3217 91.7691 4.92152 91.759C2.61914 91.759 0.769103 90.2698 0.164282 88.0132C-0.394796 85.9141 0.504804 83.6524 2.38026 82.5139C3.18838 82.0209 4.06261 81.7464 5.01812 81.7972C5.61278 81.8328 5.70933 81.6244 5.57719 81.0603C4.72332 77.4415 6.96978 74.6359 10.7004 74.6309C21.7091 74.6309 32.7179 74.6309 43.7317 74.6309C47.4623 74.6309 49.7139 77.4415 48.8448 81.0603C48.677 81.7617 48.9617 81.782 49.4953 81.8023C52.0874 81.8887 54.1357 83.7286 54.3847 86.153C54.6541 88.7908 53.1039 91.0068 50.5627 91.6523C50.0595 91.7793 49.5563 91.7641 49.0532 91.7641C41.7445 91.7641 34.4307 91.7641 27.122 91.7641V91.759ZM27.122 88.9483C34.2528 88.9483 41.3887 88.9483 48.5195 88.9483C49.0582 88.9483 49.597 88.9331 50.1103 88.7552C50.954 88.4604 51.5284 87.6472 51.5284 86.773C51.5284 85.8988 50.9489 85.0805 50.1103 84.7908C49.5665 84.6028 49.0024 84.5926 48.428 84.5977C39.3557 84.5977 30.2834 84.5977 21.2111 84.5977C20.8807 84.5977 20.5503 84.618 20.2301 84.5723C19.4576 84.4605 19.0713 83.937 19.0612 83.2102C19.051 82.4834 19.4271 81.9497 20.1946 81.8176C20.5147 81.7616 20.8502 81.7871 21.1754 81.7871C28.5146 81.7871 35.8589 81.7871 43.1981 81.7871C43.7063 81.7871 44.2095 81.7921 44.7025 81.6295C45.5818 81.3347 46.207 80.5012 46.2019 79.6067C46.2019 78.6715 45.536 77.843 44.5958 77.5838C44.1282 77.4567 43.6555 77.4364 43.1777 77.4364C32.5248 77.4364 21.8718 77.4364 11.2188 77.4364C10.9799 77.4364 10.741 77.4313 10.5021 77.4517C9.11968 77.5838 8.20483 78.458 8.22008 79.6321C8.23533 80.8519 9.20106 81.7312 10.6242 81.782C11.3967 81.8074 12.1743 81.782 12.9519 81.7921C14.0904 81.8074 14.6292 82.2547 14.6393 83.1797C14.6495 84.1149 14.1056 84.5926 12.9824 84.5977C10.5631 84.6079 8.14897 84.6028 5.72969 84.5977C5.24685 84.5977 4.77416 84.6384 4.31673 84.7959C3.47303 85.0805 2.89868 85.8988 2.8936 86.773C2.8936 87.6523 3.46794 88.4655 4.30656 88.7603C4.81989 88.9382 5.35864 88.9585 5.89739 88.9585C12.9723 88.9585 20.0421 88.9585 27.117 88.9585L27.122 88.9483Z" fill="#0E2B72"/>
<path d="M36.5155 69.51C35.8853 69.4338 35.4329 69.0932 35.2296 68.463C35.0212 67.8125 35.2449 67.2737 35.7735 66.8925C36.5968 66.3029 37.4456 65.7489 38.2842 65.1848C39.936 64.0666 41.5828 62.9383 43.2397 61.8303C44.2054 61.1848 44.9779 61.2712 45.5014 62.0336C46.03 62.8062 45.8216 63.5482 44.861 64.2039C42.4977 65.8099 40.1292 67.4109 37.7557 69.0068C37.3846 69.2559 37.0034 69.4948 36.5104 69.51H36.5155Z" fill="#FFB400"/>
<path d="M19.6193 67.9885C19.6193 69.1372 18.3944 69.8487 17.3932 69.2236C16.1022 68.4205 14.8621 67.5412 13.6016 66.6874C12.3666 65.8539 11.1264 65.0254 9.90152 64.1817C8.96633 63.5362 8.76811 62.8348 9.25603 62.0775C9.7592 61.2897 10.5673 61.1728 11.5076 61.8031C13.9371 63.4295 16.3512 65.0711 18.7705 66.7026C19.233 67.0177 19.599 67.3888 19.6244 67.9885H19.6193Z" fill="#FFB400"/>
<path d="M28.7995 57.8142C28.7995 59.217 28.8096 60.6147 28.7995 62.0175C28.7893 63.0645 28.3065 63.6134 27.4221 63.6286C26.5073 63.6439 25.999 63.0746 25.994 61.9768C25.9838 59.1763 25.9838 56.3759 25.994 53.5754C25.994 52.503 26.5276 51.8982 27.417 51.9083C28.3014 51.9185 28.7944 52.5182 28.7995 53.6161C28.8096 55.0188 28.7995 56.4165 28.7995 57.8193V57.8142Z" fill="#FFB400"/>
</svg>
