<svg width="24" height="25" viewBox="0 0 24 25" fill="none" xmlns="http://www.w3.org/2000/svg">
<path d="M8.68296 3.5H15.317C15.5823 3.5 15.8366 3.60536 16.0241 3.79289L20.7071 8.47585C20.8946 8.66339 21 8.91774 21 9.18296V15.817C21 16.0823 20.8946 16.3366 20.7071 16.5241L16.0241 21.2071C15.8366 21.3946 15.5823 21.5 15.317 21.5H8.68296C8.41774 21.5 8.16339 21.3946 7.97585 21.2071L3.29289 16.5241C3.10536 16.3366 3 16.0822 3 15.817V9.18296C3 8.91775 3.10536 8.66339 3.29289 8.47586L7.97586 3.79289C8.16339 3.60536 8.41775 3.5 8.68296 3.5Z" stroke="#0E2B72" stroke-width="2" stroke-miterlimit="10" stroke-linecap="round" stroke-linejoin="round"/>
<path d="M13.5 16.5C13.5 17.3284 12.8284 18 12 18C11.1716 18 10.5 17.3284 10.5 16.5C10.5 15.6716 11.1716 15 12 15C12.8284 15 13.5 15.6716 13.5 16.5Z" fill="#0E2B72"/>
<path d="M10.5858 8.61441C10.9754 8.22478 11.4858 8.02952 11.9965 8.02863C12.5095 8.02773 13.0228 8.22299 13.4142 8.61441C13.8047 9.00493 14 9.51678 14 10.0286C14 10.5405 13.8047 11.0523 13.4142 11.4428C13.0228 11.8343 12.5095 12.0295 11.9965 12.0286L12 13.0286" stroke="#0E2B72" stroke-width="2" stroke-linecap="round" stroke-linejoin="round"/>
</svg>
