<svg width="17" height="17" viewBox="0 0 17 17" fill="none" xmlns="http://www.w3.org/2000/svg">
<path d="M9.23913 11.8261C9.23913 12.2343 8.90821 12.5652 8.5 12.5652C8.09179 12.5652 7.76087 12.2343 7.76087 11.8261C7.76087 11.4179 8.09179 11.087 8.5 11.087C8.90821 11.087 9.23913 11.4179 9.23913 11.8261Z" fill="#575757"/>
<path d="M7.37896 6.16095C7.46157 5.99574 7.57678 5.84739 7.73921 5.7391C7.89817 5.63312 8.13503 5.54348 8.49999 5.54348C8.78375 5.54348 9.06649 5.63055 9.26452 5.77908C9.44775 5.9165 9.56249 6.10529 9.56249 6.375C9.56249 6.72936 9.40109 6.97383 9.10339 7.25169C9.00152 7.34677 8.90674 7.42579 8.80182 7.51327C8.73496 7.56901 8.66398 7.62819 8.58443 7.69714C8.4027 7.85465 8.19713 8.04738 8.03872 8.28502L7.94564 8.42466V9.6087C7.94564 9.91485 8.19383 10.163 8.49999 10.163C8.80614 10.163 9.05433 9.91485 9.05433 9.6087V8.78087C9.12024 8.70666 9.20448 8.6269 9.31058 8.53494C9.35754 8.49423 9.41384 8.44711 9.47466 8.39621C9.59782 8.29313 9.73964 8.17443 9.85989 8.06219C10.2551 7.69329 10.6712 7.17553 10.6712 6.375C10.6712 5.7208 10.3625 5.21665 9.92974 4.89212C9.51183 4.57869 8.98615 4.43478 8.49999 4.43478C7.94103 4.43478 7.48495 4.57612 7.12421 4.81661C6.76695 5.05479 6.53568 5.36839 6.38731 5.66513C6.2504 5.93897 6.36139 6.27195 6.63523 6.40887C6.90906 6.54578 7.24204 6.43479 7.37896 6.16095Z" fill="#575757"/>
<path fill-rule="evenodd" clip-rule="evenodd" d="M6.92121 0.517302C7.86074 -0.172434 9.13926 -0.172434 10.0788 0.517303L11.0953 1.26358C11.2979 1.41228 11.5334 1.50982 11.7817 1.5479L13.0282 1.73901C14.1803 1.91564 15.0844 2.81969 15.261 3.97175L15.4521 5.21826C15.4902 5.46663 15.5877 5.70212 15.7364 5.90466L16.4827 6.92121C17.1724 7.86074 17.1724 9.13926 16.4827 10.0788L15.7364 11.0953C15.5877 11.2979 15.4902 11.5334 15.4521 11.7817L15.261 13.0282C15.0844 14.1803 14.1803 15.0844 13.0282 15.261L11.7817 15.4521C11.5334 15.4902 11.2979 15.5877 11.0953 15.7364L10.0788 16.4827C9.13926 17.1724 7.86074 17.1724 6.92121 16.4827L5.90466 15.7364C5.70211 15.5877 5.46663 15.4902 5.21826 15.4521L3.97175 15.261C2.81969 15.0844 1.91564 14.1803 1.73901 13.0282L1.5479 11.7817C1.50982 11.5334 1.41228 11.2979 1.26358 11.0953L0.517302 10.0788C-0.172434 9.13926 -0.172434 7.86074 0.517303 6.92121L1.26358 5.90466C1.41228 5.70211 1.50982 5.46663 1.5479 5.21826L1.73901 3.97175C1.91564 2.81969 2.81969 1.91564 3.97175 1.73901L5.21826 1.5479C5.46663 1.50982 5.70211 1.41228 5.90466 1.26358L6.92121 0.517302ZM9.42269 1.41102C8.8736 1.00792 8.1264 1.00792 7.57732 1.41102L6.56077 2.1573C6.21419 2.41173 5.81126 2.57863 5.38628 2.64379L4.13977 2.8349C3.46648 2.93812 2.93812 3.46648 2.8349 4.13977L2.64379 5.38628C2.57863 5.81126 2.41173 6.21419 2.1573 6.56077L1.41102 7.57732C1.00792 8.1264 1.00792 8.8736 1.41102 9.42269L2.1573 10.4392C2.41173 10.7858 2.57863 11.1887 2.64379 11.6137L2.8349 12.8602C2.93812 13.5335 3.46648 14.0619 4.13977 14.1651L5.38628 14.3562C5.81126 14.4214 6.21419 14.5883 6.56077 14.8427L7.57732 15.589C8.1264 15.9921 8.8736 15.9921 9.42269 15.589L10.4392 14.8427C10.7858 14.5883 11.1887 14.4214 11.6137 14.3562L12.8602 14.1651C13.5335 14.0619 14.0619 13.5335 14.1651 12.8602L14.3562 11.6137C14.4214 11.1887 14.5883 10.7858 14.8427 10.4392L15.589 9.42269C15.9921 8.8736 15.9921 8.1264 15.589 7.57732L14.8427 6.56077C14.5883 6.21419 14.4214 5.81125 14.3562 5.38628L14.1651 4.13977C14.0619 3.46648 13.5335 2.93812 12.8602 2.8349L11.6137 2.64379C11.1887 2.57863 10.7858 2.41173 10.4392 2.1573L9.42269 1.41102Z" fill="#575757"/>
</svg>
