<svg width="39" height="38" viewBox="0 0 39 38" fill="none" xmlns="http://www.w3.org/2000/svg">
<path d="M18.924 1.19197C19.0931 0.67164 19.8292 0.67164 19.9983 1.19197L24.1527 13.9779C24.2283 14.2106 24.4451 14.3681 24.6898 14.3681H38.1337C38.6808 14.3681 38.9083 15.0682 38.4657 15.3898L27.5893 23.292C27.3914 23.4358 27.3085 23.6907 27.3842 23.9234L31.5386 36.7093C31.7076 37.2297 31.1121 37.6623 30.6695 37.3408L19.7931 29.4386C19.5952 29.2948 19.3271 29.2948 19.1292 29.4386L8.25281 37.3408C7.81019 37.6623 7.21466 37.2297 7.38372 36.7093L11.5381 23.9234C11.6137 23.6907 11.5309 23.4358 11.333 23.292L0.456594 15.3898C0.0139782 15.0682 0.241454 14.3681 0.788557 14.3681H14.2325C14.4772 14.3681 14.694 14.2106 14.7696 13.9779L18.924 1.19197Z" fill="#FFB400"/>
</svg>
