<svg width="47" height="44" viewBox="0 0 47 44" fill="none" xmlns="http://www.w3.org/2000/svg">
<path d="M21.613 2.19197C21.782 1.67164 22.5182 1.67164 22.6872 2.19197L26.8416 14.9779C26.9172 15.2106 27.1341 15.3681 27.3788 15.3681H40.8227C41.3698 15.3681 41.5973 16.0682 41.1546 16.3898L30.2783 24.292C30.0803 24.4358 29.9975 24.6907 30.0731 24.9234L34.2275 37.7093C34.3966 38.2297 33.801 38.6623 33.3584 38.3408L22.4821 30.4386C22.2841 30.2948 22.0161 30.2948 21.8181 30.4386L10.9418 38.3408C10.4992 38.6623 9.90362 38.2297 10.0727 37.7093L14.2271 24.9234C14.3027 24.6907 14.2199 24.4358 14.0219 24.292L3.14556 16.3898C2.70294 16.0682 2.93042 15.3681 3.47752 15.3681H16.9215C17.1661 15.3681 17.383 15.2106 17.4586 14.9779L21.613 2.19197Z" fill="#FFB400"/>
<rect x="22.1499" y="0.538864" width="24.8497" height="42.9223" fill="white"/>
</svg>
