<svg width="72" height="74" viewBox="0 0 72 74" fill="none" xmlns="http://www.w3.org/2000/svg">
<path d="M71.5706 34.5559C70.5464 36.5748 69.1778 38.3764 67.9682 40.2755C66.0742 43.253 64.0523 46.1461 62.2202 49.159C60.5426 51.919 58.2734 53.796 55.2096 54.7633C53.9646 55.1582 54.0794 55.0118 54.075 56.3696C54.075 57.3325 54.0838 58.291 54.0706 59.2539C54.0662 59.6621 54.1545 59.9816 54.5032 60.2523C55.2096 60.8069 55.5098 61.5923 55.5098 62.4709C55.523 65.861 55.5098 69.2467 55.5186 72.6367C55.5186 73.1914 55.2758 73.5996 54.9094 73.9679H53.9028C53.3024 73.6307 53.1611 73.0849 53.1611 72.4415C53.17 69.2688 53.1655 66.0917 53.1611 62.9191C53.1611 61.9784 53.0684 61.8896 52.1281 61.8896C48.1327 61.8896 44.1374 61.8896 40.1421 61.8896C39.1488 61.8896 39.0295 62.0139 39.0295 63.0123C39.0295 66.1849 39.0207 69.362 39.034 72.5347C39.034 73.1293 38.9148 73.6263 38.3938 73.9679H37.3873C36.8928 73.5819 36.7515 73.0716 36.756 72.4459C36.778 69.1757 36.7736 65.9054 36.756 62.6351C36.756 61.8807 36.9017 61.1974 37.3829 60.6206C37.6566 60.2878 37.6521 59.9195 37.661 59.5378C37.714 57.3059 37.533 55.0651 37.7669 52.8375C38.0274 50.3837 39.0737 48.3071 40.9323 46.7185C43.8858 44.1981 46.8922 41.7443 49.8986 39.286C51.8808 37.662 53.8454 37.7995 55.6069 39.6765C55.9822 40.0803 56.1632 39.8318 56.4148 39.6144C59.1299 37.2582 61.8449 34.902 64.56 32.5458C65.0677 32.1065 65.5665 31.6539 66.0831 31.2323C68.0123 29.6615 70.4007 30.2339 71.4117 32.5058C71.4602 32.6168 71.5132 32.7233 71.5618 32.8342V34.5647L71.5706 34.5559ZM45.8856 59.5201C47.5853 59.5201 49.285 59.5068 50.9802 59.529C51.5365 59.5378 51.7572 59.3382 51.7308 58.7702C51.6954 58.0247 51.7175 57.2793 51.7219 56.5338C51.7219 56.2542 51.6866 56.0146 51.3864 55.8815C50.8743 55.6552 50.5873 55.2425 50.6359 54.6834C50.6889 54.08 51.1215 53.7871 51.6513 53.5919C52.8653 53.1437 54.0662 52.6734 55.2846 52.2385C57.1565 51.5729 58.6177 50.4192 59.7082 48.7375C62.7323 44.0606 65.7873 39.4014 68.8246 34.7289C69.3632 33.8992 69.403 33.2912 68.9571 32.9096C68.5112 32.5236 67.9505 32.6523 67.1868 33.3134C64.0346 36.0468 60.8825 38.7802 57.7392 41.5224C57.0417 42.1303 56.247 42.6628 56.1102 43.7056C56.0881 43.8831 55.9601 44.065 55.8453 44.2114C54.5959 45.7689 53.117 47.1045 51.6822 48.4845C51.3202 48.8307 50.8434 48.8173 50.4107 48.5467C50.0134 48.2982 49.8192 47.921 49.8633 47.4462C49.9031 47.038 50.1724 46.7496 50.4461 46.4789C51.51 45.4051 52.5872 44.3445 53.6379 43.2574C54.2957 42.5741 54.3222 41.691 53.7615 41.0476C53.1964 40.3998 52.2958 40.3066 51.5718 40.9012C48.5168 43.4127 45.4618 45.9242 42.4377 48.4801C41.1486 49.5672 40.354 50.9961 40.1244 52.6822C39.8551 54.6923 40.0803 56.7157 40.0008 58.7347C39.9787 59.3337 40.1906 59.5378 40.7866 59.529C42.4863 59.5023 44.186 59.5201 45.8812 59.5201H45.8856Z" fill="#0E2B72"/>
<path d="M16.7131 73.9624C16.2319 73.5275 16.095 72.9818 16.095 72.3428C16.1127 69.1435 16.1083 65.9442 16.0994 62.7449C16.0994 61.7021 16.3732 60.7925 17.234 60.1447C17.5254 59.9228 17.5475 59.6299 17.5475 59.3104C17.5475 58.1568 17.5254 57.0031 17.5563 55.8494C17.5696 55.3258 17.3532 55.0773 16.8764 54.9086C15.7021 54.496 14.5234 54.0922 13.4506 53.4399C12.0511 52.5924 10.9342 51.4653 10.0424 50.0942C6.91679 45.2797 3.77791 40.4741 0.656688 35.6641C-0.371946 34.08 -0.177693 32.3494 1.1379 31.1647C2.40051 30.0287 4.14434 30.0332 5.57913 31.2623C8.74449 33.9779 11.8922 36.7157 15.0222 39.4757C15.5255 39.9195 15.7772 39.9417 16.254 39.4136C17.6005 37.9182 19.8255 37.7541 21.3839 39.0054C23.1983 40.4608 24.9775 41.9562 26.7655 43.4471C27.3703 43.9485 27.4674 44.6452 27.048 45.1599C26.6286 45.6702 25.9222 45.7323 25.3174 45.2398C23.5692 43.8198 21.8386 42.3733 20.0992 40.94C19.5209 40.4653 18.894 40.3588 18.2362 40.7537C17.6402 41.1087 17.4018 41.6633 17.4901 42.3467C17.5431 42.7726 17.7991 43.0921 18.0905 43.385C19.0573 44.3523 20.0197 45.3197 20.9821 46.2959C21.1676 46.4822 21.353 46.673 21.5075 46.886C21.8916 47.4052 21.8607 47.9377 21.4104 48.3858C20.9645 48.834 20.3817 48.9139 19.9226 48.479C18.4966 47.1256 17.053 45.79 15.8037 44.2636C15.6712 44.0994 15.5299 43.8953 15.499 43.6956C15.3445 42.6307 14.5278 42.0937 13.8126 41.4681C10.7355 38.7968 7.65847 36.1256 4.57698 33.4543C4.32534 33.2369 4.0737 32.9973 3.78674 32.8331C3.40708 32.6157 2.9965 32.6245 2.65215 32.9263C2.3078 33.228 2.22834 33.6185 2.40934 34.04C2.52412 34.3018 2.67423 34.5503 2.83316 34.7899C5.83077 39.4003 8.85486 43.9929 11.8304 48.6166C12.9694 50.387 14.4837 51.6117 16.4659 52.2862C17.6446 52.69 18.7968 53.1559 19.9623 53.5863C20.4877 53.7816 20.9248 54.0744 20.9777 54.6779C21.0263 55.237 20.7438 55.6452 20.2361 55.876C19.98 55.9914 19.8961 56.1866 19.9005 56.4528C19.9005 57.2693 19.9094 58.0902 19.9005 58.9067C19.8917 59.3326 20.0683 59.519 20.4965 59.5146C24.0151 59.5101 27.5292 59.5146 31.0478 59.5146C31.3789 59.5146 31.6128 59.4169 31.6084 59.0265C31.5952 57.0075 31.6791 54.9796 31.5378 52.9695C31.4142 51.2079 30.5533 49.7259 29.2465 48.5234C28.9022 48.2083 28.5843 47.8711 28.6329 47.3608C28.6726 46.926 28.9066 46.5887 29.2995 46.3979C29.7631 46.1716 30.1869 46.2914 30.5666 46.6065C31.7983 47.6226 32.668 48.9006 33.2595 50.3737C33.7496 51.594 33.9482 52.8719 33.9571 54.1809C33.9703 55.9825 33.9571 57.7885 33.9615 59.5944C33.9615 59.905 33.9217 60.229 34.1513 60.4908C34.7561 61.1919 34.8709 62.0172 34.8665 62.9135C34.8444 66.0862 34.8444 69.2633 34.8665 72.436C34.8665 73.0616 34.7296 73.5675 34.2352 73.958H33.2286C32.7077 73.6163 32.5885 73.1193 32.5885 72.5247C32.6017 69.352 32.5973 66.1794 32.5885 63.0023C32.5885 62.0128 32.4472 61.8752 31.4716 61.8752C27.5248 61.8752 23.578 61.8752 19.6312 61.8752C18.5011 61.8752 18.4525 61.924 18.4525 63.0511C18.4525 66.1528 18.4525 69.2544 18.4525 72.3561C18.4525 73.0128 18.351 73.6074 17.7152 73.9624H16.7087H16.7131Z" fill="#0E2B72"/>
<path d="M17.7198 0.0061189C26.3153 -0.127 34.7607 6.87505 34.7916 17.1651C34.8181 26.661 27.3263 34.3818 17.6801 34.3774C7.70716 34.3774 0.528791 26.164 0.568524 17.0853C0.608256 7.65602 8.43118 -0.131437 17.7242 0.00168171L17.7198 0.0061189ZM32.4738 17.174C32.5136 9.32 26.2623 2.29133 17.6756 2.3002C9.25673 2.30908 2.84212 9.07151 2.88185 17.2539C2.92158 25.4806 9.55693 32.0611 17.6889 32.0567C25.865 32.0567 32.4783 25.3963 32.4738 17.1696V17.174Z" fill="#0E2B72"/>
<path d="M53.9825 0.00585938C62.6001 0.0102967 69.8491 6.43994 70.913 15.0261C71.4163 19.0951 70.5643 22.8624 68.4319 26.3456C68.1847 26.7494 67.8978 27.1 67.4033 27.171C66.9618 27.2331 66.6042 27.0467 66.3482 26.6918C66.048 26.2791 66.0524 25.8354 66.3084 25.4049C66.7764 24.6195 67.2267 23.8297 67.5799 22.9822C71.3324 13.899 65.6771 3.86631 56 2.4375C47.8946 1.23943 40.2791 7.11884 39.2814 15.3412C38.3146 23.3372 43.7535 30.6676 51.6162 31.879C55.7087 32.5091 59.4524 31.5595 62.8076 29.1012C63.0415 28.9326 63.2579 28.7418 63.5007 28.5865C64.0967 28.196 64.7059 28.2847 65.0988 28.7906C65.4652 29.2698 65.399 29.962 64.8825 30.4058C63.8803 31.271 62.7722 31.9899 61.5891 32.58C51.0334 37.8427 38.4691 31.0802 36.9593 19.3303C35.7629 10.0075 42.4291 1.33705 51.7001 0.130104C52.4638 0.0324832 53.2232 0.0191713 53.9913 0.00585938H53.9825Z" fill="#0E2B72"/>
<path d="M59.0204 26.3733C58.4553 26.4132 58.0315 26.1292 57.6386 25.7476C56.5614 24.6915 55.4665 23.6488 54.4026 22.5749C54.0582 22.2288 53.8287 22.1978 53.4711 22.5661C52.4513 23.6177 51.405 24.6383 50.3543 25.6589C49.308 26.6794 48.3809 26.6661 47.3655 25.6411C46.6724 24.94 45.9793 24.2434 45.3082 23.529C44.4032 22.5705 44.4164 21.612 45.3435 20.6802C46.3413 19.6774 47.339 18.6746 48.3676 17.7028C48.765 17.3256 48.8179 17.0727 48.3853 16.6689C47.3522 15.706 46.3589 14.6943 45.3612 13.6915C44.412 12.7375 44.3988 11.8367 45.3171 10.8605C45.9925 10.1461 46.668 9.43167 47.3611 8.73058C48.3809 7.69669 49.2991 7.67894 50.3499 8.69064C51.3873 9.68903 52.416 10.6919 53.4137 11.7302C53.811 12.1429 54.0671 12.1251 54.46 11.7258C55.4665 10.6963 56.5128 9.70678 57.5415 8.70839C58.5878 7.69225 59.4884 7.70112 60.5214 8.74389C61.1969 9.42723 61.8679 10.1106 62.5345 10.8028C63.5014 11.8145 63.4969 12.7552 62.4948 13.7536C61.5456 14.7032 60.5788 15.635 59.612 16.5668C58.9762 17.1792 58.9674 17.1703 59.6252 17.8137C60.57 18.7367 61.5236 19.6419 62.4551 20.5782C63.5234 21.652 63.519 22.5439 62.4771 23.631C61.8282 24.3055 61.188 24.9888 60.5347 25.6544C60.1241 26.0715 59.6694 26.4221 59.0248 26.3866L59.0204 26.3733ZM53.9214 19.3712C54.3629 19.3712 54.6763 19.6241 54.9765 19.9126C55.9168 20.8355 56.8704 21.7496 57.8063 22.6726C59.0292 23.8751 59.0072 23.8573 60.1991 22.6637C60.6406 22.2244 60.5788 21.9582 60.1594 21.5632C59.0116 20.4761 57.8991 19.349 56.7777 18.2308C55.9786 17.4321 55.9875 16.9041 56.7954 16.0965C57.6916 15.1957 58.601 14.3083 59.5016 13.4164C60.7201 12.2094 60.7024 12.2272 59.4928 10.9714C59.1308 10.5942 58.9144 10.5499 58.5259 10.9492C57.3958 12.1207 56.2259 13.2611 55.056 14.3926C54.2172 15.2046 53.6653 15.1957 52.8398 14.3837C51.9303 13.4962 51.0474 12.5821 50.1247 11.708C48.5972 10.2703 49.0961 10.3768 47.6436 11.7524C47.2507 12.1251 47.264 12.3603 47.6569 12.7286C48.8444 13.8423 50.0055 14.9872 51.1577 16.1409C51.8685 16.8508 51.8597 17.4942 51.1533 18.2086C50.2748 19.0917 49.3521 19.9347 48.4824 20.8266C46.9858 22.3619 46.8799 21.723 48.4339 23.4402C48.7915 23.8351 49.0166 23.7597 49.3521 23.4225C50.5132 22.2421 51.7008 21.0929 52.8751 19.9259C53.1709 19.633 53.4755 19.3712 53.9214 19.3668V19.3712Z" fill="#0E2B72"/>
<path d="M16.382 24.9264C15.3004 24.9353 14.5764 24.6913 13.9892 24.1543C12.7354 23.0007 11.4861 21.8425 10.2808 20.64C9.51709 19.8812 9.50826 18.945 10.2235 18.1152C10.9122 17.3165 11.645 16.5533 12.4043 15.8211C13.1328 15.12 14.029 15.1821 14.8678 15.8655C15.2651 16.1894 15.5432 16.8949 16.0553 16.7707C16.4968 16.6642 16.8367 16.1051 17.2076 15.7324C18.8013 14.0994 20.3818 12.4576 21.9755 10.8291C23.035 9.74645 23.9224 9.73314 25.0084 10.7803C25.6132 11.3616 26.2136 11.9518 26.8008 12.5508C27.6926 13.4693 27.7102 14.4056 26.8273 15.3463C25.9223 16.3092 24.9952 17.2455 24.0592 18.1773C23.4853 18.7497 22.8319 18.7808 22.3375 18.3104C21.8519 17.8445 21.8695 17.17 22.4125 16.5799C23.0792 15.8566 23.7502 15.1378 24.4566 14.45C24.8318 14.0861 24.8671 13.8332 24.461 13.456C23.3705 12.4488 23.6531 12.4044 22.6156 13.4605C20.9204 15.191 19.2383 16.9393 17.5431 18.6698C16.488 19.7437 15.5918 19.7526 14.4969 18.7142C13.5478 17.8223 13.5698 17.8401 12.6913 18.8163C12.3293 19.2201 12.3602 19.4686 12.7487 19.8147C13.6051 20.5823 14.4174 21.3988 15.2607 22.1842C15.8302 22.7167 16.3997 22.7078 16.9648 22.1487C17.6314 21.492 18.2539 20.7909 18.9161 20.1297C19.5209 19.5262 20.1964 19.4774 20.6908 19.9567C21.1941 20.4448 21.172 21.1104 20.5804 21.7405C19.8608 22.5125 19.1191 23.2669 18.3642 24.0035C17.7373 24.6158 16.9648 24.9043 16.3688 24.9131L16.382 24.9264Z" fill="#FFB400"/>
</svg>
