<svg width="27" height="25" viewBox="0 0 27 25" fill="none" xmlns="http://www.w3.org/2000/svg">
<path d="M14.5963 18.648C14.5963 19.2944 14.0723 19.8185 13.4258 19.8185C12.7793 19.8185 12.2553 19.2944 12.2553 18.648C12.2553 18.0015 12.7793 17.4775 13.4258 17.4775C14.0723 17.4775 14.5963 18.0015 14.5963 18.648Z" fill="#FFB400"/>
<path d="M14.3037 8.9913C14.3037 8.50646 13.9106 8.11343 13.4258 8.11343C12.941 8.11343 12.5479 8.50646 12.5479 8.9913V14.2586C12.5479 14.7434 12.941 15.1365 13.4258 15.1365C13.9106 15.1365 14.3037 14.7434 14.3037 14.2586V8.9913Z" fill="#FFB400"/>
<path fill-rule="evenodd" clip-rule="evenodd" d="M10.8927 1.9613C12.0195 0.0128989 14.8322 0.0128999 15.959 1.9613L26.4542 20.1092C27.5824 22.0601 26.1746 24.5005 23.921 24.5005H2.93063C0.677059 24.5005 -0.730723 22.0601 0.397474 20.1092L10.8927 1.9613ZM14.4391 2.84028C13.9884 2.06092 12.8633 2.06092 12.4126 2.84028L1.91737 20.9882C1.46609 21.7686 2.0292 22.7447 2.93063 22.7447H23.921C24.8225 22.7447 25.3856 21.7686 24.9343 20.9882L14.4391 2.84028Z" fill="#FFB400"/>
</svg>
