<svg width="100" height="100" viewBox="0 0 100 100" fill="none" xmlns="http://www.w3.org/2000/svg">
<path d="M55.3316 26C54.7916 26.0133 54.3583 26.46 54.3516 27C54.3516 27 54.3716 27 54.2516 27.3467C54.1316 27.6933 53.8649 28.2667 53.2849 29.0533C52.1316 30.6333 49.7183 33.0667 44.7783 36.1933C39.5916 39.4733 36.9383 43.4267 35.6116 46.56C34.0049 40.3867 30.0449 35.42 30.0449 35.42C29.8516 35.18 29.5649 35.04 29.2583 35.04C28.7049 35.04 28.2516 35.4933 28.2516 36.0467C28.2516 36.1133 28.2583 36.1867 28.2716 36.2533C29.4116 41.6867 28.7383 43.3933 27.7183 45.5267C26.7049 47.66 25.2383 50.2333 25.2383 56.1267C25.2383 67.8933 30.4249 75.7533 30.4249 75.7533C30.7316 76.2133 31.3583 76.34 31.8116 76.04C32.2716 75.74 32.3983 75.1067 32.0983 74.6533C32.0983 74.6533 27.2449 67.32 27.2449 56.1333C27.2449 50.5533 28.4583 48.6533 29.5316 46.4C30.2583 44.8733 30.8183 43.1133 30.7716 40.4267C32.5449 43.4333 34.5049 47.5133 34.2783 52.0733V52.12C34.2849 52.6667 34.7383 53.1133 35.2849 53.1133C35.8316 53.1133 36.2516 52.7 36.2849 52.1733C36.2849 52.16 36.2849 52.14 36.2849 52.1267C36.2849 52.1267 36.2783 50.1733 37.4649 47.3667C38.6516 44.56 41.0183 40.98 45.8583 37.92C50.9449 34.7 53.5516 32.12 54.9049 30.2667C55.2849 29.74 55.3916 29.42 55.605 29.0133C56.9983 30.6133 61.6316 36.1933 63.4116 44.3133C64.445 49.04 64.1983 52.6533 63.7049 55.0733C63.2116 57.4933 62.5249 58.64 62.5249 58.64C62.4316 58.7933 62.3849 58.9667 62.3849 59.1467C62.3849 59.7 62.8383 60.1533 63.3916 60.1533C63.5983 60.1533 63.7983 60.0867 63.9649 59.9733C63.9649 59.9733 65.705 58.7533 67.485 56.84C68.6116 55.6267 69.7449 54.1067 70.5183 52.3867C71.0316 54.0667 71.6049 56.3333 71.8249 58.8867C72.2783 64.0933 71.3516 70.18 65.7916 74.42C65.3516 74.7533 65.2716 75.3867 65.605 75.8267C65.9383 76.2667 66.5716 76.3467 67.0116 76.02C73.2316 71.28 74.3116 64.3133 73.8249 58.72C73.3383 53.1267 71.3316 48.7133 71.3316 48.7133C71.1716 48.3533 70.8116 48.1267 70.4183 48.1267C69.8983 48.1267 69.4583 48.5333 69.4183 49.06C69.2516 51.3667 67.6516 53.7333 66.0249 55.4867C65.7849 55.74 65.7916 55.6733 65.5583 55.9C65.5983 55.7333 65.6449 55.6667 65.6783 55.4867C66.2183 52.8133 66.4716 48.9 65.3783 43.8933C63.1716 33.82 56.0983 26.36 56.0983 26.36C55.9049 26.1533 55.6249 26.04 55.3383 26.0467L55.3316 26Z" fill="#0E2B72"/>
<path d="M35.2935 51.0938C34.8068 51.0938 34.3868 51.4471 34.3001 51.9271C34.3001 51.9271 33.7735 55.0071 34.5468 60.2738C34.6201 60.7671 35.0468 61.1337 35.5401 61.1337C35.5868 61.1337 35.6401 61.1337 35.6868 61.1204C36.1801 61.0471 36.5468 60.6204 36.5468 60.1271C36.5468 60.0804 36.5468 60.0271 36.5335 59.9804C35.8001 54.9404 36.2735 52.2671 36.2735 52.2671C36.3668 51.7271 36.0001 51.2004 35.4601 51.1071C35.4068 51.1004 35.3468 51.0938 35.2935 51.0938Z" fill="#0E2B72"/>
<path d="M51.4874 58.1199C50.9741 58.1332 50.5474 58.5466 50.5141 59.0599C50.5141 59.0332 50.5208 58.9932 50.5141 59.0132C50.4941 59.0599 50.4408 59.1932 50.2808 59.4066C49.9608 59.8399 49.2274 60.6066 47.6274 61.6199C46.4074 62.3932 45.6608 63.2666 45.0874 64.1132C44.4341 62.5932 43.6008 61.5066 43.6008 61.5066C43.4074 61.2666 43.1208 61.1266 42.8141 61.1266C42.2608 61.1266 41.8074 61.5799 41.8074 62.1332C41.8074 62.1999 41.8141 62.2732 41.8274 62.3399C42.1874 64.0599 42.0141 64.3332 41.6941 65.0066C41.3741 65.6732 40.8008 66.7599 40.8008 68.8266C40.8008 72.9466 42.6408 75.7332 42.6408 75.7332C42.8274 76.0132 43.1408 76.1866 43.4808 76.1866C43.6808 76.1866 43.8674 76.1266 44.0341 76.0199C44.4941 75.7199 44.6208 75.0866 44.3208 74.6332C44.3208 74.6332 42.8141 72.3599 42.8141 68.8332C42.8141 67.2132 43.0941 66.7332 43.4341 66.0466C43.5674 66.5266 43.8408 66.9799 43.8208 67.4399H43.8274L43.8141 67.4866C43.8208 68.0332 44.2741 68.4799 44.8208 68.4799C45.3674 68.4799 45.7874 68.0666 45.8208 67.5399C45.8208 67.5199 45.8141 67.5066 45.8208 67.4932H45.8274C45.8274 67.4932 45.8208 66.9932 46.1674 66.1666C46.5208 65.3399 47.2074 64.2666 48.7074 63.3199C50.2741 62.3266 51.0341 61.5466 51.5808 60.8732C52.2608 61.7866 53.1274 63.1399 53.5474 65.0266C53.8741 66.5132 53.7874 67.6132 53.6408 68.3399C53.4941 69.0599 53.3274 69.3266 53.3274 69.3266C53.2341 69.4799 53.1874 69.6532 53.1874 69.8332C53.1874 70.3866 53.6408 70.8399 54.1941 70.8399C54.4008 70.8399 54.6008 70.7799 54.7674 70.6599C54.7674 70.6599 55.4008 70.2132 56.0474 69.5199C56.1008 69.4599 56.1541 69.3666 56.2141 69.2999C56.2608 69.5532 56.3141 69.5266 56.3408 69.7999C56.4808 71.4066 56.2274 73.1399 54.5874 74.3866C54.1474 74.7199 54.0674 75.3532 54.3941 75.7932C54.5808 76.0399 54.8808 76.1866 55.1941 76.1866C55.4141 76.1866 55.6274 76.1132 55.8008 75.9799C58.0941 74.2332 58.5074 71.6132 58.3341 69.6199C58.1608 67.6266 57.4474 66.0666 57.4474 66.0666C57.2874 65.7066 56.9274 65.4799 56.5341 65.4799C56.1741 65.4799 55.8408 65.6732 55.6674 65.9799C55.6274 65.5266 55.6208 65.1066 55.5074 64.5932C54.7208 61.0066 52.2474 58.4332 52.2474 58.4332C52.0541 58.2266 51.7741 58.1132 51.4874 58.1199Z" fill="#FFB200"/>
<path d="M45.5964 40.5522C45.3764 40.5522 45.1631 40.6189 44.9897 40.7456C40.8497 43.7522 38.8897 47.3189 38.0364 50.2189C37.6097 51.6656 37.4564 52.9456 37.4231 53.9256C37.4097 54.4122 37.4231 54.8256 37.4564 55.1522C37.4897 55.4789 37.4831 55.6456 37.6231 55.9856C37.8297 56.4922 38.4231 56.7456 38.9297 56.5389C39.4364 56.3322 39.6897 55.7389 39.4831 55.2322C39.5564 55.4189 39.4831 55.2056 39.4564 54.9722C39.4364 54.7389 39.4231 54.3989 39.4297 53.9922C39.4564 53.1722 39.5897 52.0589 39.9631 50.7922C40.7097 48.2589 42.3897 45.1122 46.1697 42.3722C46.6164 42.0456 46.7164 41.4189 46.3897 40.9722C46.2031 40.7189 45.9097 40.5656 45.5964 40.5589V40.5522Z" fill="#0E2B72"/>
<path d="M69.6505 60.1274C69.1039 60.1274 68.6572 60.5808 68.6572 61.1341C68.6839 64.5408 67.7439 66.8474 66.8239 68.3141C65.9039 69.7808 65.0705 70.3541 65.0705 70.3541C64.6172 70.6674 64.5105 71.3008 64.8239 71.7541C65.1372 72.2074 65.7705 72.3141 66.2239 72.0008C66.2239 72.0008 67.4239 71.1408 68.5239 69.3874C69.6239 67.6341 70.6905 64.9141 70.6639 61.1341C70.6639 60.5874 70.2105 60.1408 69.6572 60.1408H69.6505V60.1274Z" fill="#0E2B72"/>
</svg>
