<svg width="100" height="100" viewBox="0 0 100 100" fill="none" xmlns="http://www.w3.org/2000/svg">
<path d="M50.0017 21.4598C42.7684 21.4598 36.5817 26.0598 34.3217 32.5398V32.5198C33.5551 34.5998 31.5884 35.9731 29.3684 35.9731C26.2884 35.9731 23.3351 37.1998 21.1617 39.3731C19.0017 41.5331 17.7817 44.4531 17.7617 47.5065V47.5798C17.7617 50.6598 18.9884 53.6131 21.1617 55.7865C23.3351 57.9598 26.2884 59.1865 29.3684 59.1865H42.2684C42.9751 59.1865 43.5551 58.6065 43.5551 57.8998C43.5551 57.1931 42.9751 56.6065 42.2684 56.6065H29.3684C26.9751 56.6065 24.6751 55.6531 22.9817 53.9598C21.2884 52.2665 20.3351 49.9731 20.3351 47.5731V47.5198C20.3484 45.1465 21.3017 42.8731 22.9817 41.1931C24.6751 39.4998 26.9684 38.5465 29.3684 38.5465C32.6551 38.5465 35.6017 36.4931 36.7484 33.4131C36.7484 33.4065 36.7551 33.3931 36.7617 33.3865C38.6617 27.9265 43.8684 24.0398 50.0084 24.0398C56.1484 24.0398 61.3617 27.9331 63.3484 33.3731C64.3951 36.1998 67.0017 38.0798 69.9684 38.3465C70.1751 38.4731 70.4084 38.5398 70.6484 38.5398C73.0417 38.5398 75.3417 39.4931 77.0351 41.1865C78.7151 42.8665 79.6684 45.1398 79.6817 47.5131V47.5665C79.6817 49.9598 78.7284 52.2598 77.0351 53.9531C75.3417 55.6465 73.0484 56.5998 70.6484 56.5998H55.9217C55.2151 56.5998 54.6351 57.1798 54.6351 57.8931C54.6351 58.6065 55.2151 59.1798 55.9217 59.1798H70.6484C73.7284 59.1798 76.6817 57.9531 78.8551 55.7798C81.0284 53.6065 82.2551 50.6531 82.2551 47.5731V47.4998C82.2351 44.4465 81.0151 41.5265 78.8551 39.3665C76.8617 37.3731 74.1884 36.2998 71.3951 36.1131C71.1751 35.9598 70.9151 35.8731 70.6484 35.8731C68.4684 35.8731 66.5284 34.5265 65.7684 32.4798C63.4217 26.0465 57.2351 21.4531 50.0084 21.4531L50.0017 21.4598Z" fill="#0E2B72"/>
<path d="M50.0456 47.5806C48.7656 47.5806 47.6856 48.5806 47.5789 49.8539C47.3789 52.2406 46.9056 57.8939 46.7256 60.1072C46.6789 60.7006 46.8722 61.2872 47.2789 61.7272C47.5656 62.0406 47.9922 62.1206 48.4056 62.2206C48.0322 63.8539 47.3989 66.6406 46.8922 68.8739C46.6789 69.8206 47.1322 70.8072 47.9989 71.2606C48.8589 71.7072 49.9322 71.5139 50.5856 70.7939C52.5989 68.5806 55.5122 65.3739 57.2122 63.5006C57.7922 62.8606 57.9456 61.9272 57.5922 61.1339C57.3589 60.6139 56.9122 60.2806 56.3989 60.0739C57.3456 57.8072 59.1589 53.4539 60.1723 51.0139C60.4923 50.2472 60.4056 49.3739 59.9456 48.6806C59.4856 47.9939 58.7056 47.5806 57.8856 47.5806H50.0456ZM50.1389 50.1606H57.7389C56.6389 52.7939 54.6256 57.6406 53.7723 59.6872C53.5189 60.2939 53.5856 60.9939 53.9522 61.5406C54.1856 61.8939 54.6189 61.9606 54.9989 62.1006C53.5722 63.6672 51.5456 65.9006 49.7656 67.8606C50.2123 65.9072 50.7056 63.7406 50.9789 62.5072C51.1256 61.8539 50.9656 61.1739 50.5589 60.6539C50.2589 60.2806 49.7789 60.1739 49.3189 60.0539C49.5123 57.7539 49.9456 52.5139 50.1456 50.1539L50.1389 50.1606ZM48.8456 59.8339C48.9656 59.8339 49.0923 59.8872 49.1723 59.9806V59.9939C49.0456 59.9739 48.9656 59.8339 48.8389 59.8339H48.8456Z" fill="#FFB200"/>
<path d="M22.89 66.9272C22.3833 66.9339 21.9233 67.2406 21.7233 67.7072L17.8567 76.7339C17.79 76.8939 17.75 77.0672 17.75 77.2406C17.75 77.7539 18.0567 78.2206 18.53 78.4272C18.69 78.4939 18.8633 78.5339 19.0367 78.5339C19.55 78.5339 20.0167 78.2272 20.2233 77.7539L24.09 68.7272C24.1567 68.5672 24.1967 68.3939 24.1967 68.2206C24.1967 67.7072 23.89 67.2406 23.4167 67.0339C23.25 66.9606 23.07 66.9272 22.89 66.9272Z" fill="#0E2B72"/>
<path d="M61.5892 66.9272C61.0825 66.9339 60.6225 67.2406 60.4225 67.7072L56.5559 76.7339C56.4892 76.8939 56.4492 77.0672 56.4492 77.2406C56.4492 77.7539 56.7559 78.2206 57.2292 78.4272C57.3892 78.4939 57.5626 78.5339 57.7359 78.5339C58.2492 78.5339 58.7159 78.2272 58.9226 77.7539L62.7892 68.7272C62.8559 68.5672 62.8959 68.3939 62.8959 68.2206C62.8959 67.7072 62.5892 67.2406 62.1159 67.0339C61.9492 66.9606 61.7692 66.9272 61.5892 66.9272Z" fill="#0E2B72"/>
<path d="M32.5658 66.9272C32.0591 66.9339 31.5991 67.2406 31.3991 67.7072L27.5324 76.7339C27.4658 76.8939 27.4258 77.0672 27.4258 77.2406C27.4258 77.7539 27.7324 78.2206 28.2058 78.4272C28.3658 78.4939 28.5391 78.5339 28.7124 78.5339C29.2258 78.5339 29.6924 78.2272 29.8991 77.7539L33.7658 68.7272C33.8325 68.5672 33.8725 68.3939 33.8725 68.2206C33.8725 67.7072 33.5658 67.2406 33.0924 67.0339C32.9258 66.9606 32.7458 66.9272 32.5658 66.9272Z" fill="#0E2B72"/>
<path d="M71.2611 66.9272C70.7544 66.9339 70.2944 67.2406 70.0944 67.7072L66.2278 76.7339C66.1611 76.8939 66.1211 77.0672 66.1211 77.2406C66.1211 77.7539 66.4278 78.2206 66.9011 78.4272C67.0611 78.4939 67.2344 78.5339 67.4078 78.5339C67.9211 78.5339 68.3878 78.2272 68.5944 77.7539L72.4611 68.7272C72.5278 68.5672 72.5678 68.3939 72.5678 68.2206C72.5678 67.7072 72.2611 67.2406 71.7878 67.0339C71.6211 66.9606 71.4411 66.9272 71.2611 66.9272Z" fill="#0E2B72"/>
<path d="M42.2377 66.9272C41.731 66.9339 41.271 67.2406 41.071 67.7072L37.2043 76.7339C37.1377 76.8939 37.0977 77.0672 37.0977 77.2406C37.0977 77.7539 37.4043 78.2206 37.8777 78.4272C38.0377 78.4939 38.211 78.5339 38.3843 78.5339C38.8977 78.5339 39.3643 78.2272 39.571 77.7539L43.4377 68.7272C43.5043 68.5672 43.5443 68.3939 43.5443 68.2206C43.5443 67.7072 43.2377 67.2406 42.7643 67.0339C42.5977 66.9606 42.4177 66.9272 42.2377 66.9272Z" fill="#0E2B72"/>
<path d="M80.933 66.9272C80.4263 66.9339 79.9663 67.2406 79.7663 67.7072L75.8996 76.7339C75.833 76.8939 75.793 77.0672 75.793 77.2406C75.793 77.7539 76.0996 78.2206 76.573 78.4272C76.733 78.4939 76.9063 78.5339 77.0796 78.5339C77.593 78.5339 78.0596 78.2272 78.2663 77.7539L82.133 68.7272C82.1996 68.5672 82.2396 68.3939 82.2396 68.2206C82.2396 67.7072 81.933 67.2406 81.4596 67.0339C81.293 66.9606 81.113 66.9272 80.933 66.9272Z" fill="#0E2B72"/>
<path d="M25.7807 48.8672C25.7207 48.8672 25.6607 48.8739 25.6007 48.8872C24.9807 48.9939 24.5273 49.5339 24.5273 50.1605C24.5273 50.2339 24.5273 50.3072 24.5473 50.3739C24.5473 50.3739 24.5673 50.4739 24.594 50.6405C25.0407 53.3339 27.3873 55.3205 30.114 55.3205H38.074C38.7807 55.3205 39.3607 54.7405 39.3607 54.0339C39.3607 53.3272 38.7807 52.7472 38.074 52.7472H30.114C28.6273 52.7472 27.3807 51.6872 27.134 50.2205C27.1073 50.0539 27.0873 49.9539 27.0873 49.9539C26.9807 49.3205 26.4207 48.8605 25.7807 48.8805V48.8672Z" fill="#0E2B72"/>
</svg>
