<svg width="79" height="79" viewBox="0 0 79 79" fill="none" xmlns="http://www.w3.org/2000/svg">
<path d="M30.3785 0.890137C32.3499 1.23097 34.3361 1.51747 36.2383 2.17938C45.0922 5.26665 51.0756 11.2485 54.0648 20.125C55.3642 23.9878 55.7051 27.9939 55.1517 32.0691C54.2229 38.9203 51.1843 44.6404 46.0656 49.254C43.2789 51.7634 40.0625 53.5811 36.5002 54.7617C35.4132 55.1223 34.5139 54.7222 34.1829 53.7837C33.8568 52.855 34.2916 51.956 35.3736 51.5756C39.1978 50.2222 42.5724 48.1722 45.3491 45.1986C49.1486 41.1283 51.3572 36.327 51.8463 30.765C52.8543 19.2853 46.026 8.77378 34.9784 5.41483C25.5414 2.54491 17.1568 4.78256 10.1755 11.7771C6.1734 15.7881 3.95004 20.7474 3.52019 26.3687C2.90753 34.3413 5.57556 41.1333 11.5045 46.5669C14.6815 49.4812 18.4217 51.3336 22.6263 52.2573C24.1382 52.5883 25.6847 52.7315 27.2312 52.7859C28.7925 52.8451 29.3705 53.4231 29.3705 54.9939C29.3705 56.8956 29.3755 58.8023 29.3705 60.7041C29.3656 62.0131 28.748 62.6602 27.4337 62.7392C26.9545 62.7688 26.4653 62.7343 25.9861 62.7688C24.8843 62.8528 23.9999 64.5768 24.5483 65.54C24.6521 65.7227 24.82 65.7573 25.0029 65.7573C26.7568 65.7573 28.5059 65.7573 30.2599 65.7623C30.6947 65.7623 30.833 65.5252 30.8231 65.1349C30.8132 64.7002 30.838 64.2705 30.9516 63.8506C31.1591 63.0899 31.8854 62.5367 32.6413 62.5713C33.4418 62.6108 34.1137 63.243 34.2323 64.0581C34.3064 64.5817 34.0297 65.214 34.3954 65.6042C34.7659 65.9994 35.4132 65.703 35.9319 65.8117C36.9498 66.029 37.5723 66.7304 37.4932 67.6443C37.4092 68.5729 36.7126 69.1607 35.6503 69.1805C34.1236 69.2101 34.257 68.9335 34.2521 70.6278C34.2521 71.7194 34.257 72.8111 34.2521 73.9028C34.2274 76.8468 32.1522 78.9066 29.1877 78.9313C28.2984 78.9362 27.4041 78.872 26.5246 78.9461C23.9406 79.1684 21.1046 77.321 21.0848 73.6113C21.0799 72.3912 21.0601 71.1761 21.0897 69.956C21.1046 69.3534 20.8822 69.1212 20.2893 69.1755C19.9879 69.2052 19.6767 69.1953 19.3753 69.1558C18.5551 69.0619 17.9226 68.3753 17.8831 67.5702C17.8485 66.8193 18.397 66.0735 19.1628 65.8907C19.5284 65.8018 19.9187 65.7524 20.2893 65.7672C20.8871 65.7919 21.0897 65.5499 21.0848 64.962C21.0749 63.7864 21.2182 62.6207 21.8902 61.608C22.7004 60.3879 23.8319 59.6025 25.2845 59.3753C25.8082 59.2913 25.9762 59.0888 25.9564 58.5949C25.9317 58.0367 25.9317 57.4785 25.9564 56.9203C25.9811 56.3572 25.7786 56.1053 25.1807 56.0608C22.3496 55.8435 19.6322 55.147 17.0185 54.0405C11.2081 51.5756 6.72184 47.6091 3.60912 42.1261C0.358065 36.3962 -0.679508 30.2562 0.427235 23.7606C1.41046 17.9714 4.03895 13.0021 8.1843 8.88739C12.7298 4.37751 18.2339 1.74469 24.6125 0.993869C24.7607 0.97411 24.909 0.924714 25.0523 0.890137C26.8309 0.890137 28.6097 0.890137 30.3834 0.890137H30.3785ZM27.6709 69.1854C26.8062 69.1854 25.9465 69.1854 25.0819 69.1854C24.7311 69.1854 24.4841 69.2645 24.489 69.6843C24.4989 71.102 24.4544 72.5246 24.5187 73.9423C24.5631 74.8956 25.1363 75.4637 25.9811 75.4933C27.1225 75.5279 28.2638 75.5279 29.4051 75.4933C30.2154 75.4637 30.7737 74.9006 30.7935 74.0707C30.8281 72.653 30.8034 71.2304 30.8182 69.8128C30.8182 69.3583 30.6354 69.1755 30.1808 69.1854C29.3458 69.2052 28.5059 69.1904 27.6709 69.1904V69.1854Z" fill="#0E2B72"/>
<path d="M78.0682 72.1788C77.4358 74.9104 75.9189 76.9603 73.3744 78.1952C72.3813 78.6793 71.324 78.9312 70.2123 78.9312C59.9305 78.9312 49.6536 78.9312 39.3717 78.9312C38.176 78.9312 37.4003 78.2841 37.3756 77.3012C37.3509 76.3676 38.0772 75.6563 39.2037 75.5377C39.5298 75.5031 39.8608 75.518 40.1919 75.518C49.9895 75.518 59.7872 75.518 69.5848 75.518C72.1343 75.518 73.9228 74.2238 74.5651 71.9812C74.7084 71.4823 74.6985 70.9735 74.6985 70.4697C74.6985 55.7249 74.6986 40.9801 74.7183 26.2353C74.7183 25.4845 74.4614 25.3017 73.7499 25.3067C69.9949 25.3363 66.2349 25.3215 62.4799 25.3215C62.2032 25.3215 61.9216 25.3314 61.6449 25.3017C60.8148 25.2128 60.1923 24.5509 60.1429 23.7359C60.0935 22.9554 60.6024 22.2243 61.3831 22.0366C61.7734 21.9428 62.1835 21.9082 62.5886 21.9033C65.4592 21.8934 68.3249 21.8983 71.1955 21.8983C71.4722 21.8983 71.7489 21.8983 72.0206 21.8983C72.0947 21.5525 71.8378 21.4488 71.6945 21.3056C66.1905 15.7929 60.6765 10.2853 55.1724 4.76769C54.8019 4.39228 54.4115 4.24903 53.8928 4.25397C51.9115 4.27372 49.9352 4.26878 47.9539 4.25397C47.5784 4.25397 47.193 4.21445 46.8225 4.13541C46.1703 4.00204 45.7453 3.58218 45.5823 2.94002C45.4094 2.2633 45.6021 1.6903 46.1258 1.23091C46.2592 1.11236 46.3976 1.00369 46.5359 0.89502C49.6832 0.89502 52.8354 0.89502 55.9827 0.89502C56.5411 1.40874 57.1142 1.90764 57.6527 2.44112C64.0906 8.87252 70.5236 15.3039 76.9615 21.7402C77.3567 22.1354 77.7668 22.5108 78.0732 22.9801V72.1788H78.0682Z" fill="#0E2B72"/>
<path d="M19.5089 33.3582C19.4743 31.8714 19.8597 30.4883 20.6354 29.2336C20.9319 28.7545 20.8133 28.4779 20.4575 28.1321C19.4694 27.1788 18.496 26.2205 17.5573 25.2227C17.2015 24.8423 16.9051 24.8225 16.4357 24.9905C12.8931 26.2402 9.51364 23.637 9.78044 19.8879C9.95831 17.3884 12.1965 15.4323 14.825 15.4669C17.33 15.5015 19.4941 17.5465 19.6077 19.9965C19.6275 20.4016 19.7016 20.856 19.5534 21.2018C19.2026 22.0317 19.5978 22.5059 20.1512 23.0245C21.1295 23.9433 22.0732 24.9065 23.007 25.8747C23.343 26.2254 23.6246 26.2649 24.0643 26.0476C26.5891 24.8374 29.1188 24.9016 31.5991 26.1809C31.9746 26.3736 32.2117 26.3884 32.523 26.0723C33.5853 24.9806 34.6575 23.8988 35.7543 22.8418C36.1199 22.491 36.0755 22.1601 35.9668 21.7452C35.2899 19.1914 36.5251 16.6969 38.9016 15.7781C41.3226 14.8396 43.9808 15.8621 45.1369 18.2528C46.0411 20.12 45.799 21.9329 44.4897 23.5234C43.1952 25.0992 41.461 25.6524 39.5044 25.1436C38.7188 24.9411 38.2593 25.0597 37.7356 25.6376C36.8858 26.5761 35.9717 27.4603 35.0478 28.3346C34.6772 28.6853 34.6081 28.957 34.8551 29.4411C36.53 32.7062 36.2435 35.7935 33.9213 38.6634C30.8728 42.4323 24.9784 42.5706 21.7026 38.9499C20.1858 37.2753 19.5139 35.5514 19.5139 33.3533L19.5089 33.3582ZM22.9378 33.378C22.9378 36.0503 25.0525 38.1744 27.7156 38.1645C30.2997 38.1546 32.4687 35.9762 32.4637 33.3928C32.4637 30.7353 30.3342 28.631 27.6514 28.6409C25.0031 28.6508 22.9329 30.7303 22.9329 33.378H22.9378ZM14.6768 18.8999C13.8319 18.8999 13.1995 19.5371 13.1945 20.3769C13.1945 21.2265 13.8121 21.8637 14.657 21.8785C15.5365 21.8934 16.1887 21.2413 16.1739 20.3621C16.164 19.5223 15.5217 18.895 14.6768 18.8999ZM40.6704 21.8785C41.5104 21.8785 42.1774 21.2463 42.2021 20.4213C42.2219 19.5767 41.5301 18.895 40.6606 18.8999C39.8453 18.9049 39.1635 19.5865 39.1635 20.3966C39.1635 21.2067 39.8502 21.8785 40.6704 21.8785Z" fill="#FFB400"/>
<path d="M27.681 49.6295C17.6512 49.6839 8.98005 42.6449 6.92467 32.8397C6.64304 31.4962 6.5393 30.1279 6.47506 28.7645C6.42566 27.6877 7.14207 26.8825 8.11047 26.8332C9.04923 26.7838 9.77552 27.4457 9.85951 28.5472C10.0275 30.6515 10.2301 32.7409 11.0354 34.7217C13.6047 41.0692 18.2392 45.0011 25.0031 46.0434C34.7118 47.5401 43.4077 41.1926 45.1963 31.5604C45.3642 30.6614 45.4137 29.7525 45.4482 28.8386C45.4927 27.7618 45.9621 27.1048 46.7378 26.9023C47.8692 26.6059 48.8376 27.3864 48.8574 28.6312C48.9019 31.5456 48.304 34.3414 47.0985 36.9791C44.1142 43.534 39.0647 47.6092 32.0586 49.2541C31.2977 49.4319 30.5121 49.5554 29.7315 49.6246C29.0497 49.6839 28.3629 49.6394 27.6761 49.6394L27.681 49.6295Z" fill="#0E2B72"/>
</svg>
