<svg width="14" height="14" viewBox="0 0 14 14" fill="none" xmlns="http://www.w3.org/2000/svg">
<g clip-path="url(#clip0_6728_88356)">
<path d="M6.24185 0C6.53816 0.0461843 6.84085 0.0708159 7.13079 0.138553C8.94371 0.560369 10.301 1.56411 11.1071 3.1898C12.0821 5.15725 11.8814 7.0662 10.6579 8.88278C10.6133 8.95052 10.5559 9.01517 10.5049 9.07983C10.454 9.14449 10.403 9.20915 10.3424 9.28612C10.3775 9.32307 10.4093 9.35694 10.4444 9.39389C11.5404 10.4931 12.6365 11.5953 13.7293 12.6945C14.0256 12.9932 14.0798 13.338 13.8855 13.6521C13.6497 14.0308 13.1048 14.117 12.7544 13.8307C12.7002 13.7876 12.6492 13.7383 12.6014 13.689C11.5054 12.5898 10.4093 11.4876 9.31649 10.3884C9.28463 10.3545 9.26233 10.3145 9.24959 10.2991C8.87362 10.49 8.54226 10.6901 8.18541 10.8348C6.58595 11.4876 4.98331 11.4876 3.40616 10.7733C1.75892 10.0251 0.681993 8.78425 0.210441 7.08467C-0.206946 5.57906 0.000154252 4.13503 0.82537 2.79261C1.70157 1.37321 2.98878 0.489554 4.65514 0.123158C4.92596 0.064658 5.20316 0.0400264 5.47717 0C5.73206 0 5.98695 0 6.24185 0ZM5.85314 9.8311C8.22046 9.84957 10.1608 7.97757 10.1799 5.66527C10.1991 3.37761 8.25869 1.49329 5.87544 1.4779C3.50175 1.4625 1.56137 3.32527 1.53907 5.63756C1.51677 7.93138 3.45396 9.81262 5.85314 9.8311Z" fill="#A3A3A3"/>
</g>
<defs>
<clipPath id="clip0_6728_88356">
<rect width="14" height="14" fill="white"/>
</clipPath>
</defs>
</svg>
