<svg width="115" height="100" viewBox="0 0 115 100" fill="none" xmlns="http://www.w3.org/2000/svg">
<path d="M94.8047 0C95.6732 0.696011 95.8269 1.61616 95.8269 2.67787C95.8032 20.9511 95.8091 39.2244 95.8091 57.4976C95.8091 58.5868 96.3566 59.1315 97.4515 59.1315C102.202 59.1315 106.952 59.1315 111.702 59.1315C113.775 59.1315 114.342 59.68 114.342 61.7091C114.342 70.6156 114.36 79.5222 114.337 88.4229C114.319 94.0087 110.349 98.7864 104.884 99.8599C104.281 99.9779 103.655 99.9956 103.04 99.9956C80.2888 100.001 57.5431 100.001 34.7915 99.9956C31.2349 99.9956 28.9072 97.6775 28.9013 94.1444C28.8895 89.2487 28.9013 84.353 28.8835 79.4573C28.8835 78.956 29.1612 78.2954 28.5231 78.0004C27.8555 77.6878 27.5779 78.372 27.2234 78.72C25.1615 80.7255 24.2339 80.9319 21.5694 79.7346C20.9137 79.4396 20.7305 79.9351 20.441 80.2241C17.5343 83.1026 14.6158 85.9692 11.7681 88.9007C10.9765 89.7147 10.492 89.8326 9.65895 88.9361C7.96927 87.1135 7.91614 87.1607 9.70626 85.3734C12.2999 82.784 14.8639 80.1593 17.5048 77.617C18.2964 76.8561 18.2492 76.3843 17.4693 75.6883C16.3527 74.6855 15.2716 73.6238 14.2731 72.5031C13.5346 71.6715 13.0561 71.813 12.3412 72.5444C9.51127 75.4405 6.59863 78.26 3.76871 81.162C3.06566 81.8816 2.63437 81.9288 1.90769 81.1915C0.0525819 79.2981 0.0230739 79.3335 1.86636 77.4755C4.41861 74.8979 6.94721 72.2967 9.52899 69.7486C10.1316 69.1528 10.3148 68.6987 9.8717 67.8788C8.99141 66.239 9.28088 64.6701 10.811 63.2957C11.8509 62.3638 11.9986 61.5321 11.5732 60.1932C7.18357 46.3437 14.2081 31.5034 27.6901 26.0768C28.659 25.6875 28.9131 25.1744 28.9072 24.1893C28.8717 16.9815 28.9071 9.77365 28.8717 2.55991C28.8717 1.52769 29.0785 0.660621 29.8938 0H94.787H94.8047ZM91.9453 47.3524C91.9453 33.326 91.9335 19.2937 91.9689 5.26727C91.9689 4.12298 91.7031 3.74548 90.4978 3.75138C83.1247 3.80447 75.7456 3.78087 68.3724 3.78087C56.9405 3.78087 45.5145 3.78087 34.0826 3.77498C33.3264 3.77498 32.7533 3.76908 32.7592 4.83079C32.7946 11.0359 32.7828 17.241 32.7651 23.4461C32.7651 24.2129 32.9601 24.4312 33.7813 24.3014C36.5344 23.8472 39.3111 23.8472 42.0819 24.207C58.2639 26.2833 69.2291 42.1795 65.5426 58.0756C62.3995 71.642 49.2956 81.6221 33.9762 79.3453C32.8537 79.1801 32.7592 79.5458 32.7651 80.4483C32.7946 84.6479 32.7769 88.8476 32.7769 93.0532C32.7769 95.6779 33.2495 96.1498 35.8786 96.1498C52.8699 96.1498 69.8553 96.1498 86.8467 96.1498C89.0858 96.1498 91.3249 96.138 93.564 96.1498C94.2435 96.1498 94.5507 96.0672 94.0249 95.3476C92.4711 93.2124 91.9158 90.8059 91.9217 88.1693C91.963 74.5676 91.9394 60.96 91.9394 47.3583L91.9453 47.3524ZM38.1 27.8463C37.9877 27.8522 37.6805 27.864 37.3733 27.8935C37.0661 27.923 36.7589 27.982 36.4517 28.0056C29.3976 28.5483 23.6963 31.6567 19.3303 37.1599C15.8978 41.4834 14.2908 46.4971 14.279 51.9708C14.2731 55.1029 14.8698 58.1818 16.1873 61.0661C16.7486 62.293 16.5654 63.2839 15.5788 64.1805C15.0648 64.6465 14.6098 65.1773 14.0958 65.6433C13.6705 66.0326 13.6173 66.3393 14.0604 66.7817C17.1326 69.8194 20.187 72.8688 23.2355 75.936C23.6491 76.3548 23.9563 76.4197 24.3757 75.9596C24.872 75.4169 25.4274 74.9392 25.9236 74.3965C26.798 73.4469 27.7669 73.3112 28.9544 73.8185C33.3618 75.7119 37.9464 76.1719 42.661 75.3108C55.1623 73.0281 63.8292 61.0779 62.0214 48.5792C60.3494 37.0007 50.8671 28.1 38.1 27.8345V27.8463ZM95.815 76.3312C95.815 80.1475 95.8268 83.9637 95.8091 87.78C95.8091 88.6353 95.8918 89.4728 96.0395 90.3045C96.7071 93.9674 100.423 96.5922 104.08 95.9847C107.867 95.3594 110.449 92.1802 110.467 87.9392C110.508 80 110.467 72.0608 110.496 64.1215C110.496 63.2721 110.23 62.9772 109.368 62.9831C105.238 63.0185 101.103 63.0244 96.973 62.9831C96.0336 62.9713 95.7914 63.3134 95.7973 64.1982C95.8327 68.2445 95.815 72.2908 95.815 76.3371V76.3312Z" fill="#0E2B72"/>
<path d="M62.4821 12.8712C68.4256 12.8712 74.3749 12.8712 80.3183 12.8712C82.2325 12.8712 82.8352 13.4611 82.8352 15.3367C82.8352 24.8509 82.8352 34.3709 82.8352 43.885C82.8352 45.7076 82.2207 46.3269 80.4128 46.3328C77.9019 46.3446 75.3911 46.2974 72.8861 46.3505C71.9113 46.3682 71.4977 46.1205 71.5332 45.0647C71.6277 42.027 71.1964 42.5225 74.1091 42.4753C75.3852 42.4576 76.6554 42.4458 77.9315 42.4753C78.6523 42.493 78.9772 42.2806 78.9772 41.4961C78.9595 33.5569 78.9536 25.6236 78.9772 17.6843C78.9772 16.776 78.5046 16.7111 77.8075 16.7111C72.6321 16.7229 67.4626 16.717 62.2872 16.717C57.1886 16.717 52.0959 16.7347 46.9973 16.6993C46.0521 16.6934 45.7271 16.9706 45.7271 17.9379C45.7271 20.7161 46.2175 20.3504 43.1926 20.433C42.1882 20.4566 41.8042 20.1498 41.8633 19.1235C41.9401 17.8554 41.8751 16.5813 41.881 15.3073C41.8928 13.4375 42.4837 12.8535 44.4097 12.8535C50.4299 12.8535 56.456 12.8535 62.4762 12.8535L62.4821 12.8712Z" fill="#0E2B72"/>
<path d="M56.7515 87.0552C52.2379 87.0552 47.7182 87.0316 43.2045 87.0729C42.2061 87.0847 41.8398 86.7957 41.8693 85.7634C41.9638 82.7435 41.5267 83.2035 44.4629 83.1977C53.0295 83.1741 61.5961 83.1917 70.1685 83.1917C71.7046 83.1917 71.7223 83.1976 71.7105 84.7076C71.6869 87.3855 72.0177 87.0316 69.371 87.0434C65.1645 87.0611 60.958 87.0434 56.7515 87.0434V87.0552Z" fill="#0E2B72"/>
<path d="M73.4658 75.9479C70.7659 75.9479 68.066 75.9125 65.366 75.9656C64.3912 75.9833 64.0958 75.6294 64.1195 74.6915C64.1963 71.6361 63.7827 72.108 66.6717 72.0903C71.6107 72.0608 76.5499 72.1139 81.483 72.0608C82.5642 72.049 82.8773 72.4147 82.8477 73.4528C82.7591 76.3254 83.1549 75.9125 80.4077 75.9361C78.0918 75.9597 75.7759 75.9361 73.4658 75.9361V75.9479Z" fill="#0E2B72"/>
<path d="M76.2244 64.8463C74.4107 64.8463 72.597 64.8227 70.7891 64.8581C70.0093 64.8699 69.6784 64.6163 69.6902 63.7964C69.7493 60.4166 69.3121 61.0301 72.3783 60.9947C75.4623 60.9593 78.5463 61.0124 81.6362 60.9711C82.5164 60.9593 82.8768 61.2188 82.8532 62.1508C82.7764 65.3359 83.2017 64.7932 80.2714 64.8404C78.9244 64.864 77.5714 64.8404 76.2244 64.8404V64.8463Z" fill="#FFB400"/>
<path d="M78.9355 87.0495C78.0079 87.0495 77.0863 87.0377 76.1587 87.0495C75.5266 87.0613 75.2548 86.7959 75.2607 86.1589C75.2903 82.5019 74.859 83.2745 78.0079 83.192C79.2782 83.1625 80.5543 83.2156 81.8245 83.1802C82.563 83.1625 82.8584 83.4515 82.8465 84.1947C82.7934 87.6512 83.2365 86.9669 80.0935 87.0495C79.7095 87.0613 79.3254 87.0495 78.9355 87.0495Z" fill="#FFB400"/>
<path d="M38.2479 72.249C26.816 72.2313 17.7709 63.1536 17.7886 51.7107C17.8063 40.3445 26.9401 31.3612 38.4548 31.3789C49.7685 31.3966 58.7664 40.5863 58.7368 52.0941C58.7073 63.2244 49.5144 72.2607 38.2479 72.249ZM38.2125 68.3796C47.8189 68.1142 54.8553 60.9476 54.8021 51.7166C54.743 42.3559 47.5175 35.2896 38.2538 35.3073C28.9074 35.3191 21.6583 42.4974 21.7233 51.9761C21.7824 61.2012 28.9665 68.1319 38.2184 68.3855L38.2125 68.3796Z" fill="#0E2B72"/>
<path d="M38.2711 40.6339C39.2341 40.6339 40.1971 40.6457 41.1601 40.6339C41.8218 40.6221 42.0522 40.8934 41.9104 41.5599C41.0833 45.3526 40.268 49.1512 39.4763 52.9497C39.3109 53.7342 38.791 53.7401 38.1825 53.7519C37.5621 53.7637 37.1663 53.6045 37.0245 52.9202C36.2388 49.1571 35.4412 45.3939 34.6141 41.6425C34.4309 40.8167 34.7559 40.6103 35.4885 40.628C36.416 40.6516 37.3376 40.628 38.2652 40.628L38.2711 40.6339Z" fill="#FFB400"/>
<path d="M38.2175 62.9899C36.5928 62.9722 35.3994 61.7571 35.4053 60.1233C35.4053 58.4422 36.646 57.2508 38.3534 57.2921C39.984 57.3274 41.1361 58.5484 41.1124 60.2C41.0888 61.8043 39.8363 63.0017 38.2175 62.9899Z" fill="#FFB400"/>
</svg>
