<svg width="101" height="100" viewBox="0 0 101 100" fill="none" xmlns="http://www.w3.org/2000/svg">
<path d="M78.9154 29.9059C78.6087 31.3526 78.0754 32.6993 77.1954 33.8993C76.8087 34.4259 76.3954 34.9193 75.9354 35.3726C69.0087 42.3059 62.0754 49.2393 55.142 56.1726C54.502 56.8126 53.862 57.4593 53.1687 58.0459C52.402 58.6926 51.482 59.1259 50.582 59.5393C49.542 60.0193 49.0687 60.5593 49.242 61.8326C49.5954 64.4126 49.7087 67.0193 49.922 69.6126C50.042 71.0859 50.162 72.5593 50.282 74.0326C50.342 74.7459 50.0754 75.2859 49.4287 75.6393C47.7754 76.5459 46.1954 77.5859 44.502 78.4126H44.0554C43.4354 78.1993 43.082 77.7459 42.822 77.1526C41.382 73.9526 39.922 70.7593 38.4554 67.5659C37.962 66.4993 37.9554 66.4993 36.922 67.0659C35.7554 67.7059 34.602 68.3659 33.422 68.9926C32.462 69.5059 31.4087 68.9459 31.3354 67.9126C31.3087 67.5659 31.4554 67.2659 31.6154 66.9726C32.3087 65.7059 32.9887 64.4393 33.702 63.1859C33.902 62.8326 33.8487 62.6526 33.4754 62.5259C33.3687 62.4926 33.2754 62.4326 33.1754 62.3859C29.862 60.8726 26.5554 59.3593 23.242 57.8526C22.7554 57.6326 22.342 57.3526 22.082 56.8726C22.082 56.5793 22.082 56.2793 22.082 55.9859C22.9754 54.4526 23.882 52.9259 24.7487 51.3793C25.182 50.6126 25.7887 50.3659 26.6354 50.4459C29.282 50.6793 31.9354 50.8793 34.5887 51.0993C36.1887 51.2326 37.7954 51.3526 39.3887 51.5126C39.8687 51.5593 40.1954 51.4793 40.4087 50.9993C40.602 50.5459 40.902 50.1326 41.1154 49.6793C41.8954 48.0126 43.082 46.6726 44.382 45.3859C51.3487 38.4659 58.2754 31.4993 65.222 24.5593C66.8087 22.9726 68.6487 21.8659 70.9354 21.6526C71.0087 21.6459 71.0754 21.6059 71.142 21.5859C71.5154 21.5859 71.882 21.5859 72.2554 21.5859C72.382 21.6193 72.502 21.6593 72.6287 21.6793C74.5087 21.9793 76.0687 22.8393 77.302 24.3126C78.1887 25.3659 78.6087 26.6126 78.922 27.9126V29.9126L78.9154 29.9059ZM36.2287 64.2993C36.4354 64.2059 36.5154 64.1793 36.5954 64.1326C41.2287 61.5793 45.862 59.0326 50.4954 56.4726C50.962 56.2126 51.442 55.9793 51.8287 55.5926C54.9354 52.4726 58.0487 49.3593 61.1754 46.2593C61.502 45.9326 61.502 45.7526 61.1754 45.4259C59.162 43.4393 57.1554 41.4393 55.1754 39.4193C54.8154 39.0526 54.6087 39.0659 54.2487 39.4193C51.1487 42.5459 48.0287 45.6526 44.9154 48.7659C44.702 48.9793 44.5287 49.2059 44.382 49.4726C42.2354 53.3793 40.082 57.2793 37.9287 61.1859C37.382 62.1859 36.8354 63.1859 36.2287 64.2993ZM76.1487 28.8993C76.1487 26.6193 74.742 24.8593 72.5154 24.4593C70.5487 24.1059 68.8954 24.8593 67.522 26.1793C65.222 28.3993 62.9954 30.6926 60.722 32.9459C60.462 33.2059 60.4687 33.3659 60.722 33.6193C62.782 35.6593 64.8354 37.7126 66.8754 39.7726C67.162 40.0659 67.342 40.0726 67.6354 39.7726C69.822 37.5659 72.042 35.3926 74.2087 33.1726C75.362 31.9926 76.1287 30.5993 76.1354 28.8859L76.1487 28.8993ZM27.2287 53.2659C27.002 53.1993 26.822 53.3059 26.6954 53.5259C26.322 54.1659 25.9554 54.8059 25.582 55.4393C25.422 55.7126 25.4754 55.8793 25.7687 55.9993C26.1287 56.1459 26.4754 56.3193 26.8287 56.4793C29.482 57.6926 32.1354 58.8993 34.782 60.1259C35.1554 60.2993 35.3487 60.2393 35.522 59.8793C35.722 59.4659 35.9687 59.0726 36.1887 58.6659C36.9087 57.3593 37.6354 56.0459 38.3487 54.7326C38.602 54.2659 38.5487 54.1793 38.002 54.1326C37.742 54.1126 37.482 54.1193 37.2287 54.0926C33.902 53.8193 30.5754 53.5393 27.222 53.2593L27.2287 53.2659ZM47.4554 73.3326C47.4554 73.2926 47.4554 73.2726 47.4487 73.2526C47.162 69.6459 46.8754 66.0393 46.5887 62.4326C46.5487 61.9126 46.442 61.8459 45.9687 62.1059C44.2487 63.0459 42.542 64.0059 40.822 64.9326C40.482 65.1126 40.4287 65.2993 40.582 65.6326C41.9754 68.6526 43.362 71.6726 44.742 74.6993C44.8554 74.9526 44.9687 75.0459 45.2354 74.8859C45.8687 74.5059 46.5154 74.1459 47.1554 73.7793C47.3354 73.6726 47.502 73.5526 47.462 73.3259L47.4554 73.3326ZM58.442 35.3126C58.3954 35.3393 58.3287 35.3659 58.2754 35.4193C57.7887 35.8993 57.3087 36.3859 56.822 36.8659C56.5954 37.0926 56.782 37.2259 56.922 37.3659C59.002 39.4459 61.082 41.5193 63.1487 43.6059C63.4154 43.8726 63.5887 43.8459 63.8287 43.5859C64.2087 43.1793 64.5954 42.7859 65.0087 42.4126C65.2687 42.1726 65.2954 42.0059 65.0287 41.7393C62.9554 39.6859 60.8954 37.6126 58.8287 35.5526C58.7287 35.4526 58.6354 35.3259 58.442 35.3126Z" fill="#0E2B72"/>
<path d="M73.0606 31.4078C73.0606 33.6478 71.314 35.4144 69.114 35.4011C66.894 35.3878 65.1406 33.6344 65.1406 31.4144C65.1406 29.2344 66.9073 27.4544 69.0806 27.4478C71.314 27.4478 73.0606 29.1811 73.0673 31.4011L73.0606 31.4078ZM69.074 30.2411C68.3673 30.2478 67.854 30.7878 67.8806 31.4878C67.9006 32.1211 68.4873 32.6811 69.1206 32.6678C69.7673 32.6544 70.354 32.0544 70.354 31.4078C70.354 30.7411 69.794 30.2278 69.074 30.2344V30.2411Z" fill="#FFB200"/>
</svg>
