<svg width="73" height="74" viewBox="0 0 73 74" fill="none" xmlns="http://www.w3.org/2000/svg">
<path d="M34.8297 73.7556C33.0109 73.5293 31.1876 73.3385 29.404 72.8815C23.89 71.4748 19.1707 68.706 15.2415 64.5837C14.8177 64.14 14.3939 63.9758 13.8023 63.9802C9.8379 63.998 5.86908 63.9891 1.90464 63.9891C0.465435 63.9891 0.0504284 63.6696 0.00628096 62.2009C-0.117332 57.9189 1.5691 53.0867 6.35468 50.8015C6.96833 50.5086 7.12284 50.3577 6.68578 49.7055C4.76096 46.8478 4.90662 43.2137 6.99479 40.4581C7.37005 39.9656 7.59963 39.4553 7.73207 38.8385C9.89971 28.7437 15.6521 21.5508 25.0467 17.331C25.4881 17.1313 25.859 16.8917 26.1813 16.5189C27.104 15.4451 28.2385 14.6375 29.5188 14.0474C30.0574 13.7989 30.2296 13.6214 29.8455 13.0223C26.4196 7.69759 29.8676 0.841964 36.1674 0.580163C39.165 0.455919 41.5843 1.80042 43.1427 4.41399C44.7805 7.15624 44.7496 9.97836 43.1515 12.7517C42.6129 13.6835 42.5909 13.6657 43.5709 14.1716C44.7762 14.7928 45.8489 15.5915 46.7274 16.6254C47.0144 16.9627 47.3809 17.1402 47.7649 17.3176C57.2831 21.6307 63.0841 28.93 65.1413 39.2246C65.2164 39.6062 65.3974 39.9079 65.6225 40.2008C67.9579 43.2847 68.0948 46.6792 66.011 49.9096C65.83 50.1891 65.6049 50.3932 66.0993 50.624C70.2094 52.532 72.227 55.8955 72.7303 60.3017C72.7435 60.4038 72.7877 60.5058 72.8186 60.6035V62.6624C72.4124 63.856 72.2358 63.9847 70.9335 63.9847C66.9735 63.9847 63.0134 63.998 59.0534 63.9714C58.4309 63.9714 57.9894 64.14 57.548 64.6015C53.6056 68.7415 48.8598 71.5059 43.3237 72.8992C41.5666 73.3429 39.7698 73.5249 37.9819 73.7467H34.8297V73.7556ZM62.2276 37.7159C60.1217 30.2257 55.8395 24.6836 49.0894 20.8009C49.4514 22.4028 49.7207 23.7961 49.6853 25.2249C49.6412 26.8889 49.2262 27.3282 47.5486 27.3282C40.1142 27.3326 32.6842 27.3326 25.2498 27.3282C23.581 27.3282 23.1748 26.8845 23.1263 25.2116C23.0821 23.7783 23.3647 22.3939 23.6781 20.9828C18.8749 22.3273 10.7517 32.8393 10.7606 37.6715C11.021 37.6138 11.2727 37.5606 11.5287 37.5029C14.2173 36.9127 16.6013 37.5561 18.6056 39.4154C21.5679 42.1621 22.0226 46.342 19.8196 49.7942C19.6254 50.0959 19.3031 50.3489 19.8991 50.6373C24.8083 53.0201 26.6051 57.1912 26.5168 62.4139C26.4991 63.5409 26.0223 63.9714 24.8966 63.9758C22.9806 63.9802 21.0602 63.9758 19.1442 63.9847C18.9367 63.9847 18.6806 63.8604 18.4731 64.1844C24.5036 69.4426 31.4569 71.8298 39.4078 70.9734C45.1161 70.3566 50.0915 68.0226 54.3076 64.069C52.1576 63.9802 50.0385 63.9847 47.915 63.9758C46.7981 63.9758 46.3566 63.5365 46.3081 62.3961C46.2639 61.3933 46.286 60.3905 46.467 59.4009C47.1557 55.5982 49.0055 52.6208 52.5108 50.8281C53.3761 50.3844 53.3805 50.3932 52.8684 49.5812C49.8045 44.7224 52.6829 38.3415 58.3426 37.3875C59.6229 37.1701 60.8369 37.4053 62.2364 37.707L62.2276 37.7159ZM36.3882 24.7457C39.6992 24.7457 43.0058 24.7412 46.3169 24.7501C46.8158 24.7501 47.1336 24.6658 47.0718 24.0579C46.7054 20.4814 45.0852 17.22 40.9441 15.8533C40.4674 15.698 40.0612 15.7113 39.5888 15.9199C37.6287 16.7896 35.5979 16.9005 33.6245 16.0663C32.7239 15.6847 31.9778 15.738 31.1655 16.124C30.8785 16.2571 30.5828 16.3681 30.3091 16.5189C27.3247 18.1563 26.0753 20.8453 25.7442 24.1023C25.678 24.7501 26.0841 24.7501 26.5433 24.7457C29.8278 24.7412 33.108 24.7457 36.3926 24.7457H36.3882ZM13.2372 61.4022C16.5174 61.4022 19.7976 61.3933 23.0733 61.411C23.6516 61.411 23.9695 61.2779 23.9077 60.6123C23.5545 57.027 21.6915 53.8676 17.8683 52.6119C17.3738 52.4521 16.9368 52.4433 16.4335 52.6651C14.3056 53.6058 12.16 53.6014 10.0366 52.6296C9.62157 52.4388 9.25515 52.4344 8.83134 52.5675C5.33928 53.6547 3.05686 56.4945 2.70368 60.213C2.62716 61.0058 2.99062 61.4022 3.79411 61.4022C6.94182 61.4022 10.0895 61.4022 13.2372 61.4022ZM59.6053 61.4022C60.8944 61.4022 62.179 61.4022 63.4681 61.4022C65.4636 61.4022 67.459 61.4022 69.4589 61.3977C69.8077 61.3977 70.2359 61.4909 70.1874 60.8697C69.9004 57.2755 68.1698 53.8277 63.914 52.5498C63.5388 52.4388 63.2121 52.43 62.8545 52.5941C60.678 53.6058 58.4883 53.6103 56.303 52.6341C55.8881 52.4477 55.5172 52.4388 55.0934 52.5675C51.2526 53.7478 49.2571 56.8894 48.9039 60.6256C48.8377 61.309 49.1997 61.411 49.7559 61.4066C53.0405 61.3933 56.3251 61.4022 59.6053 61.4022ZM41.73 8.59836C41.7344 5.59874 39.3814 3.17154 36.4456 3.14492C33.5053 3.12273 31.0905 5.53219 31.0728 8.50961C31.0551 11.5758 33.3906 13.9764 36.397 13.9764C39.3769 13.9764 41.7212 11.6113 41.73 8.59836ZM54.2237 45.2815C54.2104 48.3166 56.5282 50.7083 59.4905 50.7305C62.4263 50.7482 64.8676 48.3299 64.8853 45.3747C64.9029 42.344 62.5234 39.899 59.5434 39.8946C56.5679 39.8857 54.2325 42.2508 54.2237 45.2815ZM18.5791 45.3436C18.5879 42.3085 16.2702 39.9035 13.3167 39.8946C10.3235 39.8813 7.91309 42.2996 7.91309 45.3125C7.91309 48.2811 10.3235 50.726 13.2505 50.726C16.2304 50.726 18.5658 48.3654 18.5791 45.3392V45.3436Z" fill="#0E2B72"/>
<path d="M42.8684 37.0413H37.6193C38.5419 37.7779 39.2086 38.834 39.4028 40.3027H42.8728V41.9002H39.4381C39.1203 45.1616 36.5421 47.2427 32.4717 47.3669C34.9528 49.9583 37.659 53.2197 40.3299 56.5122H37.275C34.7939 53.5081 32.4717 50.7259 29.4785 47.5266V45.5432H31.2267C34.6614 45.5432 36.5067 44.1055 36.7319 41.8957H29.4785V40.2983H36.6392C36.1933 38.4435 34.5069 37.5161 31.7389 37.5161H29.4785V35.4395H42.8728V37.0369L42.8684 37.0413Z" fill="#FFB400"/>
</svg>
