<svg width="23" height="25" viewBox="0 0 23 25" fill="none" xmlns="http://www.w3.org/2000/svg">
<path fill-rule="evenodd" clip-rule="evenodd" d="M22.095 4.84046C22.095 7.10981 20.2553 8.94947 17.986 8.94947C16.7984 8.94947 15.7284 8.44566 14.9783 7.6401L8.97621 11.1871C9.10905 11.5912 9.18092 12.023 9.18092 12.4715C9.18092 12.92 9.10906 13.3518 8.97621 13.7558L14.9785 17.3026C15.7287 16.4972 16.7985 15.9935 17.986 15.9935C20.2553 15.9935 22.095 17.8332 22.095 20.1025C22.095 22.3719 20.2553 24.2115 17.986 24.2115C15.7166 24.2115 13.8769 22.3719 13.8769 20.1025C13.8769 19.654 13.9488 19.2222 14.0817 18.8182L8.07937 15.2714C7.32922 16.0768 6.25939 16.5805 5.07191 16.5805C2.80256 16.5805 0.962891 14.7408 0.962891 12.4715C0.962891 10.2021 2.80256 8.36247 5.07191 8.36247C6.25938 8.36247 7.32921 8.86619 8.07937 9.67161L14.0816 6.12481L14.0821 6.1262C13.949 5.72173 13.8769 5.28951 13.8769 4.84046C13.8769 2.57111 15.7166 0.731445 17.986 0.731445C20.2553 0.731445 22.095 2.57111 22.095 4.84046ZM20.334 4.84046C20.334 6.13723 19.2827 7.18847 17.986 7.18847C16.6892 7.18847 15.6379 6.13723 15.6379 4.84046C15.6379 3.54369 16.6892 2.49245 17.986 2.49245C19.2827 2.49245 20.334 3.54369 20.334 4.84046ZM5.07191 14.8195C6.36867 14.8195 7.41991 13.7683 7.41991 12.4715C7.41991 11.1747 6.36867 10.1235 5.07191 10.1235C3.77514 10.1235 2.7239 11.1747 2.7239 12.4715C2.7239 13.7683 3.77514 14.8195 5.07191 14.8195ZM20.334 20.1025C20.334 21.3993 19.2827 22.4505 17.986 22.4505C16.6892 22.4505 15.6379 21.3993 15.6379 20.1025C15.6379 18.8057 16.6892 17.7545 17.986 17.7545C19.2827 17.7545 20.334 18.8057 20.334 20.1025Z" fill="#191308"/>
</svg>
