<svg width="119" height="119" viewBox="0 0 119 119" fill="none" xmlns="http://www.w3.org/2000/svg">
<path d="M94.2083 14.875H24.7916C22.0532 14.875 19.8333 17.0949 19.8333 19.8333V50.4007C19.8333 87.0008 50.9426 100.91 58.0611 103.613C59.0042 103.972 59.9956 103.972 60.9388 103.613C68.0572 100.91 99.1666 87.0008 99.1666 50.4007V19.8333C99.1666 17.0949 96.9467 14.875 94.2083 14.875Z" stroke="white" stroke-width="9.91667" stroke-linecap="round" stroke-linejoin="round"/>
<path d="M66.9375 74.375C66.9375 78.4826 63.6076 81.8125 59.5 81.8125C55.3924 81.8125 52.0625 78.4826 52.0625 74.375C52.0625 70.2674 55.3924 66.9375 59.5 66.9375C63.6076 66.9375 66.9375 70.2674 66.9375 74.375Z" fill="white"/>
<path d="M59.5 54.542L59.5 34.7087" stroke="white" stroke-width="9.91667" stroke-linecap="round" stroke-linejoin="round"/>
</svg>
