<svg width="94" height="84" viewBox="0 0 94 84" fill="none" xmlns="http://www.w3.org/2000/svg">
<path d="M93.1533 18.3641V28.3179C92.9044 30.5862 92.1421 32.6422 90.2702 34.0405C89.3472 34.7344 89.145 35.4957 89.145 36.5574C89.1709 51.3222 89.1605 66.0923 89.1605 80.8571C89.1605 83.3326 88.839 83.6433 86.3241 83.6485C86.0026 83.6485 85.6863 83.6485 85.3648 83.6485C67.2523 83.6485 49.145 83.6485 31.0324 83.6485C22.824 83.6485 14.6155 83.6485 6.40703 83.6485C4.29658 83.6485 3.95434 83.3015 3.95434 81.2144C3.95434 66.1907 3.95434 51.172 3.96472 36.1482C3.96472 35.3196 3.77286 34.75 3.06765 34.2062C1.25276 32.8234 0.262356 30.9435 0.11198 28.6441C-0.0954352 25.4281 0.0549339 22.2068 0.0238216 18.9856C0.0238216 18.535 0.127533 18.1052 0.319392 17.6909C2.85504 12.222 5.3907 6.7532 7.92116 1.28435C8.17006 0.745752 8.48119 0.284836 9.01528 0H84.1463C84.753 0.31073 85.0485 0.870043 85.3234 1.45525C87.9316 7.095 90.545 12.7347 93.1585 18.3693L93.1533 18.3641ZM29.902 80.7017C37.12 80.7017 44.3381 80.7017 51.5613 80.7017C53.0547 80.7017 53.0599 80.7017 53.0599 79.2206C53.0599 68.2829 53.0599 57.34 53.0599 46.4023C53.0599 45.957 53.0495 45.5064 53.1066 45.0662C53.2103 44.279 53.6614 43.787 54.4652 43.6834C54.8748 43.6317 55.2948 43.6161 55.7045 43.6161C62.4143 43.6161 69.119 43.6161 75.8289 43.6161C76.3371 43.6161 76.8556 43.6472 77.3482 43.7404C78.0223 43.8647 78.4009 44.3153 78.4475 45.004C78.4735 45.3873 78.4683 45.7705 78.4683 46.1538C78.4683 57.252 78.4683 68.3502 78.4683 79.4536C78.4683 80.6603 78.5098 80.7017 79.7076 80.7017C81.2736 80.7069 82.8396 80.7017 84.4055 80.7017C85.6051 80.7017 86.2049 80.1165 86.2049 78.9461C86.2049 65.6158 86.2049 52.2803 86.2049 38.95C86.2049 38.2146 86.1893 37.4844 86.2049 36.749C86.2204 36.1534 86.0234 35.91 85.37 35.9152C83.0159 35.9359 80.9936 35.0969 79.412 33.3361C78.9194 32.7872 78.6135 32.8442 78.1209 33.3517C74.6985 36.8474 69.7465 36.7956 66.433 33.2326C66.0493 32.8234 65.8522 32.7147 65.4011 33.1808C61.8077 36.8992 57.1097 36.8785 53.4488 33.129C53.0755 32.7458 52.9095 32.7768 52.5621 33.1445C48.979 36.8785 44.1359 36.894 40.6098 33.1756C40.2209 32.7665 40.0446 32.7665 39.6557 33.1756C36.1556 36.8681 31.2969 36.8836 27.7656 33.217C27.3612 32.7975 27.1589 32.7406 26.7337 33.2015C23.3943 36.7904 18.4579 36.8681 15.0511 33.3776C14.517 32.8338 14.211 32.7924 13.6873 33.3776C12.1835 35.0607 10.239 35.9411 7.99894 35.8945C6.89445 35.8686 6.75445 36.257 6.75445 37.1944C6.77519 51.229 6.77001 65.2636 6.77001 79.2931C6.77001 80.2287 7.25916 80.6983 8.23747 80.7017C15.4555 80.7017 22.6736 80.7017 29.8968 80.7017H29.902ZM46.5782 17.1471C60.475 17.1471 74.3666 17.1471 88.2635 17.1471C89.3939 17.1471 89.3939 17.1419 88.922 16.1217C87.0501 12.0667 85.1626 8.02201 83.3218 3.95663C82.9692 3.18498 82.5181 2.86389 81.6521 2.86389C58.2712 2.88461 34.8903 2.88461 11.5094 2.86389C10.6435 2.86389 10.1872 3.1798 9.83975 3.95145C8.00931 7.99094 6.13739 12.0097 4.27584 16.0337C3.93361 16.776 4.17213 17.1471 4.99142 17.1471C18.8519 17.1471 32.7177 17.1471 46.5782 17.1471ZM75.6423 63.6168C75.6423 58.3603 75.6423 53.0986 75.6423 47.842C75.6423 46.5888 75.6111 46.5525 74.3511 46.5525C68.6679 46.5525 62.9899 46.5525 57.3067 46.5525C56.0622 46.5525 56.0104 46.5991 56.0104 47.8472C56.0104 58.3654 56.0104 68.8836 56.0104 79.4019C56.0104 80.6448 56.0571 80.6862 57.3119 80.6862C62.9951 80.6862 68.6731 80.6862 74.3563 80.6862C75.6163 80.6862 75.6423 80.6603 75.6423 79.3967C75.6423 74.1402 75.6423 68.8785 75.6423 63.6219V63.6168ZM20.812 20.1198C19.4431 20.1198 18.069 20.1301 16.7 20.1198C16.0518 20.1146 15.7822 20.3839 15.7874 21.0364C15.8029 23.4239 15.7407 25.8165 15.8133 28.1987C15.8963 30.9694 18.1156 33.0513 20.8431 33.0409C23.4929 33.0306 25.7226 30.9539 25.79 28.323C25.8522 25.9045 25.79 23.4808 25.8159 21.0623C25.8211 20.3528 25.51 20.099 24.8359 20.1094C23.498 20.1301 22.155 20.1146 20.8172 20.1146L20.812 20.1198ZM72.3547 20.1198C71.048 20.1198 69.7413 20.1508 68.4346 20.1094C67.5945 20.0835 67.3197 20.4201 67.3353 21.2384C67.3716 23.4653 67.3353 25.6974 67.3508 27.9243C67.3612 30.783 69.4665 32.9995 72.194 33.0409C75.0615 33.0876 77.3016 30.9383 77.3534 28.0278C77.3949 25.7336 77.3379 23.4446 77.3742 21.1503C77.3845 20.3373 77.0319 20.0939 76.28 20.1094C74.9733 20.1405 73.6666 20.1198 72.3599 20.1198H72.3547ZM8.04561 20.1198C6.70778 20.1198 5.36477 20.1508 4.02694 20.1094C3.18691 20.0835 2.91209 20.4253 2.92246 21.2436C2.95875 23.4394 2.92246 25.6404 2.93801 27.8362C2.95357 30.7882 5.02772 33.0047 7.78634 33.0461C10.6642 33.0876 12.8576 30.9953 12.9406 28.0227C13.008 25.6974 12.9406 23.3721 12.9665 21.0468C12.9717 20.3166 12.6243 20.1042 11.9658 20.1146C10.659 20.1353 9.35232 20.1198 8.04561 20.1146V20.1198ZM85.1834 20.1198C83.8144 20.1198 82.4403 20.1249 81.0714 20.1198C80.4854 20.1198 80.1846 20.3476 80.1898 20.9691C80.2054 23.3565 80.1276 25.7492 80.2158 28.1314C80.3246 31.0212 82.4973 33.0565 85.2871 33.0409C87.8849 33.0254 90.1095 30.9746 90.1924 28.3852C90.2702 25.9356 90.2028 23.4808 90.2235 21.0312C90.2235 20.3787 89.9435 20.1094 89.3006 20.1198C87.9316 20.1353 86.5575 20.1198 85.1885 20.1249L85.1834 20.1198ZM59.4327 20.1198C58.1571 20.1198 56.8763 20.1508 55.6007 20.1094C54.7711 20.0835 54.4703 20.3994 54.4859 21.228C54.5222 23.5844 54.4807 25.9459 54.5066 28.3023C54.5377 30.8762 56.7156 32.9995 59.3135 33.0409C62.041 33.0824 64.2811 31.1196 64.3692 28.4836C64.4522 26.034 64.3848 23.574 64.4055 21.1245C64.4107 20.3839 64.0788 20.1042 63.3581 20.1198C62.0514 20.1457 60.7395 20.1249 59.4327 20.1249V20.1198ZM38.6549 24.8014C38.6549 23.5896 38.6342 22.3777 38.6653 21.1711C38.686 20.4616 38.4527 20.1094 37.6852 20.1146C35.0355 20.1353 32.3858 20.1301 29.7361 20.1146C29.0516 20.1146 28.7456 20.3994 28.7508 21.083C28.7664 23.5378 28.7042 25.9926 28.7819 28.4421C28.8649 31.1196 31.1257 33.0979 33.8999 33.0358C36.4771 32.9788 38.6186 30.8244 38.6549 28.235C38.6705 27.0905 38.6549 25.9408 38.6549 24.7911V24.8014ZM46.6767 20.1249C45.3078 20.1249 43.9336 20.1353 42.5647 20.1249C41.9217 20.1198 41.6417 20.3942 41.6469 21.0416C41.6624 23.5896 41.6002 26.1376 41.678 28.6855C41.7454 31.0471 44.0322 33.0358 46.5367 33.0513C49.1035 33.0668 51.4161 31.0885 51.4887 28.6855C51.5665 26.1376 51.5043 23.5896 51.5198 21.0416C51.5198 20.3942 51.245 20.1146 50.602 20.1249C49.2953 20.1405 47.9886 20.1249 46.6767 20.1249Z" fill="#0E2B72"/>
<path d="M30.0374 42.9893C35.3057 42.9893 40.5741 42.9893 45.8424 42.9893C47.5795 42.9893 47.9892 43.3984 47.9892 45.1281C47.9892 53.4816 47.9892 61.835 47.9892 70.1885C47.9892 71.9389 47.5484 72.3791 45.7698 72.3791C35.2642 72.3791 24.7587 72.3791 14.2531 72.3791C12.4278 72.3791 12.0078 71.9493 12.0078 70.116C12.0078 61.8247 12.0078 53.5385 12.0078 45.2472C12.0078 43.3466 12.3708 42.9893 14.3257 42.9893C19.5629 42.9893 24.8002 42.9893 30.0374 42.9893ZM29.9544 69.4375C34.5487 69.4375 39.1481 69.4375 43.7423 69.4375C45.1631 69.4375 45.1632 69.4324 45.1632 67.9823C45.1632 61.0686 45.1632 54.1496 45.1632 47.2359C45.1632 45.9982 45.0854 45.9101 43.8772 45.9101C34.6213 45.9101 25.3654 45.9101 16.1095 45.9101C14.9064 45.9101 14.8339 45.9982 14.8339 47.2411C14.8339 54.2221 14.8339 61.198 14.8339 68.1791C14.8339 69.3754 14.8857 69.4375 16.068 69.4375C20.6933 69.4427 25.3239 69.4375 29.9492 69.4375H29.9544Z" fill="#FFB400"/>
</svg>
