<svg width="67" height="92" viewBox="0 0 67 92" fill="none" xmlns="http://www.w3.org/2000/svg">
<path d="M1.26572 91.2088C0.347775 90.5083 0.0811079 89.5316 0.0913643 88.4424C0.147775 81.5444 -0.252225 74.6311 0.281108 67.7484C0.9888 58.6312 8.07085 51.227 16.6606 49.4884C20.3221 48.747 20.5683 48.9055 21.876 52.3673C23.4298 56.4989 24.9939 60.6254 26.5683 64.7468C26.6862 65.0588 26.676 65.4729 27.2247 65.6621C27.5734 63.7548 27.9221 61.8833 28.2657 60.0067C28.3632 59.4596 28.1273 58.9942 27.8708 58.5289C26.8093 56.5961 25.758 54.653 24.7016 52.715C23.517 50.5418 24.358 49.0384 26.8042 49.0231C31.0298 48.9975 35.2555 48.9975 39.4811 49.0231C41.917 49.0384 42.7683 50.5571 41.5939 52.7201C40.5375 54.6581 39.4914 56.6012 38.4247 58.534C38.1683 58.9994 37.9324 59.4647 38.0298 60.0118C38.3683 61.8884 38.717 63.76 39.0709 65.6673C39.6196 65.4781 39.6093 65.0588 39.7273 64.7468C41.3939 60.3595 43.0503 55.9671 44.7067 51.5747C45.5888 49.2225 46.0914 48.9208 48.5734 49.2788C57.1273 50.5162 64.3221 57.5369 65.8247 66.0814C66.117 67.7484 66.1785 69.4359 66.1939 71.1131C66.2452 76.7276 66.2144 82.3472 66.2144 87.9618C66.2144 89.189 66.1273 90.3804 65.0298 91.2088H1.26572ZM17.4555 87.2715C21.3991 87.2715 25.3426 87.2715 29.2862 87.2715C30.7324 87.2715 30.7324 87.2663 30.2144 85.8653C30.117 85.6045 30.0144 85.3386 29.917 85.0778C26.0914 75.0299 22.2606 64.9821 18.4401 54.9342C17.8401 53.3593 17.8503 53.3541 16.1734 53.8604C9.24521 55.9364 4.32726 62.4305 4.2606 69.712C4.20931 75.1271 4.27598 80.5473 4.2247 85.9624C4.21444 87.0618 4.60418 87.3124 5.62983 87.297C9.57341 87.2459 13.517 87.2766 17.4606 87.2766L17.4555 87.2715ZM48.8042 87.2715C52.8298 87.2715 56.8503 87.2715 60.876 87.2715C61.5375 87.2715 62.0708 87.2459 62.0555 86.3459C61.9221 80.0513 62.3529 73.7465 61.8144 67.4621C61.2862 61.2748 55.5324 54.9342 49.4606 53.6661C48.6503 53.4973 48.3016 53.7019 48.0247 54.4382C44.0298 64.9821 40.0247 75.5157 35.9939 86.0442C35.6247 87.0056 35.7888 87.297 36.8555 87.2817C40.8401 87.2357 44.8247 87.2612 48.8042 87.2612V87.2715ZM32.9734 81.5751C33.0862 81.5598 33.1939 81.5444 33.3067 81.5291C34.1683 79.2894 35.0144 77.0395 35.8965 74.8101C36.235 73.9561 36.276 73.1226 36.1016 72.2227C35.3221 68.2547 34.5991 64.2713 33.8144 60.3033C33.6196 59.3062 33.7221 58.4215 34.2503 57.542C34.8709 56.5142 35.3837 55.42 35.9888 54.3768C36.4555 53.574 36.4555 53.1445 35.3375 53.1803C33.8503 53.2263 32.3632 53.211 30.876 53.1803C30.0298 53.165 29.7375 53.4002 30.2196 54.2183C30.7478 55.1183 31.1683 56.0796 31.7324 56.954C32.5478 58.217 32.6606 59.48 32.3375 60.9527C31.5888 64.3531 30.9888 67.7893 30.3683 71.2204C30.2144 72.0795 29.8042 72.9743 30.1016 73.8283C31.0093 76.4259 32.0042 78.9877 32.9683 81.5649L32.9734 81.5751Z" fill="#0E2B72"/>
<path d="M63.7113 29.8374C63.7369 36.8377 61.9267 42.5289 58.4344 47.7037C58.2036 48.0412 57.9677 48.3787 57.7113 48.6957C56.9472 49.6468 55.8139 49.882 54.9575 49.2735C54.06 48.6395 53.8908 47.5554 54.6036 46.5072C55.6754 44.9373 56.7062 43.3471 57.4908 41.6034C64.778 25.4041 54.819 6.99066 37.2446 4.17828C22.7985 1.8619 8.9113 11.9251 6.73694 26.2683C5.64976 33.4475 7.16258 40.0131 11.3164 45.9754C11.3369 46.0061 11.3626 46.0367 11.3831 46.0674C12.3677 47.4889 12.3369 48.5832 11.301 49.2889C10.3062 49.969 9.19335 49.6008 8.21899 48.2253C-4.31947 30.5482 4.85489 5.76855 26.4446 0.777852C43.4139 -3.14414 60.3164 8.18209 63.2805 25.3632C63.578 27.0915 63.7523 28.825 63.7164 29.8374H63.7113Z" fill="#FFB400"/>
<path d="M33.1423 47.6883C23.2346 47.6883 15.1936 39.6449 15.209 29.7504C15.2244 19.948 23.3013 11.9199 33.1475 11.9199C43.0398 11.9199 51.1013 19.9838 51.0859 29.8731C51.0705 39.6756 42.9987 47.6883 33.1475 47.6883H33.1423ZM33.1475 43.5157C40.8193 43.5157 46.8705 37.5024 46.8911 29.868C46.9116 22.1774 40.8449 16.1027 33.1372 16.1078C25.4757 16.1078 19.4193 22.1314 19.3988 29.7606C19.3782 37.4717 25.4193 43.5209 33.1475 43.5209V43.5157Z" fill="#0E2B72"/>
</svg>
