<svg width="92" height="92" viewBox="0 0 92 92" fill="none" xmlns="http://www.w3.org/2000/svg">
<path d="M91.759 59.2287C91.2103 61.4224 89.8256 62.9564 88.0359 64.2961C80.7333 69.7828 73.4872 75.3462 66.2205 80.879C61.8103 84.2385 56.8154 85.885 51.282 85.7521C47.1231 85.6549 43.2359 84.4993 39.6923 82.3056C37.4974 80.9454 35.2205 79.8154 32.6308 79.4268C29.7692 78.9972 27.0308 79.5035 24.359 80.5057C24 80.6386 24.0103 80.925 24.041 81.2062C24.1077 81.8301 24.2 82.4539 24.2872 83.0828C24.4615 84.3663 23.8256 85.1333 22.5077 85.1998C21.1795 85.2663 19.8513 85.1691 18.5282 85.3276C17.9641 85.3941 17.7846 85.568 17.8667 86.1662C18.0256 87.3321 17.5744 87.9662 16.4205 88.2167C11.6923 89.2343 6.96411 90.2365 2.22565 91.2132C0.764109 91.5149 0 90.8501 0 89.3366C0 77.3456 0 65.3597 0 53.3688C0 51.9933 0.502564 51.4512 1.86667 51.4461C4.87179 51.4257 7.87693 51.441 10.8872 51.441C11.8256 51.441 12.5692 51.758 12.8513 52.7398C12.9949 53.2409 13.3539 53.3227 13.8051 53.3074C15.1026 53.2512 16.3949 53.1949 17.6923 53.1642C18.9641 53.1335 19.4205 53.4761 19.6667 54.7085C19.8103 55.4244 20.0051 55.6033 20.7026 55.184C24.3795 52.9955 28.4 52.0137 32.6564 52.029C34.8461 52.0342 36.9846 52.4586 39.1128 52.9699C46.4872 54.7545 53.8667 56.5135 61.2461 58.2725C64.6718 59.0907 66.9026 61.5349 66.959 64.5723C67.0359 68.7857 63.5077 71.91 59.318 71.3527C55.1846 70.8004 51.0513 70.2533 46.918 69.7061C46.6974 69.6755 46.4769 69.6601 46.2667 69.5988C45.3385 69.338 44.882 68.6374 45.0462 67.7528C45.2 66.9244 45.8462 66.4745 46.8205 66.5972C49.359 66.9142 51.8974 67.2619 54.4308 67.5943C56.2769 67.8346 58.1231 68.1159 59.9795 68.2744C61.9026 68.4329 63.2974 67.3795 63.6103 65.6921C63.9641 63.7746 63.0974 62.1843 61.2051 61.6423C58.959 60.998 56.6718 60.4918 54.3949 59.9497C48.1231 58.4464 41.8718 56.8459 35.5744 55.4806C30.4564 54.371 25.6564 55.3937 21.282 58.3339C20.5385 58.835 20.3795 59.3668 20.5231 60.2412C21.4205 65.5847 22.2513 70.9436 23.1026 76.2973C23.2718 77.3763 23.3179 77.4121 24.3385 77.0439C29.8718 75.0343 35.1077 75.7349 40.0308 78.8438C42.682 80.5159 45.441 81.8607 48.5744 82.3107C54.2974 83.1289 59.5231 81.9119 64.1385 78.3938C71.7538 72.585 79.3436 66.7455 86.9436 60.9213C88.1333 60.006 88.7949 58.8043 88.5846 57.3112C88.1436 54.1767 84.4513 52.6836 81.8718 54.5858C79.1744 56.5698 76.5179 58.6151 73.8461 60.6349C73.6205 60.8088 73.3949 60.9826 73.159 61.1361C72.3641 61.6525 71.441 61.5605 70.9436 60.9264C70.4256 60.2719 70.6051 59.2952 71.3846 58.6765C71.8308 58.3237 72.3128 58.0169 72.7692 57.6794C79.0359 52.9801 82.7282 46.6906 84.1282 39.0665C87.1641 22.4786 76.0051 7.47071 61.0256 3.9629C50.7692 1.55959 41.4923 3.84529 33.4974 10.7331C27.7641 15.6726 24.4615 22.0133 23.359 29.4738C22.9641 32.1327 22.9692 34.8173 23.3282 37.4916C23.3487 37.6399 23.4205 37.7831 23.5282 38.1154C24.3128 37.0518 25.0205 36.1059 25.7179 35.1548C25.9846 34.7968 26.241 34.4133 26.6923 34.2906C27.2974 34.1219 27.9026 34.1423 28.3538 34.6639C28.8513 35.2315 28.8923 35.8809 28.4923 36.4996C27.8872 37.4251 27.2359 38.3149 26.5949 39.2148C25.7744 40.3756 24.959 41.5414 24.1179 42.6817C23.3846 43.6788 22.6051 43.8425 21.5897 43.1419C19.559 41.746 17.5539 40.3091 15.559 38.862C14.7487 38.2739 14.5641 37.3229 15.0513 36.6274C15.5333 35.9422 16.4667 35.8297 17.3333 36.4127C18.3487 37.0876 19.3282 37.8137 20.4667 38.6166C20.3333 36.8269 20.1436 35.2366 20.1538 33.6361C20.2205 17.1964 32.2718 3.11407 48.5487 0.485775C49.8564 0.276125 51.1795 0.158516 52.4923 0C53.5692 0 54.6461 0 55.7179 0C56.2923 0.235217 56.9077 0.107382 57.5026 0.173856C66.1282 1.16075 73.4872 4.75548 79.1487 11.316C88.1692 21.7627 90.0205 33.5798 85.2205 46.4605C84.6769 47.923 83.9179 49.3087 83.2051 50.853C84.6718 50.6535 86.0103 50.7865 87.2821 51.3029C89.7744 52.3154 91.0923 54.3147 91.7949 56.7999V59.2594L91.759 59.2287ZM3.08206 71.2504C3.08206 76.3587 3.08206 81.467 3.08206 86.5753C3.08206 87.7667 3.10257 87.7872 4.2359 87.5571C7.39488 86.9179 10.5487 86.2583 13.7077 85.6293C14.4359 85.4862 14.6821 85.2203 14.5385 84.4174C14.0718 81.784 13.7077 79.1302 13.3026 76.4814C12.2359 69.5067 11.159 62.5371 10.1231 55.5573C10.0154 54.8414 9.70257 54.688 9.0718 54.7034C7.52308 54.7289 5.97436 54.7085 4.42052 54.7136C3.09231 54.7136 3.08206 54.7187 3.08206 56.0124C3.08206 61.09 3.08206 66.1677 3.08206 71.2453V71.2504ZM18.9744 82.0755C18.9744 82.0755 18.9744 82.0602 18.9744 82.0499C19.3231 82.0499 19.6718 82.0551 20.0154 82.0499C20.7026 82.0346 20.9436 81.7329 20.8308 81.017C19.6256 73.5565 18.4462 66.091 17.2513 58.6254C16.841 56.0738 16.8359 56.0993 14.3692 56.3703C13.6564 56.447 13.5282 56.7692 13.6256 57.3623C13.7436 58.0782 13.8564 58.7941 13.9641 59.51C15.0205 66.6125 16.1026 73.7099 17.1026 80.8176C17.2564 81.9119 17.7026 82.2289 18.6923 82.0704C18.7846 82.055 18.882 82.0704 18.9744 82.0704V82.0755Z" fill="#0E2B72"/>
<path d="M54.3545 53.2365C50.0366 53.2109 45.8366 52.6484 42.0417 50.3985C37.7494 47.852 35.9596 43.8636 36.9853 38.9802C38.3289 32.5578 41.2263 26.9381 45.8878 22.2645C46.7186 21.431 47.6212 20.6793 48.6366 20.1066C49.3904 19.6822 49.5391 19.4419 48.816 18.7464C46.4725 16.471 44.9391 13.7097 44.3443 10.4729C44.1084 9.19457 44.4827 8.49403 45.693 8.00825C47.7289 7.19011 49.7801 7.36908 51.8263 7.98269C52.8571 8.28949 53.8725 8.66277 54.8212 9.16389C56.8981 10.2633 58.9391 10.2019 60.9699 9.05139C61.3802 8.81617 61.8058 8.60652 62.2263 8.38665C63.4776 7.74747 64.6314 8.41733 64.6366 9.81841C64.6366 10.836 64.334 11.8126 63.9802 12.7586C63.093 15.1312 61.7494 17.2073 59.9135 18.9612C59.6058 19.2578 59.2468 19.4623 59.8827 19.8458C63.2263 21.8503 65.6007 24.7854 67.5596 28.0682C69.7596 31.755 71.3596 35.6821 71.9494 39.9671C72.4571 43.6641 71.3186 46.768 68.4571 49.1713C65.5699 51.595 62.0776 52.5513 58.4212 53.0268C57.0725 53.2007 55.7135 53.2876 54.3494 53.2365H54.3545ZM54.375 50.3167C57.9853 50.3013 61.5032 49.8565 64.7596 48.1486C68.175 46.3589 69.5289 43.5107 68.8109 39.7268C67.9186 35.048 65.8981 30.8755 63.093 27.0711C61.7186 25.2047 60.0981 23.5633 58.0263 22.4383C55.6519 21.1497 53.2622 21.1395 50.8673 22.3821C49.8519 22.9088 48.9186 23.5684 48.1084 24.3712C43.8827 28.5642 41.2366 33.6418 40.0417 39.42C39.1032 43.9607 40.7955 46.8293 45.1135 48.6497C48.0776 49.8974 51.1904 50.3218 54.3802 50.3167H54.375ZM60.9032 12.7331C59.1955 13.2853 57.6776 13.4489 56.134 13.0603C55.0519 12.7893 54.0519 12.3342 53.0571 11.8484C51.5083 11.0968 49.9032 10.5445 48.1443 10.6314C47.6417 10.657 47.3391 10.79 47.5442 11.378C48.4622 13.9961 49.8468 16.2869 52.2109 17.8618C53.7442 18.8845 55.3032 18.8231 56.8212 17.8056C58.6366 16.5937 59.8007 14.85 60.9084 12.7279L60.9032 12.7331Z" fill="#0E2B72"/>
</svg>
