<svg width="90" height="94" viewBox="0 0 90 94" fill="none" xmlns="http://www.w3.org/2000/svg">
<path d="M51.0258 93.117C50.0412 92.5495 49.6874 91.716 49.7079 90.5757C49.7643 87.4258 49.7284 84.2759 49.7232 81.1261C49.7232 80.4716 49.7591 79.8426 50.2053 79.3057C50.6258 78.8046 50.3437 78.2626 50.2258 77.7563C49.3181 73.9008 49.5489 70.1578 51.3438 66.5784C53.2566 62.7638 56.2412 60.1304 60.2771 58.7191C61.1232 58.4225 61.7335 57.9827 62.2207 57.2259C64.0668 54.3829 65.9694 51.5756 67.8566 48.7632C69.7284 45.9713 72.1027 45.0816 75.3232 46.0276C76.1643 46.2781 76.0566 45.7923 76.0566 45.3117C76.0566 41.8908 76.0207 38.4699 76.072 35.049C76.1438 30.3038 80.9694 27.1999 85.3335 29.0612C87.6566 30.0532 88.8412 31.9503 89.3694 34.3281V58.7395C89.0925 59.2048 88.8309 59.6804 88.5335 60.1304C84.754 65.8012 80.9796 71.4719 77.1796 77.1274C76.4309 78.2421 75.4925 79.2648 76.1591 80.7579C76.195 80.8448 76.1694 80.9573 76.1694 81.0596C76.1694 84.2759 76.1489 87.4974 76.1797 90.7137C76.1899 91.8643 75.7591 92.6722 74.6873 93.117H51.0258ZM85.4156 46.2679C85.4156 42.9135 85.4258 39.5591 85.4104 36.2047C85.4104 35.632 85.3591 35.049 85.2412 34.4917C84.9848 33.3207 84.0258 32.569 82.8361 32.5332C81.1694 32.4821 80.0514 33.5662 80.0463 35.3201C80.0309 40.6738 80.0258 46.0276 80.0463 51.3813C80.0463 52.3017 79.8207 53.0841 79.3027 53.8511C76.7386 57.6453 74.2104 61.4599 71.6668 65.2694C71.2155 65.9443 70.7899 66.6449 70.2874 67.2789C69.7643 67.9334 69.0617 68.2351 68.2053 67.9692C67.3694 67.7136 66.913 67.1204 66.7899 66.2818C66.6976 65.6682 67.0053 65.1671 67.3284 64.6813C68.8361 62.4263 70.3438 60.1713 71.8463 57.9111C72.9181 56.3004 74.0053 54.705 75.036 53.0687C75.7694 51.9029 75.4873 50.6245 74.4361 49.9444C73.4514 49.3104 72.1899 49.607 71.3848 50.6603C71.2002 50.9058 71.036 51.1614 70.8668 51.4171C68.9899 54.2397 67.0668 57.0368 65.2566 59.9054C64.5027 61.0968 63.5643 61.8383 62.2155 62.2473C59.3899 63.1064 57.1181 64.7427 55.5232 67.2687C53.5027 70.4697 53.3899 73.8752 54.2309 77.4495C54.4463 78.3751 54.8104 78.6409 55.7181 78.6358C60.6104 78.6 65.5027 78.5949 70.4002 78.6358C71.2309 78.6409 71.6873 78.3341 72.1232 77.6796C76.3489 71.2879 80.6002 64.9063 84.8566 58.535C85.2514 57.9418 85.4258 57.3436 85.4207 56.6379C85.4002 53.1812 85.4104 49.7246 85.4104 46.2679H85.4156ZM62.9745 82.5834C60.2258 82.5834 57.472 82.5987 54.7232 82.5732C53.995 82.5681 53.6719 82.793 53.6873 83.5601C53.7232 85.1197 53.7181 86.6741 53.6873 88.2337C53.6771 88.9138 53.9027 89.2053 54.6258 89.2053C60.1643 89.1848 65.6976 89.1848 71.2361 89.2053C72.0207 89.2053 72.2258 88.8882 72.2104 88.1724C72.1745 86.6844 72.154 85.1912 72.2155 83.7032C72.2566 82.7777 71.8822 82.5527 71.0207 82.5681C68.3386 82.609 65.6566 82.5834 62.9694 82.5834H62.9745Z" fill="#0E2B72"/>
<path d="M14.7129 93.1161C13.6308 92.6814 13.2001 91.8837 13.2103 90.723C13.2462 87.5015 13.2206 84.2852 13.2206 81.0637C13.2206 80.9615 13.1898 80.8438 13.2308 80.762C13.9436 79.2791 12.9334 78.2871 12.2206 77.2133C8.42057 71.5119 4.63083 65.8053 0.815449 60.114C0.287244 59.3266 -0.00506185 58.5187 6.63529e-05 57.5573C0.015451 50.2349 6.57275e-05 42.9125 0.0154503 35.5901C0.0205785 32.2612 1.88212 29.6687 4.83084 28.7995C9.02571 27.562 13.2667 30.6659 13.3283 35.0736C13.3795 38.428 13.3642 41.7875 13.3283 45.1419C13.318 46.0317 13.4821 46.226 14.4001 45.9345C17.1026 45.0857 19.7078 46.0521 21.3385 48.4554C23.359 51.4315 25.3436 54.4279 27.3129 57.4346C27.7077 58.038 28.1949 58.401 28.8719 58.6414C35.9744 61.1674 40.0565 67.3035 39.6308 74.8254C39.5847 75.6333 39.3949 76.431 39.2462 77.2287C39.077 78.1491 38.7437 79.0542 39.5026 79.9132C39.7693 80.2149 39.6616 80.6956 39.6616 81.0995C39.6616 84.2494 39.6257 87.4044 39.6821 90.5542C39.7026 91.6894 39.3488 92.5331 38.3693 93.1058H14.7078L14.7129 93.1161ZM3.97443 46.1237C3.97443 49.6827 3.97955 53.2416 3.96929 56.8005C3.96929 57.363 4.07698 57.8539 4.40006 58.3295C8.76929 64.8337 13.1283 71.3431 17.4667 77.8678C17.8565 78.4559 18.318 78.6349 18.9949 78.6297C22.4975 78.6042 25.9949 78.6195 29.4975 78.6195C31.0257 78.6195 32.5539 78.6195 34.0872 78.6195C34.4924 78.6195 34.9231 78.6604 35.0565 78.1133C35.6924 75.5208 36.0872 72.9181 35.2924 70.2898C34.0718 66.2553 31.3898 63.5963 27.4001 62.3077C25.9539 61.8424 24.9385 61.06 24.1283 59.7817C22.2411 56.8057 20.2308 53.9012 18.277 50.9661C17.8924 50.3934 17.4719 49.8463 16.759 49.6929C15.8719 49.5037 15.0667 49.6724 14.4565 50.4088C13.8513 51.1451 13.7949 51.9581 14.2052 52.7814C14.4616 53.2927 14.7949 53.7734 15.1129 54.2541C17.4462 57.7516 19.8001 61.239 22.118 64.7468C23.0719 66.1888 22.5385 67.7126 21.0155 68.0092C20.0001 68.2086 19.3437 67.6666 18.8155 66.8791C15.8616 62.4509 12.9078 58.0175 9.94365 53.5944C9.52826 52.9757 9.36417 52.3212 9.36417 51.5849C9.37956 48.0617 9.36929 44.5335 9.36929 41.0103C9.36929 39.0774 9.38981 37.1446 9.35904 35.2168C9.32827 33.3709 7.87185 32.2203 6.06673 32.568C4.7898 32.8135 3.9898 33.9282 3.98468 35.5543C3.96929 39.0774 3.98468 42.6057 3.98468 46.1288L3.97443 46.1237ZM26.4719 82.5773C23.7231 82.5773 20.9693 82.5926 18.2206 82.5671C17.4924 82.562 17.1744 82.787 17.1949 83.554C17.236 85.1084 17.2257 86.668 17.1949 88.2276C17.1847 88.9026 17.3949 89.2043 18.1231 89.1992C23.6616 89.1787 29.1949 89.1787 34.7334 89.1992C35.5129 89.1992 35.7283 88.8821 35.718 88.1663C35.6872 86.6783 35.6616 85.1851 35.7231 83.6971C35.759 82.7716 35.3795 82.5466 34.5231 82.562C31.8411 82.6029 29.159 82.5773 26.4719 82.5773Z" fill="#0E2B72"/>
<path d="M20.3595 21.1141C20.3595 18.0665 20.3851 15.0138 20.3441 11.9662C20.3287 10.7492 20.8261 10.0078 21.9338 9.53733C29.1184 6.46928 36.2928 3.38589 43.4569 0.282041C44.2979 -0.0810114 45.0518 -0.101465 45.8979 0.266701C53.0979 3.38077 60.3031 6.47439 67.5133 9.5629C68.5851 10.0231 69.0518 10.7594 69.0466 11.9304C69.021 17.5552 69.062 23.1799 69.0261 28.8047C68.98 36.2243 66.0467 42.3604 60.4313 47.167C55.8159 51.1197 51.0979 54.9445 46.421 58.8256C45.0877 59.9301 44.3133 59.9352 43.0005 58.846C38.2979 54.9496 33.5441 51.1043 28.9133 47.1261C23.3031 42.3092 20.4056 36.168 20.3595 28.7433C20.3441 26.202 20.3595 23.6606 20.3595 21.1192V21.1141ZM65.0621 22.1061C65.0621 19.3602 65.0364 16.6194 65.0774 13.8735C65.0928 13.0656 64.8005 12.6719 64.062 12.3599C57.8774 9.72653 51.7031 7.06755 45.5441 4.383C44.821 4.06597 44.2467 4.23983 43.6159 4.51084C37.539 7.13402 31.462 9.76744 25.3749 12.3599C24.6108 12.6872 24.3031 13.1014 24.3082 13.9502C24.3441 18.8949 24.3184 23.8447 24.3287 28.7894C24.3441 35.1556 26.9236 40.3252 31.7697 44.4006C35.7441 47.7397 39.7697 51.0225 43.7338 54.3667C44.4415 54.9598 44.9082 54.9956 45.6313 54.382C49.6261 51.0123 53.6774 47.7141 57.6723 44.3444C62.4825 40.2894 65.0159 35.13 65.0518 28.8098C65.0672 26.5752 65.0518 24.3356 65.0518 22.101L65.0621 22.1061Z" fill="#0E2B72"/>
<path d="M36.2571 24.1161C36.975 24.1416 37.4674 24.4791 37.9135 24.924C38.9699 25.9774 40.0673 26.9949 41.0725 28.0943C41.6725 28.7488 42.052 28.7642 42.6879 28.1097C45.534 25.2052 48.4366 22.3519 51.3186 19.4782C51.6571 19.1407 51.9853 18.7828 52.4622 18.6549C53.2827 18.4351 54.0263 18.5834 54.575 19.2686C55.1135 19.9435 55.1802 20.7003 54.7545 21.452C54.5596 21.7997 54.2673 22.1014 53.9802 22.3826C50.575 25.7882 47.1699 29.1886 43.7545 32.5839C42.3596 33.9696 41.4109 33.9748 40.0161 32.5992C38.3289 30.9323 36.6468 29.2551 34.9853 27.5625C34.3443 26.908 34.0878 26.1257 34.5289 25.241C34.893 24.5098 35.493 24.1314 36.2571 24.1161Z" fill="#FFB400"/>
</svg>
