<svg width="33" height="20" viewBox="0 0 33 20" fill="none" xmlns="http://www.w3.org/2000/svg">
<path d="M0 1.85422C0.0215318 1.81848 0.0508151 1.78444 0.0620117 1.74614C0.305752 0.91132 0.825961 0.510503 1.70188 0.50795C3.20566 0.502844 4.7103 0.490079 6.21322 0.512205C7.14426 0.526672 8.08563 0.527523 9.00289 0.663682C10.6272 0.904513 12.0363 1.64658 13.2076 2.7818C15.0551 4.57314 16.8775 6.39001 18.7043 8.20262C18.8679 8.36516 19.029 8.43835 19.2658 8.4375C21.8867 8.42899 24.5084 8.43239 27.1292 8.43239H27.5237C27.3885 8.28517 27.311 8.19156 27.2248 8.10646C26.3386 7.22653 25.4403 6.35682 24.5661 5.46498C23.7298 4.61229 24.0467 3.25155 25.1595 2.87286C25.7607 2.66862 26.3214 2.77925 26.7692 3.21666C28.7011 5.10586 30.6251 7.00187 32.5372 8.91065C33.1668 9.53953 33.1478 10.4578 32.5182 11.0832C30.6243 12.9648 28.726 14.8412 26.8209 16.7117C26.1663 17.3542 25.194 17.3567 24.5661 16.7432C23.9313 16.1228 23.9331 15.1433 24.5842 14.4915C25.4523 13.6226 26.3283 12.7622 27.2059 11.9027C27.2886 11.8219 27.404 11.7751 27.5039 11.7121C27.4806 11.6721 27.4565 11.6321 27.4333 11.5921C27.3351 11.5853 27.2378 11.5717 27.1396 11.5717C24.4972 11.5708 21.8548 11.5674 19.2116 11.5794C19.0531 11.5794 18.8567 11.6679 18.743 11.7793C16.9877 13.4966 15.2376 15.2208 13.497 16.9525C11.7926 18.6486 9.74358 19.5098 7.3191 19.4995C5.47167 19.4919 3.62338 19.4995 1.77595 19.497C0.823377 19.4953 0.341064 19.137 0.0559827 18.2358C0.04737 18.2077 0.018948 18.1856 0 18.1609C0 18.012 0 17.8639 0 17.715C0.018948 17.6903 0.0465087 17.6674 0.0559827 17.6393C0.341064 16.7355 0.822516 16.3824 1.77508 16.3815C3.63285 16.3807 5.49062 16.3875 7.34838 16.379C8.84527 16.3713 10.1303 15.8522 11.1914 14.797C12.7201 13.2762 14.2584 11.7649 15.7914 10.2484C15.8715 10.1693 15.9439 10.0833 16.0171 10.0042C15.974 9.94886 15.9577 9.92077 15.9353 9.89865C14.2877 8.2707 12.6538 6.62829 10.9855 5.02161C10.0063 4.07786 8.79187 3.6362 7.42417 3.63024C5.48028 3.62173 3.53639 3.63024 1.59336 3.62428C0.923285 3.62173 0.368625 3.22857 0.131775 2.61671C0.0895724 2.51033 0.0439249 2.40566 0 2.30014C0 2.15122 0 2.00314 0 1.85422Z" fill="#FFB400"/>
</svg>
