<svg width="100" height="110" viewBox="0 0 100 110" fill="none" xmlns="http://www.w3.org/2000/svg">
<path d="M20.4531 0C23.8649 0.722945 26.978 2.04934 29.5952 4.42729C34.8055 9.15929 37.4167 17.3865 33.8734 24.5323C31.8418 28.631 29.0573 32.1979 26.2669 35.7708C23.9366 38.7642 21.445 41.638 19.6225 45.0078C18.78 46.5612 16.8561 46.6867 16.0255 45.2109C13.1694 40.1085 9.10021 35.9202 5.7302 31.2061C4.32603 29.2404 3.05338 27.209 1.90614 25.082C-2.47965 16.9145 1.27873 7.62378 7.33757 3.26819C9.67984 1.58928 12.2791 0.615399 15.0516 0H20.4471L20.4531 0ZM4.13488 17.8107C4.2484 19.9019 4.94152 21.9273 5.99315 23.8512C9.10025 29.5093 13.6115 34.1457 17.3161 39.3676C17.6806 39.8815 17.9256 39.7261 18.2303 39.3079C18.9772 38.2862 19.736 37.2705 20.5128 36.2727C23.1957 32.8253 26.0638 29.5153 28.3702 25.793C30.1687 22.8893 31.6088 19.9258 31.2383 16.2812C30.4317 8.29893 22.6042 2.55719 14.8066 4.39742C8.58041 5.86721 4.43961 11.0294 4.13488 17.8107Z" fill="#0E2B72"/>
<path d="M99.1417 83.8489C97.8331 89.3397 94.5108 93.6953 91.1707 98.045C88.458 101.57 85.4764 104.886 83.3134 108.823C82.4709 110.359 80.5588 110.401 79.7163 108.889C76.9976 103.996 73.1137 99.9688 69.8573 95.4758C68.3216 93.3548 66.9055 91.168 65.6627 88.8618C61.253 80.6763 65.0114 71.3916 71.0523 67.042C81.3774 59.6094 95.7179 64.897 98.7533 77.2827C98.8668 77.7547 99.0102 78.2267 99.1417 78.6987V83.8489ZM81.5686 67.7769C79.9075 67.9143 78.2166 68.1055 76.5913 68.7328C70.8312 70.9554 67.0847 77.2946 68.0885 83.2216C68.4949 85.6055 69.678 87.6668 70.9447 89.6743C73.9442 94.4123 77.7743 98.5289 81.0189 103.088C81.4431 103.685 81.6881 103.44 82.0108 103.004C82.7577 101.982 83.5225 100.973 84.2933 99.9748C87.3885 95.9717 90.7405 92.1598 93.1963 87.6907C94.2539 85.7668 95.1084 83.7474 95.0785 81.5487C94.9769 73.9129 89.181 68.0457 81.5626 67.7888L81.5686 67.7769Z" fill="#0E2B72"/>
<path d="M48.2712 22.1788C50.3445 24.1146 52.2208 25.8712 54.097 27.6218C54.581 28.0759 55.0112 28.5598 55.0769 29.2649C55.1606 30.1671 54.8438 30.8721 54.0491 31.3202C53.2006 31.8041 52.3641 31.6787 51.659 31.0633C50.5238 30.0715 49.4303 29.0199 48.3249 27.9922C45.7556 25.5964 43.2101 23.1766 40.6169 20.8046C39.8999 20.1474 39.7386 19.7112 40.5811 18.9823C44.0108 16.0188 47.3868 12.9896 50.7867 9.98435C51.1213 9.68561 51.4619 9.3809 51.8323 9.13593C52.7705 8.50261 53.8998 8.64003 54.6048 9.44662C55.298 10.2472 55.3278 11.4302 54.5092 12.2249C53.1588 13.5333 51.7308 14.7522 50.3326 16.0069C49.7351 16.5446 49.1376 17.0823 48.4863 17.6619C49.024 17.9367 49.4722 17.8172 49.9024 17.8172C57.216 17.8292 64.5296 17.8172 71.8433 17.8292C81.4753 17.8411 89.6374 25.1064 90.3664 34.2956C91.167 44.375 84.5286 52.9129 74.6635 54.4186C73.2594 54.6337 71.8134 54.6576 70.3853 54.6576C56.6185 54.6755 42.8517 54.7412 29.0848 54.6396C22.53 54.5918 17.0089 58.6547 14.9116 64.2411C11.5177 73.2629 17.6065 83.0854 27.2026 84.1011C28.3439 84.2206 29.4792 84.2684 30.6264 84.2684C40.0254 84.2684 49.4184 84.2684 58.8174 84.2684C59.2655 84.2684 59.7196 84.2445 60.1618 84.2923C61.2254 84.4118 61.9364 85.2184 61.9544 86.27C61.9723 87.3753 61.2373 88.2118 60.1199 88.3372C59.7973 88.3731 59.4686 88.3551 59.14 88.3551C49.0479 88.3551 38.9559 88.3671 28.8697 88.3551C19.1242 88.3432 11.213 81.4125 9.90448 71.7692C8.40471 60.716 17.2539 50.4872 28.4335 50.4513C42.8934 50.4095 57.3594 50.4454 71.8194 50.4334C78.7327 50.4334 84.3553 45.9404 85.9149 39.2367C87.8687 30.8362 81.5052 22.3222 72.9069 22.125C64.9838 21.9458 57.0547 22.0713 49.1315 22.0653C48.9403 22.0653 48.7432 22.1191 48.2712 22.1908V22.1788Z" fill="#0E2B72"/>
<path d="M25.6804 16.7166C25.6685 21.1558 22.191 24.6032 17.7395 24.5973C13.2461 24.5973 9.80435 21.102 9.82825 16.5612C9.85215 12.1459 13.3536 8.72832 17.835 8.74027C22.2626 8.75819 25.6924 12.2474 25.6864 16.7166H25.6804ZM21.5635 16.6389C21.5396 14.6792 19.7352 12.8748 17.7813 12.8569C15.7557 12.833 13.9213 14.6672 13.9392 16.6927C13.9571 18.6942 15.8752 20.5523 17.841 20.4807C19.8128 20.409 21.5874 18.5747 21.5635 16.6389Z" fill="#FFB400"/>
<path d="M81.4477 88.3415C77.0141 88.3295 73.5604 84.8582 73.5664 80.401C73.5664 75.9021 77.0619 72.4606 81.5971 72.4845C86.0128 72.5084 89.4365 76.0036 89.4186 80.4847C89.4007 84.912 85.9172 88.3475 81.4477 88.3415ZM85.3017 80.3951C85.2897 78.4413 83.4852 76.631 81.5313 76.6011C79.5117 76.5653 77.6714 78.3995 77.6773 80.4249C77.6833 82.4205 79.5954 84.2906 81.5672 84.2309C83.539 84.1711 85.3196 82.3428 85.3017 80.401V80.3951Z" fill="#FFB400"/>
</svg>
