<svg width="78" height="74" viewBox="0 0 78 74" fill="none" xmlns="http://www.w3.org/2000/svg">
<path d="M40.6848 0C43.0158 0.421543 45.2805 1.06051 47.2848 2.36952C53.1785 6.22996 56.2026 11.6257 55.7346 18.7742C55.5183 22.04 54.3219 24.9864 52.2867 27.56C51.9335 28.0082 51.9512 28.2789 52.3044 28.7137C54.8826 31.8953 57.4343 35.0946 59.9816 38.3027C60.3348 38.7465 60.7233 38.9506 61.3104 38.9772C68.6477 39.3544 75.4509 45.429 76.8283 52.7861C76.9121 53.2298 77.0004 53.6735 77.0843 54.1173V58.3504C76.7046 60.3605 76.2014 62.3262 75.2301 64.1455C72.4268 69.3815 68.118 72.5276 62.2552 73.3662C52.9357 74.7019 44.2078 67.9572 43.029 58.5945C42.9113 57.6597 42.3742 57.1923 41.4176 57.1923C39.3118 57.1923 37.206 57.21 35.1001 57.1834C34.5218 57.1745 34.2702 57.3032 34.2128 57.9555C33.8728 61.8026 32.3763 65.2016 29.7804 67.9971C27.1006 70.8813 23.7587 72.7761 19.8163 73.344C14.0463 74.1738 9.04877 72.4699 4.92981 68.3521C-2.96374 60.467 -1.10955 46.8445 8.57197 41.2757C10.9383 39.9135 13.4635 39.0926 16.1918 38.9595C16.5273 38.9417 16.7525 38.813 16.9556 38.5645C19.6353 35.2676 22.3151 31.9707 25.0036 28.6827C25.2685 28.3588 25.2994 28.1236 25.0213 27.7686C16.6068 16.9948 23.5468 2.08553 36.1067 0.102058C36.2303 0.0843086 36.3451 0.0354984 36.4643 0C37.8682 0 39.2721 0 40.676 0H40.6848ZM38.526 55.2754C39.7312 55.2754 40.932 55.2576 42.1372 55.2843C42.6582 55.2976 42.8701 55.16 42.9319 54.5832C43.7486 46.7203 49.373 40.6279 57.1429 39.1547C58.0038 38.9905 58.0082 38.9861 57.452 38.2983C55.3903 35.7291 53.3242 33.1643 51.2625 30.5952C50.5252 29.6766 50.5341 29.6811 49.6025 30.4665C45.9207 33.5637 41.656 34.9259 36.9014 34.4689C33.2239 34.1139 29.9305 32.694 27.1669 30.1514C26.8887 29.8985 26.6856 29.5923 26.2883 30.0937C24.0721 32.8937 21.825 35.667 19.5868 38.4447C19.2733 38.8308 19.1938 39.0349 19.8384 39.1369C26.4163 40.162 33.4976 45.7929 34.2348 54.6275C34.279 55.1778 34.5086 55.2931 34.9898 55.2843C36.1685 55.2621 37.3472 55.2754 38.526 55.2754ZM51.0815 25.8872C55.6066 19.493 54.472 10.441 48.0751 5.32032C41.0954 -0.266238 31.9348 1.31344 26.8269 7.57446C21.7014 13.8532 22.8536 21.7916 26.1426 25.8117C26.6989 24.6714 27.52 23.775 28.4957 22.9985C30.3278 21.5386 32.4248 20.5979 34.5836 19.7548C34.9765 19.5995 35.2988 19.6705 35.6476 19.8835C37.2678 20.8642 39.0204 21.2546 40.7157 20.2784C41.996 19.5374 43.0202 19.8525 44.1989 20.3849C46.9449 21.6274 49.6291 22.9186 51.0903 25.8916L51.0815 25.8872ZM29.6347 64.9265C33.8243 58.9716 33.1003 49.9329 27.4847 44.9631C20.9906 39.2079 12.1038 39.5984 6.04232 45.8284C0.810858 51.202 0.903569 59.899 4.69141 64.8333C5.30065 63.8349 5.94079 62.8898 6.83257 62.131C8.7309 60.5291 11.0177 59.6772 13.2428 58.701C13.618 58.5368 13.9006 58.7587 14.2184 58.9273C16.0329 59.9035 17.8915 60.1298 19.7148 59.0116C20.4035 58.5856 21.0304 58.5812 21.7014 58.8829C24.7917 60.2585 28.0454 61.4122 29.6303 64.9265H29.6347ZM72.4577 64.8378C76.3029 59.8635 76.4221 50.7272 70.4401 45.114C64.4008 39.4476 54.9356 39.5407 49.0728 45.5222C43.6029 51.0999 43.8104 60.0011 47.5497 64.8688C48.5077 62.7256 50.3133 61.5187 52.2426 60.4537C53.3418 59.8458 54.5338 59.442 55.6596 58.8873C56.1894 58.6255 56.6088 58.6566 57.1297 58.9495C58.9088 59.9567 60.7586 60.1076 62.5554 59.0293C63.2706 58.5989 63.9151 58.59 64.6127 58.8918C67.703 60.2318 70.8551 61.492 72.4577 64.8378ZM60.0213 71.5603C60.2597 71.5425 60.6835 71.507 61.1074 71.4715C64.7672 71.1742 67.9061 69.7277 70.5726 67.1984C70.9169 66.87 70.9699 66.5417 70.8463 66.1201C70.5373 65.0641 69.9015 64.221 69.0583 63.5643C67.6235 62.4549 66.0607 61.563 64.3346 60.9684C63.871 60.8087 63.4869 60.8353 63.0454 61.0394C60.997 61.9979 58.9441 62.0289 56.8957 61.0172C56.5999 60.8708 56.313 60.7466 55.9686 60.893C54.3749 61.5675 52.7591 62.202 51.3596 63.2448C50.4458 63.9237 49.6908 64.7534 49.2714 65.8583C49.0375 66.4707 49.1081 66.9188 49.6202 67.3892C52.5207 70.0516 55.9421 71.3872 60.0213 71.5603ZM17.3838 71.5514C20.7831 71.4493 24.0589 70.3134 26.8887 67.966C28.2926 66.8035 28.3721 66.1246 27.2772 64.6292C27.0256 64.2831 26.7342 63.9725 26.4031 63.6974C24.8756 62.4283 23.1362 61.5586 21.2776 60.9063C20.9421 60.7865 20.6507 60.822 20.3417 60.9729C18.2535 62.0023 16.1521 62.0156 14.0507 61.0084C13.746 60.8619 13.4679 60.7865 13.1192 60.9241C11.9581 61.3944 10.7749 61.8248 9.70215 62.486C8.39538 63.298 7.1725 64.2032 6.51028 65.6897C6.19242 66.4041 6.24981 66.9233 6.86788 67.4779C9.80368 70.0871 13.2207 71.4316 17.3705 71.5469L17.3838 71.5514ZM38.4995 32.5919C38.8968 32.552 39.2941 32.4987 39.6959 32.4721C43.3866 32.2458 46.4637 30.644 49.1743 28.2123C49.5187 27.9017 49.5937 27.5689 49.4348 27.1341C49.086 26.1623 48.5165 25.3503 47.7395 24.6802C46.2253 23.3801 44.3976 22.6701 42.6008 21.8981C42.3138 21.7738 42.071 21.8537 41.815 21.9779C39.6429 23.0251 37.4664 22.9941 35.2988 21.969C35.0339 21.8448 34.7955 21.796 34.513 21.9158C32.9943 22.5681 31.4536 23.1893 30.0938 24.1566C29.0961 24.8666 28.2926 25.7452 27.807 26.8989C27.5598 27.489 27.6392 27.9195 28.1381 28.3588C31.1092 30.9679 34.5086 32.4943 38.4951 32.5875L38.4995 32.5919Z" fill="#0E2B72"/>
<path d="M38.5753 19.5515C34.474 19.5515 31.3042 16.3522 31.3086 12.2211C31.3086 8.1077 34.5049 4.9306 38.6238 4.93947C42.681 4.94835 45.8463 8.13876 45.8507 12.2299C45.8507 16.3611 42.6854 19.5515 38.5753 19.5515ZM43.9259 12.2566C43.9436 9.43445 41.4184 6.88301 38.5885 6.86526C35.7808 6.84751 33.2423 9.38564 33.2246 12.2299C33.2069 15.1364 35.5821 17.5503 38.5223 17.6168C41.4095 17.6834 43.9039 15.2118 43.9215 12.2566H43.9259Z" fill="#FFB400"/>
<path d="M17.1762 43.9377C21.9573 43.8267 24.5355 48.0954 24.5002 51.2503C24.4561 55.2572 21.2068 58.5497 17.2203 58.5541C13.1499 58.5541 9.95807 55.3637 9.94924 51.2903C9.94041 47.1059 13.0528 43.9421 17.1762 43.9377ZM17.2336 45.8679C13.9799 46.0898 12.0374 47.8735 11.8917 51.2281C11.7637 54.1434 14.3419 56.6505 17.2424 56.6195C20.0634 56.5884 22.5003 54.1523 22.571 51.2947C22.6372 48.4016 20.1649 45.8856 17.238 45.8679H17.2336Z" fill="#FFB400"/>
<path d="M67.2092 51.2854C67.2048 55.3632 64.0174 58.5536 59.947 58.5536C55.9296 58.5536 52.6803 55.239 52.6583 51.1833C52.645 48.0772 55.1835 43.8529 60.0485 43.9328C64.1277 43.9993 67.2092 47.1232 67.2048 51.2898L67.2092 51.2854ZM59.9249 45.8719C57.0156 45.894 54.6184 48.2991 54.5919 51.2232C54.5654 54.032 57.0995 56.5968 59.9249 56.619C62.8298 56.6456 65.3992 54.1385 65.2712 51.2232C65.1211 47.8731 63.1874 46.0848 59.9293 45.8674L59.9249 45.8719Z" fill="#FFB400"/>
</svg>
