<svg width="15" height="14" viewBox="0 0 15 14" fill="none" xmlns="http://www.w3.org/2000/svg">
<path d="M0 5.70505V5.36304C0.120705 4.99594 0.371785 4.7782 0.77023 4.74114C1.35266 4.68699 1.93598 4.64025 2.5187 4.58923C3.30065 4.52083 4.0826 4.44958 4.86484 4.38403C5.00488 4.37234 5.07754 4.30935 5.13086 4.1848C5.36846 3.62818 5.61544 3.07525 5.8589 2.52091C6.15041 1.8574 6.44017 1.19333 6.73314 0.530676C6.89633 0.161586 7.19223 -0.0282311 7.56607 0.00340513C7.92584 0.0339013 8.14352 0.242244 8.28034 0.556042C8.80271 1.75337 9.33358 2.947 9.85009 4.14633C9.92451 4.31876 10.0262 4.38744 10.2084 4.3903C10.3786 4.39286 10.5488 4.4131 10.7188 4.4282C11.8455 4.52853 12.9714 4.63826 14.0991 4.72632C14.5465 4.76138 14.8608 4.93467 15 5.36275V5.70477C14.9273 5.88917 14.8219 6.0482 14.6657 6.18073C13.6277 7.06056 12.5941 7.94467 11.5573 8.82564C11.4943 8.87922 11.4702 8.93394 11.4896 9.0126C11.525 9.15568 11.5564 9.2999 11.5901 9.44326C11.8658 10.6241 12.1414 11.8051 12.418 12.9859C12.4983 13.3291 12.4127 13.6247 12.1221 13.8361C11.8201 14.0559 11.4972 14.047 11.1773 13.8549C11.0238 13.7626 10.8667 13.6754 10.7117 13.5853C9.69335 12.9931 8.6741 12.4025 7.65865 11.8057C7.54116 11.7367 7.45327 11.7362 7.34048 11.808C7.14448 11.9325 6.93881 12.0428 6.73753 12.1597C5.76515 12.7249 4.79277 13.2901 3.82097 13.8561C3.64431 13.959 3.45798 14.0217 3.24967 13.9895C2.77447 13.9157 2.47417 13.5038 2.57378 13.0424C2.68892 12.508 2.819 11.9764 2.94322 11.444C3.12809 10.652 3.31296 9.86023 3.49841 9.06847C3.5195 8.9784 3.53327 8.90088 3.44392 8.82507C2.47944 8.00794 1.51849 7.18711 0.556066 6.36742C0.332526 6.17703 0.0878923 6.00374 0.000585949 5.70534L0 5.70505Z" fill="#FFB400"/>
</svg>
