<svg width="100" height="85" viewBox="0 0 100 85" fill="none" xmlns="http://www.w3.org/2000/svg">
<path d="M50.4436 0C50.5144 0.108605 50.6383 0.133668 50.7534 0.183793C51.8511 0.601505 52.4176 1.41187 52.4265 2.48956C52.4619 5.83125 52.453 9.1813 52.4265 12.5313C52.4176 13.8346 51.2049 14.8705 49.7885 14.8705C48.3721 14.8705 47.1682 13.8346 47.1593 12.523C47.1416 9.16459 47.1328 5.80619 47.1593 2.44779C47.1682 1.42857 47.7171 0.668339 48.7262 0.233919C48.8413 0.183793 49.0537 0.225564 49.0537 0.00835422H50.4436V0Z" fill="#0E2B72"/>
<path d="M47.1394 72.7392C47.1394 69.7484 47.1394 66.7659 47.1394 63.7751C47.1394 63.4493 47.0332 63.2655 46.7145 63.1151C43.3949 61.5613 40.0841 59.9907 36.7645 58.4201C33.7282 56.9831 30.6918 55.5629 27.6643 54.1176C26.062 53.349 25.6903 51.6782 26.8145 50.2997C27.8679 49.0048 28.9656 47.7434 30.0456 46.4652C34.693 40.9764 39.3405 35.4877 43.988 29.999C45.2007 28.5704 46.4047 27.1418 47.6174 25.7216C48.7328 24.4183 50.6007 24.3264 51.7603 25.5127C52.1941 25.9555 52.3623 26.5069 52.4154 27.1C52.4331 27.2922 52.4242 27.4843 52.4242 27.6765C52.4242 33.2738 52.4242 38.8795 52.4154 44.4768C52.4154 44.8862 52.5393 45.07 52.9731 45.1619C57.771 46.1811 62.5159 47.4008 67.2873 48.5286C68.4912 48.8127 69.6951 49.08 70.899 49.3557C71.6072 49.5228 72.2888 49.7484 72.7668 50.3081C73.5104 51.1769 73.599 52.2129 72.9085 53.2571C71.979 54.6607 71.0052 56.0475 70.0226 57.4259C66.4463 62.4969 62.87 67.5596 59.2936 72.6223C56.877 76.0475 54.4603 79.4811 52.0347 82.9063C51.3974 83.8002 50.3085 84.243 49.2817 84.0425C48.184 83.8336 47.3696 83.065 47.166 82.0375C47.1306 81.837 47.1306 81.6281 47.1306 81.4193C47.1306 78.5203 47.1306 75.6214 47.1306 72.7309L47.1394 72.7392ZM52.4951 73.3073C52.5216 73.2572 52.5481 73.2321 52.5658 73.1987C55.5402 68.9798 58.5146 64.7526 61.4979 60.5337C63.0559 58.3282 64.6227 56.131 66.1807 53.9255C66.4905 53.4911 66.4817 53.466 65.9329 53.349C65.0831 53.1569 64.2332 52.9815 63.3923 52.781C58.7271 51.6865 54.0619 50.5838 49.4056 49.4727C47.8299 49.0967 47.1394 48.2279 47.1394 46.6907C47.1394 42.7392 47.1394 38.7876 47.1394 34.8361C47.1394 34.694 47.1837 34.5353 47.0775 34.3766C46.9889 34.4768 46.9181 34.552 46.8473 34.6272C45.6257 36.0892 44.404 37.5595 43.1736 39.0215C39.8894 42.9146 36.5963 46.8077 33.3121 50.7007C33.1114 50.9347 33.1557 51.1268 33.4449 51.2772C33.5777 51.344 33.7105 51.4109 33.8432 51.4693C36.7114 52.8144 39.5795 54.1594 42.4388 55.5128C45.1476 56.791 47.8387 58.0942 50.5476 59.3641C51.84 59.9739 52.4596 60.9013 52.4508 62.2881C52.4154 65.8136 52.4419 69.339 52.4508 72.8729C52.4508 73.0065 52.4065 73.1486 52.5127 73.3157L52.4951 73.3073Z" fill="#FFB400"/>
<path d="M75.8497 24.987C74.6635 24.987 73.8845 24.5442 73.3888 23.7004C72.9108 22.8817 72.9639 22.0463 73.4507 21.2359C73.5924 21.002 73.7694 20.7848 73.973 20.5927C76.3985 18.2952 78.8241 15.9978 81.2585 13.7171C82.0906 12.9318 83.1883 12.7564 84.2329 13.1992C85.1889 13.6002 85.8529 14.586 85.8086 15.5801C85.7732 16.3738 85.3482 16.9836 84.764 17.5267C82.4358 19.7155 80.1077 21.9043 77.7884 24.0931C77.2042 24.6445 76.5491 25.012 75.8497 24.9953V24.987Z" fill="#0E2B72"/>
<path d="M7.86276 49.4726C6.14541 49.4726 4.42806 49.4726 2.71071 49.4726C1.69269 49.4726 0.87832 49.08 0.373739 48.2278C-0.670834 46.4985 0.586196 44.5186 2.75501 44.4851C4.95039 44.4517 7.14576 44.4768 9.34114 44.4768C10.5805 44.4768 11.8197 44.4768 13.0591 44.4768C14.6171 44.4852 15.7856 45.5378 15.7856 46.9329C15.7856 48.3949 14.6613 49.4559 13.0591 49.4726C11.3329 49.481 9.59781 49.4726 7.86276 49.4726Z" fill="#0E2B72"/>
<path d="M91.6312 49.4749C89.8961 49.4749 88.1699 49.4833 86.4349 49.4749C85.1867 49.4666 84.2218 48.7732 83.8766 47.6704C83.3631 46.0664 84.629 44.5125 86.5234 44.4874C88.6923 44.4624 90.861 44.4791 93.021 44.4791C94.2869 44.4791 95.5528 44.4791 96.8187 44.4791C98.3767 44.4874 99.5452 45.5401 99.5452 46.9352C99.5452 48.3972 98.421 49.4582 96.8187 49.4749C95.0925 49.4833 93.3574 49.4749 91.6223 49.4749H91.6312Z" fill="#0E2B72"/>
<path d="M26.506 22.6496C26.4617 23.485 26.0191 24.2118 25.1339 24.6713C24.2398 25.1308 23.328 25.1141 22.4516 24.5961C22.2569 24.4791 22.071 24.3371 21.9116 24.1868C19.4861 21.906 17.0606 19.6253 14.6528 17.3279C13.4488 16.175 13.617 14.429 14.9892 13.485C16.0249 12.7749 17.4235 12.8751 18.3884 13.7774C19.7428 15.0305 21.0707 16.3004 22.4162 17.5702C23.4873 18.5811 24.5496 19.5919 25.6207 20.6028C26.1873 21.1375 26.506 21.764 26.506 22.6496Z" fill="#0E2B72"/>
</svg>
