<svg width="100" height="100" viewBox="0 0 100 100" fill="none" xmlns="http://www.w3.org/2000/svg">
<path d="M75.6997 18C75.6997 18.1138 75.8142 18.0862 75.8774 18.1104C76.6354 18.376 77.0499 19.0349 76.8683 19.6973C76.6749 20.4045 75.9287 20.8772 75.1233 20.8047C74.4364 20.7426 73.7928 20.1768 73.7218 19.5697C73.6428 18.9039 74.0968 18.2932 74.8154 18.0897C74.9022 18.0655 74.993 18.0586 75.0601 18H75.6997Z" fill="#FFB400"/>
<path d="M47.8078 19.4089C49.1699 19.402 50.528 19.4469 51.8861 19.5124C53.4416 19.5883 54.9853 19.7401 56.5289 19.9195C58.4476 20.1403 60.3545 20.4163 62.2259 20.8337C64.2512 21.2856 66.2528 21.8031 68.1478 22.5965C69.7152 23.252 71.1601 24.0489 72.3051 25.2184C73.1183 26.0498 73.5329 27.0123 73.6474 28.0921C73.7934 29.4824 73.8882 30.8761 73.9 32.2733C73.9158 33.7774 73.8606 35.2781 73.7026 36.7788C73.6553 37.2479 73.6197 37.7206 73.5447 38.1897C73.521 38.3312 73.5329 38.4278 73.754 38.3795C75.1279 38.0862 76.4781 37.7413 77.7256 37.1479C78.0652 36.9857 78.3849 36.796 78.6416 36.5373C78.8784 36.2992 78.8745 36.175 78.6495 35.9335C78.3889 35.6576 78.0573 35.4609 77.7138 35.2781C77.4967 35.1642 77.2677 35.0642 77.0782 34.9124C76.4899 34.4363 76.3912 33.6981 76.8373 33.115C77.2716 32.5562 78.0849 32.3561 78.7955 32.6631C79.7115 33.0564 80.5248 33.5704 81.1643 34.2742C82.2105 35.4264 82.2737 36.7029 81.3578 37.9413C80.7419 38.7728 79.8339 39.2902 78.8627 39.7387C77.2677 40.477 75.5503 40.8909 73.7895 41.198C73.6039 41.229 73.4223 41.2704 73.2328 41.2877C73.0039 41.3084 72.8973 41.4119 72.8538 41.612C72.6406 42.5331 72.3643 43.4369 72.0642 44.3408C71.1878 47.0006 69.9126 49.4982 68.0728 51.7544C66.4897 53.7001 64.5631 55.3491 62.2653 56.6532C61.7521 56.9464 61.2033 57.1914 60.6625 57.4501C59.328 58.0849 58.2739 59.0025 57.2909 59.9892C57.1725 60.1065 57.0659 60.2341 56.9514 60.3548C56.8487 60.4652 56.8487 60.517 57.0382 60.5342C58.6214 60.6757 60.2084 60.7516 61.7995 60.6964C63.6037 60.6343 65.3921 60.4445 67.1135 59.9271C67.6188 59.7753 68.1005 59.5786 68.5426 59.3095C68.665 59.2336 68.7677 59.144 68.8624 59.0474C69.0875 58.8093 69.1111 58.5678 68.9414 58.2918C68.7085 57.9089 68.3452 57.6295 67.9939 57.3397C67.7136 57.1086 67.4885 56.8533 67.3977 56.5186C67.2556 55.9943 67.5083 55.4078 68.0294 55.0801C68.5308 54.7661 69.2493 54.7178 69.7389 55.0456C70.7772 55.739 71.6418 56.5635 72.0524 57.6812C72.5301 58.9715 72.0958 60.0651 71.0772 61.0172C70.3311 61.7106 69.3796 62.1349 68.3847 62.4834C67.145 62.9181 65.8383 63.1388 64.5236 63.2975C63.0944 63.47 61.6534 63.5528 60.2084 63.5183C58.5227 63.4769 56.8408 63.3665 55.1708 63.1285C55.009 63.1043 54.9339 63.1423 54.8668 63.263C53.714 65.3191 52.7349 67.4339 51.9809 69.628C51.136 72.0946 50.4885 74.6026 49.9871 77.1348C49.7463 78.3388 49.545 79.5531 49.3712 80.7674C49.2528 81.5885 48.3803 82.1198 47.4486 81.9783C47.1683 81.9335 46.9472 81.8058 46.7419 81.6506C45.4233 80.657 44.1796 79.5979 43.0032 78.4768C40.9147 76.4862 39.1578 74.2852 37.6536 71.9324C36.6351 70.3352 35.7783 68.6689 35.1072 66.9337C35.0401 66.7612 34.9453 66.6818 34.7321 66.6577C31.8896 66.3092 29.1418 65.6814 26.5874 64.505C25.482 63.9979 24.4832 63.3631 23.7133 62.4868C22.2289 60.7895 22.3355 58.868 23.9778 57.281C25.1978 56.1047 26.7098 55.325 28.3917 54.7799C29.2523 54.5005 30.0854 54.8558 30.4091 55.5975C30.7249 56.3186 30.3696 57.0637 29.5287 57.3673C28.6246 57.695 27.7442 58.0573 26.9704 58.592C26.6585 58.8059 26.3743 59.0405 26.1492 59.3268C25.7623 59.8132 25.7584 60.2548 26.1571 60.7378C26.6151 61.2897 27.2389 61.6727 27.91 62.0004C29.6313 62.8422 31.4869 63.3424 33.4135 63.6736C33.5359 63.6943 33.6583 63.7081 33.7767 63.7357C33.9623 63.7771 34.0175 63.7322 33.9702 63.5632C33.8241 63.0285 33.678 62.4903 33.5517 61.9487C33.2082 60.4307 32.9555 58.9025 32.8134 57.3569C32.6792 55.8839 32.7068 54.4073 32.7384 52.9308C32.7621 51.8338 32.9358 50.7471 33.0463 49.6569C33.0621 49.5086 33.0029 49.4707 32.8529 49.4534C31.5816 49.2878 30.3104 49.105 29.0549 48.86C26.6704 48.3943 24.3016 47.8803 22.071 46.973C21.0642 46.5625 20.1049 46.0795 19.2916 45.4068C18.4704 44.7306 17.9453 43.9337 18.0045 42.9056C18.044 42.2364 18.3441 41.6603 18.8257 41.1462C19.4534 40.4735 20.2391 39.9767 21.0998 39.5628C21.4669 39.3868 21.8301 39.2074 22.2249 39.0798C23.0895 38.7935 24.1002 39.3454 24.2384 40.1768C24.3489 40.8323 24.0489 41.3463 23.3541 41.6672C22.8487 41.9017 22.3118 42.088 21.8499 42.3951C21.6604 42.5227 21.4827 42.6607 21.3287 42.8194C21.1353 43.0195 21.1353 43.1506 21.3129 43.3576C21.5972 43.6888 21.992 43.8923 22.3947 44.0889C23.812 44.7927 25.3557 45.1963 26.9191 45.5689C28.7944 46.0174 30.7012 46.3313 32.6121 46.6349C32.9871 46.6935 32.995 46.6935 32.924 46.3693C32.5884 44.8375 31.7711 43.5542 30.3933 42.5434C27.7403 40.5908 25.6281 38.2553 24.0371 35.5575C23.0066 33.8119 22.3986 31.9559 22.067 30.024C21.9249 29.1926 21.9051 28.3577 22.0868 27.5229C22.3355 26.3534 22.9869 25.4012 23.9936 24.6181C25.4465 23.4866 27.1323 22.7035 28.9325 22.0894C31.0605 21.365 33.2595 20.8613 35.4941 20.4542C37.2509 20.1334 39.0275 19.9126 40.8081 19.7401C41.7674 19.6504 42.7347 19.5986 43.698 19.5434C45.064 19.4641 46.43 19.4296 47.7999 19.4227L47.8078 19.4089ZM47.8789 22.224C45.9128 22.2067 43.9467 22.2861 41.9885 22.4378C40.5357 22.5482 39.0868 22.6724 37.6497 22.8898C35.0282 23.2831 32.4463 23.8109 29.9709 24.6837C28.8812 25.0666 27.8271 25.5116 26.8638 26.1085C26.3822 26.4086 25.94 26.7501 25.5847 27.1676C25.4899 27.2779 25.411 27.378 25.6281 27.4711C26.7019 27.9369 27.7876 28.375 28.8891 28.7821C31.1987 29.6342 33.5912 30.2586 36.0271 30.7657C37.6378 31.1003 39.2684 31.328 40.9107 31.5178C42.1306 31.6592 43.3545 31.7317 44.5784 31.7869C45.6799 31.8352 46.7893 31.849 47.8947 31.8145C49.1502 31.7765 50.3977 31.6972 51.6413 31.573C53.9548 31.3418 56.2447 30.9934 58.4871 30.4242C59.4386 30.1827 60.3822 29.9102 61.3257 29.6445C61.5192 29.5893 61.7126 29.5238 61.8074 29.3375C62.0008 28.9649 61.835 28.5923 61.381 28.4854C60.6151 28.306 59.8413 28.1473 59.0635 27.999C57.1488 27.6333 55.2143 27.3814 53.264 27.209C51.5742 27.0606 49.8805 26.9882 48.1868 26.9709C46.4892 26.9537 44.7995 27.0572 43.1058 27.1676C41.8859 27.2469 40.6778 27.378 39.4697 27.516C38.838 27.5884 38.2143 27.7402 37.5707 27.7402C36.5482 27.7402 35.8139 26.8881 36.0744 26.0222C36.2797 25.3426 36.8522 25.0666 37.5826 24.9631C38.9486 24.7699 40.3185 24.6043 41.6964 24.4767C43.319 24.3283 44.9456 24.2283 46.5721 24.1973C48.8264 24.1524 51.0768 24.2076 53.3232 24.3973C54.7839 24.5181 56.2368 24.694 57.6778 24.9114C59.1701 25.1356 60.6427 25.4564 62.1074 25.7945C63.7577 26.1775 64.7842 27.2227 65.021 28.7579C65.2105 29.993 64.417 31.3177 63.0826 31.9732C62.5496 32.2319 61.9732 32.4009 61.3928 32.5596C58.5424 33.3393 55.6485 33.9568 52.6836 34.2949C50.9939 34.4881 49.3002 34.6399 47.5946 34.6606C46.505 34.6744 45.4154 34.6744 44.3257 34.633C42.9005 34.5778 41.4792 34.4777 40.0698 34.3087C38.0958 34.0706 36.1455 33.7291 34.2189 33.2875C31.2776 32.6148 28.4154 31.7524 25.6715 30.6036C25.6005 30.5725 25.5254 30.5139 25.4425 30.5622C25.3399 30.6208 25.411 30.7105 25.4307 30.7795C25.6439 31.6799 25.9834 32.5424 26.3822 33.3945C27.3376 35.4264 28.7707 37.1755 30.4683 38.7728C31.2382 39.4972 32.1028 40.1389 32.924 40.8219C34.0531 41.7638 34.9177 42.8539 35.4665 44.1303C35.8415 44.9962 36.1337 45.8828 36.2008 46.8143C36.2126 46.9902 36.2955 47.0627 36.4969 47.0834C36.7022 47.1041 36.9075 47.1006 37.1088 47.1213C38.7354 47.2938 40.3698 47.4042 42.0043 47.487C43.7848 47.5767 45.5693 47.6629 47.3578 47.6733C48.2026 47.6767 49.0475 47.6595 49.8884 47.7147C50.5201 47.7561 51.0018 48.0045 51.2623 48.5185C51.5189 49.0187 51.4479 49.5017 51.0649 49.9329C50.7451 50.2883 50.3306 50.4883 49.7937 50.4918C47.5631 50.4987 45.3364 50.4297 43.1097 50.3228C42.1938 50.2779 41.2779 50.24 40.362 50.1779C39.0552 50.0882 37.7523 49.995 36.4495 49.8501C36.2995 49.8329 36.2126 49.8743 36.2008 50.0157C36.1692 50.3814 36.1258 50.7436 36.1021 51.1059C36.0429 51.92 35.9718 52.7342 35.9284 53.5483C35.8652 54.7972 35.9086 56.0426 36.0152 57.2845C36.1179 58.4747 36.2955 59.6614 36.5403 60.8378C36.7535 61.8831 37.022 62.9146 37.3496 63.9358C37.3852 64.0427 37.4365 64.1358 37.5944 64.1393C38.5933 64.1531 39.5921 64.2531 40.5909 64.2152C41.1634 64.1945 41.7358 64.1841 42.3123 64.1807C42.4267 64.1807 42.5412 64.1876 42.6518 64.2083C43.4532 64.3739 43.9586 65.0156 43.8678 65.74C43.7849 66.4093 43.1216 66.9268 42.328 66.9613C41.1634 67.013 39.9987 67.0061 38.838 66.9923C38.6288 66.9923 38.5617 67.0164 38.6485 67.2165C39.2249 68.5551 39.979 69.8212 40.7607 71.07C42.2807 73.4849 44.2033 75.6376 46.426 77.5867C46.4774 77.6315 46.5208 77.7143 46.5958 77.6971C46.6906 77.6798 46.6787 77.5833 46.6906 77.5143C46.7972 76.8415 46.9472 76.1723 47.0933 75.5065C47.6815 72.7708 48.4514 70.0799 49.466 67.4408C50.0898 65.8159 50.8004 64.2221 51.6927 62.6938C51.7914 62.5248 51.6927 62.5041 51.5466 62.4696C50.0977 62.1315 48.6606 61.7555 47.2788 61.238C45.7036 60.6446 44.1599 59.9961 42.8373 59.0094C42.3636 58.6541 41.9175 58.2711 41.5977 57.7951C41.1673 57.1534 41.3766 56.3427 42.0635 55.9253C42.7584 55.5078 43.6427 55.632 44.1915 56.2289C44.4639 56.5255 44.7639 56.7981 45.0995 57.043C45.7707 57.5225 46.5129 57.9055 47.2867 58.2332C49.0791 58.9956 50.9741 59.4993 52.9047 59.9133C53.4258 60.0237 53.4258 60.0237 53.7338 59.6235C55.2932 57.5915 57.204 55.8908 59.7071 54.742C61.7995 53.7795 63.4655 52.3823 64.95 50.8023C66.1344 49.5396 66.995 48.108 67.7688 46.6314C68.5505 45.1342 69.0717 43.5577 69.5691 41.9742C69.652 41.7051 69.6402 41.6948 69.3204 41.7017C68.1676 41.7258 67.0148 41.781 65.858 41.7672C63.9353 41.743 62.0324 41.5878 60.1453 41.2773C59.407 41.1566 58.6569 41.0565 57.9463 40.8288C57.1724 40.5805 56.7816 39.8732 57.0066 39.1867C57.2277 38.5037 57.9897 38.0793 58.7793 38.1828C59.107 38.2242 59.4188 38.3139 59.7347 38.376C62.064 38.8383 64.4328 38.9625 66.8134 38.9763C67.7412 38.9832 68.665 38.928 69.5889 38.8831C70.2126 38.8521 70.2205 38.8452 70.2995 38.3312C70.4219 37.5584 70.5008 36.7822 70.5679 36.0025C70.6232 35.3678 70.6469 34.7296 70.6824 34.0948C70.7298 33.2496 70.7298 32.4044 70.6943 31.5592C70.6509 30.4656 70.5679 29.372 70.4692 28.2784C70.4258 27.7782 70.2561 27.3435 69.8771 26.9675C69.3599 26.4569 68.7558 26.0429 68.0886 25.6979C66.4305 24.8389 64.6381 24.2766 62.7983 23.8178C60.6743 23.2865 58.5069 22.9484 56.3236 22.6897C54.5865 22.4827 52.8376 22.3723 51.0926 22.2723C50.0187 22.2102 48.9449 22.2309 47.871 22.2205L47.8789 22.224Z" fill="#0E2B72"/>
<path d="M22.2368 51.7119C22.2368 52.4916 21.5182 53.1125 20.622 53.1091C19.7338 53.1091 19.0073 52.4778 19.0073 51.7085C19.0073 50.9115 19.7338 50.2837 20.6497 50.2871C21.534 50.2906 22.2368 50.9219 22.2368 51.7119Z" fill="#FFB400"/>
<path d="M75.2905 47.6858C75.2905 46.9096 76.013 46.2852 76.9092 46.2852C77.7975 46.2852 78.516 46.9165 78.52 47.6927C78.52 48.4654 77.7975 49.1037 76.9092 49.1037C76.0051 49.1037 75.2905 48.4758 75.2905 47.6823V47.6858Z" fill="#FFB400"/>
<path d="M61.7436 68.0537C61.7436 68.8299 61.0408 69.4474 60.1525 69.4509C59.2524 69.4509 58.5457 68.8333 58.5299 68.0295C58.5181 67.2775 59.2642 66.6289 60.1525 66.6289C61.025 66.6289 61.7396 67.2671 61.7396 68.0537H61.7436Z" fill="#FFB400"/>
<path d="M47.9702 40.3856C47.9702 41.179 47.2675 41.8 46.3713 41.7966C45.4948 41.7966 44.7368 41.11 44.7447 40.3338C44.7526 39.599 45.4988 38.9746 46.3673 38.9746C47.2635 38.9746 47.9702 39.599 47.9662 40.3856H47.9702Z" fill="#FFB400"/>
</svg>
