<svg width="94" height="83" viewBox="0 0 94 83" fill="none" xmlns="http://www.w3.org/2000/svg">
<path d="M93.9991 41.0781C93.3996 42.1078 92.502 42.466 91.3133 42.4453C89.2062 42.4075 89.4904 42.1595 89.48 44.2809C89.4662 47.0739 89.4869 49.8703 89.4696 52.6667C89.4627 53.9478 88.4646 54.6779 87.4284 54.1923C86.7561 53.8789 86.5897 53.2934 86.5932 52.6047C86.6036 49.5982 86.5585 46.5883 86.6175 43.5818C86.6348 42.652 86.3541 42.4075 85.4288 42.4075C59.8979 42.4316 34.3671 42.4247 8.83284 42.4281C7.63375 42.4281 7.63028 42.4281 7.63028 43.6438C7.63028 46.4987 7.63028 49.3537 7.62682 52.2086C7.62682 52.5392 7.62682 52.8871 7.54018 53.2005C7.34957 53.8823 6.87826 54.299 6.14702 54.3025C5.41579 54.3059 4.92714 53.9133 4.74 53.2246C4.64643 52.8802 4.63257 52.5048 4.63257 52.1432C4.62564 49.2573 4.60138 46.3713 4.64297 43.4854C4.65683 42.6347 4.36226 42.4006 3.53398 42.4075C0.539736 42.4281 0.0406945 41.9012 0.0406945 38.9016C0.0406945 37.0488 0.0302979 35.1961 0.0441601 33.3433C0.0580224 31.4595 0.90362 30.6502 2.81315 30.633C4.80585 30.6157 4.61871 30.9016 4.62564 28.8318C4.63257 27.2821 4.51821 25.722 4.65683 24.1861C4.80931 22.4952 4.28948 20.9661 3.83549 19.4164C3.55824 18.4728 2.84434 17.9355 1.85319 17.7358C0.155058 17.3983 0.00603889 17.1951 0.00257333 15.5076C0.00257333 14.688 -0.0112889 13.8683 0.00950446 13.0487C0.0337634 11.9983 0.501615 11.4921 1.55168 11.3785C1.91557 11.3406 2.28292 11.3543 2.65027 11.3543C10.7528 11.3543 18.8553 11.3543 26.9577 11.3543C27.8241 11.3543 28.2573 10.9181 28.2573 10.0457C28.2573 8.92299 28.2504 7.79685 28.2573 6.67416C28.2955 2.94448 31.2204 0.0172192 34.9667 0.0103315C43.0068 -0.00344384 51.0504 -0.00344384 59.0905 0.0103315C62.8402 0.0172192 65.7825 2.9376 65.8033 6.65694C65.8241 10.3315 65.8275 14.0095 65.7963 17.6841C65.7894 18.4762 65.9558 18.8034 66.8499 18.7999C73.3617 18.762 79.8769 18.7758 86.3887 18.7896C86.9744 18.7896 87.3383 18.6691 87.5809 18.0698C88.1284 16.713 89.1473 15.7762 90.485 15.1736C90.7449 15.0565 91.1851 15.0324 91.1158 14.6398C91.0361 14.1714 90.5786 14.3402 90.2736 14.3367C84.0356 14.3264 77.7976 14.3298 71.5596 14.3298C71.161 14.3298 70.766 14.3333 70.3674 14.3298C69.1441 14.3126 68.4544 13.7754 68.4579 12.8455C68.4579 11.9639 69.1475 11.3647 70.3016 11.3612C77.6105 11.3475 84.9159 11.3543 92.2247 11.3578C92.9733 11.3578 93.6075 11.5954 93.9991 12.2807V16.8369C93.5832 17.5085 92.8936 17.6359 92.1901 17.7496C91.1885 17.9114 90.4885 18.49 90.2216 19.4336C89.7919 20.9592 89.3102 22.4642 89.4419 24.1207C89.584 25.8701 89.4731 27.6368 89.4731 29.3966C89.4731 30.6295 89.4765 30.6674 90.738 30.6226C92.048 30.5744 93.2575 30.6812 93.9957 31.9657V41.0781H93.9991ZM47.0303 30.633C48.5274 30.633 50.0245 30.633 51.5251 30.633C62.8367 30.633 74.1449 30.6261 85.4565 30.6502C86.309 30.6502 86.6417 30.4573 86.6175 29.5447C86.5551 27.2063 86.5759 24.868 86.6105 22.5296C86.6209 21.8512 86.3853 21.6342 85.7095 21.6377C79.3814 21.6549 73.0532 21.6549 66.7251 21.6377C66.077 21.6377 65.8483 21.8236 65.7617 22.4917C65.3216 25.8908 62.4763 28.3635 59.0212 28.3704C51.0434 28.3841 43.0657 28.3841 35.0845 28.3704C31.2343 28.3635 28.2851 25.4328 28.2608 21.6273C28.2469 19.5025 28.24 17.3742 28.2677 15.2493C28.2747 14.6088 28.1083 14.3195 27.3979 14.3229C19.4791 14.3402 11.5637 14.3333 3.64488 14.3402C3.38843 14.3402 3.03148 14.2472 2.9483 14.6053C2.86167 14.9738 3.22555 15.0289 3.46121 15.1288C4.78159 15.6833 5.83166 16.558 6.37921 17.8804C6.69458 18.6415 7.14857 18.8034 7.91099 18.7999C13.1059 18.7689 18.3042 18.7827 23.5026 18.7862C23.8387 18.7862 24.1853 18.762 24.5076 18.8344C25.2665 19.0031 25.6443 19.5128 25.62 20.2842C25.5958 21.0178 25.1938 21.4758 24.4729 21.6135C24.1472 21.6755 23.8041 21.6514 23.4679 21.6514C18.5468 21.6514 13.6257 21.6721 8.70461 21.6342C7.84861 21.6273 7.59909 21.8925 7.61642 22.7259C7.66494 24.9127 7.63375 27.0996 7.63375 29.2864C7.63375 30.1864 8.08081 30.6376 8.97492 30.6399C21.6624 30.6399 34.3463 30.6399 47.0338 30.6399L47.0303 30.633ZM47.058 25.4018C50.9395 25.4018 54.8209 25.4087 58.7023 25.4018C61.298 25.3949 62.8575 23.9864 62.8957 21.3862C62.965 16.589 62.965 11.7917 62.8957 6.99788C62.8575 4.36335 61.2114 2.87216 58.5568 2.86872C50.8875 2.86183 43.2182 2.86183 35.5454 2.86872C32.8007 2.86872 31.1823 4.40467 31.158 7.14253C31.1164 11.8468 31.1337 16.5545 31.1511 21.2588C31.1615 23.9037 32.9636 25.4879 35.4137 25.4293C39.2917 25.3363 43.1766 25.4052 47.0546 25.4052L47.058 25.4018ZM47.0407 39.556C50.6484 39.556 54.2525 39.556 57.8602 39.556C68.6173 39.556 79.3779 39.5491 90.135 39.5697C90.9148 39.5697 91.2371 39.3872 91.1955 38.5572C91.1331 37.2555 91.14 35.9434 91.1955 34.6416C91.2301 33.8461 90.9563 33.5017 90.1523 33.5981C89.9409 33.6222 89.7261 33.5981 89.5112 33.5981C61.2391 33.5981 32.967 33.5981 4.69495 33.5981C4.48008 33.5981 4.26522 33.6153 4.05382 33.5981C3.31565 33.5258 3.00375 33.8082 3.03494 34.5796C3.08346 35.8228 3.04534 37.0695 3.04881 38.3127C3.04881 39.137 3.47045 39.5502 4.31374 39.5525C18.5572 39.5525 32.8007 39.5525 47.0442 39.5525L47.0407 39.556Z" fill="#0E2B72"/>
<path d="M6.49056 83.0005C5.10087 82.5252 4.61569 81.5093 4.61916 80.1077C4.63995 73.0926 4.62956 66.0775 4.62956 59.0589C4.62956 58.9384 4.62956 58.8144 4.63302 58.6939C4.685 57.5505 5.24989 56.8824 6.1544 56.8962C7.05892 56.91 7.62727 57.5849 7.63074 58.7283C7.63767 64.9238 7.6342 71.1192 7.6342 77.3147C7.6342 79.1262 8.54102 80.0319 10.3547 80.0319C18.426 80.0319 26.4973 80.0319 34.5651 80.0319C35.785 80.0319 35.785 80.0319 35.7885 78.8403C35.7885 70.8231 35.7885 62.8058 35.7885 54.7851C35.7885 52.2642 37.0534 50.9487 39.6075 50.9314C44.5598 50.9005 49.5121 50.9005 54.4644 50.9314C57.0151 50.9487 58.2834 52.2642 58.2834 54.7851C58.2834 62.8024 58.2834 70.8196 58.2834 78.8403C58.2834 80.0319 58.2834 80.0319 59.5033 80.0319C68.0945 80.0319 76.6856 80.0181 85.2733 80.0526C86.2124 80.056 86.4585 79.7771 86.455 78.8644C86.4204 72.2729 86.4342 65.6849 86.4377 59.0934C86.4377 57.6297 86.9263 56.91 87.914 56.8962C88.9086 56.8824 89.4354 57.6159 89.4389 59.0589C89.4423 66.074 89.4319 73.0891 89.4493 80.1077C89.4527 81.5059 88.971 82.5252 87.5779 83.0005H6.49056ZM55.2961 67.0004C55.2961 63.0228 55.2961 59.0486 55.2961 55.0709C55.2961 53.9551 55.2268 53.8932 54.0936 53.8932C49.4185 53.8932 44.7435 53.8932 40.0719 53.8932C38.8243 53.8932 38.7827 53.931 38.7827 55.1674C38.7827 63.0572 38.7931 70.9505 38.7654 78.8403C38.7654 79.7323 38.9872 80.0595 39.9402 80.0491C44.6742 80.0044 49.4116 80.0044 54.1456 80.0491C55.109 80.0595 55.3239 79.7151 55.3169 78.8334C55.2788 74.8868 55.2996 70.9436 55.2996 66.997L55.2961 67.0004Z" fill="#0E2B72"/>
<path d="M72.881 74.8421C70.1605 74.8421 67.4401 74.8489 64.7231 74.8421C62.6125 74.8352 61.3268 73.5988 61.3164 71.5187C61.2991 66.7525 61.3026 61.9862 61.3164 57.2199C61.3234 55.2707 62.4046 54.0895 64.3557 53.9001C65.0835 53.8277 65.8217 53.8587 66.5529 53.8553C71.0755 53.8553 75.598 53.8553 80.1206 53.8553C80.5191 53.8553 80.9177 53.8553 81.3093 53.8932C83.3366 54.0964 84.4317 55.1846 84.4491 57.2165C84.4907 62.0137 84.4941 66.811 84.4491 71.6083C84.4283 73.6643 83.1252 74.8352 81.0459 74.8421C78.3254 74.8524 75.605 74.8421 72.8879 74.8421H72.881ZM72.8845 71.8597C75.3901 71.8597 77.8922 71.8321 80.3978 71.8769C81.24 71.8907 81.4964 71.6186 81.4895 70.7818C81.4514 66.4735 81.4583 62.1653 81.4895 57.857C81.4964 57.0856 81.3023 56.7929 80.4706 56.7963C75.4317 56.8308 70.3927 56.8273 65.3538 56.7963C64.5533 56.7929 64.2968 57.0271 64.3037 57.8295C64.3349 62.1687 64.3384 66.508 64.3037 70.8438C64.2968 71.6668 64.6018 71.8803 65.3781 71.8666C67.8802 71.8287 70.3858 71.8528 72.8914 71.8528L72.8845 71.8597Z" fill="#0E2B72"/>
<path d="M21.1529 74.8413C18.4637 74.8413 15.7744 74.8482 13.0851 74.8413C10.9157 74.8344 9.62993 73.6325 9.6126 71.4767C9.57794 66.7724 9.58141 62.0646 9.6126 57.3604C9.62646 55.0909 10.8082 53.9303 13.1613 53.8683C15.206 53.8167 17.2576 53.8511 19.3023 53.8511C22.4491 53.8511 25.5958 53.8476 28.746 53.8511C31.6571 53.8545 32.7591 54.9428 32.7591 57.7977C32.7591 62.168 32.7591 66.5416 32.7591 70.9119C32.7591 73.753 31.6779 74.8379 28.8534 74.8413C26.2854 74.8413 23.7209 74.8413 21.1529 74.8413ZM21.1668 71.8555C23.7001 71.8555 26.2369 71.8348 28.7702 71.8693C29.5396 71.8796 29.7683 71.6041 29.7649 70.8602C29.7406 66.49 29.7406 62.1232 29.7649 57.753C29.7683 57.0573 29.5604 56.7921 28.8257 56.7956C23.7244 56.8197 18.6265 56.8197 13.5252 56.7956C12.7975 56.7921 12.5791 57.0401 12.5826 57.7461C12.6068 62.1163 12.6138 66.4831 12.5791 70.8533C12.5722 71.6833 12.8876 71.8796 13.6569 71.8693C16.1591 71.8348 18.6647 71.8555 21.1703 71.8555H21.1668Z" fill="#0E2B72"/>
<path d="M50.3474 6.78766C52.1218 6.78766 53.8927 6.77044 55.6636 6.7911C57.8122 6.81521 58.8207 8.29606 58.0722 10.2935C57.2924 12.3701 56.5057 14.4433 55.7086 16.5131C54.9116 18.5863 53.91 19.275 51.7059 19.2785C49.2592 19.2819 46.816 19.2854 44.3693 19.2785C42.1098 19.2716 40.8552 18.2419 40.3943 16.0481C39.9334 13.851 39.4378 11.6607 39.0289 9.45319C38.8729 8.61978 38.5645 8.17552 37.66 8.3305C37.4832 8.36149 37.2926 8.34083 37.1124 8.32361C36.298 8.24096 35.7262 7.6555 35.7227 6.89786C35.7158 6.13333 36.2668 5.5341 37.1055 5.48933C37.8367 5.448 38.5749 5.44111 39.3027 5.49966C40.5191 5.59953 41.3785 6.4536 41.7008 7.9069C42.2345 10.3073 42.7232 12.7145 43.2257 15.1217C43.4752 16.3168 43.5792 16.4132 44.7886 16.4132C47.0205 16.4132 49.2523 16.3891 51.4806 16.427C52.2708 16.4407 52.7179 16.1825 52.9847 15.4248C53.5496 13.82 54.1561 12.2324 54.7972 10.6551C55.0848 9.94566 54.9012 9.75625 54.163 9.76313C51.2588 9.79069 48.3547 9.77347 45.454 9.77347C45.1803 9.77347 44.903 9.7838 44.6292 9.76313C43.6831 9.68737 43.0489 9.10536 43.0316 8.31672C43.0108 7.51086 43.6901 6.83243 44.6639 6.81176C46.5595 6.77388 48.4517 6.80143 50.3474 6.80143V6.79454V6.78766Z" fill="#FFB400"/>
<path d="M51.654 21.7178C51.6714 22.5512 50.9713 23.2055 50.0425 23.2296C49.138 23.2503 48.4033 22.6063 48.3756 21.766C48.3514 20.936 49.0514 20.2886 49.9906 20.2679C50.9228 20.2507 51.6367 20.8706 51.654 21.7178Z" fill="#FFB400"/>
<path d="M45.6748 21.7239C45.6852 22.5642 44.9783 23.2254 44.0633 23.2254C43.1346 23.2254 42.4207 22.5917 42.4103 21.7583C42.3999 20.9111 43.0965 20.2671 44.0218 20.2637C44.9575 20.2602 45.661 20.8801 45.6714 21.7204L45.6748 21.7239Z" fill="#FFB400"/>
<path d="M41.1874 68.4566C40.5671 68.4635 39.9606 68.4222 39.517 67.9056C39.011 67.3167 39.0561 66.473 39.6071 65.9392C40.2656 65.3055 41.988 65.2848 42.6776 65.9013C43.2252 66.3903 43.3222 67.1927 42.889 67.7885C42.4662 68.3705 41.8459 68.4704 41.1839 68.4566H41.1874Z" fill="#0E2B72"/>
</svg>
