<svg width="68" height="78" viewBox="0 0 68 78" fill="none" xmlns="http://www.w3.org/2000/svg">
<path d="M61.3058 0C61.3058 0.138426 61.4275 0.104868 61.4946 0.134231C62.3 0.457225 62.7404 1.25842 62.5475 2.06381C62.3419 2.92373 61.5491 3.4984 60.6934 3.41031C59.9635 3.33481 59.2798 2.64687 59.2043 1.9086C59.1204 1.09902 59.6028 0.356552 60.3662 0.109063C60.4585 0.0796998 60.555 0.0713104 60.6263 0L61.3058 0Z" fill="#FFB400"/>
<path d="M31.6708 1.71179C33.118 1.7034 34.561 1.75793 36.004 1.83763C37.6567 1.92991 39.2968 2.11448 40.937 2.33261C42.9756 2.60107 45.0017 2.93665 46.99 3.44421C49.1419 3.99372 51.2686 4.62293 53.2821 5.58772C54.9474 6.38472 56.4827 7.3537 57.6991 8.77571C58.5632 9.78664 59.0037 10.957 59.1253 12.2699C59.2805 13.9604 59.3812 15.6551 59.3938 17.3539C59.4106 19.1828 59.3518 21.0075 59.1841 22.8322C59.1337 23.4027 59.096 23.9774 59.0163 24.5479C58.9911 24.7199 59.0037 24.8373 59.2386 24.7786C60.6984 24.422 62.133 24.0026 63.4585 23.2811C63.8192 23.0839 64.159 22.8532 64.4317 22.5386C64.6833 22.2492 64.6792 22.0982 64.4401 21.8045C64.1632 21.469 63.8108 21.2299 63.4459 21.0075C63.2152 20.8691 62.9719 20.7475 62.7706 20.5629C62.1455 19.984 62.0407 19.0864 62.5147 18.3774C62.9761 17.6979 63.8402 17.4546 64.5953 17.8279C65.5684 18.3061 66.4325 18.9311 67.1121 19.7869C68.2237 21.1879 68.2908 22.74 67.3176 24.2459C66.6633 25.2568 65.6985 25.886 64.6666 26.4313C62.9719 27.329 61.1472 27.8324 59.2763 28.2057C59.0792 28.2434 58.8862 28.2938 58.6849 28.3148C58.4416 28.3399 58.3283 28.4658 58.2822 28.7091C58.0557 29.8291 57.762 30.9281 57.4432 32.0271C56.512 35.2612 55.1571 38.2982 53.2024 41.0416C51.5203 43.4074 49.4733 45.4125 47.0319 46.9981C46.4866 47.3546 45.9035 47.6525 45.3289 47.9671C43.911 48.7389 42.7911 49.8547 41.7466 51.0544C41.6207 51.197 41.5075 51.3522 41.3858 51.499C41.2768 51.6333 41.2768 51.6962 41.4781 51.7171C43.1602 51.8891 44.8465 51.9814 46.5369 51.9143C48.4539 51.8388 50.3542 51.6081 52.1831 50.9789C52.72 50.7943 53.2317 50.5552 53.7015 50.228C53.8316 50.1357 53.9406 50.0267 54.0413 49.9092C54.2804 49.6198 54.3056 49.3261 54.1252 48.9906C53.8777 48.525 53.4918 48.1852 53.1185 47.8328C52.8207 47.5518 52.5816 47.2414 52.4851 46.8345C52.3341 46.1969 52.6025 45.4838 53.1562 45.0853C53.689 44.7036 54.4524 44.6448 54.9725 45.0433C56.0758 45.8865 56.9944 46.889 57.4307 48.2481C57.9382 49.8169 57.4768 51.1467 56.3946 52.3044C55.6018 53.1475 54.5908 53.6635 53.5338 54.0872C52.2166 54.6157 50.8282 54.8842 49.4313 55.0771C47.9128 55.2869 46.3817 55.3875 44.8465 55.3456C43.0553 55.2952 41.2684 55.161 39.494 54.8716C39.322 54.8422 39.2423 54.8884 39.171 55.0352C37.9461 57.5352 36.9058 60.1066 36.1047 62.7744C35.207 65.7737 34.5191 68.8232 33.9863 71.9022C33.7304 73.3661 33.5165 74.8427 33.3319 76.3192C33.2061 77.3176 32.2791 77.9636 31.2891 77.7916C30.9913 77.737 30.7564 77.5818 30.5383 77.3931C29.1372 76.185 27.8159 74.8972 26.5658 73.5339C24.3468 71.1136 22.4802 68.4373 20.882 65.5765C19.7997 63.6344 18.8895 61.6083 18.1764 59.4984C18.1051 59.2886 18.0044 59.1922 17.7779 59.1628C14.7577 58.7391 11.8382 57.9757 9.12416 56.5453C7.94964 55.9287 6.88837 55.1568 6.0704 54.0914C4.49318 52.0276 4.60644 49.6911 6.35145 47.7615C7.64762 46.3311 9.2542 45.3831 11.0412 44.7203C11.9556 44.3806 12.8407 44.8126 13.1847 45.7145C13.5202 46.5912 13.1427 47.4972 12.2492 47.8664C11.2886 48.2649 10.3532 48.7053 9.53105 49.3555C9.19967 49.6156 8.89765 49.9008 8.65855 50.249C8.24747 50.8404 8.24327 51.3774 8.66694 51.9646C9.15353 52.6358 9.81629 53.1014 10.5294 53.4999C12.3583 54.5234 14.3298 55.1317 16.3769 55.5343C16.5069 55.5595 16.6369 55.5763 16.7628 55.6099C16.9599 55.6602 17.0186 55.6057 16.9683 55.4001C16.8131 54.7499 16.6579 54.0956 16.5237 53.437C16.1587 51.5913 15.8903 49.733 15.7393 47.8538C15.5966 46.0627 15.626 44.2673 15.6596 42.472C15.6847 41.138 15.8693 39.8167 15.9867 38.4912C16.0035 38.3108 15.9406 38.2647 15.7812 38.2437C14.4305 38.0423 13.0798 37.82 11.7459 37.5222C9.21225 36.9559 6.69542 36.3309 4.32539 35.2277C3.25574 34.7285 2.23642 34.1412 1.37231 33.3233C0.499802 32.5011 -0.0580975 31.5321 0.00482346 30.2821C0.0467707 29.4683 0.36557 28.7678 0.877327 28.1428C1.54429 27.3248 2.37904 26.7208 3.29349 26.2174C3.6836 26.0035 4.06952 25.7853 4.48899 25.6301C5.40763 25.282 6.48148 25.9531 6.6283 26.9641C6.74575 27.7611 6.42695 28.3861 5.68868 28.7762C5.15176 29.0614 4.58127 29.2879 4.09049 29.6613C3.88914 29.8165 3.70038 29.9843 3.53679 30.1772C3.33124 30.4205 3.33124 30.5799 3.52001 30.8316C3.82203 31.2343 4.2415 31.4818 4.66936 31.7209C6.17527 32.5766 7.81541 33.0674 9.47652 33.5204C11.469 34.0657 13.4951 34.4474 15.5253 34.8166C15.9238 34.8879 15.9322 34.8879 15.8567 34.4936C15.5002 32.6311 14.6318 31.0707 13.1679 29.8416C10.349 27.4674 8.10485 24.6276 6.41437 21.3473C5.31954 19.2248 4.67356 16.968 4.3212 14.619C4.17019 13.608 4.14922 12.5929 4.34217 11.5778C4.60644 10.1558 5.29857 8.99803 6.36823 8.04583C7.91189 6.66996 9.70304 5.71775 11.6158 4.97109C13.8768 4.0902 16.2133 3.47777 18.5875 2.98279C20.4541 2.59268 22.3418 2.32422 24.2336 2.11448C25.2529 2.00542 26.2806 1.9425 27.3041 1.87538C28.7555 1.7789 30.2069 1.73696 31.6624 1.72857L31.6708 1.71179ZM31.7463 5.13469C29.6574 5.11371 27.5684 5.21019 25.4878 5.39476C23.9441 5.52899 22.4047 5.68 20.8778 5.94427C18.0925 6.42247 15.3491 7.06426 12.719 8.12553C11.5613 8.59114 10.4413 9.13226 9.41779 9.85795C8.90604 10.2229 8.43623 10.6382 8.0587 11.1457C7.95803 11.28 7.87413 11.4016 8.10485 11.5149C9.24581 12.0812 10.3994 12.6139 11.5697 13.1089C14.0236 14.145 16.5656 14.9042 19.1538 15.5208C20.8652 15.9277 22.5976 16.2046 24.3426 16.4353C25.6388 16.6073 26.9392 16.6954 28.2395 16.7625C29.4099 16.8212 30.5886 16.838 31.7631 16.796C33.097 16.7499 34.4226 16.6534 35.7439 16.5024C38.202 16.2214 40.635 15.7977 43.0176 15.1056C44.0285 14.8119 45.031 14.4805 46.0336 14.1575C46.2391 14.0904 46.4447 14.0107 46.5453 13.7842C46.7509 13.3312 46.5747 12.8782 46.0923 12.7481C45.2785 12.53 44.4564 12.337 43.63 12.1567C41.5956 11.712 39.5401 11.4058 37.4679 11.1961C35.6726 11.0157 33.8731 10.9276 32.0735 10.9066C30.2698 10.8857 28.4744 11.0115 26.6749 11.1457C25.3787 11.2422 24.0952 11.4016 22.8116 11.5694C22.1404 11.6575 21.4776 11.8421 20.7939 11.8421C19.7075 11.8421 18.9272 10.806 19.2041 9.75308C19.4222 8.92672 20.0305 8.59114 20.8065 8.4653C22.2579 8.2304 23.7134 8.02905 25.1774 7.87384C26.9014 7.69347 28.6297 7.57182 30.3579 7.53407C32.7531 7.47954 35.1441 7.54666 37.5309 7.77737C39.0829 7.92418 40.6266 8.13811 42.1576 8.40238C43.7433 8.67504 45.3079 9.06515 46.8641 9.47623C48.6175 9.94184 49.7082 11.2128 49.9598 13.0795C50.1612 14.5812 49.3181 16.192 47.9002 16.989C47.3339 17.3036 46.7215 17.5091 46.1049 17.7021C43.0763 18.6501 40.0016 19.401 36.8513 19.812C35.056 20.0469 33.2564 20.2315 31.4443 20.2567C30.2866 20.2735 29.1288 20.2735 27.9711 20.2231C26.4568 20.156 24.9467 20.0344 23.4492 19.8288C21.3518 19.5394 19.2796 19.1241 17.2326 18.5872C14.1075 17.7692 11.0663 16.7205 8.15099 15.3237C8.07548 15.2859 7.99578 15.2146 7.90769 15.2733C7.79863 15.3447 7.87413 15.4537 7.89511 15.5376C8.12162 16.6324 8.48237 17.6811 8.90604 18.7172C9.92116 21.1879 11.4438 23.3146 13.2476 25.2568C14.0656 26.1377 14.9842 26.9179 15.8567 27.7485C17.0564 28.8936 17.975 30.2192 18.5581 31.7712C18.9566 32.8241 19.267 33.9021 19.3383 35.0347C19.3509 35.2486 19.439 35.3367 19.6529 35.3619C19.8711 35.3871 20.0892 35.3829 20.3031 35.408C22.0313 35.6178 23.768 35.752 25.5046 35.8527C27.3964 35.9617 29.2924 36.0666 31.1926 36.0792C32.0903 36.0834 32.988 36.0624 33.8815 36.1295C34.5526 36.1799 35.0644 36.4819 35.3412 37.1069C35.6139 37.7151 35.5384 38.3024 35.1315 38.8267C34.7917 39.2588 34.3513 39.5021 33.7808 39.5063C31.4108 39.5147 29.0449 39.4308 26.6791 39.3008C25.7059 39.2462 24.7327 39.2001 23.7596 39.1246C22.3711 39.0155 20.9869 38.9022 19.6026 38.7261C19.4432 38.7051 19.3509 38.7554 19.3383 38.9274C19.3048 39.3721 19.2586 39.8125 19.2335 40.253C19.1705 41.2429 19.095 42.2329 19.0489 43.2228C18.9818 44.7413 19.0279 46.2556 19.1412 47.7657C19.2502 49.2129 19.439 50.6559 19.6991 52.0863C19.9256 53.3573 20.2108 54.6115 20.559 55.8531C20.5967 55.9832 20.6513 56.0964 20.8191 56.1006C21.8803 56.1174 22.9416 56.2391 24.0029 56.1929C24.6111 56.1678 25.2193 56.1552 25.8318 56.151C25.9534 56.151 26.0751 56.1594 26.1925 56.1845C27.044 56.3859 27.581 57.1661 27.4845 58.047C27.3964 58.8608 26.6917 59.49 25.8485 59.5319C24.6111 59.5948 23.3737 59.5865 22.1404 59.5697C21.9181 59.5697 21.8468 59.599 21.9391 59.8423C22.5515 61.4699 23.3527 63.0094 24.1832 64.5278C25.7982 67.4642 27.841 70.0817 30.2027 72.4517C30.2572 72.5062 30.3033 72.6069 30.383 72.5859C30.4837 72.5649 30.4711 72.4475 30.4837 72.3636C30.597 71.5456 30.7564 70.7318 30.9116 69.9223C31.5366 66.5958 32.3546 63.324 33.4326 60.115C34.0954 58.1393 34.8504 56.2013 35.7984 54.343C35.9033 54.1375 35.7984 54.1123 35.6432 54.0704C34.1038 53.6593 32.5769 53.2021 31.1087 52.5729C29.435 51.8514 27.7949 51.0628 26.3897 49.8631C25.8863 49.431 25.4123 48.9654 25.0725 48.3865C24.6153 47.6063 24.8376 46.6206 25.5675 46.113C26.3058 45.6054 27.2454 45.7564 27.8285 46.4821C28.1179 46.8429 28.4367 47.1743 28.7932 47.4721C29.5063 48.0551 30.295 48.5208 31.1171 48.9193C33.0215 49.8463 35.035 50.4587 37.0862 50.9621C37.6399 51.0963 37.6399 51.0963 37.9671 50.6097C39.624 48.139 41.6543 46.071 44.3137 44.6742C46.5369 43.5039 48.3071 41.805 49.8843 39.8838C51.1428 38.3485 52.0572 36.6077 52.8794 34.8124C53.7099 32.9919 54.2636 31.0749 54.7922 29.1495C54.8803 28.8223 54.8677 28.8097 54.5279 28.8181C53.303 28.8475 52.0782 28.9146 50.8491 28.8978C48.8063 28.8685 46.7844 28.6797 44.7794 28.3022C43.9949 28.1554 43.1979 28.0337 42.4429 27.7569C41.6207 27.4548 41.2054 26.5949 41.4445 25.7602C41.6795 24.9296 42.489 24.4137 43.328 24.5395C43.6761 24.5898 44.0075 24.6989 44.3431 24.7744C46.818 25.3365 49.3348 25.4875 51.8643 25.5043C52.85 25.5127 53.8316 25.4456 54.8132 25.391C55.4759 25.3533 55.4843 25.3449 55.5682 24.7199C55.6982 23.7803 55.7821 22.8364 55.8534 21.8884C55.9122 21.1166 55.9373 20.3406 55.9751 19.5687C56.0254 18.541 56.0254 17.5133 55.9877 16.4856C55.9415 15.1559 55.8534 13.8262 55.7486 12.4964C55.7024 11.8882 55.5221 11.3597 55.1194 10.9024C54.5699 10.2816 53.9281 9.77825 53.2192 9.35878C51.4574 8.31429 49.553 7.63055 47.5982 7.07265C45.3414 6.42666 43.0385 6.01558 40.7189 5.70097C38.8732 5.44929 37.0149 5.31506 35.1608 5.19341C34.0199 5.11791 32.8789 5.14308 31.7379 5.13049L31.7463 5.13469Z" fill="#0E2B72"/>
<path d="M4.5016 40.9903C4.5016 41.9383 3.73816 42.6933 2.78596 42.6891C1.84214 42.6891 1.07031 41.9215 1.07031 40.9861C1.07031 40.0171 1.84214 39.2536 2.81532 39.2578C3.75494 39.262 4.5016 40.0297 4.5016 40.9903Z" fill="#FFB400"/>
<path d="M60.8711 36.0956C60.8711 35.1518 61.6387 34.3926 62.5909 34.3926C63.5347 34.3926 64.2982 35.1602 64.3024 36.104C64.3024 37.0436 63.5347 37.8197 62.5909 37.8197C61.6303 37.8197 60.8711 37.0562 60.8711 36.0914V36.0956Z" fill="#FFB400"/>
<path d="M46.4776 60.8613C46.4776 61.8051 45.731 62.556 44.7872 62.5602C43.8308 62.5602 43.0799 61.8093 43.0631 60.832C43.0506 59.9175 43.8434 59.1289 44.7872 59.1289C45.7142 59.1289 46.4734 59.9049 46.4734 60.8613H46.4776Z" fill="#FFB400"/>
<path d="M31.8432 27.2196C31.8432 28.1843 31.0965 28.9394 30.1443 28.9352C29.2131 28.9352 28.4077 28.1004 28.4161 27.1566C28.4245 26.2632 29.2173 25.5039 30.1401 25.5039C31.0923 25.5039 31.8432 26.2632 31.839 27.2196H31.8432Z" fill="#FFB400"/>
</svg>
