<svg width="100" height="100" viewBox="0 0 100 100" fill="none" xmlns="http://www.w3.org/2000/svg">
<path d="M47.7342 10.0127C48.2957 10.4728 48.4393 11.068 48.4393 11.7814C48.4224 18.6959 48.4308 25.6061 48.4266 32.5206C48.4266 33.9305 48.0382 34.3189 46.628 34.3189C43.3054 34.3189 39.9784 34.34 36.6557 34.3062C35.9169 34.2978 35.6425 34.4751 35.6467 35.2729C35.6763 41.4149 35.6763 47.5569 35.6467 53.6988C35.6467 54.4291 35.8451 54.674 36.5882 54.6486C37.7872 54.6106 38.2094 55.075 38.2094 56.2823C38.2137 58.9417 38.1799 61.6011 38.2179 64.2605C38.2517 66.6836 37.5466 68.8702 36.2251 70.8711C34.5237 73.4418 32.818 76.0126 31.087 78.5665C30.7112 79.1195 30.5297 79.6683 30.5381 80.3394C30.5677 82.9735 30.5339 85.6034 30.5634 88.2375C30.5719 88.9256 30.4157 89.2464 29.6388 89.2168C27.5996 89.1451 27.9036 89.4406 27.8909 87.4861C27.8741 84.8267 27.9036 82.1673 27.8741 79.5079C27.8656 78.8113 28.0345 78.2246 28.4271 77.6463C30.2004 75.0248 31.9145 72.3654 33.7088 69.7609C34.9796 67.9162 35.5538 65.8984 35.5411 63.6822C35.5327 61.8206 35.52 59.959 35.5538 58.0974C35.5665 57.4642 35.3512 57.2616 34.7263 57.2785C32.8306 57.3292 33.1177 57.0801 33.1008 58.8784C33.084 60.7146 33.084 62.5467 33.1008 64.3829C33.1135 65.8224 32.6955 67.1183 31.8258 68.2454C30.5423 69.9086 29.2082 71.5296 27.9078 73.1801C27.4941 73.7078 26.9748 73.8978 26.3119 73.8893C23.6521 73.8682 20.9922 73.8766 18.3324 73.8809C14.7564 73.8893 12.6834 75.9662 12.675 79.5374C12.6707 82.4079 12.6496 85.2826 12.6876 88.1531C12.6961 88.9213 12.5272 89.2506 11.6786 89.2126C9.76602 89.1324 10.0193 89.411 10.0109 87.5536C9.99823 84.7085 9.99401 81.8633 10.0109 79.0182C10.032 75.6791 11.6068 73.3025 14.5917 71.8715C15.149 71.6056 15.225 71.4494 14.8788 70.9175C13.4349 68.7013 13.4856 65.8899 14.9422 63.7835C16.4325 61.6391 19.0881 60.5711 21.5791 61.1157C24.2347 61.6982 26.1895 63.6822 26.6412 66.3458C26.8777 67.7389 26.6961 69.1024 26.0206 70.373C25.8982 70.6051 25.7757 70.8331 25.6322 71.099C26.0206 71.2721 26.1473 70.9935 26.295 70.8078C27.3632 69.4823 28.4229 68.1526 29.4868 66.8229C30.1624 65.9744 30.4368 64.9993 30.4326 63.927C30.4283 61.3732 30.4283 58.8235 30.4326 56.2696C30.4326 55.0623 30.859 54.5938 32.058 54.636C32.8053 54.6613 33.0037 54.408 32.9995 53.682C32.9742 47.54 32.97 41.398 32.9995 35.256C32.9995 34.454 32.7251 34.2851 31.9905 34.2936C28.6382 34.3273 25.2902 34.3104 21.938 34.3062C20.6334 34.3062 20.2196 33.8925 20.2196 32.5882C20.2196 25.623 20.2281 18.6537 20.207 11.6885C20.207 10.992 20.3927 10.4432 20.912 10H47.7215L47.7342 10.0127ZM34.3252 31.6552C37.859 31.6552 41.3928 31.6468 44.9266 31.6637C45.5219 31.6637 45.7752 31.5328 45.7752 30.8659C45.7541 25.0489 45.7541 19.2278 45.7752 13.4108C45.7752 12.7565 45.5388 12.6045 44.935 12.6088C37.8675 12.6256 30.7999 12.6256 23.7323 12.6088C23.0526 12.6088 22.8837 12.8494 22.8879 13.4868C22.909 19.2531 22.909 25.0151 22.8879 30.7814C22.8879 31.5033 23.1328 31.6721 23.8125 31.6679C27.321 31.6384 30.8252 31.6552 34.3337 31.6552H34.3252ZM20.2745 71.2088C22.2926 71.2214 24.0532 69.4612 24.0447 67.4434C24.0363 65.4425 22.3602 63.7455 20.3378 63.6907C18.3366 63.6358 16.5592 65.375 16.5254 67.4181C16.4916 69.4274 18.2437 71.1961 20.2703 71.2088H20.2745Z" fill="#0E2B72"/>
<path d="M89.2238 66.1711C88.7678 68.5181 87.5941 70.5232 86.2515 72.4608C84.8118 74.5334 83.4524 76.6652 82.0338 78.7547C81.734 79.1938 81.6074 79.637 81.6116 80.1647C81.6285 82.8747 81.5989 85.589 81.6327 88.2991C81.6411 88.9914 81.4343 89.2362 80.725 89.2151C78.6478 89.1518 78.9729 89.4557 78.9602 87.4253C78.9391 84.7405 78.9686 82.0558 78.9475 79.371C78.9433 78.7547 79.1037 78.2397 79.4457 77.7332C81.2443 75.0653 82.9922 72.3679 84.8118 69.7169C86.0615 67.8933 86.6188 65.8967 86.6146 63.7143C86.6104 61.8527 86.5977 59.9911 86.6231 58.1337C86.6315 57.5427 86.4964 57.2641 85.8293 57.2852C83.8788 57.3443 84.1954 57.0784 84.1785 58.94C84.1617 60.7467 84.1574 62.5534 84.1785 64.3643C84.1954 65.8334 83.7648 67.1504 82.874 68.2986C81.6031 69.9365 80.2901 71.5405 79.0024 73.1657C78.5929 73.685 78.0905 73.9087 77.4192 73.9045C74.734 73.8791 72.0488 73.8918 69.3636 73.896C65.8425 73.9045 63.7569 75.994 63.7484 79.5104C63.74 82.4357 63.7231 85.3568 63.7611 88.2822C63.7695 89.0294 63.5162 89.2447 62.7985 89.2235C60.8142 89.1645 61.097 89.4346 61.0844 87.5393C61.0675 84.6941 61.0633 81.8489 61.0844 79.008C61.1139 75.6732 62.7014 73.305 65.6863 71.8782C66.1845 71.6419 66.3112 71.4983 65.9776 70.9791C64.5042 68.6954 64.521 65.8756 66.0367 63.786C67.6369 61.5825 69.8407 60.6623 72.5175 61.1182C75.2026 61.5741 77.149 63.5496 77.6809 66.2302C77.968 67.6781 77.778 69.088 77.0814 70.4092C76.959 70.6372 76.845 70.8694 76.7014 71.1437C77.0983 71.2788 77.2292 71.0044 77.3769 70.8187C78.4451 69.4932 79.5048 68.1635 80.5688 66.8338C81.2274 66.0106 81.506 65.0609 81.5018 64.0182C81.5018 61.439 81.4976 58.8598 81.5018 56.2848C81.5018 55.0902 81.9409 54.6554 83.1399 54.6511C84.5754 54.6427 86.0109 54.6765 87.4463 54.6385C88.1599 54.6174 88.7552 54.782 89.2154 55.3434V66.1922L89.2238 66.1711ZM71.3564 63.6889C69.3341 63.6805 67.5778 65.445 67.5904 67.4628C67.6031 69.4679 69.2834 71.1606 71.3015 71.2071C73.3027 71.2577 75.0802 69.5101 75.1055 67.4754C75.1309 65.4661 73.3787 63.6974 71.3522 63.6889H71.3564Z" fill="#0E2B72"/>
<path d="M51.2597 71.155C51.6185 71.2521 51.7283 70.9566 51.8803 70.7666C52.9189 69.4834 53.9406 68.1916 54.975 66.9126C55.6758 66.0472 55.9798 65.0594 55.9756 63.9577C55.9672 61.4333 55.9714 58.9048 55.9756 56.3805C55.9756 55.055 56.3345 54.6708 57.6686 54.6455C58.1921 54.6371 58.361 54.54 58.0655 54.025C57.1493 52.404 56.25 50.7746 55.3592 49.1452C55.127 48.7188 54.8188 48.6091 54.367 48.7484C53.8857 48.8961 53.396 49.0185 52.8809 49.0101C51.7536 48.989 50.7488 48.3684 50.4406 47.2962C49.706 44.7423 49.0009 42.18 48.3718 39.6008C48.0087 38.1107 48.8363 36.857 50.3519 36.4475C53.0202 35.7257 55.6927 35.0165 58.3737 34.3537C61.9792 33.463 64.4322 31.1878 66.1632 28.0091C66.2772 27.7981 66.387 27.587 66.501 27.3759C66.805 26.8061 67.2651 26.4979 67.928 26.5739C68.5951 26.6499 68.9624 27.0762 69.127 27.6925C70.8707 34.1849 72.6059 40.6772 74.3454 47.1696C74.5143 47.7943 74.3961 48.3516 73.8683 48.7441C73.2772 49.1831 72.6693 49.0523 72.0866 48.6724C70.2121 47.4524 68.2066 46.5997 65.9563 46.3549C64.9937 46.2493 64.0353 46.2493 63.1023 46.4689C61.5275 46.8403 59.9654 47.2878 58.3948 47.6888C57.8924 47.8155 57.8206 48.0307 58.0739 48.4782C59.121 50.3271 60.1511 52.1887 61.1686 54.0587C61.4008 54.4851 61.6964 54.6497 62.1861 54.6539C63.3303 54.6666 63.7314 55.1098 63.7356 56.2876C63.7398 58.947 63.706 61.6064 63.744 64.2658C63.7778 66.6889 63.077 68.8755 61.7555 70.8764C60.1131 73.3627 58.4792 75.8491 56.7904 78.3016C56.2669 79.0615 56.0474 79.8255 56.0643 80.7416C56.1107 83.2659 56.0558 85.7944 56.0938 88.3188C56.1023 89.028 55.8701 89.2432 55.1777 89.2221C53.13 89.163 53.434 89.4501 53.4213 87.4998C53.4044 84.9206 53.4466 82.3414 53.4002 79.7622C53.3833 78.8631 53.6282 78.1286 54.1306 77.3941C55.8405 74.8951 57.4702 72.3327 59.197 69.8422C60.5058 67.9552 61.0969 65.891 61.08 63.62C61.0631 61.7837 61.0589 59.9517 61.0884 58.1154C61.1011 57.4949 60.9069 57.2712 60.2693 57.288C58.361 57.3387 58.6523 57.0896 58.6397 58.8837C58.6228 60.7199 58.6228 62.552 58.6397 64.3883C58.6566 65.8277 58.2386 67.1237 57.3689 68.2507C56.0854 69.9139 54.7512 71.5349 53.4509 73.1854C53.0371 73.7089 52.5263 73.9073 51.855 73.9031C49.1951 73.882 46.5353 73.8904 43.8754 73.8946C40.2952 73.8988 38.2138 75.9757 38.2096 79.5427C38.2053 82.4681 38.1884 85.3934 38.2222 88.3188C38.2307 89.0237 38.0027 89.2432 37.3061 89.2221C35.2584 89.163 35.5624 89.4501 35.5497 87.4998C35.5328 84.6547 35.5202 81.8095 35.5497 78.9644C35.5835 75.6633 37.1625 73.3121 40.1137 71.8895C40.6499 71.632 40.7723 71.4969 40.4176 70.9397C38.9231 68.5673 38.9568 66.1485 40.481 63.8142C41.9038 61.6317 44.6143 60.5849 47.101 61.1252C49.7609 61.7077 51.7114 63.6791 52.1716 66.3427C52.4165 67.7653 52.2181 69.1499 51.5256 70.4416C51.4074 70.6611 51.1668 70.8426 51.2512 71.1508L51.2597 71.155ZM67.2356 31.4706C66.9738 31.783 66.8092 31.9856 66.6403 32.184C64.7277 34.4593 62.4141 36.1182 59.4925 36.857C58.5679 37.0934 57.6517 37.3846 56.7229 37.5915C56.1276 37.7266 56.022 38.0009 56.1783 38.5582C56.6216 40.1158 57.0184 41.6861 57.4448 43.248C57.9219 44.9872 57.9473 45.0421 59.6529 44.4975C63.2374 43.3493 66.7838 43.172 70.3176 44.6537C70.4612 44.7128 70.6258 44.8352 70.7567 44.6959C70.9045 44.5355 70.7736 44.3455 70.7272 44.1725C69.8363 40.8376 68.9455 37.5028 68.042 34.1722C67.8098 33.3111 67.662 32.4162 67.2398 31.4664L67.2356 31.4706ZM49.5793 67.4529C49.5793 65.4267 47.8188 63.6749 45.8007 63.696C43.7952 63.7171 42.1022 65.3971 42.06 67.4149C42.0178 69.42 43.7614 71.193 45.8007 71.2141C47.8145 71.2352 49.5793 69.4791 49.5793 67.4571V67.4529ZM53.4973 46.1523C53.7337 46.0889 54.1137 45.9623 54.5021 45.8905C55.1354 45.7766 55.2283 45.4642 55.0552 44.869C54.5866 43.2649 54.1855 41.6397 53.7464 40.0272C53.282 38.3133 53.2524 38.3133 51.5848 38.917C51.1963 39.0563 51.0823 39.2631 51.1794 39.6346C51.7325 41.6861 52.2898 43.7335 52.8429 45.7808C52.9147 46.0425 53.0413 46.2156 53.4973 46.1523Z" fill="#0E2B72"/>
<path d="M17.1547 58.5695C15.6516 58.5695 15.2843 58.0756 16.1667 56.8177C17.0364 55.5808 17.0533 54.6606 16.1794 53.4195C15.4448 52.3769 15.6094 51.0809 16.1794 49.9116C16.2512 49.7681 16.3736 49.6457 16.42 49.498C16.8802 48.0416 18.0539 48.2105 19.1897 48.2527C19.6372 48.2696 19.7216 48.5271 19.6836 48.8901C19.6076 49.5993 19.3036 50.2198 18.8688 50.7644C18.3579 51.4018 18.3706 51.9885 18.8519 52.6428C20.0805 54.3102 20.0045 55.9777 18.8266 57.6535C18.1933 58.5526 18.2186 58.5695 17.1589 58.5695H17.1547Z" fill="#FFB400"/>
<path d="M24.611 48.2502C26.2026 48.2502 26.5404 48.6259 25.7467 49.829C24.8389 51.1967 24.8178 52.2478 25.7551 53.6028C26.4222 54.5653 26.2153 55.8021 25.6833 56.8912C25.6031 57.0559 25.4976 57.212 25.3962 57.3682C24.5898 58.6008 24.0579 58.8119 22.6055 58.5713C22.1411 58.4953 22.1411 58.2083 22.1749 57.879C22.2509 57.1994 22.5422 56.6 22.9728 56.0807C23.5175 55.4222 23.4626 54.8228 22.9728 54.1389C21.816 52.5222 21.8625 51.0067 22.9137 49.3182C23.3655 48.5922 23.7581 47.9632 24.611 48.2545V48.2502Z" fill="#FFB400"/>
<path d="M79.1207 29.7641C79.1207 30.1145 78.9138 30.2116 78.7365 30.3171C77.1997 31.2078 75.6544 32.09 74.1219 32.9892C73.7377 33.2129 73.5012 33.1327 73.2901 32.7528C72.032 30.4733 71.9729 31.1613 73.9572 29.9329C75.038 29.2618 76.1737 28.6792 77.2588 28.0123C77.7654 27.7041 78.0567 27.7759 78.3101 28.312C78.5592 28.8354 78.8758 29.3293 79.1249 29.7641H79.1207Z" fill="#FFB400"/>
<path d="M77.3431 37.6003C77.1235 37.6087 76.9504 37.5496 76.8913 37.3386C76.7098 36.7011 76.5367 36.0595 76.3804 35.4137C76.2876 35.038 76.5958 34.9662 76.8491 34.8987C78.5674 34.4343 80.29 33.9784 82.0083 33.5225C82.0843 33.5014 82.173 33.455 82.2405 33.4761C83.0638 33.7462 82.7978 34.5652 83.0385 35.1266C83.1652 35.4221 83.4269 35.9033 82.8738 36.068C81.0373 36.6041 79.1881 37.0937 77.3473 37.6003H77.3431Z" fill="#FFB400"/>
<path d="M78.8208 43.2546C77.968 43.2546 77.1194 43.2335 76.2665 43.2631C75.705 43.2842 75.5319 43.0393 75.5024 42.5117C75.3926 40.591 75.3841 40.591 77.322 40.591C78.6519 40.591 79.9819 40.6121 81.3118 40.5825C81.9029 40.5699 82.1097 40.7936 82.0971 41.3761C82.0591 43.6177 82.3251 43.2124 80.2521 43.2546C79.775 43.2631 79.2937 43.2546 78.8166 43.2546H78.8208Z" fill="#FFB400"/>
<path d="M37.8338 27.5569C37.6945 27.4387 37.5045 27.2952 37.3356 27.1306C36.5039 26.3074 35.6637 25.4927 34.8573 24.6442C34.4773 24.2474 34.1945 24.2305 33.806 24.6358C32.9617 25.518 32.0708 26.3623 31.2222 27.2403C30.8676 27.6076 30.5889 27.6202 30.23 27.2403C28.4779 25.4167 28.5877 26.0795 30.1794 24.4036C30.7113 23.8464 31.2391 23.2765 31.8217 22.7784C32.3537 22.3267 32.2693 22.0144 31.8006 21.5796C30.9436 20.786 30.1498 19.9206 29.3054 19.1143C28.917 18.7428 28.8917 18.4811 29.2885 18.0717C30.6945 16.6195 30.6818 16.6069 32.1257 18.0506C32.6914 18.6162 33.2741 19.1608 33.8103 19.7475C34.1818 20.157 34.452 20.1696 34.8404 19.756C35.6806 18.8653 36.5799 18.0337 37.4201 17.1472C37.8127 16.7335 38.0702 16.7757 38.4587 17.1556C39.8941 18.5571 39.9068 18.5444 38.5093 19.9417C37.9098 20.5453 37.3229 21.1617 36.6981 21.74C36.3308 22.0819 36.373 22.3183 36.715 22.6475C37.6185 23.5129 38.4755 24.4205 39.379 25.2859C39.7421 25.6362 39.7928 25.919 39.3959 26.2694C39.0371 26.586 38.7162 26.9448 38.3742 27.2783C38.2433 27.4049 38.1125 27.5442 37.8338 27.5485V27.5569Z" fill="#FFB400"/>
</svg>
