<svg width="86" height="86" viewBox="0 0 86 86" fill="none" xmlns="http://www.w3.org/2000/svg">
<path d="M40.9555 7.71256e-05C41.5652 0.499624 41.721 1.14583 41.721 1.92035C41.7027 9.42731 41.7119 16.9297 41.7073 24.4366C41.7073 25.9674 41.2856 26.389 39.7546 26.389C36.1472 26.389 32.5352 26.4119 28.9278 26.3752C28.1257 26.3661 27.8277 26.5586 27.8323 27.4247C27.8644 34.093 27.8644 40.7613 27.8323 47.4295C27.8323 48.2224 28.0477 48.4882 28.8545 48.4607C30.1563 48.4195 30.6146 48.9236 30.6146 50.2343C30.6192 53.1216 30.5826 56.0089 30.6238 58.8962C30.6605 61.5269 29.895 63.9008 28.4603 66.0732C26.613 68.8642 24.7612 71.6553 22.8819 74.428C22.4739 75.0284 22.2768 75.6242 22.286 76.3529C22.3181 79.2127 22.2814 82.0679 22.3135 84.9277C22.3227 85.6747 22.1531 86.023 21.3097 85.9909C19.0957 85.913 19.4257 86.2338 19.412 84.1119C19.3937 81.2246 19.4257 78.3373 19.3937 75.45C19.3845 74.6938 19.5678 74.0568 19.9941 73.4289C21.9193 70.5829 23.7803 67.6956 25.7284 64.8679C27.1081 62.8651 27.7315 60.6744 27.7177 58.2683C27.7086 56.2472 27.6948 54.2261 27.7315 52.205C27.7452 51.5176 27.5115 51.2976 26.8331 51.3159C24.775 51.3709 25.0867 51.1005 25.0683 53.0529C25.05 55.0465 25.05 57.0355 25.0683 59.0291C25.0821 60.5919 24.6283 61.9989 23.684 63.2226C22.2906 65.0283 20.8421 66.7881 19.4303 68.5801C18.9811 69.153 18.4173 69.3592 17.6977 69.35C14.8099 69.3271 11.9222 69.3363 9.03442 69.3409C5.152 69.35 2.90139 71.6049 2.89222 75.4821C2.88764 78.5985 2.86472 81.7196 2.90597 84.836C2.91514 85.6701 2.73179 86.0276 1.81046 85.9863C-0.26597 85.8992 0.00905351 86.2017 -0.000113956 84.1852C-0.0138652 81.0963 -0.0184489 78.0073 -0.000113956 74.9184C0.0228047 71.2932 1.73254 68.713 4.97324 67.1594C5.57829 66.8706 5.6608 66.7011 5.28493 66.1236C3.71729 63.7175 3.7723 60.6652 5.35369 58.3783C6.97174 56.0502 9.85491 54.8907 12.5593 55.4819C15.4425 56.1143 17.5648 58.2683 18.0552 61.1602C18.3119 62.6726 18.1148 64.1529 17.3814 65.5324C17.2485 65.7845 17.1155 66.0319 16.9597 66.3207C17.3814 66.5086 17.5189 66.2061 17.6793 66.0044C18.839 64.5654 19.9895 63.1217 21.1446 61.6781C21.878 60.7569 22.176 59.6982 22.1714 58.5342C22.1668 55.7614 22.1668 52.9933 22.1714 50.2206C22.1714 48.9099 22.6344 48.4011 23.9361 48.447C24.7475 48.4745 24.9629 48.1995 24.9583 47.4112C24.9308 40.7429 24.9262 34.0747 24.9583 27.4064C24.9583 26.5356 24.6604 26.3523 23.8628 26.3615C20.2233 26.3982 16.5884 26.3798 12.9489 26.3752C11.5326 26.3752 11.0834 25.9261 11.0834 24.51C11.0834 16.948 11.0925 9.38148 11.0696 1.81953C11.0696 1.06333 11.2713 0.467543 11.8351 -0.0136719H40.9418L40.9555 7.71256e-05ZM26.3976 23.4971C30.2342 23.4971 34.0708 23.488 37.9074 23.5063C38.5537 23.5063 38.8287 23.3642 38.8287 22.6401C38.8058 16.3247 38.8058 10.0048 38.8287 3.68939C38.8287 2.97903 38.572 2.81404 37.9165 2.81862C30.2434 2.83695 22.5702 2.83695 14.897 2.81862C14.159 2.81862 13.9757 3.07985 13.9803 3.77189C14.0032 10.0323 14.0032 16.2881 13.9803 22.5484C13.9803 23.3321 14.2461 23.5154 14.9841 23.5109C18.7932 23.4788 22.5977 23.4971 26.4068 23.4971H26.3976ZM11.1429 66.4398C13.334 66.4536 15.2454 64.5425 15.2362 62.3518C15.227 60.1795 13.4073 58.3371 11.2117 58.2775C9.03901 58.2179 7.10926 60.1061 7.07259 62.3243C7.03592 64.5058 8.93816 66.4261 11.1384 66.4398H11.1429Z" fill="#0E2B72"/>
<path d="M85.9999 60.9719C85.5049 63.52 84.2306 65.697 82.773 67.8006C81.2099 70.0508 79.734 72.3652 78.1938 74.6338C77.8684 75.1104 77.7309 75.5917 77.7355 76.1645C77.7538 79.1068 77.7217 82.0537 77.7584 84.996C77.7676 85.7476 77.543 86.0134 76.7729 85.9905C74.5177 85.9217 74.8706 86.2517 74.8569 84.0473C74.834 81.1325 74.8661 78.2177 74.8431 75.3029C74.8385 74.6338 75.0127 74.0747 75.384 73.5247C77.3367 70.6283 79.2343 67.6997 81.2099 64.8216C82.5667 62.8418 83.1718 60.674 83.1672 58.3046C83.1626 56.2835 83.1489 54.2624 83.1764 52.2459C83.1855 51.6042 83.0388 51.3018 82.3146 51.3247C80.1969 51.3888 80.5407 51.1001 80.5224 53.1212C80.504 55.0827 80.4995 57.0443 80.5224 59.0104C80.5407 60.6052 80.0732 62.0351 79.106 63.2817C77.7263 65.0599 76.3008 66.8015 74.9027 68.5659C74.4581 69.1296 73.9126 69.3725 73.1838 69.3679C70.2686 69.3404 67.3533 69.3542 64.4381 69.3588C60.6152 69.3679 58.3509 71.6365 58.3417 75.4542C58.3325 78.6302 58.3142 81.8016 58.3554 84.9776C58.3646 85.7888 58.0896 86.0226 57.3104 85.9997C55.156 85.9355 55.4631 86.2288 55.4494 84.171C55.431 81.0821 55.4264 77.9932 55.4494 74.9088C55.4814 71.2882 57.2049 68.7172 60.4456 67.1681C60.9865 66.9115 61.124 66.7556 60.7619 66.1919C59.1622 63.7125 59.1805 60.6511 60.8261 58.3825C62.5633 55.9902 64.956 54.9911 67.8621 55.486C70.7774 55.981 72.8905 58.1258 73.468 61.036C73.7797 62.608 73.5734 64.1387 72.8171 65.5732C72.6842 65.8207 72.5604 66.0728 72.4046 66.3707C72.8355 66.5173 72.9776 66.2194 73.138 66.0178C74.2977 64.5787 75.4482 63.1351 76.6033 61.6914C77.3183 60.7977 77.6209 59.7666 77.6163 58.6346C77.6163 55.8343 77.6117 53.0341 77.6163 50.2385C77.6163 48.9415 78.093 48.4695 79.3948 48.4649C80.9533 48.4557 82.5117 48.4924 84.0702 48.4511C84.8448 48.4282 85.4911 48.607 85.9908 49.2165V60.9948L85.9999 60.9719ZM66.6016 58.2771C64.406 58.2679 62.4991 60.1836 62.5129 62.3743C62.5266 64.5512 64.351 66.389 66.542 66.4394C68.7147 66.4944 70.6444 64.597 70.6719 62.388C70.6994 60.2065 68.7972 58.2863 66.597 58.2771H66.6016Z" fill="#0E2B72"/>
<path d="M44.7831 66.3802C45.1727 66.4856 45.2919 66.1648 45.4569 65.9586C46.5845 64.5654 47.6938 63.163 48.8168 61.7743C49.5777 60.8348 49.9077 59.7624 49.9031 58.5662C49.8939 55.8256 49.8985 53.0804 49.9031 50.3397C49.9031 48.9007 50.2927 48.4836 51.7412 48.4561C52.3096 48.447 52.4929 48.3415 52.1721 47.7824C51.1774 46.0225 50.2011 44.2535 49.2339 42.4845C48.9818 42.0216 48.6472 41.9024 48.1567 42.0537C47.6342 42.2141 47.1025 42.347 46.5432 42.3378C45.3194 42.3149 44.2285 41.6412 43.8938 40.4771C43.0963 37.7044 42.3308 34.9225 41.6478 32.1223C41.2536 30.5045 42.152 29.1434 43.7976 28.6988C46.6945 27.9151 49.596 27.1452 52.5067 26.4256C56.4212 25.4586 59.0843 22.9884 60.9637 19.5374C61.0874 19.3082 61.2066 19.0791 61.3304 18.8499C61.6604 18.2312 62.16 17.8967 62.8797 17.9792C63.6039 18.0617 64.0027 18.5245 64.1814 19.1937C66.0745 26.2423 67.9584 33.291 69.8469 40.3396C70.0303 41.0179 69.9019 41.6229 69.329 42.0491C68.6872 42.5257 68.0272 42.3836 67.3946 41.9712C65.3595 40.6467 63.1822 39.7209 60.7391 39.4551C59.694 39.3405 58.6535 39.3405 57.6405 39.5788C55.9307 39.9822 54.2347 40.4679 52.5296 40.9033C51.9841 41.0408 51.9062 41.2746 52.1812 41.7604C53.318 43.7677 54.4364 45.7888 55.5411 47.8191C55.7932 48.282 56.1141 48.4607 56.6458 48.4653C57.888 48.479 58.3234 48.9602 58.328 50.2389C58.3326 53.1262 58.2959 56.0135 58.3372 58.9008C58.3738 61.5314 57.6129 63.9054 56.1782 66.0778C54.3952 68.7771 52.6213 71.4765 50.7878 74.1393C50.2194 74.9642 49.981 75.7937 49.9994 76.7882C50.0498 79.5289 49.9902 82.2741 50.0315 85.0147C50.0406 85.7847 49.7885 86.0184 49.0368 85.9955C46.8137 85.9313 47.1437 86.243 47.13 84.1256C47.1116 81.3254 47.1575 78.5252 47.107 75.725C47.0887 74.7488 47.3546 73.9513 47.9 73.1539C49.7564 70.4408 51.5258 67.6589 53.4005 64.9549C54.8215 62.9063 55.4632 60.6652 55.4448 58.1996C55.4265 56.206 55.4219 54.2169 55.454 52.2233C55.4678 51.5496 55.2569 51.3067 54.5648 51.3251C52.4929 51.3801 52.8092 51.1097 52.7954 53.0574C52.7771 55.0511 52.7771 57.0401 52.7954 59.0337C52.8138 60.5965 52.36 62.0035 51.4157 63.2271C50.0223 65.0328 48.5738 66.7927 47.162 68.5847C46.7128 69.1529 46.1582 69.3684 45.4294 69.3638C42.5416 69.3409 39.6539 69.35 36.7661 69.3546C32.8791 69.3592 30.6193 71.614 30.6148 75.4867C30.6102 78.6627 30.5918 81.8387 30.6285 85.0147C30.6377 85.7801 30.3902 86.0184 29.6338 85.9955C27.4107 85.9313 27.7408 86.243 27.727 84.1256C27.7087 81.0367 27.6949 77.9477 27.727 74.8588C27.7637 71.2749 29.478 68.7221 32.682 67.1777C33.2642 66.8981 33.3971 66.7515 33.0121 66.1465C31.3894 63.5709 31.4261 60.9448 33.0808 58.4104C34.6255 56.041 37.5683 54.9044 40.2681 55.491C43.1559 56.1235 45.2735 58.2637 45.7732 61.1556C46.039 62.7001 45.8236 64.2033 45.0719 65.6057C44.9435 65.844 44.6822 66.0411 44.7739 66.3756L44.7831 66.3802ZM62.1279 23.2954C61.8437 23.6346 61.665 23.8546 61.4816 24.07C59.4052 26.5402 56.8933 28.3413 53.7214 29.1434C52.7175 29.4 51.7229 29.7162 50.7144 29.9408C50.0681 30.0875 49.9535 30.3854 50.1231 30.9903C50.6044 32.6814 51.0353 34.3863 51.4983 36.082C52.0162 37.9702 52.0437 38.0298 53.8955 37.4386C57.7871 36.192 61.6375 35.9995 65.474 37.6082C65.6299 37.6723 65.8087 37.8052 65.9508 37.654C66.1112 37.4798 65.9691 37.2736 65.9187 37.0857C64.9515 33.4651 63.9843 29.8446 63.0034 26.2286C62.7513 25.2936 62.5909 24.322 62.1325 23.2909L62.1279 23.2954ZM42.9588 62.3609C42.9588 60.1611 41.0473 58.2592 38.8563 58.2821C36.679 58.305 34.841 60.129 34.7951 62.3197C34.7493 64.4966 36.6424 66.4215 38.8563 66.4444C41.0428 66.4673 42.9588 64.5608 42.9588 62.3655V62.3609ZM47.2125 39.2351C47.4691 39.1664 47.8817 39.0289 48.3034 38.951C48.9909 38.8272 49.0918 38.4881 48.9039 37.8419C48.3951 36.1003 47.9596 34.3359 47.4829 32.5852C46.9787 30.7245 46.9466 30.7245 45.136 31.3799C44.7143 31.5311 44.5906 31.7557 44.696 32.159C45.2965 34.3863 45.9015 36.6091 46.502 38.8318C46.5799 39.116 46.7174 39.3039 47.2125 39.2351Z" fill="#0E2B72"/>
<path d="M7.75566 52.7177C6.12385 52.7177 5.72506 52.1814 6.68306 50.8157C7.62731 49.4729 7.64565 48.4738 6.69681 47.1264C5.89924 45.9944 6.07801 44.5874 6.69681 43.3179C6.77474 43.1621 6.90766 43.0292 6.95809 42.8688C7.45771 41.2877 8.73199 41.471 9.96501 41.5168C10.4509 41.5351 10.5426 41.8147 10.5013 42.2088C10.4188 42.9788 10.0888 43.6525 9.61665 44.2437C9.06202 44.9357 9.07577 45.5728 9.59832 46.2831C10.9322 48.0934 10.8497 49.9037 9.57081 51.7231C8.88325 52.6993 8.91076 52.7177 7.76024 52.7177H7.75566Z" fill="#FFB400"/>
<path d="M15.8507 41.5139C17.5787 41.5139 17.9454 41.9218 17.0837 43.228C16.0982 44.7129 16.0753 45.854 17.0929 47.3252C17.8171 48.3701 17.5925 49.7129 17.0149 50.8953C16.9279 51.0741 16.8133 51.2436 16.7033 51.4132C15.8278 52.7514 15.2502 52.9806 13.6734 52.7194C13.1692 52.6369 13.1692 52.3252 13.2059 51.9677C13.2884 51.2299 13.6047 50.5791 14.0722 50.0154C14.6635 49.3004 14.6039 48.6497 14.0722 47.9072C12.8162 46.1519 12.8667 44.5066 14.008 42.6734C14.4985 41.8851 14.9248 41.2023 15.8507 41.5185V41.5139Z" fill="#FFB400"/>
<path d="M75.0313 21.4435C75.0313 21.8239 74.8067 21.9293 74.6142 22.0439C72.9457 23.0109 71.268 23.9687 69.6041 24.9449C69.187 25.1878 68.9303 25.1007 68.7011 24.6882C67.3352 22.2134 67.271 22.9605 69.4254 21.6268C70.5988 20.8981 71.8318 20.2657 73.0099 19.5415C73.5599 19.207 73.8762 19.2849 74.1512 19.8669C74.4216 20.4352 74.7654 20.9714 75.0359 21.4435H75.0313Z" fill="#FFB400"/>
<path d="M73.1013 29.9502C72.8629 29.9594 72.675 29.8952 72.6108 29.6661C72.4137 28.974 72.2258 28.2774 72.0562 27.5762C71.9554 27.1683 72.29 27.0904 72.565 27.0171C74.4306 26.513 76.3008 26.018 78.1663 25.523C78.2488 25.5001 78.3451 25.4497 78.4184 25.4726C79.3123 25.7659 79.0235 26.655 79.2848 27.2646C79.4223 27.5854 79.7065 28.1079 79.106 28.2866C77.1121 28.8686 75.1044 29.4003 73.1059 29.9502H73.1013Z" fill="#FFB400"/>
<path d="M74.7057 36.091C73.7798 36.091 72.8584 36.0681 71.9325 36.1002C71.3229 36.1231 71.1349 35.8573 71.1029 35.2844C70.9837 33.1992 70.9745 33.1992 73.0785 33.1992C74.5223 33.1992 75.9662 33.2221 77.4101 33.19C78.0518 33.1763 78.2764 33.4192 78.2627 34.0516C78.2214 36.4852 78.5102 36.0452 76.2596 36.091C75.7416 36.1002 75.2191 36.091 74.7011 36.091H74.7057Z" fill="#FFB400"/>
<path d="M30.2068 19.0463C30.0555 18.918 29.8492 18.7622 29.6659 18.5834C28.7629 17.6897 27.8507 16.8052 26.9752 15.884C26.5627 15.4532 26.2556 15.4349 25.8339 15.8749C24.9172 16.8327 23.95 17.7493 23.0287 18.7026C22.6436 19.1013 22.3411 19.1151 21.9515 18.7026C20.0492 16.7227 20.1684 17.4423 21.8965 15.6228C22.474 15.0179 23.047 14.3991 23.6795 13.8584C24.2571 13.368 24.1654 13.0288 23.6566 12.5568C22.7261 11.6952 21.8644 10.7557 20.9476 9.88031C20.5259 9.477 20.4984 9.19286 20.9293 8.74831C22.4557 7.17175 22.4419 7.158 24.0096 8.72539C24.6238 9.33951 25.2563 9.93072 25.8385 10.5678C26.2419 11.0123 26.5352 11.0261 26.9569 10.5769C27.8691 9.60991 28.8454 8.70706 29.7576 7.74463C30.1839 7.29549 30.4635 7.34132 30.8852 7.75379C32.4436 9.27535 32.4574 9.2616 30.9402 10.7786C30.2893 11.4339 29.6521 12.1031 28.9738 12.7309C28.575 13.1022 28.6208 13.3588 28.9921 13.7163C29.973 14.6558 30.9035 15.6411 31.8844 16.5807C32.2786 16.961 32.3336 17.2681 31.9028 17.6485C31.5131 17.9922 31.1648 18.3818 30.7935 18.7438C30.6514 18.8813 30.5093 19.0326 30.2068 19.0371V19.0463Z" fill="#FFB400"/>
</svg>
