<svg width="101" height="100" viewBox="0 0 101 100" fill="none" xmlns="http://www.w3.org/2000/svg">
<path d="M46.4501 9.31404C47.7301 10.2474 49.0034 11.2007 50.2968 12.1207C59.7434 18.8474 69.2034 25.5674 78.6501 32.2874C80.3167 33.474 80.6567 35.3207 79.4567 37.034C76.9634 40.6074 74.4301 44.1474 71.9101 47.7007C70.4901 49.7007 69.0701 51.7007 67.6434 53.7007C66.2701 55.6207 64.5234 55.9274 62.6034 54.5874C58.6568 51.8274 54.7234 49.054 50.7834 46.294C49.8367 45.634 49.8301 45.634 49.1768 46.554C48.1901 47.9474 47.2234 49.354 46.2034 50.7274C45.8701 51.1807 45.9434 51.4074 46.3901 51.694C47.0968 52.154 47.7634 52.6674 48.4567 53.1474C49.5501 53.9007 50.1634 54.954 50.3834 56.2474C50.8567 59.0207 51.3167 61.8007 51.7834 64.574C51.9701 65.674 53.4901 66.754 54.5701 66.534C55.1034 66.4274 55.5834 66.5807 56.0034 66.8807C59.3634 69.2607 62.7101 71.6474 66.0634 74.034C66.6701 74.4674 66.5434 74.934 66.1767 75.4607C64.1367 78.3207 62.1101 81.194 60.0768 84.054C58.5834 86.154 57.0901 88.2474 55.6034 90.3474C54.8834 91.3607 54.6034 91.4274 53.6234 90.7274C50.4301 88.454 47.2367 86.1674 44.0434 83.894C43.5034 83.5074 43.1301 83.034 43.1034 82.354C43.0901 81.9807 42.8834 81.7607 42.6034 81.5274C41.7234 80.794 40.8034 80.434 39.5834 80.5007C37.2767 80.6274 35.1901 79.794 33.2967 78.5007C31.9434 77.574 30.6101 76.6274 29.2901 75.6607C28.8367 75.3274 28.5434 75.3474 28.2434 75.8407C27.9434 76.334 27.6034 76.8007 27.2567 77.2674C26.8301 77.8407 26.3967 77.9274 25.8301 77.534C24.3101 76.4674 22.8101 75.3874 21.2967 74.314C20.7567 73.934 20.7034 73.4674 21.0634 72.9474C21.4301 72.4074 21.7967 71.874 22.1834 71.354C22.4301 71.0207 22.4501 70.7674 22.1567 70.4074C20.6767 68.6007 21.1034 66.1807 23.1234 64.9607C23.4901 64.7407 23.5767 64.594 23.3501 64.1874C22.3701 62.394 22.9434 60.3474 24.7234 59.334C25.1901 59.0674 25.2301 58.854 25.0301 58.3807C24.4701 57.054 24.6434 55.7607 25.5434 54.6407C26.4434 53.5207 27.6634 53.1007 29.0901 53.4007C29.4634 53.4807 29.6501 53.4407 29.7634 53.0207C30.5101 50.234 33.2034 49.214 35.5701 50.8074C36.3967 51.3607 36.4034 51.3674 37.0034 50.534C39.0434 47.674 41.0768 44.8074 43.1034 41.9407C43.6634 41.1474 43.6634 41.134 42.8501 40.554C39.0034 37.8207 35.1567 35.094 31.3167 32.3607C30.7501 31.954 30.1501 31.574 29.7901 30.954C29.0434 29.6474 29.1501 28.3874 30.0167 27.1674C32.2101 24.094 34.3967 21.0074 36.5901 17.934C38.2634 15.5807 39.9967 13.2674 41.5967 10.8674C42.4634 9.57404 43.5501 8.85404 45.0901 8.80737L46.4434 9.31404H46.4501ZM78.3634 35.7807C78.7301 34.8074 78.5967 34.254 77.8701 33.694C77.0501 33.0607 76.1967 32.4807 75.3501 31.8807C65.6234 24.9607 55.9034 18.0474 46.1768 11.134C44.7034 10.0874 44.0101 10.234 42.9567 11.7274C40.0767 15.794 37.1901 19.8474 34.3034 23.9074C33.3701 25.2207 32.4301 26.534 31.5101 27.854C30.5701 29.2007 30.7234 29.9807 32.0767 30.9274C32.4701 31.2074 32.8701 31.474 33.2567 31.754C43.2901 38.9007 53.3234 46.0474 63.3634 53.1874C64.7301 54.1607 65.4767 54.0074 66.4367 52.6607C70.0034 47.6407 73.5834 42.6274 77.1501 37.6074C77.6101 36.9607 78.1167 36.3474 78.3567 35.7874L78.3634 35.7807ZM36.4167 78.3207C37.4234 78.774 38.4967 78.8874 39.5834 78.9407C40.3634 78.974 40.8701 78.6807 41.3234 78.0407C44.1434 74.054 46.9901 70.0874 49.8434 66.1207C50.1168 65.7407 50.2234 65.3874 50.1434 64.914C49.6434 62.0007 49.1567 59.0807 48.6834 56.154C48.5834 55.5207 48.2767 55.0074 47.7901 54.6407C46.9834 54.034 46.1367 53.4807 45.3101 52.9007C45.0101 52.6874 44.7767 52.7474 44.5701 53.034C44.0301 53.8007 43.4901 54.5674 42.9434 55.3274C42.6967 55.6674 42.7434 55.9407 43.0967 56.174C43.5567 56.4807 44.0101 56.8007 44.4567 57.1207C44.8701 57.4207 45.1168 57.8074 44.7968 58.2874C44.4568 58.8007 43.9967 58.714 43.5434 58.4007C42.6767 57.794 41.8034 57.2007 40.9368 56.5874C38.9368 55.1674 36.9434 53.734 34.9301 52.3274C33.6834 51.454 32.4834 51.534 31.7967 52.5074C31.1034 53.4874 31.4501 54.714 32.6701 55.594C33.4701 56.1674 34.2834 56.734 35.0834 57.3074C35.9434 57.9274 36.8034 58.5407 37.6567 59.174C38.0634 59.474 38.2901 59.8874 37.9501 60.354C37.6167 60.8074 37.1767 60.7674 36.7434 60.4474C36.5701 60.3207 36.3901 60.194 36.2167 60.0674C34.0167 58.5074 31.8234 56.9407 29.6234 55.3874C28.9034 54.8807 28.1301 54.8607 27.3767 55.294C26.6301 55.734 26.3101 56.4807 26.4501 57.3207C26.5567 57.9407 26.9501 58.3274 27.4434 58.674C30.2767 60.674 33.1034 62.674 35.9234 64.6807C36.5434 65.1207 36.6967 65.594 36.3567 65.994C35.9234 66.494 35.4634 66.3207 35.0101 65.994C34.1634 65.394 33.3167 64.8007 32.4767 64.2007C30.8834 63.074 29.3101 61.9274 27.6967 60.834C26.4101 59.9607 24.9101 60.494 24.5301 61.914C24.3034 62.7607 24.6501 63.5674 25.5301 64.194C27.3167 65.4607 29.1101 66.714 30.8967 67.9807C31.3301 68.2874 31.7301 68.6407 31.3701 69.2274C31.0967 69.6874 30.5701 69.714 29.9834 69.3074C28.9967 68.6207 28.0234 67.9074 27.0367 67.2207C26.5034 66.8474 26.0167 66.414 25.3901 66.194C24.3767 65.8407 23.3634 66.3007 22.9701 67.294C22.5701 68.3007 22.8634 69.134 23.9234 69.894C27.3167 72.3074 30.7101 74.714 34.1101 77.114C34.8167 77.614 35.5634 78.0607 36.4034 78.3007L36.4167 78.3207ZM44.8901 81.814C44.6501 82.3274 44.8834 82.5474 45.1501 82.734C48.0501 84.8007 50.9501 86.8674 53.8434 88.9407C54.2234 89.214 54.4568 89.1607 54.7234 88.7807C57.8368 84.354 60.9567 79.9274 64.0967 75.514C64.4567 75.0074 64.3434 74.754 63.8767 74.4274C61.1634 72.5207 58.4634 70.5807 55.7567 68.6607C54.7167 67.9207 54.7101 67.934 53.9767 68.974C51.2901 72.7607 48.6034 76.5474 45.9168 80.3407C45.5434 80.8674 45.1767 81.4074 44.8967 81.814H44.8901ZM45.3834 42.3607C45.0367 42.134 44.8567 42.3407 44.6701 42.6007C44.0167 43.5274 43.3634 44.4407 42.7034 45.3607C41.2034 47.454 39.7101 49.5474 38.2034 51.6407C37.9501 51.994 37.7301 52.3207 38.2301 52.6674C39.0767 53.254 39.9167 53.8674 40.7501 54.4807C41.0901 54.7274 41.3234 54.7074 41.5767 54.3407C42.3034 53.294 43.0634 52.274 43.8101 51.234C45.2434 49.2407 46.6767 47.2474 48.0967 45.254C48.2767 45.0007 48.6034 44.7074 48.1834 44.394C47.2567 43.7074 46.3167 43.034 45.3767 42.3607H45.3834ZM43.4967 80.2007C43.8567 80.4274 44.0167 80.1674 44.1901 79.9207C45.3634 78.2807 46.5434 76.6407 47.7234 75.0007C49.2768 72.834 50.8301 70.6674 52.3767 68.4874C52.5167 68.2874 52.7834 68.1007 52.6234 67.7874C52.2501 67.0474 51.2834 66.9474 50.8034 67.6074C48.1301 71.334 45.4634 75.074 42.7767 78.8007C42.4501 79.254 42.4367 79.554 42.9501 79.8274C43.1367 79.9274 43.3101 80.0674 43.4901 80.1874L43.4967 80.2007ZM25.8234 75.534C26.1701 75.7674 26.3967 75.7274 26.5834 75.4607C26.7634 75.2074 26.9434 74.954 27.1301 74.7007C27.3301 74.434 27.2967 74.2407 27.0167 74.0407C26.1367 73.4207 25.2567 72.7874 24.3901 72.1474C24.0767 71.9207 23.8301 71.914 23.6034 72.2474C23.4567 72.4674 23.2967 72.6807 23.1434 72.8874C22.9301 73.1674 22.9434 73.4207 23.2301 73.634C24.1167 74.2874 25.0101 74.934 25.8234 75.5274V75.534Z" fill="#0E2B72" stroke="#0E2B72" stroke-width="2.2" stroke-miterlimit="10"/>
<path d="M57.3135 22.3474C57.6402 22.5807 58.0468 22.8807 58.4602 23.1674C59.9135 24.1941 61.3602 25.2274 62.8202 26.2407C63.2802 26.5607 63.5335 26.9541 63.6202 27.5341C63.9202 29.5274 64.2602 31.5207 64.6202 33.5074C64.7335 34.1207 64.6202 34.6207 64.2602 35.1274C63.0468 36.8007 61.8668 38.5007 60.6802 40.1941C60.3602 40.6541 59.9668 40.9141 59.3868 41.0007C57.3668 41.3074 55.3535 41.6541 53.3402 42.0141C52.7535 42.1207 52.2868 42.0141 51.7935 41.6607C50.1468 40.4541 48.4735 39.2807 46.7935 38.1207C46.3068 37.7874 46.0002 37.3874 45.9068 36.7941C45.5868 34.7541 45.2468 32.7141 44.8935 30.6741C44.8002 30.1207 44.8935 29.6541 45.2335 29.1874C46.4802 27.4741 47.7002 25.7474 48.9135 24.0141C49.1802 23.6341 49.5002 23.3807 49.9535 23.3074C52.1135 22.9541 54.2735 22.6074 56.4335 22.2607C56.6935 22.2207 56.9602 22.1941 57.3135 22.3407V22.3474ZM62.9602 34.2541C63.0868 33.9807 63.0402 33.7341 63.0002 33.5007C62.7002 31.6741 62.3935 29.8474 62.0868 28.0274C62.0468 27.7807 61.9668 27.5607 61.7535 27.4074C60.1402 26.2741 58.5335 25.1341 56.9202 24.0007C56.6135 23.7874 56.2668 23.7807 55.9668 23.9541C55.6602 24.1341 55.8535 24.4407 55.8935 24.6807C56.6802 29.3741 57.4802 34.0674 58.2868 38.7541C58.3335 39.0341 58.2468 39.4541 58.6802 39.5074C59.0535 39.5541 59.3668 39.3874 59.5935 39.0474C60.0802 38.3341 60.5935 37.6341 61.0935 36.9274C61.7268 36.0207 62.3602 35.1141 62.9668 34.2474L62.9602 34.2541ZM52.6868 40.4074C53.3002 40.6474 53.6935 40.3674 53.6002 39.7674C53.3268 38.0607 53.0268 36.3541 52.7335 34.6474C52.2068 31.5674 51.6868 28.4807 51.1535 25.4007C51.0402 24.7474 50.6068 24.6074 50.0935 25.0474C49.9668 25.1541 49.8735 25.3007 49.7802 25.4407C48.7535 26.8941 47.7335 28.3541 46.6935 29.8007C46.4668 30.1141 46.3935 30.4207 46.4602 30.8074C46.7802 32.6074 47.0802 34.4074 47.3668 36.2141C47.4268 36.6074 47.6202 36.8607 47.9335 37.0807C49.3535 38.0741 50.7602 39.0807 52.1802 40.0741C52.3535 40.2007 52.5402 40.3141 52.6868 40.4141V40.4074ZM56.8202 39.6074C56.7935 39.4074 56.7668 39.2141 56.7335 39.0274C55.9402 34.3541 55.1468 29.6807 54.3668 25.0074C54.2802 24.4941 54.1868 24.1674 53.5135 24.3007C52.9002 24.4207 52.6602 24.5807 52.7868 25.2741C53.2402 27.7341 53.6202 30.2074 54.0335 32.6741C54.4068 34.9274 54.7802 37.1874 55.1602 39.4407C55.2068 39.7141 55.2202 40.0741 55.6402 40.0207C56.0468 39.9674 56.5135 40.0207 56.8202 39.6141V39.6074Z" fill="#FFB200" stroke="#FFB200" stroke-miterlimit="10"/>
</svg>
