<svg width="91" height="100" viewBox="0 0 91 100" fill="none" xmlns="http://www.w3.org/2000/svg">
<path d="M49.1627 0C51.6012 0.339272 54.0662 0.577823 56.4411 1.26697C75.1435 6.70593 86.4508 18.9833 90.3259 38.0727C90.7447 40.1401 90.8613 42.2606 90.9356 44.3704C90.978 45.701 90.4054 46.5121 89.4247 46.6393C88.5554 46.7507 87.9033 46.1569 87.5322 44.9218C87.124 43.57 86.085 42.796 84.9453 42.1334C83.0952 41.0572 81.0649 40.4688 78.9603 40.1666C74.4862 39.5252 70.0809 39.7108 65.8241 41.4071C64.9123 41.7729 64.0588 42.25 63.2955 42.8543C62.4632 43.517 61.8218 44.2962 61.6998 45.4307C61.5938 46.369 60.9365 46.9733 60.1254 47.0104C59.309 47.0475 58.5934 46.5121 58.4608 45.5473C58.2435 43.9517 57.2363 43.0134 55.9693 42.2553C53.4831 40.7657 50.7265 40.1507 47.8904 39.9281C43.9305 39.6206 40.0288 39.9281 36.3233 41.5343C35.5441 41.8736 34.8178 42.2977 34.1393 42.8119C33.2752 43.464 32.6974 44.2644 32.5065 45.3671C32.3157 46.475 31.6477 47.0528 30.7784 47.0051C29.9408 46.9627 29.347 46.3531 29.2039 45.314C29.0343 44.116 28.2921 43.3314 27.375 42.6688C25.3182 41.1792 22.938 40.5059 20.4836 40.1455C16.3805 39.5464 12.3198 39.7055 8.35458 41.0466C7.20953 41.4336 6.1175 41.9372 5.14209 42.6635C4.35223 43.2519 3.61537 43.9146 3.39272 44.9324C3.19658 45.8018 2.79369 46.4697 1.866 46.6128C0.954203 46.756 0.439994 46.141 0 45.4625V42.9232C0.249153 41.0625 0.323369 39.1753 0.720954 37.3358C4.80282 18.5646 16.1101 6.54689 34.5687 1.24577C36.9118 0.572522 39.3397 0.32867 41.7464 0H49.1627ZM45.4466 3.24429C44.2061 3.24429 42.7006 4.11898 41.5078 5.52908C39.9334 7.38977 38.8414 9.53143 37.9137 11.7579C35.8197 16.8046 34.6535 22.0951 33.8106 27.4704C33.2222 31.2289 32.9359 35.0193 32.6603 38.8096C32.6444 39.0481 32.5012 39.3874 32.7928 39.504C32.9412 39.5623 33.1957 39.3715 33.3971 39.2761C34.1605 38.9156 34.8973 38.4862 35.6872 38.1893C40.0341 36.5566 44.5295 36.1484 49.115 36.7103C52.0359 37.0655 54.872 37.7546 57.4536 39.2443C57.6657 39.3662 57.8883 39.6683 58.1375 39.5146C58.4184 39.3397 58.27 38.9739 58.2488 38.6982C58.0103 35.9788 57.8671 33.254 57.5225 30.5451C56.7539 24.4647 55.5929 18.4797 53.393 12.7386C52.3752 10.088 51.1559 7.5329 49.2581 5.37534C48.2456 4.225 47.074 3.32911 45.4572 3.23369L45.4466 3.24429ZM38.3378 3.98115C21.3582 6.35605 5.86835 21.5279 3.86982 39.3768C3.96524 39.3662 4.07657 39.3874 4.15078 39.345C7.24134 37.5956 10.597 36.8216 14.1116 36.5884C19.1318 36.2544 23.9664 36.8587 28.43 39.3768C29.2092 39.8168 29.3524 39.7373 29.3842 38.8202C29.5326 34.3354 30.0362 29.8825 30.7678 25.4613C31.6901 19.9004 32.9995 14.4509 35.2896 9.26637C36.0901 7.45339 37.1079 5.76233 38.3325 3.98115H38.3378ZM87.1559 39.2973C85.4542 28.6049 80.4658 19.7626 72.1272 12.8393C66.4815 8.15314 60.03 5.18981 52.5448 3.87512C53.218 4.94595 53.7693 5.74112 54.2411 6.584C56.6744 10.9044 58.0898 15.5959 59.1606 20.3987C60.4965 26.4049 61.2651 32.4853 61.5196 38.6346C61.5673 39.8009 61.6415 39.8433 62.6646 39.2708C63.8044 38.6346 64.9706 38.0568 66.227 37.7069C73.1662 35.7773 79.9569 35.9151 86.5144 39.2124C86.6841 39.2973 86.8378 39.4457 87.1612 39.292L87.1559 39.2973Z" fill="#0E2B72"/>
<path d="M45.4136 99.9945C41.1833 100.016 37.1863 99.0085 33.3642 97.2432C32.2138 96.7131 31.8852 96.1088 31.9859 94.8471C32.6008 87.2559 38.554 81.9123 46.1717 82.1191C52.3846 82.2834 58.1151 87.5845 58.7778 93.7657C58.8202 94.1526 58.8891 94.5396 58.9209 94.9266C59.011 96.13 58.6453 96.7449 57.5691 97.2538C53.7417 99.0615 49.5909 99.9945 45.4136 99.9998V99.9945ZM45.456 85.4906C40.7592 85.4906 36.7092 88.6395 35.6225 93.1507C35.3044 94.4654 35.3362 94.5237 36.5926 95.0008C42.4609 97.2379 48.3293 97.2591 54.2029 95.0379C55.6183 94.5025 55.6342 94.4866 55.2207 92.9811C53.9962 88.4804 50.0998 85.4959 45.456 85.4906Z" fill="#FFB400"/>
<path d="M69.838 86.8643C65.8463 86.7741 62.056 85.8517 58.4459 84.166C57.5977 83.7684 57.3062 83.0951 57.3009 82.1993C57.2796 76.5536 62.0242 71.0722 67.7017 70.2134C74.8794 69.1214 81.1347 73.6962 82.3116 80.8899C82.688 83.1959 82.3805 83.726 80.2547 84.6378C76.9256 86.0638 73.4481 86.7847 69.838 86.8695V86.8643ZM69.8592 83.4927C72.7536 83.5192 75.5261 82.8937 78.2191 81.8706C78.7969 81.6532 79.0249 81.3564 78.887 80.699C78.0336 76.5164 74.2804 73.4365 69.9599 73.41C65.5282 73.3835 61.7803 76.3733 60.8632 80.5983C60.6989 81.3564 60.9374 81.6532 61.5895 81.8971C64.2559 82.9043 66.9966 83.5139 69.8592 83.4927Z" fill="#0E2B72"/>
<path d="M21.1569 86.8578C17.0697 86.7783 13.2741 85.8718 9.65875 84.1807C8.86888 83.8096 8.519 83.2159 8.5031 82.3253C8.41828 76.6213 13.0515 71.1823 18.8509 70.2069C26.1612 68.9718 32.8406 74.1085 33.5721 81.5248C33.7418 83.2371 33.429 83.7354 31.8281 84.4511C28.3982 85.9778 24.8041 86.7677 21.1569 86.8578ZM20.9661 83.4915C23.8605 83.5075 26.633 82.919 29.3312 81.8906C29.9939 81.6362 30.2006 81.3287 30.0363 80.5812C29.1245 76.3933 25.4031 73.4035 21.0191 73.4035C16.688 73.4035 12.9136 76.4463 12.0177 80.6077C11.8746 81.281 12.0549 81.6309 12.6963 81.8694C15.3628 82.8766 18.0981 83.5022 20.9661 83.4863V83.4915Z" fill="#0E2B72"/>
<path d="M51.936 72.8376C51.9784 74.0833 51.9519 75.4404 51.3528 76.7233C50.0541 79.5117 47.3134 80.9589 44.244 80.45C41.4662 79.9888 39.192 77.5079 39.0012 74.5657C38.9058 73.0814 38.8051 71.5759 39.1337 70.1022C39.8229 67.001 42.8657 64.6897 45.8397 65.0078C49.3384 65.3789 51.8405 67.987 51.936 71.3532C51.9466 71.8091 51.936 72.265 51.936 72.8429V72.8376ZM42.3621 72.7952C42.3621 73.2829 42.3462 73.7706 42.3621 74.2583C42.4363 75.9493 43.7987 77.2375 45.4792 77.2269C47.1172 77.2163 48.469 75.9387 48.5326 74.3007C48.5697 73.2935 48.5697 72.2809 48.5326 71.279C48.469 69.6198 47.1331 68.3793 45.4686 68.3687C43.7987 68.3581 42.4522 69.5933 42.3674 71.2366C42.3409 71.7561 42.3674 72.2756 42.3674 72.7952H42.3621Z" fill="#FFB400"/>
<path d="M14.9556 61.2235C14.786 59.4052 15.1942 57.518 16.7527 56.0337C18.5869 54.2896 20.7339 53.7383 23.1247 54.6236C25.5102 55.5036 26.8673 57.3007 27.1111 59.8028C27.249 61.2129 27.3073 62.6601 26.9839 64.0702C26.3266 66.9753 23.4852 69.1434 20.7127 68.8519C17.3517 68.502 15.0033 66.0529 14.9503 62.8404C14.945 62.3845 14.9503 61.9286 14.9503 61.2235H14.9556ZM18.3484 61.5098C18.3484 61.5098 18.3484 61.5098 18.3431 61.5098C18.3431 61.9975 18.3166 62.4852 18.3431 62.9676C18.4385 64.3989 19.6153 65.5015 21.0307 65.5121C22.4461 65.5227 23.6707 64.4254 23.7449 62.9941C23.7979 62.024 23.7979 61.0486 23.7449 60.0785C23.6601 58.6631 22.515 57.6294 21.1049 57.6135C19.6153 57.5923 18.465 58.5995 18.3484 60.052C18.3113 60.5344 18.3431 61.0221 18.3431 61.5098H18.3484Z" fill="#0E2B72"/>
<path d="M75.9477 61.7004C75.9106 62.379 76.0113 63.2218 75.8099 64.0594C75.1154 66.9909 72.3376 69.1326 69.5386 68.8569C66.2095 68.5336 63.8134 66.0845 63.7498 62.8561C63.7233 61.5626 63.6014 60.2585 63.9035 58.9756C64.5874 56.0494 67.4182 53.9449 70.3073 54.2311C73.5145 54.5492 75.8947 57.0937 75.9424 60.2691C75.9477 60.6932 75.9424 61.112 75.9424 61.7004H75.9477ZM67.1372 61.552C67.1372 62.0079 67.116 62.4585 67.1372 62.9144C67.222 64.3616 68.3724 65.4801 69.7825 65.5119C71.235 65.5437 72.4702 64.4305 72.5497 62.9515C72.5974 62.0132 72.5974 61.0696 72.5497 60.1313C72.4702 58.6099 71.3039 57.5814 69.7772 57.6079C68.33 57.6345 67.222 58.7053 67.1372 60.1896C67.1107 60.6402 67.1372 61.0961 67.1372 61.552Z" fill="#0E2B72"/>
</svg>
