<svg width="34" height="34" viewBox="0 0 34 34" fill="none" xmlns="http://www.w3.org/2000/svg">
<path d="M33.9991 23.6365C33.7622 24.2148 33.3257 24.4099 32.7127 24.3966C31.4414 24.3691 30.1683 24.3904 28.8971 24.3877C28.1128 24.386 27.7455 24.0143 27.7455 23.2249C27.7447 19.7852 27.7447 16.3463 27.7455 12.9066C27.7455 12.1012 28.111 11.7411 28.9246 11.7402C30.1852 11.7393 31.4467 11.7606 32.7074 11.7304C33.3204 11.7153 33.7551 11.9105 33.9999 12.4817V23.6356L33.9991 23.6365Z" fill="#FFB400"/>
<path d="M17.8627 0C18.623 0.131274 19.4028 0.196911 20.1418 0.405353C24.8774 1.74204 27.931 4.79239 29.3141 9.51294C29.3265 9.55552 29.3371 9.59809 29.3433 9.64155C29.346 9.66195 29.3362 9.68413 29.3371 9.67881C28.6931 9.76839 28.0579 9.85709 27.4413 9.94313C25.6084 4.80215 22.0492 1.88574 16.4193 2.03031C11.8443 2.14828 7.83972 5.40353 6.60658 9.95466C5.96606 9.86241 5.32997 9.77105 4.65308 9.67348C4.67259 9.5839 4.69566 9.44996 4.73115 9.31869C6.04501 4.48816 10.2962 0.773453 15.2527 0.124178C15.5473 0.0860378 15.8418 0.0416884 16.1363 0C16.7121 0 17.287 0 17.8627 0Z" fill="#FFB400"/>
<path d="M6.25352 18.0715C6.25352 19.7861 6.25352 21.5006 6.25352 23.2151C6.25352 24.0223 5.88801 24.3877 5.07893 24.3886C3.77305 24.3904 2.46805 24.3913 1.16217 24.3886C0.378813 24.3869 0 24.009 0 23.232C0 19.7807 0 16.3295 0 12.8791C0 12.1243 0.384136 11.742 1.1462 11.7411C2.47337 11.7393 3.80143 11.7393 5.12861 11.7411C5.87293 11.742 6.25174 12.1189 6.25263 12.8622C6.25529 14.599 6.25263 16.3357 6.25263 18.0724L6.25352 18.0715Z" fill="#FFB400"/>
<path d="M27.1671 26.0722C27.8431 26.2088 28.4818 26.3383 29.1649 26.4758C29.0026 26.8084 28.85 27.1845 28.6442 27.5304C26.9994 30.2925 24.566 31.7383 21.3509 31.8615C21.0085 31.8748 20.6643 31.8784 20.3227 31.8589C20.0725 31.8447 19.9439 31.913 19.8321 32.1649C19.2714 33.4253 17.891 34.1757 16.5878 33.9637C15.1222 33.7251 14.0541 32.6385 13.8882 31.2194C13.7117 29.7079 14.676 28.2755 16.1531 27.8559C17.6231 27.4381 19.1934 28.1495 19.8277 29.5518C19.9439 29.8091 20.0752 29.8756 20.3396 29.8791C21.5186 29.8951 22.6808 29.8383 23.7853 29.3549C25.2624 28.7083 26.3598 27.667 27.0837 26.2292C27.1227 26.152 27.1644 26.0766 27.168 26.0713L27.1671 26.0722Z" fill="#FFB400"/>
<path d="M10.8861 21.2584C11.9551 21.2584 12.9256 21.2584 13.897 21.2584C14.2182 21.2584 14.5393 21.2477 14.8596 21.2619C15.4425 21.2877 15.8807 21.7427 15.8621 22.2864C15.8443 22.8328 15.4185 23.2444 14.8374 23.247C13.0782 23.2532 11.319 23.2541 9.55977 23.247C8.93344 23.2444 8.52802 22.8106 8.54221 22.1879C8.56528 21.199 8.94675 20.367 9.64228 19.6716C10.973 18.342 12.2975 17.0071 13.638 15.6872C13.8474 15.4814 13.897 15.2845 13.8367 15.0113C13.6513 14.1643 12.9531 13.6223 12.081 13.6667C11.2693 13.7083 10.6235 14.339 10.5392 15.1737C10.5294 15.273 10.5232 15.3723 10.5064 15.4708C10.4203 15.9844 9.97584 16.3516 9.4817 16.3223C8.94586 16.2904 8.54665 15.862 8.53955 15.3102C8.51737 13.4662 10.0211 11.8111 11.8335 11.6842C13.8314 11.5441 15.5427 12.8666 15.808 14.755C15.8159 14.81 15.8257 14.8641 15.8337 14.9191C15.9561 15.7262 15.8142 16.3959 15.1577 17.0044C13.7959 18.2675 12.5131 19.6157 11.1983 20.9302C11.1141 21.0136 11.0342 21.1014 10.8843 21.2584H10.8861Z" fill="#FFB400"/>
<path d="M24.927 18.0299C25.6429 18.1682 25.9916 18.5168 25.9916 19.0579C25.9916 19.6007 25.6332 19.9582 24.927 20.0832C24.927 20.6012 24.927 21.1281 24.927 21.655C24.927 21.8652 24.9341 22.0763 24.9217 22.2856C24.8897 22.8462 24.4763 23.2462 23.9387 23.248C23.4029 23.2498 22.9699 22.8569 22.9451 22.2936C22.9185 21.686 22.9362 21.0767 22.9353 20.4682C22.9353 20.3476 22.9353 20.2261 22.9353 20.0522H22.5663C21.2826 20.0522 19.9989 20.054 18.7152 20.0522C17.9815 20.0504 17.5628 19.6096 17.6098 18.8761C17.6683 17.9696 18.0099 17.1801 18.6513 16.5344C20.1568 15.0194 21.6712 13.5133 23.1811 12.0028C23.5022 11.6817 23.8784 11.5744 24.3024 11.7429C24.7451 11.9185 24.9279 12.2742 24.927 12.7408C24.9252 14.3675 24.927 15.9942 24.927 17.621C24.927 17.7531 24.927 17.8844 24.927 18.0299ZM22.9132 15.2013C21.9639 16.1486 21.0102 17.1003 20.0645 18.045H22.9132V15.2013Z" fill="#FFB400"/>
</svg>
