<svg width="18" height="18" viewBox="0 0 18 18" fill="none" xmlns="http://www.w3.org/2000/svg">
<g clip-path="url(#clip0_3664_25184)">
<path d="M0 4.92199C0.0272521 4.7919 0.0493357 4.6604 0.082696 4.53171C0.173849 4.17994 0.334073 3.86198 0.590618 3.60226C1.06424 3.12321 1.54021 2.64511 2.02323 2.17545C2.42074 1.78845 2.88496 1.5973 3.42859 1.82884C3.63298 1.91573 3.82657 2.0571 3.98679 2.21302C4.67091 2.87946 5.34188 3.55952 6.01566 4.23677C6.34081 4.56365 6.57386 4.93092 6.50714 5.42124C6.45874 5.77676 6.2567 6.04588 6.01378 6.2901C5.62098 6.68461 5.22488 7.07583 4.83067 7.46893C4.61077 7.68826 4.60889 7.73382 4.73857 8.02266C5.19105 9.03194 5.88363 9.87075 6.62461 10.6734C7.36276 11.4727 8.17468 12.1899 9.09891 12.7695C9.42029 12.9709 9.76611 13.1339 10.1007 13.3143C10.2543 13.3969 10.3675 13.3269 10.4742 13.2199C10.8914 12.8 11.3082 12.3796 11.7283 11.9631C11.9688 11.7245 12.2357 11.5343 12.5872 11.4896C12.9344 11.4455 13.2337 11.5512 13.5053 11.7545C13.5988 11.8245 13.6857 11.9048 13.7684 11.987C14.4333 12.6483 15.1014 13.3063 15.7564 13.9774C15.9213 14.1465 16.0745 14.3442 16.1732 14.556C16.3776 14.9952 16.2991 15.4385 15.9848 15.7856C15.458 16.3665 14.9088 16.9301 14.3327 17.4623C13.8102 17.9451 13.1472 18.038 12.4584 17.9878C11.2866 17.9023 10.212 17.5003 9.17173 16.9851C7.52627 16.1707 6.03305 15.1356 4.71837 13.8553C2.89765 12.0824 1.42369 10.0675 0.513561 7.6737C0.280508 7.06033 0.0878645 6.43428 0.0281918 5.77536C0.0258425 5.74812 0.00939727 5.72182 0 5.69505C0 5.4372 0 5.17936 0 4.92152L0 4.92199Z" fill="#0E2B72"/>
<path d="M9.39069 0C9.75437 0.0821896 10.1213 0.150759 10.4808 0.248448C13.409 1.04451 15.5685 2.80948 17.0015 5.46725C17.4982 6.38872 17.8191 7.37922 18.0005 8.44487C17.5532 8.52236 17.1026 8.60079 16.6576 8.67782C15.7085 4.62657 13.2055 2.19376 9.10596 1.35824C9.16328 0.921933 9.22436 0.460732 9.28497 0C9.32021 0 9.35545 0 9.39069 0Z" fill="#0E2B72"/>
<path d="M14.3411 8.68722C13.8943 8.76377 13.447 8.84079 12.9926 8.91829C12.4833 6.73533 11.1348 5.42358 8.91748 4.96708C8.97903 4.52373 9.04199 4.07004 9.10496 3.61682C11.6596 3.89063 13.953 6.06185 14.3411 8.68722Z" fill="#0E2B72"/>
</g>
<defs>
<clipPath id="clip0_3664_25184">
<rect width="18" height="18" fill="white"/>
</clipPath>
</defs>
</svg>
