<svg width="47" height="44" viewBox="0 0 47 44" fill="none" xmlns="http://www.w3.org/2000/svg">
<path d="M47 26.2885C46.8816 26.7244 46.7861 27.1677 46.6411 27.5945C45.8002 30.0579 43.5319 31.7543 40.9194 31.8683C40.2171 31.8993 39.513 31.8865 38.809 31.8801C37.8469 31.871 37.2787 31.301 37.2778 30.337C37.2741 26.6752 37.2934 23.0134 37.2686 19.3516C37.2576 17.7136 37.3081 16.0555 37.074 14.443C36.235 8.66348 31.5901 4.0559 25.8013 3.11377C18.6825 1.95549 11.9648 6.26301 10.1766 13.2017C9.87643 14.3646 9.75801 15.6004 9.74424 16.8043C9.69467 21.2559 9.72496 25.7084 9.72404 30.16C9.72404 31.2745 9.37338 31.7561 8.27365 31.8838C4.69816 32.2978 1.69824 30.99 0.419512 27.7669C0.231328 27.2926 0.137695 26.7828 0 26.2894C0 24.4954 0 22.7024 0 20.9084C0.0275391 20.8227 0.0670117 20.7388 0.0816992 20.6503C0.559043 17.9261 2.51982 15.9141 5.24068 15.3897C5.7575 15.2903 6.29176 15.2766 6.81316 15.2246C7.33273 7.28996 14.0559 0.541844 22.4003 0.0356671C26.2025 -0.195077 29.7247 0.705098 32.866 2.86023C37.2246 5.84986 39.6168 10.0233 40.185 15.2711C40.3796 15.2711 40.5467 15.2675 40.7128 15.2711C43.5888 15.3523 46.0214 17.2429 46.776 19.9836C46.8605 20.2891 46.9256 20.5992 46.9991 20.9075V26.2885H47Z" fill="#FFB400"/>
<path d="M23.4542 43.9955C22.8584 43.9955 22.2617 44.0064 21.6659 43.9937C20.0283 43.959 18.756 42.6822 18.7542 41.0843C18.7523 39.5156 20.009 38.2105 21.6191 38.1658C22.8712 38.1311 24.1261 38.132 25.3791 38.1658C26.9874 38.2087 28.245 39.5138 28.245 41.0825C28.245 42.6785 26.9709 43.9581 25.3342 43.9928C24.7081 44.0064 24.0811 43.9946 23.4542 43.9955Z" fill="#FFB400"/>
<path d="M6.23218 33.5874H7.80925C9.1761 38.2269 12.3119 40.4121 17.1294 40.2753V41.834C11.7207 42.4961 6.89954 38.4732 6.23218 33.5874Z" fill="#FFB400"/>
</svg>
