<svg width="70" height="81" viewBox="0 0 70 81" fill="none" xmlns="http://www.w3.org/2000/svg">
<path d="M35.8783 0.0044373C37.8473 0.621221 39.2159 1.8326 39.6618 3.92701C40.2268 6.58051 38.5183 9.22514 35.8695 9.81974C33.2427 10.4143 30.5542 8.71929 29.9449 6.07909C29.3136 3.35903 30.7263 1.07826 33.7063 0H35.8827L35.8783 0.0044373ZM37.2425 4.90765C37.2381 3.53652 36.13 2.41389 34.7879 2.41389C33.4326 2.41389 32.3421 3.52321 32.3377 4.90765C32.3289 6.32758 33.4502 7.46797 34.8276 7.43691C36.1918 7.40585 37.2469 6.30096 37.2425 4.91209V4.90765Z" fill="#FFB400"/>
<path d="M0 21.397C0.962413 18.7213 2.64443 17.4079 5.04605 17.4523C7.45649 17.4966 9.63296 19.489 9.83604 21.8407C10.07 24.5697 8.41449 26.8815 5.88043 27.3652C3.46998 27.8222 1.14783 26.531 0.264884 24.2369C0.17659 24.015 0.0882948 23.7976 0 23.5846V21.397ZM4.90919 20.0037C3.51855 20.0037 2.45018 21.042 2.42369 22.4353C2.3972 23.7532 3.54062 24.9291 4.86946 24.9424C6.25127 24.9557 7.41676 23.8065 7.3991 22.4398C7.38144 21.0731 6.28659 20.0037 4.90919 20.0037Z" fill="#FFB400"/>
<path d="M0 56.3707C0.459133 55.0306 1.15666 53.8814 2.43252 53.1625C4.86946 51.7825 7.92887 52.6389 9.26654 55.0972C10.6219 57.5821 9.65945 60.6838 7.13422 61.9661C4.64872 63.2263 1.63345 62.188 0.423815 59.641C0.256055 59.2904 0.136857 58.9177 0 58.5539C0 57.8261 0 57.0984 0 56.3663L0 56.3707ZM4.83855 59.9472C6.26451 59.9738 7.38586 58.9044 7.3991 57.5067C7.41235 56.171 6.29542 55.0306 4.94451 55.0129C3.60684 54.9907 2.45901 56.1 2.42811 57.4445C2.39279 58.8157 3.46116 59.925 4.83855 59.9472Z" fill="#FFB400"/>
<path d="M54.7113 40.0246C54.7113 42.9887 54.6848 45.9573 54.7201 48.9214C54.7422 50.6786 54.0403 51.9476 52.5172 52.8262C47.3122 55.8258 42.1161 58.8521 36.9287 61.8783C35.4984 62.7125 34.1033 62.7214 32.6685 61.8872C27.4768 58.8609 22.2851 55.8302 17.0801 52.8351C15.5526 51.9565 14.8506 50.7007 14.8595 48.9436C14.8815 42.9887 14.8859 37.0294 14.8595 31.0746C14.8506 29.2908 15.5349 28.0128 17.0977 27.1165C22.2895 24.1391 27.4547 21.1217 32.62 18.1044C34.0768 17.2524 35.4895 17.2435 36.9508 18.0955C42.1646 21.135 47.3828 24.1701 52.6055 27.1875C54.0491 28.0217 54.7246 29.242 54.7201 30.9015C54.7069 33.9455 54.7201 36.9895 54.7201 40.0335L54.7113 40.0246ZM28.0375 34.549C28.2626 34.7132 28.3818 34.8152 28.5098 34.8907C30.417 35.9955 32.3286 37.0871 34.2225 38.2053C34.6331 38.4494 34.9421 38.4449 35.3527 38.2053C37.9176 36.6922 40.5003 35.2057 43.0785 33.7103C44.5795 32.8406 46.0717 31.9532 47.5859 31.1056C48.2349 30.7418 48.928 30.9415 49.2812 31.5139C49.6344 32.0863 49.4754 32.7829 48.8706 33.2222C48.5969 33.4175 48.3011 33.5816 48.0097 33.7503C44.244 35.9334 40.4826 38.1254 36.7124 40.2953C36.2621 40.5571 36.0414 40.8499 36.0458 41.4002C36.0635 47.1509 36.0635 52.9016 36.0458 58.6479C36.0458 59.3135 36.1782 59.42 36.7698 59.0739C41.5333 56.2873 46.3012 53.5051 51.0868 50.7584C51.8859 50.3014 52.1949 49.7378 52.1905 48.8149C52.1596 42.9088 52.1596 37.0028 52.1905 31.0968C52.1905 30.2093 51.9035 29.6458 51.1265 29.2109C49.0251 28.035 46.9458 26.8148 44.8797 25.5768C44.3676 25.2662 43.9747 25.2662 43.4626 25.5679C41.0786 26.9834 38.6726 28.3634 36.2754 29.7523C33.5691 31.3275 30.8629 32.9027 28.0419 34.5401L28.0375 34.549ZM33.5117 49.9996C33.5117 47.1376 33.5029 44.28 33.5206 41.4179C33.5206 40.9254 33.3925 40.5926 32.9422 40.3397C31.0925 39.2924 29.2515 38.2408 27.4282 37.1492C26.7793 36.7588 26.7307 37.0072 26.7439 37.5974C26.7704 38.791 26.766 39.9891 26.7439 41.1872C26.7263 41.9548 26.2451 42.4651 25.5784 42.5095C24.9295 42.5539 24.4085 42.0879 24.2805 41.3247C24.232 41.0186 24.2275 40.7035 24.2231 40.3929C24.2187 38.9641 24.1966 37.5308 24.232 36.102C24.2452 35.503 24.0112 35.1569 23.4991 34.8685C21.7376 33.8789 19.9982 32.8539 18.25 31.8378C17.4288 31.363 17.3935 31.3808 17.3935 32.357C17.3935 37.8681 17.4068 43.3836 17.3759 48.8948C17.3714 49.7955 17.7114 50.3236 18.4751 50.7584C23.2563 53.5051 28.0242 56.2829 32.7833 59.065C33.3307 59.3845 33.525 59.3756 33.5161 58.6612C33.4897 55.777 33.5073 52.8883 33.5073 49.9996H33.5117ZM41.4583 23.6732C41.3479 23.5933 41.2331 23.4912 41.1007 23.4158C39.2641 22.3464 37.4276 21.277 35.5867 20.2165C34.9907 19.8748 34.4123 19.9547 33.8252 20.2964C28.9646 23.1274 24.1039 25.9495 19.2345 28.7583C18.7312 29.0512 18.6959 29.1976 19.2256 29.4993C21.1196 30.5732 23.0002 31.6692 24.8721 32.7785C25.3091 33.0403 25.6623 33.027 26.0906 32.7696C27.4238 31.9709 28.7747 31.2033 30.1212 30.4223C33.7501 28.3146 37.379 26.2069 41.008 24.0947C41.1757 23.9971 41.4097 23.9572 41.4583 23.6643V23.6732Z" fill="#0E2B72"/>
<path d="M34.8288 70.0567C37.5571 70.0655 39.7777 72.2798 39.7865 75.0087C39.7998 77.7953 37.535 80.0228 34.7096 80.0051C31.9989 79.9873 29.7783 77.7332 29.7871 75.0087C29.8004 72.2531 32.0387 70.0478 34.8244 70.0567H34.8288ZM32.3389 74.9954C32.3256 76.3798 33.3763 77.4936 34.7405 77.5424C36.0649 77.5868 37.2216 76.4597 37.2436 75.0974C37.2701 73.6686 36.1929 72.5282 34.8023 72.5194C33.447 72.5105 32.3477 73.6109 32.3389 74.9954Z" fill="#FFB400"/>
<path d="M59.7091 57.5204C59.6914 54.7559 61.9297 52.4752 64.6713 52.4707C67.3687 52.4619 69.6158 54.716 69.629 57.4449C69.6423 60.2404 67.4481 62.499 64.711 62.5123C61.9518 62.5256 59.7312 60.3114 59.7091 57.5248V57.5204ZM64.6448 59.952C66.0487 59.9609 67.1214 58.927 67.1391 57.547C67.1568 56.1847 66.0663 55.0399 64.7286 55.0177C63.3424 54.9911 62.1769 56.1271 62.1813 57.4937C62.1813 58.8604 63.2718 59.9431 64.6448 59.952Z" fill="#FFB400"/>
<path d="M59.7138 22.3779C59.7668 19.5513 62.0272 17.3904 64.8482 17.4525C67.5588 17.5146 69.6779 19.822 69.6293 22.653C69.5808 25.3021 67.2366 27.5606 64.6142 27.4896C61.8373 27.4142 59.6609 25.1423 59.7138 22.3779ZM67.135 22.4533C67.1483 21.0733 66.0799 20.0084 64.6848 20.0039C63.303 19.9995 62.2082 21.0556 62.1773 22.4178C62.1464 23.7801 63.303 24.9426 64.6804 24.9426C66.0225 24.9426 67.1218 23.8244 67.1306 22.4533H67.135Z" fill="#FFB400"/>
<path d="M3.3677 39.9409C3.3677 37.1054 3.37653 34.2656 3.36328 31.4301C3.36328 30.6802 3.65024 30.1655 4.3875 29.988C5.00115 29.8416 5.64129 30.2631 5.77373 30.9332C5.86202 31.3902 5.8841 31.865 5.8841 32.3309C5.89293 37.4294 5.88851 42.5323 5.8841 47.6307C5.8841 47.9679 5.87527 48.3096 5.83995 48.6424C5.73841 49.5254 5.23513 50.0402 4.54202 49.9958C3.82683 49.9514 3.37653 49.4056 3.37211 48.527C3.36328 46.1575 3.37211 43.7924 3.37211 41.4229C3.37211 40.9304 3.37211 40.4334 3.37211 39.9409H3.3677Z" fill="#0E2B72"/>
<path d="M66.2129 40.0167C66.2129 42.7501 66.2129 45.4834 66.2129 48.2124C66.2129 48.4742 66.2306 48.7404 66.1776 48.9889C66.0496 49.5968 65.639 49.9429 65.0386 49.9829C64.4205 50.0228 63.9746 49.6856 63.8289 49.0954C63.7097 48.6251 63.7009 48.1148 63.6965 47.6267C63.6877 42.5282 63.6921 37.4253 63.6965 32.3269C63.6965 31.963 63.7098 31.5992 63.7539 31.2353C63.8599 30.4055 64.3675 29.9174 65.0386 29.9574C65.7317 30.0017 66.1864 30.5298 66.2129 31.3462C66.2261 31.7633 66.2129 32.1804 66.2129 32.5931C66.2129 35.0647 66.2129 37.5363 66.2129 40.0078V40.0167Z" fill="#0E2B72"/>
<path d="M58.4338 17.9175C58.4558 18.9203 57.4404 19.4883 56.4913 18.9647C55.2198 18.2636 53.9793 17.5137 52.7255 16.7816C49.2069 14.7404 45.6884 12.6992 42.1743 10.6581C42.0418 10.5782 41.905 10.5028 41.7725 10.4185C41.1368 9.98806 40.9337 9.34022 41.2516 8.74118C41.5871 8.10665 42.2802 7.87147 42.9866 8.25752C44.3287 8.98967 45.6398 9.77507 46.9598 10.5427C50.4342 12.5573 53.9042 14.5718 57.3786 16.5863C57.904 16.8925 58.4073 17.212 58.4293 17.9175H58.4338Z" fill="#0E2B72"/>
<path d="M12.4011 19.192C11.8448 19.1521 11.4122 18.9036 11.2223 18.3489C11.0193 17.7588 11.2003 17.2529 11.7035 16.9157C12.2819 16.5252 12.8999 16.1924 13.5048 15.8419C17.6723 13.4191 21.8354 11.0008 26.0029 8.57802C26.206 8.46265 26.4046 8.3384 26.6165 8.24078C27.3185 7.9213 27.9586 8.09879 28.3074 8.69339C28.6473 9.27024 28.4928 9.98464 27.8571 10.3884C26.983 10.9431 26.0735 11.4445 25.1773 11.9681C21.2791 14.2311 17.3809 16.4897 13.4827 18.7527C13.1472 18.948 12.8205 19.161 12.4055 19.192H12.4011Z" fill="#0E2B72"/>
<path d="M12.3472 60.7598C12.6959 60.7642 12.9917 60.9239 13.2875 61.0926C18.0157 63.8348 22.7439 66.5771 27.472 69.3149C27.5603 69.3681 27.6531 69.4169 27.7369 69.4746C28.4521 69.9494 28.6684 70.6505 28.2932 71.2673C27.9091 71.8974 27.2248 72.0571 26.4567 71.6311C25.3486 71.0144 24.2581 70.3621 23.1588 69.7275C19.5741 67.6465 15.9893 65.5654 12.4045 63.4843C12.1132 63.3156 11.813 63.1515 11.5613 62.934C11.1552 62.5791 11.0271 62.1087 11.217 61.5895C11.4068 61.0704 11.8086 60.8219 12.3427 60.7598H12.3472Z" fill="#0E2B72"/>
<path d="M42.2852 71.8761C41.7643 71.8584 41.3449 71.5699 41.1727 71.0242C40.9785 70.4074 41.1859 69.8882 41.7466 69.5554C43.1947 68.699 44.6515 67.847 46.104 67.004C49.4636 65.0516 52.8276 63.1036 56.1916 61.16C56.4565 61.0047 56.7435 60.8361 57.0393 60.7962C57.6397 60.7119 58.1032 60.987 58.3372 61.5594C58.5712 62.1362 58.4123 62.6599 57.9178 63.0104C57.3925 63.3831 56.8185 63.6937 56.2579 64.0221C51.98 66.507 47.7021 68.9919 43.4198 71.4723C43.0843 71.6676 42.7532 71.8761 42.2808 71.8805L42.2852 71.8761Z" fill="#0E2B72"/>
</svg>
