<svg width="100" height="100" viewBox="0 0 100 100" fill="none" xmlns="http://www.w3.org/2000/svg">
<path d="M17.1252 45.3066C16.3918 45.3066 15.7852 45.9133 15.7852 46.6466C15.7852 47.38 16.3918 47.9866 17.1252 47.9866H33.6252C34.5185 47.9866 35.3318 48.4866 35.7318 49.2866C36.4452 50.7066 37.3718 52.5666 38.0118 53.84C38.6452 55.1066 39.7785 56.0466 41.1385 56.4333C42.7385 56.8866 45.2185 57.6 46.9585 58.0933C47.5785 58.2666 47.9918 58.8266 47.9918 59.4666V65.34C47.9918 66.1466 47.3652 66.7666 46.5652 66.7666H40.4452C39.7118 66.7666 39.1052 67.3733 39.1052 68.1066C39.1052 68.84 39.7118 69.4466 40.4452 69.4466H46.5652C48.8185 69.4466 50.6785 67.5933 50.6785 65.3333V59.46C50.6785 57.6333 49.4585 56.0066 47.6985 55.5066C45.9585 55.0066 43.4785 54.3 41.8785 53.84C41.2452 53.66 40.7185 53.22 40.4185 52.6266C39.7852 51.3533 38.8518 49.4933 38.1385 48.0733C37.2852 46.3666 35.5385 45.2866 33.6318 45.2866H17.1318L17.1252 45.3066Z" fill="#0E2B72"/>
<path d="M17.1252 66.7734C16.3918 66.7734 15.7852 67.3801 15.7852 68.1134C15.7852 68.8468 16.3918 69.4534 17.1252 69.4534H25.1785C25.9118 69.4534 26.5185 68.8468 26.5185 68.1134C26.5185 67.3801 25.9118 66.7734 25.1785 66.7734H17.1252Z" fill="#0E2B72"/>
<path d="M35.0699 61.4062C31.3833 61.4062 28.3633 64.4262 28.3633 68.1129C28.3633 71.7996 31.3833 74.8196 35.0699 74.8196C38.7566 74.8196 41.7766 71.7996 41.7766 68.1129C41.7766 64.4262 38.7566 61.4062 35.0699 61.4062ZM35.0699 64.0929C37.3099 64.0929 39.0966 65.8796 39.0966 68.1196C39.0966 70.3596 37.3099 72.1463 35.0699 72.1463C32.8299 72.1463 31.0433 70.3596 31.0433 68.1196C31.0433 65.8796 32.8299 64.0929 35.0699 64.0929Z" fill="#0E2B72"/>
<path d="M31.8869 50.6743C31.1535 50.6743 30.5469 51.281 30.5469 52.0143C30.5469 54.221 32.3669 56.041 34.5669 56.041H39.9335C40.6669 56.041 41.2735 55.4343 41.2735 54.701C41.2735 53.9676 40.6669 53.361 39.9335 53.361H34.5669C33.8135 53.361 33.2269 52.7743 33.2269 52.021C33.2269 51.281 32.6202 50.6743 31.8869 50.6743Z" fill="#0E2B72"/>
<path d="M15.7892 60.0601C15.0559 60.0601 14.4492 60.6667 14.4492 61.4001C14.4492 62.1334 15.0559 62.7401 15.7892 62.7401H23.1692C23.9026 62.7401 24.5092 62.1334 24.5092 61.4001C24.5092 60.6667 23.9026 60.0601 23.1692 60.0601H15.7892Z" fill="#FFB200"/>
<path d="M15.7892 52.0132C15.0559 52.0132 14.4492 52.6199 14.4492 53.3532C14.4492 54.0865 15.0559 54.6932 15.7892 54.6932H23.1692C23.9026 54.6932 24.5092 54.0865 24.5092 53.3532C24.5092 52.6199 23.9026 52.0132 23.1692 52.0132H15.7892Z" fill="#FFB200"/>
<path d="M58.7251 25.1797C56.9451 25.1797 55.2384 25.8864 53.9851 27.1464C52.7251 28.4064 52.0184 30.113 52.0184 31.8864V57.3797C52.0184 57.7864 52.205 58.173 52.5184 58.4264L55.2584 60.6197L54.805 63.3397L52.5517 65.033C52.2117 65.2864 52.0117 65.6864 52.0117 66.1064V68.1197C52.0117 69.8997 52.7184 71.6064 53.9784 72.8597C55.2384 74.1197 56.9451 74.8264 58.7184 74.8264H78.8451C82.5317 74.8264 85.5517 71.8064 85.5517 68.1197V31.893C85.5517 28.2064 82.5317 25.1864 78.8451 25.1864H58.7184L58.7251 25.1797ZM58.7251 27.8597H78.8517C81.0917 27.8597 82.8784 29.6464 82.8784 31.8864V68.113C82.8784 70.353 81.0917 72.1397 78.8517 72.1397H58.7251C57.6584 72.1397 56.6317 71.713 55.8784 70.9597C55.125 70.2064 54.6984 69.1797 54.6984 68.113V66.773L56.8451 65.1664C57.1184 64.9597 57.3051 64.653 57.3651 64.313L58.0384 60.2864C58.1184 59.8064 57.9317 59.3197 57.5517 59.0197L54.6984 56.7397V31.893C54.6984 30.8264 55.1184 29.7997 55.8784 29.0464C56.6317 28.293 57.6584 27.8664 58.7251 27.8664V27.8597Z" fill="#0E2B72"/>
<path d="M72.1408 30.5457C71.4074 30.5457 70.8008 31.1524 70.8008 31.8857C70.8008 32.6191 71.4074 33.2257 72.1408 33.2257H77.2808C77.4208 33.2257 77.5074 33.3124 77.5074 33.4524V39.9324C77.5074 40.6657 78.1141 41.2724 78.8474 41.2724C79.5808 41.2724 80.1874 40.6657 80.1874 39.9324V33.4524C80.1874 31.8591 78.8675 30.5391 77.2741 30.5391H72.1341L72.1408 30.5457Z" fill="#FFB200"/>
</svg>
