<svg width="78" height="78" viewBox="0 0 78 78" fill="none" xmlns="http://www.w3.org/2000/svg">
<path d="M77.9955 59.0672C77.2295 61.8812 75.7285 63.7814 73.1585 64.3317C72.6909 64.4303 72.2009 64.4355 71.7199 64.4355C64.4154 64.4407 57.1065 64.4355 49.802 64.4355C49.1072 64.4355 48.8548 64.8197 49.0448 65.5881C49.2363 66.3513 49.4635 67.1093 49.6149 67.8881C49.753 68.5942 50.0781 68.8486 50.6928 68.8018C51.3742 68.7447 52.0601 68.7863 52.746 68.7915C55.1423 68.8018 56.6121 70.349 56.8036 73.1162C56.866 74.0248 56.8971 74.9489 56.7635 75.8575C56.5987 76.9945 55.993 77.6279 55.0131 77.7214C54.786 77.7421 54.5588 77.7318 54.3272 77.7318C44.1276 77.7318 33.9325 77.7318 23.7329 77.7318C21.791 77.7318 21.1986 77.0412 21.2031 74.7517C21.2031 74.0456 21.2031 73.3291 21.2833 72.6282C21.5505 70.3023 22.9936 68.833 25.0157 68.7915C25.8263 68.7759 26.6414 68.7603 27.452 68.7915C27.9642 68.8122 28.2493 68.6149 28.3784 68.0127C28.5788 67.0989 28.8105 66.1904 29.0732 65.2974C29.2826 64.6017 29.0955 64.4251 28.4987 64.4251C25.1493 64.4459 21.7999 64.4355 18.455 64.4355C18.1744 64.4355 17.8893 64.4563 17.6221 64.3888C17.0075 64.2382 16.6422 63.771 16.6244 63.0285C16.6066 62.3432 17.0965 61.7566 17.7245 61.6891C18.0274 61.6527 18.3347 61.6735 18.6376 61.6735C36.3198 61.6735 54.0021 61.6735 71.6843 61.6735C73.0561 61.6735 74.2409 61.2737 75.0604 59.8927C75.5102 59.1399 75.675 58.2988 75.675 57.3799C75.6661 40.6207 75.675 23.8564 75.6661 7.0972C75.6661 4.5013 74.3834 2.92818 72.1297 2.73608C71.8535 2.71012 71.5729 2.72051 71.2923 2.72051C49.7797 2.72051 28.2671 2.72051 6.75443 2.72051C6.21996 2.72051 5.68994 2.74647 5.16437 2.85549C3.64557 3.1722 2.47863 4.66224 2.37619 6.45861C2.35392 6.8428 2.36283 7.227 2.36283 7.61119C2.36283 24.0173 2.40291 40.4234 2.33165 56.8295C2.31829 60.1211 4.12214 61.8344 6.56291 61.6891C8.30887 61.5852 10.0637 61.6631 11.8141 61.6735C12.7361 61.6735 13.2928 62.1927 13.3062 63.0234C13.3196 63.8489 12.745 64.4252 11.8498 64.4303C9.76976 64.4407 7.68976 64.4719 5.60976 64.42C2.53653 64.3421 0.00668094 61.3568 0.00668094 57.7848C-0.00222698 40.7297 -0.00222698 23.6746 0.00668094 6.61956C0.00668094 3.8679 1.54775 1.38102 3.77028 0.436112C4.14887 0.275166 4.54081 0.145371 4.92385 0C27.6569 0 50.3899 0 73.1274 0C74.3255 0.399769 75.4523 0.91895 76.3654 1.98327C77.1805 2.93337 77.6081 4.10672 78 5.3216V59.0724L77.9955 59.0672ZM38.9833 74.9645C42.2302 74.9645 45.4727 74.9645 48.7197 74.9645C50.3676 74.9645 52.0156 74.9645 53.6636 74.9645C53.962 74.9645 54.2693 75.0112 54.3717 74.5128C54.7726 72.5607 54.109 71.5587 52.3719 71.5587C43.4729 71.5587 34.5739 71.5587 25.6749 71.5587C24.018 71.5587 23.6928 71.9792 23.6528 73.8846C23.6349 74.7465 23.8844 74.9853 24.6104 74.9801C29.4028 74.9489 34.1953 74.9645 38.9878 74.9645H38.9833ZM39.0234 68.7915C41.5577 68.7915 44.092 68.7811 46.6263 68.8018C47.1697 68.8018 47.3701 68.6513 47.1741 67.9919C46.898 67.0418 46.6664 66.0761 46.4303 65.1105C46.319 64.6484 46.1052 64.4407 45.6732 64.4407C41.237 64.4511 36.8009 64.4511 32.3692 64.4407C31.9371 64.4407 31.7233 64.6432 31.612 65.1105C31.3848 66.0502 31.1711 66.9899 30.8905 67.9089C30.6588 68.6617 30.8815 68.8174 31.4962 68.8122C34.0038 68.7863 36.5158 68.8018 39.0234 68.8018V68.7915Z" fill="#0E2B72"/>
<path d="M38.9788 53.9482C29.0108 53.9482 19.0384 53.9482 9.07043 53.9482C8.6384 53.9482 8.21082 53.9586 7.78324 53.8392C6.45596 53.4602 5.64088 52.3128 5.63643 50.7241C5.62752 46.6174 5.63197 42.5055 5.63197 38.3987C5.63197 28.851 5.63197 19.3033 5.63197 9.75554C5.63197 7.31539 6.71429 6.02782 8.81656 6.02782C28.9574 6.02263 49.0982 6.02263 69.239 6.02782C71.3324 6.02782 72.4147 7.32577 72.4147 9.77111C72.4147 23.2802 72.4147 36.7893 72.4147 50.2984C72.4147 52.697 71.3413 53.9534 69.2657 53.9534C59.1686 53.9534 49.0715 53.9534 38.9788 53.9534V53.9482ZM39.0233 8.88331C29.1533 8.88331 19.2834 8.88331 9.41339 8.88331C9.15951 8.88331 8.90563 8.8937 8.65176 8.88851C8.21082 8.88851 8.00148 9.12214 8.00593 9.64651C8.01484 10.3837 8.01484 11.1262 8.00593 11.8634C7.99703 12.3411 8.16182 12.5851 8.58495 12.5695C8.83883 12.5591 9.0927 12.5695 9.34658 12.5695C23.96 12.5695 38.5735 12.5695 53.1914 12.5695C53.5967 12.5695 54.002 12.528 54.4029 12.6681C54.9774 12.8706 55.3382 13.3067 55.3248 14.0128C55.3159 14.7085 54.964 15.1862 54.3761 15.3315C53.9842 15.425 53.57 15.4302 53.1691 15.4302C38.4799 15.4302 23.7863 15.4302 9.09716 15.4302C8.01039 15.4302 8.01039 15.4302 8.01039 16.7022C8.01039 27.7607 8.01039 38.8193 8.01039 49.8726C8.01039 51.0148 8.05938 51.0719 9.04371 51.0719C29.0375 51.0719 49.0314 51.0719 69.0252 51.0719C70.0051 51.0719 70.0452 51.0148 70.0452 49.8571C70.0452 38.7414 70.0407 27.6257 70.0585 16.5049C70.0585 15.6379 69.8136 15.399 69.0965 15.4042C66.2281 15.4406 63.3642 15.425 60.4959 15.4198C59.2666 15.4198 58.6475 14.937 58.643 13.9972C58.643 13.0575 59.2666 12.5591 60.4825 12.5591C63.0435 12.5591 65.609 12.5591 68.17 12.5591C69.4201 12.5591 70.0452 11.8201 70.0452 10.3422C70.0452 9.36269 69.6265 8.8712 68.7891 8.86774C58.8702 8.86774 48.9467 8.86774 39.0278 8.86774L39.0233 8.88331Z" fill="#0E2B72"/>
<path d="M34.2803 48.6678C33.3896 48.6471 32.913 47.7281 33.2648 46.6223C33.8483 44.7947 34.463 42.988 35.0687 41.1709C37.4293 34.0685 39.7944 26.9713 42.1594 19.8689C42.2218 19.6768 42.2797 19.4795 42.3598 19.2926C42.6805 18.545 43.264 18.2386 43.8564 18.5034C44.4844 18.7786 44.7961 19.5158 44.5467 20.3102C44.1281 21.6704 43.6648 23.0151 43.215 24.3598C40.6629 32.0385 38.1108 39.7223 35.5675 47.401C35.3359 48.1071 35.0286 48.6834 34.2803 48.6626V48.6678Z" fill="#FFB400"/>
<path d="M48.7736 43.6215C48.3371 43.5852 47.9719 43.3464 47.7403 42.8791C47.5176 42.4326 47.5176 41.9654 47.767 41.5396C47.9229 41.2749 48.1233 41.0412 48.3238 40.8128C50.4438 38.3934 52.555 35.9584 54.7063 33.5806C55.2185 33.0147 55.1561 32.7239 54.684 32.1996C52.555 29.8321 50.4617 27.4231 48.3549 25.0245C48.1545 24.7961 47.9452 24.5728 47.7937 24.3028C47.482 23.7473 47.4998 23.1658 47.8828 22.6674C48.2837 22.1534 48.7825 22.0132 49.3259 22.3663C49.5441 22.5117 49.7401 22.7038 49.9227 22.9114C52.4659 25.7981 55.0091 28.6899 57.5435 31.5869C58.3808 32.5422 58.3763 33.2483 57.5256 34.2296C54.9913 37.1318 52.4481 40.0184 49.9094 42.9103C49.5931 43.2685 49.2546 43.5644 48.7736 43.6215Z" fill="#FFB400"/>
<path d="M28.975 42.2247C28.9438 42.7595 28.7434 43.2112 28.2847 43.4656C27.7858 43.7407 27.3404 43.6161 26.9574 43.1956C26.2358 42.4116 25.5232 41.6121 24.815 40.8074C22.8553 38.5801 20.9 36.3528 18.9447 34.1203C18.2499 33.326 18.2009 32.5212 18.8957 31.7269C21.5547 28.6845 24.2271 25.6629 26.9084 22.6516C27.4918 21.9974 28.1822 22.0234 28.6632 22.6257C29.1398 23.2227 29.1086 23.9651 28.4984 24.666C26.2982 27.1944 24.0935 29.7229 21.8576 32.2097C21.3766 32.7445 21.3543 33.03 21.8531 33.5804C24.04 35.9998 26.1824 38.4762 28.3381 40.9268C28.6499 41.2798 28.9438 41.6433 28.9795 42.2247H28.975Z" fill="#FFB400"/>
</svg>
