<svg width="76" height="91" viewBox="0 0 76 91" fill="none" xmlns="http://www.w3.org/2000/svg">
<path d="M7.49086 90.7499C5.2472 90.1895 3.29729 89.1517 1.86398 87.2215C-1.76741 82.3285 0.116695 75.2718 5.698 73.0355C6.42225 72.7449 6.49313 72.4439 6.31081 71.7487C4.67997 65.3769 9.75477 58.782 16.1515 58.9999C19.2511 59.1037 21.8544 60.3593 23.7637 62.9433C24.6399 64.1316 24.6704 65.0188 23.8651 65.6467C23.0497 66.2849 22.2545 66.0566 21.3327 64.9151C19.55 62.6943 17.2556 61.8226 14.5207 62.3985C11.7553 62.9797 9.95737 64.7438 9.14196 67.5146C8.72665 68.9208 8.81278 70.3373 9.29899 71.7279C9.42561 72.0859 9.58262 72.4024 9.87638 72.6515C10.5702 73.2326 10.6158 73.9798 10.2815 74.7581C9.9675 75.4897 9.35972 75.6454 8.62028 75.5779C6.41207 75.3808 3.75817 77.7001 3.18586 80.279C2.37045 83.9734 5.19659 87.6729 8.92421 87.6937C15.8477 87.73 22.766 87.7144 29.6895 87.7144C42.0727 87.7144 54.4609 87.7144 66.8441 87.7041C69.8678 87.7041 72.5723 85.2654 72.8255 82.3752C73.1193 79.0389 71.0579 76.1798 67.9026 75.5728C67.4873 75.4949 67.0518 75.5209 66.6365 75.443C66.0084 75.3289 65.6134 74.919 65.4715 74.2808C65.3297 73.6477 65.4614 73.0147 66.0084 72.7189C67.1277 72.1171 67.4012 71.017 67.6443 69.9482C68.3585 66.8193 66.8593 63.6283 64.0383 62.0924C61.2476 60.5721 58.0822 61.1065 55.8638 63.4622C55.6764 63.6646 55.5043 63.8825 55.3118 64.0797C54.6382 64.775 53.7063 64.8891 53.1087 64.3547C52.4806 63.7995 52.4198 62.8551 53.0225 62.0872C54.6179 60.0428 56.6641 58.6886 59.1863 58.2475C66.8543 56.9088 72.9977 64.5467 70.2476 71.9977C69.9893 72.6982 70.1362 72.9421 70.7541 73.2534C74.426 75.0902 76.2898 78.6756 75.8289 82.9045C75.4237 86.6041 72.5571 89.7277 68.7535 90.6201C68.6067 90.6565 68.4648 90.7084 68.3179 90.7499H7.48072H7.49086Z" fill="#0E2B72"/>
<path d="M13.4469 46.9102C13.4469 45.3536 13.4317 43.8022 13.4469 42.2455C13.4874 39.3139 15.1942 36.8181 17.8532 35.77C19.4688 35.1318 21.0845 34.5039 22.7052 33.8865C23.1812 33.7049 23.4243 33.435 23.4699 32.8747C24.179 24.1368 26.9038 16.0735 31.2898 8.57054C32.8193 5.95022 34.5312 3.4648 36.3951 1.08317C37.5144 -0.354118 38.4108 -0.364496 39.5402 1.07279C45.8812 9.14649 50.1407 18.2061 51.8981 28.4487C52.126 29.7614 52.2932 31.0897 52.4046 32.418C52.4704 33.1912 52.835 33.544 53.5188 33.7775C54.8964 34.2549 56.2588 34.7945 57.6111 35.3393C60.6499 36.5587 62.3567 39.1271 62.3668 42.479C62.3719 45.338 62.3617 48.2022 62.3668 51.0612C62.3769 53.6141 61.0044 55.2174 58.9279 56.3226C57.8745 56.883 56.7957 56.6547 55.7422 56.2915C54.2481 55.7726 52.7591 55.2434 51.2802 54.683C50.713 54.4702 50.4749 54.6 50.3129 55.2019C49.9533 56.5198 49.5177 57.8118 49.1074 59.1142C48.7985 60.1 48.1198 60.567 47.1271 60.5722C46.0332 60.5722 44.9392 60.593 43.8503 60.5722C43.2678 60.5567 43.0653 60.785 43.0349 61.3869C42.9133 63.6907 41.8396 64.744 39.5807 64.8114C38.4867 64.8426 37.3928 64.8426 36.3039 64.8114C34.1109 64.7492 33.0169 63.6543 32.9561 61.4128C32.9359 60.7435 32.6826 60.5515 32.0799 60.5722C31.0163 60.6034 29.9578 60.5722 28.8942 60.5826C27.9522 60.593 27.3444 60.1831 27.0608 59.2439C26.6708 57.9675 26.22 56.7118 25.8605 55.4302C25.6781 54.7816 25.4604 54.5636 24.7918 54.8438C23.5256 55.3679 22.2291 55.8038 20.9477 56.2915C19.3625 56.8934 17.7671 56.8571 16.2578 56.1358C14.4902 55.2901 13.5381 53.7801 13.4671 51.7773C13.4114 50.1636 13.457 48.5447 13.457 46.9258L13.4469 46.9102ZM26.2606 37.2695C26.291 39.5889 26.3011 41.3271 26.4783 43.0654C26.762 45.8465 27.2127 48.5966 27.8154 51.3259C27.9471 51.9278 28.2611 52.1301 28.8385 52.099C29.5628 52.0627 30.2921 52.099 31.0214 52.0886C33.2296 52.0679 32.9156 52.3377 32.9358 50.1843C32.9561 48.0154 34.0349 46.8168 36.1368 46.7234C37.3776 46.6716 38.6235 46.6664 39.8694 46.7234C41.8852 46.8168 43.0146 48.0621 43.045 50.1428C43.0501 50.5164 43.0653 50.89 43.045 51.2636C43.0096 51.8603 43.2577 52.1042 43.8452 52.0938C44.8784 52.0679 45.9116 52.0471 46.9397 52.1042C47.6741 52.1405 48.0034 51.8914 48.1756 51.1287C49.5532 45.0942 50.0545 38.9922 49.4873 32.8228C48.8846 26.2642 47.1018 20.0325 44.2301 14.1277C43.8503 13.3442 43.5413 13.2819 42.8221 13.697C39.5757 15.5805 36.2786 15.565 33.0372 13.6866C32.2927 13.256 32.0597 13.4168 31.7153 14.1329C28.1193 21.6151 26.215 29.4968 26.2657 37.2747L26.2606 37.2695ZM16.2932 47.1749C16.2932 48.5706 16.2932 49.9664 16.2932 51.3674C16.2932 51.4296 16.2932 51.4919 16.2932 51.5542C16.3388 53.282 17.5189 54.1589 19.1244 53.6037C20.7856 53.0278 22.4215 52.3688 24.0827 51.7721C24.5993 51.5853 24.7969 51.3207 24.6703 50.7343C23.7536 46.4848 23.2015 42.1885 23.2825 37.8195C23.2927 37.2903 23.1661 37.0464 22.6039 37.2747C21.363 37.778 20.0968 38.2087 18.8813 38.7691C17.1745 39.5578 16.3084 40.9691 16.2932 42.8993C16.2831 44.3262 16.2932 45.7531 16.2932 47.18V47.1749ZM59.5204 46.8687C59.5204 45.4729 59.5458 44.072 59.5154 42.6762C59.4698 40.6215 58.5987 39.1063 56.664 38.3436C55.6156 37.9285 54.5621 37.5342 53.5239 37.1087C52.9465 36.87 52.6932 36.9686 52.7034 37.6691C52.7692 42.0328 52.283 46.3447 51.4169 50.6098C51.2954 51.2117 51.4726 51.4556 51.9892 51.6372C53.5086 52.1664 55.0686 52.6231 56.5272 53.2924C58.2391 54.0811 59.6066 52.6853 59.5357 51.0612C59.4698 49.6655 59.5204 48.2645 59.5204 46.8687ZM40.0264 55.7622C40.0264 54.0863 40.0112 52.4103 40.0366 50.7343C40.0467 50.1428 39.834 49.8782 39.2465 49.8938C38.4007 49.9145 37.5498 49.9145 36.6989 49.8938C36.1519 49.8834 35.9494 50.1376 35.9544 50.6876C35.9646 54.0707 35.9646 57.4538 35.9544 60.842C35.9544 61.392 36.157 61.6411 36.704 61.6255C37.5194 61.61 38.3399 61.5944 39.1604 61.6307C39.8441 61.6619 40.0568 61.3713 40.0467 60.6968C40.0112 59.0519 40.0366 57.4071 40.0366 55.7622H40.0264ZM38.0208 12.1404C39.3123 12.0574 40.5683 11.6475 41.7281 10.9159C42.0928 10.6824 42.26 10.4437 41.9966 10.013C40.8418 8.11393 39.6314 6.25116 38.2943 4.4818C38.0208 4.11859 37.8385 4.19123 37.6055 4.51293C36.3191 6.2823 35.0883 8.09317 33.969 9.98188C33.7259 10.3918 33.7968 10.6616 34.1919 10.9003C35.3567 11.6111 36.5875 12.0989 38.0259 12.1404H38.0208ZM30.8492 55.1759C28.6308 55.1759 28.641 55.1707 29.3855 56.9297C29.5577 57.3396 29.8109 57.4849 30.2161 57.4745C30.8188 57.459 31.4266 57.4278 32.0242 57.4849C32.7738 57.5524 32.951 57.2047 32.9409 56.5042C32.9206 55.1759 32.951 55.1759 31.6595 55.1707C31.386 55.1707 31.1176 55.1707 30.8441 55.1707L30.8492 55.1759ZM45.086 55.1759C44.6606 55.1759 44.2402 55.1759 43.8148 55.1759C43.4805 55.1759 43.0703 55.1448 43.0703 55.6273C43.0703 56.2189 42.7259 57.1217 43.3033 57.3344C44.2099 57.6717 45.2633 57.5472 46.2459 57.3656C46.332 57.35 46.4282 57.1943 46.4637 57.0854C46.641 56.5042 47.1373 55.8712 46.879 55.3471C46.6662 54.9113 45.937 55.2382 45.4457 55.1707C45.3292 55.1552 45.2025 55.1707 45.081 55.1707L45.086 55.1759Z" fill="#0E2B72"/>
<path d="M28.7885 68.8544C28.7885 67.7959 28.7632 66.7374 28.7936 65.6841C28.829 64.5011 29.3811 63.8628 30.3079 63.8421C31.2449 63.8265 31.8374 64.4232 31.8628 65.627C31.9134 67.8011 31.9134 69.9804 31.8628 72.1545C31.8374 73.2908 31.2702 73.8304 30.313 73.8253C29.376 73.8253 28.8442 73.2701 28.7987 72.1182C28.7531 71.0337 28.7885 69.9441 28.7885 68.8544C28.7885 68.8544 28.7885 68.8544 28.7835 68.8544H28.7885Z" fill="#FFB400"/>
<path d="M39.4349 71.7531C39.4349 72.905 39.4552 74.0517 39.4299 75.2036C39.4096 76.1376 38.8829 76.7084 38.0674 76.7655C37.2267 76.8277 36.5024 76.2829 36.4771 75.3386C36.4113 72.9465 36.4113 70.5545 36.4771 68.1677C36.5024 67.2233 37.2014 66.7148 38.0826 66.7719C38.9487 66.829 39.4096 67.3219 39.4299 68.3078C39.4552 69.4545 39.4349 70.6064 39.4299 71.7583L39.4349 71.7531Z" fill="#FFB400"/>
<path d="M47.0768 68.889C47.0768 70.0046 47.092 71.1253 47.0768 72.2409C47.0565 73.2631 46.5703 73.7924 45.6738 73.8235C44.747 73.8546 44.119 73.315 44.0987 72.2928C44.0531 69.9942 44.0582 67.6956 44.0987 65.397C44.1139 64.4059 44.7875 63.804 45.6688 63.8351C46.5095 63.8611 47.0616 64.4682 47.0818 65.4385C47.1021 66.5852 47.0869 67.7371 47.0869 68.8838L47.0768 68.889Z" fill="#FFB400"/>
<path d="M37.9661 24.0684C41.3342 24.0684 43.8209 26.6057 43.8361 30.0562C43.8462 33.4185 41.2379 36.1166 37.9763 36.1115C34.7247 36.1115 32.0809 33.4029 32.0607 30.0614C32.0404 26.7198 34.6538 24.0684 37.9712 24.0684H37.9661ZM40.7922 30.0873C40.7922 28.3387 39.6527 27.1557 37.9661 27.1609C36.31 27.1609 35.0944 28.4113 35.0995 30.0925C35.1045 31.7218 36.4214 33.0449 38.0117 33.019C39.5817 32.993 40.7871 31.727 40.7871 30.0873H40.7922Z" fill="#FFB400"/>
</svg>
