<svg width="100" height="62" viewBox="0 0 100 62" fill="none" xmlns="http://www.w3.org/2000/svg">
<path d="M34.8949 61.3694C34.9418 61.2021 34.8063 61.223 34.7229 61.2125C34.4832 61.1759 34.2435 61.1654 34.009 61.1131C32.2633 60.7522 30.7885 59.9101 29.5743 58.6077C28.5894 57.5512 27.938 56.3063 27.6097 54.8993C27.5628 54.7058 27.5002 54.6064 27.2709 54.6483C27.0625 54.6849 26.8384 54.664 26.6195 54.664C24.1546 54.664 21.6897 54.664 19.2248 54.664C17.9794 54.664 16.8277 54.3606 15.8428 53.5446C14.8318 52.713 14.2638 51.6407 14.1074 50.3383C14.0658 49.9774 14.0605 49.6165 14.0605 49.2556C14.0605 46.2743 14.0605 43.2981 14.0605 40.3167C14.0605 39.6158 14.4566 39.0405 15.0767 38.826C16.0981 38.4756 17.1091 39.1503 17.1716 40.233C17.1768 40.3533 17.1716 40.4736 17.1716 40.5939C17.1716 43.6224 17.1716 46.6508 17.1716 49.6741C17.1716 50.5528 17.698 51.2484 18.5109 51.4629C18.6829 51.51 18.8601 51.4995 19.0372 51.4995C21.7679 51.4995 24.4986 51.4943 27.2292 51.4995C27.469 51.4995 27.5575 51.421 27.6149 51.1961C28.3861 48.2514 30.2205 46.2481 33.0866 45.2909C35.317 44.5482 37.5109 44.8149 39.5694 45.9813C41.5652 47.1059 42.7951 48.832 43.4256 51.0131C43.5872 51.5727 43.4621 51.4995 44.0562 51.4995C51.477 51.4995 58.8977 51.4995 66.3185 51.4995C66.5008 51.4995 66.6884 51.4995 66.8708 51.4995C66.9959 51.4995 67.0376 51.4577 67.0376 51.3269C67.0324 46.3004 67.0272 41.2791 67.0272 36.2526C67.0272 25.8754 67.0272 15.4981 67.0272 5.11555C67.0272 4.36759 66.7822 3.78178 66.1361 3.38949C65.8963 3.24304 65.6358 3.17504 65.3596 3.16458C65.1772 3.15935 64.9896 3.15935 64.8072 3.15935C49.6426 3.15935 34.4832 3.15935 19.3186 3.15935C18.8236 3.15935 18.3441 3.16981 17.9168 3.48364C17.427 3.84455 17.1768 4.32052 17.1768 4.92726C17.1768 6.59578 17.1768 8.25908 17.1768 9.9276C17.1768 10.4402 17.0518 10.9057 16.6297 11.2352C16.1294 11.6223 15.5874 11.7635 14.9881 11.4758C14.3732 11.1829 14.071 10.6703 14.0657 10.0061C14.0553 8.212 14.0657 6.41271 14.0657 4.61866C14.0657 4.49313 14.0814 4.36236 14.1022 4.23683C14.3524 2.64676 15.2122 1.4699 16.5619 0.638257C17.3644 0.141361 18.2608 0.0210605 19.1727 0.0105995C20.7361 -0.00509197 22.3047 0.00536888 23.8732 0.00536888C37.4849 0.00536888 51.1017 0.00536888 64.7134 0.00536888C65.6723 0.00536888 66.6103 0.104748 67.4753 0.544108C69.0335 1.33914 69.8933 2.63107 70.1383 4.3519C70.1852 4.68142 70.1852 5.01094 70.1852 5.34046C70.1852 6.98284 70.1852 8.62521 70.1852 10.2676C70.1852 10.5082 70.3015 10.6285 70.5343 10.6285C75.9227 10.6285 81.3111 10.6285 86.6994 10.6285C87.7834 10.6285 88.8204 10.8429 89.7793 11.3712C90.7173 11.8838 91.4156 12.637 91.9106 13.5785C92.5464 14.792 93.0206 16.0787 93.5626 17.334C94.6517 19.8864 95.7357 22.4389 96.8092 24.9966C97.4658 26.5605 98.1589 28.1088 98.7738 29.6936C98.9979 30.2794 99.0969 30.8862 99.0969 31.5138C99.0969 37.8846 99.0969 44.2501 99.0969 50.6208C99.0969 52.781 97.398 54.5227 95.2562 54.6221C93.9691 54.6849 92.6871 54.643 91.4052 54.6535C91.1498 54.6535 91.0664 54.7476 91.0091 54.983C90.3786 57.4152 88.9663 59.2406 86.7307 60.3913C85.6781 60.9301 84.5472 61.2334 83.3486 61.2387C83.2861 61.2387 83.2184 61.2387 83.1558 61.2491C83.1402 61.2491 83.1298 61.2648 83.1037 61.2805C83.2913 61.3537 83.4946 61.2805 83.6665 61.3694H82.3168C82.5253 61.1236 82.2439 61.2073 82.1865 61.2021C81.582 61.1445 80.9932 61.0295 80.4304 60.8098C77.658 59.748 75.881 57.7918 75.1306 54.9045C75.0785 54.711 75.0003 54.6483 74.8023 54.6483C64.4997 54.6483 54.1972 54.6535 43.8947 54.6483C43.6393 54.6483 43.5351 54.7163 43.4726 54.9725C43.0452 56.7457 42.1229 58.2155 40.721 59.3766C39.4704 60.4123 38.0373 61.0295 36.4114 61.1916C36.1717 61.2178 35.9372 61.2334 35.6974 61.2544C35.8434 61.3433 36.0101 61.2753 36.1456 61.3642H34.8949V61.3694ZM70.1852 32.6436C70.1852 38.6796 70.1852 44.7208 70.1852 50.7568C70.1852 50.9346 70.1904 51.1124 70.1852 51.2903C70.1799 51.4472 70.2425 51.4995 70.3988 51.4995C71.884 51.4995 73.3692 51.4995 74.8544 51.4995C75.0055 51.4995 75.0681 51.4367 75.1045 51.3008C75.1723 51.0183 75.2348 50.7359 75.3338 50.4639C76.4959 47.1791 79.7425 44.6633 83.5675 44.9248C85.0058 45.0242 86.3399 45.4426 87.5228 46.2324C89.3207 47.4354 90.5036 49.1092 91.0248 51.2275C91.0717 51.4263 91.1498 51.5047 91.3635 51.5047C92.5829 51.4943 93.8075 51.5047 95.027 51.4995C95.621 51.4995 95.9858 51.1177 95.9858 50.5266C95.9858 50.035 95.9754 49.5433 95.991 49.0516C95.9962 48.832 95.9337 48.7587 95.7044 48.764C94.98 48.7797 94.2609 48.7797 93.5365 48.764C91.869 48.7326 90.686 47.6185 90.6495 45.9343C90.6131 44.3756 90.6287 42.8117 90.6495 41.2478C90.6704 39.8983 91.7178 38.711 93.005 38.5645C93.9013 38.4599 94.8029 38.4965 95.6992 38.5331C95.9598 38.5436 95.991 38.4704 95.991 38.2507C95.9858 36.012 95.991 33.7734 95.991 31.5347C95.991 31.4301 95.9806 31.3255 95.9702 31.2209C95.9024 30.6926 95.6314 30.2376 95.4282 29.7564C94.313 27.1359 93.203 24.5154 92.0878 21.895C91.155 19.6929 90.2274 17.4961 89.2946 15.2941C89.0028 14.6089 88.4921 14.1643 87.7886 13.9342C87.4186 13.8139 87.033 13.7929 86.6473 13.7929C81.2642 13.7929 75.8862 13.7929 70.503 13.7929C70.1904 13.7929 70.1904 13.7929 70.1904 14.1172C70.1904 20.2944 70.1904 26.4664 70.1904 32.6436H70.1852ZM30.5175 53.0791C30.4341 55.8304 32.8104 58.0952 35.4629 58.1475C38.0529 58.1998 40.5647 56.0396 40.5908 53.1C40.6116 50.3959 38.4177 48.1154 35.6662 48.0369C32.5551 47.948 30.4289 50.5999 30.5227 53.0791H30.5175ZM83.0672 58.1265C85.8865 58.1318 88.0491 55.935 88.1013 53.0896C88.1586 50.0663 85.4957 48.0212 83.135 48.0317C79.9093 48.0474 78.0489 50.6835 78.0228 53.0111C77.9915 55.6473 80.1698 58.1893 83.0672 58.1213V58.1265ZM93.7867 43.6381C93.7867 44.2187 93.7867 44.794 93.7867 45.3746C93.7867 45.5315 93.8336 45.61 94.0056 45.61C94.5892 45.61 95.1781 45.61 95.7617 45.6152C95.9285 45.6152 95.991 45.5577 95.9858 45.3903C95.9858 44.2239 95.9858 43.0575 95.9858 41.8911C95.9858 41.7185 95.9233 41.6662 95.7617 41.6662C95.1937 41.6714 94.6205 41.6767 94.0525 41.6662C93.8336 41.6662 93.7815 41.7499 93.7867 41.9486C93.7971 42.5135 93.7867 43.0732 93.7867 43.6381Z" fill="#0E2B72"/>
<path d="M0.390625 24.6567C0.484427 24.73 0.489641 24.6358 0.515697 24.5835C0.83358 23.9297 1.34948 23.6211 2.07384 23.6211C10.9589 23.6211 19.8493 23.6211 28.7343 23.6211C29.5681 23.6211 30.1518 24.05 30.3446 24.798C30.5895 25.7447 29.8652 26.7123 28.8907 26.7437C28.6041 26.7542 28.3122 26.7437 28.0256 26.7437C19.4011 26.7437 10.7818 26.7437 2.15722 26.7437C1.41202 26.7437 0.849211 26.4665 0.520905 25.7813C0.474004 25.6819 0.432315 25.5773 0.390625 25.4727C0.390625 25.2007 0.390625 24.9235 0.390625 24.6515V24.6567Z" fill="#FFB400"/>
<path d="M19.8857 32.4603C24.3204 32.4603 28.7499 32.4603 33.1846 32.4603C34.107 32.4603 34.7376 32.952 34.8678 33.7836C35.0086 34.6728 34.3363 35.5201 33.4348 35.5777C33.341 35.5829 33.242 35.5829 33.1482 35.5829C24.2995 35.5829 15.4457 35.5829 6.59709 35.5829C6.02386 35.5829 5.53401 35.426 5.17965 34.9553C4.80965 34.4636 4.74191 33.9144 5.00247 33.36C5.26824 32.7898 5.72682 32.4551 6.3678 32.4551C9.41114 32.4551 12.4545 32.4551 15.4978 32.4551C16.957 32.4551 18.4213 32.4551 19.8804 32.4551L19.8857 32.4603Z" fill="#0E2B72"/>
<path d="M22.8251 14.7816C27.2598 14.7816 31.6893 14.7816 36.1241 14.7816C36.7651 14.7816 37.2705 15.017 37.5832 15.5871C38.1564 16.6332 37.4477 17.831 36.2231 17.9042C36.1189 17.9095 36.0146 17.9042 35.9104 17.9042C27.1504 17.9042 18.3852 17.9042 9.62513 17.9042C9.45837 17.9042 9.2864 17.9042 9.11964 17.8833C8.27543 17.7578 7.72304 17.0935 7.75952 16.2566C7.79599 15.4354 8.42134 14.8339 9.2864 14.7816C9.42189 14.7764 9.55738 14.7816 9.69808 14.7816C14.0755 14.7816 18.4529 14.7816 22.8303 14.7816H22.8251Z" fill="#FFB400"/>
<path d="M82.7174 31.8167C79.794 31.8167 76.8705 31.8167 73.947 31.8167C73.5301 31.8167 73.1288 31.7644 72.7797 31.5134C72.2481 31.1315 72.0918 30.5876 72.0918 29.9704C72.0918 27.1825 72.0918 24.3999 72.0918 21.6121C72.0918 20.2678 72.0918 18.9236 72.0918 17.5793C72.0918 17.1766 72.1335 16.7739 72.3784 16.4286C72.6963 15.9736 73.1393 15.7539 73.6916 15.7539C77.2822 15.7539 80.8727 15.7539 84.4632 15.7539C85.0416 15.7539 85.6201 15.7539 86.1985 15.7539C86.975 15.7539 87.5169 16.0991 87.8192 16.8105C88.4028 18.1861 88.9865 19.5669 89.565 20.9425C90.2633 22.6111 90.9615 24.2796 91.6807 25.9429C92.181 27.0936 92.6552 28.2548 93.1398 29.4107C93.3274 29.8658 93.4525 30.326 93.2441 30.8125C92.9262 31.55 92.3269 31.8115 91.5817 31.8167C90.2007 31.822 88.8198 31.8167 87.4388 31.8167C85.865 31.8167 84.2912 31.8167 82.7174 31.8167ZM82.3058 28.6575C84.5622 28.6575 86.8186 28.6575 89.0751 28.6575C89.419 28.6575 89.4242 28.6523 89.2888 28.3228C89.1168 27.9148 88.9396 27.512 88.7676 27.1041C87.6472 24.4522 86.5268 21.8003 85.4168 19.1433C85.3335 18.9393 85.224 18.8713 85.0051 18.8713C81.8576 18.8765 78.71 18.8713 75.5625 18.8713C75.2394 18.8713 75.2394 18.8713 75.2394 19.1851C75.2394 22.2345 75.2394 25.2839 75.2394 28.3385C75.2394 28.6523 75.2394 28.6523 75.5677 28.6523C77.8137 28.6523 80.0649 28.6523 82.311 28.6523L82.3058 28.6575Z" fill="#0E2B72"/>
<path d="M35.5507 50.8203C36.8535 50.8256 37.8072 51.8194 37.802 53.1636C37.7968 54.3718 36.7858 55.3499 35.5403 55.3447C34.2896 55.3447 33.2839 54.3038 33.2891 53.0276C33.2995 51.7932 34.3001 50.8151 35.5507 50.8203Z" fill="#FFB400"/>
<path d="M85.3222 53.1357C85.3274 54.3596 84.3424 55.3325 83.0918 55.343C81.8619 55.3534 80.8145 54.3073 80.8145 53.0677C80.8145 51.8438 81.8359 50.8134 83.0709 50.8029C84.3216 50.7872 85.3169 51.8176 85.3222 53.1357Z" fill="#FFB400"/>
</svg>
