<svg width="89" height="90" viewBox="0 0 89 90" fill="none" xmlns="http://www.w3.org/2000/svg">
<path d="M5.78598 89.5016C4.07064 88.9718 2.53366 88.1745 1.44256 86.6795C0.624235 85.5569 0.136386 84.3137 0.0314728 82.9236C0.0104901 82.635 0.0105016 82.3465 0.0105016 82.058C0.0105016 57.4611 0.0104913 32.8641 0 8.26716C0 5.71776 0.933742 3.66671 2.96382 2.12972C4.04967 1.3114 5.28764 0.865517 6.64627 0.765849C6.96101 0.744866 7.281 0.744866 7.60099 0.744866C24.5183 0.744866 41.4356 0.750112 58.3581 0.734375C61.4163 0.734375 63.6877 2.00907 65.1513 4.68437C65.7178 5.71252 65.9591 6.84034 65.9538 8.01537C65.9538 10.2081 65.9538 12.406 65.9591 14.5987C65.9591 14.8767 65.8752 15.1705 66.106 15.5377C66.7459 15.0288 67.3649 14.5305 67.9891 14.0426C68.1885 13.8905 68.3826 13.6177 68.6554 13.7331C68.9439 13.8538 68.8599 14.1843 68.8599 14.4308C68.8704 15.7318 68.9019 17.0327 68.8494 18.3284C68.818 19.0942 69.096 19.3198 69.8461 19.3145C73.8591 19.2831 77.872 19.2988 81.885 19.3041C83.0967 19.3041 83.1124 19.3041 83.1019 20.4843C83.0862 22.6036 83.3537 22.3361 81.2764 22.3413C76.5134 22.3518 71.7503 22.3413 66.9872 22.3413C65.744 22.3413 65.7545 22.3413 65.7283 21.0928C65.7178 20.7414 65.9276 20.2378 65.5237 20.0752C65.209 19.9493 64.9467 20.3847 64.6844 20.5945C61.836 22.8606 59.0086 25.1477 56.1549 27.3981C55.6199 27.8178 55.4992 28.0538 56.1182 28.5364C59.0925 30.8708 62.0301 33.2523 64.9886 35.6128C65.1617 35.7492 65.3191 36.0115 65.5709 35.9014C65.8332 35.7912 65.7335 35.4974 65.7335 35.2771C65.723 33.3362 65.7702 33.6562 67.4751 33.651C72.2959 33.6352 77.1166 33.6457 81.9374 33.651C83.1019 33.651 83.1177 33.651 83.1072 34.7788C83.0862 36.8718 83.4062 36.683 81.2292 36.6882C77.4786 36.6935 73.7227 36.7144 69.972 36.6725C69.0803 36.662 68.8127 36.9505 68.8547 37.816C68.9176 39.0855 68.8757 40.3549 68.8652 41.6244C68.8652 41.8447 68.9334 42.128 68.6816 42.2486C68.4298 42.3693 68.2567 42.1332 68.0836 41.9968C67.4331 41.4932 66.7879 40.9739 66.1532 40.4651C65.8856 40.7431 65.9696 40.9844 65.9696 41.2047C65.9643 44.0899 65.9853 46.9802 65.9538 49.8653C65.9486 50.563 66.1374 50.8673 66.8771 50.8201C67.6534 50.7676 68.435 50.7781 69.2166 50.8201C69.8776 50.8568 70.0717 50.5735 70.0612 49.9545C70.035 48.5959 70.0507 47.2425 70.0612 45.8839C70.0612 45.6373 69.9563 45.3121 70.2396 45.181C70.5228 45.0498 70.7012 45.3436 70.8953 45.5009C76.4872 49.9703 82.0685 54.4553 87.6762 58.9036C88.2952 59.3915 88.1693 59.638 87.6394 60.0577C82.0843 64.4798 76.5396 68.9229 70.9949 73.3502C70.7746 73.5233 70.57 73.8695 70.2815 73.7594C69.9143 73.6177 70.0664 73.2033 70.0664 72.9096C70.0507 71.6086 70.0455 70.313 70.0664 69.012C70.0769 68.4193 69.8356 68.1675 69.2481 68.1832C68.4718 68.2042 67.6849 68.2199 66.9085 68.178C66.1899 68.1413 65.9643 68.4245 65.9643 69.1379C65.9906 73.4394 65.9643 77.7408 65.9801 82.0423C65.9801 83.3065 65.7597 84.513 65.167 85.6356C64.2018 87.4558 62.754 88.699 60.7606 89.2813C60.5665 89.339 60.3882 89.4334 60.2046 89.5121H5.80696L5.78598 89.5016ZM3.04773 43.6387C3.04773 53.6842 3.04773 63.7296 3.04773 73.7751C3.04773 74.6459 3.49363 75.0813 4.38539 75.0813C23.4377 75.0813 42.4899 75.0813 61.5422 75.0813C61.7468 75.0813 61.9461 75.0655 62.1507 75.0813C62.7068 75.1285 62.9218 74.8819 62.9166 74.3259C62.8956 72.5371 62.8956 70.7484 62.9166 68.9543C62.9218 68.3983 62.6963 68.1675 62.1455 68.178C61.1646 68.1937 60.1836 68.178 59.2026 68.178C56.8421 68.178 57.2618 68.2724 57.1778 66.1951C57.1411 65.3348 57.4034 65.0306 58.2952 65.0358C62.8851 65.0725 67.4751 65.0673 72.065 65.0358C72.8886 65.0358 73.2558 65.3034 73.1719 66.1322C73.1561 66.3053 73.1614 66.4784 73.1719 66.6515C73.1929 66.9033 73.0565 67.26 73.2925 67.3754C73.5863 67.5275 73.7961 67.1761 74.006 67.0082C76.8753 64.7263 79.7342 62.434 82.5984 60.1416C83.4639 59.4492 83.4639 59.4387 82.5616 58.72C79.8129 56.5221 77.0642 54.3189 74.3102 52.1262C74.0007 51.8797 73.6755 51.3761 73.345 51.5125C72.9673 51.6698 73.1929 52.2364 73.1824 52.6193C73.1457 53.7996 73.1247 53.8416 71.9549 53.8416C67.7426 53.8416 63.5251 53.8573 59.3128 53.8363C56.9155 53.8206 57.2198 54.2717 57.1936 51.5544C57.1936 50.9932 57.4296 50.7886 57.9752 50.7991C59.2761 50.8201 60.577 50.7519 61.8727 50.8201C62.7382 50.862 62.9376 50.5368 62.9323 49.729C62.8956 46.1199 62.8956 42.5109 62.9323 38.9019C62.9428 38.115 62.6595 37.6324 62.0615 37.1603C58.484 34.3329 54.9274 31.474 51.3709 28.6256C50.5735 27.9856 50.5683 27.9699 51.3761 27.3247C54.9589 24.4553 58.5312 21.5754 62.135 18.7323C62.6858 18.2969 62.9586 17.851 62.9271 17.1376C62.8746 15.9258 62.9166 14.7141 62.9113 13.5023C62.9113 12.7015 62.5197 12.3011 61.7363 12.3011C42.5686 12.3011 23.4009 12.3011 4.23326 12.3011C3.44641 12.3011 3.05298 12.6998 3.05298 13.4971C3.05298 23.5426 3.05298 33.588 3.05298 43.6335L3.04773 43.6387ZM32.9743 78.1238C27.1726 78.1238 21.3709 78.1238 15.5692 78.1238C11.7608 78.1238 7.9472 78.15 4.13884 78.1028C3.23659 78.0923 2.96905 78.386 3.03725 79.2411C3.1002 80.0752 3.10544 80.9197 3.03725 81.7485C2.80644 84.6336 5.02536 86.5798 7.77934 86.5483C16.036 86.4539 24.2927 86.5116 32.5494 86.5116C41.0631 86.5116 49.5821 86.4434 58.0958 86.5483C61.175 86.585 63.1317 84.4238 62.9166 81.738C62.8536 80.9354 62.9061 80.1224 62.9061 79.3145C62.9061 78.5207 62.5127 78.122 61.7258 78.1185C52.142 78.1185 42.5581 78.1185 32.9743 78.1185V78.1238ZM32.9113 9.26384C42.4322 9.26384 51.9584 9.26384 61.4793 9.26384C61.7416 9.26384 61.9986 9.25335 62.2609 9.26384C62.6753 9.27433 62.8694 9.10122 62.9166 8.66058C63.1999 5.98005 61.3272 3.79785 58.6309 3.79785C41.5195 3.78736 24.4081 3.78736 7.29673 3.79785C4.85225 3.79785 3.10545 5.57613 3.05824 7.99963C3.04075 8.84593 3.47089 9.26908 4.34867 9.26908C13.8696 9.26908 23.3957 9.26908 32.9166 9.26908L32.9113 9.26384Z" fill="#0E2B72"/>
<path d="M88.7679 22.2838C88.023 22.2996 87.2833 22.3206 86.5384 22.3363C86.4545 22.3363 86.3496 22.3573 86.2814 22.3153C85.2952 21.7593 85.9667 20.8308 85.8093 20.0859C85.7149 19.6505 85.8985 19.2886 86.4493 19.2991C87.2204 19.3148 87.9967 19.3253 88.7679 19.3358V22.2786V22.2838Z" fill="#0E2B72"/>
<path d="M88.7671 36.6621C88.0222 36.6673 87.2773 36.6726 86.5377 36.6883C86.0498 36.6988 85.777 36.4942 85.798 35.9749C85.798 35.9487 85.798 35.9172 85.798 35.891C85.6564 33.5514 85.9081 33.3678 88.7723 33.7192V36.6621H88.7671Z" fill="#0E2B72"/>
<path d="M5.72857 43.6544C5.73381 31.2222 15.7425 20.6994 28.7466 20.7571C41.6562 20.8148 51.6334 31.0438 51.6492 43.7016C51.6649 56.7424 41.1054 66.7197 28.6207 66.6882C15.9629 66.6619 5.70234 56.3385 5.72857 43.6544ZM28.6941 23.8415C17.6887 23.8258 8.79728 32.6805 8.7763 43.6702C8.75532 54.6546 17.631 63.609 28.5839 63.6404C39.6261 63.6772 48.5228 54.8277 48.5647 43.7751C48.6067 32.7225 39.7677 23.852 28.6941 23.8363V23.8415Z" fill="#0E2B72"/>
<path d="M54.5184 66.5569C54.5184 67.641 54.0253 68.1831 53.0392 68.1831C51.9935 68.1831 51.4707 67.6358 51.4707 66.5412C51.4707 65.5515 51.9813 65.0566 53.0025 65.0566C54.0236 65.0566 54.5289 65.5585 54.5184 66.5621V66.5569Z" fill="#0E2B72"/>
<path d="M54.5184 52.3518C54.5184 53.352 53.9869 53.8521 52.9238 53.8521C51.9551 53.8521 51.4707 53.303 51.4707 52.2049C51.4707 51.2747 52.032 50.8096 53.1546 50.8096C54.0638 50.8096 54.5184 51.3236 54.5184 52.3518Z" fill="#0E2B72"/>
<path d="M32.9542 83.8417C30.8506 83.8417 28.7471 83.8207 26.6489 83.8522C25.9407 83.8627 25.6784 83.6162 25.6837 82.908C25.7151 80.4373 25.4948 80.815 27.7295 80.8045C31.5326 80.7887 35.3357 80.8202 39.1336 80.7835C40.0044 80.773 40.2929 81.051 40.2771 81.9218C40.2299 84.2142 40.3611 83.8207 38.3939 83.8417C36.5789 83.8627 34.7639 83.8417 32.9489 83.8417H32.9542Z" fill="#0E2B72"/>
<path d="M36.2693 34.7734H30.9764C31.9049 35.513 32.5816 36.5674 32.7705 38.0467H36.2641V39.6519H32.8019C32.482 42.9252 29.8853 45.0077 25.778 45.1388C28.2802 47.7354 31.0079 51.0087 33.6989 54.3135H30.6197C28.1175 51.2973 25.778 48.5066 22.7617 45.3015V43.3133H24.5243C27.9864 43.3133 29.8486 41.8708 30.0742 39.6571H22.7617V38.0519H29.9798C29.5286 36.1897 27.829 35.2612 25.0383 35.2612H22.7617V33.1787H36.2641V34.7839L36.2693 34.7734Z" fill="#FFB400"/>
</svg>
