<svg width="23" height="24" viewBox="0 0 23 24" fill="none" xmlns="http://www.w3.org/2000/svg">
<path d="M12 1.5C12 1.08579 11.6642 0.75 11.25 0.75C10.8358 0.75 10.5 1.08579 10.5 1.5V10.1893L5.94671 5.63603C5.65382 5.34313 5.17894 5.34313 4.88605 5.63603C4.59316 5.92892 4.59316 6.40379 4.88605 6.69669L9.43937 11.25H0.75C0.335787 11.25 0 11.5858 0 12C0 12.4142 0.335787 12.75 0.75 12.75H9.43936L4.88606 17.3033C4.59316 17.5962 4.59316 18.0711 4.88606 18.364C5.17895 18.6569 5.65382 18.6569 5.94672 18.364L10.5 13.8107V22.5C10.5 22.9142 10.8358 23.25 11.25 23.25C11.6642 23.25 12 22.9142 12 22.5V13.8106L16.5533 18.3639C16.8462 18.6568 17.3211 18.6568 17.614 18.3639C17.9069 18.0711 17.9069 17.5962 17.614 17.3033L13.0607 12.75H21.75C22.1642 12.75 22.5 12.4142 22.5 12C22.5 11.5858 22.1642 11.25 21.75 11.25H13.0607L17.614 6.6967C17.9069 6.40381 17.9069 5.92894 17.614 5.63604C17.3211 5.34315 16.8462 5.34315 16.5533 5.63604L12 10.1894V1.5Z" fill="black"/>
</svg>
