<svg width="12" height="13" viewBox="0 0 12 13" fill="none" xmlns="http://www.w3.org/2000/svg">
<g clip-path="url(#clip0_3233_26848)">
<path d="M3.24269 1.25804C3.13486 0.982201 3.022 0.904207 2.74235 0.903849C1.98932 0.903491 1.23592 0.903133 0.482892 0.903849C0.168379 0.903849 0.000159752 1.07021 0.000159752 1.38147C-0.00019969 3.59035 0.000159752 5.79923 0.000159752 8.00811C0.000159752 8.32259 0.165503 8.4886 0.478938 8.48895C1.22298 8.48967 1.96739 8.48573 2.71144 8.49146C2.9138 8.49289 3.08382 8.45031 3.20172 8.2564C3.23658 8.29755 3.26534 8.32867 3.29122 8.3623C4.1449 9.47282 4.90943 10.6413 5.59022 11.8642C5.82637 12.2888 6.18366 12.5082 6.67358 12.5003C6.76164 12.4989 6.85653 12.4888 6.93633 12.4548C7.44566 12.2377 7.88562 11.9329 8.1419 11.4252C8.30437 11.1032 8.32665 10.759 8.24758 10.4077C8.08439 9.68176 7.92264 8.95513 7.76125 8.22885C7.75262 8.19093 7.75011 8.15158 7.7422 8.09326C7.80582 8.09326 7.85758 8.09326 7.9097 8.09326C8.61816 8.09326 9.32626 8.09719 10.0347 8.09219C11.1684 8.08431 12.0289 7.19919 11.9994 6.07328C11.9905 5.73233 11.8977 5.41033 11.7083 5.12591C10.8988 3.91056 10.0962 2.6902 9.2666 1.48845C8.82233 0.844817 8.17173 0.523539 7.38707 0.509585C6.57581 0.495275 5.76419 0.499568 4.95292 0.508154C4.33612 0.514952 3.80091 0.740348 3.34873 1.15858C3.31638 1.18863 3.28439 1.2194 3.24305 1.25804H3.24269ZM3.24988 4.85114C3.24988 4.17316 3.25168 3.49483 3.24809 2.81685C3.24737 2.70952 3.26929 2.62115 3.33902 2.53493C3.48244 2.35819 3.61436 2.17215 3.75274 1.99076C4.07265 1.57181 4.49715 1.3618 5.02625 1.36215C5.7836 1.36215 6.5413 1.36251 7.29865 1.36215C7.86621 1.3618 8.31156 1.59292 8.62715 2.06267C9.4039 3.21899 10.1828 4.37387 10.9477 5.53806C11.0509 5.69512 11.1195 5.89869 11.1325 6.08545C11.177 6.73194 10.6857 7.23282 10.0297 7.23532C9.11527 7.2389 8.20085 7.23532 7.28643 7.2364C6.88349 7.23675 6.7088 7.46036 6.79651 7.85248C7.00175 8.7698 7.20483 9.68784 7.40792 10.6059C7.4719 10.8953 7.38455 11.134 7.15415 11.3196C7.06717 11.3898 6.97623 11.4552 6.88673 11.5221C6.62146 11.7196 6.49134 11.6874 6.31557 11.4055C5.74945 10.4964 5.18944 9.58338 4.60426 8.68644C4.24087 8.12904 3.83218 7.60132 3.33902 7.1466C3.27361 7.08613 3.24809 7.02674 3.24844 6.93945C3.25132 6.24358 3.25024 5.54736 3.25024 4.8515L3.24988 4.85114ZM2.37895 1.765V7.62279H0.869652V1.765H2.37859H2.37895Z" fill="#575757"/>
</g>
<defs>
<clipPath id="clip0_3233_26848">
<rect width="12" height="12" fill="white" transform="matrix(1 0 0 -1 0 12.5)"/>
</clipPath>
</defs>
</svg>
