<svg width="150" height="150" viewBox="0 0 150 150" fill="none" xmlns="http://www.w3.org/2000/svg">
<path d="M40.2612 24.5616C39.3912 24.7416 38.5513 25.1116 37.8313 25.6716C36.3813 26.7916 35.5312 28.5116 35.5312 30.3416V107.882C35.5312 108.962 36.4213 109.852 37.5013 109.852C38.5813 109.852 39.4713 108.962 39.4713 107.882V30.3516C39.4713 29.7416 39.7513 29.1716 40.2413 28.7916C40.7213 28.4216 41.3512 28.2916 41.9412 28.4416C49.8412 30.5216 65.0713 34.5216 71.4613 36.2116C72.3312 36.4416 72.9313 37.2116 72.9313 38.1216V98.1216C72.9313 99.2016 73.8213 100.092 74.9013 100.092C75.9813 100.092 76.8713 99.2016 76.8713 98.1216V38.1216C76.8713 35.4516 75.0513 33.0916 72.4713 32.4116C66.0813 30.7316 50.8513 26.7216 42.9513 24.6416C42.0613 24.4116 41.1512 24.3916 40.2812 24.5616H40.2612Z" fill="#0E2B72"/>
<path d="M74.8919 58.6992C73.8119 58.6992 72.9219 59.5892 72.9219 60.6692C72.9219 61.7492 73.8119 62.6392 74.8919 62.6392H108.342C109.452 62.6392 110.312 63.4992 110.312 64.6092V98.1292C110.312 99.2092 111.202 100.099 112.282 100.099C113.362 100.099 114.252 99.2092 114.252 98.1292V64.6092C114.252 61.3692 111.582 58.7092 108.352 58.7092H74.9019L74.8919 58.6992Z" fill="#0E2B72"/>
<path d="M96.5325 66.5703C95.4525 66.5703 94.5625 67.4603 94.5625 68.5403C94.5625 69.6203 95.4525 70.5103 96.5325 70.5103H102.433V78.3803C102.433 79.4603 103.323 80.3503 104.403 80.3503C105.483 80.3503 106.373 79.4603 106.373 78.3803V68.5403C106.373 67.4603 105.483 66.5703 104.403 66.5703H96.5325Z" fill="#0E2B72"/>
<path d="M43.3997 58.6992C42.3197 58.6992 41.4297 59.5892 41.4297 60.6692V68.5392C41.4297 69.6192 42.3197 70.5092 43.3997 70.5092H50.2897C51.3697 70.5092 52.2597 69.6192 52.2597 68.5392C52.2597 67.4592 51.3697 66.5692 50.2897 66.5692H45.3697V60.6692C45.3697 59.5892 44.4797 58.6992 43.3997 58.6992Z" fill="#0E2B72"/>
<path d="M43.3997 77.3906C42.3197 77.3906 41.4297 78.2806 41.4297 79.3606V86.2506C41.4297 87.3306 42.3197 88.2206 43.3997 88.2206H50.2897C51.3697 88.2206 52.2597 87.3306 52.2597 86.2506C52.2597 85.1706 51.3697 84.2806 50.2897 84.2806H45.3697V79.3606C45.3697 78.2806 44.4797 77.3906 43.3997 77.3906Z" fill="#0E2B72"/>
<path d="M27.7231 117.732C27.1831 117.712 26.6531 117.922 26.2731 118.312C25.5131 119.072 25.5131 120.332 26.2731 121.092L28.6831 123.502C29.9831 124.802 31.7431 125.522 33.5731 125.522C35.4031 125.522 37.1631 124.782 38.4531 123.482C38.9631 122.962 39.0231 122.912 39.4231 122.502C39.8531 122.932 39.9331 123.002 40.4931 123.562C43.1831 126.212 47.5731 126.182 50.2331 123.502C50.7731 122.962 50.8331 122.892 51.2431 122.482C51.6931 122.922 51.7831 123.002 52.3731 123.592C55.0531 126.232 59.4031 126.222 62.0731 123.572C62.6531 123.002 62.7331 122.922 63.1731 122.482L64.1931 123.502C65.4931 124.802 67.2531 125.522 69.0831 125.522C70.9131 125.522 72.6731 124.782 73.9631 123.482C74.4931 122.952 74.5531 122.892 74.9531 122.482C75.3931 122.922 75.4831 123.012 76.0731 123.592C78.7531 126.232 83.1031 126.222 85.7731 123.572C86.3531 123.002 86.4331 122.922 86.8731 122.482L87.9431 123.552C90.6031 126.212 94.9531 126.232 97.6431 123.602C98.2331 123.032 98.3131 122.952 98.7631 122.512L99.7731 123.522C102.443 126.192 106.833 126.202 109.513 123.542C110.073 122.982 110.153 122.912 110.583 122.482L111.603 123.502C112.903 124.802 114.663 125.522 116.493 125.522C118.323 125.522 120.083 124.782 121.373 123.482C122.633 122.212 123.743 121.092 123.743 121.092C124.503 120.332 124.503 119.072 123.743 118.312C122.973 117.552 121.723 117.552 120.963 118.312C120.963 118.312 119.843 119.432 118.583 120.702C118.033 121.262 117.273 121.582 116.493 121.582C115.703 121.582 114.953 121.272 114.393 120.722L111.993 118.312C111.233 117.552 109.983 117.542 109.213 118.312C109.213 118.312 108.053 119.462 106.753 120.752C105.583 121.922 103.743 121.912 102.573 120.752L100.533 118.712C100.183 118.112 99.5331 117.742 98.8431 117.742H98.7531C98.0631 117.742 97.4231 118.102 97.0731 118.692C96.7731 118.982 96.0431 119.692 94.9131 120.802C93.7431 121.952 91.9131 121.932 90.7531 120.772L88.2931 118.312C87.5331 117.552 86.2831 117.552 85.5231 118.312C85.5231 118.312 84.3431 119.482 83.0331 120.782C81.8631 121.942 80.0431 121.942 78.8631 120.782C77.5431 119.482 76.3431 118.302 76.3431 118.302C75.5731 117.542 74.3231 117.552 73.5631 118.322C73.5631 118.322 72.4531 119.442 71.1931 120.712C70.6431 121.272 69.8831 121.592 69.0931 121.592C68.3031 121.592 67.5531 121.282 66.9931 120.732L64.5931 118.322C63.8331 117.562 62.5831 117.552 61.8131 118.322C61.8131 118.322 60.6331 119.492 59.3231 120.792C58.1531 121.952 56.3331 121.952 55.1531 120.792C53.8331 119.492 52.6331 118.312 52.6331 118.312C51.8631 117.552 50.6131 117.562 49.8531 118.332C49.8531 118.332 48.7231 119.472 47.4531 120.752C46.2831 121.932 44.4531 121.942 43.2731 120.782C42.0931 119.622 41.2531 118.792 41.0431 118.582C40.6731 118.062 40.0731 117.762 39.4431 117.762H39.3931C38.7531 117.762 38.1531 118.082 37.7831 118.612C37.5731 118.822 36.7831 119.612 35.6731 120.742C35.1231 121.302 34.3631 121.622 33.5831 121.622C32.7931 121.622 32.0431 121.312 31.4931 120.762L29.0831 118.352C28.7331 118.002 28.2531 117.792 27.7531 117.772L27.7231 117.732Z" fill="#FFB200"/>
<path d="M27.7231 103.989C27.1831 103.969 26.6531 104.179 26.2731 104.569C25.5131 105.329 25.5131 106.589 26.2731 107.349C26.2731 107.349 27.4031 108.479 28.6831 109.749C29.9831 111.049 31.7431 111.769 33.5731 111.769C35.4031 111.769 37.1631 111.029 38.4531 109.729C38.9631 109.209 39.0231 109.159 39.4231 108.749C39.8531 109.179 39.9331 109.249 40.4931 109.809C43.1831 112.459 47.5731 112.439 50.2331 109.759C50.7731 109.219 50.8431 109.149 51.2531 108.729C51.6931 109.169 51.7831 109.259 52.3731 109.839C55.0531 112.479 59.4031 112.469 62.0731 109.819C62.6531 109.249 62.7331 109.169 63.1731 108.729C63.5831 109.139 63.6531 109.209 64.1931 109.739C65.4931 111.039 67.2531 111.759 69.0831 111.759C70.9131 111.759 72.6731 111.019 73.9631 109.719C74.4931 109.189 74.5531 109.129 74.9531 108.719C75.3931 109.159 75.4831 109.249 76.0731 109.829C78.7531 112.469 83.1031 112.459 85.7731 109.809C86.3531 109.239 86.4331 109.159 86.8731 108.719C87.3031 109.149 87.3831 109.229 87.9431 109.789C90.6031 112.439 94.9531 112.469 97.6431 109.839C98.2331 109.269 98.3131 109.189 98.7531 108.749L99.7631 109.759C102.433 112.429 106.823 112.439 109.503 109.779C110.073 109.219 110.153 109.149 110.583 108.719C110.993 109.129 111.063 109.199 111.603 109.739C112.903 111.029 114.653 111.759 116.483 111.759C118.313 111.759 120.073 111.019 121.373 109.719C122.633 108.449 123.743 107.329 123.743 107.329C124.503 106.559 124.503 105.309 123.743 104.549C122.973 103.789 121.723 103.789 120.963 104.549C120.963 104.549 119.843 105.669 118.583 106.939C118.023 107.499 117.273 107.819 116.493 107.819C115.703 107.819 114.953 107.509 114.393 106.949C113.123 105.679 111.993 104.549 111.993 104.549C111.233 103.789 109.983 103.789 109.213 104.549C109.213 104.549 108.053 105.709 106.753 106.989C105.583 108.149 103.743 108.149 102.573 106.979L100.533 104.939C100.183 104.339 99.5331 103.969 98.8431 103.969H98.7531C98.0631 103.969 97.4331 104.329 97.0731 104.919C96.7831 105.209 96.0431 105.919 94.9131 107.029C93.7331 108.179 91.9131 108.169 90.7531 107.009C89.4631 105.719 88.2931 104.549 88.2931 104.549C87.5331 103.789 86.2831 103.789 85.5231 104.549C85.5231 104.549 84.3431 105.719 83.0331 107.019C81.8631 108.179 80.0431 108.189 78.8631 107.029C77.5431 105.729 76.3431 104.539 76.3431 104.539C75.5731 103.779 74.3231 103.789 73.5631 104.559C73.5631 104.559 72.4531 105.679 71.1931 106.949C70.6331 107.509 69.8831 107.829 69.0931 107.829C68.3031 107.829 67.5531 107.519 66.9931 106.959C65.7231 105.689 64.5931 104.559 64.5931 104.559C63.8331 103.799 62.5831 103.799 61.8131 104.559C61.8131 104.559 60.6331 105.729 59.3231 107.029C58.1531 108.189 56.3331 108.199 55.1531 107.039C53.8331 105.739 52.6331 104.549 52.6331 104.549C51.8631 103.789 50.6131 103.799 49.8531 104.569C49.8531 104.569 48.7231 105.709 47.4531 106.989C46.2831 108.159 44.4531 108.179 43.2731 107.019C42.0931 105.859 41.2431 105.019 41.0331 104.809C40.6631 104.299 40.0731 103.989 39.4331 103.989H39.3831C38.7431 103.989 38.1431 104.309 37.7731 104.829C37.5631 105.039 36.7731 105.829 35.6531 106.959C35.0931 107.519 34.3431 107.829 33.5631 107.829C32.7731 107.829 32.0231 107.519 31.4631 106.959C30.1931 105.689 29.0631 104.559 29.0631 104.559C28.7131 104.199 28.2331 103.999 27.7331 103.979L27.7231 103.989Z" fill="#FFB200"/>
</svg>
