<svg width="24" height="24" viewBox="0 0 24 24" fill="none" xmlns="http://www.w3.org/2000/svg">
<g clip-path="url(#clip0_4513_32709)">
<path d="M9.40193 2.5C10.5566 0.499997 13.4434 0.5 14.5981 2.5L23.2583 17.5C24.413 19.5 22.9697 22 20.6603 22H3.33974C1.03034 22 -0.413031 19.5 0.74167 17.5L9.40193 2.5Z" fill="#FFB400"/>
<path d="M11.946 7.06C12.478 7.06 12.87 7.48 12.87 7.97C12.87 8.488 12.478 8.866 11.946 8.866C11.4 8.866 11.008 8.488 11.008 7.97C11.008 7.48 11.4 7.06 11.946 7.06ZM12.674 17H11.218V10.056H12.674V17Z" fill="white"/>
</g>
<defs>
<clipPath id="clip0_4513_32709">
<rect width="24" height="24" fill="white"/>
</clipPath>
</defs>
</svg>
