<svg width="79" height="72" viewBox="0 0 79 72" fill="none" xmlns="http://www.w3.org/2000/svg">
<path d="M17.6756 0.000286309C17.6669 0.0307653 17.5453 0.0568901 17.6625 0.0917232C18.379 0.322492 18.6308 0.844989 18.6178 1.55471C18.6047 2.24267 18.6221 2.93062 18.6178 3.61422C18.6178 3.82757 18.6872 3.90595 18.9 3.89724C19.269 3.88418 19.6381 3.88418 20.0028 3.89724C20.2416 3.90595 20.3024 3.81016 20.2677 3.58809C20.2199 3.27895 20.246 2.96981 20.2894 2.66502C20.3805 1.98142 20.8972 1.55471 21.5919 1.57648C22.2215 1.59825 22.7382 2.1164 22.7729 2.77823C22.7903 3.06995 22.7859 3.36168 22.7729 3.65341C22.7686 3.83193 22.8424 3.89288 23.0161 3.89288C23.8106 3.88853 24.6095 3.88853 25.4041 3.89288C25.5908 3.89288 25.6342 3.81451 25.6342 3.64034C25.6298 3.27895 25.5951 2.91756 25.6689 2.56052C25.7948 1.95529 26.3072 1.55471 26.9324 1.57213C27.5316 1.58519 28.0222 2.01625 28.1221 2.61712C28.1742 2.93497 28.1742 3.25283 28.1611 3.56632C28.1481 3.81016 28.2219 3.89724 28.4738 3.89288C29.3378 3.87982 30.2018 3.88853 31.0702 3.88853C34.4699 3.88853 37.8695 3.86676 41.2692 3.89724C43.909 3.91901 45.928 5.10333 47.3348 7.33701C47.96 8.32975 48.2509 9.4357 48.316 10.607C48.3377 10.9858 48.329 10.9684 48.7068 10.9684C50.5998 10.9684 52.4929 10.9074 54.3816 10.9988C57.0952 11.1295 59.518 12.0438 61.6238 13.755C64.1377 15.8014 65.6444 18.4444 66.1306 21.6534C66.2479 22.4328 66.3 23.2209 66.3 24.0133C66.3 25.337 66.3 26.6563 66.2956 27.98C66.2956 28.2064 66.3651 28.2717 66.5909 28.2717C70.1772 28.263 73.768 28.263 77.3543 28.263C78.4485 28.263 78.9435 28.681 78.9695 29.7695C79.0086 31.3152 78.9999 32.861 78.9695 34.4067C78.9521 35.2688 78.3964 35.7565 77.515 35.7565C73.959 35.7565 70.4074 35.7565 66.8514 35.7565C66.7298 35.7565 66.6126 35.7608 66.491 35.7565C66.3477 35.7565 66.2913 35.8174 66.2913 35.9611C66.2913 36.1919 66.2913 36.4226 66.2913 36.6578C66.2913 47.9219 66.2913 59.1861 66.2913 70.4546C66.2913 70.9858 66.1741 71.4604 65.6921 71.7695C65.4533 71.9219 65.1928 71.9829 64.9106 71.9829C63.4561 71.9829 61.9972 71.9829 60.5427 71.9829C60.356 71.9829 60.1649 72.0003 59.9782 71.9829C59.3834 71.9306 58.9405 71.5083 58.8624 70.9161C58.8363 70.7376 58.8233 70.5591 58.8233 70.3762C58.8233 58.9727 58.8233 47.5736 58.8233 36.1701C58.8233 35.7565 58.8233 35.7565 58.3978 35.7565C39.4977 35.7565 20.5976 35.7565 1.69322 35.7565C1.38929 35.7565 1.09404 35.7434 0.816163 35.6084C0.295141 35.3559 0.0346295 34.8856 0.112783 34.3065C0.134492 34.1454 0.143176 33.9843 0.108441 33.7666C0.0606806 34.0366 0.108441 34.263 -0.00878906 34.4589C-0.00878906 32.7086 -0.00878906 30.9538 -0.00878906 29.2035C0.0216039 29.2993 0.0563387 29.3907 0.0954154 29.5039C0.112783 29.4647 0.125808 29.4473 0.13015 29.4255C0.195278 28.8334 0.529601 28.4502 1.10273 28.3196C1.30245 28.2717 1.50652 28.2673 1.71493 28.2673C5.44024 28.2673 9.1612 28.2673 12.8865 28.2761C13.0993 28.2761 13.1948 28.2282 13.1904 27.993C13.1774 27.2702 13.1731 26.5518 13.1904 25.829C13.1948 25.5591 13.0993 25.5025 12.8474 25.5025C11.6925 25.5155 10.5376 25.5199 9.38264 25.5025C8.44046 25.4938 7.50261 25.5504 6.56043 25.4589C4.38951 25.2543 2.64842 24.279 1.37626 22.5112C0.62078 21.4618 0.147518 20.2993 0.169227 18.9713C0.173569 18.6316 0.134492 18.292 0.117125 17.948C0.0823898 18.0438 0.0823898 18.144 0.0867317 18.2398C0.0997572 18.6491 0.117125 19.0627 -0.00444721 19.4633V10.0888C0.117125 10.398 0.047655 10.7332 0.13015 11.1033C0.164885 10.5634 0.117125 10.0801 0.212645 9.5968C0.868265 6.28331 3.75126 3.89724 7.12487 3.88418C8.07574 3.88418 9.0266 3.87547 9.97747 3.88418C10.2076 3.88418 10.2684 3.81451 10.2684 3.58809C10.2553 2.85225 10.264 2.11204 10.2684 1.37184C10.2684 0.710011 10.5766 0.283305 11.1975 0.0786608C11.2627 0.0568901 11.3321 0.052536 11.3669 -0.0214844H17.6886L17.6756 0.000286309ZM13.3077 22.9684C15.5177 22.9684 17.7277 22.9684 19.9333 22.9727C20.1938 22.9727 20.246 22.8726 20.246 22.6374C20.246 21.3268 20.272 20.0163 20.272 18.7013C20.272 18.0482 20.2416 17.3994 20.2416 16.7463C20.2416 16.2673 20.3111 15.784 20.272 15.3051C20.1938 14.3385 20.272 13.3675 20.259 12.4009C20.2416 11.3472 20.2329 10.2935 20.2677 9.23976C20.2937 8.42554 20.2503 7.61132 20.2416 6.79709C20.2373 6.41393 20.2329 6.40522 19.8552 6.40522C17.7668 6.40522 15.6783 6.39651 13.5856 6.40522C11.3365 6.41828 9.08305 6.35733 6.82963 6.44441C4.38951 6.53585 2.60935 8.54746 2.5833 10.829C2.5529 13.4459 2.57027 16.067 2.5833 18.6839C2.5833 19.6026 2.87854 20.443 3.45167 21.1657C4.37214 22.3239 5.56181 22.964 7.06409 22.9684C9.14384 22.9684 11.2236 22.9684 13.3077 22.9684ZM28.1655 14.6563C28.1655 17.3167 28.1655 19.9814 28.1611 22.6418C28.1611 22.903 28.235 22.9771 28.4955 22.9771C30.5144 22.9684 32.5377 22.9771 34.5567 22.9771C36.9013 22.9771 39.2502 22.9901 41.5948 22.9596C42.8323 22.9466 43.8569 22.3893 44.6776 21.4792C45.4721 20.5997 45.8151 19.5417 45.8151 18.3617C45.8151 15.8537 45.8151 13.3457 45.8151 10.8421C45.8151 9.39651 45.2073 8.24702 44.1001 7.34136C43.1883 6.60116 42.1159 6.40958 40.9913 6.40958C36.8275 6.40522 32.668 6.40958 28.5042 6.40958C28.1655 6.40958 28.1655 6.40958 28.1655 6.75355C28.1655 9.3878 28.1655 12.0264 28.1655 14.6607V14.6563ZM39.5107 30.8189C39.5107 30.8189 39.5107 30.8145 39.5107 30.8102C37.3094 30.8102 35.1081 30.8102 32.9068 30.8102C28.3348 30.8102 23.7629 30.8145 19.1909 30.8189C14.0197 30.8189 8.84859 30.8189 3.6731 30.8189C3.39956 30.8189 3.12603 30.8276 2.85249 30.8189C2.66145 30.8102 2.57461 30.8668 2.57895 31.0801C2.58764 31.7158 2.58764 32.3515 2.57895 32.9872C2.57895 33.1614 2.63974 33.2354 2.81776 33.2311C3.13471 33.2224 3.45167 33.2224 3.76862 33.2224C27.8051 33.2224 51.8416 33.2224 75.8781 33.2224C75.9997 33.2224 76.1169 33.2224 76.2385 33.2224C76.3731 33.2267 76.4469 33.1788 76.4469 33.0308C76.4469 32.3602 76.4469 31.6897 76.4469 31.0235C76.4469 30.8798 76.3904 30.8189 76.2472 30.8232C76.0952 30.8276 75.9389 30.8232 75.7869 30.8232C69.8603 30.8232 63.9337 30.8232 58.0114 30.8232C51.846 30.8232 45.6805 30.8232 39.5151 30.8232L39.5107 30.8189ZM47.0091 28.2761C50.8213 28.2761 54.6291 28.2761 58.4412 28.2761C58.8363 28.2761 58.832 28.276 58.832 27.8755C58.832 26.3646 58.8059 24.8537 58.8363 23.3428C58.858 22.263 58.5324 21.3138 57.9028 20.4647C56.9476 19.1846 55.6711 18.4923 54.0646 18.4575C53.2267 18.4401 52.3843 18.4531 51.5464 18.4488C50.5781 18.4488 49.6099 18.4488 48.6417 18.4357C48.4072 18.4357 48.303 18.488 48.3073 18.7492C48.3073 19.0496 48.2813 19.3501 48.2335 19.6462C47.9339 21.4575 47.0395 22.9118 45.6067 24.0438C44.2868 25.0888 42.7541 25.4938 41.0999 25.5112C39.2589 25.5286 37.418 25.5112 35.577 25.5112C35.2123 25.5112 35.2123 25.5112 35.2123 25.8856C35.2123 26.5823 35.2253 27.2746 35.2123 27.9713C35.208 28.2151 35.2992 28.2761 35.5293 28.2761C39.3588 28.2717 43.184 28.2761 47.0135 28.2761H47.0091ZM61.3633 52.6157C61.3633 58.1367 61.3633 63.6578 61.3633 69.1745C61.3633 69.4052 61.4241 69.4923 61.6672 69.4836C62.2403 69.4662 62.8135 69.4792 63.3866 69.4749C63.7557 69.4749 63.7643 69.4618 63.7643 69.1004C63.7643 58.2238 63.7643 47.3472 63.7643 36.4705C63.7643 36.3181 63.7557 36.1614 63.7643 36.009C63.7774 35.8174 63.6905 35.7565 63.5038 35.7565C62.922 35.7652 62.3402 35.7565 61.7584 35.7565C61.3676 35.7565 61.3676 35.7565 61.3676 36.1527C61.3676 41.6389 61.3676 47.1251 61.3676 52.6113L61.3633 52.6157ZM51.5681 13.5025V13.4807C50.5564 13.4807 49.5491 13.4807 48.5375 13.4807C48.3855 13.4807 48.316 13.5112 48.316 13.6766C48.316 14.3472 48.316 15.0177 48.316 15.6839C48.316 15.8537 48.3898 15.9147 48.5505 15.9103C48.798 15.9016 49.0455 15.9016 49.2973 15.9059C51.0688 15.9321 52.8446 15.8189 54.6117 15.9626C56.2486 16.0975 57.6944 16.7376 58.9058 17.8566C60.5514 19.3849 61.3763 21.279 61.3676 23.5344C61.3676 25.0192 61.3676 26.5039 61.3676 27.9887C61.3676 28.1933 61.4154 28.2848 61.6412 28.2761C62.249 28.263 62.8569 28.2586 63.4647 28.2761C63.7035 28.2804 63.773 28.1977 63.773 27.9626C63.7643 26.2296 63.7643 24.4923 63.7556 22.7594C63.7556 22.5112 63.7296 22.263 63.6905 22.0192C63.3084 19.546 62.1839 17.4778 60.2778 15.8537C58.4977 14.3385 56.4353 13.5373 54.0907 13.5068C53.2527 13.4938 52.4104 13.5068 51.5724 13.5068L51.5681 13.5025ZM17.9535 25.5112C17.2848 25.5112 16.6205 25.5155 15.9519 25.5112C15.7521 25.5112 15.674 25.5765 15.6783 25.7768C15.6827 26.53 15.6827 27.2877 15.6783 28.0409C15.6783 28.2238 15.7521 28.2761 15.9258 28.2761C17.2674 28.2717 18.6134 28.2673 19.955 28.2761C20.1895 28.2761 20.246 28.189 20.246 27.9713C20.2373 27.2441 20.2373 26.5126 20.246 25.7855C20.246 25.5678 20.1635 25.5068 19.9594 25.5112C19.2907 25.5199 18.6264 25.5112 17.9578 25.5112H17.9535ZM30.4146 28.2673C31.0919 28.2673 31.7649 28.2673 32.4422 28.2673C32.6376 28.2673 32.7157 28.202 32.7157 27.9974C32.7071 27.2615 32.7071 26.5213 32.7157 25.7855C32.7157 25.5721 32.6419 25.5025 32.4335 25.5025C31.1006 25.5112 29.7633 25.5112 28.4303 25.5025C28.2263 25.5025 28.1611 25.5678 28.1655 25.7681C28.1742 26.5039 28.1742 27.2441 28.1655 27.98C28.1655 28.189 28.2306 28.2673 28.4434 28.263C29.1033 28.2499 29.7633 28.263 30.4189 28.263L30.4146 28.2673ZM24.2014 28.2673C24.5878 28.2673 24.9742 28.2543 25.3563 28.2673C25.556 28.2717 25.6298 28.2064 25.6255 28.0017C25.6168 27.2615 25.6168 26.5257 25.6255 25.7855C25.6255 25.5721 25.556 25.4981 25.3433 25.5025C24.5748 25.5112 23.8019 25.5112 23.0291 25.5025C22.825 25.5025 22.7642 25.5721 22.7642 25.7724C22.7729 26.5213 22.7729 27.2659 22.7642 28.0148C22.7642 28.2282 22.8511 28.2804 23.0421 28.2717C23.4285 28.263 23.8106 28.2717 24.197 28.2717L24.2014 28.2673ZM24.2014 20.7173C23.815 20.7173 23.4329 20.726 23.0464 20.7173C22.8511 20.7129 22.7686 20.7739 22.7729 20.9829C22.7816 21.5576 22.7859 22.1324 22.7729 22.7071C22.7729 22.9161 22.8554 22.9684 23.0464 22.9684C23.815 22.964 24.5878 22.964 25.3563 22.9684C25.5517 22.9684 25.6342 22.9118 25.6298 22.7071C25.6212 22.1324 25.6212 21.5576 25.6298 20.9829C25.6298 20.7739 25.5474 20.7129 25.3563 20.7173C24.9699 20.726 24.5878 20.7173 24.2014 20.7173ZM24.2057 15.9669C23.8019 15.9669 23.4025 15.9713 22.9987 15.9669C22.8337 15.9669 22.7729 16.0279 22.7729 16.1933C22.7773 16.7855 22.7729 17.3776 22.7729 17.9655C22.7729 18.1353 22.8424 18.2136 23.0204 18.2136C23.8063 18.2093 24.5921 18.2049 25.378 18.2136C25.5734 18.2136 25.6298 18.1309 25.6255 17.948C25.6212 17.3646 25.6168 16.7811 25.6255 16.1977C25.6255 16.0148 25.556 15.9582 25.3824 15.9582C24.9873 15.9669 24.5965 15.9582 24.2014 15.9582L24.2057 15.9669ZM24.1927 13.4241C24.5878 13.4241 24.9786 13.4154 25.3737 13.4241C25.5604 13.4241 25.6342 13.3544 25.6298 13.1672C25.6255 12.575 25.6255 11.9829 25.6298 11.3951C25.6298 11.2427 25.5734 11.1817 25.4171 11.1817C24.6139 11.1817 23.8106 11.1817 23.0074 11.1817C22.8467 11.1817 22.7729 11.2427 22.7773 11.4081C22.7773 12.0003 22.7773 12.5924 22.7773 13.1803C22.7773 13.3544 22.8424 13.4284 23.0204 13.4241C23.4155 13.4197 23.8063 13.4241 24.2014 13.4241H24.1927ZM24.2014 8.64325C24.5965 8.64325 24.9873 8.63889 25.3824 8.64325C25.5734 8.64325 25.6385 8.56923 25.6342 8.382C25.6255 7.81596 25.6255 7.24992 25.6342 6.68389C25.6342 6.47053 25.556 6.3878 25.352 6.39216C24.5748 6.39216 23.7976 6.39216 23.0204 6.39216C22.8467 6.39216 22.7729 6.45747 22.7773 6.63164C22.7859 7.21509 22.7859 7.79854 22.7773 8.37764C22.7773 8.58664 22.8597 8.6476 23.0508 8.64325C23.4372 8.63454 23.8193 8.64325 24.2057 8.64325H24.2014ZM14.4235 3.88418C14.9011 3.88418 15.3831 3.88418 15.8607 3.88418C16.004 3.88418 16.1168 3.87111 16.1168 3.68389C16.1125 3.36603 16.1168 3.04818 16.1168 2.73033C16.1168 2.57358 16.0387 2.52133 15.8911 2.52133C14.9142 2.52133 13.9416 2.52133 12.9647 2.52133C12.8084 2.52133 12.7519 2.58664 12.7563 2.73904C12.7606 3.04818 12.7649 3.35733 12.7563 3.66647C12.7519 3.83628 12.8214 3.88853 12.9864 3.88853C13.464 3.87982 13.9459 3.88853 14.4235 3.88853V3.88418Z" fill="#0E2B72"/>
<path d="M18.722 48.2536C21.2793 48.1883 23.0855 50.496 23.0855 52.5468C23.0855 55.02 21.1534 57.0011 18.7089 56.9924C16.5641 56.9837 14.3888 55.3596 14.3671 52.5207C14.3454 50.0214 16.7464 48.1317 18.722 48.2536ZM20.5499 52.6382C20.5499 51.5584 19.7684 50.7573 18.7176 50.7616C17.7103 50.7616 16.868 51.615 16.8723 52.6252C16.8723 53.631 17.7016 54.4496 18.7133 54.4496C19.751 54.4496 20.5455 53.6615 20.5455 52.6382H20.5499Z" fill="#FFB400"/>
<path d="M43.4444 62.6176C45.6326 62.5392 47.656 64.4463 47.7558 66.6451C47.873 69.1531 46.0582 71.1125 43.7179 71.2562C41.2213 71.4129 39.2718 69.397 39.1459 67.2199C38.9983 64.6422 41.052 62.561 43.4487 62.6176H43.4444ZM43.453 68.7221C44.4821 68.7221 45.2506 67.9644 45.2549 66.9499C45.2549 65.9528 44.4647 65.1299 43.5095 65.1299C42.4674 65.1299 41.6425 65.9311 41.6381 66.9456C41.6381 67.9296 42.4457 68.7221 43.453 68.7221Z" fill="#FFB400"/>
<path d="M17.3846 64.3146C14.5016 64.3146 11.6143 64.3146 8.73131 64.3146C8.05398 64.3146 7.61546 63.9663 7.47218 63.3306C7.30284 62.5773 7.84123 61.8632 8.60974 61.8066C8.67921 61.8023 8.74868 61.8066 8.81381 61.8066C14.5233 61.8066 20.2329 61.8066 25.9424 61.8066C26.5155 61.8066 26.9541 62.02 27.2016 62.5642C27.575 63.3872 26.9888 64.3146 26.0857 64.3146C23.1853 64.3146 20.2806 64.3146 17.3803 64.3146H17.3846Z" fill="#0E2B72"/>
<path d="M40.1099 47.7733C37.8174 47.7733 35.5206 47.7733 33.2281 47.7733C32.5507 47.7733 32.0514 47.3509 31.9472 46.7109C31.8387 46.0534 32.1904 45.4961 32.8286 45.3088C33.037 45.2479 33.2498 45.2305 33.4625 45.2305C37.9042 45.2305 42.346 45.2305 46.7877 45.2305C47.2957 45.2305 47.7603 45.3437 48.0772 45.7878C48.3768 46.2058 48.4115 46.6499 48.1727 47.0984C47.947 47.5207 47.5822 47.7689 47.096 47.7733C46.3926 47.782 45.6935 47.7733 44.9902 47.7733C43.362 47.7733 41.7381 47.7733 40.1099 47.7733Z" fill="#0E2B72"/>
<path d="M3.64273 46.0195C2.90461 46.0195 2.17084 46.0195 1.43273 46.0195C0.690269 46.0195 0.108461 45.4883 0.0954357 44.809C0.0824102 44.0906 0.646851 43.5246 1.41536 43.5202C2.90461 43.5115 4.39387 43.5115 5.88312 43.5202C6.5865 43.5202 7.15094 44.0949 7.15094 44.7829C7.15094 45.4796 6.60387 46.0195 5.87878 46.0238C5.13198 46.0282 4.38953 46.0238 3.64273 46.0238V46.0195Z" fill="#0E2B72"/>
<path d="M37.5699 55.7603C37.0836 55.7603 36.593 55.769 36.1067 55.7603C35.5857 55.7473 35.1124 55.3902 34.9387 54.8982C34.7651 54.4106 34.9083 53.8881 35.3035 53.5441C35.5205 53.3569 35.768 53.2567 36.0546 53.2567C36.7753 53.2567 37.4917 53.2567 38.2125 53.2567C38.5121 53.2567 38.8073 53.2219 39.1113 53.248C39.7886 53.3046 40.3183 53.8576 40.3096 54.5238C40.3009 55.1682 39.7539 55.7255 39.0939 55.756C38.8377 55.769 38.5816 55.756 38.3254 55.756C38.0779 55.756 37.8304 55.756 37.5786 55.756L37.5699 55.7603Z" fill="#0E2B72"/>
<path d="M4.85398 68.2984C4.84529 69.0125 4.28953 69.5698 3.60352 69.5567C2.93922 69.5437 2.34004 68.9254 2.34873 68.2723C2.36175 67.5974 2.93488 67.0226 3.59918 67.0313C4.28953 67.0357 4.85832 67.6148 4.84963 68.2984H4.85398Z" fill="#0E2B72"/>
<path d="M28.1265 41.5299C28.1265 42.2526 27.6055 42.7751 26.8804 42.7795C26.1726 42.7795 25.6256 42.2178 25.6299 41.4907C25.6386 40.8419 26.2161 40.2759 26.8804 40.2715C27.5837 40.2672 28.1221 40.8114 28.1221 41.5299H28.1265Z" fill="#0E2B72"/>
<path d="M54.8418 55.7462C54.8418 56.4516 54.286 57.0002 53.5826 56.9958C52.927 56.9958 52.3452 56.4037 52.3452 55.7375C52.3452 55.0278 52.8836 54.4879 53.5957 54.4922C54.3034 54.4922 54.8418 55.0365 54.8418 55.7462Z" fill="#0E2B72"/>
<path d="M51.1166 42.779C50.4567 42.779 49.8879 42.2043 49.8835 41.5468C49.8835 40.8458 50.448 40.2711 51.1297 40.2754C51.8461 40.2754 52.3845 40.8371 52.3758 41.5642C52.3671 42.2565 51.8157 42.7834 51.1123 42.779H51.1166Z" fill="#0E2B72"/>
<path d="M7.46781 53.0112C7.46781 53.673 6.87298 54.2652 6.21736 54.2609C5.53568 54.2522 4.97559 53.6905 4.97559 53.0112C4.97559 52.3276 5.54871 51.7485 6.23472 51.7442C6.92508 51.7398 7.46781 52.3015 7.46781 53.0156V53.0112Z" fill="#0E2B72"/>
<path d="M14.011 11.3481C12.8127 11.3002 11.6143 11.2785 10.416 11.3351C10.1077 11.3481 9.79945 11.322 9.51723 11.1652C9.03963 10.8953 8.78346 10.3336 8.90503 9.80676C9.03529 9.2146 9.4825 8.81837 10.1121 8.80966C11.5058 8.79225 12.9039 8.78789 14.2976 8.80966C14.9619 8.81837 15.4743 9.33651 15.5307 9.97222C15.5828 10.5644 15.1964 11.1304 14.6189 11.2697C14.4192 11.3176 14.2151 11.3264 14.011 11.3481Z" fill="#0E2B72"/>
<path d="M41.2301 15.9747C41.2388 18.5393 38.9246 20.5074 36.3803 20.1808C34.4221 19.9283 32.3858 17.8209 32.7548 15.3216C32.9198 14.2113 33.3367 13.2142 33.9098 12.2694C34.5437 11.2287 35.2861 10.2839 36.2196 9.49579C36.7016 9.09085 37.2834 9.06473 37.7393 9.49143C39.311 10.9588 40.5745 12.6308 41.0869 14.7774C41.1824 15.1692 41.2388 15.5698 41.2301 15.9747ZM36.9795 17.6685C37.8392 17.6729 38.5121 17.1286 38.6902 16.2926C38.7813 15.8572 38.7162 15.4392 38.599 15.0255C38.3168 14.0241 37.7567 13.175 37.1054 12.3826C36.9881 12.2389 36.923 12.326 36.8449 12.4131C36.554 12.7527 36.3021 13.1184 36.0764 13.5059C35.6726 14.1983 35.3122 14.8949 35.2427 15.7222C35.1559 16.7715 35.9244 17.6641 36.9838 17.6729L36.9795 17.6685Z" fill="#FFB400"/>
</svg>
