<svg width="100" height="100" viewBox="0 0 100 100" fill="none" xmlns="http://www.w3.org/2000/svg">
<path d="M29.5661 16.0204C29.558 16.0489 29.4441 16.0734 29.5539 16.106C30.225 16.3222 30.4609 16.8117 30.4487 17.4765C30.4365 18.121 30.4528 18.7654 30.4487 19.4058C30.4487 19.6057 30.5138 19.6791 30.7131 19.6709C31.0588 19.6587 31.4046 19.6587 31.7462 19.6709C31.9699 19.6791 32.0269 19.5894 31.9943 19.3813C31.9496 19.0917 31.974 18.8021 32.0147 18.5166C32.1001 17.8763 32.5841 17.4765 33.2348 17.4969C33.8246 17.5173 34.3086 18.0027 34.3412 18.6227C34.3574 18.896 34.3534 19.1692 34.3412 19.4425C34.3371 19.6098 34.4062 19.6669 34.5689 19.6669C35.3132 19.6628 36.0616 19.6628 36.8059 19.6669C36.9808 19.6669 37.0215 19.5934 37.0215 19.4303C37.0174 19.0917 36.9849 18.7532 37.054 18.4187C37.172 17.8518 37.6519 17.4765 38.2376 17.4928C38.7989 17.5051 39.2585 17.9089 39.3521 18.4718C39.4009 18.7695 39.4009 19.0673 39.3887 19.3609C39.3765 19.5894 39.4456 19.6709 39.6815 19.6669C40.4909 19.6546 41.3003 19.6628 42.1138 19.6628C45.2985 19.6628 48.4832 19.6424 51.6679 19.6709C54.1408 19.6913 56.0321 20.8008 57.3499 22.8932C57.9356 23.8232 58.2081 24.8592 58.2691 25.9564C58.2894 26.3112 58.2813 26.2949 58.6352 26.2949C60.4085 26.2949 62.1819 26.2378 63.9511 26.3235C66.4932 26.4458 68.7628 27.3024 70.7354 28.9054C73.0904 30.8224 74.5017 33.2982 74.9573 36.3043C75.0671 37.0344 75.1159 37.7727 75.1159 38.5151C75.1159 39.755 75.1159 40.9909 75.1118 42.2309C75.1118 42.4429 75.1769 42.5041 75.3884 42.5041C78.748 42.496 82.1117 42.496 85.4713 42.496C86.4962 42.496 86.9599 42.8875 86.9843 43.9072C87.0209 45.3552 87.0128 46.8032 86.9843 48.2512C86.968 49.0588 86.4474 49.5156 85.6217 49.5156C82.2906 49.5156 78.9636 49.5156 75.6324 49.5156C75.5186 49.5156 75.4087 49.5197 75.2949 49.5156C75.1606 49.5156 75.1078 49.5727 75.1078 49.7073C75.1078 49.9235 75.1078 50.1397 75.1078 50.3599C75.1078 60.9118 75.1078 71.4637 75.1078 82.0197C75.1078 82.5173 74.9979 82.9619 74.5465 83.2515C74.3228 83.3942 74.0787 83.4513 73.8144 83.4513C72.4518 83.4513 71.0852 83.4513 69.7226 83.4513C69.5478 83.4513 69.3688 83.4677 69.1939 83.4513C68.6367 83.4024 68.2218 83.0067 68.1486 82.452C68.1242 82.2848 68.112 82.1176 68.112 81.9463C68.112 71.2638 68.112 60.5855 68.112 49.9031C68.112 49.5156 68.112 49.5156 67.7134 49.5156C50.0084 49.5156 32.3034 49.5156 14.5944 49.5156C14.3097 49.5156 14.0331 49.5034 13.7728 49.3769C13.2847 49.1404 13.0407 48.6998 13.1139 48.1574C13.1342 48.0065 13.1424 47.8555 13.1098 47.6516C13.0651 47.9045 13.1098 48.1166 13 48.3001C13 46.6604 13 45.0167 13 43.377C13.0285 43.4667 13.061 43.5524 13.0976 43.6584C13.1139 43.6217 13.1261 43.6054 13.1302 43.585C13.1912 43.0303 13.5043 42.6714 14.0412 42.549C14.2283 42.5041 14.4195 42.5001 14.6147 42.5001C18.1045 42.5001 21.5901 42.5001 25.0799 42.5082C25.2792 42.5082 25.3687 42.4633 25.3646 42.2431C25.3524 41.566 25.3483 40.893 25.3646 40.2159C25.3687 39.963 25.2792 39.91 25.0433 39.91C23.9614 39.9222 22.8795 39.9263 21.7976 39.91C20.915 39.9018 20.0364 39.9549 19.1538 39.8692C17.1202 39.6775 15.4892 38.7639 14.2975 37.1079C13.5898 36.1249 13.1464 35.0358 13.1668 33.7918C13.1708 33.4736 13.1342 33.1555 13.118 32.8333C13.0854 32.923 13.0854 33.0168 13.0895 33.1065C13.1017 33.49 13.118 33.8774 13.0041 34.2527V25.471C13.118 25.7606 13.0529 26.0747 13.1302 26.4214C13.1627 25.9156 13.118 25.4628 13.2074 25.0101C13.8216 21.9061 16.5223 19.6709 19.6826 19.6587C20.5733 19.6587 21.4641 19.6505 22.3548 19.6587C22.5704 19.6587 22.6273 19.5934 22.6273 19.3813C22.6151 18.692 22.6232 17.9986 22.6273 17.3052C22.6273 16.6852 22.9161 16.2855 23.4977 16.0938C23.5587 16.0734 23.6238 16.0693 23.6563 16H29.5783L29.5661 16.0204ZM25.4744 37.5361C27.5447 37.5361 29.6149 37.5361 31.6811 37.5402C31.9252 37.5402 31.974 37.4464 31.974 37.2261C31.974 35.9984 31.9984 34.7707 31.9984 33.5389C31.9984 32.9271 31.9699 32.3193 31.9699 31.7075C31.9699 31.2588 32.035 30.8061 31.9984 30.3574C31.9252 29.4519 31.9984 28.5424 31.9862 27.6369C31.9699 26.6498 31.9618 25.6627 31.9943 24.6756C32.0187 23.9129 31.978 23.1502 31.9699 22.3874C31.9658 22.0285 31.9618 22.0203 31.6079 22.0203C29.6515 22.0203 27.6952 22.0122 25.7347 22.0203C23.6279 22.0326 21.5169 21.9755 19.406 22.057C17.1202 22.1427 15.4526 24.0271 15.4282 26.1644C15.3997 28.6158 15.416 31.0712 15.4282 33.5226C15.4282 34.3832 15.7048 35.1704 16.2416 35.8475C17.1039 36.9325 18.2184 37.5321 19.6256 37.5361C21.5739 37.5361 23.5221 37.5361 25.4744 37.5361ZM39.3927 29.7497C39.3927 32.2418 39.3927 34.7381 39.3887 37.2302C39.3887 37.475 39.4578 37.5443 39.7019 37.5443C41.5932 37.5361 43.4885 37.5443 45.3798 37.5443C47.5762 37.5443 49.7766 37.5565 51.9729 37.528C53.1321 37.5157 54.092 36.9937 54.8607 36.1412C55.605 35.3173 55.9263 34.3261 55.9263 33.2207C55.9263 30.8714 55.9263 28.522 55.9263 26.1766C55.9263 24.8225 55.3569 23.7457 54.3198 22.8973C53.4656 22.2039 52.461 22.0244 51.4076 22.0244C47.507 22.0203 43.6105 22.0244 39.71 22.0244C39.3927 22.0244 39.3927 22.0244 39.3927 22.3466C39.3927 24.8143 39.3927 27.2861 39.3927 29.7538V29.7497ZM50.0206 44.8902C50.0206 44.8902 50.0206 44.8862 50.0206 44.8821C47.9585 44.8821 45.8964 44.8821 43.8342 44.8821C39.5514 44.8821 35.2685 44.8862 30.9856 44.8902C26.1415 44.8902 21.2973 44.8902 16.4491 44.8902C16.1928 44.8902 15.9366 44.8984 15.6804 44.8902C15.5014 44.8821 15.42 44.9351 15.4241 45.135C15.4322 45.7305 15.4322 46.326 15.4241 46.9215C15.4241 47.0846 15.4811 47.154 15.6478 47.1499C15.9447 47.1417 16.2416 47.1417 16.5386 47.1417C39.0552 47.1417 61.5718 47.1417 84.0884 47.1417C84.2023 47.1417 84.3121 47.1417 84.426 47.1417C84.552 47.1458 84.6212 47.101 84.6212 46.9623C84.6212 46.3341 84.6212 45.706 84.6212 45.0819C84.6212 44.9473 84.5683 44.8902 84.4341 44.8943C84.2917 44.8984 84.1453 44.8943 84.003 44.8943C78.4511 44.8943 72.8992 44.8943 67.3514 44.8943C61.5758 44.8943 55.8003 44.8943 50.0247 44.8943L50.0206 44.8902ZM57.0448 42.5082C60.6159 42.5082 64.183 42.5082 67.7541 42.5082C68.1242 42.5082 68.1201 42.5082 68.1201 42.133C68.1201 40.7176 68.0957 39.3023 68.1242 37.8869C68.1445 36.8754 67.8395 35.9862 67.2497 35.1908C66.3549 33.9916 65.1591 33.3431 63.6542 33.3105C62.8692 33.2942 62.0802 33.3064 61.2952 33.3023C60.3882 33.3023 59.4812 33.3023 58.5742 33.2901C58.3545 33.2901 58.2569 33.339 58.261 33.5838C58.261 33.8652 58.2366 34.1466 58.1918 34.424C57.9112 36.1208 57.0733 37.4831 55.7311 38.5436C54.4947 39.5225 53.0589 39.9018 51.5093 39.9182C49.7847 39.9345 48.0602 39.9182 46.3356 39.9182C45.994 39.9182 45.994 39.9182 45.994 40.2689C45.994 40.9216 46.0062 41.5701 45.994 42.2227C45.9899 42.4511 46.0753 42.5082 46.2909 42.5082C49.8783 42.5041 53.4616 42.5082 57.0489 42.5082H57.0448ZM70.4914 65.3088C70.4914 70.4807 70.4914 75.6526 70.4914 80.8205C70.4914 81.0367 70.5483 81.1183 70.7761 81.1101C71.313 81.0938 71.8498 81.106 72.3867 81.1019C72.7325 81.1019 72.7406 81.0897 72.7406 80.7512C72.7406 70.5623 72.7406 60.3734 72.7406 50.1845C72.7406 50.0418 72.7325 49.8949 72.7406 49.7522C72.7528 49.5727 72.6714 49.5156 72.4965 49.5156C71.9515 49.5238 71.4065 49.5156 70.8615 49.5156C70.4954 49.5156 70.4954 49.5156 70.4954 49.8868C70.4954 55.0261 70.4954 60.1654 70.4954 65.3047L70.4914 65.3088ZM61.3155 28.6688V28.6484C60.3678 28.6484 59.4242 28.6484 58.4765 28.6484C58.3342 28.6484 58.2691 28.677 58.2691 28.8319C58.2691 29.4601 58.2691 30.0882 58.2691 30.7123C58.2691 30.8714 58.3383 30.9285 58.4887 30.9244C58.7206 30.9162 58.9524 30.9162 59.1883 30.9203C60.8478 30.9448 62.5113 30.8387 64.1667 30.9733C65.7001 31.0998 67.0545 31.6994 68.1893 32.7476C69.7308 34.1793 70.5036 35.9536 70.4954 38.0664C70.4954 39.4573 70.4954 40.8481 70.4954 42.239C70.4954 42.4307 70.5402 42.5164 70.7517 42.5082C71.3211 42.496 71.8905 42.4919 72.4599 42.5082C72.6836 42.5123 72.7487 42.4348 72.7487 42.2145C72.7406 40.5912 72.7406 38.9637 72.7325 37.3404C72.7325 37.1079 72.708 36.8754 72.6714 36.647C72.3135 34.3302 71.2601 32.3928 69.4745 30.8714C67.8069 29.4519 65.875 28.7014 63.6786 28.6729C62.8936 28.6606 62.1046 28.6729 61.3196 28.6729L61.3155 28.6688ZM29.8264 39.9182C29.2001 39.9182 28.5778 39.9222 27.9514 39.9182C27.7643 39.9182 27.6911 39.9793 27.6952 40.167C27.6992 40.8726 27.6992 41.5823 27.6952 42.288C27.6952 42.4593 27.7643 42.5082 27.927 42.5082C29.1838 42.5041 30.4447 42.5001 31.7015 42.5082C31.9211 42.5082 31.974 42.4266 31.974 42.2227C31.9658 41.5415 31.9658 40.8563 31.974 40.1751C31.974 39.9712 31.8967 39.9141 31.7055 39.9182C31.0792 39.9263 30.4569 39.9182 29.8305 39.9182H29.8264ZM41.4996 42.5001C42.1341 42.5001 42.7645 42.5001 43.399 42.5001C43.5821 42.5001 43.6553 42.4389 43.6553 42.2472C43.6471 41.5578 43.6471 40.8644 43.6553 40.1751C43.6553 39.9753 43.5861 39.91 43.3909 39.91C42.1422 39.9182 40.8895 39.9182 39.6409 39.91C39.4497 39.91 39.3887 39.9712 39.3927 40.1588C39.4009 40.8481 39.4009 41.5415 39.3927 42.2309C39.3927 42.4266 39.4538 42.5001 39.6531 42.496C40.2713 42.4837 40.8895 42.496 41.5037 42.496L41.4996 42.5001ZM35.6793 42.5001C36.0413 42.5001 36.4033 42.4878 36.7612 42.5001C36.9483 42.5041 37.0174 42.4429 37.0134 42.2512C37.0052 41.5578 37.0052 40.8685 37.0134 40.1751C37.0134 39.9753 36.9483 39.9059 36.749 39.91C36.0291 39.9182 35.3051 39.9182 34.5811 39.91C34.39 39.91 34.333 39.9753 34.333 40.1629C34.3412 40.8644 34.3412 41.5619 34.333 42.2635C34.333 42.4633 34.4144 42.5123 34.5933 42.5041C34.9553 42.496 35.3132 42.5041 35.6752 42.5041L35.6793 42.5001ZM35.6793 35.4274C35.3173 35.4274 34.9594 35.4355 34.5974 35.4274C34.4144 35.4233 34.3371 35.4804 34.3412 35.6762C34.3493 36.2146 34.3534 36.753 34.3412 37.2914C34.3412 37.4872 34.4184 37.5361 34.5974 37.5361C35.3173 37.5321 36.0413 37.5321 36.7612 37.5361C36.9442 37.5361 37.0215 37.4831 37.0174 37.2914C37.0093 36.753 37.0093 36.2146 37.0174 35.6762C37.0174 35.4804 36.9402 35.4233 36.7612 35.4274C36.3992 35.4355 36.0413 35.4274 35.6793 35.4274ZM35.6834 30.9774C35.3051 30.9774 34.9309 30.9815 34.5527 30.9774C34.3981 30.9774 34.3412 31.0345 34.3412 31.1895C34.3452 31.7442 34.3412 32.2989 34.3412 32.8496C34.3412 33.0087 34.4062 33.0821 34.573 33.0821C35.3092 33.078 36.0454 33.0739 36.7815 33.0821C36.9646 33.0821 37.0174 33.0046 37.0134 32.8333C37.0093 32.2867 37.0052 31.7401 37.0134 31.1936C37.0134 31.0223 36.9483 30.9692 36.7856 30.9692C36.4155 30.9774 36.0494 30.9692 35.6793 30.9692L35.6834 30.9774ZM35.6712 28.5954C36.0413 28.5954 36.4073 28.5872 36.7775 28.5954C36.9524 28.5954 37.0215 28.5301 37.0174 28.3547C37.0134 27.8 37.0134 27.2453 37.0174 26.6946C37.0174 26.5519 36.9646 26.4948 36.8181 26.4948C36.0657 26.4948 35.3132 26.4948 34.5608 26.4948C34.4103 26.4948 34.3412 26.5519 34.3452 26.7069C34.3452 27.2616 34.3452 27.8163 34.3452 28.367C34.3452 28.5301 34.4062 28.5995 34.573 28.5954C34.9431 28.5913 35.3092 28.5954 35.6793 28.5954H35.6712ZM35.6793 24.1168C36.0494 24.1168 36.4155 24.1128 36.7856 24.1168C36.9646 24.1168 37.0256 24.0475 37.0215 23.8721C37.0134 23.3419 37.0134 22.8116 37.0215 22.2814C37.0215 22.0815 36.9483 22.004 36.7571 22.0081C36.0291 22.0081 35.301 22.0081 34.573 22.0081C34.4103 22.0081 34.3412 22.0693 34.3452 22.2324C34.3534 22.779 34.3534 23.3255 34.3452 23.868C34.3452 24.0638 34.4225 24.1209 34.6015 24.1168C34.9635 24.1087 35.3214 24.1168 35.6834 24.1168H35.6793ZM26.5197 19.6587C26.9671 19.6587 27.4186 19.6587 27.866 19.6587C28.0002 19.6587 28.106 19.6465 28.106 19.4711C28.1019 19.1733 28.106 18.8756 28.106 18.5778C28.106 18.431 28.0328 18.382 27.8945 18.382C26.9793 18.382 26.0683 18.382 25.1531 18.382C25.0067 18.382 24.9538 18.4432 24.9579 18.586C24.9619 18.8756 24.966 19.1652 24.9579 19.4548C24.9538 19.6138 25.0189 19.6628 25.1734 19.6628C25.6208 19.6546 26.0723 19.6628 26.5197 19.6628V19.6587Z" fill="#0E2B72"/>
<path d="M30.5464 61.222C32.9421 61.1608 34.6341 63.3226 34.6341 65.2437C34.6341 67.5605 32.8241 69.4164 30.5342 69.4082C28.525 69.4 26.4873 67.8786 26.4669 65.2193C26.4466 62.878 28.6958 61.1078 30.5464 61.222ZM32.2588 65.3294C32.2588 64.3178 31.5267 63.5673 30.5424 63.5714C29.5988 63.5714 28.8097 64.3709 28.8138 65.3172C28.8138 66.2594 29.5906 67.0262 30.5383 67.0262C31.5104 67.0262 32.2547 66.2879 32.2547 65.3294H32.2588Z" fill="#FFB400"/>
<path d="M53.7055 74.678C55.7554 74.6045 57.6508 76.3911 57.7444 78.4509C57.8542 80.8003 56.154 82.6357 53.9618 82.7703C51.6231 82.9172 49.7968 81.0287 49.6789 78.9893C49.5406 76.5746 51.4644 74.6249 53.7096 74.678H53.7055ZM53.7137 80.3965C54.6776 80.3965 55.3975 79.6867 55.4016 78.7364C55.4016 77.8023 54.6613 77.0314 53.7665 77.0314C52.7904 77.0314 52.0176 77.7819 52.0135 78.7323C52.0135 79.6541 52.77 80.3965 53.7137 80.3965Z" fill="#FFB400"/>
<path d="M29.2937 76.2672C26.593 76.2672 23.8883 76.2672 21.1876 76.2672C20.5531 76.2672 20.1423 75.9409 20.008 75.3454C19.8494 74.6398 20.3538 73.9709 21.0737 73.9178C21.1388 73.9137 21.2038 73.9178 21.2648 73.9178C26.6133 73.9178 31.9619 73.9178 37.3104 73.9178C37.8472 73.9178 38.258 74.1177 38.4899 74.6275C38.8397 75.3984 38.2906 76.2672 37.4446 76.2672C34.7276 76.2672 32.0066 76.2672 29.2896 76.2672H29.2937Z" fill="#0E2B72"/>
<path d="M50.5818 60.7727C48.4343 60.7727 46.2826 60.7727 44.1351 60.7727C43.5006 60.7727 43.0329 60.377 42.9353 59.7774C42.8336 59.1615 43.163 58.6394 43.7609 58.464C43.9561 58.4069 44.1554 58.3906 44.3547 58.3906C48.5156 58.3906 52.6765 58.3906 56.8373 58.3906C57.3132 58.3906 57.7484 58.4967 58.0453 58.9127C58.3259 59.3043 58.3585 59.7203 58.1348 60.1404C57.9233 60.5361 57.5816 60.7686 57.1261 60.7727C56.4672 60.7808 55.8123 60.7727 55.1534 60.7727C53.6282 60.7727 52.107 60.7727 50.5818 60.7727Z" fill="#0E2B72"/>
<path d="M16.4206 59.1306C15.7292 59.1306 15.0418 59.1306 14.3503 59.1306C13.6548 59.1306 13.1098 58.6329 13.0976 57.9967C13.0854 57.3236 13.6142 56.7934 14.3341 56.7893C15.7292 56.7812 17.1243 56.7812 18.5193 56.7893C19.1782 56.7893 19.707 57.3277 19.707 57.9722C19.707 58.6248 19.1945 59.1306 18.5153 59.1346C17.8157 59.1387 17.1202 59.1346 16.4206 59.1346V59.1306Z" fill="#0E2B72"/>
<path d="M48.2024 68.2552C47.7469 68.2552 47.2872 68.2633 46.8317 68.2552C46.3436 68.2429 45.9003 67.9085 45.7376 67.4476C45.5749 66.9907 45.7091 66.5013 46.0793 66.179C46.2826 66.0037 46.5145 65.9098 46.7829 65.9098C47.4581 65.9098 48.1292 65.9098 48.8044 65.9098C49.085 65.9098 49.3616 65.8772 49.6463 65.9017C50.2808 65.9547 50.777 66.4727 50.7689 67.0968C50.7607 67.7004 50.2482 68.2225 49.63 68.2511C49.39 68.2633 49.1501 68.2511 48.9101 68.2511C48.6783 68.2511 48.4464 68.2511 48.2105 68.2511L48.2024 68.2552Z" fill="#0E2B72"/>
<path d="M17.5552 79.9995C17.547 80.6685 17.0264 81.1905 16.3838 81.1783C15.7615 81.1661 15.2002 80.5869 15.2083 79.9751C15.2205 79.3428 15.7574 78.8044 16.3797 78.8126C17.0264 78.8167 17.5592 79.3592 17.5511 79.9995H17.5552Z" fill="#0E2B72"/>
<path d="M39.3563 54.9249C39.3563 55.602 38.8682 56.0914 38.189 56.0955C37.526 56.0955 37.0135 55.5693 37.0176 54.8882C37.0257 54.2804 37.5667 53.7502 38.189 53.7461C38.8479 53.742 39.3522 54.2519 39.3522 54.9249H39.3563Z" fill="#0E2B72"/>
<path d="M64.3822 68.2411C64.3822 68.9019 63.8615 69.4158 63.2026 69.4117C62.5885 69.4117 62.0435 68.857 62.0435 68.233C62.0435 67.5681 62.5478 67.0624 63.2148 67.0664C63.8778 67.0664 64.3822 67.5763 64.3822 68.2411Z" fill="#0E2B72"/>
<path d="M60.8927 56.0934C60.2744 56.0934 59.7416 55.555 59.7375 54.9391C59.7375 54.2824 60.2663 53.744 60.9049 53.7481C61.576 53.7481 62.0803 54.2742 62.0722 54.9554C62.064 55.6039 61.5475 56.0975 60.8886 56.0934H60.8927Z" fill="#0E2B72"/>
<path d="M20.0038 65.6791C20.0038 66.2991 19.4466 66.8538 18.8324 66.8498C18.1939 66.8416 17.6692 66.3154 17.6692 65.6791C17.6692 65.0388 18.2061 64.4963 18.8487 64.4922C19.4954 64.4881 20.0038 65.0143 20.0038 65.6832V65.6791Z" fill="#0E2B72"/>
<path d="M26.1333 26.6515C25.0107 26.6067 23.8882 26.5863 22.7656 26.6393C22.4768 26.6515 22.188 26.627 21.9236 26.4802C21.4762 26.2273 21.2363 25.7012 21.3502 25.2076C21.4722 24.6529 21.8911 24.2817 22.4809 24.2736C23.7865 24.2573 25.0961 24.2532 26.4017 24.2736C27.024 24.2817 27.504 24.7671 27.5569 25.3626C27.6057 25.9173 27.2437 26.4476 26.7027 26.5781C26.5156 26.623 26.3245 26.6311 26.1333 26.6515Z" fill="#0E2B72"/>
<path d="M51.6314 30.9847C51.6395 33.3871 49.4717 35.2307 47.0882 34.9248C45.2539 34.6882 43.3463 32.7141 43.692 30.3728C43.8466 29.3327 44.237 28.3987 44.7739 27.5136C45.3678 26.5387 46.0633 25.6536 46.9377 24.9154C47.3892 24.536 47.9342 24.5116 48.3613 24.9113C49.8337 26.2859 51.0172 27.8521 51.4972 29.863C51.5867 30.2301 51.6395 30.6053 51.6314 30.9847ZM47.6495 32.5713C48.4548 32.5754 49.0853 32.0655 49.252 31.2824C49.3374 30.8745 49.2764 30.483 49.1666 30.0955C48.9022 29.1573 48.3776 28.362 47.7675 27.6196C47.6576 27.485 47.5966 27.5666 47.5234 27.6482C47.2509 27.9663 47.015 28.3089 46.8035 28.672C46.4253 29.3205 46.0877 29.9731 46.0226 30.7481C45.9412 31.7311 46.6612 32.5672 47.6536 32.5754L47.6495 32.5713Z" fill="#FFB400"/>
</svg>
