<svg width="16" height="16" viewBox="0 0 16 16" fill="none" xmlns="http://www.w3.org/2000/svg">
<path d="M15.6584 7.83612C15.6281 11.6518 12.8689 14.9185 9.11156 15.5445C7.32355 15.8426 5.63138 15.5458 4.04066 14.675C3.94223 14.6209 3.86022 14.6152 3.75446 14.649C2.72966 14.9748 1.7027 15.2923 0.6779 15.6181C0.476739 15.6821 0.29414 15.6821 0.139168 15.5268C-0.0153716 15.3719 -0.0179616 15.1898 0.0459264 14.9873C0.370547 13.9603 0.686102 12.9302 1.01115 11.9036C1.04698 11.7898 1.0349 11.7046 0.978347 11.6029C-1.43041 7.2642 0.802655 1.76649 5.55282 0.336251C10.0487 -1.01741 14.6979 1.85301 15.5055 6.48765C15.5832 6.93238 15.6087 7.3862 15.6584 7.83612ZM1.16397 14.4902C1.26282 14.4643 1.32455 14.4504 1.38455 14.4314C2.15898 14.1887 2.93427 13.9486 3.70697 13.699C3.92238 13.6293 4.10627 13.6496 4.30441 13.7665C5.88305 14.6953 7.57263 14.9657 9.35718 14.5651C13.7879 13.57 16.052 8.53177 13.8691 4.54217C12.394 1.84566 9.39387 0.461277 6.392 1.09074C3.22824 1.75437 0.942518 4.56207 0.932157 7.80151C0.928272 9.076 1.24858 10.2644 1.89998 11.3598C2.01092 11.5463 2.03336 11.7236 1.96473 11.9287C1.8335 12.3219 1.71479 12.7195 1.59176 13.1154C1.45276 13.5618 1.31376 14.0083 1.16397 14.4902Z" fill="black"/>
<path d="M3.4477 6.06272C3.44856 5.58294 3.56554 5.20051 3.81851 4.86869C4.0896 4.51308 4.36587 4.16049 4.65423 3.81829C5.07468 3.31862 5.82062 3.33895 6.2074 3.86458C6.55576 4.33744 6.88945 4.82153 7.21882 5.3078C7.4761 5.68764 7.45192 6.15011 7.17134 6.51524C7.03018 6.6991 6.88254 6.8782 6.73318 7.05514C6.67836 7.12004 6.66196 7.17065 6.70512 7.25458C7.08716 7.9909 7.64532 8.54768 8.37701 8.93487C8.46464 8.98116 8.52075 8.96645 8.59069 8.90675C8.77113 8.75317 8.95588 8.60392 9.14194 8.45726C9.52008 8.15918 9.99104 8.14102 10.3856 8.42005C10.8518 8.74971 11.3159 9.08282 11.7721 9.42546C12.2979 9.82044 12.3255 10.5533 11.8274 10.9825C11.4808 11.2814 11.1225 11.5682 10.756 11.8425C10.288 12.1925 9.75362 12.26 9.18899 12.1657C6.87348 11.7793 5.16879 10.5481 4.10039 8.4512C3.70972 7.68417 3.50036 6.86133 3.44727 6.06228L3.4477 6.06272ZM9.61246 11.284C9.87924 11.2792 10.0882 11.2052 10.2712 11.0586C10.5695 10.8194 10.8648 10.5767 11.1669 10.3426C11.2809 10.2544 11.2809 10.1972 11.163 10.1138C10.746 9.81784 10.3312 9.51847 9.92025 9.21434C9.81751 9.1382 9.74326 9.14988 9.65088 9.22775C9.40396 9.43584 9.14798 9.63355 8.90063 9.84164C8.72494 9.98959 8.53975 10.016 8.33082 9.92686C7.10961 9.40599 6.23848 8.53513 5.71874 7.31082C5.62939 7.10057 5.65572 6.9167 5.80335 6.74063C6.00797 6.4975 6.20222 6.24571 6.40511 6.00085C6.46986 5.92298 6.48108 5.85679 6.42022 5.7707C6.11589 5.33938 5.81371 4.90633 5.51413 4.47198C5.44075 4.36512 5.38117 4.36902 5.3039 4.46722C5.10145 4.72593 4.9059 4.99155 4.68704 5.23598C4.39695 5.56045 4.32011 5.92428 4.3935 6.34522C4.75654 8.42568 5.88149 9.92254 7.79381 10.815C8.37873 11.088 9.00035 11.2351 9.61074 11.2836L9.61246 11.284Z" fill="black"/>
</svg>
