<svg width="18" height="19" viewBox="0 0 18 19" fill="none" xmlns="http://www.w3.org/2000/svg">
<path d="M0.788534 18.4998H0.718C0.697781 18.488 0.679442 18.4711 0.657811 18.465C0.0573332 18.2914 -0.138751 17.8598 0.120343 17.2912C0.531321 16.3902 0.935715 15.4864 1.35186 14.5882C1.42334 14.4335 1.42193 14.3207 1.32929 14.1716C0.577873 12.9677 0.15467 11.6506 0.0328815 10.2403C-0.0498782 9.28333 0.0244175 8.33342 0.246364 7.39763C1.3307 2.82256 5.83218 -0.167289 10.4686 0.626963C13.0614 1.07135 15.0787 2.4252 16.5298 4.61186C17.3236 5.80771 17.7853 7.13053 17.9226 8.56338C17.9466 8.81261 17.9743 9.06184 18.0007 9.31108V9.69856C17.9861 9.7785 17.9673 9.85751 17.9574 9.93792C17.9048 10.379 17.8921 10.8286 17.7975 11.2598C17.1862 14.047 15.619 16.1241 13.1033 17.4713C12.1125 18.0018 11.0498 18.315 9.92878 18.4212C9.69743 18.4433 9.46749 18.4739 9.23661 18.5002H8.77908C8.54256 18.4739 8.30603 18.4443 8.06857 18.4217C6.94802 18.315 5.89283 17.9905 4.88843 17.4873C4.8052 17.4455 4.68247 17.4389 4.59172 17.4643C3.61177 17.7361 2.63511 18.0211 1.65563 18.2952C1.3702 18.3751 1.07819 18.433 0.789475 18.5007L0.788534 18.4998ZM2.15548 16.521C2.24341 16.5059 2.29984 16.5007 2.35392 16.4862C3.07007 16.291 3.78857 16.1029 4.50097 15.895C4.80943 15.8048 5.07511 15.8447 5.35631 15.9994C7.13705 16.9766 9.01748 17.2136 10.976 16.6771C14.3451 15.754 16.7339 12.5455 16.4231 8.82719C16.33 7.71505 15.9919 6.67344 15.422 5.71037C13.7766 2.93166 10.6308 1.55336 7.55179 2.16609C5.59706 2.55499 4.03262 3.58061 2.8848 5.21002C1.76707 6.79665 1.35092 8.5709 1.59544 10.4919C1.74827 11.6915 2.18793 12.7881 2.88903 13.7761C3.09499 14.0667 3.12697 14.363 2.97885 14.686C2.72916 15.2287 2.4837 15.7737 2.2373 16.3178C2.21191 16.3742 2.19122 16.433 2.15595 16.5219L2.15548 16.521Z" fill="#0E2B72"/>
<path d="M11.454 13.6003C10.7388 13.6008 10.0824 13.3906 9.45605 13.0891C7.74302 12.2648 6.34504 11.0727 5.31524 9.46585C4.94141 8.88274 4.67338 8.25214 4.61367 7.55475C4.54736 6.78495 4.85724 5.98083 5.6618 5.5134C5.9792 5.32906 6.30836 5.36856 6.60272 5.58911C7.07201 5.94086 7.2916 6.4492 7.46041 6.98763C7.61747 7.48845 7.52342 7.92343 7.17169 8.32314C6.76401 8.78634 6.77623 8.80327 7.11997 9.31819C7.80274 10.3419 8.70745 11.0953 9.8454 11.5669C10.1609 11.6977 10.2728 11.6666 10.4666 11.3835C10.5526 11.258 10.6377 11.131 10.7134 10.9989C10.9396 10.6043 11.2603 10.4449 11.7145 10.5578C12.1989 10.6782 12.6508 10.8606 13.0302 11.1921C13.4958 11.5984 13.5743 12.048 13.2776 12.5888C12.8807 13.3125 12.2506 13.6144 11.454 13.6003Z" fill="#0E2B72"/>
</svg>
