<svg width="91" height="90" viewBox="0 0 91 90" fill="none" xmlns="http://www.w3.org/2000/svg">
<path d="M90.0035 46.1868V67.6126C89.9635 67.8426 89.9085 68.0676 89.8785 68.3027C89.1335 74.3229 86.3984 79.2131 81.5682 82.9132C77.623 85.9333 73.1478 87.9484 68.5877 89.8035C67.7626 90.1385 66.9276 90.0085 66.1076 89.6885C62.6174 88.3084 59.2573 86.6584 56.0772 84.6633C55.3521 84.2083 54.6371 83.9983 53.7771 83.9983C37.5965 84.0133 21.4158 84.0133 5.2302 84.0083C4.67518 84.0083 4.12016 84.0383 3.57014 83.9083C1.34505 83.3732 0.0200008 81.5982 0.0200008 79.1181C0.0200008 54.4771 0.0400016 29.8412 0 5.2002C0 2.6101 1.00004 0.890035 3.42513 0H53.1221C53.5671 0.240009 53.9021 0.610024 54.2571 0.960037C57.8773 4.57518 61.4774 8.21032 65.1225 11.8005C65.8676 12.5355 66.1776 13.3255 66.1726 14.3656C66.1476 22.1709 66.1576 29.9762 66.1576 37.7815C66.1576 38.0465 66.1626 38.3065 66.1576 38.5715C66.1526 38.9915 66.2976 39.1515 66.7476 39.0165C67.5476 38.7765 68.2927 38.9365 69.0127 39.3565C74.6779 42.6917 80.8231 44.3417 87.3734 44.5167C88.6234 44.5517 89.4985 45.0317 89.9935 46.1818L90.0035 46.1868ZM3.15512 41.9616C3.15512 42.1366 3.15512 42.3116 3.15512 42.4867C3.15512 54.5421 3.15512 66.5976 3.15512 78.6531C3.15512 80.3131 3.57014 80.7781 5.1002 80.7781C20.0508 80.7831 35.0064 80.7781 49.9569 80.7781C50.207 80.7781 50.557 80.8931 50.682 80.6281C50.817 80.3481 50.477 80.1781 50.312 79.9981C46.9418 76.248 45.2068 71.7678 45.0568 66.8126C44.8517 60.1473 44.9817 53.4721 44.9967 46.8018C44.9967 45.5768 45.9318 44.6667 47.1568 44.5567C47.8869 44.4917 48.6169 44.4417 49.3469 44.4017C53.7721 44.1567 58.0023 43.0867 62.0924 41.4066C62.6974 41.1566 62.9224 40.7966 62.9224 40.1466C62.9074 32.1562 62.9024 24.1709 62.9224 16.1806C62.9224 15.3606 62.6224 15.1056 61.8374 15.1206C59.8473 15.1556 57.8573 15.1556 55.8672 15.1206C52.8371 15.0706 50.962 13.1555 50.957 10.1354C50.957 8.23532 50.957 6.33025 50.957 4.43017C50.957 3.52347 50.5036 3.07012 49.5969 3.07012C34.9364 3.07012 20.2758 3.07012 5.62022 3.07012C5.30021 3.07012 4.97519 3.07012 4.65518 3.10012C3.77515 3.19512 3.27513 3.69514 3.18512 4.57018C3.14512 4.94519 3.15512 5.33021 3.15512 5.71022C3.15512 17.7957 3.15512 29.8812 3.15512 41.9616ZM48.1119 58.2323C48.1369 60.8474 48.0619 63.8025 48.2469 66.7576C48.5719 71.9078 50.487 76.268 54.5021 79.6181C58.2373 82.7332 62.6124 84.6933 67.0326 86.5784C67.3726 86.7234 67.7076 86.7434 68.0527 86.5934C72.3828 84.7233 76.673 82.7932 80.3731 79.7781C84.3183 76.563 86.4084 72.3528 86.7534 67.3426C87.1834 61.0624 86.8734 54.7671 86.9484 48.4819C86.9534 47.8819 86.6934 47.6719 86.1033 47.6469C79.8031 47.3668 73.8879 45.6968 68.3627 42.6667C67.7376 42.3216 67.2776 42.3516 66.6726 42.6817C61.1724 45.6868 55.2821 47.3618 49.0169 47.6368C48.2419 47.6719 48.1019 48.0219 48.1069 48.6819C48.1269 51.752 48.1169 54.8271 48.1169 58.2323H48.1119ZM60.3623 11.8405L60.5023 11.6155C58.5523 9.70538 56.6122 7.7953 54.6571 5.89023C54.3321 5.57522 54.1971 5.79523 54.1971 6.13024C54.1971 7.6453 54.1971 9.16036 54.2371 10.6754C54.2521 11.3004 54.6721 11.7905 55.2621 11.8155C56.9622 11.8855 58.6673 11.8405 60.3673 11.8405H60.3623Z" fill="#0E2B72"/>
<path d="M33.0161 34.3614C40.7714 34.3614 48.5267 34.3614 56.282 34.3614C57.8371 34.3614 58.6321 34.9214 58.6071 35.9914C58.5871 37.0315 57.8021 37.5965 56.317 37.5965C40.8064 37.5965 25.2958 37.5965 9.78019 37.5965C9.66518 37.5965 9.54518 37.5965 9.43017 37.5915C8.24013 37.5315 7.5101 36.9215 7.5001 35.9764C7.4901 34.9864 8.23513 34.3614 9.48518 34.3614C17.3305 34.3564 25.1708 34.3614 33.0161 34.3614Z" fill="#0E2B72"/>
<path d="M32.9966 26.1109C40.7519 26.1109 48.5072 26.1109 56.2625 26.1109C57.8175 26.1109 58.6126 26.6709 58.5876 27.7409C58.5676 28.781 57.7825 29.346 56.2975 29.346C40.7869 29.346 25.2763 29.346 9.76066 29.346C9.64565 29.346 9.52565 29.346 9.41064 29.341C8.2206 29.281 7.49057 28.671 7.48057 27.7259C7.47057 26.7359 8.2156 26.1109 9.46565 26.1109C17.311 26.1059 25.1513 26.1109 32.9966 26.1109Z" fill="#0E2B72"/>
<path d="M26.8172 17.1106C32.6924 17.1106 38.5677 17.1106 44.4479 17.1106C45.6279 17.1106 46.228 17.6706 46.208 18.7407C46.193 19.7807 45.5979 20.3457 44.4729 20.3457C32.7224 20.3457 20.967 20.3457 9.21653 20.3457C9.12652 20.3457 9.04152 20.3457 8.95152 20.3407C8.05148 20.2807 7.49646 19.6707 7.48646 18.7257C7.47646 17.7356 8.04148 17.1106 8.99152 17.1106C14.9367 17.1056 20.877 17.1106 26.8222 17.1106H26.8172Z" fill="#0E2B72"/>
<path d="M24.8557 52.562C19.9105 52.562 14.9703 52.562 10.0251 52.562C9.70513 52.562 9.38012 52.577 9.06011 52.542C8.16507 52.452 7.55505 51.847 7.50505 51.032C7.45505 50.2319 8.01507 49.5469 8.8951 49.3819C9.23511 49.3169 9.59513 49.3169 9.94514 49.3169C19.8605 49.3169 29.7759 49.3169 39.6913 49.3169C40.0963 49.3169 40.5163 49.3319 40.9063 49.4269C41.7014 49.6219 42.1564 50.2619 42.1064 51.037C42.0514 51.852 41.5714 52.322 40.8163 52.492C40.4513 52.572 40.0613 52.557 39.6813 52.557C34.7361 52.557 29.7959 52.557 24.8507 52.557L24.8557 52.562Z" fill="#0E2B72"/>
<path d="M24.8612 56.8423C29.8064 56.8423 34.7465 56.8423 39.6917 56.8423C40.0117 56.8423 40.3368 56.8273 40.6568 56.8623C41.5018 56.9623 42.0768 57.5573 42.1118 58.3524C42.1518 59.1574 41.6668 59.7924 40.8168 59.9824C40.4768 60.0574 40.1218 60.0774 39.7717 60.0774C29.7964 60.0774 19.821 60.0824 9.85057 60.0774C9.47556 60.0774 9.08554 60.0524 8.72053 59.9624C7.9405 59.7674 7.45548 59.0974 7.50548 58.3574C7.55048 57.6073 8.10551 56.9973 8.89054 56.8823C9.23555 56.8323 9.59056 56.8473 9.94058 56.8473C14.9108 56.8473 19.886 56.8473 24.8562 56.8473L24.8612 56.8423Z" fill="#0E2B72"/>
<path d="M24.8606 41.8966C29.8058 41.8966 34.7509 41.8966 39.6961 41.8966C40.0162 41.8966 40.3412 41.8866 40.6612 41.9166C41.5462 42.0016 42.1262 42.6366 42.1112 43.4867C42.1012 44.3267 41.5012 44.9417 40.6162 45.0167C40.3812 45.0367 40.1462 45.0267 39.9161 45.0267C29.8508 45.0267 19.7804 45.0267 9.71497 45.0267C9.47996 45.0267 9.24496 45.0367 9.01495 45.0167C8.14491 44.9467 7.52489 44.3067 7.50989 43.4817C7.49989 42.6566 8.10491 41.9966 8.97494 41.9166C9.29496 41.8866 9.61997 41.8966 9.93998 41.8966C14.9152 41.8966 19.8904 41.8966 24.8656 41.8966H24.8606Z" fill="#0E2B72"/>
<path d="M24.7353 67.5026C19.7301 67.5026 14.7249 67.5026 9.71973 67.5026C9.39972 67.5026 9.06971 67.5176 8.7547 67.4626C8.00467 67.3276 7.45465 66.6376 7.50965 65.8826C7.56965 65.0976 7.98467 64.5675 8.7797 64.4175C9.11971 64.3525 9.47972 64.3775 9.82974 64.3775C19.8101 64.3775 29.7905 64.3775 39.7659 64.3775C40.0859 64.3775 40.4109 64.3675 40.7309 64.4025C41.556 64.5025 42.111 65.1426 42.106 65.9526C42.101 66.7626 41.536 67.3926 40.7059 67.4827C40.3859 67.5177 40.0609 67.5026 39.7409 67.5026C34.7357 67.5026 29.7305 67.5026 24.7253 67.5026H24.7353Z" fill="#0E2B72"/>
<path d="M17.3111 75.0429C14.771 75.0429 12.2259 75.0429 9.68576 75.0429C9.30575 75.0429 8.92573 75.0579 8.56072 74.9179C7.89069 74.6528 7.52068 74.1478 7.51568 73.4428C7.51067 72.7328 7.88069 72.2277 8.55072 71.9627C8.94073 71.8077 9.35075 71.8027 9.76076 71.8027C14.786 71.8027 19.8162 71.8027 24.8414 71.8027C26.3614 71.8027 27.1914 72.4128 27.1614 73.4678C27.1314 74.4978 26.3414 75.0429 24.8563 75.0429C22.3413 75.0429 19.8312 75.0429 17.3161 75.0429H17.3111Z" fill="#0E2B72"/>
<path d="M69.1432 70.3527C69.1432 71.8727 69.1832 73.3978 69.1332 74.9128C69.0532 77.4629 67.2281 79.343 64.728 79.518C62.4629 79.673 60.3679 77.943 59.9728 75.5779C59.8078 74.6078 60.1429 73.8228 60.8779 73.4978C61.5779 73.1878 62.1929 73.3528 62.708 73.8978C63.003 74.2078 63.073 74.6178 63.163 75.0228C63.353 75.8879 63.953 76.3879 64.668 76.2979C65.4081 76.2079 65.8831 75.6329 65.8881 74.7278C65.9031 71.7127 65.8881 68.7026 65.9031 65.6875C65.9031 65.0125 65.6731 64.8424 65.058 65.1275C64.558 65.3625 64.078 65.6575 63.508 65.7175C62.753 65.8025 62.0679 65.6425 61.4129 65.2425C60.2829 64.5474 59.1178 64.3824 57.8178 64.8474C55.7177 65.5975 53.9776 64.3124 53.9376 62.0823C53.8276 55.9721 58.1178 50.8669 64.433 49.6619C69.1632 48.7568 73.4634 49.7169 77.1235 52.917C79.9586 55.3921 81.2887 58.5722 81.0937 62.3523C80.9937 64.2674 79.2736 65.5675 77.4685 64.9225C75.9735 64.3924 74.6884 64.5774 73.3834 65.3675C72.4633 65.9275 71.4983 65.8475 70.5333 65.3975C69.1532 64.7474 69.1482 64.7624 69.1482 66.3125C69.1482 67.6576 69.1482 69.0026 69.1482 70.3477H69.1432V70.3527ZM67.7281 52.547C64.818 52.607 62.3679 53.352 60.2879 55.0921C58.5428 56.5521 57.4127 58.3822 57.2127 60.7073C57.1577 61.3373 57.3377 61.6123 58.0678 61.4773C59.5728 61.2073 61.0429 61.4123 62.4129 62.1323C62.858 62.3673 63.238 62.4324 63.733 62.2073C66.2381 61.0623 68.7732 61.0623 71.2883 62.1873C71.7633 62.4023 72.1483 62.4024 72.6083 62.1573C73.9984 61.4123 75.4935 61.2073 77.0335 61.4873C77.7085 61.6123 77.8835 61.3523 77.8535 60.7573C77.7735 59.3072 77.2535 58.0122 76.4085 56.8621C74.2084 53.862 71.1183 52.677 67.7381 52.547H67.7281Z" fill="#FFB400"/>
</svg>
