<svg width="79" height="80" viewBox="0 0 79 80" fill="none" xmlns="http://www.w3.org/2000/svg">
<path d="M78.6448 44.5781C78.0378 45.7037 77.0629 46.036 75.8266 46.0138C73.8016 45.9828 74.0675 45.7037 74.0497 47.7952C74.0364 49.1511 74.0187 50.5026 74.0497 51.8585C74.0985 54.1406 72.7159 55.7181 70.3763 55.532C69.7426 55.4788 69.1001 55.5364 68.462 55.5231C68.0101 55.5142 67.8062 55.6959 67.8195 56.1567C67.8328 56.848 67.8284 57.5348 67.8195 58.2261C67.7885 59.9365 66.5522 61.2659 64.8462 61.3057C62.8035 61.3589 60.7563 61.3633 58.7135 61.3057C56.7505 61.2526 55.5142 59.8523 55.5053 57.7475C55.4921 54.2469 55.5053 50.7463 55.5053 47.2457C55.5053 46.0759 54.8495 45.6328 53.7063 46.0183C53.3341 46.1423 53.4006 46.4437 53.3917 46.714C53.3474 48.0921 53.4227 49.4657 53.2721 50.8438C52.8821 54.3754 51.3401 57.2734 48.5795 59.4934C47.9104 60.034 47.6534 60.6233 47.6534 61.4608C47.6755 66.6719 47.6667 71.8829 47.6578 77.0984C47.6578 77.5282 47.6445 77.9757 47.5381 78.3878C47.3831 79.0171 46.9178 79.3139 46.2708 79.2563C45.6593 79.2032 45.3049 78.8265 45.1941 78.2327C45.1542 78.0112 45.1719 77.7763 45.1719 77.5459C45.1719 72.131 45.1941 66.7118 45.1586 61.2969C45.1498 59.7593 45.7258 58.6027 46.9178 57.6678C49.4923 55.6472 50.795 52.953 50.8482 49.705C50.9147 45.7967 50.8748 41.8884 50.8704 37.9802C50.8704 36.8945 50.281 36.2121 49.3859 36.2077C48.5174 36.2033 47.8882 36.9256 47.8749 37.9713C47.8616 38.9417 47.8838 39.9121 47.866 40.8826C47.8483 41.7555 47.4052 42.2828 46.6962 42.3138C45.9473 42.3448 45.4245 41.8353 45.389 40.9313C45.3447 39.9121 45.3846 38.8885 45.3624 37.865C45.3447 36.8458 44.7332 36.1855 43.8559 36.2033C43.0405 36.221 42.3892 36.9167 42.367 37.8472C42.3448 38.8708 42.367 39.89 42.3537 40.9136C42.3404 41.7422 41.9194 42.2562 41.237 42.3094C40.5103 42.367 39.9697 41.9062 39.9121 41.0421C39.8412 40.0008 39.8811 38.9506 39.859 37.9004C39.8368 36.8502 39.2785 36.2166 38.3878 36.1988C37.5548 36.1856 36.9034 36.8901 36.8502 37.8827C36.8369 38.1131 36.8989 38.3612 36.8369 38.5695C36.4514 39.8235 37.8605 41.6669 35.6183 42.3094C33.4382 41.6492 34.8119 39.8545 34.4529 38.6138C34.3377 38.215 34.4352 37.7542 34.32 37.3288C34.1206 36.6109 33.6066 36.283 32.9242 36.2166C32.2684 36.1545 31.6392 36.6464 31.4664 37.3332C31.3777 37.6744 31.3467 38.0378 31.3467 38.3923C31.3334 40.0008 31.3467 41.6093 31.3379 43.2222C31.329 45.0124 30.332 45.9917 28.5241 46.005C27.3099 46.0138 27.3365 46.0138 27.3055 47.2103C27.2346 49.8246 27.6511 52.3061 29.2641 54.4596C30.3187 55.8687 31.6791 56.9455 33.1413 57.9026C34.1871 58.585 34.9581 59.4712 35.2018 60.7297C35.2727 61.1019 35.3037 61.4874 35.3037 61.8685C35.3082 67.1061 35.3082 72.3437 35.3037 77.5814C35.3037 77.8118 35.3215 78.0466 35.2683 78.2682C35.1309 78.8487 34.7764 79.2253 34.1605 79.2563C33.5224 79.2918 33.0616 78.9949 32.9109 78.3612C32.8223 77.9935 32.809 77.6035 32.809 77.2224C32.8046 72.1887 32.7824 67.1549 32.8223 62.1211C32.8311 61.0842 32.4811 60.3752 31.617 59.8302C30.2522 58.9705 28.9982 57.9602 27.917 56.7505C25.8255 54.4109 24.9614 51.6104 24.8152 48.5352C24.7886 47.9724 24.762 47.4097 24.8152 46.8513C24.8728 46.1645 24.6025 45.9695 23.9378 45.9828C23.3485 45.9961 23.2067 46.2177 23.2067 46.7627C23.22 50.3386 23.2156 53.9146 23.2067 57.495C23.2067 59.582 21.9527 60.8493 19.8833 60.8582C18.0444 60.8671 16.2055 60.8715 14.3665 60.8582C12.2529 60.8449 10.9191 59.5244 10.8837 57.4196C10.8748 56.9588 10.8526 56.4979 10.8881 56.0415C10.9413 55.3857 10.7064 55.1199 10.0196 55.142C9.18209 55.1686 8.33574 55.2218 7.49825 55.0578C5.7834 54.7211 4.76867 53.5468 4.74651 51.7921C4.72436 50.1836 4.71992 48.5706 4.75537 46.9621C4.76866 46.2841 4.51609 46.0493 3.85585 46.0847C3.24435 46.1158 2.63286 46.1246 2.02136 46.0094C0.811653 45.779 0.124826 45.0035 0.111533 43.7938C0.0982391 42.336 0.0982391 40.8826 0.111533 39.4247C0.124826 38.0998 0.975608 37.2357 2.31382 37.1781C2.87657 37.156 3.43932 37.1427 3.99765 37.1781C4.56927 37.2091 4.7598 36.9699 4.75537 36.416C4.73765 34.679 4.75537 32.9419 4.75537 31.2049C4.75537 30.9479 4.75094 30.6954 4.75981 30.4383C4.85286 28.4 6.067 27.1815 8.10533 27.0973C8.77001 27.0707 9.43468 27.0574 10.0994 27.0973C10.7507 27.1371 11.0476 26.9289 10.9944 26.2376C10.9457 25.6261 10.9767 25.0102 10.9944 24.3987C11.0343 22.7016 12.3194 21.4077 14.0253 21.3855C16.0415 21.3633 18.0621 21.3589 20.0783 21.3855C21.7666 21.4077 23.0206 22.5553 23.2421 24.2259C23.2909 24.6025 23.2997 24.988 23.2997 25.3735C23.2997 29.0027 23.3086 32.6318 23.282 36.2564C23.2776 36.9477 23.4859 37.2091 24.2037 37.1826C25.5552 37.1338 26.9111 37.1515 28.2671 37.1737C28.7279 37.1826 28.9362 37.0097 29.0957 36.5755C30.0927 33.8548 32.8267 32.9464 35.2328 34.5194C35.5297 34.7144 35.7158 34.7587 36.0304 34.5372C37.5592 33.4604 39.1367 33.4958 40.6831 34.4884C41.0421 34.7188 41.2548 34.7321 41.6137 34.4884C43.0981 33.4693 44.6402 33.5091 46.1379 34.4574C46.5588 34.7233 46.7937 34.7011 47.1925 34.4264C49.315 32.9685 52.2219 33.9345 53.1347 36.3628C53.2455 36.6553 53.2189 37.0939 53.6531 37.125C54.2336 37.1693 54.8407 37.2668 55.399 37.0673C55.7092 36.9566 55.5851 36.5711 55.5895 36.3052C55.5984 32.6273 55.5984 28.945 55.6028 25.2672C55.6028 23.0073 56.786 21.833 59.0591 21.8286C60.8715 21.8286 62.6882 21.8198 64.5006 21.8286C66.5699 21.8375 67.886 23.1535 67.9259 25.2362C67.9392 25.7989 67.9347 26.3617 67.9259 26.9244C67.9214 27.341 68.112 27.5315 68.5285 27.5271C69.1932 27.5182 69.8579 27.5182 70.5225 27.5271C72.7204 27.5625 74.0542 28.8963 74.063 31.0809C74.0719 32.7913 74.0807 34.5061 74.0541 36.2166C74.0453 36.8414 74.2536 37.1161 74.8961 37.0718C75.3259 37.0408 75.7646 37.0629 76.1988 37.0718C77.3066 37.1028 78.1796 37.5238 78.6537 38.5872V44.5649L78.6448 44.5781ZM58.0045 41.5827H57.9957C57.9957 46.9444 57.9957 52.3105 57.9957 57.6722C57.9957 58.6825 58.1286 58.811 59.1566 58.8154C60.8405 58.8154 62.5287 58.8154 64.2126 58.811C65.2716 58.811 65.4046 58.6736 65.409 57.619C65.4134 54.9648 65.409 52.3061 65.4178 49.6518C65.4178 48.8099 65.9274 48.2516 66.6187 48.2516C67.3188 48.2516 67.8062 48.801 67.8195 49.6474C67.8328 50.5912 67.8373 51.5395 67.8195 52.4833C67.8107 52.9397 67.9835 53.1347 68.4488 53.117C69.0337 53.0948 69.623 53.117 70.2123 53.1125C71.3955 53.1125 71.5506 52.9619 71.5506 51.8054C71.5506 47.1305 71.5506 42.4556 71.555 37.7808C71.555 35.6095 71.555 33.4382 71.555 31.267C71.555 30.1592 71.4486 30.0573 70.3098 30.0484C69.8756 30.0484 69.4413 30.0484 69.0071 30.0484C68.2833 30.0484 67.92 30.4191 67.917 31.1606C67.9126 35.5297 67.917 39.8944 67.8949 44.2635C67.8904 45.4821 67.434 46.1113 66.632 46.1202C65.8255 46.1291 65.4134 45.5043 65.4134 44.268C65.4134 38.0378 65.4134 31.8031 65.4178 25.5729C65.4178 24.4341 65.2362 24.248 64.0752 24.2569C62.4933 24.2702 60.9114 24.3145 59.3294 24.3322C58.1242 24.3455 58.009 24.4474 58.009 25.6438C58.009 30.9568 58.009 36.2697 58.009 41.5827H58.0045ZM13.3917 41.113H13.3828C13.3828 46.5013 13.3828 51.8895 13.3828 57.2778C13.3828 58.2039 13.5291 58.359 14.4419 58.3635C16.1789 58.3723 17.9159 58.3635 19.6529 58.359C20.6455 58.359 20.7917 58.2084 20.7917 57.1848C20.7961 46.457 20.8006 35.7336 20.805 25.0058C20.805 24.0486 20.6455 23.8802 19.7016 23.8758C18.0931 23.8669 16.4846 23.8758 14.8761 23.8802C13.4449 23.8802 13.3961 23.9334 13.3961 25.3292C13.3961 30.589 13.3961 35.8488 13.3961 41.113H13.3917ZM10.8792 41.1351H10.9014C10.9014 37.5858 10.8881 34.032 10.9102 30.4827C10.9102 29.8313 10.7286 29.5344 10.0373 29.5876C9.4524 29.6319 8.86305 29.6142 8.27371 29.592C7.57358 29.5654 7.24569 29.8579 7.24569 30.5846C7.25455 37.6345 7.24568 44.6845 7.23682 51.7345C7.23682 52.3991 7.55144 52.6561 8.1718 52.6517C8.76114 52.6517 9.35048 52.6118 9.93539 52.665C10.6843 52.7315 10.897 52.4301 10.8881 51.7034C10.8571 48.1807 10.8748 44.6535 10.8748 41.1263L10.8792 41.1351ZM25.9939 43.6033C26.7605 43.6033 27.5226 43.59 28.2892 43.6033C28.7456 43.6122 28.9362 43.4216 28.9273 42.9652C28.914 42.0745 28.9096 41.1795 28.9273 40.2888C28.9362 39.8147 28.7102 39.664 28.2715 39.664C26.7915 39.6729 25.3159 39.6729 23.8359 39.664C23.3795 39.664 23.1978 39.8634 23.2067 40.311C23.22 41.2016 23.2244 42.0967 23.2067 42.9874C23.1978 43.4615 23.4105 43.6122 23.8536 43.5989C24.5671 43.5811 25.2805 43.5944 25.9939 43.5944V43.6033ZM76.2875 41.5694C76.2875 41.3922 76.2875 41.2149 76.2875 41.0332C76.2609 39.4247 76.5755 39.5887 74.7498 39.5577C74.2048 39.5488 74.032 39.7792 74.0497 40.2888C74.0719 40.9756 74.0497 41.6625 74.0497 42.3493C74.0497 43.1085 74.4279 43.4881 75.1841 43.4881C75.9404 43.4881 76.3067 43.1277 76.283 42.4069C76.283 42.1277 76.283 41.8486 76.283 41.5694H76.2875ZM2.50879 41.6137C2.50879 41.791 2.50879 41.9682 2.50879 42.1499C2.53981 43.754 2.21632 43.59 4.05082 43.6166C4.60471 43.6255 4.75538 43.3817 4.74651 42.881C4.72436 42.0657 4.71993 41.2504 4.74651 40.4395C4.76424 39.8767 4.53381 39.6906 3.97992 39.6817C2.50435 39.6551 2.50435 39.6374 2.50435 41.082C2.50435 41.2592 2.50435 41.4365 2.50435 41.6181L2.50879 41.6137ZM54.4286 39.571C54.0918 39.6906 53.4138 39.2652 53.3961 40.1115C53.3784 41.0554 53.3961 41.9948 53.3917 42.9386C53.3917 43.3241 53.5734 43.5014 53.95 43.497C54.2292 43.497 54.5128 43.4881 54.7919 43.5014C55.3192 43.528 55.5231 43.2798 55.5142 42.7658C55.5009 42.079 55.5009 41.3877 55.5408 40.7053C55.6028 39.5665 55.6206 39.5665 54.433 39.5665L54.4286 39.571Z" fill="#0E2B72"/>
<path d="M41.3959 0.736328C43.9615 1.26364 46.2923 2.25621 48.3218 3.97107C55.4205 9.96642 54.3481 21.5893 46.248 26.1578C37.4344 31.1252 26.6357 25.4843 25.7628 15.4034C25.4349 11.6192 26.6136 8.24713 29.0906 5.34916C29.7198 4.61359 30.4288 4.47622 31.0137 4.96365C31.6296 5.47323 31.6075 6.19551 30.9472 6.97982C27.5264 11.052 27.2561 16.5422 30.2648 20.8139C32.8704 24.5183 37.4034 26.2332 41.9409 25.2317C46.1948 24.2923 49.6024 20.7297 50.3911 16.3872C51.5166 10.2057 47.4488 4.33885 41.2718 3.27538C39.105 2.90316 37.0002 3.1646 34.9752 4.0331C34.8112 4.104 34.6517 4.18819 34.4877 4.25466C33.699 4.57371 33.0121 4.3743 32.7108 3.74951C32.3873 3.08484 32.6843 2.40244 33.4774 1.99921C34.7182 1.36998 36.0696 1.07753 37.4034 0.736328H41.387H41.3959Z" fill="#0E2B72"/>
<path d="M46.4172 9.99723C46.404 10.4005 46.2267 10.7284 45.9475 11.012C43.1515 13.808 40.3643 16.6085 37.5594 19.3957C36.9124 20.0382 36.2522 20.0338 35.6053 19.4134C34.6703 18.5139 33.7486 17.5922 32.8446 16.6573C32.2509 16.0413 32.2287 15.3323 32.7427 14.8183C33.2301 14.3309 33.9835 14.3708 34.5817 14.938C35.0647 15.3944 35.5476 15.8463 35.9863 16.3471C36.4029 16.8212 36.6997 16.8168 37.1517 16.3559C39.4382 14.0296 41.7601 11.7298 44.0687 9.42118C44.3568 9.13316 44.6448 8.84513 45.0968 8.81854C45.8146 8.77866 46.4128 9.30154 46.4217 9.99723H46.4172Z" fill="#FFB400"/>
</svg>
