<svg width="194" height="193" viewBox="0 0 194 193" fill="none" xmlns="http://www.w3.org/2000/svg">
<path d="M65.673 104.693C67.3177 117.027 96.9203 137.718 96.9203 135.117V57C84.586 58.6446 79.6522 60.2891 64.8511 66.8674C64.8512 77.5572 65.1297 100.618 65.673 104.693Z" fill="#0D2767"/>
<path d="M128.167 104.693C126.523 117.027 96.9202 137.718 96.9202 135.117V57C109.254 58.6446 114.188 60.2891 128.989 66.8674C128.989 77.5572 128.711 100.618 128.167 104.693Z" fill="#0D2767"/>
<path d="M96.9183 131.899C96.9 134.267 69.7821 115.31 68.2751 104.007C67.777 100.272 67.5217 79.1331 67.5216 69.3342C81.0893 63.3041 85.6119 61.7966 96.9184 60.2891C108.225 61.7966 112.747 63.3041 126.315 69.3342C126.315 79.1331 126.06 100.272 125.562 104.007C124.055 115.31 96.9367 134.267 96.9183 131.899Z" fill="url(#paint0_linear_1_1245)"/>
<g filter="url(#filter0_d_1_1245)">
<path fill-rule="evenodd" clip-rule="evenodd" d="M113.921 80.7646C114.402 81.2463 114.402 82.0272 113.921 82.5089L95.0081 101.422C94.7734 101.656 94.454 101.786 94.1222 101.783C93.7903 101.779 93.474 101.642 93.2446 101.402L84.1994 91.9456C83.7285 91.4534 83.7459 90.6726 84.2382 90.2017C84.7304 89.7309 85.5112 89.7482 85.9821 90.2405L94.1555 98.7854L112.176 80.7646C112.658 80.2829 113.439 80.2829 113.921 80.7646Z" fill="white"/>
</g>
<path d="M21.5365 44.943L22.6872 43.2586C24.2328 40.9961 26.6579 40.4244 28.8378 41.9136C31.0672 43.4367 31.5748 46.1329 29.8825 48.61C28.3708 50.823 25.7687 51.8308 23.2421 50.1047L24.2906 47.648C25.8595 48.7198 27.157 48.2741 27.9016 47.1841C28.6688 46.0611 28.4776 44.8164 27.4042 44.0831C26.4464 43.4287 25.3059 43.7154 24.5726 44.7888L22.0455 48.488L16.2575 44.2675L21.0071 37.3149L23.0384 38.7026L19.7102 43.5743L21.5365 44.943Z" fill="black"/>
<path d="M27.1425 30.0052C29.4608 27.4638 33.1225 27.6638 36.1959 30.4673C39.284 33.2844 39.8039 36.8989 37.4856 39.4403C35.1672 41.9817 31.5203 41.7953 28.4322 38.9782C25.3588 36.1747 24.8241 32.5467 27.1425 30.0052ZM35.6386 37.7555C36.8786 36.3961 36.301 34.2991 34.3358 32.5064C32.3706 30.7137 30.2295 30.3307 28.9895 31.6901C27.7494 33.0495 28.327 35.1465 30.2922 36.9392C32.2574 38.7318 34.3986 39.1148 35.6386 37.7555Z" fill="black"/>
<path d="M50.6857 22.7996L53.0984 26.3348L50.8517 27.8681L48.4616 24.3659L38.9205 19.7875L41.3984 18.0964L47.9841 21.2535L47.4281 13.9814L50.0051 12.2227L50.6857 22.7996Z" fill="black"/>
<path d="M66.4086 16.7344L67.4733 18.952L58.2961 23.358L52.4966 11.278L61.6377 6.88939L62.7024 9.10706L56.0134 12.3184L57.3204 15.0409L63.4866 12.0806L64.534 14.2622L58.3678 17.2225L59.6835 19.9631L66.4086 16.7344Z" fill="black"/>
<path d="M81.6545 14.7452L78.8426 15.6038L76.898 13.2072L71.2361 14.9359L70.9427 18.0159L68.1308 18.8744L69.765 4.36477L72.1942 3.62304L81.6545 14.7452ZM75.2041 11.1523L71.9528 7.14714L71.4741 12.2912L75.2041 11.1523Z" fill="black"/>
<path d="M93.6049 13.4942L90.318 13.962L85.2488 9.71401L83.843 9.91411L84.5363 14.785L81.8434 15.1683L79.9551 1.90203L86.311 0.997331C89.1623 0.591483 91.3027 2.00395 91.6606 4.51861C91.9763 6.73625 90.7167 8.53167 88.448 9.19803L93.6049 13.4942ZM83.4963 7.47866L87.1594 6.95726C88.4068 6.7797 89.137 5.94851 88.9876 4.89909C88.8382 3.84967 87.9051 3.25522 86.6577 3.43278L82.9946 3.95418L83.4963 7.47866Z" fill="black"/>
<path d="M99.6293 0.179833C102.349 0.206675 104.394 1.70693 104.891 4.09195L102.166 4.62508C101.978 3.36317 100.886 2.53235 99.5462 2.51913C98.1863 2.50571 97.3588 3.25758 97.35 4.15753C97.3432 4.8375 97.6385 5.32044 98.6765 5.53069L101.551 6.13908C103.726 6.62058 105.053 7.93374 105.033 10.0136C105.007 12.6135 102.851 14.2123 99.6711 14.1809C96.8713 14.1533 94.4242 12.8291 94.1107 10.1459L96.9763 9.59411C97.3213 11.1176 98.4347 11.7886 99.9546 11.8036C101.515 11.819 102.342 11.0871 102.351 10.1272C102.359 9.36722 102.003 8.90369 100.806 8.65186L97.9712 8.08386C96.3747 7.72808 94.4634 6.82918 94.4893 4.20931C94.513 1.80942 96.4895 0.148846 99.6293 0.179833Z" fill="black"/>
<path d="M123.043 3.74205C126.88 4.7205 129.113 8.50972 128.149 12.2888C127.186 16.0679 123.421 18.2864 119.584 17.308C115.746 16.3295 113.504 12.5791 114.467 8.79998C115.431 5.0209 119.206 2.7636 123.043 3.74205ZM120.216 14.8273C122.561 15.4253 124.862 14.0924 125.494 11.6118C126.127 9.13116 124.755 6.82062 122.41 6.22267C120.065 5.62473 117.755 6.99636 117.122 9.47699C116.49 11.9576 117.871 14.2294 120.216 14.8273Z" fill="black"/>
<path d="M133.634 10.4308L132.343 13.4459L138.318 16.0048L137.349 18.2661L131.374 15.7073L129.327 20.4874L126.827 19.4166L132.102 7.09865L141.294 11.0353L140.326 13.2967L133.634 10.4308Z" fill="black"/>
<path d="M149.558 29.8758C151.054 30.9821 152.947 31.1139 154.74 29.5303L156.541 31.5347C153.965 33.9074 150.636 33.8329 148.048 31.9176C144.88 29.574 144.209 25.2702 146.552 22.103C148.884 18.9519 153.208 18.3199 156.375 20.6635C158.964 22.5788 159.98 25.7443 158.611 28.7372L156.049 27.7618C157.027 25.5994 156.348 23.8278 154.852 22.7214C152.923 21.2938 150.266 21.691 148.755 23.7328C147.244 25.7746 147.629 28.4482 149.558 29.8758Z" fill="black"/>
<path d="M167.896 31.3324C170.646 34.1815 170.555 38.5788 167.749 41.2874C164.943 43.996 160.574 43.9047 157.823 41.0555C155.073 38.2064 155.136 33.8369 157.942 31.1283C160.748 28.4197 165.146 28.4832 167.896 31.3324ZM159.665 39.2776C161.346 41.0187 164.004 41.0939 165.846 39.316C167.688 37.538 167.735 34.8515 166.054 33.1103C164.374 31.3692 161.687 31.3217 159.845 33.0997C158.003 34.8776 157.985 37.5364 159.665 39.2776Z" fill="black"/>
<path d="M170.434 53.1251L168.422 54.54L162.877 46.6541L173.839 38.947L175.404 41.1721L166.454 47.4643L170.434 53.1251Z" fill="black"/>
<path d="M175.774 63.8278L173.583 64.9476L169.195 56.3643L181.126 50.2645L182.365 52.6864L172.624 57.6663L175.774 63.8278Z" fill="black"/>
<path d="M179.722 75.7004L177.394 76.4946L174.107 66.8597L186.79 62.5337L190.063 72.1308L187.735 72.9249L185.339 65.9022L182.481 66.8772L184.689 73.351L182.399 74.1322L180.191 67.6585L177.313 68.6399L179.722 75.7004Z" fill="black"/>
<path d="M180.972 84.4915C181.294 86.3235 182.575 87.723 184.966 87.8109L184.891 90.5045C181.388 90.4492 179.027 88.1022 178.47 84.9306C177.789 81.05 180.267 77.4676 184.148 76.7864C188.009 76.1086 191.578 78.6294 192.259 82.51C192.816 85.6815 191.372 88.6763 188.318 89.9028L187.133 87.4305C189.332 86.5369 190.06 84.7846 189.738 82.9527C189.323 80.5888 187.123 79.0459 184.621 79.4851C182.12 79.9243 180.557 82.1276 180.972 84.4915Z" fill="black"/>
<path d="M190.636 102.207L190.536 97.7484L179.599 97.9947L179.537 95.2754L190.475 95.0291L190.374 90.5702L192.834 90.5149L193.096 102.152L190.636 102.207Z" fill="black"/>
<path d="M179.012 106.084L179.262 103.375L192.605 104.605L192.356 107.313L179.012 106.084Z" fill="black"/>
<path d="M188.695 126.239L176.856 117.706L177.421 115.147L191.752 112.392L191.105 115.322L180.695 117.202L189.342 123.309L188.695 126.239Z" fill="black"/>
<path d="M173.613 134.027L171.321 133.132L175.024 123.649L187.506 128.523L183.818 137.968L181.527 137.074L184.225 130.162L181.412 129.063L178.924 135.435L176.67 134.555L179.158 128.183L176.326 127.078L173.613 134.027Z" fill="black"/>
<path d="M165.329 142.897L166.8 140.609L178.071 147.856L176.6 150.144L165.329 142.897Z" fill="black"/>
<path d="M164.978 164.814L154.703 156.213L156.166 154.465L167.523 154.295L160.928 148.775L162.674 146.689L172.95 155.29L171.487 157.038L159.945 157.054L166.724 162.728L164.978 164.814Z" fill="black"/>
<path d="M159.008 170.188C156.961 171.979 154.436 172.222 152.478 170.774L154.156 168.561C155.136 169.377 156.504 169.27 157.512 168.387C158.535 167.492 158.652 166.38 158.059 165.702C157.611 165.191 157.069 165.027 156.155 165.562L153.606 167.022C151.663 168.112 149.798 168.016 148.428 166.451C146.716 164.494 147.259 161.866 149.652 159.771C151.759 157.927 154.466 157.285 156.487 159.078L154.717 161.398C153.445 160.492 152.168 160.732 151.024 161.734C149.85 162.761 149.72 163.858 150.353 164.58C150.853 165.152 151.427 165.261 152.488 164.651L154.981 163.187C156.409 162.389 158.433 161.787 160.159 163.759C161.739 165.565 161.371 168.12 159.008 170.188Z" fill="black"/>
<path d="M141.709 181.851L137.73 175.612C135.708 172.442 136.282 169.063 139.199 167.203C142.184 165.3 145.539 166.172 147.561 169.342L151.54 175.582L149.246 177.044L145.267 170.805C144.063 168.916 142.216 168.363 140.597 169.395C139.062 170.374 138.819 172.261 140.023 174.149L144.002 180.389L141.709 181.851Z" fill="black"/>
<path d="M122.314 175.604L125.356 174.273L131.378 177.006L132.679 176.437L130.705 171.93L133.197 170.839L138.572 183.114L132.691 185.689C130.053 186.844 127.612 186.057 126.593 183.73C125.695 181.678 126.427 179.611 128.434 178.361L122.314 175.604ZM133.666 178.69L130.276 180.174C129.122 180.68 128.642 181.676 129.067 182.647C129.492 183.618 130.55 183.941 131.704 183.435L135.094 181.951L133.666 178.69Z" fill="black"/>
<path d="M108.972 178.799L111.815 178.05L113.665 180.519L119.39 179.01L119.802 175.944L122.644 175.194L120.453 189.63L117.997 190.277L108.972 178.799ZM115.279 182.638L118.374 186.765L119.05 181.644L115.279 182.638Z" fill="black"/>
<path d="M97.766 192.948L96.4393 179.614L98.7081 179.389L106.943 187.212L106.092 178.654L108.798 178.385L110.125 191.719L107.856 191.944L99.5974 183.883L100.473 192.679L97.766 192.948Z" fill="black"/>
<path d="M88.8408 181.06C86.9845 180.943 85.3233 181.86 84.6766 184.163L82.076 183.458C82.9518 180.066 85.7875 178.322 89.0011 178.525C92.9333 178.774 95.8339 182.023 95.5853 185.955C95.3379 189.868 92.0497 192.746 88.1175 192.497C84.904 192.294 82.3318 190.187 81.8563 186.931L84.5378 186.359C84.8904 188.706 86.4228 189.825 88.2791 189.942C90.6743 190.094 92.6904 188.317 92.8507 185.783C93.0111 183.248 91.236 181.212 88.8408 181.06Z" fill="black"/>
<path d="M71.5999 178.079L72.1322 175.678L82.071 177.88L79.1715 190.963L69.2718 188.769L69.8041 186.367L77.0483 187.973L77.7017 185.024L71.0238 183.544L71.5474 181.181L78.2254 182.661L78.8832 179.693L71.5999 178.079Z" fill="black"/>
<path d="M53.7625 170.219L54.8255 168L64.0061 172.399L58.2157 184.484L49.0713 180.102L50.1343 177.884L56.8258 181.09L58.1308 178.366L51.9623 175.411L53.0081 173.228L59.1765 176.184L60.4901 173.443L53.7625 170.219Z" fill="black"/>
<path d="M43.4106 168.23L43.5617 160.221L46.3122 162.08L46.1365 167.876L51.4488 165.552L54.1994 167.412L46.8405 170.548L46.6952 178.513L43.9612 176.665L44.098 170.891L38.7915 173.171L36.0575 171.323L43.4106 168.23Z" fill="black"/>
<path d="M34.2993 169.43L29.6996 165.214C27.4292 163.132 27.2732 160.52 29.0842 158.545C30.9223 156.54 33.5244 156.483 35.7948 158.565L38.3895 160.943L41.3493 157.715L43.3543 159.553L34.2993 169.43ZM36.7272 162.757L34.1325 160.378C33.0562 159.391 31.9124 159.455 31.0745 160.369C30.2636 161.254 30.2857 162.414 31.3619 163.4L33.9566 165.779L36.7272 162.757Z" fill="black"/>
<path d="M26.3446 144.637L28.2555 143.088L34.6665 150.996L24.2576 159.435L17.8718 151.558L19.7827 150.009L24.4556 155.773L26.8014 153.871L22.4938 148.558L24.3737 147.034L28.6813 152.347L31.0427 150.432L26.3446 144.637Z" fill="black"/>
<path d="M21.3149 131.007L22.9932 133.872L20.9826 140.173L21.7005 141.398L25.9455 138.911L27.3205 141.257L15.7589 148.032L12.5134 142.492C11.0575 140.007 11.5536 137.491 13.7452 136.207C15.6779 135.075 17.8167 135.56 19.2929 137.407L21.3149 131.007ZM19.578 142.641L17.7075 139.449C17.0705 138.362 16.0247 138.001 15.1101 138.537C14.1955 139.073 13.9989 140.162 14.6359 141.249L16.5064 144.441L19.578 142.641Z" fill="black"/>
<path d="M20.2405 127.483L21.3203 129.979L9.02156 135.299L7.94171 132.803L20.2405 127.483Z" fill="black"/>
<path d="M13.3254 114.112L15.6826 113.409L18.5955 123.163L5.75575 126.997L2.85431 117.281L5.21145 116.577L7.33459 123.687L10.2283 122.823L8.27114 116.269L10.59 115.576L12.5471 122.13L15.46 121.26L13.3254 114.112Z" fill="black"/>
<path d="M0.550405 100.86L13.828 99.0529L14.1355 101.312L6.61446 109.824L15.1359 108.664L15.5027 111.36L2.22504 113.166L1.91762 110.907L9.67643 102.363L0.917153 103.555L0.550405 100.86Z" fill="black"/>
<path d="M12.1064 91.5111C12.1568 89.6518 11.1805 88.0248 8.85486 87.4616L9.46614 84.8372C12.887 85.5901 14.7327 88.3611 14.6455 91.5799C14.5388 95.5185 11.396 98.5345 7.45741 98.4278C3.53885 98.3216 0.543918 95.1394 0.650602 91.2008C0.737791 87.982 2.75019 85.3355 5.98742 84.743L6.65567 87.402C4.32298 87.839 3.26003 89.4108 3.20966 91.2701C3.14468 93.6693 4.99254 95.62 7.53161 95.6888C10.0707 95.7576 12.0414 93.9103 12.1064 91.5111Z" fill="black"/>
<path d="M14.4644 74.1737L16.8837 74.6191L15.0409 84.6309L1.86228 82.2051L3.69787 72.2327L6.11723 72.678L4.77403 79.9754L7.74413 80.5221L8.98234 73.7951L11.3624 74.2332L10.1242 80.9602L13.1139 81.5105L14.4644 74.1737Z" fill="black"/>
<defs>
<filter id="filter0_d_1_1245" x="77.3587" y="74.7712" width="43.4217" height="34.3765" filterUnits="userSpaceOnUse" color-interpolation-filters="sRGB">
<feFlood flood-opacity="0" result="BackgroundImageFix"/>
<feColorMatrix in="SourceAlpha" type="matrix" values="0 0 0 0 0 0 0 0 0 0 0 0 0 0 0 0 0 0 127 0" result="hardAlpha"/>
<feOffset dy="0.866477"/>
<feGaussianBlur stdDeviation="3.24929"/>
<feComposite in2="hardAlpha" operator="out"/>
<feColorMatrix type="matrix" values="0 0 0 0 0 0 0 0 0 0 0 0 0 0 0 0 0 0 0.5 0"/>
<feBlend mode="normal" in2="BackgroundImageFix" result="effect1_dropShadow_1_1245"/>
<feBlend mode="normal" in="SourceGraphic" in2="effect1_dropShadow_1_1245" result="shape"/>
</filter>
<linearGradient id="paint0_linear_1_1245" x1="111.617" y1="60.2891" x2="111.644" y2="149.063" gradientUnits="userSpaceOnUse">
<stop stop-color="#FFE8B0"/>
<stop offset="0.53125" stop-color="#FFB400"/>
</linearGradient>
</defs>
</svg>
