<svg width="36" height="30" viewBox="0 0 36 30" fill="none" xmlns="http://www.w3.org/2000/svg">
<path d="M2.40358 29.4704C5.12128 14.7989 19.8118 2.86083 35.1555 2.84654L35.3505 1.78622C35.4821 1.07194 34.9082 0.417969 34.1502 0.417969H6.16143C5.57 0.417969 5.0642 0.824318 4.96114 1.38146L0.0188564 28.1846C-0.112747 28.8989 0.461236 29.5529 1.21915 29.5529H2.40675C2.40675 29.5259 2.39883 29.4989 2.40517 29.4704H2.40358Z" fill="#0E2B72"/>
<path d="M19.4785 23.2594H18.0214C17.9643 23.2594 17.9167 23.2975 17.9056 23.3499L17.6741 24.5086C17.6599 24.5784 17.7153 24.6419 17.7899 24.6419H19.2328C19.6783 24.6419 20.3791 24.5023 20.3712 23.8832C20.3633 23.4499 19.8717 23.2578 19.4785 23.2578V23.2594Z" fill="#0E2B72"/>
<path d="M19.8553 21.1774H18.4156C18.3585 21.1774 18.3094 21.2171 18.2999 21.2694L18.1112 22.2726C18.0985 22.3409 18.154 22.4044 18.2269 22.4044H19.6413C20.2882 22.4044 20.618 22.0885 20.618 21.7345C20.618 21.3805 20.3564 21.1758 19.8569 21.1758L19.8553 21.1774Z" fill="#0E2B72"/>
<path d="M3.5 29.5501H29.2087C29.8002 29.5501 30.306 29.1437 30.409 28.5866L34.9613 3.89453C20.228 4.00882 6.16696 15.4628 3.5 29.5501ZM20.9018 22.966C21.3236 23.2263 21.5091 23.6707 21.414 24.1422C21.2063 25.1802 20.1598 25.4882 19.0673 25.4882H16.6525C16.5795 25.4882 16.524 25.4247 16.5367 25.3564L17.4421 20.431C17.4516 20.3771 17.5007 20.3374 17.5578 20.3374H20.0139C21.0604 20.3374 21.5836 20.9183 21.5995 21.5802C21.6058 22.0009 21.3981 22.4866 20.905 22.7739C20.8289 22.8183 20.8289 22.9199 20.9018 22.9644V22.966ZM27.5248 20.4628C26.8161 21.0866 26.1089 21.712 25.4002 22.3358C25.3447 22.385 25.2939 22.4199 25.3431 22.5136C25.8536 23.4755 26.3578 24.439 26.8637 25.4025C26.8763 25.4263 26.9493 25.5056 26.8969 25.5072C26.0471 25.512 26.4784 25.5088 25.6285 25.5136C25.5333 25.5136 25.4985 25.4723 25.462 25.4009C25.1116 24.7009 24.758 24.0025 24.406 23.3041C24.36 23.212 24.2363 23.1914 24.1602 23.258C23.9176 23.4739 23.6782 23.6834 23.4451 23.8961C23.4118 23.9263 23.4039 23.985 23.3944 24.0326C23.3103 24.4802 23.2247 24.9295 23.1486 25.3787C23.1232 25.5231 23.0789 25.5215 22.795 25.5215C22.5334 25.5215 21.9578 25.5056 21.8706 25.5009C22.1862 23.7993 22.4985 22.1072 22.8141 20.4088C22.8204 20.3723 22.8537 20.3469 22.8902 20.3469H23.9842C24.0318 20.3469 24.0698 20.3882 24.0603 20.4342C23.9478 21.058 23.8352 21.6771 23.7163 22.3263C23.7829 22.2707 23.8209 22.239 23.8574 22.2056C24.5091 21.6152 25.1607 21.0263 25.8092 20.4342C25.8869 20.3628 25.9662 20.3358 26.0724 20.3358C26.5402 20.3406 27.0079 20.3374 27.4741 20.3374H27.6216C27.6295 20.3691 27.555 20.4326 27.5233 20.4596L27.5248 20.4628Z" fill="#0E2B72"/>
</svg>
