<svg width="40" height="40" viewBox="0 0 40 40" fill="none" xmlns="http://www.w3.org/2000/svg">
<path d="M21.3333 1.33333C21.3333 0.596954 20.7364 0 20 0C19.2636 0 18.6667 0.596954 18.6667 1.33333V16.781L10.5719 8.68627C10.0512 8.16557 9.20701 8.16557 8.68631 8.68627C8.16562 9.20697 8.16562 10.0512 8.68631 10.5719L16.7811 18.6667H1.33333C0.596954 18.6667 0 19.2636 0 20C0 20.7364 0.596954 21.3333 1.33333 21.3333H16.7811L8.68632 29.4281C8.16562 29.9488 8.16562 30.793 8.68632 31.3137C9.20702 31.8344 10.0512 31.8344 10.5719 31.3137L18.6667 23.219V38.6667C18.6667 39.403 19.2636 40 20 40C20.7364 40 21.3333 39.403 21.3333 38.6667V23.2189L29.4281 31.3137C29.9488 31.8344 30.793 31.8344 31.3137 31.3137C31.8344 30.793 31.8344 29.9488 31.3137 29.4281L23.219 21.3333H38.6667C39.403 21.3333 40 20.7364 40 20C40 19.2636 39.403 18.6667 38.6667 18.6667H23.219L31.3137 10.5719C31.8344 10.0512 31.8344 9.207 31.3137 8.6863C30.793 8.1656 29.9488 8.1656 29.4281 8.6863L21.3333 16.7811V1.33333Z" fill="#FFB400"/>
</svg>
