<?xml version="1.0" encoding="UTF-8"?>
<svg xmlns="http://www.w3.org/2000/svg" xmlns:xlink="http://www.w3.org/1999/xlink" viewBox="0 0 150 150">
  <defs>
    <style>
      .cls-1, .cls-2, .cls-3 {
        fill: none;
      }

      .cls-4 {
        fill: url(#linear-gradient);
      }

      .cls-5 {
        fill: #fff;
      }

      .cls-6 {
        fill: url(#linear-gradient-2);
        stroke-width: 1.01px;
      }

      .cls-6, .cls-2, .cls-3 {
        stroke-miterlimit: 10;
      }

      .cls-6, .cls-3 {
        stroke: #fff;
      }

      .cls-7 {
        fill: url(#Degradado_sin_nombre_4-2);
      }

      .cls-2 {
        stroke: url(#Degradado_sin_nombre_28);
        stroke-width: 1.72px;
      }

      .cls-8 {
        fill: url(#Degradado_sin_nombre_4);
      }

      .cls-9 {
        fill: url(#Degradado_sin_nombre_28-2);
      }

      .cls-10 {
        filter: url(#drop-shadow-28);
      }

      .cls-3 {
        stroke-width: .93px;
      }
    </style>
    <linearGradient id="linear-gradient" x1="7.22" y1="82.27" x2="126.43" y2="82.27" gradientUnits="userSpaceOnUse">
      <stop offset="0" stop-color="#ffb400"/>
      <stop offset=".18" stop-color="#ffbc00"/>
      <stop offset=".64" stop-color="#fc0"/>
      <stop offset="1" stop-color="#ffd200"/>
    </linearGradient>
    <linearGradient id="linear-gradient-2" x1="50.15" y1="79.18" x2="83.48" y2="79.18" xlink:href="#linear-gradient"/>
    <linearGradient id="Degradado_sin_nombre_4" data-name="Degradado sin nombre 4" x1="65.6" y1="87.79" x2="68.38" y2="87.79" gradientUnits="userSpaceOnUse">
      <stop offset="0" stop-color="#efefef" stop-opacity=".3"/>
      <stop offset=".11" stop-color="#f3f3f3" stop-opacity=".35"/>
      <stop offset=".33" stop-color="#f9f9f9" stop-opacity=".43"/>
      <stop offset=".54" stop-color="#fdfdfd" stop-opacity=".48"/>
      <stop offset=".72" stop-color="#fff" stop-opacity=".5"/>
      <stop offset=".77" stop-color="#fff" stop-opacity=".52"/>
      <stop offset=".83" stop-color="#fff" stop-opacity=".58"/>
      <stop offset=".89" stop-color="#fff" stop-opacity=".68"/>
      <stop offset=".97" stop-color="#fff" stop-opacity=".83"/>
      <stop offset="1" stop-color="#fff" stop-opacity=".9"/>
    </linearGradient>
    <filter id="drop-shadow-28" filterUnits="userSpaceOnUse">
      <feOffset dx="0" dy="0"/>
      <feGaussianBlur result="blur" stdDeviation="3.71"/>
      <feFlood flood-color="#ffce00" flood-opacity=".75"/>
      <feComposite in2="blur" operator="in"/>
      <feComposite in="SourceGraphic"/>
    </filter>
    <linearGradient id="Degradado_sin_nombre_28" data-name="Degradado sin nombre 28" x1="106.18" y1="67.57" x2="106.18" y2="6.34" gradientUnits="userSpaceOnUse">
      <stop offset="0" stop-color="#fff" stop-opacity=".9"/>
      <stop offset="0" stop-color="#fff" stop-opacity=".84"/>
      <stop offset=".03" stop-color="#fff" stop-opacity=".73"/>
      <stop offset=".05" stop-color="#fff" stop-opacity=".65"/>
      <stop offset=".08" stop-color="#fff" stop-opacity=".58"/>
      <stop offset=".11" stop-color="#fff" stop-opacity=".53"/>
      <stop offset=".16" stop-color="#fff" stop-opacity=".51"/>
      <stop offset=".28" stop-color="#fff" stop-opacity=".5"/>
      <stop offset=".46" stop-color="#fdfdfd" stop-opacity=".48"/>
      <stop offset=".67" stop-color="#f9f9f9" stop-opacity=".43"/>
      <stop offset=".89" stop-color="#f3f3f3" stop-opacity=".35"/>
      <stop offset="1" stop-color="#efefef" stop-opacity=".3"/>
    </linearGradient>
    <linearGradient id="Degradado_sin_nombre_28-2" data-name="Degradado sin nombre 28" x1="70.97" y1="37" x2="141.33" y2="37" xlink:href="#Degradado_sin_nombre_28"/>
    <linearGradient id="Degradado_sin_nombre_4-2" data-name="Degradado sin nombre 4" x1="-3943.5" y1="-4134.5" x2="-3943.5" y2="-4134.5" xlink:href="#Degradado_sin_nombre_4"/>
  </defs>
  <g id="Layer_2" data-name="Layer 2">
    <rect class="cls-5" width="150" height="150"/>
  </g>
  <g id="Layer_1" data-name="Layer 1">
    <g>
      <g>
        <g>
          <path class="cls-4" d="m66.79,141.87c-1.82,0-3.64,0-5.46,0-2.74-.01-4.29-1.52-4.4-4.27-.25-6.17-4.09-10.96-10.06-12.44-4.41-1.09-8.37-.09-11.78,2.89-2.69,2.35-4.42,2.34-6.94-.18-2.43-2.43-4.86-4.85-7.29-7.29-2.04-2.04-2.06-4.07-.12-6.21,3.5-3.86,4.54-8.31,2.86-13.23-1.67-4.9-5.16-7.87-10.29-8.81-.73-.13-1.48-.11-2.22-.17-2.3-.18-3.83-1.76-3.85-4.05-.03-3.89-.03-7.78,0-11.67.01-2.29,1.56-3.96,3.85-4.03,2.5-.08,4.8-.67,6.99-1.89.34-.19,1.14-.01,1.45.28,1.1,1.06,2.1,2.22,3.11,3.38.47.55.94.67,1.63.4,2.35-.92,4.72-1.77,7.06-2.7.35-.14.59-.58.87-.89-.29-.25-.55-.6-.89-.73-.73-.28-1.49-.54-2.26-.64-1.89-.24-3-1.34-4-2.91-1.01-1.59-1.56-2.93-1.05-4.97,1.09-4.29-.18-8.17-3.16-11.46-2.11-2.32-2.07-4.24.17-6.48,2.49-2.49,4.97-4.98,7.46-7.46,2.1-2.09,4.08-2.12,6.3-.12,3.87,3.49,8.34,4.5,13.24,2.8,4.89-1.69,7.84-5.2,8.76-10.34.12-.69.1-1.4.15-2.1.17-2.36,1.76-3.9,4.12-3.91,3.77-.02,7.53-.01,11.3,0,2.72,0,4.27,1.53,4.37,4.29.29,7.43,6.23,13.03,13.65,12.81,3.18-.09,5.96-1.25,8.32-3.39,2.47-2.24,4.32-2.21,6.66.13,2.49,2.49,4.98,4.97,7.46,7.46,1.97,1.98,2.03,4.1.14,6.13-1.55,1.67-2.71,3.55-3.23,5.78-.19.83-.61,1.16-1.48,1.09-1.44-.12-2.89-.13-4.34-.24-.75-.06-1.24.15-1.56.88-.99,2.27-2.06,4.51-3.03,6.79-.16.38-.02.9-.02,1.36.42-.05.88-.02,1.26-.18.64-.28,1.28-.61,1.83-1.03,1.54-1.18,3.18-1.45,4.99-.76.3.12.65.16.97.18,1.4.09,2.2.82,2.92,2.05,2.38,4.03,6.01,6.15,10.71,6.34,2.93.12,4.42,1.62,4.42,4.5,0,3.64,0,7.28,0,10.93,0,2.73-1.53,4.27-4.28,4.39-5.6.24-9.6,2.98-11.75,8.09-2.15,5.12-1.25,9.89,2.48,14.05,1.97,2.2,1.96,4.23-.11,6.31-2.54,2.55-5.09,5.1-7.64,7.64-1.99,1.97-4.1,2.04-6.12.15-1.67-1.55-3.55-2.71-5.77-3.23-.82-.19-1.17-.59-1.1-1.47.13-1.48.24-2.98.19-4.46-.01-.49-.42-1.19-.84-1.4-2.22-1.1-4.49-2.1-6.77-3.08-.39-.16-.9-.03-1.36-.03.05.42.02.87.17,1.25.19.5.44,1,.79,1.4,1.68,1.96,1.43,4.11.87,6.41-.32,1.34-.85,2.19-2.08,2.92-4.04,2.37-6.15,6-6.35,10.7-.13,2.99-1.6,4.43-4.61,4.44-1.78,0-3.56,0-5.34,0Zm.09-30.99c15.86-.03,28.62-12.85,28.56-28.69-.06-15.83-12.78-28.52-28.6-28.52-15.86,0-28.64,12.79-28.62,28.63.02,15.87,12.81,28.62,28.66,28.59Z"/>
          <path class="cls-3" d="m66.88,110.88c-15.85.03-28.64-12.72-28.66-28.59-.02-15.84,12.76-28.64,28.62-28.63,15.82,0,28.54,12.69,28.6,28.52.06,15.84-12.69,28.66-28.56,28.69Zm-.09-17.54c1.37,0,2.73,0,4.1,0,3.23,0,6.45.03,9.68-.01,2.58-.03,3.63-1.88,2.39-4.11-.4-.72-.83-1.43-1.24-2.15-4.17-7.23-8.34-14.46-12.53-21.69-1.22-2.11-3.42-2.21-4.61-.16-4.69,8.07-9.35,16.17-14.02,24.26-.52.9-.56,1.81,0,2.7.63,1,1.63,1.16,2.71,1.16,4.51,0,9.02,0,13.53,0Z"/>
          <path class="cls-6" d="m66.79,93.97c-4.51,0-9.02,0-13.53,0-1.08,0-2.08-.16-2.71-1.16-.56-.89-.52-1.8,0-2.7,4.67-8.09,9.33-16.18,14.02-24.26,1.19-2.04,3.39-1.95,4.61.16,4.19,7.22,8.35,14.46,12.53,21.69.41.72.84,1.43,1.24,2.15,1.25,2.23.19,4.08-2.39,4.11-3.23.04-6.45.01-9.68.01-1.37,0-2.73,0-4.1,0Z"/>
          <path class="cls-1" d="m66.82,85.39c1.09,0,1.98.88,1.99,1.95,0,1.08-.88,1.96-1.97,1.96-1.09,0-1.98-.87-1.99-1.94,0-1.07.89-1.96,1.97-1.97Z"/>
        </g>
        <g>
          <rect class="cls-5" x="65.63" y="71.15" width="2.39" height="13.33" rx=".73" ry=".73"/>
          <g>
            <path class="cls-8" d="m67.51,86.3c.46,0,.83.37.83.83v1.31c0,.46-.37.83-.83.83h-1.04c-.46,0-.83-.37-.83-.83v-1.31c0-.46.37-.83.83-.83h1.04m0-.04h-1.04c-.48,0-.87.39-.87.87v1.31c0,.48.39.87.87.87h1.04c.48,0,.87-.39.87-.87v-1.31c0-.48-.39-.87-.87-.87h0Z"/>
            <rect class="cls-5" x="65.63" y="86.3" width="2.71" height="2.98" rx=".83" ry=".83"/>
          </g>
        </g>
      </g>
      <g class="cls-10">
        <path class="cls-2" d="m73,66.71h66.38c2.02,0,3.29-2.17,2.27-3.91l-31.56-53.84c-1.36-2.32-4.73-2.36-6.15-.08l-33.17,53.87c-1.07,1.73.19,3.95,2.24,3.95Z"/>
        <path class="cls-9" d="m71.86,65.23h68.57c.69,0,1.12-.74.78-1.34l-31.33-53.44c-1.29-2.2-4.49-2.24-5.83-.07l-32.94,53.5c-.36.59.07,1.35.77,1.35Z"/>
        <rect class="cls-5" x="103.56" y="21.53" width="4.86" height="26.88" rx="1.36" ry="1.36"/>
        <g>
          <path class="cls-7" d="m107.06,52.07c.75,0,1.36.61,1.36,1.35v2.58c0,.75-.61,1.35-1.36,1.35h-2.15c-.75,0-1.35-.61-1.35-1.35v-2.58c0-.75.61-1.35,1.35-1.35h2.15m0-.06h-2.15c-.78,0-1.42.63-1.42,1.42v2.58c0,.78.63,1.42,1.42,1.42h2.15c.78,0,1.42-.63,1.42-1.42v-2.58c0-.78-.64-1.42-1.42-1.42h0Z"/>
          <rect class="cls-5" x="103.56" y="52.07" width="4.86" height="5.29" rx="1.36" ry="1.36"/>
        </g>
      </g>
    </g>
  </g>
</svg>