<?xml version="1.0" encoding="UTF-8"?>
<svg xmlns="http://www.w3.org/2000/svg" xmlns:xlink="http://www.w3.org/1999/xlink" viewBox="0 0 150 150">
  <defs>
    <style>
      .cls-1 {
        fill: url(#linear-gradient);
      }

      .cls-2, .cls-3 {
        fill: #fff;
      }

      .cls-4 {
        fill: url(#linear-gradient-4);
        stroke-width: .81px;
      }

      .cls-4, .cls-5, .cls-6 {
        stroke: #fff;
        stroke-miterlimit: 10;
      }

      .cls-7 {
        fill: url(#Degradado_sin_nombre_243);
      }

      .cls-3 {
        mix-blend-mode: soft-light;
      }

      .cls-8 {
        fill: url(#linear-gradient-3);
      }

      .cls-9 {
        fill: url(#linear-gradient-2);
      }

      .cls-10 {
        fill: url(#Degradado_sin_nombre_28);
      }

      .cls-5 {
        stroke-linecap: round;
        stroke-width: 2.47px;
      }

      .cls-5, .cls-6 {
        fill: none;
      }

      .cls-11 {
        isolation: isolate;
      }

      .cls-12 {
        filter: url(#drop-shadow-28);
      }

      .cls-6 {
        stroke-width: .93px;
      }
    </style>
    <linearGradient id="linear-gradient" x1="25.51" y1="56.2" x2="89.98" y2="56.2" gradientUnits="userSpaceOnUse">
      <stop offset="0" stop-color="#00ffc0"/>
      <stop offset=".1" stop-color="#00f3ae"/>
      <stop offset=".39" stop-color="#00d17b"/>
      <stop offset=".66" stop-color="#00b856"/>
      <stop offset=".87" stop-color="#00a940"/>
      <stop offset="1" stop-color="#01a438"/>
    </linearGradient>
    <linearGradient id="linear-gradient-2" x1="7.35" y1="113.75" x2="114.51" y2="113.75" xlink:href="#linear-gradient"/>
    <linearGradient id="linear-gradient-3" x1="13.94" y1="31.7" x2="101.55" y2="31.7" xlink:href="#linear-gradient"/>
    <linearGradient id="linear-gradient-4" x1="52.16" y1="40.45" x2="67.07" y2="40.45" xlink:href="#linear-gradient"/>
    <filter id="drop-shadow-28" filterUnits="userSpaceOnUse">
      <feOffset dx="0" dy="0"/>
      <feGaussianBlur result="blur" stdDeviation="5.46"/>
      <feFlood flood-color="#00ff06" flood-opacity=".75"/>
      <feComposite in2="blur" operator="in"/>
      <feComposite in="SourceGraphic"/>
    </filter>
    <linearGradient id="Degradado_sin_nombre_28" data-name="Degradado sin nombre 28" x1="-1505.02" y1="-2584.29" x2="-1439.25" y2="-2584.29" gradientTransform="translate(-2824.15 579.56) rotate(110.08)" gradientUnits="userSpaceOnUse">
      <stop offset="0" stop-color="#fff" stop-opacity=".9"/>
      <stop offset="0" stop-color="#fff" stop-opacity=".84"/>
      <stop offset=".03" stop-color="#fff" stop-opacity=".73"/>
      <stop offset=".05" stop-color="#fff" stop-opacity=".65"/>
      <stop offset=".08" stop-color="#fff" stop-opacity=".58"/>
      <stop offset=".11" stop-color="#fff" stop-opacity=".53"/>
      <stop offset=".16" stop-color="#fff" stop-opacity=".51"/>
      <stop offset=".28" stop-color="#fff" stop-opacity=".5"/>
      <stop offset=".46" stop-color="#fdfdfd" stop-opacity=".48"/>
      <stop offset=".67" stop-color="#f9f9f9" stop-opacity=".43"/>
      <stop offset=".89" stop-color="#f3f3f3" stop-opacity=".35"/>
      <stop offset="1" stop-color="#efefef" stop-opacity=".3"/>
    </linearGradient>
    <linearGradient id="Degradado_sin_nombre_243" data-name="Degradado sin nombre 243" x1="-4113.5" y1="-4134.5" x2="-4113.5" y2="-4134.5" gradientUnits="userSpaceOnUse">
      <stop offset="0" stop-color="#fff" stop-opacity=".9"/>
      <stop offset=".03" stop-color="#fff" stop-opacity=".83"/>
      <stop offset=".11" stop-color="#fff" stop-opacity=".68"/>
      <stop offset=".17" stop-color="#fff" stop-opacity=".58"/>
      <stop offset=".23" stop-color="#fff" stop-opacity=".52"/>
      <stop offset=".28" stop-color="#fff" stop-opacity=".5"/>
      <stop offset=".46" stop-color="#fdfdfd" stop-opacity=".48"/>
      <stop offset=".67" stop-color="#f9f9f9" stop-opacity=".43"/>
      <stop offset=".89" stop-color="#f3f3f3" stop-opacity=".35"/>
      <stop offset="1" stop-color="#efefef" stop-opacity=".3"/>
    </linearGradient>
  </defs>
  <g class="cls-11">
    <g id="Layer_2" data-name="Layer 2">
      <rect class="cls-2" width="150" height="150"/>
    </g>
    <g id="Layer_1" data-name="Layer 1">
      <g>
        <g>
          <path class="cls-1" d="m89.88,52.03l-1.2,11.93c-1.2,12.36-14.81,22.07-31.11,22.07h-.07c-16.29-.16-29.41-9.6-30.68-22.07l-1.2-11.93c-.71-6.67,2.19-13.07,8.18-18,5.92-4.93,14.04-7.65,22.78-7.65h2.33c8.75,0,16.86,2.71,22.78,7.65,6,4.93,8.89,11.33,8.18,18Z"/>
          <path class="cls-9" d="m7.35,140.54c0-29.59,23.99-53.58,53.58-53.58s53.58,23.99,53.58,53.58"/>
          <rect class="cls-6" x="22.79" y="122.43" width="21.72" height="5.43"/>
          <path class="cls-8" d="m101.55,46.94v5.87c0,1.06-.86,1.92-1.92,1.92H15.86c-1.06,0-1.92-.86-1.92-1.92v-5.87c0-1.06.86-1.92,1.92-1.92h5.35c3.13-15.47,15.84-27.46,31.69-29.51v-4.92c0-1.06.86-1.92,1.92-1.92h5.85c1.06,0,1.92.86,1.92,1.92v4.92c15.84,2.05,28.56,14.04,31.69,29.51h5.35c1.06,0,1.92.86,1.92,1.92Z"/>
          <circle class="cls-4" cx="59.61" cy="40.45" r="7.46"/>
          <rect class="cls-2" x="24.68" y="54.73" width="65.24" height="1.47"/>
        </g>
        <g class="cls-12">
          <g>
            <circle class="cls-10" cx="108.5" cy="84.32" r="32.88"/>
            <path class="cls-3" d="m97.82,115.43c-.3-.11-.6-.23-.9-.35,16.81,5.61,35.13-3.15,41.26-19.91,6.13-16.76-2.23-35.27-18.69-41.82.31.1.61.2.91.31,17.06,6.24,25.83,25.12,19.59,42.17-6.24,17.06-25.12,25.83-42.17,19.59Z"/>
            <path class="cls-7" d="m108.51,51.43c3.75,0,7.56.65,11.29,2.01,17.06,6.24,25.83,25.12,19.59,42.17-4.87,13.33-17.47,21.6-30.89,21.6-3.75,0-7.56-.65-11.29-2.01-17.06-6.24-25.83-25.12-19.59-42.17,4.87-13.33,17.47-21.6,30.89-21.6m0-1.07v1.07-1.07h0c-14.2,0-27.01,8.96-31.89,22.3-6.43,17.58,2.65,37.12,20.23,43.54,3.76,1.38,7.68,2.07,11.65,2.07,14.2,0,27.01-8.96,31.89-22.3,3.11-8.52,2.72-17.74-1.1-25.96-3.82-8.22-10.62-14.47-19.13-17.58-3.76-1.38-7.68-2.07-11.65-2.07h0Z"/>
            <polyline class="cls-5" points="93.92 85.82 104.8 96.7 126.55 74.95"/>
          </g>
        </g>
      </g>
    </g>
  </g>
</svg>