<?xml version="1.0" encoding="UTF-8"?>
<svg xmlns="http://www.w3.org/2000/svg" xmlns:xlink="http://www.w3.org/1999/xlink" viewBox="0 0 150 150">
  <defs>
    <style>
      .cls-1, .cls-2, .cls-3 {
        fill: none;
      }

      .cls-4 {
        fill: url(#linear-gradient);
      }

      .cls-2 {
        stroke-linecap: round;
        stroke-width: 2.23px;
      }

      .cls-2, .cls-3 {
        stroke: #fff;
        stroke-miterlimit: 10;
      }

      .cls-5 {
        fill: #fff;
      }

      .cls-3 {
        stroke-width: .94px;
      }

      .cls-6 {
        fill: url(#linear-gradient-3);
      }

      .cls-7 {
        fill: url(#linear-gradient-2);
      }

      .cls-8 {
        fill: url(#Degradado_sin_nombre_15);
      }

      .cls-9 {
        opacity: .46;
      }

      .cls-10 {
        filter: url(#drop-shadow-28);
      }
    </style>
    <linearGradient id="linear-gradient" x1="61.02" y1="73.2" x2="61.56" y2="73.2" gradientUnits="userSpaceOnUse">
      <stop offset="0" stop-color="#fb8999"/>
      <stop offset=".05" stop-color="#fb8599"/>
      <stop offset=".42" stop-color="#fb6a99"/>
      <stop offset=".74" stop-color="#fb5a99"/>
      <stop offset="1" stop-color="#fb5599"/>
    </linearGradient>
    <linearGradient id="linear-gradient-2" x1="21.13" y1="83.7" x2="142" y2="83.7" xlink:href="#linear-gradient"/>
    <linearGradient id="linear-gradient-3" x1="117.83" y1="15.83" x2="142" y2="15.83" xlink:href="#linear-gradient"/>
    <filter id="drop-shadow-28" filterUnits="userSpaceOnUse">
      <feOffset dx="0" dy="0"/>
      <feGaussianBlur result="blur" stdDeviation="4.54"/>
      <feFlood flood-color="#fb8999" flood-opacity=".75"/>
      <feComposite in2="blur" operator="in"/>
      <feComposite in="SourceGraphic"/>
    </filter>
    <linearGradient id="Degradado_sin_nombre_15" data-name="Degradado sin nombre 15" x1="9.64" y1="44.69" x2="71.42" y2="44.69" gradientUnits="userSpaceOnUse">
      <stop offset="0" stop-color="#fff" stop-opacity=".9"/>
      <stop offset=".03" stop-color="#fff" stop-opacity=".79"/>
      <stop offset=".07" stop-color="#fff" stop-opacity=".69"/>
      <stop offset=".11" stop-color="#fff" stop-opacity=".6"/>
      <stop offset=".15" stop-color="#fff" stop-opacity=".55"/>
      <stop offset=".2" stop-color="#fff" stop-opacity=".51"/>
      <stop offset=".28" stop-color="#fff" stop-opacity=".5"/>
      <stop offset=".46" stop-color="#fdfdfd" stop-opacity=".48"/>
      <stop offset=".67" stop-color="#f9f9f9" stop-opacity=".43"/>
      <stop offset=".89" stop-color="#f3f3f3" stop-opacity=".35"/>
      <stop offset="1" stop-color="#efefef" stop-opacity=".3"/>
    </linearGradient>
  </defs>
  <g id="Layer_2" data-name="Layer 2">
    <rect class="cls-5" width="150" height="150"/>
  </g>
  <g id="Layer_1" data-name="Layer 1">
    <g>
      <g>
        <polygon class="cls-4" points="61.56 72.93 61.56 73.47 61.02 73.47 61.56 72.93"/>
        <polygon class="cls-7" points="142 26.99 142 140.42 21.13 140.42 21.13 73.47 29.4 73.47 62.04 40.84 61.56 72.93 61.02 73.47 61.56 73.47 61.56 72.93 93.65 40.84 93.17 73.47 117.83 73.47 117.83 26.99 142 26.99"/>
        <polygon class="cls-4" points="61.56 72.93 61.56 73.47 61.02 73.47 61.56 72.93"/>
        <rect class="cls-6" x="117.83" y="8.39" width="24.17" height="14.88"/>
        <rect class="cls-3" x="30.93" y="92.22" width="27.24" height="15.72"/>
        <rect class="cls-3" x="65.51" y="92.22" width="27.24" height="15.72"/>
        <rect class="cls-3" x="100.09" y="92.22" width="27.24" height="15.72"/>
        <rect class="cls-3" x="30.93" y="115.27" width="27.24" height="15.72"/>
        <rect class="cls-3" x="65.51" y="115.27" width="27.24" height="15.72"/>
        <rect class="cls-3" x="100.09" y="115.27" width="27.24" height="15.72"/>
      </g>
      <g class="cls-10">
        <polyline class="cls-2" points="27.03 44.69 36.03 53.69 54.04 35.69"/>
        <path class="cls-8" d="m71.42,24.1v13.77c0,19.45-12.44,36.71-30.89,42.86h0s0,0,0,0c-18.45-6.15-30.89-23.41-30.89-42.86v-13.77l30.89-15.45,30.89,15.45Z"/>
        <path class="cls-5" d="m11.92,24.1c9.98-5.37,20.55-10.7,30.7-15.82,0,0,.19-.1.19-.1l.19.1c10.16,5.13,20.71,10.44,30.7,15.82-10.29-4.76-20.89-10.02-31.08-15.07,0,0,.38,0,.38,0-10.19,5.05-20.78,10.3-31.08,15.07h0Z"/>
        <g class="cls-9">
          <path class="cls-5" d="m41.64,8.65l30.89,15.44v13.77c0,19.45-12.44,36.71-30.89,42.86-18.45-6.15-30.89-23.41-30.89-42.86v-13.77l30.89-15.44m0-1.27c-.2,0-.39.04-.57.13l-30.89,15.44c-.43.22-.7.66-.7,1.14v13.77c0,20.02,12.76,37.73,31.76,44.07.13.04.27.07.4.07s.27-.02.4-.07c19-6.33,31.76-24.04,31.76-44.07v-13.77c0-.48-.27-.92-.7-1.14l-30.89-15.44c-.18-.09-.37-.13-.57-.13h0Z"/>
        </g>
        <path class="cls-1" d="m72.53,24.1v13.77c0,19.45-12.44,36.71-30.89,42.86h0s0,0,0,0c-18.45-6.15-30.89-23.41-30.89-42.86v-13.77l30.89-15.45,30.89,15.45Z"/>
      </g>
    </g>
  </g>
</svg>