<svg width="546" height="64" viewBox="0 0 546 64" fill="none" xmlns="http://www.w3.org/2000/svg">
<path fill-rule="evenodd" clip-rule="evenodd" d="M308.709 6.79001V18.8L304.889 31.64H308.709V39.58H303.079L300.159 49.28L300.019 49.75H289.199L300.299 16.23C301.009 14.13 300.979 13.58 300.989 12.9C300.969 12.26 300.869 12.11 300.659 11.95C300.439 11.79 299.839 11.65 298.829 11.65H296.989V6.78001H308.719L308.709 6.79001ZM328.199 47.45L317.809 10.58C317.149 7.79001 315.369 6.69001 312.689 6.79001H308.709V18.8L308.899 18.14L312.529 31.63H308.709V39.57H314.299L317.129 49.75H328.199V47.44V47.45ZM327.549 6.79001H328.199V11.66H327.549V6.79001ZM371.019 17.2H360.959V21.82H362.089C362.929 21.83 363.359 22.03 363.599 22.3C363.849 22.57 364.019 23.04 364.019 23.78V49.76H374.509V20.93C374.509 19.86 374.159 18.9 373.529 18.24C372.899 17.57 371.999 17.2 371.019 17.21V17.2ZM368.669 6.08001C366.919 6.08001 365.409 6.52001 364.309 7.41001C363.209 8.29001 362.589 9.65001 362.599 11.23C362.579 12.81 363.219 14.12 364.329 14.94C365.439 15.77 366.939 16.14 368.669 16.14C370.509 16.13 372.019 15.77 373.109 14.94C374.189 14.1 374.759 12.78 374.749 11.23C374.749 9.66001 374.209 8.31001 373.119 7.42001C372.049 6.52001 370.539 6.08001 368.669 6.08001ZM354.089 6.79001H344.249V11.66H345.379C346.859 11.76 347.219 12.01 347.309 13.37V49.76H357.139V49.11H357.799V10.53C357.799 9.46001 357.459 8.48001 356.779 7.82001C356.109 7.13001 355.149 6.79001 354.079 6.79001H354.089ZM328.209 11.66H328.699C329.559 11.66 330.029 11.83 330.249 12.05C330.469 12.25 330.629 12.61 330.629 13.37V49.76H340.469V49.11H341.129V10.53C341.129 9.48001 340.859 8.52001 340.209 7.83001C339.559 7.12001 338.579 6.79001 337.409 6.79001H328.219V11.66H328.209ZM328.209 49.76V47.45L328.859 49.76H328.209ZM391.719 28.79V35.48C391.239 35.63 390.789 35.79 390.309 36C388.649 36.69 388.219 37.39 388.149 39.64C388.149 40.77 388.339 41.45 388.609 41.77C388.869 42.09 389.329 42.29 390.309 42.3C390.779 42.3 391.239 42.23 391.719 42.1V49.02C390.149 49.7 388.359 50.01 386.539 50.02H386.499C383.819 50.02 381.709 49.25 380.329 47.62C378.949 45.98 378.359 43.63 378.359 40.59C378.319 35.72 380.179 32.46 384.179 30.74C385.359 30.28 386.589 29.78 388.049 29.53C389.299 29.26 390.239 29.05 391.719 28.8V28.79ZM391.719 16.83V24.91C391.109 24.92 390.469 24.95 389.239 25.14C387.649 25.39 386.309 25.83 383.999 26.75L383.189 27.12L382.549 27.4L379.849 20.38L380.389 20.12C383.259 18.67 385.089 18.21 386.839 17.71C388.429 17.24 390.069 16.96 391.729 16.84L391.719 16.83ZM431.459 16.96C428.109 16.96 425.279 18.03 421.779 20.93V20.7C421.779 19.69 421.599 18.8 421.029 18.14C420.459 17.47 419.569 17.2 418.529 17.21H408.699V21.83H409.829C410.669 21.84 411.099 22.04 411.349 22.31C411.599 22.58 411.759 23.05 411.759 23.79V49.77H421.589V49.11H422.249V28.11C424.219 26.4 425.359 25.89 427.239 25.86C428.209 25.88 428.619 26.06 428.899 26.44C429.209 26.85 429.399 27.73 429.399 29.23V49.77H439.659V27.81C439.679 23.3 439.169 21.4 437.899 19.61C436.329 17.75 434.179 16.95 431.479 16.96H431.459ZM467.669 42.3H455.079L467.859 24.47V17.22H447.439C446.189 17.22 445.159 17.47 444.449 18.18C443.739 18.9 443.499 19.93 443.499 21.19V27.53H448.099V26.16C448.099 25.41 448.259 25.04 448.479 24.83C448.689 24.62 449.159 24.45 450.029 24.45H456.039L443.249 42.27V49.77H468.329V42.97H467.659V42.3H467.669ZM391.709 49.02V42.1C392.859 41.77 394.049 41.04 395.279 39.84V34.74C393.739 35 392.669 35.2 391.709 35.48V28.79C392.619 28.62 393.749 28.43 395.279 28.18V28.04C395.279 26.69 394.999 25.97 394.559 25.57C394.109 25.14 393.299 24.9 391.949 24.9H391.709V16.82C392.569 16.75 393.429 16.72 394.299 16.72C398.239 16.72 401.039 17.43 402.849 19.32C404.649 21.22 405.299 24.07 405.299 28.03V43.41C405.299 44.14 405.489 44.48 405.749 44.72C406.029 44.95 406.499 45.12 407.229 45.12H408.119V49.75H398.759C397.829 49.75 396.949 49.46 396.359 48.79C395.849 48.22 395.589 47.43 395.529 46.5C394.369 47.47 393.679 47.91 392.749 48.48L391.709 49V49.02ZM500.969 18.68H500.329C499.039 18.68 497.979 18.97 497.239 19.71C496.509 20.46 496.209 21.52 496.209 22.81V48.63H500.969V18.68ZM500.969 2.59001V9.44001C498.919 10.53 497.079 11.91 495.479 13.53C491.139 18.02 488.569 24.34 488.559 31.76C488.579 41.74 493.359 49.89 500.969 54.08V61.08C497.089 59.53 493.649 57.25 490.799 54.39C485.199 48.75 481.869 40.88 481.869 31.93C481.869 22.98 485.189 14.98 490.779 9.37001L490.879 9.28001L490.959 9.19001C493.769 6.36001 497.159 4.12001 500.979 2.59001H500.969ZM500.969 48.63V18.68H505.539V19.37H505.719V48.45H505.539V48.64H500.969V48.63ZM511.929 57.1V63.35C507.999 63.2 504.329 62.41 500.969 61.07V54.07C504.169 55.83 507.869 56.9 511.929 57.1ZM511.929 10.87V48.63H508.589V17.16L508.569 16.63L508.519 16.56C508.429 16.45 508.069 16.32 507.229 16.33H505.939V15.64H505.759V10.87H511.929ZM511.929 0.28001V6.53001C507.879 6.70001 504.169 7.72001 500.969 9.43001V2.58001C504.319 1.23001 508.009 0.44001 511.929 0.28001ZM511.929 48.62V10.86H513.789C515.149 10.86 516.209 11.07 516.959 11.8C517.429 12.28 517.669 12.88 517.789 13.59C517.999 14.18 518.089 14.86 518.089 15.66V47.78H517.909V47.96H517.449V48.43H517.269V48.62H511.929ZM525.709 54.15V61.03C521.949 62.55 517.789 63.37 513.369 63.37H513.359C512.879 63.37 512.409 63.36 511.929 63.34V57.09C512.389 57.11 512.849 57.13 513.319 57.13C517.919 57.12 522.119 56.06 525.719 54.14L525.709 54.15ZM525.709 2.53001V9.54001C522.079 7.58001 517.819 6.51001 513.139 6.50001L511.929 6.53001V0.28001C512.389 0.26001 512.849 0.26001 513.319 0.26001C517.769 0.26001 521.939 1.06001 525.719 2.54001L525.709 2.53001ZM525.709 18.67H520.949V48.62H525.709V18.67ZM525.709 61.03V54.15C527.779 53.05 529.659 51.66 531.289 50.02C535.699 45.52 538.309 39.19 538.329 31.91C538.309 21.78 533.439 13.68 525.709 9.54001V2.53001C529.619 4.07001 533.089 6.33001 535.969 9.18001C541.629 14.79 545.009 22.67 545.009 31.75C545.009 40.83 541.629 48.58 535.999 54.21L535.899 54.3L535.819 54.39C532.979 57.24 529.549 59.5 525.709 61.05V61.03ZM529.349 19.71C528.619 18.96 527.549 18.67 526.169 18.67H525.709V48.62H530.279V48.43H530.449V23.47C530.449 22.73 530.359 22.09 530.159 21.51C530.029 20.8 529.789 20.2 529.339 19.7L529.349 19.71Z" fill="#0072BC"/>
<path fill-rule="evenodd" clip-rule="evenodd" d="M25.7 10.7099V18.77H12.58V32.94L16.22 27.05C16.98 25.77 18.73 24.8899 20.29 24.8899H25.7V32.9499H12.58V49.12L16.22 43.2099C16.98 41.9399 18.73 41.05 20.29 41.05H25.7V49.1299H0V10.7299H25.7V10.7099ZM52.04 48.01L51.36 49.11H52.04V48.01ZM52.04 17.2799V23.86C50.71 26.71 47.6 28.7199 44.13 29.57C48.24 30.7999 50.89 32.7799 52.04 35.3899V42.43C49.56 48.43 40.77 49.08 34.28 49.11H25.7V41.0299H34.12C36.74 41.07 38.81 39.23 38.81 36.98C38.81 34.73 36.78 32.93 34.12 32.93H25.7V24.87H34.28C36.78 24.87 38.82 23.7399 38.82 21.8099C38.82 19.8799 36.81 18.7599 34.28 18.7599H25.7V10.7H34.28C40.32 10.7 49.48 11.39 52.04 17.27V17.2799ZM52.04 23.86V17.2799C52.48 18.2899 52.72 19.4399 52.72 20.7799C52.72 21.8899 52.48 22.92 52.04 23.86ZM52.04 42.43V35.3899C52.5 36.42 52.72 37.53 52.72 38.75C52.72 40.17 52.48 41.38 52.04 42.43ZM114.52 48.48L91.24 10.7099H75.04L52.03 48.01V49.11H66.15L83.14 19.9399L91.44 34.1999H81.94C80.37 34.1999 78.61 35.08 77.85 36.36L74.22 42.25H96.14L100.11 49.0999H114.51V48.4599L114.52 48.48ZM114.52 41.04V41.69L114.13 41.04H114.52ZM114.52 49.12H114.92L114.52 48.48V49.12ZM154.91 48.0599L154.25 49.12H154.91V48.0599ZM154.91 10.72V42.4599C153.24 47.36 148.56 49.12 142.79 49.12H121.85C120.28 49.12 118.52 48.2299 117.77 46.9599L114.52 41.69V41.04H137.79C140.65 41.04 142.97 39.66 142.97 36.87V10.72H154.9H154.91ZM154.91 42.4599V10.72H155.57V38.0599C155.57 39.7499 155.34 41.1999 154.91 42.4599ZM217.4 48.48L194.13 10.72H177.95L154.92 48.0599V49.12H169.06L186.04 19.95L194.35 34.2099H184.85C183.29 34.2099 181.53 35.09 180.78 36.37L177.14 42.26H199.05L203.03 49.11H217.41V48.4599L217.4 48.48ZM217.4 41.69L217 41.04H217.4V41.69ZM217.4 49.12H217.8L217.4 48.47V49.12ZM240.67 41.04C243.53 41.04 245.86 39.66 245.86 36.87V10.72H258.43V38.0599C258.43 46.3399 252.9 49.12 245.66 49.12H224.71C223.14 49.12 221.38 48.2299 220.64 46.9599L217.39 41.69V41.04H240.66H240.67Z" fill="#0072BC"/>
<path d="M274.199 63.04H277.679V0.48999H274.199V63.04Z" fill="#0072BC"/>
</svg>
