<svg width="380" height="88" viewBox="0 0 380 88" fill="none" xmlns="http://www.w3.org/2000/svg">
<path fill-rule="evenodd" clip-rule="evenodd" d="M242.489 36.6699C244.749 33.9199 247.36 31.0499 250.71 27.8299C254.06 24.5799 257.049 22.0799 259.939 19.9299C263.109 17.5299 267.17 17.4499 270.32 19.8999C273.2 22.0799 276.17 24.5799 279.52 27.8299C282.86 31.0299 285.489 33.8999 287.729 36.6499C290.379 39.8999 290.359 43.3599 287.729 46.6099C285.469 49.3899 282.84 52.2499 279.52 55.4799C276.14 58.7099 273.2 61.1799 270.32 63.3599C267.12 65.7399 263.119 65.7399 259.939 63.3599C257.039 61.1799 254.069 58.6699 250.739 55.4799C247.359 52.2499 244.77 49.3899 242.52 46.6099C240.05 43.5799 239.929 39.6899 242.499 36.6699" fill="#023F88"/>
<path fill-rule="evenodd" clip-rule="evenodd" d="M240.139 42.3C240.449 43.84 241.169 45.16 242.359 46.61C244.639 49.41 247.349 52.25 250.729 55.48C254.059 58.67 257.039 61.18 259.929 63.36C261.249 64.36 262.799 64.9699 264.279 65.0999C261.219 64.3499 256.719 59.6399 259.109 51.11C261.359 43.0099 265.019 37.0899 266.869 33.4499L266.909 33.33C270.619 26.34 265.379 23.9599 261.249 27.4799C264.179 23.4599 270.869 16.88 273.189 14.4999C275.489 12.0699 273.859 9.60995 269.249 10.86C259.769 13.73 247.989 22.62 242.479 33.11C240.659 36.61 239.859 39.66 240.129 42.3" fill="#EC1C24"/>
<path fill-rule="evenodd" clip-rule="evenodd" d="M103.341 61.4C100.541 61.4 97.9306 60.9499 95.4906 60.0599C93.0506 59.1499 90.9306 57.8299 89.1206 56.0999C87.3406 54.4199 85.9506 52.34 84.9206 49.86C83.9006 47.37 83.3906 44.64 83.3906 41.66C83.3906 38.7 83.9006 35.9699 84.9206 33.4599C85.9506 30.9299 87.4106 28.75 89.2806 26.9C91.1106 25.09 93.3006 23.69 95.8706 22.7C98.4306 21.7 101.171 21.2 104.091 21.2C106.211 21.2 108.131 21.4599 109.871 21.9799C111.611 22.4799 113.071 23.06 114.281 23.7L115.951 22.22H118.291L118.541 36.15H116.171C114.821 31.9 113.211 28.78 111.331 26.79C109.451 24.8 107.151 23.81 104.441 23.81C101.071 23.81 98.5106 25.3 96.7506 28.27C94.9906 31.23 94.1206 35.3899 94.1206 40.75C94.1206 43.78 94.4206 46.3699 95.0006 48.5199C95.6106 50.6499 96.4006 52.37 97.3706 53.68C98.4106 55.04 99.6406 56.05 101.051 56.69C102.461 57.31 104.031 57.6299 105.761 57.6299C108.271 57.6299 110.501 56.9499 112.451 55.5899C114.421 54.2199 116.221 52.17 117.831 49.4L120.141 50.8C119.371 52.38 118.491 53.8 117.511 55.05C116.521 56.29 115.381 57.36 114.091 58.26C112.681 59.25 111.101 60.0099 109.381 60.57C107.681 61.13 105.661 61.4 103.331 61.4" fill="#231F20"/>
<path fill-rule="evenodd" clip-rule="evenodd" d="M155.13 60.38H138.95V58.42C139.3 58.38 139.73 58.34 140.21 58.28C140.7 58.23 141.05 58.14 141.28 58.01C141.66 57.81 141.92 57.52 142.06 57.15C142.22 56.78 142.3 56.22 142.3 55.48V42.9C142.3 41.06 141.95 39.67 141.25 38.76C140.57 37.85 139.59 37.39 138.32 37.39C137.6 37.39 136.93 37.5 136.3 37.71C135.69 37.92 135.09 38.24 134.5 38.65C133.98 39.01 133.56 39.38 133.23 39.75C132.92 40.13 132.66 40.45 132.45 40.75V55.19C132.45 55.85 132.53 56.38 132.69 56.77C132.85 57.14 133.16 57.46 133.6 57.71C133.87 57.87 134.22 58.02 134.65 58.14C135.1 58.27 135.53 58.36 135.94 58.41V60.37H119.59V58.41C120.06 58.37 120.51 58.33 120.94 58.27C121.39 58.22 121.78 58.13 122.12 58C122.7 57.79 123.08 57.48 123.28 57.09C123.49 56.68 123.6 56.14 123.6 55.47V25.49C123.6 24.92 123.46 24.31 123.2 23.66C122.93 23.02 122.55 22.53 122.07 22.21C121.7 21.98 121.19 21.8 120.5 21.67C119.82 21.53 119.21 21.44 118.67 21.4V19.43L132.03 18.73L132.43 19.16V37.66H132.54C133.22 37.05 133.83 36.51 134.37 36.02C134.92 35.52 135.59 35.01 136.39 34.52C137.05 34.09 137.91 33.71 138.96 33.42C140.04 33.12 141.19 32.96 142.43 32.96C145.34 32.96 147.51 33.8 148.96 35.46C150.43 37.13 151.17 39.32 151.17 42.05V55.23C151.17 55.9 151.27 56.42 151.47 56.82C151.67 57.22 152.03 57.53 152.57 57.76C152.9 57.91 153.25 58.03 153.65 58.14C154.05 58.25 154.53 58.34 155.1 58.41V60.37L155.13 60.38Z" fill="#231F20"/>
<path fill-rule="evenodd" clip-rule="evenodd" d="M174.93 55.5099C175.33 54.5099 175.61 53.2899 175.79 51.8499C175.99 50.4199 176.091 48.7499 176.091 46.8499C176.091 45.5999 176 44.1599 175.82 42.5499C175.64 40.9399 175.37 39.6599 175.01 38.7299C174.58 37.5999 173.981 36.7099 173.211 36.0699C172.451 35.4299 171.501 35.0999 170.331 35.0999C169.061 35.0999 168.03 35.4499 167.26 36.1499C166.51 36.8499 165.931 37.7599 165.521 38.8699C165.141 39.8899 164.88 41.0899 164.74 42.4699C164.59 43.8399 164.521 45.2599 164.521 46.7499C164.521 48.7099 164.581 50.3299 164.711 51.6199C164.841 52.8899 165.14 54.1799 165.63 55.4599C166.04 56.5799 166.63 57.4499 167.41 58.0999C168.18 58.7499 169.151 59.0699 170.341 59.0699C171.421 59.0699 172.35 58.7699 173.11 58.1799C173.88 57.5699 174.49 56.6799 174.94 55.5199M181.831 36.8899C183.151 38.1199 184.17 39.6099 184.87 41.3299C185.57 43.0399 185.91 44.9099 185.91 46.9199C185.91 48.9299 185.56 50.7899 184.87 52.5699C184.19 54.3199 183.18 55.8299 181.86 57.0799C180.44 58.4299 178.741 59.4599 176.781 60.1699C174.821 60.8799 172.58 61.2399 170.05 61.2499C167.87 61.2499 165.85 60.9399 164 60.3099C162.17 59.6799 160.551 58.7399 159.141 57.4899C157.771 56.2899 156.7 54.8099 155.91 53.0499C155.12 51.2799 154.73 49.2999 154.73 47.1099C154.73 44.9199 155.07 43.0399 155.75 41.3799C156.45 39.6999 157.49 38.1999 158.86 36.8899C160.19 35.6299 161.82 34.6699 163.76 33.9799C165.71 33.2799 167.89 32.9299 170.29 32.9299C172.81 32.9299 175.01 33.2799 176.91 33.9799C178.82 34.6599 180.471 35.6299 181.831 36.8899Z" fill="#231F20"/>
<path fill-rule="evenodd" clip-rule="evenodd" d="M202.5 60.38H185.64V58.42C186.11 58.38 186.56 58.34 186.99 58.28C187.44 58.23 187.83 58.14 188.17 58.01C188.75 57.8 189.13 57.49 189.33 57.1C189.55 56.69 189.65 56.15 189.65 55.48V25.69C189.65 25.01 189.51 24.37 189.22 23.81C188.95 23.22 188.58 22.77 188.12 22.46C187.76 22.23 187.21 22 186.48 21.79C185.77 21.57 185.12 21.45 184.57 21.42V19.45L198.1 18.75L198.5 19.18V55.13C198.5 55.8 198.61 56.34 198.85 56.75C199.09 57.16 199.46 57.49 199.98 57.72C200.34 57.88 200.72 58.03 201.11 58.15C201.51 58.28 201.97 58.37 202.51 58.42V60.38H202.5Z" fill="#231F20"/>
<path fill-rule="evenodd" clip-rule="evenodd" d="M219.21 45.8099C218.21 46.1499 217.21 46.5399 216.23 46.9899C215.24 47.4199 214.44 47.8799 213.81 48.3599C213.14 48.8599 212.62 49.5099 212.25 50.2999C211.87 51.0699 211.68 51.9799 211.68 53.0399C211.68 54.4399 212 55.4599 212.62 56.0799C213.27 56.7099 214.06 57.0199 214.99 57.0199C215.98 57.0199 216.78 56.8299 217.41 56.4299C218.06 56.0199 218.62 55.5099 219.1 54.9199L219.21 45.8099ZM232.58 59.8199C231.79 60.1599 230.86 60.4699 229.78 60.7599C228.7 61.0399 227.56 61.1899 226.36 61.1899C224.16 61.1899 222.53 60.8699 221.49 60.2199C220.45 59.5599 219.75 58.6199 219.37 57.3999H219.21C218.6 58.0099 218.01 58.5299 217.43 58.9599C216.87 59.3899 216.28 59.7599 215.63 60.0599C214.79 60.4499 213.97 60.7399 213.19 60.9199C212.42 61.1199 211.33 61.2099 209.93 61.2199C207.85 61.2199 206.08 60.6099 204.61 59.3899C203.14 58.1499 202.41 56.5199 202.41 54.4899C202.41 53.3299 202.57 52.3499 202.89 51.5299C203.22 50.7099 203.67 49.9799 204.26 49.3499C204.8 48.7799 205.42 48.3099 206.12 47.9299C206.84 47.5499 207.62 47.1999 208.46 46.8799C210.08 46.2899 212.01 45.6799 214.27 45.0499C216.52 44.4099 218.17 43.8299 219.21 43.3299V40.7499C219.21 40.2999 219.17 39.7099 219.1 38.9699C219.03 38.2299 218.88 37.6099 218.65 37.1099C218.4 36.5399 218 36.0599 217.46 35.6599C216.93 35.2599 216.22 35.0699 215.34 35.0699C214.55 35.0699 213.89 35.1899 213.36 35.4199C212.84 35.6299 212.41 35.8599 212.1 36.0899C212.15 36.4499 212.3 36.9999 212.55 37.7299C212.8 38.4699 212.93 39.1799 212.93 39.8499C212.93 40.1499 212.85 40.5499 212.69 41.0099C212.53 41.4599 212.3 41.8199 211.99 42.0899C211.58 42.4499 211.11 42.7299 210.59 42.9199C210.09 43.1199 209.31 43.2199 208.26 43.2199C206.74 43.2199 205.61 42.8599 204.84 42.1499C204.07 41.4099 203.68 40.4599 203.68 39.2999C203.68 38.2899 204.08 37.3899 204.86 36.6099C205.67 35.7999 206.65 35.1399 207.79 34.6199C208.92 34.0799 210.22 33.6699 211.69 33.3899C213.16 33.0799 214.52 32.9299 215.78 32.9299C217.52 32.9299 219.11 33.0399 220.56 33.2599C222.01 33.4599 223.32 33.8799 224.49 34.5199C225.6 35.1499 226.48 36.0699 227.12 37.2599C227.79 38.4399 228.12 39.9999 228.12 41.9099C228.12 43.9299 228.08 46.3399 227.99 49.1199C227.92 51.8999 227.88 53.7299 227.88 54.6099C227.88 55.4199 228 56.0499 228.23 56.5199C228.48 56.9899 228.85 57.3299 229.36 57.5699C229.66 57.7199 230.14 57.7999 230.79 57.8399C231.45 57.8599 232.05 57.8699 232.59 57.8699V59.8299L232.58 59.8199Z" fill="#231F20"/>
<path fill-rule="evenodd" clip-rule="evenodd" d="M347.11 60.3799H327.23V58.3599C327.81 58.3099 328.53 58.2199 329.38 58.0999C330.24 57.9799 330.82 57.8599 331.14 57.7099C331.78 57.4499 332.23 57.0999 332.51 56.6499C332.78 56.1999 332.92 55.6399 332.92 54.9499V27.5399L320.31 59.7699H317.05C316.9 59.1999 316.51 58.0799 315.89 56.3899C315.29 54.6999 314.8 53.3499 314.42 52.3299L305.14 27.1199V49.4299C305.14 51.5699 305.28 53.1999 305.55 54.3099C305.85 55.4199 306.31 56.2299 306.95 56.7499C307.38 57.1099 308.14 57.4599 309.25 57.7799C310.37 58.1099 311.15 58.2999 311.59 58.3499V60.3699H295.82V58.3499C296.26 58.2999 296.95 58.1899 297.92 58.0199C298.9 57.8299 299.7 57.5099 300.32 57.0599C301.01 56.5699 301.48 55.7699 301.72 54.6299C301.96 53.4699 302.08 51.8399 302.08 49.7199V31.5499C302.08 30.4399 301.94 29.5299 301.67 28.8099C301.39 28.0699 300.98 27.4799 300.43 27.0499C299.74 26.5199 299.04 26.1699 298.31 26.0199C297.59 25.8699 296.86 25.7599 296.11 25.7099V23.6899H312.99L322.04 47.9199L329.66 28.2499C329.92 27.5299 330.17 26.6699 330.4 25.6699C330.65 24.6699 330.78 24.0099 330.8 23.6999H347.05V25.7199C346.5 25.7599 345.92 25.8199 345.32 25.9299C344.72 26.0399 344.14 26.1699 343.59 26.3399C342.92 26.5599 342.48 26.9199 342.25 27.3999C342.05 27.8899 341.94 28.4199 341.94 28.9999V54.9799C341.94 55.5999 342.04 56.1299 342.25 56.5599C342.48 56.9699 342.92 57.3399 343.59 57.6499C343.94 57.7999 344.5 57.9499 345.27 58.0899C346.06 58.2299 346.68 58.3199 347.11 58.3699V60.3899V60.3799Z" fill="#231F20"/>
<path fill-rule="evenodd" clip-rule="evenodd" d="M364.28 61.37C362.03 61.37 359.94 61.09 358 60.54C356.07 59.99 354.43 59.34 353.08 58.57L351.3 60.38H349.1L348.76 47.12H350.99C351.49 48.38 352.12 49.7 352.9 51.1C353.67 52.49 354.57 53.74 355.59 54.85C356.64 56 357.81 56.94 359.1 57.67C360.41 58.39 361.93 58.76 363.68 58.76C366.02 58.76 367.81 58.19 369.06 57.05C370.32 55.9 370.95 54.45 370.95 52.71C370.95 51.28 370.41 50.09 369.34 49.12C368.29 48.14 366.66 47.29 364.43 46.58C362.98 46.12 361.65 45.69 360.42 45.29C359.21 44.89 358.08 44.49 357 44.07C354.54 43.09 352.71 41.68 351.5 39.85C350.31 38.02 349.72 35.98 349.72 33.73C349.72 32.3 350.03 30.93 350.65 29.61C351.27 28.29 352.17 27.1 353.36 26.04C354.5 25.06 355.96 24.26 357.73 23.64C359.51 23.02 361.44 22.71 363.53 22.71C365.56 22.71 367.47 22.99 369.24 23.56C371.02 24.11 372.41 24.67 373.42 25.24L375 23.68H377.25L377.45 36.19H375.23C374.72 34.85 374.1 33.48 373.4 32.08C372.71 30.66 371.98 29.5 371.2 28.56C370.35 27.56 369.38 26.77 368.28 26.18C367.18 25.58 365.88 25.28 364.41 25.27C362.55 25.27 361.02 25.8 359.83 26.85C358.65 27.9 358.07 29.2 358.07 30.75C358.07 32.22 358.58 33.42 359.59 34.35C360.63 35.28 362.23 36.1 364.4 36.8C365.67 37.24 366.97 37.67 368.3 38.1C369.62 38.53 370.81 38.95 371.85 39.34C374.34 40.31 376.24 41.64 377.53 43.35C378.85 45.04 379.5 47.14 379.5 49.66C379.5 51.24 379.13 52.78 378.39 54.26C377.65 55.74 376.65 56.97 375.39 57.95C374.01 59.04 372.42 59.87 370.61 60.46C368.8 61.05 366.69 61.34 364.28 61.34" fill="#231F20"/>
<path fill-rule="evenodd" clip-rule="evenodd" d="M30.7803 41.6999C27.2803 40.2699 24.7903 38.3399 25.3503 33.4299C26.1003 26.8399 36.4603 19.2899 39.7803 15.5399C42.1203 12.8999 42.6703 6.42993 42.6703 6.42993C42.6703 6.42993 46.1303 13.6199 42.1003 19.6199C40.4703 22.0399 32.1803 30.1099 30.4603 35.1199C29.8003 37.0399 29.4603 39.5199 30.7903 41.6899" fill="#EC1C24"/>
<path fill-rule="evenodd" clip-rule="evenodd" d="M24.8806 35.5C21.4006 34.01 18.6206 31.59 19.2706 26.69C20.1406 20.11 30.6306 12.74 34.0106 9.05999C36.4006 6.45999 37.0406 0.109985 37.0406 0.109985C37.0406 0.109985 40.3806 7.35999 36.2506 13.29C34.5806 15.68 26.1406 23.6 24.3406 28.58C23.6506 30.48 23.2006 32.96 24.8906 35.51" fill="#EC1C24"/>
<path fill-rule="evenodd" clip-rule="evenodd" d="M47.7506 36.33C51.2506 37.76 53.7506 39.7 53.1806 44.6C52.4306 51.19 42.0706 58.74 38.7506 62.49C36.4106 65.13 35.8706 71.59 35.8706 71.59C35.8706 71.59 32.4006 64.4 36.4406 58.41C38.0606 55.99 46.3606 47.92 48.0806 42.91C48.7406 40.99 49.0706 38.5 47.7506 36.33Z" fill="#EC1C24"/>
<path fill-rule="evenodd" clip-rule="evenodd" d="M53.6503 42.54C57.1303 44.03 59.9102 46.45 59.2602 51.35C58.3902 57.93 47.9003 65.29 44.5203 68.97C42.1303 71.57 41.4902 77.93 41.4902 77.93C41.4902 77.93 38.1503 70.68 42.2803 64.76C43.9503 62.37 52.3902 54.43 54.2002 49.46C54.8902 47.55 55.3303 45.08 53.6503 42.54Z" fill="#EC1C24"/>
<path fill-rule="evenodd" clip-rule="evenodd" d="M41.9492 47.5C40.5192 51 38.5792 53.5 33.6792 52.93C27.0892 52.18 19.5392 41.82 15.8092 38.5C13.1692 36.15 6.69922 35.62 6.69922 35.62C6.69922 35.62 13.8892 32.15 19.8892 36.18C22.3092 37.81 30.3792 46.11 35.3892 47.83C37.2992 48.49 39.7892 48.82 41.9592 47.5" fill="#023F88"/>
<path fill-rule="evenodd" clip-rule="evenodd" d="M35.7396 53.4C34.2496 56.89 31.8296 59.67 26.9296 59.02C20.3596 58.15 12.9896 47.66 9.30963 44.28C6.70963 41.88 0.349609 41.24 0.349609 41.24C0.349609 41.24 7.59965 37.9 13.5197 42.03C15.9097 43.7 23.8396 52.14 28.8096 53.95C30.7096 54.64 33.1896 55.09 35.7296 53.4" fill="#023F88"/>
<path fill-rule="evenodd" clip-rule="evenodd" d="M36.5898 30.53C38.0198 27.02 39.9498 24.53 44.8598 25.09C51.4498 25.85 58.9998 36.2 62.7398 39.52C65.3798 41.86 71.8498 42.41 71.8498 42.41C71.8498 42.41 64.6598 45.87 58.6698 41.84C56.2498 40.21 48.1798 31.91 43.1698 30.19C41.2498 29.54 38.7598 29.2 36.5998 30.52" fill="#023F88"/>
<path fill-rule="evenodd" clip-rule="evenodd" d="M42.7892 24.63C44.2792 21.15 46.6993 18.37 51.5893 19.02C58.1693 19.89 65.5293 30.38 69.2093 33.76C71.8093 36.15 78.1693 36.79 78.1693 36.79C78.1693 36.79 70.9193 40.13 64.9893 35.99C62.5993 34.32 54.6793 25.88 49.6993 24.08C47.7993 23.39 45.3193 22.94 42.7793 24.63" fill="#023F88"/>
<path fill-rule="evenodd" clip-rule="evenodd" d="M95.6795 82.5H100.49V82.9C99.9595 82.9 99.5995 82.95 99.3995 83.06C99.2195 83.17 99.0895 83.34 99.0295 83.59C98.9695 83.83 98.9395 84.44 98.9395 85.4V86.58C98.8095 86.56 98.6895 86.55 98.5895 86.55C98.1695 86.55 97.6095 86.67 96.9295 86.94C95.9995 87.29 95.1395 87.46 94.3395 87.46C92.7395 87.46 91.4095 86.94 90.3495 85.89C89.2895 84.84 88.7695 83.5 88.7695 81.89C88.7695 80.28 89.2695 78.89 90.2795 77.69C91.2895 76.49 92.6595 75.9 94.3995 75.9C95.8895 75.9 97.1195 76.44 98.0995 77.54C98.2895 77.16 98.3995 76.74 98.4495 76.3H98.8495V80.03H98.4495C98.2895 78.88 97.8495 77.98 97.1395 77.31C96.4295 76.64 95.5695 76.3 94.5595 76.3C93.5495 76.3 92.5995 76.69 91.8195 77.47C91.0395 78.25 90.6495 79.63 90.6495 81.62C90.6495 83.61 91.0295 85.01 91.7795 85.83C92.5395 86.65 93.4695 87.06 94.5795 87.06C95.1495 87.06 95.6695 86.95 96.1395 86.71C96.6095 86.47 96.9295 86.19 97.0995 85.85C97.2695 85.52 97.3595 85.1 97.3595 84.58C97.3595 83.98 97.3195 83.58 97.2295 83.39C97.1495 83.19 97.0295 83.05 96.8595 82.98C96.6995 82.91 96.3995 82.88 95.9595 82.88H95.6895V82.48L95.6795 82.5Z" fill="#231F20"/>
<path fill-rule="evenodd" clip-rule="evenodd" d="M112.369 83.79H112.759L112.529 87.27H103.289V86.89H103.519C104.069 86.89 104.429 86.81 104.589 86.67C104.749 86.52 104.849 86.34 104.899 86.11C104.939 85.87 104.959 85.3 104.959 84.36V78.89C104.959 78.04 104.939 77.48 104.889 77.21C104.839 76.94 104.739 76.75 104.569 76.65C104.399 76.54 104.049 76.49 103.519 76.49V76.1H111.489L111.749 78.89H111.359C111.189 78.11 110.969 77.56 110.709 77.23C110.459 76.9 110.159 76.7 109.799 76.61C109.449 76.52 108.879 76.48 108.109 76.48H106.559V81.16H107.749C108.289 81.16 108.669 81.11 108.879 81.02C109.099 80.92 109.239 80.79 109.309 80.6C109.379 80.41 109.409 80.03 109.409 79.48H109.799V83.31H109.409C109.409 82.69 109.359 82.28 109.259 82.07C109.159 81.86 108.999 81.72 108.799 81.66C108.599 81.59 108.259 81.56 107.789 81.56H106.559V84.2C106.559 85.53 106.649 86.31 106.809 86.54C106.979 86.78 107.439 86.89 108.189 86.89H109.019C109.609 86.89 110.089 86.81 110.469 86.67C110.849 86.52 111.209 86.21 111.549 85.74C111.899 85.27 112.169 84.62 112.369 83.79Z" fill="#231F20"/>
<path fill-rule="evenodd" clip-rule="evenodd" d="M125.51 87.53L117.62 77.06V84.81C117.62 85.45 117.65 85.88 117.71 86.08C117.77 86.28 117.96 86.47 118.25 86.64C118.55 86.81 118.99 86.89 119.59 86.89V87.27H115.43V86.89C115.96 86.85 116.37 86.76 116.65 86.6C116.93 86.44 117.09 86.27 117.15 86.09C117.2 85.91 117.23 85.48 117.23 84.81V78.89C117.23 78.03 117.19 77.46 117.11 77.17C117.03 76.88 116.91 76.69 116.73 76.61C116.56 76.53 116.17 76.49 115.58 76.49V76.1H118.87L125.48 84.84V78.17C125.48 77.67 125.43 77.32 125.32 77.13C125.22 76.93 125.02 76.77 124.7 76.66C124.39 76.54 124.01 76.49 123.57 76.49V76.1H127.62V76.48C127.15 76.52 126.78 76.61 126.5 76.75C126.23 76.89 126.06 77.06 125.99 77.26C125.92 77.46 125.88 77.8 125.88 78.28V87.52H125.52L125.51 87.53Z" fill="#231F20"/>
<path fill-rule="evenodd" clip-rule="evenodd" d="M139.25 83.79H139.65L139.42 87.27H130.17V86.89H130.4C130.95 86.89 131.31 86.81 131.47 86.67C131.63 86.52 131.74 86.34 131.78 86.11C131.82 85.87 131.85 85.3 131.85 84.36V78.89C131.85 78.04 131.82 77.48 131.78 77.21C131.74 76.94 131.63 76.75 131.46 76.65C131.3 76.54 130.94 76.49 130.41 76.49V76.1H138.39L138.65 78.89H138.26C138.09 78.11 137.87 77.56 137.61 77.23C137.36 76.9 137.06 76.7 136.71 76.61C136.36 76.52 135.8 76.48 135.01 76.48H133.46V81.16H134.65C135.19 81.16 135.57 81.11 135.78 81.02C136 80.92 136.14 80.79 136.21 80.6C136.28 80.41 136.31 80.03 136.31 79.48H136.7V83.31H136.31C136.31 82.69 136.26 82.28 136.16 82.07C136.06 81.86 135.9 81.72 135.7 81.66C135.5 81.59 135.16 81.56 134.69 81.56H133.46V84.2C133.46 85.53 133.54 86.31 133.71 86.54C133.88 86.78 134.34 86.89 135.09 86.89H135.92C136.51 86.89 136.99 86.81 137.37 86.67C137.75 86.52 138.11 86.21 138.45 85.74C138.8 85.27 139.07 84.62 139.26 83.79" fill="#231F20"/>
<path fill-rule="evenodd" clip-rule="evenodd" d="M145.839 81.51C146.249 81.51 146.679 81.48 147.109 81.46C147.549 81.44 147.929 81.38 148.259 81.28C148.579 81.18 148.849 81.04 149.039 80.85C149.239 80.66 149.399 80.41 149.519 80.1C149.629 79.8 149.689 79.42 149.689 78.97C149.689 78.19 149.489 77.56 149.099 77.08C148.709 76.61 147.859 76.37 146.539 76.37C146.339 76.37 146.109 76.38 145.839 76.4V81.51ZM154.269 87.27H151.269C150.729 86.9 149.919 85.92 148.829 84.34C148.479 83.83 148.119 83.35 147.739 82.89C147.359 82.42 147.099 82.14 146.949 82.04C146.809 81.93 146.589 81.89 146.289 81.89H145.839V84.36C145.839 85.24 145.859 85.81 145.899 86.09C145.939 86.36 146.049 86.56 146.229 86.69C146.409 86.82 146.749 86.89 147.259 86.89H147.789V87.27H142.449V86.89H142.819C143.299 86.89 143.619 86.83 143.809 86.71C143.999 86.59 144.109 86.4 144.169 86.15C144.219 85.89 144.239 85.3 144.239 84.36V78.89C144.239 78 144.219 77.43 144.169 77.17C144.109 76.91 144.009 76.73 143.839 76.63C143.669 76.53 143.309 76.49 142.739 76.49H142.559V76.1L144.149 76.02C145.209 75.97 146.059 75.95 146.689 75.95C147.759 75.95 148.619 76.04 149.289 76.24C149.949 76.44 150.499 76.76 150.909 77.21C151.319 77.66 151.529 78.2 151.529 78.83C151.529 79.56 151.259 80.18 150.719 80.69C150.179 81.21 149.389 81.53 148.349 81.65C148.819 81.87 149.569 82.69 150.609 84.09C151.449 85.23 152.119 85.97 152.599 86.32C153.089 86.67 153.659 86.86 154.309 86.88V87.26L154.269 87.27Z" fill="#231F20"/>
<path fill-rule="evenodd" clip-rule="evenodd" d="M163.3 82.78L161.32 78.02L159.36 82.78H163.3ZM163.45 83.15H159.2L158.91 83.86C158.48 84.89 158.27 85.56 158.27 85.87C158.27 86.2 158.38 86.46 158.61 86.64C158.84 86.81 159.13 86.89 159.49 86.89V87.27H156.17V86.89C156.67 86.81 157.03 86.64 157.27 86.37C157.51 86.09 157.8 85.52 158.14 84.64C158.17 84.56 158.3 84.24 158.53 83.69L161.78 75.95H162.1L165.83 84.81L166.34 85.98C166.46 86.24 166.61 86.45 166.8 86.61C167 86.76 167.29 86.85 167.68 86.89V87.27H163.29V86.89C163.83 86.89 164.19 86.85 164.38 86.78C164.57 86.7 164.67 86.53 164.67 86.3C164.67 86.18 164.54 85.81 164.29 85.22L163.44 83.16L163.45 83.15Z" fill="#231F20"/>
<path fill-rule="evenodd" clip-rule="evenodd" d="M179.47 83.98L179.38 87.27H169.9V86.89H170.23C170.71 86.89 171.04 86.83 171.22 86.71C171.41 86.59 171.52 86.4 171.57 86.15C171.63 85.89 171.65 85.3 171.65 84.36V78.89C171.65 78 171.62 77.43 171.57 77.17C171.52 76.91 171.42 76.73 171.24 76.63C171.08 76.53 170.71 76.48 170.15 76.48H169.9V76.09H175.26V76.47H174.77C174.22 76.47 173.86 76.52 173.69 76.61C173.52 76.7 173.41 76.86 173.35 77.12C173.29 77.36 173.27 77.95 173.27 78.88V84.73C173.27 85.54 173.29 86.04 173.33 86.24C173.38 86.44 173.49 86.6 173.69 86.72C173.89 86.83 174.31 86.88 174.94 86.88H175.79C176.47 86.88 176.98 86.82 177.31 86.7C177.65 86.58 177.96 86.31 178.26 85.91C178.56 85.5 178.83 84.86 179.08 83.97H179.47V83.98Z" fill="#231F20"/>
<path fill-rule="evenodd" clip-rule="evenodd" d="M187.969 76.49V76.11H193.069V76.49H192.829C192.289 76.49 191.919 76.54 191.749 76.63C191.579 76.72 191.469 76.88 191.409 77.14C191.359 77.38 191.329 77.97 191.329 78.9V84.37C191.329 85.25 191.349 85.82 191.379 86.1C191.419 86.37 191.539 86.57 191.709 86.7C191.889 86.83 192.229 86.9 192.739 86.9H193.069V87.28H187.969V86.9H188.299C188.779 86.9 189.109 86.84 189.289 86.72C189.479 86.6 189.589 86.41 189.649 86.16C189.699 85.9 189.719 85.31 189.719 84.37V78.9C189.719 78.01 189.689 77.44 189.649 77.18C189.599 76.92 189.489 76.74 189.319 76.64C189.149 76.54 188.769 76.5 188.219 76.5H187.979L187.969 76.49Z" fill="#231F20"/>
<path fill-rule="evenodd" clip-rule="evenodd" d="M205.731 87.53L197.831 77.06V84.81C197.831 85.45 197.861 85.88 197.921 86.08C197.991 86.28 198.171 86.47 198.461 86.64C198.761 86.81 199.201 86.89 199.801 86.89V87.27H195.641V86.89C196.171 86.85 196.581 86.76 196.861 86.6C197.141 86.44 197.311 86.27 197.351 86.09C197.411 85.91 197.441 85.48 197.441 84.81V78.89C197.441 78.03 197.401 77.46 197.321 77.17C197.241 76.88 197.121 76.69 196.941 76.61C196.771 76.53 196.391 76.49 195.801 76.49V76.1H199.091L205.701 84.84V78.17C205.701 77.67 205.641 77.32 205.551 77.13C205.451 76.93 205.241 76.77 204.931 76.66C204.611 76.54 204.241 76.49 203.801 76.49V76.1H207.851V76.48C207.381 76.52 207.001 76.61 206.731 76.75C206.461 76.89 206.281 77.06 206.211 77.26C206.141 77.46 206.101 77.8 206.101 78.28V87.52H205.751L205.731 87.53Z" fill="#231F20"/>
<path fill-rule="evenodd" clip-rule="evenodd" d="M210.82 87.15V83.56H211.23C211.69 85.9 212.8 87.07 214.54 87.07C215.33 87.07 215.93 86.84 216.36 86.4C216.79 85.95 217.01 85.45 217.01 84.89C217.01 84.33 216.82 83.86 216.45 83.49C216.07 83.12 215.38 82.71 214.37 82.29C213.48 81.9 212.8 81.57 212.35 81.28C211.89 80.99 211.53 80.61 211.27 80.15C211.02 79.69 210.89 79.2 210.89 78.68C210.89 77.88 211.17 77.22 211.71 76.7C212.26 76.16 212.97 75.91 213.81 75.91C214.29 75.91 214.73 75.98 215.14 76.13C215.57 76.28 215.99 76.6 216.43 77.09C216.68 76.79 216.82 76.46 216.85 76.11H217.21V79.04H216.85C216.65 78.19 216.28 77.52 215.74 77.03C215.22 76.54 214.6 76.3 213.91 76.3C213.24 76.3 212.75 76.48 212.44 76.85C212.14 77.21 211.98 77.6 211.98 78.03C211.98 78.54 212.17 78.98 212.56 79.33C212.95 79.7 213.64 80.1 214.65 80.55C215.61 80.98 216.31 81.32 216.74 81.59C217.18 81.85 217.53 82.21 217.79 82.67C218.06 83.13 218.19 83.66 218.19 84.26C218.19 85.21 217.87 85.99 217.24 86.59C216.6 87.19 215.75 87.49 214.69 87.49C213.47 87.49 212.44 87.02 211.63 86.08C211.45 86.34 211.32 86.7 211.23 87.17H210.82V87.15Z" fill="#231F20"/>
<path fill-rule="evenodd" clip-rule="evenodd" d="M229.73 76.1H233.46V76.48C232.97 76.51 232.59 76.63 232.35 76.82C232.11 77 231.96 77.21 231.9 77.45C231.84 77.68 231.82 78.15 231.82 78.83V82.54C231.82 83.49 231.78 84.19 231.7 84.65C231.63 85.11 231.42 85.57 231.06 86.01C230.71 86.45 230.21 86.81 229.57 87.07C228.93 87.33 228.19 87.46 227.35 87.46C226.36 87.46 225.52 87.3 224.83 86.96C224.14 86.62 223.65 86.19 223.36 85.65C223.07 85.11 222.93 84.39 222.93 83.49V82.34V78.87C222.93 77.98 222.9 77.41 222.85 77.15C222.8 76.89 222.69 76.71 222.52 76.61C222.36 76.51 221.99 76.47 221.43 76.47H221.18V76.08H226.27V76.46H226.05C225.5 76.46 225.14 76.51 224.97 76.6C224.8 76.69 224.68 76.85 224.62 77.11C224.56 77.35 224.55 77.94 224.55 78.87V82.38C224.55 83.6 224.6 84.47 224.71 84.98C224.83 85.49 225.14 85.94 225.66 86.32C226.18 86.7 226.88 86.89 227.75 86.89C228.42 86.89 229.04 86.76 229.6 86.51C230.16 86.25 230.58 85.93 230.84 85.56C231.11 85.18 231.28 84.78 231.34 84.38C231.4 83.98 231.43 83.34 231.43 82.47V78.67C231.43 78.04 231.4 77.59 231.32 77.34C231.25 77.09 231.1 76.89 230.86 76.74C230.63 76.59 230.25 76.5 229.74 76.47V76.08L229.73 76.1Z" fill="#231F20"/>
<path fill-rule="evenodd" clip-rule="evenodd" d="M239.499 81.51C239.909 81.51 240.339 81.48 240.779 81.46C241.219 81.44 241.599 81.38 241.919 81.28C242.239 81.18 242.499 81.04 242.699 80.85C242.899 80.66 243.059 80.41 243.169 80.1C243.289 79.8 243.339 79.42 243.339 78.97C243.339 78.19 243.139 77.56 242.749 77.08C242.359 76.61 241.509 76.37 240.189 76.37C239.989 76.37 239.749 76.38 239.489 76.4V81.51H239.499ZM247.929 87.27H244.929C244.399 86.9 243.579 85.92 242.489 84.34C242.139 83.83 241.769 83.35 241.389 82.89C241.009 82.42 240.749 82.14 240.609 82.04C240.459 81.93 240.239 81.89 239.939 81.89H239.499V84.36C239.499 85.24 239.519 85.81 239.559 86.09C239.599 86.36 239.709 86.56 239.889 86.69C240.059 86.82 240.409 86.89 240.919 86.89H241.449V87.27H236.119V86.89H236.479C236.959 86.89 237.289 86.83 237.469 86.71C237.659 86.59 237.769 86.4 237.819 86.15C237.869 85.89 237.889 85.3 237.889 84.36V78.89C237.889 78 237.869 77.43 237.819 77.17C237.769 76.91 237.659 76.73 237.489 76.63C237.319 76.53 236.949 76.49 236.379 76.49H236.189V76.1L237.789 76.02C238.859 75.97 239.699 75.95 240.319 75.95C241.389 75.95 242.259 76.04 242.919 76.24C243.589 76.44 244.129 76.76 244.539 77.21C244.949 77.66 245.149 78.2 245.149 78.83C245.149 79.56 244.879 80.18 244.349 80.69C243.809 81.21 243.019 81.53 241.979 81.65C242.439 81.87 243.199 82.69 244.229 84.09C245.079 85.23 245.739 85.97 246.219 86.32C246.699 86.67 247.269 86.86 247.929 86.88V87.26V87.27Z" fill="#231F20"/>
<path fill-rule="evenodd" clip-rule="evenodd" d="M256.951 82.78L254.981 78.02L253.011 82.78H256.951ZM257.091 83.15H252.851L252.561 83.86C252.131 84.89 251.921 85.56 251.921 85.87C251.921 86.2 252.031 86.46 252.251 86.64C252.491 86.81 252.781 86.89 253.131 86.89V87.27H249.811V86.89C250.311 86.81 250.681 86.64 250.921 86.37C251.161 86.09 251.451 85.52 251.791 84.64C251.821 84.56 251.951 84.24 252.191 83.69L255.431 75.95H255.741L259.471 84.81L259.981 85.98C260.101 86.24 260.251 86.45 260.441 86.61C260.641 86.76 260.931 86.85 261.321 86.89V87.27H256.931V86.89C257.471 86.89 257.831 86.85 258.021 86.78C258.211 86.7 258.301 86.53 258.301 86.3C258.301 86.18 258.181 85.81 257.921 85.22L257.071 83.16L257.091 83.15Z" fill="#231F20"/>
<path fill-rule="evenodd" clip-rule="evenodd" d="M273.469 87.53L265.569 77.06V84.81C265.569 85.45 265.599 85.88 265.659 86.08C265.719 86.28 265.899 86.47 266.209 86.64C266.509 86.81 266.949 86.89 267.539 86.89V87.27H263.379V86.89C263.909 86.85 264.319 86.76 264.599 86.6C264.879 86.44 265.049 86.27 265.099 86.09C265.149 85.91 265.179 85.48 265.179 84.81V78.89C265.179 78.03 265.139 77.46 265.059 77.17C264.989 76.88 264.859 76.69 264.679 76.61C264.509 76.53 264.119 76.49 263.529 76.49V76.1H266.819L273.429 84.84V78.17C273.429 77.67 273.369 77.32 273.269 77.13C273.169 76.93 272.959 76.77 272.649 76.66C272.339 76.54 271.959 76.49 271.519 76.49V76.1H275.569V76.48C275.099 76.52 274.719 76.61 274.449 76.75C274.179 76.89 274.009 77.06 273.929 77.26C273.849 77.46 273.819 77.8 273.819 78.28V87.52H273.469V87.53Z" fill="#231F20"/>
<path fill-rule="evenodd" clip-rule="evenodd" d="M288.239 83.08H288.589V86.99H288.239C288.129 86.54 287.959 86.15 287.689 85.81C286.709 86.92 285.459 87.47 283.929 87.47C282.319 87.47 280.999 86.96 279.969 85.94C278.959 84.92 278.439 83.57 278.439 81.89C278.439 80.78 278.679 79.75 279.149 78.78C279.619 77.8 280.279 77.08 281.129 76.61C281.969 76.14 282.899 75.91 283.909 75.91C284.749 75.91 285.499 76.08 286.169 76.43C286.849 76.77 287.359 77.15 287.689 77.57C287.929 77.1 288.069 76.62 288.119 76.11H288.479L288.579 80.34H288.229C287.979 78.84 287.469 77.79 286.709 77.2C285.959 76.62 285.099 76.33 284.149 76.32C282.979 76.32 282.049 76.8 281.359 77.75C280.669 78.7 280.329 80.05 280.329 81.82C280.329 83.49 280.709 84.78 281.459 85.67C282.219 86.56 283.149 87 284.269 87C284.869 87 285.479 86.86 286.109 86.57C286.729 86.28 287.219 85.79 287.589 85.1C287.959 84.4 288.179 83.73 288.249 83.08" fill="#231F20"/>
<path fill-rule="evenodd" clip-rule="evenodd" d="M301.17 83.79H301.57L301.33 87.27H292.09V86.89H292.32C292.88 86.89 293.23 86.81 293.4 86.67C293.56 86.52 293.67 86.34 293.71 86.11C293.75 85.87 293.78 85.3 293.78 84.36V78.89C293.78 78.04 293.75 77.48 293.71 77.21C293.67 76.94 293.55 76.75 293.39 76.65C293.22 76.54 292.87 76.49 292.33 76.49V76.1H300.31L300.58 78.89H300.19C300.01 78.11 299.8 77.56 299.54 77.23C299.29 76.9 298.98 76.7 298.63 76.61C298.28 76.52 297.72 76.48 296.94 76.48H295.39V81.16H296.58C297.12 81.16 297.5 81.11 297.71 81.02C297.93 80.92 298.07 80.79 298.14 80.6C298.21 80.41 298.25 80.03 298.25 79.48H298.63V83.31H298.25C298.25 82.69 298.2 82.28 298.09 82.07C297.99 81.86 297.83 81.72 297.63 81.66C297.43 81.59 297.09 81.56 296.62 81.56H295.39V84.2C295.39 85.53 295.47 86.31 295.64 86.54C295.81 86.78 296.27 86.89 297.01 86.89H297.84C298.43 86.89 298.92 86.81 299.29 86.67C299.67 86.52 300.03 86.21 300.37 85.74C300.72 85.27 300.99 84.62 301.18 83.79" fill="#231F20"/>
</svg>
