<svg width="189" height="94" viewBox="0 0 189 94" fill="none" xmlns="http://www.w3.org/2000/svg">
<path d="M46.8907 5.86998V73.27H35.0407V70.19C31.5607 72.92 27.2506 74.36 22.8306 74.27C10.6006 74.23 0.730704 64.28 0.770704 52.05C0.770704 51.72 0.770733 51.39 0.800733 51.06C0.100733 38.87 9.40065 28.42 21.5907 27.72C22.0007 27.7 22.4106 27.68 22.8306 27.68C27.1606 27.6 31.3907 28.97 34.8507 31.57V5.85999H46.9007L46.8907 5.86998ZM35.2106 51.06C35.5206 44.94 30.8106 39.72 24.6906 39.41C24.4206 39.4 24.1407 39.39 23.8607 39.4C17.7507 39.39 12.7907 44.33 12.7807 50.43C12.7807 50.64 12.7807 50.86 12.8007 51.07C12.5307 57.14 17.2307 62.27 23.3007 62.54C23.4907 62.54 23.6707 62.55 23.8607 62.55C29.9707 62.71 35.0506 57.89 35.2106 51.79C35.2106 51.55 35.2106 51.31 35.2106 51.07M58.9606 28.68H70.9907V73.27H58.9606V28.68ZM124.531 28.68V71.96C124.701 83.42 115.551 92.85 104.091 93.03C103.561 93.03 103.031 93.03 102.501 92.99C93.1707 93.43 84.6907 87.59 81.7807 78.72L92.8407 74.58C94.0207 78.86 98.0507 81.72 102.471 81.41C107.611 81.79 112.071 77.93 112.451 72.8C112.481 72.42 112.481 72.03 112.461 71.65V68.01C109.221 70.58 105.181 71.93 101.051 71.82C89.3907 71.82 79.9406 62.37 79.9406 50.71C79.9406 50.42 79.9407 50.14 79.9606 49.86C79.4306 38.17 88.4807 28.27 100.171 27.74C100.421 27.73 100.681 27.72 100.931 27.72C105.181 27.64 109.321 29.09 112.601 31.8V28.71H124.521V28.67L124.531 28.68ZM112.831 49.9C112.991 44.16 108.461 39.38 102.721 39.23C96.9807 39.07 92.2007 43.6 92.0507 49.34C92.0507 49.53 92.0507 49.71 92.0507 49.9C92.2007 55.64 96.9807 60.17 102.721 60.01C108.241 59.86 112.691 55.42 112.831 49.9ZM136.561 28.69H148.591V73.28H136.561V28.69ZM174.181 28.69H188.251V40.1H174.171V56.62C173.971 59.32 176.001 61.68 178.701 61.88C178.941 61.9 179.191 61.9 179.431 61.88H188.251V73.29H176.911C169.301 73.78 162.731 68.02 162.241 60.41C162.211 59.89 162.201 59.37 162.231 58.85V40.08H155.861V33.9L167.521 19.46H174.181V28.68V28.69ZM64.9406 5.96999H124.521V15.38H64.9406V5.96999Z" fill="black"/>
<path d="M148.59 10.64L139.5 0.609985H136.561V20.75H139.47L148.59 10.65V10.64Z" fill="#FFBB00"/>
</svg>
