<svg width="244" height="77" viewBox="0 0 244 77" fill="none" xmlns="http://www.w3.org/2000/svg">
<path d="M7.55927 76.38H5.73926V63.21H2.0293V61.6H11.2892V63.21H7.55927V76.38Z" fill="#C5221A"/>
<path d="M14.5584 68.9901C14.5584 72.4101 14.8884 75.1801 17.4184 75.1801C19.9484 75.1801 20.2784 72.4101 20.2784 68.9901C20.2784 65.5701 19.9384 62.8001 17.4184 62.8001C14.8984 62.8001 14.5584 65.5801 14.5584 68.9901ZM22.1784 68.9901C22.1784 72.7201 21.4884 76.6801 17.4084 76.6801C13.3284 76.6801 12.6484 72.7201 12.6484 68.9901C12.6484 65.2601 13.3284 61.3101 17.4084 61.3101C21.4884 61.3101 22.1784 65.2601 22.1784 68.9901Z" fill="#C5221A"/>
<path d="M29.0691 76.38H27.2491V63.21H23.5391V61.6H32.7991V63.21H29.0691V76.38Z" fill="#C5221A"/>
<path d="M35.2394 70.83H39.2094L37.3293 63.68H37.2894L35.2394 70.83ZM36.1294 61.59H38.5693L42.5394 76.37H40.6294L39.5793 72.31H34.8594L33.7594 76.37H31.8594L36.1294 61.59Z" fill="#C5221A"/>
<path d="M43.7891 61.6H45.609V74.77H51.619V76.38H43.7891V61.6Z" fill="#C5221A"/>
<path d="M60.1794 61.6H58.3594V76.38H60.1794V61.6Z" fill="#C5221A"/>
<path d="M62.7891 61.6H65.149L70.0391 73.94H70.079V61.6H71.9091V76.38H69.389L64.6591 64.41H64.609V76.38H62.7891V61.6Z" fill="#C5221A"/>
<path d="M80.7795 65.4301C80.7795 63.8801 80.2195 62.8001 78.4795 62.8001C76.9495 62.8001 76.0396 63.6301 76.0396 65.2001C76.0396 69.3601 83.0095 66.8801 83.0095 72.2801C83.0095 75.7001 80.5096 76.6701 78.4196 76.6701C74.9596 76.6701 73.9395 74.8901 73.9395 71.7401H75.7595C75.7595 73.4001 75.8696 75.1801 78.5396 75.1801C79.9896 75.1801 81.1095 74.1401 81.1095 72.5701C81.1095 68.3901 74.1295 70.8101 74.1295 65.3901C74.1295 64.0201 74.7095 61.3101 78.4595 61.3101C81.2695 61.3101 82.5595 62.7201 82.5995 65.4301H80.7795Z" fill="#C5221A"/>
<path d="M84.8984 61.6H86.7284V71.99C86.7284 74.17 87.4284 75.18 89.2384 75.18C91.1784 75.18 91.7584 74.06 91.7584 71.99V61.6H93.5784V71.99C93.5784 74.83 92.1284 76.67 89.2384 76.67C86.3484 76.67 84.8984 75.03 84.8984 71.99V61.6Z" fill="#C5221A"/>
<path d="M97.8397 68.31H99.6398C100.72 68.31 102.68 68.31 102.68 65.45C102.68 64 101.71 63.09 100.01 63.09H97.8297V68.31M96.0098 61.6H100.8C103.12 61.6 104.59 62.97 104.59 65.31C104.59 66.92 104.03 68.63 102.31 69.04V69.08C103.59 69.22 104.32 70.28 104.4 71.54L104.52 74.07C104.6 75.71 104.88 76.12 105.31 76.39H103.12C102.81 76.08 102.66 74.98 102.62 74.26L102.5 71.96C102.35 69.93 101.23 69.81 100.3 69.81H97.8297V76.39H96.0098V61.61V61.6Z" fill="#C5221A"/>
<path d="M108.979 70.83H112.959L111.079 63.68H111.039L108.989 70.83H108.979ZM109.869 61.59H112.309L116.289 76.37H114.389L113.329 72.31H108.609L107.509 76.37H105.609L109.879 61.59H109.869Z" fill="#C5221A"/>
<path d="M117.529 61.6H119.889L124.769 73.94H124.809V61.6H126.639V76.38H124.129L119.389 64.41H119.349V76.38H117.529V61.6Z" fill="#C5221A"/>
<path d="M138.289 71.3101C138.119 74.1001 137.029 76.6701 133.799 76.6701C129.599 76.6701 129.039 72.7101 129.039 68.9901C129.039 65.2701 129.719 61.3101 133.799 61.3101C136.819 61.3101 138.079 63.0101 138.169 65.9101H136.269C136.229 64.2301 135.689 62.8001 133.809 62.8001C131.279 62.8001 130.949 65.5801 130.949 68.9901C130.949 72.4001 131.279 75.1801 133.809 75.1801C136.029 75.1801 136.329 73.1101 136.399 71.3101H138.299" fill="#C5221A"/>
<path d="M140.189 61.6H147.829V63.21H142.02V67.85H147.5V69.46H142.02V74.77H148.079V76.38H140.189V61.6Z" fill="#C5221A"/>
<path d="M161.43 65.4301C161.43 63.8801 160.87 62.8001 159.13 62.8001C157.59 62.8001 156.69 63.6301 156.69 65.2001C156.69 69.3601 163.67 66.8801 163.67 72.2801C163.67 75.7001 161.16 76.6701 159.07 76.6701C155.61 76.6701 154.6 74.8901 154.6 71.7401H156.42C156.42 73.4001 156.53 75.1801 159.2 75.1801C160.65 75.1801 161.77 74.1401 161.77 72.5701C161.77 68.3901 154.79 70.8101 154.79 65.3901C154.79 64.0201 155.37 61.3101 159.12 61.3101C161.93 61.3101 163.22 62.7201 163.26 65.4301H161.44" fill="#C5221A"/>
<path d="M167.41 68.9901C167.41 72.4101 167.74 75.1801 170.27 75.1801C172.8 75.1801 173.12 72.4101 173.12 68.9901C173.12 65.5701 172.79 62.8001 170.27 62.8001C167.75 62.8001 167.41 65.5801 167.41 68.9901ZM175.03 68.9901C175.03 72.7201 174.35 76.6801 170.27 76.6801C166.19 76.6801 165.5 72.7201 165.5 68.9901C165.5 65.2601 166.18 61.3101 170.27 61.3101C174.36 61.3101 175.03 65.2601 175.03 68.9901Z" fill="#C5221A"/>
<path d="M177.43 61.6H179.26V74.77H185.26V76.38H177.43V61.6Z" fill="#C5221A"/>
<path d="M186.67 61.6H188.49V71.99C188.49 74.17 189.2 75.18 191 75.18C192.95 75.18 193.53 74.06 193.53 71.99V61.6H195.35V71.99C195.35 74.83 193.9 76.67 191 76.67C188.1 76.67 186.67 75.03 186.67 71.99V61.6Z" fill="#C5221A"/>
<path d="M202.28 76.38H200.45V63.21H196.75V61.6H206V63.21H202.28V76.38Z" fill="#C5221A"/>
<path d="M209.398 61.6H207.578V76.38H209.398V61.6Z" fill="#C5221A"/>
<path d="M213.289 68.9901C213.289 72.4101 213.619 75.1801 216.149 75.1801C218.679 75.1801 219.009 72.4101 219.009 68.9901C219.009 65.5701 218.669 62.8001 216.149 62.8001C213.629 62.8001 213.289 65.5801 213.289 68.9901ZM220.909 68.9901C220.909 72.7201 220.229 76.6801 216.149 76.6801C212.069 76.6801 211.389 72.7201 211.389 68.9901C211.389 65.2601 212.069 61.3101 216.149 61.3101C220.229 61.3101 220.909 65.2601 220.909 68.9901Z" fill="#C5221A"/>
<path d="M222.889 61.6H225.249L230.139 73.94H230.179V61.6H232.009V76.38H229.499L224.759 64.41H224.719V76.38H222.889V61.6Z" fill="#C5221A"/>
<path d="M240.879 65.4301C240.879 63.8801 240.319 62.8001 238.589 62.8001C237.049 62.8001 236.149 63.6301 236.149 65.2001C236.149 69.3601 243.119 66.8801 243.119 72.2801C243.119 75.7001 240.619 76.6701 238.529 76.6701C235.069 76.6701 234.049 74.8901 234.049 71.7401H235.869C235.869 73.4001 235.979 75.1801 238.649 75.1801C240.099 75.1801 241.209 74.1401 241.209 72.5701C241.209 68.3901 234.229 70.8101 234.229 65.3901C234.229 64.0201 234.809 61.3101 238.559 61.3101C241.369 61.3101 242.659 62.7201 242.699 65.4301H240.879Z" fill="#C5221A"/>
<path d="M128.579 41.54L128.599 31.79C134.709 31.79 136.949 31.49 138.009 38.98H138.649V30.64H122.009V31.79H124.889V53.24H121.719V54.37H138.859V45.6H137.999C137.139 52.23 135.459 53.24 130.749 53.24H128.559V42.82H129.829C131.949 42.87 133.149 44.1 133.579 47.74H134.359V36.96H133.589C133.589 37.02 133.439 41.59 129.739 41.53H128.559" fill="#C5221A"/>
<path d="M121.779 41.96H112.389V43.03H115.599V50.74C115.059 52.7 112.179 53.52 111.309 53.52C105.309 53.52 105.739 44.75 105.739 42.4C105.739 40.25 105.529 31.28 111.309 31.28C115.379 31.28 117.529 35.33 118.389 38.98H119.039C119.039 37.48 119.059 30.33 119.039 30.35C119.039 30.29 116.239 32.37 116.229 32.33C116.289 32.32 114.939 30.41 111.299 30.41C104.219 30.41 101.619 37.48 101.649 42.4C101.679 46.91 103.759 54.59 111.299 54.59C113.669 54.59 115.339 53.39 116.229 52.02C116.239 51.99 119.209 54.37 119.229 54.38V43.04H121.759V41.97" fill="#C5221A"/>
<path d="M203.799 45.81L207.229 35.55L210.869 45.81H203.799ZM190.509 41.72H186.659V31.78H191.589C194.479 32.22 194.599 35.56 194.599 36.62C194.599 39.19 193.519 41.72 190.509 41.72ZM231.479 45.61C230.619 52.24 228.939 53.23 224.229 53.23H223.939V31.78H226.939V30.62H217.079V31.78H220.079V53.23H217.699L208.939 29.98H207.649C207.649 29.98 200.369 51.07 200.359 51.13C200.369 51.07 199.809 52.94 198.609 53.17C197.499 53.22 197.579 52.64 197.579 52.44V48.38C197.579 47.31 197.499 44.89 196.389 43.78C195.139 42.53 193.029 42.44 193.069 42.39C193.069 42.39 198.459 41.28 198.459 36.16C198.459 32.57 195.969 30.78 191.789 30.63H179.949V31.79H182.979V53.23H179.949V54.37H189.659V53.23H186.629V42.92H190.669C197.679 43.5 189.469 54.39 198.649 54.37H204.439V53.23C204.119 53.23 201.989 53.29 201.859 51.81C201.769 50.75 203.259 46.91 203.259 46.91H211.139C211.139 46.91 213.589 53.23 213.609 53.23H210.859V54.37H232.329V45.6H231.469L231.479 45.61Z" fill="#C5221A"/>
<path d="M168.279 31.77C174.389 31.77 176.649 31.48 177.709 38.97H178.359V30.63H154.099V31.77H154.729C155.589 31.77 157.619 31.83 157.739 33.62V47.3L146.389 30.63H140.209V31.77H141.229C142.449 31.77 144.149 31.82 144.229 33.62V51.15C144.229 52.86 141.669 53.51 140.599 53.51H140.589V54.36H148.949V53.51C147.879 53.51 145.299 52.86 145.299 51.15L145.329 35.72C149.829 42.14 158.299 54.38 158.379 54.36H158.799V33.62C158.929 31.83 160.949 31.77 161.809 31.77H164.599V53.24H161.429V54.37H178.579V45.6H177.719C176.869 52.23 175.179 53.24 170.469 53.24H168.289V42.82H169.549C171.669 42.87 172.869 44.1 173.299 47.74H174.079V36.96H173.309C173.309 37.02 173.159 41.59 169.459 41.53H168.289V31.77" fill="#C5221A"/>
<path d="M243.12 31.78V30.62H233.439V31.78H236.479L236.49 53.22H233.439V54.37H243.12V53.22H240.079V31.78H243.12Z" fill="#C5221A"/>
<path d="M101.76 26.59V25.44H104.97V3.96999H102.04V2.98999H118.62V11.19H117.99C117.71 9.33999 117.36 7.90999 116.91 6.89999C116.49 5.95999 115.93 5.25999 115.19 4.83999C114.46 4.37999 113.56 4.13999 112.51 4.09999C111.98 4.05999 111.39 4.05999 110.73 4.02999C110.06 4.02999 109.37 3.99999 108.64 3.99999V13.81C108.64 13.81 108.74 13.78 108.99 13.78C109.13 13.81 109.27 13.81 109.37 13.81H109.76C110.42 13.81 110.95 13.71 111.33 13.46C111.75 13.29 112.1 13.01 112.41 12.66C112.52 12.49 112.65 12.31 112.76 12.14C112.86 11.96 112.97 11.75 113.07 11.55C113.14 11.38 113.24 11.2 113.28 10.99C113.31 10.82 113.35 10.64 113.42 10.47C113.46 10.29 113.49 10.15 113.49 10.02C113.53 9.87999 113.53 9.73999 113.57 9.63999C113.57 9.49999 113.6 9.42999 113.6 9.38999V9.24999H114.37V20.01H113.53C113.46 19.55 113.42 19.14 113.32 18.75C113.25 18.4 113.15 18.05 113.08 17.71C112.83 17.04 112.59 16.56 112.31 16.21C111.99 15.79 111.61 15.51 111.23 15.37C110.85 15.19 110.4 15.12 109.83 15.12H108.65V25.45H111.82V26.6H101.77" fill="#C5221A"/>
<path d="M159.709 11.71C159.669 11.43 159.669 11.08 159.609 10.67C159.569 10.42 159.569 10.21 159.539 9.96999C159.509 9.72999 159.509 9.47999 159.469 9.22999C159.399 8.73999 159.299 8.21999 159.149 7.65999C159.009 7.12999 158.839 6.64999 158.559 6.15999C158.349 5.77999 158.069 5.41999 157.719 5.10999C157.549 4.96999 157.439 4.86999 157.299 4.72999C157.159 4.61999 156.989 4.48999 156.879 4.41999C156.739 4.30999 156.569 4.23999 156.389 4.13999C156.219 4.06999 155.929 3.96999 155.759 3.96999H153.529C153.559 5.99999 153.559 7.87999 153.559 9.65999V25.47H156.559V26.59H146.679V25.47H149.679V3.96999C149.679 3.96999 147.339 3.92999 146.709 4.06999C146.539 4.13999 146.389 4.20999 146.079 4.38999C145.939 4.45999 145.799 4.55999 145.619 4.66999C145.479 4.76999 145.309 4.87999 145.129 5.00999C144.819 5.28999 144.539 5.67999 144.289 6.08999C144.159 6.32999 144.049 6.57999 143.949 6.82999C143.849 7.06999 143.769 7.34999 143.699 7.58999C143.559 8.14999 143.459 8.66999 143.389 9.15999C143.359 9.39999 143.309 9.64999 143.309 9.88999C143.279 10.1 143.249 10.59 143.249 10.59L143.209 11.15V11.57H142.469V2.98999H160.339L160.379 11.71H159.679" fill="#C5221A"/>
<path d="M197.489 12.24C197.659 12 197.839 11.72 197.939 11.47C198.009 11.19 198.109 10.91 198.179 10.6C198.319 10 198.389 9.34001 198.389 8.71001C198.389 8.57001 198.389 8.40001 198.359 8.19001C198.359 8.02001 198.319 7.77001 198.319 7.53001C198.249 6.97001 198.149 6.48001 197.969 6.00001C197.799 5.47001 197.549 5.09001 197.129 4.64001C196.989 4.47001 196.679 4.26001 196.469 4.19001C196.299 4.08001 196.019 3.98001 195.389 3.98001H190.429V13.86H194.299C195.099 13.86 195.729 13.72 196.219 13.44C196.749 13.19 197.159 12.81 197.479 12.25M203.499 26.32C203.249 26.42 202.979 26.49 202.699 26.53C202.349 26.61 201.999 26.67 201.649 26.67C200.709 26.67 199.969 26.5 199.519 26.22C199.029 25.87 198.649 25.49 198.439 24.96C198.229 24.4 198.099 23.81 198.059 23.18C198.059 22.86 198.029 22.51 198.029 22.17V21.16C198.059 20.43 198.059 19.73 198.029 19.07C198.029 18.41 197.919 17.78 197.719 17.22C197.549 16.7 197.199 16.24 196.739 15.82C196.289 15.47 195.629 15.26 194.749 15.16H190.629V25.49H193.769L193.799 26.61H183.959V25.49H187.139V4.20001H183.959V3.01001H195.859C196.419 3.01001 196.909 3.01001 197.359 3.05001C197.819 3.12001 198.279 3.19001 198.689 3.33001C199.489 3.54001 200.189 3.85001 200.739 4.31001C201.299 4.69001 201.719 5.25001 202.029 5.95001C202.339 6.69001 202.479 7.52001 202.479 8.50001C202.479 9.79001 202.199 10.84 201.609 11.61C201.049 12.41 200.419 13.08 199.759 13.53C198.959 14.09 198.089 14.47 197.149 14.72H197.179C197.249 14.76 197.319 14.76 197.429 14.79C197.569 14.79 197.669 14.83 197.809 14.87C197.949 14.87 198.129 14.9 198.269 14.97C198.619 15.04 198.969 15.18 199.349 15.39C199.729 15.53 200.119 15.77 200.429 16.09C200.669 16.37 200.919 16.72 201.089 17.13C201.229 17.51 201.369 17.93 201.439 18.39C201.479 18.64 201.509 18.85 201.509 19.05C201.539 19.26 201.539 19.47 201.579 19.67C201.579 19.85 201.609 20.02 201.609 20.23V24.94C201.609 25.01 201.649 25.08 201.679 25.19C201.749 25.26 201.849 25.33 201.989 25.4C202.059 25.44 202.269 25.47 202.619 25.47L203.419 25.19L204.149 25.92C204.009 26.1 203.769 26.24 203.489 26.34" fill="#C5221A"/>
<path d="M222.16 26.59H205.02V25.47H208.199V3.96999H205.3V2.98999H221.91V11.19H221.24C221.1 10.25 220.96 9.40999 220.79 8.70999C220.58 8.00999 220.409 7.37999 220.199 6.89999C219.779 5.95999 219.179 5.25999 218.449 4.80999C217.719 4.35999 216.809 4.13999 215.729 4.10999C215.199 4.06999 214.61 4.06999 213.99 4.03999C213.32 4.03999 212.619 4.00999 211.859 4.00999V13.78H213.05C213.64 13.78 214.13 13.67 214.62 13.46C215.07 13.22 215.43 12.94 215.67 12.66C215.81 12.45 215.91 12.27 216.05 12.1C216.16 11.93 216.259 11.75 216.329 11.54C216.399 11.33 216.47 11.16 216.54 10.98C216.61 10.81 216.64 10.6 216.68 10.43C216.75 10.25 216.79 10.04 216.79 9.86999C216.82 9.68999 216.849 9.44999 216.849 9.20999H217.62V20H216.79C216.75 19.54 216.679 19.13 216.609 18.74C216.539 18.39 216.439 18.01 216.329 17.7C216.119 17.03 215.849 16.51 215.599 16.16C215.279 15.78 214.94 15.5 214.55 15.32C214.09 15.14 213.64 15.07 213.16 15.07H211.87V25.47H214.03C215.25 25.47 216.26 25.4 217.03 25.23C217.87 25.06 218.569 24.71 219.089 24.18C219.649 23.62 220.099 22.82 220.449 21.85C220.629 21.32 220.8 20.77 220.91 20.1C221.05 19.44 221.15 18.67 221.26 17.86H222.17V26.59" fill="#C5221A"/>
<path d="M134.329 4.17999V2.98999H141.249V4.17999H138.339V17.1C138.339 19.73 138.199 21.44 137.949 22.28C137.109 25.26 134.869 26.72 131.269 26.72C129.449 26.72 127.799 26.37 126.399 25.67C124.759 24.86 123.699 23.61 123.289 21.96C123.039 21.12 122.969 19.51 122.969 17.1V4.13999H120.039V2.98999H129.629V4.13999H126.689V17.1C126.689 19.55 126.729 21.16 126.829 21.86C126.939 22.6 127.209 23.26 127.669 23.93C128.579 25.25 130.059 25.58 132.079 25.58C134.389 25.58 135.679 24.71 136.459 23.09C136.769 22.42 136.939 21.72 137.049 21.02C137.119 20.32 137.159 19.03 137.159 17.1V4.17999H134.349" fill="#C5221A"/>
<path d="M175.91 4.17999V2.98999H182.82V4.17999H179.91V17.1C179.91 19.73 179.77 21.44 179.53 22.28C178.69 25.26 176.45 26.72 172.85 26.72C171.03 26.72 169.38 26.37 167.98 25.67C166.33 24.86 165.28 23.61 164.86 21.96C164.62 21.12 164.54 19.51 164.54 17.1V4.13999H161.6V2.98999H171.19V4.13999H168.25V17.1C168.25 19.55 168.29 21.16 168.39 21.86C168.5 22.6 168.78 23.26 169.24 23.93C170.15 25.25 171.62 25.58 173.65 25.58C175.96 25.58 177.25 24.71 178.02 23.09C178.34 22.42 178.51 21.72 178.62 21.02C178.69 20.32 178.72 19.03 178.72 17.1V4.17999H175.91Z" fill="#C5221A"/>
<path d="M71.2491 47.81C71.4391 47.32 71.8091 47.02 72.3191 46.92L77.4691 45.77L76.9991 41.17V41.07C76.8591 40.47 76.4791 38.64 74.0791 38.44C64.8691 37.7 62.7291 36.33 60.4891 34.88C60.4891 34.88 60.4891 34.87 60.4891 34.86H60.4691L60.3191 34.77C57.9291 33.22 55.5591 33.21 55.3191 33.22C52.7091 33.22 49.4092 34.25 49.1392 34.34C48.3392 34.57 47.5992 34.81 46.8792 35.04C43.9892 35.97 41.4991 36.77 37.3191 36.65L36.5492 36.63L36.3491 37.37C36.1991 37.94 35.0292 42.57 36.1592 45.54C35.1492 46.34 35.1492 47.26 35.1592 47.39C35.1992 48.4 34.9592 48.65 34.8792 48.73C34.3992 49.24 32.7891 49.3 31.4391 49.3H30.9292L30.6392 49.69C29.8092 50.84 28.0091 51.11 26.8491 50.81C26.3491 49.27 26.3292 48.09 26.8292 47.39C27.4092 46.56 28.6292 46.47 29.1292 46.47H29.4191C30.6491 46.47 31.6392 45.47 31.6392 44.24V35.96C32.0092 35.38 32.3091 34.72 32.5691 33.97C34.5891 33.65 36.1392 31.93 36.1392 29.87C36.1392 29.08 35.9091 28.31 35.4891 27.66C37.3591 26.76 38.9591 24.92 38.9591 22.51C38.9591 20.1 37.7391 19 36.5891 18.27C36.9191 17.34 37.4591 15.72 37.8191 14.08L39.4391 8.29C40.1591 6.02 42.0492 4.55 44.2592 4.55H72.7491C71.5391 6.24 69.8291 7.05 67.4491 7.05H50.2091L49.3092 8.98H64.7592C63.5492 10.91 61.7691 11.82 59.2491 11.82H48.0492L47.1492 13.75H57.1392C55.9292 15.61 54.1691 16.48 51.6991 16.48H45.5891L44.6891 18.41H51.0891C51.1491 18.49 51.3092 18.77 51.3092 19.56C51.3092 20.8 50.2591 21.81 48.9891 21.81C48.5491 21.81 48.1792 21.71 47.5092 21.44C47.2292 21.32 46.9492 21.2 46.6692 21.08L45.1792 22.41C45.4592 22.53 45.7392 22.65 46.0092 22.77C47.2992 23.33 48.0091 23.62 48.9891 23.62C50.1691 23.62 51.2291 23.13 51.9891 22.35C53.0791 22.42 54.8491 22.57 56.5691 22.71C58.6191 22.88 60.5492 23.03 61.5492 23.09C62.0492 23.12 62.5191 23.14 62.9591 23.16C63.8191 23.2 64.5891 23.24 65.3691 23.3C69.2591 29.61 71.2492 30.45 78.7792 31.35C79.3192 32.32 79.8092 33.34 80.2792 34.38V46.75C80.3192 47.32 80.3191 47.51 80.2391 47.61C79.9791 47.95 78.8192 48.44 78.4192 48.6L72.0691 50.99C71.2291 49.85 70.9192 48.66 71.2592 47.8M69.8892 51.14H57.3391L62.7191 45.46C63.8091 44.34 64.1591 42.99 63.6991 41.66C63.4391 40.9 62.7291 39.43 61.9891 37.93C64.1291 38.92 67.3691 39.81 73.9491 40.35C74.7291 40.41 74.9491 40.68 75.1091 41.4L75.3992 44.24L71.9591 45.01C70.8091 45.23 69.8991 46 69.4791 47.09C68.9991 48.3 69.1692 49.73 69.9092 51.13M47.2692 51.13C46.9192 49.77 47.0591 48.67 47.6891 47.96C48.2791 47.28 49.1991 47.07 49.8391 47.17L53.5092 47.85L53.5991 47.87H54.1091L56.6991 45.07L56.7291 45.05C57.1691 44.54 58.5192 42.97 57.1392 40.98L53.6692 35.27C54.2392 35.19 54.8191 35.14 55.3591 35.14H55.3792C55.3792 35.14 57.1291 35.11 58.9991 36.2C59.2591 36.74 59.5991 37.45 59.9891 38.24C60.7191 39.72 61.6192 41.55 61.8792 42.29C61.9592 42.52 62.2091 43.23 61.3391 44.13L54.6991 51.14H47.2792L47.2692 51.13ZM46.2291 46.7C45.5291 47.5 44.8492 48.9 45.2892 51.13H33.4691C34.7491 51.01 35.6692 50.71 36.2992 50.05C37.0792 49.24 37.1491 48.14 37.1191 47.36C37.1491 47.29 37.2791 47.03 37.8491 46.77L38.8691 46.3L38.2592 45.36C37.2492 43.81 37.6891 40.42 38.0791 38.58H38.1592C42.1792 38.58 44.7591 37.75 47.4991 36.87C48.2091 36.64 48.9491 36.4 49.7191 36.18H49.7491C49.7491 36.18 50.5592 35.92 51.6492 35.66L55.4991 42.01L55.5292 42.07C55.9092 42.61 55.9592 42.98 55.2592 43.79L53.3291 45.87L50.1592 45.28H50.1292C48.6992 45.06 47.1691 45.62 46.2091 46.71M25.2491 46.29C24.4291 47.47 24.3291 49.1 24.9391 51.14H22.9391V35.55C23.6491 35.44 24.4292 35.24 25.1392 34.91C25.0992 35.59 25.0091 36.12 24.8792 36.84C24.8491 37.01 24.8192 37.18 24.7792 37.37L24.5892 38.49H25.7291C27.4291 38.49 28.7091 38.22 29.6891 37.72V44.23C29.6891 44.39 29.5592 44.53 29.3992 44.53H29.1091C27.4191 44.53 25.9991 45.16 25.2291 46.28M20.9991 49.45L11.8992 47.08L2.79913 49.45V33.17L11.8992 30.81L20.9991 33.17V49.45ZM3.96912 51.14L11.8992 49.07L19.8292 51.14H3.96912ZM7.13916 27.18C7.51916 26.6 8.38913 26.1 9.47913 26.29L10.2991 26.43L10.5591 25.64C10.6291 25.43 10.7191 25.27 10.8491 25.15C11.0691 24.93 11.4291 24.83 11.8591 24.84C13.0191 24.88 14.4691 25.69 15.6591 26.95C16.0891 27.41 16.4691 27.95 16.8091 28.49C16.8791 28.61 16.9492 28.73 17.0192 28.83C17.1092 28.98 17.1892 29.1 17.2092 29.14C17.2492 29.21 17.8391 30.09 17.7991 30.15C18.1991 29.59 18.5991 29.03 18.9991 28.47C19.0091 28.46 18.9992 28.4 18.9592 28.33C18.8692 28.13 18.6592 27.8 18.5292 27.61C18.4992 27.56 18.4691 27.51 18.4391 27.46H18.4291C18.4291 27.46 18.3691 27.35 18.2991 27.24C18.1691 27.03 17.9792 26.73 17.8892 26.57L20.3992 22.54C21.0292 22.67 21.5592 22.7 21.8192 22.7H21.8792C25.4291 22.7 29.0991 20.65 29.0991 17.22V17.13C29.0591 16.2 28.8891 15.31 28.7391 14.59C28.6491 14.11 28.5591 13.67 28.5591 13.45C28.5591 13.08 29.0892 12.66 29.8392 12.66H30.9891L30.4691 9.68C32.0791 8.49 33.0792 6.55 33.0292 4.71C34.7692 6.05 35.9991 8.36 36.2191 10.82C36.2891 11.53 36.1392 12.54 35.9092 13.59L35.7892 14.03H35.8092C35.3992 15.75 34.7891 17.51 34.4691 18.35L34.1692 19.13L34.8992 19.54C36.1892 20.27 36.9791 20.81 36.9791 22.51C36.9791 24.47 35.2192 25.97 33.5192 26.28L31.1991 26.72L33.1692 28.03C33.7992 28.45 34.1792 29.14 34.1792 29.87C34.1792 31.1 33.1391 32.1 31.8491 32.1H31.0991L30.8892 32.78C30.1692 35.13 29.3891 36.28 26.8591 36.53C26.9691 35.81 27.0491 35.13 27.0491 34.15C27.0491 33.92 27.0392 33.28 27.0192 33.07L26.8992 30.88L25.3591 32.45C24.8391 32.98 23.9092 33.4 22.8892 33.6V31.69L11.8591 28.83L7.92914 29.85C7.05914 28.98 6.87912 27.53 7.09912 27.19M19.0092 20.11C19.0392 19.98 19.1392 19.87 19.2692 19.87L20.9291 19.93C22.9491 19.85 25.0191 19.03 25.2491 16.91C25.2491 15.48 24.2391 14.09 22.8091 14.09C22.0391 14.09 21.1791 14.62 20.2191 15.26C19.5891 15.68 19.0892 16.01 18.7092 16.01C18.4592 16.01 18.2592 15.84 18.2592 15.7C18.2592 15.68 18.2592 15.65 18.2692 15.63L19.3292 14.2L18.4091 13.59C18.2091 13.46 17.9092 13.22 17.8792 13.04C17.8591 12.96 17.9892 12.8 18.0292 12.76C18.4092 12.31 18.8392 11.77 19.2792 11.11C19.5592 10.73 19.7091 10.52 20.1591 10.52C20.6091 10.52 20.9691 10.88 20.9691 11.32C20.9691 11.61 21.2891 11.84 21.6891 11.84C22.0891 11.84 22.2692 11.56 22.5192 11.32C22.5192 11.32 23.4691 10.45 22.9691 10.04C22.3991 9.57 20.1091 10.53 20.7491 8.42L20.9091 8.12C21.1491 7.8 22.2492 6.98 24.5092 6.98C24.9392 6.98 25.3991 7.01 25.8591 7.07L26.1992 7.11L31.0092 4.15C31.0492 4.25 31.0592 4.32 31.0592 4.32V4.35C31.3192 5.81 30.3991 7.54 28.9291 8.38L28.3491 8.72L28.7291 10.89C27.4891 11.27 26.6392 12.26 26.6392 13.45C26.6392 13.86 26.7291 14.34 26.8491 14.96C26.9791 15.64 27.1391 16.42 27.1691 17.2C27.1691 19.46 24.0591 20.95 21.4291 20.86H21.3591C21.2491 20.86 19.5691 20.72 19.1591 20.4C19.0791 20.34 19.0192 20.21 19.0292 20.11M23.0092 5.05C23.3192 4.66 23.8092 4.24 24.3992 3.84C24.8692 3.54 25.4591 3.26 26.0591 3.1C26.9891 2.83 28.0491 2.81 29.1691 3.02L25.7592 5.12C25.3292 5.08 24.9092 5.06 24.5092 5.06C23.9292 5.06 23.3991 5.1 22.9091 5.18C22.9491 5.14 22.9792 5.09 23.0092 5.05ZM74.9591 4.56H87.8092C86.6092 6.26 84.8892 7.06 82.5192 7.06H73.0292C73.7792 6.4 74.4291 5.57 74.9591 4.56ZM74.3092 11.83H64.8291C65.6691 11.09 66.3692 10.14 66.9192 8.99H79.8191C78.6091 10.92 76.8392 11.83 74.3092 11.83ZM66.7592 16.49H57.2792C58.0892 15.78 58.7692 14.86 59.3092 13.76H72.2091C70.9991 15.62 69.2392 16.49 66.7592 16.49ZM68.9391 23.73C71.9491 24.22 74.4092 25.58 76.2592 27.75C76.6492 28.21 77.0292 28.71 77.4092 29.24C72.3592 28.57 70.5892 27.84 67.7692 23.54C68.1392 23.59 68.5391 23.65 68.9391 23.72M89.1191 44.53C89.3091 44.82 89.4691 45.11 89.6191 45.38C89.8091 45.71 89.9891 46.04 90.2091 46.38C88.7491 46.29 87.6391 45.48 86.6091 43.94C87.5591 43.61 88.6991 43.84 89.1191 44.53ZM77.0991 51.13L79.0691 50.39H79.0991C81.8991 49.22 82.2992 48.49 82.1692 46.64V39.11C84.2992 44.52 86.3091 48.32 90.4391 48.32C90.9991 48.32 91.5991 48.25 92.2391 48.1L93.8591 47.74L92.7491 46.52C92.0391 45.74 91.7092 45.14 91.3092 44.44C91.1492 44.15 90.9792 43.85 90.7792 43.52C89.8092 41.95 87.5192 41.42 85.6592 42.25C84.8092 40.57 83.9591 38.39 82.9391 35.69L82.7191 35.18C82.5491 34.77 82.3691 34.37 82.1891 33.96V33.89H82.1592C81.5292 32.47 80.8492 31.04 80.0492 29.7C79.3092 28.48 78.5592 27.43 77.7592 26.49C75.6092 23.96 72.7592 22.39 69.2892 21.81C66.8892 21.41 65.1892 21.33 63.0392 21.22C62.5992 21.2 62.1292 21.17 61.6392 21.15C60.6692 21.1 58.6491 20.93 56.7091 20.77C55.3991 20.66 54.0491 20.55 52.9891 20.48C53.0591 20.18 53.0991 19.87 53.0991 19.55C53.0991 19.12 53.0691 18.74 52.9891 18.4H66.7892C70.3492 18.4 72.9191 16.82 74.4491 13.73C77.9891 13.7 80.5392 12.09 82.0492 8.96H82.5392C86.2192 8.96 88.8491 7.28 90.3691 3.96L90.9891 2.6H44.2291C41.1591 2.6 38.5392 4.6 37.5592 7.71L37.5292 7.82C36.7292 5.6 35.2792 3.72 33.4192 2.61C30.8292 1.07 27.8792 0.549998 25.5292 1.23C24.7492 1.45 23.9791 1.8 23.3491 2.22C22.8091 2.58 22.0592 3.15 21.5092 3.85C20.9092 4.62 20.3291 5.54 19.9091 6.41C19.6391 6.63 19.4291 6.86 19.2891 7.08L18.7291 8.13L18.6992 8.2C18.0292 9.71 17.2192 10.76 16.5792 11.5C15.9492 12.23 15.9091 12.93 15.9991 13.39C16.0891 13.88 16.3592 14.29 16.6492 14.6L16.6292 14.63C16.4392 14.95 16.3491 15.32 16.3491 15.69C16.3491 16.92 17.4191 17.86 18.7391 17.86C19.6991 17.86 20.4892 17.41 21.3192 16.86C21.6492 16.64 22.5492 16.05 22.8392 16.01C23.2092 16.01 23.5391 16.34 23.5391 16.72C23.5391 17.73 22.2391 18.28 21.3091 18.34L19.4091 18.54C18.0391 18.67 17.3992 19.39 17.3992 20.04C17.3992 20.69 17.7091 21.06 17.9291 21.27L18.0591 21.41L18.5491 21.84L16.5292 25.08C15.0892 23.75 13.4191 22.95 11.9291 22.9C10.9691 22.87 10.1392 23.16 9.51917 23.74C9.33916 23.91 9.18914 24.1 9.05914 24.31H9.02917C7.42917 24.31 6.13916 25.16 5.51917 26.12C4.83916 27.17 5.08916 28.98 5.94916 30.36L0.869141 31.68V55.98H94.0991V51.13H77.1292H77.0991Z" fill="#C5221A"/>
<path d="M4.77924 35.77L4.79919 34.86H4.84918C4.97918 34.82 5.07922 34.83 5.13922 34.88C5.19922 34.93 5.22919 35.04 5.22919 35.19C5.22919 35.35 5.1892 35.47 5.1192 35.56C5.0592 35.65 4.95923 35.72 4.83923 35.75C4.82923 35.75 4.80918 35.75 4.78918 35.76M5.06921 36.83V36.73H5.04919C4.95919 36.76 4.88919 36.77 4.85919 36.76C4.82919 36.76 4.80919 36.74 4.79919 36.72C4.78919 36.71 4.77918 36.66 4.78918 36.51V35.92C5.03918 35.85 5.19919 35.8 5.29919 35.75C5.45919 35.67 5.56919 35.57 5.66919 35.44C5.75919 35.32 5.8092 35.18 5.8092 35.03C5.8092 34.86 5.74919 34.73 5.60919 34.65C5.46919 34.57 5.24921 34.57 4.93921 34.65L4.00922 34.89H3.99921V34.99H4.01923C4.10923 34.97 4.17923 34.96 4.20923 34.97C4.23923 34.97 4.24923 34.99 4.26923 35.01C4.26923 35.02 4.27924 35.07 4.27924 35.22L4.24921 36.63C4.24921 36.77 4.24919 36.83 4.22919 36.85C4.20919 36.88 4.18918 36.91 4.15918 36.94C4.11918 36.96 4.05923 36.99 3.95923 37.01H3.94922V37.12L5.04919 36.83H5.06921Z" fill="#C5221A"/>
<path d="M6.27008 35.75L6.58008 34.99L6.85004 35.6L6.27008 35.75ZM5.60004 36.6H5.59009V36.7L6.34009 36.51V36.41H6.32007C6.20007 36.44 6.13006 36.44 6.12006 36.43C6.08006 36.42 6.06006 36.39 6.06006 36.33C6.06006 36.29 6.07004 36.23 6.10004 36.15L6.19006 35.93L6.91003 35.74L7.01007 35.96C7.05007 36.04 7.05006 36.06 7.06006 36.06C7.06006 36.08 7.06006 36.1 7.06006 36.11C7.06006 36.14 7.06009 36.16 7.03009 36.18C7.00009 36.21 6.94005 36.24 6.86005 36.26H6.80005V36.37L7.85004 36.1H7.87006V36H7.85004C7.79004 36.01 7.74008 36.01 7.71008 35.99C7.69008 35.97 7.63004 35.91 7.54004 35.73L6.80005 34.14H6.79004H6.74005L5.94006 36.08C5.87006 36.26 5.80007 36.39 5.76007 36.45C5.72007 36.51 5.65008 36.56 5.58008 36.59" fill="#C5221A"/>
<path d="M8.86951 35.75H8.84949C8.78949 35.77 8.73948 35.78 8.71948 35.78C8.67948 35.78 8.64951 35.78 8.61951 35.75C8.59951 35.73 8.59949 35.71 8.59949 35.69C8.59949 35.66 8.61951 35.59 8.74951 35.41L9.05951 34.94L9.34949 35.31C9.40949 35.38 9.43952 35.43 9.44952 35.46C9.44952 35.47 9.44952 35.48 9.44952 35.5C9.44952 35.53 9.44949 35.55 9.41949 35.57C9.40949 35.58 9.36953 35.61 9.26953 35.64H9.24951V35.75L10.3095 35.47H10.3295V35.37H10.3095C10.2595 35.38 10.2095 35.37 10.1795 35.36C10.1495 35.34 10.0995 35.3 9.97949 35.15L9.41949 34.42L9.81952 33.83C9.92952 33.67 9.99954 33.58 10.0295 33.54C10.0795 33.49 10.1095 33.45 10.1495 33.43C10.1795 33.41 10.2295 33.39 10.2895 33.37H10.3095V33.27L9.4895 33.48V33.58H9.50952C9.56952 33.56 9.61953 33.56 9.63953 33.56C9.66953 33.56 9.68952 33.57 9.69952 33.59C9.70952 33.61 9.71948 33.63 9.71948 33.66C9.71948 33.69 9.68949 33.78 9.53949 34L9.32953 34.31L9.08954 33.99L8.9895 33.86C8.9895 33.86 8.9895 33.83 8.9895 33.81C8.9895 33.78 8.99953 33.76 9.01953 33.74C9.03953 33.72 9.07952 33.7 9.12952 33.68L9.19952 33.66V33.56L8.11951 33.84H8.1095V33.94H8.12952C8.12952 33.94 8.2095 33.94 8.2395 33.94C8.2595 33.95 8.27951 33.97 8.30951 33.99C8.30951 34 8.33952 34.03 8.44952 34.18L8.96948 34.84L8.53949 35.46C8.40949 35.65 8.30951 35.78 8.24951 35.84C8.19951 35.89 8.12954 35.93 8.02954 35.97H8.01953V36.07L8.87952 35.85V35.75" fill="#C5221A"/>
<path d="M5.33948 37.9999C5.43948 37.9799 5.49943 37.9699 5.53943 37.9699C5.59943 37.9899 5.64945 38.0199 5.68945 38.0599C5.72945 38.1099 5.75943 38.1899 5.78943 38.3199V38.3399L5.88947 38.3199V37.6899L3.95947 38.1899H3.93945V38.8199L4.03943 38.7999C4.06943 38.6199 4.11942 38.4899 4.21942 38.3799C4.28942 38.2999 4.37947 38.2499 4.51947 38.2099L4.64948 38.1799L4.61945 39.8399C4.61945 39.9699 4.60943 40.0199 4.59943 40.0399C4.58943 40.0799 4.56943 40.1099 4.53943 40.1299C4.50943 40.1599 4.45948 40.1899 4.39948 40.1999L4.31946 40.2199V40.3199L5.44946 40.0199H5.46942V39.9199L5.36945 39.9399C5.30945 39.9499 5.26944 39.9599 5.23944 39.9499C5.20944 39.9399 5.18944 39.9199 5.17944 39.8999C5.17944 39.8899 5.15942 39.8399 5.15942 39.7099L5.18945 38.0499L5.32947 38.0099" fill="#C5221A"/>
<path d="M6.95911 37.61C6.95911 37.61 6.9991 37.55 7.0191 37.53C7.0491 37.5 7.09906 37.48 7.15906 37.46L7.23907 37.44V37.34L6.09906 37.64H6.0791V37.74L6.17908 37.72C6.22908 37.7 6.27908 37.7 6.30908 37.71C6.33908 37.72 6.34908 37.74 6.36908 37.75C6.36908 37.76 6.37908 37.81 6.36908 37.95L6.34906 39.38C6.34906 39.51 6.3391 39.56 6.3291 39.58C6.3091 39.61 6.2991 39.64 6.2691 39.67C6.2391 39.7 6.18909 39.72 6.12909 39.74L6.03906 39.76V39.86L7.16907 39.57H7.18909V39.46L7.09906 39.48C7.04906 39.49 6.99911 39.49 6.95911 39.48C6.92911 39.47 6.91906 39.46 6.90906 39.44C6.90906 39.43 6.89911 39.39 6.89911 39.25L6.92908 37.82C6.92908 37.69 6.9291 37.64 6.9491 37.62" fill="#C5221A"/>
<path d="M8.69867 37.75C8.65867 37.82 8.60864 37.88 8.53864 37.93C8.46864 37.98 8.36865 38.02 8.23865 38.06L8.25867 37.25C8.40867 37.21 8.50866 37.2 8.56866 37.21C8.62866 37.22 8.67868 37.26 8.70868 37.3C8.73868 37.35 8.75866 37.42 8.74866 37.51C8.74866 37.6 8.73867 37.68 8.69867 37.76M8.23865 38.23C8.38865 38.19 8.50867 38.18 8.57867 38.19C8.65867 38.2 8.70867 38.24 8.75867 38.3C8.79867 38.36 8.81866 38.45 8.81866 38.54C8.81866 38.62 8.79867 38.71 8.75867 38.79C8.71867 38.87 8.66863 38.94 8.59863 38.99C8.52863 39.05 8.44866 39.08 8.37866 39.1C8.31866 39.12 8.29868 39.11 8.26868 39.1C8.24868 39.08 8.22864 39.04 8.22864 39L8.24866 38.23H8.23865ZM7.66864 39.25C7.66864 39.25 7.63863 39.31 7.59863 39.33C7.56863 39.36 7.49863 39.38 7.40863 39.4H7.38867V39.51L8.48865 39.22C8.79865 39.14 9.03866 39.02 9.18866 38.84C9.32866 38.7 9.39868 38.54 9.39868 38.37C9.39868 38.21 9.33863 38.09 9.21863 38.02C9.14863 37.98 9.03865 37.95 8.86865 37.95C9.01865 37.87 9.13867 37.77 9.19867 37.69C9.27867 37.59 9.31866 37.48 9.31866 37.37C9.31866 37.26 9.28864 37.17 9.22864 37.1C9.16864 37.02 9.07864 36.98 8.97864 36.96C8.87864 36.94 8.69868 36.96 8.45868 37.03L7.43866 37.29H7.41864V37.4H7.43866C7.53866 37.37 7.59866 37.36 7.62866 37.37C7.65866 37.37 7.67867 37.39 7.69867 37.41C7.69867 37.42 7.70868 37.47 7.70868 37.61L7.68866 39.02C7.68866 39.16 7.66864 39.22 7.66864 39.24" fill="#C5221A"/>
<path d="M10.4095 36.72C10.4095 36.72 10.4495 36.66 10.4695 36.64C10.5095 36.61 10.5495 36.59 10.6195 36.57L10.6995 36.55V36.45L9.55951 36.75H9.5495V36.86L9.64954 36.84C9.69954 36.83 9.74954 36.83 9.77954 36.84C9.80954 36.85 9.82954 36.86 9.83954 36.88C9.84954 36.89 9.85949 36.94 9.84949 37.08L9.81952 38.51C9.81952 38.64 9.8095 38.69 9.7995 38.71C9.7995 38.75 9.7695 38.78 9.7395 38.8C9.7095 38.83 9.65949 38.85 9.59949 38.87L9.51953 38.89V39L10.6595 38.7H10.6695V38.6L10.5695 38.63C10.5695 38.63 10.4695 38.64 10.4395 38.63C10.4095 38.63 10.3895 38.61 10.3795 38.59C10.3795 38.58 10.3695 38.54 10.3695 38.4L10.3895 36.97C10.3895 36.84 10.3995 36.79 10.4095 36.77" fill="#C5221A"/>
<path d="M7.93982 41.86L7.3598 42.01L7.6698 41.26M10.3798 40.42C10.3798 40.53 10.3598 40.63 10.3098 40.71C10.2698 40.79 10.2098 40.85 10.1498 40.89C10.0698 40.94 9.96982 40.98 9.81982 41.01L9.75983 41.03V40.12L9.92981 40.08C10.0898 40.04 10.2098 40.04 10.2798 40.1C10.3498 40.16 10.3798 40.27 10.3798 40.42ZM11.2198 41.69C11.1698 41.71 11.1198 41.69 11.0898 41.68C11.0698 41.67 11.0298 41.64 10.9598 41.54L10.4698 40.95C10.5898 40.88 10.6898 40.81 10.7598 40.73C10.8798 40.6 10.9398 40.44 10.9398 40.28C10.9398 40.15 10.9098 40.03 10.8298 39.95C10.7498 39.87 10.6498 39.83 10.5298 39.82C10.4098 39.81 10.2098 39.85 9.94983 39.91L8.95984 40.17H8.93982V40.28H8.95984C9.04984 40.25 9.11984 40.24 9.14984 40.25C9.17984 40.25 9.19984 40.27 9.20984 40.29C9.20984 40.3 9.2298 40.35 9.2298 40.49L9.20984 41.9C9.20984 42.05 9.18982 42.1 9.18982 42.12C9.17982 42.15 9.14981 42.18 9.11981 42.2C9.08981 42.23 9.02984 42.25 8.95984 42.27C8.90984 42.28 8.85983 42.27 8.82983 42.25C8.78983 42.22 8.72979 42.13 8.65979 41.98L7.9198 40.39H7.8598L7.05981 42.34C6.98981 42.52 6.92982 42.64 6.87982 42.71C6.82982 42.78 6.76983 42.82 6.69983 42.85H6.6698C6.6098 42.87 6.56979 42.87 6.53979 42.86C6.49979 42.86 6.4898 42.83 6.4798 42.82C6.4798 42.81 6.46979 42.76 6.46979 42.62L6.48981 41.18C6.48981 41.05 6.49982 41 6.49982 40.98C6.51982 40.94 6.53982 40.91 6.56982 40.89C6.59982 40.86 6.65979 40.84 6.71979 40.82L6.7998 40.8V40.7L5.90979 40.93L5.31982 42.48L4.75983 41.23L3.87982 41.46H3.8598V41.56L3.95984 41.54C3.95984 41.54 4.04983 41.53 4.07983 41.54C4.10983 41.54 4.13983 41.57 4.13983 41.58C4.13983 41.59 4.15979 41.63 4.15979 41.77L4.13983 43.15C4.13983 43.27 4.13983 43.31 4.13983 43.31C4.12983 43.36 4.10984 43.41 4.08984 43.43C4.06984 43.46 4.03982 43.49 3.99982 43.51C3.96982 43.54 3.91982 43.56 3.87982 43.57H3.83984V43.68L4.58984 43.49H4.6098V43.38H4.57983C4.48983 43.41 4.41982 43.41 4.37982 43.4C4.33982 43.38 4.3098 43.34 4.2998 43.3V43.11L4.31982 41.66L5.08984 43.34V43.36L5.15979 43.34L5.96979 41.24L5.94983 42.74C5.94983 42.87 5.93981 42.92 5.92981 42.94C5.90981 42.98 5.88981 43.01 5.86981 43.02C5.83981 43.05 5.78979 43.07 5.71979 43.09L5.63983 43.11V43.21L6.69983 42.93L7.43982 42.74H7.44983V42.64H7.42981C7.31981 42.66 7.2398 42.66 7.2298 42.66C7.1898 42.65 7.1698 42.62 7.1698 42.56C7.1698 42.52 7.18979 42.46 7.21979 42.38L7.30981 42.15L8.03979 41.96L8.13983 42.19C8.17983 42.28 8.18982 42.29 8.18982 42.3C8.18982 42.31 8.18982 42.33 8.18982 42.35C8.18982 42.37 8.17979 42.4 8.15979 42.42C8.12979 42.45 8.07982 42.47 7.99982 42.49L7.93982 42.51V42.61L8.92981 42.36L8.99982 42.34L10.0398 42.07H10.0598V41.97H10.0298C9.94985 41.99 9.90981 42 9.86981 42C9.86981 42 9.84984 42 9.83984 42C9.80984 42 9.78985 41.98 9.77985 41.96C9.77985 41.95 9.75983 41.9 9.75983 41.75V41.15L9.87982 41.12L10.5398 41.93L11.2298 41.76H11.2398V41.66H11.2198V41.69Z" fill="#C5221A"/>
<path d="M5.81006 44.2201C5.81006 44.2701 5.79008 44.32 5.77008 44.34C5.75008 44.37 5.72006 44.3901 5.69006 44.3901C5.67006 44.3901 5.61007 44.3901 5.51007 44.3801C5.34007 44.3601 5.18009 44.3601 5.03009 44.4101C4.83009 44.4601 4.63006 44.5701 4.44006 44.7101C4.26006 44.8601 4.11006 45.0501 4.00006 45.2701C3.89006 45.4801 3.83008 45.7001 3.83008 45.9101C3.83008 46.1101 3.87003 46.2901 3.97003 46.4401C4.06003 46.6001 4.20007 46.7001 4.38007 46.7401C4.46007 46.7601 4.55008 46.7801 4.64008 46.7801C4.75008 46.7801 4.87006 46.7601 5.00006 46.7301C5.17006 46.6901 5.33008 46.62 5.46008 46.5201C5.59008 46.4301 5.72009 46.3101 5.84009 46.1401H5.85004V45.8801L5.81006 45.9401C5.69006 46.1201 5.57008 46.25 5.46008 46.34C5.35008 46.43 5.23009 46.4901 5.09009 46.5201C4.93009 46.5701 4.80008 46.5601 4.71008 46.5001C4.62008 46.4501 4.54006 46.3501 4.50006 46.2101C4.46006 46.0601 4.44006 45.8901 4.44006 45.7001C4.44006 45.5101 4.48004 45.3201 4.54004 45.1401C4.60004 45.0101 4.67004 44.8801 4.79004 44.7801C4.90004 44.6701 5.02009 44.6001 5.15009 44.5701C5.30009 44.5301 5.44006 44.5501 5.56006 44.6101C5.68006 44.6801 5.76005 44.8001 5.80005 44.9901V45.0101L5.90009 44.9801V44.1801L5.82007 44.2101" fill="#C5221A"/>
<path d="M7.99005 45.1799C7.94005 45.3799 7.85004 45.5499 7.73004 45.6699C7.61004 45.7899 7.45007 45.8799 7.26007 45.9299L7.14008 45.9599C7.09008 45.9699 7.05008 45.9799 7.02008 45.9599C6.99008 45.9599 6.98004 45.9399 6.98004 45.9199C6.98004 45.9099 6.96003 45.8599 6.97003 45.7199V45.1199C7.07003 45.0999 7.14006 45.0899 7.19006 45.1099C7.24006 45.1199 7.27006 45.1599 7.31006 45.2199C7.35006 45.2899 7.37007 45.3799 7.38007 45.4999V45.5199L7.48004 45.4899L7.50006 44.3099L7.40009 44.3399C7.39009 44.5199 7.35009 44.6599 7.28009 44.7599C7.22009 44.8599 7.13005 44.9299 6.99005 44.9599H6.98004L6.99005 44.1199L7.20007 44.0599C7.36007 44.0199 7.46008 43.9999 7.52008 44.0099C7.62008 44.0099 7.69005 44.0399 7.74005 44.0899C7.79005 44.1399 7.83004 44.2399 7.85004 44.3799V44.4099L7.95007 44.3799V43.6899L6.15009 44.1599H6.14008V44.2599L6.23004 44.2299C6.29004 44.2199 6.34007 44.2199 6.38007 44.2299C6.40007 44.2299 6.42004 44.2599 6.42004 44.2899C6.42004 44.2999 6.42004 44.3499 6.42004 44.4699L6.39008 45.8999C6.39008 46.0399 6.38006 46.0899 6.37006 46.0999C6.35006 46.1299 6.34006 46.1699 6.31006 46.1799C6.27006 46.2099 6.23004 46.2299 6.17004 46.2499L6.08008 46.2699V46.3699L7.95007 45.8899H7.96008L8.07007 45.1299L7.97003 45.1599" fill="#C5221A"/>
<path d="M10.9486 44.42C10.8886 44.62 10.7986 44.79 10.6786 44.91C10.5586 45.04 10.3986 45.12 10.2086 45.17L10.0786 45.21C10.0186 45.22 9.97862 45.23 9.95862 45.21C9.92862 45.21 9.92858 45.19 9.91858 45.17C9.91858 45.16 9.89857 45.12 9.90857 44.97V44.37C10.0086 44.35 10.0886 44.34 10.1286 44.35C10.1786 44.36 10.2186 44.4 10.2486 44.46C10.2886 44.53 10.3086 44.62 10.3186 44.73V44.76L10.4186 44.73L10.4386 43.55L10.3386 43.58C10.3186 43.77 10.2786 43.9 10.2186 44C10.1686 44.1 10.0686 44.17 9.9386 44.2H9.92859L9.9386 43.36L10.1386 43.3C10.2986 43.26 10.4086 43.24 10.4686 43.25C10.5586 43.25 10.6386 43.28 10.6886 43.34C10.7386 43.39 10.7786 43.49 10.7986 43.63V43.65L10.8986 43.63V42.95L9.10858 43.42H9.08862V43.52L9.1886 43.49C9.2586 43.48 9.29862 43.48 9.33862 43.49C9.35862 43.49 9.37861 43.52 9.38861 43.54C9.38861 43.55 9.38861 43.59 9.38861 43.72L9.36859 45.15C9.36859 45.28 9.35857 45.33 9.34857 45.35C9.33857 45.39 9.31857 45.41 9.28857 45.43C9.24857 45.46 9.20862 45.49 9.14862 45.5L9.05859 45.52V45.62L10.9286 45.13H10.9386L11.0486 44.37L10.9586 44.39" fill="#C5221A"/>
<path d="M13.5989 35.58L13.679 35.6L14.379 34.11C14.459 33.93 14.519 33.83 14.559 33.79C14.609 33.74 14.669 33.72 14.749 33.72H14.769V33.63L14.029 33.43V33.53H14.049C14.129 33.55 14.1789 33.57 14.2289 33.6C14.2589 33.62 14.289 33.65 14.299 33.67C14.309 33.69 14.319 33.73 14.329 33.75C14.329 33.77 14.329 33.81 14.309 33.84C14.299 33.88 14.2789 33.95 14.2289 34.05L13.8489 34.86L13.379 33.7C13.329 33.57 13.2989 33.5 13.2889 33.46C13.2889 33.44 13.279 33.41 13.279 33.39C13.279 33.36 13.2889 33.35 13.2889 33.35C13.3289 33.33 13.3889 33.34 13.4789 33.36H13.529V33.27L12.459 32.99V33.09H12.4789C12.5589 33.12 12.609 33.15 12.639 33.19C12.659 33.23 12.729 33.37 12.819 33.6L13.5989 35.53" fill="#C5221A"/>
<path d="M15.1483 35.16L15.4183 34.56L15.7183 35.32L15.1383 35.17M14.5183 35.68H14.4883V35.78L15.2383 35.97V35.87C15.0983 35.82 15.0483 35.79 15.0283 35.78C14.9883 35.74 14.9583 35.7 14.9583 35.64C14.9583 35.6 14.9683 35.55 14.9883 35.48L15.0683 35.31L15.7983 35.5L15.9083 35.79C15.9483 35.89 15.9583 35.92 15.9583 35.92C15.9683 35.94 15.9683 35.96 15.9683 35.98C15.9683 36.01 15.9583 36.02 15.9483 36.02C15.9483 36.02 15.9183 36.02 15.9083 36.02C15.8783 36.02 15.8383 36.02 15.7883 36L15.7183 35.98V36.08L16.7983 36.36V36.26H16.7783C16.7183 36.24 16.6683 36.21 16.6383 36.16C16.5883 36.11 16.5283 35.99 16.4483 35.8L15.6283 33.82L15.5783 33.8L14.8583 35.36C14.7883 35.5 14.7283 35.59 14.6883 35.63C14.6383 35.67 14.5883 35.68 14.5183 35.67" fill="#C5221A"/>
<path d="M16.9089 34.29C16.9689 34.3 17.0189 34.33 17.0489 34.35C17.0789 34.37 17.1189 34.42 17.1689 34.49L17.2089 34.56L17.2489 36.09C17.2489 36.2 17.2389 36.27 17.1989 36.3C17.1589 36.34 17.0789 36.34 16.9689 36.3H16.9389V36.4L17.7289 36.6V36.5L17.6589 36.48C17.5889 36.46 17.5289 36.43 17.4789 36.37C17.4189 36.32 17.3989 36.23 17.3989 36.11L17.3589 34.8L18.8089 36.94H18.8189L18.8989 36.97L18.8489 35.13C18.8489 35.03 18.8489 34.96 18.8689 34.93C18.8889 34.9 18.8989 34.87 18.9289 34.86C18.9589 34.86 19.0189 34.86 19.1089 34.86H19.1289V34.76L18.3789 34.57V34.67H18.3889C18.4989 34.7 18.5889 34.75 18.6389 34.82C18.6689 34.87 18.6989 34.96 18.6989 35.09L18.7189 35.95L17.6689 34.38L16.8789 34.17V34.27H16.8989" fill="#C5221A"/>
<path d="M13.0286 38.39C13.1286 38.51 13.2385 38.61 13.3685 38.71C13.4985 38.8 13.6585 38.87 13.8485 38.92C13.9985 38.96 14.1486 38.98 14.2786 38.99H14.3286C14.4486 38.99 14.5585 38.98 14.6785 38.95H14.6885L14.6785 38.48C14.6785 38.37 14.6785 38.35 14.6785 38.34C14.6785 38.31 14.7085 38.29 14.7185 38.29C14.7485 38.29 14.7985 38.29 14.8685 38.29H14.8986V38.2L13.8885 37.94V38.04L13.9485 38.06C13.9485 38.06 14.0285 38.09 14.0685 38.12C14.0985 38.14 14.1185 38.17 14.1285 38.2C14.1285 38.22 14.1486 38.26 14.1486 38.36V38.8C14.1486 38.8 14.0686 38.8 14.0286 38.8C13.9786 38.8 13.9285 38.8 13.8885 38.78C13.7485 38.74 13.6286 38.68 13.5286 38.58C13.4286 38.48 13.3485 38.35 13.3085 38.18C13.2585 38.01 13.2385 37.82 13.2285 37.62C13.2285 37.45 13.2386 37.29 13.2786 37.14C13.3086 36.99 13.3785 36.89 13.4685 36.82C13.5585 36.75 13.6785 36.74 13.8185 36.78C13.9685 36.82 14.1185 36.91 14.2385 37.05C14.3685 37.19 14.4785 37.37 14.5485 37.6L14.6486 37.63L14.6285 36.84L14.5385 36.81V36.83C14.5085 36.89 14.4885 36.91 14.4785 36.92C14.4585 36.94 14.4385 36.94 14.4185 36.93C14.4185 36.93 14.3785 36.91 14.2585 36.83C14.1585 36.76 14.0885 36.72 14.0385 36.7C13.9585 36.67 13.8686 36.63 13.7686 36.61C13.4486 36.52 13.1785 36.57 12.9685 36.74C12.7485 36.92 12.6485 37.17 12.6685 37.51C12.6685 37.69 12.7185 37.87 12.7885 38.04C12.8485 38.17 12.9186 38.29 13.0186 38.41" fill="#C5221A"/>
<path d="M16.7098 39.61L16.7897 38.9L16.6998 38.88V38.9C16.6498 39.08 16.5698 39.19 16.4598 39.25C16.3398 39.32 16.1898 39.32 15.9998 39.27L15.8698 39.24C15.8098 39.23 15.7697 39.21 15.7397 39.18C15.7197 39.16 15.6998 39.14 15.6898 39.11C15.6898 39.1 15.6797 39.04 15.6697 38.89L15.6498 38.3C15.7298 38.33 15.8097 38.36 15.8497 38.39C15.8997 38.43 15.9497 38.49 15.9797 38.58C16.0197 38.67 16.0498 38.77 16.0698 38.9L16.1697 38.94L16.1398 37.78L16.0397 37.74V37.76C16.0197 37.92 15.9798 38.04 15.9398 38.1C15.8798 38.17 15.7997 38.18 15.6697 38.15H15.6398L15.6198 37.3L15.8098 37.35C15.9698 37.39 16.0798 37.43 16.1398 37.46C16.2298 37.52 16.3098 37.58 16.3698 37.66C16.4198 37.74 16.4698 37.86 16.4998 38.03L16.5997 38.07L16.5798 37.4V37.38L14.7598 36.9V37L14.8497 37.02C14.9097 37.04 14.9598 37.07 14.9998 37.1C15.0298 37.13 15.0498 37.16 15.0598 37.19C15.0598 37.21 15.0598 37.25 15.0698 37.38L15.0997 38.81C15.1097 38.95 15.0997 38.99 15.0997 39C15.0997 39.02 15.0697 39.04 15.0497 39.05C15.0197 39.05 14.9697 39.05 14.9097 39.05L14.8098 39.02V39.12L16.6797 39.6H16.6998" fill="#C5221A"/>
<path d="M18.81 39.35L18.71 39.32V39.34C18.66 39.49 18.61 39.61 18.56 39.68C18.51 39.75 18.45 39.79 18.37 39.81C18.3 39.83 18.21 39.82 18.1 39.8L17.93 39.75C17.81 39.72 17.76 39.7 17.74 39.69C17.7 39.67 17.68 39.64 17.67 39.61C17.67 39.59 17.66 39.53 17.66 39.4L17.62 38.02C17.62 37.88 17.62 37.84 17.62 37.83C17.64 37.8 17.65 37.79 17.67 37.78C17.7 37.78 17.75 37.78 17.81 37.78L17.93 37.81V37.71L16.75 37.41V37.51L16.84 37.53C16.9 37.55 16.94 37.57 16.98 37.6C17.01 37.63 17.03 37.66 17.05 37.68C17.05 37.7 17.07 37.75 17.07 37.89L17.11 39.32C17.11 39.46 17.11 39.5 17.1 39.51C17.08 39.54 17.08 39.56 17.05 39.56C17.02 39.57 16.97 39.56 16.91 39.56L16.82 39.54V39.64L18.73 40.13H18.76L18.82 39.37V39.35" fill="#C5221A"/>
<path d="M18.7695 38.04L18.8595 38.06C18.9195 38.08 18.9595 38.1 18.9895 38.13C19.0295 38.16 19.0495 38.18 19.0595 38.21C19.0695 38.23 19.0795 38.28 19.0895 38.42L19.1295 39.86C19.1295 40 19.1295 40.04 19.1195 40.04C19.0995 40.07 19.0895 40.09 19.0695 40.1C19.0395 40.11 18.9895 40.1 18.9295 40.1L18.8295 40.07V40.17L19.9695 40.46H19.9895V40.37L19.9095 40.35C19.8495 40.33 19.8095 40.31 19.7695 40.29C19.7395 40.26 19.7195 40.23 19.6995 40.21C19.6995 40.19 19.6795 40.14 19.6795 40L19.6495 38.57C19.6495 38.43 19.6495 38.39 19.6595 38.38C19.6695 38.35 19.6795 38.34 19.7095 38.33C19.7395 38.32 19.7895 38.32 19.8495 38.33L19.9395 38.35V38.25L18.7795 37.95V38.05" fill="#C5221A"/>
<path d="M13.6093 41.97C13.4593 41.93 13.3193 41.84 13.1893 41.68C13.0593 41.53 12.9592 41.3299 12.9092 41.0899L12.8093 41.05L12.8293 41.9L12.9193 41.93C12.9193 41.93 12.9592 41.86 12.9792 41.85C12.9992 41.84 13.0293 41.84 13.0493 41.85C13.0793 41.85 13.1192 41.88 13.1592 41.91C13.2592 41.97 13.3293 42.02 13.3893 42.05C13.4593 42.08 13.5193 42.1 13.5893 42.12C13.6693 42.14 13.7493 42.15 13.8193 42.15C13.9393 42.15 14.0493 42.1199 14.1393 42.0599C14.2793 41.9599 14.3493 41.8199 14.3393 41.6299C14.3393 41.4799 14.2893 41.34 14.1993 41.21C14.1093 41.07 13.9393 40.91 13.6793 40.72C13.4993 40.58 13.3893 40.49 13.3293 40.44C13.2693 40.37 13.2193 40.32 13.1893 40.26C13.1693 40.22 13.1593 40.1799 13.1493 40.1299C13.1493 40.0599 13.1792 40.01 13.2292 39.97C13.2892 39.93 13.3593 39.9299 13.4593 39.9499C13.5993 39.9799 13.7293 40.07 13.8393 40.21C13.9593 40.34 14.0393 40.51 14.0693 40.69V40.71L14.1793 40.73L14.1393 39.97L14.0593 39.94V39.96C14.0493 40.03 14.0293 40.0599 14.0193 40.0599C14.0093 40.0599 13.9992 40.0699 13.9692 40.0599C13.9592 40.0599 13.9093 40.03 13.8293 39.97C13.7493 39.92 13.6893 39.88 13.6493 39.85C13.5793 39.81 13.5093 39.7899 13.4493 39.7699C13.2493 39.7199 13.0893 39.74 12.9593 39.83C12.8393 39.92 12.7793 40.0599 12.7793 40.2399C12.7793 40.3499 12.8093 40.45 12.8593 40.55C12.9093 40.65 12.9793 40.7499 13.0593 40.8399C13.1493 40.9299 13.2893 41.0499 13.4893 41.1999C13.6293 41.3099 13.7293 41.3899 13.7793 41.4499C13.8393 41.4999 13.8793 41.56 13.8993 41.61C13.9193 41.66 13.9393 41.71 13.9393 41.76C13.9393 41.84 13.9092 41.9 13.8492 41.94C13.7892 41.98 13.6993 41.99 13.5893 41.96" fill="#C5221A"/>
<path d="M16.0685 40.69C16.1385 40.74 16.1985 40.8 16.2285 40.87C16.2785 40.93 16.3085 41.04 16.3485 41.19L16.4385 41.22V40.61V40.6L14.4985 40.1H14.4785L14.4985 40.71V40.73L14.5985 40.75V40.73C14.6185 40.58 14.6685 40.48 14.7585 40.41C14.8185 40.37 14.9185 40.37 15.0485 40.41L15.1885 40.45L15.2285 42.11C15.2285 42.25 15.2285 42.29 15.2185 42.3C15.2085 42.32 15.1985 42.34 15.1685 42.35C15.1285 42.35 15.0886 42.35 15.0286 42.35L14.9285 42.32V42.42L16.0585 42.71H16.0886V42.62L16.0085 42.6C15.9485 42.58 15.9085 42.56 15.8685 42.54C15.8385 42.51 15.8185 42.48 15.8085 42.45C15.7985 42.43 15.7885 42.38 15.7885 42.24L15.7385 40.59L15.8785 40.62C15.9685 40.65 16.0386 40.67 16.0786 40.7" fill="#C5221A"/>
<path d="M17.6983 42.35L17.1183 42.2L17.3983 41.6L17.6983 42.36M17.9283 43.06C17.9283 43.06 17.8483 43.07 17.7683 43.05L17.7083 43.03V43.13L18.7583 43.4H18.7883V43.31H18.7783C18.7183 43.28 18.6683 43.25 18.6283 43.21C18.5783 43.16 18.5283 43.04 18.4483 42.85L17.6283 40.86H17.5683L16.8483 42.4C16.7883 42.54 16.7283 42.63 16.6783 42.67C16.6283 42.7 16.5783 42.72 16.5083 42.71H16.4883V42.81L17.2083 43H17.2383V42.91H17.2283C17.1183 42.87 17.0483 42.84 17.0283 42.82C16.9783 42.78 16.9583 42.73 16.9583 42.68C16.9583 42.63 16.9683 42.58 16.9883 42.52L17.0683 42.35L17.7983 42.54L17.9083 42.83C17.9483 42.93 17.9583 42.95 17.9583 42.96C17.9683 42.98 17.9683 43 17.9683 43.02C17.9683 43.05 17.9583 43.06 17.9483 43.06" fill="#C5221A"/>
<path d="M15.3698 45.6901C15.3698 45.6901 15.2798 45.6601 15.2498 45.6301C15.2198 45.6001 15.2098 45.5801 15.1898 45.5501C15.1898 45.5301 15.1697 45.48 15.1697 45.34L15.1298 43.9101C15.1298 43.7701 15.1298 43.7301 15.1298 43.7201C15.1298 43.6901 15.1497 43.6801 15.1697 43.6701C15.1997 43.6601 15.2297 43.6601 15.2897 43.6701H15.3098L15.3198 43.6801C15.3798 43.6901 15.4198 43.7201 15.4598 43.7601C15.4798 43.7801 15.4998 43.8101 15.5098 43.8501C15.5098 43.8801 15.5098 43.9401 15.5198 44.0301L15.5598 45.4601C15.5598 45.6001 15.5497 45.6401 15.5397 45.6501C15.5397 45.6701 15.5298 45.6901 15.4998 45.7001C15.4698 45.7101 15.4298 45.7101 15.3798 45.7001H15.3597H15.3497M18.8898 44.6101V44.5201L18.2498 44.3501H18.2197V44.4501H18.2397C18.2997 44.4701 18.3498 44.4901 18.3898 44.5201C18.4198 44.5401 18.4298 44.5601 18.4498 44.5801C18.4498 44.6101 18.4697 44.6401 18.4697 44.6601C18.4697 44.6801 18.4698 44.7201 18.4598 44.7501C18.4598 44.7901 18.4198 44.8601 18.3798 44.9701L18.0497 45.7801L17.6398 44.6501C17.5898 44.5301 17.5598 44.4501 17.5598 44.4101C17.5498 44.3901 17.5497 44.37 17.5497 44.34C17.5497 44.31 17.5498 44.3101 17.5698 44.3001C17.5898 44.2901 17.6497 44.2901 17.7297 44.3101L17.7897 44.3301V44.2301L16.8798 43.9901H16.8597H16.8398L15.2798 43.5801H15.2498L14.5898 43.4001L14.1198 44.6701L13.5698 43.1401L12.7798 42.9301H12.7598V43.0201L12.8398 43.0401C12.8398 43.0401 12.9298 43.0701 12.9598 43.1001C12.9898 43.1301 13.0098 43.1501 13.0198 43.1801C13.0198 43.2001 13.0397 43.2601 13.0397 43.3901L13.0798 44.7701C13.0798 44.8901 13.0798 44.9201 13.0798 44.9301C13.0798 44.9701 13.0597 45.0101 13.0397 45.0301C13.0197 45.0501 12.9997 45.0601 12.9697 45.0701C12.9397 45.0701 12.8997 45.0701 12.8597 45.0701H12.8098V45.1601L13.4797 45.3301H13.4998V45.2401H13.4797C13.3997 45.2201 13.3397 45.1801 13.2997 45.1401C13.2597 45.0901 13.2397 45.0501 13.2297 45.0001C13.2197 44.9701 13.2198 44.9101 13.2098 44.8001L13.1697 43.4001L13.9297 45.4501L13.9897 45.4701L14.6298 43.7501L14.6697 45.2701C14.6697 45.4001 14.6697 45.4501 14.6697 45.4601C14.6597 45.4901 14.6398 45.5001 14.6298 45.5201C14.5998 45.5301 14.5598 45.5301 14.5098 45.5201L14.4297 45.5001V45.6001L15.3298 45.8301L17.0098 46.2701L17.0698 45.5801V45.5601L16.9897 45.5401V45.5601C16.9397 45.7401 16.8698 45.8601 16.7698 45.9201C16.6698 45.9801 16.5297 45.9901 16.3597 45.9501L16.2397 45.9201C16.2397 45.9201 16.1598 45.8901 16.1298 45.8701C16.1098 45.8501 16.0898 45.8201 16.0898 45.8001C16.0798 45.7701 16.0698 45.7001 16.0698 45.5801V44.9901C16.1298 45.0201 16.1897 45.0401 16.2297 45.0701C16.2697 45.1101 16.3197 45.1701 16.3497 45.2501C16.3897 45.3401 16.4097 45.4401 16.4297 45.5701L16.5198 45.6101L16.4897 44.4401L16.3998 44.4001V44.4201C16.3898 44.5801 16.3598 44.7 16.3098 44.7701C16.2598 44.8401 16.1898 44.8501 16.0698 44.8201H16.0397L16.0198 43.9701L16.1898 44.0101C16.3298 44.0501 16.4297 44.0801 16.4797 44.1201C16.5697 44.1701 16.6397 44.2401 16.6797 44.3201C16.7297 44.4001 16.7697 44.5201 16.7997 44.6901L16.8898 44.7201L16.8698 44.1401C16.9198 44.1601 16.9697 44.1901 16.9797 44.2301C16.9997 44.2601 17.0498 44.3501 17.1498 44.6401L17.8497 46.5401L17.9197 46.5601L18.5298 45.0501C18.6098 44.8701 18.6598 44.7601 18.6898 44.7201C18.7398 44.6601 18.7897 44.6401 18.8597 44.6501H18.8798L18.8898 44.6101Z" fill="#C5221A"/>
<path d="M20 45.96C19.92 45.83 19.76 45.67 19.54 45.49C19.37 45.36 19.27 45.27 19.23 45.22C19.17 45.16 19.12 45.1 19.1 45.04C19.08 45 19.07 44.96 19.07 44.91C19.07 44.84 19.1 44.79 19.15 44.75C19.2 44.71 19.27 44.7 19.35 44.72C19.47 44.75 19.58 44.83 19.69 44.97C19.79 45.11 19.86 45.27 19.89 45.45L19.98 45.49L19.95 44.73L19.87 44.7V44.72C19.85 44.8 19.84 44.82 19.84 44.82C19.83 44.83 19.82 44.83 19.79 44.83C19.78 44.83 19.74 44.81 19.66 44.75C19.6 44.7 19.54 44.66 19.49 44.64C19.43 44.61 19.37 44.59 19.31 44.56C19.13 44.51 18.99 44.55 18.88 44.64C18.76 44.73 18.71 44.87 18.72 45.06C18.72 45.16 18.74 45.26 18.79 45.36C18.83 45.46 18.9 45.55 18.98 45.64C19.05 45.73 19.18 45.84 19.36 45.99C19.48 46.09 19.57 46.17 19.62 46.22C19.67 46.27 19.7 46.33 19.73 46.38C19.75 46.43 19.77 46.48 19.77 46.53C19.77 46.61 19.74 46.68 19.69 46.72C19.63 46.76 19.55 46.78 19.46 46.75C19.33 46.72 19.2 46.63 19.09 46.47C18.97 46.32 18.89 46.12 18.84 45.89L18.75 45.85L18.77 46.7V46.72L18.86 46.74C18.87 46.69 18.89 46.67 18.92 46.65C18.94 46.64 18.96 46.63 18.98 46.64C19.01 46.64 19.04 46.67 19.08 46.7C19.16 46.76 19.23 46.81 19.29 46.83C19.34 46.86 19.4 46.88 19.46 46.9C19.53 46.92 19.59 46.92 19.65 46.92C19.76 46.92 19.87 46.89 19.95 46.82C20.08 46.72 20.14 46.57 20.13 46.38C20.13 46.24 20.08 46.09 20 45.96Z" fill="#C5221A"/>
</svg>
