<svg width="169" height="152" viewBox="0 0 169 152" fill="none" xmlns="http://www.w3.org/2000/svg">
<path d="M168.98 0H0.5V151.63H168.98V0Z" fill="#F20000"/>
<path d="M69.4095 58.24C69.4095 46.01 60.7395 41.5 54.1095 41.5H38.4395V75.06H54.1095C60.7395 75.06 69.4095 70.46 69.4095 58.23M60.7395 58.23C60.7395 64.13 56.3696 66.73 54.1796 66.73H47.4795V49.64H54.1796C56.5896 49.64 60.7395 52.24 60.7395 58.23Z" fill="white"/>
<path d="M123.159 53.56L126.069 44.97C122.279 42.8 116.889 41.5 111.059 41.76C101.079 42.8 95.2993 48.47 95.0293 58.59C95.2193 68.98 101.079 74.37 111.059 75.41C117.839 75.85 123.159 74.11 127.019 71.25L122.719 63.1C120.239 65.35 117.179 66.57 113.539 66.65C107.349 66.48 104.289 63.79 104.289 58.59C104.289 53.39 107.639 50.26 113.829 50.09C117.469 50.26 120.679 51.3 123.159 53.56Z" fill="white"/>
<path d="M79.6992 50.18H94.3492V41.5H71.0293V75.07H79.6992V62.84H93.2493V54.6H79.6992V50.18Z" fill="white"/>
<path d="M27.7501 75.07H36.2802V41.5H27.7501V53.56H14.7802V41.5H6.33008V75.07H14.7802V61.88H27.7501V75.07Z" fill="white"/>
<path d="M126.96 93.5801C126.96 82.1201 119.52 77.3101 110.33 77.3101C101.14 77.3101 93.7001 82.1101 93.7001 93.5801C93.7001 105.05 101.15 109.85 110.33 109.85C119.51 109.85 126.96 105.02 126.96 93.5801ZM117.81 93.5801C117.81 98.9801 116.02 103.35 110.33 103.35C104.64 103.35 102.85 98.9801 102.85 93.5801C102.85 88.1801 104.61 83.8101 110.33 83.8101C116.05 83.8101 117.81 88.1801 117.81 93.5801ZM91.9601 108.92V92.0301H78.0901V98.0601H83.5201V103.49C72.7701 106.07 70.2201 100.44 70.2201 94.0101C70.2201 84.3401 75.6901 84.2001 78.0701 84.2001C82.9501 84.2001 83.5201 87.8201 83.5201 87.8201H91.9701C90.8401 76.5001 76.8901 77.5701 76.8901 77.5701C60.4101 77.5701 61.2101 93.8501 61.2101 93.8501C61.2101 108.97 74.0401 110.08 77.8701 110.08C82.1801 110.08 85.1601 109.66 91.9701 108.92M60.0001 88.4201C60.0001 77.7401 48.7501 78.1701 48.7501 78.1701H32.8601V109.52H41.3002V98.0701H44.3201L52.1201 109.52H61.7701L53.3102 97.4301C60.0302 96.0101 60.0001 88.4201 60.0001 88.4201ZM52.1602 88.4201C52.1902 92.7801 47.9302 92.6501 47.9302 92.6501H41.3002V84.8001H47.9302C47.9302 84.8001 52.1302 84.8301 52.1602 88.4201ZM6.33008 109.52H30.4501V102.89H14.7802V96.8601H29.2501V90.8201H14.7802V84.7901H30.4501V78.1601H6.33008V109.52Z" fill="white"/>
</svg>
