<svg width="430" height="112" viewBox="0 0 430 112" fill="none" xmlns="http://www.w3.org/2000/svg">
<mask id="mask0_6964_91536" style="mask-type:luminance" maskUnits="userSpaceOnUse" x="0" y="0" width="430" height="112">
<path d="M429.499 0.27002H0.449219V111.35H429.499V0.27002Z" fill="white"/>
</mask>
<g mask="url(#mask0_6964_91536)">
<path fill-rule="evenodd" clip-rule="evenodd" d="M243.85 64.73L231.92 71.2L223.99 66.41C223.99 66.41 225.63 65.39 227.49 64.16C229.35 62.85 228.56 62.63 227.56 61.47C225.63 60.09 217.2 54.57 217.2 54.57L219.92 53.19L217.42 47.23L223.35 47.09L223.49 43.6C223.49 43.6 232.71 49.63 234.13 50.14C235.63 50.65 236.77 49.85 236.99 47.74V34.52L240.7 36.26L243.49 31.25L243.63 31.03C239.7 27.98 234.77 26.24 229.48 26.24C216.48 26.24 205.9 36.92 205.9 50.14C205.9 63.36 216.48 74.11 229.48 74.11C234.84 74.11 239.84 72.29 243.77 69.17L243.84 64.74L243.85 64.73Z" fill="#1A4680"/>
<path fill-rule="evenodd" clip-rule="evenodd" d="M243.63 38.5699H242.2V61.5999L224.55 50.9899L223.83 52.2299L242.41 63.4199L243.63 62.3299V38.5699Z" fill="#1A4680"/>
<path fill-rule="evenodd" clip-rule="evenodd" d="M65.2695 73.88H76.4196L85.2095 40.61H74.0596L65.2695 73.88Z" fill="#1A4680"/>
<path fill-rule="evenodd" clip-rule="evenodd" d="M122.799 73.88H133.949L142.739 40.61H131.589L122.799 73.88Z" fill="#1A4680"/>
<path fill-rule="evenodd" clip-rule="evenodd" d="M180.25 73.88H191.47L200.19 40.61H189.04L180.25 73.88Z" fill="#1A4680"/>
<path fill-rule="evenodd" clip-rule="evenodd" d="M112.289 52.0099H123.579C125.009 44.5299 120.219 40.6799 109.219 40.6799C96.5692 40.6799 87.9993 46.9999 85.0593 57.8999C82.4193 67.9199 87.6392 73.9499 99.5692 73.9499C111.499 73.9499 118.859 70.0999 121.789 61.5999H110.569C108.999 65.3799 106.069 67.3399 102.069 67.3399C96.7092 67.3399 94.5692 63.8499 96.2092 57.5299C97.9292 50.9199 102.069 47.2899 107.499 47.2899C110.999 47.2899 112.649 48.8099 112.289 52.0099Z" fill="#1A4680"/>
<path fill-rule="evenodd" clip-rule="evenodd" d="M169.889 52.0099H181.039C182.539 44.5299 177.749 40.6799 166.819 40.6799C154.099 40.6799 145.459 46.9999 142.599 57.8999C139.959 67.9199 145.169 73.9499 157.109 73.9499C169.049 73.9499 176.329 70.0999 179.409 61.5999H168.119C166.549 65.3799 163.619 67.3399 159.619 67.3399C154.189 67.3399 152.119 63.8499 153.829 57.5299C155.539 50.9199 159.619 47.2899 165.049 47.2899C168.479 47.2899 170.119 48.8099 169.909 52.0099" fill="#1A4680"/>
<path fill-rule="evenodd" clip-rule="evenodd" d="M250.92 41.63H253.63L254.35 41.99L255.14 41.63H258.21V70.76C258.21 70.76 268.07 70.76 269.43 70.4C268.86 71.85 269 73.3 269.57 74.03H250.99L250.92 41.63Z" fill="#1A4680"/>
<path fill-rule="evenodd" clip-rule="evenodd" d="M283.15 72.79C281.86 72.72 277.15 71.55 276.93 63.27C277.21 55.79 281.08 52.74 283.15 52.66C284.51 52.59 289.08 53.82 289.08 62.91C289.08 70.24 285.15 73.01 283.15 72.79ZM283.58 50.71C280.15 50.71 271.43 51.87 271.43 62.84C271.43 75.7 283.15 74.32 283.15 74.32C287.15 74.32 294.58 73.23 295.01 63.06C295.01 50.2 283.58 50.71 283.58 50.71Z" fill="#1A4680"/>
<path fill-rule="evenodd" clip-rule="evenodd" d="M347.96 72.28C346.74 72.14 342.461 71.12 342.321 63.42C342.531 56.52 346.1 53.76 347.96 53.69C349.25 53.62 353.46 54.78 353.46 63.13C353.46 69.81 349.82 72.43 347.96 72.28ZM350.67 51.5C346.03 51.07 343.311 53.39 343.311 53.39V38.35H340.95L340.23 38.64L339.44 38.28L336.73 38.35L336.801 73.73H339.591C339.591 73.73 340.81 72.71 341.73 71.7C344.09 74.32 347.59 74.1 349.95 74.1C352.31 74.1 359.67 71.78 359.67 62.62C359.67 53.46 353.6 52.01 350.67 51.51" fill="#1A4680"/>
<path fill-rule="evenodd" clip-rule="evenodd" d="M414.559 71.92C412.919 72.06 409.628 69.52 409.628 62.77C409.628 54.41 413.489 53.33 414.559 53.33C416.279 53.4 419.488 56.23 419.698 63.14C419.558 70.77 415.629 71.86 414.559 71.93M422.489 38.3L421.769 38.66L421.049 38.37H418.979V53.41C418.979 53.41 415.909 50.87 411.329 51.3C408.329 51.74 401.898 54.21 401.898 62.7C401.898 71.86 406.828 74.84 411.898 75.05C414.258 75.12 416.619 75.27 418.979 72.65C418.979 72.65 419.049 74.1 419.049 74.61H424.908V38.29H422.479L422.489 38.3Z" fill="#1A4680"/>
<path fill-rule="evenodd" clip-rule="evenodd" d="M298.799 51.14H300.869L301.509 51.65L302.079 51.14H303.939V52.67C305.509 51.29 312.869 48.31 317.089 53.91C317.089 53.91 318.809 50.78 325.169 50.78C329.169 51.07 332.529 53.98 332.529 57.97V74.24C332.529 74.24 328.879 73.44 326.879 74.24V59.93C326.879 55.43 324.809 53.68 322.809 53.68C320.879 53.82 318.309 55.86 318.309 60.22V74.24C318.309 74.24 314.659 73.51 313.019 74.24V60.15C313.019 60.15 313.519 53.83 309.019 53.83C304.939 53.83 304.519 58.33 304.519 60.3V74.25C304.519 74.25 300.589 73.74 298.879 74.32C298.879 73.59 298.809 51.14 298.809 51.14" fill="#1A4680"/>
<path fill-rule="evenodd" clip-rule="evenodd" d="M392.27 63.13V74.24C392.27 74.24 387.98 73.73 386.27 74.31V51.13H388.909L389.55 51.64L390.189 51.13H392.26V53.09C393.26 53.38 393.62 50.26 400.84 51.13C400.84 52 400.479 57.16 400.479 57.16C400.479 57.16 398.839 57.67 397.409 56.87C396.269 56.22 392.34 57.38 392.26 63.12" fill="#1A4680"/>
</g>
<mask id="mask1_6964_91536" style="mask-type:luminance" maskUnits="userSpaceOnUse" x="4" y="7" width="421" height="99">
<path d="M424.928 7.5H4.89844V105.11H424.928V7.5Z" fill="white"/>
</mask>
<g mask="url(#mask1_6964_91536)">
<path fill-rule="evenodd" clip-rule="evenodd" d="M374.468 69.59C373.898 71.04 371.328 73.08 369.538 72.42C368.468 72.06 366.608 71.11 366.898 67.41C366.968 65.96 368.328 64.51 374.478 63.12V69.59H374.468ZM380.328 71.34V58.55C380.328 51.58 376.328 51.5 371.828 50.99C365.688 50.99 363.608 53.31 362.898 54.04V56.51H365.468C366.188 55.35 366.898 54.4 368.468 53.61C370.828 52.59 373.258 54.33 374.188 56.08C374.978 57.46 375.188 61.02 372.688 61.45C365.328 62.32 362.538 64.21 361.678 66.1C358.818 74.17 366.398 74.89 366.398 74.89C368.618 75.47 373.898 74.75 375.048 73C376.118 75.47 382.698 74.67 382.908 73.65V72.49C380.768 72.63 380.618 72.42 380.338 71.33" fill="#1A4680"/>
<path fill-rule="evenodd" clip-rule="evenodd" d="M21.9784 21.93C36.9584 6.87999 55.1384 2.91999 62.3284 13.31C69.5184 23.6 63.1984 44.38 48.2184 59.43C45.3584 62.33 42.3285 64.88 39.3885 66.91C32.0885 71.93 23.5085 74.26 18.2585 73.77C14.0185 73.42 10.3784 71.48 7.95843 68.13C0.598426 57.74 7.00846 37.15 21.9885 21.92" fill="white"/>
<path fill-rule="evenodd" clip-rule="evenodd" d="M21.9787 21.93C36.9587 6.87999 55.1387 2.91999 62.3287 13.31C69.5187 23.6 63.1987 44.38 48.2187 59.43C45.3587 62.33 42.3287 64.88 39.3887 66.91C29.7787 70.43 42.5887 35.93 43.7187 33.02C45.0187 28.88 40.9488 27.39 37.3088 28.44C33.8488 29.58 24.4987 36.54 22.0687 39.35C19.7287 42.25 21.7187 42.87 23.2787 41.99C26.3087 40.14 29.0787 39.79 30.3787 41.37C31.0687 42.34 30.8087 46.92 29.5087 53.25C28.4687 57.21 27.3486 61.52 25.4387 66.1C23.4487 70.41 21.1087 73.67 18.2487 73.76C14.0087 73.41 10.3687 71.47 7.94866 68.12C0.58866 57.73 6.99869 37.14 21.9787 21.91M49.9487 13.37C48.2187 11.7 44.3187 12.58 41.2887 15.66C38.2588 18.83 37.3088 22.7 39.0387 24.46C40.6888 26.22 44.6687 25.16 47.6087 22.08C50.5487 19 51.6787 15.12 49.9487 13.36" fill="#F47216"/>
<path fill-rule="evenodd" clip-rule="evenodd" d="M31.9382 13.9199C44.1482 5.90994 56.6182 5.20995 62.3282 13.3099C64.8382 17.0899 65.6183 22.0199 65.0983 27.7499C63.0182 35.5799 58.1682 43.7699 51.0682 50.9899C46.2182 55.8299 40.9383 59.2599 35.9183 61.3799C36.5283 52.2299 42.9282 35.1499 43.7082 33.0399C45.0082 28.8999 40.9383 27.3999 37.3083 28.4599C33.8483 29.5999 24.4882 36.5599 22.0682 39.3699C19.7282 42.2799 21.7183 42.8899 23.2783 42.0099C26.3083 40.1599 29.0783 39.8099 30.3783 41.3999C31.0683 42.3699 30.8083 46.9399 29.5083 53.2799C28.7283 56.4499 27.7783 59.8799 26.3883 63.5799C21.5383 63.7599 17.4683 61.9899 14.7883 58.4699C8.37831 49.4899 13.8383 31.2699 26.9083 18.2399C28.6383 16.5699 30.3683 15.0699 31.9283 13.9299M49.9382 13.3999C48.2082 11.7299 44.3083 12.6099 41.2783 15.6899C38.2483 18.8599 37.2983 22.7299 39.0283 24.4899C40.6683 26.2499 44.6583 25.1899 47.5983 22.1099C50.5382 19.0299 51.6682 15.1599 49.9382 13.3999Z" fill="#AD252B"/>
</g>
<mask id="mask2_6964_91536" style="mask-type:luminance" maskUnits="userSpaceOnUse" x="0" y="0" width="430" height="112">
<path d="M429.499 0.27002H0.449219V111.35H429.499V0.27002Z" fill="white"/>
</mask>
<g mask="url(#mask2_6964_91536)">
<path fill-rule="evenodd" clip-rule="evenodd" d="M114.83 104.16V98.55H110.34V100.47H112.52V103.14C111.84 103.32 111.2 103.32 110.65 103.32C108.32 103.32 107.02 101.87 107.02 99.06C107.02 96.25 108.32 94.42 110.24 94.42C111.72 94.42 112.61 95.28 112.61 96.71H114.83V96.51C114.83 94.35 113.23 92.8 110.45 92.8C106.75 92.8 104.58 95.2 104.58 99.16C104.58 103.12 106.74 105.12 110.54 105.12C112.24 105.12 113.62 104.84 114.83 104.17" fill="#1A4680"/>
<path fill-rule="evenodd" clip-rule="evenodd" d="M124.18 92.98V104.92H131.7V102.97H126.58V99.71H131.22V97.84H126.58V95.01H131.62V92.98H124.18Z" fill="#1A4680"/>
<path fill-rule="evenodd" clip-rule="evenodd" d="M140.639 92.98V104.92H142.779V95.08L147.159 104.92H150.419V92.98H148.279V102.67L144.099 92.98H140.639Z" fill="#1A4680"/>
<path fill-rule="evenodd" clip-rule="evenodd" d="M159.879 92.98V104.92H167.499V102.97H162.279V99.71H166.919V97.84H162.279V95.01H167.299V92.98H159.879Z" fill="#1A4680"/>
<path fill-rule="evenodd" clip-rule="evenodd" d="M176.34 104.93V92.99H181.03C183.62 92.99 184.8 93.95 184.8 96.02C184.8 97.75 184.16 98.56 182.57 98.95C183.89 99.15 184.35 99.71 184.53 101.26L184.7 102.98C184.81 103.91 184.99 104.52 185.29 104.94H182.7C182.5 104.53 182.43 104.08 182.43 103.54L182.25 101.71C182.12 100.31 182.05 100.22 180.82 100.22H178.68V104.94H176.35L176.34 104.93ZM178.67 98.2H180.15C181.75 98.2 182.43 97.95 182.43 96.62C182.43 95.09 181.75 94.92 180.15 94.92H178.67V98.2Z" fill="#1A4680"/>
<path fill-rule="evenodd" clip-rule="evenodd" d="M192.84 104.93L196.85 92.99H199.73L203.52 104.93H201.1L200.37 102.38H195.91L195.03 104.93H192.83H192.84ZM196.56 100.47H199.73L198.24 95.34L196.55 100.47H196.56Z" fill="#1A4680"/>
<path fill-rule="evenodd" clip-rule="evenodd" d="M211.939 92.98V104.92H219.4V102.97H214.359V92.98H211.939Z" fill="#1A4680"/>
<path fill-rule="evenodd" clip-rule="evenodd" d="M238.02 104.93H240.329V92.99H238.02V104.93Z" fill="#1A4680"/>
<path fill-rule="evenodd" clip-rule="evenodd" d="M249.789 92.98V104.92H251.899V95.08L256.169 104.92H259.529V92.98H257.399V102.67L253.229 92.98H249.799H249.789Z" fill="#1A4680"/>
<path fill-rule="evenodd" clip-rule="evenodd" d="M270.84 101.04H268.49V101.24C268.49 103.89 269.99 105.1 272.87 105.1C275.75 105.1 277.44 103.8 277.44 101.58C277.44 99.51 276.28 98.84 273.99 98.11C272.12 97.46 271.08 97.06 271.08 96C271.08 95.06 271.74 94.4 272.99 94.4C274.07 94.4 274.73 95.07 274.8 96.39H276.96V96.32C276.96 94.14 275.57 92.78 273.07 92.78C270.36 92.78 268.76 94.23 268.76 96.32C268.76 97.25 269.14 98.02 269.81 98.54C270.54 99.14 271.26 99.32 272.12 99.6C273.99 100.38 274.99 100.66 274.99 101.76C274.99 102.73 274.26 103.52 273.07 103.52C271.55 103.52 270.83 102.66 270.83 101.04" fill="#1A4680"/>
<path fill-rule="evenodd" clip-rule="evenodd" d="M288.729 92.98H286.27V100.4C286.27 103.64 287.869 105.12 291.089 105.12C294.309 105.12 295.88 103.64 295.88 100.4V92.98H293.64V100.47C293.64 102.28 292.869 103.23 291.219 103.23C289.569 103.23 288.719 102.37 288.719 100.57V92.98H288.729Z" fill="#1A4680"/>
<path fill-rule="evenodd" clip-rule="evenodd" d="M305.28 104.93V92.99H309.86C312.45 92.99 313.679 93.95 313.679 96.02C313.679 97.75 313.02 98.56 311.52 98.95C312.82 99.15 313.209 99.71 313.389 101.26L313.57 102.98C313.68 103.91 313.87 104.52 314.25 104.94H311.639C311.349 104.53 311.35 104.08 311.24 103.54L311.139 101.71C310.959 100.31 310.879 100.22 309.669 100.22H307.579V104.94H305.27L305.28 104.93ZM307.589 98.2H309.02C310.59 98.2 311.35 97.95 311.35 96.62C311.35 95.09 310.6 94.92 309.02 94.92H307.589V98.2Z" fill="#1A4680"/>
<path fill-rule="evenodd" clip-rule="evenodd" d="M321.67 104.93L325.67 92.99H328.6L332.52 104.93H329.99L329.24 102.38H324.84L323.91 104.93H321.67ZM325.43 100.47H328.67L327.07 95.34L325.42 100.47H325.43Z" fill="#1A4680"/>
<path fill-rule="evenodd" clip-rule="evenodd" d="M340.799 92.98V104.92H342.909V95.08L347.309 104.92H350.589V92.98H348.439V102.67L344.239 92.98H340.799Z" fill="#1A4680"/>
<path fill-rule="evenodd" clip-rule="evenodd" d="M364.63 105.11C367.41 105.11 369.05 103.81 369.23 101.4H366.97C366.88 102.66 366.04 103.43 364.83 103.43C362.89 103.43 361.95 101.97 361.95 98.94C361.95 95.91 362.96 94.62 364.72 94.62C366.04 94.62 366.88 95.35 366.97 96.5H369.13C369.04 94.25 367.41 92.79 364.62 92.79C361.37 92.79 359.5 95.08 359.5 99.05C359.5 103.02 361.24 105.11 364.62 105.11" fill="#1A4680"/>
<path fill-rule="evenodd" clip-rule="evenodd" d="M378.08 92.98V104.92H385.61V102.97H380.44V99.71H385.11V97.84H380.44V95.01H385.41V92.98H378.08Z" fill="#1A4680"/>
<path fill-rule="evenodd" clip-rule="evenodd" d="M65.2695 99.4601H99.4196V98.4501H65.2695V99.4601Z" fill="#1A4680"/>
<path fill-rule="evenodd" clip-rule="evenodd" d="M390.779 99.4601H424.929V98.4501H390.779V99.4601Z" fill="#1A4680"/>
</g>
</svg>
