<svg width="213" height="102" viewBox="0 0 213 102" fill="none" xmlns="http://www.w3.org/2000/svg">
<path fill-rule="evenodd" clip-rule="evenodd" d="M212.79 73.7601H91.4297L127.76 0.810059H212.79V73.7601Z" fill="#00A0E4"/>
<path fill-rule="evenodd" clip-rule="evenodd" d="M0.890625 0.800049H122.291L85.9607 73.75H0.890625V0.800049Z" fill="#00A651"/>
<path fill-rule="evenodd" clip-rule="evenodd" d="M42.5204 60.79H171C207.71 57.87 205.5 16.75 171 13.99H42.5204C8.18039 16.75 6.02039 57.86 42.5204 60.79Z" fill="white"/>
<path fill-rule="evenodd" clip-rule="evenodd" d="M45.231 24.2501H50.741V50.3601H45.231V24.2501ZM45.231 24.2501H50.741H45.231ZM169.391 39.5901C169.391 42.1301 169.181 44.0001 169.181 45.0601C169.181 46.1201 168.841 47.2601 168.291 48.2001C167.911 49.0901 167.191 49.6401 166.261 50.1901C165.371 50.7401 164.441 50.9101 163.171 50.9101C162.071 50.9101 161.181 50.7401 160.251 50.1901C159.361 49.8501 158.641 49.0901 158.091 48.2001C157.541 47.2701 157.331 46.1701 157.161 45.0601V29.5501C157.331 28.2401 157.541 27.3501 158.091 26.4101C158.641 25.5201 159.361 24.8001 160.251 24.4201C161.181 23.8701 162.071 23.7001 163.171 23.7001C164.441 23.7001 165.371 23.8701 166.091 24.4201C167.021 24.8001 167.741 25.5201 168.291 26.4101C168.841 27.3401 169.181 28.2301 169.181 29.5501C169.181 30.4401 169.391 32.4701 169.391 35.0201V39.6001V39.5901ZM164.091 30.9901C164.091 29.7201 164.091 29.0001 163.881 28.6201C163.711 28.2401 163.541 28.0701 163.161 28.0701C162.991 28.0701 162.821 28.2401 162.611 28.6201C162.441 28.7901 162.271 29.5501 162.271 30.9901V43.2401C162.271 44.6801 162.441 45.6101 162.611 46.0001C162.611 46.3401 162.991 46.5501 163.161 46.5501C163.541 46.5501 163.711 46.3401 163.881 45.7901C164.091 45.4501 164.091 44.5201 164.091 42.9101V31.0001V30.9901ZM149.851 24.2501H154.941V50.3601H149.851V24.2501ZM149.851 24.2501H154.941H149.851ZM148.581 24.2501L145.441 35.9501L148.751 50.3601H143.281L141.081 39.2101V50.3601H135.781V24.2501H141.081V34.3001L143.451 24.2501H148.581ZM133.791 39.5901C133.791 42.1301 133.791 44.0001 133.621 45.0601C133.621 46.1601 133.241 47.2601 132.691 48.2001C132.311 49.0901 131.591 49.6401 130.701 50.1901C129.771 50.7401 128.881 50.9101 127.561 50.9101C126.501 50.9101 125.571 50.7401 124.681 50.1901C123.751 49.8501 123.031 49.0901 122.651 48.2001C122.101 47.2701 121.761 46.1701 121.761 45.0601C121.551 44.1301 121.551 42.1401 121.551 39.5901V35.0101C121.551 32.4701 121.551 30.6401 121.761 29.5401C121.761 28.2301 122.101 27.3401 122.481 26.4001C123.031 25.5101 123.751 24.7901 124.681 24.4101C125.401 23.8601 126.501 23.6901 127.561 23.6901C128.871 23.6901 129.761 23.8601 130.701 24.4101C131.421 24.7901 132.141 25.5101 132.691 26.4001C133.241 27.3301 133.411 28.2201 133.621 29.5401C133.791 30.4301 133.791 32.4601 133.791 35.0101V39.5901ZM128.491 30.9901C128.491 29.7201 128.491 29.0001 128.321 28.6201C128.321 28.2401 127.941 28.0701 127.561 28.0701C127.221 28.0701 127.221 28.2401 127.051 28.6201C126.841 28.7901 126.841 29.5501 126.841 30.9901V43.2401C126.841 44.6801 126.841 45.6101 127.051 46.0001C127.051 46.3401 127.221 46.5501 127.561 46.5501C127.941 46.5501 128.321 46.3401 128.321 45.7901C128.491 45.4501 128.491 44.5201 128.491 42.9101V31.0001V30.9901ZM120.271 24.2501V29.5501H117.181V50.3601H111.881V29.5501H108.791V24.2501H120.281H120.271ZM101.491 37.3901H108.231V41.8001H101.491V37.3901ZM101.491 37.3901H108.231H101.491ZM100.221 39.5901C100.221 42.1301 100.011 44.0001 99.8411 45.0601C99.8411 46.1601 99.4609 47.2601 98.9109 48.2001C98.4009 49.0901 97.8509 49.6401 96.9209 50.1901C96.0309 50.7401 94.931 50.9101 94.001 50.9101C92.901 50.9101 91.8409 50.7401 90.9109 50.1901C89.9809 49.8501 89.4709 49.0901 88.7109 48.2001C88.3709 47.2701 87.991 46.1701 87.821 45.0601C87.611 44.1301 87.6111 42.1401 87.6111 39.5901V35.0101C87.6111 32.4701 87.611 30.6401 87.821 29.5401C87.991 28.2301 88.1609 27.3401 88.7109 26.4001C89.4709 25.5101 89.9809 24.7901 90.9109 24.4101C91.6309 23.8601 92.731 23.6901 94.001 23.6901C94.931 23.6901 96.031 23.8601 96.761 24.4101C97.861 24.7901 98.4109 25.5101 98.9209 26.4001C99.4709 27.3301 99.8511 28.2201 99.8511 29.5401C100.021 30.4301 100.231 32.4601 100.231 35.0101V39.5901H100.221ZM94.7109 30.9901C94.7109 29.7201 94.711 29.0001 94.541 28.6201C94.541 28.2401 94.371 28.0701 93.991 28.0701C93.651 28.0701 93.271 28.2401 93.271 28.6201C93.101 28.7901 93.1011 29.5501 93.1011 30.9901V46.0001C93.2711 46.3401 93.441 46.5501 93.821 46.5501C94.371 46.5501 94.541 46.3401 94.541 45.7901C94.711 45.4501 94.7109 44.5201 94.7109 42.9101V31.0001V30.9901ZM85.981 35.5701H80.511V28.6201C80.301 28.2401 80.131 28.0701 79.751 28.0701C79.201 28.0701 79.0311 28.2401 78.8611 28.7901C78.6911 29.1701 78.6909 29.8901 78.6909 31.2101V43.4601C78.6909 44.6901 78.6911 45.6201 78.8611 46.0001C79.0311 46.3401 79.201 46.5501 79.751 46.5501C80.131 46.5501 80.301 46.3401 80.511 46.0001V39.9401H85.981V40.8701C85.981 43.6301 85.7711 45.6201 85.6011 46.7201C85.2211 47.8201 84.5011 48.9201 83.6111 49.6401C82.5111 50.5301 81.241 50.9101 79.751 50.9101C78.141 50.9101 76.8309 50.5301 75.9409 49.8501C74.8409 49.0901 74.121 48.2001 73.741 46.7101C73.401 45.6101 73.1909 43.6201 73.1909 41.0301V33.5301C73.1909 31.5401 73.4009 30.2701 73.4009 29.1601C73.5709 28.2301 73.7409 27.3401 74.4609 26.4001C74.8409 25.6801 75.561 24.9601 76.491 24.4101C77.211 23.8601 78.4811 23.6901 79.5811 23.6901C81.0211 23.6901 82.3411 24.0301 83.6111 24.7901C84.5011 25.6801 85.2211 26.6101 85.6011 27.8801C85.7711 28.9801 85.981 30.6401 85.981 33.1801V35.5501V35.5701ZM63.1309 24.2501H72.071V29.5501H68.4209V34.4701H71.731V39.3901H68.4209V50.3701H63.1211V24.2601L63.1309 24.2501ZM52.9109 24.2501H61.8511V29.5501H58.2009V34.4701H61.511V39.3901H58.2009V50.3701H52.9009V24.2601L52.9109 24.2501ZM10.9409 81.8101H6.23096V82.1901H10.041C10.041 83.4201 8.56096 84.5201 6.23096 84.5201C3.31096 84.5201 2.25098 83.2501 2.25098 81.8101C2.25098 80.5401 3.31096 79.0501 6.23096 79.0501C8.22096 79.0501 9.49089 79.9801 9.66089 80.5301H10.761C10.211 79.2201 8.56095 78.5001 6.22095 78.5001C2.74095 78.5001 1.13086 80.1501 1.13086 81.8101C1.13086 83.4701 2.74095 85.0701 6.22095 85.0701C7.66095 85.0701 9.27101 84.7301 10.031 83.8001V84.9001H10.9209V81.8101H10.9409ZM205.121 84.9001H212.581V84.5201H206.221V81.9801H212.201V81.4301H206.221V79.2301H212.581V78.6801H205.121V84.9101V84.9001ZM199.861 80.5301C199.691 79.2201 197.491 78.5001 195.491 78.5001C192.061 78.5001 190.451 80.1501 190.451 81.8101C190.451 83.4701 192.061 85.0701 195.491 85.0701C198.251 85.0701 199.861 83.9701 200.031 82.5301H198.971C198.761 83.6301 197.491 84.5201 195.491 84.5201C192.781 84.5201 191.341 83.2501 191.341 81.8101C191.341 80.5401 192.781 79.0501 195.491 79.0501C197.141 79.0501 198.411 79.6001 198.971 80.5301H199.861ZM176.841 84.9001H177.941V79.6001L184.091 84.9001H185.361V78.6701H184.261V83.9701L177.941 78.6701H176.841V84.9001ZM162.681 84.9001H163.781L165.051 83.0801H169.921L171.401 84.9001H172.291L168.141 78.6701H167.041L162.671 84.9001H162.681ZM167.601 79.2201L169.591 82.5301H165.391L167.591 79.2201H167.601ZM150.351 84.9001H151.281V82.1901H155.261C157.251 82.1901 157.251 83.0801 157.421 83.9701C157.421 84.1801 157.421 84.7301 157.591 84.9001H158.861C158.351 84.7301 158.351 83.8001 158.351 83.2501C158.141 82.5301 157.801 81.9801 156.531 81.9801C157.801 81.8101 158.521 81.0901 158.521 80.3301C158.521 79.2301 157.081 78.6801 155.261 78.6801H150.341V84.9101L150.351 84.9001ZM151.281 79.2201H155.261C156.701 79.2201 157.421 79.7701 157.421 80.3201C157.421 81.2501 156.531 81.6301 155.261 81.6301H151.281V79.2101V79.2201ZM136.401 82.7401C136.401 83.9701 137.671 85.0701 140.551 85.0701C143.431 85.0701 144.751 83.9701 144.751 82.7401V78.6701H143.651V82.5301C143.651 83.9701 142.551 84.5201 140.561 84.5201C138.571 84.5201 137.511 83.9701 137.511 82.5301V78.6701H136.411V82.7401H136.401ZM122.961 82.8701C122.791 84.5201 124.781 85.0701 127.161 85.0701C130.971 85.0701 131.311 83.6301 131.311 83.2501C131.311 82.1901 130.211 81.8101 128.601 81.6401L125.891 81.2601C125.171 81.2601 124.451 80.8801 124.451 80.3301C124.451 79.4401 125.511 79.0601 127.161 79.0601C128.601 79.0601 129.871 79.4401 129.871 80.5401H130.971C130.971 79.2301 129.151 78.5101 127.161 78.5101C123.901 78.5101 123.351 79.7801 123.351 80.3301C123.351 81.2601 124.451 81.6401 125.721 81.8101L128.221 82.1901C129.151 82.3601 130.421 82.5301 130.421 83.2501C130.421 84.1801 128.601 84.5201 127.501 84.5201C125.511 84.5201 123.901 84.1801 123.901 82.8701H122.971H122.961ZM109.181 84.9001H110.451V79.6001L116.641 84.9001H117.911V78.6701H116.811V83.9701L110.661 78.6701H109.181V84.9001ZM102.651 84.9001H103.751V78.6701H102.651V84.9001ZM81.791 84.9001H88.8711V84.5201H82.7209V78.6701H81.791V84.9001ZM67.6709 84.9001H68.731L70.001 83.0801H74.9209L76.1909 84.9001H77.291L73.0911 78.6701H71.991L67.6709 84.9001ZM72.541 79.2201L74.531 82.5301H70.2109L72.541 79.2201ZM55.3311 84.9001H56.2209V82.1901H60.2009C62.1909 82.1901 62.4009 83.0801 62.4009 83.9701C62.4009 84.1801 62.401 84.7301 62.741 84.9001H63.6709C63.2909 84.7301 63.291 83.8001 63.291 83.2501C63.121 82.5301 62.741 81.9801 61.301 81.9801C62.741 81.8101 63.4609 81.0901 63.4609 80.3301C63.4609 79.2301 62.0209 78.6801 60.2009 78.6801H55.3311V84.9101V84.9001ZM56.2209 79.2201H60.2009C61.6809 79.2201 62.4009 79.7701 62.4009 80.3201C62.4009 81.2501 61.3009 81.6301 60.2009 81.6301H56.2209V79.2101V79.2201ZM42.821 84.9001H50.241V84.5201H43.8809V81.9801H49.9009V81.4301H43.8809V79.2301H50.241V78.6801H42.821V84.9101V84.9001ZM28.6609 84.9001H29.761V79.6001L36.1211 84.9001H37.1809V78.6701H36.1211V83.9701L29.9309 78.6701H28.6609V84.9001ZM16.321 84.9001H23.781V84.5201H17.251V81.9801H23.4009V81.4301H17.251V79.2301H23.781V78.6801H16.321V84.9101V84.9001ZM149.511 98.2101C149.131 98.5501 148.791 98.9301 148.411 99.3101C148.071 99.8601 147.691 100.2 147.521 100.92V101.47H147.691C148.241 101.3 148.791 100.92 149.511 100.37C150.061 99.8601 150.611 99.3101 150.781 98.7601V98.3801H150.611C150.401 98.2101 150.231 98.2101 150.231 98.2101H149.511Z" fill="black"/>
<path fill-rule="evenodd" clip-rule="evenodd" d="M0.890625 89.78V94.19H77.3208L79.4807 89.95L0.890625 89.78Z" fill="#00A651"/>
<path fill-rule="evenodd" clip-rule="evenodd" d="M212.331 94.19V89.78H84.9509L82.791 94.02L212.331 94.19Z" fill="#00A0E4"/>
</svg>
