<svg width="145" height="144" viewBox="0 0 145 144" fill="none" xmlns="http://www.w3.org/2000/svg">
<path fill-rule="evenodd" clip-rule="evenodd" d="M72.481 0.140015L76.1411 0.220015L79.751 0.510015L83.3711 0.960015L86.9111 1.57001L90.4009 2.40001L93.771 3.38001L97.1011 4.49001L100.391 5.81002L103.551 7.25001L106.671 8.81001L109.631 10.58L112.551 12.42L115.391 14.44L118.061 16.53L120.651 18.8L123.161 21.18L125.541 23.64L127.761 26.23L129.901 28.95L131.911 31.74L133.761 34.66L135.491 37.66L137.091 40.74L138.531 43.95L139.801 47.2L140.951 50.52L141.901 53.94L142.721 57.43L143.341 60.96L143.791 64.54L144.081 68.16L144.201 71.81L144.081 75.47L143.791 79.09L143.341 82.71L142.721 86.24L141.901 89.69L140.951 93.1L139.801 96.43L138.531 99.68L137.091 102.89L135.491 105.97L133.761 108.97L131.911 111.89L129.901 114.68L127.761 117.39L125.541 119.98L123.161 122.49L120.651 124.83L118.061 127.09L115.391 129.23L112.551 131.2L109.631 133.09L106.671 134.82L103.551 136.42L100.391 137.86L97.1011 139.14L93.771 140.25L90.4009 141.23L86.9111 142.05L83.3711 142.67L79.8008 143.12L76.1411 143.41L72.481 143.49L68.8208 143.41L65.1611 143.12L61.5908 142.67L58.0908 142.05L54.6411 141.23L51.1909 140.25L47.8608 139.14L44.6108 137.86L41.4512 136.42L38.3711 134.82L35.3711 133.09L32.4512 131.2L29.6509 129.23L26.9409 127.09L24.311 124.83L21.8408 122.49L19.501 119.98L17.2012 117.39L15.1011 114.68L13.0908 111.89L11.2412 108.97L9.51074 105.97L7.91113 102.89L6.47119 99.68L5.20117 96.43L4.05078 93.1L3.06104 89.69L2.28076 86.24L1.62109 82.71L1.1709 79.09L0.880859 75.47L0.800781 71.81L0.880859 68.16L1.1709 64.54L1.62109 60.96L2.28076 57.43L3.06104 53.94L4.05078 50.52L5.20117 47.2L6.47119 43.95L7.91113 40.74L9.51074 37.66L11.2412 34.66L13.0908 31.74L15.1011 28.95L17.2012 26.23L19.501 23.64L21.8408 21.18L24.311 18.8L26.9409 16.53L29.6509 14.44L32.4512 12.42L35.3711 10.58L38.3711 8.81001L41.4512 7.25001L44.6108 5.81002L47.8608 4.49001L51.1909 3.38001L54.6411 2.40001L58.0908 1.57001L61.5908 0.960015L65.1611 0.510015L68.8208 0.220015L72.481 0.140015Z" fill="white"/>
<path d="M72.481 0.140015L76.1411 0.220015L79.751 0.510015L83.3711 0.960015L86.9111 1.57001L90.4009 2.40001L93.771 3.38001L97.1011 4.49001L100.391 5.81002L103.551 7.25001L106.671 8.81001L109.631 10.58L112.551 12.42L115.391 14.44L118.061 16.53L120.651 18.8L123.161 21.18L125.541 23.64L127.761 26.23L129.901 28.95L131.911 31.74L133.761 34.66L135.491 37.66L137.091 40.74L138.531 43.95L139.801 47.2L140.951 50.52L141.901 53.94L142.721 57.43L143.341 60.96L143.791 64.54L144.081 68.16L144.201 71.81L144.081 75.47L143.791 79.09L143.341 82.71L142.721 86.24L141.901 89.69L140.951 93.1L139.801 96.43L138.531 99.68L137.091 102.89L135.491 105.97L133.761 108.97L131.911 111.89L129.901 114.68L127.761 117.39L125.541 119.98L123.161 122.49L120.651 124.83L118.061 127.09L115.391 129.23L112.551 131.2L109.631 133.09L106.671 134.82L103.551 136.42L100.391 137.86L97.1011 139.14L93.771 140.25L90.4009 141.23L86.9111 142.05L83.3711 142.67L79.8008 143.12L76.1411 143.41L72.481 143.49L68.8208 143.41L65.1611 143.12L61.5908 142.67L58.0908 142.05L54.6411 141.23L51.1909 140.25L47.8608 139.14L44.6108 137.86L41.4512 136.42L38.3711 134.82L35.3711 133.09L32.4512 131.2L29.6509 129.23L26.9409 127.09L24.311 124.83L21.8408 122.49L19.501 119.98L17.2012 117.39L15.1011 114.68L13.0908 111.89L11.2412 108.97L9.51074 105.97L7.91113 102.89L6.47119 99.68L5.20117 96.43L4.05078 93.1L3.06104 89.69L2.28076 86.24L1.62109 82.71L1.1709 79.09L0.880859 75.47L0.800781 71.81L0.880859 68.16L1.1709 64.54L1.62109 60.96L2.28076 57.43L3.06104 53.94L4.05078 50.52L5.20117 47.2L6.47119 43.95L7.91113 40.74L9.51074 37.66L11.2412 34.66L13.0908 31.74L15.1011 28.95L17.2012 26.23L19.501 23.64L21.8408 21.18L24.311 18.8L26.9409 16.53L29.6509 14.44L32.4512 12.42L35.3711 10.58L38.3711 8.81001L41.4512 7.25001L44.6108 5.81002L47.8608 4.49001L51.1909 3.38001L54.6411 2.40001L58.0908 1.57001L61.5908 0.960015L65.1611 0.510015L68.8208 0.220015L72.481 0.140015Z" stroke="#383336" stroke-width="0.22" stroke-miterlimit="2.61"/>
<path fill-rule="evenodd" clip-rule="evenodd" d="M126.542 69.49C127.742 69.49 128.752 70.45 128.752 71.7C128.752 72.95 127.752 73.91 126.542 73.91C125.332 73.91 124.332 72.91 124.332 71.7C124.332 70.49 125.292 69.49 126.542 69.49Z" fill="#0D0F8C"/>
<path d="M126.542 69.49C127.742 69.49 128.752 70.45 128.752 71.7C128.752 72.95 127.752 73.91 126.542 73.91C125.332 73.91 124.332 72.91 124.332 71.7C124.332 70.49 125.292 69.49 126.542 69.49Z" stroke="#383336" stroke-width="0.22" stroke-miterlimit="2.61"/>
<path fill-rule="evenodd" clip-rule="evenodd" d="M18.542 69.49C19.782 69.49 20.752 70.45 20.752 71.7C20.752 72.95 19.792 73.91 18.542 73.91C17.292 73.91 16.332 72.91 16.332 71.7C16.332 70.49 17.332 69.49 18.542 69.49Z" fill="#0D0F8C"/>
<path d="M18.542 69.49C19.782 69.49 20.752 70.45 20.752 71.7C20.752 72.95 19.792 73.91 18.542 73.91C17.292 73.91 16.332 72.91 16.332 71.7C16.332 70.49 17.332 69.49 18.542 69.49Z" stroke="#383336" stroke-width="0.22" stroke-miterlimit="2.61"/>
<path fill-rule="evenodd" clip-rule="evenodd" d="M129.03 76.15C129.27 76.15 129.51 76.23 129.67 76.43C129.83 76.59 129.911 76.79 129.911 77.03C129.871 77.27 129.79 77.47 129.59 77.59C129.43 77.75 129.191 77.83 128.911 77.83C128.671 77.79 128.471 77.71 128.311 77.55C128.111 77.35 128.03 77.15 128.07 76.91C128.07 76.71 128.191 76.51 128.351 76.35C128.551 76.19 128.75 76.11 129.03 76.15ZM128.951 82.97L121.48 81.65L121.681 80.49C121.881 79.45 122.321 78.72 123.041 78.28C123.721 77.88 124.731 77.8 125.971 78C126.731 78.12 127.33 78.36 127.82 78.64C128.3 78.92 128.7 79.28 128.94 79.76C129.1 80 129.181 80.32 129.221 80.64C129.261 80.96 129.221 81.4 129.141 81.96L128.94 82.96L128.951 82.97ZM127.831 81.4V81.28C127.911 80.8 127.791 80.4 127.431 80.08C127.071 79.72 126.55 79.52 125.78 79.36C124.94 79.24 124.341 79.24 123.891 79.44C123.451 79.6 123.21 79.96 123.09 80.48V80.56L127.831 81.4ZM128.03 86.7L122.05 85.21L121.771 86.25L120.411 85.89L121.25 82.48L122.61 82.84L122.371 83.84L128.351 85.37L128.03 86.69V86.7ZM126.67 90.87L119.491 88.42L119.931 87.1L125.71 89.11L126.23 87.58L127.63 88.06L126.67 90.87ZM124.061 97.01L120.891 95.4L116.601 95L117.241 93.72L118.681 93.92C118.921 93.96 119.16 94 119.44 94.04C119.68 94.08 119.921 94.16 120.201 94.2C119.961 94.04 119.761 93.84 119.561 93.68C119.401 93.52 119.241 93.36 119.081 93.2L118.041 92.12L118.681 90.92L121.53 94.17L124.701 95.82L124.061 97.02V97.01ZM120.771 102.83L114.19 99.06L114.911 97.82L119.121 98.66C119.281 98.7 119.48 98.74 119.76 98.82C120 98.86 120.321 98.98 120.681 99.06C120.201 98.86 119.76 98.66 119.36 98.46C118.92 98.26 118.561 98.1 118.241 97.9L115.71 96.42L116.351 95.34L122.931 99.11L122.291 100.23L117.831 99.43C117.751 99.43 117.51 99.35 117.07 99.23C116.87 99.15 116.71 99.11 116.59 99.07C116.87 99.19 117.151 99.35 117.471 99.51C117.791 99.67 118.19 99.91 118.63 100.15L121.4 101.76L120.76 102.84L120.771 102.83ZM117.44 107.61L112.061 102.03L112.86 100.83L120 103.8L119.241 104.92L118 104.36L117.241 105.52L118.201 106.44L117.44 107.6V107.61ZM116.4 104.68L116.92 103.92C116.4 103.68 115.92 103.44 115.4 103.2C114.88 102.92 114.32 102.64 113.75 102.32C114.19 102.72 114.63 103.08 115.07 103.48C115.51 103.88 115.951 104.28 116.391 104.68H116.4ZM114.63 110.58L108.931 105.6L109.851 104.52C110.371 103.92 110.85 103.6 111.38 103.56C111.9 103.52 112.46 103.76 113.03 104.24C113.55 104.72 113.831 105.2 113.911 105.73C113.951 106.25 113.791 106.77 113.351 107.25C113.311 107.33 113.27 107.37 113.23 107.41C113.23 107.41 113.204 107.437 113.15 107.49L115.521 109.54L114.641 110.58H114.63ZM112.26 106.73C112.26 106.73 112.3 106.73 112.34 106.69C112.34 106.65 112.38 106.65 112.38 106.65C112.58 106.41 112.661 106.17 112.621 105.93C112.581 105.69 112.421 105.49 112.181 105.25C111.901 105.01 111.66 104.89 111.42 104.89C111.18 104.89 110.98 105.01 110.78 105.25L110.741 105.29C110.741 105.29 110.701 105.33 110.701 105.37L112.271 106.73H112.26ZM109.21 115.84L104.431 109.9L105.71 108.66L108 110.51C108.32 110.79 108.64 111.07 108.96 111.31C109.28 111.59 109.56 111.87 109.84 112.11C109.44 111.59 109.08 111.19 108.84 110.87C108.6 110.55 108.44 110.35 108.32 110.19L106.63 107.78L107.911 106.58L113.61 111.64L112.57 112.6L110.041 110.15C109.961 110.11 109.88 110.03 109.76 109.91C109.08 109.27 108.56 108.75 108.15 108.3L111.76 113.36L111.041 114.08L106.101 110.19C106.461 110.59 106.981 111.11 107.581 111.88C107.741 112.04 107.82 112.16 107.9 112.24L110.19 114.89L109.19 115.85L109.21 115.84ZM106.121 113.55C106.801 114.51 107.161 115.4 107.201 116.2C107.241 117 106.96 117.64 106.36 118.05C105.76 118.53 105.081 118.61 104.311 118.29C103.551 118.01 102.831 117.37 102.101 116.36C101.381 115.36 101.02 114.47 100.94 113.67C100.9 112.83 101.18 112.23 101.78 111.78C102.42 111.3 103.101 111.26 103.871 111.58C104.631 111.9 105.401 112.54 106.121 113.55ZM105.521 116.88C105.801 116.68 105.92 116.36 105.8 115.92C105.72 115.52 105.44 114.96 104.96 114.31C104.48 113.63 104.041 113.19 103.641 112.95C103.281 112.75 102.961 112.75 102.641 112.95C102.361 113.15 102.28 113.47 102.36 113.91C102.48 114.31 102.761 114.87 103.241 115.56C103.721 116.2 104.161 116.64 104.521 116.88C104.921 117.08 105.241 117.12 105.521 116.88ZM103.19 119.97C103.11 120.09 102.991 120.17 102.911 120.29C102.791 120.37 102.71 120.45 102.59 120.53C101.83 120.97 101.021 121.05 100.181 120.73C99.3407 120.41 98.6103 119.77 98.0503 118.8C97.4103 117.8 97.1705 116.83 97.2505 115.91C97.3305 115.03 97.7703 114.34 98.5303 113.9C98.6503 113.78 98.7707 113.74 98.9307 113.7C99.0507 113.62 99.2106 113.62 99.3306 113.58L100.09 114.82C99.9303 114.82 99.8104 114.86 99.6904 114.9C99.5704 114.94 99.4506 114.98 99.3306 115.06C98.9306 115.3 98.7305 115.66 98.7305 116.18C98.6905 116.74 98.8905 117.3 99.2505 117.95C99.6105 118.55 100.05 118.99 100.53 119.19C101.01 119.43 101.451 119.43 101.851 119.19C101.931 119.11 102.05 119.03 102.13 118.95C102.21 118.87 102.291 118.75 102.371 118.63L103.17 119.95L103.19 119.97ZM93.4805 124.95L90.6304 117.89L93.3604 116.81L93.8804 118.13L92.4004 118.69L92.9604 120.13L94.3203 119.57L94.8403 120.85L93.4805 121.41L94.1606 123.06L95.6504 122.46L96.1704 123.82L93.4805 124.94V124.95ZM92.0405 125.43C91.9605 125.51 91.8407 125.59 91.7207 125.67C91.6007 125.75 91.4804 125.79 91.3604 125.87C90.5204 126.15 89.7107 126.03 88.9507 125.55C88.1907 125.07 87.6303 124.31 87.2603 123.22C86.8603 122.1 86.8206 121.09 87.1006 120.25C87.3806 119.37 87.9405 118.81 88.7505 118.52C88.9105 118.44 89.0704 118.4 89.1904 118.4H89.6304L90.1104 119.72C89.9503 119.72 89.7904 119.72 89.6704 119.76C89.5504 119.76 89.4305 119.8 89.3105 119.84C88.8705 119.96 88.5907 120.32 88.4707 120.8C88.3507 121.32 88.3904 121.92 88.6304 122.65C88.8704 123.33 89.1904 123.81 89.6304 124.13C90.0304 124.45 90.4706 124.53 90.9106 124.37C91.0306 124.33 91.1505 124.29 91.2305 124.21C91.3505 124.13 91.4303 124.05 91.5503 123.97L92.0303 125.41L92.0405 125.43ZM82.8506 128L81.1206 120.62L82.5205 120.3L84.8105 123.95C84.8505 124.07 84.9703 124.27 85.0903 124.51C85.2503 124.75 85.3703 125.03 85.5703 125.39C85.3703 124.87 85.2103 124.43 85.0903 123.99C84.9303 123.55 84.8105 123.15 84.7305 122.79L84.0903 119.94L85.3306 119.66L87.0605 127.04L85.7803 127.32L83.3706 123.55C83.3306 123.47 83.2107 123.23 82.9707 122.83C82.8907 122.63 82.8105 122.47 82.7705 122.39C82.8505 122.67 82.9703 122.99 83.0503 123.31C83.1303 123.67 83.2506 124.11 83.3706 124.59L84.0903 127.72L82.8506 128ZM77.1104 128.76L77.7905 121.05L79.2305 120.85L81.6807 128.19L80.2803 128.35L79.9204 127.07L78.5205 127.23L78.4805 128.59L77.1206 128.75L77.1104 128.76ZM78.6406 126.03L79.5605 125.95C79.4005 125.43 79.2406 124.87 79.0806 124.3C78.9606 123.74 78.8007 123.14 78.6807 122.49C78.6807 123.09 78.6806 123.65 78.6406 124.26V126.03ZM72.5405 128.96L72.3003 121.37L73.7407 121.33C74.5407 121.29 75.1007 121.45 75.4707 121.77C75.8307 122.09 76.0303 122.61 76.0703 123.38C76.0703 123.9 76.0306 124.34 75.8306 124.7C75.6706 125.02 75.3903 125.26 75.0303 125.38L76.5103 128.79L75.0303 128.87L73.7905 125.78L73.9106 128.91L72.5503 128.95L72.5405 128.96ZM73.7407 124.63H73.9004C74.2204 124.63 74.4206 124.51 74.5806 124.31C74.7006 124.15 74.7803 123.87 74.7803 123.51C74.7403 123.15 74.6605 122.87 74.5405 122.71C74.3805 122.55 74.1804 122.47 73.8604 122.51H73.6606L73.7407 124.64V124.63ZM71.4907 121.42L71.0903 126.16C71.0103 126.76 70.9707 127.16 70.9307 127.4C70.8907 127.64 70.8105 127.84 70.7305 128C70.5305 128.32 70.2507 128.56 69.9307 128.72C69.5707 128.88 69.1704 128.92 68.6904 128.88C68.1704 128.84 67.7707 128.72 67.4507 128.52C67.1707 128.32 66.9305 128 66.8105 127.64C66.7305 127.48 66.7304 127.28 66.6904 127C66.6904 126.76 66.7305 126.36 66.7705 125.8V125.56L67.1704 121.02L68.5703 121.14L68.1304 126.04C68.0904 126.64 68.0905 127.04 68.2104 127.24C68.2905 127.44 68.4905 127.52 68.7705 127.56C69.0905 127.6 69.2906 127.52 69.4106 127.32C69.5706 127.16 69.6504 126.76 69.6904 126.16L70.1304 121.3L71.4907 121.42ZM62.1006 127.72L62.3804 126.15C62.5004 126.35 62.6603 126.51 62.8203 126.63C62.9803 126.75 63.1403 126.83 63.3003 126.83C63.5003 126.91 63.7004 126.87 63.8604 126.75C64.0204 126.63 64.1407 126.47 64.1807 126.27C64.2207 125.99 64.1003 125.63 63.8203 125.23C63.7403 125.11 63.6606 125.03 63.6206 124.99C63.3006 124.47 63.1005 124.07 62.9805 123.71C62.9005 123.35 62.9005 122.99 62.9805 122.55C63.1005 121.91 63.3403 121.43 63.7803 121.11C64.1803 120.79 64.6607 120.67 65.1807 120.79C65.3807 120.79 65.5407 120.87 65.7407 120.99C65.9007 121.07 66.0603 121.19 66.2603 121.35L66.0205 122.67C65.7805 122.51 65.6205 122.39 65.5005 122.31C65.3805 122.23 65.2606 122.19 65.1406 122.15C64.9806 122.11 64.7806 122.15 64.6206 122.27C64.5006 122.39 64.3803 122.55 64.3403 122.75C64.3003 122.95 64.3404 123.15 64.3804 123.31C64.4604 123.51 64.6204 123.79 64.9004 124.19C65.2604 124.71 65.5006 125.11 65.5806 125.43C65.6606 125.71 65.6606 126.07 65.5806 126.47C65.4206 127.15 65.1407 127.67 64.7407 128C64.3007 128.32 63.7804 128.4 63.1704 128.28C62.9304 128.24 62.7303 128.2 62.5703 128.08C62.3703 128 62.2103 127.88 62.0903 127.72H62.1006ZM57.8105 126.8L58.1704 125.23C58.2904 125.47 58.4503 125.63 58.5703 125.75C58.7303 125.87 58.8903 125.95 59.0503 125.99C59.2903 126.03 59.4904 126.03 59.6504 125.91C59.8104 125.83 59.9307 125.67 59.9707 125.43C60.0507 125.15 59.9304 124.79 59.6504 124.39C59.5704 124.27 59.5307 124.19 59.4907 124.11C59.1707 123.63 58.9707 123.19 58.9307 122.83C58.8507 122.47 58.8507 122.11 58.9707 121.67C59.1307 121.07 59.4105 120.59 59.8105 120.27C60.2505 119.95 60.7305 119.87 61.2505 119.99C61.4505 120.07 61.6105 120.15 61.8105 120.23C61.9705 120.35 62.1305 120.47 62.2905 120.67L61.9707 121.95C61.7707 121.75 61.6107 121.63 61.4907 121.55C61.3707 121.47 61.2504 121.43 61.1704 121.39C60.9704 121.35 60.8104 121.39 60.6504 121.47C60.4904 121.59 60.3706 121.75 60.3306 121.95C60.2906 122.15 60.2906 122.31 60.3306 122.51C60.3706 122.71 60.5305 122.99 60.8105 123.39C61.1305 123.95 61.3306 124.35 61.4106 124.67C61.4506 124.99 61.4506 125.35 61.3306 125.71C61.1706 126.39 60.8907 126.87 60.4507 127.2C60.0107 127.48 59.4904 127.56 58.8804 127.4C58.6404 127.36 58.4407 127.28 58.2407 127.16C58.0807 127.08 57.9203 126.92 57.8003 126.8H57.8105ZM52.3906 125.36L56.5205 118.78L57.8804 119.26L56.7207 126.93L55.4404 126.45L55.6406 125.13L54.3604 124.65L53.6807 125.85L52.4004 125.37L52.3906 125.36ZM55.0005 123.63L55.8403 123.95C55.9603 123.39 56.0407 122.87 56.2007 122.3C56.3207 121.7 56.4406 121.1 56.6406 120.49C56.3606 121.01 56.0803 121.49 55.8403 122.02C55.5603 122.54 55.2805 123.1 55.0005 123.63ZM45.2104 122.14L50.0703 116.12L51.3906 116.76L49.3003 124.23L48.0605 123.63L48.4604 122.35L47.2207 121.71L46.4204 122.79L45.2207 122.15L45.2104 122.14ZM47.9805 120.74L48.8203 121.18C48.9803 120.66 49.1403 120.14 49.3403 119.57C49.5403 119.01 49.7405 118.45 49.9805 117.84C49.6605 118.32 49.3405 118.8 49.0205 119.28C48.6605 119.76 48.3405 120.24 47.9805 120.72V120.74ZM42.8403 120.78L46.7705 114.28L47.9707 115L44.0806 121.5L42.8403 120.78ZM37.9404 117.49L42.4004 111.35L43.3604 112.03C44.2404 112.67 44.7203 113.39 44.7603 114.24C44.8403 115.04 44.4807 115.97 43.7207 117.01C43.2807 117.61 42.8404 118.09 42.3604 118.41C41.9204 118.69 41.4004 118.85 40.8804 118.89C40.5604 118.93 40.2404 118.89 39.9604 118.77C39.6404 118.65 39.2803 118.45 38.8003 118.09L37.9604 117.49H37.9404ZM39.9106 117.17L39.9907 117.21C40.3907 117.53 40.7905 117.57 41.2305 117.41C41.7105 117.21 42.1503 116.81 42.5903 116.21C43.0703 115.53 43.3106 114.97 43.3506 114.48C43.3906 114.04 43.1905 113.64 42.7905 113.32L42.7104 113.28L39.9004 117.17H39.9106ZM33.2505 113.6L38.2305 107.86L39.2705 108.78L37.6606 112.79C37.5806 112.91 37.5004 113.11 37.3804 113.35C37.2604 113.59 37.1404 113.91 36.9404 114.23C37.2604 113.79 37.5403 113.39 37.7803 113.03C38.0603 112.67 38.3406 112.35 38.5806 112.03L40.5103 109.86L41.4707 110.7L36.4907 116.4L35.5303 115.56L37.1406 111.35C37.1406 111.35 37.3005 111.07 37.5005 110.67C37.6205 110.47 37.7007 110.31 37.7407 110.19C37.5807 110.47 37.3806 110.71 37.1406 110.99C36.9006 111.31 36.6203 111.63 36.3003 112.03L34.2104 114.44L33.2505 113.6ZM30.9204 111.31L36.5005 106.17L37.4604 107.17L31.8804 112.35L30.9204 111.31ZM30.1606 98.35L30.9604 99.51L28.4307 101.88C28.2307 102.08 27.9504 102.32 27.6704 102.56C27.3904 102.8 27.0704 103.08 26.6704 103.36L31.8906 100.83L32.5703 101.75L28.4004 105.8C28.6804 105.6 28.9607 105.4 29.2407 105.24C29.5607 105.04 29.8807 104.88 30.2007 104.72L33.4507 103.03L34.2505 104.15L27.2305 107.36L26.5503 106.36L29.5605 103.39C29.6805 103.23 29.8806 103.07 30.0806 102.87C30.3206 102.67 30.5603 102.47 30.8403 102.27C30.5203 102.47 30.2404 102.63 29.9604 102.75C29.7204 102.91 29.5204 103.03 29.3604 103.07L25.4707 104.88L24.7505 103.84L30.1704 98.34L30.1606 98.35ZM21.9307 99.23L28.5903 95.54L29.9907 98.11L28.7505 98.79L27.9907 97.43L26.6704 98.15L27.3506 99.39L26.1504 100.07L25.4707 98.83L23.9004 99.67L24.6606 101.07L23.3804 101.79L21.9404 99.22L21.9307 99.23ZM19.2803 93.81L26.1807 90.72L26.7803 92L23.6104 94.97C23.4904 95.05 23.3304 95.17 23.1304 95.37C22.8904 95.53 22.6506 95.73 22.3706 95.97C22.8106 95.69 23.2504 95.45 23.6504 95.25C24.0104 95.01 24.4105 94.85 24.7705 94.69L27.4204 93.49L27.9404 94.69L21.0005 97.74L20.4805 96.58L23.7305 93.45C23.8105 93.41 24.0106 93.25 24.3706 92.97C24.5306 92.85 24.6905 92.73 24.7705 92.65C24.5305 92.81 24.2106 92.97 23.8906 93.13C23.5706 93.29 23.1704 93.49 22.6904 93.69L19.7603 94.97L19.2803 93.81ZM16.8706 86.95L24.1704 84.98L24.9307 87.79L23.5703 88.15L23.1704 86.62L21.6904 87.02L22.0503 88.38L20.7305 88.74L20.3706 87.38L18.6406 87.82L19.0405 89.35L17.6006 89.75L16.8804 86.94L16.8706 86.95ZM15.4707 81.09L22.8906 79.52L23.1704 80.84L20.4404 81.44L20.7603 82.93L23.4907 82.37L23.7705 83.73L16.3403 85.3L16.0605 83.94L19.3105 83.26L18.9907 81.73L15.7407 82.41L15.4604 81.09H15.4707ZM15.0703 77.28L21.2104 76.52L21.0903 75.48L22.4507 75.28L22.8906 78.81L21.4907 78.97L21.3706 77.93L15.2305 78.65L15.0703 77.29V77.28Z" fill="#0D0F8C"/>
<path fill-rule="evenodd" clip-rule="evenodd" d="M26.8904 49.66L26.1302 51.55L23.4803 50.47L22.8402 52.04L23.6805 52.36C23.6805 52.36 23.8002 52.4 23.8402 52.48C23.9202 52.52 23.9202 52.56 23.8802 52.64C23.8002 52.84 23.4402 53.04 22.8402 53.28C22.2002 53.48 21.7603 53.52 21.4403 53.4C21.2403 53.32 21.2001 53.16 21.2801 52.96L22.4403 50.07L21.0804 49.51L19.7205 52.92L18.7601 52.52L21.1302 46.66L22.0902 47.02L21.5701 48.3L25.5804 49.91C25.7404 49.99 25.9003 49.95 26.0203 49.87C26.0603 49.83 26.1004 49.79 26.1404 49.67C26.1804 49.59 26.2601 49.51 26.3001 49.43L26.9002 49.67L26.8904 49.66ZM26.0101 44.68L23.9603 43.48L23.1204 44.96C23.2804 45 23.4403 45 23.5203 45C23.8803 45.08 24.1603 45.2 24.4403 45.36C24.9203 45.64 25.1605 46 25.1605 46.52C25.2005 46.56 25.1203 46.8 25.0403 47.2H25.3201C25.6001 47.16 25.8403 47 25.9603 46.8C26.1203 46.52 26.2005 46.16 26.2005 45.76C26.2005 45.16 26.1203 44.8 26.0003 44.68H26.0101ZM29.7405 44.44L28.7005 46.21L27.4202 45.49C27.4202 45.61 27.4202 45.73 27.3802 45.93C27.3402 46.25 27.2604 46.49 27.1404 46.69C26.7004 47.45 26.0202 47.81 25.0902 47.77C24.3702 47.73 23.9303 47.61 23.7303 47.41C23.8503 47.09 23.9305 46.85 23.9305 46.69C24.0105 46.13 23.8105 45.77 23.4105 45.53C23.3305 45.45 23.1705 45.45 22.9705 45.49C22.9305 45.49 22.8904 45.49 22.8104 45.53L22.0902 47.01L21.1302 46.65L22.6102 43.64L24.4202 40.71L25.3001 41.19L24.6204 42.35L28.3504 44.52C28.5504 44.6 28.6704 44.64 28.8304 44.56C28.8704 44.52 28.9501 44.4 29.0701 44.24C29.1101 44.2 29.1102 44.16 29.1502 44.12L29.7503 44.44H29.7405ZM33.6302 44L33.6702 44.6C33.5502 44.48 33.0303 44.56 32.1903 44.84C31.1502 45.12 30.4604 45.56 30.0604 46.12C29.9004 46.4 29.8201 46.68 29.8201 46.96C29.8201 47.24 29.9405 47.44 30.1805 47.6C30.3805 47.72 30.5805 47.68 30.7405 47.44C30.8205 47.28 30.9002 47.04 30.9403 46.76C30.9803 46.44 30.9803 46.28 30.9803 46.24L32.0604 46.4C32.0604 46.52 32.0203 46.68 31.9403 46.92C31.8603 47.12 31.7405 47.32 31.6605 47.48C31.4205 47.84 31.0603 48.08 30.5403 48.24C30.0203 48.4 29.6201 48.36 29.2601 48.12C28.9001 47.88 28.7005 47.6 28.6605 47.24C28.6205 46.88 28.7003 46.52 28.9803 46.12C29.2603 45.68 29.8202 45.24 30.6302 44.88C31.2302 44.6 31.8704 44.4 32.6404 44.2C33.2404 44.04 33.6004 44 33.6404 44H33.6302ZM42.4202 27.18L41.1004 25.25L39.7005 26.21C39.8205 26.29 39.9404 26.37 40.0604 26.45C40.3404 26.65 40.5405 26.89 40.7405 27.13C41.0605 27.61 41.1002 28.05 40.9002 28.49C40.9002 28.53 40.7403 28.73 40.5003 29.05C40.5803 29.09 40.6605 29.13 40.7405 29.17C41.0205 29.25 41.2603 29.21 41.5003 29.09C41.7803 28.89 41.9804 28.61 42.1404 28.25C42.4204 27.69 42.5002 27.33 42.4202 27.17V27.18ZM48.5203 27.18L46.7903 28.18L44.0203 23.44C43.2603 23.88 42.9002 23.96 42.1302 24.48L44.6204 28.01C44.7404 28.17 44.8603 28.25 45.0203 28.25C45.0603 28.21 45.1802 28.17 45.3802 28.05C45.4202 28.05 45.4603 28.01 45.5003 28.01L45.8602 28.53L44.2103 29.69L43.3304 28.49C43.2904 28.57 43.2102 28.73 43.1302 28.85C42.9702 29.13 42.7702 29.33 42.6102 29.49C41.8502 29.97 41.0901 30.01 40.2801 29.57C39.6401 29.25 39.2805 28.93 39.2005 28.69C39.4405 28.45 39.6005 28.25 39.6805 28.13C39.9605 27.65 39.9605 27.21 39.6805 26.85C39.6405 26.73 39.5201 26.69 39.3201 26.61C39.2801 26.61 39.2405 26.57 39.1605 26.57C38.3605 27.13 37.8802 27.61 37.1102 28.22L38.2303 29.58L36.8304 30.78C36.6704 30.86 36.6703 31.02 36.7503 31.22C36.8303 31.34 36.9501 31.38 37.0701 31.42C37.2301 31.42 37.3104 31.42 37.3904 31.38C37.3904 31.34 37.4702 31.22 37.5902 31.1C37.7102 30.9 37.8305 30.74 37.9505 30.62C38.2705 30.34 38.6701 30.22 39.0701 30.26C39.5101 30.26 39.8702 30.42 40.1102 30.74C40.4302 31.1 40.5505 31.54 40.4305 32.02C40.3505 32.46 40.1504 32.82 39.8304 33.06C39.3104 33.5 38.5905 33.7 37.7405 33.66C37.0205 33.62 36.6203 33.54 36.5003 33.42L36.5804 32.82C36.8604 33.02 37.2605 33.06 37.7005 33.02C38.1805 32.94 38.5803 32.74 38.9803 32.42C39.2203 32.22 39.4203 31.98 39.5403 31.7C39.6603 31.38 39.6603 31.18 39.5003 31.02C39.4203 30.94 39.3405 30.94 39.1805 30.98C39.1005 31.02 38.9801 31.1 38.7801 31.22C38.6201 31.34 38.5002 31.46 38.3802 31.62C38.2602 31.78 38.2205 31.9 38.1805 31.98C37.7805 32.02 37.4205 32.02 37.1805 31.98C36.9005 31.94 36.6202 31.86 36.4202 31.78L36.6204 32.02L35.3802 33.14L35.9803 33.78C36.0203 33.86 36.0604 33.9 36.1004 33.98C36.1404 34.02 36.1404 34.1 36.0604 34.18C35.9004 34.3 35.5002 34.34 34.8602 34.26C34.1802 34.18 33.7403 34.02 33.5403 33.82C33.3803 33.66 33.4204 33.5 33.5804 33.34L35.7103 31.33C35.7103 31.33 35.6302 31.29 35.5902 31.25C35.5102 31.13 35.4701 31.01 35.5101 30.85C35.5501 30.73 35.6303 30.57 35.7503 30.49L36.9105 29.53L36.3504 28.85C34.9104 30.09 33.6205 31.34 32.2205 32.66L31.4603 33.46L34.5501 36.43C34.7101 36.59 34.8705 36.63 34.9905 36.59C35.0705 36.55 35.1504 36.47 35.3104 36.35C35.3504 36.35 35.3505 36.31 35.4305 36.27L35.9105 36.71L34.5101 38.19L30.5804 34.38C30.0204 34.94 29.7405 35.42 29.2205 36.07L30.5403 37.11L29.2205 38.76C29.1405 38.88 29.1405 38.96 29.1805 39.08C29.2605 39.2 29.3403 39.28 29.4603 39.4C29.5403 39.44 29.6205 39.48 29.7405 39.52C29.8605 39.52 29.9403 39.52 30.0203 39.48C30.0203 39.48 30.0604 39.4 30.1404 39.24C30.2604 38.92 30.3803 38.68 30.5403 38.52C30.7803 38.16 31.1804 37.96 31.6204 37.92C32.0604 37.84 32.4601 37.96 32.8201 38.24C33.1001 38.48 33.3002 38.76 33.3402 39.12C33.4202 39.56 33.3805 39.96 33.1805 40.24L34.7503 40.04L34.7103 40.8L33.0203 40.76C33.0203 40.84 32.9005 41.04 32.6605 41.32C32.3405 41.68 32.0601 41.88 31.7801 41.96C31.5401 42 31.3404 41.92 31.1404 41.76C30.9804 41.64 30.8602 41.48 30.8602 41.28C30.8202 41.04 30.8603 40.88 30.9803 40.72C31.2203 40.44 31.5005 40.28 31.7405 40.2H32.1004C32.2204 39.92 32.3002 39.68 32.3402 39.52C32.4602 39.04 32.4205 38.72 32.2205 38.56C32.1005 38.48 32.0202 38.4 31.9002 38.4C31.8202 38.44 31.7004 38.52 31.5804 38.68C31.4604 38.8 31.3004 39.04 31.1404 39.36C30.9804 39.64 30.9403 39.84 30.9403 39.88C30.8202 39.96 30.5002 40 29.9403 40C29.2603 39.96 28.7003 39.8 28.2903 39.48C28.1703 39.36 28.0902 39.24 28.0902 39.08C28.0902 38.88 28.1303 38.76 28.2103 38.6L29.2103 37.4L28.5701 36.88L26.8802 38.93L26.1204 38.29L29.2503 34.44L29.9705 33.56C29.8505 33.56 29.6505 33.56 29.4505 33.52C29.0505 33.44 28.7701 33.28 28.5301 33.08C28.4901 33.04 28.4505 33 28.4505 33C28.1305 32.72 28.0101 32.36 28.0101 32C28.0101 31.6 28.2101 31.24 28.5701 30.84C29.0501 30.36 29.7304 29.96 30.5804 29.72C31.1804 29.52 31.8602 29.4 32.6302 29.32C32.9502 29.28 33.2301 29.28 33.5501 29.28V29.72C33.2701 29.6 32.6304 29.68 31.5804 29.96C30.8204 30.2 30.2203 30.56 29.7703 31.04C29.4503 31.36 29.2502 31.72 29.1702 32.04C29.1302 32.36 29.2105 32.64 29.4505 32.88C29.5705 33 29.8101 33.08 30.0501 33.12C30.1301 33.12 30.2505 33.12 30.4105 33.08L31.6502 31.8H31.6903C34.7803 28.91 37.6702 26.26 40.9202 24.01C42.4502 22.97 44.1701 22.2 45.8201 21.24L46.3402 22.12L45.1805 22.8L47.3104 26.53C47.3104 26.53 47.3905 26.61 47.4305 26.65C47.4705 26.69 47.5502 26.73 47.6302 26.73C47.7102 26.77 47.7905 26.73 47.9105 26.69C48.0305 26.65 48.1102 26.61 48.1903 26.57L48.5101 27.17L48.5203 27.18ZM58.9105 19.75L58.3104 17.46L56.6605 17.9C56.7805 18.06 56.8602 18.14 56.9002 18.26C57.1002 18.54 57.2202 18.82 57.3402 19.14C57.4602 19.66 57.3803 20.1 57.0203 20.46C56.9803 20.5 56.7802 20.66 56.4202 20.86C56.5002 20.94 56.5805 20.98 56.6605 21.06C56.8605 21.22 57.1002 21.26 57.3802 21.22C57.7002 21.14 57.9801 20.94 58.3001 20.66C58.7001 20.22 58.9002 19.94 58.9002 19.74L58.9105 19.75ZM63.8904 17.26C63.7704 16.58 63.4104 16.3 62.8104 16.38C62.5304 16.46 62.3703 16.54 62.2503 16.7C62.1303 16.86 62.0902 17.06 62.1302 17.26C62.2102 17.58 62.4902 17.82 63.0902 18.02C63.6102 18.18 63.8905 18.22 63.9705 18.18C63.9705 18.06 63.9705 17.9 63.9305 17.74C63.9305 17.58 63.9304 17.42 63.8904 17.26ZM64.8904 17.9C64.9704 18.46 64.9303 18.98 64.7703 19.47C64.6503 19.83 64.4101 20.23 64.0501 20.63L65.3304 21.63L64.8104 22.15L63.5701 20.91C63.5701 20.91 63.4503 20.99 63.2103 21.03C62.8503 21.11 62.5303 21.11 62.2903 21.03C61.9303 20.95 61.7302 20.71 61.6502 20.35C61.6102 20.15 61.6503 19.95 61.7703 19.79C61.8903 19.63 62.0904 19.55 62.3304 19.51C62.4904 19.47 62.6904 19.47 62.8504 19.51C63.0104 19.55 63.1303 19.63 63.2103 19.75C63.2903 19.71 63.3705 19.67 63.4505 19.55C63.5305 19.47 63.5702 19.39 63.6102 19.35C63.7702 19.15 63.8504 18.95 63.8504 18.67C63.6904 18.75 63.2501 18.67 62.5301 18.43C61.7301 18.11 61.2502 17.67 61.1302 17.07C61.0902 16.71 61.1704 16.39 61.3704 16.07C61.6104 15.79 61.9304 15.59 62.3704 15.51C62.9304 15.43 63.4903 15.63 63.9803 16.15C64.4603 16.63 64.7802 17.23 64.9002 17.92L64.8904 17.9ZM69.6702 18.18L69.5101 15.81L67.7801 15.93C67.8601 16.09 67.9403 16.21 67.9803 16.29C68.1003 16.61 68.1805 16.93 68.2205 17.25C68.2605 17.81 68.0605 18.21 67.6605 18.49C67.6205 18.53 67.3803 18.65 67.0203 18.77C67.0603 18.85 67.1405 18.93 67.1805 19.01C67.3805 19.21 67.6202 19.33 67.8602 19.29C68.1802 19.29 68.5402 19.17 68.8602 18.93C69.3802 18.61 69.6205 18.33 69.6605 18.17L69.6702 18.18ZM88.8504 19.91L89.2904 18.3C88.6904 18.14 88.1303 17.98 87.5203 17.86V18.26C87.4803 18.5 87.4402 18.7 87.4002 18.86C87.3602 19.02 87.3205 19.14 87.2405 19.3C87.2005 19.42 87.1204 19.54 87.0804 19.62C87.1204 19.66 87.2001 19.74 87.2801 19.82C87.4001 19.86 87.4804 19.94 87.6004 19.94C87.8004 20.02 88.0802 20.02 88.4002 19.98C88.5202 19.94 88.6802 19.94 88.8402 19.9L88.8504 19.91ZM89.8504 24.12C89.1704 23.92 88.5302 23.76 87.8802 23.6L88.5604 20.99C88.4804 20.99 88.3605 20.99 88.2405 20.95C88.0805 20.95 87.9601 20.91 87.8001 20.87C87.6001 20.83 87.4802 20.79 87.3602 20.71C87.2402 20.67 87.1203 20.51 87.0003 20.27C86.8803 20.11 86.8402 19.99 86.8402 19.95C86.8002 19.99 86.8001 20.03 86.7601 20.07C86.6401 20.23 86.4802 20.31 86.3602 20.39C86.2402 20.47 86.1202 20.51 85.9202 20.59C85.7602 20.63 85.6404 20.67 85.6004 20.67C85.6804 20.83 85.7601 20.95 85.8001 21.07C85.9201 21.35 86.0404 21.59 86.1204 21.83C86.2004 21.95 86.3604 22.23 86.6004 22.63C86.6804 22.83 86.7602 22.99 86.8402 23.15C86.6402 23.19 86.4005 23.23 86.1605 23.27C86.0005 23.27 85.6404 22.43 85.0404 20.82C84.7204 19.98 84.6005 19.42 84.6805 19.13C84.7205 19.05 84.7602 18.97 84.8402 18.93C84.9602 18.89 85.0404 18.85 85.1204 18.89C85.4004 18.97 85.6402 19.01 85.9202 19.09C86.0402 18.57 86.2001 18.05 86.3201 17.52C85.4801 17.28 84.7504 17.04 83.8704 16.88C83.6304 18.28 83.3902 19.69 83.1502 21.13C83.1102 21.29 83.1503 21.45 83.2303 21.53C83.3103 21.57 83.3505 21.61 83.4705 21.65C83.5505 21.65 83.6703 21.69 83.7503 21.73C83.7103 21.93 83.6702 22.17 83.6302 22.37C82.9902 22.25 82.3104 22.13 81.6204 22.01C81.8204 21.09 81.9804 20.12 82.1404 19.2C81.5805 19.08 81.0205 19 80.4905 18.88C80.4105 19.2 80.3704 19.48 80.3304 19.76C80.3304 19.84 80.2903 19.88 80.2503 19.96C80.2503 20.04 80.1702 20.08 80.0902 20.04C79.8902 20 79.6103 19.72 79.2503 19.12C78.9303 18.56 78.8104 18.12 78.8504 17.84C78.8904 17.6 79.0103 17.52 79.2503 17.56C80.2503 17.72 81.3002 17.92 82.3402 18.08C82.4202 17.6 82.5004 17.12 82.5804 16.64C80.9704 16.4 79.3705 16.12 77.7205 15.84C77.8005 16.04 77.8005 16.68 77.7205 17.53C77.6805 18.09 77.4804 18.53 77.0804 18.85C76.6804 19.09 76.4803 19.21 76.4803 19.21C76.5603 19.37 76.6405 19.49 76.6805 19.57C76.8405 19.81 76.9604 20.01 77.1204 20.21C77.2804 20.45 77.5201 20.73 77.7601 21.01C77.8801 21.17 78.0405 21.33 78.1605 21.49C78.0005 21.57 77.8404 21.65 77.6404 21.73C77.4804 21.77 76.8805 21.05 75.9105 19.52C75.4305 18.72 75.1903 18.12 75.1903 17.79C75.2303 17.55 75.3501 17.43 75.5501 17.47C75.8701 17.47 76.1505 17.51 76.4305 17.51C76.4705 16.95 76.5101 16.39 76.5501 15.82C75.7901 15.74 75.0701 15.78 74.3001 15.74C74.2601 17.18 74.2205 18.55 74.2205 19.99V20.15C74.2605 20.23 74.2602 20.27 74.3402 20.35C74.4202 20.39 74.5004 20.43 74.6204 20.47C74.7404 20.47 74.8203 20.47 74.9403 20.51C74.9403 20.71 74.9002 20.95 74.9002 21.15C74.2202 21.15 73.5804 21.15 72.8904 21.11C72.8904 19.3 72.9305 17.5 72.9705 15.65C72.1705 15.65 71.5701 15.61 70.7601 15.69L71.0804 19.98C71.0804 20.18 71.1601 20.3 71.2801 20.38C71.3601 20.38 71.4805 20.42 71.6805 20.42H71.8402C71.8402 20.62 71.8802 20.86 71.8802 21.06L69.8304 21.22L69.7503 19.74C69.6303 19.78 69.5104 19.86 69.3504 19.94C69.0704 20.1 68.7902 20.18 68.5902 20.18C67.7102 20.26 67.0203 19.9 66.5403 19.1C66.1803 18.5 66.0204 18.06 66.1004 17.78C66.4204 17.7 66.6601 17.62 66.7801 17.54C67.2601 17.26 67.5003 16.9 67.4603 16.46C67.4603 16.34 67.3805 16.22 67.2205 16.06C67.2205 16.02 67.1804 15.98 67.1404 15.94L65.6502 16.06L65.6102 15.06C68.1002 14.86 70.5505 14.62 72.9905 14.66L71.9505 13.18C71.8705 13.06 71.7502 12.98 71.6302 12.9C71.5102 12.86 71.3503 12.82 71.2303 12.82C70.9903 12.82 70.7505 12.82 70.4705 12.86C70.1905 12.9 70.0305 12.9 69.9905 12.9L69.5501 11.78H71.0301C71.3901 11.82 71.6705 11.98 71.9105 12.3C72.2305 12.7 72.5901 13.22 73.0301 13.91C73.1501 14.11 73.3101 14.35 73.5101 14.67C76.2001 14.79 78.6501 14.99 81.3001 15.43C84.9901 16.03 88.4404 17 92.0604 18L91.7801 18.96L90.5003 18.6L89.3802 22.69C89.3402 22.89 89.3803 23.09 89.5003 23.21C89.5403 23.29 89.5805 23.33 89.7005 23.33C89.7805 23.37 89.8603 23.41 89.9803 23.45L89.8201 24.09L89.8504 24.12ZM102.57 21.15L101.21 21.43L100.85 20.07L102.21 19.83L102.57 21.15ZM103.37 27.57L104.57 25.84L103.25 24.92L101.64 27.25C101.8 27.37 101.96 27.45 102.12 27.49C102.16 27.49 102.28 27.53 102.48 27.53C102.64 27.57 102.8 27.61 102.92 27.61C103 27.61 103.16 27.57 103.36 27.57H103.37ZM122.8 52.53L124.65 51.77L124.01 50.16L122.16 50.92L122.8 52.53ZM48.6302 19.74L48.9905 20.7L49.5501 20.46L50.6702 23.43C51.0702 23.47 51.4304 23.55 51.8304 23.59C52.4704 23.71 53.1502 23.83 53.9202 23.99C54.6802 24.15 55.0804 24.27 55.0804 24.35C55.1604 24.51 55.0802 24.71 54.8402 24.91C54.7602 24.99 54.6403 25.07 54.4803 25.19L55.6004 25.55C55.6804 25.51 55.8003 25.35 55.9603 25.07C56.1203 24.79 56.1604 24.51 56.0804 24.31C56.0404 24.15 55.9602 24.03 55.8402 23.95C55.6802 23.87 55.5602 23.83 55.3602 23.79L51.9905 23.07L50.7903 20.02L52.6004 19.3L53.4002 21.35C53.4402 21.47 53.4402 21.63 53.4002 21.75C53.4002 21.83 53.3601 21.91 53.2801 21.99C53.2001 22.07 53.1604 22.11 53.1204 22.15L54.3602 22.55C54.3602 22.55 54.4803 22.43 54.5203 22.31C54.6003 22.15 54.6805 22.03 54.6805 21.87C54.7205 21.71 54.7205 21.59 54.7205 21.47C54.7205 21.35 54.6804 21.19 54.6004 21.03L53.7601 18.86C54.7601 18.5 54.8401 18.46 56.0501 18.06C56.0901 18.1 56.1302 18.14 56.1702 18.18C56.3302 18.3 56.4505 18.38 56.4505 18.5C56.5705 18.94 56.4501 19.34 56.0101 19.7C55.8901 19.82 55.6504 19.94 55.3704 20.06C55.3704 20.34 55.5701 20.74 56.0501 21.26C56.6901 21.98 57.4101 22.18 58.2601 21.98C58.5001 21.9 58.7403 21.78 58.9803 21.58C59.1403 21.46 59.2201 21.38 59.3001 21.3L59.7005 22.74L61.6702 22.22L61.5101 21.58H61.3904C61.1904 21.62 61.0305 21.62 60.9505 21.62C60.8305 21.58 60.7102 21.5 60.6702 21.3L59.5501 17.13L60.8704 16.77L60.5902 15.81C58.3002 16.45 56.3405 16.93 54.4105 17.58C52.5605 18.18 50.7602 18.94 48.6302 19.75V19.74ZM113.05 31.62C113.21 31.18 113.29 30.82 113.33 30.58C113.49 29.82 113.37 29.22 113.01 28.85C112.77 28.61 112.53 28.49 112.33 28.53C112.13 28.53 111.93 28.65 111.73 28.85C111.57 28.97 111.491 29.17 111.451 29.45V29.85L111.05 29.41V28.85C111.13 28.41 111.33 28.05 111.57 27.77C111.89 27.49 112.25 27.33 112.61 27.37C113.01 27.37 113.37 27.57 113.77 27.97C114.25 28.49 114.33 29.29 114.05 30.46C113.93 30.82 113.731 31.34 113.451 32.03L114.65 33.27L113.93 33.99L113.01 33.03L109.92 36C109.76 36.16 109.72 36.28 109.76 36.44C109.76 36.48 109.8 36.56 109.88 36.64C109.92 36.72 110 36.8 110.04 36.88L109.56 37.32L108.16 35.88L112.09 32.07C111.21 31.23 111.45 31.43 110.36 30.55L107.59 33.84C107.47 34 107.431 34.12 107.471 34.28C107.511 34.32 107.55 34.36 107.63 34.44C107.71 34.52 107.79 34.6 107.83 34.68L107.43 35.2L105.86 33.88L107.71 31.67L106.43 30.59L105.87 31.27C105.87 31.27 105.75 31.39 105.71 31.43C105.63 31.47 105.59 31.47 105.51 31.39C105.35 31.27 105.27 30.87 105.27 30.19C105.23 29.55 105.35 29.07 105.55 28.87C105.67 28.67 105.83 28.67 106.03 28.83L108.44 30.84L109.36 29.72C108.08 28.64 106.95 27.51 105.63 26.59L103.18 30.12C103.06 30.28 103.06 30.44 103.1 30.56C103.14 30.64 103.18 30.72 103.26 30.76C103.34 30.84 103.42 30.88 103.5 30.96L103.1 31.48L101.451 30.32L102.61 28.67C102.45 28.59 102.33 28.55 102.25 28.55C101.97 28.43 101.73 28.35 101.61 28.27C101.33 28.07 101.13 27.67 101.01 27.03C100.93 26.55 100.89 26.27 100.93 26.11L102.25 24.22L101.85 23.94L98.9603 22.42L98.3201 23.78H98.6004C98.8404 23.82 99.0004 23.86 99.1204 23.9C99.5204 24.1 99.8403 24.46 100 24.98C100.16 25.5 100.12 26.02 99.8402 26.59C99.6402 27.03 99.3603 27.35 99.0003 27.63C98.8803 27.71 98.7203 27.79 98.5203 27.87L97.7205 26.51C97.8005 26.55 98.0403 26.55 98.4803 26.47C98.9603 26.35 99.2802 26.15 99.4002 25.91C99.5602 25.59 99.4003 25.31 98.9603 25.11C98.6803 24.95 98.3604 24.91 98.0804 24.99C97.9604 24.99 97.8405 25.03 97.6805 25.11L97.0804 26.31C97.0004 26.47 97.0004 26.63 97.0804 26.75C97.1204 26.79 97.2001 26.83 97.2801 26.87C97.3601 26.95 97.4403 26.99 97.5203 27.07L97.2405 27.63L95.4305 26.75L96.1102 25.31C95.9902 25.35 95.7901 25.35 95.5101 25.31C95.2301 25.31 95.0304 25.23 94.8704 25.15C94.4704 24.95 94.1901 24.59 94.0301 24.03C93.8701 23.47 93.8702 22.95 94.1102 22.5C94.3102 22.1 94.6302 21.9 95.1102 21.86C95.7902 21.78 96.3102 21.86 96.5902 22.1L96.7503 23.46C96.7503 23.46 96.6702 23.38 96.5902 23.34C96.2302 23.18 95.8701 23.06 95.5101 23.02C94.9901 22.94 94.6701 23.02 94.5101 23.3C94.4701 23.46 94.4305 23.58 94.4705 23.7C94.5105 23.78 94.6303 23.86 94.7503 23.9L94.9105 23.98C95.2705 24.18 95.6702 24.22 96.1502 24.18C96.3102 24.14 96.5103 24.1 96.7503 24.02L97.7904 21.85L94.8201 20.41L95.2601 19.49C97.9901 20.81 100 21.7 101.84 22.78C102.52 23.18 103.2 23.62 103.89 24.06C105.7 25.26 107.42 26.59 109.03 27.95C110.51 29.19 111.88 30.48 113.04 31.64L113.05 31.62ZM117.42 36.88C117.46 36.72 117.46 36.6 117.46 36.52C117.5 36.24 117.62 36.04 117.78 35.92C118.02 35.72 118.34 35.64 118.66 35.76C118.98 35.88 119.26 36.12 119.58 36.48C119.98 37 120.26 37.64 120.38 38.41C120.58 39.45 120.58 40.14 120.42 40.38L120.86 40.46C120.86 40.14 120.9 39.82 120.94 39.5C120.94 38.74 120.9 38.06 120.78 37.45C120.62 36.57 120.3 35.84 119.9 35.32C119.54 34.92 119.22 34.68 118.82 34.6C118.46 34.56 118.1 34.64 117.78 34.92C117.74 34.92 117.741 34.96 117.701 35C117.421 35.2 117.26 35.48 117.14 35.84C117.06 36.08 117.02 36.24 117.06 36.36L116.3 35.44L115.5 36.08L116.14 36.84L111.89 40.29L113.17 41.86L113.65 41.46C113.61 41.38 113.61 41.34 113.57 41.34C113.49 41.14 113.41 41.02 113.41 40.98C113.37 40.86 113.41 40.7 113.61 40.58L116.94 37.85C118.18 39.38 118.91 40.58 120.31 42.75L118.66 43.79L118.78 42.87C118.7 42.79 118.62 42.71 118.54 42.63C118.46 42.51 118.38 42.47 118.3 42.39C118.22 42.35 118.1 42.31 117.94 42.27C117.9 42.27 117.86 42.23 117.78 42.23C117.82 42.15 117.82 41.95 117.78 41.67C117.78 41.35 117.7 41.07 117.58 40.87C117.38 40.59 117.14 40.43 116.78 40.35C116.46 40.31 116.14 40.39 115.86 40.59C115.42 40.87 114.98 41.51 114.62 42.56C114.3 43.48 114.181 44 114.221 44.08L114.86 44.36C114.82 44.24 114.86 43.88 115.06 43.24C115.26 42.48 115.54 42 115.94 41.76C116.22 41.56 116.46 41.52 116.66 41.56C116.82 41.6 116.94 41.72 117.06 41.92C117.14 42 117.18 42.08 117.18 42.16C117.22 42.24 117.26 42.32 117.26 42.36L116.26 43L116.38 44.08L117.42 43.36C117.58 43.28 117.78 43.28 118.02 43.4C118.1 43.44 118.141 43.48 118.221 43.6C118.261 43.64 118.3 43.72 118.34 43.8C118.38 43.92 118.42 43.96 118.42 43.96L115.73 45.73L116.85 47.42L117.41 47.06C117.33 46.98 117.29 46.9 117.25 46.78C117.21 46.7 117.21 46.58 117.21 46.5C117.21 46.42 117.25 46.34 117.29 46.3C117.33 46.26 117.37 46.22 117.41 46.18L121.02 43.85L121.54 44.97L121.98 45.81L117.12 48.3L118.04 50.11L118.6 49.83C118.6 49.75 118.56 49.71 118.56 49.67C118.48 49.51 118.44 49.39 118.44 49.31C118.44 49.15 118.521 49.07 118.721 48.95L122.57 46.98L123.17 48.18L123.53 49.02L121.68 49.78L121.44 49.26C121.4 49.18 121.32 49.14 121.12 49.18C120.92 49.3 120.68 49.62 120.48 50.22C120.24 50.82 120.16 51.22 120.28 51.5C120.32 51.62 120.4 51.62 120.48 51.58L121.12 51.34L121.76 52.95L119.55 53.83L120.35 55.76L120.951 55.52C120.911 55.44 120.91 55.36 120.87 55.24C120.83 55.12 120.79 55 120.83 54.92C120.83 54.84 120.83 54.8 120.87 54.76C120.91 54.72 120.99 54.68 121.11 54.64L125.12 53.03L125.6 54.27H125.64L126.36 56.8L125.32 57.08L125 56.04C124.92 55.68 124.72 55.48 124.4 55.32C124.08 55.2 123.76 55.16 123.44 55.28C122.72 55.48 122.12 55.88 121.63 56.48C121.19 57.12 121.03 57.72 121.23 58.33C121.31 58.65 121.47 59.01 121.71 59.37C121.91 59.73 122.11 59.97 122.23 60.09L123.23 59.13C123.11 59.13 122.95 58.97 122.71 58.77C122.43 58.45 122.23 58.09 122.11 57.65C121.99 57.33 122.03 57.01 122.15 56.73C122.31 56.49 122.591 56.29 122.991 56.17C123.231 56.09 123.43 56.13 123.63 56.21C123.83 56.33 123.95 56.49 124.03 56.73L124.55 58.46L126.64 57.86C127.04 59.26 127.2 60.59 127.48 62.07L126.64 62.23L126.36 60.75C126.32 60.59 126.24 60.47 126.12 60.35C126 60.27 125.88 60.23 125.76 60.27C125.28 60.35 124.8 60.71 124.36 61.31C124.2 61.51 124.04 61.79 123.84 62.19C123.92 62.23 124 62.35 124.08 62.51C124.2 62.71 124.241 62.87 124.241 63.03C124.281 63.31 124.28 63.43 124.28 63.51C124.24 63.67 124.16 63.75 124.04 63.79C123.88 63.83 123.68 63.71 123.48 63.47C123.28 63.23 123.16 62.95 123.08 62.67C123 62.15 123.041 61.71 123.201 61.27C123.361 60.83 123.6 60.51 123.92 60.35L123.44 59.99C123.24 60.03 123 60.35 122.64 60.95C122.16 61.71 122 62.39 122.12 63.08C122.2 63.48 122.4 63.84 122.76 64.12C123.12 64.44 123.56 64.56 124 64.48C124.4 64.4 124.72 64.16 124.96 63.8C125.16 63.44 125.24 63.04 125.16 62.64C125.12 62.48 125.08 62.28 124.96 62.08C124.88 61.92 124.84 61.8 124.76 61.76C124.8 61.68 124.84 61.6 124.92 61.48C125 61.36 125.081 61.32 125.201 61.28C125.441 61.32 125.56 61.4 125.6 61.56L125.96 63.41L127.69 63.05L127.93 64.33L128.93 64.17C128.45 61.76 128.17 59.51 127.53 57.27C127.81 56.99 128.05 56.75 128.21 56.55C128.77 55.99 129.171 55.51 129.491 55.11C129.731 54.79 129.81 54.43 129.73 54.07L129.37 52.67L128.37 53.39C128.37 53.39 128.45 53.59 128.57 53.83C128.65 54.11 128.73 54.35 128.77 54.55C128.81 54.71 128.81 54.83 128.81 54.99C128.77 55.11 128.73 55.23 128.61 55.35L127.41 56.83C126.57 53.94 126.171 52.54 124.721 49.24C124.281 48.2 123.641 47.19 123.241 46.15C123.281 45.99 123.32 45.87 123.36 45.79C123.44 45.55 123.6 45.39 123.76 45.31C124.08 45.15 124.36 45.15 124.64 45.31C124.92 45.47 125.2 45.79 125.4 46.19C125.68 46.79 125.84 47.47 125.8 48.24C125.76 49.32 125.64 49.97 125.4 50.21L125.84 50.37C125.92 50.05 126 49.77 126.12 49.45C126.28 48.69 126.4 48.01 126.4 47.4C126.4 46.52 126.28 45.75 125.96 45.11C125.72 44.67 125.44 44.35 125.08 44.23C124.72 44.11 124.36 44.11 124 44.31C123.96 44.31 123.92 44.35 123.88 44.35C123.6 44.51 123.36 44.75 123.16 45.07C123.04 45.27 122.96 45.43 122.96 45.55L121.96 43.62C120.31 41.05 118.99 38.84 117.38 36.92L117.42 36.88ZM16.7601 56.95L17.0003 57.35C16.7203 57.39 16.2003 57.83 15.5203 58.63C15.0003 59.23 14.6804 59.87 14.5604 60.52C14.4804 60.96 14.4804 61.36 14.6404 61.68C14.7604 62 14.9601 62.16 15.3201 62.24C15.4801 62.28 15.7203 62.24 15.9603 62.08C16.0003 62.04 16.1205 62 16.2405 61.88L16.5203 60.39L16.4403 60.35L17.6805 55.33L18.6805 55.57L18.3602 56.81L20.3304 57.33L19.8504 59.22C19.7704 59.46 19.8105 59.66 19.9705 59.82C20.0905 59.94 20.2901 60.06 20.5701 60.14C20.8501 60.22 21.0904 60.14 21.3704 59.98C21.6504 59.82 21.8505 59.58 21.9305 59.3C21.9305 59.22 21.9305 59.14 21.9705 59.06V58.78H21.8904C21.7704 58.82 21.6501 58.82 21.5301 58.78C21.3701 58.74 21.2102 58.62 21.1302 58.42C21.0502 58.26 21.0502 58.06 21.0902 57.86C21.1302 57.66 21.2505 57.5 21.4505 57.38C21.6105 57.26 21.8101 57.22 22.0101 57.3C22.2901 57.34 22.4902 57.42 22.6502 57.58C22.8102 57.7 22.8905 57.82 22.9305 57.98L24.2903 57.54L24.0501 58.38L23.0101 58.5C23.0101 58.66 22.9705 58.78 22.9705 58.86C22.9705 58.94 22.9305 59.06 22.9305 59.14C22.7705 59.7 22.3702 60.14 21.6502 60.46C20.9302 60.82 20.2905 60.94 19.7205 60.78C19.4005 60.7 19.1202 60.54 18.9202 60.3C18.7202 60.06 18.6405 59.78 18.7205 59.5L19.0403 58.18L18.0804 57.94L17.5203 60.31H17.5604L17.3201 61.63L21.5301 62.43C21.7301 62.47 21.8905 62.43 21.9705 62.35C22.0105 62.27 22.0502 62.15 22.1302 61.95C22.1302 61.95 22.1302 61.91 22.1702 61.83L22.8104 61.95L22.4105 63.96L17.0701 62.92L16.8704 63.84L15.8704 63.64L16.1102 62.52C15.9902 62.6 15.8702 62.68 15.6302 62.76C15.2702 62.92 14.9502 62.96 14.6302 62.92C14.5902 62.88 14.5501 62.88 14.5101 62.88C14.1101 62.8 13.8302 62.6 13.6302 62.28C13.4302 61.96 13.3505 61.52 13.4705 61C13.5905 60.32 13.9501 59.64 14.5101 58.95C14.9101 58.47 15.3905 57.99 15.9905 57.51C16.2305 57.35 16.5103 57.15 16.7503 56.95H16.7601Z" fill="#0D0F8C"/>
<path fill-rule="evenodd" clip-rule="evenodd" d="M72.4814 34.97C92.7914 34.97 109.361 51.55 109.361 71.81C109.361 92.07 92.7814 108.65 72.4814 108.65C52.1814 108.65 35.6816 92.07 35.6816 71.81C35.6816 51.55 52.2214 34.97 72.4814 34.97ZM103.622 60.46C103.622 60.3 103.302 60.3 103.062 60.18C102.822 59.98 102.701 59.58 102.461 59.5C101.781 59.5 101.062 59.66 101.062 59.66C101.142 59.18 101.222 58.78 101.222 58.46C100.942 58.46 100.582 58.66 100.102 58.66C100.102 58.54 100.582 58.1 100.582 58.1C99.7015 58.1 99.3013 59.14 99.0513 59.14C97.9313 58.78 98.1314 58.1 97.6514 58.1C96.7714 58.1 96.4113 58.94 95.8013 59.14C94.8413 59.66 95.3213 60.63 94.8413 60.87C94.8413 61.11 94.9214 61.35 94.9214 61.51C94.5614 61.35 94.3215 61.35 94.0815 61.35C93.8815 61.43 93.7216 61.51 93.6016 61.51V62.23C93.8016 62.27 93.8815 62.27 94.0815 62.55V63.19C93.6015 63.19 93.0813 62.87 92.5513 62.87C91.8713 63.35 91.7113 63.47 91.6313 63.47C91.5113 63.47 91.6315 63.19 90.7915 63.19C90.3515 63.19 90.1915 62.87 89.7915 62.87C89.5515 62.87 89.3117 62.95 88.9917 63.11C88.4717 62.63 88.0315 62.63 87.7915 62.63C87.2315 62.43 87.1917 60.9 86.9917 60.86C86.7517 60.86 85.9113 61.02 85.5913 61.34V62.26C85.5913 62.86 86.1514 63.58 86.1514 63.58C85.4314 64.02 84.9916 64.22 84.6216 64.22C83.9816 64.22 83.5812 63.78 83.0112 63.78C82.7712 63.78 82.2914 64.02 81.4014 64.02C80.4414 64.02 80.1216 64.14 80.1216 64.14C79.8416 64.02 79.3613 62.74 78.5913 62.53C77.9913 62.53 77.5114 62.85 76.9414 62.85C76.7014 62.85 76.5813 62.73 76.3013 62.73C75.8213 62.53 75.3413 62.13 74.8613 61.89C74.3813 61.89 74.0215 61.89 73.5815 61.81C72.5415 61.69 71.9317 61.49 71.4917 61.25C70.8917 61.25 70.8115 61.01 70.8115 60.61C70.8115 60.21 71.2516 59.65 71.3716 59.12C71.3716 58.68 71.2114 58.28 71.2114 57.8C71.5714 57.48 71.5713 57.16 71.5713 56.56C71.4513 56.44 71.2513 56.32 71.1313 56.24C70.7313 56.12 70.2116 56.12 69.9316 56.08C69.3716 55.84 69.1716 55.52 68.8916 55.2C68.7316 55.4 68.2513 55.6 68.0913 55.6C68.1713 55.52 68.2515 55.2 68.2515 54.84C68.0115 54.72 67.6116 54.72 67.4116 54.48C67.4116 54.24 67.6514 54 67.6514 53.88C67.6514 53.56 67.4116 53.52 67.4116 53.36C67.4116 53.36 67.8516 53.04 67.8516 52.96C68.2516 52.96 68.2516 53.44 68.4116 53.44C68.7316 53.44 68.8115 53.12 68.8115 52.84C68.8115 52.52 69.3716 52.72 69.3716 52.32H68.6514C68.2514 52 68.0112 51.92 68.0112 51.52C68.0112 50.96 68.7314 51.12 68.7314 50.96C68.6514 50.64 68.0913 50.56 68.0913 50.4C68.2513 50.08 68.9313 50.04 69.0513 49.8C69.1313 49.52 69.8514 49.44 70.2114 48.07C70.2114 48.07 70.8916 47.23 70.8916 46.83C70.6516 46.35 69.9717 46.23 69.9717 46.23C69.7717 46.43 69.6117 46.47 69.4517 46.47C68.9317 46.47 68.7314 46.11 68.6514 45.95C68.2514 45.95 67.9314 46.47 67.6514 46.55C66.3714 46.71 65.6816 47.75 65.6816 47.75C65.5216 47.75 65.5215 47.51 65.5215 46.55C65.4415 46.23 64.2817 46.55 64.2017 46.23V45.43C64.2017 45.43 60.3514 44.03 59.4214 43.78C59.0614 43.78 59.0615 44.58 57.8115 44.98C57.3315 45.06 56.8515 45.06 56.8115 45.3V46.54C57.0915 46.82 57.8913 46.54 58.1313 46.9C58.3713 47.14 58.4514 47.58 58.6914 47.7C59.0514 47.98 59.6514 47.98 59.6514 47.98C59.4914 49.34 58.9316 49.34 58.9316 49.34C58.6916 49.82 58.4517 49.9 58.4517 50.02C58.4517 50.14 58.5712 50.3 59.0112 50.86C59.0512 50.98 59.2514 52.47 59.7314 52.83C60.2914 52.83 60.5713 52.23 60.5713 52.23C60.5713 52.23 60.7717 52.95 60.9717 53.27V53.79C60.2917 54.07 60.1714 54.47 60.1714 55.6C59.5714 55.84 59.1714 56.12 59.1714 56.6C59.1714 57.04 59.7314 57.6 59.7314 57.6L58.6914 58.08C58.6914 58.08 59.4116 58.2 59.4116 58.64C59.4116 59.16 58.4513 60.04 54.1113 61.49C53.6713 61.57 53.5916 61.93 53.3516 61.93C52.9516 61.93 52.8716 61.25 52.3916 61.25C52.2316 61.25 52.0714 61.69 51.7114 61.89C51.3514 62.21 50.1416 62.73 50.1416 63.78C51.8316 63.78 52.0713 63.78 52.0713 63.98C52.0713 64.38 51.5913 64.7 51.5913 65.18C51.5913 65.74 52.1513 65.42 52.5513 65.74C52.7113 65.78 52.7117 66.14 52.9517 66.34C53.4717 66.82 53.7515 67.06 53.7515 67.3C53.7515 67.54 53.0715 67.62 52.3115 67.94C52.0715 68.1 51.6716 68.1 50.8716 68.1C49.8316 68.02 49.1414 67.86 48.9414 67.86C48.7814 67.94 48.5414 68.1 48.4614 68.26C48.2214 68.3 48.1014 68.42 47.9014 68.54C47.9014 68.54 47.5012 68.9 47.2612 69.02V69.5C47.2612 69.66 47.3814 69.78 47.4214 69.78C47.7414 69.78 48.1815 69.46 48.5415 69.34L47.8213 70.3C48.1013 70.62 49.2617 71.42 50.4717 71.42C51.1117 71.42 51.9514 71.1 52.4014 71.1C51.4414 71.82 50.4715 72.46 49.8315 72.58C49.8315 72.58 49.7513 72.38 49.5913 72.38H49.0312C49.0312 72.94 50.8014 75.63 52.9614 75.63C54.5314 75.63 55.4517 73.42 55.4517 73.42C55.4517 73.42 57.1815 83.53 57.5415 85.14C58.0215 88.03 59.6717 90.28 59.9917 90.88C60.4317 91.8 60.1914 92.65 61.2314 94.01C62.2714 95.86 62.5915 96.22 63.0815 96.7C63.4015 97.3 63.6416 97.62 63.6416 97.62C63.6416 99.23 63.9614 102.96 65.6914 102.96C67.4214 102.96 67.2214 100.67 67.9414 100.67C68.1814 100.51 68.3413 100.51 68.8213 100.07C68.9413 99.95 68.9017 98.67 69.7017 97.74C69.7817 97.62 69.7012 97.06 69.7812 96.94L70.5415 96.74C70.4215 96.02 70.3413 95.54 70.3413 95.17C70.3413 93.44 71.3813 93.44 71.3813 90.8C71.2213 90.8 70.8213 90.08 70.8213 88.99C70.7413 88.75 70.6616 88.43 70.6616 88.11C70.6616 87.47 70.9015 86.79 71.5015 86.46C72.1815 86.46 72.5414 86.78 72.9814 86.78H73.4214C73.3414 86.42 73.2217 86.18 73.2217 85.94C73.2217 85.78 73.3413 85.54 73.7812 85.26C75.7912 84.94 76.2316 84.58 76.3916 84.34C76.3916 84.22 76.0713 84.26 76.0713 84.1C77.4313 83.06 78.3614 82.25 78.9214 81.09C79.6014 79.97 79.5213 80.05 81.1313 79.24C80.8913 79.24 80.8916 78.92 80.8916 78.76C81.3716 78.76 81.1316 79.08 81.3716 79.08C82.4116 79.08 82.9416 79 83.1816 78.28C83.3416 78.12 83.9817 77.24 84.2217 76.92C83.7417 76.44 83.7017 75.88 83.7017 75.88C85.2317 75.88 85.2314 73.51 85.2314 73.51C85.2314 73.79 85.2316 74.11 85.4316 74.31H85.7114C85.9114 74.07 86.0714 74.07 86.1914 74.07C86.2714 74.07 86.3917 74.23 86.4717 74.23C86.5517 74.23 86.5513 74.11 86.6313 73.99C86.6313 73.99 86.7114 74.55 87.1914 74.55C87.1914 74.11 87.1917 73.75 86.9517 73.51C86.8717 73.35 86.7513 73.07 86.6313 72.87V72.39C86.5513 71.79 86.0713 72.15 86.0713 71.79C86.0713 71.11 86.6313 69.22 86.6313 69.22C86.8713 68.98 86.7517 68.98 86.9517 68.9C86.6317 68.9 86.7113 69.14 86.6313 69.14C86.1513 68.9 85.9116 68.9 85.9116 68.78C85.9516 68.5 85.9517 68.26 85.9517 68.26C86.2717 68.26 86.2716 67.94 86.8716 67.94C86.9916 67.78 87.1114 67.3 87.1914 67.26C87.4314 67.06 88.0312 67.18 88.0312 67.06C87.7912 66.82 87.9915 66.46 87.7515 66.26C87.4715 66.14 87.1917 66.14 86.9917 66.14C86.7517 65.74 86.4717 65.54 86.4717 65.42C86.5517 64.98 86.9514 64.38 87.1914 64.38C87.1914 64.38 87.5915 64.62 87.7915 64.62C88.0315 64.62 88.1515 64.26 88.2715 64.26C88.5115 64.46 88.7517 64.98 88.9517 65.06C89.0717 65.06 89.2715 64.94 89.3115 64.82C89.4315 65.06 89.5515 65.5 89.7515 65.66C90.0315 65.78 90.1915 65.78 90.2715 65.78C90.2715 65.78 90.4713 66.18 90.5513 66.46C90.5513 66.58 90.4716 66.74 90.3516 66.74C90.5516 66.66 90.5916 66.66 91.3916 66.58C92.0716 66.58 93.1617 66.66 95.2417 66.9C95.2417 66.9 95.4814 67.26 95.4814 67.38C95.4814 67.54 95.3617 67.62 95.2417 67.62C95.0817 68.02 93.8015 67.62 93.2715 68.26C92.3515 68.54 92.4316 69.34 92.3516 69.34C92.3516 69.34 92.7516 69.5 92.9116 69.66C93.1516 69.82 93.0315 70.26 93.2715 70.3C93.5915 70.38 93.5913 70.78 93.5913 70.78C94.0713 70.06 94.0715 69.5 94.3115 69.21H94.8315C94.8315 69.21 95.1113 69.49 95.1113 69.81V70.77C95.1113 71.09 95.4717 71.29 95.4717 71.57V72.69C95.5917 72.57 95.7115 72.45 95.8315 72.45C96.0315 72.45 96.1516 72.61 96.3516 72.81C96.3916 72.81 96.7515 72.37 96.7515 72.01C96.7515 71.77 96.3916 71.41 96.3916 71.09C96.3916 70.97 96.9913 71.05 97.1113 70.77C97.1913 70.61 97.1114 70.25 97.1914 70.13C97.0714 70.13 96.7515 69.93 96.7515 69.49C96.8315 69.33 96.9914 69.33 97.1914 69.33C97.5114 69.33 97.8713 69.49 98.1113 69.49C98.2313 69.49 98.3516 69.45 98.3516 69.25C98.3516 68.17 98.7115 67.77 99.2715 67.16C99.2715 67.04 98.9517 66.8 98.9517 66.44C98.9517 66.24 99.0314 66.12 99.1914 65.96C99.3914 65.48 99.1913 64.72 99.6313 64.23C99.8713 63.95 100.391 63.95 100.671 63.67C100.951 63.39 100.951 62.91 101.191 62.71C101.431 62.51 101.632 62.39 101.832 62.39C102.432 62.39 102.951 62.83 103.441 62.83C103.441 62.19 103.041 61.67 102.961 61.22C102.961 60.86 103.442 60.66 103.602 60.42L103.622 60.46Z" fill="#0D0F8C"/>
<path fill-rule="evenodd" clip-rule="evenodd" d="M72.4814 32.24C77.9414 32.24 83.1216 33.36 87.8516 35.37C92.5916 37.38 96.8417 40.27 100.452 43.88C104.022 47.45 106.951 51.71 108.921 56.44C110.931 61.18 112.051 66.39 112.051 71.81C112.051 77.23 110.931 82.45 108.921 87.18C106.951 91.92 104.022 96.17 100.452 99.78C96.8417 103.35 92.5816 106.24 87.8516 108.25C83.1116 110.26 77.9414 111.38 72.4814 111.38C67.0214 111.38 61.8413 110.26 57.1113 108.25C52.3713 106.24 48.1213 103.35 44.5513 99.78C40.9813 96.17 38.0515 91.91 36.0415 87.18C34.0315 82.44 32.9116 77.27 32.9116 71.81C32.9116 66.35 34.0315 61.17 36.0415 56.44C38.0515 51.7 40.9813 47.45 44.5513 43.88C48.1213 40.27 52.3813 37.38 57.1113 35.37C61.8513 33.36 67.0214 32.24 72.4814 32.24ZM72.4814 30.72C78.1414 30.72 83.5617 31.88 88.4517 33.97C93.3917 36.06 97.8012 39.07 101.531 42.8C105.261 46.49 108.271 50.95 110.361 55.88C112.451 60.78 113.571 66.15 113.571 71.81C113.571 77.47 112.451 82.85 110.361 87.78C108.271 92.68 105.261 97.13 101.531 100.82C97.8012 104.55 93.3817 107.6 88.4517 109.65C83.5517 111.74 78.1414 112.9 72.4814 112.9C66.8214 112.9 61.4413 111.74 56.5513 109.65C51.6513 107.6 47.2017 104.55 43.4717 100.82C39.7817 97.13 36.7316 92.67 34.6416 87.78C32.5516 82.84 31.4316 77.47 31.4316 71.81C31.4316 66.15 32.5516 60.77 34.6416 55.88C36.7316 50.94 39.7817 46.49 43.4717 42.8C47.2017 39.07 51.6613 36.06 56.5513 33.97C61.4513 31.88 66.8214 30.72 72.4814 30.72Z" fill="#0D0F8C"/>
<path fill-rule="evenodd" clip-rule="evenodd" d="M72.4814 26.8201C97.2814 26.8201 117.472 47.0501 117.472 71.8101C117.472 96.5701 97.2814 116.8 72.4814 116.8C47.6814 116.8 27.5312 96.5701 27.5312 71.8101C27.5312 47.0501 47.7614 26.8201 72.4814 26.8201ZM72.4814 28.5901C96.3214 28.5901 115.751 48.0201 115.751 71.8201C115.751 95.6201 96.3214 115.05 72.4814 115.05C48.6414 115.05 29.2515 95.6201 29.2515 71.8201C29.2515 48.0201 48.6814 28.5901 72.4814 28.5901Z" fill="#0D0F8C"/>
<path fill-rule="evenodd" clip-rule="evenodd" d="M72.4805 7.47998L75.7705 7.55998L79.0605 7.79998L82.2705 8.19998L85.4404 8.75998L88.5703 9.47998L91.6206 10.36L94.5903 11.4L97.5205 12.52L100.371 13.8L103.141 15.24L105.871 16.81L108.44 18.46L110.971 20.27L113.42 22.16L115.75 24.21L118 26.34L120.09 28.55L122.141 30.92L124.03 33.33L125.84 35.86L127.53 38.47L129.101 41.16L130.5 43.93L131.82 46.78L132.94 49.71L133.98 52.72L134.82 55.77L135.541 58.9L136.101 62.07L136.541 65.28L136.78 68.53L136.86 71.82L136.78 75.11L136.541 78.36L136.101 81.57L135.541 84.74L134.82 87.87L133.98 90.92L132.94 93.89L131.82 96.82L130.5 99.67L129.101 102.48L127.53 105.17L125.84 107.78L124.03 110.31L122.141 112.72L120.09 115.05L118 117.3L115.75 119.43L113.42 121.44L110.971 123.37L108.44 125.14L105.871 126.83L103.141 128.4L100.371 129.8L97.5205 131.12L94.5903 132.28L91.6206 133.28L88.5703 134.16L85.4404 134.84L82.2705 135.44L79.0605 135.84L75.7705 136.08L72.4805 136.16L69.1904 136.08L65.9404 135.84L62.7305 135.44L59.5605 134.84L56.4707 134.16L53.4204 133.28L50.4106 132.28L47.4805 131.12L44.6304 129.8L41.8604 128.4L39.1704 126.83L36.5605 125.14L34.0303 123.37L31.6206 121.44L29.2505 119.43L27.0405 117.3L24.9106 115.05L22.8604 112.72L20.9707 110.31L19.1606 107.78L17.4707 105.17L15.9404 102.48L14.5005 99.67L13.2207 96.82L12.0605 93.89L11.0605 90.92L10.1807 87.87L9.46045 84.74L8.90039 81.57L8.46045 78.36L8.2207 75.11L8.14062 71.82L8.2207 68.53L8.46045 65.28L8.90039 62.07L9.46045 58.9L10.1807 55.77L11.0605 52.72L12.0605 49.71L13.2207 46.78L14.5005 43.93L15.9404 41.16L17.4707 38.47L19.1606 35.86L20.9707 33.33L22.8604 30.92L24.9106 28.55L27.0405 26.34L29.2505 24.21L31.6206 22.16L34.0303 20.27L36.5605 18.46L39.1704 16.81L41.8604 15.24L44.6304 13.8L47.4805 12.52L50.4106 11.4L53.4204 10.36L56.4707 9.47998L59.5605 8.75998L62.7305 8.19998L65.9404 7.79998L69.1904 7.55998L72.4805 7.47998ZM72.4805 9.12998L75.6904 9.20998L78.8604 9.44998L82.0303 9.84998L85.0806 10.41L88.1304 11.09L91.1006 11.97L94.0303 12.97L96.8804 14.09L99.6504 15.33L102.38 16.73L104.991 18.22L107.521 19.87L109.971 21.64L112.34 23.49L114.63 25.46L116.8 27.55L118.891 29.72L120.86 31.97L122.71 34.34L124.48 36.79L126.13 39.36L127.61 41.97L129.01 44.7L130.25 47.47L131.371 50.32L132.371 53.25L133.21 56.18L133.931 59.23L134.451 62.32L134.851 65.45L135.09 68.62L135.17 71.83L135.09 75.04L134.851 78.17L134.451 81.34L133.931 84.39L133.21 87.44L132.371 90.41L131.371 93.34L130.25 96.19L129.01 98.96L127.61 101.69L126.13 104.3L124.48 106.83L122.71 109.32L120.86 111.65L118.891 113.94L116.8 116.11L114.63 118.2L112.34 120.17L109.971 122.06L107.521 123.79L104.991 125.44L102.38 126.92L99.6504 128.32L96.8804 129.56L94.0303 130.68L91.1006 131.68L88.1304 132.52L85.0806 133.24L82.0303 133.76L78.8604 134.16L75.6904 134.4L72.4805 134.48L69.2705 134.4L66.1006 134.16L62.9707 133.76L59.9204 133.24L56.8706 132.52L53.9004 131.68L50.9707 130.68L48.1606 129.56L45.3506 128.32L42.6606 126.92L40.0503 125.44L37.4805 123.79L35.0303 122.06L32.6606 120.17L30.3706 118.2L28.2007 116.11L26.1504 113.94L24.1807 111.65L22.2905 109.32L20.5605 106.83L18.9106 104.3L17.3804 101.69L16.0205 98.96L14.7407 96.19L13.6606 93.34L12.6206 90.41L11.7803 87.44L11.1006 84.39L10.5405 81.34L10.1406 78.17L9.90039 75.04L9.82031 71.83L9.90039 68.62L10.1406 65.45L10.5405 62.32L11.1006 59.23L11.7803 56.18L12.6206 53.25L13.6606 50.32L14.7407 47.47L16.0205 44.7L17.3804 41.97L18.9106 39.36L20.5605 36.79L22.2905 34.34L24.1807 31.97L26.1504 29.72L28.2007 27.55L30.3706 25.46L32.6606 23.49L35.0303 21.64L37.4805 19.87L40.0503 18.22L42.6606 16.73L45.3506 15.33L48.1606 14.09L50.9707 12.97L53.9004 11.97L56.8706 11.09L59.9204 10.41L62.9707 9.84998L66.1006 9.44998L69.2705 9.20998L72.4805 9.12998Z" fill="#0D0F8C"/>
<path fill-rule="evenodd" clip-rule="evenodd" d="M72.481 5.87005L75.8511 5.95005L79.1812 6.19005L82.5107 6.63005L85.7607 7.19005L88.9312 7.95005L92.1011 8.83005L95.1509 9.87005L98.1211 11.0301L101.051 12.3901L103.901 13.8301L106.671 15.4401L109.361 17.1301L111.931 18.9801L114.421 20.9501L116.831 23.0401L119.121 25.2101L121.291 27.5001L123.381 29.8701L125.311 32.4001L127.201 34.9701L128.891 37.6601L130.501 40.3901L131.941 43.2401L133.261 46.1701L134.421 49.1801L135.461 52.2301L136.381 55.3601L137.101 58.5701L137.701 61.8201L138.101 65.1101L138.381 68.4401L138.461 71.8101L138.381 75.1801L138.101 78.5101L137.701 81.8001L137.101 85.0501L136.381 88.2601L135.461 91.3901L134.421 94.4401L133.261 97.4501L131.941 100.38L130.501 103.19L128.891 106L127.201 108.65L125.311 111.26L123.381 113.71L121.291 116.12L119.121 118.41L116.831 120.58L114.421 122.67L111.931 124.64L109.361 126.45L106.671 128.18L103.901 129.79L101.051 131.27L98.1211 132.55L95.1509 133.75L92.1011 134.79L88.9312 135.67L85.7607 136.39L82.5107 136.99L79.1812 137.39L75.8511 137.67L72.481 137.75L69.1108 137.67L65.7808 137.39L62.4912 136.99L59.2412 136.39L56.0708 135.67L52.9409 134.79L49.8911 133.75L46.8809 132.55L43.9512 131.27L41.1011 129.79L38.3311 128.18L35.6812 126.45L33.0708 124.64L30.5811 122.67L28.1709 120.58L25.9209 118.41L23.7109 116.12L21.6611 113.71L19.6909 111.26L17.8408 108.65L16.1509 106L14.541 103.19L13.061 100.38L11.7412 97.4501L10.5811 94.4401L9.54102 91.3901L8.62109 88.2601L7.90088 85.0501L7.34082 81.8001L6.90088 78.5101L6.62109 75.1801L6.54102 71.8101L6.62109 68.4401L6.90088 65.1101L7.34082 61.8201L7.90088 58.5701L8.62109 55.3601L9.54102 52.2301L10.5811 49.1801L11.7412 46.1701L13.061 43.2401L14.541 40.3901L16.1509 37.6601L17.8408 34.9701L19.6909 32.4001L21.6611 29.8701L23.7109 27.5001L25.9209 25.2101L28.1709 23.0401L30.5811 20.9501L33.0708 18.9801L35.6812 17.1301L38.3311 15.4401L41.1011 13.8301L43.9512 12.3901L46.8809 11.0301L49.8911 9.87005L52.9409 8.83005L56.0708 7.95005L59.2412 7.19005L62.4912 6.63005L65.7808 6.19005L69.1108 5.95005L72.481 5.87005ZM72.481 4.43005L75.9312 4.51005L79.3408 4.75005L82.7109 5.19005L86.041 5.79005L89.3311 6.55005L92.501 7.43005L95.6309 8.51005L98.6812 9.75005L101.691 11.0701L104.621 12.5501L107.431 14.2001L110.161 15.9701L112.811 17.8201L115.341 19.8301L117.791 21.9601L120.121 24.1701L122.331 26.5401L124.461 28.9501L126.471 31.5201L128.361 34.1701L130.131 36.9001L131.741 39.7101L133.221 42.6001L134.581 45.6101L135.781 48.6601L136.861 51.8301L137.781 55.0001L138.501 58.2901L139.101 61.5801L139.541 64.9501L139.821 68.3601L139.901 71.8101L139.821 75.2601L139.541 78.6701L139.101 82.0001L138.501 85.3301L137.781 88.6201L136.861 91.8301L135.781 94.9601L134.581 98.0101L133.221 100.98L131.741 103.91L130.131 106.72L128.361 109.45L126.471 112.1L124.461 114.63L122.331 117.08L120.121 119.41L117.791 121.66L115.341 123.75L112.811 125.76L110.161 127.65L107.431 129.42L104.621 131.03L101.691 132.56L98.6812 133.92L95.6309 135.12L92.501 136.16L89.3311 137.08L86.041 137.84L82.7109 138.4L79.3408 138.84L75.9312 139.12L72.481 139.2L69.0308 139.12L65.6211 138.84L62.251 138.4L58.9609 137.84L55.7109 137.08L52.501 136.16L49.3711 135.12L46.3208 133.92L43.311 132.56L40.4209 131.03L37.5708 129.42L34.8408 127.65L32.231 125.76L29.6611 123.75L27.251 121.66L24.8809 119.41L22.6709 117.08L20.541 114.63L18.5308 112.1L16.6812 109.45L14.9111 106.72L13.2607 103.91L11.771 100.98L10.4111 98.0101L9.21094 94.9601L8.13086 91.8301L7.25098 88.6201L6.49121 85.3301L5.89111 82.0001L5.45117 78.6701L5.21094 75.2601L5.13086 71.8101L5.21094 68.3601L5.45117 64.9501L5.89111 61.5801L6.49121 58.2901L7.25098 55.0001L8.13086 51.8301L9.21094 48.6601L10.4111 45.6101L11.771 42.6001L13.2607 39.7101L14.9111 36.9001L16.6812 34.1701L18.5308 31.5201L20.541 28.9501L22.6709 26.5401L24.8809 24.1701L27.251 21.9601L29.6611 19.8301L32.231 17.8201L34.8408 15.9701L37.5708 14.2001L40.4209 12.5501L43.311 11.0701L46.3208 9.75005L49.3711 8.51005L52.501 7.43005L55.7109 6.55005L58.9609 5.79005L62.251 5.19005L65.6211 4.75005L69.0308 4.51005L72.481 4.43005Z" fill="#0D0F8C"/>
</svg>
