<svg width="249" height="95" viewBox="0 0 249 95" fill="none" xmlns="http://www.w3.org/2000/svg">
<path d="M112.52 0.72995C157.52 0.72995 202.52 0.729951 247.52 0.699951C248.39 0.699951 248.51 0.91995 248.5 1.71995C248.48 32.4499 248.48 63.18 248.5 93.91C248.5 94.73 248.36 94.92 247.5 94.92C188.94 94.89 130.37 94.8999 71.8098 94.8999C71.5598 94.1099 71.9397 93.41 72.2297 92.75C73.7697 89.14 75.3797 85.5499 76.9397 81.95C78.7097 77.85 80.4397 73.7199 82.2197 69.6199C84.0297 65.45 85.8897 61.31 87.7097 57.1399C89.9897 51.9199 92.2298 46.6699 94.5398 41.4599C96.0998 37.93 97.5997 34.3699 99.1497 30.84C100.25 28.34 101.44 25.87 102.45 23.33C103.32 21.14 104.27 18.9799 105.2 16.82C106.16 14.5999 107.2 12.41 108.1 10.16C109.17 7.45995 110.6 4.91995 111.53 2.16995C111.72 1.59995 111.91 1.00995 112.52 0.72995ZM212.4 54.54C214.67 54.2299 215.41 53.35 215.37 51.16C215.37 50.68 215.31 50.2 215.28 49.72C215.25 49.33 215.33 49.05 215.82 49.05C219.5 49.05 223.19 49.05 226.87 49.05C227.24 49.05 227.44 49.15 227.42 49.58C227.39 50.37 227.4 51.1599 227.42 51.9499C227.42 52.3199 227.23 52.52 226.95 52.68C226.61 52.88 226.38 52.68 226.14 52.4599C225.81 52.1499 225.55 51.7899 225.35 51.3799C225.06 50.7899 224.61 50.72 224.21 51.15C223.76 51.63 223.26 51.6099 222.7 51.5999C221.19 51.5999 219.67 51.57 218.16 51.62C217.29 51.65 216.96 52.15 217.36 52.9C217.93 53.99 218.64 55.02 219.64 55.7799C220.22 56.2199 220.74 55.95 220.82 55.19C220.87 54.68 220.68 54.0099 220.94 53.7099C221.27 53.3299 221.97 53.63 222.51 53.57C222.65 53.56 222.79 53.57 222.92 53.54C223.75 53.31 224.29 53.57 224.75 54.32C225.88 56.18 227.09 58 228.25 59.8499C228.61 60.4199 229.01 60.25 229.38 59.93C229.74 59.6199 230.65 59.5399 230.18 58.7699C229.49 57.6499 228.73 56.5399 227.85 55.5599C227.37 55.0199 227.42 54.8699 227.98 54.5899C229.53 53.7899 229.64 53.55 229.5 51.83C229.45 51.25 229.48 50.66 229.5 50.08C229.51 49.66 229.36 49.0299 230.03 49.07C231.08 49.13 232.44 48.4699 233.1 49.4499C233.55 50.1199 233.46 51.3799 233.07 52.2399C232.77 52.9099 231.88 52.4199 231.27 52.5299C231.1 52.5599 230.92 52.53 230.76 52.55C230.55 52.58 230.22 52.4399 230.16 52.7799C230.11 53.07 230.05 53.36 230.32 53.6399C230.82 54.1699 231.38 54.5 232.14 54.41C232.64 54.35 232.97 54.45 233.04 55.08C233.19 56.41 233.29 57.7399 233.19 59.07C233.12 59.9599 233.56 60 234.24 60C234.89 60 235.33 60 235.31 59.11C235.26 56.08 235.33 53.0499 235.26 50.0299C235.24 49.1699 235.5 48.9199 236.29 49.0299C237.06 49.1399 237.4 48.86 237.39 48.01C237.39 47.06 236.78 47.18 236.2 47.18C229.52 47.18 222.84 47.1799 216.16 47.1999C215.43 47.1999 214.62 47.24 214.18 46.62C212.84 44.72 211.14 43.15 209.64 41.4C209.22 40.9 208.82 40.63 208.17 41.19C207.47 41.79 207.82 42.16 208.29 42.5999C209.57 43.7999 210.84 45 212.1 46.2099C212.34 46.4399 212.79 46.65 212.68 46.98C212.56 47.37 212.08 47.18 211.76 47.18C210.25 47.2 208.7 47.0199 207.23 47.2699C206.17 47.4499 205.49 47.1899 204.93 46.4499C203.56 44.6499 201.86 43.1499 200.46 41.3799C200 40.8099 199.45 40.82 198.95 41.26C198.43 41.71 198.65 42.2799 199.05 42.5999C200.45 43.7299 201.64 45.06 202.92 46.3C203.13 46.51 203.55 46.61 203.41 46.98C203.27 47.35 202.87 47.16 202.59 47.1699C198.77 47.1799 194.95 47.15 191.13 47.19C190.47 47.19 189.43 46.6899 189.4 48.0899C189.37 49.5199 190.41 48.91 191.08 49.0299C191.18 49.0499 191.29 49.0299 191.39 49.0299C192.68 49.02 193.22 49.41 193.36 50.4599C193.51 51.59 192.92 52.4599 191.79 52.6999C191.39 52.7799 190.97 52.76 190.56 52.76C190.19 52.76 189.99 52.82 190.1 53.29C190.82 56.38 193.15 59.0799 197.08 57.4599C197.82 57.16 198.15 57.1699 197.91 58.0999C197.83 58.4199 197.91 58.7899 197.89 59.1299C197.8 60.1599 198.54 59.9599 199.13 59.9899C199.82 60.0299 200.12 59.79 200.11 59.05C200.07 56.54 200.08 54.0299 200.07 51.5199C200.07 48.9899 200.07 49.0099 202.62 49.0199C203.41 49.0199 203.71 49.24 203.69 50.08C203.64 53.04 203.69 56 203.65 58.9599C203.64 59.75 203.83 60.0399 204.66 60.0299C205.51 60.02 205.79 59.7599 205.78 58.8799C205.72 55.8899 205.76 52.89 205.72 49.9C205.72 49.24 205.89 48.99 206.57 49.01C208.05 49.05 209.53 49.0299 211.01 49.0299C212.55 49.0299 213.276 49.8033 213.19 51.3499C213.14 52.2299 212.24 52.77 211.44 52.3899C210.91 52.1399 210.46 51.81 210.19 51.25C209.86 50.5499 209.43 50.58 208.79 50.97C208.09 51.3899 208.05 51.87 208.46 52.4C210.35 54.83 212.01 57.42 213.93 59.83C214.67 60.76 215.09 59.9399 215.57 59.68C216.22 59.33 215.82 58.9 215.51 58.51C214.51 57.23 213.52 55.9299 212.44 54.5199L212.4 54.54ZM142.34 47.1999C138.73 47.1999 135.11 47.1999 131.5 47.1999C130.12 47.1999 128.75 47.1799 127.37 47.1999C126.34 47.2199 125.89 47.76 126.18 48.55C126.4 49.13 126.92 49.08 127.39 49.04C128.12 48.9799 128.44 49.19 128.42 50.01C128.37 53.04 128.42 56.0699 128.37 59.0899C128.36 59.8699 128.65 60.0399 129.33 60.0199C129.98 60.0099 130.56 60.09 130.53 59.11C130.47 57.4599 130.54 55.81 130.5 54.16C130.46 52.76 130.66 51.36 130.33 49.9599C130.15 49.2299 130.61 49.02 131.29 49.0299C133.84 49.0599 136.39 49.03 138.93 49.05C140.09 49.05 140.13 49.19 140.04 50.98C139.99 52.04 139.25 51.7799 138.7 51.7099C136.91 51.4699 135.13 51.63 133.35 51.6399C132.48 51.6399 132.5 52.1199 132.71 52.8099C133.02 53.8399 133.82 54.5 134.45 55.2799C134.75 55.6499 135.21 56.0899 135.79 55.8399C136.34 55.5999 136.11 55.04 136.08 54.6399C136 53.7799 136.38 53.5399 137.16 53.5899C137.85 53.6399 138.54 53.6499 139.22 53.5899C139.86 53.5299 140.06 53.72 140.04 54.37C140 55.99 140.06 57.6 140.03 59.22C140.01 60.17 140.65 60.0099 141.23 60.0299C141.83 60.0499 142.19 59.94 142.18 59.19C142.12 56.2 142.14 53.2 142.09 50.2099C142.08 49.3799 142.37 49.0299 143.22 49.0299C146.59 49.0599 149.97 49.0599 153.34 49.0299C154.07 49.0299 154.34 49.29 154.29 50C154.18 51.59 152.43 50.9199 151.8 51.82C151.6 52.0999 151.18 52.05 150.9 51.73C150.44 51.22 149.78 51.0999 149.17 50.9599C147 50.43 144.24 52.76 144.59 54.87C144.98 57.2 146.58 58.6499 148.55 59.7099C149.2 60.0599 149.72 59.6199 150.04 58.9899C150.4 58.2799 149.8 58.1799 149.4 57.9899C148.23 57.4299 147.37 56.57 146.94 55.3499C146.55 54.25 147.09 53.1299 148.04 52.9899C148.44 52.9299 148.86 52.96 149.28 52.97C150.37 52.99 150.75 53.5499 150.07 54.3499C149.43 55.0999 150.05 55.33 150.41 55.55C150.86 55.82 151.46 56.2099 151.8 55.3099C152.07 54.5999 152.55 54.0399 153.08 53.4899C153.4 53.1499 153.73 53.11 154.09 53.22C154.43 53.33 154.27 53.69 154.27 53.94C154.29 55.66 154.32 57.3799 154.26 59.0999C154.23 59.8499 154.47 60.07 155.18 60.0299C155.82 59.9899 156.4 60.09 156.38 59.0999C156.32 56.1099 156.38 53.11 156.32 50.12C156.3 49.26 156.53 48.97 157.4 49.04C158.32 49.11 158.74 48.46 158.37 47.69C158.12 47.16 157.62 47.1999 157.13 47.1999C152.21 47.1999 147.28 47.1999 142.36 47.1999H142.34ZM172.19 47.1999C169.71 47.1999 167.23 47.1999 164.75 47.1999C164.16 47.1999 163.73 47.26 163.76 48.01C163.78 48.69 163.96 49.1 164.76 49.08C166.27 49.04 167.79 49.0699 169.3 49.0599C169.82 49.0599 170.36 48.95 170.39 49.76C170.42 50.67 169.8 50.4999 169.26 50.5199C168.61 50.5399 167.95 50.4899 167.3 50.57C166.09 50.72 164.92 51.95 165.24 52.79C165.66 53.91 166.53 54.72 167.46 55.44C168.12 55.95 168.82 55.9799 169.59 55.6999C169.94 55.5699 170.31 55.66 170.69 55.55C171.21 55.4 171.65 55.59 171.64 56.33C171.64 57.51 170.7 57.79 169.95 58.29C169.32 58.7099 168.91 58.4199 168.45 58.0199C168.06 57.6999 167.62 57.4399 167.19 57.1699C166.4 56.6799 165.76 56.9199 165.25 57.6399C164.74 58.36 165.08 58.9399 165.6 59.4599C166.17 60.02 166.88 60.3499 167.68 60.4199C168 60.4499 168.32 60.4699 168.53 60.7099C169.31 61.5999 170.39 62.1199 171.25 62.8899C171.85 63.43 172.25 63.2599 172.66 62.75C173.11 62.2 173.18 61.6499 172.49 61.2099C172.14 60.9899 171.79 60.7699 171.42 60.5899C170.72 60.2499 170.55 59.9499 171.42 59.5999C172.28 59.25 172.91 58.62 173.31 57.8C173.84 56.7 173.91 55.5399 173.18 54.5199C172.57 53.6599 171.6 53.5199 170.6 53.6299C170.2 53.6799 169.82 53.84 169.42 53.94C168.7 54.12 167.62 53.4199 167.49 52.7099C167.42 52.2999 167.59 52.16 167.99 52.1699C168.68 52.1899 169.37 52.1699 170.06 52.1699C172.4 52.1699 172.43 52.1699 172.42 49.8899C172.42 49.1499 172.72 49.0499 173.34 49.0599C175.41 49.0899 177.47 49.06 179.54 49.08C180.21 49.08 180.76 49.0999 180.73 48.1399C180.71 47.22 180.16 47.2099 179.51 47.2099C177.07 47.2099 174.62 47.2099 172.18 47.2099L172.19 47.1999ZM186.4 52.5199C185.8 54.3899 184.35 54.98 182.82 54.05C182.02 53.57 181.81 54.4099 181.38 54.6999C180.87 55.0399 181.29 55.3599 181.54 55.5999C182.85 56.8499 184.22 58.05 185.5 59.33C186.66 60.49 186.61 60.5099 187.87 59.4199C188.34 59.0199 188.26 58.66 187.83 58.47C186.97 58.1 186.54 57.28 185.83 56.76C185.36 56.41 185.31 56.1199 185.96 55.82C188.01 54.86 188.93 53.1699 188.76 50.9599C188.56 48.36 187.16 46.87 184.51 47.01C182.83 47.1 180.95 48.69 181.78 50.79C182.1 51.6 181.8 51.7799 181.08 51.75C179.3 51.68 177.51 51.49 175.73 51.66C174.95 51.74 174.63 52.2599 175.01 52.9199C175.57 53.8899 176.14 54.8499 177.03 55.5899C177.38 55.8799 177.7 55.93 178.06 55.83C178.48 55.71 178.42 55.31 178.44 54.97C178.5 53.42 178.52 53.4 180.11 53.43C180.56 53.43 181.01 53.4299 181.45 53.4499C182.01 53.4899 182.52 53.5 182.49 52.7099C182.48 52.2599 182.87 52.29 183.07 52.3899C184.15 52.9399 185.25 52.81 186.4 52.51V52.5199ZM97.5598 69.9799C98.5298 72.14 99.4897 74.2499 100.42 76.3699C101.44 78.6899 102.44 81.0099 103.44 83.34C103.72 83.99 104.24 84.03 104.8 83.95C105.23 83.89 105.51 83.67 105.51 83.14C105.49 78.01 105.5 72.88 105.51 67.7599C105.51 67.1499 105.21 66.9599 104.68 67.0199C103.99 67.0899 104.16 67.64 104.16 68.05C104.14 72.11 104.14 76.17 104.13 80.2299C104.13 80.45 104.26 80.7699 103.96 80.8499C103.58 80.9499 103.66 80.5599 103.58 80.3799C101.75 76.2299 99.8796 72.1 98.1296 67.92C97.7796 67.09 97.2896 66.99 96.6296 67.06C95.8396 67.1499 96.0998 67.81 96.0998 68.28C96.0998 73.17 96.0998 78.05 96.0998 82.94C96.0998 83.39 95.8196 83.93 96.6396 83.97C97.3996 84.01 97.4697 83.52 97.4597 82.9799C97.3497 79.1 97.6898 75.2199 97.2798 71.3499C97.2398 70.9399 97.0998 70.4599 97.5798 69.9899L97.5598 69.9799ZM111.56 47.1999C109.77 47.1999 107.98 47.22 106.19 47.19C105.44 47.18 105.29 47.5 105.27 48.19C105.25 48.91 105.55 49.07 106.18 49.07C108 49.0499 109.83 49.07 111.65 49.07C113.36 49.07 113.3 49.07 113.37 50.73C113.41 51.62 113.07 51.72 112.28 51.69C110.49 51.61 108.7 51.61 106.91 51.6399C105.93 51.66 105.69 52.0999 106.12 52.9599C106.6 53.9399 107.25 54.81 108 55.58C108.8 56.39 109.25 56.22 109.58 55.19C109.75 54.67 109.21 53.91 109.93 53.66C110.45 53.48 111.09 53.62 111.67 53.62C112.08 53.62 112.5 53.63 112.91 53.62C113.31 53.6 113.48 53.7799 113.45 54.1699C113.35 55.8099 113.55 57.4599 113.32 59.0999C113.25 59.5999 113.24 60.18 113.96 60.2099C114.61 60.2399 115.53 60.47 115.55 59.44C115.61 56.48 115.62 53.5199 115.52 50.5599C115.48 49.2699 115.42 49.15 116.7 49.07C117.36 49.0299 117.68 48.79 117.68 48.07C117.68 47.3499 117.32 47.2 116.71 47.2099C114.99 47.2299 113.27 47.2099 111.55 47.2099L111.56 47.1999ZM125.63 50.5299C125.79 48.8899 123.53 46.74 121.4 46.97C119.88 47.1399 118.29 48.5399 118.31 49.9199C118.33 51.4299 119.64 52.68 121.29 52.76C121.7 52.78 122.11 52.76 122.53 52.76C122.69 52.76 122.91 52.77 122.99 52.87C123.16 53.09 122.92 53.2399 122.79 53.3799C122.31 53.9199 121.73 54.3299 121.07 54.5999C120.48 54.8499 120.14 54.2899 119.7 54.0899C118.95 53.7599 118.53 54.2299 118.16 54.7099C117.88 55.07 118.01 55.4599 118.35 55.75C119.86 57.07 121.39 58.36 122.87 59.7099C123.42 60.2099 123.85 60.4199 124.4 59.75C124.92 59.1199 125.17 58.56 124.26 58.04C123.67 57.7 123.26 57.1399 122.67 56.7699C122.17 56.4599 121.98 56.08 122.81 55.75C124.72 54.99 125.47 53.42 125.64 50.51L125.63 50.5299ZM114.27 77.8799C114.27 77.8799 114.29 77.8799 114.3 77.8799C114.3 76.7099 114.32 75.5399 114.3 74.3799C114.25 72.2199 113.81 71.67 111.77 71.22C109.91 70.8 108.27 71.77 107.67 73.56C107.49 74.0799 107.67 74.37 108.04 74.58C108.5 74.84 108.7 74.4999 108.86 74.1199C108.99 73.81 109.16 73.5099 109.32 73.2099C109.8 72.3299 111.04 71.9499 111.94 72.3799C113.14 72.9499 112.87 74.0499 112.93 75.0399C112.99 75.9999 112.27 76.24 111.61 76.5099C109.94 77.2199 108.08 77.6099 107.34 79.6499C106.89 80.88 107.19 82.75 108.2 83.67C109.2 84.57 110.53 84.68 111.82 83.83C112.36 83.48 112.8 83.4899 113.33 83.7399C113.63 83.8899 113.94 84.03 114.26 84.1199C114.55 84.2 114.89 84.25 115.09 83.92C115.27 83.6199 115.23 83.25 114.97 83.08C114.14 82.55 114.25 81.75 114.25 80.97C114.25 79.94 114.25 78.9099 114.25 77.8799H114.27ZM208.87 77.72C208.87 77.72 208.87 77.72 208.86 77.72C208.86 76.31 208.91 74.9 208.84 73.5C208.79 72.53 208.34 71.7 207.34 71.3999C206.29 71.09 205.21 71.0799 204.13 71.3999C203.17 71.6799 202.18 72.9299 202.2 73.8799C202.2 74.2999 202.28 74.68 202.79 74.64C203.17 74.61 203.56 74.5799 203.66 74.0099C203.92 72.5499 204.85 72.02 206.37 72.3999C207.2 72.6099 207.78 73.99 207.52 75.0099C207.18 76.3699 205.97 76.5399 204.95 76.95C202.66 77.8699 201.55 78.87 201.8 81.44C202.04 83.95 204.3 85.07 206.35 83.97C207.11 83.56 207.67 83.2499 208.41 84.0099C208.73 84.3299 209.36 84.3199 209.71 83.9299C210.08 83.5199 209.69 83.16 209.38 82.91C208.92 82.54 208.86 82.06 208.86 81.53C208.86 80.26 208.86 78.99 208.86 77.72H208.87ZM151.79 77.78C151.79 77.2 151.79 76.61 151.79 76.03C151.79 75.45 151.79 74.86 151.79 74.28C151.77 72.19 151.33 71.64 149.35 71.2C147.7 70.8299 145.85 71.84 145.27 73.42C145.1 73.9 145.04 74.45 145.65 74.59C146.13 74.7 146.58 74.45 146.61 73.83C146.61 73.73 146.61 73.6199 146.65 73.53C147 72.77 147.56 72.2199 148.42 72.2099C149.05 72.2099 149.74 72.3 150.14 72.91C150.96 74.17 150.44 75.8799 149.08 76.5199C148.62 76.7399 148.14 76.9199 147.66 77.0999C145.47 77.9299 144.74 78.9899 144.74 81.3199C144.74 83.8299 147.23 85.1199 149.22 83.9299C150.08 83.4199 150.62 83.12 151.37 83.97C151.65 84.28 152.16 84.3099 152.47 83.9299C152.75 83.59 152.62 83.16 152.28 82.94C151.72 82.57 151.74 82.05 151.75 81.5C151.75 80.26 151.75 79.02 151.75 77.7899L151.79 77.78ZM133.91 77.91C133.89 76.43 133.8 75.1099 133.38 73.84C132.83 72.13 131.79 71.2999 130.04 71.17C128.61 71.06 127.32 71.79 126.68 73.31C125.43 76.25 125.37 79.2599 126.66 82.2C127.22 83.4799 128.33 84.3299 129.79 84.3499C131.3 84.3699 132.46 83.66 133.12 82.25C133.79 80.83 133.88 79.3 133.91 77.91ZM234.35 77.58C235 77.58 235.66 77.5399 236.31 77.59C237.17 77.66 237.43 77.23 237.32 76.47C237.2 75.6 237.09 74.7299 236.91 73.8699C236.55 72.2099 235.19 71.12 233.59 71.16C232.04 71.19 230.71 72.2899 230.33 73.84C229.74 76.2999 229.83 78.78 230.14 81.25C230.36 82.99 232.02 84.38 233.63 84.36C235.79 84.34 237.02 82.47 237.13 80.58C237.15 80.19 237.01 80 236.6 80.03C236.22 80.0499 235.81 79.9999 235.69 80.4899C235.65 80.6499 235.69 80.84 235.67 81C235.46 82.06 234.54 83.0499 233.69 83.1199C232.71 83.2 232.15 82.5299 231.83 81.7899C231.33 80.6299 231.26 79.35 231.34 78.09C231.37 77.6099 231.72 77.58 232.08 77.58C232.84 77.58 233.59 77.58 234.35 77.58ZM143.31 78.8199C143.31 78.8199 143.31 78.8199 143.3 78.8199C143.3 77.4099 143.35 76 143.29 74.59C143.16 71.75 141.32 70.14 138.31 71.81C137.87 72.0499 137.46 72.23 136.99 71.75C136.74 71.49 136.12 71.25 136.11 71.95C136.1 73.45 135.63 74.96 135.92 76.44C136.18 77.78 136.14 79.1099 136.04 80.4299C135.97 81.3099 135.89 82.19 135.9 83.08C135.9 83.63 136.22 83.9999 136.8 83.9599C137.32 83.9199 137.54 83.5499 137.5 83.0199C137.47 82.5399 137.46 82.06 137.46 81.58C137.46 79.21 137.49 76.84 137.46 74.47C137.45 73.14 138.72 72.5499 139.86 72.4299C140.95 72.3099 141.38 72.76 141.76 74.03C141.87 74.41 141.88 74.77 141.88 75.14C141.88 77.75 141.9 80.3699 141.88 82.9799C141.88 83.5499 142.01 83.95 142.62 83.97C143.3 83.99 143.34 83.49 143.33 82.97C143.33 81.6 143.33 80.2199 143.33 78.84L143.31 78.8199ZM194.55 77.72H194.58C194.58 76 194.58 74.28 194.58 72.56C194.58 72.0499 194.73 71.5499 193.87 71.5399C193.05 71.5399 193.1 71.9699 193.1 72.5099C193.11 75.2599 193.11 78.0199 193.1 80.7699C193.1 81.9599 191.68 83.1699 190.39 83.1299C189.45 83.0999 188.77 82.2 188.76 80.91C188.74 78.09 188.74 75.27 188.76 72.44C188.76 71.9 188.76 71.5399 188.03 71.5399C187.27 71.5399 187.32 71.97 187.32 72.47C187.34 75.4 187.42 78.3199 187.32 81.2399C187.28 82.5899 187.91 83.4999 188.9 84.0699C190 84.6999 191.23 84.49 192.19 83.64C192.64 83.24 192.87 83.16 193.2 83.67C193.46 84.07 193.87 83.9899 194.22 83.8799C194.59 83.7599 194.53 83.39 194.53 83.09C194.53 81.2999 194.53 79.51 194.53 77.72H194.55ZM169.15 77.64C169.15 79.39 169.17 81.1499 169.15 82.8999C169.15 83.4899 169.23 83.96 169.93 83.95C170.61 83.9399 170.61 83.4399 170.61 82.92C170.59 80.27 170.59 77.63 170.59 74.9799C170.59 73.5099 171.13 72.75 172.56 72.45C173.79 72.1899 174.99 72.73 174.95 74.19C174.94 74.67 174.96 75.1499 174.96 75.6299C174.96 78.0699 174.96 80.5099 174.94 82.95C174.94 83.53 175.16 83.91 175.73 83.94C176.36 83.98 176.39 83.4999 176.39 83.0199C176.39 80.1999 176.45 77.3799 176.35 74.5699C176.31 73.4599 176.28 72.12 175.05 71.55C173.89 71.01 172.65 70.8699 171.49 71.7699C171.09 72.0799 170.58 72.45 170.14 71.72C169.97 71.43 169.63 71.5499 169.39 71.5999C169 71.6799 169.16 72.04 169.16 72.28C169.15 74.07 169.16 75.85 169.16 77.64H169.15ZM212.74 78.8199C212.74 77.4799 212.74 76.1399 212.74 74.7899C212.74 73.34 214.2 72.15 215.63 72.39C216.54 72.54 216.97 73.1399 217.08 73.9599C217.2 74.9099 217.25 75.8699 217.25 76.8199C217.24 78.8099 217.35 80.7999 217.1 82.7899C217.03 83.3299 216.98 83.9699 217.84 83.9299C218.57 83.8999 218.73 83.42 218.72 82.8C218.71 80.87 218.8 78.9399 218.67 77.0199C218.6 75.9299 218.6 74.83 218.5 73.75C218.41 72.82 218.09 71.9499 217.13 71.5199C215.86 70.9499 214.63 71.01 213.47 71.8C213.12 72.04 212.81 72.7099 212.46 71.7599C212.33 71.3999 211.83 71.54 211.52 71.61C211.15 71.69 211.28 72.0799 211.32 72.31C211.41 72.82 211.46 73.32 211.45 73.84C211.43 76.8599 211.56 79.89 211.3 82.91C211.26 83.45 211.26 83.9699 212.05 83.9599C212.8 83.9599 212.74 83.4399 212.74 82.9599C212.74 81.5799 212.74 80.21 212.74 78.83V78.8199ZM184.01 80.8799C184.24 81.9699 183.51 82.7899 182.09 83.0999C180.93 83.3499 180.05 82.74 179.69 81.56C179.64 81.3999 179.58 81.2399 179.55 81.0699C179.44 80.5299 179.01 80.66 178.66 80.6499C178.17 80.6399 178.25 80.9899 178.24 81.2899C178.21 82.59 179.41 83.9699 180.97 84.2899C182.36 84.5699 183.68 84.2199 184.62 83.1799C185.47 82.2399 185.72 81.0599 185.28 79.7699C184.9 78.6699 184.26 77.8699 183.23 77.3499C182.19 76.8299 181.14 76.3199 180.38 75.3999C179.88 74.7899 179.35 74.1699 179.94 73.3199C180.45 72.5699 181.05 72.1999 182.06 72.3499C183.21 72.5199 183.41 73.37 183.76 74.16C183.95 74.59 184.23 74.75 184.65 74.64C185.14 74.51 185.11 74.14 185 73.7299C184.5 71.8199 183.53 71.2899 181.73 71.1299C179.8 70.9599 178.25 72.69 178.47 74.58C178.59 75.66 179.16 76.47 180.07 77.06C181.08 77.71 182.25 78.1 183.13 78.95C183.69 79.49 184.2 80.0399 184.04 80.8799H184.01ZM222.24 77.64C222.12 76.63 222.45 75.49 222.73 74.39C222.96 73.49 223.45 72.6 224.56 72.44C225.36 72.32 225.95 72.74 226.36 73.34C226.61 73.71 226.73 74.1799 226.86 74.6199C226.99 75.0499 227.3 75.0899 227.66 75.0699C228.19 75.0499 228.02 74.65 228.02 74.39C228.01 73.32 227.62 72.3499 226.7 71.7899C224.66 70.5499 222.14 70.8999 221.27 74.1299C220.62 76.5599 220.54 79.1 221.31 81.53C222.07 83.94 223.95 84.96 225.97 84.11C227.35 83.53 227.97 82.24 228.21 80.8C228.25 80.54 228.66 80.2599 228.27 79.9799C227.94 79.7499 227.54 79.74 227.16 79.78C226.72 79.83 226.84 80.2 226.79 80.5C226.73 80.9 226.68 81.31 226.51 81.67C226.16 82.39 225.64 83.05 224.8 83.11C223.96 83.17 223.48 82.53 223.12 81.83C222.47 80.57 222.24 79.2199 222.24 77.6499V77.64ZM117.07 77.9899C117.07 79.4699 117.07 80.9399 117.07 82.42C117.08 83.65 118.45 84.58 119.59 84.11C119.79 84.03 120 83.8199 120.09 83.6299C120.13 83.5299 119.9 83.1799 119.78 83.1799C118.07 83.1699 118.38 81.88 118.36 80.89C118.32 78.38 118.48 75.88 118.31 73.3699C118.27 72.77 118.52 72.5499 119.09 72.59C119.54 72.63 120.08 72.63 120.09 72.05C120.1 71.48 119.56 71.53 119.15 71.56C118.53 71.6 118.27 71.3299 118.3 70.7099C118.33 70.0599 118.3 69.4 118.3 68.75C118.3 68.35 118.33 68.0199 117.74 68.0199C117.17 68.0199 117.02 68.23 117.05 68.75C117.08 69.33 117.01 69.92 117.08 70.5C117.15 71.1 116.91 71.3899 116.37 71.5099C116.08 71.5699 115.67 71.55 115.65 71.94C115.63 72.26 115.95 72.5 116.24 72.56C117 72.71 117.08 73.23 117.07 73.86C117.05 75.23 117.07 76.6099 117.07 77.9799V77.9899ZM166.45 75.5C166.45 75.5 166.46 75.5 166.47 75.5C166.47 72.99 166.46 70.4799 166.47 67.9799C166.47 67.4399 166.45 67.01 165.74 67.03C165.08 67.04 164.98 67.4299 164.98 67.9799C164.99 72.96 164.99 77.9399 164.98 82.92C164.98 83.53 165.12 83.9399 165.79 83.95C166.52 83.95 166.44 83.41 166.44 82.92C166.44 80.45 166.44 77.97 166.44 75.5H166.45ZM154.82 75.3199C154.82 77.8899 154.82 80.4699 154.82 83.0399C154.82 83.5599 154.98 83.7899 155.53 83.7599C155.95 83.7299 156.24 83.7 156.23 83.14C156.1 78.06 156.15 72.9799 156.21 67.8999C156.21 67.3499 156.02 67.0499 155.47 67.0099C154.79 66.9599 154.81 67.4299 154.82 67.8999C154.82 70.3699 154.82 72.84 154.82 75.31V75.3199ZM197.01 77.8999C197.01 79.7899 197.03 81.3299 197.01 82.8799C197.01 83.4399 197.06 83.7999 197.76 83.7599C198.43 83.7299 198.4 83.3699 198.4 82.8699C198.37 80.4999 198.4 78.13 198.38 75.7599C198.37 74.1499 198.82 72.9299 200.67 72.7399C200.76 72.7399 200.84 72.63 200.93 72.59C201.46 72.3999 201.48 71.95 201.31 71.58C201.16 71.26 200.87 71.11 200.39 71.3C199.88 71.51 199.4 71.7399 198.94 72.0199C198.65 72.1899 198.26 72.31 198.15 71.97C197.93 71.27 197.42 71.53 197.07 71.61C196.63 71.71 196.79 72.2099 196.85 72.4899C197.24 74.3899 196.89 76.3099 197.02 77.8799L197.01 77.8999ZM122.02 77.5399C122.02 79.4299 122.01 81.31 122.02 83.2C122.02 83.8699 122.57 84.21 123.1 83.91C123.5 83.69 123.44 83.2799 123.44 82.8999C123.44 79.3999 123.44 75.8999 123.44 72.3999C123.44 72.2999 123.44 72.1899 123.44 72.09C123.45 71.41 122.95 71.59 122.57 71.55C122.08 71.5 122 71.6899 122.01 72.1799C122.06 73.9599 122.03 75.75 122.03 77.53L122.02 77.5399ZM120.26 65.78C120.95 67.03 122.01 67.79 122.75 68.81C122.93 69.06 123.41 69.2299 123.47 68.5099C123.7 65.77 123.69 65.75 120.96 65.78C120.79 65.78 120.62 65.78 120.26 65.78ZM114.37 44.6299C114.44 44.5899 114.51 44.5499 114.58 44.5199C114.58 44.1099 114.58 43.7 114.58 43.29C114.58 41.83 113.843 41.0933 112.37 41.08C112.14 41.08 111.86 40.9699 111.7 41.1999C111.53 41.4599 111.78 41.6399 111.93 41.8099C112.74 42.7499 113.55 43.69 114.37 44.62V44.6299Z" fill="#0F959E"/>
<path d="M112.521 0.72998C111.911 1.01998 111.721 1.60998 111.531 2.16998C110.601 4.91998 109.171 7.45998 108.101 10.16C107.211 12.41 106.161 14.6 105.201 16.82C104.271 18.98 103.321 21.14 102.451 23.33C101.441 25.87 100.251 28.34 99.1509 30.84C97.6009 34.37 96.101 37.93 94.541 41.46C92.231 46.67 89.9909 51.92 87.7109 57.14C85.8909 61.3 84.0309 65.45 82.2209 69.62C80.4409 73.72 78.7109 77.85 76.9409 81.95C75.3809 85.55 73.771 89.14 72.231 92.75C71.951 93.41 71.571 94.11 71.811 94.9H71.4009C71.2609 94.46 71.081 94.03 70.991 93.58C70.211 89.74 69.2209 85.95 68.4009 82.12C68.0109 80.29 67.7109 78.41 67.1409 76.58C66.7009 75.15 66.4909 73.59 66.1409 72.12C65.4609 69.3 64.8909 66.45 64.1709 63.64C63.8309 62.31 63.8011 60.86 63.3711 59.62C62.4211 56.83 62.031 53.93 61.301 51.1C60.411 47.63 59.8709 44.08 58.8909 40.63C58.7209 40.01 58.8609 39.72 59.3909 39.57C62.1309 38.79 64.701 37.48 67.491 36.83C67.941 36.73 68.5009 36.59 68.8909 36.1C68.6009 35.93 68.3809 35.76 68.1309 35.67C63.7509 34.05 59.341 32.54 55.041 30.7C53.711 30.13 53.6809 30.19 53.4109 31.66C53.4009 31.73 53.3611 31.79 53.3511 31.85C53.0211 33.87 52.6909 35.89 52.3809 37.92C52.0709 39.95 51.801 41.98 51.491 44.01C51.171 46.14 50.841 48.27 50.511 50.4C50.191 52.5 49.881 54.6 49.551 56.7C49.251 58.63 48.9409 60.56 48.6509 62.49C48.3409 64.53 48.041 66.57 47.731 68.61C47.351 71.04 46.9511 73.47 46.5911 75.9C46.2111 78.4 45.871 80.91 45.501 83.41C45.191 85.51 44.871 87.6 44.511 89.69C44.271 91.1 44.1409 92.54 43.6809 93.92C43.2609 93.65 43.001 93.28 42.801 92.82C41.551 90.03 40.271 87.25 38.991 84.47C36.611 79.28 34.2211 74.09 31.8411 68.9C28.1511 60.87 24.471 52.84 20.781 44.82C18.671 40.23 16.5409 35.66 14.4309 31.07C11.2109 24.04 7.98104 17.02 4.81104 9.97998C3.45104 6.94998 1.68109 4.07998 1.12109 0.72998H112.491H112.521ZM43.6809 16.64C44.3509 17.35 44.8009 17.79 45.2109 18.27C47.6309 21.06 50.0409 23.87 52.4709 26.66C52.6309 26.84 52.641 27.29 53.011 27.14C53.331 27.01 53.4009 26.65 53.4309 26.3C53.4809 25.68 53.1909 25.12 53.2009 24.49C53.2509 22.19 53.2209 19.89 53.2209 17.59C53.2209 17.14 53.2911 16.64 52.6111 16.64C49.7411 16.64 46.8709 16.64 43.6809 16.64Z" fill="#373076"/>
<path d="M1.13995 0.730008C1.70995 4.08001 3.47014 6.95001 4.83014 9.98001C8.00014 17.03 11.23 24.05 14.45 31.07C16.55 35.66 18.6901 40.24 20.8001 44.82C24.4901 52.85 28.1702 60.88 31.8602 68.9C34.2402 74.09 36.6301 79.28 39.0101 84.47C40.2901 87.25 41.5701 90.03 42.8201 92.82C43.0301 93.28 43.28 93.65 43.7 93.92C43.7 94.25 43.7 94.57 43.7 94.9C29.58 94.9 15.4601 94.9 1.34015 94.92C0.630148 94.92 0.49005 94.78 0.49005 94.07C0.51005 63.23 0.51007 32.39 0.51007 1.54001C0.51007 1.12001 0.299943 0.520007 1.12994 0.710007L1.13995 0.730008Z" fill="#0F959E"/>
<path d="M43.7109 94.91C43.7109 94.58 43.7109 94.26 43.7109 93.93C44.1709 92.56 44.291 91.12 44.541 89.7C44.901 87.61 45.211 85.51 45.531 83.42C45.901 80.92 46.2411 78.41 46.6211 75.91C46.9911 73.48 47.391 71.05 47.761 68.62C48.071 66.58 48.3709 64.54 48.6809 62.5C48.9809 60.57 49.2911 58.64 49.5811 56.71C49.9011 54.61 50.221 52.51 50.541 50.41C50.861 48.28 51.201 46.15 51.521 44.02C51.821 41.99 52.1009 39.96 52.4109 37.93C52.7209 35.9 53.0509 33.88 53.3809 31.86C53.3909 31.79 53.4309 31.73 53.4409 31.67C53.7109 30.19 53.731 30.13 55.071 30.71C59.361 32.55 63.7809 34.06 68.1609 35.68C68.4109 35.77 68.6209 35.94 68.9209 36.11C68.5309 36.59 67.961 36.73 67.521 36.84C64.731 37.49 62.1609 38.8 59.4209 39.58C58.8909 39.73 58.7509 40.03 58.9209 40.64C59.9009 44.09 60.4511 47.64 61.3311 51.11C62.0511 53.94 62.4409 56.84 63.4009 59.63C63.8209 60.87 63.8609 62.32 64.2009 63.65C64.9209 66.46 65.4909 69.31 66.1709 72.13C66.5209 73.6 66.7309 75.17 67.1709 76.59C67.7309 78.41 68.0409 80.3 68.4309 82.13C69.2509 85.96 70.241 89.75 71.021 93.59C71.111 94.04 71.2909 94.47 71.4309 94.91H43.741H43.7109ZM56.031 33.15C55.121 33.15 54.3709 33.84 54.4709 34.71C54.5609 35.48 55.0311 36.01 55.8611 36.04C56.8011 36.08 57.541 35.38 57.541 34.51C57.541 33.86 56.751 33.15 56.021 33.15H56.031Z" fill="#FCFEFD"/>
<path d="M212.39 54.54C213.47 55.95 214.46 57.25 215.46 58.53C215.77 58.93 216.17 59.35 215.52 59.7C215.04 59.96 214.62 60.77 213.88 59.85C211.96 57.44 210.3 54.85 208.41 52.42C208 51.89 208.05 51.41 208.74 50.99C209.38 50.6 209.81 50.57 210.14 51.27C210.41 51.83 210.86 52.16 211.39 52.41C212.19 52.79 213.09 52.25 213.14 51.37C213.227 49.8234 212.5 49.05 210.96 49.05C209.48 49.05 208 49.07 206.52 49.03C205.83 49.01 205.66 49.26 205.67 49.92C205.71 52.91 205.67 55.91 205.73 58.9C205.75 59.77 205.46 60.03 204.61 60.05C203.78 60.06 203.59 59.77 203.6 58.98C203.65 56.02 203.6 53.06 203.64 50.1C203.65 49.26 203.36 49.04 202.57 49.04C200.01 49.04 200.01 49 200.02 51.54C200.02 54.05 200.02 56.56 200.06 59.07C200.07 59.81 199.77 60.06 199.08 60.01C198.48 59.97 197.75 60.18 197.84 59.15C197.87 58.81 197.78 58.44 197.86 58.12C198.1 57.19 197.77 57.18 197.03 57.48C193.1 59.1 190.77 56.4 190.05 53.31C189.94 52.84 190.14 52.78 190.51 52.78C190.92 52.78 191.34 52.8 191.74 52.72C192.87 52.48 193.46 51.6 193.31 50.48C193.17 49.43 192.63 49.04 191.34 49.05C191.24 49.05 191.13 49.07 191.03 49.05C190.37 48.93 189.32 49.55 189.35 48.11C189.38 46.71 190.42 47.22 191.08 47.21C194.9 47.17 198.72 47.2 202.54 47.19C202.82 47.19 203.22 47.38 203.36 47C203.5 46.63 203.09 46.52 202.87 46.32C201.58 45.08 200.39 43.75 199 42.62C198.6 42.3 198.38 41.72 198.9 41.28C199.4 40.85 199.96 40.83 200.41 41.4C201.81 43.16 203.51 44.67 204.88 46.47C205.44 47.2 206.12 47.47 207.18 47.29C208.65 47.04 210.2 47.22 211.71 47.2C212.03 47.2 212.51 47.38 212.63 47C212.73 46.67 212.29 46.45 212.05 46.23C210.79 45.02 209.52 43.82 208.24 42.62C207.77 42.18 207.42 41.82 208.12 41.21C208.77 40.65 209.17 40.92 209.59 41.42C211.08 43.17 212.78 44.75 214.13 46.64C214.57 47.26 215.38 47.22 216.11 47.22C222.79 47.21 229.47 47.2 236.15 47.2C236.73 47.2 237.33 47.08 237.34 48.03C237.34 48.88 237.01 49.16 236.24 49.05C235.45 48.94 235.19 49.19 235.21 50.05C235.28 53.08 235.21 56.11 235.26 59.13C235.28 60.02 234.84 60.02 234.19 60.02C233.52 60.02 233.08 59.98 233.14 59.09C233.24 57.76 233.14 56.43 232.99 55.1C232.92 54.46 232.58 54.37 232.09 54.43C231.33 54.52 230.78 54.2 230.27 53.66C230.01 53.38 230.06 53.09 230.11 52.8C230.17 52.46 230.49 52.61 230.71 52.57C230.88 52.54 231.06 52.57 231.22 52.55C231.84 52.44 232.72 52.92 233.02 52.26C233.41 51.4 233.5 50.14 233.05 49.47C232.39 48.49 231.03 49.15 229.98 49.09C229.31 49.05 229.46 49.68 229.45 50.1C229.43 50.68 229.41 51.27 229.45 51.85C229.6 53.57 229.49 53.81 227.93 54.61C227.37 54.9 227.32 55.05 227.8 55.58C228.68 56.56 229.44 57.67 230.13 58.79C230.6 59.55 229.69 59.63 229.33 59.95C228.97 60.27 228.56 60.44 228.2 59.87C227.04 58.03 225.83 56.21 224.7 54.34C224.24 53.59 223.7 53.32 222.87 53.56C222.74 53.6 222.6 53.58 222.46 53.59C221.92 53.64 221.22 53.34 220.89 53.73C220.63 54.03 220.82 54.71 220.77 55.21C220.7 55.96 220.18 56.24 219.59 55.8C218.59 55.04 217.88 54.01 217.31 52.92C216.92 52.17 217.24 51.67 218.11 51.64C219.62 51.59 221.14 51.61 222.65 51.62C223.21 51.62 223.71 51.65 224.16 51.17C224.56 50.74 225.02 50.81 225.3 51.4C225.5 51.8 225.76 52.16 226.09 52.48C226.33 52.7 226.55 52.9 226.9 52.7C227.18 52.54 227.38 52.34 227.37 51.97C227.35 51.18 227.34 50.39 227.37 49.6C227.39 49.17 227.19 49.07 226.82 49.07C223.14 49.07 219.45 49.07 215.77 49.07C215.28 49.07 215.2 49.34 215.23 49.74C215.26 50.22 215.32 50.7 215.32 51.18C215.36 53.38 214.62 54.26 212.35 54.56L212.39 54.54ZM192.5 54.46C192.69 54.7 192.82 54.91 192.99 55.07C194.14 56.17 194.64 56.35 195.99 55.87C197.56 55.31 197.93 54.72 197.9 53.15C197.89 52.53 197.88 51.91 197.88 51.29C197.89 48.97 197.89 48.98 195.52 49.03C194.91 49.04 194.57 49.11 195 49.81C195.67 50.91 195.42 51.93 194.74 52.95C194.21 53.75 193.33 53.95 192.49 54.45L192.5 54.46Z" fill="#FCFEFD"/>
<path d="M142.329 47.2C147.249 47.2 152.179 47.2 157.099 47.2C157.589 47.2 158.089 47.17 158.339 47.69C158.709 48.46 158.279 49.11 157.369 49.04C156.499 48.98 156.269 49.26 156.289 50.12C156.349 53.11 156.289 56.11 156.349 59.1C156.369 60.09 155.789 59.99 155.149 60.03C154.439 60.07 154.199 59.84 154.229 59.1C154.289 57.38 154.259 55.66 154.239 53.94C154.239 53.69 154.409 53.33 154.059 53.22C153.709 53.11 153.379 53.15 153.049 53.49C152.519 54.04 152.039 54.61 151.769 55.31C151.429 56.22 150.819 55.83 150.379 55.55C150.009 55.33 149.389 55.1 150.039 54.35C150.719 53.55 150.339 53 149.249 52.97C148.839 52.97 148.419 52.93 148.009 52.99C147.059 53.13 146.519 54.25 146.909 55.35C147.349 56.56 148.199 57.42 149.369 57.99C149.769 58.18 150.379 58.28 150.009 58.99C149.689 59.62 149.179 60.06 148.519 59.71C146.549 58.65 144.949 57.2 144.559 54.87C144.209 52.75 146.969 50.43 149.139 50.96C149.749 51.11 150.409 51.22 150.869 51.73C151.149 52.04 151.569 52.1 151.769 51.82C152.399 50.91 154.149 51.59 154.259 50C154.309 49.29 154.039 49.02 153.309 49.03C149.939 49.05 146.559 49.05 143.189 49.03C142.339 49.03 142.039 49.38 142.059 50.21C142.109 53.2 142.089 56.2 142.149 59.19C142.159 59.94 141.799 60.06 141.199 60.03C140.629 60.01 139.989 60.17 139.999 59.22C140.029 57.6 139.979 55.98 140.009 54.37C140.029 53.73 139.829 53.53 139.189 53.59C138.509 53.66 137.809 53.64 137.129 53.59C136.339 53.54 135.969 53.78 136.049 54.64C136.089 55.04 136.309 55.61 135.759 55.84C135.179 56.09 134.719 55.66 134.419 55.28C133.789 54.5 132.989 53.84 132.679 52.81C132.469 52.12 132.459 51.65 133.319 51.64C135.099 51.63 136.889 51.47 138.669 51.71C139.209 51.78 139.949 52.04 140.009 50.98C140.099 49.19 140.059 49.05 138.899 49.05C136.349 49.05 133.799 49.05 131.259 49.03C130.579 49.03 130.119 49.23 130.299 49.96C130.639 51.36 130.439 52.76 130.469 54.16C130.509 55.81 130.439 57.46 130.499 59.11C130.539 60.09 129.949 60.01 129.299 60.02C128.629 60.03 128.329 59.87 128.339 59.09C128.399 56.06 128.339 53.03 128.389 50.01C128.399 49.19 128.079 48.98 127.359 49.04C126.889 49.08 126.379 49.13 126.149 48.55C125.849 47.77 126.309 47.22 127.339 47.2C128.719 47.17 130.089 47.2 131.469 47.2C135.079 47.2 138.699 47.2 142.309 47.2H142.329Z" fill="#FCFEFD"/>
<path d="M172.179 47.2C174.619 47.2 177.069 47.2 179.509 47.2C180.149 47.2 180.709 47.2 180.729 48.13C180.749 49.09 180.209 49.07 179.539 49.07C177.469 49.05 175.409 49.07 173.339 49.05C172.729 49.05 172.419 49.14 172.419 49.88C172.429 52.16 172.399 52.16 170.059 52.16C169.369 52.16 168.679 52.17 167.989 52.16C167.589 52.15 167.409 52.29 167.489 52.7C167.619 53.41 168.699 54.11 169.419 53.93C169.809 53.83 170.199 53.67 170.599 53.62C171.589 53.5 172.569 53.65 173.179 54.51C173.909 55.54 173.839 56.69 173.309 57.79C172.909 58.61 172.279 59.24 171.419 59.59C170.559 59.94 170.729 60.24 171.419 60.58C171.789 60.76 172.139 60.98 172.489 61.2C173.179 61.64 173.099 62.19 172.659 62.74C172.249 63.24 171.839 63.41 171.249 62.88C170.389 62.1 169.309 61.59 168.529 60.7C168.319 60.46 167.999 60.43 167.679 60.41C166.879 60.34 166.179 60.02 165.599 59.45C165.069 58.93 164.739 58.35 165.249 57.63C165.749 56.91 166.389 56.67 167.189 57.16C167.619 57.43 168.059 57.69 168.449 58.01C168.919 58.4 169.319 58.69 169.949 58.28C170.709 57.78 171.639 57.5 171.639 56.32C171.639 55.57 171.209 55.39 170.689 55.54C170.309 55.65 169.929 55.56 169.589 55.69C168.829 55.97 168.119 55.94 167.459 55.43C166.529 54.71 165.659 53.89 165.239 52.78C164.919 51.94 166.089 50.71 167.299 50.56C167.949 50.48 168.609 50.53 169.259 50.51C169.789 50.5 170.419 50.66 170.389 49.75C170.359 48.94 169.819 49.05 169.299 49.05C167.789 49.06 166.269 49.03 164.759 49.07C163.959 49.09 163.779 48.69 163.759 48C163.729 47.25 164.169 47.18 164.749 47.19C167.229 47.2 169.709 47.19 172.189 47.19L172.179 47.2Z" fill="#FCFEFD"/>
<path d="M186.39 52.52C185.24 52.82 184.14 52.9501 183.06 52.4001C182.86 52.3001 182.46 52.2701 182.48 52.7201C182.51 53.5101 182 53.49 181.44 53.46C180.99 53.43 180.55 53.4401 180.1 53.4401C178.51 53.4101 178.49 53.4401 178.43 54.9801C178.42 55.3201 178.48 55.72 178.05 55.84C177.69 55.94 177.37 55.89 177.02 55.6C176.13 54.86 175.56 53.9001 175 52.93C174.62 52.2701 174.94 51.74 175.72 51.67C177.51 51.49 179.29 51.6901 181.07 51.7601C181.79 51.7901 182.09 51.6101 181.77 50.8001C180.95 48.7001 182.82 47.11 184.5 47.02C187.15 46.88 188.55 48.3701 188.75 50.9701C188.92 53.1801 187.99 54.8701 185.95 55.8301C185.3 56.1301 185.35 56.42 185.82 56.77C186.53 57.29 186.96 58.1101 187.82 58.4801C188.25 58.6701 188.33 59.0301 187.86 59.43C186.59 60.5201 186.65 60.5 185.49 59.34C184.21 58.06 182.84 56.8601 181.53 55.6101C181.28 55.3701 180.86 55.05 181.37 54.71C181.8 54.42 182.01 53.58 182.81 54.06C184.34 54.99 185.79 54.4 186.39 52.53V52.52ZM185.11 51.1501C185.78 51.0201 186.32 50.7901 186.3 49.8701C186.28 48.9001 185.52 48.89 184.96 48.88C184.29 48.87 183.54 49.1101 183.62 50.0401C183.69 50.8701 184.32 51.0901 185.11 51.1501Z" fill="#FCFEFD"/>
<path d="M97.5495 69.98C97.0695 70.44 97.2095 70.92 97.2495 71.34C97.6495 75.21 97.3194 79.1 97.4294 82.97C97.4494 83.51 97.3696 84 96.6096 83.96C95.7896 83.92 96.0695 83.38 96.0695 82.93C96.0695 78.04 96.0695 73.16 96.0695 68.27C96.0695 67.8 95.7996 67.14 96.5996 67.05C97.2596 66.98 97.7596 67.08 98.0996 67.91C99.8496 72.09 101.72 76.22 103.55 80.37C103.63 80.56 103.549 80.95 103.929 80.84C104.229 80.76 104.1 80.44 104.1 80.22C104.11 76.16 104.119 72.1 104.129 68.04C104.129 67.63 103.959 67.08 104.649 67.01C105.189 66.96 105.489 67.14 105.479 67.75C105.469 72.88 105.469 78.01 105.479 83.13C105.479 83.66 105.209 83.88 104.769 83.94C104.209 84.02 103.679 83.98 103.409 83.33C102.419 81 101.409 78.68 100.389 76.36C99.4594 74.24 98.4995 72.13 97.5295 69.97L97.5495 69.98Z" fill="#FCFEFD"/>
<path d="M111.55 47.2C113.27 47.2 114.99 47.21 116.71 47.2C117.32 47.2 117.67 47.34 117.68 48.06C117.68 48.78 117.37 49.02 116.7 49.06C115.42 49.14 115.48 49.26 115.52 50.55C115.62 53.51 115.61 56.47 115.55 59.43C115.53 60.46 114.61 60.23 113.96 60.2C113.24 60.17 113.251 59.59 113.321 59.09C113.551 57.45 113.35 55.8 113.45 54.16C113.47 53.77 113.31 53.59 112.91 53.61C112.5 53.63 112.08 53.61 111.67 53.61C111.08 53.61 110.45 53.47 109.93 53.65C109.21 53.9 109.751 54.66 109.581 55.18C109.241 56.21 108.8 56.39 108 55.57C107.25 54.8 106.601 53.92 106.121 52.95C105.691 52.08 105.93 51.64 106.91 51.63C108.7 51.6 110.49 51.59 112.28 51.68C113.07 51.72 113.401 51.62 113.371 50.72C113.301 49.05 113.35 49.05 111.65 49.06C109.83 49.06 108 49.05 106.18 49.06C105.55 49.06 105.25 48.9 105.27 48.18C105.29 47.5 105.44 47.17 106.19 47.18C107.98 47.22 109.771 47.19 111.561 47.19L111.55 47.2Z" fill="#FCFEFD"/>
<path d="M125.621 50.53C125.461 53.44 124.701 55.01 122.791 55.77C121.961 56.1 122.151 56.48 122.651 56.79C123.241 57.16 123.651 57.72 124.241 58.06C125.151 58.58 124.901 59.14 124.381 59.77C123.831 60.44 123.401 60.23 122.851 59.73C121.371 58.38 119.841 57.09 118.331 55.77C117.991 55.47 117.861 55.09 118.141 54.73C118.511 54.25 118.941 53.77 119.681 54.11C120.131 54.31 120.471 54.87 121.051 54.62C121.711 54.34 122.291 53.93 122.771 53.4C122.901 53.26 123.141 53.11 122.971 52.89C122.891 52.79 122.671 52.78 122.511 52.78C122.101 52.77 121.681 52.78 121.271 52.78C119.621 52.7 118.311 51.45 118.291 49.94C118.271 48.56 119.861 47.15 121.381 46.99C123.511 46.76 125.771 48.91 125.611 50.55L125.621 50.53ZM121.831 51.13C122.711 51.11 123.361 50.59 123.261 49.91C123.161 49.15 122.651 48.82 121.891 48.85C121.161 48.88 120.531 49.13 120.381 49.89C120.261 50.48 121.111 51.14 121.831 51.13Z" fill="#FCFEFD"/>
<path d="M114.26 77.88C114.26 78.91 114.26 79.94 114.26 80.97C114.26 81.75 114.15 82.56 114.98 83.08C115.25 83.25 115.29 83.61 115.1 83.92C114.9 84.25 114.56 84.2 114.27 84.12C113.95 84.03 113.64 83.89 113.34 83.74C112.81 83.49 112.37 83.48 111.83 83.83C110.53 84.68 109.21 84.58 108.21 83.67C107.19 82.75 106.9 80.89 107.35 79.65C108.09 77.61 109.95 77.22 111.62 76.51C112.27 76.23 113 76 112.94 75.04C112.88 74.05 113.14 72.95 111.95 72.38C111.05 71.95 109.81 72.33 109.33 73.21C109.17 73.51 109 73.8 108.87 74.12C108.71 74.5 108.51 74.84 108.05 74.58C107.68 74.37 107.51 74.08 107.68 73.56C108.28 71.77 109.92 70.8 111.78 71.22C113.82 71.68 114.26 72.22 114.31 74.38C114.33 75.55 114.31 76.72 114.31 77.88C114.3 77.88 114.29 77.88 114.28 77.88H114.26ZM108.58 80.85C108.58 82.16 109.52 83.3 110.52 83.11C111.51 82.92 112.35 82.55 112.59 81.34C112.72 80.68 112.74 80.04 112.68 79.43C112.61 78.8 113.2 77.93 112.53 77.62C111.93 77.34 111.21 78 110.54 78.22C110.45 78.25 110.37 78.32 110.28 78.38C109.37 78.97 108.59 79.65 108.58 80.86V80.85Z" fill="#FCFEFD"/>
<path d="M208.86 77.72C208.86 78.99 208.86 80.26 208.86 81.53C208.86 82.06 208.91 82.54 209.38 82.91C209.69 83.16 210.08 83.52 209.71 83.93C209.36 84.32 208.72 84.34 208.41 84.01C207.67 83.26 207.11 83.56 206.35 83.97C204.3 85.08 202.04 83.95 201.8 81.44C201.55 78.86 202.66 77.87 204.95 76.95C205.97 76.54 207.18 76.36 207.52 75.01C207.78 73.99 207.19 72.61 206.37 72.4C204.85 72.02 203.92 72.54 203.66 74.01C203.56 74.58 203.17 74.61 202.79 74.64C202.28 74.68 202.21 74.3 202.2 73.88C202.18 72.93 203.17 71.68 204.13 71.4C205.2 71.09 206.28 71.09 207.34 71.4C208.34 71.7 208.79 72.53 208.84 73.5C208.91 74.9 208.86 76.31 208.86 77.72C208.86 77.72 208.86 77.72 208.87 77.72H208.86ZM207.38 77.46C206.35 77.59 205.53 78.01 204.74 78.45C203.69 79.04 203.12 79.92 203.22 81.2C203.29 82.13 204.01 83.05 204.84 83.13C205.8 83.23 206.92 82.53 207.16 81.69C207.54 80.32 207.27 78.92 207.37 77.46H207.38Z" fill="#FCFEFD"/>
<path d="M151.78 77.78C151.78 79.02 151.78 80.26 151.78 81.49C151.78 82.04 151.75 82.56 152.31 82.93C152.65 83.15 152.77 83.58 152.5 83.92C152.19 84.3 151.679 84.27 151.399 83.96C150.649 83.11 150.11 83.41 149.25 83.92C147.25 85.11 144.77 83.82 144.77 81.31C144.77 78.98 145.499 77.92 147.689 77.09C148.169 76.91 148.64 76.72 149.11 76.51C150.47 75.87 150.989 74.15 150.169 72.9C149.769 72.29 149.079 72.19 148.449 72.2C147.589 72.2 147.029 72.76 146.679 73.52C146.639 73.61 146.639 73.72 146.639 73.82C146.599 74.43 146.159 74.69 145.679 74.58C145.069 74.44 145.12 73.89 145.3 73.41C145.87 71.82 147.719 70.82 149.379 71.19C151.369 71.63 151.81 72.18 151.82 74.27C151.82 74.85 151.82 75.44 151.82 76.02C151.82 76.6 151.82 77.19 151.82 77.77L151.78 77.78ZM150.33 79.4C150.33 79.09 150.33 78.78 150.33 78.47C150.33 77.4 150.259 77.33 149.219 77.76C148.589 78.02 147.979 78.33 147.399 78.69C146.559 79.21 146.119 79.95 146.179 80.99C146.239 82.09 146.839 82.99 147.709 83.13C148.749 83.3 149.749 82.58 150.139 81.52C150.399 80.81 150.3 80.1 150.33 79.39V79.4Z" fill="#FCFEFD"/>
<path d="M133.9 77.92C133.87 79.31 133.78 80.83 133.11 82.26C132.45 83.67 131.29 84.38 129.78 84.36C128.31 84.34 127.21 83.49 126.65 82.21C125.35 79.27 125.42 76.26 126.67 73.32C127.32 71.8 128.61 71.07 130.03 71.18C131.78 71.31 132.82 72.14 133.37 73.85C133.78 75.13 133.88 76.45 133.9 77.92ZM132.5 77.74C132.56 76.63 132.28 75.49 131.97 74.33C131.59 72.9 130.86 72.52 129.9 72.41C128.88 72.29 128.33 73.07 127.95 73.93C126.91 76.31 126.98 78.73 127.77 81.15C128.1 82.15 128.62 83.08 129.83 83.12C130.93 83.15 131.81 82.19 132.14 80.77C132.36 79.8 132.49 78.83 132.49 77.74H132.5Z" fill="#FCFEFD"/>
<path d="M234.34 77.59C233.58 77.59 232.83 77.59 232.07 77.59C231.71 77.59 231.36 77.62 231.33 78.1C231.25 79.37 231.33 80.64 231.82 81.8C232.14 82.54 232.7 83.21 233.68 83.13C234.53 83.06 235.45 82.07 235.66 81.01C235.69 80.84 235.65 80.66 235.68 80.5C235.8 80 236.21 80.06 236.59 80.04C237 80.02 237.14 80.21 237.12 80.59C237.01 82.48 235.77 84.35 233.62 84.37C232.02 84.38 230.35 83 230.13 81.26C229.82 78.79 229.73 76.3 230.32 73.85C230.69 72.3 232.03 71.2 233.58 71.17C235.19 71.14 236.54 72.22 236.9 73.88C237.08 74.74 237.19 75.61 237.31 76.48C237.41 77.23 237.16 77.66 236.3 77.6C235.65 77.55 234.99 77.59 234.34 77.59ZM233.81 76.5C234.35 76.08 235.49 77.2 235.85 75.93C236.08 75.11 235.69 74.28 235.41 73.47C234.99 72.24 232.88 71.87 232.08 73.21C231.76 73.74 231.56 74.31 231.4 74.89C231.07 76.15 231.35 76.51 232.64 76.49C232.98 76.49 233.33 76.49 233.81 76.49V76.5Z" fill="#FCFEFD"/>
<path d="M143.29 78.83C143.29 80.21 143.29 81.58 143.29 82.96C143.29 83.48 143.26 83.98 142.58 83.96C141.97 83.94 141.83 83.54 141.84 82.97C141.86 80.36 141.86 77.74 141.84 75.13C141.84 74.76 141.84 74.4 141.72 74.02C141.35 72.74 140.91 72.29 139.82 72.42C138.68 72.55 137.41 73.14 137.42 74.46C137.44 76.83 137.42 79.2 137.42 81.57C137.42 82.05 137.42 82.53 137.46 83.01C137.5 83.54 137.28 83.91 136.76 83.95C136.19 84 135.87 83.62 135.86 83.07C135.85 82.19 135.94 81.31 136 80.42C136.1 79.11 136.14 77.77 135.88 76.43C135.59 74.95 136.06 73.44 136.07 71.94C136.07 71.24 136.69 71.48 136.95 71.74C137.42 72.22 137.83 72.04 138.27 71.8C141.28 70.13 143.13 71.74 143.25 74.58C143.31 75.99 143.26 77.4 143.26 78.81C143.26 78.81 143.26 78.81 143.27 78.81L143.29 78.83Z" fill="#FCFEFD"/>
<path d="M194.54 77.72C194.54 79.51 194.54 81.3 194.54 83.09C194.54 83.4 194.6 83.77 194.23 83.88C193.88 83.99 193.47 84.06 193.21 83.67C192.87 83.17 192.65 83.25 192.2 83.64C191.24 84.49 190.01 84.71 188.91 84.07C187.92 83.5 187.29 82.59 187.33 81.24C187.42 78.32 187.33 75.39 187.33 72.47C187.33 71.97 187.27 71.54 188.04 71.54C188.76 71.54 188.78 71.9 188.77 72.44C188.76 75.26 188.77 78.08 188.77 80.91C188.77 82.2 189.46 83.1 190.4 83.13C191.69 83.17 193.11 81.96 193.11 80.77C193.12 78.02 193.11 75.26 193.11 72.51C193.11 71.96 193.06 71.53 193.88 71.54C194.74 71.55 194.59 72.05 194.59 72.56C194.59 74.28 194.59 76 194.59 77.72H194.56H194.54Z" fill="#FCFEFD"/>
<path d="M169.14 77.65C169.14 75.86 169.14 74.08 169.14 72.29C169.14 72.05 168.98 71.69 169.37 71.61C169.61 71.56 169.95 71.44 170.12 71.73C170.56 72.46 171.07 72.08 171.47 71.78C172.62 70.88 173.87 71.03 175.03 71.56C176.26 72.13 176.29 73.47 176.33 74.58C176.43 77.39 176.36 80.22 176.37 83.03C176.37 83.51 176.34 83.99 175.71 83.95C175.13 83.92 174.91 83.53 174.92 82.96C174.94 80.52 174.94 78.08 174.94 75.64C174.94 75.16 174.92 74.68 174.93 74.2C174.97 72.74 173.77 72.21 172.54 72.46C171.11 72.76 170.57 73.52 170.57 74.99C170.57 77.64 170.57 80.28 170.59 82.93C170.59 83.45 170.59 83.95 169.91 83.96C169.21 83.97 169.12 83.5 169.13 82.91C169.16 81.16 169.13 79.4 169.13 77.65H169.14Z" fill="#FCFEFD"/>
<path d="M212.731 78.83C212.731 80.21 212.731 81.58 212.731 82.96C212.731 83.44 212.791 83.96 212.041 83.96C211.251 83.96 211.241 83.45 211.291 82.91C211.541 79.89 211.421 76.87 211.441 73.84C211.441 73.32 211.401 72.82 211.311 72.31C211.271 72.08 211.141 71.7 211.511 71.61C211.821 71.54 212.311 71.39 212.451 71.76C212.801 72.71 213.111 72.04 213.461 71.8C214.631 71.01 215.851 70.95 217.121 71.52C218.091 71.95 218.411 72.82 218.491 73.75C218.591 74.84 218.591 75.93 218.661 77.02C218.791 78.94 218.701 80.87 218.711 82.8C218.711 83.42 218.551 83.9 217.831 83.93C216.961 83.97 217.021 83.33 217.091 82.79C217.341 80.81 217.231 78.81 217.241 76.82C217.241 75.87 217.191 74.9 217.071 73.96C216.961 73.14 216.541 72.54 215.621 72.39C214.191 72.15 212.731 73.34 212.731 74.79C212.731 76.13 212.731 77.47 212.731 78.82V78.83Z" fill="#FCFEFD"/>
<path d="M184.001 80.89C184.161 80.05 183.651 79.5 183.091 78.96C182.211 78.1 181.041 77.72 180.031 77.07C179.121 76.48 178.561 75.67 178.431 74.59C178.211 72.7 179.761 70.97 181.691 71.14C183.491 71.3 184.461 71.83 184.961 73.74C185.071 74.14 185.101 74.52 184.611 74.65C184.201 74.76 183.911 74.59 183.721 74.17C183.381 73.38 183.171 72.53 182.021 72.36C181.011 72.22 180.421 72.59 179.901 73.33C179.321 74.18 179.851 74.8 180.341 75.41C181.101 76.33 182.151 76.84 183.191 77.36C184.221 77.88 184.871 78.68 185.241 79.78C185.681 81.08 185.431 82.25 184.581 83.19C183.641 84.23 182.311 84.59 180.931 84.3C179.371 83.98 178.171 82.59 178.201 81.3C178.201 80.99 178.131 80.64 178.621 80.66C178.981 80.67 179.401 80.53 179.511 81.08C179.541 81.24 179.601 81.4 179.651 81.57C180.011 82.75 180.891 83.35 182.051 83.11C183.481 82.81 184.201 81.98 183.971 80.89H184.001Z" fill="#FCFEFD"/>
<path d="M222.231 77.65C222.231 79.22 222.461 80.57 223.111 81.83C223.471 82.53 223.941 83.17 224.791 83.11C225.631 83.05 226.151 82.39 226.501 81.67C226.671 81.32 226.721 80.9 226.781 80.5C226.831 80.21 226.711 79.83 227.151 79.78C227.531 79.74 227.931 79.75 228.261 79.98C228.661 80.26 228.251 80.54 228.201 80.8C227.961 82.23 227.341 83.53 225.961 84.11C223.941 84.96 222.061 83.94 221.301 81.53C220.531 79.1 220.611 76.56 221.261 74.13C222.131 70.9 224.651 70.55 226.691 71.79C227.611 72.35 227.991 73.32 228.011 74.39C228.011 74.65 228.181 75.05 227.651 75.07C227.281 75.08 226.981 75.05 226.851 74.62C226.721 74.18 226.611 73.7 226.351 73.34C225.931 72.74 225.341 72.32 224.551 72.44C223.431 72.6 222.941 73.49 222.721 74.39C222.441 75.5 222.111 76.63 222.231 77.64V77.65Z" fill="#FCFEFD"/>
<path d="M117.061 77.99C117.061 76.62 117.051 75.24 117.061 73.87C117.061 73.24 116.991 72.72 116.231 72.57C115.941 72.51 115.631 72.27 115.641 71.95C115.661 71.56 116.071 71.59 116.361 71.52C116.901 71.4 117.141 71.11 117.071 70.51C117.001 69.93 117.071 69.34 117.041 68.76C117.011 68.25 117.161 68.03 117.731 68.03C118.321 68.03 118.301 68.36 118.291 68.76C118.291 69.41 118.311 70.07 118.291 70.72C118.261 71.34 118.521 71.61 119.141 71.57C119.551 71.54 120.091 71.49 120.081 72.06C120.071 72.63 119.531 72.64 119.081 72.6C118.511 72.55 118.261 72.78 118.301 73.38C118.471 75.88 118.311 78.39 118.351 80.9C118.371 81.89 118.061 83.18 119.771 83.19C119.881 83.19 120.121 83.54 120.081 83.64C119.991 83.84 119.791 84.04 119.581 84.12C118.441 84.58 117.071 83.66 117.061 82.43C117.051 80.95 117.061 79.48 117.061 78V77.99Z" fill="#FCFEFD"/>
<path d="M166.44 75.5C166.44 77.97 166.44 80.45 166.44 82.92C166.44 83.4 166.511 83.95 165.791 83.95C165.121 83.95 164.98 83.53 164.98 82.92C165 77.94 165 72.96 164.98 67.98C164.98 67.43 165.07 67.04 165.74 67.03C166.44 67.02 166.47 67.44 166.47 67.98C166.45 70.49 166.47 73 166.47 75.5C166.47 75.5 166.46 75.5 166.45 75.5H166.44Z" fill="#FCFEFD"/>
<path d="M154.821 75.32C154.821 72.85 154.821 70.38 154.821 67.91C154.821 67.44 154.791 66.97 155.471 67.02C156.021 67.06 156.211 67.36 156.211 67.91C156.151 72.99 156.101 78.07 156.231 83.15C156.241 83.71 155.961 83.74 155.531 83.77C154.981 83.81 154.811 83.58 154.821 83.05C154.841 80.48 154.821 77.9 154.821 75.33V75.32Z" fill="#FCFEFD"/>
<path d="M197.009 77.91C196.889 76.35 197.23 74.43 196.84 72.52C196.78 72.24 196.61 71.74 197.06 71.64C197.41 71.56 197.919 71.29 198.139 72C198.249 72.34 198.639 72.22 198.929 72.05C199.389 71.77 199.879 71.54 200.379 71.33C200.859 71.13 201.15 71.28 201.3 71.61C201.47 71.98 201.449 72.43 200.919 72.62C200.829 72.65 200.749 72.76 200.659 72.77C198.809 72.96 198.36 74.18 198.37 75.79C198.39 78.16 198.369 80.53 198.389 82.9C198.389 83.4 198.419 83.76 197.749 83.79C197.039 83.83 196.989 83.47 196.999 82.91C197.029 81.37 196.999 79.82 196.999 77.93L197.009 77.91Z" fill="#FCFEFD"/>
<path d="M122.021 77.55C122.021 75.77 122.051 73.98 122.001 72.2C121.991 71.71 122.071 71.52 122.561 71.57C122.941 71.61 123.451 71.43 123.431 72.11C123.431 72.21 123.431 72.32 123.431 72.42C123.431 75.92 123.431 79.42 123.431 82.92C123.431 83.3 123.491 83.7 123.091 83.93C122.561 84.23 122.021 83.89 122.011 83.22C121.991 81.33 122.011 79.45 122.011 77.56L122.021 77.55Z" fill="#FCFEFD"/>
<path d="M120.27 65.79C120.62 65.79 120.799 65.79 120.969 65.79C123.699 65.76 123.709 65.79 123.479 68.52C123.419 69.24 122.94 69.06 122.76 68.82C122.02 67.8 120.96 67.04 120.27 65.79Z" fill="#FCFEFD"/>
<path d="M114.37 44.6399C113.56 43.6999 112.74 42.77 111.93 41.83C111.78 41.66 111.53 41.48 111.7 41.22C111.85 40.98 112.14 41.0899 112.37 41.0999C113.85 41.1133 114.586 41.8499 114.58 43.3099C114.58 43.7199 114.58 44.13 114.58 44.54C114.51 44.58 114.44 44.62 114.37 44.65V44.6399Z" fill="#FCFEFD"/>
<path d="M43.6699 16.64C46.8599 16.64 49.7301 16.64 52.6001 16.64C53.2801 16.64 53.21 17.14 53.21 17.59C53.21 19.89 53.2399 22.19 53.1899 24.49C53.1799 25.12 53.4699 25.68 53.4199 26.3C53.3899 26.65 53.33 27 53 27.14C52.63 27.29 52.62 26.85 52.46 26.66C50.04 23.87 47.62 21.07 45.2 18.27C44.79 17.79 44.3399 17.35 43.6699 16.64Z" fill="#FCFEFD"/>
<path d="M56.0197 33.15C56.7497 33.15 57.5297 33.86 57.5397 34.51C57.5397 35.38 56.7997 36.07 55.8597 36.04C55.0197 36.01 54.5596 35.48 54.4696 34.71C54.3596 33.85 55.1197 33.15 56.0297 33.15H56.0197Z" fill="#373076"/>
<path d="M192.5 54.46C193.34 53.96 194.22 53.75 194.75 52.96C195.43 51.94 195.68 50.91 195.01 49.82C194.58 49.12 194.92 49.05 195.53 49.04C197.9 48.99 197.9 48.98 197.89 51.3C197.89 51.92 197.89 52.54 197.91 53.16C197.95 54.73 197.58 55.32 196 55.88C194.64 56.36 194.15 56.18 193 55.08C192.83 54.92 192.7 54.71 192.51 54.47L192.5 54.46Z" fill="#0F959E"/>
<path d="M185.109 51.1501C184.319 51.0901 183.689 50.8701 183.619 50.0401C183.539 49.1101 184.289 48.8701 184.959 48.8801C185.519 48.8901 186.279 48.9001 186.299 49.8701C186.319 50.7801 185.769 51.0201 185.109 51.1501Z" fill="#0F959E"/>
<path d="M121.831 51.13C121.121 51.14 120.26 50.48 120.38 49.89C120.53 49.13 121.16 48.88 121.89 48.85C122.65 48.82 123.151 49.15 123.261 49.91C123.351 50.59 122.701 51.11 121.831 51.13Z" fill="#0F959E"/>
<path d="M108.59 80.85C108.61 79.65 109.38 78.96 110.29 78.37C110.38 78.32 110.46 78.24 110.55 78.21C111.22 77.99 111.94 77.33 112.54 77.61C113.21 77.92 112.62 78.7999 112.69 79.4199C112.76 80.0399 112.74 80.68 112.6 81.33C112.35 82.54 111.52 82.91 110.53 83.1C109.53 83.29 108.58 82.1499 108.59 80.8399V80.85Z" fill="#0F959E"/>
<path d="M207.38 77.46C207.27 78.92 207.55 80.32 207.17 81.69C206.93 82.53 205.81 83.23 204.85 83.13C204.02 83.04 203.3 82.12 203.23 81.2C203.13 79.93 203.7 79.04 204.75 78.45C205.54 78.01 206.36 77.59 207.39 77.46H207.38Z" fill="#0F959E"/>
<path d="M150.329 79.4C150.299 80.11 150.399 80.82 150.139 81.53C149.749 82.59 148.749 83.31 147.709 83.14C146.839 83 146.239 82.1 146.179 81C146.119 79.96 146.559 79.22 147.399 78.7C147.979 78.34 148.589 78.03 149.219 77.77C150.259 77.34 150.329 77.41 150.329 78.48C150.329 78.79 150.329 79.1 150.329 79.41V79.4Z" fill="#0F959E"/>
<path d="M132.5 77.74C132.5 78.82 132.37 79.8 132.15 80.77C131.82 82.19 130.941 83.16 129.841 83.12C128.631 83.08 128.11 82.15 127.78 81.15C126.99 78.73 126.92 76.31 127.96 73.93C128.33 73.07 128.89 72.29 129.91 72.41C130.88 72.52 131.6 72.9 131.98 74.33C132.29 75.49 132.57 76.63 132.51 77.74H132.5Z" fill="#0F959E"/>
<path d="M233.809 76.4901C233.329 76.4901 232.979 76.4901 232.639 76.4901C231.359 76.5101 231.069 76.1501 231.399 74.8901C231.549 74.3001 231.759 73.7401 232.079 73.2101C232.889 71.8701 234.999 72.2301 235.409 73.4701C235.679 74.2801 236.079 75.1001 235.849 75.9301C235.489 77.2001 234.349 76.0801 233.809 76.5001V76.4901Z" fill="#0F959E"/>
</svg>
