<svg width="1012" height="329" viewBox="0 0 1012 329" fill="none" xmlns="http://www.w3.org/2000/svg">
<path d="M228.693 228.5C264.23 192.976 264.23 135.38 228.693 99.8553C193.156 64.3311 135.539 64.3311 100.002 99.8553C64.4647 135.38 64.4647 192.976 100.002 228.5C135.539 264.024 193.156 264.024 228.693 228.5Z" fill="#0066B2"/>
<path d="M164.346 0C209.698 0 250.745 18.3879 280.466 48.0983C310.188 77.8088 328.559 118.842 328.559 164.177C328.559 209.513 310.188 250.546 280.466 280.257C250.745 309.967 209.698 328.332 164.346 328.332C118.994 328.332 77.9461 309.944 48.225 280.234C18.5038 250.569 0.109375 209.513 0.109375 164.177C0.109375 118.842 18.4812 77.8088 48.2023 48.0983C77.9234 18.3879 118.994 0 164.346 0ZM164.346 6.09155C120.693 6.09155 81.1628 23.7774 52.5517 52.4009C23.918 81.0244 6.20311 120.54 6.20311 164.177C6.20311 207.815 23.918 247.33 52.5291 275.931C81.1628 304.555 120.693 322.241 164.323 322.241C207.976 322.241 247.506 304.555 276.117 275.931C304.751 247.308 322.443 207.792 322.443 164.177C322.443 120.54 304.728 81.0244 276.117 52.4235C247.483 23.8001 207.953 6.11419 164.323 6.11419L164.346 6.09155Z" fill="#0066B2"/>
<path d="M164.347 13.5645C205.962 13.5645 243.611 30.4351 270.863 57.6772C298.115 84.9194 314.992 122.578 314.992 164.155C314.992 205.754 298.138 243.39 270.863 270.632C243.611 297.874 205.939 314.745 164.347 314.745C122.733 314.745 85.0836 297.874 57.8317 270.632C30.5798 243.39 13.7031 205.731 13.7031 164.155C13.7031 122.556 30.5572 84.9194 57.8317 57.6772C85.0836 30.4351 122.756 13.5645 164.347 13.5645ZM164.347 19.656C124.455 19.656 88.3231 35.8246 62.1585 61.9798C35.994 88.135 19.7969 124.254 19.7969 164.155C19.7969 204.033 35.994 240.152 62.1585 266.307C88.3231 292.462 124.455 308.654 164.37 308.654C204.263 308.654 240.395 292.485 266.559 266.33C292.724 240.175 308.921 204.056 308.921 164.155C308.921 124.277 292.724 88.1576 266.559 62.0025C240.395 35.8473 204.263 19.656 164.347 19.656Z" fill="#0066B2"/>
<path d="M164.344 49.5703C196.013 49.5703 224.669 62.4101 245.42 83.1531C266.17 103.896 278.992 132.542 278.992 164.2C278.992 195.858 266.17 224.504 245.42 245.247C224.669 265.99 196.013 278.807 164.344 278.807C132.674 278.807 104.018 265.967 83.2675 245.225C62.5171 224.482 49.6953 195.835 49.6953 164.177C49.6953 132.52 62.5171 103.873 83.2675 83.1304C104.018 62.3875 132.674 49.5703 164.344 49.5703ZM164.344 55.6619C134.373 55.6619 107.257 67.7997 87.5943 87.4557C67.9539 107.089 55.789 134.218 55.789 164.177C55.789 194.137 67.9539 221.243 87.5943 240.899C107.235 260.533 134.373 272.693 164.344 272.693C194.314 272.693 221.43 260.555 241.093 240.899C260.733 221.266 272.898 194.137 272.898 164.177C272.898 134.218 260.733 107.112 241.093 87.4557C221.453 67.8223 194.314 55.6619 164.344 55.6619Z" fill="#0066B2"/>
<path d="M164.349 62.3652C192.485 62.3652 217.947 73.7784 236.364 92.1889C254.781 110.599 266.198 136.053 266.198 164.178C266.198 192.303 254.804 217.756 236.364 236.167C217.947 254.577 192.485 265.991 164.349 265.991C136.214 265.991 110.752 254.577 92.3344 236.167C73.9173 217.756 62.5 192.303 62.5 164.178C62.5 136.053 73.8946 110.599 92.3344 92.1889C110.752 73.7784 136.214 62.3652 164.349 62.3652ZM164.349 68.4568C137.913 68.4568 113.991 79.1679 96.6612 96.4915C79.3314 113.815 68.5937 137.751 68.5937 164.155C68.5937 190.582 79.3087 214.495 96.6612 231.819C113.991 249.143 137.935 259.876 164.349 259.876C190.786 259.876 214.707 249.165 232.037 231.842C249.367 214.518 260.105 190.582 260.105 164.178C260.105 137.751 249.39 113.838 232.037 96.5141C214.707 79.1906 190.763 68.4568 164.349 68.4568Z" fill="#0066B2"/>
<path d="M100.465 117.936C103.773 119.566 107.216 119.408 108.802 117.528C109.685 116.532 109.685 115.105 108.847 114.335C108.099 113.701 106.899 113.452 105.517 113.656L105.766 113.18C106.853 113.203 108.122 112.84 109.413 112.116L111.928 114.312L114.941 113.203L106.808 106.137L109.164 104.077L108.031 102.514L102.074 108.447L104.384 108.923L104.973 108.243L107.103 110.1C107.103 110.87 106.65 111.753 105.925 112.637C105.925 112.116 105.676 111.572 105.177 111.142C103.478 109.67 100.624 110.146 98.7889 112.229C98.2905 112.795 97.9054 113.429 97.6562 114.131L100.556 115.105C100.782 113.95 101.303 112.863 102.074 112.003C102.549 111.459 103.048 111.119 103.206 111.278C103.478 111.504 103.32 112.32 102.889 113.384C102.753 113.746 102.436 114.109 101.666 115.377L104.18 116.192L105.404 114.199C106.31 114.992 106.536 116.237 105.879 116.984C104.928 118.071 102.889 118.23 100.714 117.437L100.465 117.913V117.936ZM111.724 106.5C111.384 106.137 111.407 105.594 111.724 105.322C112.177 104.937 112.426 104.733 112.585 104.756L111.226 102.537L109.096 104.326L107.782 102.763L113.944 97.3738L115.19 98.9363L113.196 100.884C114.306 101.812 115.19 102.673 115.802 103.397C117.138 104.96 117.591 106.749 116.821 107.406C115.416 108.606 113.128 108.198 111.701 106.5H111.724ZM117.478 101.925C117.07 101.269 117.319 100.363 118.044 99.91L122.507 97.1247L121.284 95.1545L115.031 99.0495L113.944 97.3058L124.251 90.8746L125.339 92.6183L123.685 93.66L129.394 102.809L126.177 102.99L123.73 99.0721L121.669 100.363L122.484 101.676C122.937 102.401 122.915 103.216 122.439 103.533C121.895 103.873 120.944 103.85 119.856 103.533C118.769 103.194 117.931 102.627 117.501 101.948L117.478 101.925ZM111.339 91.101L114.329 92.9353C114.669 92.4371 115.167 92.0069 115.802 91.6445C116.368 91.3275 116.957 91.2369 117.455 91.4407L120.989 92.9579L121.646 92.573L116.436 90.2405C115.575 89.9235 113.763 90.2179 111.316 91.1237L111.339 91.101ZM133.562 92.6183C133.811 93.3656 134.513 94.1129 135.51 94.7016C136.507 95.2904 137.413 95.5169 138.024 95.313C138.568 95.1319 138.772 94.3167 138.5 93.5241L138.002 92.0748L140.312 91.2822L141.808 95.6527L144.979 96.1962L141.468 86.0059L143.303 85.3718L142.623 83.4017L131.138 87.3872L131.817 89.3347L138.795 86.9343L139.542 89.1083L134.558 90.8293C133.766 91.101 133.313 91.9389 133.562 92.6636V92.6183ZM144.956 87.4778C146.225 87.0023 147.063 86.0965 146.927 85.3039C146.927 85.0774 146.769 84.8283 146.542 84.5792L143.257 85.3718L142.51 83.3111L155.377 80.9107L155.739 82.9261L153.859 83.2658L155.739 93.8864L152.681 92.8447L152.319 90.8293C151.82 90.9878 151.435 91.1237 151.073 91.169C148.875 91.5539 146.451 90.0594 144.934 87.4325L144.956 87.4778ZM147.38 89.4027C148.015 89.6291 148.49 89.7197 148.739 89.6744C149.963 89.4706 151.073 88.5421 151.684 87.2061L151.073 83.7867L148.536 84.2396C149.125 84.7151 149.532 85.3945 149.646 86.1191C149.917 87.4552 148.921 88.8365 147.358 89.38L147.38 89.4027ZM163.555 82.5638L166.613 82.7676C166.953 83.9225 166.771 85.0774 166.137 85.8247C165.82 85.168 165.254 84.7378 164.665 84.6925C164.234 84.6698 163.849 85.1001 163.826 85.6662C163.781 86.1418 164.166 87.0702 164.937 88.3157L168.652 94.1129L169.694 93.7958L166.862 89.9914C167.949 89.6744 168.765 88.7686 169.082 87.5684C169.966 88.4289 170.826 88.9724 171.551 89.1536L171.325 92.3465L174.043 94.0902L174.791 83.3338L177.577 83.8093L178.03 81.8618L163.691 80.4805L163.555 82.5185V82.5638ZM168.788 82.9261L171.982 83.1526L171.778 85.9606C171.144 86.4135 170.419 86.6173 169.671 86.5947L169.15 86.5494C169.241 85.3492 169.105 84.1263 168.765 82.9261H168.788ZM164.438 93.4561L165.004 93.1618C166.16 95.1998 168.085 96.6038 170.192 96.9661C172.14 97.3285 173.953 96.4 174.202 94.9054C174.202 94.8149 174.043 94.7469 173.839 94.7016C173.386 94.5884 172.661 94.996 171.438 95.7207L169.354 93.5241C170.464 92.89 171.529 92.5956 172.367 92.7541C174.474 93.1165 175.901 94.8828 175.584 96.717C175.289 98.3928 173.341 99.4571 171.257 99.0721C168.697 98.6192 166.228 96.5585 164.438 93.4335V93.4561ZM178.347 84.0131L177.577 83.832L178.03 81.8392L188.224 84.1943L187.771 86.1871L185.868 85.7568L183.444 96.2641L181.043 94.1129L181.496 92.1201C179.797 91.7578 178.302 89.9914 177.554 87.5231L178.37 84.0131H178.347ZM181.088 84.6472L179.933 89.6518C179.865 89.8556 179.933 90.0594 180.092 90.082C180.839 90.2632 181.677 89.8556 182.153 89.1083L183.082 85.1001L181.088 84.6472ZM189.266 85.7794C188.813 86.957 189.379 88.4063 190.648 89.3347C189.334 89.5385 188.383 89.5612 187.884 89.38C187.816 92.3239 189.266 94.8601 191.509 95.7207C192.03 95.9245 192.574 96.0377 193.049 96.0377L192.415 97.7134L194.499 100.159L198.373 90.082L200.978 91.3049L201.975 89.5612L194.318 86.3229L195.02 88.7912L195.745 89.063L194.408 92.5277C193.253 93.4561 191.781 93.7505 190.557 93.2523C190.263 93.1391 189.9 92.7315 189.266 91.9389C191.486 91.9616 193.208 91.3501 193.57 90.4217C193.933 89.4932 193.887 88.293 193.434 87.0702C193.004 85.8474 192.302 84.9869 191.509 84.6925C190.648 84.3528 189.674 84.8283 189.311 85.7794H189.266ZM191.101 88.1345C191.35 87.4552 191.871 87.0249 192.279 87.2061C192.551 87.2967 192.687 87.6137 192.574 87.8628C192.279 88.6554 191.758 89.1988 191.214 89.2668C191.033 88.7912 191.01 88.3836 191.101 88.1345ZM207.411 92.6183L206.415 94.4072L204.761 93.4788L199.528 102.922L197.806 100.204L202.292 92.1201L200.887 91.3275L201.884 89.5385L207.434 92.6183H207.411ZM204.444 85.938L205.259 88.4516L207.819 87.8175L207.072 85.1907L204.444 85.938ZM209.903 100.521C209.496 101.065 209.292 102.016 209.36 103.171L209.722 108.425C209.79 109.489 209.971 110.259 210.288 110.463C210.402 110.553 210.696 110.666 211.172 110.802L210.492 105.956C211.874 105.866 213.075 105.3 213.754 104.394C214.139 103.873 214.751 102.763 215.657 101.02L218.24 103.171L219.508 101.654L212.622 96.1736L211.376 97.804L213.777 99.6156C213.46 100.023 212.758 100.748 211.693 101.744C211.421 101.133 211.149 100.68 210.877 100.476C210.538 100.204 210.062 100.227 209.881 100.521H209.903ZM224.696 106.545L223.155 107.949L221.298 106.183L213.936 114.063L212.916 111.006L219.214 104.258L218.036 103.148L219.44 101.654L224.696 106.545ZM221.275 109.761C219.803 112.41 219.757 115.263 221.23 116.939C221.456 117.211 221.774 117.483 222.159 117.822L220.618 119.158L221.298 122.306L229.43 115.241L230.676 116.667L232.217 115.331L224.515 106.477L222.974 107.813L224.537 109.625C224.447 109.942 224.311 110.191 224.13 110.327C223.518 110.848 222.317 110.599 221.253 109.761H221.275ZM220.89 112.818C221.026 113.474 221.185 113.927 221.343 114.131C222.159 115.06 223.518 115.535 224.99 115.377L227.596 113.112L225.919 111.165C225.806 111.912 225.443 112.614 224.877 113.089C223.858 113.995 222.181 113.859 220.89 112.818ZM231.265 103.443C232.421 105.775 232.919 107.541 232.67 108.447L230.903 113.859L230.45 113.225L231.582 109.557C231.718 109.036 231.582 108.447 231.197 107.926C230.767 107.315 230.269 106.885 229.748 106.59L231.265 103.42V103.443Z" fill="white"/>
<path d="M49.3555 126.224L51.9153 123.892L40.9738 120.133L41.6534 118.162L39.5693 117.438L38.8897 119.408L37.0774 118.774C35.7862 118.321 35.0613 116.917 35.537 115.626C36.0807 114.041 38.3007 112.388 41.5854 111.142L41.4495 110.259C36.7829 112.048 33.6568 114.381 32.8639 116.6C32.1843 118.547 32.9092 120.585 34.5176 121.106L36.8509 121.922L38.346 120.97L37.3493 123.846L39.4334 124.571L39.9771 122.986L49.3329 126.201L49.3555 126.224ZM41.8799 117.143L39.8864 116.215L44.3718 106.613L46.3653 107.542L45.5271 109.353C47.0675 109.761 47.5659 109.852 47.951 110.033C48.6533 110.35 48.8798 111.278 48.4947 112.116L47.3394 114.607C46.7504 115.853 47.1808 117.279 48.2908 117.777C48.9931 118.072 49.9219 117.506 50.4202 116.487C50.5561 116.26 50.5561 115.853 50.4429 115.445C50.2843 115.445 49.9219 115.354 49.3782 115.105C48.8345 114.834 48.6759 114.018 49.0157 113.271C49.6274 111.98 51.2357 111.437 52.6176 112.071C53.2519 112.365 53.6823 113.158 53.7729 114.132L57.1936 113.294C57.1483 113.769 57.1936 113.928 57.1483 114.041C56.967 114.471 56.4233 114.743 55.7437 114.766L53.705 114.879C53.705 114.992 53.6596 115.105 53.5917 115.332C53.5464 115.513 53.5011 115.649 53.4784 115.739C53.0027 116.758 51.87 117.687 50.3523 118.276C48.8571 118.864 47.43 118.932 46.4332 118.457C44.8928 117.777 44.2812 115.898 45.0287 114.313L45.5498 113.18C45.7083 112.841 45.6177 112.456 45.3459 112.32L44.3491 111.844L41.8799 117.121V117.143ZM52.1419 102.537C55.9023 103.76 59.5268 103.103 60.9314 100.862C61.7016 99.6613 61.5203 98.1441 60.5009 97.4648C59.6175 96.8986 58.3036 96.8307 56.8764 97.2383L57.0576 96.6948C58.213 96.559 59.5042 95.9928 60.7728 95.0191L63.763 96.9666L66.7986 95.3361L57.1029 89.0408L58.2583 87.2744L56.4233 86.0742L52.4137 92.2337L54.9282 92.3922L55.4493 91.577L57.9864 93.2301C58.077 94.0453 57.7599 95.0417 57.1029 96.106C57.035 95.5399 56.6725 94.9964 56.0835 94.6341C54.0448 93.3207 51.0998 94.2491 49.4688 96.7401C49.0384 97.4195 48.7212 98.1441 48.54 98.914L51.7568 99.5255C51.8247 98.2573 52.2325 97.0345 52.8894 95.9928C53.3198 95.3361 53.7956 94.9059 53.9768 95.0644C54.2939 95.2682 54.2486 96.1513 53.9768 97.3515C53.8862 97.7591 53.5917 98.1894 52.98 99.6613L55.7664 100.16L56.7631 97.8497C57.8505 98.5517 58.2583 99.8425 57.6693 100.748C56.8311 102.039 54.679 102.515 52.2551 101.994L52.0739 102.537H52.1419ZM61.2938 79.8695L63.0381 81.2282L61.7922 82.836L70.8988 89.9466L67.7273 91.3053L59.912 85.2137L58.8472 86.5724L57.1029 85.2137L61.2938 79.8695ZM48.6533 85.0099L52.3458 85.644C52.4817 85.0099 52.7988 84.3985 53.2972 83.7644C53.7276 83.221 54.2939 82.9039 54.8603 82.8813L58.9832 82.9719L59.4815 82.3151L53.3878 82.0887C52.3911 82.1113 50.7147 83.153 48.6533 85.0326V85.0099ZM71.9862 85.8478L75.2256 84.6476L66.5041 77.0615L67.8859 75.4763L66.2322 74.027L64.8504 75.6122L63.4006 74.3441C62.3585 73.4382 62.2226 71.8757 63.1514 70.8567C64.2614 69.5886 66.9345 68.8866 70.4457 68.9545L70.6496 68.0713C65.6432 67.9808 61.8828 68.9771 60.2971 70.7435C58.9379 72.306 58.8699 74.4573 60.1385 75.5216L62.0187 77.152L63.763 76.835L61.7695 79.1448L63.4232 80.5941L64.5332 79.326L72.0088 85.8251L71.9862 85.8478ZM70.9668 77.1747C70.6723 76.9256 70.7176 76.45 71.0347 76.1104C71.2839 75.8613 71.7823 75.6122 72.4845 75.4084C71.5784 74.1402 70.8988 73.3024 70.491 72.9174L68.2484 75.2272L66.6626 73.6873L72.5978 67.5505L74.1835 69.0677L72.2127 71.1058C73.957 72.306 75.067 73.0986 75.5654 73.5741C76.4262 74.412 76.8793 75.7707 76.7886 77.2426L82.0442 77.152C81.8403 77.6502 81.6818 77.922 81.5685 78.0352C81.3193 78.3296 80.4811 78.4428 79.3258 78.3522L73.6851 78.0579C72.4619 77.9899 71.4878 77.6502 70.9441 77.1294L70.9668 77.1747ZM75.067 68.3431L73.6625 66.6673L82.4973 59.2624L83.9018 60.9381L82.1575 62.41C83.3581 63.4064 84.4228 64.4708 85.3063 65.5124C86.3483 66.7579 86.5522 68.3431 85.85 69.3621L82.3614 69.0677C82.905 68.479 82.8824 67.5505 82.3614 66.9164L80.0734 64.1764L78.1705 65.7615L81.9762 70.2906C82.6105 71.0605 84.4002 71.1737 86.5296 70.5849C88.8402 69.7471 90.879 69.7697 91.6039 70.6529C91.8531 70.9473 91.989 71.4002 91.989 71.9437L88.523 72.5098C88.659 72.1701 88.591 71.7399 88.3192 71.4228C87.7981 70.7888 86.2124 71.3549 83.2901 71.8531C81.1607 72.2154 79.2805 71.7851 78.397 70.7435L75.8372 67.6864L75.0896 68.3204L75.067 68.3431ZM85.1704 59.8511L87.2998 62.8856C90.1767 63.9273 92.5553 64.0631 93.6427 63.3158C94.8886 62.4553 95.1831 60.7343 94.3223 59.4888L91.4906 55.4353L92.5327 54.7107L91.2641 52.8991L83.2675 58.4924L84.5361 60.304L85.193 59.8511H85.1704ZM87.6396 58.1075L90.7884 62.6138C90.9696 62.8629 91.3094 62.9309 91.5586 62.7497C92.0796 62.4327 91.9663 61.4137 91.3547 60.5305L88.9988 57.1564L87.6396 58.1075ZM96.3158 58.1301C96.9274 59.1718 98.2413 59.987 99.963 60.3267C101.73 60.7117 103.338 60.5531 104.494 59.8964C105.377 59.3982 106.238 58.4471 106.918 57.2243L103.95 55.9335C103.316 57.3602 102.432 58.4245 101.413 58.9906C100.212 59.67 98.8756 59.602 98.4452 58.8095C97.8335 57.7678 98.3772 56.3185 99.6005 55.5938L101.866 54.2804C102.387 53.986 102.568 53.3067 102.274 52.7858C101.594 51.6083 100.914 50.6119 100.257 49.8193L102.455 48.5512L101.345 46.649L91.9664 52.0612L93.0764 53.9634L97.8789 51.178L98.5585 52.3782C98.7397 52.7179 98.6038 53.1482 98.196 53.3973L97.3578 53.8728C95.908 54.7107 95.4323 56.5902 96.3158 58.1301ZM103.497 47.9171L102.591 45.9017L117.293 39.3573L118.199 41.3727L115.934 42.3691L120.645 52.9217L117.202 52.65L115.073 47.8718C114.461 47.668 114.235 49.5702 114.665 51.3592L111.561 51.8348C111.38 51.0422 111.358 50.1817 111.493 49.2985C111.131 49.2532 110.882 49.2759 110.746 49.3211C109.568 49.8646 108.979 51.1328 109.455 52.1518C110.021 53.4652 111.675 54.5975 113.985 55.2542L113.714 55.9788C109.681 55.1862 106.804 53.669 106.011 51.88C105.377 50.4987 106.17 48.8003 107.778 48.0757C108.775 47.668 110.157 47.8039 111.584 48.4833C111.765 47.1019 112.626 45.9017 113.94 45.3356L113.147 43.5693L103.474 47.8718L103.497 47.9171ZM126.331 41.735C126.513 42.4597 127.17 43.1843 128.144 43.7504C129.118 44.3392 130.069 44.5657 130.726 44.3845C131.36 44.2033 131.836 43.6599 132.47 43.4787C132.674 43.4108 132.878 43.4787 132.946 43.6372C133.218 44.6109 132.108 45.7206 130.59 45.9697C129.458 45.4488 128.755 45.1771 128.415 45.2677C127.827 45.4262 127.487 46.0829 127.668 46.7396C128.098 48.37 130.182 49.2079 132.312 48.6191C132.493 48.9588 133.105 49.4344 133.807 50.4987C134.351 51.2913 134.985 51.7442 135.393 51.6309C135.506 51.6083 135.597 51.4498 135.982 51.178L132.901 48.1662C134.192 47.2604 134.826 45.8338 134.509 44.6109C134.328 43.9089 133.716 43.2296 132.81 42.6408C131.881 42.052 130.998 41.8256 130.386 42.0068C129.775 42.1653 129.208 42.4597 128.551 42.6408C128.257 42.7088 127.985 42.6861 127.94 42.5276C127.804 42.0294 128.28 41.4633 129.027 41.2368L131.678 40.5348C132.267 40.3763 132.606 39.7649 132.448 39.1988C132.357 38.8817 132.131 38.3382 131.678 37.4098L133.535 36.9116L132.969 34.7829L123.975 37.1833L124.542 39.312L129.004 38.1118C129.163 38.7006 128.937 39.2667 128.483 39.3799L127.419 39.6743C126.535 39.9008 126.014 40.8292 126.241 41.6897L126.331 41.735ZM126.92 31.1824L129.367 32.5864L130.953 30.2539L128.483 28.714L126.943 31.1824H126.92ZM135.642 38.0438C137.137 37.5004 137.703 37.2513 138.134 37.1833L137.885 35.8246L134.758 36.3681L134.373 34.1942L143.117 32.6543L143.503 34.8282L140.852 35.3038L141.283 37.7495C142.483 38.1797 143.344 39.1988 143.571 40.4216C143.842 41.9162 142.936 43.524 141.351 44.4524L144.046 47.8945C143.797 48.0304 143.593 48.1209 143.389 48.1436C142.959 48.2115 142.461 47.9171 142.143 47.3963L140.694 44.7242C138.677 44.7242 137.046 43.8863 136.843 42.754C136.707 42.0068 137.137 41.3048 137.817 41.1915C138.111 41.1462 138.542 41.4633 139.493 42.0068C140.716 41.3274 141.373 40.0366 141.169 38.7911C141.124 38.5647 140.852 38.4288 140.558 38.4741C140.037 38.5873 139.198 39.1082 137.771 40.0819L135.597 38.0891L135.642 38.0438ZM144.545 37.6136C146.017 40.5122 148.532 42.2559 150.91 41.9615C151.295 41.9162 151.726 41.8029 152.269 41.6671L152.541 43.841L155.758 45.1091L154.354 33.6507L156.37 33.4016L156.098 31.2277L143.616 32.7675L143.888 34.9415L146.425 34.6244C146.651 34.8962 146.787 35.1679 146.81 35.417C146.923 36.2549 145.972 37.1833 144.59 37.6362L144.545 37.6136ZM147.036 39.8102C148.758 39.2893 149.868 37.8853 149.664 36.436C149.574 35.6435 149.166 34.8962 148.577 34.3527L151.318 34.013L151.771 37.7042C151.023 39.1082 149.778 40.0366 148.464 40.1951C148.192 40.2178 147.693 40.1046 147.036 39.8102ZM164.253 31.1597L157.457 31.2729L157.502 33.4695H159.247L159.428 43.3428L162.486 44.9506L162.282 33.4016L164.321 33.3563L164.276 31.1597H164.253ZM152.994 23.9133L154.716 27.2421C155.305 26.9704 155.985 26.8571 156.777 26.8571C157.457 26.8571 158.069 27.1289 158.408 27.5818L160.832 30.9333H161.648L158.159 25.9287C157.548 25.1588 155.713 24.4341 152.972 23.9133H152.994ZM165.25 36.504C165.25 37.2513 165.658 38.1797 166.45 39.1308L170.098 43.456C170.822 44.3392 171.479 44.8827 171.865 44.86C172.023 44.86 172.34 44.7921 172.839 44.5883L169.191 40.8066C170.347 39.8555 171.026 38.61 171.049 37.4098C171.049 36.7304 170.89 35.3717 170.573 33.2657L173.405 33.311L173.45 31.1144L164.933 30.9559L164.887 33.1525L168.104 33.1978C168.104 33.7413 167.945 34.8282 167.628 36.3455C166.994 35.9831 166.473 35.7793 166.133 35.7793C165.658 35.7793 165.272 36.0737 165.295 36.4587L165.25 36.504ZM162.781 23.8906C165.499 24.5473 167.289 25.3626 167.855 26.1778L171.072 31.3635L170.256 31.2956L168.013 27.8309C167.696 27.378 167.107 27.0836 166.405 27.0383C165.612 26.993 164.91 27.0609 164.321 27.31L162.758 23.8906H162.781ZM170.052 26.4722L171.978 28.5329L174.175 26.7666L172.25 24.57L170.052 26.4948V26.4722ZM174.719 33.5601L177.958 33.9677C178.253 35.2132 177.981 36.436 177.279 37.206C176.984 36.4813 176.395 35.9831 175.784 35.9152C175.33 35.8473 174.877 36.3002 174.832 36.9116C174.764 37.4324 175.127 38.4515 175.851 39.8102L179.499 46.2188L180.631 45.947L177.822 41.7124C179 41.4406 179.929 40.5122 180.337 39.244C181.243 40.2178 182.126 40.8518 182.874 41.0783L182.466 44.4977L185.275 46.5131L186.68 35.032L188.764 35.2811L189.036 33.1072L174.968 31.3862L174.696 33.5601H174.719ZM180.292 34.2395L183.712 34.6471L183.35 37.6589C182.647 38.0891 181.855 38.2703 181.062 38.2024L180.518 38.1344C180.677 36.8437 180.609 35.5302 180.314 34.2395H180.292ZM195.22 40.7839C194.586 43.1164 196.534 45.6526 199.524 46.4905L199.026 48.3474L201.518 50.7251L202.877 45.6753C203.987 44.8827 205.029 44.543 205.686 44.7242C205.89 44.7921 206.003 45.0186 205.98 45.2224C205.754 46.1055 204.893 47.2831 203.488 48.6871L206.184 51.4045C206.637 50.4534 206.932 49.7514 207.022 49.3438C207.929 45.9697 206.501 42.6635 203.874 41.9615L204.508 39.5611L210.33 41.1236L210.896 38.9949L196.126 35.032L195.56 37.1607L201.586 38.7685L200.793 41.6897L199.819 40.014C199.388 39.6969 198.958 39.4705 198.55 39.4026C197.01 38.9949 195.515 39.6064 195.197 40.7839H195.22ZM196.375 43.3655C196.692 42.1879 198.618 41.6897 200.657 42.2332L200.453 43.0258C198.822 43.7957 197.553 44.0901 196.806 43.9089C196.511 43.841 196.33 43.5693 196.375 43.3655ZM209.695 46.7169C209.899 46.2867 210.398 46.1055 210.896 46.2867L211.915 46.6717L213.388 42.822L211.032 41.9162L211.825 39.8555L218.938 42.5955L218.145 44.6562L216.22 43.9089L214.747 47.7586L217.058 48.6418L216.174 50.9516L213.864 50.0684L213.365 51.3592C213.139 52.0159 212.595 52.3782 212.142 52.2197C211.462 51.9253 210.76 51.0648 210.194 49.7967C209.628 48.4833 209.446 47.3963 209.695 46.7169ZM219.663 45.4488L217.964 48.9135C218.145 51.6762 219.278 53.8728 220.977 54.6654L220.003 56.6355L221.996 59.4435L227.071 49.0494L228.951 49.9552L229.925 47.9851L219.867 43.0711L218.893 45.0412L219.663 45.4262V45.4488ZM222.381 46.7849L224.352 47.7586L222.427 51.7215C221.724 52.4009 220.773 52.6047 220.025 52.2424C219.867 52.1744 219.844 51.948 219.957 51.7442L222.359 46.8075L222.381 46.7849ZM228.316 54.5975C228.747 53.8955 229.744 53.7143 230.514 54.1899L235.294 57.179L236.608 55.073L229.902 50.8837L231.058 49.0268L242.09 55.9109L240.934 57.7678L239.167 56.6582L233.051 66.4635L231.352 63.4517L233.98 59.2624L231.76 57.881L230.876 59.285C230.401 60.0549 229.585 60.4173 229.064 60.1002C228.475 59.7379 228.045 58.8095 227.863 57.6093C227.682 56.3864 227.841 55.3221 228.294 54.5975H228.316ZM241.184 50.5666L239.53 52.7632L240.074 54.1899L241.229 55.073L242.384 53.5331C243.041 52.6726 244.038 52.3329 244.649 52.8311C245.374 53.3746 245.374 55.3448 245.035 58.2886L242.792 56.5902L241.478 58.3566L242.837 59.3756L236.879 67.2788L238.307 70.4264L245.261 61.1872L246.892 62.41L248.206 60.6437L245.918 58.9227C246.439 54.6201 245.986 51.3819 244.717 50.4534C243.517 49.5476 241.931 49.5929 241.206 50.5666H241.184ZM246.281 75.2046L253.031 67.9581L251.808 66.8032L253.303 65.1954L255.546 67.2788L255.297 65.5351L256.996 63.7235C258.128 62.478 260.258 62.6365 261.775 64.0405C263.497 65.6709 264.335 69.4753 264.086 74.4573L263.225 74.2082C263.406 70.6982 262.817 68.0034 261.594 66.8485C260.597 65.8974 259.034 65.9653 258.106 66.9617L256.792 68.3657L258.332 69.7924L256.837 71.4002L255.297 69.9735L247.413 78.4202L246.326 75.1366L246.281 75.2046ZM257.947 72.1022L264.902 80.0959L263.452 81.364C262.523 80.2771 261.096 79.8015 259.737 80.028C259.986 78.4655 259.714 77.1068 259.034 76.2689C257.879 74.9328 255.999 74.6837 254.889 75.6801C253.416 76.9709 252.805 80.1639 253.212 84.24L253.983 84.2853C253.937 81.8849 254.526 79.96 255.614 79.0316C256.475 78.2843 257.834 78.4881 258.695 79.4392C258.785 79.5524 258.876 79.7789 258.944 80.1412C258.083 80.2771 257.267 80.5488 256.542 80.9564L257.902 83.7871C259.487 82.836 261.39 82.519 261.368 83.153L257.426 86.5724L258.151 89.9466L266.872 82.3604L268.503 84.24L270.157 82.7907L259.601 70.6529L257.947 72.1022ZM261.594 91.8714L269.613 86.0516L268.617 84.6929L270.406 83.4021L272.196 85.8704L272.287 84.1041L274.28 82.6548C275.617 81.6358 277.701 82.2019 278.901 83.8777C280.26 85.8025 280.374 89.6975 279.173 94.5435L278.38 94.1359C279.241 90.7165 279.173 87.9538 278.176 86.5951C277.383 85.4628 275.82 85.2364 274.71 86.0516L273.147 87.1839L274.371 88.8822L272.581 90.173L271.358 88.4746L262.002 95.2682L261.572 91.8488L261.594 91.8714ZM269.07 93.7057C269.478 93.4792 269.999 93.6604 270.27 94.1133L270.837 95.0644L274.371 92.9357L273.057 90.7618L274.937 89.6295L281.688 100.862L279.807 101.994L278.765 100.25L268.866 106.206L268.73 102.764L271.562 101.065L270.293 98.9367L269.115 99.6387C268.549 100.024 267.869 99.9784 267.62 99.5708C267.257 98.914 267.235 97.8044 267.575 96.4457C267.937 95.0644 268.458 94.0906 269.07 93.7057ZM272.4 97.6459L273.668 99.7746L277.202 97.6459L275.934 95.5173L272.4 97.6459ZM275.843 105.979C274.756 106.5 273.804 107.746 273.329 109.421C272.808 111.165 272.808 112.75 273.351 113.973C273.782 114.902 274.642 115.83 275.798 116.623L277.361 113.769C276.002 112.999 275.005 112.048 274.552 110.984C273.963 109.738 274.167 108.402 275.005 108.04C276.092 107.519 277.497 108.176 278.108 109.467L279.218 111.844C279.468 112.388 280.125 112.637 280.691 112.365C281.914 111.799 282.979 111.21 283.817 110.599L284.882 112.886L286.875 111.958L282.299 102.13L280.306 103.058L282.662 108.085L281.416 108.674C281.076 108.833 280.646 108.651 280.442 108.221L280.034 107.338C279.332 105.821 277.474 105.187 275.888 105.934L275.843 105.979ZM287.895 97.9856C288.642 100.68 288.778 102.628 288.348 103.534L285.38 108.855L285.04 108.108L286.988 104.462C287.238 103.941 287.215 103.307 286.921 102.673C286.581 101.948 286.173 101.382 285.675 100.975L287.917 97.9629L287.895 97.9856ZM280.691 115.717L281.031 116.17C279.332 118.366 278.675 120.653 279.309 122.193C279.875 123.597 281.076 124.435 282.005 124.073C282.163 124.028 282.209 123.869 282.163 123.711C281.869 122.986 281.121 122.601 280.827 121.876C280.51 121.106 280.714 120.019 281.303 118.864C281.891 117.687 282.707 116.826 283.545 116.487C284.179 116.192 284.927 116.577 285.199 117.302L285.969 119.204C286.082 119.476 286.4 119.612 286.694 119.498L287.464 119.181L285.176 113.52L287.215 112.705L291.406 123.076L289.367 123.892L288.484 121.718C287.577 122.284 287.306 122.488 287.056 122.601C286.06 123.008 285.086 122.873 284.859 122.306L283.817 119.748C283.5 118.978 283.024 118.434 282.73 118.547C282.39 118.729 282.163 118.978 282.254 119.181C282.526 119.838 282.934 120.472 283.205 121.174C283.545 121.989 283.477 123.031 283.047 124.05C282.616 125.092 281.914 125.839 281.076 126.179C279.739 126.722 278.199 126.02 277.633 124.616C276.681 122.193 277.859 118.706 280.691 115.671V115.717Z" fill="#0066B2"/>
<path fill-rule="evenodd" clip-rule="evenodd" d="M38.2828 143.842L45.5092 143.049L40.4349 147.805L44.739 153.647L38.0789 151.632L35.1793 158.29L33.5709 151.519L26.3672 152.311L31.4415 147.556L27.1374 141.713L33.7975 143.729L36.6971 137.094L38.2828 143.842Z" fill="#0066B2"/>
<path d="M27.8828 167.438L38.779 167.257L38.7111 163.362L40.9311 163.316L41.1123 173.733L38.8923 173.778L38.8244 169.906L27.9281 170.087L27.8828 167.438ZM28.2453 176.02L41.2709 174.413L41.5881 177.039L36.4684 177.673L37.1027 182.837L42.2223 182.202L42.5395 184.829L29.5138 186.437L29.1967 183.81L34.9053 183.108L34.271 177.945L28.5624 178.647L28.2453 176.02ZM29.9669 189.381L32.2096 199.096L34.3617 198.598L32.708 191.464L36.1966 190.672L37.669 197.08L39.8211 196.582L38.3486 190.174L41.1803 189.517L42.766 196.424L44.9407 195.925L42.7434 186.437L29.9443 189.381H29.9669ZM39.957 203.376C41.2029 202.9 42.3356 202.674 43.3097 202.719C44.0346 202.764 44.7369 202.923 45.4165 203.217C46.0961 203.512 46.6624 203.897 47.1381 204.372C47.7497 205.006 48.2481 205.821 48.6332 206.818C49.3355 208.629 49.3128 210.282 48.6332 211.8C47.931 213.317 46.5718 214.449 44.5783 215.219C42.6074 215.989 40.8405 216.034 39.3227 215.4C37.805 214.744 36.6723 213.521 35.9927 211.732C35.2904 209.92 35.2904 208.244 35.9927 206.75C36.6949 205.255 38.0088 204.123 39.9797 203.376H39.957ZM41.0217 205.889C39.6399 206.433 38.7111 207.135 38.2354 208.063C37.7596 208.969 37.7143 209.92 38.0994 210.917C38.4846 211.913 39.1415 212.57 40.0929 212.932C41.0444 213.294 42.2223 213.204 43.6495 212.66C45.054 212.117 45.9828 211.415 46.4359 210.532C46.8889 209.648 46.9116 208.697 46.5265 207.678C46.1414 206.659 45.4618 205.98 44.533 205.618C43.6042 205.255 42.4262 205.346 40.9991 205.889H41.0217ZM39.3907 219.703L40.5913 222.058L45.4844 219.567L45.7336 220.043C46.0054 220.586 46.164 220.994 46.2093 221.288C46.2546 221.582 46.2093 221.899 46.0734 222.239C45.9601 222.579 45.5977 223.281 44.986 224.368L43.3097 227.38L44.7595 230.21L46.3226 227.629C46.9342 226.61 47.342 225.84 47.5459 225.319C47.7271 224.798 47.8404 224.209 47.8857 223.553C48.5653 224.504 49.3128 225.092 50.151 225.319C50.9892 225.545 51.85 225.432 52.7108 224.979C53.4131 224.617 53.9341 224.141 54.2965 223.53C54.659 222.918 54.7949 222.284 54.727 221.605C54.659 220.926 54.2965 219.975 53.6623 218.729L51.1251 213.77L39.436 219.725L39.3907 219.703ZM47.342 218.616L50.3096 217.099L51.2384 218.933C51.7367 219.884 52.0086 220.473 52.0765 220.677C52.2124 221.084 52.2124 221.469 52.0765 221.786C51.9406 222.126 51.6688 222.398 51.2837 222.579C50.9212 222.76 50.6041 222.828 50.2869 222.783C49.9698 222.737 49.6979 222.601 49.4487 222.375C49.1996 222.149 48.7918 221.469 48.2255 220.337L47.342 218.593V218.616ZM45.7336 231.524L57.2188 225.16L58.5101 227.47L47.0248 233.833L45.7336 231.524ZM48.4293 236.143L59.5748 229.191L64.7397 237.434L62.8595 238.612L59.099 232.611L56.6298 234.15L60.1184 239.744L58.2382 240.921L54.7496 235.328L51.7141 237.23L55.6104 243.458L53.7302 244.635L48.4293 236.166V236.143ZM55.5425 246.537L57.0602 248.485L63.8109 243.209L60.3223 252.652L61.9534 254.758L72.3059 246.673L70.7881 244.726L63.8789 250.115L67.4808 240.491L65.895 238.453L55.5425 246.537ZM66.1895 259.06L74.1635 251.633L71.513 248.779L73.1441 247.262L80.2572 254.893L78.6262 256.411L75.9757 253.58L68.0018 261.008L66.1895 259.06ZM80.1893 271.9L84.8332 258.562L82.7038 256.728L70.2218 263.272L72.3512 265.106L75.1376 263.567L79.1019 267.009L78.0145 270.02L80.1893 271.9ZM79.9174 264.789L81.7523 259.921L77.2217 262.434L79.9401 264.789H79.9174ZM81.5711 272.896L89.2279 262.366L91.38 263.929L85.0371 272.67L90.3606 276.542L89.0693 278.331L81.5938 272.896H81.5711ZM94.7327 281.683L101.302 270.315L103.59 271.628L97.0206 282.996L94.7327 281.683ZM99.4672 284.264L101.642 285.419L105.674 277.856L106.331 287.91L108.687 289.156L114.849 277.561L112.674 276.406L108.551 284.151L107.917 273.893L105.629 272.693L99.4672 284.287V284.264ZM112.697 285.963L115.189 286.687C115.007 287.548 115.053 288.25 115.347 288.816C115.642 289.359 116.163 289.79 116.91 290.107C117.703 290.424 118.36 290.492 118.904 290.333C119.447 290.152 119.81 289.858 119.991 289.405C120.104 289.11 120.127 288.839 120.036 288.567C119.946 288.295 119.719 288.001 119.357 287.684C119.108 287.457 118.519 287.027 117.59 286.348C116.412 285.487 115.642 284.717 115.302 284.015C114.826 283.041 114.781 282.068 115.166 281.117C115.415 280.505 115.823 279.984 116.389 279.599C116.956 279.192 117.635 278.988 118.405 278.988C119.176 278.988 120.036 279.146 120.965 279.531C122.506 280.143 123.502 280.958 124.001 281.932C124.499 282.905 124.544 283.97 124.137 285.102L121.645 284.219C121.803 283.54 121.758 283.019 121.509 282.588C121.282 282.181 120.807 281.819 120.127 281.547C119.402 281.252 118.79 281.184 118.269 281.298C117.93 281.388 117.703 281.592 117.567 281.886C117.454 282.181 117.477 282.475 117.635 282.77C117.839 283.155 118.473 283.721 119.561 284.491C120.648 285.261 121.418 285.895 121.849 286.438C122.302 286.959 122.574 287.57 122.687 288.227C122.8 288.884 122.687 289.586 122.392 290.356C122.12 291.058 121.645 291.624 121.01 292.077C120.376 292.53 119.651 292.756 118.813 292.779C117.975 292.779 117.046 292.575 115.981 292.145C114.441 291.533 113.399 290.695 112.855 289.654C112.312 288.612 112.244 287.367 112.629 285.94L112.697 285.963ZM126.946 281.819L125.02 288.544C124.612 289.948 124.386 291.058 124.341 291.828C124.318 292.349 124.431 292.869 124.658 293.436C124.884 293.979 125.292 294.477 125.813 294.953C126.357 295.406 127.24 295.813 128.441 296.153C129.438 296.447 130.276 296.538 130.978 296.47C131.68 296.402 132.269 296.198 132.768 295.859C133.266 295.541 133.674 295.066 133.991 294.5C134.308 293.911 134.693 292.869 135.123 291.352L137.026 284.717L134.489 283.992L132.496 290.967C132.201 291.964 131.975 292.666 131.771 293.073C131.567 293.481 131.25 293.775 130.797 293.979C130.344 294.16 129.755 294.16 129.03 293.956C128.327 293.753 127.806 293.436 127.489 293.005C127.172 292.575 127.036 292.077 127.059 291.533C127.082 291.194 127.263 290.492 127.58 289.405L129.551 282.566L127.014 281.841L126.946 281.819ZM136.324 297.783L138.612 284.853L144.117 285.827C145.499 286.076 146.473 286.37 147.062 286.71C147.651 287.05 148.081 287.548 148.353 288.204C148.625 288.861 148.693 289.586 148.557 290.333C148.376 291.307 147.968 292.054 147.288 292.575C146.609 293.096 145.68 293.368 144.525 293.322C145.023 293.753 145.431 294.205 145.725 294.658C146.02 295.111 146.382 295.904 146.835 297.013L147.968 299.821L144.842 299.278L143.46 296.13C142.962 294.998 142.622 294.296 142.418 293.979C142.214 293.685 141.987 293.458 141.738 293.3C141.489 293.164 141.036 293.028 140.447 292.915L139.926 292.824L138.975 298.214L136.369 297.761L136.324 297.783ZM140.243 290.786L142.169 291.126C143.415 291.352 144.207 291.42 144.547 291.375C144.887 291.329 145.159 291.194 145.385 290.967C145.612 290.741 145.748 290.424 145.816 290.039C145.884 289.608 145.816 289.223 145.657 288.929C145.476 288.612 145.182 288.386 144.774 288.25C144.57 288.182 143.936 288.046 142.871 287.865L140.832 287.502L140.243 290.786ZM161.628 300.908L157.55 287.367L154.741 287.118L148.512 299.753L151.321 300.003L152.657 297.127L157.89 297.58L158.774 300.659L161.65 300.908H161.628ZM157.233 295.315L153.654 294.998L155.851 290.31L157.233 295.315ZM163.191 300.818L162.738 287.706L165.32 287.616L171.006 296.198L170.689 287.435L173.158 287.344L173.611 300.455L170.961 300.546L165.366 292.167L165.66 300.727L163.191 300.818ZM184.304 294.364L186.954 294.817C186.773 296.289 186.252 297.421 185.459 298.259C184.644 299.074 183.556 299.572 182.152 299.776C180.43 300.025 178.912 299.618 177.644 298.599C176.375 297.58 175.582 296.04 175.288 294.002C174.993 291.828 175.288 290.084 176.262 288.725C177.213 287.367 178.595 286.574 180.407 286.302C181.993 286.076 183.352 286.37 184.485 287.163C185.142 287.638 185.708 288.363 186.161 289.359L183.647 290.333C183.398 289.676 183.013 289.201 182.469 288.861C181.925 288.544 181.314 288.431 180.611 288.522C179.66 288.657 178.912 289.11 178.414 289.88C177.916 290.65 177.78 291.805 177.983 293.368C178.21 295.021 178.686 296.13 179.365 296.764C180.045 297.376 180.86 297.625 181.812 297.489C182.514 297.398 183.08 297.081 183.511 296.561C183.941 296.04 184.213 295.292 184.304 294.319V294.364ZM190.126 298.531L199.821 296.108L199.278 293.956L192.164 295.723L191.304 292.258L197.692 290.673L197.148 288.522L190.76 290.107L190.058 287.276L196.922 285.555L196.378 283.404L186.932 285.759L190.103 298.485L190.126 298.531ZM213.005 286.71L215.701 286.506C215.882 287.978 215.656 289.201 215.067 290.197C214.478 291.194 213.527 291.941 212.213 292.462C210.604 293.118 209.041 293.096 207.569 292.416C206.074 291.737 204.941 290.424 204.171 288.522C203.355 286.506 203.242 284.717 203.831 283.177C204.42 281.637 205.575 280.528 207.274 279.826C208.769 279.214 210.151 279.169 211.442 279.69C212.213 279.984 212.915 280.573 213.594 281.434L211.397 282.996C210.989 282.43 210.491 282.045 209.902 281.864C209.29 281.683 208.679 281.728 208.022 282C207.116 282.362 206.527 282.973 206.21 283.857C205.915 284.74 206.051 285.895 206.64 287.344C207.252 288.884 207.976 289.858 208.792 290.288C209.607 290.718 210.468 290.763 211.352 290.401C212.009 290.129 212.484 289.699 212.779 289.088C213.073 288.476 213.164 287.684 213.005 286.71ZM216.041 283.97C217.015 285.804 218.306 286.982 219.869 287.502C221.455 288.001 223.086 287.82 224.83 286.891C226.529 285.985 227.617 284.74 228.07 283.132C228.523 281.524 228.251 279.803 227.254 277.924C226.258 276.044 224.944 274.844 223.358 274.323C221.772 273.802 220.119 274.006 218.42 274.912C217.468 275.41 216.721 275.999 216.154 276.701C215.724 277.222 215.407 277.833 215.203 278.535C214.999 279.237 214.908 279.962 214.976 280.686C215.044 281.683 215.407 282.77 216.018 283.947L216.041 283.97ZM218.42 282.611C217.717 281.275 217.468 280.12 217.717 279.146C217.967 278.173 218.556 277.425 219.53 276.905C220.504 276.384 221.433 276.316 222.361 276.655C223.29 276.995 224.106 277.833 224.808 279.169C225.533 280.505 225.759 281.683 225.51 282.679C225.261 283.675 224.695 284.423 223.743 284.898C222.814 285.396 221.863 285.464 220.889 285.102C219.915 284.74 219.099 283.902 218.397 282.611H218.42ZM232.533 282.77L225.374 271.764L228.704 269.613L235.591 275.818L232.691 267.031L236.021 264.857L243.18 275.863L241.118 277.199L235.5 268.526L238.943 278.603L236.791 279.984L228.976 272.738L234.594 281.411L232.533 282.747V282.77ZM245.445 274.21L247.506 272.534L244.38 268.684L245.717 267.597C246.646 266.85 247.325 266.216 247.733 265.718C248.027 265.355 248.254 264.903 248.413 264.359C248.571 263.838 248.571 263.272 248.458 262.661C248.345 262.049 248.027 261.438 247.529 260.804C246.872 259.989 246.147 259.49 245.332 259.287C244.516 259.083 243.769 259.151 243.044 259.468C242.591 259.672 241.73 260.283 240.461 261.302L237.154 263.974L245.422 274.164L245.445 274.21ZM240.643 264.065L242.998 266.963L244.131 266.057C244.947 265.401 245.445 264.903 245.626 264.586C245.807 264.269 245.898 263.906 245.853 263.567C245.83 263.204 245.694 262.887 245.445 262.593C245.151 262.23 244.788 262.004 244.38 261.936C243.973 261.868 243.565 261.936 243.18 262.163C242.885 262.321 242.387 262.683 241.639 263.295L240.643 264.11V264.065ZM262.639 259.105L260.555 261.098L257.655 259.739L253.872 263.385L255.163 266.284L253.147 268.231L247.71 255.233L249.726 253.286L262.616 259.083L262.639 259.105ZM255.526 258.743L250.836 256.501L252.943 261.234L255.526 258.743ZM263.885 257.86L265.493 256.003L259.014 250.387L268.959 252.018L270.703 250.002L260.804 241.397L259.196 243.254L265.81 249.006L255.662 247.307L253.963 249.255L263.862 257.86H263.885ZM274.645 244.703L270.114 241.533L261.121 241.103L262.911 238.566L268.936 239.019L266.399 233.562L268.144 231.048L271.61 239.381L276.118 242.529L274.6 244.703H274.645ZM282.053 233.448L286.538 225.364L284.613 224.3L281.418 230.052L271.972 224.821L270.681 227.13L282.075 233.448H282.053ZM287.467 223.439L275.483 218.095L276.571 215.672L288.554 221.016L287.467 223.439ZM289.845 218.616L290.729 216.306L281.079 212.592L291.658 213.883L292.564 211.505L283.842 205.368L293.493 209.082L294.376 206.772L282.121 202.062L280.694 205.776L288.214 211.166L278.995 210.169L277.567 213.883L289.823 218.593L289.845 218.616ZM295.146 203.942L282.46 200.545L283.14 197.986L295.826 201.383L295.146 203.942ZM297.208 195.812L286.538 193.548L285.723 197.352L283.548 196.899L285.723 186.709L287.897 187.162L287.082 190.966L297.751 193.231L297.208 195.812ZM299.133 187.501L300.357 177.605L298.159 177.334L297.276 184.603L293.742 184.173L294.535 177.628L292.337 177.356L291.544 183.901L288.645 183.539L289.506 176.519L287.308 176.247L286.13 185.894L299.156 187.501H299.133ZM287.535 174.979L287.625 170.133C287.625 169.046 287.739 168.208 287.92 167.642C288.169 166.872 288.577 166.215 289.166 165.694C289.755 165.151 290.48 164.743 291.318 164.471C292.156 164.2 293.198 164.064 294.421 164.086C295.509 164.086 296.438 164.245 297.208 164.539C298.159 164.879 298.929 165.377 299.496 165.989C299.926 166.464 300.266 167.075 300.515 167.868C300.696 168.457 300.764 169.249 300.742 170.223L300.651 175.205L287.512 174.979H287.535ZM289.8 172.374L298.499 172.533L298.544 170.563C298.544 169.816 298.544 169.295 298.454 168.955C298.363 168.525 298.182 168.162 297.933 167.868C297.683 167.574 297.253 167.347 296.687 167.143C296.098 166.962 295.305 166.849 294.285 166.826C293.266 166.826 292.496 166.894 291.952 167.053C291.409 167.211 290.978 167.46 290.661 167.777C290.344 168.095 290.14 168.502 290.027 169C289.936 169.363 289.891 170.087 289.868 171.174V172.374H289.8Z" fill="#0066B2"/>
<path d="M164.344 118.162C177.052 118.162 188.56 123.325 196.897 131.636C205.211 139.947 210.375 151.45 210.375 164.177C210.375 176.881 205.233 188.385 196.897 196.718C188.56 205.029 177.075 210.192 164.344 210.192C151.635 210.192 140.128 205.029 131.791 196.718C123.477 188.385 118.312 176.904 118.312 164.177C118.312 151.473 123.455 139.969 131.791 131.636C140.105 123.325 151.613 118.162 164.344 118.162ZM164.344 122.442C152.813 122.442 142.393 127.107 134.827 134.67C127.261 142.234 122.594 152.673 122.594 164.177C122.594 175.703 127.283 186.12 134.827 193.684C142.393 201.247 152.836 205.912 164.344 205.912C175.875 205.912 186.295 201.247 193.861 193.684C201.427 186.12 206.094 175.681 206.094 164.177C206.094 152.651 201.405 142.234 193.861 134.67C186.295 127.107 175.852 122.442 164.344 122.442Z" fill="white"/>
<path d="M164.344 118.162C177.052 118.162 188.56 123.325 196.897 131.636C205.211 139.947 210.375 151.45 210.375 164.177C210.375 176.881 205.233 188.385 196.897 196.718C188.56 205.029 177.075 210.192 164.344 210.192C151.635 210.192 140.128 205.029 131.791 196.718C123.477 188.385 118.312 176.904 118.312 164.177C118.312 151.473 123.455 139.969 131.791 131.636C140.105 123.325 151.613 118.162 164.344 118.162ZM164.344 122.442C152.813 122.442 142.393 127.107 134.827 134.67C127.261 142.234 122.594 152.673 122.594 164.177C122.594 175.703 127.283 186.12 134.827 193.684C142.393 201.247 152.836 205.912 164.344 205.912C175.875 205.912 186.295 201.247 193.861 193.684C201.427 186.12 206.094 175.681 206.094 164.177C206.094 152.651 201.405 142.234 193.861 134.67C186.295 127.107 175.852 122.442 164.344 122.442Z" fill="white"/>
<path d="M80.9375 179.259L92.8758 176.496L93.4421 178.897L88.7529 179.984L89.8402 184.716L94.5295 183.63L95.0958 186.03L83.1575 188.793L82.5912 186.392L87.8014 185.192L86.7141 180.459L81.5038 181.659L80.9375 179.259ZM84.2449 191.872L87.5749 200.568L89.5004 199.821L87.0539 193.435L90.1574 192.235L92.3548 197.987L94.2803 197.239L92.0829 191.487L94.6201 190.514L96.9987 196.673L98.9242 195.926L95.6621 187.457L84.2222 191.85L84.2449 191.872ZM94.3709 212.751L93.057 210.396L94.9825 208.109L92.6039 203.829L89.6817 204.282L88.4131 201.995L101.439 200.228L102.707 202.516L94.3709 212.729V212.751ZM96.4097 206.411L99.5585 202.719L94.7787 203.467L96.4097 206.388V206.411ZM97.0893 215.537L98.7203 217.62L111.066 213.521L109.458 211.46L100.465 214.676L105.698 206.66L104.044 204.554L97.0893 215.537ZM103.5 223.055L112.018 214.246L118.542 220.564L117.092 222.058L112.335 217.461L110.455 219.409L114.872 223.689L113.445 225.183L109.028 220.903L106.717 223.304L111.633 228.059L110.206 229.554L103.5 223.077V223.055ZM112.516 231.139L114.374 232.498L119.086 226.021L118.383 235.396L120.4 236.846L127.603 226.927L125.746 225.568L120.943 232.181L121.691 222.624L119.743 221.221L112.539 231.139H112.516ZM124.749 234.513L126.992 235.442C126.742 236.212 126.72 236.891 126.924 237.434C127.128 237.978 127.581 238.431 128.238 238.771C128.94 239.155 129.551 239.269 130.072 239.178C130.594 239.065 130.956 238.816 131.16 238.408C131.296 238.159 131.341 237.887 131.273 237.638C131.228 237.389 131.047 237.095 130.729 236.755C130.526 236.529 130.027 236.053 129.234 235.351C128.215 234.445 127.581 233.653 127.331 232.973C126.992 232.022 127.037 231.116 127.49 230.256C127.785 229.712 128.215 229.282 128.781 228.965C129.348 228.648 130.005 228.535 130.707 228.58C131.432 228.648 132.202 228.897 133.04 229.327C134.399 230.052 135.26 230.89 135.623 231.841C135.985 232.792 135.94 233.789 135.441 234.808L133.199 233.743C133.403 233.132 133.403 232.634 133.244 232.226C133.063 231.818 132.678 231.456 132.066 231.116C131.432 230.777 130.865 230.641 130.367 230.709C130.05 230.754 129.801 230.913 129.665 231.207C129.529 231.456 129.529 231.728 129.642 232.045C129.801 232.43 130.344 233.019 131.273 233.834C132.202 234.649 132.859 235.328 133.221 235.872C133.584 236.415 133.788 236.982 133.833 237.616C133.878 238.227 133.72 238.884 133.357 239.563C133.017 240.174 132.542 240.673 131.907 241.035C131.273 241.397 130.571 241.533 129.801 241.465C129.03 241.397 128.17 241.103 127.241 240.605C125.882 239.88 124.998 238.997 124.59 237.978C124.183 236.959 124.251 235.804 124.749 234.513ZM138.228 244.771L141.58 233.087L143.959 233.766L141.173 243.458L147.085 245.156L146.519 247.149L138.228 244.771ZM148.943 247.353L151.072 235.283L153.519 235.713L151.389 247.783L148.943 247.353ZM160.564 244.296L160.745 242.235L166.069 242.711L165.638 247.579C165.072 248.032 164.302 248.417 163.282 248.712C162.263 249.006 161.266 249.119 160.247 249.029C158.978 248.916 157.891 248.553 156.985 247.942C156.078 247.33 155.444 246.493 155.036 245.451C154.651 244.409 154.493 243.3 154.606 242.145C154.719 240.877 155.082 239.767 155.693 238.838C156.305 237.887 157.166 237.208 158.231 236.778C159.046 236.438 160.043 236.325 161.198 236.415C162.716 236.551 163.871 236.959 164.664 237.684C165.457 238.386 165.933 239.314 166.069 240.469L163.577 240.718C163.463 240.107 163.169 239.608 162.739 239.223C162.285 238.838 161.719 238.612 160.994 238.544C159.907 238.453 159.023 238.725 158.344 239.337C157.642 239.971 157.234 240.944 157.121 242.303C156.985 243.752 157.211 244.862 157.8 245.655C158.389 246.425 159.182 246.877 160.224 246.968C160.745 247.013 161.266 246.968 161.81 246.81C162.353 246.651 162.806 246.447 163.214 246.198L163.35 244.658L160.519 244.409L160.564 244.296ZM168.515 249.029L166.816 236.891L169.263 236.551L169.942 241.329L174.745 240.65L174.065 235.872L176.512 235.532L178.211 247.67L175.764 248.01L175.017 242.711L170.214 243.39L170.962 248.689L168.515 249.029ZM184.078 246.515L186.479 245.926L184.01 236.053L187.521 235.17L187.023 233.154L177.576 235.51L178.075 237.525L181.609 236.642L184.078 246.515ZM193.003 237.57C192.482 236.438 192.21 235.419 192.188 234.491C192.188 233.811 192.278 233.132 192.505 232.498C192.731 231.841 193.049 231.298 193.479 230.822C194.045 230.211 194.77 229.69 195.676 229.26C197.307 228.49 198.848 228.399 200.32 228.942C201.77 229.509 202.925 230.686 203.764 232.498C204.602 234.287 204.76 235.917 204.262 237.389C203.764 238.861 202.699 239.971 201.068 240.718C199.414 241.488 197.874 241.601 196.424 241.035C194.974 240.492 193.841 239.314 193.026 237.548L193.003 237.57ZM195.291 236.415C195.88 237.661 196.605 238.499 197.489 238.861C198.372 239.246 199.256 239.223 200.162 238.793C201.045 238.386 201.634 237.706 201.906 236.8C202.178 235.895 202.019 234.785 201.408 233.494C200.819 232.226 200.094 231.411 199.233 231.026C198.372 230.664 197.489 230.686 196.583 231.116C195.654 231.547 195.065 232.203 194.793 233.109C194.521 234.015 194.68 235.102 195.291 236.37V236.415ZM201.34 226.746L205.191 232.022C206.006 233.132 206.663 233.924 207.207 234.4C207.569 234.717 208.022 234.943 208.566 235.102C209.11 235.238 209.699 235.238 210.333 235.102C210.99 234.966 211.783 234.558 212.734 233.856C213.527 233.29 214.071 232.724 214.433 232.181C214.773 231.615 214.977 231.071 215.022 230.528C215.068 229.984 214.954 229.418 214.728 228.852C214.479 228.286 213.912 227.403 213.051 226.202L209.268 220.994L207.275 222.443L211.262 227.923C211.828 228.716 212.213 229.282 212.395 229.667C212.576 230.052 212.621 230.46 212.485 230.89C212.372 231.343 212.032 231.75 211.466 232.181C210.899 232.588 210.378 232.792 209.88 232.77C209.382 232.77 208.929 232.588 208.566 232.249C208.34 232.022 207.909 231.501 207.298 230.641L203.401 225.274L201.408 226.723L201.34 226.746ZM219.123 228.807L210.605 219.998L214.343 216.374C215.294 215.469 216.042 214.88 216.631 214.631C217.22 214.382 217.831 214.336 218.466 214.495C219.123 214.653 219.689 214.993 220.187 215.514C220.822 216.171 221.161 216.918 221.184 217.71C221.207 218.526 220.89 219.341 220.233 220.201C220.844 220.066 221.388 219.998 221.909 220.02C222.43 220.043 223.223 220.201 224.31 220.473L227.051 221.153L224.922 223.213L221.773 222.534C220.663 222.285 219.915 222.172 219.576 222.149C219.236 222.149 218.941 222.194 218.692 222.307C218.443 222.421 218.103 222.67 217.695 223.077L217.333 223.417L220.89 227.086L219.1 228.807H219.123ZM215.996 222.013L213.844 219.771L215.226 218.435C215.951 217.733 216.382 217.326 216.563 217.212C216.903 216.986 217.22 216.873 217.559 216.918C217.899 216.941 218.194 217.099 218.488 217.416C218.737 217.688 218.896 217.96 218.941 218.254C218.987 218.548 218.941 218.82 218.805 219.115C218.669 219.386 218.171 219.952 217.31 220.768L215.996 222.036V222.013ZM230.676 209.264L232.307 206.954L233.575 207.837C233.575 208.313 233.553 208.811 233.417 209.354C233.281 209.898 233.077 210.373 232.782 210.804C232.171 211.664 231.401 212.14 230.427 212.253C229.452 212.366 228.388 212.004 227.187 211.166C226.077 210.396 225.443 209.558 225.239 208.63C225.035 207.724 225.239 206.818 225.873 205.935C226.281 205.346 226.757 204.961 227.323 204.78C227.889 204.599 228.456 204.599 229.045 204.78L230.087 202.516C229.022 202.063 227.98 202.017 226.983 202.357C225.964 202.697 225.035 203.489 224.152 204.735C223.472 205.686 223.087 206.614 222.974 207.498C222.815 208.652 222.974 209.717 223.495 210.736C223.993 211.732 224.786 212.615 225.828 213.34C226.802 214.019 227.821 214.45 228.909 214.631C229.996 214.812 231.038 214.676 232.035 214.2C233.032 213.725 233.893 212.978 234.617 211.913C235.206 211.098 235.614 210.17 235.863 209.128C236.113 208.109 236.18 207.226 236.067 206.524L232.058 203.716L228.999 208.086L230.698 209.264H230.676ZM227.731 199.957L228.728 197.692L234.799 200.387C235.75 200.817 236.407 201.066 236.702 201.134C237.2 201.247 237.676 201.18 238.106 200.93C238.536 200.681 238.899 200.251 239.193 199.617C239.488 198.983 239.556 198.439 239.443 197.987C239.329 197.534 239.103 197.194 238.74 196.968C238.378 196.741 237.766 196.424 236.883 196.016L230.698 193.254L231.695 190.989L237.585 193.616C238.922 194.205 239.85 194.703 240.349 195.065C240.847 195.428 241.21 195.881 241.459 196.379C241.685 196.877 241.799 197.443 241.776 198.1C241.776 198.757 241.549 199.526 241.164 200.41C240.689 201.474 240.213 202.244 239.714 202.674C239.216 203.104 238.718 203.399 238.174 203.557C237.63 203.693 237.132 203.738 236.656 203.648C235.954 203.512 234.957 203.172 233.711 202.606L227.731 199.957ZM243.996 192.982L244.766 190.627L233.122 186.845L232.352 189.2L243.996 192.982ZM233.96 185.192L234.912 180.776C235.116 179.78 235.365 179.033 235.614 178.557C235.977 177.9 236.475 177.379 237.109 176.995C237.744 176.61 238.468 176.36 239.284 176.27C240.1 176.179 241.074 176.247 242.206 176.474C243.18 176.677 244.019 176.995 244.675 177.379C245.491 177.855 246.103 178.444 246.51 179.123C246.828 179.621 247.031 180.255 247.099 181.025C247.167 181.591 247.099 182.316 246.895 183.222L245.921 187.774L233.938 185.237L233.96 185.192ZM236.498 183.199L244.426 184.875L244.811 183.063C244.947 182.384 245.015 181.886 245.015 181.569C245.015 181.161 244.902 180.799 244.721 180.482C244.54 180.165 244.2 179.87 243.701 179.599C243.203 179.327 242.478 179.078 241.549 178.897C240.621 178.693 239.896 178.625 239.375 178.693C238.854 178.738 238.401 178.897 238.061 179.123C237.721 179.35 237.449 179.689 237.268 180.12C237.132 180.437 236.951 181.093 236.724 182.09L236.498 183.177V183.199ZM248.572 174.866L236.339 174.005L236.973 164.947L239.035 165.083L238.582 171.673L241.3 171.854L241.731 165.717L243.792 165.853L243.362 171.99L246.692 172.216L247.167 165.4L249.229 165.536L248.572 174.821V174.866Z" fill="white"/>
<path fill-rule="evenodd" clip-rule="evenodd" d="M165.523 113.18L162.442 113.542L160.992 110.983V101.518C163.552 101.721 165.863 102.514 167.652 104.665L165.5 113.18H165.523Z" fill="white"/>
<path fill-rule="evenodd" clip-rule="evenodd" d="M156.51 113.745L153.543 114.651L151.685 112.386L150.031 103.057C152.591 102.807 155.015 103.192 157.144 105.004L156.51 113.768V113.745Z" fill="white"/>
<path fill-rule="evenodd" clip-rule="evenodd" d="M147.723 115.898L144.959 117.302L142.739 115.377L139.5 106.477C141.969 105.775 144.438 105.753 146.84 107.157L147.746 115.898H147.723Z" fill="white"/>
<path fill-rule="evenodd" clip-rule="evenodd" d="M139.428 119.52L136.936 121.377L134.399 119.883L129.664 111.685C131.975 110.576 134.399 110.123 137.004 111.074L139.405 119.52H139.428Z" fill="white"/>
<path fill-rule="evenodd" clip-rule="evenodd" d="M131.91 124.549L129.78 126.813L127.039 125.772L120.945 118.525C123.029 117.03 125.317 116.147 128.081 116.646L131.91 124.549Z" fill="white"/>
<path fill-rule="evenodd" clip-rule="evenodd" d="M125.363 130.798L123.664 133.403L120.765 132.859L113.516 126.768C115.305 124.933 117.412 123.665 120.198 123.688L125.341 130.798H125.363Z" fill="white"/>
<path fill-rule="evenodd" clip-rule="evenodd" d="M120.017 138.089L118.794 140.942L115.849 140.897L107.648 136.164C109.098 134.035 110.956 132.428 113.697 131.975L119.994 138.089H120.017Z" fill="white"/>
<path fill-rule="evenodd" clip-rule="evenodd" d="M116.005 146.196L115.302 149.208L112.403 149.684L103.5 146.446C104.565 144.113 106.105 142.211 108.733 141.26L116.005 146.196Z" fill="white"/>
<path fill-rule="evenodd" clip-rule="evenodd" d="M113.442 154.87L113.261 157.972L110.497 158.946L101.164 157.293C101.798 154.802 102.999 152.651 105.423 151.27L113.442 154.87Z" fill="white"/>
<path fill-rule="evenodd" clip-rule="evenodd" d="M112.471 163.859L112.834 166.939L110.274 168.388H100.805C101.009 165.829 101.801 163.519 103.953 161.73L112.471 163.882V163.859Z" fill="white"/>
<path fill-rule="evenodd" clip-rule="evenodd" d="M113.034 172.872L113.94 175.839L111.675 177.696L102.342 179.349C102.093 176.79 102.478 174.367 104.29 172.238L113.057 172.872H113.034Z" fill="white"/>
<path fill-rule="evenodd" clip-rule="evenodd" d="M115.19 181.659L116.595 184.422L114.669 186.641L105.767 189.88C105.064 187.411 105.042 184.943 106.446 182.543L115.19 181.637V181.659Z" fill="white"/>
<path fill-rule="evenodd" clip-rule="evenodd" d="M118.811 189.947L120.668 192.438L119.173 194.974L110.973 199.707C109.863 197.398 109.41 194.974 110.361 192.37L118.811 189.97V189.947Z" fill="white"/>
<path fill-rule="evenodd" clip-rule="evenodd" d="M123.843 197.465L126.108 199.593L125.066 202.334L117.817 208.425C116.322 206.342 115.438 204.055 115.937 201.292L123.843 197.465Z" fill="white"/>
<path fill-rule="evenodd" clip-rule="evenodd" d="M130.098 204.01L132.703 205.708L132.159 208.607L126.066 215.853C124.231 214.064 122.962 211.958 122.985 209.173L130.098 204.032V204.01Z" fill="white"/>
<path fill-rule="evenodd" clip-rule="evenodd" d="M137.366 209.377L140.221 210.6L140.175 213.544L135.441 221.741C133.311 220.292 131.703 218.435 131.25 215.695L137.366 209.4V209.377Z" fill="white"/>
<path fill-rule="evenodd" clip-rule="evenodd" d="M145.477 213.385L148.49 214.087L148.966 216.985L145.727 225.885C143.393 224.821 141.491 223.281 140.539 220.654L145.477 213.385Z" fill="white"/>
<path fill-rule="evenodd" clip-rule="evenodd" d="M154.172 215.922L157.276 216.103L158.25 218.888L156.596 228.218C154.104 227.584 151.952 226.384 150.57 223.961L154.172 215.945V215.922Z" fill="white"/>
<path fill-rule="evenodd" clip-rule="evenodd" d="M163.168 216.917L166.249 216.555L167.699 219.114V228.579C165.139 228.375 162.829 227.583 161.039 225.432L163.191 216.917H163.168Z" fill="white"/>
<path fill-rule="evenodd" clip-rule="evenodd" d="M172.189 216.328L175.157 215.422L177.014 217.686L178.668 227.016C176.108 227.265 173.684 226.88 171.555 225.069L172.189 216.305V216.328Z" fill="white"/>
<path fill-rule="evenodd" clip-rule="evenodd" d="M180.976 214.177L183.739 212.773L185.959 214.698L189.199 223.598C186.73 224.3 184.261 224.322 181.859 222.918L180.953 214.177H180.976Z" fill="white"/>
<path fill-rule="evenodd" clip-rule="evenodd" d="M189.266 210.554L191.757 208.697L194.295 210.192L199.029 218.389C196.719 219.499 194.295 219.952 191.69 219.001L189.288 210.554H189.266Z" fill="white"/>
<path fill-rule="evenodd" clip-rule="evenodd" d="M196.789 205.526L198.918 203.262L201.66 204.303L207.753 211.55C205.669 213.044 203.381 213.928 200.617 213.429L196.789 205.526Z" fill="white"/>
<path fill-rule="evenodd" clip-rule="evenodd" d="M203.336 199.3L205.035 196.695L207.935 197.239L215.184 203.33C213.394 205.165 211.287 206.433 208.501 206.41L203.359 199.3H203.336Z" fill="white"/>
<path fill-rule="evenodd" clip-rule="evenodd" d="M208.68 192.008L209.903 189.154L212.848 189.2L221.048 193.932C219.599 196.061 217.741 197.669 215 198.122L208.702 192.008H208.68Z" fill="white"/>
<path fill-rule="evenodd" clip-rule="evenodd" d="M212.688 183.901L213.39 180.89L216.289 180.414L225.192 183.652C224.127 185.985 222.587 187.887 219.959 188.838L212.688 183.901Z" fill="white"/>
<path fill-rule="evenodd" clip-rule="evenodd" d="M215.227 175.228L215.408 172.126L218.194 171.152L227.527 172.805C226.893 175.296 225.692 177.448 223.268 178.829L215.249 175.228H215.227Z" fill="white"/>
<path fill-rule="evenodd" clip-rule="evenodd" d="M216.222 166.237L215.859 163.157L218.419 161.73H227.888C227.684 164.289 226.892 166.599 224.739 168.388L216.222 166.237Z" fill="white"/>
<path fill-rule="evenodd" clip-rule="evenodd" d="M215.656 157.201L214.75 154.235L217.015 152.378L226.348 150.725C226.598 153.284 226.213 155.707 224.4 157.835L215.633 157.201H215.656Z" fill="white"/>
<path fill-rule="evenodd" clip-rule="evenodd" d="M213.506 148.416L212.102 145.653L214.027 143.434L222.93 140.195C223.632 142.664 223.655 145.132 222.25 147.532L213.506 148.438V148.416Z" fill="white"/>
<path fill-rule="evenodd" clip-rule="evenodd" d="M209.881 140.127L208.023 137.636L209.519 135.1L217.719 130.367C218.829 132.677 219.282 135.1 218.331 137.704L209.881 140.105V140.127Z" fill="white"/>
<path fill-rule="evenodd" clip-rule="evenodd" d="M204.851 132.609L202.586 130.48L203.628 127.74L210.877 121.648C212.372 123.732 213.256 126.019 212.757 128.782L204.851 132.609Z" fill="white"/>
<path fill-rule="evenodd" clip-rule="evenodd" d="M198.597 126.064L195.992 124.366L196.536 121.467L202.63 114.221C204.465 116.01 205.733 118.116 205.71 120.901L198.597 126.041V126.064Z" fill="white"/>
<path fill-rule="evenodd" clip-rule="evenodd" d="M191.331 120.72L188.477 119.497L188.522 116.553L193.256 108.355C195.386 109.805 196.994 111.662 197.447 114.402L191.331 120.697V120.72Z" fill="white"/>
<path fill-rule="evenodd" clip-rule="evenodd" d="M183.215 116.713L180.202 116.011L179.727 113.112L182.966 104.213C185.299 105.277 187.202 106.817 188.154 109.444L183.215 116.713Z" fill="white"/>
<path fill-rule="evenodd" clip-rule="evenodd" d="M174.515 114.177L171.412 113.996L170.438 111.211L172.091 101.881C174.583 102.515 176.735 103.715 178.117 106.138L174.515 114.155V114.177Z" fill="white"/>
<path d="M164.343 125.342C153.628 125.342 143.909 129.69 136.887 136.71C129.842 143.752 125.492 153.444 125.492 164.178C125.492 174.889 129.842 184.604 136.887 191.624C143.932 198.667 153.628 203.015 164.365 203.015C175.08 203.015 184.798 198.667 191.821 191.647C198.866 184.604 203.216 174.912 203.216 164.178C203.216 153.467 198.866 143.752 191.821 136.732C184.776 129.69 175.08 125.342 164.343 125.342Z" fill="white"/>
<path fill-rule="evenodd" clip-rule="evenodd" d="M296.712 143.842L303.916 143.049L298.865 147.805L303.169 153.647L296.509 151.632L293.586 158.29L292.001 151.519L284.797 152.311L289.849 147.556L285.567 141.713L292.205 143.729L295.127 137.094L296.712 143.842Z" fill="#0066B2"/>
<path d="M165.481 139.471L155.536 152.061C155.332 152.333 155.038 152.469 154.721 152.514L141.536 154.077L151.187 167.279C151.391 167.573 151.459 167.913 151.391 168.23L149.193 181.772L164.688 176.292C165.005 176.179 165.322 176.201 165.594 176.337L179.798 181.817L179.481 166.939C179.481 166.622 179.594 166.351 179.775 166.124L187.455 157.179L175.109 151.337C174.905 151.246 174.746 151.088 174.61 150.907L165.458 139.471H165.481ZM153.95 150.159L164.53 136.776C164.53 136.776 164.643 136.64 164.733 136.572C165.254 136.142 166.025 136.232 166.432 136.753L176.423 149.231L189.969 155.639C189.969 155.639 190.15 155.753 190.241 155.821C190.762 156.251 190.807 157.021 190.377 157.542L181.973 167.347L182.335 183.538C182.335 183.697 182.335 183.878 182.244 184.036C181.995 184.67 181.293 184.965 180.659 184.738L165.096 178.737L148.083 184.761C147.902 184.829 147.698 184.852 147.472 184.806C146.815 184.693 146.362 184.082 146.475 183.402L148.944 168.298L138.388 153.873C138.252 153.692 138.138 153.488 138.116 153.239C138.048 152.56 138.524 151.971 139.181 151.88L153.928 150.114L153.95 150.159Z" fill="#0066B2"/>
<path d="M166.295 171.22L170.735 168.005L175.175 164.789L173.476 159.581L171.777 154.372H160.812L159.113 159.581L157.414 164.789L161.855 168.005L166.295 171.22ZM172.162 169.975L166.997 173.711L166.272 174.232L165.547 173.711L160.382 169.975L155.217 166.238L154.492 165.717L154.764 164.88L156.735 158.833L158.706 152.787L158.978 151.949H173.498L173.77 152.787L175.741 158.833L177.712 164.88L177.984 165.717L177.259 166.238L172.094 169.975H172.162Z" fill="#0066B2"/>
<path d="M166.296 166.509L168.267 165.083L170.238 163.656L169.49 161.346L168.743 159.036H163.872L163.125 161.346L162.377 163.656L164.348 165.083L166.319 166.509H166.296ZM169.694 167.053L167.021 169L166.296 169.521L165.571 169L162.898 167.053L160.225 165.105L159.5 164.584L159.772 163.746L160.791 160.599L161.811 157.451L162.082 156.613H170.487L170.759 157.451L171.778 160.599L172.797 163.746L173.069 164.584L172.344 165.105L169.671 167.053H169.694Z" fill="#0066B2"/>
<path d="M167.861 144.385H165.414V152.582H167.861V144.385Z" fill="#0066B2"/>
<path d="M183.166 156.662L174.953 158.646L175.528 161.024L183.741 159.039L183.166 156.662Z" fill="#0066B2"/>
<path d="M149.286 156.658L148.711 159.035L156.924 161.02L157.499 158.643L149.286 156.658Z" fill="#0066B2"/>
<path d="M159.737 168.007L154.039 174.727L155.905 176.308L161.604 169.589L159.737 168.007Z" fill="#0066B2"/>
<path d="M171.171 168.002L169.305 169.584L175.003 176.303L176.869 174.722L171.171 168.002Z" fill="#0066B2"/>
<path d="M157.687 190.831C157.959 190.039 158.82 189.609 159.613 189.858C160.406 190.129 160.836 190.99 160.587 191.783L156.736 203.332C156.464 204.124 155.603 204.554 154.81 204.305C154.017 204.034 153.587 203.173 153.836 202.38L157.687 190.831Z" fill="#0066B2"/>
<path d="M164.956 191.509C164.843 190.671 165.432 189.924 166.27 189.811C167.109 189.698 167.856 190.286 167.969 191.124C168.264 193.366 168.332 195.676 168.037 197.963C167.743 200.296 167.109 202.628 165.953 204.915C165.568 205.662 164.662 205.979 163.914 205.594C163.167 205.21 162.85 204.304 163.235 203.556C164.209 201.632 164.753 199.616 165.002 197.601C165.251 195.54 165.206 193.502 164.956 191.509Z" fill="#0066B2"/>
<path d="M172.594 191.578C172.186 190.853 172.435 189.925 173.16 189.494C173.885 189.087 174.814 189.336 175.244 190.061L178.28 195.382C178.439 195.677 178.507 195.971 178.461 196.288L177.782 203.014C177.691 203.851 176.943 204.463 176.105 204.372C175.267 204.282 174.655 203.534 174.746 202.697L175.38 196.446L172.594 191.555V191.578Z" fill="#0066B2"/>
<path d="M177.534 189.721C177.035 189.042 177.217 188.09 177.896 187.592C178.576 187.094 179.527 187.275 180.026 187.955L183.56 192.891C183.786 193.208 183.877 193.571 183.831 193.933L183.152 200.545C183.061 201.383 182.314 201.995 181.475 201.904C180.637 201.813 180.026 201.066 180.116 200.228L180.728 194.182L177.534 189.698V189.721Z" fill="#0066B2"/>
<path fill-rule="evenodd" clip-rule="evenodd" d="M161.854 199.753C162.941 199.753 163.824 198.87 163.824 197.783C163.824 196.696 162.941 195.812 161.854 195.812C160.766 195.812 159.883 196.696 159.883 197.783C159.883 198.87 160.766 199.753 161.854 199.753Z" fill="#0066B2"/>
<path fill-rule="evenodd" clip-rule="evenodd" d="M171.301 198.531C172.479 198.531 173.431 197.58 173.431 196.402C173.431 195.225 172.479 194.273 171.301 194.273C170.123 194.273 169.172 195.225 169.172 196.402C169.172 197.58 170.123 198.531 171.301 198.531Z" fill="#0066B2"/>
<path fill-rule="evenodd" clip-rule="evenodd" d="M169.194 196.764C170.213 196.764 171.051 196.379 171.051 195.903C171.051 195.428 170.213 195.043 169.194 195.043C168.174 195.043 167.336 195.428 167.336 195.903C167.336 196.379 168.174 196.764 169.194 196.764Z" fill="#0066B2"/>
<path d="M164.349 135.236C172.345 135.236 179.594 138.475 184.827 143.706C190.06 148.937 193.299 156.183 193.299 164.177C193.299 172.171 190.06 179.417 184.827 184.648C183.445 186.029 181.928 187.275 180.296 188.339L180.025 187.954C179.526 187.275 178.575 187.116 177.895 187.592C177.216 188.067 177.057 189.041 177.533 189.721L177.669 189.902C177.034 190.241 176.355 190.536 175.698 190.83L175.267 190.083C174.86 189.358 173.931 189.087 173.183 189.517C172.458 189.924 172.187 190.853 172.617 191.6L172.798 191.895C171.303 192.347 169.763 192.687 168.177 192.891C168.132 192.302 168.086 191.713 167.996 191.147C167.928 190.604 167.588 190.173 167.112 189.947C173.161 189.313 178.597 186.573 182.675 182.497C187.364 177.809 190.264 171.333 190.264 164.199C190.264 157.066 187.364 150.59 182.675 145.902C177.986 141.215 171.507 138.316 164.371 138.316C157.235 138.316 150.757 141.215 146.067 145.902C141.378 150.59 138.479 157.066 138.479 164.199C138.479 171.333 141.378 177.809 146.067 182.497C150.757 187.184 157.235 190.083 164.371 190.083C164.802 190.083 165.232 190.083 165.64 190.06C165.164 190.377 164.892 190.921 164.96 191.532C165.028 192.053 165.073 192.597 165.119 193.14C164.87 193.14 164.62 193.14 164.349 193.14C162.944 193.14 161.585 193.027 160.226 192.846L160.565 191.804C160.837 191.011 160.407 190.151 159.591 189.879C158.799 189.607 157.938 190.038 157.666 190.853L157.19 192.257C152.048 190.966 147.472 188.294 143.847 184.671C138.614 179.44 135.375 172.193 135.375 164.199C135.375 156.206 138.614 148.959 143.847 143.728C149.08 138.497 156.329 135.259 164.326 135.259L164.349 135.236Z" fill="#0066B2"/>
<path d="M415.824 82.497C426.675 82.4743 436.008 84.8294 444.503 90.0604C456.35 97.3522 463.373 107.995 465.797 121.605C467.632 131.931 466.59 142.008 461.991 151.474C455.173 165.559 443.619 173.825 428.51 177.108C416.911 179.622 405.471 178.829 394.575 173.893C379.125 166.895 369.747 155.075 367.097 138.227C365.465 127.878 366.779 117.869 371.559 108.471C377.744 96.3332 387.688 88.6112 400.646 84.6935C405.879 83.1084 411.248 82.3384 415.824 82.4743V82.497ZM434.445 130.663C434.445 129.893 434.49 129.101 434.445 128.331C434.06 123.258 432.247 118.956 427.921 115.899C425.134 113.928 422.121 112.751 418.746 112.389C410.047 111.46 402.164 115.831 399.377 124.073C398.018 128.104 398.177 132.271 399.196 136.37C400.306 140.763 402.889 144.092 406.876 146.243C412.245 149.164 417.863 149.504 423.639 147.534C425.655 146.855 427.49 145.813 429.053 144.341C433.018 140.627 434.603 135.985 434.422 130.641L434.445 130.663Z" fill="#F26321"/>
<path d="M747.307 281.956C744.905 283.473 742.504 284.809 739.922 285.738C730.928 288.931 721.89 288.976 713.032 285.534C704.718 282.296 700.188 275.887 700.029 267.01C699.848 257.59 703.88 250.253 713.78 246.743C717.2 245.542 720.734 245.022 724.336 244.727C731.132 244.138 737.679 245.225 744.135 247.173C744.271 247.218 744.407 247.263 744.543 247.286C745.834 247.603 746.015 247.377 745.698 246.018C745.472 245.09 744.973 244.365 744.316 243.686C742.617 241.942 740.397 241.24 738.109 240.696C732.152 239.292 726.194 239.723 720.281 240.923C717.246 241.534 714.278 242.417 711.424 243.731C709.498 244.614 709.159 244.41 709.159 242.372C709.159 237.435 709.204 232.521 709.159 227.585C709.159 226 709.748 225.139 711.22 224.596C715.275 223.101 719.466 222.195 723.725 221.516C729.388 220.61 735.097 220.406 740.805 220.678C747.669 221.018 754.397 222.15 760.74 224.935C764.206 226.453 767.287 228.559 769.892 231.253C773.63 235.126 775.374 239.904 775.691 245.18C776.461 258.043 775.895 270.928 776.031 283.79C776.054 285.896 775.759 286.077 773.698 285.964C772.724 285.896 771.727 285.873 770.73 285.873C763.889 285.873 757.048 285.873 750.206 285.873C747.76 285.873 747.692 285.806 747.601 283.428C747.601 283.02 747.669 282.59 747.261 281.911L747.307 281.956ZM737.09 271.041C739.831 271.199 742.21 270.18 744.43 268.754C746.514 267.418 746.582 264.179 744.543 263.16C741.915 261.847 739.106 261.281 736.161 261.417C735.3 261.462 734.508 261.756 733.76 262.141C731.834 263.115 730.951 264.995 731.336 267.259C731.653 269.116 733.239 270.633 735.21 270.905C735.844 270.996 736.478 270.973 737.113 271.018L737.09 271.041Z" fill="#004F8F"/>
<path d="M676.675 117.846C678.17 116.917 679.484 115.989 680.911 115.219C690.335 110.192 700.076 109.92 709.953 113.588C715.593 115.694 719.037 120.087 721.166 125.568C722.571 129.146 723.182 132.927 723.205 136.732C723.296 149.187 723.273 161.641 723.25 174.119C723.25 176.247 723.046 176.451 720.962 176.474C712.422 176.497 703.882 176.519 695.364 176.474C693.371 176.474 693.167 176.247 693.167 174.028C693.144 165.785 693.167 157.565 693.144 149.322C693.144 146.922 693.144 144.544 693.144 142.144C693.144 141.442 693.144 140.74 693.053 140.038C692.6 136.256 690.675 134.58 686.869 134.558C684.604 134.558 682.542 135.101 680.707 136.46C678.623 138.022 677.445 139.947 677.491 142.733C677.604 152.946 677.536 163.136 677.536 173.349C677.536 176.451 677.536 176.474 674.342 176.497C666.3 176.497 658.258 176.497 650.216 176.497C649.786 176.497 649.378 176.474 648.947 176.474C647.996 176.474 647.52 175.953 647.475 175.047C647.452 174.481 647.43 173.915 647.43 173.349C647.43 154.282 647.43 135.192 647.43 116.125C647.43 116.057 647.43 115.989 647.43 115.921C647.452 113.226 647.634 113.045 650.329 113.045C658.009 113.045 665.711 113.045 673.39 113.045C673.753 113.045 674.093 113.045 674.455 113.045C676.041 113.158 676.245 113.385 676.358 114.924C676.426 115.808 676.131 116.736 676.72 117.868L676.675 117.846Z" fill="#F26321"/>
<path d="M608.624 281.707C608.058 281.616 607.763 281.82 607.492 282.047C605.385 283.632 603.029 284.719 600.605 285.715C594.466 288.274 588.146 288.568 581.712 287.368C572.606 285.67 566.897 280.009 563.816 271.494C562.48 267.825 561.959 263.976 561.936 260.081C561.868 248.532 561.913 237.005 561.913 225.456C561.913 225.388 561.913 225.32 561.913 225.253C561.959 222.626 562.117 222.445 564.881 222.445C572.356 222.445 579.832 222.445 587.308 222.445C588.146 222.445 589.007 222.422 589.845 222.445C591.725 222.535 592.019 222.807 592.019 224.732C592.042 230.574 592.019 236.417 592.019 242.259C592.019 246.63 592.019 250.977 592.019 255.348C592.019 256.843 592.178 258.314 592.518 259.741C593.062 262.141 594.511 263.727 596.935 264.361C600.628 265.289 605.09 263.41 607.016 260.171C607.673 259.084 607.628 257.884 607.628 256.684C607.628 246.471 607.628 236.281 607.628 226.068C607.628 223.637 608.836 222.422 611.252 222.422C619.158 222.422 627.041 222.422 634.947 222.422C637.915 222.422 638.164 222.739 637.915 225.773C637.824 226.815 637.802 227.879 637.802 228.944C637.802 246.041 637.802 263.138 637.802 280.235C637.802 281.571 637.96 282.907 638.006 284.243C638.051 285.715 637.598 286.191 636.125 286.1C627.948 285.625 619.77 286.009 611.592 285.896C608.919 285.851 608.896 285.828 608.828 283.179C608.828 282.703 608.896 282.182 608.602 281.684L608.624 281.707Z" fill="#004F8F"/>
<path d="M438.706 226.949C439.43 227.085 439.816 226.474 440.314 226.157C449.874 220.042 460.113 219.091 470.737 222.624C477.941 225.024 482.109 230.436 484.035 237.615C484.85 240.695 485.258 243.842 485.258 247.013C485.258 258.992 485.258 270.949 485.258 282.928C485.258 285.849 485.167 285.917 482.336 285.917C474.928 285.917 467.521 285.917 460.113 285.917C458.98 285.917 457.848 285.962 456.738 286.008C455.673 286.053 455.174 285.555 455.152 284.513C455.152 283.879 455.152 283.245 455.152 282.611C455.152 272.624 455.152 262.615 455.152 252.629C455.152 251.134 455.016 249.685 454.676 248.236C454.064 245.631 452.433 244.273 449.783 244.046C446.498 243.774 443.712 244.816 441.311 247.103C440.042 248.303 439.498 249.662 439.521 251.406C439.566 260.124 439.544 268.865 439.544 277.606C439.544 279.644 439.566 281.682 439.544 283.721C439.498 285.668 439.272 285.894 437.301 285.894C429.622 285.894 421.919 285.894 414.24 285.894C413.107 285.894 411.975 285.962 410.865 285.985C410.026 285.985 409.528 285.623 409.483 284.74C409.46 284.173 409.438 283.607 409.438 283.041C409.438 263.883 409.438 244.748 409.438 225.59C409.438 222.511 409.528 222.42 412.654 222.397C420.198 222.397 427.741 222.397 435.308 222.397C435.67 222.397 436.01 222.397 436.372 222.397C438.049 222.511 438.298 222.782 438.411 224.413C438.456 225.183 438.275 225.953 438.57 226.7C438.57 226.745 438.66 226.791 438.751 226.859L438.706 226.949Z" fill="#004F8F"/>
<path d="M813.227 227.041C814.179 227.086 814.632 226.452 815.198 226.09C824.781 219.998 834.997 219.07 845.599 222.716C852.712 225.139 856.812 230.46 858.67 237.616C859.485 240.764 859.893 243.98 859.916 247.218C859.961 259.31 859.938 271.426 859.916 283.518C859.916 284.016 859.916 284.514 859.848 284.99C859.78 285.647 859.372 285.986 858.693 285.986C857.786 285.986 856.858 285.941 855.951 285.941C848.408 285.941 840.864 285.941 833.321 285.941C832.754 285.941 832.188 285.941 831.622 285.941C830.149 285.85 829.9 285.624 829.81 284.197C829.764 283.563 829.81 282.929 829.787 282.295C829.787 272.309 829.787 262.3 829.787 252.313C829.787 250.818 829.696 249.346 829.289 247.92C828.7 245.836 827.34 244.478 825.166 244.161C821.836 243.663 818.868 244.455 816.376 246.765C814.904 248.124 814.156 249.686 814.179 251.792C814.269 260.171 814.201 268.55 814.201 276.906C814.201 279.238 814.201 281.548 814.201 283.88C814.179 285.964 813.93 286.054 811.823 286.032C806.25 285.964 800.677 285.964 795.105 285.941C792.069 285.941 789.034 285.964 785.998 285.941C784.39 285.918 784.163 285.669 784.073 284.107C784.05 283.609 784.073 283.133 784.073 282.635C784.073 263.704 784.073 244.772 784.073 225.841C784.073 222.512 784.095 222.489 787.539 222.489C794.176 222.489 800.791 222.489 807.428 222.489C807.926 222.489 808.425 222.489 808.901 222.489C811.498 222.504 812.88 223.788 813.046 226.339C813.046 226.543 813.137 226.747 813.227 227.064V227.041Z" fill="#004F8F"/>
<path d="M857.813 156.297C857.813 162.004 857.813 167.688 857.813 173.394C857.813 173.96 857.813 174.526 857.768 175.093C857.723 175.908 857.27 176.383 856.431 176.406C855.933 176.406 855.435 176.451 854.959 176.451C847.347 176.451 839.736 176.451 832.102 176.451C831.83 176.451 831.535 176.451 831.264 176.451C829.768 176.338 829.565 176.134 829.451 174.708C829.247 172.262 829.247 172.285 827.073 173.621C823.29 175.953 819.144 177.267 814.772 177.901C807.659 178.92 800.682 178.399 794.044 175.5C786.274 172.081 782.151 166.102 781.97 157.52C781.925 155.323 782.038 153.149 782.559 151.021C784.145 144.68 788.064 140.378 794.022 137.841C797.42 136.392 801.021 135.758 804.669 135.282C811.963 134.309 818.985 135.577 825.94 137.66C826.144 137.728 826.348 137.796 826.552 137.819C827.458 137.977 827.775 137.705 827.616 136.845C827.322 135.396 826.552 134.241 825.328 133.425C824.082 132.61 822.746 131.976 821.319 131.569C816.765 130.3 812.167 130.142 807.478 130.572C802.449 131.048 797.623 132.271 793.002 134.286C791.371 134.988 790.963 134.739 790.963 132.95C790.941 128.013 790.963 123.099 790.963 118.163C790.963 116.532 791.688 115.581 793.251 115.038C798.326 113.249 803.559 112.184 808.905 111.596C813.911 111.052 818.917 111.052 823.901 111.301C830.924 111.663 837.765 112.977 844.085 116.215C850.338 119.408 854.823 124.141 856.703 131.025C857.473 133.81 857.768 136.686 857.791 139.585C857.836 145.156 857.791 150.704 857.791 156.274L857.813 156.297ZM819.121 161.596C821.568 161.664 823.992 160.758 826.212 159.309C828.568 157.769 828.341 154.576 825.804 153.444C823.403 152.357 820.866 151.836 818.193 151.927C817.264 151.972 816.38 152.153 815.542 152.583C813.82 153.489 812.96 154.938 813.005 156.863C813.073 158.788 813.956 160.192 815.723 161.053C816.72 161.528 817.762 161.596 819.099 161.573L819.121 161.596Z" fill="#F26321"/>
<path d="M988.341 262.594C981.499 262.594 974.658 262.594 967.817 262.594C967.137 262.594 966.186 262.277 965.869 262.979C965.484 263.84 966.503 264.293 967.024 264.768C969.606 267.056 972.801 267.916 976.108 268.392C981.522 269.184 986.936 268.709 992.35 268.188C996.519 267.78 1000.55 266.874 1004.52 265.606C1006.12 265.085 1006.42 265.312 1006.42 266.988C1006.46 271.834 1006.42 276.702 1006.46 281.548C1006.46 282.817 1005.92 283.405 1004.74 283.813C998.693 285.851 992.486 286.983 986.143 287.595C981.975 288.002 977.83 288.07 973.684 287.889C967.386 287.617 961.157 286.666 955.357 284.085C944.597 279.329 938.118 271.2 936.51 259.469C935.513 252.11 936.51 244.976 939.795 238.296C943.94 229.872 950.94 224.822 959.911 222.467C969.131 220.044 978.464 219.704 987.706 222.377C996.836 225.026 1004.08 230.189 1008.3 238.953C1010.38 243.301 1011.54 247.943 1011.56 252.812C1011.56 255.144 1011.58 257.454 1011.56 259.786C1011.56 262.436 1011.45 262.572 1008.84 262.572C1002 262.572 995.159 262.572 988.318 262.572L988.341 262.594ZM973.933 245.973C976.47 245.973 979.008 245.973 981.522 245.95C982.813 245.928 983.04 245.543 982.519 244.388C981.726 242.644 980.367 241.421 978.6 240.764C975.813 239.723 972.959 239.519 970.105 240.447C968.089 241.104 966.48 242.327 965.529 244.274C964.917 245.543 965.121 245.95 966.526 245.973C968.995 246.018 971.441 245.973 973.911 245.973H973.933Z" fill="#004F8F"/>
<path d="M617.777 153.126C611.004 153.126 604.23 153.126 597.457 153.126C596.732 153.126 595.667 152.741 595.396 153.647C595.169 154.417 596.143 154.938 596.732 155.391C599.632 157.565 602.939 158.607 606.518 159.059C609.826 159.467 613.11 159.241 616.44 159.127C620.677 158.969 624.867 158.448 629.013 157.655C630.803 157.316 632.547 156.704 634.314 156.229C635.741 155.844 636.036 155.957 636.036 157.338C636.058 162.184 636.036 167.053 636.036 171.899C636.036 173.145 635.447 173.869 634.291 174.209C632.411 174.775 630.531 175.455 628.605 175.862C623.44 176.994 618.275 177.878 612.952 178.217C608.489 178.489 604.049 178.489 599.654 178.036C590.389 177.04 581.713 174.39 574.758 167.665C570.839 163.883 568.28 159.376 567.034 154.1C565.403 147.171 565.516 140.264 567.623 133.47C570.5 124.186 576.661 117.913 585.632 114.29C589.936 112.546 594.421 111.708 599.02 111.369C606.382 110.848 613.699 111.255 620.677 114.018C631.89 118.457 638.595 126.564 640.679 138.475C641.427 142.732 641.087 147.035 641.11 151.315C641.11 152.741 640.793 152.968 639.343 153.081C638.777 153.126 638.21 153.081 637.644 153.081C631.007 153.081 624.392 153.081 617.754 153.081L617.777 153.126ZM603.46 136.278C605.997 136.278 608.534 136.324 611.049 136.278C612.431 136.256 612.657 135.78 612 134.557C611.253 133.153 610.165 132.044 608.693 131.432C605.725 130.209 602.69 130.028 599.609 131.047C597.819 131.636 596.37 132.723 595.464 134.421C594.648 135.916 594.807 136.256 596.483 136.301C598.794 136.346 601.127 136.301 603.46 136.301V136.278Z" fill="#F26321"/>
<path d="M522.358 240.9C523.196 242.032 524.193 242.145 525.145 242.372C528.022 243.051 530.944 243.617 533.798 244.319C538.533 245.497 543.177 246.901 547.458 249.324C553.008 252.449 555.976 257.159 556.406 263.477C556.633 266.942 556.61 270.384 555.138 273.645C553.031 278.355 549.565 281.706 544.921 283.88C540.345 286.031 535.52 287.186 530.468 287.639C520.252 288.545 510.194 287.639 500.226 285.397C497.961 284.899 495.763 284.084 493.611 283.201C492.275 282.657 491.618 281.797 491.64 280.325C491.686 274.913 491.64 269.478 491.64 264.066C491.64 263.726 491.663 263.364 491.731 263.024C491.867 262.299 492.32 262.118 492.977 262.39C493.294 262.526 493.634 262.662 493.928 262.843C500.521 266.24 507.611 268.051 514.905 269.138C517.556 269.523 520.252 269.387 522.925 269.274C523.332 269.274 523.785 269.183 524.148 269.025C524.828 268.753 524.873 268.119 524.239 267.757C523.763 267.485 523.197 267.327 522.653 267.191C520.931 266.783 519.21 266.398 517.488 266.013C512.232 264.881 507.181 263.115 502.333 260.782C500.294 259.786 498.459 258.495 496.737 257C491.437 252.403 490.123 246.38 490.848 239.767C491.686 232.068 496.126 227.131 503.103 224.165C508.313 221.968 513.773 221.04 519.368 220.7C528.18 220.157 536.811 221.447 545.329 223.644C547.118 224.097 548.795 224.822 550.494 225.546C551.672 226.044 552.215 226.837 552.193 228.15C552.147 233.631 552.193 239.133 552.17 244.613C552.17 246.448 551.83 246.629 550.177 245.746C543.856 242.372 537.06 240.673 529.993 239.949C527.478 239.677 524.941 239.699 522.336 240.9H522.358Z" fill="#004F8F"/>
<path d="M931.999 237.661C931.999 240.899 932.022 244.138 931.999 247.376C931.976 248.984 931.637 249.21 930.232 248.417C926.902 246.493 923.391 245.089 919.608 244.341C915.077 243.436 910.524 243.119 905.948 244.024C904.498 244.319 903.093 244.84 901.78 245.519C898.155 247.398 896.433 250.456 896.456 254.441C896.479 258.472 898.427 261.416 902.051 263.205C904.43 264.382 906.99 264.858 909.618 265.039C916.799 265.537 923.459 263.726 929.756 260.397C931.765 259.34 932.769 259.936 932.769 262.186C932.769 267.892 932.701 273.599 932.815 279.283C932.86 281.208 932.158 282.181 930.436 282.951C924.433 285.623 918.158 286.982 911.634 287.594C907.896 287.933 904.158 288.047 900.443 287.888C894.984 287.662 889.615 286.824 884.563 284.65C873.871 280.03 867.505 272.036 865.829 260.442C864.809 253.399 865.33 246.538 868.026 239.903C870.813 233.064 875.728 228.195 882.32 225.002C888.391 222.059 894.893 220.881 901.576 220.632C910.025 220.337 918.339 221.334 926.404 223.983C927.604 224.368 928.76 224.934 929.96 225.365C931.501 225.908 932.135 226.882 932.067 228.558C931.954 231.569 932.022 234.604 932.022 237.638L931.999 237.661Z" fill="#004F8F"/>
<path d="M749.075 94.0906C753.084 94.0906 757.117 94 761.126 94.1132C764.683 94.2265 764.683 94.3397 764.683 97.9176C764.683 102.13 764.683 106.364 764.683 110.576C764.683 112.818 764.841 112.954 767.107 112.977C770.074 112.977 773.042 112.977 775.987 112.977C778.071 112.977 778.252 113.18 778.252 115.309C778.252 120.382 778.252 125.454 778.252 130.504C778.252 132.701 778.048 132.882 775.806 132.904C772.906 132.927 770.029 132.904 767.129 132.904C764.819 132.904 764.683 133.018 764.683 135.237C764.683 139.449 764.637 143.683 764.705 147.895C764.796 153.511 767.605 155.753 773.178 154.893C774.99 154.621 776.757 154.191 778.456 153.421C780.472 152.492 780.789 152.696 780.812 154.87C780.835 159.648 780.812 164.449 780.835 169.227C780.835 170.359 780.767 171.492 780.835 172.601C780.903 174.028 780.246 174.798 778.954 175.296C775.783 176.496 772.543 177.47 769.168 177.855C764.252 178.421 759.359 178.602 754.421 177.764C743.797 175.975 737.522 168.774 735.483 159.218C734.871 156.319 734.531 153.398 734.554 150.409C734.599 145.472 734.554 140.558 734.554 135.622C734.554 132.904 734.531 132.882 731.881 132.859C730.544 132.859 729.208 132.904 727.871 132.859C726.421 132.791 726.104 132.542 726.104 131.093C726.059 125.613 726.059 120.11 726.104 114.63C726.104 113.316 726.444 113.022 727.758 112.954C729.298 112.886 730.861 112.954 732.402 112.909C734.373 112.863 734.554 112.705 734.554 110.689C734.554 106.681 734.554 102.673 734.554 98.6649C734.554 98.1667 734.554 97.6685 734.554 97.193C734.554 94.2265 734.758 94.0226 737.839 94C739.379 94 740.942 94 742.483 94C744.68 94 746.855 94 749.052 94V94.0453L749.075 94.0906Z" fill="#F26321"/>
<path d="M400.695 240.175C400.695 254.26 400.695 268.323 400.695 282.408C400.695 282.906 400.695 283.405 400.695 283.88C400.65 285.873 400.469 285.986 398.475 285.986C390.003 285.941 381.553 285.941 373.081 285.941C372.243 285.941 371.404 286.099 370.544 286.122C369.524 286.167 368.958 285.669 368.913 284.627C368.89 283.993 368.867 283.359 368.867 282.725C368.867 254.215 368.867 225.705 368.867 197.194C368.867 193.73 368.867 193.73 372.446 193.707C380.624 193.707 388.802 193.707 397.003 193.707C397.365 193.707 397.705 193.707 398.067 193.707C400.446 193.775 400.695 194.001 400.695 196.447C400.695 211.008 400.695 225.591 400.695 240.152V240.175Z" fill="#004F8F"/>
<path d="M865.828 127.718C865.828 112.659 865.828 97.5777 865.828 82.5187C865.828 79.1445 865.828 79.1445 869.249 79.1445C877.019 79.1445 884.766 79.1445 892.536 79.1445C893.171 79.1445 893.805 79.1445 894.439 79.1672C895.391 79.1672 895.866 79.688 895.912 80.5938C895.934 81.1599 895.957 81.7261 895.957 82.2922C895.957 112.569 895.957 142.823 895.957 173.099C895.957 176.428 895.957 176.451 892.559 176.451C884.585 176.451 876.611 176.451 868.637 176.451C868.207 176.451 867.799 176.428 867.369 176.428C866.44 176.428 865.941 175.93 865.896 175.001C865.873 174.299 865.851 173.597 865.851 172.895C865.851 157.836 865.851 142.755 865.851 127.696L865.828 127.718Z" fill="#F26321"/>
<path d="M675.906 227.719C678.557 225.749 681.343 224.254 684.333 223.19C688.275 221.786 692.353 220.948 696.521 220.699C698.922 220.563 699.126 220.79 699.126 223.099C699.126 229.304 699.126 235.486 699.126 241.691C699.126 243.752 698.899 243.956 696.815 244.024C692.194 244.182 687.709 244.929 683.382 246.628C681.864 247.217 680.46 248.032 679.146 248.983C677.447 250.228 676.631 251.768 676.654 254.01C676.744 263.589 676.699 273.145 676.699 282.724C676.699 285.442 677.22 286.121 673.347 286.03C665.169 285.849 656.991 285.691 648.813 286.144C647.046 286.234 646.661 285.917 646.57 284.196C646.57 283.766 646.57 283.358 646.57 282.928C646.57 264.064 646.57 245.201 646.57 226.338C646.57 226.134 646.57 225.907 646.57 225.704C646.57 222.873 646.57 222.896 649.311 222.714C657.195 222.194 665.101 222.579 673.007 222.488C675.431 222.465 675.838 223.009 675.635 225.409C675.567 226.089 675.295 226.791 675.884 227.742L675.906 227.719Z" fill="#004F8F"/>
<path d="M502.154 117.959C502.97 117.937 503.491 117.303 504.125 116.895C509.789 113.226 516.086 111.664 522.746 111.302C524.966 111.188 525.17 111.438 525.17 113.657C525.17 119.771 525.17 125.908 525.17 132.022C525.17 134.354 525.034 134.468 522.61 134.536C518.782 134.649 515.044 135.306 511.374 136.438C509.336 137.072 507.455 138 505.688 139.178C503.65 140.537 502.698 142.303 502.721 144.839C502.811 154.192 502.766 163.567 502.743 172.942C502.743 173.576 502.743 174.21 502.743 174.844C502.743 175.863 502.29 176.429 501.226 176.452C500.523 176.452 499.821 176.497 499.119 176.497C491.281 176.497 483.465 176.497 475.627 176.497C475.129 176.497 474.631 176.497 474.155 176.452C473.271 176.406 472.909 175.931 472.932 175.07C472.932 174.799 472.932 174.504 472.932 174.233C472.932 155.777 472.932 137.344 472.932 118.888C472.932 117.552 472.864 116.216 472.841 114.88C472.796 113.317 473.022 113.091 474.631 113C474.993 113 475.333 113 475.695 113C483.307 113 490.941 113 498.553 113C498.824 113 499.119 113 499.391 113C501.52 113.068 501.792 113.34 501.815 115.491C501.815 116.193 501.837 116.895 501.883 117.597C501.883 117.71 502.041 117.801 502.177 117.959H502.154Z" fill="#F26321"/>
<path d="M529.297 144.454C529.297 135.102 529.297 125.749 529.297 116.397C529.297 115.967 529.297 115.559 529.297 115.129C529.365 113.272 529.569 113 531.358 113C539.967 113 548.552 113 557.16 113C559.041 113 559.335 113.362 559.38 115.242C559.403 116.148 559.38 117.076 559.38 117.982C559.38 136.415 559.38 154.848 559.38 173.281C559.38 176.429 559.38 176.452 556.209 176.452C548.167 176.452 540.148 176.452 532.106 176.452C531.675 176.452 531.268 176.452 530.837 176.429C529.773 176.429 529.32 175.84 529.32 174.821C529.32 174.187 529.32 173.553 529.32 172.919C529.32 163.431 529.32 153.92 529.32 144.431L529.297 144.454Z" fill="#F26321"/>
<path d="M544.174 77.4693C551.242 77.3335 559.624 82.6551 559.647 92.619C559.669 101.473 552.851 107.746 543.903 107.678C535.951 107.61 528.974 101.768 528.861 92.5737C528.747 84.2855 535.725 77.492 544.152 77.4693H544.174Z" fill="#F26321"/>
</svg>
