<svg width="145" height="146" viewBox="0 0 145 146" fill="none" xmlns="http://www.w3.org/2000/svg">
<path d="M100.903 101.218C116.59 85.5305 116.59 60.0963 100.903 44.409C85.2154 28.7216 59.7812 28.7216 44.0939 44.4089C28.4065 60.0963 28.4066 85.5305 44.0939 101.218C59.7813 116.905 85.2155 116.905 100.903 101.218Z" fill="#0066B2"/>
<path d="M72.5 0.310059C92.52 0.310059 110.64 8.43006 123.76 21.5501C136.88 34.6701 144.99 52.7901 144.99 72.8101C144.99 92.8301 136.88 110.95 123.76 124.07C110.64 137.19 92.52 145.3 72.5 145.3C52.48 145.3 34.3602 137.18 21.2402 124.06C8.12023 110.94 0.00976562 92.8201 0.00976562 72.8001C0.00976562 52.7801 8.12023 34.6601 21.2402 21.5401C34.3602 8.42006 52.48 0.310059 72.5 0.310059ZM72.5 3.00006C53.23 3.00006 35.7799 10.8101 23.1499 23.4501C10.5099 36.0901 2.7002 53.5401 2.7002 72.8001C2.7002 92.0701 10.5199 109.52 23.1499 122.15C35.7899 134.79 53.24 142.6 72.5 142.6C91.77 142.6 109.22 134.79 121.85 122.15C134.49 109.51 142.3 92.0601 142.3 72.8001C142.3 53.5301 134.48 36.0801 121.85 23.4501C109.21 10.8101 91.76 3.00006 72.5 3.00006Z" fill="#0066B2"/>
<path d="M72.5 6.31006C90.87 6.31006 107.49 13.7601 119.52 25.7901C131.55 37.8201 139 54.4501 139 72.8101C139 91.1801 131.56 107.8 119.52 119.83C107.49 131.86 90.86 139.31 72.5 139.31C54.13 139.31 37.51 131.86 25.48 119.83C13.45 107.8 6 91.1701 6 72.8101C6 54.4401 13.44 37.8201 25.48 25.7901C37.51 13.7601 54.14 6.31006 72.5 6.31006ZM72.5 9.00006C54.89 9.00006 38.9401 16.1401 27.3901 27.6901C15.8401 39.2401 8.68994 55.1901 8.68994 72.8101C8.68994 90.4201 15.8401 106.37 27.3901 117.92C38.9401 129.47 54.8898 136.62 72.5098 136.62C90.1198 136.62 106.07 129.48 117.62 117.93C129.17 106.38 136.32 90.4301 136.32 72.8101C136.32 55.2001 129.17 39.2501 117.62 27.7001C106.07 16.1501 90.12 9.00006 72.5 9.00006Z" fill="#0066B2"/>
<path d="M72.5005 22.2001C86.4805 22.2001 99.1305 27.8701 108.291 37.0301C117.451 46.1901 123.11 58.8401 123.11 72.8201C123.11 86.8001 117.451 99.4501 108.291 108.61C99.1305 117.77 86.4805 123.43 72.5005 123.43C58.5205 123.43 45.8704 117.76 36.7104 108.6C27.5504 99.4401 21.8906 86.7901 21.8906 72.8101C21.8906 58.8301 27.5504 46.1801 36.7104 37.0201C45.8704 27.8601 58.5205 22.2001 72.5005 22.2001ZM72.5005 24.8901C59.2705 24.8901 47.3006 30.2501 38.6206 38.9301C29.9506 47.6001 24.5806 59.5801 24.5806 72.8101C24.5806 86.0401 29.9506 98.0101 38.6206 106.69C47.2906 115.36 59.2705 120.73 72.5005 120.73C85.7305 120.73 97.7004 115.37 106.38 106.69C115.05 98.0201 120.42 86.0401 120.42 72.8101C120.42 59.5801 115.05 47.6101 106.38 38.9301C97.7104 30.2601 85.7305 24.8901 72.5005 24.8901Z" fill="#0066B2"/>
<path d="M72.499 27.8501C84.919 27.8501 96.1591 32.8901 104.289 41.0201C112.419 49.1501 117.459 60.3901 117.459 72.8101C117.459 85.2301 112.429 96.4701 104.289 104.6C96.1591 112.73 84.919 117.77 72.499 117.77C60.079 117.77 48.839 112.73 40.709 104.6C32.579 96.4701 27.5391 85.2301 27.5391 72.8101C27.5391 60.3901 32.569 49.1501 40.709 41.0201C48.839 32.8901 60.079 27.8501 72.499 27.8501ZM72.499 30.5401C60.829 30.5401 50.2691 35.2701 42.6191 42.9201C34.9691 50.5701 30.229 61.1401 30.229 72.8001C30.229 84.4701 34.9591 95.0301 42.6191 102.68C50.2691 110.33 60.839 115.07 72.499 115.07C84.169 115.07 94.7289 110.34 102.379 102.69C110.029 95.0401 114.769 84.4701 114.769 72.8101C114.769 61.1401 110.039 50.5801 102.379 42.9301C94.7289 35.2801 84.159 30.5401 72.499 30.5401Z" fill="#0066B2"/>
<path d="M44.3003 52.3901C45.7603 53.1101 47.2805 53.0401 47.9805 52.2101C48.3705 51.7701 48.3705 51.1401 48.0005 50.8001C47.6705 50.5201 47.1403 50.4101 46.5303 50.5001L46.6406 50.2901C47.1206 50.3001 47.6805 50.1401 48.2505 49.8201L49.3604 50.7901L50.6904 50.3001L47.1006 47.1801L48.1406 46.2701L47.6406 45.5801L45.0103 48.2001L46.0303 48.4101L46.2905 48.1101L47.2305 48.9301C47.2305 49.2701 47.0304 49.6601 46.7104 50.0501C46.7104 49.8201 46.6004 49.5801 46.3804 49.3901C45.6304 48.7401 44.3705 48.9501 43.5605 49.8701C43.3405 50.1201 43.1705 50.4001 43.0605 50.7101L44.3403 51.1401C44.4403 50.6301 44.6703 50.1501 45.0103 49.7701C45.2203 49.5301 45.4403 49.3801 45.5103 49.4501C45.6303 49.5501 45.5606 49.9101 45.3706 50.3801C45.3106 50.5401 45.1706 50.7001 44.8306 51.2601L45.9404 51.6201L46.4805 50.7401C46.8805 51.0901 46.9804 51.6401 46.6904 51.9701C46.2704 52.4501 45.3706 52.5201 44.4106 52.1701L44.3003 52.3801V52.3901ZM49.2705 47.3401C49.1205 47.1801 49.1305 46.9401 49.2705 46.8201C49.4705 46.6501 49.5804 46.5601 49.6504 46.5701L49.0503 45.5901L48.1104 46.3801L47.5303 45.6901L50.2505 43.3101L50.8003 44.0001L49.9204 44.8601C50.4104 45.2701 50.8003 45.6501 51.0703 45.9701C51.6603 46.6601 51.8605 47.4501 51.5205 47.7401C50.9005 48.2701 49.8903 48.0901 49.2603 47.3401H49.2705ZM51.8105 45.3201C51.6305 45.0301 51.7405 44.6301 52.0605 44.4301L54.0303 43.2001L53.4907 42.3301L50.7305 44.0501L50.2505 43.2801L54.8003 40.4401L55.2803 41.2101L54.5503 41.6701L57.0703 45.7101L55.6504 45.7901L54.5703 44.0601L53.6606 44.6301L54.0205 45.2101C54.2205 45.5301 54.2105 45.8901 54.0005 46.0301C53.7605 46.1801 53.3404 46.1701 52.8604 46.0301C52.3804 45.8801 52.0103 45.6301 51.8203 45.3301L51.8105 45.3201ZM49.1006 40.5401L50.4204 41.3501C50.5704 41.1301 50.7903 40.9401 51.0703 40.7801C51.3203 40.6401 51.5803 40.6001 51.8003 40.6901L53.3604 41.3601L53.6504 41.1901L51.3506 40.1601C50.9706 40.0201 50.1703 40.1501 49.0903 40.5501L49.1006 40.5401ZM58.9106 41.2101C59.0206 41.5401 59.3305 41.8701 59.7705 42.1301C60.2105 42.3901 60.6104 42.4901 60.8804 42.4001C61.1204 42.3201 61.2103 41.9601 61.0903 41.6101L60.8706 40.9701L61.8906 40.6201L62.5503 42.5501L63.9507 42.7901L62.4004 38.2901L63.2104 38.0101L62.9106 37.1401L57.8403 38.9001L58.1406 39.7601L61.2207 38.7001L61.5503 39.6601L59.3506 40.4201C59.0006 40.5401 58.8006 40.9101 58.9106 41.2301V41.2101ZM63.9404 38.9401C64.5004 38.7301 64.8705 38.3301 64.8105 37.9801C64.8105 37.8801 64.7406 37.7701 64.6406 37.6601L63.1904 38.0101L62.8604 37.1001L68.5405 36.0401L68.7007 36.9301L67.8706 37.0801L68.7007 41.7701L67.3506 41.3101L67.1904 40.4201C66.9704 40.4901 66.8006 40.5501 66.6406 40.5701C65.6706 40.7401 64.6007 40.0801 63.9307 38.9201L63.9404 38.9401ZM65.0103 39.7901C65.2903 39.8901 65.5004 39.9301 65.6104 39.9101C66.1504 39.8201 66.6406 39.4101 66.9106 38.8201L66.6406 37.3101L65.5205 37.5101C65.7805 37.7201 65.9603 38.0201 66.0103 38.3401C66.1303 38.9301 65.6905 39.5401 65.0005 39.7801L65.0103 39.7901ZM72.1504 36.7701L73.5005 36.8601C73.6505 37.3701 73.5705 37.8801 73.2905 38.2101C73.1505 37.9201 72.9006 37.7301 72.6406 37.7101C72.4506 37.7001 72.2805 37.8901 72.2705 38.1401C72.2505 38.3501 72.4203 38.7601 72.7603 39.3101L74.4004 41.8701L74.8604 41.7301L73.6104 40.0501C74.0904 39.9101 74.4503 39.5101 74.5903 38.9801C74.9803 39.3601 75.3607 39.6001 75.6807 39.6801L75.5806 41.0901L76.7803 41.8601L77.1104 37.1101L78.3403 37.3201L78.5405 36.4601L72.2104 35.8501L72.1504 36.7501V36.7701ZM74.4604 36.9301L75.8706 37.0301L75.7803 38.2701C75.5003 38.4701 75.1806 38.5601 74.8506 38.5501L74.6206 38.5301C74.6606 38.0001 74.6007 37.4601 74.4507 36.9301H74.4604ZM72.5405 41.5801L72.7905 41.4501C73.3005 42.3501 74.1506 42.9701 75.0806 43.1301C75.9406 43.2901 76.7406 42.8801 76.8506 42.2201C76.8506 42.1801 76.7804 42.1501 76.6904 42.1301C76.4904 42.0801 76.1704 42.2601 75.6304 42.5801L74.7104 41.6101C75.2005 41.3301 75.6705 41.2001 76.0405 41.2701C76.9705 41.4301 77.6004 42.2101 77.4604 43.0201C77.3304 43.7601 76.4703 44.2301 75.5503 44.0601C74.4203 43.8601 73.3305 42.9501 72.5405 41.5701V41.5801ZM78.6807 37.4101L78.3403 37.3301L78.5405 36.4501L83.0405 37.4901L82.8403 38.3701L82.0005 38.1801L80.9307 42.8201L79.8706 41.8701L80.0703 40.9901C79.3203 40.8301 78.6606 40.0501 78.3306 38.9601L78.6904 37.4101H78.6807ZM79.8906 37.6901L79.3804 39.9001C79.3504 39.9901 79.3807 40.0801 79.4507 40.0901C79.7807 40.1701 80.1504 39.9901 80.3604 39.6601L80.7705 37.8901L79.8906 37.6901ZM83.5005 38.1901C83.3005 38.7101 83.5504 39.3501 84.1104 39.7601C83.5303 39.8501 83.1106 39.8601 82.8906 39.7801C82.8606 41.0801 83.5007 42.2001 84.4907 42.5801C84.7207 42.6701 84.9604 42.7201 85.1704 42.7201L84.8906 43.4601L85.8105 44.5401L87.5205 40.0901L88.6704 40.6301L89.1104 39.8601L85.7305 38.4301L86.0405 39.5201L86.3604 39.6401L85.7705 41.1701C85.2605 41.5801 84.6103 41.7101 84.0703 41.4901C83.9403 41.4401 83.7805 41.2601 83.5005 40.9101C84.4805 40.9201 85.2404 40.6501 85.4004 40.2401C85.5604 39.8301 85.5403 39.3001 85.3403 38.7601C85.1503 38.2201 84.8407 37.8401 84.4907 37.7101C84.1107 37.5601 83.6805 37.7701 83.5205 38.1901H83.5005ZM84.3105 39.2301C84.4205 38.9301 84.6506 38.7401 84.8306 38.8201C84.9506 38.8601 85.0104 39.0001 84.9604 39.1101C84.8304 39.4601 84.6004 39.7001 84.3604 39.7301C84.2803 39.5201 84.2705 39.3401 84.3105 39.2301ZM91.5103 41.2101L91.0703 42.0001L90.3403 41.5901L88.0303 45.7601L87.2705 44.5601L89.2505 40.9901L88.6304 40.6401L89.0703 39.8501L91.5205 41.2101H91.5103ZM90.2007 38.2601L90.5605 39.3701L91.6904 39.0901L91.3604 37.9301L90.2007 38.2601ZM92.6104 44.7001C92.4304 44.9401 92.3406 45.3601 92.3706 45.8701L92.5303 48.1901C92.5603 48.6601 92.6403 49.0001 92.7803 49.0901C92.8303 49.1301 92.9604 49.1801 93.1704 49.2401L92.8706 47.1001C93.4806 47.0601 94.0105 46.8101 94.3105 46.4101C94.4805 46.1801 94.7504 45.6901 95.1504 44.9201L96.2905 45.8701L96.8506 45.2001L93.8105 42.7801L93.2603 43.5001L94.3203 44.3001C94.1803 44.4801 93.8704 44.8001 93.4004 45.2401C93.2804 44.9701 93.1605 44.7701 93.0405 44.6801C92.8905 44.5601 92.6806 44.5701 92.6006 44.7001H92.6104ZM99.1406 47.3601L98.4604 47.9801L97.6406 47.2001L94.3906 50.6801L93.9404 49.3301L96.7207 46.3501L96.2007 45.8601L96.8203 45.2001L99.1406 47.3601ZM97.6304 48.7801C96.9804 49.9501 96.9604 51.2101 97.6104 51.9501C97.7104 52.0701 97.8505 52.1901 98.0205 52.3401L97.3403 52.9301L97.6406 54.3201L101.23 51.2001L101.78 51.8301L102.46 51.2401L99.0605 47.3301L98.3804 47.9201L99.0703 48.7201C99.0303 48.8601 98.9706 48.9701 98.8906 49.0301C98.6206 49.2601 98.0906 49.1501 97.6206 48.7801H97.6304ZM97.4604 50.1301C97.5205 50.4201 97.5906 50.6201 97.6606 50.7101C98.0206 51.1201 98.6205 51.3301 99.2705 51.2601L100.42 50.2601L99.6807 49.4001C99.6307 49.7301 99.4707 50.0401 99.2207 50.2501C98.7707 50.6501 98.0304 50.5901 97.4604 50.1301ZM102.041 45.9901C102.551 47.0201 102.771 47.8001 102.661 48.2001L101.88 50.5901L101.681 50.3101L102.181 48.6901C102.241 48.4601 102.18 48.2001 102.01 47.9701C101.82 47.7001 101.601 47.5101 101.371 47.3801L102.041 45.9801V45.9901Z" fill="white"/>
<path d="M21.7403 56.0501L22.8702 55.0201L18.0401 53.3601L18.3399 52.4901L17.42 52.1701L17.1202 53.0401L16.3199 52.7601C15.7499 52.5601 15.4302 51.9401 15.6402 51.3701C15.8802 50.6701 16.8601 49.9401 18.3101 49.3901L18.2501 49.0001C16.1901 49.7901 14.81 50.8201 14.46 51.8001C14.16 52.6601 14.48 53.5601 15.19 53.7901L16.2203 54.1501L16.88 53.7301L16.44 55.0001L17.3599 55.3201L17.6002 54.6201L21.73 56.0401L21.7403 56.0501ZM18.44 52.0401L17.5601 51.6301L19.5401 47.3901L20.42 47.8001L20.0499 48.6001C20.7299 48.7801 20.9502 48.8201 21.1202 48.9001C21.4302 49.0401 21.5299 49.4501 21.3599 49.8201L20.8502 50.9201C20.5902 51.4701 20.7801 52.1001 21.2701 52.3201C21.5801 52.4501 21.99 52.2001 22.21 51.7501C22.27 51.6501 22.2703 51.4701 22.2203 51.2901C22.1503 51.2901 21.9901 51.2501 21.7501 51.1401C21.5101 51.0201 21.4399 50.6601 21.5899 50.3301C21.8599 49.7601 22.5702 49.5201 23.1802 49.8001C23.4602 49.9301 23.65 50.2801 23.69 50.7101L25.2003 50.3401C25.1803 50.5501 25.2002 50.6201 25.1802 50.6701C25.1002 50.8601 24.8601 50.9801 24.5601 50.9901L23.6602 51.0401C23.6602 51.0901 23.6399 51.1401 23.6099 51.2401C23.5899 51.3201 23.5701 51.3801 23.5601 51.4201C23.3501 51.8701 22.8502 52.2801 22.1802 52.5401C21.5202 52.8001 20.8903 52.8301 20.4503 52.6201C19.7703 52.3201 19.5001 51.4901 19.8301 50.7901L20.0601 50.2901C20.1301 50.1401 20.0903 49.9701 19.9703 49.9101L19.5299 49.7001L18.44 52.0301V52.0401ZM22.9703 45.5901C24.6303 46.1301 26.2302 45.8401 26.8502 44.8501C27.1902 44.3201 27.1102 43.6501 26.6602 43.3501C26.2702 43.1001 25.6901 43.0701 25.0601 43.2501L25.1402 43.0101C25.6502 42.9501 26.2199 42.7001 26.7799 42.2701L28.1002 43.1301L29.44 42.4101L25.1602 39.6301L25.67 38.8501L24.8599 38.3201L23.0899 41.0401L24.2003 41.1101L24.4302 40.7501L25.5499 41.4801C25.5899 41.8401 25.4502 42.2801 25.1602 42.7501C25.1302 42.5001 24.97 42.2601 24.71 42.1001C23.81 41.5201 22.5101 41.9301 21.7901 43.0301C21.6001 43.3301 21.46 43.6501 21.38 43.9901L22.7999 44.2601C22.8299 43.7001 23.0099 43.1601 23.2999 42.7001C23.4899 42.4101 23.6999 42.2201 23.7799 42.2901C23.9199 42.3801 23.8999 42.7701 23.7799 43.3001C23.7399 43.4801 23.6099 43.6701 23.3399 44.3201L24.5699 44.5401L25.0098 43.5201C25.4898 43.8301 25.6702 44.4001 25.4102 44.8001C25.0402 45.3701 24.0901 45.5801 23.0201 45.3501L22.94 45.5901H22.9703ZM27.0098 35.5801L27.7799 36.1801L27.23 36.8901L31.2501 40.0301L29.8502 40.6301L26.4 37.9401L25.9302 38.5401L25.1602 37.9401L27.0098 35.5801ZM21.4302 37.8501L23.0601 38.1301C23.1201 37.8501 23.26 37.5801 23.48 37.3001C23.67 37.0601 23.92 36.9201 24.17 36.9101L25.9903 36.9501L26.21 36.6601L23.5201 36.5601C23.0801 36.5701 22.3402 37.0301 21.4302 37.8601V37.8501ZM31.73 38.2201L33.1602 37.6901L29.3101 34.3401L29.92 33.6401L29.19 33.0001L28.5801 33.7001L27.94 33.1401C27.48 32.7401 27.4201 32.0501 27.8301 31.6001C28.3201 31.0401 29.4999 30.7301 31.0499 30.7601L31.1402 30.3701C28.9302 30.3301 27.2699 30.7701 26.5699 31.5501C25.9699 32.2401 25.9401 33.1901 26.5001 33.6601L27.3301 34.3801L28.1002 34.2401L27.2203 35.2601L27.9503 35.9001L28.44 35.3401L31.7403 38.2101L31.73 38.2201ZM31.2799 34.3901C31.1499 34.2801 31.1701 34.0701 31.3101 33.9201C31.4201 33.8101 31.6403 33.7001 31.9503 33.6101C31.5503 33.0501 31.2499 32.6801 31.0699 32.5101L30.0801 33.5301L29.38 32.8501L32.0001 30.1401L32.7003 30.8101L31.8301 31.7101C32.6001 32.2401 33.0901 32.5901 33.3101 32.8001C33.6901 33.1701 33.8902 33.7701 33.8502 34.4201L36.17 34.3801C36.08 34.6001 36.01 34.7201 35.96 34.7701C35.85 34.9001 35.4803 34.9501 34.9703 34.9101L32.48 34.7801C31.94 34.7501 31.5101 34.6001 31.2701 34.3701L31.2799 34.3901ZM33.0899 30.4901L32.4703 29.7501L36.3702 26.4801L36.9903 27.2201L36.2203 27.8701C36.7503 28.3101 37.2199 28.7801 37.6099 29.2401C38.0699 29.7901 38.1602 30.4901 37.8502 30.9401L36.3101 30.8101C36.5501 30.5501 36.5401 30.1401 36.3101 29.8601L35.2999 28.6501L34.46 29.3501L36.1402 31.3501C36.4202 31.6901 37.21 31.7401 38.15 31.4801C39.17 31.1101 40.0702 31.1201 40.3902 31.5101C40.5002 31.6401 40.5601 31.8401 40.5601 32.0801L39.0299 32.3301C39.0899 32.1801 39.06 31.9901 38.94 31.8501C38.71 31.5701 38.0103 31.8201 36.7203 32.0401C35.7803 32.2001 34.9501 32.0101 34.5601 31.5501L33.4302 30.2001L33.1002 30.4801L33.0899 30.4901ZM37.5499 26.7401L38.4903 28.0801C39.7603 28.5401 40.8101 28.6001 41.2901 28.2701C41.8401 27.8901 41.9699 27.1301 41.5899 26.5801L40.3399 24.7901L40.7999 24.4701L40.2403 23.6701L36.71 26.1401L37.2701 26.9401L37.5601 26.7401H37.5499ZM38.6402 25.9701L40.0299 27.9601C40.1099 28.0701 40.2602 28.1001 40.3702 28.0201C40.6002 27.8801 40.5499 27.4301 40.2799 27.0401L39.2403 25.5501L38.6402 25.9701ZM42.4703 25.9801C42.7403 26.4401 43.3201 26.8001 44.0801 26.9501C44.8601 27.1201 45.5701 27.0501 46.0801 26.7601C46.4701 26.5401 46.85 26.1201 47.15 25.5801L45.8399 25.0101C45.5599 25.6401 45.1703 26.1101 44.7203 26.3601C44.1903 26.6601 43.6002 26.6301 43.4102 26.2801C43.1402 25.8201 43.38 25.1801 43.92 24.8601L44.92 24.2801C45.15 24.1501 45.2302 23.8501 45.1002 23.6201C44.8002 23.1001 44.5 22.6601 44.21 22.3101L45.1802 21.7501L44.69 20.9101L40.5499 23.3001L41.0401 24.1401L43.1602 22.9101L43.46 23.4401C43.54 23.5901 43.4799 23.7801 43.2999 23.8901L42.9302 24.1001C42.2902 24.4701 42.0803 25.3001 42.4703 25.9801ZM45.6402 21.4701L45.2403 20.5801L51.73 17.6901L52.13 18.5801L51.13 19.0201L53.21 23.6801L51.69 23.5601L50.7501 21.4501C50.4801 21.3601 50.3799 22.2001 50.5699 22.9901L49.2003 23.2001C49.1203 22.8501 49.11 22.4701 49.17 22.0801C49.01 22.0601 48.8999 22.0701 48.8399 22.0901C48.3199 22.3301 48.0601 22.8901 48.2701 23.3401C48.5201 23.9201 49.2501 24.4201 50.2701 24.7101L50.15 25.0301C48.37 24.6801 47.1001 24.0101 46.7501 23.2201C46.4701 22.6101 46.8199 21.8601 47.5299 21.5401C47.9699 21.3601 48.58 21.4201 49.21 21.7201C49.29 21.1101 49.6701 20.5801 50.2501 20.3301L49.9 19.5501L45.63 21.4501L45.6402 21.4701ZM55.7203 18.7401C55.8003 19.0601 56.0901 19.3801 56.5201 19.6301C56.9501 19.8901 57.3702 19.9901 57.6602 19.9101C57.9402 19.8301 58.1502 19.5901 58.4302 19.5101C58.5202 19.4801 58.6102 19.5101 58.6402 19.5801C58.7602 20.0101 58.2702 20.5001 57.6002 20.6101C57.1002 20.3801 56.7902 20.2601 56.6402 20.3001C56.3802 20.3701 56.2301 20.6601 56.3101 20.9501C56.5001 21.6701 57.4199 22.0401 58.3599 21.7801C58.4399 21.9301 58.7101 22.1401 59.0201 22.6101C59.2601 22.9601 59.5403 23.1601 59.7203 23.1101C59.7703 23.1001 59.8101 23.0301 59.98 22.9101L58.6202 21.5801C59.1902 21.1801 59.4701 20.5501 59.3301 20.0101C59.2501 19.7001 58.9801 19.4001 58.5801 19.1401C58.1701 18.8801 57.7798 18.7801 57.5098 18.8601C57.2398 18.9301 56.9903 19.0601 56.7003 19.1401C56.5703 19.1701 56.4502 19.1601 56.4302 19.0901C56.3702 18.8701 56.5802 18.6201 56.9102 18.5201L58.0801 18.2101C58.3401 18.1401 58.49 17.8701 58.42 17.6201C58.38 17.4801 58.2801 17.2401 58.0801 16.8301L58.9 16.6101L58.65 15.6701L54.6802 16.7301L54.9302 17.6701L56.9 17.1401C56.97 17.4001 56.87 17.6501 56.67 17.7001L56.2003 17.8301C55.8103 17.9301 55.5802 18.3401 55.6802 18.7201L55.7203 18.7401ZM55.98 14.0801L57.0601 14.7001L57.7598 13.6701L56.67 12.9901L55.9903 14.0801H55.98ZM59.8301 17.1101C60.4901 16.8701 60.7402 16.7601 60.9302 16.7301L60.8199 16.1301L59.44 16.3701L59.2701 15.4101L63.13 14.7301L63.2999 15.6901L62.13 15.9001L62.3199 16.9801C62.8499 17.1701 63.2301 17.6201 63.3301 18.1601C63.4501 18.8201 63.0502 19.5301 62.3502 19.9401L63.5401 21.4601C63.4301 21.5201 63.3401 21.5601 63.2501 21.5701C63.0601 21.6001 62.8403 21.4701 62.7003 21.2401L62.0601 20.0601C61.1701 20.0601 60.4499 19.6901 60.3599 19.1901C60.2999 18.8601 60.4901 18.5501 60.7901 18.5001C60.9201 18.4801 61.1099 18.6201 61.5299 18.8601C62.0699 18.5601 62.3601 17.9901 62.2701 17.4401C62.2501 17.3401 62.1301 17.2801 62.0001 17.3001C61.7701 17.3501 61.4001 17.5801 60.7701 18.0101L59.8101 17.1301L59.8301 17.1101ZM63.7598 16.9201C64.4098 18.2001 65.5199 18.9701 66.5699 18.8401C66.7399 18.8201 66.93 18.7701 67.17 18.7101L67.2901 19.6701L68.71 20.2301L68.0899 15.1701L68.98 15.0601L68.8599 14.1001L63.3502 14.7801L63.4703 15.7401L64.5899 15.6001C64.6899 15.7201 64.7498 15.8401 64.7598 15.9501C64.8098 16.3201 64.3899 16.7301 63.7799 16.9301L63.7598 16.9201ZM64.8599 17.8901C65.6199 17.6601 66.1101 17.0401 66.0201 16.4001C65.9801 16.0501 65.8001 15.7201 65.5401 15.4801L66.7501 15.3301L66.9503 16.9601C66.6203 17.5801 66.0703 17.9901 65.4903 18.0601C65.3703 18.0701 65.1499 18.0201 64.8599 17.8901ZM72.46 14.0701L69.46 14.1201L69.48 15.0901H70.2501L70.3301 19.4501L71.6802 20.1601L71.5899 15.0601L72.4903 15.0401L72.4703 14.0701H72.46ZM67.4903 10.8701L68.2501 12.3401C68.5101 12.2201 68.8102 12.1701 69.1602 12.1701C69.4602 12.1701 69.7299 12.2901 69.88 12.4901L70.9503 13.9701H71.3101L69.7701 11.7601C69.5001 11.4201 68.69 11.1001 67.48 10.8701H67.4903ZM72.9 16.4301C72.9 16.7601 73.0802 17.1701 73.4302 17.5901L75.0401 19.5001C75.3601 19.8901 75.6499 20.1301 75.8199 20.1201C75.8899 20.1201 76.0301 20.0901 76.2501 20.0001L74.6402 18.3301C75.1502 17.9101 75.45 17.3601 75.46 16.8301C75.46 16.5301 75.3901 15.9301 75.2501 15.0001L76.5001 15.0201L76.5201 14.0501L72.7598 13.9801L72.7403 14.9501L74.1602 14.9701C74.1602 15.2101 74.0903 15.6901 73.9503 16.3601C73.6703 16.2001 73.4401 16.1101 73.2901 16.1101C73.0801 16.1101 72.91 16.2401 72.92 16.4101L72.9 16.4301ZM71.8101 10.8601C73.0101 11.1501 73.7999 11.5101 74.0499 11.8701L75.4703 14.1601L75.1099 14.1301L74.1202 12.6001C73.9802 12.4001 73.7202 12.2701 73.4102 12.2501C73.0602 12.2301 72.7503 12.2601 72.4903 12.3701L71.7999 10.8601H71.8101ZM75.0201 12.0001L75.8702 12.9101L76.8399 12.1301L75.9903 11.1601L75.0201 12.0101V12.0001ZM77.0801 15.1301L78.5098 15.3101C78.6398 15.8601 78.52 16.4001 78.21 16.7401C78.08 16.4201 77.8199 16.2001 77.5499 16.1701C77.3499 16.1401 77.15 16.3401 77.13 16.6101C77.1 16.8401 77.2601 17.2901 77.5801 17.8901L79.19 20.7201L79.69 20.6001L78.4503 18.7301C78.9703 18.6101 79.3801 18.2001 79.5601 17.6401C79.9601 18.0701 80.3502 18.3501 80.6802 18.4501L80.5001 19.9601L81.7403 20.8501L82.3599 15.7801L83.2799 15.8901L83.4 14.9301L77.19 14.1701L77.0699 15.1301H77.0801ZM79.5401 15.4301L81.0499 15.6101L80.8902 16.9401C80.5802 17.1301 80.2299 17.2101 79.88 17.1801L79.6402 17.1501C79.7102 16.5801 79.6799 16.0001 79.5499 15.4301H79.5401ZM86.13 18.3201C85.85 19.3501 86.7099 20.4701 88.0299 20.8401L87.8101 21.6601L88.9102 22.7101L89.5098 20.4801C89.9998 20.1301 90.4601 19.9801 90.7501 20.0601C90.8401 20.0901 90.89 20.1901 90.88 20.2801C90.78 20.6701 90.3999 21.1901 89.7799 21.8101L90.9703 23.0101C91.1703 22.5901 91.2999 22.2801 91.3399 22.1001C91.7399 20.6101 91.1103 19.1501 89.9503 18.8401L90.23 17.7801L92.7999 18.4701L93.0499 17.5301L86.5299 15.7801L86.2799 16.7201L88.94 17.4301L88.5899 18.7201L88.1602 17.9801C87.9702 17.8401 87.7802 17.7401 87.6002 17.7101C86.9202 17.5301 86.2602 17.8001 86.1202 18.3201H86.13ZM86.6402 19.4601C86.7802 18.9401 87.6299 18.7201 88.5299 18.9601L88.44 19.3101C87.72 19.6501 87.1601 19.7801 86.8301 19.7001C86.7001 19.6701 86.6202 19.5501 86.6402 19.4601ZM92.5201 20.9401C92.6101 20.7501 92.8299 20.6701 93.0499 20.7501L93.5001 20.9201L94.15 19.2201L93.1099 18.8201L93.46 17.9101L96.6002 19.1201L96.2501 20.0301L95.4 19.7001L94.7501 21.4001L95.7701 21.7901L95.38 22.8101L94.3599 22.4201L94.1402 22.9901C94.0402 23.2801 93.8002 23.4401 93.6002 23.3701C93.3002 23.2401 92.9903 22.8601 92.7403 22.3001C92.4903 21.7201 92.4101 21.2401 92.5201 20.9401ZM96.92 20.3801L96.17 21.9101C96.25 23.1301 96.7501 24.1001 97.5001 24.4501L97.0699 25.3201L97.9503 26.5601L100.19 21.9701L101.02 22.3701L101.45 21.5001L97.0098 19.3301L96.5801 20.2001L96.92 20.3701V20.3801ZM98.1202 20.9701L98.9903 21.4001L98.1402 23.1501C97.8302 23.4501 97.4101 23.5401 97.0801 23.3801C97.0101 23.3501 96.9999 23.2501 97.0499 23.1601L98.1099 20.9801L98.1202 20.9701ZM100.74 24.4201C100.93 24.1101 101.37 24.0301 101.71 24.2401L103.82 25.5601L104.4 24.6301L101.44 22.7801L101.95 21.9601L106.82 25.0001L106.31 25.8201L105.53 25.3301L102.83 29.6601L102.08 28.3301L103.24 26.4801L102.26 25.8701L101.87 26.4901C101.66 26.8301 101.3 26.9901 101.07 26.8501C100.81 26.6901 100.62 26.2801 100.54 25.7501C100.46 25.2101 100.53 24.7401 100.73 24.4201H100.74ZM106.42 22.6401L105.69 23.6101L105.93 24.2401L106.44 24.6301L106.95 23.9501C107.24 23.5701 107.68 23.4201 107.95 23.6401C108.27 23.8801 108.27 24.7501 108.12 26.0501L107.13 25.3001L106.55 26.0801L107.15 26.5301L104.52 30.0201L105.15 31.4101L108.22 27.3301L108.94 27.8701L109.52 27.0901L108.51 26.3301C108.74 24.4301 108.54 23.0001 107.98 22.5901C107.45 22.1901 106.75 22.2101 106.43 22.6401H106.42ZM108.67 33.5201L111.65 30.3201L111.11 29.8101L111.77 29.1001L112.76 30.0201L112.65 29.2501L113.4 28.4501C113.9 27.9001 114.84 27.9701 115.51 28.5901C116.27 29.3101 116.64 30.9901 116.53 33.1901L116.15 33.0801C116.23 31.5301 115.97 30.3401 115.43 29.8301C114.99 29.4101 114.3 29.4401 113.89 29.8801L113.31 30.5001L113.99 31.1301L113.33 31.8401L112.65 31.2101L109.17 34.9401L108.69 33.4901L108.67 33.5201ZM113.82 32.1501L116.89 35.6801L116.25 36.2401C115.84 35.7601 115.21 35.5501 114.61 35.6501C114.72 34.9601 114.6 34.3601 114.3 33.9901C113.79 33.4001 112.96 33.2901 112.47 33.7301C111.82 34.3001 111.55 35.7101 111.73 37.5101L112.07 37.5301C112.05 36.4701 112.31 35.6201 112.79 35.2101C113.17 34.8801 113.77 34.9701 114.15 35.3901C114.19 35.4401 114.23 35.5401 114.26 35.7001C113.88 35.7601 113.52 35.8801 113.2 36.0601L113.8 37.3101C114.5 36.8901 115.34 36.7501 115.33 37.0301L113.59 38.5401L113.91 40.0301L117.76 36.6801L118.48 37.5101L119.21 36.8701L114.55 31.5101L113.82 32.1501ZM115.43 40.8801L118.97 38.3101L118.53 37.7101L119.32 37.1401L120.11 38.2301L120.15 37.4501L121.03 36.8101C121.62 36.3601 122.54 36.6101 123.07 37.3501C123.67 38.2001 123.72 39.9201 123.19 42.0601L122.84 41.8801C123.22 40.3701 123.19 39.1501 122.75 38.5501C122.4 38.0501 121.71 37.9501 121.22 38.3101L120.53 38.8101L121.07 39.5601L120.28 40.1301L119.74 39.3801L115.61 42.3801L115.42 40.8701L115.43 40.8801ZM118.73 41.6901C118.91 41.5901 119.14 41.6701 119.26 41.8701L119.51 42.2901L121.07 41.3501L120.49 40.3901L121.32 39.8901L124.3 44.8501L123.47 45.3501L123.01 44.5801L118.64 47.2101L118.58 45.6901L119.83 44.9401L119.27 44.0001L118.75 44.3101C118.5 44.4801 118.2 44.4601 118.09 44.2801C117.93 43.9901 117.92 43.5001 118.07 42.9001C118.23 42.2901 118.46 41.8601 118.73 41.6901ZM120.2 43.4301L120.76 44.3701L122.32 43.4301L121.76 42.4901L120.2 43.4301ZM121.72 47.1101C121.24 47.3401 120.82 47.8901 120.61 48.6301C120.38 49.4001 120.38 50.1001 120.62 50.6401C120.81 51.0501 121.19 51.4601 121.7 51.8101L122.39 50.5501C121.79 50.2101 121.35 49.7901 121.15 49.3201C120.89 48.7701 120.98 48.1801 121.35 48.0201C121.83 47.7901 122.45 48.0801 122.72 48.6501L123.21 49.7001C123.32 49.9401 123.61 50.0501 123.86 49.9301C124.4 49.6801 124.87 49.4201 125.24 49.1501L125.71 50.1601L126.59 49.7501L124.57 45.4101L123.69 45.8201L124.73 48.0401L124.18 48.3001C124.03 48.3701 123.84 48.2901 123.75 48.1001L123.57 47.7101C123.26 47.0401 122.44 46.7601 121.74 47.0901L121.72 47.1101ZM127.04 43.5801C127.37 44.7701 127.43 45.6301 127.24 46.0301L125.93 48.3801L125.78 48.0501L126.64 46.4401C126.75 46.2101 126.74 45.9301 126.61 45.6501C126.46 45.3301 126.28 45.0801 126.06 44.9001L127.05 43.5701L127.04 43.5801ZM123.86 51.4101L124.01 51.6101C123.26 52.5801 122.97 53.5901 123.25 54.2701C123.5 54.8901 124.03 55.2601 124.44 55.1001C124.51 55.0801 124.53 55.0101 124.51 54.9401C124.38 54.6201 124.05 54.4501 123.92 54.1301C123.78 53.7901 123.87 53.3101 124.13 52.8001C124.39 52.2801 124.75 51.9001 125.12 51.7501C125.4 51.6201 125.73 51.7901 125.85 52.1101L126.19 52.9501C126.24 53.0701 126.38 53.1301 126.51 53.0801L126.85 52.9401L125.84 50.4401L126.74 50.0801L128.59 54.6601L127.69 55.0201L127.3 54.0601C126.9 54.3101 126.78 54.4001 126.67 54.4501C126.23 54.6301 125.8 54.5701 125.7 54.3201L125.24 53.1901C125.1 52.8501 124.89 52.6101 124.76 52.6601C124.61 52.7401 124.51 52.8501 124.55 52.9401C124.67 53.2301 124.85 53.5101 124.97 53.8201C125.12 54.1801 125.09 54.6401 124.9 55.0901C124.71 55.5501 124.4 55.8801 124.03 56.0301C123.44 56.2701 122.76 55.9601 122.51 55.3401C122.09 54.2701 122.61 52.7301 123.86 51.3901V51.4101Z" fill="#0066B2"/>
<path fill-rule="evenodd" clip-rule="evenodd" d="M16.8501 63.8301L20.04 63.4801L17.7998 65.5801L19.7002 68.1601L16.7598 67.2801L15.48 70.2101L14.77 67.2201L11.5898 67.5801L13.8301 65.4801L11.9302 62.9001L14.8701 63.7801L16.1499 60.8501L16.8501 63.8301Z" fill="#0066B2"/>
<path d="M12.2598 74.2501L17.0698 74.1701L17.04 72.4501L18.02 72.4301L18.1001 77.0301L17.1201 77.0501L17.0898 75.34L12.2798 75.4201L12.2598 74.2501ZM12.4199 78.0401L18.1699 77.3301L18.3101 78.4901L16.0498 78.7701L16.3301 81.0501L18.5898 80.7701L18.73 81.9301L12.98 82.6401L12.8398 81.4801L15.3599 81.1701L15.0801 78.8901L12.5601 79.2001L12.4199 78.0401ZM13.1802 83.9401L14.1699 88.2301L15.1201 88.0101L14.3901 84.8601L15.9302 84.5101L16.5801 87.34L17.5298 87.1201L16.8799 84.2901L18.1299 84.0001L18.8301 87.0501L19.79 86.8301L18.8198 82.6401L13.1699 83.9401H13.1802ZM17.5898 90.1201C18.1398 89.9101 18.6398 89.8101 19.0698 89.8301C19.3898 89.8501 19.7 89.9201 20 90.0501C20.3 90.1801 20.5498 90.3501 20.7598 90.5601C21.0298 90.8401 21.2499 91.2001 21.4199 91.6401C21.7299 92.4401 21.7199 93.17 21.4199 93.84C21.1099 94.51 20.5099 95.0101 19.6299 95.3501C18.7599 95.6901 17.9801 95.7101 17.3101 95.4301C16.6401 95.1401 16.1398 94.6001 15.8398 93.8101C15.5298 93.0101 15.5298 92.2701 15.8398 91.6101C16.1498 90.9501 16.7301 90.4501 17.6001 90.1201H17.5898ZM18.0601 91.2301C17.4501 91.4701 17.0401 91.7801 16.8301 92.1901C16.6201 92.5901 16.6 93.01 16.77 93.4501C16.94 93.8901 17.2299 94.18 17.6499 94.34C18.0699 94.5 18.5902 94.4601 19.2202 94.2201C19.8402 93.9801 20.2502 93.6701 20.4502 93.2801C20.6502 92.8901 20.6602 92.4701 20.4902 92.0201C20.3202 91.57 20.0199 91.2701 19.6099 91.1101C19.1999 90.9501 18.6798 90.9901 18.0498 91.2301H18.0601ZM17.3398 97.3301L17.8701 98.3701L20.0298 97.2701L20.1401 97.4801C20.2601 97.7201 20.3301 97.9001 20.3501 98.0301C20.3701 98.1601 20.35 98.3001 20.29 98.4501C20.24 98.6 20.0801 98.9101 19.8101 99.3901L19.0698 100.72L19.71 101.97L20.3999 100.83C20.6699 100.38 20.8499 100.04 20.9399 99.8101C21.0199 99.5801 21.0698 99.3201 21.0898 99.0301C21.3898 99.4501 21.7198 99.7101 22.0898 99.8101C22.4598 99.9101 22.8402 99.8601 23.2202 99.6601C23.5302 99.5001 23.7599 99.2901 23.9199 99.0201C24.0799 98.75 24.1399 98.4701 24.1099 98.1701C24.0799 97.8701 23.9201 97.4501 23.6401 96.9001L22.52 94.7101L17.3599 97.34L17.3398 97.3301ZM20.8501 96.8501L22.1602 96.1801L22.5698 96.9901C22.7898 97.4101 22.9099 97.6701 22.9399 97.7601C22.9999 97.9401 22.9999 98.1101 22.9399 98.2501C22.8799 98.4001 22.7598 98.5201 22.5898 98.6001C22.4298 98.6801 22.2899 98.7101 22.1499 98.6901C22.0099 98.6701 21.8898 98.6101 21.7798 98.5101C21.6698 98.4101 21.4902 98.1101 21.2402 97.6101L20.8501 96.84V96.8501ZM20.1401 102.55L25.21 99.7401L25.7798 100.76L20.71 103.57L20.1401 102.55ZM21.3301 104.59L26.25 101.52L28.5298 105.16L27.7002 105.68L26.04 103.03L24.9502 103.71L26.4902 106.18L25.6602 106.7L24.1201 104.23L22.7798 105.07L24.5 107.82L23.6699 108.34L21.3301 104.6V104.59ZM24.4702 109.18L25.1401 110.04L28.1201 107.71L26.5801 111.88L27.2998 112.81L31.8701 109.24L31.2002 108.38L28.1499 110.76L29.7402 106.51L29.04 105.61L24.4702 109.18ZM29.1699 114.71L32.6899 111.43L31.52 110.17L32.2402 109.5L35.3799 112.87L34.6602 113.54L33.4902 112.29L29.9702 115.57L29.1699 114.71ZM35.3501 120.38L37.3999 114.49L36.46 113.68L30.9502 116.57L31.8901 117.38L33.1201 116.7L34.8701 118.22L34.3901 119.55L35.3501 120.38ZM35.23 117.24L36.04 115.09L34.04 116.2L35.2402 117.24H35.23ZM35.96 120.82L39.3398 116.17L40.29 116.86L37.4902 120.72L39.8398 122.43L39.27 123.22L35.9702 120.82H35.96ZM41.77 124.7L44.6699 119.68L45.6802 120.26L42.7798 125.28L41.77 124.7ZM43.8599 125.84L44.8198 126.35L46.6001 123.01L46.8901 127.45L47.9302 128L50.6499 122.88L49.6899 122.37L47.8701 125.79L47.5898 121.26L46.5801 120.73L43.8599 125.85V125.84ZM49.7002 126.59L50.7998 126.91C50.7198 127.29 50.7401 127.6 50.8701 127.85C51.0001 128.09 51.2301 128.28 51.5601 128.42C51.9101 128.56 52.1999 128.59 52.4399 128.52C52.6799 128.44 52.8399 128.31 52.9199 128.11C52.9699 127.98 52.9799 127.86 52.9399 127.74C52.8999 127.62 52.8001 127.49 52.6401 127.35C52.5301 127.25 52.2699 127.06 51.8599 126.76C51.3399 126.38 51.0001 126.04 50.8501 125.73C50.6401 125.3 50.62 124.87 50.79 124.45C50.9 124.18 51.0801 123.95 51.3301 123.78C51.5801 123.6 51.8802 123.51 52.2202 123.51C52.5602 123.51 52.9401 123.58 53.3501 123.75C54.0301 124.02 54.4699 124.38 54.6899 124.81C54.9099 125.24 54.93 125.71 54.75 126.21L53.6499 125.82C53.7199 125.52 53.6998 125.29 53.5898 125.1C53.4898 124.92 53.28 124.76 52.98 124.64C52.66 124.51 52.3902 124.48 52.1602 124.53C52.0102 124.57 51.9101 124.66 51.8501 124.79C51.8001 124.92 51.8099 125.05 51.8799 125.18C51.9699 125.35 52.25 125.6 52.73 125.94C53.21 126.28 53.5502 126.56 53.7402 126.8C53.9402 127.03 54.0599 127.3 54.1099 127.59C54.1599 127.88 54.11 128.19 53.98 128.53C53.86 128.84 53.6501 129.09 53.3701 129.29C53.0901 129.49 52.7699 129.59 52.3999 129.6C52.0299 129.6 51.6199 129.51 51.1499 129.32C50.4699 129.05 50.01 128.68 49.77 128.22C49.53 127.76 49.4999 127.21 49.6699 126.58L49.7002 126.59ZM55.9902 124.76L55.1401 127.73C54.9601 128.35 54.8598 128.84 54.8398 129.18C54.8298 129.41 54.88 129.64 54.98 129.89C55.08 130.13 55.2602 130.35 55.4902 130.56C55.7302 130.76 56.1199 130.94 56.6499 131.09C57.0899 131.22 57.46 131.26 57.77 131.23C58.08 131.2 58.3401 131.11 58.5601 130.96C58.7801 130.82 58.9601 130.61 59.1001 130.36C59.2401 130.1 59.4101 129.64 59.6001 128.97L60.4399 126.04L59.3198 125.72L58.4399 128.8C58.3099 129.24 58.2101 129.55 58.1201 129.73C58.0301 129.91 57.8899 130.04 57.6899 130.13C57.4899 130.21 57.2302 130.21 56.9102 130.12C56.6002 130.03 56.37 129.89 56.23 129.7C56.09 129.51 56.03 129.29 56.04 129.05C56.05 128.9 56.13 128.59 56.27 128.11L57.1401 125.09L56.02 124.77L55.9902 124.76ZM60.1299 131.81L61.1401 126.1L63.5698 126.53C64.1798 126.64 64.6101 126.77 64.8701 126.92C65.1301 127.07 65.3199 127.29 65.4399 127.58C65.5599 127.87 65.5898 128.19 65.5298 128.52C65.4498 128.95 65.2702 129.28 64.9702 129.51C64.6702 129.74 64.26 129.86 63.75 129.84C63.97 130.03 64.1498 130.23 64.2798 130.43C64.4098 130.63 64.57 130.98 64.77 131.47L65.27 132.71L63.8901 132.47L63.2798 131.08C63.0598 130.58 62.9098 130.27 62.8198 130.13C62.7298 130 62.63 129.9 62.52 129.83C62.41 129.77 62.2102 129.71 61.9502 129.66L61.7202 129.62L61.2998 132L60.1499 131.8L60.1299 131.81ZM61.8599 128.72L62.71 128.87C63.26 128.97 63.6098 129 63.7598 128.98C63.9098 128.96 64.0299 128.9 64.1299 128.8C64.2299 128.7 64.2898 128.56 64.3198 128.39C64.3498 128.2 64.32 128.03 64.25 127.9C64.17 127.76 64.0399 127.66 63.8599 127.6C63.7699 127.57 63.49 127.51 63.02 127.43L62.1201 127.27L61.8599 128.72ZM71.2998 133.19L69.5 127.21L68.2598 127.1L65.5098 132.68L66.75 132.79L67.3398 131.52L69.6499 131.72L70.04 133.08L71.3101 133.19H71.2998ZM69.3599 130.72L67.7798 130.58L68.75 128.51L69.3599 130.72ZM71.9902 133.15L71.79 127.36L72.9302 127.32L75.4399 131.11L75.2998 127.24L76.3901 127.2L76.5898 132.99L75.4199 133.03L72.9502 129.33L73.0801 133.11L71.9902 133.15ZM81.3101 130.3L82.48 130.5C82.4 131.15 82.1698 131.65 81.8198 132.02C81.4598 132.38 80.9799 132.6 80.3599 132.69C79.5999 132.8 78.9301 132.62 78.3701 132.17C77.8101 131.72 77.4601 131.04 77.3301 130.14C77.2001 129.18 77.3298 128.41 77.7598 127.81C78.1798 127.21 78.7898 126.86 79.5898 126.74C80.2898 126.64 80.8901 126.77 81.3901 127.12C81.6801 127.33 81.9299 127.65 82.1299 128.09L81.02 128.52C80.91 128.23 80.74 128.02 80.5 127.87C80.26 127.73 79.9902 127.68 79.6802 127.72C79.2602 127.78 78.93 127.98 78.71 128.32C78.49 128.66 78.43 129.17 78.52 129.86C78.62 130.59 78.8299 131.08 79.1299 131.36C79.4299 131.63 79.79 131.74 80.21 131.68C80.52 131.64 80.77 131.5 80.96 131.27C81.15 131.04 81.2701 130.71 81.3101 130.28V130.3ZM83.8799 132.14L88.1602 131.07L87.9199 130.12L84.7798 130.9L84.3999 129.37L87.2202 128.67L86.98 127.72L84.1602 128.42L83.8501 127.17L86.8799 126.41L86.6401 125.46L82.4702 126.5L83.8701 132.12L83.8799 132.14ZM93.98 126.92L95.1699 126.83C95.2499 127.48 95.1501 128.02 94.8901 128.46C94.6301 128.9 94.2099 129.23 93.6299 129.46C92.9199 129.75 92.2301 129.74 91.5801 129.44C90.9201 129.14 90.4201 128.56 90.0801 127.72C89.7201 126.83 89.6702 126.04 89.9302 125.36C90.1902 124.68 90.7002 124.19 91.4502 123.88C92.1102 123.61 92.72 123.59 93.29 123.82C93.63 123.95 93.9402 124.21 94.2402 124.59L93.27 125.28C93.09 125.03 92.8699 124.86 92.6099 124.78C92.3399 124.7 92.0698 124.72 91.7798 124.84C91.3798 125 91.12 125.27 90.98 125.66C90.85 126.05 90.9099 126.56 91.1699 127.2C91.4399 127.88 91.7601 128.31 92.1201 128.5C92.4801 128.69 92.86 128.71 93.25 128.55C93.54 128.43 93.7499 128.24 93.8799 127.97C94.0099 127.7 94.05 127.35 93.98 126.92ZM95.3198 125.71C95.7498 126.52 96.3198 127.04 97.0098 127.27C97.7098 127.49 98.4302 127.41 99.2002 127C99.9502 126.6 100.43 126.05 100.63 125.34C100.83 124.63 100.71 123.87 100.27 123.04C99.83 122.21 99.2498 121.68 98.5498 121.45C97.8498 121.22 97.1201 121.31 96.3701 121.71C95.9501 121.93 95.6201 122.19 95.3701 122.5C95.1801 122.73 95.0402 123 94.9502 123.31C94.8602 123.62 94.8201 123.94 94.8501 124.26C94.8801 124.7 95.0401 125.18 95.3101 125.7L95.3198 125.71ZM96.3701 125.11C96.0601 124.52 95.9501 124.01 96.0601 123.58C96.1701 123.15 96.4299 122.82 96.8599 122.59C97.2899 122.36 97.6999 122.33 98.1099 122.48C98.5199 122.63 98.8799 123 99.1899 123.59C99.5099 124.18 99.61 124.7 99.5 125.14C99.39 125.58 99.1402 125.91 98.7202 126.12C98.3102 126.34 97.89 126.37 97.46 126.21C97.03 126.05 96.6699 125.68 96.3599 125.11H96.3701ZM102.6 125.18L99.4399 120.32L100.91 119.37L103.95 122.11L102.67 118.23L104.14 117.27L107.3 122.13L106.39 122.72L103.91 118.89L105.43 123.34L104.48 123.95L101.03 120.75L103.51 124.58L102.6 125.17V125.18ZM108.3 121.4L109.21 120.66L107.83 118.96L108.42 118.48C108.83 118.15 109.13 117.87 109.31 117.65C109.44 117.49 109.54 117.29 109.61 117.05C109.68 116.82 109.68 116.57 109.63 116.3C109.58 116.03 109.44 115.76 109.22 115.48C108.93 115.12 108.61 114.9 108.25 114.81C107.89 114.72 107.56 114.75 107.24 114.89C107.04 114.98 106.66 115.25 106.1 115.7L104.64 116.88L108.29 121.38L108.3 121.4ZM106.18 116.92L107.22 118.2L107.72 117.8C108.08 117.51 108.3 117.29 108.38 117.15C108.46 117.01 108.5 116.85 108.48 116.7C108.47 116.54 108.41 116.4 108.3 116.27C108.17 116.11 108.01 116.01 107.83 115.98C107.65 115.95 107.47 115.98 107.3 116.08C107.17 116.15 106.95 116.31 106.62 116.58L106.18 116.94V116.92ZM115.89 114.73L114.97 115.61L113.69 115.01L112.02 116.62L112.59 117.9L111.7 118.76L109.3 113.02L110.19 112.16L115.88 114.72L115.89 114.73ZM112.75 114.57L110.68 113.58L111.61 115.67L112.75 114.57ZM116.44 114.18L117.15 113.36L114.29 110.88L118.68 111.6L119.45 110.71L115.08 106.91L114.37 107.73L117.29 110.27L112.81 109.52L112.06 110.38L116.43 114.18H116.44ZM121.19 108.37L119.19 106.97L115.22 106.78L116.01 105.66L118.67 105.86L117.55 103.45L118.32 102.34L119.85 106.02L121.84 107.41L121.17 108.37H121.19ZM124.46 103.4L126.44 99.8301L125.59 99.3601L124.18 101.9L120.01 99.59L119.44 100.61L124.47 103.4H124.46ZM126.85 98.9801L121.56 96.6201L122.04 95.5501L127.33 97.9101L126.85 98.9801ZM127.9 96.8501L128.29 95.8301L124.03 94.1901L128.7 94.7601L129.1 93.7101L125.25 91.0001L129.51 92.6401L129.9 91.6201L124.49 89.5401L123.86 91.1801L127.18 93.5601L123.11 93.1201L122.48 94.7601L127.89 96.84L127.9 96.8501ZM130.24 90.3701L124.64 88.8701L124.94 87.7401L130.54 89.2401L130.24 90.3701ZM131.15 86.7801L126.44 85.7801L126.08 87.4601L125.12 87.2601L126.08 82.7601L127.04 82.9601L126.68 84.6401L131.39 85.6401L131.15 86.7801ZM132 83.1101L132.54 78.7401L131.57 78.6201L131.18 81.8301L129.62 81.6401L129.97 78.7501L129 78.6301L128.65 81.5201L127.37 81.3601L127.75 78.2601L126.78 78.1401L126.26 82.4001L132.01 83.1101H132ZM126.88 77.5801L126.92 75.4401C126.92 74.9601 126.97 74.59 127.05 74.34C127.16 74 127.34 73.7101 127.6 73.4801C127.86 73.2401 128.18 73.0601 128.55 72.9401C128.92 72.8201 129.38 72.7601 129.92 72.7701C130.4 72.7701 130.81 72.8401 131.15 72.9701C131.57 73.1201 131.91 73.3401 132.16 73.6101C132.35 73.8201 132.5 74.0901 132.61 74.4401C132.69 74.7001 132.72 75.0501 132.71 75.4801L132.67 77.6801L126.87 77.5801H126.88ZM127.88 76.4301L131.72 76.5001L131.74 75.6301C131.74 75.3001 131.74 75.0701 131.7 74.9201C131.66 74.7301 131.58 74.5701 131.47 74.4401C131.36 74.3101 131.17 74.2101 130.92 74.1201C130.66 74.0401 130.31 73.9901 129.86 73.9801C129.41 73.9801 129.07 74.0101 128.83 74.0801C128.59 74.1501 128.4 74.2601 128.26 74.4001C128.12 74.5401 128.03 74.7201 127.98 74.9401C127.94 75.1001 127.92 75.4201 127.91 75.9001V76.4301H127.88Z" fill="#0066B2"/>
<path d="M72.4995 52.4901C78.1095 52.4901 83.1896 54.7701 86.8696 58.4401C90.5396 62.1101 92.8193 67.1901 92.8193 72.8101C92.8193 78.4201 90.5496 83.5001 86.8696 87.1801C83.1896 90.8501 78.1195 93.1301 72.4995 93.1301C66.8895 93.1301 61.8094 90.8501 58.1294 87.1801C54.4594 83.5001 52.1797 78.4301 52.1797 72.8101C52.1797 67.2001 54.4494 62.1201 58.1294 58.4401C61.7994 54.7701 66.8795 52.4901 72.4995 52.4901ZM72.4995 54.3801C67.4095 54.3801 62.8097 56.4401 59.4697 59.7801C56.1297 63.1201 54.0693 67.7301 54.0693 72.8101C54.0693 77.9001 56.1397 82.5001 59.4697 85.8401C62.8097 89.1801 67.4195 91.2401 72.4995 91.2401C77.5895 91.2401 82.1893 89.1801 85.5293 85.8401C88.8693 82.5001 90.9297 77.8901 90.9297 72.8101C90.9297 67.7201 88.8593 63.1201 85.5293 59.7801C82.1893 56.4401 77.5795 54.3801 72.4995 54.3801Z" fill="white"/>
<path d="M72.4995 52.4901C78.1095 52.4901 83.1896 54.7701 86.8696 58.4401C90.5396 62.1101 92.8193 67.1901 92.8193 72.8101C92.8193 78.4201 90.5496 83.5001 86.8696 87.1801C83.1896 90.8501 78.1195 93.1301 72.4995 93.1301C66.8895 93.1301 61.8094 90.8501 58.1294 87.1801C54.4594 83.5001 52.1797 78.4301 52.1797 72.8101C52.1797 67.2001 54.4494 62.1201 58.1294 58.4401C61.7994 54.7701 66.8795 52.4901 72.4995 52.4901ZM72.4995 54.3801C67.4095 54.3801 62.8097 56.4401 59.4697 59.7801C56.1297 63.1201 54.0693 67.7301 54.0693 72.8101C54.0693 77.9001 56.1397 82.5001 59.4697 85.8401C62.8097 89.1801 67.4195 91.2401 72.4995 91.2401C77.5895 91.2401 82.1893 89.1801 85.5293 85.8401C88.8693 82.5001 90.9297 77.8901 90.9297 72.8101C90.9297 67.7201 88.8593 63.1201 85.5293 59.7801C82.1893 56.4401 77.5795 54.3801 72.4995 54.3801Z" fill="white"/>
<path d="M35.6797 79.47L40.9497 78.25L41.1997 79.31L39.1294 79.79L39.6094 81.88L41.6797 81.4L41.9297 82.46L36.6597 83.68L36.4097 82.62L38.7095 82.09L38.2295 80L35.9297 80.53L35.6797 79.47ZM37.1396 85.04L38.6094 88.88L39.4595 88.55L38.3794 85.73L39.7495 85.2L40.7197 87.74L41.5693 87.41L40.5996 84.87L41.7197 84.44L42.7695 87.16L43.6196 86.83L42.1797 83.09L37.1294 85.03L37.1396 85.04ZM41.6094 94.26L41.0293 93.22L41.8794 92.21L40.8296 90.32L39.5396 90.52L38.9795 89.51L44.7295 88.73L45.2896 89.74L41.6094 94.25V94.26ZM42.5093 91.46L43.8994 89.83L41.7896 90.16L42.5093 91.45V91.46ZM42.8096 95.49L43.5293 96.41L48.9795 94.6L48.2695 93.69L44.2993 95.11L46.6094 91.57L45.8794 90.64L42.8096 95.49ZM45.6396 98.81L49.3994 94.92L52.2793 97.71L51.6396 98.37L49.5396 96.34L48.7095 97.2L50.6597 99.09L50.0293 99.75L48.0796 97.86L47.0596 98.92L49.2295 101.02L48.5996 101.68L45.6396 98.82V98.81ZM49.6196 102.38L50.4395 102.98L52.5195 100.12L52.2095 104.26L53.0996 104.9L56.2793 100.52L55.4595 99.92L53.3394 102.84L53.6694 98.62L52.8096 98L49.6294 102.38H49.6196ZM55.0195 103.87L56.0093 104.28C55.8993 104.62 55.8895 104.92 55.9795 105.16C56.0695 105.4 56.2696 105.6 56.5596 105.75C56.8696 105.92 57.1396 105.97 57.3696 105.93C57.5996 105.88 57.7596 105.77 57.8496 105.59C57.9096 105.48 57.9294 105.36 57.8994 105.25C57.8794 105.14 57.7997 105.01 57.6597 104.86C57.5697 104.76 57.3495 104.55 56.9995 104.24C56.5495 103.84 56.2697 103.49 56.1597 103.19C56.0097 102.77 56.0295 102.37 56.2295 101.99C56.3595 101.75 56.5493 101.56 56.7993 101.42C57.0493 101.28 57.3394 101.23 57.6494 101.25C57.9694 101.28 58.3097 101.39 58.6797 101.58C59.2797 101.9 59.6593 102.27 59.8193 102.69C59.9793 103.11 59.9597 103.55 59.7397 104L58.7495 103.53C58.8395 103.26 58.8395 103.04 58.7695 102.86C58.6895 102.68 58.5195 102.52 58.2495 102.37C57.9695 102.22 57.7195 102.16 57.4995 102.19C57.3595 102.21 57.2495 102.28 57.1895 102.41C57.1295 102.52 57.1297 102.64 57.1797 102.78C57.2497 102.95 57.4894 103.21 57.8994 103.57C58.3094 103.93 58.5993 104.23 58.7593 104.47C58.9193 104.71 59.0093 104.96 59.0293 105.24C59.0493 105.51 58.9793 105.8 58.8193 106.1C58.6693 106.37 58.4597 106.59 58.1797 106.75C57.8997 106.91 57.5895 106.97 57.2495 106.94C56.9095 106.91 56.5296 106.78 56.1196 106.56C55.5196 106.24 55.1297 105.85 54.9497 105.4C54.7697 104.95 54.7995 104.44 55.0195 103.87ZM60.9697 108.4L62.4497 103.24L63.4995 103.54L62.2695 107.82L64.8794 108.57L64.6294 109.45L60.9697 108.4ZM65.6997 109.54L66.6396 104.21L67.7197 104.4L66.7793 109.73L65.6997 109.54ZM70.8296 108.19L70.9097 107.28L73.2593 107.49L73.0693 109.64C72.8193 109.84 72.4793 110.01 72.0293 110.14C71.5793 110.27 71.1395 110.32 70.6895 110.28C70.1295 110.23 69.6495 110.07 69.2495 109.8C68.8495 109.53 68.5696 109.16 68.3896 108.7C68.2197 108.24 68.1497 107.75 68.1997 107.24C68.2497 106.68 68.4097 106.19 68.6797 105.78C68.9497 105.36 69.3293 105.06 69.7993 104.87C70.1593 104.72 70.5994 104.67 71.1094 104.71C71.7794 104.77 72.2896 104.95 72.6396 105.27C72.9896 105.58 73.1993 105.99 73.2593 106.5L72.1597 106.61C72.1097 106.34 71.9795 106.12 71.7896 105.95C71.5896 105.78 71.3395 105.68 71.0195 105.65C70.5395 105.61 70.1496 105.73 69.8496 106C69.5396 106.28 69.3596 106.71 69.3096 107.31C69.2496 107.95 69.3494 108.44 69.6094 108.79C69.8694 109.13 70.2197 109.33 70.6797 109.37C70.9097 109.39 71.1394 109.37 71.3794 109.3C71.6194 109.23 71.8195 109.14 71.9995 109.03L72.0596 108.35L70.8096 108.24L70.8296 108.19ZM74.3394 110.28L73.5894 104.92L74.6694 104.77L74.9697 106.88L77.0894 106.58L76.7896 104.47L77.8696 104.32L78.6196 109.68L77.5396 109.83L77.2095 107.49L75.0894 107.79L75.4194 110.13L74.3394 110.28ZM81.2095 109.17L82.2695 108.91L81.1797 104.55L82.7295 104.16L82.5093 103.27L78.3394 104.31L78.5596 105.2L80.1196 104.81L81.2095 109.17ZM85.1494 105.22C84.9194 104.72 84.7995 104.27 84.7896 103.86C84.7896 103.56 84.8297 103.26 84.9297 102.98C85.0297 102.69 85.1694 102.45 85.3594 102.24C85.6094 101.97 85.9296 101.74 86.3296 101.55C87.0496 101.21 87.7294 101.17 88.3794 101.41C89.0194 101.66 89.5294 102.18 89.8994 102.98C90.2694 103.77 90.3396 104.49 90.1196 105.14C89.8996 105.79 89.4295 106.28 88.7095 106.61C87.9795 106.95 87.2997 107 86.6597 106.75C86.0197 106.51 85.5197 105.99 85.1597 105.21L85.1494 105.22ZM86.1597 104.71C86.4197 105.26 86.7394 105.63 87.1294 105.79C87.5194 105.96 87.9096 105.95 88.3096 105.76C88.6996 105.58 88.9596 105.28 89.0796 104.88C89.1996 104.48 89.1294 103.99 88.8594 103.42C88.5994 102.86 88.2794 102.5 87.8994 102.33C87.5194 102.17 87.1295 102.18 86.7295 102.37C86.3195 102.56 86.0595 102.85 85.9395 103.25C85.8195 103.65 85.8897 104.13 86.1597 104.69V104.71ZM88.8296 100.44L90.5293 102.77C90.8893 103.26 91.1794 103.61 91.4194 103.82C91.5794 103.96 91.7795 104.06 92.0195 104.13C92.2595 104.19 92.5193 104.19 92.7993 104.13C93.0893 104.07 93.4394 103.89 93.8594 103.58C94.2094 103.33 94.4494 103.08 94.6094 102.84C94.7594 102.59 94.8496 102.35 94.8696 102.11C94.8896 101.87 94.8397 101.62 94.7397 101.37C94.6297 101.12 94.3795 100.73 93.9995 100.2L92.3296 97.9L91.4497 98.54L93.2095 100.96C93.4595 101.31 93.6295 101.56 93.7095 101.73C93.7895 101.9 93.8095 102.08 93.7495 102.27C93.6995 102.47 93.5493 102.65 93.2993 102.84C93.0493 103.02 92.8196 103.11 92.5996 103.1C92.3796 103.1 92.1795 103.02 92.0195 102.87C91.9195 102.77 91.7295 102.54 91.4595 102.16L89.7397 99.79L88.8594 100.43L88.8296 100.44ZM96.6797 101.35L92.9194 97.46L94.5693 95.86C94.9893 95.46 95.3196 95.2 95.5796 95.09C95.8396 94.98 96.1096 94.96 96.3896 95.03C96.6796 95.1 96.9294 95.25 97.1494 95.48C97.4294 95.77 97.5794 96.1 97.5894 96.45C97.5994 96.81 97.4594 97.17 97.1694 97.55C97.4394 97.49 97.6797 97.46 97.9097 97.47C98.1397 97.48 98.4897 97.55 98.9697 97.67L100.18 97.97L99.2397 98.88L97.8496 98.58C97.3596 98.47 97.0294 98.42 96.8794 98.41C96.7294 98.41 96.5997 98.43 96.4897 98.48C96.3797 98.53 96.2293 98.64 96.0493 98.82L95.8896 98.97L97.4595 100.59L96.6694 101.35H96.6797ZM95.2993 98.35L94.3496 97.36L94.9595 96.77C95.2795 96.46 95.4693 96.28 95.5493 96.23C95.6993 96.13 95.8397 96.08 95.9897 96.1C96.1397 96.11 96.2694 96.18 96.3994 96.32C96.5094 96.44 96.5796 96.56 96.5996 96.69C96.6196 96.82 96.5996 96.94 96.5396 97.07C96.4795 97.19 96.2594 97.44 95.8794 97.8L95.2993 98.36V98.35ZM101.779 92.72L102.5 91.7L103.06 92.09C103.06 92.3 103.05 92.52 102.99 92.76C102.93 93 102.839 93.21 102.709 93.4C102.439 93.78 102.099 93.99 101.669 94.04C101.239 94.09 100.77 93.93 100.24 93.56C99.7497 93.22 99.4694 92.85 99.3794 92.44C99.2894 92.04 99.3797 91.64 99.6597 91.25C99.8397 90.99 100.049 90.82 100.299 90.74C100.549 90.66 100.8 90.66 101.06 90.74L101.52 89.74C101.05 89.54 100.589 89.52 100.149 89.67C99.6994 89.82 99.2894 90.17 98.8994 90.72C98.5994 91.14 98.4294 91.55 98.3794 91.94C98.3094 92.45 98.3794 92.92 98.6094 93.37C98.8294 93.81 99.1796 94.2 99.6396 94.52C100.07 94.82 100.52 95.01 101 95.09C101.48 95.17 101.939 95.11 102.379 94.9C102.819 94.69 103.2 94.36 103.52 93.89C103.78 93.53 103.959 93.12 104.069 92.66C104.179 92.21 104.21 91.82 104.16 91.51L102.39 90.27L101.04 92.2L101.79 92.72H101.779ZM100.479 88.61L100.919 87.61L103.6 88.8C104.02 88.99 104.309 89.1 104.439 89.13C104.659 89.18 104.87 89.15 105.06 89.04C105.25 88.93 105.41 88.74 105.54 88.46C105.67 88.18 105.699 87.94 105.649 87.74C105.599 87.54 105.499 87.39 105.339 87.29C105.179 87.19 104.91 87.05 104.52 86.87L101.79 85.65L102.229 84.65L104.83 85.81C105.42 86.07 105.829 86.29 106.049 86.45C106.269 86.61 106.43 86.81 106.54 87.03C106.64 87.25 106.69 87.5 106.68 87.79C106.68 88.08 106.58 88.42 106.41 88.81C106.2 89.28 105.99 89.62 105.77 89.81C105.55 90 105.329 90.13 105.089 90.2C104.849 90.26 104.629 90.28 104.419 90.24C104.109 90.18 103.67 90.03 103.12 89.78L100.479 88.61ZM107.66 85.53L108 84.49L102.859 82.82L102.52 83.86L107.66 85.53ZM103.229 82.09L103.649 80.14C103.739 79.7 103.849 79.37 103.959 79.16C104.119 78.87 104.34 78.64 104.62 78.47C104.9 78.3 105.22 78.19 105.58 78.15C105.94 78.11 106.37 78.14 106.87 78.24C107.3 78.33 107.669 78.47 107.959 78.64C108.319 78.85 108.59 79.11 108.77 79.41C108.91 79.63 108.999 79.91 109.029 80.25C109.059 80.5 109.029 80.82 108.939 81.22L108.509 83.23L103.22 82.11L103.229 82.09ZM104.35 81.21L107.85 81.95L108.02 81.15C108.08 80.85 108.109 80.63 108.109 80.49C108.109 80.31 108.059 80.15 107.979 80.01C107.899 79.87 107.749 79.74 107.529 79.62C107.309 79.5 106.99 79.39 106.58 79.31C106.17 79.22 105.85 79.19 105.62 79.22C105.39 79.24 105.19 79.31 105.04 79.41C104.89 79.51 104.769 79.66 104.689 79.85C104.629 79.99 104.55 80.28 104.45 80.72L104.35 81.2V81.21ZM109.68 77.53L104.279 77.15L104.56 73.15L105.47 73.21L105.27 76.12L106.47 76.2L106.66 73.49L107.569 73.55L107.379 76.26L108.85 76.36L109.06 73.35L109.97 73.41L109.68 77.51V77.53Z" fill="white"/>
<path fill-rule="evenodd" clip-rule="evenodd" d="M73.0195 50.29L71.6597 50.45L71.0195 49.32V45.14C72.1495 45.23 73.1695 45.58 73.9595 46.53L73.0093 50.29H73.0195Z" fill="white"/>
<path fill-rule="evenodd" clip-rule="evenodd" d="M69.0396 50.55L67.7295 50.95L66.9097 49.95L66.1797 45.83C67.3097 45.72 68.3793 45.89 69.3193 46.69L69.0396 50.56V50.55Z" fill="white"/>
<path fill-rule="evenodd" clip-rule="evenodd" d="M65.1597 51.4901L63.9395 52.1101L62.9595 51.2601L61.5293 47.3301C62.6193 47.0201 63.7095 47.0101 64.7695 47.6301L65.1694 51.4901H65.1597Z" fill="white"/>
<path fill-rule="evenodd" clip-rule="evenodd" d="M61.4995 53.1001L60.3994 53.9201L59.2793 53.2601L57.1895 49.6401C58.2095 49.1501 59.2797 48.9501 60.4297 49.3701L61.4897 53.1001H61.4995Z" fill="white"/>
<path fill-rule="evenodd" clip-rule="evenodd" d="M58.1802 55.31L57.2402 56.31L56.0298 55.85L53.3398 52.65C54.2598 51.99 55.2702 51.6 56.4902 51.82L58.1802 55.31Z" fill="white"/>
<path fill-rule="evenodd" clip-rule="evenodd" d="M55.2886 58.0701L54.5386 59.2201L53.2583 58.9801L50.0586 56.2901C50.8486 55.4801 51.7783 54.9201 53.0083 54.9301L55.2783 58.0701H55.2886Z" fill="white"/>
<path fill-rule="evenodd" clip-rule="evenodd" d="M52.9287 61.29L52.3887 62.55L51.0884 62.53L47.4688 60.44C48.1087 59.5 48.9287 58.79 50.1387 58.59L52.9185 61.29H52.9287Z" fill="white"/>
<path fill-rule="evenodd" clip-rule="evenodd" d="M51.1587 64.8701L50.8486 66.2001L49.5684 66.4101L45.6387 64.9801C46.1087 63.9501 46.7887 63.1101 47.9487 62.6901L51.1587 64.8701Z" fill="white"/>
<path fill-rule="evenodd" clip-rule="evenodd" d="M50.0293 68.7L49.9497 70.07L48.7295 70.5L44.6094 69.77C44.8894 68.67 45.4197 67.72 46.4897 67.11L50.0293 68.7Z" fill="white"/>
<path fill-rule="evenodd" clip-rule="evenodd" d="M49.5991 72.67L49.7588 74.03L48.6289 74.67H44.4492C44.5392 73.54 44.8889 72.52 45.8389 71.73L49.5991 72.68V72.67Z" fill="white"/>
<path fill-rule="evenodd" clip-rule="evenodd" d="M49.848 76.66L50.2479 77.97L49.2479 78.79L45.1278 79.52C45.0178 78.39 45.1881 77.32 45.9881 76.38L49.8578 76.66H49.848Z" fill="white"/>
<path fill-rule="evenodd" clip-rule="evenodd" d="M50.7988 80.54L51.4189 81.76L50.5688 82.74L46.6391 84.17C46.3291 83.08 46.3189 81.99 46.9389 80.93L50.7988 80.53V80.54Z" fill="white"/>
<path fill-rule="evenodd" clip-rule="evenodd" d="M52.3997 84.2L53.22 85.3L52.5599 86.42L48.9398 88.51C48.4498 87.49 48.2497 86.42 48.6697 85.27L52.3997 84.21V84.2Z" fill="white"/>
<path fill-rule="evenodd" clip-rule="evenodd" d="M54.6183 87.52L55.6183 88.46L55.1583 89.67L51.9581 92.36C51.2981 91.44 50.9081 90.43 51.1281 89.21L54.6183 87.52Z" fill="white"/>
<path fill-rule="evenodd" clip-rule="evenodd" d="M57.3781 90.41L58.528 91.16L58.2882 92.44L55.5983 95.64C54.7883 94.85 54.2284 93.92 54.2384 92.69L57.3781 90.42V90.41Z" fill="white"/>
<path fill-rule="evenodd" clip-rule="evenodd" d="M60.5884 92.77L61.8486 93.31L61.8286 94.61L59.7388 98.23C58.7988 97.59 58.0887 96.77 57.8887 95.56L60.5884 92.78V92.77Z" fill="white"/>
<path fill-rule="evenodd" clip-rule="evenodd" d="M64.168 94.54L65.498 94.85L65.708 96.13L64.2778 100.06C63.2478 99.59 62.4083 98.91 61.9883 97.75L64.168 94.54Z" fill="white"/>
<path fill-rule="evenodd" clip-rule="evenodd" d="M68.0078 95.66L69.3779 95.74L69.8081 96.97L69.0781 101.09C67.9781 100.81 67.028 100.28 66.418 99.21L68.0078 95.67V95.66Z" fill="white"/>
<path fill-rule="evenodd" clip-rule="evenodd" d="M71.979 96.1001L73.3389 95.9401L73.979 97.0701V101.25C72.849 101.16 71.8291 100.81 71.0391 99.8601L71.9893 96.1001H71.979Z" fill="white"/>
<path fill-rule="evenodd" clip-rule="evenodd" d="M75.9595 95.8401L77.2695 95.4401L78.0894 96.4401L78.8193 100.56C77.6893 100.67 76.6197 100.5 75.6797 99.7001L75.9595 95.8301V95.8401Z" fill="white"/>
<path fill-rule="evenodd" clip-rule="evenodd" d="M79.8379 94.9L81.0581 94.28L82.0381 95.13L83.4683 99.06C82.3783 99.37 81.288 99.38 80.228 98.76L79.8281 94.9H79.8379Z" fill="white"/>
<path fill-rule="evenodd" clip-rule="evenodd" d="M83.5 93.29L84.6001 92.47L85.7202 93.13L87.8101 96.75C86.7901 97.24 85.7198 97.44 84.5698 97.02L83.5098 93.29H83.5Z" fill="white"/>
<path fill-rule="evenodd" clip-rule="evenodd" d="M86.8184 91.0801L87.7583 90.0801L88.9688 90.5401L91.6587 93.7401C90.7387 94.4001 89.7283 94.7901 88.5083 94.5701L86.8184 91.0801Z" fill="white"/>
<path fill-rule="evenodd" clip-rule="evenodd" d="M89.709 88.32L90.459 87.17L91.7393 87.41L94.939 90.1C94.149 90.91 93.2193 91.47 91.9893 91.46L89.7192 88.32H89.709Z" fill="white"/>
<path fill-rule="evenodd" clip-rule="evenodd" d="M92.0684 85.1L92.6084 83.84L93.9087 83.86L97.5283 85.95C96.8883 86.89 96.0684 87.6 94.8584 87.8L92.0786 85.1H92.0684Z" fill="white"/>
<path fill-rule="evenodd" clip-rule="evenodd" d="M93.8398 81.52L94.1499 80.19L95.4302 79.98L99.3599 81.41C98.8899 82.44 98.2098 83.28 97.0498 83.7L93.8398 81.52Z" fill="white"/>
<path fill-rule="evenodd" clip-rule="evenodd" d="M94.959 77.69L95.0391 76.32L96.269 75.89L100.389 76.62C100.109 77.72 99.5788 78.67 98.5088 79.28L94.9692 77.69H94.959Z" fill="white"/>
<path fill-rule="evenodd" clip-rule="evenodd" d="M95.3979 73.72L95.2383 72.36L96.3682 71.73H100.548C100.458 72.86 100.108 73.88 99.1582 74.67L95.3979 73.72Z" fill="white"/>
<path fill-rule="evenodd" clip-rule="evenodd" d="M95.1499 69.73L94.75 68.42L95.75 67.6L99.8701 66.87C99.9801 68 99.8098 69.07 99.0098 70.01L95.1401 69.73H95.1499Z" fill="white"/>
<path fill-rule="evenodd" clip-rule="evenodd" d="M94.1982 65.85L93.5781 64.63L94.4282 63.65L98.3579 62.22C98.6679 63.31 98.6781 64.4 98.0581 65.46L94.1982 65.86V65.85Z" fill="white"/>
<path fill-rule="evenodd" clip-rule="evenodd" d="M92.5996 62.2L91.7793 61.1L92.4395 59.98L96.0596 57.89C96.5496 58.91 96.7496 59.98 96.3296 61.13L92.5996 62.19V62.2Z" fill="white"/>
<path fill-rule="evenodd" clip-rule="evenodd" d="M90.3789 58.88L89.3789 57.94L89.8389 56.73L93.0391 54.04C93.6991 54.96 94.0891 55.97 93.8691 57.19L90.3789 58.88Z" fill="white"/>
<path fill-rule="evenodd" clip-rule="evenodd" d="M87.6187 55.99L86.4688 55.24L86.7085 53.96L89.3984 50.76C90.2084 51.55 90.7683 52.48 90.7583 53.71L87.6187 55.98V55.99Z" fill="white"/>
<path fill-rule="evenodd" clip-rule="evenodd" d="M84.4087 53.62L83.1484 53.08L83.1685 51.78L85.2583 48.16C86.1983 48.8 86.9084 49.62 87.1084 50.83L84.4087 53.61V53.62Z" fill="white"/>
<path fill-rule="evenodd" clip-rule="evenodd" d="M80.8291 51.8501L79.499 51.5401L79.2891 50.2601L80.7192 46.3301C81.7492 46.8001 82.5888 47.4801 83.0088 48.6401L80.8291 51.8501Z" fill="white"/>
<path fill-rule="evenodd" clip-rule="evenodd" d="M76.9897 50.73L75.6196 50.6501L75.1895 49.42L75.9194 45.3C77.0194 45.58 77.9696 46.11 78.5796 47.18L76.9897 50.7201V50.73Z" fill="white"/>
<path d="M72.4995 55.66C67.7695 55.66 63.4794 57.58 60.3794 60.68C57.2694 63.79 55.3496 68.07 55.3496 72.81C55.3496 77.54 57.2694 81.83 60.3794 84.93C63.4894 88.04 67.7693 89.96 72.5093 89.96C77.2393 89.96 81.5294 88.04 84.6294 84.94C87.7394 81.83 89.6597 77.55 89.6597 72.81C89.6597 68.08 87.7394 63.79 84.6294 60.69C81.5194 57.58 77.2395 55.66 72.4995 55.66Z" fill="white"/>
<path fill-rule="evenodd" clip-rule="evenodd" d="M130.93 63.8301L134.11 63.4801L131.88 65.5801L133.78 68.1601L130.84 67.2801L129.55 70.2101L128.85 67.2201L125.67 67.5801L127.9 65.4801L126.01 62.9001L128.94 63.7801L130.23 60.8501L130.93 63.8301Z" fill="#0066B2"/>
<path d="M73.0009 61.9001L68.6108 67.4601C68.5208 67.5801 68.3909 67.6401 68.2509 67.6601L62.4311 68.3501L66.6908 74.1801C66.7808 74.3101 66.8107 74.4601 66.7807 74.6001L65.811 80.5801L72.6508 78.1601C72.7908 78.1101 72.9307 78.1201 73.0507 78.1801L79.3207 80.6001L79.1811 74.0301C79.1811 73.8901 79.231 73.7701 79.311 73.6701L82.7011 69.7201L77.2509 67.1401C77.1609 67.1001 77.0907 67.0301 77.0307 66.9501L72.9911 61.9001H73.0009ZM67.9111 66.6201L72.581 60.7101C72.581 60.7101 72.6308 60.6501 72.6708 60.6201C72.9008 60.4301 73.2408 60.4701 73.4208 60.7001L77.831 66.2101L83.811 69.0401C83.811 69.0401 83.8911 69.0901 83.9311 69.1201C84.1611 69.3101 84.1811 69.6501 83.9911 69.8801L80.2807 74.2101L80.4408 81.3601C80.4408 81.4301 80.4408 81.5101 80.4008 81.5801C80.2908 81.8601 79.9811 81.9901 79.7011 81.8901L72.831 79.2401L65.3207 81.9001C65.2407 81.9301 65.1507 81.9401 65.0507 81.9201C64.7607 81.8701 64.5608 81.6001 64.6108 81.3001L65.7011 74.6301L61.0409 68.2601C60.9809 68.1801 60.9308 68.0901 60.9208 67.9801C60.8908 67.6801 61.101 67.4201 61.391 67.3801L67.9008 66.6001L67.9111 66.6201Z" fill="#0066B2"/>
<path d="M73.3604 75.92L75.3203 74.5L77.2803 73.08L76.5303 70.78L75.7803 68.48H70.9404L70.1904 70.78L69.4404 73.08L71.4004 74.5L73.3604 75.92ZM75.9507 75.37L73.6704 77.02L73.3506 77.25L73.0303 77.02L70.7505 75.37L68.4707 73.72L68.1504 73.49L68.2705 73.12L69.1406 70.45L70.0103 67.78L70.1304 67.41H76.5405L76.6606 67.78L77.5303 70.45L78.4004 73.12L78.5205 73.49L78.2007 73.72L75.9204 75.37H75.9507Z" fill="#0066B2"/>
<path d="M73.3594 73.8501L74.2295 73.2201L75.0996 72.5901L74.7695 71.5701L74.4395 70.5501H72.2896L71.9595 71.5701L71.6294 72.5901L72.4995 73.2201L73.3696 73.8501H73.3594ZM74.8594 74.0901L73.6797 74.9501L73.3594 75.1801L73.0396 74.9501L71.8594 74.0901L70.6797 73.2301L70.3594 73.0001L70.4795 72.6301L70.9297 71.2401L71.3794 69.8501L71.4995 69.4801H75.2095L75.3296 69.8501L75.7793 71.2401L76.2295 72.6301L76.3496 73.0001L76.0293 73.2301L74.8496 74.0901H74.8594Z" fill="#0066B2"/>
<path d="M74.0503 64.0701H72.9707V67.6901H74.0503V64.0701Z" fill="#0066B2"/>
<path d="M80.8116 69.507L77.1855 70.3835L77.4393 71.4333L81.0653 70.5567L80.8116 69.507Z" fill="#0066B2"/>
<path d="M65.822 69.4804L65.5684 70.5298L69.1939 71.4062L69.4476 70.3569L65.822 69.4804Z" fill="#0066B2"/>
<path d="M70.5468 74.5744L68.0312 77.5417L68.855 78.2401L71.3706 75.2728L70.5468 74.5744Z" fill="#0066B2"/>
<path d="M75.4801 74.4598L74.6562 75.1582L77.1717 78.1254L77.9956 77.427L75.4801 74.4598Z" fill="#0066B2"/>
<path d="M69.5595 84.5901C69.6795 84.2401 70.0596 84.0501 70.4096 84.1601C70.7596 84.2801 70.9493 84.6601 70.8393 85.0101L69.1396 90.1101C69.0196 90.4601 68.6395 90.6501 68.2895 90.5401C67.9395 90.4201 67.7493 90.0401 67.8593 89.6901L69.5595 84.5901Z" fill="#0066B2"/>
<path d="M72.7703 84.8801C72.7203 84.5101 72.9804 84.1801 73.3504 84.1301C73.7204 84.0801 74.0504 84.3401 74.1004 84.7101C74.2304 85.7001 74.2602 86.7201 74.1302 87.7301C74.0002 88.7601 73.7202 89.7901 73.2102 90.8001C73.0402 91.1301 72.6403 91.2701 72.3103 91.1001C71.9803 90.9301 71.8401 90.5301 72.0101 90.2001C72.4401 89.3501 72.6803 88.4601 72.7903 87.5701C72.9003 86.6601 72.8803 85.7601 72.7703 84.8801Z" fill="#0066B2"/>
<path d="M76.1391 84.91C75.9591 84.59 76.0691 84.18 76.3891 83.99C76.7091 83.81 77.119 83.92 77.309 84.24L78.6489 86.59C78.7189 86.72 78.7489 86.85 78.7289 86.99L78.4291 89.96C78.3891 90.33 78.0589 90.6 77.6889 90.56C77.3189 90.52 77.0488 90.19 77.0888 89.82L77.3691 87.06L76.1391 84.9V84.91Z" fill="#0066B2"/>
<path d="M78.3205 84.09C78.1005 83.79 78.1807 83.37 78.4807 83.15C78.7807 82.93 79.2006 83.01 79.4206 83.31L80.9807 85.49C81.0807 85.63 81.1208 85.79 81.1008 85.95L80.8005 88.87C80.7605 89.24 80.4308 89.51 80.0608 89.47C79.6908 89.43 79.4207 89.1 79.4607 88.73L79.7307 86.06L78.3205 84.08V84.09Z" fill="#0066B2"/>
<path fill-rule="evenodd" clip-rule="evenodd" d="M71.3994 88.52C71.8794 88.52 72.2695 88.13 72.2695 87.65C72.2695 87.17 71.8794 86.78 71.3994 86.78C70.9194 86.78 70.5293 87.17 70.5293 87.65C70.5293 88.13 70.9194 88.52 71.3994 88.52Z" fill="#0066B2"/>
<path fill-rule="evenodd" clip-rule="evenodd" d="M75.5688 87.9901C76.0888 87.9901 76.5088 87.5701 76.5088 87.0501C76.5088 86.5301 76.0888 86.1101 75.5688 86.1101C75.0488 86.1101 74.6289 86.5301 74.6289 87.0501C74.6289 87.5701 75.0488 87.9901 75.5688 87.9901Z" fill="#0066B2"/>
<path fill-rule="evenodd" clip-rule="evenodd" d="M74.6406 87.2001C75.0906 87.2001 75.4604 87.0301 75.4604 86.8201C75.4604 86.6101 75.0906 86.4401 74.6406 86.4401C74.1906 86.4401 73.8203 86.6101 73.8203 86.8201C73.8203 87.0301 74.1906 87.2001 74.6406 87.2001Z" fill="#0066B2"/>
<path d="M72.501 60.03C76.031 60.03 79.231 61.46 81.541 63.77C83.851 66.08 85.2808 69.28 85.2808 72.81C85.2808 76.34 83.851 79.54 81.541 81.85C80.931 82.46 80.261 83.01 79.541 83.48L79.4209 83.31C79.2009 83.01 78.781 82.94 78.481 83.15C78.181 83.36 78.1108 83.79 78.3208 84.09L78.3809 84.17C78.1009 84.32 77.8007 84.45 77.5107 84.58L77.3208 84.25C77.1408 83.93 76.7309 83.81 76.4009 84C76.0809 84.18 75.9609 84.59 76.1509 84.92L76.231 85.05C75.571 85.25 74.8909 85.4 74.1909 85.49C74.1709 85.23 74.1508 84.97 74.1108 84.72C74.0808 84.48 73.9312 84.29 73.7212 84.19C76.3912 83.91 78.7908 82.7 80.5908 80.9C82.6608 78.83 83.9409 75.97 83.9409 72.82C83.9409 69.67 82.6608 66.81 80.5908 64.74C78.5208 62.67 75.6607 61.39 72.5107 61.39C69.3607 61.39 66.5012 62.67 64.4312 64.74C62.3612 66.81 61.0811 69.67 61.0811 72.82C61.0811 75.97 62.3612 78.83 64.4312 80.9C66.5012 82.97 69.3607 84.25 72.5107 84.25C72.7007 84.25 72.8908 84.25 73.0708 84.24C72.8608 84.38 72.741 84.62 72.771 84.89C72.801 85.12 72.8208 85.36 72.8408 85.6C72.7308 85.6 72.621 85.6 72.501 85.6C71.881 85.6 71.2812 85.55 70.6812 85.47L70.8311 85.01C70.9511 84.66 70.7609 84.28 70.4009 84.16C70.0509 84.04 69.6708 84.23 69.5508 84.59L69.3408 85.21C67.0708 84.64 65.0512 83.46 63.4512 81.86C61.1412 79.55 59.7109 76.35 59.7109 72.82C59.7109 69.29 61.1412 66.09 63.4512 63.78C65.7612 61.47 68.9612 60.04 72.4912 60.04L72.501 60.03Z" fill="#0066B2"/>
</svg>
