<svg width="479" height="94" viewBox="0 0 479 94" fill="none" xmlns="http://www.w3.org/2000/svg">
<path d="M91.6811 80.57C89.9511 84.45 87.4612 87.37 84.0012 89.47C79.9512 91.93 75.6913 93.22 70.8313 93.15C57.2713 92.96 43.7011 93.24 30.1411 93.03C22.6711 92.91 16.9811 89.31 12.9011 82.96C9.50108 77.68 9.47128 72.02 10.6113 66.27C11.3213 62.71 13.7313 59.99 16.3313 57.48C18.9213 54.99 22.1313 53.67 25.3613 52.37C26.3113 51.99 27.3711 51.9 28.4611 52.48C28.2111 53.95 26.8513 54.73 26.3313 56.02C25.1713 58.9 23.6312 61.61 21.9812 64.24C18.6312 69.6 20.8312 76.44 26.0212 79.14C27.4612 79.89 28.9212 80.18 30.5012 80.18C41.2512 80.18 52.0012 80.23 62.7412 80.16C66.0712 80.14 69.3911 80.56 72.7111 80.23C73.3111 80.17 73.8911 80.32 74.4211 80.62C78.3211 82.79 82.4913 81.83 86.5913 81.66C87.3313 81.63 87.9512 81.13 88.5712 80.7C89.4812 80.07 90.4511 79.93 91.6711 80.55L91.6811 80.57Z" fill="#02ACF2"/>
<path d="M61.0903 30.39C59.9803 28.29 59.0902 26.62 58.2102 24.93C56.5102 21.64 54.5701 18.48 52.4001 15.48C50.3201 12.6 45.6302 11.38 42.2302 12.26C38.1502 13.32 35.8901 16.22 34.1401 19.64C30.5301 26.7 26.1102 33.28 22.2202 40.17C20.0802 43.97 18.1401 47.9 15.6701 51.5C15.0801 52.35 14.6102 53.32 13.7802 53.95C10.8702 56.16 9.24012 59.37 7.41012 62.36C6.48012 63.88 6.28021 65.85 5.75021 67.62C5.60021 68.11 5.66013 68.67 5.17013 69.07C4.17013 69.27 4.02018 68.43 3.72018 67.79C2.67018 65.59 1.7502 63.34 0.7402 61.13C-0.3298 58.77 0.0102977 56.1 0.840298 53.56C2.7303 47.77 6.43012 42.99 9.41012 37.81C14.7301 28.58 19.9802 19.3 25.5302 10.21C28.1202 5.97996 31.6501 2.81996 36.4301 1.20996C37.0601 0.999959 37.6903 0.649961 38.3303 0.619961C43.4503 0.319961 48.5602 0.159959 53.1902 2.96996C57.3302 5.47996 60.2802 8.68996 62.0102 13.52C63.2202 16.89 63.3702 20.07 63.4602 23.43C63.4902 24.42 63.3301 25.33 62.6501 26.12C61.7201 27.19 61.8403 28.73 61.1003 30.38L61.0903 30.39Z" fill="#02ACF2"/>
<path d="M65.1606 68.62C68.2606 68.62 71.3607 68.46 74.4307 68.67C77.3707 68.86 80.1407 68.17 82.9407 67.61C84.3007 67.34 85.2908 66.35 86.2908 65.49C89.6208 62.61 90.5208 57.93 88.5808 54C87.1008 51.01 85.5008 48.09 83.6008 45.34C81.6508 42.52 80.5207 39.27 78.7307 36.36C76.4407 32.65 74.0607 28.97 71.9407 25.18C69.7707 21.3 67.3308 17.56 66.3208 12.98C65.4008 8.79 62.5407 5.34999 59.1707 2.54999C58.6207 2.08999 57.8606 1.83 57.6406 0.689996C61.5006 0.449996 65.1408 0.269995 68.7708 2.17C73.3308 4.56 76.5608 7.85999 79.0908 12.42C82.5908 18.75 86.2407 25.03 89.9507 31.26C93.2507 36.79 96.6006 42.29 99.6406 47.97C103.341 54.88 101.971 65.44 96.6807 71.29C91.9307 76.55 85.9707 78.04 79.2007 77.47C75.0207 77.12 71.3107 75.62 67.9407 73.18C67.0307 72.52 66.2108 71.78 65.5308 70.9C65.0308 70.25 64.6007 69.55 65.1707 68.64L65.1606 68.62Z" fill="#02ACF2"/>
<path d="M409.79 64.0399C411.37 65.1699 413.42 65.3999 415.27 66.3099C415.89 67.8399 416.04 69.3799 415.32 70.9099C410.98 71.7099 407.79 69.0499 404.36 67.4999C396.02 72.6299 383.74 72.6899 375.68 65.4799C371.15 61.4199 368.62 55.9599 367.58 49.9899C365.77 39.6399 371.88 28.8999 382.02 24.1399C392.77 19.0999 406.32 23.7999 411.86 35.0199C416.16 43.7199 415.7 52.4699 410.73 60.8999C410.18 61.8299 409.28 62.6499 409.8 64.0399H409.79ZM404.38 59.8899C408.33 54.2799 409.77 48.8299 408.28 41.8799C406.53 33.7099 399.9 28.2999 391.56 28.2299C390.97 28.2299 390.37 28.2899 389.78 28.2299C386.45 27.8599 383.62 29.2399 381.14 31.1199C374.58 36.1099 372.9 43.0799 373.7 50.9099C373.74 51.2899 374.02 51.5699 374.78 52.0199C386.23 47.3399 395.23 53.6799 404.38 59.8999V59.8899ZM377.01 57.3199C379.56 62.1499 383.75 64.6099 388.79 65.6899C392.33 66.4499 395.76 65.9499 398.69 63.5099C395.26 58.1199 383.4 54.7299 377.01 57.3199Z" fill="black"/>
<path d="M442.04 45.0999C443.2 46.1299 444.16 46.9299 445.07 47.7999C449.42 51.9699 450.47 57.4699 448.01 62.9899C446.58 66.1799 444.27 68.3299 440.99 69.7099C439.27 70.4399 437.659 70.6899 435.879 70.5599C431.369 70.2299 426.86 71.0999 422.35 70.5599C421.77 70.4899 421.15 70.5799 420.52 69.9899V22.9399C420.85 22.5199 421.249 22.2999 421.709 22.2999C427.099 22.3299 432.52 21.7599 437.79 23.5599C441.65 24.8799 444.15 27.4199 445.53 31.2099C447.47 36.5399 446.22 41.0799 442.04 45.0799V45.0999ZM426.679 64.7999C430.209 65.1399 433.589 65.1599 436.939 64.7199C440.199 64.2899 442.849 61.5099 443.199 58.4399C443.659 54.3699 441.949 50.9699 438.649 49.6399C434.799 48.0899 430.809 48.9599 426.909 48.7999C426.709 49.4199 426.53 49.6999 426.55 49.9699C426.94 54.8299 427.019 59.6999 426.669 64.7999H426.679ZM426.659 42.0799C428.569 42.8099 435.63 42.9699 437.03 42.4099C437.37 42.2699 437.71 42.1099 438.01 41.8999C441.79 39.1699 441.559 32.5499 437.639 30.0299C434.479 27.9999 431.01 28.4199 427.56 28.5999C427.2 28.6199 426.87 28.8499 426.5 29.4399C426.72 33.4499 427.189 37.7199 426.669 42.0699L426.659 42.0799Z" fill="black"/>
<path d="M116.35 22.75C116.92 22.48 117.06 22.37 117.19 22.36C124.44 22.23 131.67 21.95 138.84 23.67C146.43 25.48 149.12 31.43 149.78 36.9C150.4 42.02 149.01 46.42 144.9 49.8C143.32 51.1 141.71 52.21 139.59 52.33C138.99 52.36 138.41 52.49 137.78 53.32C140.68 59.18 144.7 64.54 148.36 70.13C147.18 70.68 143.42 70.73 141.14 70.26C137.1 63.61 133.04 56.91 129.01 50.28C129.4 49.33 130.15 49.54 130.77 49.48C132.61 49.29 134.45 49.15 136.29 48.95C138.18 48.74 139.67 47.68 140.74 46.26C145.24 40.31 143.94 34.47 138.34 30.2C137.44 29.51 136.27 29.38 135.2 29.14C131.33 28.28 127.44 28.83 123.22 28.76V69.9C121.13 70.73 118.22 70.75 116.34 70.12V22.75H116.35Z" fill="black"/>
<path d="M232.251 42.72C232.341 36.05 232.421 29.3699 231.991 22.6199C234.351 21.9999 236.371 22.38 238.601 22.34V70C236.851 70.7599 234.121 70.77 232.151 70.0299C232.251 63.2299 232.621 56.3999 231.931 49.3899H209.971C208.961 56.2799 209.591 63.1899 209.581 70.2699C207.471 70.7399 205.381 70.5799 203.121 70.5299V22.5999C205.181 21.9899 207.171 22.44 209.001 22.2C209.861 22.81 209.771 23.5699 209.701 24.2999C209.191 29.7699 209.511 35.25 209.491 40.73C209.491 43.1 210.041 43.5799 212.421 43.5899C217.831 43.6199 223.241 43.5899 228.641 43.5899C229.761 43.5899 230.851 43.42 232.251 42.73V42.72Z" fill="black"/>
<path d="M326.309 22.46C328.049 22.12 329.889 22.31 331.599 22.29C332.699 22.94 333.009 23.98 333.349 24.94C338.299 38.82 344.629 52.16 349.729 65.98C350.229 67.35 351.299 68.48 351.479 70.26C349.099 70.79 346.789 70.57 344.409 70.45C342.469 67.18 341.489 63.6 340.079 60H317.869C316.919 61.46 316.519 63.21 315.849 64.83C315.479 65.72 315.239 66.66 314.859 67.54C313.979 69.61 312.689 71.06 310.119 70.58C308.979 70.37 307.749 70.81 306.359 70.07C313.319 54.43 319.139 38.33 326.309 22.46ZM328.799 31.58C325.159 38.6 322.819 46.06 320.049 53.51C320.679 53.66 320.959 53.8 321.229 53.77C325.869 53.25 330.519 53.33 335.159 53.73C336.019 53.8 336.929 53.77 337.839 52.78C334.689 45.92 332.509 38.56 328.799 31.58Z" fill="black"/>
<path d="M178.331 22.22C185.171 38.33 191.511 54.32 198.011 70.47C195.761 70.47 193.731 70.52 191.701 70.44C190.861 70.41 190.561 69.58 190.211 68.93C188.751 66.18 187.681 63.26 186.541 59.92C179.141 59.7 171.641 59.82 164.071 59.8C163.401 61.83 162.821 63.65 162.181 65.45C161.811 66.5 161.371 67.51 160.951 68.54C160.301 70.15 159.351 71.11 157.381 70.64C156.051 70.32 154.591 70.77 152.971 70.27C159.091 54.07 166.281 38.44 172.501 22.22H178.321H178.331ZM175.121 31.52C171.921 38.78 168.861 45.92 166.421 53.82C172.591 53.14 178.271 53.54 184.341 53.63C181.391 45.88 178.941 38.48 175.121 31.52Z" fill="black"/>
<path d="M271.32 22.37C271.94 24.06 271.77 25.69 271.62 27.29C271.49 28.66 270.36 28.73 269.27 28.73C265.49 28.73 261.709 28.7 257.929 28.73C256.169 28.75 254.379 28.55 252.669 28.94C251.949 30.59 251.8 41.09 252.52 43.48H271.32C271.92 45.65 271.87 47.56 271.34 49.71H252.25V64.46H271.33C271.73 66.77 272.029 68.67 271.169 70.7C262.579 70.45 254.119 70.55 245.439 70.7V22.37H271.32Z" fill="black"/>
<path d="M478.18 22.4299C478.84 24.4399 478.4 26.0699 478.61 27.5899C477.48 28.6899 476.18 28.5899 474.95 28.6099C471.02 28.6599 467.1 28.6399 463.17 28.6699C462.22 28.6699 461.24 28.5499 459.9 29.2299C459.73 33.8299 459.82 38.6499 459.86 43.1799C460.93 44.2699 461.94 44.0699 462.88 44.0799C467.1 44.1099 471.33 44.0899 475.55 44.1099C476.58 44.1099 477.64 44.0599 478.6 44.8399C479.27 46.1699 478.81 47.4699 478.31 48.7699C477.15 49.5799 475.88 49.5299 474.63 49.5299C470.78 49.5499 466.93 49.5299 463.07 49.5499C462.12 49.5499 461.14 49.3999 460.04 50.0999V64.9199H478.37C478.67 66.9199 479.29 68.4699 478.48 70.0099C476.37 70.8499 455.68 71.1099 453.59 70.2799V22.4299H478.19H478.18Z" fill="black"/>
<path d="M297.44 22.0599C299.57 22.4299 301.91 22.1499 304.04 22.3699C304.79 23.2199 304.61 23.9899 304.61 24.7099C304.63 32.9999 304.66 41.2999 304.63 49.5899C304.62 53.5199 304.06 57.3999 303.29 61.2499C302.22 66.5699 299.26 70.0099 293.77 71.0499C292.91 71.2099 292.09 71.6199 291.28 71.9699C290.28 72.3999 289.16 72.6199 288.26 72.1199C286.67 71.2399 284.91 70.9999 283.24 70.4299C281.05 69.6899 279.32 68.2899 278.05 66.4199C276.51 64.1599 275.66 61.5399 274.51 59.2799C274.88 58.3599 275.49 58.2899 276.08 58.2799C277.04 58.2599 278.02 58.3699 278.97 58.2599C281.24 57.9999 282.7 58.6699 283.5 61.0399C284.12 62.8699 285.7 64.1999 287.34 65.2499C290.75 67.4299 296.29 64.5699 296.82 60.3699C296.95 59.3499 296.93 58.2999 296.93 57.2599C296.9 46.3699 296.85 35.4899 296.82 24.5999C296.82 23.8099 296.6 22.9599 297.43 22.0399L297.44 22.0599Z" fill="black"/>
<path d="M46.4609 64.0099C47.9809 59.9799 51.0409 56.6499 52.7109 52.6699C53.2009 52.1399 53.8109 52.1399 54.4009 52.1399C59.9509 52.1899 65.491 52.0999 71.031 51.7699C74.211 51.5799 77.371 52.2099 80.561 52.1699C82.661 52.1499 85.2109 55.0199 85.3809 57.2699C85.7009 61.5599 82.7209 64.5899 77.9609 64.6399C71.8209 64.7099 65.671 64.6599 59.531 64.6599C56.051 64.6599 52.5711 64.6699 49.0911 64.6599C48.3011 64.6599 47.4509 64.8899 46.4609 64.0099Z" fill="#02ACF2"/>
<path d="M42.4492 38.53C44.0991 42.81 47.0991 46.48 49.3991 50.84C47.2291 53.5 45.7291 56.72 43.8991 59.73C41.1691 64.23 38.5092 68.76 35.7792 73.25C33.9292 76.3 28.7493 76.72 26.3593 74.05C25.7193 73.33 25.1692 72.54 24.5392 71.81C23.8892 71.06 23.7493 70.23 24.1193 69.33C24.6193 68.1 24.9991 66.78 25.6991 65.67C30.4991 57.94 35.0991 50.09 39.6491 42.22C40.1291 41.39 40.5392 40.51 40.9592 39.65C41.2192 39.12 41.3792 38.51 42.4492 38.53Z" fill="#02ACF2"/>
<path d="M51.9201 46.9299C49.7901 43.3599 47.9103 39.8499 45.6103 36.5899C43.7303 33.9199 42.4902 30.8899 40.9702 28.0199C40.5202 27.1599 40.0303 26.3799 39.3703 25.6599C37.8203 23.9799 37.8402 20.5999 39.4802 18.9899C40.6502 17.8299 41.5402 16.3499 43.4902 16.0699C46.3602 15.6499 48.3603 16.6699 49.8103 19.0499C51.8503 22.3999 53.8302 25.7799 55.9402 29.0799C57.8502 32.0599 58.9702 35.4699 61.2602 38.2599C62.0402 39.2099 62.3603 40.5999 63.0703 41.7399C64.1503 43.4899 65.0003 45.3799 66.7903 46.6899C65.0403 47.4999 54.4001 47.6099 51.9301 46.9299H51.9201Z" fill="#02ACF2"/>
</svg>
