<svg width="359" height="100" viewBox="0 0 359 100" fill="none" xmlns="http://www.w3.org/2000/svg">
<path d="M71.0105 36.9101C65.4605 36.9101 59.9106 36.9101 54.3606 36.9101C53.3406 36.9101 53.2704 37.0101 53.4004 38.0101C53.7904 40.9701 55.4705 43.1301 57.7905 44.8401C61.5405 47.6101 65.7504 48.6801 70.4004 48.2601C73.4204 47.9901 76.3205 47.3801 79.0205 45.9401C80.4305 45.1901 81.6705 44.2101 82.8205 43.1201C83.2605 42.7001 83.4805 42.7601 83.7705 43.2501C85.0205 45.3301 86.2805 47.4101 87.5705 49.4701C87.8505 49.9201 87.8104 50.2001 87.4104 50.5401C84.9704 52.6501 82.2004 54.2001 79.2004 55.3501C75.2104 56.8901 71.0505 57.5901 66.7805 57.4201C60.2205 57.1601 54.3704 55.1101 49.6904 50.3301C46.1304 46.6801 44.0905 42.2401 43.2705 37.2601C42.2305 30.9401 42.8305 24.7801 45.5105 18.9201C48.5305 12.3301 53.6905 8.32009 60.7905 6.88009C65.2805 5.97009 69.7704 6.13009 74.1804 7.34009C81.4304 9.32009 86.0105 14.0401 88.0605 21.2101C89.2905 25.5101 89.4405 29.9001 88.9705 34.3201C88.9104 34.9101 88.8105 35.4901 88.8005 36.0801C88.7905 36.7301 88.4906 36.9201 87.8706 36.9201C85.6306 36.9001 83.3804 36.9201 81.1404 36.9201C77.7604 36.9201 74.3905 36.9201 71.0105 36.9201V36.9101ZM66.2405 28.5101C70.2505 28.5101 74.2705 28.5101 78.2805 28.5101C79.2605 28.5101 79.3304 28.4301 79.2104 27.4501C79.0804 26.4201 78.9604 25.3901 78.6704 24.3901C77.4804 20.2501 75.0205 17.2901 70.7805 16.0601C68.4505 15.3901 66.0804 15.3701 63.7004 15.8101C61.2204 16.2801 59.0706 17.3601 57.3306 19.2301C55.1106 21.6201 54.1005 24.5501 53.4805 27.6701C53.3405 28.3801 53.5504 28.5101 54.2004 28.5101C58.2104 28.4901 62.2305 28.5001 66.2405 28.5001V28.5101Z" fill="#29559B"/>
<path d="M340.659 36.9101C335.129 36.9101 329.609 36.9101 324.079 36.9101C323.079 36.9101 323.009 36.9601 323.089 37.9401C323.259 39.9301 324.159 41.6001 325.489 43.0301C328.269 46.0201 331.759 47.7001 335.779 48.1901C339.659 48.6601 343.459 48.1401 347.109 46.7001C349.109 45.9101 350.839 44.6901 352.389 43.2001C353.009 42.6101 353.039 42.6101 353.469 43.3001C354.719 45.3301 355.939 47.3801 357.209 49.3901C357.549 49.9201 357.479 50.2401 357.009 50.6301C352.849 54.0801 348.059 56.1201 342.759 57.0001C338.149 57.7701 333.569 57.6101 329.099 56.1901C321.119 53.6601 315.949 48.2701 313.689 40.2701C311.559 32.7401 312.089 25.2901 315.539 18.2101C318.729 11.6701 324.109 7.94009 331.239 6.72009C335.869 5.93009 340.469 6.19009 344.949 7.64009C351.559 9.78009 355.699 14.3201 357.669 20.9101C358.919 25.0801 359.039 29.3601 358.689 33.6701C358.629 34.4501 358.529 35.2201 358.479 35.9901C358.439 36.6601 358.149 36.9101 357.449 36.9001C354.989 36.8601 352.539 36.8801 350.079 36.8801C346.939 36.8801 343.799 36.8801 340.659 36.8801V36.9101ZM335.979 28.5101C340.039 28.5101 344.099 28.5101 348.169 28.5101C348.709 28.5101 348.909 28.3901 348.879 27.7901C348.829 26.4801 348.609 25.2101 348.219 23.9701C346.959 19.9301 344.419 17.1101 340.229 16.0001C337.599 15.3101 334.949 15.3501 332.319 16.0501C329.289 16.8501 327.009 18.6601 325.409 21.3301C324.269 23.2401 323.589 25.3101 323.199 27.4901C323.019 28.5001 323.029 28.5001 324.069 28.5001C328.039 28.5001 332.009 28.5001 335.969 28.5001L335.979 28.5101Z" fill="#29559B"/>
<path d="M229.98 21.9201V22.9801C229.98 33.9501 229.98 44.9301 229.98 55.9001C229.98 56.6401 229.619 57.0101 228.899 57.0101C226.329 57.0101 223.749 56.9901 221.179 57.0201C220.519 57.0201 220.27 56.8201 220.28 56.1301C220.3 40.9101 220.28 25.6901 220.3 10.4701C220.3 7.99008 222.169 6.06008 224.889 5.77008C227.049 5.54008 228.87 6.16008 230.28 7.93008C238.34 18.0701 246.42 28.2001 254.5 38.3401C254.94 38.8901 255.38 39.4401 255.86 40.0301C256.09 39.7401 256 39.4501 256 39.2001C256 28.8601 256 18.5301 256 8.19008C256 7.41008 256.386 7.02008 257.159 7.02008C259.709 7.02008 262.26 7.04008 264.81 7.01008C265.48 7.01008 265.71 7.20008 265.71 7.89008C265.69 22.9501 265.709 38.0001 265.689 53.0601C265.689 55.8601 263.4 57.7801 260.34 57.6501C258.73 57.5801 257.51 56.7601 256.55 55.5601C253.06 51.1901 249.609 46.7901 246.149 42.3901C240.919 35.7501 235.7 29.1101 230.48 22.4701C230.37 22.3301 230.23 22.2101 229.97 21.9301L229.98 21.9201Z" fill="#29559B"/>
<path d="M1.12922 31.9501C1.12922 23.9701 1.12922 16.0001 1.12922 8.02007C1.12922 7.02007 1.13942 7.01007 2.08942 7.01007C9.76942 7.01007 17.4395 6.99007 25.1195 7.02007C27.2995 7.02007 29.4494 7.30007 31.5494 7.94007C35.4494 9.14007 38.1294 11.6101 39.2894 15.5401C40.6394 20.1401 40.6393 24.7701 38.9393 29.3001C37.6993 32.6101 35.3393 34.8501 31.9293 35.9001C31.2893 36.1001 31.2494 36.3101 31.5494 36.8801C34.9694 43.1901 38.3593 49.5101 41.7593 55.8301C42.3993 57.0201 42.4094 57.0201 41.0794 57.0201C38.2494 57.0201 35.4094 57.0001 32.5794 57.0401C31.8594 57.0501 31.4893 56.7901 31.1693 56.1501C28.0793 49.9901 24.9494 43.8501 21.8594 37.7001C21.5594 37.1001 21.1894 36.9001 20.5394 36.9101C17.5894 36.9401 14.6393 36.9201 11.6793 36.9201C10.6893 36.9201 10.6893 36.9201 10.6893 37.9001C10.6893 43.9201 10.6893 49.9301 10.6893 55.9501C10.6893 57.0201 10.6892 57.0201 9.63923 57.0201C7.10923 57.0201 4.58939 57.0001 2.05939 57.0301C1.34939 57.0301 1.11922 56.8201 1.12922 56.1001C1.14922 48.0501 1.13923 40.0101 1.13923 31.9601L1.12922 31.9501ZM10.6793 22.1701C10.6793 23.9601 10.6793 25.7501 10.6793 27.5401C10.6793 28.4901 10.6794 28.4901 11.6094 28.4901C14.9794 28.4901 18.3593 28.5201 21.7293 28.4801C23.0193 28.4601 24.3194 28.4101 25.6094 28.2301C28.1894 27.8601 29.7594 26.5701 30.2694 24.3501C30.5094 23.2801 30.5593 22.2001 30.4493 21.1201C30.1793 18.4601 29.0893 17.1201 26.7193 16.4701C26.0093 16.2801 25.2894 16.1501 24.5594 16.1101C20.1694 15.8901 15.7892 16.0201 11.3992 15.9701C10.8392 15.9701 10.6593 16.1801 10.6693 16.7201C10.6893 18.5301 10.6693 20.3501 10.6693 22.1701H10.6793Z" fill="#29559B"/>
<path d="M211.48 57.01C210.02 57.01 208.55 57 207.09 57.01C206.6 57.01 206.32 56.82 206.1 56.38C200.6 45.09 195.1 33.81 189.59 22.53C187.8 18.86 186.01 15.19 184.22 11.52C184.11 11.29 183.98 11.06 183.86 10.83C183.68 10.49 183.48 10.17 183.03 10.17C182.57 10.17 182.37 10.5 182.2 10.84C181.56 12.1 180.93 13.37 180.3 14.64C177.72 19.92 175.15 25.2 172.58 30.48C168.42 39.01 164.26 47.53 160.13 56.07C159.79 56.77 159.39 57.02 158.62 57.01C155.83 56.96 153.05 57 150.26 56.99C149.38 56.99 149.34 56.91 149.73 56.11C153.35 48.71 156.98 41.32 160.6 33.92C164.76 25.42 168.92 16.92 173.07 8.42003C173.84 6.85003 174.7 5.34003 175.83 3.99003C179.63 -0.539971 186.44 -0.539971 190.21 3.99003C191.14 5.10003 191.92 6.30003 192.56 7.60003C198.36 19.45 204.17 31.29 209.97 43.14C212.09 47.46 214.2 51.79 216.32 56.11C216.72 56.93 216.68 57 215.74 57C214.32 57 212.91 57 211.49 57L211.48 57.01Z" fill="#29559B"/>
<path d="M300.13 57.01C297.01 57.01 293.89 57.05 290.78 57C288.56 56.96 286.34 56.86 284.19 56.24C279.63 54.91 276.35 52.02 274.06 47.93C272.28 44.74 271.49 41.26 271.14 37.66C270.63 32.39 270.84 27.15 272.02 21.98C272.74 18.84 273.93 15.91 275.97 13.36C278.71 9.94001 282.38 8.18001 286.61 7.43001C288.15 7.16001 289.69 7.01001 291.26 7.01001C297.47 7.01001 303.69 7.01001 309.9 7.01001C310.89 7.01001 310.9 7.02001 310.9 7.99001C310.9 10.23 310.9 12.47 310.9 14.72C310.9 15.68 310.89 15.7 309.9 15.7C303.71 15.7 297.52 15.68 291.33 15.72C288.75 15.74 286.44 16.52 284.66 18.49C283.48 19.8 282.79 21.38 282.31 23.04C281.65 25.29 281.4 27.61 281.28 29.95C281.12 33.04 281.13 36.12 281.57 39.2C281.74 40.39 282.02 41.56 282.45 42.69C283.74 46.14 286.35 47.74 289.9 48.09C291.39 48.24 292.87 48.22 294.36 48.22C299.56 48.22 304.75 48.22 309.95 48.22C310.89 48.22 310.91 48.24 310.91 49.16C310.91 51.47 310.91 53.79 310.91 56.1C310.91 56.99 310.87 57.03 310 57.03C306.72 57.03 303.43 57.03 300.15 57.03L300.13 57.01Z" fill="#29559B"/>
<path d="M94.4102 28.54C94.4102 21.7 94.4102 14.85 94.4102 8.01002C94.4102 7.03002 94.4301 7.02002 95.3901 7.02002C97.9201 7.02002 100.45 7.02002 102.97 7.02002C103.93 7.02002 103.95 7.04002 103.95 8.02002C103.95 20.95 103.95 33.89 103.95 46.82C103.95 47.06 103.97 47.29 103.95 47.53C103.9 48.07 104.16 48.26 104.66 48.21C104.87 48.19 105.08 48.21 105.3 48.21C113.73 48.21 122.17 48.21 130.6 48.21C130.81 48.21 131.03 48.21 131.24 48.21C131.79 48.18 131.84 48.4 131.59 48.84C130.49 50.74 129.41 52.65 128.32 54.56C127.96 55.2 127.58 55.82 127.24 56.47C127.03 56.87 126.74 57.04 126.28 57.04C118.39 57.04 110.5 57.09 102.61 57.01C97.9804 56.97 94.4302 53.22 94.4202 48.59C94.4202 41.91 94.4202 35.23 94.4202 28.55L94.4102 28.54Z" fill="#29559B"/>
<path d="M136.639 31.94C136.639 23.97 136.639 15.99 136.639 8.02C136.639 7.01 136.639 7.01 137.669 7.01C140.339 7.01 143.009 7.03 145.679 7C146.359 7 146.639 7.17 146.639 7.91C146.619 23.98 146.629 40.04 146.629 56.11C146.629 56.98 146.589 57.02 145.699 57.02C142.979 57.02 140.269 57 137.549 57.03C136.819 57.03 136.629 56.78 136.639 56.08C136.659 48.04 136.649 39.99 136.649 31.95L136.639 31.94Z" fill="#29559B"/>
<path d="M183.03 57.01C178.33 57.01 173.63 57.01 168.93 57.01C167.89 57.01 167.86 56.97 168.3 56.05C170.57 51.28 172.85 46.51 175.14 41.75C177.65 36.52 180.16 31.29 182.67 26.05C182.75 25.88 182.77 25.62 182.97 25.6C183.23 25.58 183.26 25.87 183.35 26.05C186.94 33.51 190.52 40.98 194.1 48.44C195.33 51.01 196.57 53.59 197.8 56.16C198.16 56.91 198.11 57 197.27 57C192.52 57 187.78 57 183.03 57V57.01Z" fill="#D72729"/>
<path d="M18.0301 91.05C18.0301 93.01 18.0301 94.97 18.0301 96.92C18.0301 97.36 17.9601 97.72 17.4901 97.88C13.2101 99.34 8.97009 99.71 4.98009 97.08C2.36009 95.35 1.07011 92.71 0.500113 89.72C-0.189887 86.09 0.0101224 82.51 1.76012 79.17C3.66012 75.56 6.76016 73.75 10.8002 73.54C12.8702 73.43 14.9102 73.61 16.8502 74.4C17.6802 74.74 17.7102 74.8 17.3502 75.65C17.1202 76.19 16.88 76.73 16.67 77.28C16.49 77.77 16.2601 77.85 15.7601 77.65C13.9101 76.9 11.9801 76.63 10.0001 77.07C6.93011 77.76 5.26016 79.84 4.55016 82.76C3.87016 85.57 3.9001 88.4 4.9901 91.11C6.7101 95.37 10.06 96.13 13.68 95.3C14.03 95.22 14.2001 95.02 14.2001 94.65C14.2001 92.41 14.2001 90.17 14.2001 87.93C14.2001 87.46 13.9702 87.32 13.5402 87.33C12.5202 87.34 11.5101 87.31 10.4901 87.33C9.9401 87.34 9.72011 87.14 9.75011 86.59C9.78011 86.03 9.77011 85.46 9.75011 84.89C9.75011 84.49 9.89018 84.28 10.3202 84.28C12.6802 84.28 15.04 84.28 17.4 84.28C18.01 84.28 18.0001 84.68 18.0001 85.09C18.0001 87.07 18.0001 89.05 18.0001 91.04L18.0301 91.05Z" fill="#D72729"/>
<path d="M97.0192 91.22C97.0192 93.13 97.0192 95.04 97.0192 96.95C97.0192 97.39 96.9492 97.74 96.4792 97.9C92.9792 99.1 89.4293 99.49 85.8693 98.22C82.6093 97.05 81.3191 93.19 83.1491 90.28C83.8691 89.13 84.9792 88.46 86.2092 87.99C88.1692 87.25 90.2293 86.98 92.3093 86.86C93.2393 86.81 93.3093 86.76 93.2993 85.82C93.2993 83.81 92.3093 82.79 90.2993 82.67C88.5493 82.56 86.8592 82.82 85.2292 83.46C84.5692 83.72 84.2693 83.58 84.1093 82.93C84.0593 82.73 83.9591 82.53 83.8891 82.33C83.4491 81.04 83.1391 81.14 84.6691 80.64C87.1691 79.83 89.7293 79.48 92.3393 80.01C95.3093 80.61 96.9192 82.53 96.9792 85.56C97.0192 87.45 96.9792 89.33 96.9792 91.22H97.0192ZM93.3093 92.61C93.3093 91.76 93.3093 90.91 93.3093 90.06C93.3093 89.72 93.2293 89.44 92.8093 89.45C91.0893 89.52 89.3592 89.6 87.7692 90.36C86.5292 90.96 85.8892 92.03 86.0092 93.25C86.1392 94.57 86.8992 95.49 88.2392 95.86C89.7492 96.28 91.2793 96.15 92.7993 95.86C93.1893 95.79 93.3293 95.53 93.3293 95.15C93.3193 94.3 93.3293 93.45 93.3293 92.6L93.3093 92.61Z" fill="#D72729"/>
<path d="M193.52 91.38C193.52 93.22 193.5 95.06 193.52 96.9C193.52 97.45 193.35 97.78 192.81 97.96C189.46 99.08 186.08 99.4 182.66 98.36C180.47 97.69 179.03 95.94 178.88 93.88C178.68 91.21 179.62 89.47 181.93 88.34C184.05 87.3 186.35 87.0301 188.66 86.8701C189.79 86.7901 189.81 86.8001 189.8 85.6901C189.78 83.8101 188.76 82.8 186.79 82.67C185.02 82.56 183.3 82.8301 181.66 83.4801C181.02 83.7401 180.77 83.57 180.6 82.97C180.47 82.52 180.29 82.08 180.11 81.65C179.94 81.26 180.02 81.03 180.43 80.89C183.31 79.88 186.24 79.38 189.26 80.11C192.06 80.79 193.45 82.71 193.51 85.93C193.55 87.75 193.51 89.56 193.51 91.38H193.52ZM189.81 92.6601C189.81 91.7901 189.81 90.91 189.81 90.04C189.81 89.68 189.7 89.44 189.29 89.46C187.64 89.53 185.98 89.62 184.43 90.27C183.02 90.86 182.39 91.9 182.5 93.39C182.58 94.6 183.42 95.5601 184.83 95.9101C186.32 96.2901 187.83 96.17 189.32 95.86C189.73 95.78 189.83 95.52 189.82 95.14C189.81 94.31 189.82 93.4901 189.82 92.6601H189.81Z" fill="#D72729"/>
<path d="M235.54 98.95C234.38 99 233.28 98.86 232.21 98.54C229.68 97.8 227.89 96.2 227.01 93.73C225.8 90.34 225.89 86.96 227.6 83.73C229.99 79.22 236.84 78.35 240.28 82.11C241.46 83.4 242 84.97 242.14 86.68C242.2 87.38 242.32 88.08 242.21 88.79C242.14 89.22 241.95 89.4 241.54 89.45C238.06 89.92 234.58 90.41 231.1 90.89C230.05 91.03 229.96 91.13 230.25 92.14C231.03 94.94 233.3 96.02 236.09 95.87C237.51 95.8 238.9 95.55 240.21 94.96C240.55 94.81 240.74 94.91 240.87 95.24C241.11 95.86 241.33 96.48 241.59 97.08C241.77 97.5 241.64 97.73 241.24 97.9C240.14 98.36 238.99 98.62 237.82 98.78C237.05 98.89 236.28 99 235.54 98.94V98.95ZM234.5 82.63C234.13 82.67 233.75 82.68 233.38 82.77C231.3 83.26 229.6 85.75 229.81 87.95C229.85 88.39 230.09 88.43 230.43 88.38C231.04 88.29 231.64 88.21 232.25 88.13C234.16 87.86 236.07 87.59 237.98 87.32C238.23 87.28 238.53 87.28 238.5 86.9C238.35 84.62 237.24 82.61 234.49 82.63H234.5Z" fill="#D72729"/>
<path d="M29.41 98.9601C28.29 99.0001 27.2002 98.8501 26.1202 98.5401C23.5502 97.8001 21.78 96.1601 20.89 93.6701C19.76 90.5201 19.82 87.3701 21.21 84.3001C22.66 81.1001 26.0301 79.3701 29.5201 79.8101C34.0601 80.3801 36.0401 83.8001 36.0801 87.3701C36.0801 87.7901 36.0601 88.2201 36.0801 88.6401C36.1201 89.1901 35.8402 89.3801 35.3402 89.4501C31.8602 89.9201 28.38 90.4101 24.9 90.8901C23.89 91.0301 23.8802 91.0501 24.1202 92.0301C24.8302 94.8501 27.1001 95.9501 29.7401 95.8601C31.2301 95.8101 32.7001 95.5901 34.0801 94.9501C34.4501 94.7801 34.6501 94.9101 34.7801 95.2701C34.9901 95.8501 35.2 96.4301 35.45 96.9801C35.68 97.4901 35.5301 97.7501 35.0301 97.9401C33.2201 98.6401 31.34 98.9101 29.42 98.9501L29.41 98.9601ZM32.3502 86.6701C32.2402 84.5301 31.1499 83.1001 29.3799 82.7201C26.3299 82.0801 23.35 84.8401 23.73 87.9601C23.78 88.3501 23.9801 88.4201 24.3101 88.3801C26.8101 88.0301 29.3001 87.6701 31.8001 87.3401C32.2801 87.2801 32.4902 87.0901 32.3602 86.6601L32.3502 86.6701Z" fill="#D72729"/>
<path d="M63.8204 98.97C63.2004 99 62.1903 98.88 61.2103 98.61C57.6003 97.61 55.7502 95.1 55.1702 91.53C54.8002 89.23 54.9804 86.97 55.8404 84.78C58.3304 78.48 66.1103 78.78 68.9303 81.97C70.2603 83.47 70.8703 85.24 70.9303 87.21C71.0003 89.35 70.9702 89.34 68.8902 89.62C65.8002 90.04 62.7202 90.48 59.6402 90.91C58.7702 91.03 58.7203 91.1 58.9403 91.94C59.7103 94.91 61.8903 95.9 64.5003 95.86C66.0103 95.84 67.5102 95.61 68.9102 94.96C69.3202 94.77 69.5102 94.93 69.6502 95.31C69.8602 95.89 70.0704 96.46 70.3204 97.02C70.5404 97.51 70.3702 97.75 69.9002 97.93C68.0702 98.63 66.1704 98.93 63.8204 98.96V98.97ZM63.2703 82.63C62.9003 82.67 62.5102 82.68 62.1502 82.77C60.0402 83.26 58.3604 85.73 58.5804 87.95C58.6204 88.39 58.8503 88.44 59.2003 88.39C59.7803 88.3 60.3703 88.23 60.9503 88.15C62.7903 87.9 64.6403 87.64 66.4803 87.39C66.9603 87.33 67.2203 87.16 67.2003 86.58C67.1203 84.22 65.5803 82.67 63.2503 82.64L63.2703 82.63Z" fill="#D72729"/>
<path d="M196.199 89.78C196.199 87.14 196.209 84.5 196.189 81.85C196.189 81.28 196.389 80.98 196.919 80.81C199.929 79.84 202.989 79.43 206.129 80.06C209.309 80.69 210.98 82.74 210.99 85.98C210.99 89.87 210.99 93.77 210.99 97.66C210.99 98.62 210.98 98.63 209.99 98.63C209.33 98.63 208.67 98.6 208.01 98.63C207.33 98.67 207.11 98.39 207.11 97.72C207.13 94.02 207.12 90.31 207.11 86.61C207.11 86.21 207.11 85.8 207.05 85.41C206.79 84.03 205.709 83.09 204.219 82.96C203.089 82.86 201.96 82.94 200.84 83.18C200.24 83.31 200.05 83.59 200.05 84.2C200.07 88.61 200.06 93.02 200.06 97.44C200.06 98.2333 199.65 98.6333 198.83 98.64C198.26 98.64 197.699 98.64 197.129 98.64C196.259 98.64 196.199 98.57 196.189 97.72C196.189 95.08 196.189 92.44 196.189 89.79L196.199 89.78Z" fill="#D72729"/>
<path d="M38.1506 89.78C38.1506 87.18 38.1706 84.59 38.1406 82C38.1406 81.32 38.3507 80.97 39.0007 80.77C41.9807 79.84 44.9908 79.46 48.0808 80.07C51.2608 80.7 52.9407 82.75 52.9507 85.99C52.9607 89.91 52.9407 93.82 52.9707 97.74C52.9707 98.48 52.7108 98.7 52.0208 98.65C51.3408 98.61 50.6507 98.61 49.9707 98.65C49.3007 98.69 49.0608 98.42 49.0708 97.74C49.0908 94.04 49.0808 90.33 49.0708 86.63C49.0708 86.23 49.0707 85.82 49.0007 85.43C48.7307 84.05 47.6507 83.1 46.1707 82.97C45.0407 82.88 43.9108 82.93 42.7908 83.18C42.1908 83.32 42.0007 83.59 42.0007 84.2C42.0207 88.61 42.0107 93.02 42.0107 97.43C42.0107 98.23 41.6008 98.63 40.7808 98.63C40.2108 98.63 39.6508 98.63 39.0808 98.63C38.2108 98.63 38.1406 98.56 38.1406 97.71C38.1406 95.07 38.1406 92.43 38.1406 89.78H38.1506Z" fill="#D72729"/>
<path d="M166.761 89.04C166.761 91.68 166.751 94.32 166.761 96.96C166.761 97.49 166.571 97.79 166.071 97.95C163.201 98.91 160.261 99.26 157.281 98.73C154.081 98.16 152.331 96.16 152.261 92.91C152.181 88.9 152.241 84.89 152.231 80.88C152.231 80.37 152.421 80.16 152.941 80.17C153.671 80.2 154.401 80.17 155.141 80.17C156.081 80.17 156.101 80.19 156.101 81.11C156.101 83.19 156.101 85.26 156.101 87.34C156.101 89.04 156.101 90.74 156.101 92.43C156.121 94.52 157.151 95.6 159.241 95.75C160.191 95.82 161.121 95.67 162.051 95.53C162.701 95.43 162.891 95.12 162.891 94.48C162.871 90.12 162.881 85.75 162.881 81.39C162.881 81.15 162.881 80.92 162.891 80.68C162.901 80.33 163.081 80.17 163.431 80.17C164.351 80.17 165.271 80.17 166.191 80.17C166.771 80.17 166.741 80.56 166.741 80.95C166.741 83.64 166.741 86.33 166.741 89.02L166.761 89.04Z" fill="#D72729"/>
<path d="M120.899 89.8001C120.899 87.1301 120.899 84.4701 120.899 81.8001C120.899 81.4101 120.909 81.0601 121.379 80.9001C124.659 79.7901 128.009 79.32 131.399 80.24C134.249 81.02 135.639 82.9101 135.669 86.0001C135.719 89.9401 135.669 93.88 135.689 97.82C135.689 98.4401 135.439 98.66 134.839 98.64C134.109 98.61 133.369 98.61 132.639 98.64C131.999 98.67 131.779 98.43 131.789 97.78C131.819 94.17 131.799 90.56 131.799 86.95C131.799 86.62 131.799 86.29 131.759 85.96C131.489 83.99 130.379 83.0001 128.389 82.9401C127.389 82.9101 126.409 82.9901 125.429 83.1901C124.829 83.3201 124.639 83.59 124.639 84.2C124.659 88.66 124.649 93.1201 124.649 97.5801C124.649 98.2801 124.292 98.63 123.579 98.63C123.009 98.63 122.449 98.63 121.879 98.63C120.889 98.63 120.879 98.6101 120.879 97.6501C120.879 95.0301 120.879 92.4101 120.879 89.7901L120.899 89.8001Z" fill="#D72729"/>
<path d="M143.46 98.9601C141.33 98.9601 139.63 98.6101 137.99 97.9601C137.51 97.7701 137.31 97.5301 137.58 97.0101C137.87 96.4501 138.12 95.8501 138.34 95.2601C138.52 94.7901 138.76 94.7601 139.2 94.9501C140.71 95.6101 142.26 96.0401 143.94 95.7801C145.18 95.5901 146.03 94.8501 146.23 93.7901C146.41 92.8001 145.9 91.8701 144.8 91.2701C143.87 90.7501 142.84 90.4601 141.86 90.0401C140.99 89.6601 140.13 89.2701 139.42 88.6301C136.75 86.2101 137.4 81.9001 140.72 80.4901C143.59 79.2801 146.45 79.6301 149.24 80.8701C149.62 81.0401 149.63 81.2701 149.47 81.6101C149.2 82.1601 148.95 82.7201 148.73 83.2901C148.57 83.7101 148.36 83.7101 147.97 83.5401C146.62 82.9601 145.24 82.4901 143.72 82.8101C142.64 83.0401 141.92 83.6801 141.79 84.5301C141.61 85.6801 142 86.4501 143.07 87.0401C144.11 87.6201 145.25 87.9501 146.33 88.4101C146.9 88.6501 147.44 88.9201 147.96 89.2501C149.64 90.3201 150.38 91.8801 150.25 93.8101C150.12 95.8701 149.05 97.3401 147.16 98.1901C145.86 98.7701 144.5 98.9701 143.45 98.9501L143.46 98.9601Z" fill="#D72729"/>
<path d="M217.06 89.31C217.02 90.33 217.14 91.33 217.47 92.31C218.48 95.33 221.11 96.51 224 95.18C224.59 94.91 224.83 94.99 225.03 95.57C225.16 95.97 225.36 96.35 225.54 96.74C225.98 97.7 225.95 97.81 225 98.22C220.65 100.09 214.86 98.7 213.43 92.55C212.76 89.67 212.88 86.83 214.18 84.12C216.43 79.41 222.05 78.95 225.42 80.78C225.85 81.01 225.91 81.28 225.7 81.7C225.45 82.21 225.21 82.72 225 83.24C224.81 83.71 224.58 83.83 224.09 83.57C223.15 83.06 222.13 82.87 221.08 83.03C219.5 83.27 218.43 84.19 217.77 85.61C217.22 86.79 217.03 88.04 217.08 89.33L217.06 89.31Z" fill="#D72729"/>
<path d="M103.69 85.1801C103.69 89.3501 103.67 93.5301 103.7 97.7001C103.7 98.4101 103.49 98.6901 102.78 98.6301C102.17 98.5901 101.55 98.6301 100.94 98.6301C99.8402 98.6301 99.8203 98.6101 99.8203 97.5401C99.8203 94.0301 99.8203 90.5101 99.8203 87.0001C99.8203 82.2801 99.8203 77.5701 99.8203 72.8501C99.8203 71.8401 99.8204 71.8401 100.86 71.8401C101.47 71.8401 102.09 71.8401 102.7 71.8401C103.69 71.8401 103.69 71.8401 103.69 72.8101C103.69 76.9401 103.69 81.0601 103.69 85.1901V85.1801Z" fill="#D72729"/>
<path d="M117.87 86.25C117.87 90.07 117.85 93.8901 117.89 97.7201C117.89 98.4501 117.65 98.69 116.95 98.64C116.27 98.6 115.58 98.64 114.9 98.63C113.99 98.63 113.97 98.6101 113.97 97.6601C113.97 91.4301 113.97 85.2001 113.97 78.9701C113.97 77.5301 113.99 76.0901 113.96 74.6501C113.94 74.0201 114.18 73.81 114.79 73.84C115.54 73.87 116.3 73.88 117.06 73.84C117.73 73.8 117.9 74.08 117.9 74.71C117.88 78.56 117.89 82.4 117.89 86.25H117.87Z" fill="#D72729"/>
<path d="M73.0103 89.8C73.0103 87.16 73.0302 84.52 73.0002 81.88C73.0002 81.27 73.2303 80.98 73.7703 80.8C76.2903 79.97 78.8703 79.68 81.5103 79.81C82.1003 79.84 82.3802 80.06 82.1802 80.71C82.0102 81.27 81.8903 81.85 81.7803 82.43C81.6903 82.94 81.4802 83.15 80.9102 83.04C79.8602 82.84 78.8002 82.96 77.7402 83.13C77.1002 83.24 76.8503 83.53 76.8503 84.22C76.8803 88.65 76.8704 93.08 76.8604 97.51C76.8604 98.2567 76.4735 98.6334 75.7002 98.64C75.1302 98.64 74.5702 98.64 74.0002 98.64C73.0402 98.64 72.9902 98.59 72.9902 97.65C72.9902 95.03 72.9902 92.42 72.9902 89.8H73.0103Z" fill="#D72729"/>
<path d="M169.52 89.72C169.52 87.1 169.54 84.48 169.51 81.86C169.51 81.26 169.71 80.97 170.27 80.79C172.75 79.98 175.29 79.67 177.88 79.8C178.75 79.84 178.83 79.96 178.62 80.79C178.44 81.5 178.51 82.38 178.03 82.87C177.53 83.38 176.7 82.87 176.01 82.93C175.4 82.98 174.79 83.05 174.18 83.13C173.58 83.21 173.36 83.51 173.37 84.13C173.39 88.12 173.38 92.11 173.38 96.09C173.38 96.63 173.35 97.18 173.38 97.72C173.42 98.38 173.19 98.68 172.49 98.64C171.78 98.6 171.07 98.61 170.37 98.64C169.74 98.67 169.5 98.46 169.51 97.79C169.54 95.1 169.52 92.41 169.52 89.72Z" fill="#D72729"/>
</svg>
