<svg width="379" height="116" viewBox="0 0 379 116" fill="none" xmlns="http://www.w3.org/2000/svg">
<path fill-rule="evenodd" clip-rule="evenodd" d="M96.6992 70.85V72.36H378.499V70.85H96.6992Z" fill="#FDB927"/>
<path d="M111.26 113.85C110.67 113.8 110.581 113.85 110.581 112.16C110.581 110.73 110.63 110.48 111.38 110.34L111.84 110.27V109.68H105.351V110.27L106.471 110.43C107.631 110.63 107.63 110.73 107.63 112.29V114.48C107.06 114.57 106.47 114.64 105.9 114.64C102.43 114.64 100.05 112.04 100.05 107.42C100.05 103.61 101.51 100.65 105.15 100.65C108.79 100.65 109.41 103.27 109.76 104.66L110.65 104.55C110.65 103 110.44 101.77 110.15 100.67C109.15 100.19 107.841 99.78 105.451 99.78C101.101 99.78 96.7207 101.92 96.7207 107.6C96.7207 113.28 100.82 115.51 105.61 115.51C108.19 115.51 110.55 114.65 111.36 114.37L111.291 113.85H111.26ZM128.791 113.53C128.471 113.69 127.51 114.19 126.28 114.19C123.16 114.19 122.481 111.73 122.221 110.36C124.591 109.81 127.121 109.08 129.081 108.17C128.831 106.85 128.24 104.45 124.57 104.45C121.97 104.45 119.36 106.5 119.36 110.13C119.36 113.76 122 115.51 124.69 115.51C127 115.51 128.431 114.53 129.021 114.05L128.8 113.52L128.791 113.53ZM122.09 109.29C122.09 108.88 122.09 105.32 124.07 105.32C125.51 105.32 126.191 106.66 126.351 108.3C124.961 108.76 123.52 109.05 122.09 109.28V109.29ZM137.63 113C137.63 114.21 137.521 114.46 136.741 114.53L136.271 114.58V115.17H141.78V114.58L141.3 114.53C140.48 114.46 140.371 114.21 140.371 113V106.65C140.731 106.26 141.33 105.78 142.26 105.78C144.63 105.78 144.63 107.97 144.63 109.77V113C144.63 114.21 144.52 114.46 143.69 114.53L143.21 114.58V115.17H148.771V114.58L148.291 114.53C147.471 114.46 147.351 114.21 147.351 113V108.51C147.351 105.43 145.961 104.45 143.911 104.45C141.971 104.45 140.881 105.27 140.311 105.77V104.45C139.121 104.52 137.92 104.7 136.21 105.27V105.93C136.3 105.9 136.6 105.79 136.94 105.79C137.62 105.79 137.621 106.82 137.621 107.61V112.99L137.63 113ZM165.71 113.53C165.39 113.69 164.431 114.19 163.201 114.19C160.081 114.19 159.4 111.73 159.15 110.36C161.52 109.81 164.05 109.08 166.01 108.17C165.76 106.85 165.17 104.45 161.5 104.45C158.9 104.45 156.28 106.5 156.28 110.13C156.28 113.76 158.92 115.51 161.61 115.51C163.91 115.51 165.35 114.53 165.94 114.05L165.71 113.52V113.53ZM159.01 109.29C159.01 108.88 159.011 105.32 160.991 105.32C162.421 105.32 163.11 106.66 163.26 108.3C161.87 108.76 160.43 109.05 159 109.28L159.01 109.29ZM174.53 113C174.53 114.21 174.421 114.46 173.601 114.53L173.121 114.58V115.17H179.141V114.58L178.23 114.47C177.27 114.36 177.271 114.06 177.271 112.44V106.9C177.571 106.54 177.841 106.44 178.181 106.44C178.501 106.44 179.821 106.99 180.181 107.08C180.911 106.58 181.23 106.19 181.55 105.46C181.23 105.12 180.661 104.46 179.701 104.46C178.541 104.46 177.58 105.55 177.13 106.03C177.13 105.35 177.021 104.87 176.951 104.46C175.311 104.71 174.831 104.87 173.121 105.44V106.03C173.261 105.99 173.511 105.89 173.851 105.89C174.531 105.89 174.53 106.92 174.53 107.72V113ZM198.42 114.64C198.35 114.66 198.311 114.66 198.241 114.66C196.781 114.66 196.78 112.97 196.78 111.33V108.52C196.78 105.92 196.281 104.44 193.411 104.44C191.111 104.44 189.53 105.74 188.51 106.85C188.69 107.4 188.811 107.58 189.121 108.02H189.351C189.651 107.33 190.311 105.76 192.061 105.76C193.681 105.76 194.05 106.97 194.05 108.32V108.87C192.16 109.37 188.141 110.15 188.141 113.02C188.141 114.48 189.35 115.5 191.13 115.5C192.72 115.5 193.66 114.79 194.3 114.34C194.66 114.91 195.07 115.5 196.53 115.5C197.53 115.5 198.191 115.09 198.491 114.93L198.42 114.63V114.64ZM194.05 112.41C194.05 112.84 194.121 113.41 194.141 113.64C193.961 113.78 193.53 114.19 192.75 114.19C191.72 114.19 191.061 113.37 191.061 112.27C191.061 110.58 192.501 109.9 193.791 109.9C193.881 109.9 193.95 109.92 194.05 109.92V112.41ZM205.42 115.16H210.98V114.57L210.5 114.52C209.68 114.43 209.561 114.2 209.561 112.99V98.75C208.331 98.75 207.311 98.89 205.411 99.28V99.87C205.501 99.87 205.77 99.82 206.05 99.82C206.83 99.82 206.831 100.71 206.831 102.71V112.99C206.831 114.2 206.721 114.43 205.891 114.52L205.411 114.57V115.16H205.42ZM235.67 103.48C235.67 101.23 235.671 100.95 236.741 100.79L237.291 100.72V100.12H231.09V100.72L231.641 100.79C232.711 100.95 232.71 101.22 232.71 103.5V111.81C232.71 114.06 232.711 114.33 231.641 114.5L231.09 114.57V115.17H237.291V114.57L236.741 114.5C235.671 114.34 235.67 114.07 235.67 111.81V103.48ZM246.451 113C246.451 114.21 246.34 114.46 245.57 114.53L245.09 114.58V115.17H250.61V114.58L250.13 114.53C249.31 114.46 249.201 114.21 249.201 113V106.65C249.561 106.26 250.16 105.78 251.09 105.78C253.46 105.78 253.46 107.97 253.46 109.77V113C253.46 114.21 253.351 114.46 252.521 114.53L252.041 114.58V115.17H257.601V114.58L257.121 114.53C256.301 114.46 256.181 114.21 256.181 113V108.51C256.181 105.43 254.791 104.45 252.741 104.45C250.801 104.45 249.711 105.27 249.141 105.77V104.45C247.951 104.52 246.751 104.7 245.041 105.27V105.93C245.131 105.9 245.431 105.79 245.771 105.79C246.451 105.79 246.451 106.82 246.451 107.61V112.99V113ZM272.391 107.92C272.391 106.98 272.371 105.98 272.141 105.09C271.591 104.79 270.621 104.45 269.411 104.45C265.351 104.45 265.351 107.26 265.351 107.44C265.351 111.09 270.48 110.43 270.48 113.14C270.48 113.96 269.931 114.64 268.971 114.64C267.261 114.64 266.241 112.81 266.101 111.56H265.19C265.19 112.92 265.371 113.88 265.601 114.79C266.421 115.2 267.4 115.5 268.75 115.5C271.83 115.5 273.081 113.98 273.081 112.22C273.081 108.73 267.951 109.12 267.951 106.72C267.951 105.92 268.52 105.31 269.23 105.31C270.92 105.31 271.42 107.15 271.48 107.91H272.391V107.92ZM289.4 115.51C290.54 115.28 291.79 114.96 292.84 114.6L292.8 114.01C292.57 114.06 292.301 114.04 292.161 114.04C291.381 114.04 291.38 113.15 291.38 111.28V104.46C290.19 104.53 288.94 104.71 287.23 105.28V105.94C287.32 105.91 287.62 105.8 287.96 105.8C288.64 105.8 288.641 106.83 288.641 107.62V113.62C288.321 113.78 287.801 114.19 286.931 114.19C284.701 114.19 284.351 112.67 284.351 110.86V104.45C283.161 104.52 281.911 104.7 280.201 105.27V105.93C280.291 105.9 280.591 105.79 280.931 105.79C281.611 105.79 281.61 106.82 281.61 107.61V110.91C281.61 113.44 281.77 115.49 285.3 115.49C287.01 115.49 288.081 114.74 288.771 114.33L289.38 115.49L289.4 115.51ZM301.641 113C301.641 114.21 301.531 114.46 300.701 114.53L300.221 114.58V115.17H306.241V114.58L305.32 114.47C304.36 114.36 304.36 114.06 304.36 112.44V106.9C304.66 106.54 304.93 106.44 305.28 106.44C305.6 106.44 306.92 106.99 307.28 107.08C308.01 106.58 308.33 106.19 308.65 105.46C308.33 105.12 307.76 104.46 306.8 104.46C305.64 104.46 304.681 105.55 304.221 106.03C304.221 105.35 304.111 104.87 304.041 104.46C302.401 104.71 301.92 104.87 300.21 105.44V106.03C300.35 105.99 300.6 105.89 300.94 105.89C301.62 105.89 301.621 106.92 301.621 107.72V113H301.641ZM325.53 114.64C325.46 114.66 325.421 114.66 325.351 114.66C323.891 114.66 323.891 112.97 323.891 111.33V108.52C323.891 105.92 323.391 104.44 320.521 104.44C318.211 104.44 316.641 105.74 315.621 106.85C315.801 107.4 315.92 107.58 316.23 108.02H316.46C316.76 107.33 317.42 105.76 319.17 105.76C320.79 105.76 321.15 106.97 321.15 108.32V108.87C319.26 109.37 315.25 110.15 315.25 113.02C315.25 114.48 316.461 115.5 318.241 115.5C319.831 115.5 320.77 114.79 321.4 114.34C321.76 114.91 322.18 115.5 323.63 115.5C324.63 115.5 325.3 115.09 325.59 114.93L325.521 114.63L325.53 114.64ZM321.15 112.41C321.15 112.84 321.221 113.41 321.241 113.64C321.061 113.78 320.621 114.19 319.851 114.19C318.821 114.19 318.161 113.37 318.161 112.27C318.161 110.58 319.591 109.9 320.891 109.9C320.981 109.9 321.051 109.92 321.141 109.92V112.41H321.15ZM333.96 113C333.96 114.21 333.85 114.46 333.07 114.53L332.59 114.58V115.17H338.11V114.58L337.63 114.53C336.81 114.46 336.69 114.21 336.69 113V106.65C337.05 106.26 337.651 105.78 338.581 105.78C340.951 105.78 340.951 107.97 340.951 109.77V113C340.951 114.21 340.841 114.46 340.021 114.53L339.541 114.58V115.17H345.101V114.58L344.621 114.53C343.801 114.46 343.69 114.21 343.69 113V108.51C343.69 105.43 342.301 104.45 340.241 104.45C338.301 104.45 337.211 105.27 336.641 105.77V104.45C335.451 104.52 334.25 104.7 332.53 105.27V105.93C332.62 105.9 332.92 105.79 333.26 105.79C333.95 105.79 333.951 106.82 333.951 107.61V112.99L333.96 113ZM361.721 113.8C361.401 113.91 360.44 114.19 359.65 114.19C357.37 114.19 355.411 112.69 355.411 109.29C355.411 106.98 356.411 105.6 357.871 105.6C359.191 105.6 359.991 106.51 360.491 107.08H360.69C361.26 106.39 361.471 105.96 361.581 105.21C360.991 104.78 360.1 104.46 358.48 104.46C355.93 104.46 352.491 106.26 352.491 110.48C352.491 113.81 355.34 115.52 357.82 115.52C360.01 115.52 361.201 114.89 361.931 114.36L361.721 113.81V113.8ZM378.181 113.52C377.861 113.68 376.9 114.18 375.67 114.18C372.55 114.18 371.87 111.72 371.61 110.35C373.98 109.8 376.511 109.07 378.471 108.16C378.221 106.84 377.63 104.44 373.96 104.44C371.36 104.44 368.75 106.49 368.75 110.12C368.75 113.75 371.391 115.5 374.081 115.5C376.391 115.5 377.821 114.52 378.411 114.04L378.19 113.51L378.181 113.52ZM371.48 109.28C371.48 108.87 371.48 105.31 373.46 105.31C374.9 105.31 375.581 106.65 375.741 108.29C374.351 108.75 372.91 109.04 371.48 109.27" fill="#004A90"/>
<path fill-rule="evenodd" clip-rule="evenodd" d="M82.3501 0.119995H0.839844V29.45C0.839844 59.76 17.2398 85.86 41.5898 99.77C79.9398 77.08 80.3698 39.84 82.3398 0.119995" fill="#004A90"/>
<path fill-rule="evenodd" clip-rule="evenodd" d="M81.46 20.34C81.67 17.18 81.86 13.98 82.02 10.76L78 19.42L81.46 20.34Z" fill="#FDB927"/>
<path fill-rule="evenodd" clip-rule="evenodd" d="M35.7593 38.0601L44.2095 42.0301L45.1997 38.0601L33.7695 37.3101L35.7593 38.0601Z" fill="#FDB927"/>
<path fill-rule="evenodd" clip-rule="evenodd" d="M33.7695 57.69L45.1997 56.95L44.1494 52.72L33.7695 57.69Z" fill="#FDB927"/>
<path fill-rule="evenodd" clip-rule="evenodd" d="M44.1992 75.83L53.6489 69.37L50.6089 66.33L44.1992 75.84V75.83Z" fill="#FDB927"/>
<path fill-rule="evenodd" clip-rule="evenodd" d="M45.4492 20.91L50.6689 28.61L53.6489 25.88L44.1992 19.17L45.439 20.91" fill="#FDB927"/>
<path fill-rule="evenodd" clip-rule="evenodd" d="M62.3398 10.97L63.0801 20.41L67.0601 19.17L62.0898 8.97998L62.3398 10.97Z" fill="#FDB927"/>
<path fill-rule="evenodd" clip-rule="evenodd" d="M70.3008 18.9199H74.5308L72.541 1.69995L70.3008 18.9199Z" fill="#FDB927"/>
<path fill-rule="evenodd" clip-rule="evenodd" d="M49.9194 9.23001L56.3794 23.65L59.8594 21.66L48.4297 6.01001L49.9194 9.24001" fill="#FDB927"/>
<path fill-rule="evenodd" clip-rule="evenodd" d="M33.769 25.63L46.689 35.08L48.4292 31.35L31.0391 23.64L33.769 25.63Z" fill="#FDB927"/>
<path fill-rule="evenodd" clip-rule="evenodd" d="M24.5703 47.5L43.7104 49.49V45.51L24.5703 47.5Z" fill="#FDB927"/>
<path fill-rule="evenodd" clip-rule="evenodd" d="M30.7891 71.3599L48.4292 63.6599L46.439 60.1799L30.7891 71.3599Z" fill="#FDB927"/>
<path fill-rule="evenodd" clip-rule="evenodd" d="M48.4297 89L59.8594 73.6L56.1294 71.36C53.4794 77.18 50.9897 83.14 48.4297 89Z" fill="#FDB927"/>
<path fill-rule="evenodd" clip-rule="evenodd" d="M67.8896 74.52C54.9296 72.36 45.1895 61.03 45.1895 47.75C45.1895 32.59 57.3693 20.41 72.5293 20.41C75.6093 20.41 78.6894 20.86 81.3394 21.98C79.9494 41.18 77.1196 59.2 67.8896 74.52Z" fill="#FDB927"/>
<path fill-rule="evenodd" clip-rule="evenodd" d="M62.3301 82.42C64.0601 80.31 65.6198 78.13 67.0498 75.89L62.8501 74.84L62.3301 82.42Z" fill="#FDB927"/>
<path d="M97.9395 66.51H107.629V65.65L106.189 65.53C104.669 65.37 104.669 65.17 104.669 60.26V54.96H106.149C106.989 54.96 107.989 54.96 108.629 55.48C109.149 55.92 110.069 57.45 111.109 59.42L112.709 62.52C113.909 64.73 115.75 66.52 118.39 66.52H121.47V65.66C120.59 65.66 119.87 65.5 119.47 65.25C118.47 64.69 116.709 62.31 115.029 59.3C113.949 57.37 112.629 54.8 112.029 53.67C114.229 52.62 117.56 50.41 117.56 46.67C117.56 40.57 112.19 40.02 108.39 40.02H97.9395V40.88L99.3794 41C100.939 41.16 100.939 41.36 100.939 46.27V60.26C100.939 65.17 100.939 65.38 99.3794 65.53L97.9395 65.65V66.51ZM104.669 41.65C105.469 41.49 106.309 41.33 107.149 41.33C110.269 41.33 113.359 42.77 113.359 47.47C113.359 52.17 110.32 53.81 106.95 53.81H104.669V41.64V41.65ZM130.41 67.1C135.49 67.1 140.259 63.81 140.259 56.86C140.259 51.32 136.339 47.63 130.609 47.63C125.689 47.63 120.799 51.04 120.799 57.71C120.799 64.01 125.33 67.1 130.41 67.1ZM124.479 57.23C124.479 53.37 125.92 49.04 130.08 49.04C134.76 49.04 136.56 53.17 136.56 57.95C136.56 62.21 134.72 65.7 131.08 65.7C126.55 65.7 124.47 61.69 124.47 57.23H124.479ZM155.47 57.95C156.59 55.22 158.43 50.89 159.35 49.96C159.63 49.68 160.07 49.52 160.43 49.4L161.27 49.12V48.24H153.14V49.12L155.259 49.48C155.739 49.56 156.459 49.64 156.459 50.12C156.459 51.24 152.42 61.44 151.93 62.6L147.37 51.44C147.17 50.96 146.97 50.39 146.97 50.23C146.97 49.79 147.65 49.63 148.25 49.47L149.81 49.11V48.23H140.6V49.11L141.649 49.43C143.209 49.91 143.209 50.55 143.729 51.88L148.54 62.76C149.06 64 149.74 65.53 149.74 67.18C149.74 70.95 145.78 71.8 143.54 73.76C143.26 74.12 143.019 75 142.939 75.85C143.219 75.89 143.46 75.93 143.74 75.93C147.75 75.93 149.589 71.83 151.109 68.18L155.479 57.94L155.47 57.95ZM178.52 65.54C178.36 65.62 178.199 65.7 177.799 65.7C175.599 65.7 175.6 62.69 175.6 59.88V54.13C175.6 50.04 174.639 47.63 170.069 47.63C165.829 47.63 163.269 50.32 162.069 51.92C162.349 52.64 162.669 53.04 163.109 53.53H163.43C164.2 52.04 165.19 49.51 168.39 49.51C171.39 49.51 172.12 51.8 172.12 54.45V55.38C168.6 56.42 161.669 57.99 161.669 63.21C161.669 65.42 163.669 67.1 166.629 67.1C169.749 67.1 171.23 66.26 172.52 65.41C172.92 66.25 173.64 67.1 175.68 67.1C177.36 67.1 178.2 66.46 178.72 66.1L178.52 65.54ZM172.12 57.27V64.06C171.84 64.46 170.84 65.7 169.08 65.7C166.8 65.7 165.359 64.34 165.359 62.05C165.359 58.28 169.28 57.27 171.56 57.27H172.12ZM180.52 66.51H189.45V65.65L188.52 65.53C187.04 65.37 186.72 65.37 186.72 62.6V37.61C185.04 37.61 181.8 37.97 180.52 38.26L180.64 39.15L181.24 39.07C181.32 39.07 181.599 39.03 181.799 39.03C183.239 39.03 183.24 40.87 183.24 44.05V62.61C183.24 65.38 182.879 65.38 181.479 65.54L180.52 65.66V66.52V66.51ZM211.029 50.05C208.869 48.76 207.149 47.48 207.149 45.11C207.149 42.42 209.189 40.73 211.509 40.73C216.039 40.73 216.68 44.22 217.08 46.23H218.08C218.08 45.23 218 41.97 217.68 40.69C216.64 40.05 214.639 39.4 212.149 39.4C207.909 39.4 203.819 41.45 203.819 46.35C203.819 49.36 205.94 51.85 208.22 53.09L210.79 54.5C213.91 55.91 216.35 57.91 216.35 60.84C216.35 63.97 214.309 65.78 211.549 65.78C206.059 65.78 204.59 61 204.14 58.11L202.859 58.43C202.859 60.96 203.42 63.93 204.14 65.5C205.38 66.26 207.3 67.1 210.43 67.1C214.67 67.1 219.68 65.01 219.68 59.6C219.68 54.78 216.399 53.09 213.229 51.29L211.029 50.05ZM243.339 64.82L242.379 64.94C242.179 64.98 241.9 64.98 241.74 64.98C240.62 64.98 240.62 63.34 240.62 59.92V47.64C239.22 47.64 235.579 48.72 234.419 49.09L234.58 50.05L235.459 49.81C235.539 49.81 235.82 49.77 236.02 49.77C237.14 49.77 237.14 50.89 237.14 54.83V63.94C236.54 64.38 235.019 65.23 232.979 65.23C229.009 65.23 228.169 62.9 228.169 59.69V47.65C226.769 47.65 223.13 48.73 221.97 49.1L222.129 50.06L223.009 49.82C223.089 49.82 223.369 49.78 223.569 49.78C224.689 49.78 224.689 50.9 224.689 54.84V59.9C224.689 64.28 225.25 67.12 231.18 67.12C234.26 67.12 236.139 65.92 237.339 65.11C237.539 65.99 237.9 66.64 238.22 67.12C240.3 66.72 241.779 66.4 243.589 65.76L243.35 64.83L243.339 64.82ZM245.819 66.51H254.75V65.65L253.83 65.53C252.35 65.37 252.02 65.17 252.02 62.6V51.7C252.74 50.78 254.019 49.53 256.149 49.53C260.909 49.53 260.91 53.43 260.91 57.21V62.6C260.91 65.17 260.549 65.37 259.149 65.53L258.189 65.65V66.51H267.12V65.65L266.2 65.53C264.72 65.37 264.39 65.17 264.39 62.6V56.6C264.39 51.98 264.39 47.64 258.14 47.64C255.1 47.64 252.939 49.33 252.009 50.17V47.64C250.609 47.64 246.97 48.68 245.81 49.05L245.97 50.01L246.85 49.77C246.93 49.77 247.21 49.73 247.41 49.73C248.53 49.73 248.529 50.85 248.529 54.79V62.59C248.529 65.16 248.17 65.36 246.77 65.52L245.81 65.64V66.5L245.819 66.51ZM289.939 64.74L289.22 64.86C289.06 64.9 288.74 64.9 288.58 64.9C287.5 64.9 287.259 63.98 287.259 61.85V37.6C285.579 37.6 282.339 37.96 281.049 38.25L281.169 39.13L281.77 39.05C281.85 39.05 282.13 39.01 282.33 39.01C283.77 39.01 283.77 40.86 283.77 44.03V48C282.89 47.72 281.85 47.64 280.89 47.64C276.09 47.64 269.72 50.53 269.72 58.2C269.72 64.58 274.449 67.11 278.609 67.11C281.369 67.11 283.1 65.94 284.02 65.47C284.26 65.99 284.499 66.67 284.779 67.11C286.139 66.95 288.339 66.51 290.189 65.67L289.95 64.74H289.939ZM283.779 64.34C283.299 64.62 281.82 65.22 280.62 65.22C276.58 65.22 273.41 61.88 273.41 56.79C273.41 51.7 276.05 49.04 279.77 49.04C281.49 49.04 282.809 49.56 283.779 50.45V64.34ZM309.72 65.54C309.56 65.62 309.4 65.7 309 65.7C306.8 65.7 306.799 62.69 306.799 59.88V54.13C306.799 50.04 305.84 47.63 301.27 47.63C297.03 47.63 294.47 50.32 293.27 51.92C293.55 52.64 293.87 53.04 294.31 53.53H294.629C295.389 52.04 296.389 49.51 299.589 49.51C302.589 49.51 303.319 51.8 303.319 54.45V55.38C299.799 56.42 292.87 57.99 292.87 63.21C292.87 65.42 294.87 67.1 297.83 67.1C300.95 67.1 302.429 66.26 303.709 65.41C304.119 66.25 304.83 67.1 306.87 67.1C308.56 67.1 309.39 66.46 309.91 66.1L309.709 65.54H309.72ZM303.31 57.27V64.06C303.03 64.46 302.02 65.7 300.27 65.7C297.99 65.7 296.549 64.34 296.549 62.05C296.549 58.28 300.47 57.27 302.75 57.27H303.31ZM311.669 66.51H321.24V65.65L320.319 65.53C318.199 65.37 317.879 65.37 317.879 62.6V51.82C317.879 51.22 318.519 50.25 319.799 50.25C320.359 50.25 322.52 50.93 323.08 51.13C324 50.41 324.56 49.8 325.12 48.84C324.6 48.52 323.32 47.64 322.08 47.64C320.04 47.64 318.32 49.61 317.72 50.25C317.72 49.17 317.599 48.32 317.439 47.64C316.319 47.64 313.64 48.4 311.64 49.12L311.959 50.08L312.319 49.96C312.639 49.88 312.969 49.72 313.279 49.72C314.399 49.72 314.399 50.6 314.399 54.75V62.59C314.399 65.36 314.04 65.36 312.64 65.52L311.68 65.64V66.5L311.669 66.51ZM343.06 65.54C342.9 65.62 342.739 65.7 342.339 65.7C340.139 65.7 340.14 62.69 340.14 59.88V54.13C340.14 50.04 339.179 47.63 334.609 47.63C330.369 47.63 327.799 50.32 326.609 51.92C326.889 52.64 327.209 53.04 327.649 53.53H327.97C328.73 52.04 329.73 49.51 332.93 49.51C335.93 49.51 336.66 51.8 336.66 54.45V55.38C333.14 56.42 326.209 57.99 326.209 63.21C326.209 65.42 328.209 67.1 331.169 67.1C334.289 67.1 335.77 66.26 337.06 65.41C337.46 66.25 338.18 67.1 340.22 67.1C341.9 67.1 342.739 66.46 343.259 66.1L343.06 65.54ZM336.66 57.27V64.06C336.38 64.46 335.38 65.7 333.62 65.7C331.34 65.7 329.899 64.34 329.899 62.05C329.899 58.28 333.82 57.27 336.1 57.27H336.66ZM345.299 66.51H354.229V65.65L353.31 65.53C351.83 65.37 351.5 65.09 351.5 62.6V51.9C352.1 51.22 353.429 49.53 355.819 49.53C359.949 49.53 359.95 53.55 359.95 55.12V62.6C359.95 65.09 359.589 65.37 358.189 65.53L357.229 65.65V66.51H366.16V65.65L365.24 65.53C363.76 65.37 363.439 65.09 363.439 62.6V56.93C363.439 53.52 363.4 52.75 363.24 51.47C364.36 50.3 365.639 49.54 367.439 49.54C371.879 49.54 371.879 53.37 371.879 57.02V62.61C371.879 65.1 371.52 65.38 370.12 65.54L369.16 65.66V66.52H378.089V65.66L377.169 65.54C375.689 65.38 375.359 65.1 375.359 62.61V56.05C375.359 52.07 375.359 47.66 368.799 47.66C365.879 47.66 363.67 49.47 362.72 50.27C362.28 49.11 360.84 47.66 357.47 47.66C354.31 47.66 352.43 49.51 351.5 50.39V47.66C350.1 47.66 346.459 48.7 345.299 49.07L345.459 50.03L346.339 49.79C346.419 49.79 346.699 49.75 346.899 49.75C348.019 49.75 348.02 50.87 348.02 54.81V62.61C348.02 65.1 347.659 65.38 346.259 65.54L345.299 65.66V66.52" fill="#004A90"/>
</svg>
