<svg width="444" height="96" viewBox="0 0 444 96" fill="none" xmlns="http://www.w3.org/2000/svg">
<path d="M396.33 95.23H47.6699C21.4799 95.23 0.259766 74 0.259766 47.81C0.259766 21.63 21.4899 0.400024 47.6699 0.400024H396.33C422.52 0.400024 443.75 21.62 443.75 47.81C443.75 74 422.53 95.23 396.34 95.23H396.33Z" fill="#65106B"/>
<path d="M47.6606 92.49C22.9906 92.49 2.98047 72.49 2.98047 47.81C2.98047 23.13 22.9806 3.13 47.6606 3.13H149.021C173.691 3.13 193.701 23.13 193.701 47.81C193.701 72.49 173.701 92.49 149.021 92.49H47.6606Z" fill="white"/>
<path d="M46.0606 22.9501C32.2706 22.9801 21.1205 34.1901 21.1505 47.9701C21.1805 60.7301 30.8306 71.4201 43.5206 72.7401V54.5501C39.8206 53.1501 37.9604 49.0101 39.3604 45.3101C40.7604 41.6101 44.9006 39.7501 48.6006 41.1501C52.3006 42.5501 54.1603 46.6901 52.7603 50.3901C52.0303 52.3101 50.5206 53.8201 48.6006 54.5501V72.7401C62.3106 71.3101 72.2704 59.0301 70.8404 45.3101C69.5104 32.6101 58.8204 22.9601 46.0504 22.9401" fill="#00A9ED"/>
<path d="M107.651 48.16C104.841 46.09 101.741 44.44 98.4614 43.25C94.2614 41.54 90.6016 39.98 90.6016 37.26C90.5916 35.99 91.2014 34.8 92.2314 34.07C93.4714 33.16 94.9812 32.69 96.5112 32.75C100.001 32.93 103.331 34.24 106.011 36.49L107.021 37.5L111.771 28.7L111.231 28.16C107.241 24.52 101.991 22.59 96.5913 22.79C92.2813 22.7 88.0715 24.16 84.7515 26.92C81.6815 29.52 79.9214 33.34 79.9214 37.35C79.8514 41.15 81.5813 44.76 84.5913 47.08C87.3513 49.21 90.4217 50.89 93.7017 52.07C98.0717 54.02 101.812 55.57 101.812 58.46C101.812 60.64 100.332 63.05 96.2017 63.05C92.1817 62.79 88.3613 61.17 85.3813 58.46L84.4517 57.52L78.6914 65.63L79.2417 66.25C80.5417 67.58 82.0013 68.73 83.6113 69.68C87.4113 71.83 91.7013 72.96 96.0713 72.95C100.471 73.13 104.772 71.6 108.062 68.67C110.882 65.97 112.462 62.22 112.432 58.31C112.532 54.38 110.772 50.63 107.682 48.19" fill="#0D1963"/>
<path d="M150 50.33C148.93 48.66 147.46 47.3 145.72 46.36C148.61 43.96 150.24 40.38 150.16 36.63C150.28 32.87 148.64 29.27 145.72 26.9C142.52 24.56 138.62 23.38 134.66 23.55H116.99V72.22H134.9C139.14 72.36 143.32 71.13 146.81 68.72C150.27 66.09 152.22 61.93 152.03 57.58C152.05 55.02 151.35 52.51 150 50.34M135.52 63.11H127.27V32.67H134.59C137.11 32.36 139.4 34.15 139.71 36.67C139.75 37 139.76 37.33 139.72 37.66C140.02 40.08 138.3 42.28 135.88 42.58C135.47 42.63 135.06 42.62 134.66 42.56H132.17V51.5H135.52C137.16 51.4 138.78 51.99 139.96 53.14C141.04 54.17 141.6 55.62 141.51 57.11C141.76 60.17 139.48 62.86 136.42 63.11C136.12 63.13 135.81 63.13 135.51 63.11" fill="#0D1963"/>
<path d="M167.761 23.47H156.781V72.21H167.761V23.47Z" fill="#0D1963"/>
<path d="M220.971 64.5901C222.151 65.3901 223.46 65.9901 224.84 66.3501C226.44 66.7401 228.09 66.9201 229.73 66.8901C231.54 66.9401 233.301 66.3001 234.661 65.1001C236.021 63.8101 236.751 61.9801 236.641 60.1101V56.8401C235.621 57.6901 234.49 58.3901 233.28 58.9201C231.74 59.5101 230.101 59.7801 228.451 59.7201C226.471 59.7601 224.491 59.3901 222.661 58.6301C221.021 57.9401 219.55 56.9001 218.34 55.5901C217.13 54.2601 216.201 52.6901 215.621 50.9801C214.981 49.0901 214.67 47.1101 214.69 45.1201C214.68 42.9701 215.081 40.8401 215.871 38.8501C216.631 36.9301 217.79 35.1901 219.26 33.7301C220.79 32.2401 222.611 31.0801 224.601 30.3101C226.851 29.4501 229.231 29.0301 231.641 29.0601C234.051 29.0401 236.46 29.2601 238.84 29.7001C240.65 30.0301 242.431 30.4801 244.181 31.0401V60.2201C244.211 62.1301 243.84 64.0301 243.09 65.7901C242.4 67.3601 241.37 68.7601 240.08 69.8801C238.75 71.0201 237.2 71.8801 235.54 72.4101C233.7 73.0001 231.781 73.2901 229.851 73.2701C228.451 73.2801 227.051 73.2101 225.661 73.0501C224.561 72.9201 223.47 72.7201 222.4 72.4401C221.5 72.2001 220.62 71.8801 219.78 71.4801C219 71.1001 218.26 70.6501 217.57 70.1401L220.96 64.5701L220.971 64.5901ZM236.65 36.2501C236.05 36.0301 235.43 35.8701 234.8 35.7701C233.8 35.6401 232.8 35.5901 231.79 35.6101C230.41 35.5801 229.03 35.8401 227.76 36.3801C226.65 36.8601 225.65 37.5601 224.82 38.4301C224.01 39.2801 223.391 40.3001 222.991 41.4001C222.581 42.5401 222.38 43.7401 222.38 44.9501C222.31 47.0301 222.92 49.0701 224.11 50.7701C225.45 52.4401 227.541 53.3301 229.681 53.1401C231.541 53.2701 233.381 52.7501 234.891 51.6701C236.161 50.4601 236.8 48.7401 236.65 47.0001V36.2501Z" fill="white"/>
<path d="M278.231 55.3801L277.171 56.4401C276.421 57.1501 275.581 57.7601 274.681 58.2601C273.371 59.0001 271.971 59.5801 270.521 59.9901C268.551 60.5401 266.521 60.8001 264.471 60.7601C262.241 60.7901 260.021 60.3801 257.951 59.5401C254.111 58.0201 251.111 54.9201 249.731 51.0301C248.961 48.9001 248.581 46.6401 248.611 44.3801C248.591 42.2701 248.971 40.1701 249.731 38.2001C250.441 36.3601 251.511 34.6701 252.861 33.2401C254.221 31.8201 255.851 30.6901 257.661 29.9101C259.611 29.0801 261.721 28.6701 263.841 28.6901C266.241 28.6201 268.621 29.1301 270.781 30.1901C272.591 31.1201 274.161 32.4701 275.351 34.1201C276.521 35.7801 277.371 37.6501 277.841 39.6201C278.351 41.6701 278.611 43.7801 278.611 45.8901V46.9801H256.221C256.201 48.0301 256.461 49.0601 256.961 49.9901C257.441 50.8801 258.101 51.6601 258.881 52.2901C259.681 52.9401 260.591 53.4401 261.571 53.7601C262.531 54.0901 263.531 54.2701 264.541 54.2701C266.811 54.3101 269.061 53.8401 271.131 52.8901C271.801 52.5901 272.441 52.2001 273.021 51.7401C273.511 51.3301 273.881 51.0001 274.141 50.7501L278.231 55.3601V55.3801ZM270.871 41.5601C270.871 40.7701 270.711 39.9901 270.421 39.2601C270.121 38.4901 269.671 37.7801 269.111 37.1801C268.481 36.5301 267.731 36.0101 266.901 35.6501C265.931 35.2301 264.881 35.0201 263.831 35.0401C262.701 35.0201 261.581 35.2301 260.531 35.6501C259.641 36.0101 258.831 36.5301 258.131 37.1801C257.511 37.7701 257.011 38.4801 256.661 39.2601C256.331 39.9801 256.151 40.7701 256.151 41.5601H270.871Z" fill="white"/>
<path d="M282.84 29.72H290.07L290.26 33.11C290.69 32.64 291.15 32.19 291.64 31.77C292.23 31.26 292.87 30.82 293.56 30.46C294.36 30.03 295.21 29.7 296.09 29.47C297.13 29.2 298.21 29.07 299.29 29.09C302.51 28.87 305.65 30.1 307.86 32.45C309.93 35 310.98 38.22 310.8 41.5V59.74H303.25V41.57C303.35 39.94 302.79 38.33 301.68 37.12C300.6 36.06 299.13 35.49 297.62 35.55C296.63 35.55 295.65 35.75 294.74 36.16C293.86 36.55 293.07 37.13 292.44 37.85C291.79 38.59 291.28 39.45 290.94 40.38C290.57 41.37 290.39 42.42 290.4 43.48V59.73H282.85V29.72H282.84Z" fill="white"/>
<path d="M344.722 55.3801L343.662 56.4401C342.912 57.1501 342.072 57.7601 341.172 58.2601C339.862 59.0001 338.461 59.5801 337.011 59.9901C335.041 60.5401 333.012 60.8001 330.962 60.7601C328.722 60.7901 326.502 60.3801 324.432 59.5401C320.592 58.0201 317.592 54.9201 316.212 51.0301C315.442 48.9001 315.061 46.6401 315.091 44.3801C315.071 42.2701 315.452 40.1701 316.212 38.2001C316.922 36.3601 317.991 34.6701 319.341 33.2401C320.701 31.8201 322.332 30.6901 324.142 29.9101C326.092 29.0801 328.201 28.6701 330.321 28.6901C332.721 28.6201 335.101 29.1301 337.261 30.1901C339.071 31.1201 340.642 32.4701 341.832 34.1201C343.002 35.7801 343.851 37.6501 344.321 39.6201C344.831 41.6701 345.091 43.7801 345.091 45.8901V46.9801H322.702C322.682 48.0301 322.942 49.0601 323.442 49.9901C323.922 50.8801 324.582 51.6601 325.362 52.2901C326.162 52.9401 327.071 53.4401 328.051 53.7601C329.011 54.0901 330.012 54.2701 331.022 54.2701C333.292 54.3101 335.542 53.8401 337.612 52.8901C338.282 52.5901 338.922 52.2001 339.502 51.7401C339.992 51.3301 340.362 51.0001 340.622 50.7501L344.712 55.3601L344.722 55.3801ZM337.362 41.5601C337.362 40.7701 337.202 39.9901 336.912 39.2601C336.612 38.4901 336.162 37.7801 335.602 37.1801C334.972 36.5301 334.222 36.0101 333.392 35.6501C332.422 35.2301 331.371 35.0201 330.321 35.0401C329.191 35.0201 328.072 35.2301 327.022 35.6501C326.132 36.0101 325.322 36.5301 324.622 37.1801C324.002 37.7701 323.502 38.4801 323.152 39.2601C322.822 39.9801 322.642 40.7701 322.642 41.5601H337.362Z" fill="white"/>
<path d="M349.32 29.7201H356.55L356.741 33.4901C357.151 32.9901 357.58 32.5201 358.05 32.0801C358.62 31.5401 359.26 31.0701 359.94 30.6701C360.74 30.2101 361.591 29.8501 362.471 29.5801C363.541 29.2701 364.65 29.1201 365.76 29.1301C366.41 29.1301 367.07 29.1701 367.71 29.2601C368.31 29.3501 368.901 29.5001 369.471 29.7101L367.931 36.8101C367.431 36.6001 366.9 36.4501 366.36 36.3601C365.74 36.2701 365.101 36.2201 364.471 36.2301C363.471 36.2301 362.47 36.4001 361.53 36.7401C360.63 37.0601 359.801 37.5601 359.101 38.2101C357.641 39.5901 356.83 41.5101 356.86 43.5201V59.7101H349.311V29.7001L349.32 29.7201Z" fill="white"/>
<path d="M389.25 56.91C388.22 58.05 386.96 58.94 385.54 59.53C383.79 60.32 381.89 60.71 379.97 60.68C378.72 60.68 377.48 60.48 376.29 60.1C375.08 59.72 373.96 59.13 372.96 58.34C371.93 57.52 371.099 56.48 370.529 55.3C369.879 53.94 369.57 52.45 369.6 50.95C369.57 49.37 369.9 47.81 370.56 46.38C371.18 45.06 372.1 43.9 373.25 42.99C374.49 42.03 375.9 41.32 377.41 40.91C379.16 40.42 380.969 40.19 382.779 40.21C383.379 40.21 384.039 40.22 384.759 40.24C385.479 40.26 386.19 40.29 386.87 40.34L389.24 40.47V39.77C389.29 38.37 388.61 37.04 387.45 36.25C386.07 35.34 384.429 34.89 382.779 34.97C381.039 34.9 379.29 35.19 377.66 35.8C376.48 36.3 375.35 36.9 374.27 37.59L370.819 32.47C371.419 32.04 372.1 31.61 372.87 31.16C373.73 30.67 374.63 30.26 375.56 29.94C376.72 29.54 377.909 29.24 379.109 29.04C380.659 28.79 382.24 28.67 383.81 28.69C385.58 28.67 387.339 28.94 389.029 29.49C390.489 29.97 391.849 30.73 393.029 31.73C394.129 32.68 395.009 33.86 395.589 35.19C396.189 36.57 396.5 38.06 396.49 39.57V59.73H389.45L389.25 56.91ZM389.25 46.16L387.009 46.03C386.409 45.99 385.78 45.96 385.12 45.93C384.46 45.91 383.889 45.9 383.419 45.9C381.589 45.71 379.759 46.23 378.299 47.34C377.369 48.18 376.84 49.38 376.83 50.63C376.78 51.8 377.29 52.92 378.21 53.64C379.4 54.45 380.84 54.83 382.27 54.73C384.01 54.73 385.699 54.14 387.069 53.07C387.699 52.57 388.23 51.97 388.64 51.28C389.04 50.62 389.25 49.87 389.25 49.11V46.16Z" fill="white"/>
<path d="M402.17 17.05H409.72V59.7301H402.17V17.05Z" fill="white"/>
<path d="M297.66 68.89H299.97V80.3H297.66V68.89Z" fill="white"/>
<path d="M304.379 68.89H306.709L312.639 77V68.89H314.899V80.3H312.619L306.639 72.09V80.3H304.379V68.89Z" fill="white"/>
<path d="M320.201 77.08C320.371 77.26 320.541 77.43 320.721 77.59C320.931 77.77 321.16 77.94 321.4 78.08C321.67 78.24 321.95 78.37 322.25 78.46C322.59 78.57 322.95 78.62 323.3 78.61C323.87 78.66 324.441 78.49 324.911 78.15C325.241 77.88 325.441 77.47 325.431 77.04C325.431 76.82 325.38 76.6 325.28 76.4C325.16 76.19 324.99 76.02 324.78 75.91C324.49 75.74 324.191 75.62 323.871 75.53C323.411 75.4 322.95 75.29 322.48 75.21C321.97 75.12 321.481 74.96 321.021 74.73C320.641 74.54 320.29 74.27 320 73.96C319.74 73.67 319.531 73.34 319.391 72.98C319.251 72.63 319.181 72.25 319.181 71.88C319.181 71.45 319.26 71.03 319.44 70.63C319.62 70.23 319.89 69.87 320.23 69.59C320.62 69.27 321.081 69.02 321.561 68.86C322.171 68.67 322.8 68.57 323.44 68.59C324 68.59 324.561 68.65 325.101 68.8C325.511 68.91 325.901 69.07 326.271 69.28C326.531 69.43 326.78 69.61 327 69.82C327.17 70 327.291 70.12 327.371 70.2L325.851 71.53C325.791 71.48 325.691 71.4 325.561 71.28C325.411 71.15 325.241 71.03 325.061 70.93C324.831 70.8 324.591 70.7 324.331 70.62C324.021 70.52 323.7 70.48 323.38 70.48C323.1 70.48 322.82 70.51 322.55 70.6C322.34 70.67 322.141 70.77 321.971 70.91C321.831 71.02 321.71 71.16 321.63 71.33C321.56 71.47 321.521 71.61 321.521 71.77C321.521 71.96 321.561 72.15 321.641 72.32C321.741 72.5 321.871 72.65 322.041 72.76C322.281 72.92 322.54 73.05 322.82 73.13C323.23 73.26 323.65 73.36 324.07 73.43C324.54 73.52 325.001 73.66 325.451 73.85C325.871 74.02 326.271 74.26 326.621 74.56C326.961 74.85 327.231 75.22 327.431 75.62C327.641 76.09 327.75 76.6 327.73 77.12C327.73 77.6 327.62 78.08 327.4 78.5C327.17 78.93 326.86 79.31 326.48 79.61C326.07 79.94 325.59 80.2 325.09 80.36C324.52 80.54 323.931 80.63 323.331 80.63C322.771 80.63 322.21 80.57 321.67 80.42C321.21 80.3 320.761 80.12 320.331 79.9C319.961 79.71 319.62 79.48 319.3 79.21C319.04 78.99 318.8 78.75 318.57 78.49L320.201 77.1V77.08Z" fill="white"/>
<path d="M331.93 68.89H334.25V75.72C334.25 76.12 334.29 76.51 334.39 76.89C334.47 77.22 334.629 77.52 334.839 77.78C335.059 78.04 335.349 78.23 335.669 78.35C336.489 78.61 337.38 78.61 338.2 78.35C338.52 78.24 338.809 78.04 339.029 77.78C339.239 77.52 339.399 77.22 339.479 76.89C339.579 76.51 339.62 76.11 339.62 75.72V68.89H341.93V76.09C341.93 76.7 341.82 77.3 341.6 77.87C341.38 78.41 341.049 78.9 340.629 79.3C340.179 79.72 339.64 80.05 339.06 80.26C337.69 80.73 336.189 80.73 334.819 80.26C334.239 80.05 333.7 79.72 333.25 79.3C332.82 78.9 332.489 78.41 332.279 77.87C332.059 77.3 331.94 76.7 331.95 76.09L331.93 68.89Z" fill="white"/>
<path d="M346.23 68.89H350.291C350.961 68.87 351.62 68.98 352.25 69.21C352.74 69.39 353.18 69.68 353.55 70.04C354.15 70.64 354.49 71.44 354.51 72.29C354.52 72.96 354.35 73.62 354 74.2C353.63 74.79 353.091 75.25 352.451 75.53L355.28 80.31H352.67L350.19 75.81H348.451V80.31H346.23V68.89ZM350.311 74.02C350.811 74.05 351.301 73.88 351.681 73.54C352.001 73.24 352.17 72.82 352.17 72.38C352.18 71.92 352.001 71.49 351.661 71.18C351.291 70.86 350.81 70.7 350.32 70.72H348.471V74.02H350.32H350.311Z" fill="white"/>
<path d="M362.351 68.89H364.741L369.38 80.3H366.811L365.75 77.41H361.201L360.141 80.3H357.721L362.36 68.89H362.351ZM365.09 75.63L363.471 71.2L361.84 75.63H365.09Z" fill="white"/>
<path d="M372.67 68.89H375L380.93 77V68.89H383.19V80.3H380.91L374.92 72.09V80.3H372.66V68.89H372.67Z" fill="white"/>
<path d="M398.371 78.2101C398.151 78.5101 397.9 78.7801 397.61 79.0101C397.26 79.3001 396.87 79.56 396.46 79.77C396 80.01 395.51 80.2 395 80.34C394.46 80.49 393.9 80.5601 393.34 80.5601C392.48 80.5701 391.63 80.4201 390.82 80.1201C390.09 79.8401 389.42 79.4201 388.86 78.8701C388.31 78.3401 387.871 77.7001 387.581 77.0001C386.971 75.4901 386.971 73.8001 387.581 72.2901C387.881 71.5701 388.321 70.92 388.871 70.38C389.441 69.82 390.12 69.3801 390.86 69.0801C391.67 68.7501 392.541 68.5901 393.411 68.6001C393.971 68.6001 394.53 68.6501 395.07 68.7801C395.54 68.8901 396 69.05 396.44 69.27C396.83 69.46 397.2 69.7101 397.53 70.0001C397.84 70.2701 398.121 70.5701 398.371 70.9001L396.741 72.2501C396.371 71.7501 395.901 71.3201 395.371 70.9801C394.781 70.6401 394.101 70.4701 393.411 70.5001C391.791 70.4701 390.33 71.49 389.8 73.02C389.62 73.52 389.53 74.05 389.53 74.59C389.53 75.11 389.62 75.64 389.8 76.13C389.97 76.59 390.231 77.0201 390.561 77.38C390.891 77.7301 391.301 78.0201 391.741 78.2101C392.231 78.4201 392.761 78.53 393.291 78.52C393.751 78.52 394.201 78.4701 394.641 78.3501C394.981 78.2501 395.301 78.1101 395.601 77.9201C395.841 77.7701 396.06 77.59 396.26 77.38C396.44 77.1901 396.6 77.0301 396.75 76.8901L398.351 78.2101H398.371Z" fill="white"/>
<path d="M401.91 68.89H409.85V70.79H404.24V73.48H408.37V75.4H404.24V78.38H410.27V80.31H401.92V68.9L401.91 68.89Z" fill="white"/>
</svg>
