<svg width="181" height="146" viewBox="0 0 181 146" fill="none" xmlns="http://www.w3.org/2000/svg">
<path d="M0.529785 0.599976C60.4298 0.599976 120.33 0.599976 180.23 0.599976C180.25 1.47998 180.27 2.35998 180.27 3.23998C180.27 49.77 180.27 96.3 180.27 142.83C180.27 143.23 180.23 143.63 180.27 144.02C180.35 144.76 180 144.99 179.33 144.99C178.11 144.99 176.9 145.03 175.68 145.03C168.35 145.03 161.01 145.03 153.68 145.03C124.47 145.03 95.25 145.03 66.04 145.03C44.95 145.03 23.86 145.03 2.77002 145.03C1.25002 145.03 0.490234 144.267 0.490234 142.74C0.490234 97.73 0.490234 52.72 0.490234 7.71998C0.490234 5.34998 0.51002 2.96998 0.52002 0.599976H0.529785ZM73.8799 17.84C72.1099 17.84 70.3501 17.85 68.5801 17.84C67.7401 17.84 67.2802 18.16 66.9502 18.97C63.1902 28.35 59.3999 37.71 55.6099 47.07C55.2299 48.02 55.3298 48.22 56.3398 48.22C59.8098 48.22 63.28 48.2 66.75 48.24C67.59 48.24 68.0198 47.91 68.3398 47.18C69.9898 43.35 71.6601 39.53 73.3301 35.72C73.4701 35.41 73.4802 34.92 73.9702 34.95C74.3702 34.98 74.3898 35.43 74.5098 35.72C76.1898 39.54 77.87 43.35 79.52 47.18C79.86 47.97 80.3502 48.25 81.2002 48.24C84.6402 48.2 88.08 48.23 91.52 48.22C92.53 48.22 92.6198 48.07 92.2598 47.16C88.4598 37.77 84.6499 28.38 80.8799 18.97C80.5499 18.16 80.08 17.83 79.25 17.84C77.45 17.86 75.6599 17.84 73.8599 17.84H73.8799ZM130.94 17.84C129.21 17.84 127.47 17.87 125.74 17.83C124.75 17.8 124.23 18.18 123.85 19.13C120.11 28.48 116.32 37.81 112.54 47.14C112.2 47.97 112.36 48.22 113.32 48.22C116.82 48.22 120.32 48.21 123.82 48.24C124.58 48.24 124.99 47.93 125.28 47.26C126.92 43.46 128.57 39.67 130.24 35.88C130.39 35.54 130.35 34.95 130.81 34.94C131.3 34.93 131.36 35.51 131.55 35.88C131.58 35.93 131.6 35.99 131.62 36.05C133.25 39.75 134.88 43.46 136.5 47.17C136.79 47.84 137.17 48.25 137.99 48.25C141.52 48.22 145.05 48.25 148.58 48.23C149.5 48.23 149.59 48.07 149.23 47.19C145.43 37.8 141.62 28.41 137.85 19C137.51 18.15 137.03 17.82 136.15 17.84C134.42 17.88 132.68 17.85 130.95 17.85L130.94 17.84ZM102.7 17.82C98.2002 17.82 93.6899 17.82 89.1899 17.82C87.9199 17.82 87.8701 17.88 87.8701 19.18C87.8701 21.49 87.8701 23.8 87.8701 26.12C87.8701 27.31 87.9398 27.4 89.0898 27.39C91.1598 27.37 93.22 27.32 95.29 27.3C96.37 27.3 96.5 27.46 96.5 28.51C96.48 34.69 96.47 40.86 96.46 47.04C96.46 48.1 96.5899 48.21 97.6099 48.15C98.0299 48.12 98.4601 48.11 98.8901 48.11C102.02 48.11 105.16 48.11 108.29 48.15C108.95 48.15 109.17 47.9 109.13 47.3C109.11 47.06 109.13 46.81 109.13 46.57C109.09 40.64 109.21 34.7 109.04 28.77C109 27.52 109.14 27.43 110.39 27.42C112.46 27.42 114.53 27.4 116.6 27.42C117.31 27.42 117.64 27.21 117.63 26.42C117.58 23.99 117.6 21.55 117.59 19.12C117.59 17.9 117.52 17.82 116.3 17.82C111.77 17.82 107.23 17.82 102.7 17.82ZM45.77 17.82C41.21 17.82 36.6401 17.82 32.0801 17.82C31.4001 17.82 30.8602 17.87 30.9302 18.78C31.1102 21.24 30.99 23.71 31 26.17C31 27.24 31.0899 27.38 32.1899 27.38C34.0999 27.38 36.0202 27.32 37.9302 27.29C39.4902 27.27 39.51 27.34 39.5 28.86C39.48 34.97 39.4802 41.09 39.4702 47.2C39.4702 47.87 39.6902 48.18 40.4302 48.17C43.9302 48.12 47.4199 48.12 50.9199 48.12C52.1399 48.12 52.1501 48.14 52.1401 46.94C52.1401 40.83 52.1399 34.71 52.1299 28.6C52.1299 27.47 52.1601 27.42 53.3101 27.42C55.4401 27.42 57.5702 27.42 59.7002 27.42C60.2902 27.42 60.6799 27.3 60.6699 26.56C60.6299 24.07 60.6301 21.57 60.6201 19.08C60.6201 17.94 60.5199 17.83 59.3599 17.83C54.8299 17.83 50.2898 17.83 45.7598 17.83L45.77 17.82ZM134.75 77.9C133.32 77.9 131.89 77.9 130.46 77.9C129.76 77.9 129.06 77.89 128.36 77.9C128.04 77.9 127.6 77.87 127.61 78.35C127.61 78.77 128.01 78.84 128.35 78.88C128.65 78.91 128.96 78.91 129.26 78.93C131.51 79.1 132.46 79.97 132.62 82.21C132.91 86.22 132.68 90.24 132.74 94.26C132.75 94.89 132.36 95.18 131.87 95.41C125.12 98.66 117.23 96.88 113.45 89.7C110.23 83.59 110.07 77.22 112.4 70.79C113.35 68.17 114.97 65.96 117.27 64.32C122.5 60.59 132.94 60.85 136.3 70.49C136.42 70.83 136.56 71.17 136.72 71.5C136.83 71.72 137.03 71.89 137.31 71.8C137.55 71.73 137.62 71.52 137.63 71.3C137.63 71.06 137.63 70.81 137.63 70.57C137.44 68.21 137.25 65.84 137.06 63.48C136.99 62.66 136.94 61.84 136.87 61.02C136.84 60.73 136.72 60.48 136.39 60.44C136.05 60.41 135.9 60.65 135.81 60.92C135.75 61.09 135.74 61.28 135.7 61.46C135.48 62.43 134.86 62.86 133.9 62.61C133.23 62.43 132.56 62.2 131.91 61.94C127.65 60.24 123.31 59.9 118.85 61.06C109.31 63.54 103.62 73.7 105.02 82.81C106.06 89.54 109.58 94.64 116.08 97.1C123.14 99.78 130.17 99.22 136.99 96C137.6 95.71 137.83 95.31 137.82 94.64C137.8 91.44 137.8 88.25 137.82 85.05C137.82 84.05 137.8 83.03 137.93 82.04C138.21 79.82 138.91 79.17 141.12 78.9C141.24 78.89 141.36 78.88 141.48 78.85C141.73 78.79 141.95 78.67 141.93 78.37C141.91 78.12 141.72 77.99 141.5 77.96C141.2 77.92 140.9 77.9 140.59 77.9C138.64 77.9 136.69 77.9 134.75 77.9ZM70.3198 97.91C71.9298 97.91 73.5402 97.91 75.1602 97.91C75.7102 97.91 76.2598 97.91 76.7998 97.9C77.0398 97.9 77.3299 97.9 77.3799 97.58C77.4399 97.24 77.1799 97.1 76.9199 96.99C76.7799 96.93 76.63 96.91 76.48 96.88C74.75 96.55 73.5101 95.55 72.6401 94.05C72.1201 93.15 71.6898 92.21 71.2998 91.26C67.1598 81.29 63.0099 71.32 58.8599 61.35C58.6899 60.94 58.58 60.42 58 60.41C57.42 60.41 57.2799 60.91 57.1099 61.32C53.6099 69.52 50.1301 77.72 46.6201 85.91C45.4501 88.65 44.4302 91.46 42.9702 94.07C42.1602 95.52 41.0401 96.56 39.3501 96.88C39.2601 96.9 39.1701 96.91 39.0801 96.94C38.8401 97.02 38.6201 97.15 38.6401 97.45C38.6601 97.75 38.8801 97.86 39.1401 97.88C39.3801 97.9 39.6301 97.91 39.8701 97.91C42.8501 97.91 45.8301 97.91 48.8101 97.91C48.9901 97.91 49.1799 97.91 49.3599 97.91C49.6299 97.89 49.9602 97.91 49.9902 97.54C50.0102 97.21 49.7202 97.09 49.4502 97.02C49.1302 96.94 48.79 96.9 48.46 96.84C46 96.41 45.2499 95.24 46.1299 92.9C46.9699 90.65 47.9899 88.47 48.9199 86.25C49.1399 85.72 49.5398 85.54 50.0698 85.54C54.2698 85.54 58.4699 85.54 62.6699 85.54C63.3199 85.54 63.6601 85.84 63.8901 86.42C64.2401 87.3 64.6498 88.14 65.0098 89.02C65.6598 90.59 66.4398 92.12 66.7798 93.8C67.1198 95.43 66.4198 96.45 64.7998 96.8C64.4098 96.88 64.0199 96.92 63.6299 97.01C63.3899 97.06 63.1301 97.16 63.1401 97.47C63.1601 97.83 63.4602 97.88 63.7402 97.9C63.9802 97.92 64.2302 97.92 64.4702 97.92C66.4202 97.92 68.3601 97.92 70.3101 97.92L70.3198 97.91ZM162.66 72.45C162.66 54.86 162.66 37.27 162.66 19.68C162.66 19.38 162.64 19.07 162.66 18.77C162.7 18.1 162.38 17.82 161.73 17.85C161.37 17.87 161 17.88 160.64 17.9C160.03 17.95 159.8 18.29 159.86 18.89C159.92 19.56 159.96 20.23 159.96 20.89C159.96 54.92 159.96 88.94 159.96 122.97C159.96 123.64 159.93 124.31 159.88 124.98C159.74 126.96 159.91 127.12 161.91 126.95C162.45 126.9 162.68 126.67 162.67 126.15C162.67 125.78 162.67 125.42 162.67 125.05C162.67 107.52 162.67 89.99 162.67 72.46L162.66 72.45ZM20.6499 72.3C20.6499 55.44 20.6499 38.59 20.6499 21.73C20.6499 20.82 20.6002 19.9 20.7002 18.99C20.8002 18.13 20.4999 17.79 19.6699 17.84C19.3699 17.86 19.0598 17.84 18.7598 17.85C18.1898 17.86 17.95 18.16 17.98 18.73C18.02 19.37 18.0601 20.01 18.0601 20.64C18.0601 41.66 18.0801 62.69 18.0601 83.71C18.0501 97.8 18.1602 111.88 17.9902 125.97C17.9902 126.61 18.1999 126.96 18.8799 126.93C19.1799 126.92 19.49 126.91 19.79 126.93C20.49 126.98 20.8 126.65 20.77 125.96C20.72 124.87 20.6602 123.77 20.6602 122.68C20.6602 105.88 20.6602 89.09 20.6602 72.29L20.6499 72.3ZM87.8599 79.51C87.8599 79.51 87.8498 79.51 87.8398 79.51C87.8398 83.86 87.8901 88.22 87.8301 92.57C87.7801 95.83 87.0098 96.61 83.7998 97C83.7098 97.01 83.6198 97.01 83.5298 97.03C83.1998 97.1 82.6699 96.97 82.6899 97.49C82.7099 97.98 83.2101 97.88 83.5601 97.92C83.6501 97.92 83.7401 97.92 83.8301 97.92C88.2101 97.92 92.6 97.92 96.98 97.92C97.19 97.92 97.4101 97.92 97.6201 97.9C97.8401 97.88 98.0598 97.8 98.0698 97.54C98.0698 97.28 97.8899 97.16 97.6699 97.12C97.2499 97.04 96.8302 96.98 96.4102 96.93C93.9102 96.64 92.9602 95.73 92.9502 93.24C92.9102 84.17 92.9102 75.1 92.9502 66.03C92.9602 63.41 93.87 62.51 96.48 62.19C96.66 62.17 96.8498 62.18 97.0298 62.14C97.3898 62.07 97.9998 62.31 98.0098 61.78C98.0298 61.11 97.3599 61.34 96.9399 61.27C96.8499 61.25 96.7599 61.27 96.6699 61.27C92.3499 61.27 88.0302 61.27 83.7002 61.27C83.5202 61.27 83.3299 61.27 83.1499 61.29C82.9299 61.31 82.7102 61.38 82.6802 61.64C82.6502 61.95 82.8901 62.07 83.1401 62.1C83.7401 62.18 84.3502 62.2 84.9502 62.3C86.6902 62.58 87.5302 63.46 87.7002 65.19C87.7902 66.07 87.8501 66.95 87.8501 67.83C87.8701 71.73 87.8501 75.62 87.8501 79.52L87.8599 79.51ZM140 118.81C140 121.12 140.13 123.43 139.97 125.74C139.93 126.34 139.95 126.94 140.81 126.94C143.15 126.94 145.49 126.94 147.83 126.94C148.36 126.94 148.62 126.7 148.61 126.17C148.61 125.9 148.59 125.62 148.61 125.35C148.67 124.58 148.36 124.24 147.56 124.26C146.35 124.3 145.13 124.26 143.91 124.26C143.23 124.26 142.9 123.99 142.93 123.28C142.96 122.64 142.98 122 142.93 121.37C142.86 120.51 143.29 120.23 144.06 120.23C145.15 120.23 146.25 120.19 147.34 120.23C148.19 120.26 148.46 119.87 148.43 119.07C148.4 118.33 148.44 117.64 147.38 117.68C146.23 117.72 145.07 117.68 143.91 117.69C143.23 117.69 142.9 117.43 142.93 116.71C142.96 116.01 142.98 115.31 142.93 114.61C142.87 113.77 143.23 113.46 144.04 113.48C145.26 113.5 146.47 113.46 147.69 113.48C148.35 113.48 148.65 113.21 148.61 112.55C148.59 112.28 148.59 112 148.61 111.73C148.65 111.06 148.31 110.81 147.67 110.81C145.39 110.81 143.11 110.81 140.83 110.81C140.21 110.81 139.99 111.1 139.99 111.72C140.01 114.09 139.99 116.46 139.99 118.83L140 118.81ZM106.24 110.8C106.24 110.8 106.24 110.8 106.24 110.79C105.27 110.79 104.29 110.79 103.32 110.79C102.25 110.8 102.22 110.9 102.22 111.94C102.24 116.53 102.37 121.12 102.15 125.71C102.1 126.78 102.21 126.92 103.28 126.94C103.49 126.94 103.71 126.92 103.92 126.94C104.79 127.03 105.15 126.62 105.12 125.78C105.07 124.41 105.04 123.05 105.02 121.68C105.01 120.39 105.18 120.23 106.51 120.23C107.45 120.23 108.4 120.23 109.34 120.28C109.85 120.3 110.08 120.11 110.07 119.61C110.07 119.34 110.05 119.06 110.07 118.79C110.15 117.97 109.79 117.62 108.96 117.65C107.99 117.69 107.01 117.65 106.04 117.65C105.33 117.65 104.97 117.36 105.01 116.6C105.04 115.93 105.04 115.26 105 114.59C104.94 113.74 105.35 113.44 106.14 113.45C107.2 113.47 108.27 113.43 109.33 113.45C110.2 113.47 110.32 112.96 110.29 112.27C110.26 111.58 110.44 110.78 109.34 110.78C108.31 110.78 107.27 110.78 106.24 110.78V110.8ZM31.9902 118.77C31.9902 121.11 32.02 123.46 31.98 125.8C31.96 126.68 32.2902 126.98 33.1602 126.95C34.8302 126.9 36.5102 126.94 38.1802 126.94C39.9402 126.94 39.9098 126.94 39.8198 125.2C39.7798 124.48 39.46 124.24 38.79 124.26C37.97 124.28 37.1501 124.26 36.3301 124.26C34.9401 124.26 34.8701 124.18 34.8701 122.83C34.8701 119.21 34.8499 115.59 34.8799 111.97C34.8799 111.11 34.59 110.7 33.71 110.8C33.56 110.82 33.41 110.8 33.25 110.8C32.07 110.8 31.9902 110.87 31.9902 112.03C31.9902 114.28 31.9902 116.53 31.9902 118.79V118.77ZM71.8799 118.86C71.8799 118.86 71.8398 118.86 71.8198 118.86C71.8198 116.43 71.8198 114 71.8198 111.57C71.8198 111.35 71.8399 111.1 71.6299 111C70.9399 110.65 70.1902 110.71 69.4902 110.88C68.8602 111.03 69.02 111.66 69.02 112.12C69.01 116.62 69.02 121.12 69.02 125.62C69.02 126.88 69.0801 126.94 70.3701 126.95C70.5201 126.95 70.6801 126.94 70.8301 126.95C71.6201 127.03 71.9101 126.68 71.8901 125.89C71.8601 123.55 71.8799 121.21 71.8799 118.87V118.86Z" fill="#027DC2"/>
<path d="M56.3711 83.69C54.6711 83.69 52.9608 83.7 51.2608 83.69C50.1508 83.68 50.0512 83.5 50.4712 82.53C52.2512 78.4 54.0311 74.27 55.8111 70.13C55.8711 69.99 55.9312 69.85 55.9912 69.71C56.1112 69.47 56.191 69.14 56.501 69.13C56.851 69.12 56.8712 69.48 56.9712 69.72C58.7512 73.95 60.5308 78.18 62.3008 82.42C62.7608 83.52 62.6812 83.68 61.4712 83.69C59.7712 83.71 58.0609 83.69 56.3609 83.69H56.3711Z" fill="#027DC2"/>
</svg>
