<svg width="703" height="93" viewBox="0 0 703 93" fill="none" xmlns="http://www.w3.org/2000/svg">
<path d="M142.12 20.72L139.859 18.99H162.609L164.859 20.72H160.1V36.27L157.089 34.54V29.7C156.249 30.3 155.299 30.77 154.229 31.12C153.199 31.44 152.139 31.6 151.069 31.6C149.299 31.6 147.689 31.09 146.259 30.08C144.859 29.07 143.949 27.79 143.549 26.25C144.979 26.25 146.219 25.95 147.259 25.35C148.289 24.73 148.81 23.99 148.81 23.14C148.81 22.7 148.709 22.26 148.509 21.83C148.279 21.42 147.96 21.05 147.56 20.73H142.1L142.12 20.72ZM150.089 29.88C151.189 29.88 152.349 29.62 153.549 29.12C154.789 28.59 155.979 27.86 157.109 26.94V20.72H149.089C150.089 21.92 150.589 23.07 150.589 24.18C150.589 25.1 150.129 25.92 149.189 26.63C148.219 27.34 147.02 27.79 145.58 27.98C145.98 28.56 146.599 29.02 147.439 29.36C148.239 29.7 149.129 29.88 150.089 29.88ZM144.08 40.07L144.83 39.38C148.8 41.22 152.65 42.15 156.35 42.15C157.95 42.15 159.31 41.91 160.41 41.42C161.55 40.96 162.109 40.39 162.109 39.73C162.109 39.16 161.809 38.67 161.209 38.28C160.639 37.86 159.94 37.66 159.1 37.66C158.26 37.66 157.21 37.89 155.85 38.35L153.85 36.79C155.35 36.33 156.6 36.1 157.6 36.1C159.21 36.1 160.56 36.49 161.66 37.27C162.8 38.03 163.359 38.96 163.359 40.07C163.359 41.01 162.68 41.83 161.31 42.52C159.94 43.19 158.29 43.52 156.35 43.52C154.61 43.52 152.689 43.22 150.589 42.62C148.479 42.05 146.309 41.19 144.069 40.06L144.08 40.07ZM164.12 20.72L161.87 18.99H184.37L186.62 20.72H181.859V36.27L178.85 34.54V26.59H172.839C172.209 26.59 171.67 26.73 171.24 27C170.81 27.25 170.589 27.58 170.589 27.97V30.04C170.589 30.18 170.49 30.31 170.29 30.42C170.09 30.51 169.859 30.56 169.589 30.56C169.019 30.56 168.25 30.05 167.29 29.04C166.32 28 165.83 27.19 165.83 26.59C165.83 26.11 166.13 25.7 166.74 25.38C167.3 25.04 168.009 24.86 168.839 24.86H178.859V20.72H164.129H164.12ZM183.359 18.99H195.74L197.99 20.72H193.229V36.27L190.22 34.54V20.72H185.609L183.359 18.99ZM196.99 20.72L194.729 18.99H213.37L215.629 20.72H210.31L210.81 24.52H203.29C202.72 24.52 202.26 24.69 201.89 25.04C201.49 25.36 201.29 25.76 201.29 26.25C201.29 26.53 201.49 26.77 201.89 26.97C202.26 27.18 202.73 27.28 203.29 27.28C203.85 27.28 204.689 27.16 205.799 26.93C206.899 26.7 207.739 26.59 208.299 26.59C209.399 26.59 210.499 27.05 211.609 27.97C212.749 28.89 213.31 29.81 213.31 30.74C213.31 31.57 212.739 32.33 211.609 33.02C210.469 33.71 209.039 34.16 207.299 34.37L213.06 38.52L211.549 39.38L205.79 34.54C205.22 34.66 204.379 34.71 203.279 34.71C202.379 34.71 201.61 34.53 200.97 34.16C200.34 33.79 200.02 33.34 200.02 32.81C200.02 32.49 200.22 32.2 200.62 31.95C200.99 31.72 201.45 31.6 202.02 31.6C202.79 31.6 203.489 31.7 204.129 31.91C204.769 32.14 205.229 32.44 205.529 32.81C207.269 32.81 208.739 32.54 209.939 32.02C211.169 31.47 211.79 30.81 211.79 30.05C211.79 29.57 211.54 29.16 211.04 28.84C210.57 28.5 209.99 28.32 209.29 28.32C208.75 28.32 207.999 28.44 207.029 28.67C206.059 28.9 205.309 29.02 204.779 29.02C203.739 29.02 202.57 28.48 201.27 27.39C199.93 26.31 199.27 25.35 199.27 24.52C199.27 24.04 199.52 23.63 200.02 23.31C200.49 22.97 201.07 22.79 201.77 22.79H208.29V20.72H196.959H196.99ZM214.629 20.72L212.379 18.99H233.279L235.529 20.72H229.87V26.77H226.37C224.5 26.77 222.909 27.23 221.609 28.15C220.269 29.05 219.6 30.14 219.6 31.43C219.6 32.28 220.119 33.02 221.149 33.64C222.189 34.24 223.419 34.54 224.859 34.54C226.299 34.54 227.57 34.38 228.87 34.06C230.14 33.74 231.31 33.26 232.37 32.64L234.379 34.37C233.309 34.99 232.11 35.46 230.77 35.78C229.44 36.1 228.049 36.27 226.609 36.27C223.969 36.27 221.729 35.62 219.899 34.33C218.029 33.07 217.089 31.52 217.089 29.7C217.089 28.41 217.789 27.32 219.189 26.42C220.629 25.5 222.35 25.04 224.35 25.04H226.859V20.72H214.629ZM215.229 10.35C217.629 10.35 220.19 11.12 222.89 12.67C225.56 14.21 228.019 16.32 230.259 18.99H228.759C227.089 17.01 225.139 15.46 222.899 14.33C220.659 13.18 218.44 12.6 216.24 12.6L215.24 10.35H215.229ZM234.77 20.72L232.509 18.99H253.81L256.06 20.72H250.95V25.63H243.939C243.369 25.63 242.899 25.78 242.529 26.08C242.129 26.38 241.93 26.74 241.93 27.15C241.93 27.56 242.129 27.91 242.529 28.19C242.899 28.49 243.359 28.64 243.939 28.64C244.369 28.64 244.99 28.55 245.79 28.36C246.62 28.17 247.26 28.08 247.7 28.08C248.97 28.08 250.239 28.59 251.509 29.6C252.809 30.59 253.459 31.58 253.459 32.57C253.459 33.61 252.919 34.48 251.859 35.2C250.789 35.94 249.49 36.3 247.95 36.3C245.81 36.3 243.669 35.64 241.529 34.33C239.389 33 237.609 31.22 236.169 29.01L236.919 28.66C238.449 30.48 240.109 31.92 241.879 32.98C243.679 34.04 245.369 34.57 246.939 34.57C248.179 34.57 249.239 34.25 250.149 33.6C251.019 32.93 251.45 32.14 251.45 31.21C251.45 30.82 251.2 30.48 250.7 30.21C250.23 29.93 249.65 29.79 248.95 29.79C248.48 29.79 247.809 29.88 246.939 30.07C246.069 30.25 245.41 30.35 244.93 30.35C243.76 30.35 242.589 29.82 241.419 28.76C240.249 27.7 239.669 26.65 239.669 25.61C239.669 25.13 239.99 24.72 240.62 24.4C241.25 24.06 242.019 23.88 242.919 23.88H248.93V20.7H234.75L234.77 20.72ZM272.1 20.72L269.85 18.99H288.49L290.75 20.72H285.439L285.939 24.52H278.419C277.849 24.52 277.39 24.69 277.02 25.04C276.62 25.36 276.419 25.76 276.419 26.25C276.419 26.53 276.62 26.77 277.02 26.97C277.39 27.18 277.849 27.28 278.419 27.28C278.989 27.28 279.82 27.16 280.93 26.93C282.03 26.7 282.87 26.59 283.43 26.59C284.53 26.59 285.64 27.05 286.74 27.97C287.88 28.89 288.45 29.81 288.45 30.74C288.45 31.57 287.88 32.33 286.74 33.02C285.61 33.71 284.17 34.16 282.43 34.37L288.189 38.52L286.689 39.38L280.93 34.54C280.36 34.66 279.529 34.71 278.419 34.71C277.519 34.71 276.75 34.53 276.12 34.16C275.49 33.79 275.169 33.34 275.169 32.81C275.169 32.49 275.37 32.2 275.77 31.95C276.14 31.72 276.599 31.6 277.169 31.6C277.939 31.6 278.639 31.7 279.279 31.91C279.909 32.14 280.38 32.44 280.68 32.81C282.42 32.81 283.889 32.54 285.089 32.02C286.329 31.47 286.939 30.81 286.939 30.05C286.939 29.57 286.689 29.16 286.189 28.84C285.719 28.5 285.13 28.32 284.43 28.32C283.89 28.32 283.139 28.44 282.169 28.67C281.199 28.9 280.449 29.02 279.919 29.02C278.879 29.02 277.719 28.48 276.419 27.39C275.079 26.31 274.41 25.35 274.41 24.52C274.41 24.04 274.66 23.63 275.16 23.31C275.62 22.97 276.21 22.79 276.91 22.79H283.419V20.72H272.089H272.1ZM281.97 12.77L284.479 11.04L286.979 12.77L284.479 14.5L281.97 12.77ZM289.99 20.72L287.729 18.99H295.1C294.3 18.42 293.68 17.81 293.25 17.16C292.81 16.49 292.6 15.84 292.6 15.19C292.6 14.04 293.189 13.06 294.359 12.25C295.529 11.44 296.95 11.04 298.62 11.04C300.42 11.04 302.289 11.66 304.229 12.91C306.169 14.15 307.89 15.84 309.39 17.96L308.14 18.3C307.07 16.62 305.679 15.28 303.979 14.29C302.309 13.28 300.61 12.77 298.87 12.77C297.97 12.77 297.199 13.01 296.569 13.5C295.929 13.96 295.609 14.52 295.609 15.19C295.609 15.74 295.829 16.35 296.259 17.02C296.699 17.67 297.32 18.32 298.12 18.99H300.12L302.379 20.72H297.62V36.27L294.609 34.54V20.72H290H289.99ZM301.37 20.72L299.109 18.99H320.41L322.66 20.72H317.549V25.63H310.529C309.959 25.63 309.489 25.78 309.129 26.08C308.729 26.38 308.529 26.74 308.529 27.15C308.529 27.56 308.729 27.91 309.129 28.19C309.499 28.49 309.959 28.64 310.529 28.64C310.959 28.64 311.579 28.55 312.379 28.36C313.219 28.17 313.849 28.08 314.279 28.08C315.549 28.08 316.819 28.59 318.089 29.6C319.389 30.59 320.04 31.58 320.04 32.57C320.04 33.61 319.499 34.48 318.439 35.2C317.369 35.94 316.069 36.3 314.529 36.3C312.389 36.3 310.26 35.64 308.12 34.33C305.98 33 304.189 31.22 302.759 29.01L303.509 28.66C305.049 30.48 306.7 31.92 308.47 32.98C310.27 34.04 311.959 34.57 313.529 34.57C314.769 34.57 315.84 34.25 316.74 33.6C317.61 32.93 318.04 32.14 318.04 31.21C318.04 30.82 317.79 30.48 317.29 30.21C316.82 29.93 316.239 29.79 315.529 29.79C315.059 29.79 314.39 29.88 313.52 30.07C312.65 30.25 311.98 30.35 311.52 30.35C310.35 30.35 309.179 29.82 308.009 28.76C306.839 27.7 306.259 26.65 306.259 25.61C306.259 25.13 306.569 24.72 307.209 24.4C307.849 24.06 308.619 23.88 309.509 23.88H315.52V20.7H301.339L301.37 20.72ZM321.66 20.72L319.41 18.99H342.16L344.41 20.72H339.649V36.27L336.64 34.54V29.7C335.8 30.3 334.849 30.77 333.779 31.12C332.739 31.44 331.69 31.6 330.62 31.6C328.85 31.6 327.24 31.09 325.81 30.08C324.4 29.07 323.51 27.79 323.1 26.25C324.53 26.25 325.77 25.95 326.81 25.35C327.85 24.73 328.359 23.99 328.359 23.14C328.359 22.7 328.26 22.26 328.06 21.83C327.82 21.42 327.509 21.05 327.109 20.73H321.649L321.66 20.72ZM329.629 29.88C330.729 29.88 331.889 29.62 333.089 29.12C334.319 28.59 335.509 27.86 336.649 26.94V20.72H328.629C329.629 21.92 330.129 23.07 330.129 24.18C330.129 25.1 329.66 25.92 328.72 26.63C327.75 27.34 326.549 27.79 325.109 27.98C325.509 28.56 326.129 29.02 326.959 29.36C327.759 29.7 328.649 29.88 329.609 29.88H329.629ZM341.16 18.99H353.54L355.799 20.72H351.04V36.27L348.029 34.54V20.72H343.419L341.16 18.99ZM371.83 20.72L369.58 18.99H388.22L390.47 20.72H385.16L385.66 24.52H378.14C377.57 24.52 377.1 24.69 376.74 25.04C376.34 25.36 376.14 25.76 376.14 26.25C376.14 26.53 376.34 26.77 376.74 26.97C377.11 27.18 377.57 27.28 378.14 27.28C378.71 27.28 379.539 27.16 380.649 26.93C381.749 26.7 382.59 26.59 383.16 26.59C384.26 26.59 385.36 27.05 386.47 27.97C387.61 28.89 388.169 29.81 388.169 30.74C388.169 31.57 387.6 32.33 386.47 33.02C385.33 33.71 383.9 34.16 382.16 34.37L387.919 38.52L386.419 39.38L380.66 34.54C380.09 34.66 379.259 34.71 378.149 34.71C377.249 34.71 376.48 34.53 375.85 34.16C375.21 33.79 374.899 33.34 374.899 32.81C374.899 32.49 375.1 32.2 375.5 31.95C375.87 31.72 376.34 31.6 376.91 31.6C377.68 31.6 378.38 31.7 379.02 31.91C379.65 32.14 380.119 32.44 380.419 32.81C382.159 32.81 383.63 32.54 384.83 32.02C386.06 31.47 386.68 30.81 386.68 30.05C386.68 29.57 386.43 29.16 385.93 28.84C385.46 28.5 384.88 28.32 384.18 28.32C383.64 28.32 382.889 28.44 381.919 28.67C380.949 28.9 380.199 29.02 379.669 29.02C378.629 29.02 377.47 28.48 376.16 27.39C374.83 26.31 374.16 25.35 374.16 24.52C374.16 24.04 374.41 23.63 374.91 23.31C375.38 22.97 375.959 22.79 376.669 22.79H383.18V20.72H371.85H371.83ZM381.7 12.77L384.2 11.04L386.709 12.77L384.2 14.5L381.7 12.77ZM391.77 21.06C391.77 20.49 392.14 20 392.87 19.61C393.6 19.2 394.49 18.99 395.52 18.99C397.86 18.99 399.859 19.67 401.529 21.03C403.199 22.36 404.04 23.99 404.04 25.9C404.04 27.21 403.62 28.38 402.79 29.39C401.99 30.41 400.899 31.08 399.529 31.43L404.54 35.92L402.79 36.61L398.029 31.77H397.029C395.789 31.77 394.729 31.51 393.819 30.97C392.949 30.42 392.52 29.76 392.52 29C392.52 28.56 392.72 28.19 393.12 27.89C393.49 27.59 393.95 27.44 394.52 27.44C394.96 27.44 395.49 27.59 396.12 27.89C396.72 28.19 397.359 28.61 398.029 29.17C398.899 29.17 399.68 28.92 400.39 28.41C401.06 27.93 401.44 27.32 401.54 26.58C398.63 26.01 396.279 25.21 394.479 24.19C392.679 23.15 391.77 22.11 391.77 21.04V21.06ZM401.79 18.99H405.35L407.6 20.72H403.79L401.779 18.99H401.79ZM394.779 22.1C394.779 22.67 395.399 23.3 396.629 23.97C397.869 24.64 399.5 25.23 401.54 25.73C401.91 24.23 401.64 22.91 400.74 21.76C399.84 20.61 398.599 20.03 397.029 20.03C396.399 20.03 395.86 20.24 395.43 20.65C395 21.04 394.779 21.53 394.779 22.1ZM406.6 20.72L404.35 18.99H427.1L429.359 20.72H424.6V36.27L421.589 34.54V29.7C420.759 30.3 419.799 30.77 418.729 31.12C417.699 31.44 416.64 31.6 415.58 31.6C413.81 31.6 412.2 31.09 410.77 30.08C409.37 29.07 408.47 27.79 408.06 26.25C409.5 26.25 410.73 25.95 411.77 25.35C412.8 24.73 413.319 23.99 413.319 23.14C413.319 22.7 413.22 22.26 413.02 21.83C412.79 21.42 412.469 21.05 412.069 20.73H406.609L406.6 20.72ZM414.569 29.88C415.669 29.88 416.819 29.62 418.029 29.12C419.269 28.59 420.449 27.86 421.589 26.94V20.72H413.569C414.569 21.92 415.069 23.07 415.069 24.18C415.069 25.1 414.599 25.92 413.669 26.63C412.699 27.34 411.5 27.79 410.06 27.98C410.46 28.56 411.08 29.02 411.91 29.36C412.71 29.7 413.6 29.88 414.56 29.88H414.569ZM419.58 38.52C419.58 37.81 419.929 37.2 420.629 36.69C421.299 36.18 422.119 35.93 423.089 35.93C425.289 35.93 427.679 36.55 430.259 37.8C432.829 39.04 435.29 40.79 437.62 43.02L436.62 43.37C434.92 41.64 432.98 40.28 430.81 39.29C428.64 38.32 426.479 37.84 424.339 37.84C423.569 37.84 422.919 37.99 422.379 38.29C421.849 38.59 421.58 38.96 421.58 39.4C421.58 39.84 421.849 40.2 422.379 40.51C422.919 40.81 423.569 40.96 424.339 40.96C424.969 40.96 425.589 40.87 426.189 40.68C426.789 40.49 427.339 40.24 427.839 39.92L430.1 41.3C429.57 41.69 428.93 41.99 428.2 42.2C427.46 42.41 426.679 42.51 425.839 42.51C424.469 42.51 423.08 42.06 421.68 41.16C420.28 40.28 419.58 39.41 419.58 38.53V38.52ZM428.6 20.72L426.339 18.99H442.83L445.08 20.72H437.22C438.06 21.71 438.47 22.92 438.47 24.35C438.47 25.2 438.119 26.01 437.419 26.77C436.689 27.55 435.7 28.19 434.47 28.67L443.99 35.58L442.49 36.44L432.22 29.01C431.59 28.55 431.08 28.08 430.72 27.59C430.39 27.13 430.22 26.68 430.22 26.24C430.22 25.85 430.44 25.52 430.87 25.27C431.3 24.99 431.84 24.85 432.47 24.85C433.07 24.85 433.59 24.89 434.02 24.95C434.46 25 434.77 25.08 434.97 25.19C435.44 24.91 435.809 24.58 436.069 24.19C436.339 23.8 436.47 23.39 436.47 22.95C436.47 22.49 436.39 22.06 436.22 21.67C436.05 21.3 435.81 20.98 435.47 20.7H428.609L428.6 20.72ZM424.79 10.35C427.2 10.35 429.749 11.12 432.459 12.67C435.129 14.21 437.59 16.32 439.83 18.99H438.319C436.649 17.01 434.699 15.46 432.459 14.33C430.219 13.18 428 12.6 425.79 12.6L424.79 10.35ZM439.069 14.5L436.56 12.77L439.069 11.04L441.569 12.77L439.069 14.5ZM444.33 20.72L442.08 18.99H467.08L469.339 20.72H464.58V36.27L461.569 34.54V27.28C459.829 27.97 458.33 28.31 457.06 28.31C455.39 28.31 453.969 28.08 452.799 27.62C452.529 28.13 452.18 28.58 451.75 28.97C451.32 29.36 450.829 29.66 450.299 29.87C451.529 31.6 453.79 33.56 457.06 35.74L455.56 36.6L449.799 31.76C448.659 30.84 447.8 29.93 447.2 29.03C446.6 28.13 446.299 27.31 446.299 26.58C446.299 26.14 446.489 25.77 446.899 25.47C447.269 25.17 447.729 25.02 448.299 25.02C449.069 25.02 449.74 25.13 450.31 25.36C450.98 24.56 451.31 23.81 451.31 23.11C451.31 22.6 451.23 22.14 451.06 21.73C450.89 21.31 450.64 20.97 450.31 20.69H444.35L444.33 20.72ZM457.56 26.59C458.36 26.59 459.1 26.5 459.77 26.31C460.47 26.13 461.069 25.87 461.569 25.55V20.71H452.549C452.949 21.1 453.27 21.63 453.5 22.3C453.7 22.99 453.799 23.78 453.799 24.68C453.799 24.98 453.629 25.44 453.299 26.06C453.599 26.22 454.12 26.35 454.85 26.44C455.55 26.53 456.45 26.58 457.56 26.58V26.59ZM485.37 20.72L483.109 18.99H512.02L514.279 20.72H502.45V25.9C503.02 25.56 503.569 25.3 504.109 25.14C504.609 24.96 505.059 24.86 505.459 24.86C507.199 24.86 508.67 25.4 509.87 26.49C511.11 27.57 511.729 28.88 511.729 30.39C511.729 31.56 511.059 32.95 509.729 34.54L507.47 32.99C508.8 31.72 509.47 30.28 509.47 28.67C509.47 28.14 509.22 27.69 508.72 27.32C508.25 26.95 507.659 26.77 506.959 26.77C506.259 26.77 505.46 26.91 504.66 27.18C503.89 27.43 503.15 27.81 502.45 28.32V36.27L499.45 34.54V30.39C498.55 30.83 497.7 31.17 496.89 31.43C496.06 31.66 495.319 31.77 494.689 31.77C493.089 31.77 491.479 31.17 489.879 29.97C488.239 28.77 487.419 27.59 487.419 26.41C487.419 25.51 487.9 24.74 488.87 24.09C489.87 23.45 491.06 23.12 492.43 23.12C493.5 23.12 494.65 23.33 495.89 23.74C497.09 24.16 498.28 24.75 499.45 25.54V20.7H485.37V20.72ZM493.439 29.88C494.439 29.88 495.46 29.72 496.5 29.39C497.57 29.05 498.549 28.57 499.459 27.97V26.24C498.789 25.85 497.97 25.55 497 25.34C496.07 25.13 495.05 25.03 493.95 25.03C492.91 25.03 492.03 25.28 491.29 25.79C490.56 26.3 490.189 26.91 490.189 27.62C490.189 28.24 490.51 28.77 491.14 29.21C491.77 29.65 492.539 29.87 493.439 29.87V29.88ZM498.45 12.77L500.95 11.04L503.459 12.77L500.95 14.5L498.45 12.77ZM513.529 20.72L511.27 18.99H533.02L535.27 20.72H530.509V36.27L527.5 34.54V29.01C526.87 29.44 526.18 29.79 525.45 30.05C524.71 30.28 523.98 30.39 523.24 30.39C521.87 30.39 520.32 29.77 518.58 28.52C516.84 27.28 515.979 26.17 515.979 25.2V20.71H513.52L513.529 20.72ZM522 28.67C522.94 28.67 523.889 28.45 524.859 28.01C525.829 27.59 526.709 27.01 527.509 26.25V20.72H518.99V26.59C518.99 27.16 519.29 27.65 519.89 28.04C520.46 28.45 521.16 28.66 521.99 28.66L522 28.67ZM534.279 20.72L532.029 18.99H554.529L556.79 20.72H552.029V36.27L549.02 34.54V26.59H543.009C542.379 26.59 541.84 26.73 541.41 27C540.98 27.25 540.759 27.58 540.759 27.97V30.04C540.759 30.18 540.659 30.31 540.459 30.42C540.259 30.51 540.019 30.56 539.759 30.56C539.199 30.56 538.429 30.05 537.459 29.04C536.489 28 536.009 27.19 536.009 26.59C536.009 26.11 536.309 25.7 536.919 25.38C537.479 25.04 538.19 24.86 539.02 24.86H549.04V20.72H534.31H534.279ZM548.359 14.15C548.359 13.09 548.8 12.19 549.66 11.46C550.56 10.72 551.63 10.35 552.87 10.35C554.51 10.35 556.25 11.14 558.08 12.74C559.92 14.31 561.52 16.39 562.89 18.99H565.899L568.16 20.72H563.399V36.27L560.39 34.54V20.72H555.779L553.529 18.99H561.649C560.619 17.01 559.429 15.42 558.089 14.22C556.749 13.02 555.519 12.42 554.379 12.42C553.549 12.42 552.849 12.72 552.279 13.32C551.679 13.94 551.379 14.68 551.379 15.53C551.379 16.02 551.429 16.43 551.529 16.78C551.599 17.12 551.709 17.4 551.879 17.61H549.879C549.379 17.22 549.009 16.72 548.779 16.12C548.509 15.52 548.379 14.86 548.379 14.15H548.359ZM584.189 20.72L581.939 18.99H589.299C588.799 18.6 588.43 18.1 588.2 17.5C587.93 16.9 587.799 16.24 587.799 15.53C587.799 14.01 588.59 12.71 590.16 11.63C591.73 10.55 593.619 10.01 595.819 10.01C597.689 10.01 599.73 10.68 601.93 12.01C604.1 13.32 606.16 15.13 608.1 17.44L607.1 17.96C605.5 16.03 603.68 14.5 601.64 13.4C599.63 12.29 597.7 11.74 595.83 11.74C594.46 11.74 593.27 12.11 592.27 12.85C591.3 13.59 590.819 14.49 590.819 15.54C590.819 16.59 591.319 17.8 592.319 19H594.319L596.569 20.73H591.81V36.28L588.799 34.55V20.73H584.189V20.72ZM595.56 20.72L593.31 18.99H619.919L622.18 20.72H617.419V36.27L614.41 34.89V26.6C613.08 26.6 611.869 26.92 610.799 27.57C609.729 28.22 609.009 29.04 608.649 30.06L606.39 28.5L607.189 27.46C607.389 27.18 607.54 27.01 607.64 26.94C606.97 26.55 606.299 26.25 605.629 26.04C604.999 25.84 604.409 25.73 603.879 25.73C603.039 25.73 602.339 25.97 601.779 26.46C601.179 26.92 600.87 27.48 600.87 28.15C600.87 29.37 601.389 30.56 602.419 31.71C603.419 32.88 604.819 33.89 606.629 34.72L605.879 35.41C603.369 34.14 601.4 32.84 599.97 31.51C598.57 30.17 597.87 28.94 597.87 27.81C597.87 26.75 598.389 25.85 599.419 25.11C600.459 24.37 601.689 24 603.129 24C603.999 24 604.89 24.22 605.79 24.66C606.72 25.07 607.589 25.66 608.399 26.42C609.229 25.86 610.17 25.44 611.2 25.14C612.24 24.84 613.31 24.69 614.41 24.69V20.72H595.569H595.56ZM621.169 20.72L618.919 18.99H626.279C625.779 18.6 625.41 18.1 625.18 17.5C624.91 16.9 624.779 16.24 624.779 15.53C624.779 14.01 625.57 12.71 627.14 11.63C628.71 10.55 630.599 10.01 632.799 10.01C634.669 10.01 636.71 10.68 638.91 12.01C641.08 13.32 643.14 15.13 645.08 17.44L644.08 17.96C642.48 16.03 640.66 14.5 638.62 13.4C636.61 12.29 634.68 11.74 632.81 11.74C631.44 11.74 630.26 12.11 629.25 12.85C628.28 13.59 627.799 14.49 627.799 15.54C627.799 16.59 628.3 17.8 629.31 19H631.319L633.569 20.73H628.81V36.28L625.799 34.55V20.73H621.189L621.169 20.72ZM632.54 20.72L630.29 18.99H654.39L656.649 20.72H651.89V36.27L648.879 34.54V28.67H640.859V30.92C640.859 31.2 640.739 31.44 640.509 31.65C640.239 31.86 639.949 31.96 639.609 31.96C638.839 31.96 637.739 31.38 636.299 30.23C634.829 29.1 634.089 28.24 634.089 27.64C634.089 27.46 634.19 27.3 634.39 27.16C634.6 27.02 634.829 26.95 635.089 26.95H637.85V20.73H632.54V20.72ZM640.859 26.94H648.879V20.72H640.859V26.94ZM655.64 20.72L653.379 18.99H674.279L676.54 20.72H670.879V26.77H667.37C665.5 26.77 663.909 27.23 662.609 28.15C661.269 29.05 660.6 30.14 660.6 31.43C660.6 32.28 661.119 33.02 662.149 33.64C663.189 34.24 664.419 34.54 665.859 34.54C667.299 34.54 668.57 34.38 669.87 34.06C671.14 33.74 672.309 33.26 673.379 32.64L675.39 34.37C674.32 34.99 673.119 35.46 671.779 35.78C670.439 36.1 669.06 36.27 667.62 36.27C664.98 36.27 662.74 35.62 660.91 34.33C659.04 33.07 658.109 31.52 658.109 29.7C658.109 28.41 658.809 27.32 660.209 26.42C661.649 25.5 663.37 25.04 665.37 25.04H667.87V20.72H655.649H655.64ZM656.24 10.35C658.65 10.35 661.2 11.12 663.91 12.67C666.58 14.21 669.04 16.32 671.27 18.99H669.77C668.1 17.01 666.15 15.46 663.91 14.33C661.67 13.18 659.45 12.6 657.24 12.6L656.24 10.35ZM675.779 20.72L673.52 18.99H694.819L697.08 20.72H691.97V25.63H684.95C684.38 25.63 683.909 25.78 683.549 26.08C683.149 26.38 682.95 26.74 682.95 27.15C682.95 27.56 683.149 27.91 683.549 28.19C683.919 28.49 684.38 28.64 684.95 28.64C685.38 28.64 685.999 28.55 686.799 28.36C687.639 28.17 688.27 28.08 688.7 28.08C689.97 28.08 691.239 28.59 692.509 29.6C693.809 30.59 694.459 31.58 694.459 32.57C694.459 33.61 693.919 34.48 692.859 35.2C691.789 35.94 690.49 36.3 688.95 36.3C686.81 36.3 684.68 35.64 682.54 34.33C680.4 33 678.61 31.22 677.18 29.01L677.93 28.66C679.47 30.48 681.12 31.92 682.89 32.98C684.69 34.04 686.38 34.57 687.95 34.57C689.18 34.57 690.25 34.25 691.16 33.6C692.03 32.93 692.459 32.14 692.459 31.21C692.459 30.82 692.209 30.48 691.709 30.21C691.24 29.93 690.66 29.79 689.95 29.79C689.48 29.79 688.81 29.88 687.95 30.07C687.08 30.25 686.409 30.35 685.939 30.35C684.769 30.35 683.6 29.82 682.43 28.76C681.26 27.7 680.68 26.65 680.68 25.61C680.68 25.13 680.989 24.72 681.629 24.4C682.259 24.06 683.03 23.88 683.93 23.88H689.939V20.7H675.759L675.779 20.72Z" fill="#3150A0"/>
<path d="M142.12 20.72L139.859 18.99H162.609L164.859 20.72H160.1V36.27L157.089 34.54V29.7C156.249 30.3 155.299 30.77 154.229 31.12C153.199 31.44 152.139 31.6 151.069 31.6C149.299 31.6 147.689 31.09 146.259 30.08C144.859 29.07 143.949 27.79 143.549 26.25C144.979 26.25 146.219 25.95 147.259 25.35C148.289 24.73 148.81 23.99 148.81 23.14C148.81 22.7 148.709 22.26 148.509 21.83C148.279 21.42 147.96 21.05 147.56 20.73H142.1L142.12 20.72ZM150.089 29.88C151.189 29.88 152.349 29.62 153.549 29.12C154.789 28.59 155.979 27.86 157.109 26.94V20.72H149.089C150.089 21.92 150.589 23.07 150.589 24.18C150.589 25.1 150.119 25.92 149.189 26.63C148.219 27.34 147.02 27.79 145.58 27.98C145.98 28.56 146.599 29.02 147.439 29.36C148.239 29.7 149.129 29.88 150.089 29.88ZM144.08 40.07L144.83 39.38C148.8 41.22 152.65 42.15 156.35 42.15C157.95 42.15 159.31 41.91 160.41 41.42C161.55 40.96 162.109 40.39 162.109 39.73C162.109 39.16 161.809 38.67 161.209 38.28C160.639 37.86 159.94 37.66 159.1 37.66C158.26 37.66 157.21 37.89 155.85 38.35L153.839 36.79C155.339 36.33 156.6 36.1 157.6 36.1C159.2 36.1 160.56 36.49 161.66 37.27C162.8 38.03 163.359 38.96 163.359 40.07C163.359 41.01 162.68 41.83 161.31 42.52C159.94 43.19 158.29 43.52 156.35 43.52C154.61 43.52 152.689 43.22 150.589 42.62C148.489 42.05 146.32 41.19 144.08 40.06V40.07ZM164.12 20.72L161.859 18.99H184.359L186.62 20.72H181.859V36.27L178.85 34.54V26.59H172.839C172.199 26.59 171.67 26.73 171.24 27C170.81 27.25 170.589 27.58 170.589 27.97V30.04C170.589 30.18 170.49 30.31 170.29 30.42C170.09 30.51 169.849 30.56 169.589 30.56C169.019 30.56 168.25 30.05 167.29 29.04C166.32 28 165.839 27.19 165.839 26.59C165.839 26.11 166.14 25.7 166.74 25.38C167.31 25.04 168.01 24.86 168.85 24.86H178.87V20.72H164.14H164.12ZM183.359 18.99H195.74L197.99 20.72H193.229V36.27L190.22 34.54V20.72H185.609L183.359 18.99ZM196.99 20.72L194.729 18.99H213.37L215.629 20.72H210.319L210.819 24.52H203.299C202.739 24.52 202.259 24.69 201.899 25.04C201.499 25.36 201.299 25.76 201.299 26.25C201.299 26.53 201.499 26.77 201.899 26.97C202.269 27.18 202.739 27.28 203.299 27.28C203.859 27.28 204.699 27.16 205.799 26.93C206.899 26.7 207.74 26.59 208.31 26.59C209.41 26.59 210.52 27.05 211.62 27.97C212.76 28.89 213.319 29.81 213.319 30.74C213.319 31.57 212.75 32.33 211.62 33.02C210.48 33.71 209.05 34.16 207.31 34.37L213.069 38.52L211.56 39.38L205.799 34.54C205.229 34.66 204.399 34.71 203.299 34.71C202.399 34.71 201.63 34.53 201 34.16C200.37 33.79 200.049 33.34 200.049 32.81C200.049 32.49 200.249 32.2 200.649 31.95C201.019 31.72 201.479 31.6 202.049 31.6C202.819 31.6 203.52 31.7 204.16 31.91C204.79 32.14 205.26 32.44 205.56 32.81C207.3 32.81 208.77 32.54 209.97 32.02C211.21 31.47 211.819 30.81 211.819 30.05C211.819 29.57 211.569 29.16 211.069 28.84C210.599 28.5 210.019 28.32 209.319 28.32C208.779 28.32 208.03 28.44 207.06 28.67C206.09 28.9 205.34 29.02 204.81 29.02C203.77 29.02 202.599 28.48 201.299 27.39C199.959 26.31 199.29 25.35 199.29 24.52C199.29 24.04 199.54 23.63 200.04 23.31C200.51 22.97 201.09 22.79 201.79 22.79H208.299V20.72H196.979H196.99ZM214.629 20.72L212.37 18.99H233.27L235.529 20.72H229.87V26.77H226.37C224.5 26.77 222.909 27.23 221.609 28.15C220.269 29.05 219.6 30.14 219.6 31.43C219.6 32.28 220.119 33.02 221.149 33.64C222.189 34.24 223.419 34.54 224.859 34.54C226.299 34.54 227.57 34.38 228.87 34.06C230.14 33.74 231.309 33.26 232.379 32.64L234.39 34.37C233.32 34.99 232.119 35.46 230.779 35.78C229.439 36.1 228.06 36.27 226.62 36.27C223.98 36.27 221.74 35.62 219.91 34.33C218.04 33.07 217.1 31.52 217.1 29.7C217.1 28.41 217.8 27.32 219.2 26.42C220.64 25.5 222.359 25.04 224.359 25.04H226.87V20.72H214.64H214.629ZM215.229 10.35C217.629 10.35 220.19 11.12 222.89 12.67C225.56 14.21 228.019 16.32 230.259 18.99H228.759C227.089 17.01 225.139 15.46 222.899 14.33C220.659 13.18 218.44 12.6 216.24 12.6L215.24 10.35H215.229ZM234.77 20.72L232.509 18.99H253.81L256.069 20.72H250.959V25.63H243.939C243.369 25.63 242.9 25.78 242.54 26.08C242.14 26.38 241.939 26.74 241.939 27.15C241.939 27.56 242.14 27.91 242.54 28.19C242.91 28.49 243.369 28.64 243.939 28.64C244.369 28.64 244.99 28.55 245.79 28.36C246.62 28.17 247.26 28.08 247.7 28.08C248.97 28.08 250.239 28.59 251.509 29.6C252.809 30.59 253.459 31.58 253.459 32.57C253.459 33.61 252.929 34.48 251.859 35.2C250.789 35.94 249.49 36.3 247.95 36.3C245.81 36.3 243.67 35.64 241.54 34.33C239.4 33 237.609 31.22 236.169 29.01L236.919 28.66C238.449 30.48 240.109 31.92 241.879 32.98C243.679 34.04 245.369 34.57 246.939 34.57C248.179 34.57 249.249 34.25 250.149 33.6C251.019 32.93 251.45 32.14 251.45 31.21C251.45 30.82 251.2 30.48 250.7 30.21C250.23 29.93 249.65 29.79 248.95 29.79C248.48 29.79 247.809 29.88 246.939 30.07C246.069 30.25 245.41 30.35 244.93 30.35C243.76 30.35 242.59 29.82 241.43 28.76C240.26 27.7 239.669 26.65 239.669 25.61C239.669 25.13 239.99 24.72 240.62 24.4C241.25 24.06 242.019 23.88 242.919 23.88H248.93V20.7H234.75L234.77 20.72ZM272.1 20.72L269.85 18.99H288.49L290.75 20.72H285.43L285.93 24.52H278.41C277.84 24.52 277.37 24.69 277 25.04C276.6 25.36 276.399 25.76 276.399 26.25C276.399 26.53 276.6 26.77 277 26.97C277.37 27.18 277.84 27.28 278.41 27.28C278.98 27.28 279.81 27.16 280.91 26.93C282.01 26.7 282.849 26.59 283.419 26.59C284.519 26.59 285.619 27.05 286.729 27.97C287.869 28.89 288.43 29.81 288.43 30.74C288.43 31.57 287.859 32.33 286.729 33.02C285.589 33.71 284.159 34.16 282.419 34.37L288.18 38.52L286.669 39.38L280.91 34.54C280.34 34.66 279.51 34.71 278.41 34.71C277.51 34.71 276.739 34.53 276.109 34.16C275.469 33.79 275.16 33.34 275.16 32.81C275.16 32.49 275.359 32.2 275.759 31.95C276.129 31.72 276.6 31.6 277.16 31.6C277.93 31.6 278.629 31.7 279.259 31.91C279.899 32.14 280.359 32.44 280.669 32.81C282.409 32.81 283.88 32.54 285.08 32.02C286.31 31.47 286.93 30.81 286.93 30.05C286.93 29.57 286.68 29.16 286.18 28.84C285.71 28.5 285.13 28.32 284.43 28.32C283.89 28.32 283.139 28.44 282.169 28.67C281.199 28.9 280.45 29.02 279.91 29.02C278.88 29.02 277.699 28.48 276.399 27.39C275.069 26.31 274.399 25.35 274.399 24.52C274.399 24.04 274.649 23.63 275.149 23.31C275.619 22.97 276.2 22.79 276.91 22.79H283.419V20.72H272.089H272.1ZM281.97 12.77L284.479 11.04L286.979 12.77L284.479 14.5L281.97 12.77ZM289.99 20.72L287.729 18.99H295.1C294.3 18.42 293.68 17.81 293.24 17.16C292.81 16.49 292.589 15.84 292.589 15.19C292.589 14.04 293.169 13.06 294.339 12.25C295.509 11.44 296.93 11.04 298.6 11.04C300.4 11.04 302.269 11.66 304.209 12.91C306.149 14.15 307.87 15.84 309.37 17.96L308.12 18.3C307.05 16.62 305.659 15.28 303.959 14.29C302.289 13.28 300.59 12.77 298.85 12.77C297.95 12.77 297.18 13.01 296.54 13.5C295.91 13.96 295.589 14.52 295.589 15.19C295.589 15.74 295.81 16.35 296.24 17.02C296.68 17.67 297.289 18.32 298.089 18.99H300.1L302.359 20.72H297.6V36.27L294.589 34.54V20.72H289.979H289.99ZM301.37 20.72L299.109 18.99H320.41L322.66 20.72H317.549V25.63H310.529C309.959 25.63 309.489 25.78 309.129 26.08C308.729 26.38 308.529 26.74 308.529 27.15C308.529 27.56 308.729 27.91 309.129 28.19C309.499 28.49 309.959 28.64 310.529 28.64C310.959 28.64 311.579 28.55 312.379 28.36C313.219 28.17 313.849 28.08 314.279 28.08C315.549 28.08 316.819 28.59 318.089 29.6C319.389 30.59 320.04 31.58 320.04 32.57C320.04 33.61 319.499 34.48 318.439 35.2C317.369 35.94 316.069 36.3 314.529 36.3C312.389 36.3 310.26 35.64 308.12 34.33C305.98 33 304.189 31.22 302.759 29.01L303.509 28.66C305.049 30.48 306.7 31.92 308.47 32.98C310.27 34.04 311.959 34.57 313.529 34.57C314.769 34.57 315.84 34.25 316.74 33.6C317.61 32.93 318.04 32.14 318.04 31.21C318.04 30.82 317.79 30.48 317.29 30.21C316.82 29.93 316.239 29.79 315.529 29.79C315.059 29.79 314.39 29.88 313.52 30.07C312.65 30.25 311.98 30.35 311.52 30.35C310.35 30.35 309.179 29.82 308.009 28.76C306.839 27.7 306.259 26.65 306.259 25.61C306.259 25.13 306.569 24.72 307.209 24.4C307.849 24.06 308.619 23.88 309.509 23.88H315.52V20.7H301.339L301.37 20.72ZM321.66 20.72L319.41 18.99H342.16L344.41 20.72H339.649V36.27L336.64 34.54V29.7C335.8 30.3 334.849 30.77 333.779 31.12C332.739 31.44 331.69 31.6 330.62 31.6C328.85 31.6 327.24 31.09 325.81 30.08C324.4 29.07 323.51 27.79 323.1 26.25C324.53 26.25 325.77 25.95 326.81 25.35C327.85 24.73 328.359 23.99 328.359 23.14C328.359 22.7 328.26 22.26 328.06 21.83C327.82 21.42 327.509 21.05 327.109 20.73H321.649L321.66 20.72ZM329.629 29.88C330.729 29.88 331.889 29.62 333.089 29.12C334.319 28.59 335.509 27.86 336.649 26.94V20.72H328.629C329.629 21.92 330.129 23.07 330.129 24.18C330.129 25.1 329.66 25.92 328.72 26.63C327.75 27.34 326.549 27.79 325.109 27.98C325.509 28.56 326.129 29.02 326.959 29.36C327.759 29.7 328.649 29.88 329.609 29.88H329.629ZM341.16 18.99H353.54L355.799 20.72H351.04V36.27L348.029 34.54V20.72H343.419L341.16 18.99ZM371.83 20.72L369.58 18.99H388.22L390.47 20.72H385.16L385.66 24.52H378.14C377.57 24.52 377.1 24.69 376.74 25.04C376.34 25.36 376.14 25.76 376.14 26.25C376.14 26.53 376.34 26.77 376.74 26.97C377.11 27.18 377.57 27.28 378.14 27.28C378.71 27.28 379.539 27.16 380.649 26.93C381.749 26.7 382.59 26.59 383.16 26.59C384.26 26.59 385.36 27.05 386.47 27.97C387.61 28.89 388.169 29.81 388.169 30.74C388.169 31.57 387.6 32.33 386.47 33.02C385.33 33.71 383.9 34.16 382.16 34.37L387.919 38.52L386.419 39.38L380.66 34.54C380.09 34.66 379.259 34.71 378.149 34.71C377.249 34.71 376.48 34.53 375.85 34.16C375.21 33.79 374.899 33.34 374.899 32.81C374.899 32.49 375.1 32.2 375.5 31.95C375.87 31.72 376.34 31.6 376.91 31.6C377.68 31.6 378.38 31.7 379.02 31.91C379.65 32.14 380.119 32.44 380.419 32.81C382.159 32.81 383.63 32.54 384.83 32.02C386.06 31.47 386.68 30.81 386.68 30.05C386.68 29.57 386.43 29.16 385.93 28.84C385.46 28.5 384.88 28.32 384.18 28.32C383.64 28.32 382.889 28.44 381.919 28.67C380.949 28.9 380.199 29.02 379.669 29.02C378.629 29.02 377.47 28.48 376.16 27.39C374.83 26.31 374.16 25.35 374.16 24.52C374.16 24.04 374.41 23.63 374.91 23.31C375.38 22.97 375.959 22.79 376.669 22.79H383.18V20.72H371.85H371.83ZM381.7 12.77L384.2 11.04L386.709 12.77L384.2 14.5L381.7 12.77ZM391.77 21.06C391.77 20.49 392.14 20 392.87 19.61C393.6 19.2 394.49 18.99 395.52 18.99C397.86 18.99 399.859 19.67 401.529 21.03C403.199 22.36 404.04 23.99 404.04 25.9C404.04 27.21 403.62 28.38 402.79 29.39C401.99 30.41 400.899 31.08 399.529 31.43L404.54 35.92L402.79 36.61L398.029 31.77H397.029C395.789 31.77 394.729 31.51 393.819 30.97C392.949 30.42 392.52 29.76 392.52 29C392.52 28.56 392.72 28.19 393.12 27.89C393.49 27.59 393.95 27.44 394.52 27.44C394.96 27.44 395.49 27.59 396.12 27.89C396.72 28.19 397.359 28.61 398.029 29.17C398.899 29.17 399.68 28.92 400.39 28.41C401.06 27.93 401.44 27.32 401.54 26.58C398.63 26.01 396.279 25.21 394.479 24.19C392.679 23.15 391.77 22.11 391.77 21.04V21.06ZM401.79 18.99H405.35L407.6 20.72H403.79L401.779 18.99H401.79ZM394.779 22.1C394.779 22.67 395.399 23.3 396.629 23.97C397.869 24.64 399.5 25.23 401.54 25.73C401.91 24.23 401.64 22.91 400.74 21.76C399.84 20.61 398.599 20.03 397.029 20.03C396.399 20.03 395.86 20.24 395.43 20.65C395 21.04 394.779 21.53 394.779 22.1ZM406.6 20.72L404.35 18.99H427.1L429.359 20.72H424.6V36.27L421.589 34.54V29.7C420.759 30.3 419.799 30.77 418.729 31.12C417.699 31.44 416.64 31.6 415.58 31.6C413.81 31.6 412.2 31.09 410.77 30.08C409.37 29.07 408.47 27.79 408.06 26.25C409.5 26.25 410.73 25.95 411.77 25.35C412.8 24.73 413.319 23.99 413.319 23.14C413.319 22.7 413.22 22.26 413.02 21.83C412.79 21.42 412.469 21.05 412.069 20.73H406.609L406.6 20.72ZM414.569 29.88C415.669 29.88 416.819 29.62 418.029 29.12C419.269 28.59 420.449 27.86 421.589 26.94V20.72H413.569C414.569 21.92 415.069 23.07 415.069 24.18C415.069 25.1 414.599 25.92 413.669 26.63C412.699 27.34 411.5 27.79 410.06 27.98C410.46 28.56 411.08 29.02 411.91 29.36C412.71 29.7 413.6 29.88 414.56 29.88H414.569ZM419.58 38.52C419.58 37.81 419.929 37.2 420.629 36.69C421.299 36.18 422.119 35.93 423.089 35.93C425.289 35.93 427.679 36.55 430.259 37.8C432.829 39.04 435.289 40.79 437.629 43.02L436.629 43.37C434.929 41.64 432.989 40.28 430.819 39.29C428.649 38.32 426.49 37.84 424.35 37.84C423.58 37.84 422.93 37.99 422.39 38.29C421.86 38.59 421.589 38.96 421.589 39.4C421.589 39.84 421.86 40.2 422.39 40.51C422.93 40.81 423.58 40.96 424.35 40.96C424.98 40.96 425.6 40.87 426.2 40.68C426.8 40.49 427.35 40.24 427.85 39.92L430.109 41.3C429.579 41.69 428.939 41.99 428.209 42.2C427.469 42.41 426.69 42.51 425.85 42.51C424.48 42.51 423.089 42.06 421.689 41.16C420.289 40.28 419.589 39.41 419.589 38.53L419.58 38.52ZM428.6 20.72L426.339 18.99H442.83L445.08 20.72H437.209C438.049 21.71 438.459 22.92 438.459 24.35C438.459 25.2 438.11 26.01 437.41 26.77C436.67 27.55 435.69 28.19 434.45 28.67L443.97 35.58L442.459 36.44L432.189 29.01C431.559 28.55 431.049 28.08 430.689 27.59C430.359 27.13 430.189 26.68 430.189 26.24C430.189 25.85 430.409 25.52 430.839 25.27C431.269 24.99 431.809 24.85 432.439 24.85C433.039 24.85 433.56 24.89 433.99 24.95C434.43 25 434.739 25.08 434.939 25.19C435.409 24.91 435.78 24.58 436.04 24.19C436.31 23.8 436.439 23.39 436.439 22.95C436.439 22.49 436.359 22.06 436.189 21.67C436.019 21.3 435.779 20.98 435.439 20.7H428.58L428.6 20.72ZM424.79 10.35C427.2 10.35 429.749 11.12 432.459 12.67C435.129 14.21 437.59 16.32 439.83 18.99H438.33C436.66 17.01 434.7 15.46 432.47 14.33C430.23 13.18 428.009 12.6 425.799 12.6L424.799 10.35H424.79ZM439.069 14.5L436.56 12.77L439.069 11.04L441.58 12.77L439.069 14.5ZM444.33 20.72L442.069 18.99H467.069L469.319 20.72H464.56V36.27L461.549 34.54V27.28C459.809 27.97 458.31 28.31 457.04 28.31C455.37 28.31 453.949 28.08 452.779 27.62C452.509 28.13 452.159 28.58 451.729 28.97C451.299 29.36 450.809 29.66 450.279 29.87C451.519 31.6 453.77 33.56 457.04 35.74L455.54 36.6L449.779 31.76C448.639 30.84 447.78 29.93 447.18 29.03C446.58 28.13 446.279 27.31 446.279 26.58C446.279 26.14 446.479 25.77 446.879 25.47C447.249 25.17 447.709 25.02 448.279 25.02C449.049 25.02 449.72 25.13 450.29 25.36C450.96 24.56 451.29 23.81 451.29 23.11C451.29 22.6 451.21 22.14 451.04 21.73C450.87 21.31 450.62 20.97 450.29 20.69H444.33V20.72ZM457.56 26.59C458.36 26.59 459.1 26.5 459.77 26.31C460.47 26.13 461.069 25.87 461.569 25.55V20.71H452.549C452.949 21.1 453.27 21.63 453.5 22.3C453.7 22.99 453.799 23.78 453.799 24.68C453.799 24.98 453.629 25.44 453.299 26.06C453.599 26.22 454.12 26.35 454.85 26.44C455.55 26.53 456.45 26.58 457.56 26.58V26.59ZM485.37 20.72L483.109 18.99H512.029L514.29 20.72H502.459V25.9C503.029 25.56 503.579 25.3 504.109 25.14C504.609 24.96 505.059 24.86 505.459 24.86C507.199 24.86 508.67 25.4 509.87 26.49C511.11 27.57 511.729 28.88 511.729 30.39C511.729 31.56 511.059 32.95 509.729 34.54L507.47 32.99C508.8 31.72 509.47 30.28 509.47 28.67C509.47 28.14 509.22 27.69 508.72 27.32C508.25 26.95 507.669 26.77 506.959 26.77C506.249 26.77 505.46 26.91 504.66 27.18C503.89 27.43 503.15 27.81 502.45 28.32V36.27L499.439 34.54V30.39C498.539 30.83 497.689 31.17 496.879 31.43C496.049 31.66 495.31 31.77 494.68 31.77C493.08 31.77 491.47 31.17 489.87 29.97C488.23 28.77 487.41 27.59 487.41 26.41C487.41 25.51 487.889 24.74 488.859 24.09C489.859 23.45 491.049 23.12 492.419 23.12C493.489 23.12 494.639 23.33 495.879 23.74C497.079 24.16 498.269 24.75 499.439 25.54V20.7H485.359L485.37 20.72ZM493.439 29.88C494.439 29.88 495.46 29.72 496.5 29.39C497.57 29.05 498.559 28.57 499.459 27.97V26.24C498.789 25.85 497.97 25.55 497 25.34C496.07 25.13 495.05 25.03 493.95 25.03C492.91 25.03 492.03 25.28 491.29 25.79C490.56 26.3 490.189 26.91 490.189 27.62C490.189 28.24 490.51 28.77 491.14 29.21C491.77 29.65 492.539 29.87 493.439 29.87V29.88ZM498.45 12.77L500.959 11.04L503.459 12.77L500.959 14.5L498.45 12.77ZM513.529 20.72L511.27 18.99H533.02L535.279 20.72H530.52V36.27L527.509 34.54V29.01C526.879 29.44 526.189 29.79 525.459 30.05C524.719 30.28 523.99 30.39 523.25 30.39C521.88 30.39 520.329 29.77 518.589 28.52C516.849 27.28 515.99 26.17 515.99 25.2V20.71H513.529V20.72ZM522 28.67C522.94 28.67 523.889 28.45 524.859 28.01C525.829 27.59 526.709 27.01 527.509 26.25V20.72H518.99V26.59C518.99 27.16 519.29 27.65 519.89 28.04C520.46 28.45 521.16 28.66 521.99 28.66L522 28.67ZM534.279 20.72L532.029 18.99H554.529L556.779 20.72H552.02V36.27L549.009 34.54V26.59H543C542.37 26.59 541.829 26.73 541.399 27C540.969 27.25 540.75 27.58 540.75 27.97V30.04C540.75 30.18 540.65 30.31 540.45 30.42C540.25 30.51 540.01 30.56 539.75 30.56C539.19 30.56 538.42 30.05 537.45 29.04C536.48 28 536 27.19 536 26.59C536 26.11 536.3 25.7 536.91 25.38C537.47 25.04 538.179 24.86 539.009 24.86H549.029V20.72H534.299H534.279ZM548.359 14.15C548.359 13.09 548.79 12.19 549.66 11.46C550.56 10.72 551.63 10.35 552.87 10.35C554.51 10.35 556.24 11.14 558.08 12.74C559.92 14.31 561.52 16.39 562.89 18.99H565.89L568.149 20.72H563.39V36.27L560.379 34.54V20.72H555.77L553.52 18.99H561.64C560.6 17.01 559.42 15.42 558.08 14.22C556.74 13.02 555.51 12.42 554.37 12.42C553.54 12.42 552.83 12.72 552.27 13.32C551.67 13.94 551.37 14.68 551.37 15.53C551.37 16.02 551.42 16.43 551.52 16.78C551.59 17.12 551.7 17.4 551.87 17.61H549.87C549.37 17.22 549 16.72 548.77 16.12C548.5 15.52 548.37 14.86 548.37 14.15H548.359ZM584.189 20.72L581.939 18.99H589.299C588.799 18.6 588.43 18.1 588.2 17.5C587.93 16.9 587.799 16.24 587.799 15.53C587.799 14.01 588.59 12.71 590.16 11.63C591.73 10.55 593.619 10.01 595.819 10.01C597.689 10.01 599.73 10.68 601.93 12.01C604.1 13.32 606.16 15.13 608.1 17.44L607.1 17.96C605.5 16.03 603.68 14.5 601.64 13.4C599.63 12.29 597.7 11.74 595.83 11.74C594.46 11.74 593.27 12.11 592.27 12.85C591.3 13.59 590.819 14.49 590.819 15.54C590.819 16.59 591.319 17.8 592.319 19H594.319L596.58 20.73H591.819V36.28L588.81 34.55V20.73H584.2L584.189 20.72ZM595.56 20.72L593.31 18.99H619.919L622.18 20.72H617.419V36.27L614.41 34.89V26.6C613.08 26.6 611.869 26.92 610.799 27.57C609.729 28.22 609.01 29.04 608.64 30.06L606.39 28.5L607.189 27.46C607.389 27.18 607.54 27.01 607.64 26.94C606.97 26.55 606.299 26.25 605.629 26.04C604.999 25.84 604.409 25.73 603.879 25.73C603.039 25.73 602.339 25.97 601.779 26.46C601.179 26.92 600.87 27.48 600.87 28.15C600.87 29.37 601.389 30.56 602.419 31.71C603.419 32.88 604.819 33.89 606.629 34.72L605.879 35.41C603.369 34.14 601.4 32.84 599.97 31.51C598.57 30.17 597.87 28.94 597.87 27.81C597.87 26.75 598.389 25.85 599.419 25.11C600.449 24.37 601.689 24 603.129 24C603.999 24 604.89 24.22 605.79 24.66C606.72 25.07 607.589 25.66 608.399 26.42C609.229 25.86 610.17 25.44 611.2 25.14C612.24 24.84 613.31 24.69 614.41 24.69V20.72H595.569H595.56ZM621.169 20.72L618.919 18.99H626.279C625.779 18.6 625.41 18.1 625.18 17.5C624.91 16.9 624.779 16.24 624.779 15.53C624.779 14.01 625.57 12.71 627.14 11.63C628.71 10.55 630.599 10.01 632.799 10.01C634.669 10.01 636.71 10.68 638.91 12.01C641.08 13.32 643.14 15.13 645.08 17.44L644.08 17.96C642.48 16.03 640.66 14.5 638.62 13.4C636.61 12.29 634.679 11.74 632.799 11.74C631.429 11.74 630.25 12.11 629.24 12.85C628.27 13.59 627.79 14.49 627.79 15.54C627.79 16.59 628.289 17.8 629.299 19H631.31L633.56 20.73H628.799V36.28L625.799 34.55V20.73H621.189L621.169 20.72ZM632.54 20.72L630.29 18.99H654.39L656.649 20.72H651.89V36.27L648.879 34.54V28.67H640.859V30.92C640.859 31.2 640.739 31.44 640.509 31.65C640.239 31.86 639.949 31.96 639.609 31.96C638.839 31.96 637.739 31.38 636.299 30.23C634.829 29.1 634.089 28.24 634.089 27.64C634.089 27.46 634.19 27.3 634.39 27.16C634.59 27.02 634.829 26.95 635.089 26.95H637.85V20.73H632.54V20.72ZM640.859 26.94H648.879V20.72H640.859V26.94ZM655.64 20.72L653.379 18.99H674.279L676.54 20.72H670.879V26.77H667.37C665.5 26.77 663.909 27.23 662.609 28.15C661.269 29.05 660.609 30.14 660.609 31.43C660.609 32.28 661.13 33.02 662.16 33.64C663.19 34.24 664.43 34.54 665.87 34.54C667.31 34.54 668.579 34.38 669.879 34.06C671.149 33.74 672.32 33.26 673.39 32.64L675.399 34.37C674.329 34.99 673.13 35.46 671.79 35.78C670.45 36.1 669.069 36.27 667.629 36.27C664.989 36.27 662.749 35.62 660.919 34.33C659.049 33.07 658.12 31.52 658.12 29.7C658.12 28.41 658.82 27.32 660.22 26.42C661.66 25.5 663.379 25.04 665.379 25.04H667.89V20.72H655.669H655.64ZM656.24 10.35C658.65 10.35 661.2 11.12 663.91 12.67C666.58 14.21 669.04 16.32 671.27 18.99H669.77C668.1 17.01 666.14 15.46 663.91 14.33C661.67 13.18 659.45 12.6 657.24 12.6L656.24 10.35ZM675.779 20.72L673.52 18.99H694.819L697.069 20.72H691.959V25.63H684.939C684.369 25.63 683.91 25.78 683.54 26.08C683.14 26.38 682.939 26.74 682.939 27.15C682.939 27.56 683.14 27.91 683.54 28.19C683.91 28.49 684.369 28.64 684.939 28.64C685.379 28.64 685.99 28.55 686.79 28.36C687.63 28.17 688.26 28.08 688.7 28.08C689.97 28.08 691.239 28.59 692.509 29.6C693.809 30.59 694.459 31.58 694.459 32.57C694.459 33.61 693.919 34.48 692.859 35.2C691.789 35.94 690.49 36.3 688.95 36.3C686.81 36.3 684.68 35.64 682.54 34.33C680.4 33 678.61 31.22 677.18 29.01L677.93 28.66C679.47 30.48 681.12 31.92 682.89 32.98C684.69 34.04 686.38 34.57 687.95 34.57C689.18 34.57 690.25 34.25 691.16 33.6C692.03 32.93 692.459 32.14 692.459 31.21C692.459 30.82 692.209 30.48 691.709 30.21C691.239 29.93 690.65 29.79 689.95 29.79C689.48 29.79 688.81 29.88 687.95 30.07C687.08 30.25 686.409 30.35 685.939 30.35C684.769 30.35 683.6 29.82 682.43 28.76C681.26 27.7 680.68 26.65 680.68 25.61C680.68 25.13 680.989 24.72 681.629 24.4C682.259 24.06 683.03 23.88 683.93 23.88H689.939V20.7H675.759L675.779 20.72Z" stroke="#3150A0" stroke-width="0.22" stroke-miterlimit="22.93"/>
<path d="M139.87 47.51H146.66V61.57C146.66 63.02 146.899 64.08 147.379 64.76C147.859 65.44 148.659 65.77 149.779 65.75C150.949 65.75 151.77 65.41 152.24 64.71C152.72 64.02 152.95 62.97 152.95 61.57V47.51H159.74V60.79C159.74 64.57 158.899 67.31 157.229 68.99C155.559 70.67 153.09 71.52 149.83 71.52C146.57 71.52 144.059 70.69 142.379 69.02C140.699 67.36 139.859 64.61 139.859 60.79V47.51H139.87ZM163.64 47.51H170.02L177.35 60.25L177.12 55.06V47.51H183.62V70.88H177.229L169.899 58.14L170.129 63.46V70.88H163.629V47.51H163.64ZM187.689 47.51H194.479V70.88H187.689V47.51ZM197.54 47.51H216.439V53.67H210.399V70.88H203.64V53.67H197.54V47.51ZM219.529 47.51H236.37V52.95H226.319V56.32H234.799V61.77H226.319V65.43H236.779V70.88H219.54V47.51H219.529ZM239.89 47.51H248.799C251.029 47.51 252.96 47.89 254.6 48.64C256.23 49.4 257.5 50.6 258.41 52.24C259.32 53.88 259.77 56.02 259.77 58.66C259.77 63 258.81 66.13 256.89 68.03C254.97 69.93 252.26 70.88 248.74 70.88H239.89V47.51ZM246.68 52.95V65.42H248.2C251.44 65.42 253.039 63.25 252.979 58.91C252.979 56.68 252.62 55.14 251.91 54.26C251.19 53.38 249.839 52.95 247.859 52.95H246.689H246.68ZM271.99 47.51H278.779V70.88H271.99V47.51ZM282.899 47.51H289.29L296.62 60.25L296.39 55.06V47.51H302.89V70.88H296.509L289.18 58.14L289.41 63.46V70.88H282.91V47.51H282.899ZM306.609 47.51H315.52C317.75 47.51 319.679 47.89 321.319 48.64C322.949 49.4 324.219 50.6 325.129 52.24C326.039 53.88 326.49 56.02 326.49 58.66C326.49 63 325.53 66.13 323.62 68.03C321.7 69.93 318.98 70.88 315.47 70.88H306.62V47.51H306.609ZM313.399 52.95V65.42H314.919C318.159 65.42 319.76 63.25 319.7 58.91C319.7 56.68 319.339 55.14 318.629 54.26C317.919 53.38 316.56 52.95 314.58 52.95H313.41H313.399ZM329.2 47.51H335.99V70.88H329.2V47.51ZM345.899 47.51H352.77L360.16 70.88H353.43L352.6 67.77H345.899L345.1 70.88H338.509L345.899 47.51ZM347.16 62.9H351.43L349.25 54.54L347.16 62.9ZM372.1 47.51H378.89V70.88H372.1V47.51ZM383.009 47.51H389.399L396.729 60.25L396.5 55.06V47.51H403V70.88H396.609L389.279 58.14L389.509 63.46V70.88H383.009V47.51ZM417.629 54.28C417.459 52.94 416.53 52.27 414.85 52.27C413.52 52.27 412.819 52.69 412.759 53.53C412.739 54.05 412.959 54.48 413.439 54.83C413.909 55.17 414.529 55.46 415.319 55.69C416.099 55.92 416.86 56.13 417.58 56.32C420 56.97 421.79 57.85 422.93 58.95C424.08 60.05 424.64 61.58 424.62 63.52C424.62 65.42 424.169 66.97 423.279 68.17C422.379 69.37 421.2 70.23 419.74 70.75C418.28 71.27 416.709 71.53 415.029 71.53C412.509 71.53 410.379 70.8 408.629 69.34C406.879 67.88 405.949 65.99 405.839 63.65H412.339C412.489 64.58 412.889 65.23 413.529 65.59C414.169 65.96 414.83 66.14 415.52 66.14C417.18 66.06 418.06 65.53 418.16 64.55C418.23 63.88 417.93 63.37 417.25 63.01C416.57 62.65 415.53 62.28 414.12 61.89C412.35 61.39 410.929 60.88 409.879 60.37C408.829 59.85 407.97 59.08 407.29 58.05C406.61 57.02 406.279 55.67 406.299 53.98C406.339 51.88 407.15 50.18 408.75 48.86C410.34 47.54 412.52 46.88 415.29 46.88C416.76 46.88 418.109 47.11 419.339 47.58C420.569 48.04 421.62 48.83 422.479 49.95C423.339 51.06 423.87 52.5 424.08 54.28H417.64H417.629ZM427.6 47.51H434.39V61.57C434.39 63.02 434.63 64.08 435.1 64.76C435.58 65.44 436.38 65.77 437.5 65.75C438.66 65.75 439.489 65.41 439.959 64.71C440.439 64.02 440.68 62.97 440.68 61.57V47.51H447.47V60.79C447.47 64.57 446.639 67.31 444.959 68.99C443.289 70.67 440.82 71.52 437.56 71.52C434.3 71.52 431.8 70.69 430.12 69.02C428.44 67.36 427.6 64.61 427.6 60.79V47.51ZM457.919 52.95V57.58H460.759C462.859 57.58 463.87 56.82 463.79 55.31C463.79 54.55 463.54 53.97 463.04 53.56C462.54 53.15 461.909 52.95 461.149 52.95H457.919ZM451.16 47.51H461.149C464.719 47.51 467.099 48.1 468.279 49.28C469.469 50.46 470.06 52.08 470.06 54.16C470.06 55.74 469.74 57 469.1 57.95C468.46 58.9 467.629 59.54 466.589 59.87C467.869 60.43 468.769 61.06 469.279 61.75C469.799 62.44 470.06 63.89 470.06 66.09V67.91C470.06 69.44 470.3 70.21 470.77 70.21V70.89H463.959C463.769 70.13 463.659 69.04 463.629 67.62C463.599 66.19 463.519 65.14 463.379 64.47C463.249 63.8 462.889 63.35 462.319 63.11C461.609 62.85 460.479 62.72 458.919 62.72H457.919V70.88H451.16V47.51ZM479.39 47.51H486.259L493.649 70.88H486.919L486.089 67.77H479.39L478.589 70.88H472L479.39 47.51ZM480.649 62.9H484.919L482.74 54.54L480.649 62.9ZM495.85 47.51H502.24L509.569 60.25L509.339 55.06V47.51H515.839V70.88H509.45L502.12 58.14L502.35 63.46V70.88H495.85V47.51ZM532.62 56.45C532.47 54.9 532.009 53.86 531.259 53.35C530.499 52.84 529.749 52.59 528.979 52.59C527.609 52.59 526.62 53.24 526.02 54.55C525.42 55.86 525.12 57.46 525.12 59.36C525.12 63.59 526.459 65.74 529.129 65.81C531.139 65.81 532.309 64.48 532.649 61.82H539.149C538.879 64.69 537.889 67.03 536.189 68.82C534.479 70.61 532.209 71.51 529.359 71.51C527.139 71.51 525.199 71.02 523.529 70.03C521.859 69.05 520.589 67.65 519.709 65.83C518.829 64.02 518.369 61.85 518.339 59.35C518.339 56.54 518.859 54.19 519.899 52.3C520.939 50.41 522.26 49.02 523.85 48.14C525.45 47.25 527.059 46.83 528.709 46.87C532.369 46.95 534.939 47.91 536.399 49.74C537.859 51.56 538.739 53.8 539.049 56.43H532.64L532.62 56.45ZM542.149 47.51H558.99V52.95H548.939V56.32H557.419V61.77H548.939V65.43H559.39V70.88H542.149V47.51ZM585.08 56.45C584.92 54.9 584.47 53.86 583.72 53.35C582.97 52.84 582.21 52.59 581.45 52.59C580.07 52.59 579.09 53.24 578.49 54.55C577.89 55.86 577.589 57.46 577.589 59.36C577.589 63.59 578.92 65.74 581.6 65.81C583.61 65.81 584.779 64.48 585.129 61.82H591.629C591.359 64.69 590.37 67.03 588.66 68.82C586.95 70.61 584.67 71.51 581.83 71.51C579.62 71.51 577.679 71.02 576.009 70.03C574.339 69.05 573.059 67.65 572.189 65.83C571.309 64.02 570.85 61.85 570.81 59.35C570.81 56.54 571.33 54.19 572.37 52.3C573.41 50.41 574.729 49.02 576.319 48.14C577.909 47.25 579.53 46.83 581.18 46.87C584.84 46.95 587.41 47.91 588.87 49.74C590.33 51.56 591.21 53.8 591.52 56.43H585.109L585.08 56.45ZM604.35 46.89C606.72 46.87 608.7 47.41 610.31 48.51C611.91 49.61 613.12 51.08 613.93 52.92C614.74 54.76 615.17 56.76 615.2 58.92C615.26 62.44 614.33 65.42 612.41 67.86C610.49 70.3 607.82 71.52 604.41 71.52C602.48 71.5 600.809 71.13 599.399 70.4C597.989 69.68 596.859 68.71 596.009 67.5C595.159 66.29 594.539 64.95 594.149 63.48C593.759 62.01 593.56 60.51 593.56 58.98C593.62 55.54 594.559 52.69 596.399 50.41C598.229 48.13 600.879 46.96 604.359 46.89H604.35ZM604.35 52.6C603.11 52.6 602.12 53.16 601.39 54.3C600.65 55.44 600.299 57.06 600.319 59.18C600.339 61.3 600.709 62.94 601.439 64.09C602.169 65.24 603.159 65.82 604.419 65.82C607.039 65.76 608.379 63.64 608.459 59.47C608.499 57.48 608.17 55.84 607.49 54.54C606.8 53.24 605.76 52.6 604.37 52.6H604.35ZM618.009 64.17H624.02V70.88H618.009V64.17ZM637.459 47.51H644.25V65.43H653.529V70.88H637.47V47.51H637.459ZM652.66 47.51H671.56V53.67H665.52V70.88H658.759V53.67H652.66V47.51ZM674.31 47.51H683.209C685.439 47.51 687.379 47.89 689.009 48.64C690.649 49.4 691.919 50.6 692.819 52.24C693.729 53.88 694.18 56.02 694.18 58.66C694.18 63 693.219 66.13 691.299 68.03C689.379 69.93 686.659 70.88 683.149 70.88H674.299V47.51H674.31ZM681.1 52.95V65.42H682.62C685.86 65.42 687.459 63.25 687.399 58.91C687.399 56.68 687.04 55.14 686.33 54.26C685.62 53.38 684.259 52.95 682.279 52.95H681.109H681.1ZM696.479 64.16H702.49V70.87H696.479V64.16Z" fill="#3150A0"/>
<path d="M313.889 89.47C313.239 88.64 312.679 87.67 312.229 86.56C311.779 85.45 311.549 84.3 311.549 83.11C311.549 82.06 311.719 81.06 312.059 80.1C312.459 78.98 313.069 77.87 313.889 76.77H314.739C314.209 77.68 313.849 78.34 313.679 78.73C313.409 79.34 313.199 79.97 313.039 80.64C312.849 81.46 312.759 82.29 312.759 83.13C312.759 85.25 313.419 87.37 314.739 89.48H313.889V89.47ZM315.209 86.63L318.929 76.93H320.339L324.289 86.63H322.829L321.709 83.69H317.619L316.569 86.63H315.209ZM317.999 82.64H321.309L320.299 79.95C319.989 79.13 319.759 78.46 319.609 77.93C319.479 78.56 319.299 79.18 319.069 79.8L317.999 82.65V82.64ZM332.859 82.82V81.68H336.969V85.27C336.339 85.77 335.689 86.15 335.019 86.41C334.349 86.66 333.659 86.79 332.959 86.79C332.009 86.79 331.139 86.59 330.359 86.18C329.579 85.77 328.989 85.18 328.599 84.41C328.199 83.64 327.999 82.78 327.999 81.83C327.999 80.88 328.189 80.01 328.589 79.19C328.989 78.38 329.549 77.77 330.289 77.37C331.029 76.97 331.889 76.78 332.849 76.78C333.549 76.78 334.179 76.89 334.749 77.12C335.319 77.35 335.759 77.67 336.079 78.07C336.399 78.48 336.639 79.01 336.809 79.66L335.649 79.97C335.499 79.48 335.319 79.09 335.109 78.8C334.889 78.52 334.589 78.29 334.179 78.13C333.779 77.96 333.339 77.87 332.849 77.87C332.269 77.87 331.759 77.96 331.329 78.14C330.899 78.32 330.559 78.55 330.299 78.84C330.039 79.13 329.839 79.45 329.689 79.8C329.439 80.4 329.319 81.05 329.319 81.75C329.319 82.62 329.469 83.34 329.769 83.93C330.069 84.51 330.499 84.95 331.069 85.23C331.639 85.51 332.239 85.65 332.879 85.65C333.439 85.65 333.979 85.54 334.509 85.33C335.039 85.11 335.439 84.88 335.709 84.64V82.82H332.859ZM338.259 83.11C338.259 81.82 338.619 80.85 339.339 80.23C339.939 79.71 340.679 79.45 341.549 79.45C342.509 79.45 343.309 79.77 343.919 80.4C344.529 81.03 344.839 81.9 344.839 83.02C344.839 83.92 344.699 84.63 344.429 85.15C344.159 85.67 343.759 86.07 343.249 86.35C342.729 86.64 342.169 86.78 341.549 86.78C340.569 86.78 339.769 86.47 339.159 85.84C338.549 85.21 338.249 84.3 338.249 83.12L338.259 83.11ZM339.479 83.11C339.479 84.01 339.679 84.68 340.069 85.13C340.469 85.58 340.959 85.8 341.559 85.8C342.159 85.8 342.639 85.58 343.039 85.13C343.429 84.68 343.629 84 343.629 83.08C343.629 82.21 343.429 81.56 343.039 81.11C342.639 80.66 342.149 80.44 341.559 80.44C340.969 80.44 340.469 80.66 340.069 81.11C339.679 81.55 339.479 82.23 339.479 83.12V83.11ZM348.159 86.62L345.509 79.59H346.789L348.289 83.8C348.449 84.25 348.599 84.72 348.739 85.21C348.849 84.84 348.989 84.4 349.179 83.87L350.739 79.58H351.959L349.299 86.61H348.149L348.159 86.62ZM357.809 84.34L359.039 84.51C358.849 85.22 358.489 85.78 357.969 86.18C357.449 86.57 356.779 86.77 355.959 86.77C354.939 86.77 354.119 86.46 353.519 85.82C352.919 85.19 352.619 84.3 352.619 83.17C352.619 82.04 352.919 81.07 353.529 80.42C354.139 79.77 354.929 79.44 355.889 79.44C356.849 79.44 357.589 79.76 358.189 80.4C358.779 81.04 359.079 81.94 359.079 83.1C359.079 83.17 359.079 83.27 359.079 83.41H353.849C353.889 84.18 354.109 84.77 354.499 85.18C354.889 85.59 355.379 85.79 355.969 85.79C356.409 85.79 356.779 85.68 357.079 85.45C357.389 85.22 357.639 84.85 357.819 84.34H357.809ZM353.909 82.43H357.819C357.769 81.84 357.619 81.39 357.369 81.1C356.989 80.64 356.499 80.41 355.899 80.41C355.349 80.41 354.889 80.59 354.519 80.96C354.149 81.33 353.949 81.82 353.899 82.43H353.909ZM360.539 86.62V79.59H361.609V80.67C361.879 80.17 362.139 79.84 362.369 79.68C362.599 79.52 362.859 79.44 363.139 79.44C363.539 79.44 363.949 79.57 364.359 79.82L363.939 80.92C363.649 80.76 363.359 80.68 363.069 80.68C362.809 80.68 362.579 80.76 362.369 80.91C362.159 81.07 362.019 81.28 361.929 81.56C361.799 81.98 361.729 82.45 361.729 82.95V86.62H360.539ZM365.059 86.62V79.59H366.129V80.59C366.649 79.82 367.389 79.44 368.359 79.44C368.789 79.44 369.169 79.52 369.529 79.67C369.879 79.82 370.149 80.02 370.319 80.27C370.499 80.52 370.619 80.81 370.689 81.15C370.729 81.37 370.749 81.76 370.749 82.31V86.63H369.559V82.36C369.559 81.88 369.509 81.51 369.419 81.27C369.329 81.03 369.159 80.84 368.929 80.69C368.699 80.55 368.419 80.48 368.099 80.48C367.589 80.48 367.159 80.64 366.789 80.96C366.419 81.28 366.239 81.89 366.239 82.79V86.63H365.049L365.059 86.62ZM372.589 86.62V79.59H373.659V80.58C373.879 80.24 374.169 79.96 374.539 79.75C374.909 79.54 375.319 79.44 375.789 79.44C376.309 79.44 376.729 79.55 377.069 79.76C377.399 79.98 377.629 80.28 377.769 80.67C378.329 79.85 379.059 79.44 379.949 79.44C380.649 79.44 381.189 79.63 381.569 80.02C381.949 80.41 382.129 81 382.129 81.8V86.62H380.939V82.19C380.939 81.72 380.899 81.37 380.819 81.16C380.739 80.95 380.599 80.78 380.399 80.66C380.199 80.53 379.959 80.47 379.689 80.47C379.189 80.47 378.779 80.63 378.449 80.96C378.129 81.29 377.959 81.82 377.959 82.54V86.62H376.769V82.06C376.769 81.53 376.669 81.13 376.479 80.87C376.289 80.61 375.969 80.47 375.529 80.47C375.199 80.47 374.889 80.56 374.599 80.73C374.309 80.91 374.109 81.16 373.979 81.51C373.849 81.85 373.789 82.34 373.789 82.98V86.62H372.599H372.589ZM388.669 84.34L389.899 84.51C389.709 85.22 389.349 85.78 388.829 86.18C388.309 86.57 387.639 86.77 386.819 86.77C385.799 86.77 384.979 86.46 384.379 85.82C383.779 85.19 383.479 84.3 383.479 83.17C383.479 82.04 383.779 81.07 384.389 80.42C384.999 79.77 385.789 79.44 386.749 79.44C387.709 79.44 388.449 79.76 389.049 80.4C389.639 81.04 389.939 81.94 389.939 83.1C389.939 83.17 389.939 83.27 389.939 83.41H384.699C384.749 84.18 384.959 84.77 385.359 85.18C385.749 85.59 386.239 85.79 386.819 85.79C387.259 85.79 387.629 85.68 387.939 85.45C388.249 85.22 388.489 84.85 388.669 84.34ZM384.769 82.43H388.679C388.629 81.84 388.479 81.39 388.229 81.1C387.849 80.64 387.359 80.41 386.759 80.41C386.209 80.41 385.749 80.59 385.379 80.96C385.009 81.33 384.809 81.82 384.759 82.43H384.769ZM391.409 86.62V79.59H392.479V80.59C392.989 79.82 393.739 79.44 394.709 79.44C395.129 79.44 395.519 79.52 395.879 79.67C396.229 79.82 396.499 80.02 396.669 80.27C396.839 80.52 396.969 80.81 397.039 81.15C397.079 81.37 397.109 81.76 397.109 82.31V86.63H395.919V82.36C395.919 81.88 395.869 81.51 395.779 81.27C395.689 81.03 395.519 80.84 395.289 80.69C395.049 80.55 394.779 80.48 394.459 80.48C393.949 80.48 393.519 80.64 393.149 80.96C392.779 81.28 392.599 81.89 392.599 82.79V86.63H391.409V86.62ZM401.529 85.55L401.689 86.6C401.359 86.67 401.059 86.71 400.789 86.71C400.359 86.71 400.019 86.64 399.779 86.5C399.539 86.36 399.379 86.19 399.279 85.96C399.179 85.74 399.129 85.27 399.129 84.55V80.5H398.249V79.58H399.129V77.84L400.319 77.12V79.57H401.509V80.49H400.319V84.61C400.319 84.95 400.339 85.17 400.389 85.27C400.429 85.37 400.499 85.45 400.589 85.5C400.679 85.56 400.819 85.58 400.999 85.58C401.129 85.58 401.309 85.56 401.519 85.53L401.529 85.55ZM406.019 83.1C406.019 81.81 406.379 80.84 407.099 80.22C407.699 79.7 408.439 79.44 409.309 79.44C410.269 79.44 411.069 79.76 411.679 80.39C412.289 81.02 412.599 81.89 412.599 83.01C412.599 83.91 412.459 84.62 412.189 85.14C411.919 85.66 411.529 86.06 411.009 86.34C410.489 86.63 409.929 86.77 409.309 86.77C408.329 86.77 407.529 86.46 406.919 85.83C406.309 85.2 406.009 84.29 406.009 83.11L406.019 83.1ZM407.239 83.1C407.239 84 407.439 84.67 407.829 85.12C408.229 85.57 408.719 85.79 409.319 85.79C409.919 85.79 410.399 85.57 410.799 85.12C411.189 84.67 411.389 83.99 411.389 83.07C411.389 82.2 411.189 81.55 410.799 81.1C410.399 80.65 409.909 80.43 409.319 80.43C408.729 80.43 408.229 80.65 407.829 81.1C407.439 81.54 407.239 82.22 407.239 83.11V83.1ZM414.289 86.61V80.5H413.229V79.58H414.289V78.84C414.289 78.37 414.329 78.02 414.409 77.79C414.529 77.48 414.719 77.23 415.009 77.04C415.299 76.85 415.699 76.75 416.219 76.75C416.549 76.75 416.919 76.79 417.329 76.87L417.149 77.91C416.899 77.87 416.669 77.84 416.449 77.84C416.089 77.84 415.829 77.92 415.679 78.07C415.529 78.22 415.459 78.51 415.459 78.93V79.57H416.829V80.49H415.479V86.6H414.289V86.61ZM423.179 86.61H421.889V76.91H423.179V86.61ZM425.279 86.61V79.58H426.349V80.58C426.859 79.81 427.609 79.43 428.579 79.43C428.999 79.43 429.389 79.51 429.749 79.66C430.099 79.81 430.369 80.01 430.539 80.26C430.709 80.51 430.839 80.8 430.909 81.14C430.949 81.36 430.979 81.75 430.979 82.3V86.62H429.789V82.35C429.789 81.87 429.749 81.5 429.649 81.26C429.559 81.02 429.389 80.83 429.159 80.68C428.929 80.54 428.649 80.47 428.329 80.47C427.819 80.47 427.389 80.63 427.019 80.95C426.649 81.27 426.469 81.88 426.469 82.78V86.62H425.279V86.61ZM437.349 86.61V85.72C436.899 86.41 436.249 86.76 435.389 86.76C434.829 86.76 434.319 86.61 433.849 86.3C433.379 85.99 433.019 85.56 432.759 85.01C432.499 84.46 432.369 83.82 432.369 83.11C432.369 82.4 432.489 81.77 432.719 81.2C432.949 80.63 433.299 80.19 433.769 79.89C434.229 79.58 434.759 79.43 435.329 79.43C435.759 79.43 436.129 79.52 436.459 79.7C436.789 79.88 437.059 80.11 437.259 80.4V76.91H438.449V86.61H437.339H437.349ZM433.579 83.1C433.579 84 433.769 84.67 434.149 85.12C434.529 85.56 434.979 85.78 435.489 85.78C435.999 85.78 436.449 85.57 436.819 85.14C437.179 84.72 437.369 84.07 437.369 83.2C437.369 82.24 437.189 81.54 436.809 81.09C436.439 80.64 435.979 80.42 435.439 80.42C434.899 80.42 434.469 80.63 434.109 81.07C433.759 81.5 433.579 82.18 433.579 83.11V83.1ZM441.529 78.26H440.339V76.91H441.529V78.26ZM441.529 86.61H440.339V79.58H441.529V86.61ZM447.939 85.73C447.499 86.11 447.069 86.37 446.659 86.53C446.249 86.69 445.819 86.76 445.339 86.76C444.569 86.76 443.979 86.57 443.559 86.2C443.149 85.83 442.939 85.35 442.939 84.76C442.939 84.42 443.019 84.1 443.179 83.82C443.339 83.53 443.539 83.31 443.799 83.13C444.049 82.96 444.339 82.83 444.649 82.74C444.889 82.68 445.239 82.62 445.709 82.56C446.669 82.45 447.379 82.31 447.829 82.15C447.829 81.99 447.829 81.88 447.829 81.84C447.829 81.36 447.719 81.02 447.489 80.82C447.179 80.55 446.729 80.42 446.129 80.42C445.569 80.42 445.149 80.52 444.889 80.72C444.619 80.92 444.419 81.26 444.299 81.76L443.129 81.6C443.239 81.1 443.409 80.7 443.649 80.39C443.899 80.09 444.249 79.85 444.709 79.68C445.169 79.51 445.699 79.43 446.309 79.43C446.919 79.43 447.399 79.5 447.779 79.64C448.149 79.78 448.429 79.96 448.609 80.17C448.779 80.38 448.909 80.66 448.979 80.98C449.019 81.18 449.039 81.55 449.039 82.08V83.66C449.039 84.76 449.069 85.46 449.109 85.76C449.159 86.05 449.259 86.34 449.399 86.61H448.149C448.039 86.36 447.949 86.06 447.919 85.73H447.939ZM447.849 83.09C447.419 83.27 446.759 83.41 445.899 83.54C445.409 83.61 445.059 83.69 444.859 83.78C444.659 83.87 444.499 84 444.389 84.16C444.279 84.33 444.229 84.52 444.229 84.72C444.229 85.03 444.349 85.3 444.589 85.51C444.839 85.72 445.179 85.82 445.649 85.82C446.119 85.82 446.519 85.72 446.869 85.52C447.229 85.32 447.499 85.05 447.659 84.7C447.789 84.43 447.849 84.04 447.849 83.52V83.08V83.09ZM461.149 76.91H462.439V82.51C462.439 83.49 462.329 84.26 462.109 84.83C461.889 85.4 461.489 85.87 460.919 86.23C460.339 86.59 459.589 86.77 458.659 86.77C457.729 86.77 457.009 86.62 456.429 86.3C455.859 85.99 455.439 85.53 455.199 84.94C454.949 84.35 454.829 83.54 454.829 82.51V76.91H456.119V82.51C456.119 83.35 456.199 83.98 456.359 84.37C456.519 84.77 456.779 85.08 457.169 85.29C457.539 85.51 458.009 85.62 458.559 85.62C459.499 85.62 460.169 85.41 460.569 84.98C460.969 84.55 461.169 83.73 461.169 82.51V76.91H461.149ZM464.429 86.61V79.58H465.499V80.58C466.019 79.81 466.759 79.43 467.739 79.43C468.159 79.43 468.549 79.51 468.909 79.66C469.269 79.81 469.529 80.01 469.709 80.26C469.879 80.51 470.009 80.8 470.079 81.14C470.119 81.36 470.139 81.75 470.139 82.3V86.62H468.949V82.35C468.949 81.87 468.899 81.5 468.809 81.26C468.719 81.02 468.549 80.83 468.319 80.68C468.079 80.54 467.809 80.47 467.489 80.47C466.979 80.47 466.549 80.63 466.179 80.95C465.809 81.27 465.629 81.88 465.629 82.78V86.62H464.439L464.429 86.61ZM476.499 86.61V85.72C476.049 86.41 475.399 86.76 474.529 86.76C473.969 86.76 473.459 86.61 472.989 86.3C472.519 85.99 472.159 85.56 471.899 85.01C471.639 84.46 471.509 83.82 471.509 83.11C471.509 82.4 471.629 81.77 471.859 81.2C472.089 80.63 472.439 80.19 472.909 79.89C473.369 79.58 473.899 79.43 474.469 79.43C474.889 79.43 475.269 79.52 475.599 79.7C475.929 79.88 476.199 80.11 476.399 80.4V76.91H477.589V86.61H476.479H476.499ZM472.729 83.1C472.729 84 472.919 84.67 473.299 85.12C473.679 85.56 474.129 85.78 474.649 85.78C475.169 85.78 475.609 85.57 475.979 85.14C476.339 84.72 476.529 84.07 476.529 83.2C476.529 82.24 476.339 81.54 475.969 81.09C475.599 80.64 475.139 80.42 474.599 80.42C474.059 80.42 473.629 80.63 473.269 81.07C472.919 81.5 472.739 82.18 472.739 83.11L472.729 83.1ZM484.289 84.33L485.519 84.5C485.329 85.21 484.969 85.77 484.449 86.17C483.929 86.56 483.259 86.76 482.439 86.76C481.409 86.76 480.599 86.45 479.999 85.81C479.399 85.18 479.099 84.29 479.099 83.16C479.099 82.03 479.399 81.06 480.009 80.41C480.619 79.76 481.409 79.43 482.369 79.43C483.329 79.43 484.069 79.75 484.669 80.39C485.259 81.03 485.559 81.93 485.559 83.09C485.559 83.16 485.559 83.26 485.559 83.4H480.329C480.369 84.17 480.589 84.76 480.979 85.17C481.369 85.58 481.859 85.78 482.449 85.78C482.879 85.78 483.259 85.67 483.559 85.44C483.869 85.21 484.109 84.84 484.299 84.33H484.289ZM480.389 82.42H484.309C484.259 81.83 484.109 81.38 483.859 81.09C483.479 80.63 482.989 80.4 482.389 80.4C481.839 80.4 481.379 80.58 481.009 80.95C480.639 81.32 480.439 81.81 480.389 82.42ZM487.019 86.61V79.58H488.089V80.66C488.359 80.16 488.619 79.83 488.849 79.67C489.079 79.51 489.339 79.43 489.619 79.43C490.019 79.43 490.429 79.56 490.839 79.81L490.409 80.91C490.119 80.75 489.829 80.67 489.539 80.67C489.279 80.67 489.049 80.75 488.839 80.9C488.639 81.06 488.489 81.27 488.399 81.55C488.259 81.97 488.199 82.44 488.199 82.94V86.61H487.009H487.019ZM494.129 85.54L494.289 86.59C493.959 86.66 493.649 86.7 493.389 86.7C492.959 86.7 492.629 86.63 492.389 86.49C492.149 86.35 491.979 86.18 491.889 85.95C491.799 85.73 491.749 85.26 491.749 84.54V80.49H490.869V79.57H491.749V77.83L492.939 77.11V79.56H494.129V80.48H492.939V84.6C492.939 84.94 492.959 85.16 493.009 85.26C493.049 85.36 493.119 85.44 493.209 85.49C493.299 85.55 493.439 85.57 493.619 85.57C493.749 85.57 493.919 85.55 494.139 85.52L494.129 85.54ZM499.899 85.72C499.459 86.1 499.029 86.36 498.619 86.52C498.209 86.68 497.769 86.75 497.299 86.75C496.529 86.75 495.939 86.56 495.519 86.19C495.099 85.82 494.899 85.34 494.899 84.75C494.899 84.41 494.979 84.09 495.129 83.81C495.289 83.52 495.489 83.3 495.749 83.12C496.009 82.95 496.289 82.82 496.609 82.73C496.849 82.67 497.199 82.61 497.669 82.55C498.629 82.44 499.339 82.3 499.799 82.14C499.799 81.98 499.799 81.87 499.799 81.83C499.799 81.35 499.689 81.01 499.459 80.81C499.159 80.54 498.699 80.41 498.099 80.41C497.539 80.41 497.119 80.51 496.849 80.71C496.579 80.91 496.389 81.25 496.259 81.75L495.099 81.59C495.209 81.09 495.379 80.69 495.629 80.38C495.869 80.08 496.229 79.84 496.679 79.67C497.139 79.5 497.669 79.42 498.279 79.42C498.889 79.42 499.369 79.49 499.749 79.63C500.119 79.77 500.399 79.95 500.579 80.16C500.759 80.37 500.879 80.65 500.949 80.97C500.989 81.17 501.009 81.54 501.009 82.07V83.65C501.009 84.75 501.039 85.45 501.079 85.75C501.129 86.04 501.229 86.33 501.369 86.6H500.119C499.999 86.35 499.919 86.05 499.889 85.72H499.899ZM499.799 83.08C499.369 83.26 498.719 83.4 497.849 83.53C497.359 83.6 497.009 83.68 496.809 83.77C496.609 83.86 496.449 83.99 496.339 84.15C496.229 84.32 496.169 84.51 496.169 84.71C496.169 85.02 496.289 85.29 496.529 85.5C496.769 85.71 497.119 85.81 497.589 85.81C498.059 85.81 498.459 85.71 498.809 85.51C499.169 85.31 499.429 85.04 499.599 84.69C499.729 84.42 499.789 84.03 499.789 83.51V83.07L499.799 83.08ZM502.839 86.61V76.91H504.029V82.43L506.849 79.57H508.389L505.709 82.18L508.659 86.6H507.189L504.859 83.01L504.029 83.81V86.6H502.839V86.61ZM510.799 78.26H509.609V76.91H510.799V78.26ZM510.799 86.61H509.609V79.58H510.799V86.61ZM512.619 86.61V79.58H513.689V80.58C514.209 79.81 514.949 79.43 515.919 79.43C516.339 79.43 516.729 79.51 517.089 79.66C517.439 79.81 517.709 80.01 517.889 80.26C518.069 80.51 518.189 80.8 518.259 81.14C518.309 81.36 518.329 81.75 518.329 82.3V86.62H517.139V82.35C517.139 81.87 517.099 81.5 516.999 81.26C516.909 81.02 516.739 80.83 516.509 80.68C516.279 80.54 515.999 80.47 515.679 80.47C515.169 80.47 514.739 80.63 514.369 80.95C513.999 81.27 513.819 81.88 513.819 82.78V86.62H512.629L512.619 86.61ZM519.929 87.19L521.079 87.35C521.129 87.71 521.259 87.97 521.489 88.13C521.789 88.35 522.189 88.46 522.699 88.46C523.249 88.46 523.679 88.35 523.979 88.13C524.279 87.91 524.479 87.6 524.589 87.2C524.649 86.96 524.679 86.45 524.669 85.68C524.149 86.29 523.499 86.6 522.729 86.6C521.759 86.6 521.009 86.25 520.479 85.55C519.949 84.86 519.689 84.02 519.689 83.05C519.689 82.38 519.809 81.76 520.049 81.19C520.289 80.63 520.639 80.19 521.099 79.88C521.559 79.57 522.099 79.42 522.729 79.42C523.559 79.42 524.239 79.76 524.779 80.44V79.57H525.879V85.64C525.879 86.73 525.769 87.51 525.549 87.96C525.329 88.42 524.979 88.78 524.489 89.04C524.009 89.3 523.409 89.44 522.709 89.44C521.869 89.44 521.199 89.25 520.679 88.88C520.169 88.51 519.909 87.94 519.929 87.18V87.19ZM520.899 82.97C520.899 83.89 521.079 84.56 521.449 84.98C521.819 85.4 522.279 85.62 522.829 85.62C523.379 85.62 523.839 85.41 524.209 84.99C524.579 84.57 524.759 83.91 524.759 83.01C524.759 82.11 524.569 81.5 524.189 81.07C523.809 80.64 523.349 80.42 522.809 80.42C522.269 80.42 521.829 80.63 521.459 81.06C521.089 81.49 520.899 82.13 520.899 82.97ZM528.459 89.45H527.599C528.919 87.33 529.579 85.22 529.579 83.1C529.579 82.27 529.489 81.45 529.289 80.63C529.139 79.97 528.929 79.33 528.659 78.72C528.489 78.32 528.129 77.66 527.589 76.74H528.449C529.269 77.85 529.889 78.96 530.279 80.07C530.619 81.03 530.789 82.03 530.789 83.08C530.789 84.27 530.559 85.42 530.099 86.53C529.649 87.64 529.089 88.61 528.439 89.44L528.459 89.45Z" fill="#030303"/>
<path fill-rule="evenodd" clip-rule="evenodd" d="M62.3291 0.790039C96.2691 0.790039 123.779 21.39 123.779 46.81C123.779 72.23 96.2691 92.83 62.3291 92.83C28.3891 92.83 0.878906 72.23 0.878906 46.81C0.878906 21.39 28.3891 0.790039 62.3291 0.790039Z" fill="#FEFEFE"/>
<path fill-rule="evenodd" clip-rule="evenodd" d="M88.2593 65.18C87.9693 65.55 87.5896 65.78 87.1396 65.85C87.2096 66.15 87.4397 66.37 87.6597 66.59C87.9697 66.74 88.2596 66.81 88.5596 66.81H88.6294C88.9194 66.81 89.0696 66.74 89.3696 66.59C89.6696 66.45 89.8896 66.22 90.1196 65.92V62.88H88.3296C88.4796 63.1 88.5594 63.32 88.6294 63.47C88.6994 63.69 88.7695 63.84 88.7695 63.92C88.7695 64.22 88.6994 64.44 88.6294 64.66C88.5594 64.81 88.3995 65.03 88.2495 65.18H88.2593ZM90.9697 75.34C90.3597 75.34 89.8696 75.78 89.8696 76.31H89.8594V77.92H92.1196V76.31C92.1196 75.78 91.5797 75.34 90.9697 75.34ZM80.1094 75.24C80.0494 75.24 80.0095 75.24 79.9595 75.24H79.6895V79.21H80.1694C81.2494 79.17 82.1196 78.3 82.1196 77.22C82.1196 76.14 81.2194 75.24 80.1094 75.24ZM62.3394 0.780029C28.4794 0.780029 0.859375 21.45 0.859375 46.81C0.859375 72.17 28.4794 92.84 62.3394 92.84C96.1994 92.84 123.81 72.16 123.81 46.81C123.81 21.46 96.1994 0.780029 62.3394 0.780029ZM9.05957 56.36L36.0796 18.11H57.5596L43.8896 37.35H47.7593L61.4194 18.11H81.4194L54.3994 56.36H9.04932H9.05957ZM36.2695 78.25C36.2495 79.7 34.8997 80.89 33.2397 80.89C31.5797 80.89 30.2195 79.71 30.2095 78.25V73.65H32.1294V78.23C32.1294 78.76 32.6297 79.2 33.2397 79.2C33.8497 79.2 34.3896 78.76 34.3896 78.23V73.65H36.2695V78.25ZM43.5894 80.89H41.7095V76.31C41.7095 75.78 41.1696 75.34 40.5596 75.34C39.9496 75.34 39.4595 75.78 39.4595 76.31H39.4497V80.89H37.5396V76.29C37.5596 74.83 38.9093 73.65 40.5693 73.65C42.2293 73.65 43.5796 74.83 43.5996 76.29V80.89H43.5894ZM46.5996 80.81H44.7197V73.65H46.5996V80.81ZM52.6895 75.55H51.2197V80.81H49.3394V75.55H47.8696V73.66H52.6895V75.55ZM57.6494 75.29C57.4794 75.25 57.3096 75.24 57.1396 75.24C56.1896 75.24 55.3696 75.8 55.0796 76.58H57.6494V78.03H55.1494C55.4894 78.73 56.2496 79.21 57.1396 79.21C57.3096 79.21 57.4794 79.2 57.6494 79.16V80.83C57.4794 80.85 57.3096 80.86 57.1396 80.86C54.9396 80.86 53.1494 79.23 53.1494 77.22C53.1494 75.21 54.9396 73.58 57.1396 73.58C57.3096 73.58 57.4794 73.58 57.6494 73.61V75.28V75.29ZM61.5596 80.86C61.5096 80.86 61.4594 80.86 61.3994 80.86V80.89H59.3296V73.6H61.3096C61.3896 73.6 61.4693 73.6 61.5493 73.6C63.6693 73.6 65.3994 75.23 65.3994 77.24C65.3994 79.25 63.6693 80.88 61.5493 80.88L61.5596 80.86ZM65.4795 62.86H64.2896V64.57H61.5396C61.4595 64.57 61.3896 64.64 61.3096 64.64C61.2629 64.6867 61.2397 64.7367 61.2397 64.79C61.2397 64.94 61.3894 65.09 61.6094 65.31C61.8294 65.53 62.0495 65.68 62.2095 65.68C62.3695 65.68 62.5093 65.61 62.7993 65.53C63.0293 65.45 63.2496 65.38 63.3896 65.38C63.7596 65.38 64.1397 65.53 64.4297 65.75C64.7297 66.04 64.8794 66.34 64.8794 66.72C64.8794 67.39 64.6595 67.84 64.2095 68.28C63.6895 68.72 63.1695 68.87 62.4995 68.87C61.6795 68.87 60.8596 68.58 60.1196 68.06C59.3696 67.46 58.7793 66.64 58.2593 65.68L59.2993 65.23C59.5993 65.98 59.9696 66.64 60.5596 67.17C61.1496 67.61 61.8195 67.91 62.4995 67.91C62.7895 67.91 63.0896 67.76 63.3896 67.54C63.6096 67.31 63.7593 67.09 63.7593 66.72C63.7593 66.64 63.6894 66.57 63.6094 66.49C63.5394 66.49 63.3896 66.42 63.3096 66.42C63.1596 66.42 62.9397 66.49 62.7197 66.56C62.4197 66.63 62.2696 66.63 62.1196 66.63C61.7496 66.63 61.2994 66.41 60.8594 65.81C60.3394 65.29 60.0396 64.85 60.0396 64.4C60.0396 64.25 60.1796 64.02 60.3296 63.88C60.5496 63.73 60.7796 63.65 61.0796 63.65H63.1694V62.84H56.9194V64.92H54.3096C54.0896 64.92 53.7896 65.07 53.6396 65.29C53.4196 65.44 53.2695 65.74 53.2695 66.03C53.2695 66.55 53.4897 67 53.9297 67.29C54.2997 67.67 54.8294 67.82 55.4194 67.82C55.6394 67.82 55.9397 67.75 56.1597 67.59C56.4597 67.44 56.7595 67.22 56.9795 66.92L57.8696 67.59C57.5796 67.97 57.1996 68.34 56.8296 68.56C56.3896 68.78 55.8594 68.85 55.4194 68.85C54.5194 68.85 53.6994 68.63 53.1094 68.04C52.4394 67.52 52.1396 66.77 52.1396 66.03C52.1396 65.43 52.3596 64.91 52.8096 64.54C53.2596 64.09 53.7794 63.87 54.3794 63.87H55.7896V62.83H50.5796V64.54H48.1294C47.9794 64.54 47.9096 64.61 47.8296 64.61C47.7596 64.68 47.7593 64.76 47.7593 64.84C47.7593 64.99 47.8296 65.14 48.0596 65.36C48.2096 65.51 48.4296 65.58 48.5796 65.58C48.6596 65.58 48.9495 65.58 49.2495 65.51C49.5495 65.43 49.7694 65.36 49.9194 65.36C50.2894 65.36 50.5896 65.51 50.8896 65.8C51.1096 66.02 51.2593 66.4 51.2593 66.77C51.2593 67.29 51.1097 67.81 50.7397 68.19C50.4397 68.56 50.0693 68.78 49.5493 68.93C49.9193 69.23 50.3696 69.6 51.0396 69.98L50.4395 70.87C49.3995 70.35 48.7295 69.76 48.2095 69.24C47.7595 69.24 47.3197 69.09 46.9497 68.86C46.5797 68.64 46.4194 68.42 46.4194 68.05C46.4194 67.83 46.4896 67.68 46.6396 67.53C46.7896 67.38 47.0095 67.23 47.2295 67.23C47.4495 67.23 47.9794 67.53 48.6494 68.12C49.0194 68.12 49.3895 67.97 49.6895 67.75C49.9895 67.53 50.1294 67.23 50.1294 66.86C50.1294 66.78 50.1296 66.63 50.0596 66.56C49.9896 66.48 49.9094 66.42 49.8394 66.42C49.6194 66.42 49.3894 66.49 49.0894 66.56C48.7994 66.63 48.4996 66.63 48.3496 66.63C48.0496 66.63 47.6795 66.41 47.2295 65.96C46.7895 65.52 46.5693 65.14 46.5693 64.85C46.5693 64.48 46.7193 64.25 47.0093 63.95C47.3093 63.73 47.6794 63.65 48.1294 63.65H49.3896V62.84H44.9194V69.01H43.8096V62.84H41.7993V69.01H40.6094V65.37H38.6694C38.5994 65.37 38.5197 65.37 38.4497 65.44C38.3697 65.52 38.3696 65.59 38.3696 65.66V66.41C38.3696 66.55 38.2997 66.63 38.2197 66.71C38.1497 66.86 38.0695 66.86 37.9995 66.86C37.6995 66.86 37.3294 66.63 36.8794 66.11C36.4394 65.59 36.2793 65.14 36.2793 64.77C36.2793 64.62 36.2795 64.55 36.4395 64.48C36.5095 64.4 36.6596 64.33 36.8096 64.33H40.6094V62.85H34.9497V68.89C35.2097 68.96 35.4496 69.07 35.6196 69.25C35.9896 69.62 36.1396 70 36.1396 70.37C36.1396 70.89 35.9896 71.34 35.5396 71.71C35.1696 72.08 34.6494 72.23 34.1294 72.23C33.4594 72.23 32.7896 72.08 32.1196 71.78C31.5196 71.41 30.9295 70.96 30.4795 70.37L31.0693 69.7C31.5893 70.22 32.1094 70.59 32.6294 70.88C33.1494 71.11 33.5996 71.25 34.1196 71.25C34.4196 71.25 34.6396 71.18 34.8696 71.03C35.0896 70.81 35.1694 70.66 35.1694 70.36C35.1694 70.21 35.0895 70.06 34.9395 69.99C34.7895 69.84 34.5694 69.76 34.4194 69.76C34.2694 69.76 34.1993 69.84 34.0493 69.91C33.8993 69.99 33.7594 70.06 33.6094 70.21L32.9395 69.47C33.1595 69.25 33.4597 69.09 33.6797 69.02C33.7297 68.99 33.7796 68.98 33.8296 68.95V67.23C33.6096 67.45 33.3796 67.6 33.0796 67.68C32.8596 67.83 32.5596 67.83 32.3296 67.83H32.2593C31.4393 67.83 30.7695 67.53 30.2495 67.01C29.7295 66.42 29.4297 65.67 29.4297 64.86C29.7997 64.93 30.0296 64.93 30.0996 64.93C30.3996 64.93 30.6894 64.86 30.9194 64.63C31.1394 64.48 31.2095 64.19 31.2095 63.89C31.2095 63.74 31.2096 63.52 31.0596 63.37C30.9896 63.15 30.8395 63 30.6895 62.85H29.0493V61.81H55.9194L52.8696 58.91L53.6895 58.23L56.9697 61.81H65.4497V62.85L65.4795 62.86ZM69.1597 80.8H67.2695V73.64H69.1597V80.8ZM76.6396 80.88H74.7495V76.3C74.7495 75.77 74.2096 75.33 73.5996 75.33C72.9896 75.33 72.4995 75.77 72.4995 76.3H72.4897V80.88H70.5693V76.28C70.5893 74.82 71.9396 73.64 73.5996 73.64C75.2596 73.64 76.6194 74.82 76.6294 76.28V80.88H76.6396ZM80.0996 80.86C80.0396 80.86 79.9997 80.86 79.9497 80.86V80.89H77.9697V73.6H79.8696C79.9496 73.6 80.0296 73.6 80.0996 73.6C82.1196 73.6 83.7695 75.23 83.7695 77.24C83.7695 79.25 82.1196 80.88 80.0996 80.88V80.86ZM86.6597 80.8H84.7793V73.64H86.6597V80.8ZM93.9795 80.88H92.0996V79.2H89.8394V80.88H87.9297V76.28C87.9297 74.82 89.2995 73.64 90.9595 73.64C92.6195 73.64 93.9697 74.82 93.9897 76.28V80.88H93.9795ZM95.6094 62.86H94.4897V69.03H93.2993V62.86H91.2896V69.03H90.0996V67.25C89.9496 67.47 89.7297 67.62 89.4297 67.7C89.1297 67.85 88.9094 67.85 88.6094 67.85H88.5396C87.7896 67.85 87.1196 67.55 86.5996 67.03C86.0796 66.44 85.7793 65.69 85.7793 64.88C86.0793 64.95 86.2997 64.95 86.4497 64.95C86.7497 64.95 87.0395 64.88 87.2695 64.65C87.4195 64.5 87.5693 64.21 87.5693 63.91C87.5693 63.76 87.4994 63.54 87.4194 63.39C87.3494 63.17 87.1893 63.02 87.0493 62.87H84.5195V64.58H81.6895C81.6195 64.58 81.6196 64.65 81.5396 64.65C81.4862 64.6967 81.4595 64.7467 81.4595 64.8C81.4595 64.95 81.5394 65.1 81.8394 65.32C82.0594 65.54 82.2194 65.69 82.3594 65.69C82.5194 65.69 82.7295 65.62 82.9595 65.54C83.2495 65.46 83.4096 65.39 83.5596 65.39C83.9996 65.39 84.3796 65.54 84.5996 65.76C84.8996 66.05 85.0493 66.35 85.0493 66.73C85.0493 67.4 84.8194 67.85 84.3794 68.29C83.9294 68.73 83.3397 68.88 82.7397 68.88C81.8497 68.88 81.1096 68.59 80.3696 68.07C79.5496 67.47 78.9493 66.65 78.5093 65.69L79.4795 65.24C79.7795 65.99 80.2193 66.65 80.8193 67.18C81.4193 67.62 82.0095 67.92 82.7495 67.92C83.0495 67.92 83.3493 67.77 83.5693 67.55C83.7893 67.32 83.9395 67.1 83.9395 66.73C83.9395 66.65 83.9396 66.58 83.7896 66.5C83.7196 66.5 83.6395 66.43 83.4995 66.43C83.3495 66.43 83.1997 66.5 82.9097 66.57C82.6797 66.64 82.4596 66.64 82.3096 66.64C82.0196 66.64 81.5695 66.42 81.0396 65.82C80.5196 65.3 80.2993 64.86 80.2993 64.41C80.2993 64.26 80.3694 64.03 80.5894 63.89C80.7394 63.74 80.9593 63.66 81.2593 63.66H83.3394V62.85H77.3096V69.02H76.1895V62.85H73.9595V64.56H71.5093C71.3593 64.56 71.2895 64.63 71.2095 64.63C71.1395 64.7 71.1396 64.78 71.1396 64.86C71.1396 65.01 71.2094 65.16 71.4395 65.38C71.5895 65.53 71.7394 65.6 71.8794 65.6C72.0394 65.6 72.2594 65.6 72.6294 65.53C72.8494 65.45 73.1493 65.38 73.2993 65.38C73.6693 65.38 73.9595 65.53 74.2695 65.82C74.4795 66.04 74.6396 66.42 74.6396 66.79C74.6396 67.31 74.4796 67.83 74.1196 68.21C73.8196 68.58 73.4497 68.8 72.9297 68.95C73.3097 69.25 73.7496 69.62 74.3496 70L73.7495 70.89C72.7795 70.37 72.1094 69.78 71.5894 69.26C71.1394 69.26 70.6993 69.11 70.3193 68.88C69.9493 68.66 69.7993 68.44 69.7993 68.07C69.7993 67.85 69.8695 67.7 70.0195 67.55C70.1695 67.4 70.3896 67.25 70.6196 67.25C70.8496 67.25 71.2896 67.55 72.0396 68.14C72.4096 68.14 72.7796 67.99 73.0796 67.77C73.3796 67.55 73.5195 67.25 73.5195 66.88C73.5195 66.8 73.4497 66.65 73.4497 66.58C73.3797 66.5 73.3095 66.44 73.2295 66.44C73.0095 66.44 72.7795 66.51 72.4795 66.58C72.1795 66.65 71.8797 66.65 71.7397 66.65C71.4397 66.65 71.0696 66.43 70.6196 65.98C70.0996 65.54 69.9497 65.16 69.9497 64.87C69.9497 64.5 70.0996 64.27 70.3896 63.97C70.6897 63.75 71.0593 63.67 71.5093 63.67H72.7695V62.86H69.1997V61.82H76.0493C75.9693 61.67 75.9694 61.59 75.8994 61.45V61C75.8994 60.4 76.1195 59.89 76.7095 59.44C77.2295 58.99 77.8293 58.78 78.5693 58.78C79.3893 58.78 80.1293 59.07 80.7993 59.6C81.5493 60.19 82.0695 60.87 82.5195 61.75H81.3296C81.0296 61.16 80.5896 60.72 80.1396 60.34C79.6197 60.04 79.0996 59.9 78.5796 59.9C78.2096 59.9 77.8396 59.97 77.5396 60.19C77.2395 60.41 77.0894 60.71 77.0894 61.01C77.0894 61.31 77.0897 61.6 77.2397 61.83H95.6294V62.87L95.6094 62.86ZM74.0493 60.34H72.9595V59.25H74.0493V60.34ZM85.6494 56.33L71.9897 38.38L85.9497 18.09L115.06 56.33H85.6494ZM32.3594 63.54C32.4394 63.76 32.4395 63.84 32.4395 63.91C32.4395 64.21 32.4394 64.43 32.3594 64.65C32.2894 64.8 32.1397 65.02 31.9897 65.17C31.6997 65.54 31.2393 65.77 30.7993 65.84C30.8693 66.14 31.0893 66.36 31.3193 66.58C31.6193 66.73 31.9195 66.8 32.2896 66.8H32.3594C32.5094 66.8 32.8093 66.73 33.0293 66.58C33.3293 66.44 33.5496 66.21 33.8496 65.91V62.87H31.9897C32.1397 63.16 32.2894 63.39 32.3594 63.54ZM61.5493 75.24C61.5493 75.24 61.4494 75.24 61.3994 75.24H61.0996V79.21H61.6094C62.7394 79.17 63.6494 78.3 63.6494 77.22C63.6494 76.14 62.7093 75.24 61.5493 75.24Z" fill="#3150A0"/>
</svg>
