<svg width="36" height="36" viewBox="0 0 36 36" fill="none" xmlns="http://www.w3.org/2000/svg">
<path fill-rule="evenodd" clip-rule="evenodd" d="M0 18C0 8.05887 8.05887 0 18 0C27.9411 0 36 8.05887 36 18C36 27.9411 27.9411 36 18 36C8.05887 36 0 27.9411 0 18ZM26.6405 13.5496C27.1198 13.0704 27.1198 12.2933 26.6405 11.814C26.1613 11.3347 25.3842 11.3347 24.9049 11.814L15.1364 21.5826L11.0951 17.5413C10.6158 17.062 9.83874 17.062 9.35946 17.5413C8.88018 18.0206 8.88018 18.7976 9.35946 19.2769L14.2685 24.186C14.7478 24.6653 15.5249 24.6653 16.0042 24.186L26.6405 13.5496Z" fill="#071639"/>
</svg>
