<svg width="15" height="15" viewBox="0 0 15 15" fill="none" xmlns="http://www.w3.org/2000/svg">
<path d="M10.9466 0.947432C11.0814 0.60263 11.2225 0.505138 11.5721 0.504691C12.5134 0.504244 13.4551 0.503796 14.3964 0.504691C14.7895 0.504691 14.9998 0.712646 14.9998 1.10172C15.0003 3.86282 14.9998 6.62392 14.9998 9.38502C14.9998 9.77812 14.7931 9.98562 14.4013 9.98607C13.4713 9.98697 12.5408 9.98205 11.6107 9.9892C11.3577 9.99099 11.1452 9.93777 10.9979 9.69538C10.9543 9.74681 10.9183 9.78572 10.886 9.82776C9.81888 11.2159 8.86321 12.6765 8.01223 14.2051C7.71704 14.7359 7.27043 15.0101 6.65803 15.0002C6.54795 14.9984 6.42933 14.9859 6.32959 14.9434C5.69293 14.672 5.14298 14.291 4.82263 13.6564C4.61954 13.2539 4.59168 12.8236 4.69053 12.3845C4.89451 11.4771 5.0967 10.5688 5.29844 9.66095C5.30922 9.61354 5.31237 9.56435 5.32225 9.49145C5.24272 9.49145 5.17802 9.49145 5.11288 9.49145C4.2273 9.49145 3.34217 9.49637 2.45659 9.49011C1.03949 9.48027 -0.0361427 8.37386 0.000699746 6.96648C0.0119322 6.54029 0.127853 6.1378 0.364636 5.78226C1.37647 4.26307 2.37976 2.73763 3.41675 1.23544C3.97209 0.4309 4.78533 0.0293017 5.76616 0.011861C6.78024 -0.00602794 7.79477 -0.000661526 8.80885 0.0100722C9.57985 0.0185685 10.2489 0.300314 10.8141 0.823106C10.8545 0.860673 10.8945 0.899132 10.9462 0.947432L10.9466 0.947432ZM10.9376 5.4388C10.9376 4.59133 10.9354 3.74341 10.9399 2.89594C10.9408 2.76178 10.9134 2.65132 10.8262 2.54354C10.6469 2.32261 10.4821 2.09006 10.3091 1.86333C9.90919 1.33964 9.37856 1.07712 8.71719 1.07757C7.77051 1.07757 6.82338 1.07802 5.87669 1.07757C5.16724 1.07712 4.61055 1.36602 4.21607 1.95322C3.24512 3.39861 2.27148 4.84222 1.31536 6.29745C1.18641 6.49378 1.1006 6.74824 1.08442 6.98169C1.02871 7.7898 1.6429 8.4159 2.46288 8.41903C3.60591 8.4235 4.74894 8.41903 5.89197 8.42037C6.39564 8.42082 6.614 8.70033 6.50437 9.19048C6.24782 10.3371 5.99396 11.4847 5.7401 12.6322C5.66013 12.994 5.76931 13.2923 6.05731 13.5244C6.16604 13.6121 6.27972 13.6939 6.39159 13.7775C6.72318 14.0244 6.88583 13.9842 7.10554 13.6318C7.81319 12.4954 8.5132 11.3541 9.24467 10.2329C9.69892 9.53617 10.2098 8.87653 10.8262 8.30812C10.908 8.23255 10.9399 8.15831 10.9394 8.04919C10.9359 7.17936 10.9372 6.30908 10.9372 5.43925L10.9376 5.4388ZM12.0263 1.58113L12.0263 8.90337L13.9129 8.90337L13.9129 1.58113L12.0268 1.58113L12.0263 1.58113Z" fill="#0E2B72"/>
</svg>
