<svg width="196" height="196" viewBox="0 0 196 196" fill="none" xmlns="http://www.w3.org/2000/svg">
<rect width="196" height="196" fill="#FFF8E6"/>
<path d="M27.4027 166.138C40.1233 97.4661 108.884 41.588 180.703 41.5211L181.616 36.5582C182.232 33.2148 179.545 30.1538 175.998 30.1538H44.9918C42.2236 30.1538 39.8561 32.0558 39.3737 34.6636L16.2406 160.12C15.6246 163.463 18.3112 166.524 21.8587 166.524H27.4175C27.4175 166.398 27.3804 166.272 27.4101 166.138H27.4027Z" fill="#0E2B72"/>
<path d="M107.325 137.085H100.504C100.237 137.085 100.014 137.263 99.9624 137.508L98.8788 142.932C98.812 143.259 99.0718 143.556 99.4206 143.556H106.174C108.26 143.556 111.54 142.902 111.503 140.005C111.466 137.976 109.165 137.077 107.325 137.077V137.085Z" fill="#0E2B72"/>
<path d="M109.088 127.321H102.35C102.082 127.321 101.852 127.507 101.808 127.752L100.925 132.448C100.865 132.767 101.125 133.064 101.466 133.064H108.086C111.114 133.064 112.658 131.586 112.658 129.929C112.658 128.272 111.434 127.314 109.096 127.314L109.088 127.321Z" fill="#0E2B72"/>
<path d="M32.5346 166.511H152.868C155.636 166.511 158.004 164.609 158.486 162.001L179.794 46.4264C110.832 46.9614 45.0177 100.573 32.5346 166.511ZM113.987 135.693C115.961 136.912 116.829 138.992 116.384 141.198C115.411 146.057 110.513 147.499 105.4 147.499H94.0967C93.7553 147.499 93.4955 147.202 93.5549 146.882L97.7926 123.828C97.8371 123.575 98.0672 123.39 98.3344 123.39H109.83C114.729 123.39 117.178 126.109 117.252 129.207C117.282 131.176 116.309 133.449 114.001 134.794C113.645 135.002 113.645 135.478 113.987 135.686V135.693ZM144.986 123.977C141.669 126.896 138.359 129.824 135.042 132.744C134.782 132.974 134.544 133.137 134.774 133.576C137.164 138.078 139.524 142.588 141.892 147.098C141.951 147.209 142.292 147.58 142.048 147.588C138.07 147.61 140.088 147.595 136.11 147.618C135.665 147.618 135.502 147.424 135.331 147.09C133.691 143.814 132.036 140.545 130.388 137.276C130.173 136.845 129.594 136.748 129.238 137.06C128.102 138.071 126.982 139.051 125.891 140.047C125.735 140.188 125.698 140.463 125.653 140.686C125.26 142.781 124.859 144.884 124.503 146.986C124.384 147.662 124.176 147.655 122.848 147.655C121.623 147.655 118.929 147.58 118.521 147.558C119.998 139.594 121.46 131.674 122.937 123.724C122.967 123.553 123.122 123.434 123.293 123.434H128.414C128.637 123.434 128.815 123.627 128.77 123.843C128.243 126.763 127.716 129.66 127.16 132.699C127.472 132.439 127.65 132.29 127.82 132.134C130.871 129.371 133.921 126.614 136.956 123.843C137.32 123.509 137.691 123.382 138.188 123.382C140.378 123.405 142.567 123.39 144.749 123.39H145.439C145.476 123.538 145.127 123.835 144.979 123.962L144.986 123.977Z" fill="#0E2B72"/>
</svg>
