<svg width="78" height="78" viewBox="0 0 78 78" fill="none" xmlns="http://www.w3.org/2000/svg">
<path d="M38.3482 77.9982C36.2683 77.0497 34.0828 76.3753 31.948 75.573C28.4301 74.2508 24.8817 73.0057 21.3577 71.6976C20.007 71.1959 19.6231 69.8086 20.5472 68.9312C21.1078 68.399 21.772 68.4498 22.4301 68.6753C24.1992 69.2846 25.9684 69.894 27.7253 70.5419C30.0063 71.3828 32.273 72.2663 34.552 73.1174C35.401 73.4342 36.2663 73.7105 37.2331 74.0416V38.5229C28.1823 35.1837 19.0259 31.8039 9.76592 28.3875C9.76592 28.7856 9.76592 29.0578 9.76592 29.33C9.76592 38.0131 9.76186 46.6942 9.77811 55.3774C9.77811 55.8364 9.68468 56.2711 9.58515 56.6976C9.40844 57.4552 8.53302 57.894 7.66978 57.7355C7.04825 57.6218 6.50391 56.8906 6.50391 56.202C6.51609 46.4342 6.54047 36.6665 6.51203 26.9007C6.51 25.8628 6.3861 24.8594 7.55401 24.4329C8.17148 24.2074 8.7991 24.0003 9.4186 23.7707C13.6759 22.1966 17.9291 20.6164 22.1904 19.0565C24.2744 18.2927 26.3665 17.5433 28.4728 16.8425C29.141 16.6211 29.8621 16.613 30.4023 17.2467C30.8167 17.7321 30.8695 18.2602 30.6116 18.8351C30.4064 19.2921 30.0672 19.6516 29.6183 19.7999C26.4985 20.8418 23.4701 22.1336 20.3522 23.1837C17.8377 24.0287 15.382 25.0504 12.902 25.9928C13.9724 26.6428 15.2317 26.8967 16.3976 27.3821C18.3658 28.2027 20.3827 28.9075 22.3814 29.6489C24.1078 30.2887 25.8465 30.9143 27.5831 31.5358C29.5208 32.2305 31.4484 32.9556 33.382 33.6644C35.0415 34.2738 36.703 34.873 38.3563 35.4986C38.7239 35.6367 39.053 35.6306 39.4145 35.4945C44.9372 33.4349 50.4599 31.3733 55.9866 29.3259C58.6942 28.3225 61.4098 27.3435 64.1193 26.3503C64.3712 26.2589 64.6109 26.135 64.9277 25.9969C61.8973 24.8818 58.9318 23.789 55.9643 22.6983C53.3299 21.7315 50.6915 20.7768 48.0632 19.7958C47.2162 19.481 46.8485 18.5507 47.1593 17.6692C47.4477 16.8567 48.2947 16.4586 49.2636 16.812C51.5689 17.6489 53.8641 18.5141 56.1593 19.3733C57.8187 19.9928 59.5127 20.5392 61.1701 21.177C63.1221 21.9265 65.1146 22.55 67.0462 23.3706C67.9968 23.7748 69.0144 24.1851 70.0706 24.3862C70.7774 24.5223 71.3177 25.221 71.336 25.9481C71.3665 27.0632 71.3766 28.1804 71.3766 29.2955C71.3787 37.8263 71.3848 46.355 71.3624 54.8858C71.3624 55.4728 71.5147 56.0741 71.204 56.6692C70.7571 57.5304 70.1539 57.9244 69.3536 57.7315C68.6894 57.571 68.1471 56.7768 68.1471 55.9603C68.1471 47.2772 68.1471 38.5961 68.1471 29.9129C68.1471 29.7098 68.1959 29.4904 68.1349 29.3076C68.007 28.9156 67.8932 28.5378 67.2778 28.7633C65.9352 29.2548 64.5459 29.6022 63.2439 30.2359C62.5107 30.5934 61.6698 30.7254 60.8919 31.0361C58.9724 31.8039 57.0185 32.4803 55.0767 33.1932C53.139 33.9041 51.2013 34.613 49.2656 35.3279C47.3522 36.0348 45.4288 36.7173 43.5357 37.4728C42.7639 37.7816 41.9636 37.9705 41.1877 38.2467C40.7815 38.3909 40.5743 38.6265 40.5764 39.1323C40.5946 50.3523 40.5885 61.5744 40.5926 72.7944C40.5926 73.7836 40.6942 73.873 41.6265 73.5866C44.0598 72.8391 46.4179 71.8743 48.8045 70.9948C50.986 70.1925 53.1694 69.4024 55.3631 68.6346C55.8587 68.462 56.399 68.464 56.9068 68.6468C57.3658 68.8134 57.6116 69.1628 57.6583 69.6583C57.7253 70.3753 57.6522 71.1106 56.9392 71.4112C55.2534 72.1201 53.5655 72.8351 51.7822 73.29C51.2195 73.4342 50.7118 73.7755 50.1613 73.9847C48.38 74.6631 46.6048 75.3618 44.8011 75.9752C42.9833 76.5947 41.1837 77.2569 39.4105 77.9942H38.3462L38.3482 77.9982Z" fill="#0E2B72"/>
<path d="M40.0197 0.00203114C40.2736 0.438727 40.8098 0.428571 41.1653 0.534191C43.2817 1.16791 44.3257 2.70345 45.0813 4.63507C45.7049 6.22749 45.3149 7.69194 44.7868 9.16046C44.1328 10.9783 42.6703 11.9634 40.9784 12.6662C40.5925 12.8267 40.5844 13.0928 40.5844 13.434C40.5925 16.8585 40.5945 20.285 40.5844 23.7095C40.5844 24.3839 40.5356 25.0481 39.9791 25.564C39.5221 25.9865 39.0793 26.1855 38.4415 25.9377C37.7022 25.6493 37.3223 25.1517 37.3223 24.3798C37.3142 20.6506 37.3203 16.9194 37.3203 13.1903C37.3203 13.0907 37.3101 12.9912 37.3061 12.8775C34.6331 12.0264 32.9432 10.2248 32.4679 7.48274C32.2424 6.17671 32.2831 4.80366 33.2133 3.60731C33.5038 3.23561 33.6561 2.71158 33.9811 2.29926C34.9581 1.06432 36.3393 0.524035 37.7387 0H40.0197V0.00203114ZM38.9737 3.35342C37.0888 3.19702 35.6588 4.83006 35.6202 6.38998C35.5674 8.49018 37.0867 9.82261 39.5058 9.73121C40.625 9.68856 42.1138 8.37238 42.1565 6.59919C42.1951 5.00068 40.8707 3.18687 38.9737 3.35342Z" fill="#FFB400"/>
<path d="M70.1236 77.9978C69.0796 77.5672 67.9889 77.2523 67.1175 76.448C64.8711 74.3722 64.0464 71.2239 65.7444 68.1955C64.7797 67.2307 63.7986 66.2517 62.8196 65.2706C61.5136 63.9626 60.2015 62.6586 58.9015 61.3424C57.9225 60.3492 58.2455 59.0391 59.5657 58.6288C60.2461 58.4175 60.8027 58.6857 61.2719 59.1549C63.3152 61.1962 65.3606 63.2354 67.3856 65.293C67.7898 65.7033 68.0721 65.8231 68.6998 65.5611C72.5143 63.9707 76.67 66.1562 77.6023 69.8123C77.647 69.9869 77.6165 70.2774 77.8744 70.3789V72.8163C77.6957 72.8793 77.6063 72.991 77.5657 73.1901C77.3463 74.2625 76.7715 75.14 76.0505 75.9423C75.0613 77.0391 73.7492 77.5448 72.4005 77.9957H70.1195L70.1236 77.9978ZM74.5332 71.4636C74.7221 69.8752 73.1663 68.295 71.2712 68.2564C69.6402 68.2219 68.2265 69.6985 68.131 71.3112C68.0153 73.255 69.5691 74.7642 71.2245 74.7804C72.9855 74.7987 74.6632 73.4033 74.5332 71.4636Z" fill="#FFB400"/>
<path d="M5.20349 77.9976C4.41744 77.6503 3.57857 77.4207 2.86158 76.9231C0.290151 75.1398 -0.684798 71.8737 0.499359 68.9732C1.54134 66.4201 4.22854 64.7748 6.96043 65.0592C7.71195 65.1384 8.498 65.2237 9.15609 65.6157C9.68419 65.9306 9.9523 65.7092 10.2956 65.3619C12.345 63.2901 14.4005 61.2264 16.4723 59.177C16.9049 58.7484 17.3639 58.4336 18.1013 58.6124C18.7329 58.7647 19.1798 58.9983 19.3321 59.6096C19.4987 60.2759 19.3504 60.875 18.8304 61.391C16.5657 63.6394 14.3193 65.9062 12.0525 68.179C13.3971 70.6063 13.3138 73.0172 11.7255 75.2637C10.7485 76.6449 9.3978 77.6259 7.63477 77.8635C7.57993 77.8717 7.53524 77.9529 7.48649 77.9996H5.20552L5.20349 77.9976ZM3.22719 71.5223C3.27796 73.3503 4.66727 74.7681 6.31656 74.7681C8.32333 74.7681 9.65982 73.4417 9.72278 71.5914C9.78778 69.7187 8.36192 68.2684 6.37749 68.2745C4.64289 68.2786 3.29218 69.5866 3.22922 71.5243L3.22719 71.5223Z" fill="#FFB400"/>
</svg>
