<svg width="79" height="78" viewBox="0 0 79 78" fill="none" xmlns="http://www.w3.org/2000/svg">
<path d="M37.6541 13.9112V4.0919C37.6541 2.93658 38.5907 2 39.746 2C40.9013 2 41.8379 2.93658 41.8379 4.0919V13.9113C41.8379 15.0666 40.9013 16.0031 39.746 16.0031C38.5907 16.0031 37.6541 15.0666 37.6541 13.9112Z" fill="#FFB400"/>
<path d="M39.4999 54.7843C38.3446 54.7843 37.408 53.8494 37.408 52.6961C37.408 51.5428 38.3446 50.6079 39.4999 50.6079C40.6552 50.6079 41.5918 51.5428 41.5918 52.6961C41.5918 53.8494 40.6552 54.7843 39.4999 54.7843Z" fill="#FFB400"/>
<path d="M60.1737 54.7843C59.0184 54.7843 58.0818 53.8494 58.0818 52.6961C58.0818 51.5428 59.0184 50.6079 60.1737 50.6079C61.329 50.6079 62.2656 51.5428 62.2656 52.6961C62.2656 53.8494 61.329 54.7843 60.1737 54.7843Z" fill="#FFB400"/>
<path d="M18.828 54.7843C17.6727 54.7843 16.7361 53.8494 16.7361 52.6961C16.7361 51.5428 17.6727 50.6079 18.828 50.6079C19.9833 50.6079 20.9199 51.5428 20.9199 52.6961C20.9199 53.8494 19.9833 54.7843 18.828 54.7843Z" fill="#FFB400"/>
<path d="M23.01 37.5874H56.4804L58.5723 35.4992V2.08819L56.4804 0H23.01L20.9181 2.08819V35.4992L23.01 37.5874ZM54.3885 33.411H25.1019V4.17638H54.3885V33.411Z" fill="#0E2B72"/>
<path d="M47.2517 75.9083V66.089C47.2517 64.9336 48.1883 63.9971 49.3436 63.9971C50.499 63.9971 51.4355 64.9336 51.4355 66.089V75.9083C51.4355 77.0636 50.499 78.0002 49.3436 78.0002C48.1883 78.0002 47.2517 77.0636 47.2517 75.9083Z" fill="#FFB400"/>
<path d="M26.826 75.9083V66.089C26.826 64.9336 27.7625 63.9971 28.9179 63.9971C30.0732 63.9971 31.0098 64.9336 31.0098 66.089V75.9083C31.0098 77.0636 30.0732 78.0002 28.9179 78.0002C27.7625 78.0002 26.826 77.0636 26.826 75.9083Z" fill="#FFB400"/>
<path d="M13.4128 66.0851H65.5872C72.9827 66.0851 79 60.0785 79 52.6961C79 45.3137 72.9827 39.3071 65.5872 39.3071H13.4128C6.01729 39.3071 0 45.3137 0 52.6961C0 60.0785 6.01729 66.0851 13.4128 66.0851ZM65.5872 43.4835C70.6767 43.4835 74.8162 47.6157 74.8162 52.6961C74.8162 57.7765 70.6767 61.9087 65.5872 61.9087H13.4128C8.3233 61.9087 4.1838 57.7765 4.1838 52.6961C4.1838 47.6157 8.3233 43.4835 13.4128 43.4835H65.5872Z" fill="#0E2B72"/>
</svg>
