<svg width="83" height="77" viewBox="0 0 83 77" fill="none" xmlns="http://www.w3.org/2000/svg">
<path d="M80.8621 77.0002H2.13788C0.958273 77.0002 0 76.0385 0 74.8548C0 73.6711 0.958273 72.7095 2.13788 72.7095H80.8621C82.0417 72.7095 83 73.6711 83 74.8548C83 76.0385 82.0417 77.0002 80.8621 77.0002Z" fill="#0E2B72"/>
<path d="M29.6791 21.8649H16.3488C15.1692 21.8649 14.2109 20.9033 14.2109 19.7196C14.2109 18.5358 15.1692 17.5742 16.3488 17.5742H29.6791C30.8587 17.5742 31.817 18.5358 31.817 19.7196C31.817 20.9033 30.8587 21.8649 29.6791 21.8649Z" fill="#FFB400"/>
<path d="M35.4608 76.1292C34.3616 76.1292 33.4285 75.2837 33.3329 74.1656L27.4299 4.29068H18.9739L12.6911 73.1687C12.5829 74.3474 11.5442 75.2131 10.3671 75.1096C9.19251 75.0011 8.32478 73.9587 8.43293 72.7775L14.8944 1.951L17.0222 0H29.3917L31.522 1.96362L37.5911 73.8022C37.6917 74.9834 36.8189 76.0207 35.6418 76.1217C35.5815 76.1267 35.5186 76.1292 35.4582 76.1292H35.4608Z" fill="#0E2B72"/>
<path d="M71.1786 52.6566H44.6437C43.4641 52.6566 42.5059 51.695 42.5059 50.5113C42.5059 49.3276 43.4641 48.366 44.6437 48.366H71.1786C72.3582 48.366 73.3165 49.3276 73.3165 50.5113C73.3165 51.695 72.3582 52.6566 71.1786 52.6566Z" fill="#FFB400"/>
<path d="M71.1786 64.7716H44.6437C43.4641 64.7716 42.5059 63.81 42.5059 62.6263C42.5059 61.4426 43.4641 60.481 44.6437 60.481H71.1786C72.3582 60.481 73.3165 61.4426 73.3165 62.6263C73.3165 63.81 72.3582 64.7716 71.1786 64.7716Z" fill="#FFB400"/>
<path d="M71.1786 75.5916C69.999 75.5916 69.0407 74.63 69.0407 73.4462V39.9512L38.1597 26.9984C37.0706 26.5416 36.555 25.2846 37.0128 24.1918C37.468 23.0989 38.7206 22.584 39.8096 23.0409L72.0036 36.5439L73.3165 38.5226V73.4462C73.3165 74.63 72.3582 75.5916 71.1786 75.5916Z" fill="#0E2B72"/>
</svg>
