<svg width="17" height="17" viewBox="0 0 17 17" fill="none" xmlns="http://www.w3.org/2000/svg">
<path d="M4.59382 15.9263C4.44105 16.3171 4.28116 16.4275 3.88499 16.4281C2.8182 16.4286 1.75089 16.4291 0.684096 16.4281C0.238537 16.4281 0.000226316 16.1924 0.000226316 15.7514C-0.000282895 12.6222 0.000226316 9.49293 0.000226316 6.36368C0.000226316 5.91817 0.234463 5.683 0.678495 5.68249C1.73256 5.68147 2.78714 5.68705 3.8412 5.67894C4.12789 5.67691 4.36874 5.73723 4.53577 6.01194C4.58516 5.95365 4.6259 5.90955 4.66256 5.86191C5.87193 4.28867 6.95503 2.63332 7.91947 0.900937C8.25402 0.299315 8.76018 -0.0113794 9.45423 -0.0002289C9.57899 0.00179847 9.71342 0.0159901 9.82646 0.0641401C10.548 0.371793 11.1713 0.803623 11.5344 1.52283C11.7645 1.97899 11.7961 2.46657 11.6841 2.96429C11.4529 3.99268 11.2237 5.02207 10.9951 6.05096C10.9829 6.10469 10.9793 6.16044 10.9681 6.24306C11.0582 6.24306 11.1316 6.24306 11.2054 6.24306C12.2091 6.24306 13.2122 6.23748 14.2159 6.24458C15.8219 6.25573 17.041 7.50965 16.9992 9.10469C16.9865 9.58771 16.8551 10.0439 16.5867 10.4468C15.44 12.1686 14.3029 13.8974 13.1277 15.5999C12.4983 16.5117 11.5766 16.9668 10.465 16.9866C9.31573 17.0069 8.16593 17.0008 7.01664 16.9886C6.14284 16.979 5.38462 16.6597 4.74403 16.0672C4.6982 16.0246 4.65288 15.981 4.59433 15.9263H4.59382ZM4.604 10.8361C4.604 11.7965 4.60655 12.7575 4.60145 13.718C4.60044 13.87 4.6315 13.9952 4.73028 14.1174C4.93346 14.3677 5.12034 14.6313 5.31639 14.8883C5.76958 15.4818 6.37096 15.7793 7.12052 15.7788C8.19343 15.7788 9.26684 15.7783 10.3397 15.7788C11.1438 15.7793 11.7747 15.4519 12.2218 14.7864C13.3222 13.1483 14.4257 11.5122 15.5093 9.86292C15.6554 9.64042 15.7527 9.35203 15.771 9.08746C15.8341 8.17159 15.138 7.46201 14.2087 7.45846C12.9133 7.4534 11.6179 7.45846 10.3224 7.45694C9.75161 7.45644 9.50413 7.13966 9.62838 6.58416C9.91914 5.28462 10.2068 3.98406 10.4945 2.6835C10.5852 2.27347 10.4615 1.9354 10.135 1.67235C10.0118 1.57301 9.88299 1.48026 9.75619 1.38548C9.3804 1.1057 9.19606 1.15132 8.94706 1.55071C8.14505 2.8386 7.3517 4.13206 6.52271 5.40271C6.00789 6.19237 5.42892 6.93996 4.73028 7.58416C4.63761 7.66982 4.60145 7.75395 4.60196 7.87762C4.60604 8.86343 4.60451 9.84975 4.60451 10.8356L4.604 10.8361ZM3.37018 15.2081V6.90955H1.23201V15.2081H3.36967H3.37018Z" fill="#0E2B72"/>
</svg>
