<svg width="38" height="20" viewBox="0 0 38 20" fill="none" xmlns="http://www.w3.org/2000/svg">
<g clip-path="url(#clip0_151_1373)">
<path d="M37.4984 10.7142C37.3816 11.2891 37.2967 11.8716 37.1432 12.4368C36.1839 15.963 32.8813 18.7485 29.2389 19.0118C27.6097 19.1295 25.9671 19.0687 24.3312 19.0832C23.5128 19.0899 22.6944 19.087 21.8759 19.0832C21.0189 19.0793 20.3887 18.4881 20.3887 17.6962C20.3887 16.9024 21.0102 16.3218 21.8769 16.316C24.1884 16.3025 26.5008 16.3546 28.8094 16.2668C31.8186 16.153 34.4563 13.5142 34.687 10.5107C34.9611 6.92954 32.7384 4.06595 29.1964 3.45639C28.8075 3.38984 28.405 3.37923 28.0093 3.3773C25.9748 3.36959 23.9403 3.37634 21.9058 3.37248C21.1183 3.37055 20.5962 2.98572 20.434 2.30575C20.2371 1.48593 20.822 0.625596 21.6665 0.621738C24.2173 0.611128 26.7768 0.526252 29.318 0.696968C33.1534 0.955453 36.5101 4.05149 37.287 7.81591C37.3672 8.20268 37.4289 8.5933 37.4994 8.98199V10.7142H37.4984Z" fill="#FFB400"/>
<path d="M12.7212 19.029C11.3864 19.029 10.043 19.1254 8.71787 19.0107C4.9201 18.6827 1.69369 15.8384 0.775856 12.1164C-0.362992 7.4994 2.11448 2.79459 6.54537 1.16073C7.56068 0.786505 8.61364 0.616754 9.69265 0.61386C11.8227 0.608073 13.9527 0.610967 16.0837 0.611931C16.9803 0.611931 17.6105 1.17616 17.6221 1.98344C17.6337 2.78398 17.0112 3.381 16.1136 3.38582C14.0193 3.3974 11.925 3.38775 9.83162 3.39065C6.70076 3.3945 4.15862 5.39969 3.45118 8.41953C2.55844 12.2274 5.31773 16.0381 9.22456 16.2647C11.2996 16.3853 13.3871 16.3081 15.4689 16.3207C15.7459 16.3226 16.0229 16.313 16.2989 16.3274C17.0556 16.367 17.6366 16.9833 17.6231 17.7211C17.6105 18.4619 17.0179 19.0734 16.2613 19.083C15.0819 19.0975 13.9025 19.0869 12.7231 19.0869C12.7231 19.0676 12.7231 19.0483 12.7231 19.029H12.7212Z" fill="#FFB400"/>
<path d="M19.0101 11.2264C17.0741 11.2264 15.1371 11.2312 13.2011 11.2235C12.5631 11.2206 12.0419 10.7943 11.8837 10.1896C11.7321 9.60895 11.9811 8.96177 12.5148 8.67146C12.7272 8.55572 12.9907 8.47663 13.231 8.47663C17.0799 8.46506 20.9288 8.46506 24.7768 8.47084C25.5826 8.47181 26.1723 9.07847 26.1665 9.86261C26.1608 10.6265 25.572 11.2216 24.7835 11.2254C22.8591 11.2341 20.9346 11.2283 19.0101 11.2274V11.2264Z" fill="#FFB400"/>
</g>
<defs>
<clipPath id="clip0_151_1373">
<rect width="37" height="18.5" fill="white" transform="translate(0.5 0.59082)"/>
</clipPath>
</defs>
</svg>
