<svg width="195" height="25" viewBox="0 0 195 25" fill="none" xmlns="http://www.w3.org/2000/svg">
<path d="M21.8815 6.34382C21.9143 8.46505 20.7892 10.9504 18.0742 12.1425C20.4571 13.2031 21.5494 15.4558 21.0859 17.8754C20.1919 22.5476 15.6901 23.9395 10.99 23.9395H0L4.07247 0.743652H15.0625C19.5643 0.743652 21.8158 3.3617 21.8815 6.34382ZM4.86676 20.1293H11.6858C13.6052 20.1293 16.6182 19.4998 16.5854 16.7161C16.5525 14.7605 14.4336 13.8996 12.7453 13.8996H6.05883L4.86676 20.1293ZM6.75336 10.0553H13.4398C16.2204 10.0553 17.6436 8.63066 17.6436 7.04036C17.6436 5.45007 16.5184 4.52218 14.3667 4.52218H7.7459L6.75336 10.0566V10.0553Z" fill="white"/>
<path d="M20.7578 23.9407L24.829 0.743652H29.1654L25.0942 23.9407H20.7578Z" fill="white"/>
<path d="M50.4465 7.13832L41.1121 17.2123H40.2508L34.6567 7.10546L31.6778 23.973H27.3086L31.3798 0.775879H36.4107L41.9051 10.75L50.91 0.775879H55.9081L51.8369 23.9717H47.4676L50.4465 7.13832Z" fill="white"/>
<path d="M71.2675 19.5655H59.1524L56.4046 23.9395H51.5391L66.0042 0.743652H70.7712L77.094 23.9407H72.4596L71.2675 19.5668V19.5655ZM67.6926 5.4488L61.635 15.4899H70.2421L67.6938 5.4488H67.6926Z" fill="white"/>
<path d="M96.9212 0.909255L83.6809 12.0439L93.8766 23.7751L93.8438 23.9407H91.0632L81.3309 12.7075L79.3445 23.9407H77.0273L81.0986 0.743652H83.4158L81.5948 11.1817L94.0408 0.743652H96.9212V0.909255Z" fill="white"/>
<path d="M110.691 18.5719H97.1859L93.842 23.9407H91.3594L105.826 0.743652H108.143L114.466 23.9407H112.116L110.693 18.5719H110.691ZM98.4764 16.4507H110.128L106.686 3.22896L98.4764 16.4507Z" fill="white"/>
<path d="M122.971 24.0065H120.388L114.629 0.743652H117.177L122.01 21.5212L134.259 0.743652H136.841L122.972 24.0065H122.971Z" fill="white"/>
<path d="M148.957 18.5719H135.451L132.108 23.9407H129.625L144.091 0.743652H146.409L152.731 23.9407H150.381L148.958 18.5719H148.957ZM136.742 16.4507H148.394L144.951 3.22896L136.742 16.4507Z" fill="white"/>
<path d="M171.732 20.7919C168.984 23.1445 165.807 24.305 162.696 24.305C155.711 24.305 152.5 19.931 152.5 14.4964C152.5 7.30598 157.698 0.412598 166.833 0.412598C169.811 0.412598 172.89 1.53895 174.479 3.92566L172.823 5.31748C171.267 3.46172 168.983 2.53383 166.5 2.53383C159.185 2.53383 154.849 8.3666 154.849 14.1981C154.849 18.7048 157.497 22.1508 163.058 22.1508C165.541 22.1508 168.321 21.1572 170.506 19.3015L171.731 20.7932L171.732 20.7919Z" fill="white"/>
<path d="M188.611 23.9407L190.432 13.6683H176.396L174.575 23.9407H172.258L176.33 0.743652H178.647L176.761 11.48H190.797L192.683 0.743652H195.001L190.929 23.9407H188.612H188.611Z" fill="white"/>
</svg>
