<svg width="280" height="30" viewBox="0 0 280 30" fill="none" xmlns="http://www.w3.org/2000/svg">
<path d="M2.40358 29.4713C5.12128 14.7999 19.8118 2.8618 35.1555 2.84752L35.3505 1.7872C35.4821 1.07291 34.9082 0.418945 34.1502 0.418945H6.16143C5.57 0.418945 5.0642 0.825294 4.96114 1.38244L0.0188564 28.1856C-0.112747 28.8999 0.461236 29.5539 1.21915 29.5539H2.40675C2.40675 29.5269 2.39883 29.4999 2.40517 29.4713H2.40358Z" fill="#FFFFFF"/>
<path d="M19.4766 23.2618H18.0194C17.9623 23.2618 17.9148 23.2999 17.9037 23.3523L17.6722 24.511C17.6579 24.5809 17.7134 24.6444 17.7879 24.6444H19.2308C19.6764 24.6444 20.3772 24.5047 20.3693 23.8857C20.3613 23.4523 19.8698 23.2603 19.4766 23.2603V23.2618Z" fill="#FFFFFF"/>
<path d="M19.8534 21.1793H18.4137C18.3566 21.1793 18.3074 21.219 18.2979 21.2714L18.1092 22.2746C18.0966 22.3428 18.152 22.4063 18.225 22.4063H19.6393C20.2862 22.4063 20.6161 22.0904 20.6161 21.7365C20.6161 21.3825 20.3544 21.1777 19.855 21.1777L19.8534 21.1793Z" fill="#FFFFFF"/>
<path d="M3.5 29.552H29.2087C29.8002 29.552 30.306 29.1457 30.409 28.5885L34.9613 3.89648C20.228 4.01077 6.16696 15.4647 3.5 29.552ZM20.9018 22.9679C21.3236 23.2282 21.5091 23.6727 21.414 24.1441C21.2063 25.1822 20.1598 25.4901 19.0673 25.4901H16.6525C16.5795 25.4901 16.524 25.4266 16.5367 25.3584L17.4421 20.433C17.4516 20.379 17.5007 20.3393 17.5578 20.3393H20.0139C21.0604 20.3393 21.5836 20.9203 21.5995 21.5822C21.6058 22.0028 21.3981 22.4885 20.905 22.7759C20.8289 22.8203 20.8289 22.9219 20.9018 22.9663V22.9679ZM27.5248 20.4647C26.8161 21.0885 26.1089 21.7139 25.4002 22.3378C25.3447 22.387 25.2939 22.4219 25.3431 22.5155C25.8536 23.4774 26.3578 24.4409 26.8637 25.4044C26.8763 25.4282 26.9493 25.5076 26.8969 25.5092C26.0471 25.5139 26.4784 25.5108 25.6285 25.5155C25.5333 25.5155 25.4985 25.4743 25.462 25.4028C25.1116 24.7028 24.758 24.0044 24.406 23.306C24.36 23.2139 24.2363 23.1933 24.1602 23.26C23.9176 23.4758 23.6782 23.6854 23.4451 23.8981C23.4118 23.9282 23.4039 23.987 23.3944 24.0346C23.3103 24.4822 23.2247 24.9314 23.1486 25.3806C23.1232 25.5251 23.0789 25.5235 22.795 25.5235C22.5334 25.5235 21.9578 25.5076 21.8706 25.5028C22.1862 23.8012 22.4985 22.1092 22.8141 20.4108C22.8204 20.3743 22.8537 20.3489 22.8902 20.3489H23.9842C24.0318 20.3489 24.0698 20.3901 24.0603 20.4362C23.9478 21.06 23.8352 21.679 23.7163 22.3282C23.7829 22.2727 23.8209 22.2409 23.8574 22.2076C24.5091 21.6171 25.1607 21.0282 25.8092 20.4362C25.8869 20.3647 25.9662 20.3378 26.0724 20.3378C26.5402 20.3425 27.0079 20.3393 27.4741 20.3393H27.6216C27.6295 20.3711 27.555 20.4346 27.5233 20.4616L27.5248 20.4647Z" fill="#FFFFFF"/>
<path d="M62.4751 7.44776C62.5163 10.1113 61.1035 13.2319 57.6945 14.7287C60.6865 16.0605 62.0581 18.889 61.4762 21.9271C60.3536 27.7938 54.7009 29.5414 48.7994 29.5414H35L40.1135 0.416016H53.9129C59.5655 0.416016 62.3926 3.70332 62.4751 7.44776ZM41.1109 24.7573H49.673C52.0831 24.7573 55.8663 23.9668 55.8251 20.4716C55.7839 18.016 53.1233 16.9351 51.0033 16.9351H42.6077L41.1109 24.7573ZM43.4797 12.1081H51.8754C55.3669 12.1081 57.1538 10.3192 57.1538 8.32236C57.1538 6.32554 55.7411 5.16046 53.0392 5.16046H44.726L43.4797 12.1097V12.1081Z" fill="#FFFFFF"/>
<path d="M61.0605 29.543L66.1725 0.416016H71.6174L66.5055 29.543H61.0605Z" fill="#FFFFFF"/>
<path d="M98.3418 8.44592L86.6211 21.0951H85.5398L78.5156 8.40465L74.7752 29.584H69.2891L74.401 0.457031H80.718L87.6169 12.9808L98.9237 0.457031H105.199L100.088 29.5824H94.6014L98.3418 8.44592Z" fill="#FFFFFF"/>
<path d="M124.487 24.0493H109.274L105.824 29.5414H99.7148L117.878 0.416016H123.863L131.802 29.543H125.983L124.487 24.0509V24.0493ZM119.998 6.32395L112.392 18.9319H123.199L119.999 6.32395H119.998Z" fill="#FFFFFF"/>
<path d="M156.696 0.623952L140.071 14.6049L152.873 29.3351L152.832 29.543H149.341L137.12 15.4382L134.626 29.543H131.717L136.829 0.416016H139.738L137.452 13.5224L153.079 0.416016H156.696V0.623952Z" fill="#FFFFFF"/>
<path d="M173.987 22.8017H157.029L152.83 29.543H149.713L167.877 0.416016H170.787L178.726 29.543H175.775L173.988 22.8017H173.987ZM158.649 20.1382H173.279L168.957 3.53665L158.649 20.1382Z" fill="#FFFFFF"/>
<path d="M189.406 29.6255H186.164L178.932 0.416016H182.131L188.199 26.5049L203.58 0.416016H206.822L189.408 29.6255H189.406Z" fill="#FFFFFF"/>
<path d="M222.034 22.8017H205.076L200.877 29.543H197.76L215.924 0.416016H218.834L226.773 29.543H223.822L222.035 22.8017H222.034ZM206.696 20.1382H221.326L217.004 3.53665L206.696 20.1382Z" fill="#FFFFFF"/>
<path d="M250.629 25.5889C247.179 28.5429 243.189 30 239.283 30C230.513 30 226.48 24.5079 226.48 17.6841C226.48 8.65556 233.007 0 244.477 0C248.217 0 252.083 1.41429 254.078 4.41111L251.999 6.15873C250.045 3.82857 247.177 2.66349 244.06 2.66349C234.875 2.66349 229.43 9.9873 229.43 17.3095C229.43 22.9683 232.755 27.2952 239.738 27.2952C242.855 27.2952 246.346 26.0476 249.089 23.7175L250.627 25.5905L250.629 25.5889Z" fill="#FFFFFF"/>
<path d="M271.824 29.543L274.111 16.6446H256.487L254.201 29.543H251.291L256.405 0.416016H259.314L256.945 13.897H274.569L276.938 0.416016H279.847L274.736 29.543H271.826H271.824Z" fill="#FFFFFF"/>
</svg>
