<svg width="400" height="69" viewBox="0 0 400 69" fill="none" xmlns="http://www.w3.org/2000/svg">
<path d="M84.1289 64.7461V49.584H85.9175V64.7461H84.1289Z" fill="white"/>
<path d="M100.281 58.0658V64.7451H98.5613V58.3881C98.5613 56.3034 97.3141 54.9044 95.4639 54.9044C93.1339 54.9044 91.5989 56.4885 91.5989 59.3824V64.7451H89.8789V53.5878H91.5989V55.4462C92.5035 54.0884 93.9289 53.3203 95.8065 53.3203C98.4996 53.3203 100.288 55.2473 100.288 58.0726L100.281 58.0658Z" fill="white"/>
<path d="M104.755 61.3516C104.913 62.826 106.27 63.6146 108.038 63.6146C109.641 63.6146 110.703 62.8671 110.703 61.715C110.703 60.7892 110.004 60.3572 108.874 60.1103L106.318 59.5412C104.461 59.1571 103.426 58.2314 103.426 56.6884C103.426 54.6723 105.098 53.3145 107.654 53.3145C110.21 53.3145 111.793 54.6037 112.197 56.4141L110.546 56.7775C110.32 55.5569 109.257 54.7203 107.606 54.7203C105.954 54.7203 105.139 55.4883 105.139 56.5512C105.139 57.4359 105.749 57.8405 106.838 58.0873L109.532 58.6771C111.162 59.0406 112.403 59.8978 112.403 61.5984C112.403 63.7929 110.573 65.041 107.901 65.041C105.228 65.041 103.309 63.9095 103.035 61.7356L104.755 61.3516Z" fill="white"/>
<path d="M125.47 64.7188H123.729V62.9084C122.825 64.2456 121.379 65.0137 119.522 65.0137C116.829 65.0137 115.047 63.0867 115.047 60.2613V53.582H116.787V59.939C116.787 62.0237 118.007 63.4021 119.864 63.4021C122.194 63.4021 123.729 61.8386 123.729 58.9447V53.582H125.47V64.7188Z" fill="white"/>
<path d="M136.443 53.5608L136.306 55.2135C136.1 55.1929 135.854 55.1929 135.648 55.1929C132.688 55.1929 131.166 57.4354 131.166 60.4459V64.7456H129.426V53.5883H131.166V56.3244C132.071 54.6718 133.585 53.4717 135.648 53.4717C135.922 53.4717 136.121 53.4717 136.443 53.5608Z" fill="white"/>
<path d="M148.672 59.5128H139.106C139.263 62.0227 141.161 63.5176 143.087 63.5176C144.67 63.5176 146.095 62.9073 146.883 61.1175L148.425 61.4809C147.541 63.8125 145.595 65.0331 143.087 65.0331C140.127 65.0331 137.434 62.7496 137.434 59.1905C137.434 55.6314 140.127 53.3066 143.204 53.3066C146.28 53.3066 148.562 55.5491 148.679 58.875V59.5059L148.672 59.5128ZM139.174 58.2235H146.931C146.616 56.0291 145.054 54.829 143.197 54.829C141.34 54.829 139.51 56.0291 139.174 58.2235Z" fill="white"/>
<path d="M168.056 53.4507L166.267 53.8553C165.924 52.0243 164.41 50.8448 162.334 50.8448C160.257 50.8448 158.894 51.9557 158.894 53.581C158.894 54.9388 159.75 55.5491 161.175 55.844L164.478 56.5915C166.582 57.0441 168.302 58.107 168.302 60.5277C168.302 63.2914 166.061 65.0332 162.669 65.0332C159.455 65.0332 156.879 63.3805 156.516 60.5072L158.393 60.1231C158.736 62.249 160.477 63.4491 162.827 63.4491C165.177 63.4491 166.514 62.297 166.514 60.6169C166.514 59.1905 165.746 58.6282 164.047 58.2373L160.634 57.4898C158.688 57.0578 156.995 56.0429 156.995 53.6221C156.995 51.0162 159.147 49.2744 162.382 49.2744C165.41 49.2744 167.542 50.9477 168.056 53.437V53.4507Z" fill="white"/>
<path d="M173.755 50.2146C173.755 50.8729 173.234 51.3667 172.556 51.3667C171.877 51.3667 171.377 50.866 171.377 50.2146C171.377 49.6043 171.877 49.0625 172.556 49.0625C173.234 49.0625 173.755 49.6043 173.755 50.2146ZM171.699 64.7458V53.5885H173.44V64.7458H171.699Z" fill="white"/>
<path d="M195.285 57.524V64.7451H193.564V57.8189C193.564 56.0565 192.365 54.8976 190.693 54.8976C188.637 54.8976 187.281 56.4131 187.281 59.0396V64.7451H185.561V57.8189C185.561 56.0565 184.361 54.8976 182.71 54.8976C180.654 54.8976 179.318 56.4131 179.318 59.0396V64.7451H177.598V53.5878H179.318V55.2884C180.113 54.0678 181.373 53.3203 183.114 53.3203C184.855 53.3203 186.259 54.1569 186.91 55.5833C187.767 54.2049 189.22 53.3203 191.118 53.3203C193.469 53.3203 195.278 54.9936 195.278 57.5309L195.285 57.524Z" fill="white"/>
<path d="M210.704 59.1777C210.704 62.7093 208.1 65.0409 205.14 65.0409C203.283 65.0409 201.7 64.2934 200.706 62.9836V68.6H198.986V53.5956H200.706V55.3854C201.7 54.0756 203.283 53.3281 205.14 53.3281C208.1 53.3281 210.704 55.6597 210.704 59.1914V59.1777ZM209.032 59.1777C209.032 56.5101 207.175 54.8299 204.873 54.8299C202.769 54.8299 200.713 56.5032 200.713 59.1777C200.713 61.8521 202.769 63.498 204.873 63.498C207.182 63.498 209.032 61.8247 209.032 59.1777Z" fill="white"/>
<path d="M213.672 64.7458V48.4521H215.392V64.7458H213.672Z" fill="white"/>
<path d="M222.875 68.5943H220.949L222.779 64.5894L217.783 53.5898H219.729L223.711 62.5047L227.781 53.5898H229.7L222.868 68.5943H222.875Z" fill="white"/>
<path d="M228.982 67.7278L230.476 61.7754H232.512V61.8234L230.339 67.7278H228.982Z" fill="white"/>
<path d="M253.7 59.4922L255.42 59.8968C254.495 63.0651 251.685 65.0332 248.204 65.0332C243.791 65.0332 240.33 61.5701 240.33 57.1538C240.33 52.7375 243.791 49.2744 248.204 49.2744C251.685 49.2744 254.495 51.2425 255.42 54.301L253.7 54.8016C252.932 52.3603 250.828 50.9545 248.204 50.9545C244.812 50.9545 242.146 53.6496 242.146 57.1538C242.146 60.658 244.812 63.3531 248.204 63.3531C250.828 63.3531 252.912 61.9747 253.7 59.4854V59.4922Z" fill="white"/>
<path d="M269.461 59.1561C269.461 62.5712 266.836 65.0193 263.56 65.0193C260.285 65.0193 257.633 62.578 257.633 59.1561C257.633 55.7341 260.237 53.3408 263.56 53.3408C266.884 53.3408 269.461 55.741 269.461 59.1561ZM267.761 59.1561C267.761 56.5982 265.842 54.8564 263.554 54.8564C261.265 54.8564 259.298 56.5982 259.298 59.1561C259.298 61.714 261.244 63.5038 263.554 63.5038C265.863 63.5038 267.761 61.7414 267.761 59.1561Z" fill="white"/>
<path d="M277.265 64.7472H275.387L270.453 53.5898H272.331L276.333 62.7105L280.314 53.5898H282.192L277.258 64.7472H277.265Z" fill="white"/>
<path d="M294.453 59.5128H284.887C285.045 62.0227 286.943 63.5176 288.868 63.5176C290.451 63.5176 291.877 62.9073 292.665 61.1175L294.207 61.4809C293.323 63.8125 291.376 65.0331 288.868 65.0331C285.908 65.0331 283.215 62.7496 283.215 59.1905C283.215 55.6314 285.908 53.3066 288.985 53.3066C292.062 53.3066 294.344 55.5491 294.46 58.875V59.5059L294.453 59.5128ZM284.955 58.2235H292.713C292.397 56.0291 290.835 54.829 288.978 54.829C287.121 54.829 285.291 56.0291 284.955 58.2235Z" fill="white"/>
<path d="M304.423 53.5608L304.286 55.2135C304.081 55.1929 303.834 55.1929 303.629 55.1929C300.668 55.1929 299.147 57.4354 299.147 60.4459V64.7456H297.406V53.5883H299.147V56.3244C300.051 54.6718 301.566 53.4717 303.629 53.4717C303.903 53.4717 304.101 53.4717 304.423 53.5608Z" fill="white"/>
<path d="M323.153 53.4507L321.365 53.8553C321.022 52.0243 319.508 50.8448 317.431 50.8448C315.355 50.8448 313.991 51.9557 313.991 53.581C313.991 54.9388 314.848 55.5491 316.273 55.844L319.576 56.5915C321.68 57.0441 323.4 58.107 323.4 60.5277C323.4 63.2914 321.159 65.0332 317.767 65.0332C314.553 65.0332 311.976 63.3805 311.613 60.5072L313.491 60.1231C313.834 62.249 315.574 63.4491 317.925 63.4491C320.275 63.4491 321.611 62.297 321.611 60.6169C321.611 59.1905 320.844 58.6282 319.144 58.2373L315.732 57.4898C313.786 57.0578 312.093 56.0429 312.093 53.6221C312.093 51.0162 314.245 49.2744 317.479 49.2744C320.508 49.2744 322.639 50.9477 323.153 53.437V53.4507Z" fill="white"/>
<path d="M344.249 57.524V64.7451H342.529V57.8189C342.529 56.0565 341.33 54.8976 339.658 54.8976C337.602 54.8976 336.245 56.4131 336.245 59.0396V64.7451H334.525V57.8189C334.525 56.0565 333.326 54.8976 331.675 54.8976C329.619 54.8976 328.283 56.4131 328.283 59.0396V64.7451H326.562V53.5878H328.283V55.2884C329.077 54.0678 330.338 53.3203 332.079 53.3203C333.82 53.3203 335.224 54.1569 335.875 55.5833C336.732 54.2049 338.185 53.3203 340.083 53.3203C342.433 53.3203 344.243 54.9936 344.243 57.5309L344.249 57.524Z" fill="white"/>
<path d="M358.546 64.7461H356.826V62.9837C355.833 64.2935 354.25 65.041 352.393 65.041C349.432 65.041 346.828 62.7094 346.828 59.1777C346.828 55.646 349.432 53.3145 352.393 53.3145C354.25 53.3145 355.833 54.0619 356.826 55.3717V53.5819H358.546V64.7392V64.7461ZM356.826 59.1777C356.826 56.5101 354.77 54.83 352.667 54.83C350.357 54.83 348.507 56.5032 348.507 59.1777C348.507 61.8522 350.364 63.498 352.667 63.498C354.77 63.498 356.826 61.8247 356.826 59.1777Z" fill="white"/>
<path d="M369.533 53.5608L369.396 55.2135C369.19 55.1929 368.943 55.1929 368.738 55.1929C365.778 55.1929 364.256 57.4354 364.256 60.4459V64.7456H362.516V53.5883H364.256V56.3244C365.161 54.6718 366.675 53.4717 368.738 53.4717C369.012 53.4717 369.211 53.4717 369.533 53.5608Z" fill="white"/>
<path d="M378.761 64.1559C377.856 64.7868 377.088 65.0406 376.184 65.0406C373.97 65.0406 372.497 63.7308 372.497 61.262V55.0353H370.078V53.5884H372.497V50.0361H374.238V53.5884H378.219V55.0353H374.238V61.1455C374.238 62.5924 375.053 63.4085 376.294 63.4085C376.924 63.4085 377.63 63.1342 378.192 62.7296L378.761 64.1559Z" fill="white"/>
<path d="M380.975 64.7458V48.4521H382.695V64.7458H380.975Z" fill="white"/>
<path d="M390.178 68.5943H388.252L390.082 64.5894L385.086 53.5898H387.032L391.014 62.5047L395.084 53.5898H397.003L390.171 68.5943H390.178Z" fill="white"/>
<path d="M399.998 63.6833C399.998 64.3142 399.498 64.8148 398.819 64.8148C398.141 64.8148 397.641 64.3142 397.641 63.6833C397.641 63.0524 398.141 62.5312 398.819 62.5312C399.498 62.5312 399.998 63.073 399.998 63.6833Z" fill="white"/>
<path d="M105.038 1.73145C110.712 1.73145 114.865 4.2139 114.865 9.65884C114.865 13.3825 112.912 16.4822 108.951 18.0114C112.192 19.0126 113.337 22.2151 113.337 24.6496C113.337 32.4809 106.566 35.1485 99.1723 35.1485H83.8633L89.7292 1.73145H105.038ZM89.9142 30.1836H100.029C102.989 30.1836 107.279 29.2304 107.903 25.5548C108.567 21.9751 104.894 20.3498 101.845 20.3498H91.6822L89.9142 30.1836ZM92.4909 15.5769H102.653C107.183 15.5769 109.191 13.6705 109.472 10.8041C109.664 8.80164 108.375 6.46319 104.223 6.46319H94.1081L92.484 15.5838L92.4909 15.5769Z" fill="white"/>
<path d="M116.961 35.1485L122.834 1.73145H128.131L122.265 35.1485H116.968H116.961Z" fill="white"/>
<path d="M162.998 9.56365L148.834 25.3636H147.689L139.295 9.56365L134.765 35.1974H129.42L135.279 1.78027H141.481L149.779 17.4362L163.471 1.78027H169.673L163.807 35.1974H158.462L162.991 9.56365H162.998Z" fill="white"/>
<path d="M195.817 28.1332H177.74L173.354 35.1485H167.488L188.327 1.73145H194.145L203.259 35.1485H197.777L195.824 28.1332H195.817ZM190.472 7.3684L180.598 23.2643H194.721L190.472 7.3684Z" fill="white"/>
<path d="M236.001 1.32695L216.533 17.6961L231.526 34.9361L231.479 35.1761H227.387L213.079 18.663L210.16 35.1761H206.754L212.736 1.08008H216.142L213.463 16.4205L231.766 1.08008H236.001V1.32009V1.32695Z" fill="white"/>
<path d="M259.952 27.283H240.093L235.18 35.1761H231.527L252.791 1.08008H256.197L265.496 35.1761H262.043L259.952 27.283ZM241.991 24.1628H259.123L254.059 4.72832L241.985 24.1628H241.991Z" fill="white"/>
<path d="M281.702 35.2721H277.906L269.436 1.08008H273.184L280.29 31.6238L298.299 1.08008H302.096L281.702 35.2721Z" fill="white"/>
<path d="M323.566 27.283H303.707L298.793 35.1761H295.141L316.405 1.08008H319.81L329.11 35.1761H325.656L323.566 27.283ZM305.605 24.1628H322.737L317.672 4.72832L305.598 24.1628H305.605Z" fill="white"/>
<path d="M360.746 30.5468C356.703 34.003 352.036 35.7106 347.459 35.7106C337.186 35.7106 332.465 29.2781 332.465 21.2959C332.465 10.7283 340.106 0.592773 353.544 0.592773C357.923 0.592773 362.452 2.25231 364.789 5.75655L362.356 7.80011C360.068 5.07079 356.71 3.70613 353.057 3.70613C342.299 3.70613 335.925 12.2781 335.925 20.8501C335.925 27.4746 339.818 32.5423 348 32.5423C351.652 32.5423 355.737 31.0817 358.951 28.3524L360.753 30.5468H360.746Z" fill="white"/>
<path d="M389.275 35.1761L391.954 20.0756H371.314L368.634 35.1761H365.229L371.218 1.08008H374.624L371.848 16.8594H392.489L395.264 1.08008H398.67L392.681 35.1761H389.275Z" fill="white"/>
<path d="M4.88708 63.4151C10.4172 32.1924 40.2951 6.78496 71.5023 6.75753L71.8998 4.50137C72.1671 2.98584 71.0021 1.59375 69.4602 1.59375H12.5279C11.3218 1.59375 10.2939 2.45781 10.0883 3.64417L0.0422139 60.6789C-0.225042 62.1944 0.93992 63.5865 2.48178 63.5865H4.89394C4.89394 63.5248 4.88023 63.4699 4.89394 63.4151H4.88708Z" fill="white"/>
<path d="M39.6099 50.2012H36.6495C36.533 50.2012 36.4371 50.2835 36.4165 50.3932L35.9437 52.8619C35.9163 53.0059 36.0259 53.1431 36.1767 53.1431H39.1096C40.0142 53.1431 41.4395 52.8482 41.4258 51.5315C41.4121 50.6058 40.4116 50.2012 39.6099 50.2012Z" fill="white"/>
<path d="M40.376 45.7715H37.443C37.3265 45.7715 37.2306 45.8538 37.21 45.9704L36.8263 48.1099C36.7989 48.2539 36.9154 48.3911 37.0593 48.3911H39.9374C41.2531 48.3911 41.9247 47.719 41.9247 46.9647C41.9247 46.2104 41.3902 45.7715 40.376 45.7715Z" fill="white"/>
<path d="M7.12109 63.5875H59.4073C60.6134 63.5875 61.6413 62.7235 61.8469 61.5371L71.1049 8.9873C41.138 9.22732 12.5416 33.6061 7.12109 63.5875ZM42.5154 49.5706C43.372 50.1261 43.7489 51.0724 43.557 52.0736C43.1321 54.2818 41.0078 54.9401 38.7875 54.9401H33.8741C33.7233 54.9401 33.6137 54.803 33.6411 54.6589L35.4845 44.1737C35.5051 44.0571 35.601 43.9748 35.7175 43.9748H40.7131C42.8443 43.9748 43.9065 45.2092 43.9339 46.6218C43.9476 47.5133 43.5227 48.5488 42.5222 49.1591C42.3715 49.2552 42.3646 49.4677 42.5222 49.5637L42.5154 49.5706ZM55.981 44.2422C54.5419 45.5658 53.1028 46.903 51.6638 48.2265C51.5473 48.3294 51.4445 48.4048 51.5473 48.6037C52.582 50.6472 53.6099 52.7045 54.6378 54.755C54.6653 54.803 54.8092 54.9744 54.7064 54.9744C52.9795 54.9881 53.8566 54.9744 52.1297 54.9881C51.9379 54.9881 51.8625 54.899 51.794 54.7481C51.0813 53.26 50.3617 51.7719 49.6422 50.2838C49.5531 50.0918 49.2996 50.0438 49.142 50.1878C48.6486 50.6472 48.162 51.093 47.6892 51.5456C47.6207 51.6073 47.607 51.7376 47.5864 51.8336C47.4151 52.7868 47.2438 53.74 47.0861 54.7001C47.0382 55.0087 46.9422 55.0087 46.3666 55.0087C45.8321 55.0087 44.6671 54.9744 44.489 54.9607C45.1331 51.3399 45.7704 47.7396 46.4077 44.1257C46.4214 44.0502 46.49 43.9954 46.5653 43.9954H48.7925C48.8884 43.9954 48.9638 44.0845 48.9501 44.1805C48.7171 45.5109 48.491 46.8207 48.2511 48.2059C48.3882 48.0894 48.4635 48.0208 48.5389 47.9522C49.8615 46.6973 51.1909 45.4423 52.5066 44.1805C52.6643 44.0297 52.8219 43.9679 53.0412 43.9748C53.9937 43.9817 54.9394 43.9748 55.8919 43.9748H56.1934C56.214 44.0434 56.0564 44.1737 55.9947 44.2354L55.981 44.2422Z" fill="white"/>
</svg>
