<svg width="35" height="35" viewBox="0 0 35 35" fill="none" xmlns="http://www.w3.org/2000/svg">
<path fill-rule="evenodd" clip-rule="evenodd" d="M17.2498 0.5C18.2353 0.5 19.0343 1.29894 19.0343 2.28448V15.9655H32.7155C33.7011 15.9655 34.5 16.7645 34.5 17.75C34.5 18.7355 33.7011 19.5345 32.7155 19.5345L19.0343 19.5345L19.0343 33.2155C19.0343 34.2011 18.2353 35 17.2498 35C16.2642 35 15.4653 34.2011 15.4653 33.2155V19.5345H1.78448C0.79894 19.5345 0 18.7355 0 17.75C0 16.7645 0.79894 15.9655 1.78448 15.9655H15.4653V2.28448C15.4653 1.29894 16.2642 0.5 17.2498 0.5Z" fill="#0E2B72"/>
</svg>
