<svg width="272" height="272" viewBox="0 0 272 272" fill="none" xmlns="http://www.w3.org/2000/svg">
<g clip-path="url(#clip0_6239_87459)">
<g filter="url(#filter0_bf_6239_87459)">
<rect x="-3.07812" y="-1.52344" width="278.875" height="276.444" rx="138.222" fill="url(#paint0_radial_6239_87459)"/>
</g>
<g filter="url(#filter1_b_6239_87459)">
<path d="M169.421 7.0337C172.357 7.79786 174.165 9.97441 174.058 12.69L170.964 12.5304C171.102 11.1139 170.145 9.91958 168.698 9.54312C167.23 9.16104 166.131 9.75117 165.879 10.7228C165.687 11.4569 165.877 12.0594 166.943 12.5675L169.889 14.0028C172.114 15.1119 173.195 16.8918 172.611 19.1374C171.88 21.9444 169.115 23.0921 165.682 22.1987C162.659 21.4121 160.368 19.3175 160.754 16.3286L164.005 16.506C163.966 18.2481 164.99 19.2753 166.631 19.7023C168.315 20.1406 169.408 19.5721 169.678 18.5356C169.892 17.7151 169.632 17.1174 168.404 16.5211L165.49 15.1403C163.858 14.3237 162.032 12.8343 162.768 10.0057C163.443 7.41464 166.031 6.15154 169.421 7.0337Z" fill="black"/>
<path d="M185.802 29.052L183.04 27.7947L189.234 14.1898L191.996 15.4471L185.802 29.052Z" fill="black"/>
<path d="M220.079 32.7289L211.351 44.8654L208.96 43.146L213.975 36.172L205.156 40.4107L204.051 39.6161L205.244 29.8938L200.229 36.8677L197.838 35.1484L206.565 23.0118L208.721 24.5619L207.291 36.2572L217.941 31.1918L220.079 32.7289Z" fill="black"/>
<path d="M231.97 43.8386L236.559 49.0729C238.824 51.6565 238.68 54.5719 236.431 56.5429C234.15 58.5432 231.257 58.29 228.992 55.7064L226.404 52.7537L222.73 55.9748L220.729 53.6932L231.97 43.8386ZM228.467 50.9446L231.056 53.8972C232.13 55.1219 233.406 55.1899 234.446 54.278C235.452 53.3955 235.569 52.1067 234.495 50.882L231.906 47.9293L228.467 50.9446Z" fill="black"/>
<path d="M243.23 80.4763L240.842 81.8298L235.538 72.4747L248.542 65.1021L250.039 67.7417L239.422 73.7608L243.23 80.4763Z" fill="black"/>
<path d="M252.33 103.834L249.718 104.676L246.235 93.8669L260.463 89.2821L263.932 100.049L261.32 100.89L258.781 93.0118L255.575 94.0451L257.915 101.308L255.345 102.136L253.005 94.8732L249.777 95.9133L252.33 103.834Z" fill="black"/>
<path d="M268.778 132.028L268.636 137.537C268.509 142.467 265.414 145.668 260.953 145.553C256.493 145.438 253.566 142.082 253.693 137.153L253.834 131.644L268.778 132.028ZM256.5 134.748L256.436 137.224C256.356 140.324 258.132 142.423 261.032 142.498C263.931 142.572 265.813 140.567 265.893 137.467L265.956 134.991L256.5 134.748Z" fill="black"/>
<path d="M251.025 160.307L251.646 157.337L266.278 160.397L265.657 163.367L251.025 160.307Z" fill="black"/>
<path d="M253.175 182.826L250.028 190.385C249.537 190.229 249.137 190.087 248.807 189.949C244.708 188.243 242.857 184.04 244.555 179.962C246.271 175.842 250.76 173.941 254.818 175.631C258.855 177.312 260.697 181.825 259.008 185.883C257.798 188.787 255.298 190.96 252.086 190.783L252.246 187.901C254.603 187.698 255.745 186.289 256.371 184.785C257.4 182.313 256.229 179.554 253.634 178.473C251.018 177.384 248.209 178.559 247.137 181.133C246.262 183.234 246.846 185.314 248.606 186.603L250.621 181.762L253.175 182.826Z" fill="black"/>
<path d="M233.853 200.72L235.523 198.186L248.003 206.415L246.333 208.948L233.853 200.72Z" fill="black"/>
<path d="M226.558 228.583L229.97 224.962L221.086 216.594L223.167 214.385L232.051 222.753L235.462 219.132L237.46 221.013L228.556 230.465L226.558 228.583Z" fill="black"/>
<path d="M196.864 236.21L199.564 234.349L202.44 236.242L207.878 232.495L207.152 229.121L209.852 227.26L213.007 243.24L210.674 244.848L196.864 236.21ZM204.934 237.856L209.742 241.019L208.517 235.388L204.934 237.856Z" fill="black"/>
<path d="M177.698 248.244L176.651 245.708L186.591 241.604L192.295 255.422L189.491 256.58L184.834 245.299L177.698 248.244Z" fill="black"/>
<path d="M135.357 252.947L138.632 252.77L140.097 255.886L146.691 255.529L147.833 252.272L151.108 252.095L145.455 267.371L142.626 267.524L135.357 252.947ZM141.381 258.564L143.83 263.772L145.726 258.329L141.381 258.564Z" fill="black"/>
<path d="M107.555 264.619L110.136 249.895L112.642 250.334L119.138 261.213L120.795 251.763L123.784 252.287L121.203 267.011L118.697 266.572L112.247 255.43L110.544 265.143L107.555 264.619Z" fill="black"/>
<path d="M91.0419 259.828L85.9684 257.676C81.429 255.751 79.5855 251.698 81.3278 247.59C83.07 243.482 87.2654 241.989 91.8048 243.914L96.8783 246.066L91.0419 259.828ZM93.0133 247.408L90.7334 246.441C87.8782 245.23 85.2742 246.113 84.1418 248.783C83.0093 251.453 84.1848 253.939 87.0399 255.15L89.3199 256.117L93.0133 247.408Z" fill="black"/>
<path d="M44.8035 227.144L48.4826 230.494L56.6986 221.469L58.9423 223.512L50.7263 232.536L54.4053 235.886L52.5578 237.915L42.956 229.173L44.8035 227.144Z" fill="black"/>
<path d="M37.2259 198.367L39.379 201.381L37.7795 208.584L38.7004 209.873L43.1663 206.682L44.9302 209.151L32.7671 217.841L28.6037 212.014C26.736 209.399 27.0339 206.554 29.3395 204.907C31.3727 203.454 33.7978 203.778 35.6239 205.682L37.2259 198.367ZM36.4675 211.468L34.068 208.109C33.2509 206.966 32.0526 206.67 31.0904 207.358C30.1283 208.045 30.0195 209.274 30.8366 210.418L33.2361 213.777L36.4675 211.468Z" fill="black"/>
<path d="M25.5201 174.348L26.7992 177.368L24.366 179.804L26.9416 185.885L30.3929 185.853L31.672 188.873L15.3838 188.745L14.2787 186.136L25.5201 174.348ZM22.2828 181.922L18.2167 185.995L23.9796 185.928L22.2828 181.922Z" fill="black"/>
<path d="M5.08833 152.169L19.8135 149.595L20.2515 152.101L12.2263 161.907L21.6768 160.255L22.1993 163.244L7.47411 165.818L7.03614 163.312L15.3251 153.46L5.61082 155.158L5.08833 152.169Z" fill="black"/>
<path d="M3.96815 129.63C4.10973 126.599 5.86618 124.381 8.54539 123.925L9.02785 126.985C7.61336 127.142 6.64234 128.326 6.5726 129.819C6.50181 131.334 7.30603 132.288 8.30894 132.334C9.0667 132.37 9.6172 132.061 9.8942 130.912L10.6904 127.733C11.3165 125.328 12.8349 123.902 15.1527 124.01C18.05 124.146 19.7439 126.615 19.5784 130.158C19.4326 133.278 17.8559 135.952 14.8518 136.191L14.3543 132.974C16.0669 132.652 16.8606 131.438 16.9397 129.745C17.0209 128.006 16.239 127.054 15.1692 127.004C14.3223 126.964 13.791 127.342 13.4611 128.666L12.7115 131.803C12.2494 133.568 11.1688 135.662 8.24923 135.526C5.5748 135.401 3.80472 133.129 3.96815 129.63Z" fill="black"/>
<path d="M6.85132 108.315L8.57831 101.571C9.43074 98.2426 11.9179 96.7146 14.8141 97.4564C17.7536 98.2092 19.1785 100.739 18.3261 104.068L17.3519 107.872L22.0853 109.084L21.3325 112.023L6.85132 108.315ZM14.6934 107.191L15.6676 103.387C16.0717 101.809 15.4069 100.717 14.0669 100.374C12.7701 100.042 11.6409 100.674 11.2368 102.252L10.2626 106.056L14.6934 107.191Z" fill="black"/>
<path d="M34.7585 76.4596L33.2948 79.3947L29.8622 79.1289L26.9149 85.0389L29.1827 87.6407L27.719 90.5758L17.2291 78.1145L18.4936 75.5788L34.7585 76.4596ZM26.8985 78.9225L21.1608 78.4795L24.9569 82.8159L26.8985 78.9225Z" fill="black"/>
<path d="M49.4399 56.4692L47.1044 59.3436L39.7353 59.7093L38.7364 60.9388L42.9961 64.3999L41.0827 66.7548L29.481 57.3283L33.9973 51.7699C36.0233 49.2764 38.8458 48.81 41.0449 50.5968C42.9843 52.1726 43.3144 54.5968 41.9626 56.862L49.4399 56.4692ZM36.6066 59.2082L39.2094 56.0048C40.0958 54.9139 40.0633 53.6801 39.1456 52.9344C38.2278 52.1888 37.0135 52.4095 36.1272 53.5004L33.5243 56.7039L36.6066 59.2082Z" fill="black"/>
<path d="M65.5198 38.4098L67.2381 40.5495L58.3834 47.6602L49.0236 36.0046L57.8435 28.9219L59.5618 31.0617L53.1078 36.2445L55.2172 38.8713L61.1668 34.0936L62.8571 36.1986L56.9076 40.9763L59.031 43.6205L65.5198 38.4098Z" fill="black"/>
<path d="M83.5715 14.0587L90.1658 27.4741L87.8831 28.5961L76.2225 23.6376L80.4546 32.2475L77.7315 33.5861L71.1372 20.1706L73.4199 19.0486L85.1986 24.2474L80.8484 15.3972L83.5715 14.0587Z" fill="black"/>
<path d="M111.81 8.15556L106.974 9.32433L109.84 21.1871L106.891 21.8998L104.024 10.0371L99.188 11.2059L98.5433 8.53841L111.165 5.48808L111.81 8.15556Z" fill="black"/>
<path d="M135.777 17.9568C135.777 18.1964 135.972 18.3906 136.211 18.3906C136.451 18.3906 136.645 18.1964 136.645 17.9568L136.645 12.9306L139.279 15.5644C139.448 15.7338 139.723 15.7338 139.892 15.5644C140.062 15.3949 140.062 15.1203 139.892 14.9508L137.259 12.317L142.285 12.317C142.525 12.317 142.719 12.1228 142.719 11.8832C142.719 11.6436 142.525 11.4494 142.285 11.4494L137.259 11.4494L139.892 8.81556C140.062 8.64614 140.062 8.37145 139.892 8.20203C139.723 8.03261 139.448 8.03261 139.279 8.20203L136.645 10.8358L136.645 5.80959C136.645 5.56999 136.451 5.37576 136.211 5.37576C135.972 5.37576 135.777 5.56999 135.777 5.80959L135.777 10.8359L133.144 8.20204C132.974 8.03262 132.7 8.03262 132.53 8.20204C132.361 8.37146 132.361 8.64615 132.53 8.81557L135.164 11.4494L130.138 11.4494C129.898 11.4494 129.704 11.6436 129.704 11.8832C129.704 12.1228 129.898 12.317 130.138 12.317L135.164 12.317L132.53 14.9508C132.361 15.1202 132.361 15.3949 132.53 15.5643C132.7 15.7338 132.974 15.7338 133.144 15.5643L135.777 12.9305L135.777 17.9568Z" fill="black"/>
</g>
</g>
<path d="M64.8972 155.084C68.6934 183.554 137.022 231.312 137.022 225.31V45C108.552 48.796 97.164 52.592 63 67.776C63.0002 92.45 63.643 145.678 64.8972 155.084Z" fill="#0D2767"/>
<path d="M209.147 155.084C205.351 183.554 137.022 231.312 137.022 225.31V45C165.492 48.796 176.88 52.592 211.044 67.776C211.044 92.45 210.401 145.678 209.147 155.084Z" fill="#0D2767"/>
<path d="M137.018 217.884C136.975 223.35 74.3818 179.593 70.9032 153.504C69.7535 144.882 69.1642 96.0896 69.1641 73.4718C100.481 59.5531 110.92 56.0734 137.018 52.5938C163.115 56.0734 173.554 59.5531 204.871 73.4718C204.871 96.0896 204.282 144.882 203.132 153.504C199.653 179.593 137.06 223.35 137.018 217.884Z" fill="url(#paint1_linear_6239_87459)"/>
<g filter="url(#filter2_d_6239_87459)">
<path fill-rule="evenodd" clip-rule="evenodd" d="M176.4 100.834C177.512 101.946 177.512 103.748 176.4 104.86L132.746 148.514C132.204 149.056 131.467 149.356 130.701 149.348C129.935 149.339 129.205 149.023 128.675 148.469L107.797 126.642C106.711 125.506 106.751 123.704 107.887 122.617C109.023 121.53 110.825 121.57 111.912 122.706L130.778 142.43L172.374 100.834C173.486 99.722 175.288 99.722 176.4 100.834Z" fill="white"/>
</g>
<defs>
<filter id="filter0_bf_6239_87459" x="-78.0478" y="-76.4931" width="428.814" height="426.385" filterUnits="userSpaceOnUse" color-interpolation-filters="sRGB">
<feFlood flood-opacity="0" result="BackgroundImageFix"/>
<feGaussianBlur in="BackgroundImageFix" stdDeviation="9.29633"/>
<feComposite in2="SourceAlpha" operator="in" result="effect1_backgroundBlur_6239_87459"/>
<feBlend mode="normal" in="SourceGraphic" in2="effect1_backgroundBlur_6239_87459" result="shape"/>
<feGaussianBlur stdDeviation="37.4848" result="effect2_foregroundBlur_6239_87459"/>
</filter>
<filter id="filter1_b_6239_87459" x="-21.6708" y="-20.1161" width="316.06" height="313.662" filterUnits="userSpaceOnUse" color-interpolation-filters="sRGB">
<feFlood flood-opacity="0" result="BackgroundImageFix"/>
<feGaussianBlur in="BackgroundImageFix" stdDeviation="9.29633"/>
<feComposite in2="SourceAlpha" operator="in" result="effect1_backgroundBlur_6239_87459"/>
<feBlend mode="normal" in="SourceGraphic" in2="effect1_backgroundBlur_6239_87459" result="shape"/>
</filter>
<filter id="filter2_d_6239_87459" x="92.0078" y="87" width="100.226" height="79.3477" filterUnits="userSpaceOnUse" color-interpolation-filters="sRGB">
<feFlood flood-opacity="0" result="BackgroundImageFix"/>
<feColorMatrix in="SourceAlpha" type="matrix" values="0 0 0 0 0 0 0 0 0 0 0 0 0 0 0 0 0 0 127 0" result="hardAlpha"/>
<feOffset dy="2"/>
<feGaussianBlur stdDeviation="7.5"/>
<feComposite in2="hardAlpha" operator="out"/>
<feColorMatrix type="matrix" values="0 0 0 0 0 0 0 0 0 0 0 0 0 0 0 0 0 0 0.5 0"/>
<feBlend mode="normal" in2="BackgroundImageFix" result="effect1_dropShadow_6239_87459"/>
<feBlend mode="normal" in="SourceGraphic" in2="effect1_dropShadow_6239_87459" result="shape"/>
</filter>
<radialGradient id="paint0_radial_6239_87459" cx="0" cy="0" r="1" gradientUnits="userSpaceOnUse" gradientTransform="translate(136.36 136.698) rotate(90) scale(129.513 130.652)">
<stop stop-color="white"/>
<stop offset="1" stop-color="#FFF8E6" stop-opacity="0"/>
</radialGradient>
<linearGradient id="paint1_linear_6239_87459" x1="170.944" y1="52.5938" x2="171.008" y2="257.501" gradientUnits="userSpaceOnUse">
<stop stop-color="#FFE8B0"/>
<stop offset="0.53125" stop-color="#FFB400"/>
</linearGradient>
<clipPath id="clip0_6239_87459">
<rect width="272" height="272" fill="white"/>
</clipPath>
</defs>
</svg>
