<svg width="37" height="36" viewBox="0 0 37 36" fill="none" xmlns="http://www.w3.org/2000/svg">
<path d="M32 26.1667C32 26.7855 31.7414 27.379 31.2811 27.8166C30.8208 28.2542 30.1964 28.5 29.5455 28.5H7.45455C6.80356 28.5 6.17924 28.2542 5.71892 27.8166C5.2586 27.379 5 26.7855 5 26.1667V13.3333C5 12.7145 5.2586 12.121 5.71892 11.6834C6.17924 11.2458 6.80356 11 7.45455 11H12.3636L14.8182 7.5H22.1818L24.6364 11H29.5455C30.1964 11 30.8208 11.2458 31.2811 11.6834C31.7414 12.121 32 12.7145 32 13.3333V26.1667Z" stroke="#0E2B72" stroke-width="3" stroke-linecap="round" stroke-linejoin="round"/>
<path d="M18.5 24C20.9853 24 23 21.9853 23 19.5C23 17.0147 20.9853 15 18.5 15C16.0147 15 14 17.0147 14 19.5C14 21.9853 16.0147 24 18.5 24Z" stroke="#0E2B72" stroke-width="3" stroke-linecap="round" stroke-linejoin="round"/>
</svg>
