<svg width="37" height="36" viewBox="0 0 37 36" fill="none" xmlns="http://www.w3.org/2000/svg">
<path d="M13.5244 4.5H23.4756C23.8734 4.5 24.2549 4.65804 24.5362 4.93934L31.5607 11.9638C31.842 12.2451 32 12.6266 32 13.0244V22.9756C32 23.3734 31.842 23.7549 31.5607 24.0362L24.5362 31.0607C24.2549 31.342 23.8734 31.5 23.4756 31.5H13.5244C13.1266 31.5 12.7451 31.342 12.4638 31.0607L5.43934 24.0362C5.15804 23.7549 5 23.3734 5 22.9755V13.0244C5 12.6266 5.15804 12.2451 5.43934 11.9638L12.4638 4.93934C12.7451 4.65804 13.1266 4.5 13.5244 4.5Z" stroke="#0E2B72" stroke-width="3" stroke-miterlimit="10" stroke-linecap="round" stroke-linejoin="round"/>
<path d="M20.75 24C20.75 25.2426 19.7426 26.25 18.5 26.25C17.2574 26.25 16.25 25.2426 16.25 24C16.25 22.7574 17.2574 21.75 18.5 21.75C19.7426 21.75 20.75 22.7574 20.75 24Z" fill="#0E2B72"/>
<path d="M16.3787 12.1716C16.9631 11.5872 17.7287 11.2943 18.4947 11.2929C19.2642 11.2916 20.0342 11.5845 20.6213 12.1716C21.2071 12.7574 21.5 13.5252 21.5 14.2929C21.5 15.0607 21.2071 15.8285 20.6213 16.4143C20.0342 17.0014 19.2642 17.2943 18.4947 17.2929L18.5 18.7929" stroke="#0E2B72" stroke-width="3" stroke-linecap="round" stroke-linejoin="round"/>
</svg>
