<svg width="91" height="71" viewBox="0 0 91 71" fill="none" xmlns="http://www.w3.org/2000/svg">
<rect width="90.9407" height="71" rx="5" fill="#071639"/>
<path fill-rule="evenodd" clip-rule="evenodd" d="M46.1382 12.1352C45.7112 11.9549 45.2295 11.9549 44.8025 12.1352L19.0491 23.0089C18.4133 23.2773 18 23.9004 18 24.5906C18 25.2807 18.4133 25.9038 19.0491 26.1723L27.7291 29.8372V38.5444C26.6161 38.833 25.5598 39.4083 24.6909 40.2771C23.3659 41.602 22.5784 43.5056 22.5784 45.8369V56.1383C22.5784 56.709 22.8713 57.2529 23.3455 57.5685C23.4808 57.6583 23.6142 57.7352 23.8493 57.8528C24.1322 57.9943 24.5292 58.1692 25.0399 58.3395C26.064 58.6809 27.5347 59 29.446 59C31.3572 59 32.8279 58.681 33.8518 58.3397C34.3626 58.1695 34.7595 57.9946 35.0425 57.8532C35.2641 57.7424 35.3937 57.6664 35.523 57.5843C36.0071 57.2692 36.3136 56.7179 36.3136 56.1387V45.8373C36.3136 43.5059 35.526 41.6023 34.2011 40.2773C33.3322 39.4084 32.2759 38.833 31.1629 38.5445V31.287L44.8025 37.0459C45.2295 37.2262 45.7112 37.2262 46.1382 37.0459L58.061 32.0119V41.1738C58.0091 41.2322 57.9492 41.2971 57.8807 41.3675C57.5109 41.7479 56.8879 42.2948 55.9364 42.8563C54.0451 43.9725 50.7753 45.1933 45.4704 45.1933C44.0693 45.1933 42.8111 45.1081 41.6841 44.9626C40.7437 44.8413 39.8829 45.5052 39.7615 46.4456C39.6401 47.386 40.3041 48.2468 41.2445 48.3682C42.5247 48.5334 43.9299 48.6271 45.4704 48.6271C51.3253 48.6271 55.2092 47.2727 57.6817 45.8135C58.9121 45.0873 59.7735 44.3466 60.3427 43.7611C60.671 43.4234 60.9942 43.0606 61.2414 42.6571L61.2429 42.6548C61.4076 42.3853 61.4948 42.0755 61.4948 41.7595V30.562L71.8916 26.1723C72.5274 25.9038 72.9407 25.2807 72.9407 24.5906C72.9407 23.9004 72.5274 23.2773 71.8916 23.0089L46.1382 12.1352ZM29.4458 41.7595C28.5829 41.7596 27.7416 42.0826 27.1189 42.7052C26.5123 43.3118 26.0122 44.3054 26.0122 45.8369V55.0429C26.6964 55.2839 27.8373 55.5662 29.446 55.5662C31.0546 55.5662 32.1955 55.2841 32.8798 55.0432V45.8373C32.8798 44.3057 32.3796 43.3119 31.773 42.7054C31.1503 42.0826 30.3088 41.7596 29.4458 41.7595ZM45.4703 33.6006L24.1308 24.5906L45.4703 15.5806L66.8099 24.5906L45.4703 33.6006Z" fill="url(#paint0_linear_1171_3923)"/>
<defs>
<linearGradient id="paint0_linear_1171_3923" x1="67.9203" y1="10.2299" x2="39.4665" y2="78.256" gradientUnits="userSpaceOnUse">
<stop stop-color="#FF5100"/>
<stop offset="1" stop-color="#956B05"/>
</linearGradient>
</defs>
</svg>
