<svg width="76" height="71" viewBox="0 0 76 71" fill="none" xmlns="http://www.w3.org/2000/svg">
<rect x="0.5" width="74.54" height="71" rx="5" fill="#071639"/>
<path fill-rule="evenodd" clip-rule="evenodd" d="M46.6432 16.1123L21.8771 37.7662C21.7951 37.8375 21.7369 37.9324 21.7101 38.0379C21.6833 38.1435 21.6893 38.2548 21.7272 38.3568C21.7651 38.4589 21.8332 38.5469 21.9222 38.6089C22.0113 38.671 22.1171 38.7041 22.2255 38.704H33.8034C34.0663 38.7037 34.3252 38.7689 34.557 38.8937C34.7888 39.0185 34.9863 39.199 35.1318 39.4192C35.2774 39.6393 35.3665 39.8923 35.3912 40.1555C35.4159 40.4188 35.3755 40.684 35.2734 40.9277L29.8371 53.8854L53.6621 33.2334C53.744 33.1621 53.8023 33.0672 53.8291 32.9617C53.8559 32.8561 53.8499 32.7448 53.812 32.6428C53.7741 32.5407 53.706 32.4527 53.617 32.3907C53.5279 32.3286 53.4221 32.2955 53.3137 32.2956H42.0375C41.773 32.2955 41.5127 32.2291 41.2801 32.1026C41.0475 31.976 40.8498 31.7932 40.705 31.5707C40.5602 31.3481 40.4728 31.0928 40.4506 30.8278C40.4285 30.5628 40.4722 30.2964 40.578 30.0527L46.6432 16.1123ZM45.6829 12.7052C46.171 12.2774 46.7895 12.0295 47.4364 12.0025C48.0834 11.9754 48.7202 12.1708 49.2419 12.5563C49.7637 12.9419 50.1392 13.4947 50.3067 14.1236C50.4742 14.7525 50.4236 15.4201 50.1633 16.0162L44.4742 29.0914H53.3137C56.7616 29.0914 58.3528 33.3979 55.7419 35.66L29.5079 58.4012C29.091 58.7641 28.5642 58.9744 28.0133 58.9978C27.4624 59.0213 26.9199 58.8565 26.474 58.5303C26.0282 58.2041 25.7053 57.7357 25.558 57.2014C25.4106 56.6671 25.4476 56.0984 25.6627 55.5879L31.4071 41.9082H22.2255C18.7861 41.9082 17.1907 37.6188 19.7867 35.3503L45.6829 12.7073V12.7052Z" fill="url(#paint0_linear_1223_3516)"/>
<defs>
<linearGradient id="paint0_linear_1223_3516" x1="53.5183" y1="10.2299" x2="18.3598" y2="69.1935" gradientUnits="userSpaceOnUse">
<stop stop-color="#0078D4"/>
<stop offset="1" stop-color="white"/>
</linearGradient>
</defs>
</svg>
