<svg width="33" height="30" viewBox="0 0 33 30" fill="none" xmlns="http://www.w3.org/2000/svg">
<path d="M25.7519 23.3008H24.1765V6.16016L25.7519 7.59241V23.3008ZM10.0481 23.3008H8.47266V7.59241L10.0481 6.16016V23.3008Z" fill="white"/>
<mask id="mask0_845_19359" style="mask-type:luminance" maskUnits="userSpaceOnUse" x="8" y="6" width="18" height="18">
<path d="M25.7539 23.3008H24.1784V6.16016L25.7539 7.59241V23.3008ZM10.0501 23.3008H8.47461V7.59241L10.0501 6.16016V23.3008Z" fill="white"/>
</mask>
<g mask="url(#mask0_845_19359)">
<path d="M751.651 -379.497H-40.2305V134.723H751.651V-379.497Z" fill="white"/>
<mask id="mask1_845_19359" style="mask-type:luminance" maskUnits="userSpaceOnUse" x="-41" y="-380" width="793" height="515">
<path d="M751.65 -379.497H-40.2314V134.723H751.65V-379.497Z" fill="white"/>
</mask>
<g mask="url(#mask1_845_19359)">
<path d="M29.6816 2.58716H4.54199V26.8736H29.6816V2.58716Z" fill="white"/>
</g>
</g>
<path d="M1.57546 6.97639L16.3475 4.29671H16.6525L31.4245 6.97639V4.14269L16.5 1.43223L1.57546 4.14269V6.97639ZM4.70944 24.2865H28.2736V7.8542L16.4831 5.71354L4.6925 7.8542V24.2865H4.70944ZM30.6283 25.7187H2.35472C1.91427 25.7187 1.57546 26.0421 1.57546 26.4271V28.5678H31.4245V26.4271C31.4245 26.0267 31.0688 25.7187 30.6453 25.7187H30.6283ZM3.13398 24.2865V8.14681L0 8.71662V2.97227L16.3475 0H16.6525L33 2.97227V8.71662L29.866 8.14681V24.2865H30.6453C31.9497 24.2865 33 25.2413 33 26.4271V30H0V26.4271C0 25.2413 1.05031 24.2865 2.35472 24.2865H3.13398Z" fill="white"/>
<mask id="mask2_845_19359" style="mask-type:luminance" maskUnits="userSpaceOnUse" x="0" y="0" width="33" height="30">
<path d="M1.57546 6.97639L16.3475 4.29671H16.6525L31.4245 6.97639V4.14269L16.5 1.43223L1.57546 4.14269V6.97639ZM4.70944 24.2865H28.2736V7.8542L16.4831 5.71354L4.6925 7.8542V24.2865H4.70944ZM30.6283 25.7187H2.35472C1.91427 25.7187 1.57546 26.0421 1.57546 26.4271V28.5678H31.4245V26.4271C31.4245 26.0267 31.0688 25.7187 30.6453 25.7187H30.6283ZM3.13398 24.2865V8.14681L0 8.71662V2.97227L16.3475 0H16.6525L33 2.97227V8.71662L29.866 8.14681V24.2865H30.6453C31.9497 24.2865 33 25.2413 33 26.4271V30H0V26.4271C0 25.2413 1.05031 24.2865 2.35472 24.2865H3.13398Z" fill="white"/>
</mask>
<g mask="url(#mask2_845_19359)">
<path d="M751.038 -379.944H-40.8438V134.276H751.038V-379.944Z" fill="white"/>
<mask id="mask3_845_19359" style="mask-type:luminance" maskUnits="userSpaceOnUse" x="-41" y="-380" width="793" height="515">
<path d="M751.038 -379.944H-40.8438V134.276H751.038V-379.944Z" fill="white"/>
</mask>
<g mask="url(#mask3_845_19359)">
<path d="M36.9284 -3.57275H-3.91504V33.5576H36.9284V-3.57275Z" fill="white"/>
</g>
</g>
<path d="M20 10L19.2806 11.004H17.8004C17.9526 11.1625 18.0771 11.3606 18.1739 11.5588C18.2707 11.7569 18.3399 12.0079 18.3953 12.2853H20L19.2806 13.2893H18.3814C18.3261 13.6196 18.2154 13.9234 18.0356 14.214C17.8558 14.5046 17.6482 14.7292 17.3715 14.9406C17.0949 15.1387 16.7629 15.2972 16.3893 15.4161C16.0158 15.535 15.587 15.5878 15.1166 15.5878L19.4605 20H17.5652L13.3735 15.6935V14.6896H14.4249C14.7569 14.6896 15.0613 14.6631 15.3379 14.5971C15.6146 14.5442 15.8637 14.4518 16.085 14.3329C16.3063 14.214 16.4862 14.0687 16.6245 13.897C16.7767 13.7252 16.8735 13.5271 16.9289 13.3025H13L13.7194 12.2986H16.915C16.8043 11.9023 16.5692 11.5984 16.2095 11.3606C15.8498 11.1229 15.3656 11.0172 14.7431 11.0172H13L13.7194 10.0132H19.9862L20 10Z" fill="#FFB400"/>
</svg>
