<svg width="34" height="30" viewBox="0 0 34 30" fill="none" xmlns="http://www.w3.org/2000/svg">
<path d="M23.0258 4.99701L22.109 2.22886C22.0012 1.88734 21.6776 1.65368 21.3181 1.65368H12.0432C11.6837 1.65368 11.3601 1.88734 11.2523 2.22886L10.3355 4.99701H23.0258ZM24.7873 4.99701H30.8448C32.2289 4.99701 33.3433 6.11145 33.3433 7.49551V27.5015C33.3433 28.8856 32.2289 30 30.8448 30H2.49853C1.11447 30 0 28.8856 0 27.5015V7.49551C0 6.11145 1.11447 4.99701 2.49853 4.99701H6.66865V6.66865H2.49853C2.03118 6.66865 1.67165 7.04614 1.67165 7.49551V27.5015C1.67165 27.9689 2.04916 28.3284 2.49853 28.3284H30.8448C31.3122 28.3284 31.6717 27.9509 31.6717 27.5015V7.49551C31.6717 7.02816 31.2942 6.66865 30.8448 6.66865H8.01677L9.67048 1.70761C10.012 0.683039 10.9647 0 12.0432 0H21.3181C22.3966 0 23.3493 0.683039 23.6908 1.70761L24.7873 4.99701Z" fill="white"/>
<mask id="mask0_753_10396" style="mask-type:luminance" maskUnits="userSpaceOnUse" x="0" y="0" width="34" height="30">
<path d="M23.0258 4.99701L22.109 2.22886C22.0012 1.88734 21.6776 1.65368 21.3181 1.65368H12.0432C11.6837 1.65368 11.3601 1.88734 11.2523 2.22886L10.3355 4.99701H23.0258ZM24.7873 4.99701H30.8448C32.2289 4.99701 33.3433 6.11145 33.3433 7.49551V27.5015C33.3433 28.8856 32.2289 30 30.8448 30H2.49853C1.11447 30 0 28.8856 0 27.5015V7.49551C0 6.11145 1.11447 4.99701 2.49853 4.99701H6.66865V6.66865H2.49853C2.03118 6.66865 1.67165 7.04614 1.67165 7.49551V27.5015C1.67165 27.9689 2.04916 28.3284 2.49853 28.3284H30.8448C31.3122 28.3284 31.6717 27.9509 31.6717 27.5015V7.49551C31.6717 7.02816 31.2942 6.66865 30.8448 6.66865H8.01677L9.67048 1.70761C10.012 0.683039 10.9647 0 12.0432 0H21.3181C22.3966 0 23.3493 0.683039 23.6908 1.70761L24.7873 4.99701Z" fill="white"/>
</mask>
<g mask="url(#mask0_753_10396)">
<path d="M236.729 -285.081H-603.505V315.099H236.729V-285.081Z" fill="white"/>
<mask id="mask1_753_10396" style="mask-type:luminance" maskUnits="userSpaceOnUse" x="-604" y="-286" width="841" height="602">
<path d="M236.73 -285.081H-603.504V315.099H236.73V-285.081Z" fill="white"/>
</mask>
<g mask="url(#mask1_753_10396)">
<path d="M37.5147 -4.17017H-4.16895V34.1702H37.5147V-4.17017Z" fill="white"/>
</g>
</g>
<mask id="mask2_753_10396" style="mask-type:luminance" maskUnits="userSpaceOnUse" x="4" y="9" width="26" height="16">
<path d="M28.4893 21.6236V19.8441H29.9093V24.1222H25.6492V22.7021H27.5545L16.5899 11.4139L4.33105 11.342L4.34905 9.90405L17.1651 9.97594L28.4893 21.6236Z" fill="white"/>
</mask>
<g mask="url(#mask2_753_10396)">
<mask id="mask3_753_10396" style="mask-type:luminance" maskUnits="userSpaceOnUse" x="-442" y="-445" width="717" height="512">
<path d="M274.365 -444.86H-441.896V66.7583H274.365V-444.86Z" fill="white"/>
</mask>
<g mask="url(#mask3_753_10396)">
<path d="M33.4693 6.34497H0.791016V27.6631H33.4693V6.34497Z" fill="#FFB400"/>
</g>
</g>
<path d="M12 15L11.2806 16.004H9.8004C9.95257 16.1625 10.0771 16.3606 10.1739 16.5588C10.2707 16.7569 10.3399 17.0079 10.3953 17.2853H12L11.2806 18.2893H10.3814C10.3261 18.6196 10.2154 18.9234 10.0356 19.214C9.85575 19.5046 9.64823 19.7292 9.37155 19.9406C9.09487 20.1387 8.76286 20.2972 8.38935 20.4161C8.01583 20.535 7.58696 20.5878 7.1166 20.5878L11.4605 25H9.5652L5.3735 20.6935V19.6896H6.4249C6.75692 19.6896 7.06127 19.6631 7.33795 19.5971C7.61463 19.5442 7.86365 19.4518 8.085 19.3329C8.30634 19.214 8.48616 19.0687 8.6245 18.897C8.77667 18.7252 8.87351 18.5271 8.92885 18.3025H5L5.71935 17.2986H8.915C8.80433 16.9023 8.56918 16.5984 8.2095 16.3606C7.84981 16.1229 7.36563 16.0172 6.7431 16.0172H5L5.71935 15.0132H11.9862L12 15Z" fill="#FFB400"/>
</svg>
