<svg width="42" height="34" viewBox="0 0 42 34" fill="none" xmlns="http://www.w3.org/2000/svg">
<path d="M16.6152 17.5076L15.8183 18.6753H14.1787C14.3473 18.8596 14.4852 19.0901 14.5924 19.3206C14.6997 19.551 14.7763 19.8429 14.8376 20.1656H16.6152L15.8183 21.3333H14.8223C14.761 21.7174 14.6384 22.0708 14.4392 22.4088C14.24 22.7468 14.0101 23.008 13.7037 23.2538C13.3972 23.4843 13.0294 23.6687 12.6157 23.8069C12.2019 23.9452 11.7269 24.0067 11.2059 24.0067L16.0175 29.1383H13.9182L9.27505 24.1296V22.9619H10.4397C10.8075 22.9619 11.1446 22.9312 11.4511 22.8543C11.7575 22.7929 12.0334 22.6853 12.2785 22.547C12.5237 22.4088 12.7229 22.2398 12.8762 22.04C13.0447 21.8403 13.152 21.6098 13.2133 21.3486H8.86133L9.65815 20.181H13.198C13.0754 19.72 12.8149 19.3666 12.4164 19.0901C12.018 18.8135 11.4817 18.6906 10.7921 18.6906H8.86133L9.65815 17.5229H16.5999L16.6152 17.5076Z" fill="#FFB400"/>
<path d="M42 13.6856C41.8433 13.9214 41.7257 14.1965 41.5494 14.4126C40.9812 15.0806 40.1191 15.1789 39.2766 14.7073C36.8668 13.3123 34.4373 11.9174 32.0274 10.5027C31.8511 10.4045 31.6747 10.3063 31.4004 10.2866C31.4396 10.4242 31.4984 10.5617 31.5376 10.6992C31.8315 11.4065 31.6944 12.1335 31.1458 12.6443C30.6168 13.1552 29.8135 13.3123 29.1473 12.9194C27.3644 11.9174 25.5815 10.876 23.8182 9.8347C23.1716 9.4614 22.8973 8.69516 23.0345 8.00749C23.1912 7.28053 23.779 6.73039 24.5431 6.6518C24.837 6.63215 24.9937 6.49463 25.1309 6.25885C25.7382 5.19788 26.3456 4.13692 26.953 3.07595C27.0313 2.91877 27.0509 2.6437 26.9726 2.48652C26.6983 1.75956 26.8354 0.973647 27.3644 0.482457C27.913 -0.02838 28.6967 -0.165923 29.3824 0.227029C31.1457 1.22906 32.9091 2.25076 34.6724 3.29208C35.319 3.66538 35.6128 4.37268 35.4757 5.06035C35.3385 5.80696 34.8292 6.3571 34.0846 6.45534C33.634 6.51429 33.4185 6.73038 33.2618 7.16263C33.3989 7.24122 33.5361 7.33947 33.6928 7.41806C36.0047 8.75409 38.297 10.1098 40.6089 11.4262C41.2163 11.7602 41.7257 12.1531 42 12.8211V13.6856ZM28.4028 3.68502C27.6975 4.90318 27.0313 6.06239 26.326 7.28054C27.5995 8.0075 28.8339 8.73445 30.1074 9.48106C30.7931 8.28256 31.4788 7.1037 32.1842 5.88555C30.9302 5.15858 29.6763 4.43163 28.4028 3.68502ZM32.2821 8.69517C32.2821 8.69517 32.2821 8.81303 32.2821 8.89162C32.6348 9.0881 32.9679 9.28457 33.3205 9.5007C35.5149 10.7778 37.7093 12.0352 39.9036 13.3123C40.0408 13.3909 40.2171 13.3713 40.3738 13.3909C40.315 13.2731 40.2759 13.0962 40.1779 13.0373C37.6897 11.5833 35.1818 10.1294 32.674 8.69517C32.576 8.63622 32.3997 8.69516 32.2625 8.7148L32.2821 8.69517ZM34.0454 4.76565C33.8691 4.62812 33.7712 4.52986 33.6536 4.47092C32.0666 3.54748 30.46 2.62404 28.873 1.7006C28.7947 1.6613 28.7359 1.60238 28.6575 1.60238C28.5791 1.60238 28.442 1.62202 28.4224 1.68096C28.4028 1.7399 28.4224 1.8578 28.4812 1.93639C28.5204 1.99533 28.6183 2.03461 28.6771 2.07391C30.2641 2.99734 31.8707 3.92079 33.4577 4.84423C33.536 4.88352 33.634 4.96211 33.7124 4.96211C33.7908 4.96211 33.8887 4.88352 34.0454 4.78528V4.76565ZM30.2445 11.3869C30.0486 11.2493 29.931 11.1511 29.7939 11.0725C28.2265 10.1687 26.6591 9.26493 25.0917 8.34149C25.0133 8.3022 24.9349 8.22362 24.837 8.20398C24.7586 8.20398 24.641 8.22361 24.6018 8.28255C24.5627 8.3415 24.6019 8.45937 24.6607 8.51832C24.739 8.59691 24.837 8.65587 24.9349 8.69517C26.4828 9.57931 28.011 10.4831 29.5588 11.3672C29.6763 11.4262 29.7743 11.5047 29.9114 11.5244C29.9898 11.5244 30.0878 11.4458 30.2445 11.3672V11.3869Z" fill="#FFB400"/>
<path d="M12.27 10.6465C19.0348 10.6465 24.5244 16.1361 24.5244 22.9009V33.7246H0V22.9009C0 16.1361 5.48961 10.6465 12.2544 10.6465H12.27ZM23.0937 22.9009C23.0937 16.9292 18.2572 12.0772 12.27 12.0772C6.28272 12.0772 1.44628 16.9137 1.44628 22.9009V32.2783H23.0781V22.9009H23.0937Z" fill="white"/>
<path d="M15.9246 9.9467L18.5527 4.67482L15.3647 5.74784L12.27 4.20828L9.22196 5.74784L5.98729 4.67482L8.631 9.9467L7.21583 10.6465L2.89258 2L9.09755 4.05276L12.27 2.46654L15.4736 4.05276L21.6474 2L17.3242 10.6465L15.9246 9.9467Z" fill="white"/>
<mask id="mask0_845_19501" style="mask-type:luminance" maskUnits="userSpaceOnUse" x="2" y="2" width="20" height="9">
<path d="M15.9246 9.9467L18.5527 4.67482L15.3647 5.74784L12.27 4.20828L9.22196 5.74784L5.98729 4.67482L8.631 9.9467L7.21583 10.6465L2.89258 2L9.09755 4.05276L12.27 2.46654L15.4736 4.05276L21.6474 2L17.3242 10.6465L15.9246 9.9467Z" fill="white"/>
</mask>
<g mask="url(#mask0_845_19501)">
<path d="M409.636 -311.001H-317.309V208.256H409.636V-311.001Z" fill="white"/>
<mask id="mask1_845_19501" style="mask-type:luminance" maskUnits="userSpaceOnUse" x="-318" y="-312" width="728" height="521">
<path d="M409.636 -311.001H-317.309V208.256H409.636V-311.001Z" fill="white"/>
</mask>
<g mask="url(#mask1_845_19501)">
<path d="M25.2402 -1.60815H-0.714844V14.2541H25.2402V-1.60815Z" fill="white"/>
</g>
</g>
</svg>
