<svg width="34" height="30" viewBox="0 0 34 30" fill="none" xmlns="http://www.w3.org/2000/svg">
<mask id="mask0_845_19268" style="mask-type:luminance" maskUnits="userSpaceOnUse" x="5" y="7" width="24" height="9">
<path d="M27.0522 7.18994H28.7239V13.0318C28.7239 14.4158 27.6095 15.5303 26.2254 15.5303H7.89105C6.50699 15.5303 5.39258 14.4158 5.39258 13.0318V7.18994H7.06423V13.0318C7.06423 13.4991 7.44168 13.8586 7.89105 13.8586H26.2254C26.6928 13.8586 27.0522 13.4811 27.0522 13.0318V7.18994Z" fill="white"/>
</mask>
<g mask="url(#mask0_845_19268)">
<mask id="mask1_845_19268" style="mask-type:luminance" maskUnits="userSpaceOnUse" x="-604" y="-287" width="842" height="601">
<path d="M237.106 -286.231H-603.128V313.949H237.106V-286.231Z" fill="white"/>
</mask>
<g mask="url(#mask1_845_19268)">
<path d="M32.8758 3.01978H1.2041V19.6825H32.8758V3.01978Z" fill="#FFB400"/>
</g>
</g>
<mask id="mask2_845_19268" style="mask-type:luminance" maskUnits="userSpaceOnUse" x="0" y="0" width="34" height="30">
<path d="M23.0258 4.99701L22.109 2.22886C22.0012 1.88734 21.6776 1.65368 21.3181 1.65368H12.0432C11.6837 1.65368 11.3601 1.88734 11.2523 2.22886L10.3355 4.99701H23.0258ZM24.7873 4.99701H30.8448C32.2289 4.99701 33.3433 6.11145 33.3433 7.49551V27.5015C33.3433 28.8856 32.2289 30 30.8448 30H2.49853C1.11447 30 0 28.8856 0 27.5015V7.49551C0 6.11145 1.11447 4.99701 2.49853 4.99701H6.66865V6.66865H2.49853C2.03118 6.66865 1.67165 7.04614 1.67165 7.49551V27.5015C1.67165 27.9688 2.04916 28.3284 2.49853 28.3284H30.8448C31.3122 28.3284 31.6717 27.9509 31.6717 27.5015V7.49551C31.6717 7.02816 31.2942 6.66865 30.8448 6.66865H8.01677L9.67048 1.70761C10.012 0.683039 10.9647 0 12.0432 0H21.3181C22.3966 0 23.3493 0.683039 23.6908 1.70761L24.7873 4.99701Z" fill="white"/>
</mask>
<g mask="url(#mask2_845_19268)">
<mask id="mask3_845_19268" style="mask-type:luminance" maskUnits="userSpaceOnUse" x="-604" y="-286" width="841" height="602">
<path d="M236.729 -285.081H-603.505V315.099H236.729V-285.081Z" fill="white"/>
</mask>
<g mask="url(#mask3_845_19268)">
<path d="M37.5138 -4.17017H-4.16992V34.1702H37.5138V-4.17017Z" fill="white"/>
</g>
</g>
<mask id="mask4_845_19268" style="mask-type:luminance" maskUnits="userSpaceOnUse" x="12" y="18" width="9" height="9">
<path d="M15.1692 22.7379L12.3291 19.8978L13.6233 18.5857L16.4813 21.4257L19.3034 18.6037L20.5975 19.9158L17.7935 22.7379L20.6515 25.6139L19.3393 26.926L16.4813 24.05L13.6593 26.8721L12.3471 25.5599L15.1692 22.7379Z" fill="white"/>
</mask>
<g mask="url(#mask4_845_19268)">
<mask id="mask5_845_19268" style="mask-type:luminance" maskUnits="userSpaceOnUse" x="-293" y="-125" width="841" height="601">
<path d="M547.459 -124.8H-292.775V475.38H547.459V-124.8Z" fill="white"/>
</mask>
<g mask="url(#mask5_845_19268)">
<path d="M24.8209 14.4153H8.1582V31.078H24.8209V14.4153Z" fill="#FFB400"/>
</g>
</g>
</svg>
