<svg width="31" height="30" viewBox="0 0 31 30" fill="none" xmlns="http://www.w3.org/2000/svg">
<path d="M25.7437 12.3734L27.2152 7.97468V27.0096H2.26253V27.8007C2.26253 28.2121 2.59485 28.5286 2.99042 28.5286H28.6709V2.84806C28.6709 2.43666 28.3386 2.1202 27.9431 2.1202H25.7437V0.648682H27.9431C29.1614 0.648682 30.1424 1.6297 30.1424 2.84806V30.0001H2.99042C1.77206 30.0001 0.791016 29.0191 0.791016 27.8007V25.5539H25.7437V12.3892V12.3734Z" fill="white"/>
<mask id="mask0_845_19422" style="mask-type:luminance" maskUnits="userSpaceOnUse" x="0" y="0" width="31" height="30">
<path d="M25.7437 12.3734L27.2152 7.97468V27.0096H2.26253V27.8007C2.26253 28.2121 2.59485 28.5286 2.99042 28.5286H28.6709V2.84806C28.6709 2.43666 28.3386 2.1202 27.9431 2.1202H25.7437V0.648682H27.9431C29.1614 0.648682 30.1424 1.6297 30.1424 2.84806V30.0001H2.99042C1.77206 30.0001 0.791016 29.0191 0.791016 27.8007V25.5539H25.7437V12.3892V12.3734Z" fill="white"/>
</mask>
<g mask="url(#mask0_845_19422)">
<path d="M209.179 -389.733H-530.461V138.592H209.179V-389.733Z" fill="white"/>
<mask id="mask1_845_19422" style="mask-type:luminance" maskUnits="userSpaceOnUse" x="-531" y="-390" width="741" height="529">
<path d="M209.18 -389.733H-530.46V138.592H209.18V-389.733Z" fill="white"/>
</mask>
<g mask="url(#mask1_845_19422)">
<path d="M33.8143 -3.03809H-2.87891V33.6551H33.8143V-3.03809Z" fill="white"/>
</g>
</g>
<path d="M6.34486 18.2753L1.9461 24.114L0.791016 23.2596L5.91761 16.4557L11.5664 19.288L15.8702 10.7278L22.9589 13.5443L25.8228 3.57593L27.2152 3.9715L23.9082 15.4589L16.5664 12.5475L12.2151 21.2026L6.34486 18.2753Z" fill="white"/>
<mask id="mask2_845_19422" style="mask-type:luminance" maskUnits="userSpaceOnUse" x="0" y="3" width="28" height="22">
<path d="M6.34486 18.2753L1.9461 24.114L0.791016 23.2596L5.91761 16.4557L11.5664 19.288L15.8702 10.7278L22.9589 13.5443L25.8228 3.57593L27.2152 3.9715L23.9082 15.4589L16.5664 12.5475L12.2151 21.2026L6.34486 18.2753Z" fill="white"/>
</mask>
<g mask="url(#mask2_845_19422)">
<path d="M209.179 -389.733H-530.461V138.592H209.179V-389.733Z" fill="white"/>
<mask id="mask3_845_19422" style="mask-type:luminance" maskUnits="userSpaceOnUse" x="-531" y="-390" width="741" height="529">
<path d="M209.18 -389.733H-530.46V138.592H209.18V-389.733Z" fill="white"/>
</mask>
<g mask="url(#mask3_845_19422)">
<path d="M30.8713 -0.0949707H-2.87891V27.7849H30.8713V-0.0949707Z" fill="white"/>
</g>
</g>
<path d="M8.00637 0L7.1836 1.20255H5.49054C5.66459 1.39243 5.80698 1.62977 5.91774 1.86711C6.0285 2.10445 6.10762 2.40507 6.17091 2.73735H8.00637L7.1836 3.9399H6.15512C6.09183 4.33547 5.96524 4.6994 5.75955 5.0475C5.55385 5.3956 5.31649 5.6646 5.00003 5.91776C4.68357 6.1551 4.30384 6.34498 3.87662 6.48739C3.4494 6.62979 2.95887 6.69307 2.4209 6.69307L7.3893 11.9779H5.22153L0.4272 6.81965V5.61712H1.62975C2.0095 5.61712 2.35761 5.58547 2.67407 5.50635C2.99053 5.44306 3.27535 5.33231 3.52852 5.1899C3.78168 5.04749 3.98736 4.87344 4.14558 4.66774C4.31964 4.46204 4.4304 4.22471 4.49369 3.95572H0L0.822772 2.75319H4.47785C4.35127 2.2785 4.08231 1.91457 3.67092 1.62975C3.25952 1.34494 2.70573 1.21837 1.9937 1.21837H0L0.822772 0.0158383H7.99053L8.00637 0Z" fill="#FFB400"/>
</svg>
