<svg width="164" height="65" viewBox="0 0 164 65" fill="none" xmlns="http://www.w3.org/2000/svg">
<path d="M32.4091 38.6653H36.2291V28.3153L40.8491 14.3553H37.1291L34.5291 23.2853H34.4591L31.8491 14.3553H27.7891L32.4091 28.3153V38.6653ZM47.4791 39.0153C48.2698 39.0687 49.0628 38.9538 49.8058 38.6779C50.5488 38.4021 51.2248 37.9718 51.7891 37.4153C52.8486 36.1602 53.3824 34.5445 53.2791 32.9053V20.1253C53.3845 18.4797 52.8508 16.8569 51.7891 15.5953C51.2233 15.0409 50.5471 14.6119 49.8045 14.3362C49.0619 14.0605 48.2695 13.9443 47.4791 13.9953C46.69 13.9439 45.8991 14.0598 45.158 14.3356C44.417 14.6113 43.7426 15.0406 43.1791 15.5953C42.1125 16.8508 41.5748 18.4712 41.6791 20.1153V32.9053C41.5743 34.5464 42.1122 36.1638 43.1791 37.4153C43.7415 37.9715 44.4157 38.4018 45.157 38.6777C45.8983 38.9535 46.6899 39.0686 47.4791 39.0153ZM45.4791 19.8753C45.4791 18.2853 46.1391 17.4853 47.4791 17.4853C48.8191 17.4853 49.4791 18.2853 49.4791 19.8753V33.1453C49.4791 34.7453 48.8124 35.5453 47.4791 35.5453C46.1457 35.5453 45.4791 34.7453 45.4791 33.1453V19.8753ZM61.4091 39.0153C62.1874 39.067 62.9678 38.9529 63.6987 38.6806C64.4297 38.4082 65.0944 37.9837 65.6491 37.4353C66.69 36.1641 67.2084 34.5446 67.0991 32.9053V14.3553H63.4191V33.1753C63.4808 33.8196 63.3028 34.464 62.9191 34.9853C62.7332 35.1763 62.5084 35.3252 62.26 35.4219C62.0115 35.5185 61.7452 35.5606 61.4791 35.5453C61.2062 35.5686 60.9316 35.5304 60.6754 35.4335C60.4193 35.3366 60.1881 35.1834 59.9991 34.9853C59.6118 34.4654 59.4302 33.8208 59.4891 33.1753V14.3553H55.7091V32.9053C55.6035 34.5458 56.1254 36.1651 57.1691 37.4353C57.7233 37.9843 58.388 38.4091 59.1191 38.6815C59.8501 38.9539 60.6307 39.0677 61.4091 39.0153ZM73.6291 28.2453H74.9991C75.3387 28.2089 75.6822 28.2493 76.0042 28.3636C76.3261 28.4778 76.6183 28.6629 76.8591 28.9053C77.2865 29.603 77.476 30.4206 77.3991 31.2353V35.6753C77.3669 36.3151 77.3736 36.9563 77.4191 37.5953C77.4696 37.9748 77.5635 38.3472 77.6991 38.7053H81.5891C81.403 38.3042 81.2847 37.875 81.2391 37.4353C81.1847 36.877 81.1614 36.3161 81.1691 35.7553V31.4453C81.2157 30.2717 81.0217 29.1011 80.5991 28.0053C80.4163 27.5889 80.1413 27.2194 79.7949 26.9249C79.4484 26.6304 79.0395 26.4185 78.5991 26.3053V26.2353C80.2657 25.5686 81.0991 23.9719 81.0991 21.4453V19.9453C81.2241 18.4155 80.7388 16.8984 79.7491 15.7253C79.1569 15.2233 78.4711 14.8437 77.7313 14.6085C76.9915 14.3734 76.2124 14.2873 75.4391 14.3553H69.8091V38.6653H73.6291V28.2453ZM73.6291 17.8253H75.3691C75.6445 17.8034 75.9212 17.8453 76.1779 17.9476C76.4345 18.0499 76.6642 18.2099 76.8491 18.4153C77.2041 18.9858 77.3654 19.6557 77.3091 20.3253V22.2053C77.3839 22.9205 77.1797 23.637 76.7391 24.2053C76.5075 24.4153 76.2356 24.576 75.9398 24.6775C75.6441 24.7789 75.3308 24.819 75.0191 24.7953H73.6291V17.8253ZM88.7791 39.0153C89.5653 39.0696 90.3541 38.9549 91.0924 38.6789C91.8306 38.4029 92.5012 37.972 93.0591 37.4153C94.123 36.1357 94.6531 34.4955 94.5391 32.8353C94.5716 31.4483 94.2625 30.0746 93.6391 28.8353C92.7674 27.3928 91.6507 26.1136 90.3391 25.0553C89.3534 24.2506 88.4821 23.3153 87.7491 22.2753C87.27 21.5397 87.0098 20.683 86.9991 19.8053C86.9991 18.2553 87.6391 17.4853 88.9091 17.4853C89.1734 17.4673 89.4384 17.5092 89.6842 17.6079C89.9301 17.7066 90.1505 17.8595 90.3291 18.0553C90.7017 18.5853 90.8752 19.2298 90.8191 19.8753V21.1253H94.4291V20.1253C94.5462 18.498 94.0583 16.8849 93.0591 15.5953C92.524 15.0458 91.8754 14.6197 91.1586 14.3468C90.4418 14.0739 89.6741 13.9608 88.9091 14.0153C88.1322 13.963 87.3531 14.0769 86.6238 14.3493C85.8944 14.6218 85.2314 15.0465 84.6791 15.5953C83.6374 16.843 83.1147 18.4432 83.2191 20.0653C83.1961 21.3922 83.5202 22.7021 84.1591 23.8653C85.047 25.2812 86.1618 26.5414 87.4591 27.5953C88.4371 28.408 89.2927 29.3578 89.9991 30.4153C90.4687 31.2328 90.7072 32.1626 90.6891 33.1053C90.7458 33.7647 90.5689 34.4232 90.1891 34.9653C89.9997 35.1642 89.7691 35.3192 89.5134 35.4194C89.2577 35.5196 88.9831 35.5626 88.7091 35.5453C87.3757 35.5453 86.7091 34.7553 86.7091 33.1753V31.5153H83.1491V32.9053C83.0403 34.5396 83.5468 36.1555 84.5691 37.4353C85.1157 37.9862 85.7748 38.4126 86.5014 38.6853C87.228 38.958 88.0049 39.0705 88.7791 39.0153ZM99.7091 38.6653H103.529V17.8253H107.529V14.3553H95.7191V17.8253H99.7091V38.6653ZM114.749 39.0153C115.54 39.0687 116.333 38.9538 117.076 38.6779C117.819 38.4021 118.495 37.9718 119.059 37.4153C120.119 36.1602 120.652 34.5445 120.549 32.9053V20.1253C120.655 18.4797 120.121 16.8569 119.059 15.5953C117.862 14.5628 116.335 13.9948 114.754 13.9948C113.174 13.9948 111.646 14.5628 110.449 15.5953C109.383 16.8508 108.845 18.4712 108.949 20.1153V32.9053C108.844 34.5464 109.382 36.1638 110.449 37.4153C111.011 37.9715 111.686 38.4018 112.427 38.6777C113.168 38.9535 113.96 39.0686 114.749 39.0153ZM112.749 19.8753C112.749 18.2853 113.409 17.4853 114.749 17.4853C116.089 17.4853 116.749 18.2853 116.749 19.8753V33.1453C116.749 34.7453 116.082 35.5453 114.749 35.5453C113.416 35.5453 112.749 34.7453 112.749 33.1453V19.8753ZM126.939 28.2453H128.259C128.599 28.2089 128.942 28.2493 129.264 28.3636C129.586 28.4778 129.878 28.6629 130.119 28.9053C130.547 29.603 130.736 30.4206 130.659 31.2353V35.6753C130.645 36.3028 130.669 36.9305 130.729 37.5553C130.78 37.9348 130.874 38.3072 131.009 38.6653H134.889C134.71 38.2623 134.595 37.8338 134.549 37.3953C134.495 36.837 134.471 36.2761 134.479 35.7153V31.4453C134.526 30.2717 134.332 29.1011 133.909 28.0053C133.726 27.5889 133.451 27.2194 133.105 26.9249C132.758 26.6304 132.349 26.4185 131.909 26.3053V26.2353C133.582 25.5686 134.416 23.9719 134.409 21.4453V19.9453C134.534 18.4155 134.049 16.8984 133.059 15.7253C132.467 15.2233 131.781 14.8437 131.041 14.6085C130.301 14.3734 129.522 14.2873 128.749 14.3553H123.089V38.6653H126.909L126.939 28.2453ZM126.939 17.8253H128.679C128.953 17.8027 129.229 17.8442 129.484 17.9466C129.739 18.0491 129.967 18.2095 130.149 18.4153C130.516 18.981 130.681 19.6539 130.619 20.3253V22.2053C130.694 22.9205 130.49 23.637 130.049 24.2053C129.818 24.4153 129.546 24.576 129.25 24.6775C128.954 24.7789 128.641 24.819 128.329 24.7953H126.939V17.8253ZM140.069 38.6653H143.889V28.3153L148.509 14.3553H144.789L142.189 23.2853H142.119L139.509 14.3553H135.449L140.069 28.3153V38.6653Z" fill="black"/>
<path d="M159.004 0.592773H13.0938V52.1228H163.004V0.592773H159.004ZM159.004 48.1328H17.0037V4.59277H159.004V48.1328Z" fill="black"/>
<path d="M147.62 51.4903C147.039 51.4827 146.468 51.3424 145.95 51.0803V60.0803H4V16.5303H15.12C14.8476 15.8805 14.7459 15.1719 14.8247 14.4717C14.9035 13.7716 15.16 13.1033 15.57 12.5303H0V64.0703H149.94V51.0703C149.197 51.3439 148.412 51.486 147.62 51.4903Z" fill="black"/>
<path d="M17.8081 49.6106L3.11812 63.2006L0.298125 60.3806L14.9881 46.7906L17.8081 49.6106ZM15.8981 3.42059L2.89813 15.3806L0.078125 12.5606L13.0781 0.600586L15.8981 3.42059Z" fill="black"/>
</svg>
