<svg width="117" height="92" viewBox="0 0 117 92" fill="none" xmlns="http://www.w3.org/2000/svg">
<path d="M17.7343 63.159C20.0159 62.9011 22.219 62.4863 24.4333 62.4358C27.4717 62.3629 30.4653 63.0637 32.9543 64.8015C36.1441 67.0271 39.6814 67.6998 43.3982 68.0193C45.2201 68.1763 47.0308 68.4341 48.8471 68.6752C52.2275 69.1237 54.3129 70.5644 56.3422 73.8663C56.6282 73.7822 56.9421 73.7093 57.2448 73.6028C60.6532 72.3751 64.056 71.1138 67.4756 69.9197C70.9513 68.7088 74.7185 70.1776 76.4171 73.3337C77.1627 74.724 76.9048 75.6602 75.5033 76.3889C67.0496 80.7952 58.6631 85.3304 50.1085 89.5404C45.8816 91.6202 41.3128 91.396 36.9065 89.7423C31.7266 87.8026 26.5748 85.8013 21.4342 83.7495C19.1021 82.8189 17.2241 84.0074 15.2508 84.8315C15.0714 84.9043 15.0154 85.3416 14.9593 85.6219C14.7295 86.8496 14.0904 87.4606 12.8907 87.3317C9.25249 86.9337 5.61985 86.4908 1.99842 86.0087C0.826784 85.8517 0.361492 84.9604 0.535275 83.5309C0.95572 80.0496 1.38738 76.5627 1.81903 73.0815C2.32917 68.9331 2.84492 64.7791 3.34945 60.6307C3.55126 58.9882 4.26321 58.422 5.91136 58.6294C9.02264 59.0162 12.1339 59.403 15.2508 59.7842C17.6782 60.0813 17.9977 60.4737 17.7679 62.8506C17.7511 62.9964 17.7343 63.1478 17.7343 63.159ZM72.2967 73.9672C71.0578 72.9749 69.8021 72.8852 68.4567 73.3674C65.0819 74.5838 61.7183 75.8284 58.3324 77.0056C57.5251 77.2859 57.1439 77.6166 57.1439 78.5472C57.1439 80.0384 56.2974 80.6943 54.823 80.5261C53.7467 80.4028 52.676 80.2626 51.5996 80.1337C47.3784 79.6124 43.1515 79.1078 38.9359 78.5528C37.7474 78.3959 37.1364 77.5718 37.2877 76.5627C37.4447 75.5144 38.1903 74.937 39.3899 75.0379C40.5055 75.1332 41.6155 75.3014 42.7255 75.4359C46.2684 75.8676 49.8113 76.2993 53.3767 76.7309C53.1132 74.5838 51.3025 72.7115 49.0938 72.3695C46.9187 72.0331 44.7324 71.736 42.5405 71.5454C38.5098 71.1979 34.765 70.2392 31.2557 67.9969C27.1522 65.3733 22.645 65.3957 18.1323 67.1784C17.4203 67.4587 17.0952 67.8904 17.0167 68.6472C16.7925 70.7998 16.5009 72.9469 16.2431 75.094C16.0244 76.9271 15.817 78.7603 15.5984 80.6438C19.5394 79.6628 20.5204 79.5955 22.5161 80.3635C27.6063 82.32 32.674 84.3382 37.7754 86.2722C41.7949 87.8026 45.7807 87.8362 49.688 85.7957C56.8748 82.0341 64.0728 78.3062 71.2652 74.5558C71.5904 74.3876 71.8987 74.197 72.3023 73.9672H72.2967ZM6.75785 62.3517C5.91696 69.2134 5.0985 75.9068 4.26882 82.6956C6.76906 82.9983 9.15158 83.2842 11.6014 83.5757C12.4423 76.7085 13.2607 70.015 14.0848 63.2431C11.6238 62.9403 9.2637 62.6544 6.75785 62.3461V62.3517Z" fill="#0E2B72"/>
<path d="M99.2051 27.634C98.8576 27.7181 98.5773 27.7741 98.297 27.8526C92.9826 29.3662 87.8644 28.8785 83.2507 25.8121C80.2852 23.8388 77.0281 23.4408 73.6926 23.0484C71.8034 22.8241 69.9086 22.6167 68.0194 22.37C64.667 21.9328 62.1892 20.2118 60.5691 17.1285C58.2034 17.9806 55.8545 18.8271 53.5057 19.6736C52.0649 20.1949 50.6354 20.7555 49.1779 21.2152C45.7975 22.2859 42.1144 20.7611 40.4775 17.6611C39.7711 16.3268 40.029 15.3851 41.3576 14.6899C49.8394 10.2612 58.2651 5.71484 66.8477 1.48797C70.9569 -0.53577 75.4416 -0.361987 79.7358 1.20767C84.9661 3.11929 90.146 5.15985 95.309 7.24525C97.6747 8.20387 99.6032 7.11071 101.61 6.24179C101.812 6.1521 101.89 5.67559 101.952 5.36727C102.182 4.17881 102.855 3.57337 104.065 3.70791C107.664 4.11154 111.258 4.5488 114.851 5.0197C116.045 5.17667 116.55 6.03998 116.382 7.44707C115.961 10.9676 115.518 14.4881 115.087 18.0086C114.577 22.157 114.066 26.311 113.562 30.4594C113.371 32.0178 112.626 32.6177 111.067 32.4271C107.917 32.0403 104.772 31.6422 101.621 31.2554C99.2724 30.9695 98.9361 30.5659 99.1435 28.2563C99.1603 28.0769 99.1771 27.8975 99.1995 27.634H99.2051ZM63.501 14.3143C63.9271 16.5959 65.6705 18.3506 67.8905 18.6869C70.0656 19.0233 72.2519 19.326 74.4438 19.511C78.48 19.853 82.2136 20.8564 85.7173 23.082C89.7872 25.6663 94.2663 25.6383 98.7399 23.8892C99.5023 23.5921 99.8274 23.1437 99.9115 22.3364C100.119 20.2566 100.405 18.188 100.657 16.1082C100.881 14.2358 101.1 12.3579 101.335 10.3565C100.909 10.4911 100.629 10.5584 100.36 10.6593C98.353 11.4273 96.3405 11.4273 94.3392 10.6593C89.249 8.69719 84.1757 6.69027 79.0855 4.7394C75.4136 3.33232 71.6464 3.08005 68.0923 4.86274C60.5075 8.66355 53.0235 12.6606 45.5004 16.5791C45.2201 16.7249 44.9566 16.9043 44.6259 17.1061C45.904 18.0871 47.1822 18.1488 48.5332 17.6555C51.9024 16.4334 55.2659 15.1776 58.6575 14.0228C59.4704 13.7425 59.7338 13.3557 59.7563 12.5372C59.8011 10.9732 60.614 10.3453 62.1612 10.5359C65.0482 10.8891 67.9409 11.2311 70.8336 11.5842C73.2441 11.8814 75.6547 12.1504 78.054 12.5148C79.433 12.7222 80.0385 13.9275 79.4499 15.0767C78.9229 16.1082 77.9979 16.0914 77.0281 15.9737C72.549 15.4187 68.0698 14.8693 63.501 14.3087V14.3143ZM105.321 7.4751C104.486 14.3199 103.667 21.0134 102.832 27.8078C105.304 28.1049 107.687 28.3964 110.165 28.6991C111 21.8375 111.824 15.116 112.648 8.37204C110.148 8.06932 107.816 7.78342 105.321 7.4807V7.4751Z" fill="#0E2B72"/>
<path d="M64.4652 25.7617C75.5257 29.1533 81.5745 40.6342 78.1549 51.7451C74.8306 62.5477 63.2599 68.6077 52.3396 65.2554C41.4978 61.9311 35.3537 50.338 38.6892 39.513C42.0696 28.5422 53.5561 22.4149 64.4596 25.7617H64.4652ZM63.4506 29.1981C54.5147 26.44 44.9454 31.4741 42.1873 40.3707C39.3675 49.4803 44.3456 59.0272 53.3655 61.8134C62.4639 64.6219 71.9772 59.6215 74.7633 50.5679C77.5607 41.4975 72.5321 32.0011 63.4506 29.1981Z" fill="#FFB400"/>
<path d="M62.7946 40.0622C62.9964 40.6452 63.1534 41.0881 63.344 41.6207C63.899 41.6543 64.4932 41.6655 65.0874 41.7384C65.9732 41.8449 66.5562 42.5288 66.5057 43.3361C66.4553 44.1489 65.7882 44.7488 64.8968 44.7432C64.3306 44.7432 63.7644 44.6759 63.1478 44.6366C62.1948 47.2266 60.3616 48.7178 57.4634 49.0429C58.9265 50.6238 60.2719 52.0813 61.6174 53.5445C61.8528 53.8023 62.1163 54.0378 62.3069 54.3293C62.7554 55.0188 62.7442 55.7308 62.1331 56.3082C61.5277 56.8912 60.8269 56.8688 60.1486 56.3867C59.9973 56.2801 59.8683 56.1344 59.7394 55.9942C57.4522 53.5445 55.1706 51.0891 52.8833 48.6393C52.3564 48.0731 51.9976 47.4732 52.3732 46.6828C52.76 45.8643 53.4551 45.7186 54.2792 45.7915C55.221 45.8756 56.1684 45.9372 57.1158 45.9652C58.2314 45.9933 59.1339 45.5728 59.8459 44.4404C58.5958 44.362 57.4522 44.2891 56.3142 44.2162C55.591 44.1713 54.8622 44.1377 54.1391 44.076C53.1076 43.9864 52.4741 43.3473 52.5246 42.4671C52.575 41.587 53.2814 40.9984 54.3128 41.0545C56.1684 41.1554 58.0184 41.2843 60.0085 41.4076C59.4198 40.2696 58.5341 39.838 57.4634 39.7371C56.4599 39.6362 55.4452 39.6137 54.4362 39.5296C53.4047 39.4456 52.7712 38.8009 52.8161 37.9207C52.8609 37.0406 53.5729 36.4464 54.5988 36.508C58.1305 36.7155 61.6678 36.9397 65.1996 37.1808C66.2254 37.248 66.8589 37.932 66.7916 38.8065C66.7244 39.6866 66.018 40.236 64.9809 40.1967C64.2858 40.1687 63.5963 40.1127 62.8002 40.0622H62.7946Z" fill="#FFB400"/>
</svg>
