<svg width="102" height="101" viewBox="0 0 102 101" fill="none" xmlns="http://www.w3.org/2000/svg">
<path d="M0.509814 35.7221C0.745111 35.3299 0.936292 34.9084 1.21571 34.5554C2.27455 33.2024 3.94124 33.0015 5.65695 34.0211C12.7747 38.2663 19.8876 42.5163 27.0004 46.7664C28.5298 47.6782 30.0593 48.5997 31.5985 49.5017C33.3044 50.5017 34.2554 51.9233 34.226 53.9528C34.226 54.1979 34.3633 54.5459 34.5495 54.6783C36.0692 55.7273 37.7114 56.1391 39.5153 55.4626C40.4418 55.1145 41.383 54.7959 42.28 54.389C45.0938 53.1292 47.785 53.3596 50.4321 54.894C50.8537 55.1391 51.4959 55.1979 51.9812 55.0949C53.6234 54.7469 55.2459 54.2959 56.8734 53.8645C58.4617 53.443 60.0058 53.5361 61.5303 54.1586C62.6284 54.6047 63.7363 55.0361 64.849 55.4528C66.0353 55.8989 67.2265 55.9332 68.4814 55.3989C68.4226 55.1047 68.3638 54.8253 68.3197 54.541C68.001 52.5214 68.8491 50.7419 70.7315 49.6145C77.6973 45.4428 84.6729 41.281 91.6485 37.1192C93.4034 36.0701 95.1534 35.0064 96.9181 33.9721C99.4574 32.4867 101.977 33.923 101.977 36.8692C101.987 46.5997 101.977 56.3303 101.977 66.0608C101.977 68.4383 100.997 70.2667 98.9525 71.4972C98.1044 72.007 97.2662 72.5364 96.3985 73.0168C95.5309 73.5021 94.6828 73.2815 94.2563 72.5168C93.8495 71.7913 94.0701 70.9971 94.8789 70.4824C95.7417 69.9334 96.6338 69.4285 97.5064 68.8942C98.4868 68.2961 99.0015 67.4187 99.0015 66.2667C99.0015 56.5018 99.0015 46.7419 99.0015 36.977C99.0015 36.7907 98.9623 36.6094 98.9231 36.3054C98.5505 36.4966 98.2613 36.629 97.9868 36.7907C89.5945 41.8006 81.2071 46.8056 72.8148 51.8204C70.9521 52.9331 70.8099 53.5165 71.9276 55.394C75.8002 61.8941 79.6679 68.3991 83.5405 74.8992C84.2807 76.1394 84.9915 76.3355 86.2317 75.6198C87.0307 75.159 87.8151 74.659 88.619 74.208C89.4867 73.7227 90.3445 73.8991 90.7808 74.6246C91.2269 75.3649 90.9965 76.2129 90.1484 76.7423C89.1974 77.3404 88.2366 77.9237 87.2464 78.4531C85.7268 79.2669 84.1189 79.3061 82.7366 78.3159C81.7316 77.5953 81.1091 77.8551 80.3493 78.5806C81.8101 80.664 82.0993 82.8601 80.5748 85.017C79.0453 87.1788 76.8737 87.6101 74.3345 86.914C74.0354 88.4778 73.3835 89.8161 72.055 90.718C70.7609 91.5955 69.3393 91.87 67.7314 91.4876C67.4275 93.4141 66.5941 94.9681 64.8343 95.8652C63.1088 96.7475 61.398 96.6005 59.7068 95.7132C59.5254 96.2622 59.4029 96.772 59.2019 97.2475C57.996 100.052 54.6969 101.223 51.9812 99.7819C50.7851 99.1495 49.6576 98.3946 48.4713 97.7426C48.2262 97.6103 47.7507 97.5711 47.5546 97.7181C44.1526 100.326 40.9957 99.7084 38.8045 95.9142C37.2702 96.4436 35.7309 96.4926 34.2456 95.6936C32.7505 94.8897 31.9073 93.6102 31.5348 92.0024C27.4808 91.5073 26.5102 90.8063 25.3975 87.5611C22.6082 87.7131 20.5101 86.6395 19.5591 83.8797C18.613 81.1444 20.2993 79.1688 21.814 77.1639C21.7258 77.0953 21.6376 77.0315 21.5542 76.9629C21.3288 77.1149 21.0739 77.2325 20.8876 77.4237C19.167 79.1982 17.0101 79.5218 14.8581 78.2522C11.0786 76.0217 7.32364 73.7374 3.53927 71.5119C1.89218 70.5413 0.995106 69.0755 0.5 67.2912C0.5 56.7665 0.5 46.2419 0.5 35.7172L0.509814 35.7221ZM49.6772 94.973C50.8733 95.6838 51.9959 96.3799 53.1381 97.027C54.3685 97.723 55.6871 97.4289 56.344 96.3505C57.0254 95.2328 56.6528 93.8994 55.4077 93.1249C54.4273 92.5122 53.4077 91.9632 52.4469 91.3308C51.741 90.8651 51.6037 90.1494 51.991 89.4141C52.393 88.6494 53.0793 88.5023 53.8587 88.7719C54.1332 88.87 54.3832 89.0464 54.6381 89.1984C56.795 90.4778 58.9421 91.7769 61.1088 93.0367C62.3931 93.7867 63.7167 93.4926 64.3882 92.3651C65.0696 91.2229 64.702 89.9386 63.4225 89.1592C61.8735 88.2131 60.3048 87.3013 58.7411 86.3748C57.8048 85.8209 56.8587 85.2817 55.9322 84.7032C55.0548 84.1591 54.8145 83.365 55.241 82.6052C55.6822 81.8257 56.5352 81.6542 57.4666 82.164C57.7558 82.3208 58.0352 82.4973 58.3195 82.664C61.3833 84.4826 64.4372 86.3258 67.5255 88.1052C68.0696 88.419 68.7608 88.6494 69.3736 88.6249C70.3393 88.5856 71.006 87.9533 71.2511 86.9876C71.5207 85.9238 71.1285 85.0219 70.0746 84.3944C66.8196 82.4434 63.55 80.5169 60.2852 78.5806C60.0009 78.4139 59.7068 78.2522 59.4519 78.0463C58.7999 77.5021 58.6823 76.8208 59.1087 76.1002C59.5254 75.4041 60.1921 75.2766 60.9225 75.5315C61.197 75.6296 61.4421 75.8109 61.7019 75.9629C66.0745 78.5561 70.4423 81.1542 74.8149 83.7424C76.2267 84.5807 77.5747 84.3356 78.2708 83.1542C78.9718 81.9679 78.5257 80.6787 77.1139 79.8404C71.3246 76.4041 65.5353 72.9678 59.746 69.5314C58.6528 68.8844 57.5548 68.252 56.4273 67.5902C56.3097 67.8157 56.2459 67.9285 56.192 68.0461C56.1185 68.1932 56.0646 68.35 55.9861 68.4971C54.7606 70.8011 52.8733 72.1246 50.2508 72.3305C48.0252 72.507 46.5007 71.105 46.486 68.8648C46.4713 66.5804 46.4811 64.301 46.486 62.0166C46.486 60.4823 46.9419 59.0901 47.8439 57.845C47.986 57.6489 48.1135 57.4381 48.2507 57.2322C46.7654 56.4332 45.736 56.3352 44.1918 56.8842C42.981 57.3156 41.7899 57.8058 40.584 58.2469C38.2114 59.1195 35.9221 58.9136 33.7211 57.6783C33.4711 57.5411 33.2162 57.4185 32.9073 57.2616C29.5249 62.9823 26.1867 68.6295 22.868 74.2472C23.4709 74.8894 23.9857 74.8501 24.7063 74.5756C25.4759 74.2815 26.3778 74.1933 27.2112 74.2227C29.0298 74.2962 30.2995 75.3796 31.2848 76.8257C34.4809 73.8991 39.1574 75.2031 40.3192 79.5708C44.4271 79.36 47.2066 82.4728 46.1478 86.7474C50.1135 87.8405 51.4812 91.4975 49.6674 94.9779L49.6772 94.973ZM3.54417 36.2564C3.50986 36.6241 3.48535 36.7858 3.48535 36.9476C3.48535 46.7076 3.48535 56.4675 3.48535 66.2275C3.48535 67.5167 4.11281 68.3942 5.19616 69.0363C8.82857 71.1883 12.4512 73.3648 16.0836 75.5266C17.5346 76.3894 18.265 76.1933 19.1522 74.6982C23.0052 68.1883 26.8533 61.6735 30.7014 55.1636C31.6279 53.5949 31.4417 52.889 29.8583 51.9429C21.5003 46.9478 13.1473 41.9526 4.78928 36.9574C4.43143 36.7417 4.05887 36.5456 3.55396 36.2613L3.54417 36.2564ZM70.0256 58.0116C67.5304 59.1146 65.202 58.9136 62.8882 57.9038C62.1627 57.5852 61.4127 57.3303 60.6872 57.0165C59.6137 56.5557 58.5303 56.492 57.3979 56.8008C55.8391 57.2224 54.2655 57.5901 52.7018 58.0018C50.6331 58.5509 49.4811 60.0411 49.4664 62.1931C49.4517 64.1784 49.4664 66.1637 49.4664 68.1491C49.4664 69.4285 49.687 69.6148 50.9076 69.2128C51.3978 69.051 51.8831 68.7863 52.29 68.4726C53.2949 67.6932 53.6773 66.5951 53.7655 65.35C53.8783 63.7666 54.9028 63.247 56.295 64.0313C56.7264 64.2765 57.1479 64.5314 57.5744 64.7814C64.0451 68.6246 70.5158 72.4677 76.9963 76.2962C77.2512 76.4482 77.6629 76.6149 77.8639 76.5119C78.6385 76.1149 79.364 75.61 80.1434 75.1198C76.7512 69.3893 73.408 63.7323 70.0256 58.0166V58.0116ZM30.476 89.1641C31.1671 88.8503 31.6181 88.6641 32.0446 88.4386C32.2113 88.3503 32.3436 88.1788 32.4564 88.017C33.9466 85.9533 35.4515 83.8993 36.9025 81.8061C37.6721 80.6934 37.4172 79.3747 36.3976 78.6443C35.4025 77.9335 34.0838 78.0855 33.3142 79.1247C31.7603 81.2228 30.2456 83.3503 28.7553 85.4925C28.2406 86.2278 28.1867 87.1297 28.7308 87.8209C29.1818 88.3896 29.9073 88.7376 30.4809 89.1592L30.476 89.1641ZM36.8192 93.4632C37.3241 93.1887 37.9859 93.0367 38.3045 92.62C39.9712 90.4141 41.5938 88.169 43.1428 85.8797C43.785 84.9238 43.3781 83.6444 42.4467 82.9973C41.53 82.365 40.2604 82.4042 39.579 83.3013C37.9074 85.5023 36.2604 87.7327 34.7603 90.0563C33.8289 91.4975 35.0349 93.3357 36.8192 93.4632ZM28.8926 79.0463C28.8828 78.3943 28.4367 77.6933 27.5739 77.3159C26.6769 76.9237 25.7406 77.0168 25.118 77.7718C24.1719 78.9139 23.3092 80.1345 22.5347 81.3993C22.0199 82.2375 22.2454 83.1493 22.9219 83.865C23.5641 84.5513 24.3729 84.7572 25.2749 84.4483C26.3386 84.0856 28.9024 80.463 28.8926 79.0463ZM47.5252 92.1641C47.4566 90.9533 46.9811 90.2572 46.0546 89.8945C45.1183 89.5317 44.2654 89.7474 43.6281 90.4876C43.0055 91.2131 42.4516 92.0024 41.9369 92.8063C41.231 93.9044 41.481 95.174 42.4712 95.8848C43.4614 96.5956 44.7654 96.424 45.5644 95.424C46.1232 94.7279 46.6429 93.9975 47.1135 93.2426C47.3488 92.8651 47.437 92.3994 47.5203 92.1592L47.5252 92.1641Z" fill="#0E2B72"/>
<path d="M41.7506 23.6781C41.5742 24.8938 42.1085 26.6242 40.2751 26.6879C38.231 26.7614 38.8682 24.8938 38.6722 23.6192C36.0986 23.7467 33.7799 23.1731 31.5936 21.3447C31.5936 22.3692 31.6279 23.1977 31.5838 24.0212C31.525 25.1094 30.6475 25.8104 29.7259 25.531C29.02 25.3153 28.6279 24.8202 28.6279 24.0604C28.6279 20.1878 28.574 16.3152 28.6622 12.4475C28.7259 9.68274 31.1868 7.4033 34.0054 7.32977C35.3927 7.29055 36.78 7.31506 38.1673 7.31506C39.5153 7.31506 40.8683 7.31506 42.3977 7.31506C42.3977 6.61897 42.3928 5.9719 42.3977 5.32974C42.4369 2.04537 44.4566 0.0257357 47.7409 0.0110296C50.0841 -0.00367653 52.4322 -0.00367653 54.7754 0.0110296C58.0058 0.0306377 60.0303 2.04047 60.0842 5.27091C60.0941 5.89837 60.0842 6.52093 60.0842 7.31506C60.496 7.31506 60.8392 7.31506 61.1823 7.31506C63.4961 7.31506 65.8049 7.30036 68.1187 7.31506C71.4864 7.34447 73.8443 9.69255 73.8541 13.0799C73.8737 19.6976 73.8688 26.3154 73.8541 32.9331C73.8492 36.5263 71.506 38.8351 67.8442 38.845C61.0402 38.8597 54.2361 38.8499 47.437 38.8499C43.3095 38.8499 39.1771 38.7518 35.0545 38.8793C30.9907 39.0018 28.2994 36.1537 28.6181 32.4576C28.6573 31.9968 28.6083 31.5311 28.6328 31.0703C28.6818 30.2076 29.2701 29.6046 30.0495 29.585C30.8289 29.5605 31.4907 30.1291 31.5691 30.987C31.6328 31.6782 31.5838 32.3743 31.5985 33.0704C31.6328 34.7174 32.5691 35.7175 34.2015 35.8645C34.4319 35.8841 34.6623 35.8792 34.8927 35.8792C45.7899 35.8792 56.6872 35.8792 67.5844 35.8792C68.604 35.8792 69.6187 35.7959 70.2511 34.889C70.5746 34.4282 70.8442 33.8155 70.8491 33.2664C70.903 29.4625 70.8785 25.6585 70.8736 21.8496C70.8736 21.7614 70.8295 21.6731 70.7707 21.4574C68.7364 23.1535 66.4079 23.7761 63.8196 23.6192C63.599 24.8938 64.251 26.7663 62.2019 26.6928C60.3735 26.6242 60.8882 24.9036 60.746 23.683H41.7359L41.7506 23.6781ZM63.8245 20.5359C67.1824 21.031 70.0746 19.0947 70.756 15.8985C70.9129 15.1681 70.8834 14.3887 70.8884 13.6289C70.8982 11.1779 70.006 10.2906 67.5648 10.2906C56.6773 10.2906 45.785 10.2906 34.8976 10.2906C34.6672 10.2906 34.4368 10.2906 34.2064 10.2955C32.6966 10.3641 31.677 11.369 31.6132 12.8691C31.5838 13.5603 31.5887 14.2563 31.6132 14.9524C31.7407 18.5505 35.0643 21.1829 38.6869 20.5113C38.8781 19.379 38.2359 17.5652 40.1967 17.575C42.1134 17.5848 41.5693 19.3643 41.7457 20.5751H60.7215C60.9764 18.0848 61.2901 17.4966 62.3196 17.5162C63.3392 17.5358 63.6235 18.0995 63.8245 20.5359ZM57.0989 7.26604C57.0989 6.4425 57.1479 5.65817 57.0891 4.88365C57.0009 3.75618 56.2999 3.02578 55.1724 3.00617C52.54 2.96205 49.9027 2.96696 47.2654 3.00617C46.4076 3.02088 45.6772 3.48167 45.5203 4.34933C45.3487 5.29542 45.3978 6.28073 45.3536 7.26604H57.1038H57.0989Z" fill="#FFB400"/>
</svg>
