<svg width="96" height="96" viewBox="0 0 96 96" fill="none" xmlns="http://www.w3.org/2000/svg">
<g clip-path="url(#clip0_89_313)">
<path d="M29.3921 0V3.0823H3.11711V29.3921H0V0H29.3921Z" fill="#0E2B72"/>
<path d="M79.4746 0C80.2616 0.547234 80.4608 1.29751 80.4588 2.24115C80.4298 10.937 80.4414 19.6308 80.4414 28.3266V29.3322H77.3765V3.14418H51.0493V0H79.4746Z" fill="#0E2B72"/>
<path d="M0 51.0493H3.0765V77.3417H29.3457V80.4414H28.3286C19.6328 80.4414 10.9389 80.4298 2.24308 80.4588C1.29944 80.4627 0.549168 80.2596 0.00193369 79.4746V51.0493H0Z" fill="#0E2B72"/>
<path d="M59.082 66.225C43.773 75.5377 25.898 71.0205 16.7207 58.3858C7.72514 46.0025 9.19668 28.7037 20.1955 18.0452C31.2833 7.29964 48.555 6.37147 60.7025 15.7286C73.401 25.5111 77.2471 44.9273 66.3933 59.3004C68.5088 61.4275 70.6146 63.5468 72.9911 65.9369C73.4184 65.407 73.8748 64.7457 74.4259 64.1733C75.4101 63.1524 76.1681 63.1504 77.1524 64.1327C82.5338 69.5065 87.9346 74.8628 93.2755 80.2771C95.8144 82.8528 96.5995 85.995 95.5495 89.4544C94.4976 92.9196 92.0882 95.0776 88.5399 95.7814C85.27 96.4292 82.4313 95.4431 80.0742 93.0859C75.5841 88.5959 71.096 84.1078 66.606 79.6177C65.7629 78.7746 64.9102 77.9412 64.0787 77.0865C63.1853 76.168 63.1834 75.412 64.0941 74.4954C64.6588 73.9269 65.2737 73.4067 65.7919 72.933C63.5005 70.6415 61.3232 68.4642 59.082 66.2211V66.225ZM70.5082 68.0291C68.2129 65.7416 65.9776 63.5178 63.7461 61.2902C62.2436 59.7916 62.2455 59.4648 63.5276 57.8057C68.3908 51.5096 70.4289 44.3782 69.348 36.51C67.1977 20.8761 52.9754 10.3607 37.3918 12.7333C26.3988 14.4079 17.264 22.8349 14.7038 33.6674C12.0682 44.819 16.3745 56.3458 25.6214 62.8971C35.1545 69.6515 47.8744 69.7965 57.8754 63.2684C59.4823 62.2184 59.8072 62.2551 61.1801 63.6261C63.253 65.699 65.3259 67.7719 67.4008 69.8429C67.6173 70.0576 67.8455 70.2606 68.0176 70.4211C68.8723 69.5993 69.6361 68.8664 70.5082 68.0291ZM67.3195 75.849C72.4516 81.0061 77.5584 86.1923 82.733 91.3069C84.0885 92.6469 85.8675 93.0704 87.7529 92.7127C90.1332 92.2602 91.7749 90.8621 92.5136 88.5494C93.2658 86.1923 92.6954 84.0788 90.9628 82.3326C86.0589 77.3959 81.13 72.4882 76.2068 67.5708C76.0792 67.4432 75.9129 67.3543 75.8491 67.3059C72.9814 70.1794 70.164 73.0006 67.3215 75.847L67.3195 75.849Z" fill="#0E2B72"/>
<path d="M41.6864 64.9721C27.9707 64.9237 16.9584 53.776 17.0183 39.9965C17.0763 26.4665 28.2782 15.4 41.843 15.4715C55.5722 15.5431 66.5904 26.6966 66.5189 40.449C66.4473 53.9907 55.2783 65.0204 41.6883 64.9721H41.6864ZM20.1103 40.1957C20.0967 52.086 29.7787 61.8453 41.6207 61.8782C53.6734 61.911 63.4056 52.231 63.4249 40.1918C63.4443 28.3383 53.7217 18.5867 41.8624 18.5635C29.8541 18.5403 20.1238 28.2165 20.1103 40.1957Z" fill="#0E2B72"/>
<path d="M41.7638 49.5102C38.4727 49.4812 35.4 48.6458 32.5885 46.9364C29.7575 45.2135 26.9518 43.448 24.1498 41.6807C22.9509 40.9246 22.8311 39.6464 23.9526 38.9367C27.1857 36.887 30.3434 34.6749 33.7467 32.95C39.7102 29.9277 45.6853 30.3531 51.411 33.8028C54.0292 35.3807 56.5991 37.034 59.1864 38.6641C60.7237 39.6309 60.7372 40.8337 59.2173 41.787C56.3535 43.5815 53.5033 45.3953 50.6047 47.1298C47.8956 48.7522 44.9177 49.4812 41.7638 49.5121V49.5102ZM43.8271 34.2572C49.3149 36.6434 49.2685 43.8367 43.8116 46.19C48.5743 45.6157 51.8886 42.4464 55.9455 40.2207C51.8519 38.0086 48.5588 34.8025 43.8271 34.2572ZM27.762 40.1395C31.2097 43.1793 37.0185 46.0779 39.6484 46.0779C37.0978 44.906 35.607 43.0072 35.607 40.2033C35.607 37.3917 37.1481 35.5122 39.6252 34.3075C34.9553 34.8393 31.6545 38.0144 27.762 40.1395ZM41.7774 43.3108C43.4519 43.3108 44.8539 41.9108 44.8577 40.2362C44.8616 38.5442 43.4964 37.1558 41.8064 37.1326C40.0834 37.1094 38.6603 38.5287 38.6796 40.2536C38.697 41.9378 40.0892 43.3108 41.7793 43.3108H41.7774Z" fill="#FFB400"/>
</g>
<defs>
<clipPath id="clip0_89_313">
<rect width="96" height="95.9807" fill="white"/>
</clipPath>
</defs>
</svg>
