<svg width="110" height="96" viewBox="0 0 110 96" fill="none" xmlns="http://www.w3.org/2000/svg">
<path d="M109.847 66.0148C109.603 67.1536 109.418 68.3103 109.096 69.4312C107.802 73.9149 105.191 77.4565 101.303 80.0263C100.665 80.4496 100.403 80.8789 100.409 81.654C100.451 85.0704 100.409 88.4868 100.433 91.9032C100.439 93.3044 99.9857 94.4372 98.6502 95.0275C97.249 95.6476 96.0923 95.1288 95.0847 94.1152C91.7637 90.7942 88.4248 87.4911 85.1336 84.1283C84.4717 83.4546 83.804 83.2221 82.8917 83.2221C70.9671 83.2459 59.0424 83.2221 47.1238 83.2459C42.4076 83.2578 38.1445 81.9938 34.43 79.0306C34.0961 78.7623 33.7622 78.4939 33.4701 78.1839C32.8202 77.5042 32.7784 76.6277 33.3329 75.9719C33.9172 75.2803 34.8235 75.1968 35.6224 75.7811C36.4572 76.3893 37.2382 77.0749 38.1087 77.6175C40.7441 79.2571 43.6298 79.9547 46.7362 79.9488C58.8397 79.9249 70.9373 79.9547 83.0408 79.919C84.7639 79.919 86.1054 80.4436 87.3039 81.6838C90.2254 84.7007 93.2304 87.6402 96.1996 90.6094C96.4441 90.8538 96.7064 91.0864 97.088 91.4441C97.1238 90.979 97.1655 90.675 97.1655 90.3769C97.1655 87.4195 97.2132 84.4682 97.1536 81.5109C97.1178 79.6983 97.8154 78.4105 99.3358 77.4148C104.058 74.3144 106.485 69.8605 106.574 64.244C106.669 58.2996 106.675 52.3551 106.574 46.4107C106.431 37.6163 99.4372 30.8013 90.6606 30.7954C75.9277 30.7835 61.1889 30.7835 46.456 30.7954C37.6258 30.8013 30.6558 37.7057 30.5843 46.5359C30.5366 52.4446 30.4829 58.3592 30.632 64.2619C30.6797 66.2473 31.2998 68.2268 31.7589 70.1884C32.0272 71.3332 31.7291 72.2037 30.7334 72.5018C29.8807 72.7582 29.1235 72.3587 28.7181 71.3869C27.6985 68.9542 27.2871 66.4083 27.2871 63.7849C27.2871 61.1555 27.2871 58.5202 27.2871 55.7954C25.8323 55.6881 24.5743 55.4913 23.3878 56.7673C20.8001 59.5576 18.0515 62.2049 15.3327 64.87C13.5142 66.6468 10.849 66.0506 10.2289 63.767C10.1216 63.3616 10.1216 62.9204 10.1216 62.497C10.1156 59.7186 10.0977 56.9461 10.1335 54.1677C10.1395 53.488 9.93081 53.0825 9.35246 52.689C3.50939 48.7658 0.552088 43.2626 0.516315 36.2271C0.486503 30.6046 0.50439 24.9762 0.516315 19.3537C0.534202 8.39495 8.89932 0.0178882 19.8581 0.00596359C34.4479 -0.00596105 49.0436 0.00596232 63.6334 0C66.0422 0 68.3735 0.393514 70.6213 1.26997C71.7422 1.71119 72.1834 2.58169 71.8018 3.52373C71.45 4.38231 70.5795 4.58503 69.4527 4.32865C67.5924 3.89936 65.7024 3.30313 63.8242 3.29716C49.0556 3.21369 34.2809 3.20773 19.5123 3.27331C12.2025 3.30313 6.0732 8.15049 4.29642 15.1741C3.96253 16.5037 3.79558 17.9108 3.78365 19.2881C3.72999 24.9463 3.72404 30.6106 3.77174 36.2688C3.81944 42.1894 6.2938 46.8281 11.2843 50.0596C12.6914 50.9719 13.4009 52.1763 13.3711 53.8755C13.3293 56.2247 13.3591 58.5738 13.3591 60.923C13.3591 61.2628 13.3591 61.5967 13.3591 61.9366C13.5082 62.0439 13.6573 62.1512 13.8063 62.2585C13.9971 61.9187 14.1164 61.5133 14.3787 61.245C16.6742 58.9137 19.0532 56.654 21.295 54.269C22.5709 52.9096 24.0078 52.2657 25.8383 52.4207C26.2556 52.4565 26.6849 52.4207 27.2871 52.4207C27.2871 51.7649 27.2871 51.1746 27.2871 50.5903C27.311 47.5018 27.15 44.4074 28.0265 41.3725C30.3577 33.3055 37.6437 27.6294 46.0386 27.5757C56.7529 27.5101 67.4672 27.5519 78.1755 27.5519C78.5929 27.5519 79.0103 27.5519 79.5051 27.5519C79.529 27.1107 79.5648 26.7649 79.5648 26.419C79.5648 24.1772 79.529 21.9354 79.5767 19.6935C79.6661 15.4066 78.3365 11.6563 75.4806 8.45457C74.9022 7.81064 74.5683 7.02958 75.1765 6.34987C75.5581 5.92655 76.3034 5.67017 76.8936 5.64632C77.2752 5.62843 77.7463 6.10542 78.0623 6.46316C81.3058 10.1479 82.85 14.4706 82.8619 19.3597C82.8619 21.673 82.8619 23.9864 82.8619 26.2998C82.8619 26.6814 82.8619 27.057 82.8619 27.5519C85.4853 27.5519 87.9657 27.5698 90.446 27.5519C93.1171 27.5221 95.6988 27.9454 98.1374 29.0305C104.607 31.9163 108.446 36.865 109.651 43.8529C109.698 44.1271 109.788 44.3954 109.853 44.6697V66.0327L109.847 66.0148Z" fill="#0E2B72"/>
<path d="M43.928 48.0323C46.5753 49.2426 47.5233 51.3593 47.41 54.1079C47.3325 55.9204 47.4577 57.7449 47.3146 59.5455C47.1119 62.0676 45.043 64.065 42.5984 64.2915C40.0644 64.53 37.7451 63.0514 36.976 60.6485C36.7732 60.0165 36.6838 59.3249 36.6719 58.6571C36.6301 56.8804 36.6421 55.0976 36.66 53.3209C36.6898 50.8823 37.7988 49.1413 40.0167 48.0681C40.3685 47.8951 40.6786 47.3764 40.774 46.965C42.2228 40.9669 46.8317 36.6264 52.8596 35.6187C60.4496 34.3547 67.7415 39.0411 69.6674 46.4702C69.9058 47.3824 70.2218 47.9667 71.14 48.4198C72.9705 49.3261 73.8708 50.9777 73.9304 53.0108C73.9841 55.0022 74.002 56.9996 73.9304 58.991C73.8469 61.3402 72.6783 62.9917 70.514 63.9696C70.0966 64.1604 69.6852 64.5837 69.4825 65.007C68.5524 66.9269 67.2168 68.4234 65.3387 69.4609C64.975 69.6636 64.6232 70.0273 64.4444 70.4029C63.5202 72.3287 61.9283 73.2767 59.8951 73.4675C57.695 73.6762 55.799 72.9905 54.5052 71.1065C53.3246 69.3893 53.6824 67.1534 55.2803 65.6986C57.4506 63.7311 61.1293 63.743 63.2936 65.7284C63.5262 65.9431 63.711 66.2114 64.0568 66.6168C64.9094 65.7165 65.6666 64.9176 66.5073 64.0232C66.084 63.737 65.8276 63.5641 65.5772 63.3853C64.1701 62.3717 63.3056 61.0242 63.2638 59.2653C63.2161 57.095 63.1863 54.9247 63.2638 52.7544C63.3413 50.5007 64.6232 49.0101 66.5908 48.0621C66.3523 43.5725 61.3201 39.059 56.1627 38.6893C50.3077 38.272 45.0609 42.2369 43.934 48.0263L43.928 48.0323ZM70.6631 56.0695C70.6631 55.1096 70.6988 54.1496 70.6571 53.1897C70.5975 51.8243 69.7628 50.9956 68.5345 51.0134C67.3242 51.0313 66.5014 51.9018 66.4894 53.2553C66.4716 55.1036 66.4716 56.9579 66.4894 58.8062C66.5073 60.1239 67.3778 61.054 68.5464 61.0659C69.715 61.0778 70.5915 60.1835 70.6511 58.842C70.6929 57.9178 70.6571 56.9936 70.6571 56.0695H70.6631ZM44.1009 56.1172C44.1009 55.193 44.1009 54.2689 44.1009 53.3447C44.1009 53.2732 44.1009 53.2016 44.1009 53.1301C44.0353 51.8541 43.2245 51.0194 42.0439 51.0075C40.8574 51.0015 39.9929 51.8243 39.969 53.1003C39.9273 55.0559 39.9273 57.0115 39.969 58.9672C39.9929 60.2133 40.929 61.0898 42.0678 61.0659C43.2125 61.0421 44.0592 60.1537 44.095 58.8956C44.1248 57.9715 44.095 57.0473 44.095 56.1231L44.1009 56.1172ZM59.3585 67.5052C58.172 67.4754 57.1286 68.0836 57.0928 68.8289C57.057 69.6099 58.178 70.3075 59.3764 70.2598C60.4734 70.2121 61.3976 69.6099 61.4274 68.9183C61.4632 68.179 60.5211 67.535 59.3585 67.5112V67.5052Z" fill="#FFB400"/>
<path d="M84.6864 41.4142C86.7494 41.4142 88.8124 41.4023 90.8813 41.4142C92.1155 41.4261 92.8131 42.0462 92.7892 43.0658C92.7654 44.0376 92.0797 44.6458 90.9111 44.6517C86.7494 44.6637 82.5817 44.6637 78.42 44.6517C77.2812 44.6517 76.5598 43.9959 76.5479 43.0419C76.536 42.0939 77.2574 41.4261 78.3902 41.4142C80.489 41.3963 82.5877 41.4142 84.6864 41.4082V41.4142Z" fill="#0E2B72"/>
<path d="M83.3091 48.7123C84.7997 48.7123 86.2903 48.7123 87.7809 48.7123C89.0985 48.7183 89.814 49.3086 89.8021 50.3579C89.7902 51.3775 89.1164 51.9439 87.8464 51.9499C84.7222 51.9618 81.6039 51.9618 78.4796 51.9499C77.2753 51.9499 76.53 51.294 76.5419 50.3162C76.5538 49.3324 77.2991 48.7183 78.5154 48.7123C80.1133 48.7004 81.7112 48.7123 83.3032 48.7123H83.3091Z" fill="#0E2B72"/>
<path d="M26.3511 21.4581C26.3034 22.8115 25.2004 23.8192 23.8171 23.7595C22.5114 23.7059 21.4858 22.6148 21.5156 21.315C21.5455 19.9616 22.6425 18.9241 24.0139 18.9599C25.3733 18.9957 26.4048 20.0868 26.3571 21.4581H26.3511Z" fill="#FFB400"/>
<path d="M16.5609 23.7596C15.1896 23.7596 14.1462 22.6864 14.164 21.321C14.1819 19.9616 15.2671 18.9242 16.6384 18.954C17.9501 18.9838 18.9935 20.0332 18.9995 21.3449C19.0114 22.6983 17.9322 23.7656 16.5609 23.7656V23.7596Z" fill="#FFB400"/>
<path d="M33.6787 21.3752C33.6727 22.7465 32.6114 23.778 31.2282 23.7601C29.8568 23.7422 28.8373 22.675 28.8671 21.2917C28.8969 19.9681 29.9224 18.9604 31.258 18.9604C32.6353 18.9604 33.6846 20.0039 33.6727 21.3812L33.6787 21.3752Z" fill="#FFB400"/>
</svg>
