<svg width="16" height="17" viewBox="0 0 16 17" fill="none" xmlns="http://www.w3.org/2000/svg">
<path d="M3.55837 0.5H3.85045C4.41816 0.736706 4.30332 1.22932 4.30809 1.67769H11.6965C11.6965 1.47271 11.703 1.27566 11.6948 1.07945C11.6874 0.902024 11.752 0.763007 11.8872 0.64528C11.9314 0.606873 12.0029 0.578485 11.9925 0.5H12.4467C13.0373 0.724599 12.9182 1.22515 12.926 1.68645C13.1743 1.68645 13.4105 1.68103 13.6467 1.6877C13.9734 1.69731 14.2997 1.72027 14.6066 1.84426C15.1266 2.05466 15.5171 2.39073 15.7649 2.89002C15.9439 3.25072 15.9985 3.62644 15.9985 4.0151C16.0003 6.99919 16.0007 9.98285 15.9985 12.9669C15.9985 13.4454 16.0063 13.9234 15.9855 14.4022C15.9556 15.0864 15.6804 15.6454 15.1175 16.0629C14.786 16.3088 14.4124 16.4954 13.9869 16.4958C9.98646 16.5021 5.98607 16.4996 1.98612 16.4992C1.82231 16.4992 1.66283 16.4633 1.51332 16.404C1.18006 16.2716 0.874538 16.1059 0.615386 15.8483C0.379636 15.6133 0.219724 15.3519 0.11355 15.0484C0.0156095 14.7692 -0.000424955 14.4861 8.40974e-06 14.1918C0.00780897 10.7602 0.00477542 7.32815 0.00564215 3.89654C0.00564215 3.76462 -0.00562533 3.63562 0.0160429 3.49995C0.110516 2.90505 0.416905 2.44583 0.910941 2.08889C1.31267 1.79875 1.7716 1.69814 2.26001 1.6877C2.52869 1.68186 2.79781 1.68687 3.07863 1.68687C3.07863 1.49191 3.07646 1.31073 3.07993 1.12996C3.08166 1.05023 3.0704 0.972577 3.10767 0.890753C3.19824 0.691619 3.35598 0.57431 3.5588 0.500835L3.55837 0.5ZM1.2338 6.72867V6.90609C1.2338 9.3174 1.2338 11.7287 1.2338 14.1404C1.2338 14.1872 1.2403 14.2352 1.23206 14.2807C1.20476 14.4264 1.2351 14.5613 1.2858 14.6986C1.41841 15.0564 1.7716 15.3114 2.16033 15.3119C5.26366 15.3131 8.36698 15.3131 11.4703 15.3135C12.2543 15.3135 13.0382 15.3194 13.8222 15.3102C14.1676 15.306 14.4258 15.134 14.6174 14.8593C14.7725 14.6372 14.7673 14.3826 14.7678 14.1371C14.7734 11.7258 14.7712 9.31448 14.7704 6.90317C14.7704 6.84723 14.786 6.78795 14.7409 6.72908H1.2338V6.72867ZM14.7725 5.52969C14.7595 4.92728 14.7903 4.34115 14.7509 3.7546C14.7283 3.41687 14.5658 3.16138 14.2633 3.00316C13.8408 2.78231 13.3793 2.90296 12.9264 2.8704C12.9264 3.06244 12.9299 3.23402 12.9255 3.40518C12.919 3.64731 12.8306 3.85563 12.607 3.98338C12.3951 4.10444 12.1737 4.09735 11.9665 3.96835C11.7914 3.85897 11.6814 3.71286 11.6948 3.4941C11.7069 3.29288 11.6974 3.09082 11.6974 2.88376H4.30895C4.30895 3.06494 4.30765 3.23569 4.30895 3.40643C4.31155 3.66359 4.20451 3.86523 3.9692 3.98713C3.78632 4.0819 3.58263 4.11196 3.40062 3.99715C3.22251 3.88485 3.073 3.74041 3.0795 3.50537C3.08513 3.29872 3.0808 3.09208 3.0808 2.86998C2.6964 2.89253 2.32631 2.83199 1.96012 2.90714C1.48212 3.00524 1.2273 3.42564 1.2247 3.78049C1.2208 4.29523 1.22946 4.81039 1.23466 5.32555C1.23553 5.39192 1.2195 5.45997 1.2507 5.53011H14.7725V5.52969Z" fill="#0E2B72"/>
</svg>
