<svg width="13" height="13" viewBox="0 0 13 13" fill="none" xmlns="http://www.w3.org/2000/svg">
<path d="M3.55365 0C3.7873 0.0534204 4.00527 0.138639 4.17447 0.317131C4.36572 0.519365 4.46283 0.760181 4.47046 1.03873C4.48531 1.61024 4.53492 2.17837 4.67104 2.73547C4.72787 2.96907 4.79996 3.19929 4.85805 3.43248C4.94414 3.78056 4.8589 4.08751 4.63924 4.36988C4.27328 4.84049 3.91707 5.31873 3.56043 5.79654C3.54008 5.8241 3.53796 5.886 3.55449 5.91737C4.20076 7.13205 5.05058 8.16782 6.21759 8.92079C6.4945 9.09928 6.78116 9.26251 7.06062 9.43676C7.12593 9.47746 7.16918 9.46856 7.22812 9.4232C7.71113 9.05264 8.1954 8.68294 8.68265 8.31833C8.94133 8.12457 9.23732 8.07285 9.54943 8.14323C9.92387 8.22802 10.292 8.34673 10.6694 8.41245C11.0345 8.47604 11.4085 8.52098 11.7783 8.52056C12.3728 8.51971 12.8562 8.77664 13 9.44482V12.0853C12.9941 12.0963 12.9847 12.1069 12.983 12.1184C12.9084 12.6178 12.4687 13.0096 11.8936 12.9998C11.0497 12.9854 10.2144 12.901 9.38956 12.7192C7.89899 12.3906 6.52037 11.7987 5.25921 10.941C3.70122 9.88109 2.45491 8.53031 1.53046 6.88785C0.51441 5.08173 0.0135957 3.13824 2.58244e-05 1.06798C-0.00167041 0.806394 0.0801731 0.571514 0.251917 0.368007C0.427054 0.160685 0.657742 0.060204 0.912602 0H3.55365Z" fill="#0E2B72"/>
</svg>
