<svg width="136" height="131" viewBox="0 0 136 131" fill="none" xmlns="http://www.w3.org/2000/svg">
<g clip-path="url(#clip0_484_4005)">
<path d="M124.988 59.9174H114.441V56.6305C114.441 31.2025 93.7008 10.5183 68.2037 10.5183C42.7066 10.5183 21.9609 31.2025 21.9609 56.6305V59.9174H11.4141V56.6305C11.4141 25.4069 36.8848 0 68.1984 0C99.5121 0 124.983 25.4069 124.983 56.6305V59.9174H124.988Z" fill="#0E2B72"/>
<path d="M68.1984 0C36.8848 0 11.4141 25.4069 11.4141 56.6305V59.9174C11.6303 28.8727 37.0166 3.6814 68.1984 3.6814C99.3803 3.6814 124.767 28.8727 124.983 59.9174V56.6305C124.988 25.4069 99.5121 0 68.1984 0Z" fill="#1D49A0"/>
<path d="M126.479 54.6583H112.953C111.672 54.6583 110.633 55.6943 110.633 56.9723V96.6315C110.633 97.9095 111.672 98.9455 112.953 98.9455H126.479C127.761 98.9455 128.8 97.9095 128.8 96.6315V56.9723C128.8 55.6943 127.761 54.6583 126.479 54.6583Z" fill="#FFB400"/>
<path d="M128.398 65.287C132.322 65.287 135.502 68.4635 135.502 72.3711V81.2275C135.502 85.1403 132.317 88.3115 128.398 88.3115V65.2817V65.287Z" fill="#D69400"/>
<path d="M7.60332 65.287V88.3168C3.68516 88.3168 0.5 85.1455 0.5 81.2327V72.3763C0.5 68.4635 3.68516 65.287 7.60332 65.287Z" fill="#D69400"/>
<path d="M23.4482 54.6583H9.92188C8.6404 54.6583 7.60156 55.6943 7.60156 56.9723V96.6315C7.60156 97.9095 8.6404 98.9455 9.92188 98.9455H23.4482C24.7297 98.9455 25.7686 97.9095 25.7686 96.6315V56.9723C25.7686 55.6943 24.7297 54.6583 23.4482 54.6583Z" fill="#FFB400"/>
<path d="M116.307 98.9456C116.307 111.836 105.792 122.322 92.8668 122.322H89.5604C88.5637 120.939 86.9394 120.04 85.1043 120.04H76.8777C73.8455 120.04 71.3828 122.496 71.3828 125.52C71.3828 128.544 73.8455 131 76.8777 131H85.1043C86.9394 131 88.5637 130.095 89.5604 128.718H92.8668C109.325 128.718 122.72 115.365 122.72 98.9456H116.307Z" fill="#1D49A0"/>
<path d="M92.8721 125.036H89.5656C88.5689 126.419 86.9447 127.319 85.1096 127.319H76.883C74.4941 127.319 72.4691 125.799 71.7098 123.679C71.5041 124.258 71.3828 124.873 71.3828 125.52C71.3828 128.549 73.8455 131 76.8777 131H85.1043C86.9394 131 88.5637 130.095 89.5604 128.718H92.8668C109.325 128.718 122.714 115.365 122.714 98.9456H122.477C120.653 113.629 108.07 125.036 92.8615 125.036H92.8721Z" fill="#0E2B72"/>
<path d="M67.9969 103.458C88.0112 103.458 104.236 87.2771 104.236 67.317C104.236 47.357 88.0112 31.1762 67.9969 31.1762C47.9826 31.1762 31.7578 47.357 31.7578 67.317C31.7578 87.2771 47.9826 103.458 67.9969 103.458Z" fill="#0E2B72"/>
<path d="M73.2508 67.317C73.2508 64.4297 70.9041 62.0842 68.0037 62.0842C65.1033 62.0842 62.7566 64.4245 62.7566 67.317C62.7566 69.1682 63.727 70.7933 65.1824 71.7242L58.6328 90.6676C61.5332 91.8246 64.692 92.4715 68.0037 92.4715C71.3154 92.4715 74.4795 91.8299 77.3746 90.6676L70.825 71.7242C72.2805 70.7933 73.2508 69.1682 73.2508 67.317Z" fill="#FFEFE4"/>
<path d="M80.1732 79.1186C79.7197 79.1186 79.2609 78.9713 78.8812 78.6663C77.99 77.951 77.8477 76.6573 78.5648 75.7685C80.516 73.344 81.5496 70.4252 81.5496 67.3223C81.5496 59.8701 75.4693 53.8116 68.0021 53.8116C60.535 53.8116 54.4547 59.8754 54.4547 67.3223C54.4547 70.3253 55.425 73.1705 57.2654 75.5529C57.9615 76.4522 57.7928 77.7459 56.891 78.4454C55.9893 79.1396 54.692 78.9713 53.9906 78.072C51.5912 74.9639 50.3203 71.2456 50.3203 67.3276C50.3203 57.6034 58.2516 49.6937 68.0021 49.6937C77.7527 49.6937 85.684 57.6034 85.684 67.3276C85.684 71.3245 84.3023 75.2373 81.7922 78.356C81.3861 78.8609 80.785 79.1238 80.1785 79.1238L80.1732 79.1186Z" fill="#FFEFE4"/>
<path d="M52.5471 89.2424C52.1041 89.2424 51.6559 89.1004 51.2814 88.8059C44.5684 83.5993 40.7188 75.7685 40.7188 67.317C40.7188 52.3127 52.9584 40.1062 68.0035 40.1062C83.0486 40.1062 95.2883 52.3127 95.2883 67.317C95.2883 75.679 91.502 83.4626 84.9049 88.6691C84.0084 89.3739 82.7111 89.2266 82.0045 88.3326C81.2979 87.4385 81.4508 86.1447 82.342 85.44C87.9424 81.0223 91.1592 74.4169 91.1592 67.3223C91.1592 54.5899 80.7705 44.2294 68.0035 44.2294C55.2365 44.2294 44.8478 54.5899 44.8478 67.3223C44.8478 74.4905 48.1174 81.138 53.818 85.561C54.7197 86.2604 54.8832 87.5542 54.1818 88.4535C53.7758 88.9742 53.1641 89.2476 52.5471 89.2476V89.2424Z" fill="#FFEFE4"/>
</g>
<defs>
<clipPath id="clip0_484_4005">
<rect width="135" height="131" fill="white" transform="translate(0.5)"/>
</clipPath>
</defs>
</svg>
