<?xml version="1.0" encoding="UTF-8"?><svg id="Layer_2" xmlns="http://www.w3.org/2000/svg" viewBox="0 0 491.09 208.17"><defs><style>.cls-1{fill:#0E124E;}</style></defs><g id="Layer_1-2"><g><g><path class="cls-1" d="m345.28,63.35c.21-5.44.39-10.06.57-14.82h27.79v114.87h-26.73c-1.31-4.83-1.15-9.84-1.61-14.7-1.43-.5-1.56.7-2.02,1.33-6.69,9.02-16.04,14.01-26.72,15.95-18.28,3.33-35.18-.39-49.87-12.2-8.45-6.79-13.69-15.82-16.51-26.09-4.75-17.24-4.4-34.31,3.05-50.88,5.59-12.43,15-20.99,27.36-26.32,11.09-4.78,22.86-6,34.71-4.51,11.5,1.45,21.39,6.4,28.46,16.03.17.23.44.39,1.53,1.34Zm-34.89,77.31c1.03,0,2.07.06,3.1,0,11.96-.75,21.06-6.19,26.71-16.8,5.24-9.84,5.92-20.27,2.29-30.73-3.46-9.98-10.12-17.17-20.41-20.48-6.27-2.02-12.78-2.17-19.18-.97-7.41,1.38-13.89,4.77-18.77,10.72-8.71,10.62-9.72,22.76-6.21,35.41,3.98,14.32,17.53,23.35,32.47,22.86Z"/><path class="cls-1" d="m126.3,163.47h-26.86c-.65-5.12-.46-10.28-1.51-15.32-.2.05-.53.02-.61.15-6.44,10.42-16.52,15.48-27.93,17.69-15.95,3.09-31.1.24-44.88-8.57-10.22-6.53-17.02-15.88-20.58-27.33-5.32-17.08-5.51-34.28,1.24-51.03,6.75-16.77,19.67-26.77,36.92-31.44,9.25-2.5,18.76-3.04,28.07-1.3,12.26,2.28,19.17,6.39,27.77,16.91.4-4.93.8-9.7,1.22-14.9,4.65,0,9.18,0,13.72,0s8.81,0,13.44,0v115.15Zm-63.22-22.76c14.99.58,26.84-7.6,32.03-20.89,2.48-6.35,2.98-13,1.98-19.57-1.91-12.6-8.15-22.29-20.56-27.04-6.01-2.3-12.26-2.83-18.66-1.83-12.67,1.97-21.76,8.47-26.42,20.61-2.93,7.65-3.25,15.51-1.34,23.41,1.96,8.15,6.14,14.94,13.26,19.66,6.07,4.02,12.76,5.94,19.71,5.65Z"/><path class="cls-1" d="m179.37,163.51h-27.59c-.82-3.23-1.07-108.25-.28-114.98h26.15c.74,4.05,1.47,8.05,2.25,12.3,1.92-2.18,3.58-4.22,5.41-6.11,5.35-5.53,12.02-8.12,19.6-9.11,7.75-1.01,15.27-.46,22.66,1.93,5.52,1.78,10.57,4.41,15.16,8.66-4.26,8.11-8.52,16.22-12.78,24.32-1.87-.58-2.94-1.62-4.15-2.43-10.77-7.22-28.35-5.56-36.91,1.96-4.51,3.97-7.1,8.93-8.27,14.7-.7,3.47-.88,6.98-.87,10.53.06,17.84.03,35.69.01,53.53,0,1.44.28,2.93-.4,4.7Z"/><path class="cls-1" d="m398.23,0h28.02v163.13c-3.42.58-22.62.71-28.02.16V0Z"/><path class="cls-1" d="m480.78,85.13v78.27h-28.55v-78.27h28.55Z"/><path class="cls-1" d="m458.4,76.63c3.33-13.3,11.34-23.7,20.77-33.31-6.5,1.74-11.12,6.12-15.69,10.66-4.61,4.57-8.04,10.02-11.99,16.14V31.7l39.44-.55.15,39.22h-22.92s-5.97,4.94-9.76,6.26Z"/></g><g><path class="cls-1" d="m298.65,183.4l-10.3,24.41h-7.31l-10.26-24.41h7.31l6.76,16.61,6.99-16.61h6.81Z"/><path class="cls-1" d="m325.56,197.6h-18.47c.68,3.04,3.27,4.9,6.99,4.9,2.59,0,4.45-.77,6.13-2.36l3.77,4.08c-2.27,2.59-5.67,3.95-10.07,3.95-8.44,0-13.93-5.31-13.93-12.57s5.58-12.57,13.02-12.57,12.71,4.81,12.71,12.66c0,.54-.09,1.32-.14,1.91Zm-18.56-4.13h12.03c-.5-3.09-2.81-5.08-5.99-5.08s-5.54,1.95-6.04,5.08Z"/><path class="cls-1" d="m356.28,193.83v13.98h-7.08v-12.89c0-3.95-1.82-5.76-4.95-5.76-3.4,0-5.85,2.09-5.85,6.58v12.07h-7.08v-24.41h6.76v2.86c1.91-2.09,4.77-3.22,8.08-3.22,5.76,0,10.12,3.36,10.12,10.8Z"/><path class="cls-1" d="m379.34,206.63c-1.45,1.04-3.58,1.54-5.76,1.54-5.76,0-9.12-2.95-9.12-8.76v-10.03h-3.77v-5.45h3.77v-5.94h7.08v5.94h6.08v5.45h-6.08v9.94c0,2.09,1.13,3.22,3.04,3.22,1.04,0,2.09-.32,2.86-.91l1.91,4.99Z"/><path class="cls-1" d="m408.84,183.4v24.41h-6.72v-2.9c-1.86,2.13-4.58,3.27-7.58,3.27-6.13,0-10.44-3.45-10.44-10.98v-13.8h7.08v12.75c0,4.08,1.81,5.9,4.95,5.9s5.63-2.09,5.63-6.58v-12.07h7.08Z"/><path class="cls-1" d="m431.48,183.03v6.53c-.59-.05-1.04-.09-1.59-.09-3.9,0-6.49,2.13-6.49,6.81v11.53h-7.08v-24.41h6.76v3.22c1.72-2.36,4.63-3.58,8.4-3.58Z"/><path class="cls-1" d="m460.16,197.6h-18.47c.68,3.04,3.27,4.9,6.99,4.9,2.59,0,4.45-.77,6.13-2.36l3.77,4.08c-2.27,2.59-5.67,3.95-10.07,3.95-8.44,0-13.93-5.31-13.93-12.57s5.58-12.57,13.02-12.57,12.71,4.81,12.71,12.66c0,.54-.09,1.32-.14,1.91Zm-18.56-4.13h12.03c-.5-3.09-2.81-5.08-5.99-5.08s-5.54,1.95-6.04,5.08Z"/><path class="cls-1" d="m463.57,205.54l2.36-5.08c2.18,1.41,5.49,2.36,8.49,2.36,3.27,0,4.49-.86,4.49-2.22,0-3.99-14.75.09-14.75-9.67,0-4.63,4.17-7.9,11.3-7.9,3.36,0,7.08.77,9.39,2.13l-2.36,5.04c-2.41-1.36-4.81-1.81-7.03-1.81-3.18,0-4.54,1-4.54,2.27,0,4.17,14.75.14,14.75,9.76,0,4.54-4.22,7.76-11.53,7.76-4.13,0-8.3-1.13-10.57-2.63Z"/></g></g></g></svg>