<?xml version="1.0" encoding="UTF-8"?><svg id="Layer_2" xmlns="http://www.w3.org/2000/svg" viewBox="0 0 600.2 164.48"><defs><style>.cls-1,.cls-2{fill:#0E124E;}.cls-2{opacity:.8;}</style></defs><g id="Layer_1-2"><g><path class="cls-1" d="m597.22,33.84c-21.12-.02-42.24-.02-63.37,0-.96,0-1.99-.26-3.07.58v97.72h5.08c19.61,0,39.23,0,58.84,0,1.83,0,3.67.14,5.5.21v-18.05c-2.11-1.82-4.7-1.53-7.19-1.54-10.89-.04-21.77.01-32.66-.04-2.13,0-4.37.4-6.77-1.31-.2-5.76-.5-11.8.2-17.55,2.38-1.36,4.43-1.05,6.41-1.06,10.72-.04,21.44.02,32.15-.05,2.46-.02,5.09.43,7.12-1.59.32-6.01.44-12.02-.06-18.03-2.11-1.87-4.72-1.45-7.19-1.47-10.55-.06-21.1,0-31.65-.05-2.14,0-4.37.37-6.81-1.18-.62-5.11-.47-10.48-.19-15.62,2.46-1.51,4.69-1.12,6.82-1.13,10.89-.05,21.77.03,32.66-.05,2.62-.02,5.49.35,7.16-2.51v-17.04c-.99-.09-1.99-.26-2.98-.26Z"/><path class="cls-1" d="m405.77,34.06h29.25c7.74,19.75,15.59,39.77,23.8,60.7,8.44-20.65,15.87-40.87,23.96-60.73h29.55v97.89h-21.03v-67.68c-.21-.72-.57-.66-.99-.17h.01c-.24.39-.46.77-.66,1.18-8.68,22.17-17.36,44.34-26.04,66.52-3.09.71-5.9.24-9.22.43-8.95-22.55-17.99-45.1-26.57-67.82-2.57.91-1.26,3.08-1.27,4.57-.11,19.02-.06,38.03-.09,57.05,0,1.8.44,3.67-.76,5.81-6.42.08-13.05.12-19.32-.03-1.32-1.36-1-2.58-1-3.7-.02-30.19-.02-60.39,0-90.58,0-1.15-.2-2.34.4-3.43Z"/><path class="cls-1" d="m366.34,33.99h20.68c.98,1.36.53,2.73.54,4.02.03,17.87.1,35.73-.02,53.6-.04,5.81-.6,11.56-2.55,17.18-3.68,10.64-10.66,17.96-21.28,21.65-13.21,4.59-26.57,4.65-39.81.24-13.66-4.54-21.12-14.46-23.8-28.29-.7-3.62-.94-7.25-.93-10.93.03-17.53.02-35.06.02-52.6v-4.73h21.35c0,1.73,0,3.49,0,5.24,0,16.86,0,33.73,0,50.59,0,4.01.44,7.96,1.69,11.79,1.69,5.19,5.03,9.03,10.06,11.15,7.24,3.07,14.65,3.24,21.95.2,6.4-2.66,9.8-7.86,11.24-14.37.64-2.91.94-5.89.92-8.92-.09-16.86-.04-33.73-.04-50.59,0-1.63,0-3.27,0-5.22Z"/><path class="cls-1" d="m227.13,33.99h20.65v79.34h41.8v18.08c-3.32.92-54.48,1.25-61.97.38-1.05-3.6-1.47-82.93-.47-97.79Z"/><path class="cls-1" d="m212.2,100.65c-1.59-8.97-6.51-15.98-16.05-18.57-.52-.14-.74-.58-.62-1.14,5.59-2.07,8.25-4.01,11.03-8.03,8.35-12.08,4.26-28.81-8.73-35.66-4.69-2.47-9.73-3.43-15-3.43-16.6.02-33.19,0-49.79,0-.82,0-1.67-.12-2.63.61v96.77c.89.9,1.56.92,2.23.92,17.6,0,35.21.07,52.81-.05,4.87-.03,9.66-1.15,13.96-3.51,10.78-5.92,14.91-16.03,12.79-27.94Zm-60.66-49.09c9.86.04,19.53-.95,29.12.51,5.83.89,8.82,5.23,8.58,11.08-.21,5.21-3.9,9.64-9.46,9.89-9.33.41-18.68.11-28.24.11v-21.59Zm39.63,52.75c-.57,5.48-5.18,9.61-11.42,9.79-6.69.19-13.39.05-20.08.05-2.5,0-5,0-7.75,0-.32-1.04-.58-1.5-.59-1.96-.03-6.8-.02-13.61-.02-20.13,1.26-1.24,2.49-.87,3.61-.87,7.53-.03,15.06-.04,22.59,0,1.83.01,3.73.01,5.47.48,5.64,1.5,8.82,6.55,8.19,12.63Z"/><path class="cls-2" d="m103.77,10.62c0-2.19,0-4.37-1.38-6.19-2.12-2.81-5.06-4.29-8.57-4.35-5.86-.1-11.73.11-17.59-.07-4.9-.15-8.81,1.33-11.48,5.55-.53,2.21-.56,4.41-.46,6.71.11,2.69,3.75,29.72,3.75,29.72,0,0-17.45-19.79-25.74-27.49-6.1-1.39-9.89.31-13.18,4.01-3.21,3.61-6.67,7.04-10.3,10.24-3.84,3.38-5.72,7.25-4.28,13.35,7.17,7.63,25.01,22.71,25.01,22.71,0,0-22.66-1.26-29.12-1.6-7.04-.37-10.28,4.79-10.36,10.13-.09,6.51-.08,13.01,0,19.52.07,5.55,3.87,9.36,9.36,9.53,1.34.04,30.5-2.21,30.5-2.21,0,0-15.36,14.3-22.4,20.14-4.56,3.78-4.57,11.11-.3,14.92,4.73,4.23,9.12,8.85,13.55,13.41,5.2,5.35,10.52,4.3,14.74-.08,3.9-4.04,23.44-24.92,23.44-24.92,0,0-3.81,23.41-4.66,31.03-.49,4.4.5,8.07,5.16,9.8.68,0,1.37-.01,2.05-.02,8.4,0,16.8,0,25.19,0,.67,0,1.33,0,2-.01,3.26-1.86,5.1-4.51,5.08-8.39V10.62Z"/><polygon class="cls-2" points="103.71 46.15 39.29 100.26 103.61 95.25 103.71 46.15"/><polygon class="cls-2" points="103.63 120.27 39.36 64.16 103.59 70.22 103.63 120.27"/><polygon class="cls-2" points="68.33 41.09 103.6 83.25 67.47 124.28 68.33 41.09"/></g></g></svg>