<?xml version="1.0" encoding="UTF-8"?><svg id="Layer_2" xmlns="http://www.w3.org/2000/svg" viewBox="0 0 545.17 219.95"><defs><style>.cls-1{fill:#0E124E;}</style></defs><g id="Layer_1-2"><g><path class="cls-1" d="m271.2,130.51c16.98-29.53,32.88-57.2,49.62-86.31v113.11c-5.16,2.22-10.76,1-17.26.88v-46.69c-9.63,16.51-18.2,31.22-27.13,46.53-3.3.14-6.82.3-10.49.46-8.23-14.08-16.24-27.79-24.25-41.5-.53.12-1.07.24-1.6.36v40.41h-19.24V44.24c17.94,28.87,33.11,57.36,50.36,86.27Z"/><path class="cls-1" d="m89.85,159.29c7.03-29.44,16.7-56.24,32.69-80.8-5.22-8.47-12.89-12.83-22.17-14.18-20.77-3.01-30.92-19.46-23.97-39.46.71-2.03,1.75-3.94,2.55-5.69,7.8,3.38,15.3,6.45,22.62,9.9,3.57,1.68,7.27,3.57,10.08,6.24,5.45,5.17,7.67,11.42,3.33,18.77-9.03-5.81-17.97-11.56-28.33-18.23,1.23,2.56,1.52,4.54,2.59,5.15,14.09,8.06,24.2,20.71,36.43,32.13,4.48-5.5,9.11-10.19,12.55-15.63,5.69-9.02,14.17-14.4,23.03-19.4,6.97-3.93,14.14-7.49,20.56-15.73-3.15,1.17-4.55,1.52-5.77,2.18-2.82,1.53-5.5,3.31-8.33,4.83-8.9,4.78-17.85,9.49-27.06,14.37-2.83-2.52-3.88-6.48-2.71-10.36,2.01-6.67,5.12-13,11.42-16.75,3.4-2.02,7.17-3.54,10.94-4.78,5.49-1.79,11.28-2.75,16.68-4.76,4.93-1.84,9.52-4.6,14.57-7.1,5.75,11.9,6.32,24.56,1.64,37.42-5.24,14.39-16.83,20.16-30.97,22.23-1.78.26-3.65.13-5.46-.03-8.26-.75-14.95,2.14-20.23,8.48-2.05,2.47-4.18,4.87-6.97,8.12,21.11,22.73,34.97,49.16,45.03,78.19-4.95,4.25-10.54,4.06-16.78,3.54-1.73-28-14.07-51.44-30.19-74.21-6.45,7.23-7.81,15.88-9.76,24.05-3.46,14.5-5.47,29.24-4.97,44.23.06,1.78-.3,3.6-.64,5.37-.13.65-.76,1.2-1.93,2.92-4.26,0-9.29.07-14.32-.04-1.72-.04-3.44-.53-6.15-.98Z"/><path class="cls-1" d="m19.39,140.32h65.22c-.1,6.86-2.46,11.97-4.82,17.53H0V47.04h66.8c3.24,4.82,6.98,10.4,11.49,17.11H19.06l-.28,28.39s28.74-.02,43.39.45v17.48H19.39v29.86Z"/><path class="cls-1" d="m439.66,46.85h19.26s-.04,4.88-.04,7.26c.06,21.85.02,43.7.04,65.55.01,17.04-7.73,29.72-23.21,36.13-23.1,9.56-47.79-1.72-53.58-26.64-.9-3.86-1.57-7.87-1.6-11.82-.15-21.85-.07-43.7-.05-65.55,0-1.38-.04-4.66-.04-4.66h19.14s.02,5.77.02,8.56c.05,20.76.07,41.51,0,62.27-.02,5.61.83,10.77,4.57,15.28,5.87,7.08,13.91,9.74,22.4,7.1,7.66-2.39,12.86-9.16,12.97-18.25.25-21.12.11-42.24.13-63.36,0-3.58,0-7.16,0-11.88Z"/><path class="cls-1" d="m535.42,69.26c-4.5,1.87-9.13,3.79-14.3,5.93-1.81-2.78-3.34-5.63-5.34-8.08-3.22-3.94-7.7-4.34-11.57-1.41-4.02,3.05-5.33,9.07-1.67,12.39,3.93,3.57,8.72,6.51,13.6,8.66,7.46,3.29,14.03,7.55,19.67,13.39,9.65,9.99,11.09,22.31,7.68,34.63-3.52,12.69-12.7,20.9-26.02,23.77-26.06,5.63-44.51-14.94-43.02-34.16,4.98-1.77,10.3-3.66,16.07-5.7,1.3,4.62,2.15,8.85,3.68,12.82,2.28,5.89,6.54,9.03,13.19,9.66,8.46.8,14.51-2.77,17.91-9.75,2.53-5.19,2.62-11.29-1.19-16.58-3.94-5.47-9.26-8.9-15.38-11.7-6.22-2.84-12.55-6.05-17.74-10.4-13.57-11.34-12.91-32.67,4.32-43.48,16.58-10.4,37.86.17,40.11,20.01Z"/><path class="cls-1" d="m360.32,47.8v110.14h-16.93V62.74c4.58-4.04,9.97-8.8,16.93-14.94Z"/><path class="cls-1" d="m181.13,63.08c5.6-4.71,11.03-9.27,17.37-14.6v108.72c-5.14,2.45-10.8.97-16.29,1.03-1.93-9.15-2.51-61.85-1.08-95.15Z"/></g><g><path class="cls-1" d="m38.65,172.22h5.15l-18.85,47.01h-4.29L1.38,172.22h5.21l16.19,39.93,15.87-39.93Z"/><path class="cls-1" d="m85.61,214.71h22.23v4.52h-26.91v-47.01h26.16v4.49h-21.47v16.03h19.73v4.39h-19.73v17.57Z"/><path class="cls-1" d="m178.86,172.22h4.62v47.01h-3.97l-28.29-38.75v38.75h-4.59v-47.01h4.26l27.96,38.42v-38.42Z"/><path class="cls-1" d="m254.41,172.22v4.43h-14.65v42.58h-4.69v-42.58h-14.62v-4.43h33.96Z"/><path class="cls-1" d="m309.01,219.95c-5.24,0-9.59-1.7-13.03-5.11-3.44-3.41-5.16-7.76-5.16-13.05v-29.57h4.75v29.24c0,4.11,1.25,7.45,3.75,10.01s5.73,3.85,9.69,3.85,7.12-1.29,9.64-3.87c2.51-2.58,3.77-5.91,3.77-10v-29.24h4.75v29.57c0,3.5-.79,6.63-2.36,9.39-1.57,2.77-3.74,4.92-6.51,6.46s-5.86,2.31-9.29,2.31Z"/><path class="cls-1" d="m396.62,219.23l-11.24-19.05h-11.9v19.05h-4.69v-47.01h17.57c4.33,0,7.91,1.33,10.74,3.98s4.25,6.02,4.25,10.08c0,3.34-1.01,6.23-3.03,8.67-2.02,2.44-4.67,4.04-7.95,4.8l11.57,19.47h-5.31Zm-23.14-42.52v19.01h12.65c3.08,0,5.58-.89,7.51-2.67,1.92-1.78,2.88-4.06,2.88-6.83s-.97-5.05-2.9-6.83c-1.93-1.78-4.43-2.67-7.49-2.67h-12.65Z"/><path class="cls-1" d="m445.35,214.71h22.23v4.52h-26.91v-47.01h26.16v4.49h-21.47v16.03h19.73v4.39h-19.73v17.57Z"/><path class="cls-1" d="m519.98,219.82c-5.14,0-9.27-1.34-12.39-4.03-3.13-2.69-4.69-6.29-4.69-10.82h4.82c0,3.15,1.12,5.64,3.38,7.47,2.25,1.84,5.2,2.75,8.85,2.75,3.3,0,6.03-.83,8.18-2.49,2.15-1.66,3.23-3.85,3.23-6.56,0-.68-.08-1.31-.23-1.88-.15-.58-.34-1.09-.56-1.54-.22-.45-.56-.88-1.02-1.29s-.86-.76-1.2-1.03c-.34-.27-.86-.56-1.56-.85-.7-.29-1.26-.52-1.69-.69-.43-.16-1.08-.37-1.95-.61-.87-.24-1.53-.42-1.97-.52-.44-.11-1.15-.27-2.13-.49-1.07-.24-1.9-.43-2.47-.57s-1.37-.35-2.36-.64c-.99-.28-1.78-.55-2.36-.79-.58-.24-1.28-.56-2.11-.97-.83-.4-1.49-.81-1.98-1.23-.49-.41-1.02-.92-1.57-1.51s-.98-1.22-1.28-1.9c-.29-.68-.55-1.45-.75-2.31-.21-.86-.31-1.8-.31-2.8,0-3.96,1.42-7.09,4.26-9.39,2.84-2.31,6.65-3.46,11.44-3.46s8.46,1.23,11.23,3.69c2.76,2.46,4.15,5.77,4.15,9.95h-4.69c0-2.8-1-5.02-3-6.67-2-1.65-4.59-2.47-7.79-2.47s-5.83.74-7.87,2.23c-2.03,1.49-3.05,3.46-3.05,5.93,0,.72.08,1.38.23,1.98.15.6.42,1.14.8,1.62.38.48.75.91,1.11,1.28.36.37.88.72,1.57,1.05.69.33,1.28.6,1.77.82.49.22,1.19.45,2.1.7.91.25,1.63.44,2.18.57.55.13,1.33.32,2.36.56,1.09.26,1.93.46,2.51.61s1.38.36,2.41.66c1.03.3,1.84.57,2.43.82.59.25,1.31.58,2.16,1,.85.42,1.52.84,2.02,1.26.49.43,1.03.95,1.61,1.57.58.62,1.02,1.28,1.33,1.98.31.7.56,1.5.77,2.41s.31,1.87.31,2.9c0,4.2-1.52,7.53-4.56,10-3.04,2.47-6.93,3.7-11.67,3.7Z"/></g></g></svg>