<?xml version="1.0" encoding="UTF-8"?><svg id="Layer_2" xmlns="http://www.w3.org/2000/svg" viewBox="0 0 604.15 311.96"><defs><style>.cls-1{fill:#0E124E;}</style></defs><g id="Layer_1-2"><g><path class="cls-1" d="m433.63,113.16c-1.74-.77-3.48-1.55-5.23-2.3-13.19-5.65-26.83-10.16-40.07-15.69-22.54-9.42-38.87-25.24-49.02-47.41-2.37-5.18-4.01-10.62-5.5-16.14,0-.02-.03-.04-.05-.05-2.6-.62-4.98-1.75-7.79-1.9-.04,0-.08.03-.08.07-1.45,20.52-2.88,40.74-4.3,60.83,0,.04-.03.07-.07.07h-15.11s-.07-.03-.07-.07V.07s-.04-.07-.08-.07c-2.95.22-5.57-.32-8.45.39-.03,0-.06.04-.06.07v90.25s-.03.07-.07.07h-14.72s-.07-.03-.07-.07c-1.44-20.37-2.86-40.59-4.3-60.93,0-.04-.04-.07-.08-.07-2.78.11-5.11,1.15-7.44,1.73-.02,0-.03.01-.04.03-.94,1.21-1.06,2.59-1.41,3.85-3.91,14.06-10.87,26.41-20.72,37.17-10.67,11.66-23.8,19.51-38.52,25.06-13.21,4.98-26.54,9.67-39.4,15.53-.94.4-3.81,2.31-3.81,2.31,0,0,.46-.14.83-.27.26-.08.51-.15.77-.23,1.68-.43,5.27-1.32,5.96-1.46,13.73-2.78,27.55-4.95,41.47-6.6,10.91-1.29,21.85-2.29,32.81-3.02,8.57-.57,17.15-1.08,26.06-1.17.04,0,.07.03.07.07,1.32,18.65,3.97,55.99,3.97,55.99l8.44-.89s-2.54-36.76-3.83-55.39c0-.04.03-.08.07-.08h13.82s.06.02.07.04c.58,1.09.34,2.1.34,3.07.02,20.8.04,62.41.04,62.41h8.4s0-41.54.03-61.9c0-1.18-.34-2.42.29-3.5.01-.02.04-.04.07-.04h13.84s.07.04.07.08c-1.29,18.63-3.85,55.41-3.85,55.41l8.48.48s2.63-37.22,3.94-55.64c.6-.16.82-.28,1.03-.27,13.22.69,26.44,1.24,39.63,2.44,12.4,1.13,24.77,2.46,37.06,4.46,8.4,1.37,25.16,4.37,25.16,4.37l4.78,1.01s-2.71-1.39-3.36-1.62Zm-198.52-17.8c15.68-10.35,27.78-23.78,36.74-40.3.83,12.03,1.65,24.07,2.5,36.36-13.29,1.04-26.25,2.17-39.23,3.94Zm95-3.92c.85-12.24,1.7-24.32,2.54-36.4,8.94,16.51,21.04,29.99,36.79,40.33-13-1.72-25.97-2.96-39.33-3.92Z"/><g><path class="cls-1" d="m0,194.94h6.12c4.66,13.5,9.35,27.07,14.25,41.27,4.67-14.17,9.14-27.71,13.62-41.3,1.51-.54,2.94-.28,4.71-.24,4.46,13.52,8.92,27.05,13.38,40.58.2.05.4.1.59.15,4.65-13.47,9.31-26.94,13.97-40.44h5.89c-5.94,16.7-11.79,33.17-17.65,49.65-1.61.63-3.15.13-4.89.38-4.52-13.32-8.99-26.45-13.72-40.39-4.75,13.9-9.23,27.03-13.69,40.09-1.69.33-3.13.31-4.87.03-5.83-16.39-11.7-32.88-17.72-49.78Z"/><path class="cls-1" d="m546.98,200.78c-1.08,1.25-2.16,2.5-3.4,3.94-5.57-4.52-11.78-6.52-18.82-5.22-4.75.88-8.49,3.42-11.32,7.27-6.26,8.51-5.24,21.78,2.15,28.67,7.27,6.79,19.64,6.75,27.8-.12v-12.25h-14.88c-.37-1.73-.28-3.14-.1-4.8h20.31v19.63c-11.03,10.06-28.8,10.17-38.35.15-9.58-10.05-9.07-27.71,1.07-37.38,9.48-9.04,26.62-9.03,35.55.11Z"/><path class="cls-1" d="m196.51,239.44h30.21c.54,1.68.27,3.21.21,4.96h-35.92c-.59-2.31-.71-45.7-.11-49.42h35.62c.42,1.53.21,2.95.2,4.66h-30.18v17.18h26.54c.72,1.84.28,3.35.44,5.08h-27.01v17.55Z"/><path class="cls-1" d="m600.38,216.97c.36,1.77.24,3.19.14,4.96h-27.07v17.4h30.43c.37,1.9.28,3.41.12,5.12h-36.14v-49.43h35.47c.8,1.37.12,2.92.48,4.74h-30.31v17.22h26.88Z"/><path class="cls-1" d="m173.78,195v4.88h-16.49v44.47c-1.96.47-3.61.26-5.6.2v-44.49h-16.63c-.48-1.89-.41-3.39-.14-5.06h38.87Z"/><path class="cls-1" d="m423.08,244.55h-5.23v-49.45c1.61-.52,3.33-.26,5.23-.16v49.61Z"/><path class="cls-1" d="m335.64,220.49c-1.09-.58-2.24-1.06-3.57-1.68.88-.58,1.44-.94,1.99-1.31,4.23-2.87,5.91-6.93,5.29-11.88-.58-4.67-3.47-7.59-7.73-9.31-2.64-1.07-5.39-1.46-8.22-1.46-4.94,0-9.87-.04-14.81.01-2.1.02-4.23-.26-6.42.22v49.53c8.68-.05,17.17.35,25.66-.22,3.14-.21,6.15-1.16,8.84-2.95,7.93-5.27,7.4-16.51-1.02-20.94Zm-27.8-20.68c5.67,0,11.03-.05,16.39.03,1.32.02,2.68.32,3.94.74,3.26,1.07,5.36,3.25,5.62,6.76.26,3.52-1.06,6.32-4.29,8.05-1.3.7-2.66,1.15-4.13,1.32-5.79.67-11.57.14-17.53.36v-17.27Zm23.95,38.33c-1.63.79-3.36,1.27-5.17,1.33-2.13.07-4.26.1-6.39.11-4.03.02-8.07,0-12.38,0v-17.67c7.32.35,14.49-.67,21.59.74,4.19.84,6.7,3.47,7.15,7.04.45,3.6-1.35,6.78-4.78,8.45Z"/><path class="cls-1" d="m466.06,195.18c-7.23-.9-14.54-.21-21.92-.37v49.79c6.55,0,12.83.03,19.11-.02,1.22,0,2.45-.28,3.66-.5,12.72-2.25,21.04-12.25,20.83-25-.21-12.38-9.05-22.34-21.68-23.9Zm-2.63,44.11c-4.47.28-8.96.04-13.81.04v-39.25c7.36.08,14.74-1.2,21.74,2.19,5.16,2.5,8.38,6.63,9.87,12.09,3.41,12.48-4.85,24.13-17.79,24.93Z"/><path class="cls-1" d="m270.51,224.39c1.66-.52,2.97-.82,4.19-1.34,4.46-1.9,7.74-4.92,8.84-9.83,2.02-9.02-3.55-16.9-13.34-18.03-8.45-.98-16.99-.21-25.65-.39v49.7c1.86.12,3.58.4,5.55-.31v-18.82h14.28c4.92,6.54,9.75,12.96,14.38,19.12h6.85c-5.16-6.87-10.08-13.43-15.1-20.11Zm-20.45-4v-19.81c.69-.81,1.52-.63,2.28-.61,5.7.13,11.43-.44,17.11.4,5.98.89,9.24,4.95,8.76,10.64-.27,3.13-1.84,5.44-4.45,7.09-1.83,1.16-3.84,1.8-5.99,2-5.79.53-11.58.12-17.7.29Z"/><path class="cls-1" d="m385.7,224.47c1.95-.72,3.57-1.2,5.08-1.9,5.55-2.57,8.32-7.01,8.3-13.06-.01-6.01-3.58-10.91-9.28-13.15-2.53-1-5.16-1.49-7.88-1.5-3.59-.02-7.18-.01-10.78-.02-3.78,0-7.56,0-11.44,0v49.72c1.88.01,3.6.39,5.55-.4v-18.76h14.27c4.85,6.46,9.61,12.81,14.32,19.09h6.86c-5.15-6.87-10.07-13.43-15-20.01Zm-20.4-4.12v-20.37c6.59.12,12.96-.48,19.29.41,5.19.72,8.46,4.09,8.78,8.64.35,4.99-2.16,8.6-7.24,10.34-.84.29-1.72.53-2.6.63-6.01.72-12.02.21-18.23.35Z"/><path class="cls-1" d="m106.16,194.5h-5.33c-7.58,16.73-15.07,33.24-22.65,49.97,2.27.2,3.94.28,5.72-.03,1.98-4.32,3.97-8.66,5.9-12.86h27.21c1.98,4.38,3.9,8.64,5.84,12.93,2.01.14,3.82.25,5.99-.09-7.68-16.91-15.19-33.45-22.68-49.92Zm-14.03,31.75c3.69-8.21,7.36-16.38,11.18-24.9.38.54.62.79.75,1.08,3.49,7.83,6.98,15.66,10.6,23.82h-22.53Z"/></g><g><path class="cls-1" d="m210.39,272.44c1.46-.36,2.67-.28,4.12-.08,7.87,9.96,15.82,20.03,23.77,30.1.19-.04.37-.09.56-.13v-29.78c1.54-.49,2.72-.38,4.11-.17v38.36c-1.12.51-2.11.32-3.31.17-8.09-10.23-16.26-20.56-24.91-31.49v31.22c-1.58.6-2.86.49-4.33.19v-38.38Z"/><path class="cls-1" d="m429.91,307.01h23.59c.55,1.36.21,2.46.34,3.79h-28.13v-38.4h27.46c.61,1.12.49,2.28.06,3.74h-23.27v13.2h20.53c.87,1.36.52,2.46.49,4.01h-21.07v13.66Z"/><path class="cls-1" d="m185.11,289.33c.59,1.49.42,2.57.22,3.98h-20.91v13.64h23.49c.55,1.47.41,2.55.2,3.87h-27.99v-38.45h27.49c.52,1.2.22,2.29.24,3.67h-23.4v13.29h20.68Z"/><path class="cls-1" d="m344.01,272.42c1.64-.27,2.85-.33,4.03-.04.72.8.42,1.73.42,2.6.02,6.04.03,12.07,0,18.11,0,1.34-.08,2.68-.22,4.01-1.36,12.58-14.57,18.87-25.39,12.1-3.65-2.28-5.58-5.71-6.42-9.8-.31-1.52-.48-3.1-.49-4.66-.05-7.36-.02-14.72-.02-22.17,1.46-.62,2.78-.2,3.88-.38.88.97.57,1.91.57,2.77.03,5.92.01,11.85.02,17.77,0,1.12,0,2.24.06,3.35.55,9.11,8.59,14.06,17.05,10.47,4.62-1.96,6.32-5.86,6.42-10.5.15-6.7.06-13.41.07-20.12,0-1.1,0-2.2,0-3.51Z"/><path class="cls-1" d="m473.51,305.48c.61-1.24,1.56-2.13,2.59-3.2,3.32,2.78,6.82,4.88,11.12,5.3,2.39.23,4.7.09,6.92-.86,2.53-1.08,3.88-3.04,3.94-5.72.06-2.62-1.37-4.39-3.74-5.45-1.85-.83-3.77-1.39-5.75-1.82-2.74-.6-5.45-1.29-7.99-2.5-3.53-1.68-5.61-4.33-5.77-8.34-.16-4.09,1.61-7.17,5.06-9.19,5.02-2.95,10.3-2.56,15.57-.72,2.01.7,3.86,1.75,5.62,3.33-.47,1.24-1.42,2.15-2.32,3.27-2.32-1.41-4.49-2.99-7.15-3.56-2.79-.59-5.56-.84-8.26.31-2.45,1.04-4.03,2.75-4.08,5.59-.05,2.72,1.41,4.37,3.71,5.46,1.73.82,3.55,1.36,5.42,1.75,2.85.61,5.67,1.34,8.3,2.63,3.49,1.71,5.65,4.31,5.73,8.35.09,4.32-1.72,7.65-5.52,9.63-5.09,2.65-10.43,2.18-15.69.49-2.9-.93-5.45-2.57-7.73-4.74Z"/><path class="cls-1" d="m120.33,305.57c4.79-11.5,9.32-22.36,13.8-33.11,1.57-.38,2.89-.31,4.71-.03-5.56,13-11.05,25.85-16.5,38.6-1.44.36-2.65.33-4.1.02-5.45-12.71-10.94-25.52-16.54-38.59,1.68-.44,3.16-.26,4.84-.12,4.52,10.88,9.03,21.73,13.79,33.22Z"/><path class="cls-1" d="m282.07,276.17v34.43c-1.4.71-2.6.47-4.21.27v-34.6h-12.87c-.61-1.41-.42-2.49-.26-3.82h30.17c.42,1.15.3,2.32.02,3.72h-12.85Z"/><path class="cls-1" d="m392.44,295.36c1.54-.6,2.94-1.01,4.23-1.67,3.79-1.93,5.94-4.96,6.08-9.31.2-6.32-3.83-11.29-10.72-11.88-6.53-.55-13.15-.12-19.81-.12v38.58c1.52.03,2.82.35,4.23-.37v-14.54h11.15c3.79,5.04,7.55,10.03,11.18,14.85h5.33c-4.03-5.36-7.82-10.42-11.67-15.56Zm-15.92-3.56v-15.48c5-.1,9.9-.38,14.75.14,4.45.48,7.16,3.53,7.18,7.45.02,4.09-3,7.49-7.64,7.81-4.66.33-9.36.07-14.29.07Z"/></g></g></g></svg>