<?xml version="1.0" encoding="UTF-8"?>
<svg xmlns="http://www.w3.org/2000/svg" xmlns:xlink="http://www.w3.org/1999/xlink" viewBox="0 0 150 150">
  <defs>
    <style>
      .cls-1, .cls-2, .cls-3 {
        fill: none;
      }

      .cls-4 {
        fill: url(#linear-gradient);
      }

      .cls-5 {
        fill: #fff;
      }

      .cls-2 {
        stroke-linecap: round;
        stroke-width: 1.96px;
      }

      .cls-2, .cls-3 {
        stroke: #fff;
        stroke-miterlimit: 10;
      }

      .cls-6 {
        fill: url(#linear-gradient-3);
      }

      .cls-7 {
        fill: url(#linear-gradient-4);
      }

      .cls-8 {
        fill: url(#linear-gradient-2);
      }

      .cls-9 {
        fill: url(#linear-gradient-6);
      }

      .cls-10 {
        fill: url(#linear-gradient-5);
      }

      .cls-11 {
        fill: url(#Degradado_sin_nombre_15);
      }

      .cls-12 {
        opacity: .46;
      }

      .cls-13 {
        filter: url(#drop-shadow-28);
      }
    </style>
    <linearGradient id="linear-gradient" x1="8" y1="93.95" x2="129.4" y2="93.95" gradientUnits="userSpaceOnUse">
      <stop offset="0" stop-color="#ffb400"/>
      <stop offset=".18" stop-color="#ffbc00"/>
      <stop offset=".64" stop-color="#fc0"/>
      <stop offset="1" stop-color="#ffd200"/>
    </linearGradient>
    <linearGradient id="linear-gradient-2" x1="41.54" y1="139.83" x2="92.66" y2="139.83" xlink:href="#linear-gradient"/>
    <linearGradient id="linear-gradient-3" x1="49.06" y1="137.69" x2="84.77" y2="137.69" xlink:href="#linear-gradient"/>
    <linearGradient id="linear-gradient-4" x1="-3486.92" y1="111.88" x2="-3447.65" y2="111.88" gradientTransform="translate(3536.02 223.76) scale(1 -1)" xlink:href="#linear-gradient"/>
    <linearGradient id="linear-gradient-5" x1="-3484.25" y1="117.24" x2="-3450.33" y2="117.24" gradientTransform="translate(3536.02 234.48) scale(1 -1)" xlink:href="#linear-gradient"/>
    <linearGradient id="linear-gradient-6" x1="-3478.89" y1="122.59" x2="-3455.68" y2="122.59" gradientTransform="translate(3536.02 245.19) scale(1 -1)" xlink:href="#linear-gradient"/>
    <filter id="drop-shadow-28" filterUnits="userSpaceOnUse">
      <feOffset dx="0" dy="0"/>
      <feGaussianBlur result="blur" stdDeviation="4"/>
      <feFlood flood-color="#ffe600" flood-opacity=".75"/>
      <feComposite in2="blur" operator="in"/>
      <feComposite in="SourceGraphic"/>
    </filter>
    <linearGradient id="Degradado_sin_nombre_15" data-name="Degradado sin nombre 15" x1="83.54" y1="38.96" x2="137.99" y2="38.96" gradientUnits="userSpaceOnUse">
      <stop offset="0" stop-color="#fff" stop-opacity=".9"/>
      <stop offset=".03" stop-color="#fff" stop-opacity=".79"/>
      <stop offset=".07" stop-color="#fff" stop-opacity=".69"/>
      <stop offset=".11" stop-color="#fff" stop-opacity=".6"/>
      <stop offset=".15" stop-color="#fff" stop-opacity=".55"/>
      <stop offset=".2" stop-color="#fff" stop-opacity=".51"/>
      <stop offset=".28" stop-color="#fff" stop-opacity=".5"/>
      <stop offset=".46" stop-color="#fdfdfd" stop-opacity=".48"/>
      <stop offset=".67" stop-color="#f9f9f9" stop-opacity=".43"/>
      <stop offset=".89" stop-color="#f3f3f3" stop-opacity=".35"/>
      <stop offset="1" stop-color="#efefef" stop-opacity=".3"/>
    </linearGradient>
  </defs>
  <g id="Layer_2" data-name="Layer 2">
    <rect class="cls-5" width="150" height="150"/>
  </g>
  <g id="Layer_1" data-name="Layer 1">
    <g>
      <g>
        <rect class="cls-4" x="8" y="52" width="121.4" height="83.91"/>
        <rect class="cls-8" x="41.54" y="138.23" width="51.12" height="3.19"/>
        <polygon class="cls-6" points="84.77 139.48 49.06 139.48 54.42 135.91 79.41 135.91 84.77 139.48"/>
        <circle class="cls-5" cx="68.7" cy="132.34" r="1.79"/>
        <circle class="cls-5" cx="15.14" cy="57.36" r="1.79"/>
        <circle class="cls-5" cx="20.5" cy="57.36" r="1.79"/>
        <circle class="cls-5" cx="25.85" cy="57.36" r="1.79"/>
        <circle class="cls-3" cx="68.7" cy="84.13" r="19.64"/>
        <g>
          <path class="cls-3" d="m64.73,83.14v-3.97c0-2.19,1.78-3.97,3.97-3.97h0c2.19,0,3.97,1.78,3.97,3.97v3.97"/>
          <rect class="cls-3" x="60.76" y="81.16" width="15.87" height="11.9" rx=".22" ry=".22"/>
        </g>
        <g>
          <rect class="cls-7" x="49.1" y="110.99" width="39.28" height="1.79" transform="translate(137.47 223.76) rotate(180)"/>
          <rect class="cls-10" x="51.78" y="116.35" width="33.92" height="1.79" transform="translate(137.47 234.48) rotate(180)"/>
          <rect class="cls-9" x="57.13" y="121.7" width="23.21" height="1.79" transform="translate(137.47 245.19) rotate(180)"/>
        </g>
        <rect class="cls-5" x="8.08" y="124.87" width="121.23" height="1.84"/>
      </g>
      <g class="cls-13">
        <polyline class="cls-2" points="98.87 38.96 106.8 46.9 122.67 31.03"/>
        <path class="cls-11" d="m137.99,20.81v12.14c0,17.14-10.97,32.36-27.23,37.78h0s0,0,0,0c-16.26-5.42-27.23-20.64-27.23-37.78v-12.14l27.23-13.61,27.23,13.61Z"/>
        <path class="cls-5" d="m85.55,20.81c8.8-4.74,18.11-9.43,27.06-13.95,0,0,.17-.08.17-.08l.17.08c8.95,4.52,18.25,9.21,27.06,13.95-9.07-4.2-18.42-8.83-27.39-13.28,0,0,.33,0,.33,0-8.98,4.45-18.32,9.08-27.39,13.28h0Z"/>
        <g class="cls-12">
          <path class="cls-5" d="m111.74,7.2l27.23,13.61v12.14c0,17.14-10.97,32.36-27.23,37.78-16.26-5.42-27.23-20.64-27.23-37.78v-12.14l27.23-13.61m0-1.12c-.17,0-.34.04-.5.12l-27.23,13.61c-.38.19-.62.58-.62,1v12.14c0,17.65,11.25,33.26,27.99,38.84.12.04.24.06.36.06s.24-.02.36-.06c16.74-5.58,27.99-21.19,27.99-38.84v-12.14c0-.43-.24-.81-.62-1l-27.23-13.61c-.16-.08-.33-.12-.5-.12h0Z"/>
        </g>
        <path class="cls-1" d="m138.97,20.81v12.14c0,17.14-10.97,32.36-27.23,37.78h0s0,0,0,0c-16.26-5.42-27.23-20.64-27.23-37.78v-12.14l27.23-13.61,27.23,13.61Z"/>
      </g>
    </g>
  </g>
</svg>