<?xml version="1.0" encoding="UTF-8"?>
<svg xmlns="http://www.w3.org/2000/svg" xmlns:xlink="http://www.w3.org/1999/xlink" viewBox="0 0 150 150">
  <defs>
    <style>
      .cls-1 {
        fill: url(#linear-gradient);
      }

      .cls-2 {
        fill: #fff;
      }

      .cls-3 {
        stroke: url(#Degradado_sin_nombre_28);
        stroke-width: 1.85px;
      }

      .cls-3, .cls-4 {
        fill: none;
        stroke-miterlimit: 10;
      }

      .cls-4 {
        stroke: #fff;
        stroke-width: .75px;
      }

      .cls-5 {
        fill: url(#linear-gradient-3);
      }

      .cls-6 {
        fill: url(#linear-gradient-4);
      }

      .cls-7 {
        fill: url(#linear-gradient-2);
      }

      .cls-8 {
        fill: url(#linear-gradient-6);
      }

      .cls-9 {
        fill: url(#linear-gradient-7);
      }

      .cls-10 {
        fill: url(#linear-gradient-5);
      }

      .cls-11 {
        fill: url(#Degradado_sin_nombre_4);
      }

      .cls-12 {
        fill: url(#Degradado_sin_nombre_28-2);
      }

      .cls-13 {
        filter: url(#drop-shadow-28);
      }
    </style>
    <linearGradient id="linear-gradient" x1="8" y1="95.38" x2="130" y2="95.38" gradientUnits="userSpaceOnUse">
      <stop offset="0" stop-color="#0093ef"/>
      <stop offset=".29" stop-color="#00a3ef"/>
      <stop offset=".69" stop-color="#00b3ef"/>
      <stop offset="1" stop-color="#00b9ef"/>
    </linearGradient>
    <linearGradient id="linear-gradient-2" x1="21.22" y1="101.54" x2="114.95" y2="101.54" xlink:href="#linear-gradient"/>
    <linearGradient id="linear-gradient-3" x1="21.22" y1="76.67" x2="114.95" y2="76.67" xlink:href="#linear-gradient"/>
    <linearGradient id="linear-gradient-4" x1="-3427.89" y1="91.02" x2="-3385.81" y2="91.02" gradientTransform="translate(3487.37 182.04) scale(1 -1)" xlink:href="#linear-gradient"/>
    <linearGradient id="linear-gradient-5" x1="-3427.89" y1="96.76" x2="-3385.81" y2="96.76" gradientTransform="translate(3487.37 193.51) scale(1 -1)" xlink:href="#linear-gradient"/>
    <linearGradient id="linear-gradient-6" x1="-3427.89" y1="102.5" x2="-3385.81" y2="102.5" gradientTransform="translate(3487.37 204.99) scale(1 -1)" xlink:href="#linear-gradient"/>
    <linearGradient id="linear-gradient-7" x1="-3427.89" y1="110.15" x2="-3385.81" y2="110.15" gradientTransform="translate(3487.37 220.3) scale(1 -1)" xlink:href="#linear-gradient"/>
    <filter id="drop-shadow-28" filterUnits="userSpaceOnUse">
      <feOffset dx="0" dy="0"/>
      <feGaussianBlur result="blur" stdDeviation="4"/>
      <feFlood flood-color="#00dbff" flood-opacity=".75"/>
      <feComposite in2="blur" operator="in"/>
      <feComposite in="SourceGraphic"/>
    </filter>
    <linearGradient id="Degradado_sin_nombre_28" data-name="Degradado sin nombre 28" x1="106.25" y1="66.16" x2="106.25" y2="6.05" gradientUnits="userSpaceOnUse">
      <stop offset="0" stop-color="#fff" stop-opacity=".9"/>
      <stop offset="0" stop-color="#fff" stop-opacity=".84"/>
      <stop offset=".03" stop-color="#fff" stop-opacity=".73"/>
      <stop offset=".05" stop-color="#fff" stop-opacity=".65"/>
      <stop offset=".08" stop-color="#fff" stop-opacity=".58"/>
      <stop offset=".11" stop-color="#fff" stop-opacity=".53"/>
      <stop offset=".16" stop-color="#fff" stop-opacity=".51"/>
      <stop offset=".28" stop-color="#fff" stop-opacity=".5"/>
      <stop offset=".46" stop-color="#fdfdfd" stop-opacity=".48"/>
      <stop offset=".67" stop-color="#f9f9f9" stop-opacity=".43"/>
      <stop offset=".89" stop-color="#f3f3f3" stop-opacity=".35"/>
      <stop offset="1" stop-color="#efefef" stop-opacity=".3"/>
    </linearGradient>
    <linearGradient id="Degradado_sin_nombre_28-2" data-name="Degradado sin nombre 28" x1="72.08" y1="36.15" x2="140.35" y2="36.15" xlink:href="#Degradado_sin_nombre_28"/>
    <linearGradient id="Degradado_sin_nombre_4" data-name="Degradado sin nombre 4" x1="-3773.5" y1="-3802.5" x2="-3773.5" y2="-3802.5" gradientUnits="userSpaceOnUse">
      <stop offset="0" stop-color="#efefef" stop-opacity=".3"/>
      <stop offset=".11" stop-color="#f3f3f3" stop-opacity=".35"/>
      <stop offset=".33" stop-color="#f9f9f9" stop-opacity=".43"/>
      <stop offset=".54" stop-color="#fdfdfd" stop-opacity=".48"/>
      <stop offset=".72" stop-color="#fff" stop-opacity=".5"/>
      <stop offset=".77" stop-color="#fff" stop-opacity=".52"/>
      <stop offset=".83" stop-color="#fff" stop-opacity=".58"/>
      <stop offset=".89" stop-color="#fff" stop-opacity=".68"/>
      <stop offset=".97" stop-color="#fff" stop-opacity=".83"/>
      <stop offset="1" stop-color="#fff" stop-opacity=".9"/>
    </linearGradient>
  </defs>
  <g id="Layer_2" data-name="Layer 2">
    <rect class="cls-2" width="150" height="150"/>
  </g>
  <g id="Layer_1" data-name="Layer 1">
    <g>
      <g>
        <g>
          <rect class="cls-1" x="8" y="46.93" width="122" height="96.88"/>
          <rect class="cls-4" x="8" y="59.04" width="122" height=".65"/>
          <circle class="cls-2" cx="13.38" cy="52.32" r="1.79"/>
          <circle class="cls-2" cx="18.76" cy="52.32" r="1.79"/>
          <circle class="cls-2" cx="24.15" cy="52.32" r="1.79"/>
        </g>
        <g>
          <rect class="cls-7" x="21.22" y="78.58" width="93.73" height="45.91"/>
          <rect class="cls-5" x="21.22" y="74.76" width="93.73" height="3.83"/>
          <g>
            <path class="cls-2" d="m37.56,106.06c0-.83.57-1.42,1.35-1.42.83,0,1.35.6,1.35,1.42s-.53,1.42-1.35,1.42-1.35-.62-1.35-1.42Zm.57-3.28l-.32-11.01h2.2l-.32,11.01h-1.56Z"/>
            <rect class="cls-4" x="28.87" y="88.15" width="20.09" height="22.96"/>
          </g>
          <g>
            <rect class="cls-6" x="59.48" y="90.06" width="42.08" height="1.91" transform="translate(161.04 182.04) rotate(180)"/>
            <rect class="cls-10" x="59.48" y="95.8" width="42.08" height="1.91" transform="translate(161.04 193.51) rotate(180)"/>
            <rect class="cls-8" x="59.48" y="101.54" width="42.08" height="1.91" transform="translate(161.04 204.99) rotate(180)"/>
            <rect class="cls-9" x="59.48" y="109.19" width="42.08" height="1.91" transform="translate(161.04 220.3) rotate(180)"/>
          </g>
        </g>
      </g>
      <g class="cls-13">
        <path class="cls-3" d="m74.05,65.24h64.4c1.96,0,3.19-2.13,2.2-3.82l-30.62-52.7c-1.32-2.27-4.59-2.31-5.97-.08l-32.18,52.73c-1.04,1.7.19,3.87,2.17,3.87Z"/>
        <path class="cls-12" d="m72.96,63.78h66.52c.67,0,1.09-.73.75-1.31l-30.4-52.31c-1.25-2.16-4.35-2.2-5.66-.07l-31.96,52.37c-.35.58.06,1.32.74,1.32Z"/>
        <rect class="cls-2" x="103.7" y="21.01" width="4.71" height="26.31" rx="1.46" ry="1.46"/>
        <g>
          <path class="cls-11" d="m106.95,50.91c.8,0,1.46.66,1.46,1.46v2.26c0,.8-.66,1.46-1.46,1.46h-1.79c-.8,0-1.46-.66-1.46-1.46v-2.26c0-.8.66-1.46,1.46-1.46h1.79m0-.06h-1.79c-.84,0-1.53.68-1.53,1.53v2.26c0,.84.68,1.53,1.53,1.53h1.79c.84,0,1.53-.68,1.53-1.53v-2.26c0-.84-.68-1.53-1.53-1.53h0Z"/>
          <rect class="cls-2" x="103.7" y="50.91" width="4.71" height="5.18" rx="1.46" ry="1.46"/>
        </g>
      </g>
    </g>
  </g>
</svg>