<?xml version="1.0" encoding="UTF-8"?>
<svg xmlns="http://www.w3.org/2000/svg" xmlns:xlink="http://www.w3.org/1999/xlink" viewBox="0 0 150 150">
  <defs>
    <style>
      .cls-1 {
        fill: url(#linear-gradient);
      }

      .cls-2 {
        stroke: url(#linear-gradient-3);
      }

      .cls-2, .cls-3, .cls-4, .cls-5 {
        fill: none;
        stroke-miterlimit: 10;
        stroke-width: .78px;
      }

      .cls-3 {
        stroke: url(#linear-gradient-4);
      }

      .cls-4 {
        stroke: url(#linear-gradient-6);
      }

      .cls-5 {
        stroke: url(#linear-gradient-5);
      }

      .cls-6, .cls-7 {
        fill: #fff;
      }

      .cls-8 {
        fill: url(#Degradado_sin_nombre_243);
      }

      .cls-7 {
        mix-blend-mode: soft-light;
      }

      .cls-9 {
        fill: url(#linear-gradient-2);
      }

      .cls-10 {
        fill: url(#Degradado_sin_nombre_28);
      }

      .cls-11 {
        isolation: isolate;
      }

      .cls-12 {
        filter: url(#drop-shadow-28);
      }
    </style>
    <linearGradient id="linear-gradient" x1="9.2" y1="51.25" x2="117.84" y2="51.25" gradientUnits="userSpaceOnUse">
      <stop offset="0" stop-color="#ff2b2b"/>
      <stop offset=".05" stop-color="#fc272e"/>
      <stop offset=".42" stop-color="#ee1149"/>
      <stop offset=".74" stop-color="#e60459"/>
      <stop offset="1" stop-color="#e3005f"/>
    </linearGradient>
    <linearGradient id="linear-gradient-2" x1="20.74" y1="106.01" x2="106.38" y2="106.01" xlink:href="#linear-gradient"/>
    <linearGradient id="linear-gradient-3" x1="7.26" y1="17.91" x2="26.44" y2="17.91" xlink:href="#linear-gradient"/>
    <linearGradient id="linear-gradient-4" x1="-5383.44" y1="17.91" x2="-5364.26" y2="17.91" gradientTransform="translate(-5263.67) rotate(-180) scale(1 -1)" xlink:href="#linear-gradient"/>
    <linearGradient id="linear-gradient-5" x1="7.26" y1="-2703.62" x2="26.44" y2="-2703.62" gradientTransform="translate(0 -2578.41) scale(1 -1)" xlink:href="#linear-gradient"/>
    <linearGradient id="linear-gradient-6" x1="-5383.44" y1="-2703.62" x2="-5364.26" y2="-2703.62" gradientTransform="translate(-5263.67 -2578.41) rotate(-180)" xlink:href="#linear-gradient"/>
    <filter id="drop-shadow-28" filterUnits="userSpaceOnUse">
      <feOffset dx="0" dy="0"/>
      <feGaussianBlur result="blur" stdDeviation="4"/>
      <feFlood flood-color="#ff0019" flood-opacity=".75"/>
      <feComposite in2="blur" operator="in"/>
      <feComposite in="SourceGraphic"/>
    </filter>
    <linearGradient id="Degradado_sin_nombre_28" data-name="Degradado sin nombre 28" x1="74.83" y1="93.26" x2="119.71" y2="93.26" gradientUnits="userSpaceOnUse">
      <stop offset="0" stop-color="#fff" stop-opacity=".9"/>
      <stop offset="0" stop-color="#fff" stop-opacity=".84"/>
      <stop offset=".03" stop-color="#fff" stop-opacity=".73"/>
      <stop offset=".05" stop-color="#fff" stop-opacity=".65"/>
      <stop offset=".08" stop-color="#fff" stop-opacity=".58"/>
      <stop offset=".11" stop-color="#fff" stop-opacity=".53"/>
      <stop offset=".16" stop-color="#fff" stop-opacity=".51"/>
      <stop offset=".28" stop-color="#fff" stop-opacity=".5"/>
      <stop offset=".46" stop-color="#fdfdfd" stop-opacity=".48"/>
      <stop offset=".67" stop-color="#f9f9f9" stop-opacity=".43"/>
      <stop offset=".89" stop-color="#f3f3f3" stop-opacity=".35"/>
      <stop offset="1" stop-color="#efefef" stop-opacity=".3"/>
    </linearGradient>
    <linearGradient id="Degradado_sin_nombre_243" data-name="Degradado sin nombre 243" x1="-5199.5" y1="-4134.5" x2="-5199.5" y2="-4134.5" gradientUnits="userSpaceOnUse">
      <stop offset="0" stop-color="#fff" stop-opacity=".9"/>
      <stop offset=".03" stop-color="#fff" stop-opacity=".83"/>
      <stop offset=".11" stop-color="#fff" stop-opacity=".68"/>
      <stop offset=".17" stop-color="#fff" stop-opacity=".58"/>
      <stop offset=".23" stop-color="#fff" stop-opacity=".52"/>
      <stop offset=".28" stop-color="#fff" stop-opacity=".5"/>
      <stop offset=".46" stop-color="#fdfdfd" stop-opacity=".48"/>
      <stop offset=".67" stop-color="#f9f9f9" stop-opacity=".43"/>
      <stop offset=".89" stop-color="#f3f3f3" stop-opacity=".35"/>
      <stop offset="1" stop-color="#efefef" stop-opacity=".3"/>
    </linearGradient>
  </defs>
  <g class="cls-11">
    <g id="Layer_2" data-name="Layer 2">
      <rect class="cls-6" width="150" height="150"/>
    </g>
    <g id="Layer_1" data-name="Layer 1">
      <g>
        <g id="_6VLvHW.tif" data-name="6VLvHW.tif">
          <g>
            <path class="cls-1" d="m63.45,83.89c-16.21,0-32.42-.02-48.64.02-2.12,0-3.53-.92-4.38-2.74-1.63-3.5-1.62-7.07-.11-10.6.85-1.98,2.33-3.14,4.64-2.96.8.06,1.61.01,2.41.01,1.41,0,1.44,0,1.46-1.47.03-1.95.23-3.88.59-5.79,2.37-12.66,9.29-22.08,20.42-28.46,3.83-2.19,7.93-3.73,12.23-4.66,1.04-.23,1.56-.64,1.84-1.72,1.05-3.97,5.25-6.96,9.56-6.95,4.29.01,8.42,3.07,9.44,7.09.25.99.75,1.33,1.66,1.54,13.41,3.14,23.59,10.49,29.66,23.05,2.04,4.22,3.15,8.74,3.58,13.41.07.72-.16.9-.88.89-6.13-.04-12.26-.03-18.39-.04-.3,0-.6.02-.9.05-.88.1-1.28.68-1.33,1.5-.04.78.61,1.46,1.43,1.51.57.04,1.14.02,1.71.02,7.3,0,14.6.05,21.91-.02,3.14-.03,4.44.43,5.75,4.12,1.09,3.07.91,6.2-.41,9.21-.87,1.99-2.33,3-4.63,2.99-16.21-.05-32.42-.03-48.64-.03Z"/>
            <path class="cls-9" d="m63.52,91.71c12.53,0,25.05,0,37.58,0,1.2,0,2.34.18,3.34.88,1.41.97,2.21,2.3,1.85,4.03-1.03,4.87-2.73,9.5-5.23,13.83-1.69,2.92-4.38,4.55-7.34,5.81-4.73,2.01-9.61,3.51-14.76,3.96-3.01.26-5.89,0-8.26-2.21-.68-.64-1.47-1.16-2.22-1.73-2.86-2.17-6.22-2.21-9.1-.1-.65.47-1.33.92-1.91,1.47-2.33,2.22-5.13,2.9-8.24,2.62-6.83-.61-13.22-2.66-19.2-5.97-2.39-1.32-3.87-3.46-5.08-5.81-1.83-3.56-3.19-7.28-4.07-11.19-.67-3.01,1.14-5.41,4.25-5.55,1.44-.06,2.88-.01,4.32-.01,11.36,0,22.71,0,34.07,0v-.02Zm-19.99,9.37c-2.32-.1-4.62-.04-6.84.73-1.26.44-1.62,1.16-1.41,2.49.4,2.56,2.15,4.04,4.3,5.05,2.88,1.35,5.96,1.72,9.11,1.25,1.73-.26,3.33-.89,4.43-2.32,2.14-2.79,2.19-5.22-1.94-6.29-2.51-.65-5.08-.79-7.65-.92Zm40.09,0c-.77.04-1.54.04-2.31.12-2.39.24-4.82.35-7.05,1.4-1.57.74-2.08,1.88-1.55,3.54.72,2.26,2.29,3.7,4.56,4.24,4.6,1.09,8.76.09,12.41-2.91.78-.64,1.41-1.41,1.77-2.39.74-2,.37-2.88-1.67-3.45-2.01-.57-4.09-.66-6.17-.55Z"/>
          </g>
        </g>
        <g>
          <g>
            <polyline class="cls-2" points="7.65 27.09 7.65 9.12 26.44 9.12"/>
            <polyline class="cls-3" points="119.39 27.09 119.39 9.12 100.6 9.12"/>
          </g>
          <g>
            <polyline class="cls-5" points="7.65 116.04 7.65 134 26.44 134"/>
            <polyline class="cls-4" points="119.39 116.04 119.39 134 100.6 134"/>
          </g>
        </g>
      </g>
      <g class="cls-12">
        <g>
          <g>
            <ellipse class="cls-10" cx="97.27" cy="93.26" rx="22.44" ry="22.55"/>
            <path class="cls-7" d="m119.71,92.82c0,.22,0,.44-.01.66-.34-12.14-10.25-21.88-22.43-21.88s-22.08,9.74-22.43,21.88c0-.22-.01-.44-.01-.66,0-12.45,10.05-22.55,22.44-22.55s22.44,10.09,22.44,22.55Z"/>
            <path class="cls-8" d="m97.27,70.71c12.39,0,22.44,10.09,22.44,22.55s-10.05,22.55-22.44,22.55-22.44-10.09-22.44-22.55,10.05-22.55,22.44-22.55m0-.76c-12.79,0-23.2,10.45-23.2,23.3s10.41,23.3,23.2,23.3,23.2-10.45,23.2-23.3-10.41-23.3-23.2-23.3h0Z"/>
          </g>
          <polygon class="cls-6" points="135.65 132.13 131.65 135.53 111.78 111.94 113.7 110.32 115.78 108.54 135.65 132.13"/>
          <polygon class="cls-6" points="141 136.08 134.78 141.38 113.05 115.59 116.03 113.06 119.27 110.3 141 136.08"/>
        </g>
      </g>
    </g>
  </g>
</svg>