<?xml version="1.0" encoding="UTF-8"?>
<svg xmlns="http://www.w3.org/2000/svg" xmlns:xlink="http://www.w3.org/1999/xlink" viewBox="0 0 150 150">
  <defs>
    <style>
      .cls-1 {
        fill: url(#linear-gradient);
      }

      .cls-2, .cls-3 {
        fill: #fff;
      }

      .cls-4 {
        fill: url(#Degradado_sin_nombre_243);
      }

      .cls-3 {
        mix-blend-mode: soft-light;
      }

      .cls-5 {
        stroke-width: 2px;
      }

      .cls-5, .cls-6, .cls-7 {
        fill: none;
        stroke: #fff;
        stroke-miterlimit: 10;
      }

      .cls-6 {
        mix-blend-mode: multiply;
        stroke-width: .74px;
      }

      .cls-8 {
        fill: url(#linear-gradient-3);
      }

      .cls-9 {
        fill: url(#linear-gradient-4);
      }

      .cls-10 {
        fill: url(#linear-gradient-2);
      }

      .cls-11 {
        fill: url(#linear-gradient-5);
      }

      .cls-12 {
        fill: url(#Degradado_sin_nombre_28);
      }

      .cls-13 {
        isolation: isolate;
      }

      .cls-14 {
        filter: url(#drop-shadow-28);
      }
    </style>
    <linearGradient id="linear-gradient" x1="29.16" y1="39.26" x2="93.56" y2="39.26" gradientUnits="userSpaceOnUse">
      <stop offset="0" stop-color="#fb8999"/>
      <stop offset=".05" stop-color="#fb8599"/>
      <stop offset=".42" stop-color="#fb6a99"/>
      <stop offset=".74" stop-color="#fb5a99"/>
      <stop offset="1" stop-color="#fb5599"/>
    </linearGradient>
    <linearGradient id="linear-gradient-2" x1="8.72" y1="106.22" x2="114" y2="106.22" xlink:href="#linear-gradient"/>
    <linearGradient id="linear-gradient-3" x1="60.23" y1="81.84" x2="63.5" y2="81.84" xlink:href="#linear-gradient"/>
    <linearGradient id="linear-gradient-4" x1="60.23" y1="90.73" x2="63.5" y2="90.73" xlink:href="#linear-gradient"/>
    <linearGradient id="linear-gradient-5" x1="60.23" y1="102.59" x2="63.5" y2="102.59" xlink:href="#linear-gradient"/>
    <filter id="drop-shadow-28" filterUnits="userSpaceOnUse">
      <feOffset dx="0" dy="0"/>
      <feGaussianBlur result="blur" stdDeviation="4"/>
      <feFlood flood-color="#ff008c" flood-opacity=".75"/>
      <feComposite in2="blur" operator="in"/>
      <feComposite in="SourceGraphic"/>
    </filter>
    <linearGradient id="Degradado_sin_nombre_28" data-name="Degradado sin nombre 28" x1="86.7" y1="73.48" x2="141.44" y2="73.48" gradientUnits="userSpaceOnUse">
      <stop offset="0" stop-color="#fff" stop-opacity=".9"/>
      <stop offset="0" stop-color="#fff" stop-opacity=".84"/>
      <stop offset=".03" stop-color="#fff" stop-opacity=".73"/>
      <stop offset=".05" stop-color="#fff" stop-opacity=".65"/>
      <stop offset=".08" stop-color="#fff" stop-opacity=".58"/>
      <stop offset=".11" stop-color="#fff" stop-opacity=".53"/>
      <stop offset=".16" stop-color="#fff" stop-opacity=".51"/>
      <stop offset=".28" stop-color="#fff" stop-opacity=".5"/>
      <stop offset=".46" stop-color="#fdfdfd" stop-opacity=".48"/>
      <stop offset=".67" stop-color="#f9f9f9" stop-opacity=".43"/>
      <stop offset=".89" stop-color="#f3f3f3" stop-opacity=".35"/>
      <stop offset="1" stop-color="#efefef" stop-opacity=".3"/>
    </linearGradient>
    <linearGradient id="Degradado_sin_nombre_243" data-name="Degradado sin nombre 243" x1="-4113.5" y1="-3802.5" x2="-4113.5" y2="-3802.5" gradientUnits="userSpaceOnUse">
      <stop offset="0" stop-color="#fff" stop-opacity=".9"/>
      <stop offset=".03" stop-color="#fff" stop-opacity=".83"/>
      <stop offset=".11" stop-color="#fff" stop-opacity=".68"/>
      <stop offset=".17" stop-color="#fff" stop-opacity=".58"/>
      <stop offset=".23" stop-color="#fff" stop-opacity=".52"/>
      <stop offset=".28" stop-color="#fff" stop-opacity=".5"/>
      <stop offset=".46" stop-color="#fdfdfd" stop-opacity=".48"/>
      <stop offset=".67" stop-color="#f9f9f9" stop-opacity=".43"/>
      <stop offset=".89" stop-color="#f3f3f3" stop-opacity=".35"/>
      <stop offset="1" stop-color="#efefef" stop-opacity=".3"/>
    </linearGradient>
  </defs>
  <g class="cls-13">
    <g id="Layer_2" data-name="Layer 2">
      <rect class="cls-2" width="150" height="150"/>
    </g>
    <g id="Layer_1" data-name="Layer 1">
      <g>
        <g>
          <circle class="cls-1" cx="61.36" cy="39.26" r="32.2"/>
          <circle class="cls-7" cx="61.36" cy="39.26" r="27.89"/>
        </g>
        <g>
          <path class="cls-10" d="m53.09,69.99h16.54c24.49,0,44.37,19.88,44.37,44.37v22.48c0,3.09-2.51,5.6-5.6,5.6H8.72v-28.09c0-24.49,19.88-44.37,44.37-44.37Z"/>
          <path class="cls-7" d="m81.07,130.69v.78c0,3.95-3.26,7.15-7.3,7.15H8.72v-23.39c0-9.51,2.85-18.38,7.74-25.8,3.23-4.89,7.36-9.14,12.13-12.58l27.51,46.68h17.67c4.03,0,7.3,3.2,7.3,7.15Z"/>
        </g>
        <rect class="cls-6" x="71.69" y="102.59" width="21.29" height="4.44"/>
        <ellipse class="cls-8" cx="61.87" cy="81.84" rx="1.63" ry="1.48"/>
        <ellipse class="cls-9" cx="61.87" cy="90.73" rx="1.63" ry="1.48"/>
        <ellipse class="cls-11" cx="61.87" cy="102.59" rx="1.63" ry="1.48"/>
        <path class="cls-7" d="m76.61,30.08v6.92c0,9.77-6.25,18.45-15.53,21.54h0s0,0,0,0c-9.27-3.09-15.53-11.77-15.53-21.54v-6.92l15.53-7.76,15.53,7.76Z"/>
        <g class="cls-14">
          <g>
            <circle class="cls-12" cx="114.07" cy="73.48" r="27.37"/>
            <path class="cls-3" d="m141.44,72.95c0,.27,0,.54-.02.81-.42-14.74-12.51-26.57-27.36-26.57s-26.94,11.82-27.36,26.57c-.01-.27-.02-.54-.02-.81,0-15.12,12.25-27.37,27.37-27.37s27.37,12.25,27.37,27.37Z"/>
            <path class="cls-4" d="m114.07,46.11c15.12,0,27.37,12.26,27.37,27.37s-12.26,27.37-27.37,27.37-27.37-12.26-27.37-27.37,12.26-27.37,27.37-27.37m0-.78c-15.52,0-28.16,12.63-28.16,28.16s12.63,28.16,28.16,28.16,28.16-12.63,28.16-28.16-12.63-28.16-28.16-28.16h0Z"/>
            <polyline class="cls-5" points="100.37 73.41 109.42 82.47 127.53 64.36"/>
          </g>
        </g>
      </g>
    </g>
  </g>
</svg>