<?xml version="1.0" encoding="UTF-8"?>
<svg xmlns="http://www.w3.org/2000/svg" xmlns:xlink="http://www.w3.org/1999/xlink" viewBox="0 0 150 150">
  <defs>
    <style>
      .cls-1, .cls-2, .cls-3, .cls-4, .cls-5 {
        fill: none;
      }

      .cls-6 {
        fill: url(#linear-gradient);
      }

      .cls-2 {
        stroke-linecap: square;
      }

      .cls-2, .cls-3, .cls-4, .cls-5 {
        stroke: #fff;
        stroke-miterlimit: 10;
      }

      .cls-7 {
        fill: #fff;
      }

      .cls-3, .cls-4, .cls-5 {
        stroke-linecap: round;
      }

      .cls-4 {
        stroke-width: 1.96px;
      }

      .cls-8 {
        fill: url(#linear-gradient-3);
      }

      .cls-9 {
        fill: url(#linear-gradient-2);
      }

      .cls-10 {
        fill: url(#Degradado_sin_nombre_15);
      }

      .cls-11 {
        opacity: .46;
      }

      .cls-5 {
        stroke-width: 2.47px;
      }

      .cls-12 {
        filter: url(#drop-shadow-28);
      }
    </style>
    <linearGradient id="linear-gradient" x1="15.27" y1="114.87" x2="107.75" y2="114.87" gradientUnits="userSpaceOnUse">
      <stop offset="0" stop-color="#ffb400"/>
      <stop offset=".18" stop-color="#ffbc00"/>
      <stop offset=".64" stop-color="#fc0"/>
      <stop offset="1" stop-color="#ffd200"/>
    </linearGradient>
    <linearGradient id="linear-gradient-2" x1="29.11" y1="54.77" x2="93.91" y2="54.77" xlink:href="#linear-gradient"/>
    <linearGradient id="linear-gradient-3" x1="17.48" y1="31.64" x2="105.54" y2="31.64" xlink:href="#linear-gradient"/>
    <filter id="drop-shadow-28" filterUnits="userSpaceOnUse">
      <feOffset dx="0" dy="0"/>
      <feGaussianBlur result="blur" stdDeviation="4"/>
      <feFlood flood-color="#ffe600" flood-opacity=".75"/>
      <feComposite in2="blur" operator="in"/>
      <feComposite in="SourceGraphic"/>
    </filter>
    <linearGradient id="Degradado_sin_nombre_15" data-name="Degradado sin nombre 15" x1="75.39" y1="72.18" x2="139.4" y2="72.18" gradientUnits="userSpaceOnUse">
      <stop offset="0" stop-color="#fff" stop-opacity=".9"/>
      <stop offset=".03" stop-color="#fff" stop-opacity=".79"/>
      <stop offset=".07" stop-color="#fff" stop-opacity=".69"/>
      <stop offset=".11" stop-color="#fff" stop-opacity=".6"/>
      <stop offset=".15" stop-color="#fff" stop-opacity=".55"/>
      <stop offset=".2" stop-color="#fff" stop-opacity=".51"/>
      <stop offset=".28" stop-color="#fff" stop-opacity=".5"/>
      <stop offset=".46" stop-color="#fdfdfd" stop-opacity=".48"/>
      <stop offset=".67" stop-color="#f9f9f9" stop-opacity=".43"/>
      <stop offset=".89" stop-color="#f3f3f3" stop-opacity=".35"/>
      <stop offset="1" stop-color="#efefef" stop-opacity=".3"/>
    </linearGradient>
  </defs>
  <g id="Layer_2" data-name="Layer 2">
    <rect class="cls-7" width="150" height="150"/>
  </g>
  <g id="Layer_1" data-name="Layer 1">
    <g>
      <g>
        <path class="cls-6" d="m38.56,90.25h45.91c12.85,0,23.29,10.43,23.29,23.29v25.97H15.27v-25.97c0-12.85,10.43-23.29,23.29-23.29Z"/>
        <path class="cls-9" d="m93.81,50.57l-1.21,11.99c-1.21,12.43-14.89,22.19-31.27,22.19h-.07c-16.38-.16-29.57-9.65-30.84-22.19l-1.21-11.99c-.71-6.7,2.2-13.14,8.23-18.1,5.96-4.96,14.11-7.69,22.9-7.69h2.34c8.79,0,16.95,2.73,22.9,7.69,6.03,4.96,8.93,11.39,8.23,18.1Z"/>
        <path class="cls-8" d="m105.54,45.45v5.9c0,1.07-.86,1.93-1.93,1.93H19.41c-1.07,0-1.93-.86-1.93-1.93v-5.9c0-1.07.86-1.93,1.93-1.93h5.38c3.15-15.55,15.93-27.6,31.85-29.66v-1.93c0-1.07.86-1.93,1.93-1.93h5.88c1.07,0,1.93.86,1.93,1.93v1.93c15.93,2.06,28.71,14.11,31.85,29.66h5.38c1.07,0,1.93.86,1.93,1.93Z"/>
        <path class="cls-5" d="m56.99,10.33h9.05v21.6c0,.84-.68,1.52-1.52,1.52h-6.02c-.84,0-1.52-.68-1.52-1.52V10.33h0Z" transform="translate(123.02 43.78) rotate(180)"/>
        <polygon class="cls-3" points="74.64 91.25 61.51 113.99 48.38 91.25 74.64 91.25"/>
        <line class="cls-3" x1="91.16" y1="126.93" x2="31.86" y2="126.93"/>
        <line class="cls-3" x1="90.91" y1="53.56" x2="31.61" y2="53.56"/>
        <line class="cls-2" x1="61.76" y1="138.49" x2="61.76" y2="112.36"/>
        <g>
          <rect class="cls-5" x="40.9" y="38.48" width="1.01" height="1.01"/>
          <rect class="cls-5" x="81.11" y="38.48" width="1.01" height="1.01"/>
        </g>
      </g>
      <g class="cls-12">
        <polyline class="cls-4" points="93.41 72.18 102.73 81.51 121.39 62.86"/>
        <path class="cls-10" d="m139.4,50.85v14.27c0,20.15-12.89,38.03-32,44.4h0s0,0,0,0c-19.11-6.37-32-24.26-32-44.4v-14.27l32-16,32,16Z"/>
        <path class="cls-7" d="m77.75,50.85c9.9-5.26,21.82-11.3,31.84-16.34,0,0,.17-.08.17-.08l.17.08c3.98,2.01,11.99,6.06,15.96,8.08,3.96,2.02,11.94,6.17,15.87,8.26-4.05-1.9-12.12-5.78-16.13-7.74-4.01-1.97-12.05-5.94-16.04-7.92,0,0,.33,0,.33,0-10.04,4.99-22.02,10.9-32.17,15.67h0Z"/>
        <g class="cls-11">
          <path class="cls-7" d="m108.54,34.84l32,16v14.27c0,20.15-12.89,38.03-32,44.4-19.11-6.37-32-24.26-32-44.4v-14.27l32-16m0-1.12c-.17,0-.34.04-.5.12l-32,16c-.38.19-.62.58-.62,1v14.27c0,20.66,13.17,38.94,32.77,45.47.12.04.24.06.36.06s.24-.02.36-.06c19.6-6.53,32.77-24.81,32.77-45.47v-14.27c0-.43-.24-.81-.62-1l-32-16c-.16-.08-.33-.12-.5-.12h0Z"/>
        </g>
        <path class="cls-1" d="m140.55,50.85v14.27c0,20.15-12.89,38.03-32,44.4h0s0,0,0,0c-19.11-6.37-32-24.26-32-44.4v-14.27l32-16,32,16Z"/>
      </g>
    </g>
  </g>
</svg>