<?xml version="1.0" encoding="UTF-8"?>
<svg xmlns="http://www.w3.org/2000/svg" xmlns:xlink="http://www.w3.org/1999/xlink" viewBox="0 0 150 150">
  <defs>
    <style>
      .cls-1, .cls-2, .cls-3, .cls-4 {
        fill: none;
      }

      .cls-5 {
        fill: url(#Degradado_sin_nombre_3-9);
      }

      .cls-5, .cls-6, .cls-7, .cls-8, .cls-9, .cls-10, .cls-11, .cls-12, .cls-13, .cls-14 {
        mix-blend-mode: hard-light;
      }

      .cls-6 {
        fill: url(#Degradado_sin_nombre_3-7);
      }

      .cls-7 {
        fill: url(#Degradado_sin_nombre_3-4);
      }

      .cls-8 {
        fill: url(#Degradado_sin_nombre_3-5);
      }

      .cls-9 {
        fill: url(#Degradado_sin_nombre_3-2);
      }

      .cls-15 {
        fill: url(#linear-gradient);
      }

      .cls-2 {
        stroke-linecap: round;
        stroke-width: 2.23px;
      }

      .cls-2, .cls-3, .cls-4 {
        stroke: #fff;
        stroke-miterlimit: 10;
      }

      .cls-16 {
        fill: #fff;
      }

      .cls-10 {
        fill: url(#Degradado_sin_nombre_26318);
      }

      .cls-11 {
        fill: url(#Degradado_sin_nombre_26318-2);
      }

      .cls-17 {
        fill: url(#Degradado_sin_nombre_3-8);
      }

      .cls-18 {
        fill: url(#Degradado_sin_nombre_3-3);
      }

      .cls-19 {
        fill: url(#Degradado_sin_nombre_3-6);
      }

      .cls-20 {
        mix-blend-mode: overlay;
      }

      .cls-3 {
        mix-blend-mode: multiply;
        stroke-width: .74px;
      }

      .cls-21 {
        fill: url(#linear-gradient-3);
      }

      .cls-22 {
        fill: url(#linear-gradient-2);
      }

      .cls-23 {
        fill: url(#Degradado_sin_nombre_58);
      }

      .cls-24 {
        fill: url(#Degradado_sin_nombre_15);
      }

      .cls-25 {
        opacity: .46;
      }

      .cls-26 {
        opacity: .6;
      }

      .cls-27 {
        opacity: .5;
      }

      .cls-28 {
        fill: url(#Degradado_sin_nombre_3);
      }

      .cls-12 {
        fill: url(#Degradado_sin_nombre_3-15);
      }

      .cls-13 {
        fill: url(#Degradado_sin_nombre_3-11);
      }

      .cls-14 {
        fill: url(#Degradado_sin_nombre_3-13);
      }

      .cls-29 {
        isolation: isolate;
      }

      .cls-30 {
        fill: url(#Degradado_sin_nombre_58-2);
      }

      .cls-31 {
        fill: url(#Degradado_sin_nombre_3-10);
      }

      .cls-32 {
        fill: url(#Degradado_sin_nombre_3-12);
      }

      .cls-33 {
        fill: url(#Degradado_sin_nombre_3-14);
      }

      .cls-34 {
        filter: url(#drop-shadow-29);
      }
    </style>
    <linearGradient id="linear-gradient" x1="26.25" y1="47.36" x2="84.97" y2="47.36" gradientUnits="userSpaceOnUse">
      <stop offset="0" stop-color="#ff2b2b"/>
      <stop offset=".05" stop-color="#fc272e"/>
      <stop offset=".42" stop-color="#ee1149"/>
      <stop offset=".74" stop-color="#e60459"/>
      <stop offset="1" stop-color="#e3005f"/>
    </linearGradient>
    <linearGradient id="linear-gradient-2" x1="7.6" y1="108.43" x2="103.62" y2="108.43" xlink:href="#linear-gradient"/>
    <linearGradient id="linear-gradient-3" x1="7.6" y1="132.15" x2="73.57" y2="132.15" xlink:href="#linear-gradient"/>
    <radialGradient id="Degradado_sin_nombre_26318" data-name="Degradado sin nombre 26318" cx="-959.07" cy="-14489.42" fx="-959.07" fy="-14489.42" r="11.19" gradientTransform="translate(-1370.55 -12179.15) rotate(-166.44) scale(4.46 .8)" gradientUnits="userSpaceOnUse">
      <stop offset="0" stop-color="#fff" stop-opacity=".6"/>
      <stop offset=".15" stop-color="#fff" stop-opacity=".45"/>
      <stop offset=".33" stop-color="#fff" stop-opacity=".29"/>
      <stop offset=".52" stop-color="#fff" stop-opacity=".16"/>
      <stop offset=".69" stop-color="#fff" stop-opacity=".07"/>
      <stop offset=".86" stop-color="#fff" stop-opacity=".02"/>
      <stop offset="1" stop-color="#fff" stop-opacity="0"/>
    </radialGradient>
    <radialGradient id="Degradado_sin_nombre_58" data-name="Degradado sin nombre 58" cx="-830.29" cy="-26323.73" fx="-830.29" fy="-26323.73" r="7.09" gradientTransform="translate(-676.08 -17174.83) rotate(-166.44) scale(5.75 .63)" gradientUnits="userSpaceOnUse">
      <stop offset="0" stop-color="#fff"/>
      <stop offset="0" stop-color="#fff" stop-opacity=".96"/>
      <stop offset=".05" stop-color="#fff" stop-opacity=".78"/>
      <stop offset=".09" stop-color="#fff" stop-opacity=".61"/>
      <stop offset=".14" stop-color="#fff" stop-opacity=".47"/>
      <stop offset=".2" stop-color="#fff" stop-opacity=".34"/>
      <stop offset=".25" stop-color="#fff" stop-opacity=".23"/>
      <stop offset=".32" stop-color="#fff" stop-opacity=".15"/>
      <stop offset=".4" stop-color="#fff" stop-opacity=".08"/>
      <stop offset=".49" stop-color="#fff" stop-opacity=".03"/>
      <stop offset=".63" stop-color="#fff" stop-opacity="0"/>
      <stop offset="1" stop-color="#fff" stop-opacity="0"/>
    </radialGradient>
    <radialGradient id="Degradado_sin_nombre_3" data-name="Degradado sin nombre 3" cx="43858.56" cy="-1738.59" fx="43858.56" fy="-1738.59" r="10.35" gradientTransform="translate(-8770.88 556.52) rotate(17.96) scale(.19 1.85) skewX(-.09)" gradientUnits="userSpaceOnUse">
      <stop offset="0" stop-color="#fff"/>
      <stop offset=".05" stop-color="#fff" stop-opacity=".89"/>
      <stop offset=".15" stop-color="#fff" stop-opacity=".69"/>
      <stop offset=".26" stop-color="#fff" stop-opacity=".5"/>
      <stop offset=".37" stop-color="#fff" stop-opacity=".35"/>
      <stop offset=".48" stop-color="#fff" stop-opacity=".22"/>
      <stop offset=".6" stop-color="#fff" stop-opacity=".12"/>
      <stop offset=".72" stop-color="#fff" stop-opacity=".05"/>
      <stop offset=".85" stop-color="#fff" stop-opacity=".01"/>
      <stop offset="1" stop-color="#fff" stop-opacity="0"/>
    </radialGradient>
    <radialGradient id="Degradado_sin_nombre_3-2" data-name="Degradado sin nombre 3" cx="43859.53" cy="-671.45" fx="43859.53" fy="-671.45" r="3.59" gradientTransform="translate(-7984.41 -1868.55) rotate(17.96) scale(.19 1) skewX(-.05)" xlink:href="#Degradado_sin_nombre_3"/>
    <radialGradient id="Degradado_sin_nombre_3-3" data-name="Degradado sin nombre 3" cx="14926.5" cy="-2276.55" fx="14926.5" fy="-2276.55" r="10.36" gradientTransform="translate(3049.31 4312.32) rotate(-72.03) scale(.21 1.81)" xlink:href="#Degradado_sin_nombre_3"/>
    <radialGradient id="Degradado_sin_nombre_3-4" data-name="Degradado sin nombre 3" cx="14926.49" cy="-1215.36" fx="14926.49" fy="-1215.36" r="3.59" gradientTransform="translate(279.06 3413.65) rotate(-72.03) scale(.21 1)" xlink:href="#Degradado_sin_nombre_3"/>
    <radialGradient id="Degradado_sin_nombre_3-5" data-name="Degradado sin nombre 3" cx="43859.53" cy="-671.45" fx="43859.53" fy="-671.45" r="3.59" gradientTransform="translate(-7984.41 -1868.55) rotate(17.96) scale(.19 1) skewX(-.05)" xlink:href="#Degradado_sin_nombre_3"/>
    <radialGradient id="Degradado_sin_nombre_3-6" data-name="Degradado sin nombre 3" cx="14926.5" cy="-2276.55" fx="14926.5" fy="-2276.55" r="10.36" gradientTransform="translate(3049.31 4312.32) rotate(-72.03) scale(.21 1.81)" xlink:href="#Degradado_sin_nombre_3"/>
    <radialGradient id="Degradado_sin_nombre_3-7" data-name="Degradado sin nombre 3" cx="14926.49" cy="-1215.36" fx="14926.49" fy="-1215.36" r="3.59" gradientTransform="translate(279.06 3413.65) rotate(-72.03) scale(.21 1)" xlink:href="#Degradado_sin_nombre_3"/>
    <filter id="drop-shadow-29" filterUnits="userSpaceOnUse">
      <feOffset dx="0" dy="0"/>
      <feGaussianBlur result="blur" stdDeviation="4.54"/>
      <feFlood flood-color="#fb8999" flood-opacity=".75"/>
      <feComposite in2="blur" operator="in"/>
      <feComposite in="SourceGraphic"/>
    </filter>
    <linearGradient id="Degradado_sin_nombre_15" data-name="Degradado sin nombre 15" x1="78.03" y1="46.39" x2="139.81" y2="46.39" gradientUnits="userSpaceOnUse">
      <stop offset="0" stop-color="#fff" stop-opacity=".9"/>
      <stop offset=".03" stop-color="#fff" stop-opacity=".79"/>
      <stop offset=".07" stop-color="#fff" stop-opacity=".69"/>
      <stop offset=".11" stop-color="#fff" stop-opacity=".6"/>
      <stop offset=".15" stop-color="#fff" stop-opacity=".55"/>
      <stop offset=".2" stop-color="#fff" stop-opacity=".51"/>
      <stop offset=".28" stop-color="#fff" stop-opacity=".5"/>
      <stop offset=".46" stop-color="#fdfdfd" stop-opacity=".48"/>
      <stop offset=".67" stop-color="#f9f9f9" stop-opacity=".43"/>
      <stop offset=".89" stop-color="#f3f3f3" stop-opacity=".35"/>
      <stop offset="1" stop-color="#efefef" stop-opacity=".3"/>
    </linearGradient>
    <radialGradient id="Degradado_sin_nombre_26318-2" data-name="Degradado sin nombre 26318" cx="121.97" cy="-9918.86" fx="121.97" fy="-9918.86" r="17.22" gradientTransform="translate(1233.65 -7778) rotate(-175.42) scale(4.46 .8)" xlink:href="#Degradado_sin_nombre_26318"/>
    <radialGradient id="Degradado_sin_nombre_58-2" data-name="Degradado sin nombre 58" cx="8.15" cy="-20537.02" fx="8.15" fy="-20537.02" r="10.91" gradientTransform="translate(1139.85 -12820.84) rotate(-175.42) scale(5.75 .63)" xlink:href="#Degradado_sin_nombre_58"/>
    <radialGradient id="Degradado_sin_nombre_3-8" data-name="Degradado sin nombre 3" cx="16929.96" cy="-3498.35" fx="16929.96" fy="-3498.35" r="15.93" gradientTransform="translate(-4088.09 5956.67) rotate(8.98) scale(.19 1.85) skewX(-.09)" xlink:href="#Degradado_sin_nombre_3"/>
    <radialGradient id="Degradado_sin_nombre_3-9" data-name="Degradado sin nombre 3" cx="16930.84" cy="-3931.57" fx="16930.84" fy="-3931.57" r="5.52" gradientTransform="translate(-3689.79 3438.57) rotate(8.98) scale(.19 1) skewX(-.05)" xlink:href="#Degradado_sin_nombre_3"/>
    <radialGradient id="Degradado_sin_nombre_3-10" data-name="Degradado sin nombre 3" cx="30383.15" cy="-5078.68" fx="30383.15" fy="-5078.68" r="15.93" gradientTransform="translate(8173.45 7821.47) rotate(-81.01) scale(.21 1.81)" xlink:href="#Degradado_sin_nombre_3"/>
    <radialGradient id="Degradado_sin_nombre_3-11" data-name="Degradado sin nombre 3" cx="30383.24" cy="-6296.08" fx="30383.24" fy="-6296.08" r="5.52" gradientTransform="translate(5296.88 7366.21) rotate(-81.01) scale(.21 1)" xlink:href="#Degradado_sin_nombre_3"/>
    <radialGradient id="Degradado_sin_nombre_3-12" data-name="Degradado sin nombre 3" cx="16929.96" cy="-3498.35" fx="16929.96" fy="-3498.35" r="15.93" gradientTransform="translate(-4088.09 5956.67) rotate(8.98) scale(.19 1.85) skewX(-.09)" xlink:href="#Degradado_sin_nombre_3"/>
    <radialGradient id="Degradado_sin_nombre_3-13" data-name="Degradado sin nombre 3" cx="16930.84" cy="-3931.57" fx="16930.84" fy="-3931.57" r="5.52" gradientTransform="translate(-3689.79 3438.57) rotate(8.98) scale(.19 1) skewX(-.05)" xlink:href="#Degradado_sin_nombre_3"/>
    <radialGradient id="Degradado_sin_nombre_3-14" data-name="Degradado sin nombre 3" cx="30383.15" cy="-5078.68" fx="30383.15" fy="-5078.68" r="15.93" gradientTransform="translate(8173.45 7821.47) rotate(-81.01) scale(.21 1.81)" xlink:href="#Degradado_sin_nombre_3"/>
    <radialGradient id="Degradado_sin_nombre_3-15" data-name="Degradado sin nombre 3" cx="30383.24" cy="-6296.08" fx="30383.24" fy="-6296.08" r="5.52" gradientTransform="translate(5296.88 7366.21) rotate(-81.01) scale(.21 1)" xlink:href="#Degradado_sin_nombre_3"/>
  </defs>
  <g class="cls-29">
    <g id="Layer_2" data-name="Layer 2">
      <rect class="cls-16" width="150" height="150"/>
    </g>
    <g id="Layer_1" data-name="Layer 1">
      <g>
        <g>
          <circle class="cls-15" cx="55.61" cy="47.36" r="29.36"/>
          <circle class="cls-4" cx="55.61" cy="47.36" r="25.44"/>
        </g>
        <g>
          <path class="cls-22" d="m51.97,75.39h7.28c24.49,0,44.37,19.88,44.37,44.37v21.71H7.6v-21.71c0-24.49,19.88-44.37,44.37-44.37Z"/>
          <path class="cls-21" d="m7.6,125.39h62.66c1.82,0,3.3,1.48,3.3,3.3v6.91c0,1.82-1.48,3.3-3.3,3.3H7.6v-13.51h0Z"/>
          <path class="cls-4" d="m75.59,133.67v.72c0,3.61-2.98,6.52-6.65,6.52H9.6v-21.33c0-8.67,2.6-16.76,7.06-23.53,2.95-4.46,6.71-8.34,11.06-11.48l25.09,42.58h16.12c3.68,0,6.65,2.92,6.65,6.52Z"/>
        </g>
        <rect class="cls-3" x="65.03" y="105.12" width="19.42" height="4.05"/>
        <ellipse class="cls-4" cx="56.07" cy="86.2" rx="1.49" ry="1.35"/>
        <ellipse class="cls-4" cx="56.07" cy="94.31" rx="1.49" ry="1.35"/>
        <ellipse class="cls-4" cx="56.07" cy="105.12" rx="1.49" ry="1.35"/>
        <g class="cls-20">
          <g class="cls-26">
            <path class="cls-10" d="m33.67,30.68c1.15-4.79,23.82-3.43,50.62,3.04,26.8,6.46,47.59,15.58,46.44,20.37-1.15,4.79-23.82,3.43-50.62-3.04-26.8-6.46-47.59-15.58-46.44-20.37Z"/>
            <path class="cls-23" d="m42.56,32.82c.58-2.39,18.79-.06,40.68,5.22,21.89,5.28,39.17,11.5,38.59,13.9-.58,2.39-18.79.06-40.68-5.22-21.89-5.28-39.17-11.5-38.59-13.9Z"/>
          </g>
          <g>
            <g>
              <path class="cls-28" d="m96.14,45.41c-3.27,10.07-6.75,17.97-7.78,17.64-1.03-.33.79-8.77,4.06-18.84,3.27-10.07,6.75-17.97,7.78-17.64,1.03.33-.79,8.77-4.06,18.84Z"/>
              <path class="cls-9" d="m94.93,45.02c-.61,1.88-1.4,3.32-1.75,3.2-.36-.12-.15-1.74.46-3.62.61-1.88,1.4-3.32,1.75-3.2.36.12.15,1.74-.46,3.62Z"/>
            </g>
            <g>
              <path class="cls-18" d="m94.96,42.73c9.86,3.2,17.55,6.72,17.18,7.87-.37,1.15-8.67-.51-18.53-3.71-9.86-3.2-17.55-6.72-17.18-7.87.37-1.15,8.67.51,18.53,3.71Z"/>
              <path class="cls-7" d="m94.52,44.09c1.88.61,3.31,1.43,3.18,1.83-.13.4-1.76.22-3.65-.39-1.88-.61-3.31-1.43-3.18-1.83.13-.4,1.76-.22,3.65.39Z"/>
            </g>
          </g>
          <g class="cls-27">
            <g>
              <path class="cls-28" d="m96.14,45.41c-3.27,10.07-6.75,17.97-7.78,17.64-1.03-.33.79-8.77,4.06-18.84,3.27-10.07,6.75-17.97,7.78-17.64,1.03.33-.79,8.77-4.06,18.84Z"/>
              <path class="cls-8" d="m94.93,45.02c-.61,1.88-1.4,3.32-1.75,3.2-.36-.12-.15-1.74.46-3.62.61-1.88,1.4-3.32,1.75-3.2.36.12.15,1.74-.46,3.62Z"/>
            </g>
            <g>
              <path class="cls-19" d="m94.96,42.73c9.86,3.2,17.55,6.72,17.18,7.87-.37,1.15-8.67-.51-18.53-3.71-9.86-3.2-17.55-6.72-17.18-7.87.37-1.15,8.67.51,18.53,3.71Z"/>
              <path class="cls-6" d="m94.52,44.09c1.88.61,3.31,1.43,3.18,1.83-.13.4-1.76.22-3.65-.39-1.88-.61-3.31-1.43-3.18-1.83.13-.4,1.76-.22,3.65.39Z"/>
            </g>
          </g>
        </g>
      </g>
      <g>
        <g class="cls-34">
          <polyline class="cls-2" points="95.42 46.39 104.42 55.39 122.42 37.38"/>
          <path class="cls-24" d="m139.81,25.79v13.77c0,19.45-12.44,36.71-30.89,42.86h0s0,0,0,0c-18.45-6.15-30.89-23.41-30.89-42.86v-13.77l30.89-15.45,30.89,15.45Z"/>
          <path class="cls-16" d="m80.31,25.79c9.98-5.37,20.55-10.7,30.7-15.82,0,0,.19-.1.19-.1,0,0,.19.1.19.1,10.16,5.13,20.71,10.44,30.7,15.82-10.29-4.76-20.89-10.02-31.08-15.07,0,0,.38,0,.38,0-10.19,5.05-20.78,10.3-31.08,15.07h0Z"/>
          <g class="cls-25">
            <path class="cls-16" d="m110.02,10.35l30.89,15.45v13.77c0,19.44-12.44,36.71-30.89,42.86-18.45-6.15-30.89-23.41-30.89-42.86v-13.77l30.89-15.45m0-1.27c-.2,0-.39.04-.57.13l-30.89,15.45c-.43.22-.7.66-.7,1.14v13.77c0,20.02,12.76,37.73,31.76,44.07.13.04.27.07.4.07s.27-.02.4-.07c19-6.33,31.76-24.04,31.76-44.07v-13.77c0-.48-.27-.92-.7-1.14l-30.89-15.45c-.18-.09-.37-.13-.57-.13h0Z"/>
          </g>
          <path class="cls-1" d="m140.92,25.79v13.77c0,19.45-12.44,36.71-30.89,42.86h0s0,0,0,0c-18.45-6.15-30.89-23.41-30.89-42.86v-13.77l30.89-15.45,30.89,15.45Z"/>
        </g>
        <g class="cls-20">
          <g class="cls-26">
            <path class="cls-11" d="m-15.65,47.24c.6-7.55,35.37-10.93,77.66-7.54,42.28,3.39,76.07,12.25,75.47,19.81-.6,7.55-35.37,10.93-77.66,7.54-42.28-3.39-76.07-12.25-75.47-19.81Z"/>
            <path class="cls-30" d="m-1.62,48.36c.3-3.78,28.55-4.6,63.09-1.83,34.54,2.77,62.29,8.07,61.99,11.85-.3,3.78-28.55,4.6-63.09,1.83C25.83,57.45-1.92,52.14-1.62,48.36Z"/>
          </g>
          <g>
            <g>
              <path class="cls-17" d="m82.84,54.64c-2.55,16.09-5.94,28.93-7.58,28.67-1.64-.26-.9-13.52,1.64-29.61,2.55-16.09,5.94-28.93,7.58-28.67,1.64.26.9,13.52-1.64,29.61Z"/>
              <path class="cls-5" d="m80.9,54.33c-.48,3.01-1.32,5.38-1.89,5.29-.57-.09-.64-2.6-.17-5.61.48-3.01,1.32-5.38,1.89-5.29.57.09.64,2.6.17,5.61Z"/>
            </g>
            <g>
              <path class="cls-31" d="m80.4,50.85c15.75,2.49,28.29,6,28,7.83-.29,1.83-13.29,1.3-29.05-1.19-15.75-2.49-28.29-6-28-7.83.29-1.83,13.29-1.3,29.05,1.19Z"/>
              <path class="cls-13" d="m80.05,53.02c3.01.48,5.37,1.38,5.27,2.01-.1.64-2.62.76-5.63.29-3.01-.48-5.37-1.38-5.27-2.01.1-.64,2.62-.76,5.63-.29Z"/>
            </g>
          </g>
          <g class="cls-27">
            <g>
              <path class="cls-32" d="m82.84,54.64c-2.55,16.09-5.94,28.93-7.58,28.67-1.64-.26-.9-13.52,1.64-29.61,2.55-16.09,5.94-28.93,7.58-28.67,1.64.26.9,13.52-1.64,29.61Z"/>
              <path class="cls-14" d="m80.9,54.33c-.48,3.01-1.32,5.38-1.89,5.29-.57-.09-.64-2.6-.17-5.61.48-3.01,1.32-5.38,1.89-5.29.57.09.64,2.6.17,5.61Z"/>
            </g>
            <g>
              <path class="cls-33" d="m80.4,50.85c15.75,2.49,28.29,6,28,7.83-.29,1.83-13.29,1.3-29.05-1.19-15.75-2.49-28.29-6-28-7.83.29-1.83,13.29-1.3,29.05,1.19Z"/>
              <path class="cls-12" d="m80.05,53.02c3.01.48,5.37,1.38,5.27,2.01-.1.64-2.62.76-5.63.29-3.01-.48-5.37-1.38-5.27-2.01.1-.64,2.62-.76,5.63-.29Z"/>
            </g>
          </g>
        </g>
      </g>
    </g>
    <g id="Office">
      <path class="cls-16" d="m68.07,28.95l2.64,2.64-11.06,11.06-2.64-2.64,11.06-11.06Zm2.71,10.99l-2.78,2.78-11.06-11.06,2.78-2.78,11.06,11.06Z"/>
      <path class="cls-16" d="m30.07,119.95l2.64,2.64-11.06,11.06-2.64-2.64,11.06-11.06Zm2.71,10.99l-2.78,2.78-11.06-11.06,2.78-2.78,11.06,11.06Z"/>
    </g>
  </g>
</svg>