<?xml version="1.0" encoding="UTF-8"?>
<svg xmlns="http://www.w3.org/2000/svg" xmlns:xlink="http://www.w3.org/1999/xlink" viewBox="0 0 150 150">
  <defs>
    <style>
      .cls-1 {
        fill: none;
      }

      .cls-2 {
        fill: url(#linear-gradient);
      }

      .cls-3 {
        fill: #fff;
      }

      .cls-4 {
        fill: url(#Degradado_sin_nombre_26318);
        mix-blend-mode: hard-light;
      }

      .cls-5 {
        mix-blend-mode: overlay;
      }

      .cls-6 {
        fill: url(#linear-gradient-3);
      }

      .cls-7 {
        fill: url(#linear-gradient-4);
      }

      .cls-8 {
        fill: url(#linear-gradient-2);
      }

      .cls-9 {
        fill: url(#linear-gradient-6);
      }

      .cls-10 {
        fill: url(#linear-gradient-5);
      }

      .cls-11 {
        fill: url(#Degradado_sin_nombre_58);
      }

      .cls-12 {
        fill: url(#Degradado_sin_nombre_15);
      }

      .cls-13 {
        opacity: .46;
      }

      .cls-14 {
        opacity: .6;
      }

      .cls-15 {
        isolation: isolate;
      }

      .cls-16 {
        filter: url(#drop-shadow-31);
      }
    </style>
    <linearGradient id="linear-gradient" x1="10.97" y1="99.25" x2="59.4" y2="99.25" gradientUnits="userSpaceOnUse">
      <stop offset="0" stop-color="#00ffc0"/>
      <stop offset=".1" stop-color="#00f3ae"/>
      <stop offset=".39" stop-color="#00d17b"/>
      <stop offset=".66" stop-color="#00b856"/>
      <stop offset=".87" stop-color="#00a940"/>
      <stop offset="1" stop-color="#01a438"/>
    </linearGradient>
    <linearGradient id="linear-gradient-2" x1="91.47" y1="99.31" x2="138.03" y2="99.31" xlink:href="#linear-gradient"/>
    <linearGradient id="linear-gradient-3" x1="43.42" y1="118.61" x2="107.38" y2="118.61" xlink:href="#linear-gradient"/>
    <linearGradient id="linear-gradient-4" x1="56.67" y1="74.13" x2="94.19" y2="74.13" xlink:href="#linear-gradient"/>
    <linearGradient id="linear-gradient-5" x1="24.02" y1="54.9" x2="61.49" y2="54.9" xlink:href="#linear-gradient"/>
    <linearGradient id="linear-gradient-6" x1="87.61" y1="54.86" x2="124.95" y2="54.86" xlink:href="#linear-gradient"/>
    <filter id="drop-shadow-31" filterUnits="userSpaceOnUse">
      <feOffset dx="0" dy="0"/>
      <feGaussianBlur result="blur" stdDeviation="4.54"/>
      <feFlood flood-color="#00ff48" flood-opacity=".75"/>
      <feComposite in2="blur" operator="in"/>
      <feComposite in="SourceGraphic"/>
    </filter>
    <linearGradient id="Degradado_sin_nombre_15" data-name="Degradado sin nombre 15" x1="44.83" y1="42.66" x2="105.47" y2="42.66" gradientUnits="userSpaceOnUse">
      <stop offset="0" stop-color="#fff" stop-opacity=".9"/>
      <stop offset=".03" stop-color="#fff" stop-opacity=".79"/>
      <stop offset=".07" stop-color="#fff" stop-opacity=".69"/>
      <stop offset=".11" stop-color="#fff" stop-opacity=".6"/>
      <stop offset=".15" stop-color="#fff" stop-opacity=".55"/>
      <stop offset=".2" stop-color="#fff" stop-opacity=".51"/>
      <stop offset=".28" stop-color="#fff" stop-opacity=".5"/>
      <stop offset=".46" stop-color="#fdfdfd" stop-opacity=".48"/>
      <stop offset=".67" stop-color="#f9f9f9" stop-opacity=".43"/>
      <stop offset=".89" stop-color="#f3f3f3" stop-opacity=".35"/>
      <stop offset="1" stop-color="#efefef" stop-opacity=".3"/>
    </linearGradient>
    <radialGradient id="Degradado_sin_nombre_26318" data-name="Degradado sin nombre 26318" cx="296.56" cy="-10110.83" fx="296.56" fy="-10110.83" r="16.9" gradientTransform="translate(7200.79 4063.28) rotate(-69.94) scale(4.46 .8)" gradientUnits="userSpaceOnUse">
      <stop offset="0" stop-color="#fff" stop-opacity=".6"/>
      <stop offset=".15" stop-color="#fff" stop-opacity=".45"/>
      <stop offset=".33" stop-color="#fff" stop-opacity=".29"/>
      <stop offset=".52" stop-color="#fff" stop-opacity=".16"/>
      <stop offset=".69" stop-color="#fff" stop-opacity=".07"/>
      <stop offset=".86" stop-color="#fff" stop-opacity=".02"/>
      <stop offset="1" stop-color="#fff" stop-opacity="0"/>
    </radialGradient>
    <radialGradient id="Degradado_sin_nombre_58" data-name="Degradado sin nombre 58" cx="188.67" cy="-20779" fx="188.67" fy="-20779" r="10.71" gradientTransform="translate(11996.1 5562.32) rotate(-69.94) scale(5.75 .63)" gradientUnits="userSpaceOnUse">
      <stop offset="0" stop-color="#fff"/>
      <stop offset="0" stop-color="#fff" stop-opacity=".96"/>
      <stop offset=".05" stop-color="#fff" stop-opacity=".78"/>
      <stop offset=".09" stop-color="#fff" stop-opacity=".61"/>
      <stop offset=".14" stop-color="#fff" stop-opacity=".47"/>
      <stop offset=".2" stop-color="#fff" stop-opacity=".34"/>
      <stop offset=".25" stop-color="#fff" stop-opacity=".23"/>
      <stop offset=".32" stop-color="#fff" stop-opacity=".15"/>
      <stop offset=".4" stop-color="#fff" stop-opacity=".08"/>
      <stop offset=".49" stop-color="#fff" stop-opacity=".03"/>
      <stop offset=".63" stop-color="#fff" stop-opacity="0"/>
      <stop offset="1" stop-color="#fff" stop-opacity="0"/>
    </radialGradient>
  </defs>
  <g class="cls-15">
    <g id="Layer_2" data-name="Layer 2">
      <rect class="cls-3" width="150" height="150"/>
    </g>
    <g id="Office">
      <g id="_3r7dHW" data-name="3r7dHW">
        <g>
          <path class="cls-2" d="m10.97,95.6c.46-2.5,1.1-4.94,2.21-7.24,1.93-4.03,4.77-7.25,8.49-9.73,4.25-2.84,8.96-3.99,14.02-3.97,4.9.02,9.81,0,14.71,0,2.04,0,2.05.01,2.28,1.99.6,5.1,2.65,9.53,6.17,13.28.8.86.77.93-.33,1.32-6.99,2.48-12.29,6.96-15.84,13.47-2.23,4.09-3.24,8.5-3.3,13.14-.02,1.52,0,3.04,0,4.56,0,1.43-.06,1.51-1.51,1.37-4.07-.39-8.13-.84-12.15-1.62-4.62-.89-9.15-2.09-13.66-3.42-.35-.1-.73-.15-1.09-.22,0-7.65,0-15.29,0-22.94Z"/>
          <path class="cls-8" d="m138.03,118.13c-5.78,2.81-11.91,4.34-18.26,5.15-2.28.29-4.57.48-6.86.7-1.27.12-1.45-.04-1.48-1.36-.06-2.84.14-5.68-.22-8.51-.67-5.21-2.75-9.8-6.01-13.87-3.38-4.22-7.69-7.16-12.77-8.98-1.24-.45-1.21-.48-.35-1.42,3.67-4,5.84-8.65,6.14-14.11.04-.66.18-1.11.97-1.09,5.81.1,11.64-.26,17.44.19,9.38.74,17.91,7.84,20.49,16.91.36,1.27.65,2.55.9,3.84v22.53Z"/>
          <path class="cls-6" d="m43.45,126.68c.04-3.22-.19-7.15.2-11.06.47-4.75,2.17-9.04,5.21-12.76,3.81-4.66,8.69-7.53,14.61-8.6,1.46-.26,2.95-.34,4.44-.33,5.11,0,10.21-.03,15.32.01,8.37.07,15.01,3.6,19.86,10.36,2.61,3.64,3.97,7.8,4.15,12.31.26,6.46.04,12.91.13,19.37.01.93-.31,1.46-1.18,1.87-3.08,1.44-6.29,2.43-9.58,3.26-4.07,1.03-8.22,1.67-12.39,1.95-4.85.33-9.72.38-14.58-.05-6.48-.57-12.86-1.72-19.15-3.34-2.09-.54-4.14-1.24-6.22-1.83-.78-.22-.82-.79-.82-1.42,0-3.01,0-6.02,0-9.73Z"/>
          <path class="cls-7" d="m75.57,55.38c10.26.01,18.68,8.46,18.62,18.78-.07,10.54-8.34,18.82-18.89,18.72-10.71-.1-18.67-8.51-18.63-18.79.03-10.63,8.58-18.79,18.9-18.71Z"/>
          <path class="cls-10" d="m24.09,53.98c.18-8.51,6.74-16.05,15.44-17.6,8.78-1.56,17.68,3.57,20.78,11.89.81,2.17,1.04,4.39,1.18,6.65.04.69-.21,1.3-.79,1.78-4.11,3.41-6.62,7.77-7.68,12.99-.14.68-.43,1.16-1.06,1.49-6.2,3.31-12.43,3.41-18.56-.07-5.23-2.97-8.25-7.55-9.18-13.49-.1-.63-.07-1.28-.13-1.92-.06-.61-.09-1.21,0-1.72Z"/>
          <path class="cls-9" d="m106.35,73.68c-2.44-.09-4.82-.52-7.11-1.43-.71-.28-1.09-.72-1.18-1.47-.48-3.89-2.09-7.31-4.4-10.44-1.48-2-3.28-3.68-5.33-5.08-.54-.36-.76-.77-.72-1.42.42-6.96,3.73-12.19,9.79-15.44,6.65-3.57,13.35-3.14,19.57,1.12,4.93,3.38,7.63,8.18,7.95,14.24.35,6.73-2.22,12.12-7.5,16.21-2.3,1.78-4.95,2.89-7.85,3.35-1.07.17-2.11.48-3.22.36Z"/>
        </g>
      </g>
      <g>
        <g class="cls-16">
          <path class="cls-12" d="m105.47,22.45v13.52c0,19.09-12.21,36.03-30.32,42.06h0s0,0,0,0c-18.11-6.04-30.32-22.98-30.32-42.06v-13.52l30.32-15.16,30.32,15.16Z"/>
          <path class="cls-3" d="m47.07,22.45c9.8-5.28,20.17-10.51,30.13-15.54,0,0,.19-.1.19-.1l.19.1c9.97,5.03,20.33,10.25,30.13,15.54-10.1-4.67-20.51-9.83-30.51-14.78,0,0,.38,0,.38,0-10,4.96-20.4,10.1-30.51,14.78h0Z"/>
          <g class="cls-13">
            <path class="cls-3" d="m76.24,7.29l30.32,15.16v13.52c0,19.09-12.21,36.03-30.32,42.06h0c-18.11-6.04-30.32-22.98-30.32-42.06v-13.52l30.32-15.16m0-1.27c-.2,0-.39.04-.57.13l-30.32,15.16c-.43.22-.7.66-.7,1.14v13.52c0,19.66,12.53,37.05,31.19,43.27.13.04.27.07.4.07s.27-.02.4-.07c18.66-6.22,31.19-23.61,31.19-43.27v-13.52c0-.48-.27-.92-.7-1.14l-30.32-15.16c-.18-.09-.37-.13-.57-.13h0Z"/>
          </g>
          <path class="cls-1" d="m106.56,22.45v13.52c0,19.09-12.21,36.03-30.32,42.06h0s0,0,0,0c-18.11-6.04-30.32-22.98-30.32-42.06v-13.52l30.32-15.16,30.32,15.16Z"/>
        </g>
        <g class="cls-5">
          <g class="cls-14">
            <path class="cls-4" d="m115.86-11.85c6.98,2.55,1.07,36.32-13.21,75.43-14.28,39.11-31.52,68.75-38.5,66.19-6.98-2.55-1.07-36.32,13.21-75.43C91.64,15.24,108.88-14.4,115.86-11.85Z"/>
            <path class="cls-11" d="m111.13,1.12c3.49,1.28-3.13,28.21-14.79,60.15-11.67,31.95-23.95,56.81-27.45,55.53-3.49-1.28,3.13-28.21,14.79-60.15C95.34,24.71,107.63-.15,111.13,1.12Z"/>
          </g>
        </g>
        <path class="cls-3" d="m89.54,35v6.75h-28.27v-6.75h28.27Zm-10.58,17.51h-7.1v-28.27h7.1v28.27Z"/>
      </g>
    </g>
  </g>
</svg>