<?xml version="1.0" encoding="UTF-8"?>
<svg xmlns="http://www.w3.org/2000/svg" xmlns:xlink="http://www.w3.org/1999/xlink" viewBox="0 0 150 150">
  <defs>
    <style>
      .cls-1 {
        fill: url(#linear-gradient);
      }

      .cls-2, .cls-3 {
        fill: #fff;
      }

      .cls-4 {
        fill: url(#Degradado_sin_nombre_243);
      }

      .cls-3 {
        mix-blend-mode: soft-light;
      }

      .cls-5 {
        fill: url(#linear-gradient-3);
      }

      .cls-6 {
        fill: url(#linear-gradient-2);
      }

      .cls-7 {
        fill: url(#Degradado_sin_nombre_28);
      }

      .cls-8 {
        fill: none;
        stroke: #fff;
        stroke-miterlimit: 10;
      }

      .cls-9 {
        isolation: isolate;
      }

      .cls-10 {
        filter: url(#drop-shadow-31);
      }
    </style>
    <linearGradient id="linear-gradient" x1="7.01" y1="79.79" x2="121.91" y2="79.79" gradientUnits="userSpaceOnUse">
      <stop offset="0" stop-color="#fb8999"/>
      <stop offset=".05" stop-color="#fb8599"/>
      <stop offset=".42" stop-color="#fb6a99"/>
      <stop offset=".74" stop-color="#fb5a99"/>
      <stop offset="1" stop-color="#fb5599"/>
    </linearGradient>
    <linearGradient id="linear-gradient-2" x1="65.94" y1="17" x2="65.99" y2="17" xlink:href="#linear-gradient"/>
    <linearGradient id="linear-gradient-3" x1="65.8" y1="17.24" x2="66" y2="17.24" xlink:href="#linear-gradient"/>
    <filter id="drop-shadow-31" filterUnits="userSpaceOnUse">
      <feOffset dx="0" dy="0"/>
      <feGaussianBlur result="blur" stdDeviation="4"/>
      <feFlood flood-color="#ff008c" flood-opacity=".75"/>
      <feComposite in2="blur" operator="in"/>
      <feComposite in="SourceGraphic"/>
    </filter>
    <linearGradient id="Degradado_sin_nombre_28" data-name="Degradado sin nombre 28" x1="76.84" y1="40.06" x2="135.93" y2="40.06" gradientTransform="translate(65.09 -66.03) rotate(48.18)" gradientUnits="userSpaceOnUse">
      <stop offset="0" stop-color="#fff" stop-opacity=".9"/>
      <stop offset="0" stop-color="#fff" stop-opacity=".84"/>
      <stop offset=".03" stop-color="#fff" stop-opacity=".73"/>
      <stop offset=".05" stop-color="#fff" stop-opacity=".65"/>
      <stop offset=".08" stop-color="#fff" stop-opacity=".58"/>
      <stop offset=".11" stop-color="#fff" stop-opacity=".53"/>
      <stop offset=".16" stop-color="#fff" stop-opacity=".51"/>
      <stop offset=".28" stop-color="#fff" stop-opacity=".5"/>
      <stop offset=".46" stop-color="#fdfdfd" stop-opacity=".48"/>
      <stop offset=".67" stop-color="#f9f9f9" stop-opacity=".43"/>
      <stop offset=".89" stop-color="#f3f3f3" stop-opacity=".35"/>
      <stop offset="1" stop-color="#efefef" stop-opacity=".3"/>
    </linearGradient>
    <linearGradient id="Degradado_sin_nombre_243" data-name="Degradado sin nombre 243" x1="-5919.5" y1="-4134.5" x2="-5919.5" y2="-4134.5" gradientUnits="userSpaceOnUse">
      <stop offset="0" stop-color="#fff" stop-opacity=".9"/>
      <stop offset=".03" stop-color="#fff" stop-opacity=".83"/>
      <stop offset=".11" stop-color="#fff" stop-opacity=".68"/>
      <stop offset=".17" stop-color="#fff" stop-opacity=".58"/>
      <stop offset=".23" stop-color="#fff" stop-opacity=".52"/>
      <stop offset=".28" stop-color="#fff" stop-opacity=".5"/>
      <stop offset=".46" stop-color="#fdfdfd" stop-opacity=".48"/>
      <stop offset=".67" stop-color="#f9f9f9" stop-opacity=".43"/>
      <stop offset=".89" stop-color="#f3f3f3" stop-opacity=".35"/>
      <stop offset="1" stop-color="#efefef" stop-opacity=".3"/>
    </linearGradient>
  </defs>
  <g class="cls-9">
    <g id="Layer_2" data-name="Layer 2">
      <rect class="cls-2" width="150" height="150"/>
    </g>
    <g id="Office">
      <g>
        <g id="FhkCjp.tif">
          <g>
            <path class="cls-1" d="m121.91,137.04v6.54H7.01v-6.47h7.47v-1.88c0-25-.01-50,0-75,0-2.41-.32-2.09,2.11-2.09,9.02-.02,18.05-.01,27.08-.01h1.91c0-1.97.05-3.83-.02-5.69-.04-.9.25-1.48.93-2.06,5.33-4.58,10.65-9.17,15.93-13.81.23-.2.44-.5.59-.82h0s0-.05,0-.07v-18.36c0-.61.41-1.13.98-1.27.06-.02.13-.03.2-.03.04-.02.08-.02.12-.02h.38c.6,0,1.11.4,1.26.95.02.03.02.06.03.09-.07.13-.12.26-.17.39h14.95v8.88h-14.75v8.84c.5,1.32,1.46,2.45,2.85,3.53,4.72,3.69,9.12,7.81,13.68,11.71.63.55.92,1.11.89,1.96-.06,1.86-.02,3.73-.02,5.76h31.02v78.93h7.49Z"/>
            <path class="cls-6" d="m65.99,16.98s-.02.04-.02.06c0-.03,0-.06-.03-.09.02,0,.03.02.05.03Z"/>
          </g>
          <path class="cls-5" d="m66,17.32v.11h-.2c.05-.13.1-.26.17-.39.02.09.03.18.03.28Z"/>
        </g>
        <path class="cls-2" d="m56.56,65.34v4.76h4.35v-4.76h2.71v11.66h-2.68v-4.59h-4.36v4.61h-2.71v-11.68h2.7Z"/>
        <path class="cls-2" d="m86.91,71.17c0,.64.07,1.29-.01,1.91-.34,2.55-2.48,4.29-5.11,4.2-2.72-.09-4.72-1.95-4.86-4.6-.05-.98-.05-1.96,0-2.94.15-2.86,2.21-4.74,5.13-4.69,2.78.04,4.79,2.03,4.89,4.84.01.43,0,.85,0,1.28-.01,0-.03,0-.04,0Zm-2.66.04c-.04-.7-.01-1.43-.13-2.14-.2-1.19-1.1-1.96-2.19-1.93-1.19.04-1.97.74-2.1,1.86-.15,1.38-.15,2.81-.02,4.19.11,1.24,1.02,1.91,2.17,1.9,1.14,0,1.94-.71,2.15-1.95.1-.63.08-1.27.12-1.93Z"/>
        <path class="cls-2" d="m75.43,71.17c0,.47.03.94,0,1.4-.17,2.76-2.14,4.65-4.9,4.71-2.8.06-4.91-1.8-5.12-4.59-.08-1.02-.08-2.05,0-3.06.21-2.8,2.29-4.62,5.13-4.57,2.74.05,4.74,1.97,4.9,4.71.03.47,0,.94,0,1.4Zm-2.71.43c-.05-1.06-.01-1.8-.13-2.5-.2-1.19-1.11-1.98-2.18-1.95-1.19.03-2.01.7-2.1,1.83-.13,1.51-.13,3.05.05,4.55.12,1.01.96,1.56,2.04,1.56,1.03,0,1.74-.49,2.01-1.44.21-.76.24-1.58.31-2.05Z"/>
        <path class="cls-2" d="m41.43,68.71c-1.16-.02-2.36.57-3.02-1.04-.31-.76-2.05-.72-2.64-.08-.63.68-.52,1.37.29,1.78.9.46,1.88.76,2.82,1.16,2.33.98,3.19,2.39,2.62,4.27-.11.36-.28.72-.51,1.01-1.63,2.02-6.46,1.91-7.9-.22-.4-.59-.51-1.38-.81-2.24h2.73c.55,1.59,1.26,2.11,2.67,1.75.45-.12,1.11-.59,1.14-.94.04-.45-.34-1.16-.75-1.39-1.07-.59-2.26-.96-3.38-1.46-1.21-.54-2.02-1.4-2.01-2.83,0-.13,0-.25.02-.38.19-1.93,2.21-3.18,4.89-3.01,2.45.15,3.87,1.44,3.85,3.63Z"/>
        <path class="cls-2" d="m52.56,69.14h-2.54c-.54-.69-.84-1.43-1.39-1.73-1.27-.69-2.63.08-2.8,1.57-.14,1.22-.12,2.46-.08,3.69.05,1.56.7,2.37,1.86,2.49,1.15.12,1.58-.26,2.14-2.02.37,0,.78,0,1.2,0,.38,0,.75,0,1.11,0,.3,1.58-.21,2.79-1.51,3.5-3.04,1.65-7.66.31-7.6-4.18.02-1.15-.04-2.3.06-3.44.16-1.83,1.39-3.3,3.16-3.74,1.95-.48,3.87-.36,5.28,1.26.53.62.69,1.57,1.11,2.61Z"/>
        <path class="cls-2" d="m91.38,74.98h5.03v2.03h-7.62v-11.65h2.59v9.62Z"/>
        <g>
          <g>
            <path class="cls-8" d="m22.78,106.13v-9.25h9.26v9.25h-9.26Z"/>
            <path class="cls-8" d="m34.79,106.13v-9.25h9.26v9.25h-9.26Z"/>
            <path class="cls-8" d="m22.78,117.38v-9.25h9.26v9.25h-9.26Z"/>
            <path class="cls-8" d="m34.79,117.38v-9.25h9.26v9.25h-9.26Z"/>
          </g>
          <g>
            <path class="cls-8" d="m84.87,106.39v-9.25h9.26v9.25h-9.26Z"/>
            <path class="cls-8" d="m96.88,106.39v-9.25h9.26v9.25h-9.26Z"/>
            <path class="cls-8" d="m84.87,117.63v-9.25h9.26v9.25h-9.26Z"/>
            <path class="cls-8" d="m96.88,117.63v-9.25h9.26v9.25h-9.26Z"/>
          </g>
        </g>
        <path class="cls-8" d="m77.4,128.47h-27.77c-.03-.5-.08-.95-.08-1.4,0-11.16-.03-22.32,0-33.48.02-7.75,5.09-13.43,12.67-14.3,7.33-.84,14.6,4.94,15.02,12.31.32,5.56.14,11.15.16,16.73.02,6.22,0,12.44,0,18.65,0,.46,0,.92,0,1.48Z"/>
        <g>
          <circle class="cls-8" cx="64.37" cy="49.52" r="6.39"/>
          <g>
            <line class="cls-8" x1="63.9" y1="45.04" x2="63.78" y2="50.63"/>
            <line class="cls-8" x1="67.3" y1="50.75" x2="63.78" y2="50.81"/>
            <circle class="cls-2" cx="63.78" cy="50.87" r=".3"/>
          </g>
        </g>
      </g>
      <g class="cls-10">
        <g>
          <circle class="cls-7" cx="106.17" cy="39.96" r="29.55"/>
          <path class="cls-3" d="m126.3,61.59c-.22.19-.44.38-.66.57,11.56-10.95,12.37-29.18,1.68-41.13-10.69-11.95-28.9-13.16-41.06-2.89.21-.2.42-.4.64-.59,12.16-10.88,30.84-9.84,41.72,2.32,10.88,12.16,9.84,30.84-2.32,41.72Z"/>
          <path class="cls-4" d="m106.16,10.41c8.12,0,16.19,3.32,22.03,9.85,10.88,12.16,9.84,30.84-2.32,41.72-5.64,5.04-12.68,7.53-19.69,7.53-8.12,0-16.19-3.32-22.03-9.85-10.88-12.16-9.84-30.84,2.32-41.72,5.64-5.04,12.68-7.53,19.69-7.53m0-.78h0c-7.47,0-14.64,2.74-20.21,7.73-12.46,11.15-13.53,30.36-2.38,42.83,5.75,6.42,13.99,10.11,22.61,10.11,7.46,0,14.64-2.74,20.21-7.73,6.04-5.4,9.61-12.83,10.06-20.92.45-8.09-2.28-15.87-7.68-21.91-5.75-6.42-13.99-10.11-22.61-10.11h0Z"/>
          <g id="jErO5Y.tif">
            <path class="cls-2" d="m106.59,26.43s.03.02.04.03c.32.04.59.21.87.36,1.17.61,2.34,1.23,3.51,1.85,1.16.61,2.32,1.22,3.48,1.83,1.21.64,2.41,1.27,3.62,1.91,1.16.61,2.32,1.22,3.48,1.83.32.17.64.33.96.5.17.09.27.23.27.42,0,.19-.1.33-.26.41-.37.19-.75.37-1.13.55-.63.3-1.25.59-1.88.89-.99.47-1.99.94-2.98,1.41-.03.01-.05.06-.05.09-.05,2.06-.1,4.12-.13,6.18-.01.81-.3,1.5-.81,2.12-.49.59-1.09,1.03-1.75,1.41-.8.45-1.64.78-2.52,1.03-.94.27-1.9.43-2.87.54-.99.11-1.97.14-2.96.09-.59-.03-1.18-.08-1.76-.16-.57-.08-1.13-.18-1.69-.31-1.2-.28-2.36-.67-3.45-1.27-.74-.41-1.42-.89-1.97-1.53-.47-.55-.79-1.18-.87-1.91-.01-.12-.02-.24-.02-.37.04-2.08.09-4.16.13-6.24,0-.05.01-.09-.05-.12-.66-.34-1.31-.69-1.96-1.04-.17-.09-.34-.18-.53-.29,0,.08,0,.15,0,.21-.08,3.92-.17,7.84-.25,11.75,0,.19-.01.38-.01.57,0,.04.02.08.05.1.16.12.29.27.38.46.32.69.65,1.37.96,2.06.19.43.09.87-.23,1.16-.22.19-.48.29-.76.28-.68-.01-1.35-.03-2.03-.04-.51,0-1.05-.44-1.01-1.11,0-.14.06-.3.12-.43.33-.65.67-1.29,1.01-1.94.1-.19.23-.36.42-.48.03-.02.05-.07.05-.1,0-.1,0-.2,0-.3.09-4.09.18-8.18.27-12.27,0-.1,0-.19.01-.29,0-.05.03-.09.06-.15,0,0-.04-.02-.07-.04-.75-.39-1.5-.79-2.25-1.18-.17-.09-.27-.24-.26-.44,0-.2.11-.34.28-.42,1.18-.56,2.35-1.12,3.53-1.67,3.26-1.54,6.52-3.08,9.78-4.63.81-.38,1.63-.77,2.44-1.14.14-.06.29-.09.44-.14.02,0,.03-.02.05-.03.11,0,.22,0,.32,0Zm14.48,8.71s-.06-.04-.09-.05c-.47-.25-.94-.5-1.41-.75-1.42-.75-2.85-1.5-4.27-2.25-.96-.5-1.91-1.01-2.87-1.51-1.64-.87-3.28-1.73-4.93-2.6-.29-.15-.57-.31-.86-.46-.15-.08-.31-.09-.47,0-.19.1-.38.19-.57.28-2.92,1.38-5.84,2.76-8.76,4.14-1.67.79-3.34,1.58-5.01,2.36-.13.06-.26.12-.4.19.04.02.07.04.09.05.32.17.64.33.96.5,1.19.63,2.38,1.25,3.56,1.88,1.18.62,2.37,1.25,3.55,1.87,2.09,1.1,4.17,2.2,6.26,3.3.17.09.33.1.5.01.19-.1.39-.19.59-.29,2.85-1.35,5.7-2.69,8.55-4.04.74-.35,1.49-.7,2.23-1.05.86-.41,1.72-.82,2.59-1.23.24-.12.49-.23.75-.36Zm-24.19,3.37c0,.05,0,.09,0,.13,0,.14,0,.28,0,.42-.04,1.74-.08,3.47-.11,5.21,0,.17,0,.34.03.5.09.49.34.9.67,1.26.55.6,1.23,1.03,1.96,1.4.95.48,1.96.79,3,1.02.81.18,1.62.29,2.45.36.88.07,1.77.08,2.65.03.76-.04,1.51-.14,2.25-.27.91-.17,1.79-.42,2.65-.78.73-.31,1.41-.7,2.01-1.23.61-.53.94-1.18.94-2.01.01-1.81.07-3.63.11-5.44,0-.05,0-.1,0-.16-.2.1-.39.19-.58.28-2.17,1.03-4.34,2.05-6.51,3.08-.57.27-1.15.54-1.73.8-.4.18-.8.17-1.2-.04-.78-.42-1.57-.82-2.35-1.24-.84-.44-1.68-.89-2.51-1.34-1.18-.63-2.37-1.25-3.55-1.87-.05-.03-.1-.06-.17-.09Zm-5.46,13.63l2.05.04c-.33-.69-.65-1.38-.98-2.08-.36.68-.71,1.36-1.07,2.04Z"/>
          </g>
        </g>
      </g>
    </g>
  </g>
</svg>