<?xml version="1.0" encoding="UTF-8"?>
<svg xmlns="http://www.w3.org/2000/svg" xmlns:xlink="http://www.w3.org/1999/xlink" viewBox="0 0 150 150">
  <defs>
    <style>
      .cls-1 {
        fill: url(#linear-gradient);
      }

      .cls-2 {
        stroke: url(#Degradado_sin_nombre_28);
        stroke-width: 2.02px;
      }

      .cls-2, .cls-3, .cls-4 {
        fill: none;
        stroke-miterlimit: 10;
      }

      .cls-3 {
        stroke-width: .83px;
      }

      .cls-3, .cls-4 {
        stroke: #fff;
      }

      .cls-5 {
        fill: #fff;
      }

      .cls-6 {
        fill: url(#linear-gradient-2);
      }

      .cls-7 {
        fill: url(#Degradado_sin_nombre_28-2);
      }

      .cls-8 {
        filter: url(#drop-shadow-28);
      }

      .cls-4 {
        stroke-width: .93px;
      }
    </style>
    <linearGradient id="linear-gradient" x1="8" y1="80.67" x2="115" y2="80.67" gradientUnits="userSpaceOnUse">
      <stop offset="0" stop-color="#ff2b2b"/>
      <stop offset=".05" stop-color="#fc272e"/>
      <stop offset=".42" stop-color="#ee1149"/>
      <stop offset=".74" stop-color="#e60459"/>
      <stop offset="1" stop-color="#e3005f"/>
    </linearGradient>
    <linearGradient id="linear-gradient-2" y1="11.51" y2="11.51" xlink:href="#linear-gradient"/>
    <filter id="drop-shadow-28" filterUnits="userSpaceOnUse">
      <feOffset dx="0" dy="0"/>
      <feGaussianBlur result="blur" stdDeviation="4.35"/>
      <feFlood flood-color="#f90041" flood-opacity=".75"/>
      <feComposite in2="blur" operator="in"/>
      <feComposite in="SourceGraphic"/>
    </filter>
    <linearGradient id="Degradado_sin_nombre_28" data-name="Degradado sin nombre 28" x1="105" y1="106.61" x2="105" y2="41.79" gradientUnits="userSpaceOnUse">
      <stop offset="0" stop-color="#fff" stop-opacity=".9"/>
      <stop offset="0" stop-color="#fff" stop-opacity=".84"/>
      <stop offset=".03" stop-color="#fff" stop-opacity=".73"/>
      <stop offset=".05" stop-color="#fff" stop-opacity=".65"/>
      <stop offset=".08" stop-color="#fff" stop-opacity=".58"/>
      <stop offset=".11" stop-color="#fff" stop-opacity=".53"/>
      <stop offset=".16" stop-color="#fff" stop-opacity=".51"/>
      <stop offset=".28" stop-color="#fff" stop-opacity=".5"/>
      <stop offset=".46" stop-color="#fdfdfd" stop-opacity=".48"/>
      <stop offset=".67" stop-color="#f9f9f9" stop-opacity=".43"/>
      <stop offset=".89" stop-color="#f3f3f3" stop-opacity=".35"/>
      <stop offset="1" stop-color="#efefef" stop-opacity=".3"/>
    </linearGradient>
    <linearGradient id="Degradado_sin_nombre_28-2" data-name="Degradado sin nombre 28" x1="68.49" y1="74.24" x2="141.43" y2="74.24" xlink:href="#Degradado_sin_nombre_28"/>
  </defs>
  <g id="Layer_2" data-name="Layer 2">
    <rect class="cls-5" width="150" height="150"/>
  </g>
  <g id="Layer_1" data-name="Layer 1">
    <g>
      <g>
        <rect class="cls-1" x="8" y="19.34" width="107" height="122.66"/>
        <rect class="cls-6" x="8" y="7" width="107" height="9.02"/>
        <rect class="cls-4" x="19.67" y="43.71" width="23.06" height="20.2"/>
        <rect class="cls-4" x="50.33" y="43.71" width="23.06" height="20.2"/>
        <rect class="cls-4" x="80.99" y="43.71" width="23.06" height="20.2"/>
        <rect class="cls-4" x="19.67" y="70.57" width="23.06" height="20.2"/>
        <rect class="cls-4" x="50.33" y="70.57" width="23.06" height="20.2"/>
        <rect class="cls-3" x="80.99" y="70.57" width="23.06" height="20.2"/>
        <rect class="cls-4" x="19.67" y="97.43" width="23.06" height="20.2"/>
        <rect class="cls-4" x="50.33" y="97.43" width="23.06" height="20.2"/>
        <rect class="cls-3" x="80.99" y="97.43" width="23.06" height="20.2"/>
      </g>
      <g>
        <g class="cls-8">
          <path class="cls-2" d="m70.59,105.6h68.81c2.1,0,3.41-2.29,2.35-4.12l-32.72-56.82c-1.41-2.45-4.9-2.5-6.38-.08l-34.39,56.85c-1.11,1.83.2,4.17,2.32,4.17Z"/>
          <path class="cls-7" d="m69.42,104.03h71.08c.72,0,1.17-.78.8-1.41l-32.48-56.4c-1.34-2.32-4.65-2.37-6.05-.08l-34.15,56.46c-.38.63.07,1.43.79,1.43Z"/>
        </g>
        <path class="cls-5" d="m101.59,87.94c-.27-1.1-.61-2.12-.78-3.18-.69-4.33.35-8.21,3.08-11.61.51-.64,1.12-1.2,1.71-1.77.15-.14.42-.17.63-.24.03.22.12.46.07.66-.82,3.61-.44,7.05,1.25,10.35.18.34.36.42.72.34,1.25-.29,1.89-1.22,2.33-2.32.25-.61.37-1.28.53-1.93.13-.53.36-.69.78-.37.77.61,1.57,1.23,2.19,1.98,4.09,4.94,3.52,11.91-1.28,16.16-5.15,4.57-13.52,3.29-17.1-2.63-3.05-5.06-2.05-11.28,2.44-15.06.1-.09.21-.2.34-.22.17-.03.4-.06.51.03.09.08.1.34.06.5-.23.95-.58,1.87-.71,2.83-.24,1.84.05,3.6,1.25,5.1.52.66,1.18,1.12,2,1.36Z"/>
        <path class="cls-5" d="m112.59,63.55s-4.4,2.17-1.89,6.11c0,0,3.98-.66,1.89-6.11Z"/>
        <path class="cls-5" d="m98.47,71.27s-1.88,2,.19,3.57c0,0,1.96-1.13-.19-3.57Z"/>
      </g>
    </g>
  </g>
</svg>