<?xml version="1.0" encoding="UTF-8"?>
<svg xmlns="http://www.w3.org/2000/svg" xmlns:xlink="http://www.w3.org/1999/xlink" viewBox="0 0 150 150">
  <defs>
    <style>
      .cls-1 {
        fill: url(#linear-gradient);
      }

      .cls-2, .cls-3 {
        fill: #fff;
      }

      .cls-4 {
        fill: url(#Degradado_sin_nombre_243);
      }

      .cls-3 {
        mix-blend-mode: soft-light;
      }

      .cls-5 {
        fill: url(#Degradado_sin_nombre_28);
      }

      .cls-6 {
        fill: none;
        stroke: #fff;
        stroke-miterlimit: 10;
      }

      .cls-7 {
        isolation: isolate;
      }

      .cls-8 {
        filter: url(#drop-shadow-30);
      }
    </style>
    <linearGradient id="linear-gradient" x1="7" y1="74.5" x2="87" y2="74.5" gradientUnits="userSpaceOnUse">
      <stop offset="0" stop-color="#0e2b72"/>
      <stop offset=".04" stop-color="#0e2e79"/>
      <stop offset=".26" stop-color="#143fa8"/>
      <stop offset=".48" stop-color="#194dcd"/>
      <stop offset=".68" stop-color="#1c57e8"/>
      <stop offset=".86" stop-color="#1e5df8"/>
      <stop offset="1" stop-color="#1f60fe"/>
    </linearGradient>
    <filter id="drop-shadow-30" filterUnits="userSpaceOnUse">
      <feOffset dx="0" dy="0"/>
      <feGaussianBlur result="blur" stdDeviation="4"/>
      <feFlood flood-color="#0526e8" flood-opacity=".75"/>
      <feComposite in2="blur" operator="in"/>
      <feComposite in="SourceGraphic"/>
    </filter>
    <linearGradient id="Degradado_sin_nombre_28" data-name="Degradado sin nombre 28" x1="73.99" y1="49.17" x2="140.6" y2="49.17" gradientUnits="userSpaceOnUse">
      <stop offset="0" stop-color="#fff" stop-opacity=".9"/>
      <stop offset="0" stop-color="#fff" stop-opacity=".84"/>
      <stop offset=".03" stop-color="#fff" stop-opacity=".73"/>
      <stop offset=".05" stop-color="#fff" stop-opacity=".65"/>
      <stop offset=".08" stop-color="#fff" stop-opacity=".58"/>
      <stop offset=".11" stop-color="#fff" stop-opacity=".53"/>
      <stop offset=".16" stop-color="#fff" stop-opacity=".51"/>
      <stop offset=".28" stop-color="#fff" stop-opacity=".5"/>
      <stop offset=".46" stop-color="#fdfdfd" stop-opacity=".48"/>
      <stop offset=".67" stop-color="#f9f9f9" stop-opacity=".43"/>
      <stop offset=".89" stop-color="#f3f3f3" stop-opacity=".35"/>
      <stop offset="1" stop-color="#efefef" stop-opacity=".3"/>
    </linearGradient>
    <linearGradient id="Degradado_sin_nombre_243" data-name="Degradado sin nombre 243" x1="-5374.5" y1="-4134.5" x2="-5374.5" y2="-4134.5" gradientUnits="userSpaceOnUse">
      <stop offset="0" stop-color="#fff" stop-opacity=".9"/>
      <stop offset=".03" stop-color="#fff" stop-opacity=".83"/>
      <stop offset=".11" stop-color="#fff" stop-opacity=".68"/>
      <stop offset=".17" stop-color="#fff" stop-opacity=".58"/>
      <stop offset=".23" stop-color="#fff" stop-opacity=".52"/>
      <stop offset=".28" stop-color="#fff" stop-opacity=".5"/>
      <stop offset=".46" stop-color="#fdfdfd" stop-opacity=".48"/>
      <stop offset=".67" stop-color="#f9f9f9" stop-opacity=".43"/>
      <stop offset=".89" stop-color="#f3f3f3" stop-opacity=".35"/>
      <stop offset="1" stop-color="#efefef" stop-opacity=".3"/>
    </linearGradient>
  </defs>
  <g class="cls-7">
    <g id="Layer_2" data-name="Layer 2">
      <rect class="cls-2" width="150" height="150"/>
    </g>
    <g id="Office">
      <g>
        <path class="cls-2" d="m68.93,91.93s-2.87,6.45-8.6,6.45c-8.6,0-10.74-12.9-10.74-12.9l19.34,6.45Z"/>
        <rect class="cls-1" x="7" y="7" width="80" height="135"/>
        <g>
          <path class="cls-6" d="m19.1,32.92h13.12v13.1h-13.12v-13.1Z"/>
          <path class="cls-6" d="m40.1,32.92h13.12v13.1h-13.12v-13.1Z"/>
          <path class="cls-6" d="m61.1,32.92h13.12v13.1h-13.12v-13.1Z"/>
          <path class="cls-6" d="m61.1,53.92h13.12v13.1h-13.12v-13.1Z"/>
          <path class="cls-6" d="m19.1,53.92h13.12v13.1h-13.12v-13.1Z"/>
          <path class="cls-6" d="m40.1,53.92h13.12v13.1h-13.12v-13.1Z"/>
        </g>
        <g>
          <path class="cls-6" d="m19.1,74.92h13.12v13.1h-13.12v-13.1Z"/>
          <path class="cls-6" d="m40.1,74.92h13.12v13.1h-13.12v-13.1Z"/>
          <path class="cls-6" d="m61.1,74.92h13.12v13.1h-13.12v-13.1Z"/>
          <path class="cls-6" d="m61.1,95.92h13.12v13.1h-13.12v-13.1Z"/>
          <path class="cls-6" d="m19.1,95.92h13.12v13.1h-13.12v-13.1Z"/>
          <path class="cls-6" d="m40.1,95.92h13.12v13.1h-13.12v-13.1Z"/>
          <g>
            <path class="cls-6" d="m32.1,115.92h13.12v24.08h-13.12v-24.08Z"/>
            <path class="cls-6" d="m49.1,115.92h13.12v24.08h-13.12v-24.08Z"/>
          </g>
        </g>
        <path class="cls-2" d="m42.83,16.67c1.44,0,2.89-.03,4.33.01.53.02.73-.18.88-.66.42-1.38.89-2.75,1.41-4.33.51,1.52.98,2.84,1.38,4.18.18.6.43.83,1.08.8,1.39-.06,2.78-.02,4.24.12-.75.55-1.5,1.09-2.24,1.65-.59.45-1.47.81-1.68,1.4-.19.55.33,1.35.55,2.04.28.89.57,1.79.92,2.88-1.53-1.11-2.88-2.08-4.24-3.07-1.37.99-2.71,1.96-4.25,3.07.51-1.58.93-2.95,1.41-4.31.17-.49.13-.79-.34-1.1-1.19-.81-2.34-1.69-3.51-2.53.02-.05.04-.11.06-.16Z"/>
        <path class="cls-2" d="m29.03,17.07h3.53c.37-1.14.74-2.25,1.17-3.55.33.99.64,1.78.84,2.61.18.73.5,1.07,1.32.98.84-.09,1.69-.02,2.64.13-.52.38-1.04.76-1.55,1.14q-1.34.98-.84,2.52c.2.61.39,1.22.66,2.06-1.13-.82-2.09-1.5-3.06-2.21-.97.7-1.91,1.37-2.85,2.05-.05-.03-.09-.06-.14-.09.26-.82.47-1.66.81-2.45.28-.67.18-1.06-.45-1.45-.75-.46-1.43-1.04-2.15-1.56.02-.06.05-.11.07-.17Z"/>
        <path class="cls-2" d="m68,22.79c-.93-.67-1.85-1.34-2.82-2.04-.97.7-1.93,1.39-3.08,2.22.34-1.06.58-1.92.9-2.75.24-.62.2-1.02-.43-1.4-.76-.45-1.45-1.04-2.15-1.74.73,0,1.45,0,2.18,0q1.4,0,1.84-1.35c.22-.68.44-1.36.73-2.23.37,1.14.71,2.08.98,3.03.13.45.35.57.79.56.99-.03,1.97,0,3.01.14-.81.6-1.61,1.21-2.44,1.78-.35.24-.42.46-.28.86.33.93.62,1.88.92,2.82-.06.03-.11.06-.17.08Z"/>
        <path class="cls-2" d="m78.55,14.77c.23.71.44,1.43.72,2.12.09.21.39.43.62.45.74.06,1.48.02,2.27.17-.72.54-1.45,1.08-2.18,1.63.29.9.56,1.78.89,2.82-.89-.64-1.63-1.17-2.4-1.73-.75.54-1.5,1.08-2.4,1.73.33-1.05.6-1.91.89-2.83-.73-.54-1.46-1.08-2.18-1.62.02-.05.03-.1.05-.15.74,0,1.47-.02,2.21,0,.39.02.58-.11.69-.49.2-.71.45-1.41.68-2.11h.17Z"/>
        <path class="cls-2" d="m24.13,17.52c-.72.53-1.44,1.06-2.17,1.6.28.91.56,1.78.89,2.83-.88-.64-1.6-1.15-2.39-1.72-.74.53-1.5,1.07-2.41,1.71.32-1.03.6-1.9.88-2.81-.73-.54-1.45-1.07-2.16-1.61,0-.06,0-.11,0-.17.72,0,1.45-.03,2.17.01.43.02.62-.14.74-.54.2-.69.44-1.37.75-2.29.3.89.55,1.57.74,2.26.12.44.33.59.78.57.71-.04,1.43-.01,2.14-.01l.04.17Z"/>
      </g>
      <g>
        <g class="cls-8">
          <g>
            <circle class="cls-5" cx="107.29" cy="49.17" r="33.31"/>
            <path class="cls-3" d="m140.6,48.51c0,.33,0,.65-.02.98-.51-17.94-15.22-32.33-33.29-32.33s-32.78,14.39-33.29,32.33c-.01-.33-.02-.65-.02-.98,0-18.4,14.91-33.31,33.31-33.31s33.31,14.91,33.31,33.31Z"/>
            <path class="cls-4" d="m107.29,15.86c18.4,0,33.31,14.91,33.31,33.31s-14.91,33.31-33.31,33.31-33.31-14.91-33.31-33.31,14.91-33.31,33.31-33.31m0-1.07c-18.96,0-34.38,15.42-34.38,34.38s15.42,34.38,34.38,34.38,34.38-15.42,34.38-34.38-15.42-34.38-34.38-34.38h0Z"/>
          </g>
        </g>
        <g>
          <path class="cls-2" d="m119.24,58.72c0-3.31-.02-6.62.01-9.93,0-.95-.23-1.8-.72-2.59-.33-.55-.68-1.09-1.06-1.61-1.08-1.46-1.69-3.1-1.88-4.91-.21-1.99-.15-3.97.5-5.89.34-1.02.93-1.89,1.83-2.52.63-.44,1.33-.67,2.09-.75,1.1-.11,2.19-.05,3.22.42,1.09.49,1.79,1.35,2.2,2.46.54,1.42.62,2.9.59,4.39-.02.95,0,1.89-.26,2.83-.43,1.54-1.2,2.92-2.01,4.28-.41.68-.85,1.34-1.25,2.03-.14.25-.23.55-.27.83-.06.47-.08.96-.08,1.44,0,4.01-.02,8.02,0,12.03.01,2.62.06,5.24.12,7.86,0,.34-.1.51-.4.62-.84.31-1.66.23-2.46-.12-.08-.04-.14-.21-.15-.33-.01-.83,0-1.67,0-2.5,0-2.68,0-5.36,0-8.03Z"/>
          <path class="cls-2" d="m91.61,30.74c.09.71.19,1.42.28,2.13.21,1.65.41,3.29.61,4.94.17,1.45.32,2.9.5,4.34.04.34.12.68.26.99.17.4.53.42.7.03.17-.4.29-.83.35-1.26.26-2.05.5-4.11.74-6.17.2-1.69.41-3.39.65-5.09.1.63.21,1.27.29,1.9.21,1.62.42,3.23.61,4.85.19,1.52.35,3.05.55,4.57.04.31.12.63.25.91.08.17.3.37.47.39.14.01.4-.19.45-.35.16-.48.29-.97.36-1.47.21-1.53.38-3.06.57-4.6.2-1.63.4-3.25.61-4.88.06-.45.13-.89.24-1.34.03.23.06.46.09.69.32,2.64.61,5.28.98,7.91.28,1.96.24,3.92.23,5.89,0,.13-.06.28-.14.4-.72,1.08-1.45,2.17-2.19,3.24-.61.89-1.02,1.83-1.01,2.94.01,4.74.01,9.48.01,14.22,0,.68,0,1.36,0,2.04,0,1.1-.76,1.86-1.86,1.87-.33,0-.66.03-.97-.04-.91-.19-1.42-.87-1.42-1.87,0-1.77,0-3.53,0-5.3,0-3.65,0-7.29-.01-10.94,0-1.12-.44-2.08-1.1-2.96-.82-1.09-1.61-2.2-2.39-3.31-.1-.14-.13-.36-.14-.54-.08-1.83.07-3.64.31-5.45.33-2.49.6-4.99.9-7.48.05-.41.12-.81.18-1.22.02,0,.03,0,.05.01Z"/>
          <path class="cls-2" d="m110.24,35.97c0,2.85.02,5.7-.01,8.55,0,.61-.18,1.21-.25,1.82-.04.36-.06.73-.04,1.09.09,2.47.15,4.95.29,7.42.15,2.67.34,5.34.58,8.01.1,1.1.38,2.19.59,3.28.13.71.19,1.43.03,2.14-.18.79-.64,1.31-1.47,1.45-.22.04-.43.08-.65.1-.92.06-1.39-.28-1.62-1.19-.2-.79-.24-1.6-.12-2.4.16-1.11.45-2.2.58-3.31.17-1.48.33-2.98.33-4.47,0-2.91-.08-5.81-.15-8.72-.02-.89-.14-1.78-.2-2.67-.04-.64-.34-1.14-.79-1.55-.64-.59-.88-1.26-.87-2.16.05-4.16,0-8.31.03-12.47,0-1.49.18-2.97.75-4.37.26-.65.62-1.25,1.21-1.65.28-.19.62-.3.94-.39.25-.07.46.03.5.32.12.86.31,1.73.32,2.59.04,2.86.02,5.72.02,8.58,0,0,.02,0,.03,0Z"/>
        </g>
      </g>
    </g>
  </g>
</svg>